<svg xmlns="http://www.w3.org/2000/svg" viewBox="0 0 100 100" fill-rule="evenodd"><g class="t-group-origins"><path d="M89.381 19.52h-78.76c-3.983 0-7.224 3.241-7.224 7.224v46.513c0 3.983 3.241 7.223 7.224 7.223h78.76c3.983 0 7.223-3.24 7.223-7.223V26.744c0-3.983-3.24-7.224-7.223-7.224zm-78.761 3h78.76a4.228 4.228 0 0 1 4.223 4.224v3.328H6.396v-3.328a4.229 4.229 0 0 1 4.224-4.224zm82.984 17.955H6.397v-7.404h87.207v7.404zm-4.223 37.004h-78.76a4.229 4.229 0 0 1-4.224-4.223V43.475h87.207v29.781a4.229 4.229 0 0 1-4.223 4.223z" stroke-width="1" stroke="#ddbe7e" fill="#ddbe7e" stroke-width-old="0"></path><path d="M17.894 61.108a5.236 5.236 0 0 0-5.229 5.231 5.234 5.234 0 0 0 5.229 5.227 5.235 5.235 0 0 0 5.231-5.227 5.237 5.237 0 0 0-5.231-5.231zm0 7.458a2.23 2.23 0 0 1-2.229-2.227c0-1.23 1-2.231 2.229-2.231a2.234 2.234 0 0 1 2.231 2.231 2.232 2.232 0 0 1-2.231 2.227zm53.45-3.551H29.08a1.5 1.5 0 1 0 0 3h42.264a1.5 1.5 0 1 0 0-3z" stroke-width="1" stroke="#ddbe7e" fill="#ddbe7e" stroke-width-old="0"></path></g></svg>
