<svg xmlns="http://www.w3.org/2000/svg" viewBox="0 0 100 100" fill-rule="evenodd"><g class="t-group-origins"><path d="M12.356 77.606a1.452 1.452 0 1 0 0 2.906h74.755a1.452 1.452 0 1 0 0-2.906h-8.109V34.718h8.109a1.452 1.452 0 1 0 0-2.906h-66.43c-.13-.038-.264-.065-.406-.065s-.277.027-.406.065h-7.513a1.452 1.452 0 1 0 0 2.906h6.472v42.888h-6.472zm29.05 0V34.718h16.056v42.888H41.406zm34.69 0H60.368V34.718h15.728v42.888zM21.722 34.718H38.5v42.888H21.722V34.718zm74.2 54.722H3.545a1.452 1.452 0 1 0 0 2.906h92.377a1.452 1.452 0 1 0 0-2.906z" stroke-width="1" stroke="#ddbe7e" fill="#ddbe7e" stroke-width-old="0"></path><path d="M97.176 31.8 50.987 5.408a1.455 1.455 0 0 0-1.438-.002L3.057 31.798a1.453 1.453 0 0 0 1.435 2.528L50.264 8.342l45.471 25.981a1.453 1.453 0 0 0 1.441-2.523z" stroke-width="1" stroke="#ddbe7e" fill="#ddbe7e" stroke-width-old="0"></path></g></svg>
