<svg xmlns="http://www.w3.org/2000/svg" viewBox="0 0 100 100" fill-rule="evenodd"><g class="t-group-origins"><path d="M83 14.28A14.49 14.49 0 0 0 60.32 32a.76.76 0 0 0 .09.18L69.84 48h-10.3a10.5 10.5 0 1 0 0 21h2.08a10 10 0 1 1 0 20H27.67l10.16-16.26c.05-.08.09-.16.13-.24a14.49 14.49 0 0 0-12.4-22 14.48 14.48 0 0 0-12.41 22l.09.18L24 90.76a1.06 1.06 0 0 0 .16.21 1.5 1.5 0 0 0 1.42 1h36.04a13 13 0 1 0 0-26h-2.08a7.5 7.5 0 1 1 0-15H72.3a1.86 1.86 0 0 0 .34 0 1.51 1.51 0 0 0 1.1-.69L85 32.22a.9.9 0 0 0 .12-.24A14.49 14.49 0 0 0 83 14.28ZM15.92 71.34a1 1 0 0 0-.12-.23 11.47 11.47 0 0 1 9.74-17.58A11.49 11.49 0 0 1 37 65.05a11.44 11.44 0 0 1-1.77 6.09 2.4 2.4 0 0 0-.11.23l-9.81 15.74Zm68.3-46.8a11.44 11.44 0 0 1-1.77 6.09 2.4 2.4 0 0 0-.11.23L72.5 46.6l-9.39-15.77-.11-.23A11.47 11.47 0 0 1 72.73 13a11.49 11.49 0 0 1 11.49 11.54Z" stroke-width="0.5" stroke="#0e7c62" fill="#0e7c62" stroke-width-old="0"></path><path d="M72.74 17.48a6.35 6.35 0 0 0 0 12.69 6.35 6.35 0 0 0 6.34-6.33 6.35 6.35 0 0 0-6.34-6.36Zm3.34 6.35a3.33 3.33 0 0 1-3.35 3.34 3.29 3.29 0 0 1-2.37-1 3.34 3.34 0 0 1 2.37-5.71 3.33 3.33 0 0 1 2.37 1 3.36 3.36 0 0 1 1 2.37ZM25.55 70.69a6.35 6.35 0 0 0 0-12.7 6.35 6.35 0 0 0 0 12.7Zm-3.35-6.36a3.28 3.28 0 0 1 1-2.36 3.32 3.32 0 0 1 2.36-1 3.36 3.36 0 0 1 3.34 3.36 3.35 3.35 0 0 1-3.35 3.34 3.36 3.36 0 0 1-2.37-1 3.32 3.32 0 0 1-.98-2.34Z" stroke-width="0.5" stroke="#0e7c62" fill="#0e7c62" stroke-width-old="0"></path></g></svg>
