<?xml version="1.0" encoding="UTF-8"?> <svg xmlns="http://www.w3.org/2000/svg" width="527" height="101" viewBox="0 0 527 101" fill="none"><rect x="2.25391" y="1.91602" width="523" height="97" rx="48.5" fill="#FFFBEF" stroke="#DBB391" stroke-width="3"></rect><circle cx="50.7539" cy="50.416" r="36.5" fill="#9777A2" stroke="black"></circle><path d="M35.5236 27.0309C35.5641 26.9292 35.6256 26.8371 35.7041 26.7606C35.7826 26.6842 35.8763 26.6251 35.9791 26.5873C36.0819 26.5494 36.1915 26.5336 36.3008 26.5409C36.4102 26.5482 36.5167 26.5784 36.6136 26.6296L55.2065 36.4404C55.3752 36.5297 55.5053 36.6776 55.5724 36.8563C55.6394 37.035 55.6387 37.2321 55.5703 37.4103L55.1877 38.4114L65.9209 44.2976C66.0898 44.39 66.2186 44.5415 66.2826 44.7231C66.3466 44.9047 66.3412 45.1036 66.2676 45.2815L65.9115 46.1389L77.3099 51.5862C77.4904 51.6725 77.6309 51.8248 77.7024 52.0117C77.7738 52.1985 77.7709 52.4057 77.6941 52.5904L75.3548 58.2283C75.2782 58.4132 75.1336 58.5616 74.9509 58.643C74.7681 58.7243 74.5611 58.7324 74.3725 58.6656L62.465 54.4473L62.1089 55.3047C62.0354 55.4823 61.899 55.6265 61.7259 55.7097C61.5527 55.793 61.3549 55.8095 61.1704 55.7561L49.8079 52.4811L49.4674 53.3697C49.3976 53.5546 49.2597 53.7059 49.0821 53.7927C48.9045 53.8795 48.7005 53.8952 48.5117 53.8367L28.2104 47.5897C28.1074 47.5579 28.0121 47.5052 27.9304 47.4347C27.8488 47.3643 27.7827 47.2777 27.7362 47.1804C27.6897 47.0831 27.6638 46.9773 27.6602 46.8695C27.6566 46.7618 27.6754 46.6544 27.7154 46.5543L35.5236 27.0309ZM74.196 56.9461L75.9669 52.6763L65.3118 47.5835L63.0646 53.0027L74.196 56.9461ZM60.9361 54.0631L64.5576 45.3299L54.663 39.9028L50.9557 49.4826L50.3701 51.0146L60.9361 54.0631ZM48.2728 52.1297L48.5898 51.3004C48.5945 51.2832 48.5914 51.2629 48.5992 51.2458L49.5643 48.7517L53.865 37.4977L36.6511 28.4162L29.48 46.345L48.2728 52.1297ZM33.1811 23.9075C33.2579 23.7151 33.408 23.5611 33.5984 23.4793C33.7888 23.3976 34.0038 23.3949 34.1962 23.4717C34.3885 23.5486 34.5425 23.6987 34.6242 23.889C34.7059 24.0794 34.7087 24.2945 34.6319 24.4869L25.262 47.913C25.224 48.0085 25.1675 48.0955 25.0958 48.1691C25.0241 48.2427 24.9386 48.3014 24.8441 48.3419C24.7497 48.3824 24.6482 48.4038 24.5454 48.405C24.4427 48.4062 24.3407 48.387 24.2454 48.3487C24.1501 48.3107 24.0632 48.2543 23.9898 48.1827C23.9163 48.1111 23.8577 48.0257 23.8172 47.9314C23.7767 47.8372 23.7553 47.7359 23.754 47.6333C23.7527 47.5307 23.7716 47.4289 23.8097 47.3336L33.1811 23.9075ZM50.3029 56.2137H54.9878C56.7681 56.2137 58.1111 57.5568 58.1111 59.3372V61.3908L67.292 72.1028C67.3637 72.1798 67.4191 72.2705 67.4549 72.3694C67.4907 72.4683 67.5062 72.5735 67.5003 72.6785C67.4945 72.7836 67.4675 72.8863 67.4209 72.9807C67.3744 73.075 67.3093 73.159 67.2294 73.2275C67.1496 73.2961 67.0568 73.3478 66.9565 73.3796C66.8562 73.4113 66.7506 73.4225 66.6459 73.4124C66.5411 73.4023 66.4396 73.3712 66.3472 73.3209C66.2548 73.2705 66.1735 73.2021 66.1083 73.1195L56.9711 62.4606H53.4262V72.612C53.4262 72.8191 53.3439 73.0177 53.1975 73.1641C53.0511 73.3106 52.8525 73.3928 52.6454 73.3928C52.4383 73.3928 52.2397 73.3106 52.0933 73.1641C51.9468 73.0177 51.8646 72.8191 51.8646 72.612V62.4606H48.3196L39.184 73.1195C39.1176 73.1979 39.0364 73.2623 38.9449 73.309C38.8534 73.3557 38.7536 73.3838 38.6512 73.3917C38.5488 73.3995 38.4458 73.387 38.3483 73.3547C38.2508 73.3225 38.1606 73.2712 38.0831 73.2039C37.9259 73.069 37.8287 72.8773 37.8129 72.6708C37.7971 72.4643 37.864 72.26 37.9988 72.1028L47.1796 61.3908V59.4543C47.1796 57.638 48.5508 56.2137 50.3029 56.2137ZM48.7413 60.8989H56.5495V59.3372C56.5495 58.4173 55.9076 57.7754 54.9878 57.7754H50.3029C49.4128 57.7754 48.7413 58.4969 48.7413 59.4543V60.8989Z" fill="white"></path><path d="M109.77 32.612C109.471 32.612 109.229 32.5467 109.042 32.416C108.874 32.2667 108.771 32.08 108.734 31.856C108.715 31.6133 108.771 31.3427 108.902 31.044L116.602 13.516C116.77 13.1427 116.966 12.8813 117.19 12.732C117.433 12.564 117.694 12.48 117.974 12.48C118.254 12.48 118.506 12.564 118.73 12.732C118.973 12.8813 119.169 13.1427 119.318 13.516L127.046 31.044C127.195 31.3427 127.251 31.6133 127.214 31.856C127.195 32.0987 127.102 32.2853 126.934 32.416C126.766 32.5467 126.533 32.612 126.234 32.612C125.898 32.612 125.627 32.528 125.422 32.36C125.217 32.1733 125.049 31.912 124.918 31.576L122.846 26.788L123.966 27.376H111.926L113.074 26.788L111.03 31.576C110.862 31.9307 110.685 32.192 110.498 32.36C110.311 32.528 110.069 32.612 109.77 32.612ZM117.946 15.364L113.438 25.976L112.766 25.444H123.126L122.51 25.976L118.002 15.364H117.946ZM131.848 32.416C131.438 32.416 131.12 32.3133 130.896 32.108C130.691 31.884 130.588 31.5667 130.588 31.156V13.936C130.588 13.5253 130.691 13.2173 130.896 13.012C131.12 12.788 131.438 12.676 131.848 12.676H137.252C140.444 12.676 142.908 13.516 144.644 15.196C146.38 16.876 147.248 19.3213 147.248 22.532C147.248 24.1373 147.024 25.556 146.576 26.788C146.147 28.0013 145.503 29.028 144.644 29.868C143.786 30.708 142.74 31.3427 141.508 31.772C140.276 32.2013 138.858 32.416 137.252 32.416H131.848ZM132.884 30.456H137.084C138.391 30.456 139.52 30.288 140.472 29.952C141.443 29.616 142.246 29.1213 142.88 28.468C143.534 27.8147 144.019 26.9933 144.336 26.004C144.654 24.996 144.812 23.8387 144.812 22.532C144.812 19.9 144.168 17.9307 142.88 16.624C141.592 15.2987 139.66 14.636 137.084 14.636H132.884V30.456ZM158.168 32.612C157.87 32.612 157.627 32.5467 157.44 32.416C157.272 32.2667 157.17 32.08 157.132 31.856C157.114 31.6133 157.17 31.3427 157.3 31.044L165 13.516C165.168 13.1427 165.364 12.8813 165.588 12.732C165.831 12.564 166.092 12.48 166.372 12.48C166.652 12.48 166.904 12.564 167.128 12.732C167.371 12.8813 167.567 13.1427 167.716 13.516L175.444 31.044C175.594 31.3427 175.65 31.6133 175.612 31.856C175.594 32.0987 175.5 32.2853 175.332 32.416C175.164 32.5467 174.931 32.612 174.632 32.612C174.296 32.612 174.026 32.528 173.82 32.36C173.615 32.1733 173.447 31.912 173.316 31.576L171.244 26.788L172.364 27.376H160.324L161.472 26.788L159.428 31.576C159.26 31.9307 159.083 32.192 158.896 32.36C158.71 32.528 158.467 32.612 158.168 32.612ZM166.344 15.364L161.836 25.976L161.164 25.444H171.524L170.908 25.976L166.4 15.364H166.344ZM185.207 32.668C184.329 32.668 183.471 32.5933 182.631 32.444C181.791 32.2947 181.007 32.08 180.279 31.8C179.569 31.52 178.925 31.1653 178.347 30.736C178.123 30.568 177.964 30.3813 177.871 30.176C177.796 29.952 177.777 29.7373 177.815 29.532C177.871 29.308 177.964 29.1213 178.095 28.972C178.244 28.8227 178.421 28.7387 178.627 28.72C178.832 28.7013 179.056 28.7667 179.299 28.916C180.139 29.5133 181.035 29.952 181.987 30.232C182.939 30.4933 184.012 30.624 185.207 30.624C186.887 30.624 188.128 30.316 188.931 29.7C189.752 29.0653 190.163 28.2347 190.163 27.208C190.163 26.368 189.864 25.7147 189.267 25.248C188.688 24.7627 187.708 24.38 186.327 24.1L183.415 23.512C181.66 23.1387 180.344 22.532 179.467 21.692C178.608 20.8333 178.179 19.6947 178.179 18.276C178.179 17.3987 178.356 16.6053 178.711 15.896C179.065 15.168 179.56 14.552 180.195 14.048C180.829 13.5253 181.585 13.124 182.463 12.844C183.34 12.564 184.311 12.424 185.375 12.424C186.551 12.424 187.643 12.592 188.651 12.928C189.677 13.2453 190.601 13.7307 191.423 14.384C191.628 14.552 191.768 14.748 191.843 14.972C191.917 15.1773 191.927 15.3827 191.871 15.588C191.815 15.7747 191.712 15.9333 191.563 16.064C191.432 16.1947 191.255 16.2693 191.031 16.288C190.825 16.3067 190.592 16.232 190.331 16.064C189.584 15.504 188.809 15.1027 188.007 14.86C187.204 14.5987 186.317 14.468 185.347 14.468C184.357 14.468 183.499 14.6173 182.771 14.916C182.061 15.2147 181.501 15.6533 181.091 16.232C180.699 16.792 180.503 17.4453 180.503 18.192C180.503 19.088 180.773 19.7973 181.315 20.32C181.875 20.8427 182.78 21.2253 184.031 21.468L186.943 22.084C188.828 22.476 190.219 23.0733 191.115 23.876C192.029 24.66 192.487 25.7333 192.487 27.096C192.487 27.9173 192.319 28.6733 191.983 29.364C191.647 30.0547 191.161 30.652 190.527 31.156C189.892 31.6413 189.127 32.0147 188.231 32.276C187.335 32.5373 186.327 32.668 185.207 32.668ZM201.631 32.612C201.276 32.612 200.996 32.5093 200.791 32.304C200.586 32.08 200.483 31.7813 200.483 31.408V14.664H194.183C193.847 14.664 193.586 14.5707 193.399 14.384C193.212 14.1973 193.119 13.9547 193.119 13.656C193.119 13.3387 193.212 13.096 193.399 12.928C193.586 12.76 193.847 12.676 194.183 12.676H209.107C209.443 12.676 209.704 12.76 209.891 12.928C210.078 13.096 210.171 13.3387 210.171 13.656C210.171 13.9733 210.078 14.2253 209.891 14.412C209.704 14.58 209.443 14.664 209.107 14.664H202.807V31.408C202.807 31.7813 202.704 32.08 202.499 32.304C202.312 32.5093 202.023 32.612 201.631 32.612ZM213.631 32.612C213.258 32.612 212.968 32.5093 212.763 32.304C212.576 32.08 212.483 31.7813 212.483 31.408V13.852C212.483 13.46 212.586 13.1707 212.791 12.984C212.996 12.7787 213.286 12.676 213.659 12.676H220.295C222.404 12.676 224.028 13.1707 225.167 14.16C226.306 15.1493 226.875 16.5587 226.875 18.388C226.875 19.5453 226.614 20.5533 226.091 21.412C225.587 22.252 224.84 22.896 223.851 23.344C222.862 23.7733 221.676 23.988 220.295 23.988L220.575 23.624H221.135C221.863 23.624 222.498 23.8107 223.039 24.184C223.58 24.5573 224.075 25.1547 224.523 25.976L227.211 30.988C227.36 31.2493 227.426 31.5107 227.407 31.772C227.407 32.0147 227.323 32.22 227.155 32.388C226.987 32.5373 226.744 32.612 226.427 32.612C226.11 32.612 225.848 32.5373 225.643 32.388C225.438 32.2387 225.26 32.024 225.111 31.744L222.059 26.088C221.63 25.2853 221.135 24.7533 220.575 24.492C220.015 24.212 219.278 24.072 218.363 24.072H214.779V31.408C214.779 31.7813 214.686 32.08 214.499 32.304C214.312 32.5093 214.023 32.612 213.631 32.612ZM214.779 22.252H219.959C221.49 22.252 222.647 21.9347 223.431 21.3C224.215 20.6467 224.607 19.676 224.607 18.388C224.607 17.1373 224.215 16.1947 223.431 15.56C222.647 14.9067 221.49 14.58 219.959 14.58H214.779V22.252ZM230.493 32.612C230.194 32.612 229.951 32.5467 229.765 32.416C229.597 32.2667 229.494 32.08 229.457 31.856C229.438 31.6133 229.494 31.3427 229.625 31.044L237.325 13.516C237.493 13.1427 237.689 12.8813 237.913 12.732C238.155 12.564 238.417 12.48 238.697 12.48C238.977 12.48 239.229 12.564 239.453 12.732C239.695 12.8813 239.891 13.1427 240.041 13.516L247.769 31.044C247.918 31.3427 247.974 31.6133 247.937 31.856C247.918 32.0987 247.825 32.2853 247.657 32.416C247.489 32.5467 247.255 32.612 246.957 32.612C246.621 32.612 246.35 32.528 246.145 32.36C245.939 32.1733 245.771 31.912 245.641 31.576L243.569 26.788L244.689 27.376H232.649L233.797 26.788L231.753 31.576C231.585 31.9307 231.407 32.192 231.221 32.36C231.034 32.528 230.791 32.612 230.493 32.612ZM238.669 15.364L234.161 25.976L233.489 25.444H243.849L243.233 25.976L238.725 15.364H238.669ZM252.095 32.528C251.628 32.528 251.255 32.388 250.975 32.108C250.695 31.8093 250.555 31.436 250.555 30.988C250.555 30.54 250.695 30.176 250.975 29.896C251.255 29.5973 251.628 29.448 252.095 29.448C252.562 29.448 252.926 29.5973 253.187 29.896C253.467 30.176 253.607 30.54 253.607 30.988C253.607 31.436 253.467 31.8093 253.187 32.108C252.926 32.388 252.562 32.528 252.095 32.528ZM252.095 21.776C251.628 21.776 251.255 21.6267 250.975 21.328C250.695 21.0293 250.555 20.6653 250.555 20.236C250.555 19.7693 250.695 19.396 250.975 19.116C251.255 18.836 251.628 18.696 252.095 18.696C252.562 18.696 252.926 18.836 253.187 19.116C253.467 19.396 253.607 19.7693 253.607 20.236C253.607 20.6653 253.467 21.0293 253.187 21.328C252.926 21.6267 252.562 21.776 252.095 21.776ZM110.826 62.584C110.506 62.584 110.258 62.496 110.082 62.32C109.922 62.128 109.842 61.872 109.842 61.552V46.576C109.842 46.224 109.93 45.96 110.106 45.784C110.298 45.592 110.57 45.496 110.922 45.496H122.73C123.066 45.496 123.33 45.592 123.522 45.784C123.714 45.96 123.81 46.224 123.81 46.576V61.552C123.81 61.872 123.722 62.128 123.546 62.32C123.37 62.496 123.13 62.584 122.826 62.584C122.506 62.584 122.258 62.496 122.082 62.32C121.906 62.128 121.818 61.872 121.818 61.552V47.2H111.81V61.552C111.81 61.872 111.73 62.128 111.57 62.32C111.41 62.496 111.162 62.584 110.826 62.584ZM136.743 62.584C136.439 62.584 136.199 62.496 136.023 62.32C135.863 62.144 135.783 61.896 135.783 61.576V52.312H131.079V53.8C131.079 55.048 131.015 56.152 130.887 57.112C130.775 58.056 130.591 58.872 130.335 59.56C130.079 60.248 129.735 60.824 129.303 61.288C128.887 61.752 128.367 62.144 127.743 62.464C127.535 62.56 127.335 62.584 127.143 62.536C126.951 62.504 126.791 62.432 126.663 62.32C126.551 62.192 126.471 62.04 126.423 61.864C126.391 61.688 126.415 61.512 126.495 61.336C126.575 61.16 126.719 61.016 126.927 60.904C127.391 60.648 127.767 60.328 128.055 59.944C128.359 59.56 128.599 59.08 128.775 58.504C128.951 57.928 129.071 57.256 129.135 56.488C129.215 55.704 129.255 54.784 129.255 53.728V51.856C129.255 51.488 129.351 51.216 129.543 51.04C129.735 50.848 130.007 50.752 130.359 50.752H136.623C136.975 50.752 137.247 50.848 137.439 51.04C137.631 51.216 137.727 51.488 137.727 51.856V61.576C137.727 61.896 137.639 62.144 137.463 62.32C137.303 62.496 137.063 62.584 136.743 62.584ZM146.444 62.632C145.308 62.632 144.324 62.384 143.492 61.888C142.66 61.392 142.012 60.696 141.548 59.8C141.1 58.888 140.876 57.816 140.876 56.584C140.876 55.656 141.004 54.824 141.26 54.088C141.516 53.336 141.892 52.696 142.388 52.168C142.884 51.64 143.468 51.24 144.14 50.968C144.828 50.68 145.596 50.536 146.444 50.536C147.58 50.536 148.564 50.784 149.396 51.28C150.228 51.776 150.868 52.48 151.316 53.392C151.78 54.288 152.012 55.352 152.012 56.584C152.012 57.512 151.884 58.344 151.628 59.08C151.372 59.816 150.996 60.456 150.5 61C150.004 61.528 149.412 61.936 148.724 62.224C148.052 62.496 147.292 62.632 146.444 62.632ZM146.444 61.072C147.164 61.072 147.796 60.896 148.34 60.544C148.884 60.192 149.3 59.68 149.588 59.008C149.892 58.336 150.044 57.528 150.044 56.584C150.044 55.128 149.716 54.016 149.06 53.248C148.42 52.48 147.548 52.096 146.444 52.096C145.708 52.096 145.068 52.272 144.524 52.624C143.996 52.96 143.58 53.464 143.276 54.136C142.988 54.792 142.844 55.608 142.844 56.584C142.844 58.024 143.172 59.136 143.828 59.92C144.484 60.688 145.356 61.072 146.444 61.072ZM171.51 65.704C171.238 65.704 171.03 65.624 170.886 65.464C170.742 65.32 170.67 65.104 170.67 64.816V62.416H156.174C155.854 62.416 155.606 62.328 155.43 62.152C155.254 61.976 155.166 61.728 155.166 61.408V51.568C155.166 51.232 155.246 50.984 155.406 50.824C155.566 50.664 155.798 50.584 156.102 50.584C156.406 50.584 156.638 50.664 156.798 50.824C156.958 50.984 157.038 51.232 157.038 51.568V60.856H161.91V51.568C161.91 51.232 161.99 50.984 162.15 50.824C162.31 50.664 162.542 50.584 162.846 50.584C163.134 50.584 163.358 50.664 163.518 50.824C163.678 50.984 163.758 51.232 163.758 51.568V60.856H168.63V51.568C168.63 51.232 168.71 50.984 168.87 50.824C169.046 50.664 169.278 50.584 169.566 50.584C169.87 50.584 170.102 50.664 170.262 50.824C170.422 50.984 170.502 51.232 170.502 51.568V61.744L169.614 60.856H171.366C171.686 60.856 171.926 60.936 172.086 61.096C172.262 61.256 172.35 61.496 172.35 61.816V64.816C172.35 65.408 172.07 65.704 171.51 65.704ZM178.643 62.632C177.843 62.632 177.123 62.48 176.483 62.176C175.859 61.856 175.363 61.424 174.995 60.88C174.627 60.336 174.443 59.728 174.443 59.056C174.443 58.192 174.659 57.512 175.091 57.016C175.539 56.52 176.267 56.168 177.275 55.96C178.299 55.752 179.691 55.648 181.451 55.648H182.531V56.92H181.475C180.179 56.92 179.155 56.984 178.403 57.112C177.667 57.224 177.147 57.424 176.843 57.712C176.555 58 176.411 58.408 176.411 58.936C176.411 59.592 176.635 60.128 177.083 60.544C177.547 60.96 178.171 61.168 178.955 61.168C179.595 61.168 180.155 61.016 180.635 60.712C181.131 60.408 181.515 59.992 181.787 59.464C182.075 58.936 182.219 58.328 182.219 57.64V54.904C182.219 53.912 182.019 53.2 181.619 52.768C181.219 52.32 180.563 52.096 179.651 52.096C179.091 52.096 178.531 52.168 177.971 52.312C177.411 52.456 176.819 52.688 176.195 53.008C175.971 53.12 175.779 53.16 175.619 53.128C175.459 53.08 175.331 52.992 175.235 52.864C175.139 52.736 175.083 52.592 175.067 52.432C175.051 52.256 175.083 52.088 175.163 51.928C175.259 51.768 175.403 51.64 175.595 51.544C176.299 51.192 176.995 50.936 177.683 50.776C178.371 50.616 179.027 50.536 179.651 50.536C180.659 50.536 181.491 50.704 182.147 51.04C182.803 51.36 183.291 51.856 183.611 52.528C183.931 53.184 184.091 54.032 184.091 55.072V61.576C184.091 61.896 184.011 62.144 183.851 62.32C183.707 62.496 183.491 62.584 183.203 62.584C182.899 62.584 182.667 62.496 182.507 62.32C182.347 62.144 182.267 61.896 182.267 61.576V59.704H182.483C182.355 60.312 182.107 60.832 181.739 61.264C181.387 61.696 180.947 62.032 180.419 62.272C179.891 62.512 179.299 62.632 178.643 62.632ZM187.453 65.704C187.181 65.704 186.973 65.624 186.829 65.464C186.685 65.304 186.613 65.08 186.613 64.792V61.816C186.613 61.176 186.933 60.856 187.573 60.856H188.725L187.573 61.264C188.005 60.688 188.349 60.064 188.605 59.392C188.877 58.704 189.077 57.936 189.205 57.088C189.333 56.24 189.397 55.272 189.397 54.184V51.856C189.397 51.488 189.493 51.216 189.685 51.04C189.877 50.848 190.149 50.752 190.501 50.752H196.549C196.917 50.752 197.189 50.848 197.365 51.04C197.557 51.216 197.653 51.488 197.653 51.856V61.744L196.765 60.856H198.541C198.845 60.856 199.077 60.936 199.237 61.096C199.413 61.256 199.501 61.496 199.501 61.816V64.792C199.501 65.4 199.221 65.704 198.661 65.704C198.389 65.704 198.181 65.624 198.037 65.464C197.893 65.304 197.821 65.08 197.821 64.792V62.416H188.269V64.792C188.269 65.4 187.997 65.704 187.453 65.704ZM189.709 60.856H195.805V52.288H191.125V54.52C191.125 55.72 191.005 56.88 190.765 58C190.525 59.104 190.173 60.056 189.709 60.856ZM203.072 62.584C202.752 62.584 202.504 62.496 202.328 62.32C202.168 62.144 202.088 61.896 202.088 61.576V51.64C202.088 51.304 202.168 51.056 202.328 50.896C202.504 50.72 202.752 50.632 203.072 50.632C203.376 50.632 203.608 50.72 203.768 50.896C203.944 51.056 204.032 51.304 204.032 51.64V55.624H206.216L209.768 51.064C209.928 50.872 210.104 50.752 210.296 50.704C210.488 50.64 210.664 50.64 210.824 50.704C211 50.752 211.136 50.848 211.232 50.992C211.344 51.12 211.4 51.28 211.4 51.472C211.4 51.664 211.328 51.864 211.184 52.072L207.8 56.416L207.248 55.792C207.696 55.84 208.088 55.952 208.424 56.128C208.76 56.304 209.08 56.568 209.384 56.92C209.688 57.272 210.016 57.76 210.368 58.384L212.096 61.24C212.208 61.464 212.248 61.664 212.216 61.84C212.2 62.016 212.12 62.176 211.976 62.32C211.832 62.448 211.664 62.528 211.472 62.56C211.296 62.592 211.12 62.568 210.944 62.488C210.768 62.408 210.608 62.264 210.464 62.056L208.568 58.888C208.296 58.44 208.04 58.096 207.8 57.856C207.56 57.6 207.288 57.424 206.984 57.328C206.68 57.232 206.304 57.184 205.856 57.184H204.032V61.576C204.032 61.896 203.944 62.144 203.768 62.32C203.608 62.496 203.376 62.584 203.072 62.584ZM218.417 62.632C217.617 62.632 216.897 62.48 216.257 62.176C215.633 61.856 215.137 61.424 214.769 60.88C214.401 60.336 214.217 59.728 214.217 59.056C214.217 58.192 214.433 57.512 214.865 57.016C215.313 56.52 216.041 56.168 217.049 55.96C218.073 55.752 219.465 55.648 221.225 55.648H222.305V56.92H221.249C219.953 56.92 218.929 56.984 218.177 57.112C217.441 57.224 216.921 57.424 216.617 57.712C216.329 58 216.185 58.408 216.185 58.936C216.185 59.592 216.409 60.128 216.857 60.544C217.321 60.96 217.945 61.168 218.729 61.168C219.369 61.168 219.929 61.016 220.409 60.712C220.905 60.408 221.289 59.992 221.561 59.464C221.849 58.936 221.993 58.328 221.993 57.64V54.904C221.993 53.912 221.793 53.2 221.393 52.768C220.993 52.32 220.337 52.096 219.425 52.096C218.865 52.096 218.305 52.168 217.745 52.312C217.185 52.456 216.593 52.688 215.969 53.008C215.745 53.12 215.553 53.16 215.393 53.128C215.233 53.08 215.105 52.992 215.009 52.864C214.913 52.736 214.857 52.592 214.841 52.432C214.825 52.256 214.857 52.088 214.937 51.928C215.033 51.768 215.177 51.64 215.369 51.544C216.073 51.192 216.769 50.936 217.457 50.776C218.145 50.616 218.801 50.536 219.425 50.536C220.433 50.536 221.265 50.704 221.921 51.04C222.577 51.36 223.065 51.856 223.385 52.528C223.705 53.184 223.865 54.032 223.865 55.072V61.576C223.865 61.896 223.785 62.144 223.625 62.32C223.481 62.496 223.265 62.584 222.977 62.584C222.673 62.584 222.441 62.496 222.281 62.32C222.121 62.144 222.041 61.896 222.041 61.576V59.704H222.257C222.129 60.312 221.881 60.832 221.513 61.264C221.161 61.696 220.721 62.032 220.193 62.272C219.665 62.512 219.073 62.632 218.417 62.632ZM233.414 65.704C233.142 65.704 232.934 65.624 232.79 65.464C232.646 65.304 232.574 65.08 232.574 64.792V61.816C232.574 61.176 232.894 60.856 233.534 60.856H234.686L233.534 61.264C233.966 60.688 234.31 60.064 234.566 59.392C234.838 58.704 235.038 57.936 235.166 57.088C235.294 56.24 235.358 55.272 235.358 54.184V51.856C235.358 51.488 235.454 51.216 235.646 51.04C235.838 50.848 236.11 50.752 236.462 50.752H242.51C242.878 50.752 243.15 50.848 243.326 51.04C243.518 51.216 243.614 51.488 243.614 51.856V61.744L242.726 60.856H244.502C244.806 60.856 245.038 60.936 245.198 61.096C245.374 61.256 245.462 61.496 245.462 61.816V64.792C245.462 65.4 245.182 65.704 244.622 65.704C244.35 65.704 244.142 65.624 243.998 65.464C243.854 65.304 243.782 65.08 243.782 64.792V62.416H234.23V64.792C234.23 65.4 233.958 65.704 233.414 65.704ZM235.67 60.856H241.766V52.288H237.086V54.52C237.086 55.72 236.966 56.88 236.726 58C236.486 59.104 236.134 60.056 235.67 60.856ZM257.001 62.584C256.697 62.584 256.457 62.496 256.281 62.32C256.121 62.144 256.041 61.896 256.041 61.576V52.312H251.337V53.8C251.337 55.048 251.273 56.152 251.145 57.112C251.033 58.056 250.849 58.872 250.593 59.56C250.337 60.248 249.993 60.824 249.561 61.288C249.145 61.752 248.625 62.144 248.001 62.464C247.793 62.56 247.593 62.584 247.401 62.536C247.209 62.504 247.049 62.432 246.921 62.32C246.809 62.192 246.729 62.04 246.681 61.864C246.649 61.688 246.673 61.512 246.753 61.336C246.833 61.16 246.977 61.016 247.185 60.904C247.649 60.648 248.025 60.328 248.313 59.944C248.617 59.56 248.857 59.08 249.033 58.504C249.209 57.928 249.329 57.256 249.393 56.488C249.473 55.704 249.513 54.784 249.513 53.728V51.856C249.513 51.488 249.609 51.216 249.801 51.04C249.993 50.848 250.265 50.752 250.617 50.752H256.881C257.233 50.752 257.505 50.848 257.697 51.04C257.889 51.216 257.985 51.488 257.985 51.856V61.576C257.985 61.896 257.897 62.144 257.721 62.32C257.561 62.496 257.321 62.584 257.001 62.584ZM270.014 62.584C269.71 62.584 269.478 62.504 269.318 62.344C269.158 62.168 269.078 61.936 269.078 61.648V57.976H267.374C266.75 57.976 266.214 58.136 265.766 58.456C265.318 58.776 264.958 59.168 264.686 59.632L263.318 62.032C263.174 62.272 263.006 62.432 262.814 62.512C262.622 62.592 262.43 62.608 262.238 62.56C262.046 62.512 261.878 62.416 261.734 62.272C261.59 62.128 261.502 61.96 261.47 61.768C261.438 61.56 261.486 61.344 261.614 61.12L262.766 59.176C263.038 58.696 263.398 58.296 263.846 57.976C264.294 57.656 264.75 57.496 265.214 57.496H265.526V57.712C264.214 57.712 263.198 57.408 262.478 56.8C261.758 56.192 261.398 55.344 261.398 54.256C261.398 53.536 261.55 52.92 261.854 52.408C262.174 51.88 262.654 51.472 263.294 51.184C263.934 50.896 264.726 50.752 265.67 50.752H269.894C270.23 50.752 270.486 50.84 270.662 51.016C270.838 51.192 270.926 51.44 270.926 51.76V61.648C270.926 61.936 270.838 62.168 270.662 62.344C270.502 62.504 270.286 62.584 270.014 62.584ZM266.03 56.56H269.078V52.12H266.03C265.086 52.12 264.39 52.32 263.942 52.72C263.494 53.104 263.27 53.64 263.27 54.328C263.27 55.032 263.494 55.584 263.942 55.984C264.39 56.368 265.086 56.56 266.03 56.56ZM281.939 62.584C281.619 62.584 281.371 62.496 281.195 62.32C281.035 62.144 280.955 61.896 280.955 61.576V51.568C280.955 51.232 281.035 50.984 281.195 50.824C281.371 50.664 281.619 50.584 281.939 50.584C282.243 50.584 282.475 50.664 282.635 50.824C282.811 50.984 282.899 51.232 282.899 51.568V55.6H289.259V51.568C289.259 51.232 289.339 50.984 289.499 50.824C289.675 50.664 289.915 50.584 290.219 50.584C290.523 50.584 290.763 50.664 290.939 50.824C291.115 50.984 291.203 51.232 291.203 51.568V61.576C291.203 61.896 291.115 62.144 290.939 62.32C290.763 62.496 290.523 62.584 290.219 62.584C289.915 62.584 289.675 62.496 289.499 62.32C289.339 62.144 289.259 61.896 289.259 61.576V57.184H282.899V61.576C282.899 61.896 282.819 62.144 282.659 62.32C282.499 62.496 282.259 62.584 281.939 62.584ZM298.737 62.632C297.937 62.632 297.217 62.48 296.577 62.176C295.953 61.856 295.457 61.424 295.089 60.88C294.721 60.336 294.537 59.728 294.537 59.056C294.537 58.192 294.753 57.512 295.185 57.016C295.633 56.52 296.361 56.168 297.369 55.96C298.393 55.752 299.785 55.648 301.545 55.648H302.625V56.92H301.569C300.273 56.92 299.249 56.984 298.497 57.112C297.761 57.224 297.241 57.424 296.937 57.712C296.649 58 296.505 58.408 296.505 58.936C296.505 59.592 296.729 60.128 297.177 60.544C297.641 60.96 298.265 61.168 299.049 61.168C299.689 61.168 300.249 61.016 300.729 60.712C301.225 60.408 301.609 59.992 301.881 59.464C302.169 58.936 302.313 58.328 302.313 57.64V54.904C302.313 53.912 302.113 53.2 301.713 52.768C301.313 52.32 300.657 52.096 299.745 52.096C299.185 52.096 298.625 52.168 298.065 52.312C297.505 52.456 296.913 52.688 296.289 53.008C296.065 53.12 295.873 53.16 295.713 53.128C295.553 53.08 295.425 52.992 295.329 52.864C295.233 52.736 295.177 52.592 295.161 52.432C295.145 52.256 295.177 52.088 295.257 51.928C295.353 51.768 295.497 51.64 295.689 51.544C296.393 51.192 297.089 50.936 297.777 50.776C298.465 50.616 299.121 50.536 299.745 50.536C300.753 50.536 301.585 50.704 302.241 51.04C302.897 51.36 303.385 51.856 303.705 52.528C304.025 53.184 304.185 54.032 304.185 55.072V61.576C304.185 61.896 304.105 62.144 303.945 62.32C303.801 62.496 303.585 62.584 303.297 62.584C302.993 62.584 302.761 62.496 302.601 62.32C302.441 62.144 302.361 61.896 302.361 61.576V59.704H302.577C302.449 60.312 302.201 60.832 301.833 61.264C301.481 61.696 301.041 62.032 300.513 62.272C299.985 62.512 299.393 62.632 298.737 62.632ZM312.899 62.632C311.747 62.632 310.747 62.384 309.899 61.888C309.067 61.376 308.419 60.624 307.955 59.632C307.507 58.64 307.283 57.424 307.283 55.984V54.184C307.283 52.632 307.483 51.336 307.883 50.296C308.299 49.256 308.923 48.416 309.755 47.776C310.603 47.136 311.651 46.648 312.899 46.312L316.403 45.328C316.691 45.248 316.931 45.256 317.123 45.352C317.331 45.448 317.459 45.624 317.507 45.88C317.571 46.152 317.531 46.384 317.387 46.576C317.259 46.768 317.051 46.904 316.763 46.984L313.043 47.992C312.179 48.232 311.459 48.592 310.883 49.072C310.307 49.552 309.875 50.144 309.587 50.848C309.299 51.536 309.155 52.32 309.155 53.2V54.136H308.819C309.011 53.432 309.315 52.824 309.731 52.312C310.147 51.8 310.659 51.408 311.267 51.136C311.891 50.848 312.579 50.704 313.331 50.704C314.339 50.704 315.227 50.944 315.995 51.424C316.763 51.904 317.355 52.584 317.771 53.464C318.203 54.344 318.419 55.392 318.419 56.608C318.419 57.824 318.187 58.888 317.723 59.8C317.275 60.696 316.635 61.392 315.803 61.888C314.987 62.384 314.019 62.632 312.899 62.632ZM312.827 61.072C313.595 61.072 314.243 60.904 314.771 60.568C315.315 60.216 315.731 59.712 316.019 59.056C316.307 58.4 316.451 57.6 316.451 56.656C316.451 55.264 316.131 54.184 315.491 53.416C314.851 52.648 313.971 52.264 312.851 52.264C312.099 52.264 311.451 52.432 310.907 52.768C310.379 53.104 309.971 53.592 309.683 54.232C309.395 54.856 309.251 55.608 309.251 56.488C309.251 57.992 309.563 59.136 310.187 59.92C310.827 60.688 311.707 61.072 312.827 61.072ZM330.29 62.584C329.986 62.584 329.746 62.496 329.57 62.32C329.41 62.144 329.33 61.896 329.33 61.576V52.312H324.626V53.8C324.626 55.048 324.562 56.152 324.434 57.112C324.322 58.056 324.138 58.872 323.882 59.56C323.626 60.248 323.282 60.824 322.85 61.288C322.434 61.752 321.914 62.144 321.29 62.464C321.082 62.56 320.882 62.584 320.69 62.536C320.498 62.504 320.338 62.432 320.21 62.32C320.098 62.192 320.018 62.04 319.97 61.864C319.938 61.688 319.962 61.512 320.042 61.336C320.122 61.16 320.266 61.016 320.474 60.904C320.938 60.648 321.314 60.328 321.602 59.944C321.906 59.56 322.146 59.08 322.322 58.504C322.498 57.928 322.618 57.256 322.682 56.488C322.762 55.704 322.802 54.784 322.802 53.728V51.856C322.802 51.488 322.898 51.216 323.09 51.04C323.282 50.848 323.554 50.752 323.906 50.752H330.17C330.522 50.752 330.794 50.848 330.986 51.04C331.178 51.216 331.274 51.488 331.274 51.856V61.576C331.274 61.896 331.186 62.144 331.01 62.32C330.85 62.496 330.61 62.584 330.29 62.584ZM344.863 62.632C343.807 62.632 342.879 62.416 342.079 61.984C341.279 61.536 340.647 60.904 340.183 60.088C339.719 59.256 339.439 58.288 339.343 57.184H337.039V61.576C337.039 61.896 336.959 62.144 336.799 62.32C336.655 62.496 336.415 62.584 336.079 62.584C335.775 62.584 335.535 62.496 335.359 62.32C335.199 62.144 335.119 61.896 335.119 61.576V51.568C335.119 51.248 335.199 51.008 335.359 50.848C335.535 50.672 335.775 50.584 336.079 50.584C336.399 50.584 336.639 50.672 336.799 50.848C336.959 51.008 337.039 51.248 337.039 51.568V55.6H339.367C339.495 54.544 339.799 53.64 340.279 52.888C340.759 52.12 341.383 51.536 342.151 51.136C342.935 50.736 343.839 50.536 344.863 50.536C345.999 50.536 346.983 50.784 347.815 51.28C348.647 51.776 349.287 52.48 349.735 53.392C350.199 54.288 350.431 55.352 350.431 56.584C350.431 57.512 350.303 58.344 350.047 59.08C349.791 59.816 349.415 60.456 348.919 61C348.423 61.528 347.831 61.936 347.143 62.224C346.471 62.496 345.711 62.632 344.863 62.632ZM344.863 61.072C345.599 61.072 346.231 60.896 346.759 60.544C347.303 60.192 347.719 59.68 348.007 59.008C348.311 58.336 348.463 57.528 348.463 56.584C348.463 55.128 348.135 54.016 347.479 53.248C346.839 52.48 345.967 52.096 344.863 52.096C344.143 52.096 343.511 52.272 342.967 52.624C342.423 52.96 341.999 53.464 341.695 54.136C341.407 54.792 341.263 55.608 341.263 56.584C341.263 58.024 341.591 59.136 342.247 59.92C342.903 60.688 343.775 61.072 344.863 61.072ZM353.133 65.704C352.861 65.704 352.653 65.624 352.509 65.464C352.365 65.304 352.293 65.08 352.293 64.792V61.816C352.293 61.176 352.613 60.856 353.253 60.856H354.405L353.253 61.264C353.685 60.688 354.029 60.064 354.285 59.392C354.557 58.704 354.757 57.936 354.885 57.088C355.013 56.24 355.077 55.272 355.077 54.184V51.856C355.077 51.488 355.173 51.216 355.365 51.04C355.557 50.848 355.829 50.752 356.181 50.752H362.229C362.597 50.752 362.869 50.848 363.045 51.04C363.237 51.216 363.333 51.488 363.333 51.856V61.744L362.445 60.856H364.221C364.525 60.856 364.757 60.936 364.917 61.096C365.093 61.256 365.181 61.496 365.181 61.816V64.792C365.181 65.4 364.901 65.704 364.341 65.704C364.069 65.704 363.861 65.624 363.717 65.464C363.573 65.304 363.501 65.08 363.501 64.792V62.416H353.949V64.792C353.949 65.4 353.677 65.704 353.133 65.704ZM355.389 60.856H361.485V52.288H356.805V54.52C356.805 55.72 356.685 56.88 356.445 58C356.205 59.104 355.853 60.056 355.389 60.856ZM373.048 62.632C371.816 62.632 370.752 62.392 369.856 61.912C368.976 61.416 368.288 60.72 367.792 59.824C367.312 58.928 367.072 57.856 367.072 56.608C367.072 55.392 367.312 54.336 367.792 53.44C368.272 52.528 368.928 51.816 369.76 51.304C370.608 50.792 371.584 50.536 372.688 50.536C373.472 50.536 374.176 50.672 374.8 50.944C375.424 51.2 375.952 51.576 376.384 52.072C376.832 52.568 377.168 53.168 377.392 53.872C377.632 54.576 377.752 55.368 377.752 56.248C377.752 56.504 377.68 56.696 377.536 56.824C377.392 56.936 377.184 56.992 376.912 56.992H368.56V55.72H376.456L376.072 56.032C376.072 55.168 375.944 54.44 375.688 53.848C375.432 53.24 375.056 52.776 374.56 52.456C374.08 52.136 373.472 51.976 372.736 51.976C371.92 51.976 371.224 52.168 370.648 52.552C370.088 52.92 369.664 53.44 369.376 54.112C369.088 54.768 368.944 55.536 368.944 56.416V56.56C368.944 58.032 369.296 59.152 370 59.92C370.72 60.688 371.736 61.072 373.048 61.072C373.592 61.072 374.128 61 374.656 60.856C375.2 60.712 375.728 60.472 376.24 60.136C376.464 59.992 376.664 59.928 376.84 59.944C377.032 59.944 377.184 60 377.296 60.112C377.408 60.208 377.48 60.336 377.512 60.496C377.56 60.64 377.544 60.8 377.464 60.976C377.4 61.152 377.264 61.304 377.056 61.432C376.528 61.816 375.904 62.112 375.184 62.32C374.464 62.528 373.752 62.632 373.048 62.632ZM381.759 62.584C381.439 62.584 381.191 62.496 381.015 62.32C380.855 62.144 380.775 61.896 380.775 61.576V51.568C380.775 51.232 380.855 50.984 381.015 50.824C381.191 50.664 381.439 50.584 381.759 50.584C382.063 50.584 382.295 50.664 382.455 50.824C382.631 50.984 382.719 51.232 382.719 51.568V55.6H389.079V51.568C389.079 51.232 389.159 50.984 389.319 50.824C389.495 50.664 389.735 50.584 390.039 50.584C390.343 50.584 390.583 50.664 390.759 50.824C390.935 50.984 391.023 51.232 391.023 51.568V61.576C391.023 61.896 390.935 62.144 390.759 62.32C390.583 62.496 390.343 62.584 390.039 62.584C389.735 62.584 389.495 62.496 389.319 62.32C389.159 62.144 389.079 61.896 389.079 61.576V57.184H382.719V61.576C382.719 61.896 382.639 62.144 382.479 62.32C382.319 62.496 382.079 62.584 381.759 62.584ZM395.749 62.584C395.573 62.584 395.413 62.544 395.269 62.464C395.141 62.4 395.037 62.288 394.957 62.128C394.893 61.968 394.861 61.768 394.861 61.528V51.544C394.861 51.224 394.941 50.984 395.101 50.824C395.261 50.664 395.477 50.584 395.749 50.584C396.037 50.584 396.253 50.664 396.397 50.824C396.557 50.984 396.637 51.224 396.637 51.544V60.568H396.037L403.021 51.208C403.149 51.032 403.301 50.888 403.477 50.776C403.653 50.648 403.877 50.584 404.149 50.584C404.341 50.584 404.501 50.616 404.629 50.68C404.757 50.744 404.853 50.856 404.917 51.016C404.997 51.16 405.037 51.36 405.037 51.616V61.624C405.037 61.928 404.957 62.168 404.797 62.344C404.653 62.504 404.437 62.584 404.149 62.584C403.861 62.584 403.637 62.504 403.477 62.344C403.333 62.168 403.261 61.928 403.261 61.624V52.576H403.861L396.853 61.96C396.741 62.12 396.597 62.264 396.421 62.392C396.261 62.52 396.037 62.584 395.749 62.584ZM417.061 62.584C416.757 62.584 416.525 62.504 416.365 62.344C416.205 62.168 416.125 61.936 416.125 61.648V57.976H414.421C413.797 57.976 413.261 58.136 412.813 58.456C412.365 58.776 412.005 59.168 411.733 59.632L410.365 62.032C410.221 62.272 410.053 62.432 409.861 62.512C409.669 62.592 409.477 62.608 409.285 62.56C409.093 62.512 408.925 62.416 408.781 62.272C408.637 62.128 408.549 61.96 408.517 61.768C408.485 61.56 408.533 61.344 408.661 61.12L409.813 59.176C410.085 58.696 410.445 58.296 410.893 57.976C411.341 57.656 411.797 57.496 412.261 57.496H412.573V57.712C411.261 57.712 410.245 57.408 409.525 56.8C408.805 56.192 408.445 55.344 408.445 54.256C408.445 53.536 408.597 52.92 408.901 52.408C409.221 51.88 409.701 51.472 410.341 51.184C410.981 50.896 411.773 50.752 412.717 50.752H416.941C417.277 50.752 417.533 50.84 417.709 51.016C417.885 51.192 417.973 51.44 417.973 51.76V61.648C417.973 61.936 417.885 62.168 417.709 62.344C417.549 62.504 417.333 62.584 417.061 62.584ZM413.077 56.56H416.125V52.12H413.077C412.133 52.12 411.437 52.32 410.989 52.72C410.541 53.104 410.317 53.64 410.317 54.328C410.317 55.032 410.541 55.584 410.989 55.984C411.437 56.368 412.133 56.56 413.077 56.56ZM113.538 84.632C112.706 84.632 111.898 84.536 111.114 84.344C110.33 84.152 109.658 83.872 109.098 83.504C108.906 83.376 108.77 83.232 108.69 83.072C108.626 82.912 108.602 82.752 108.618 82.592C108.634 82.432 108.69 82.296 108.786 82.184C108.898 82.072 109.042 82.008 109.218 81.992C109.41 81.96 109.61 82.016 109.818 82.16C110.33 82.48 110.906 82.72 111.546 82.88C112.202 83.04 112.85 83.12 113.49 83.12C114.658 83.12 115.49 82.952 115.986 82.616C116.482 82.264 116.73 81.768 116.73 81.128C116.73 80.504 116.514 80.032 116.082 79.712C115.666 79.392 115.074 79.232 114.306 79.232H112.218C111.962 79.232 111.754 79.168 111.594 79.04C111.45 78.896 111.378 78.712 111.378 78.488C111.378 78.264 111.45 78.088 111.594 77.96C111.754 77.832 111.962 77.768 112.218 77.768H114.066C114.754 77.768 115.298 77.608 115.698 77.288C116.114 76.968 116.322 76.528 116.322 75.968C116.322 75.376 116.106 74.912 115.674 74.576C115.242 74.224 114.514 74.048 113.49 74.048C112.866 74.048 112.266 74.12 111.69 74.264C111.114 74.392 110.562 74.608 110.034 74.912C109.746 75.056 109.506 75.104 109.314 75.056C109.122 74.992 108.978 74.872 108.882 74.696C108.786 74.52 108.77 74.328 108.834 74.12C108.898 73.912 109.05 73.744 109.29 73.616C109.914 73.248 110.602 72.976 111.354 72.8C112.106 72.624 112.898 72.536 113.73 72.536C115.202 72.536 116.306 72.824 117.042 73.4C117.794 73.976 118.17 74.784 118.17 75.824C118.17 76.56 117.914 77.184 117.402 77.696C116.89 78.208 116.21 78.512 115.362 78.608V78.296C116.338 78.328 117.114 78.608 117.69 79.136C118.282 79.648 118.578 80.336 118.578 81.2C118.578 82.24 118.154 83.072 117.306 83.696C116.458 84.32 115.202 84.632 113.538 84.632ZM125.3 84.632C124.5 84.632 123.78 84.48 123.14 84.176C122.516 83.856 122.02 83.424 121.652 82.88C121.284 82.336 121.1 81.728 121.1 81.056C121.1 80.192 121.316 79.512 121.748 79.016C122.196 78.52 122.924 78.168 123.932 77.96C124.956 77.752 126.348 77.648 128.108 77.648H129.188V78.92H128.132C126.836 78.92 125.812 78.984 125.06 79.112C124.324 79.224 123.804 79.424 123.5 79.712C123.212 80 123.068 80.408 123.068 80.936C123.068 81.592 123.292 82.128 123.74 82.544C124.204 82.96 124.828 83.168 125.612 83.168C126.252 83.168 126.812 83.016 127.292 82.712C127.788 82.408 128.172 81.992 128.444 81.464C128.732 80.936 128.876 80.328 128.876 79.64V76.904C128.876 75.912 128.676 75.2 128.276 74.768C127.876 74.32 127.22 74.096 126.308 74.096C125.748 74.096 125.188 74.168 124.628 74.312C124.068 74.456 123.476 74.688 122.852 75.008C122.628 75.12 122.436 75.16 122.276 75.128C122.116 75.08 121.988 74.992 121.892 74.864C121.796 74.736 121.74 74.592 121.724 74.432C121.708 74.256 121.74 74.088 121.82 73.928C121.916 73.768 122.06 73.64 122.252 73.544C122.956 73.192 123.652 72.936 124.34 72.776C125.028 72.616 125.684 72.536 126.308 72.536C127.316 72.536 128.148 72.704 128.804 73.04C129.46 73.36 129.948 73.856 130.268 74.528C130.588 75.184 130.748 76.032 130.748 77.072V83.576C130.748 83.896 130.668 84.144 130.508 84.32C130.364 84.496 130.148 84.584 129.86 84.584C129.556 84.584 129.324 84.496 129.164 84.32C129.004 84.144 128.924 83.896 128.924 83.576V81.704H129.14C129.012 82.312 128.764 82.832 128.396 83.264C128.044 83.696 127.604 84.032 127.076 84.272C126.548 84.512 125.956 84.632 125.3 84.632ZM141.713 84.584C141.393 84.584 141.145 84.496 140.969 84.32C140.809 84.144 140.729 83.896 140.729 83.576V73.568C140.729 73.232 140.809 72.984 140.969 72.824C141.145 72.664 141.393 72.584 141.713 72.584C142.017 72.584 142.249 72.664 142.409 72.824C142.585 72.984 142.673 73.232 142.673 73.568V77.6H149.033V73.568C149.033 73.232 149.113 72.984 149.273 72.824C149.449 72.664 149.689 72.584 149.993 72.584C150.297 72.584 150.537 72.664 150.713 72.824C150.889 72.984 150.977 73.232 150.977 73.568V83.576C150.977 83.896 150.889 84.144 150.713 84.32C150.537 84.496 150.297 84.584 149.993 84.584C149.689 84.584 149.449 84.496 149.273 84.32C149.113 84.144 149.033 83.896 149.033 83.576V79.184H142.673V83.576C142.673 83.896 142.593 84.144 142.433 84.32C142.273 84.496 142.033 84.584 141.713 84.584ZM160.095 84.632C158.863 84.632 157.799 84.392 156.903 83.912C156.023 83.416 155.335 82.72 154.839 81.824C154.359 80.928 154.119 79.856 154.119 78.608C154.119 77.392 154.359 76.336 154.839 75.44C155.319 74.528 155.975 73.816 156.807 73.304C157.655 72.792 158.631 72.536 159.735 72.536C160.519 72.536 161.223 72.672 161.847 72.944C162.471 73.2 162.999 73.576 163.431 74.072C163.879 74.568 164.215 75.168 164.439 75.872C164.679 76.576 164.799 77.368 164.799 78.248C164.799 78.504 164.727 78.696 164.583 78.824C164.439 78.936 164.231 78.992 163.959 78.992H155.607V77.72H163.503L163.119 78.032C163.119 77.168 162.991 76.44 162.735 75.848C162.479 75.24 162.103 74.776 161.607 74.456C161.127 74.136 160.519 73.976 159.783 73.976C158.967 73.976 158.271 74.168 157.695 74.552C157.135 74.92 156.711 75.44 156.423 76.112C156.135 76.768 155.991 77.536 155.991 78.416V78.56C155.991 80.032 156.343 81.152 157.047 81.92C157.767 82.688 158.783 83.072 160.095 83.072C160.639 83.072 161.175 83 161.703 82.856C162.247 82.712 162.775 82.472 163.287 82.136C163.511 81.992 163.711 81.928 163.887 81.944C164.079 81.944 164.231 82 164.343 82.112C164.455 82.208 164.527 82.336 164.559 82.496C164.607 82.64 164.591 82.8 164.511 82.976C164.447 83.152 164.311 83.304 164.103 83.432C163.575 83.816 162.951 84.112 162.231 84.32C161.511 84.528 160.799 84.632 160.095 84.632ZM172.742 84.632C171.59 84.632 170.59 84.384 169.742 83.888C168.91 83.376 168.262 82.624 167.798 81.632C167.35 80.64 167.126 79.424 167.126 77.984V76.184C167.126 74.632 167.326 73.336 167.726 72.296C168.142 71.256 168.766 70.416 169.598 69.776C170.446 69.136 171.494 68.648 172.742 68.312L176.246 67.328C176.534 67.248 176.774 67.256 176.966 67.352C177.174 67.448 177.302 67.624 177.35 67.88C177.414 68.152 177.374 68.384 177.23 68.576C177.102 68.768 176.894 68.904 176.606 68.984L172.886 69.992C172.022 70.232 171.302 70.592 170.726 71.072C170.15 71.552 169.718 72.144 169.43 72.848C169.142 73.536 168.998 74.32 168.998 75.2V76.136H168.662C168.854 75.432 169.158 74.824 169.574 74.312C169.99 73.8 170.502 73.408 171.11 73.136C171.734 72.848 172.422 72.704 173.174 72.704C174.182 72.704 175.07 72.944 175.838 73.424C176.606 73.904 177.198 74.584 177.614 75.464C178.046 76.344 178.262 77.392 178.262 78.608C178.262 79.824 178.03 80.888 177.566 81.8C177.118 82.696 176.478 83.392 175.646 83.888C174.83 84.384 173.862 84.632 172.742 84.632ZM172.67 83.072C173.438 83.072 174.086 82.904 174.614 82.568C175.158 82.216 175.574 81.712 175.862 81.056C176.15 80.4 176.294 79.6 176.294 78.656C176.294 77.264 175.974 76.184 175.334 75.416C174.694 74.648 173.814 74.264 172.694 74.264C171.942 74.264 171.294 74.432 170.75 74.768C170.222 75.104 169.814 75.592 169.526 76.232C169.238 76.856 169.094 77.608 169.094 78.488C169.094 79.992 169.406 81.136 170.03 81.92C170.67 82.688 171.55 83.072 172.67 83.072ZM186.696 84.632C185.464 84.632 184.4 84.392 183.504 83.912C182.624 83.416 181.936 82.72 181.44 81.824C180.96 80.928 180.72 79.856 180.72 78.608C180.72 77.392 180.96 76.336 181.44 75.44C181.92 74.528 182.576 73.816 183.408 73.304C184.256 72.792 185.232 72.536 186.336 72.536C187.12 72.536 187.824 72.672 188.448 72.944C189.072 73.2 189.6 73.576 190.032 74.072C190.48 74.568 190.816 75.168 191.04 75.872C191.28 76.576 191.4 77.368 191.4 78.248C191.4 78.504 191.328 78.696 191.184 78.824C191.04 78.936 190.832 78.992 190.56 78.992H182.208V77.72H190.104L189.72 78.032C189.72 77.168 189.592 76.44 189.336 75.848C189.08 75.24 188.704 74.776 188.208 74.456C187.728 74.136 187.12 73.976 186.384 73.976C185.568 73.976 184.872 74.168 184.296 74.552C183.736 74.92 183.312 75.44 183.024 76.112C182.736 76.768 182.592 77.536 182.592 78.416V78.56C182.592 80.032 182.944 81.152 183.648 81.92C184.368 82.688 185.384 83.072 186.696 83.072C187.24 83.072 187.776 83 188.304 82.856C188.848 82.712 189.376 82.472 189.888 82.136C190.112 81.992 190.312 81.928 190.488 81.944C190.68 81.944 190.832 82 190.944 82.112C191.056 82.208 191.128 82.336 191.16 82.496C191.208 82.64 191.192 82.8 191.112 82.976C191.048 83.152 190.912 83.304 190.704 83.432C190.176 83.816 189.552 84.112 188.832 84.32C188.112 84.528 187.4 84.632 186.696 84.632ZM199.392 84.632C198.224 84.632 197.216 84.376 196.368 83.864C195.52 83.352 194.864 82.64 194.4 81.728C193.952 80.8 193.728 79.728 193.728 78.512C193.728 77.584 193.856 76.752 194.112 76.016C194.368 75.28 194.744 74.656 195.24 74.144C195.736 73.616 196.328 73.216 197.016 72.944C197.72 72.672 198.512 72.536 199.392 72.536C199.968 72.536 200.568 72.624 201.192 72.8C201.816 72.976 202.384 73.28 202.896 73.712C203.056 73.824 203.16 73.96 203.208 74.12C203.256 74.28 203.256 74.44 203.208 74.6C203.16 74.744 203.08 74.872 202.968 74.984C202.856 75.08 202.712 75.136 202.536 75.152C202.376 75.168 202.208 75.112 202.032 74.984C201.616 74.664 201.192 74.44 200.76 74.312C200.328 74.184 199.912 74.12 199.512 74.12C198.888 74.12 198.344 74.224 197.88 74.432C197.416 74.624 197.024 74.904 196.704 75.272C196.384 75.64 196.136 76.096 195.96 76.64C195.8 77.184 195.72 77.816 195.72 78.536C195.72 79.928 196.048 81.032 196.704 81.848C197.36 82.648 198.296 83.048 199.512 83.048C199.912 83.048 200.32 82.984 200.736 82.856C201.168 82.728 201.6 82.504 202.032 82.184C202.208 82.056 202.376 82 202.536 82.016C202.696 82.032 202.832 82.096 202.944 82.208C203.056 82.304 203.128 82.432 203.16 82.592C203.208 82.752 203.208 82.912 203.16 83.072C203.112 83.216 203.008 83.344 202.848 83.456C202.336 83.872 201.776 84.176 201.168 84.368C200.56 84.544 199.968 84.632 199.392 84.632ZM206.752 84.584C206.432 84.584 206.184 84.496 206.008 84.32C205.848 84.144 205.768 83.896 205.768 83.576V73.568C205.768 73.232 205.848 72.984 206.008 72.824C206.184 72.664 206.432 72.584 206.752 72.584C207.056 72.584 207.288 72.664 207.448 72.824C207.624 72.984 207.712 73.232 207.712 73.568V77.6H214.072V73.568C214.072 73.232 214.152 72.984 214.312 72.824C214.488 72.664 214.728 72.584 215.032 72.584C215.336 72.584 215.576 72.664 215.752 72.824C215.928 72.984 216.016 73.232 216.016 73.568V83.576C216.016 83.896 215.928 84.144 215.752 84.32C215.576 84.496 215.336 84.584 215.032 84.584C214.728 84.584 214.488 84.496 214.312 84.32C214.152 84.144 214.072 83.896 214.072 83.576V79.184H207.712V83.576C207.712 83.896 207.632 84.144 207.472 84.32C207.312 84.496 207.072 84.584 206.752 84.584ZM220.862 84.416C220.542 84.416 220.294 84.328 220.118 84.152C219.942 83.976 219.854 83.728 219.854 83.408V73.568C219.854 73.232 219.934 72.984 220.094 72.824C220.27 72.664 220.518 72.584 220.838 72.584C221.142 72.584 221.374 72.664 221.534 72.824C221.71 72.984 221.798 73.232 221.798 73.568V76.904H225.326C226.814 76.904 227.942 77.232 228.71 77.888C229.478 78.528 229.862 79.44 229.862 80.624C229.862 81.408 229.678 82.088 229.31 82.664C228.958 83.224 228.446 83.656 227.774 83.96C227.118 84.264 226.302 84.416 225.326 84.416H220.862ZM221.798 83.024H225.134C226.046 83.024 226.75 82.832 227.246 82.448C227.742 82.048 227.99 81.448 227.99 80.648C227.99 79.832 227.742 79.24 227.246 78.872C226.75 78.488 226.046 78.296 225.134 78.296H221.798V83.024ZM232.55 84.584C232.246 84.584 232.006 84.496 231.83 84.32C231.67 84.144 231.59 83.896 231.59 83.576V73.568C231.59 73.232 231.67 72.984 231.83 72.824C232.006 72.664 232.246 72.584 232.55 72.584C232.87 72.584 233.11 72.664 233.27 72.824C233.446 72.984 233.534 73.232 233.534 73.568V83.576C233.534 84.248 233.206 84.584 232.55 84.584ZM238.249 84.584C237.977 84.584 237.761 84.504 237.601 84.344C237.457 84.168 237.385 83.936 237.385 83.648V73.616C237.385 73.392 237.417 73.208 237.481 73.064C237.545 72.904 237.641 72.784 237.769 72.704C237.897 72.624 238.057 72.584 238.249 72.584C238.441 72.584 238.601 72.616 238.729 72.68C238.857 72.728 238.969 72.808 239.065 72.92C239.161 73.016 239.241 73.136 239.305 73.28L243.385 80.552L247.465 73.28C247.529 73.136 247.609 73.016 247.705 72.92C247.801 72.808 247.913 72.728 248.041 72.68C248.169 72.616 248.321 72.584 248.497 72.584C248.785 72.584 249.001 72.672 249.145 72.848C249.289 73.008 249.361 73.264 249.361 73.616V83.648C249.361 83.936 249.289 84.168 249.145 84.344C249.001 84.504 248.785 84.584 248.497 84.584C248.225 84.584 248.009 84.504 247.849 84.344C247.705 84.168 247.633 83.936 247.633 83.648V74.984H248.185L244.081 82.184C244.017 82.312 243.929 82.424 243.817 82.52C243.705 82.6 243.561 82.64 243.385 82.64C243.193 82.64 243.041 82.592 242.929 82.496C242.833 82.4 242.745 82.296 242.665 82.184L238.561 74.984H239.113V83.648C239.113 83.936 239.033 84.168 238.873 84.344C238.729 84.504 238.521 84.584 238.249 84.584ZM254.093 84.584C253.917 84.584 253.757 84.544 253.613 84.464C253.485 84.4 253.381 84.288 253.301 84.128C253.237 83.968 253.205 83.768 253.205 83.528V73.544C253.205 73.224 253.285 72.984 253.445 72.824C253.605 72.664 253.821 72.584 254.093 72.584C254.381 72.584 254.597 72.664 254.741 72.824C254.901 72.984 254.981 73.224 254.981 73.544V82.568H254.381L261.365 73.208C261.493 73.032 261.645 72.888 261.821 72.776C261.997 72.648 262.221 72.584 262.493 72.584C262.685 72.584 262.845 72.616 262.973 72.68C263.101 72.744 263.197 72.856 263.261 73.016C263.341 73.16 263.381 73.36 263.381 73.616V83.624C263.381 83.928 263.301 84.168 263.141 84.344C262.997 84.504 262.781 84.584 262.493 84.584C262.205 84.584 261.981 84.504 261.821 84.344C261.677 84.168 261.605 83.928 261.605 83.624V74.576H262.205L255.197 83.96C255.085 84.12 254.941 84.264 254.765 84.392C254.605 84.52 254.381 84.584 254.093 84.584ZM278.28 84.632C277.144 84.632 276.16 84.384 275.328 83.888C274.496 83.392 273.848 82.696 273.384 81.8C272.936 80.888 272.712 79.816 272.712 78.584C272.712 77.656 272.84 76.824 273.096 76.088C273.352 75.336 273.728 74.696 274.224 74.168C274.72 73.64 275.304 73.24 275.976 72.968C276.664 72.68 277.432 72.536 278.28 72.536C279.416 72.536 280.4 72.784 281.232 73.28C282.064 73.776 282.704 74.48 283.152 75.392C283.616 76.288 283.848 77.352 283.848 78.584C283.848 79.512 283.72 80.344 283.464 81.08C283.208 81.816 282.832 82.456 282.336 83C281.84 83.528 281.248 83.936 280.56 84.224C279.888 84.496 279.128 84.632 278.28 84.632ZM278.28 83.072C279 83.072 279.632 82.896 280.176 82.544C280.72 82.192 281.136 81.68 281.424 81.008C281.728 80.336 281.88 79.528 281.88 78.584C281.88 77.128 281.552 76.016 280.896 75.248C280.256 74.48 279.384 74.096 278.28 74.096C277.544 74.096 276.904 74.272 276.36 74.624C275.832 74.96 275.416 75.464 275.112 76.136C274.824 76.792 274.68 77.608 274.68 78.584C274.68 80.024 275.008 81.136 275.664 81.92C276.32 82.688 277.192 83.072 278.28 83.072ZM291.922 84.632C290.77 84.632 289.77 84.384 288.922 83.888C288.09 83.376 287.442 82.624 286.978 81.632C286.53 80.64 286.306 79.424 286.306 77.984V76.184C286.306 74.632 286.506 73.336 286.906 72.296C287.322 71.256 287.946 70.416 288.778 69.776C289.626 69.136 290.674 68.648 291.922 68.312L295.426 67.328C295.714 67.248 295.954 67.256 296.146 67.352C296.354 67.448 296.482 67.624 296.53 67.88C296.594 68.152 296.554 68.384 296.41 68.576C296.282 68.768 296.074 68.904 295.786 68.984L292.066 69.992C291.202 70.232 290.482 70.592 289.906 71.072C289.33 71.552 288.898 72.144 288.61 72.848C288.322 73.536 288.178 74.32 288.178 75.2V76.136H287.842C288.034 75.432 288.338 74.824 288.754 74.312C289.17 73.8 289.682 73.408 290.29 73.136C290.914 72.848 291.602 72.704 292.354 72.704C293.362 72.704 294.25 72.944 295.018 73.424C295.786 73.904 296.378 74.584 296.794 75.464C297.226 76.344 297.442 77.392 297.442 78.608C297.442 79.824 297.21 80.888 296.746 81.8C296.298 82.696 295.658 83.392 294.826 83.888C294.01 84.384 293.042 84.632 291.922 84.632ZM291.85 83.072C292.618 83.072 293.266 82.904 293.794 82.568C294.338 82.216 294.754 81.712 295.042 81.056C295.33 80.4 295.474 79.6 295.474 78.656C295.474 77.264 295.154 76.184 294.514 75.416C293.874 74.648 292.994 74.264 291.874 74.264C291.122 74.264 290.474 74.432 289.93 74.768C289.402 75.104 288.994 75.592 288.706 76.232C288.418 76.856 288.274 77.608 288.274 78.488C288.274 79.992 288.586 81.136 289.21 81.92C289.85 82.688 290.73 83.072 291.85 83.072ZM303.476 84.416C303.156 84.416 302.908 84.328 302.732 84.152C302.556 83.976 302.468 83.728 302.468 83.408V74.312H299.492C299.204 74.312 298.98 74.248 298.82 74.12C298.676 73.976 298.604 73.776 298.604 73.52C298.604 73.28 298.676 73.096 298.82 72.968C298.98 72.824 299.204 72.752 299.492 72.752H303.38C303.716 72.752 303.972 72.84 304.148 73.016C304.324 73.192 304.412 73.44 304.412 73.76V76.904H307.916C309.42 76.904 310.548 77.232 311.3 77.888C312.068 78.528 312.452 79.44 312.452 80.624C312.452 81.408 312.276 82.088 311.924 82.664C311.572 83.224 311.06 83.656 310.388 83.96C309.716 84.264 308.892 84.416 307.916 84.416H303.476ZM304.412 83.024H307.748C308.644 83.024 309.34 82.832 309.836 82.448C310.332 82.048 310.58 81.448 310.58 80.648C310.58 79.832 310.332 79.24 309.836 78.872C309.356 78.488 308.66 78.296 307.748 78.296H304.412V83.024ZM320.618 84.632C319.386 84.632 318.322 84.392 317.426 83.912C316.546 83.416 315.858 82.72 315.362 81.824C314.882 80.928 314.642 79.856 314.642 78.608C314.642 77.392 314.882 76.336 315.362 75.44C315.842 74.528 316.498 73.816 317.33 73.304C318.178 72.792 319.154 72.536 320.258 72.536C321.042 72.536 321.746 72.672 322.37 72.944C322.994 73.2 323.522 73.576 323.954 74.072C324.402 74.568 324.738 75.168 324.962 75.872C325.202 76.576 325.322 77.368 325.322 78.248C325.322 78.504 325.25 78.696 325.106 78.824C324.962 78.936 324.754 78.992 324.482 78.992H316.13V77.72H324.026L323.642 78.032C323.642 77.168 323.514 76.44 323.258 75.848C323.002 75.24 322.626 74.776 322.13 74.456C321.65 74.136 321.042 73.976 320.306 73.976C319.49 73.976 318.794 74.168 318.218 74.552C317.658 74.92 317.234 75.44 316.946 76.112C316.658 76.768 316.514 77.536 316.514 78.416V78.56C316.514 80.032 316.866 81.152 317.57 81.92C318.29 82.688 319.306 83.072 320.618 83.072C321.162 83.072 321.698 83 322.226 82.856C322.77 82.712 323.298 82.472 323.81 82.136C324.034 81.992 324.234 81.928 324.41 81.944C324.602 81.944 324.754 82 324.866 82.112C324.978 82.208 325.05 82.336 325.082 82.496C325.13 82.64 325.114 82.8 325.034 82.976C324.97 83.152 324.834 83.304 324.626 83.432C324.098 83.816 323.474 84.112 322.754 84.32C322.034 84.528 321.322 84.632 320.618 84.632ZM329.33 84.584C329.01 84.584 328.762 84.496 328.586 84.32C328.426 84.144 328.346 83.896 328.346 83.576V73.64C328.346 73.304 328.426 73.056 328.586 72.896C328.762 72.72 329.01 72.632 329.33 72.632C329.634 72.632 329.866 72.72 330.026 72.896C330.202 73.056 330.29 73.304 330.29 73.64V77.624H332.474L336.026 73.064C336.186 72.872 336.362 72.752 336.554 72.704C336.746 72.64 336.922 72.64 337.082 72.704C337.258 72.752 337.394 72.848 337.49 72.992C337.602 73.12 337.658 73.28 337.658 73.472C337.658 73.664 337.586 73.864 337.442 74.072L334.058 78.416L333.506 77.792C333.954 77.84 334.346 77.952 334.682 78.128C335.018 78.304 335.338 78.568 335.642 78.92C335.946 79.272 336.274 79.76 336.626 80.384L338.354 83.24C338.466 83.464 338.506 83.664 338.474 83.84C338.458 84.016 338.378 84.176 338.234 84.32C338.09 84.448 337.922 84.528 337.73 84.56C337.554 84.592 337.378 84.568 337.202 84.488C337.026 84.408 336.866 84.264 336.722 84.056L334.826 80.888C334.554 80.44 334.298 80.096 334.058 79.856C333.818 79.6 333.546 79.424 333.242 79.328C332.938 79.232 332.562 79.184 332.114 79.184H330.29V83.576C330.29 83.896 330.202 84.144 330.026 84.32C329.866 84.496 329.634 84.584 329.33 84.584ZM344.387 84.584C344.083 84.584 343.843 84.496 343.667 84.32C343.491 84.144 343.403 83.896 343.403 83.576V74.312H339.899C339.291 74.312 338.987 74.048 338.987 73.52C338.987 73.28 339.067 73.096 339.227 72.968C339.387 72.824 339.611 72.752 339.899 72.752H348.875C349.467 72.752 349.763 73.008 349.763 73.52C349.763 73.776 349.683 73.976 349.523 74.12C349.379 74.248 349.163 74.312 348.875 74.312H345.347V83.576C345.347 83.896 345.267 84.144 345.107 84.32C344.963 84.496 344.723 84.584 344.387 84.584ZM355.339 84.632C354.539 84.632 353.819 84.48 353.179 84.176C352.555 83.856 352.059 83.424 351.691 82.88C351.323 82.336 351.139 81.728 351.139 81.056C351.139 80.192 351.355 79.512 351.787 79.016C352.235 78.52 352.963 78.168 353.971 77.96C354.995 77.752 356.387 77.648 358.147 77.648H359.227V78.92H358.171C356.875 78.92 355.851 78.984 355.099 79.112C354.363 79.224 353.843 79.424 353.539 79.712C353.251 80 353.107 80.408 353.107 80.936C353.107 81.592 353.331 82.128 353.779 82.544C354.243 82.96 354.867 83.168 355.651 83.168C356.291 83.168 356.851 83.016 357.331 82.712C357.827 82.408 358.211 81.992 358.483 81.464C358.771 80.936 358.915 80.328 358.915 79.64V76.904C358.915 75.912 358.715 75.2 358.315 74.768C357.915 74.32 357.259 74.096 356.347 74.096C355.787 74.096 355.227 74.168 354.667 74.312C354.107 74.456 353.515 74.688 352.891 75.008C352.667 75.12 352.475 75.16 352.315 75.128C352.155 75.08 352.027 74.992 351.931 74.864C351.835 74.736 351.779 74.592 351.763 74.432C351.747 74.256 351.779 74.088 351.859 73.928C351.955 73.768 352.099 73.64 352.291 73.544C352.995 73.192 353.691 72.936 354.379 72.776C355.067 72.616 355.723 72.536 356.347 72.536C357.355 72.536 358.187 72.704 358.843 73.04C359.499 73.36 359.987 73.856 360.307 74.528C360.627 75.184 360.787 76.032 360.787 77.072V83.576C360.787 83.896 360.707 84.144 360.547 84.32C360.403 84.496 360.187 84.584 359.899 84.584C359.595 84.584 359.363 84.496 359.203 84.32C359.043 84.144 358.963 83.896 358.963 83.576V81.704H359.179C359.051 82.312 358.803 82.832 358.435 83.264C358.083 83.696 357.643 84.032 357.115 84.272C356.587 84.512 355.995 84.632 355.339 84.632ZM365.444 84.584C365.172 84.584 364.956 84.504 364.796 84.344C364.652 84.168 364.58 83.936 364.58 83.648V73.616C364.58 73.392 364.612 73.208 364.676 73.064C364.74 72.904 364.836 72.784 364.964 72.704C365.092 72.624 365.252 72.584 365.444 72.584C365.636 72.584 365.796 72.616 365.924 72.68C366.052 72.728 366.164 72.808 366.26 72.92C366.356 73.016 366.436 73.136 366.5 73.28L370.58 80.552L374.66 73.28C374.724 73.136 374.804 73.016 374.9 72.92C374.996 72.808 375.108 72.728 375.236 72.68C375.364 72.616 375.516 72.584 375.692 72.584C375.98 72.584 376.196 72.672 376.34 72.848C376.484 73.008 376.556 73.264 376.556 73.616V83.648C376.556 83.936 376.484 84.168 376.34 84.344C376.196 84.504 375.98 84.584 375.692 84.584C375.42 84.584 375.204 84.504 375.044 84.344C374.9 84.168 374.828 83.936 374.828 83.648V74.984H375.38L371.276 82.184C371.212 82.312 371.124 82.424 371.012 82.52C370.9 82.6 370.756 82.64 370.58 82.64C370.388 82.64 370.236 82.592 370.124 82.496C370.028 82.4 369.94 82.296 369.86 82.184L365.756 74.984H366.308V83.648C366.308 83.936 366.228 84.168 366.068 84.344C365.924 84.504 365.716 84.584 365.444 84.584ZM381.288 84.584C381.112 84.584 380.952 84.544 380.808 84.464C380.68 84.4 380.576 84.288 380.496 84.128C380.432 83.968 380.4 83.768 380.4 83.528V73.544C380.4 73.224 380.48 72.984 380.64 72.824C380.8 72.664 381.016 72.584 381.288 72.584C381.576 72.584 381.792 72.664 381.936 72.824C382.096 72.984 382.176 73.224 382.176 73.544V82.568H381.576L388.56 73.208C388.688 73.032 388.84 72.888 389.016 72.776C389.192 72.648 389.416 72.584 389.688 72.584C389.88 72.584 390.04 72.616 390.168 72.68C390.296 72.744 390.392 72.856 390.456 73.016C390.536 73.16 390.576 73.36 390.576 73.616V83.624C390.576 83.928 390.496 84.168 390.336 84.344C390.192 84.504 389.976 84.584 389.688 84.584C389.4 84.584 389.176 84.504 389.016 84.344C388.872 84.168 388.8 83.928 388.8 83.624V74.576H389.4L382.392 83.96C382.28 84.12 382.136 84.264 381.96 84.392C381.8 84.52 381.576 84.584 381.288 84.584Z" fill="black"></path></svg> 