<?xml version="1.0" encoding="UTF-8"?> <svg xmlns="http://www.w3.org/2000/svg" xmlns:xlink="http://www.w3.org/1999/xlink" version="1.1" id="Layer_1" x="0px" y="0px" viewBox="0 0 100 100" style="enable-background:new 0 0 100 100;" xml:space="preserve"> <style type="text/css"> .st0{fill-rule:evenodd;clip-rule:evenodd;fill:#B8B8B8;stroke:#B8B8B8;stroke-width:2;stroke-miterlimit:10;} </style> <g> <path class="st0" d="M80.5,11h-60c-0.8,0-1.5,0.7-1.5,1.5v75c0,0.8,0.7,1.5,1.5,1.5h60c0.8,0,1.5-0.7,1.5-1.5v-75 C82,11.7,81.3,11,80.5,11z M79,86H22V14h57V86z"></path> <path class="st0" d="M32,53.5c0,0.1,0,0.3,0,0.4V54c0,9.9,8.1,18,18,18s18-8.1,18-18c0,0,0-0.1,0-0.2c0-0.1,0-0.2,0-0.4 c-0.5-9.9-9-17.6-18.9-17C39.9,36.9,32.5,44.3,32,53.5L32,53.5z M50,69c-8,0-14.7-6.3-15-14.4l0.4-0.2c4.1-2.1,9-1.9,12.9,0.5 l1.1,0.7c2.6,1.6,5.5,2.4,8.5,2.4c2.4,0,4.8-0.5,6.9-1.5C63.6,63.7,57.3,69,50,69z M50,39c7.9,0,14.4,6.1,14.9,13.9l-0.3,0.2 c-4.2,2.5-9.4,2.5-13.6-0.1l-1.1-0.7c-4.4-2.7-9.8-3.1-14.6-1.2C36.6,44.1,42.8,39,50,39z M28.5,23h17c0.8,0,1.5-0.7,1.5-1.5 S46.3,20,45.5,20h-17c-0.8,0-1.5,0.7-1.5,1.5S27.7,23,28.5,23z M71.5,19c-1.4,0-2.5,1.1-2.5,2.5s1.1,2.5,2.5,2.5s2.5-1.1,2.5-2.5 S72.9,19,71.5,19z M61.5,19c-1.4,0-2.5,1.1-2.5,2.5s1.1,2.5,2.5,2.5s2.5-1.1,2.5-2.5S62.9,19,61.5,19z"></path> </g> </svg> 