<?xml version="1.0" encoding="UTF-8"?> <svg xmlns="http://www.w3.org/2000/svg" xmlns:xlink="http://www.w3.org/1999/xlink" xmlns:svgjs="http://svgjs.dev/svgjs" id="Layer_1" height="300" viewBox="0 0 128 128" width="300" version="1.1"><g width="100%" height="100%" transform="matrix(1,0,0,1,0,0)"><linearGradient id="SVGID_1_" gradientTransform="matrix(1 0 0 -1 0 127.89)" gradientUnits="userSpaceOnUse" x1="107.55" x2="25.999" y1="36.304" y2="117.854"><stop stop-opacity="1" stop-color="#9c4399" offset="0.02"></stop><stop stop-opacity="1" stop-color="#93c1cc" offset="1"></stop></linearGradient><path d="m112.6 15.8c0-1-.8-1.8-1.8-1.8h-24.5c-.6 0-1.1.3-1.4.7h-4.6c-5.1 0-10.1 2.1-13.6 5.8-3.5-3.7-8.5-5.8-13.6-5.8h-4.6c-.3-.4-.8-.7-1.4-.7h-24.4c-1 0-1.8.8-1.8 1.8v6.1c0 6 4.9 10.9 10.9 10.9h6.2c4.7 0 8.8-3 10.3-7.5h4.8c4.5 0 8.4 3.6 8.4 8.1v11.3c0 1 .8 1.8 1.8 1.8s1.8-.8 1.8-1.8c0-2.3 0-10.2 0-11.3 0-6.4-5.4-11.5-11.9-11.6h-4.2v-3.5h4.2c4.8 0 9.3 2.2 12.2 6.1.7.9 2.1.9 2.8 0 2.9-3.8 7.4-6.1 12.2-6.1h4.2v3.5h-4.2c-6.4 0-11.9 5.2-11.9 11.6v39.8h-3.5v-9.9c0-1-.8-1.8-1.8-1.8s-1.8.8-1.8 1.8v9.9h-.4c-.9 0-1.7.7-1.7 1.6l-1.9 29.7h-3.9c-.7 0-1.4.4-1.6 1.1l-2.9 7.4c-.5 1.1.4 2.4 1.6 2.4h32.6c1.2 0 2.1-1.3 1.6-2.4l-2.9-7.4c-.3-.7-.9-1.1-1.6-1.1h-3.9c-.4-6.1 1 15.5-1.9-29.7-.1-.9-.8-1.6-1.7-1.6h-.8c0-6.8 0-38.1 0-39.8 0-4.5 3.9-8 8.4-8.1h4.8c1.5 4.5 5.6 7.5 10.3 7.5h6.3c6 0 10.8-4.9 10.9-10.8zm-67.1 1.7v2.6h-21v-2.6zm-7.4 11.7h-6.2c-3.4 0-6.3-2.3-7.1-5.6h20.5c-.9 3.3-3.8 5.6-7.2 5.6zm24.5 47.4h8.3l.1 2.3h-8.6zm17.9 35.3h-27.4l1.5-3.9h24.3zm-19.6-7.4 1.4-22h9l1.4 22zm40.8-75.3h-6.3c-3.4 0-6.3-2.3-7.1-5.6h6.9c1 0 1.8-.8 1.8-1.8s-.8-1.8-1.8-1.8h-7.1v-2.6h21v2.6h-7.2c-1 0-1.8.8-1.8 1.8s.8 1.8 1.8 1.8h6.9c-.7 3.2-3.6 5.6-7.1 5.6zm-40.2 27.3v-5.2c0-1 .8-1.8 1.8-1.8s1.8.8 1.8 1.8v5.2c0 1-.8 1.8-1.8 1.8s-1.8-.8-1.8-1.8z" fill="url(#SVGID_1_)" data-original-color="SVGID_1_" stroke="none" stroke-opacity="1"></path></g></svg> 