<?xml version="1.0" encoding="UTF-8"?> <svg xmlns="http://www.w3.org/2000/svg" xmlns:xlink="http://www.w3.org/1999/xlink" xmlns:svgjs="http://svgjs.dev/svgjs" id="line_copy" viewBox="0 0 64 64" data-name="line copy" width="300" height="300" version="1.1"><g width="100%" height="100%" transform="matrix(1,0,0,1,0,0)"><linearGradient id="linear-gradient" gradientUnits="userSpaceOnUse" x1="4" x2="60" y1="32" y2="32"><stop stop-opacity="1" stop-color="#9c4399" offset="0.02"></stop><stop stop-opacity="1" stop-color="#93c1cc" offset="1"></stop></linearGradient><path d="m13.78173 14.42389c.23013-1.598 2.544-.62383 3.65583-.8086 7.49855-11.79695 21.47116-13.48056 33.27012.35171a1.00743 1.00743 0 0 1 -.72754 1.674c-2.01384.02442-5.69091 2.132-9.24778 4.17-8.49687 4.90684-15.86522 9.34667-21.745-.696a1.00075 1.00075 0 0 1 1.717-1.02768c5.0581 8.80561 11.15853 4.35394 19.0337-.01153a45.12679 45.12679 0 0 1 8.233-4.09165c-9.93119-10.71866-21.15741-10.06467-28.0712-.40627a41.13618 41.13618 0 0 0 10.44582-1.79855c3.99448-1.11142 7.76921-2.16229 11.81154-.5059a1.00041 1.00041 0 1 1 -.75788 1.85172c-4.54646-1.91777-9.56232.5786-14.383 1.57728a42.293 42.293 0 0 1 -12.31451.796 1.00011 1.00011 0 0 1 -.9201-1.07453zm2.22486 19.27426c-3.54424-2.06072-7.20959-4.19176-8.24288-5.92823a1.00675 1.00675 0 0 0 -1.81265.20906 38.50708 38.50708 0 0 0 -1.91618 9.77322c-.65728 12.89756 8.12666 17.10885 13.42593 18.47225a25.222 25.222 0 0 0 4.82066.74048c.4144.74909.81971 1.50733 1.19547 2.293a1.00035 1.00035 0 0 0 1.80484-.86336 42.19616 42.19616 0 0 0 -6.84627-10.26746c-3.27579-3.67346-7.944-6.76985-8.55736-11.666a1.00055 1.00055 0 0 0 -1.98259.26961c.587 4.32745 3.3831 7.07084 6.3433 9.97538a41.07079 41.07079 0 0 1 6.77645 8.14027c-11.94839-1.31517-17.908-10.28888-13.68108-24.507 4.16832 3.95425 15.44167 8.33456 18.20441 13.03246 1.56947 2.73265.31448 6.13821-1.01571 8.51439a1.0006 1.0006 0 0 0 1.74624.97658c5.76299-10.0796-1.7731-14.27533-10.26258-19.16465zm43.16475 1.94254a25.27065 25.27065 0 0 0 -1.767-4.54511c.39834-1.06015 2.39107-2.56223 1.12741-3.5708a1.00282 1.00282 0 0 0 -1.39086.25979 43.03878 43.03878 0 0 0 -6.53759 14.90843c-.98842 3.83333-1.842 7.14513-4.75534 9.39825a1.0006 1.0006 0 0 0 1.22477 1.5821c3.45433-2.673 4.432-6.46532 5.46719-10.48128a41.08628 41.08628 0 0 1 3.663-9.94181c4.91246 10.76915-.12147 20.8494-14.38115 24.10285a45.216 45.216 0 0 0 .56884-9.16746c.1703-9.02828-.69086-16.50608 9.50085-16.48368a1.00037 1.00037 0 0 0 -.02551-2.00029c-4.66439.06055-7.98205 1.56849-9.59449 4.36072-3.2573 4.93639-.656 18.87994-2.88666 24.20521a.99948.99948 0 0 0 1.08768 1.46393 40.43684 40.43684 0 0 0 8.79468-2.91333c11.68289-5.37521 11.61471-15.87183 9.90418-21.17752z" fill="url(#linear-gradient)" data-original-color="linear-gradient" stroke="none" stroke-opacity="1"></path></g></svg> 