<?xml version="1.0" encoding="UTF-8"?> <svg xmlns="http://www.w3.org/2000/svg" width="265" height="199" viewBox="0 0 265 199" fill="none"><rect y="0.78363" width="264.479" height="198" fill="url(#paint0_linear_497_102)"></rect><path d="M87.9238 79.2497H50.2795L52.9914 71.792H90.6357L87.9238 79.2497ZM86.5679 82.9785H48.9067L46.1948 90.4362H83.8391L86.5679 82.9785ZM82.5001 94.1311H44.8388L42.127 101.589H79.7373L82.5001 94.1311Z" fill="white"></path><path d="M185.095 120.25H191.875C192.838 120.365 193.815 120.241 194.72 119.889C195.624 119.538 196.428 118.969 197.061 118.233C197.991 117.016 198.46 115.508 198.383 113.979C198.447 113.005 198.268 112.031 197.863 111.144C197.457 110.256 196.838 109.483 196.061 108.894C194.803 108.07 193.306 107.689 191.807 107.809H185.095V120.25ZM176.197 127.758V82.9785H205.332L202.773 90.487H185.095V100.402H192.298C198.112 100.402 201.129 101.792 203.214 103.572C204.704 104.892 205.876 106.532 206.643 108.37C207.409 110.207 207.749 112.194 207.637 114.182C207.752 116.323 207.33 118.458 206.409 120.394C205.489 122.33 204.099 124.005 202.366 125.267C199.57 127.199 196.637 127.741 190.671 127.741L176.197 127.758ZM150.4 127.758V90.47H137.451V82.9785H173.4L170.841 90.487H159.383V127.775L150.4 127.758ZM114.518 100.911H119.603C120.643 100.982 121.688 100.902 122.705 100.673C123.762 100.336 124.674 99.6484 125.29 98.7246C125.906 97.8007 126.189 96.695 126.095 95.5887C126.236 94.4895 125.968 93.3767 125.344 92.4613C124.719 91.5459 123.78 90.8917 122.705 90.6226C121.594 90.3648 120.453 90.2621 119.315 90.3175H114.518V100.911ZM114.518 108.657V120.402H120.722C122.431 120.598 124.15 120.124 125.518 119.08C126.149 118.496 126.643 117.78 126.965 116.983C127.287 116.187 127.43 115.328 127.383 114.47C127.41 113.099 126.994 111.756 126.196 110.64C124.874 108.945 123.247 108.623 120.467 108.623L114.518 108.657ZM128.857 103.928V104.08C130.368 104.662 131.781 105.474 133.044 106.487C134.321 107.547 135.33 108.892 135.989 110.415C136.649 111.937 136.941 113.594 136.84 115.25C136.84 121.369 133.586 125.792 128.247 127.114C126.119 127.635 123.927 127.846 121.739 127.741H105.62V82.9785H119.959C122.236 82.8952 124.515 83.106 126.739 83.6056C131.925 84.9954 135.332 88.5717 135.332 94.2158C135.374 95.5615 135.142 96.9017 134.65 98.1547C134.157 99.4077 133.415 100.547 132.467 101.504C131.462 102.525 130.263 103.338 128.942 103.894L128.857 103.928Z" fill="white"></path><defs><linearGradient id="paint0_linear_497_102" x1="7.4812" y1="65.5016" x2="257.014" y2="66.88" gradientUnits="userSpaceOnUse"><stop stop-color="#009FDF"></stop><stop offset="1" stop-color="#0A2973"></stop></linearGradient></defs></svg> 