<?xml version="1.0" encoding="UTF-8"?> <svg xmlns="http://www.w3.org/2000/svg" width="266" height="199" viewBox="0 0 266 199" fill="none"><rect x="0.958984" y="0.78363" width="264.479" height="198" fill="#A3D562"></rect><path fill-rule="evenodd" clip-rule="evenodd" d="M74.1584 58.7864L74.1431 103.2H101.876V40.7281H91.5328L74.1584 58.7864ZM109.054 40.7281V103.2H136.788L136.788 40.7281L109.054 40.7281ZM161.421 40.7447L143.969 58.7864L143.966 103.2H151.144L151.156 61.3894L163.814 47.8642L164.521 103.2H171.699V61.4622L185.003 47.7047L185.239 103.037L192.254 103.222V40.7281H181.861L171.699 51.4928V40.7281L161.421 40.7447ZM129.446 47.3982L129.614 96.3672H116.232V47.2063L129.446 47.3982ZM94.6983 96.3805L81.158 96.2045L81.2366 61.6142C81.2366 61.6142 94.0144 47.6488 94.4536 47.5925C94.5884 47.5749 94.6983 96.3805 94.6983 96.3805ZM74.1431 116.866H192.254V110.033H74.1431V116.866ZM74.1431 124.024V158.839H81.1335L81.158 151.01L122.714 150.952V124.024H74.1431ZM130.099 150.867L157.343 151.037V158.839H164.847V150.867L192.254 151.044V124.024H161.091H129.929L130.099 150.867ZM115.417 130.694L115.593 144.203L81.158 144.035L81.1335 130.966L115.417 130.694ZM157.343 130.633V144.206L136.951 144.035V130.633H157.343ZM185.239 144.035H164.872V130.633L185.239 130.799V144.035Z" fill="#252628"></path></svg> 