<?xml version="1.0" encoding="UTF-8"?> <svg xmlns="http://www.w3.org/2000/svg" width="75" height="75" viewBox="0 0 75 75" fill="none"><circle cx="37.3125" cy="37.416" r="36.5" fill="#F6FDDF" stroke="black"></circle><path d="M64.9159 37.7995C64.7331 37.4735 64.4878 37.1877 64.1944 36.9588C63.901 36.73 63.5654 36.5626 63.2073 36.4666C61.1356 35.9343 58.9842 35.796 56.8626 36.0588C58.1851 30.8196 57.437 26.6937 56.6816 24.3402C56.4598 23.6367 55.9868 23.042 55.355 22.6723C54.7231 22.3026 53.9777 22.1844 53.2643 22.3407C50.5604 22.9569 48.0127 24.1349 45.7829 25.8002C44.3107 22.3408 41.9938 19.3166 39.0497 17.0112C38.549 16.6251 37.9368 16.416 37.3072 16.416C36.6777 16.416 36.0655 16.6251 35.5648 17.0112C32.6207 19.3166 30.3038 22.3408 28.8316 25.8002C26.6016 24.1353 24.0539 22.9572 21.3502 22.3407C20.6368 22.1844 19.8914 22.3026 19.2595 22.6723C18.6276 23.042 18.1546 23.6367 17.9329 24.3402C17.1775 26.7035 16.4294 30.8294 17.7519 36.0588C15.6327 35.797 13.4838 35.9352 11.4144 36.4666C11.0563 36.5626 10.7207 36.73 10.4273 36.9588C10.1339 37.1877 9.88862 37.4735 9.70578 37.7995C9.51192 38.1364 9.38645 38.509 9.33672 38.8955C9.28699 39.282 9.31401 39.6747 9.41618 40.0505C10.1981 42.9801 12.6018 48.5489 19.9191 52.9703C27.2363 57.3916 33.8031 57.416 37.3145 57.416C40.8259 57.416 47.3564 57.416 54.7075 52.9703C62.0585 48.5245 64.4284 42.9777 65.2104 40.0505C65.3118 39.6744 65.338 39.2815 65.2875 38.895C65.2369 38.5085 65.1106 38.136 64.9159 37.7995ZM53.677 24.2401C53.9246 24.1882 54.1824 24.2319 54.3998 24.3624C54.6173 24.4929 54.7787 24.701 54.8523 24.9457C55.8176 27.9974 56.783 34.3084 52.2531 42.2795C49.7311 46.7203 46.1932 50.1407 43.0558 52.3965C45.5199 49.1153 47.9332 44.047 47.9332 36.7107C47.9585 33.6409 47.479 30.5882 46.5142 27.6776C48.6226 26.0125 51.0684 24.8387 53.677 24.2401ZM19.7767 24.9457C19.8522 24.7029 20.0145 24.4974 20.2318 24.3692C20.4492 24.2409 20.7059 24.1993 20.952 24.2523C23.5596 24.8473 26.0053 26.0168 28.1148 27.6776C27.15 30.5882 26.6704 33.6409 26.6957 36.7107C26.6957 44.047 29.1091 49.1178 31.5731 52.3917C28.4358 50.1358 24.8978 46.7155 22.3759 42.2746C17.8436 34.2962 18.8017 27.9852 19.7767 24.9457ZM20.9158 51.3126C14.1825 47.2428 11.9864 42.2013 11.2865 39.5573C11.2509 39.4298 11.2413 39.2963 11.2583 39.165C11.2753 39.0336 11.3186 38.9071 11.3855 38.7932C11.4419 38.6902 11.5182 38.5998 11.6098 38.5273C11.7014 38.4547 11.8065 38.4015 11.9188 38.3708C14.0287 37.8351 16.2261 37.7519 18.3697 38.1267C18.9866 39.9056 19.7672 41.6221 20.701 43.2536C23.9059 48.8932 28.583 52.9385 32.3502 55.2432C28.3006 54.7826 24.3988 53.4355 20.9158 51.2955V51.3126ZM37.3265 55.3018C35.7537 54.1938 34.3627 52.8427 33.2045 51.2979C30.1637 47.3038 28.6264 42.4015 28.6264 36.7107C28.6264 25.9076 34.2954 20.4145 36.7329 18.5566C36.9004 18.4287 37.1046 18.3595 37.3145 18.3595C37.5244 18.3595 37.7286 18.4287 37.8961 18.5566C40.3336 20.4145 46.0025 25.9076 46.0025 36.7107C46.0025 42.4015 44.4652 47.3038 41.4365 51.2808C40.2783 52.8257 38.8873 54.1768 37.3145 55.2847L37.3265 55.3018ZM63.3545 39.5573C62.6498 42.2013 60.4585 47.2428 53.7252 51.3126C50.2418 53.4509 46.34 54.7963 42.2908 55.2554C46.058 52.9507 50.7375 48.9078 53.94 43.2658C54.8739 41.6343 55.6544 39.9178 56.2713 38.1389C58.4148 37.763 60.6124 37.8462 62.7222 38.383C62.8345 38.4137 62.9396 38.4669 63.0312 38.5395C63.1229 38.612 63.1991 38.7024 63.2556 38.8054C63.3787 39.0293 63.4099 39.2932 63.3424 39.5402L63.3545 39.5573Z" fill="#5C5C5C"></path><path d="M37.3265 55.3018C35.7537 54.1938 34.3627 52.8427 33.2045 51.2979C30.1637 47.3038 28.6264 42.4015 28.6264 36.7107C28.6264 25.9076 34.2954 20.4145 36.7329 18.5566C36.9004 18.4287 37.1046 18.3595 37.3145 18.3595C37.5244 18.3595 37.7286 18.4287 37.8961 18.5566C40.3336 20.4145 46.0025 25.9076 46.0025 36.7107C46.0025 42.4015 44.4652 47.3038 41.4365 51.2808C40.2783 52.8257 38.8873 54.1768 37.3145 55.2847L37.3265 55.3018Z" fill="#F6FDDF"></path><path d="M53.677 24.2401C53.9246 24.1882 54.1824 24.2319 54.3998 24.3624C54.6173 24.4929 54.7787 24.701 54.8523 24.9457C55.8176 27.9974 56.783 34.3084 52.2531 42.2795C49.7311 46.7203 46.1932 50.1407 43.0558 52.3965C45.5199 49.1153 47.9332 44.047 47.9332 36.7107C47.9585 33.6409 47.479 30.5882 46.5142 27.6776C48.6226 26.0125 51.0684 24.8387 53.677 24.2401Z" fill="#F6FDDF"></path><path d="M63.3545 39.5573C62.6498 42.2013 60.4585 47.2428 53.7252 51.3126C50.2418 53.4509 46.34 54.7963 42.2908 55.2554C46.058 52.9507 50.7375 48.9078 53.94 43.2658C54.8739 41.6343 55.6544 39.9178 56.2713 38.1389C58.4148 37.763 60.6124 37.8462 62.7222 38.383C62.8345 38.4137 62.9396 38.4669 63.0312 38.5395C63.1229 38.612 63.1991 38.7024 63.2556 38.8054C63.3787 39.0293 63.4099 39.2932 63.3424 39.5402L63.3545 39.5573Z" fill="#F6FDDF"></path><path d="M19.7767 24.9457C19.8522 24.7029 20.0145 24.4974 20.2318 24.3692C20.4492 24.2409 20.7059 24.1993 20.952 24.2523C23.5596 24.8473 26.0053 26.0168 28.1148 27.6776C27.15 30.5882 26.6704 33.6409 26.6957 36.7107C26.6957 44.047 29.1091 49.1178 31.5731 52.3917C28.4358 50.1358 24.8978 46.7155 22.3759 42.2746C17.8436 34.2962 18.8017 27.9852 19.7767 24.9457Z" fill="#F6FDDF"></path><path d="M20.9158 51.3126C14.1825 47.2428 11.9864 42.2013 11.2865 39.5573C11.2509 39.4298 11.2413 39.2963 11.2583 39.165C11.2753 39.0336 11.3186 38.9071 11.3855 38.7932C11.4419 38.6902 11.5182 38.5998 11.6098 38.5273C11.7014 38.4547 11.8065 38.4015 11.9188 38.3708C14.0287 37.8351 16.2261 37.7519 18.3697 38.1267C18.9866 39.9056 19.7672 41.6221 20.701 43.2536C23.9059 48.8932 28.583 52.9385 32.3502 55.2432C28.3006 54.7826 24.3988 53.4355 20.9158 51.2955V51.3126Z" fill="#F6FDDF"></path></svg> 