<?xml version="1.0" encoding="UTF-8"?> <svg xmlns="http://www.w3.org/2000/svg" width="39" height="39" viewBox="0 0 39 39" fill="none"><rect x="0.539795" y="0.547852" width="38.4292" height="38.4292" fill="white" fill-opacity="0.01"></rect><mask id="mask0_799_79" style="mask-type:luminance" maskUnits="userSpaceOnUse" x="24" y="18" width="7" height="6"><path d="M25.9044 23.5131L30.4044 21.4131L24.3044 18.9131L25.9044 23.5131Z" fill="white"></path></mask><g mask="url(#mask0_799_79)"><path d="M25.5045 16.4131L32.2045 19.8131L29.2045 25.9131L22.4045 22.6131L25.5045 16.4131Z" fill="url(#paint0_linear_799_79)"></path></g><mask id="mask1_799_79" style="mask-type:luminance" maskUnits="userSpaceOnUse" x="17" y="2" width="6" height="7"><path d="M17.8044 3.7127L19.8044 8.21269L22.4044 2.0127L17.8044 3.7127Z" fill="white"></path></mask><g mask="url(#mask1_799_79)"><path d="M25.4043 5.41289L19.9043 10.5129L14.7043 4.81289L20.3043 -0.287109L25.4043 5.41289Z" fill="url(#paint1_linear_799_79)"></path></g><mask id="mask2_799_79" style="mask-type:luminance" maskUnits="userSpaceOnUse" x="17" y="10" width="6" height="8"><path d="M17.8044 15.3131L22.4044 17.0131L19.8044 10.9131L17.8044 15.3131Z" fill="white"></path></mask><g mask="url(#mask2_799_79)"><path d="M22.4044 10.9131H17.8044V17.0131H22.4044V10.9131Z" fill="url(#paint2_linear_799_79)"></path></g><path d="M2.00439 36.5125H2.10439C2.40439 36.2125 2.5044 35.6125 2.7044 34.8125H3.9044V36.5125H4.2044V37.5125H3.7044V36.9125H2.50439V37.5125H2.00439V36.5125ZM3.3044 35.3125H3.00439C2.90439 35.8125 2.80439 36.3125 2.60439 36.6125H3.3044V35.3125Z" fill="white"></path><path d="M5.70435 34.9131H6.90435L6.80435 35.3131H6.20435V35.7131H6.80435V36.1131H6.20435V36.5131H6.90435V36.9131H5.70435V34.9131Z" fill="white"></path><path d="M8.60425 34.9131H9.30425C9.70425 34.9131 9.90425 35.2131 9.90425 35.4131C9.90425 35.6131 9.80425 35.7131 9.70425 35.8131C10.0042 35.9131 10.1042 36.1131 10.1042 36.3131C10.1042 36.6131 9.90425 36.9131 9.40425 36.9131H8.70425V34.9131H8.60425ZM9.20425 35.7131C9.40425 35.7131 9.50425 35.6131 9.50425 35.5131C9.50425 35.4131 9.40425 35.3131 9.20425 35.3131H9.10425V35.7131H9.20425ZM9.30425 36.6131C9.50425 36.6131 9.60425 36.5131 9.60425 36.4131C9.60425 36.3131 9.50425 36.2131 9.30425 36.2131H9.10425V36.7131H9.30425V36.6131Z" fill="white"></path><path d="M11.7043 34.9131H12.9043L12.8043 35.3131H12.2043V35.7131H12.8043V36.1131H12.2043V36.5131H12.9043V36.9131H11.7043V34.9131Z" fill="white"></path><path d="M14.4043 36.9131V36.5131H14.5043C14.6043 36.5131 14.7043 36.5131 14.7043 36.4131C14.9043 36.2131 15.0043 35.6131 15.1043 34.9131H16.3043V37.0131H15.8043V35.3131H15.5043C15.4043 36.0131 15.3043 36.5131 15.1043 36.8131C15.0043 36.9131 14.8043 37.0131 14.6043 37.0131C14.5043 37.0131 14.5043 37.0131 14.4043 36.9131Z" fill="white"></path><path d="M17.9043 35.9125C17.9043 35.3125 18.3043 34.8125 19.0043 34.8125C19.6043 34.8125 20.1043 35.2125 20.1043 35.9125C20.1043 36.5125 19.7043 37.0125 19.0043 37.0125C18.3043 37.0125 17.9043 36.5125 17.9043 35.9125ZM19.5043 35.9125C19.5043 35.5125 19.3043 35.2125 18.9043 35.2125C18.6043 35.2125 18.3043 35.4125 18.3043 35.9125C18.3043 36.3125 18.5043 36.6125 18.9043 36.6125C19.3043 36.6125 19.5043 36.4125 19.5043 35.9125Z" fill="white"></path><path d="M21.7043 34.9131H23.4043V36.9131H23.0043V35.3131H22.2043V36.9131H21.7043V34.9131Z" fill="white"></path><path d="M25.2043 34.9125H25.6043L26.1043 35.6125C26.2043 35.7125 26.2043 35.8125 26.3043 35.8125C26.3043 35.7125 26.4043 35.6125 26.4043 35.5125L26.9043 34.8125H27.3043V36.9125H26.8043V35.8125C26.8043 35.7125 26.8043 35.6125 26.8043 35.6125L26.7043 35.8125L26.4043 36.4125H26.2043L25.8043 35.9125C25.8043 35.8125 25.7043 35.8125 25.7043 35.7125C25.7043 35.8125 25.7043 35.8125 25.7043 35.9125V37.0125H25.2043V34.9125Z" fill="white"></path><path d="M29.1042 34.9131H30.3042L30.2042 35.3131H29.5042V35.7131H30.2042V36.1131H29.5042V36.5131H30.3042V36.9131H29.1042V34.9131Z" fill="white"></path><path d="M32.0044 34.9131H32.4044V35.7131H33.3044V34.9131H33.8044V36.9131H33.3044V36.1131H32.4044V36.9131H32.0044V34.9131Z" fill="white"></path><path d="M35.9042 35.3131H35.3042V34.9131H37.1042L36.9042 35.3131H36.4042V36.9131H35.9042V35.3131Z" fill="white"></path><path d="M1.9043 32.7131L4.2043 27.4131H5.6043L7.8043 32.7131H6.4043L5.9043 31.6131H3.7043L3.3043 32.7131H1.9043ZM4.2043 30.5131H5.5043L4.9043 29.0131L4.2043 30.5131Z" fill="white"></path><path d="M11.2043 31.3131V32.7131H9.70435V27.4131H11.2043V29.7131L14.3043 27.4131L15.4043 28.2131L13.8043 29.4131L15.4043 32.7131H13.9043L12.7043 30.2131L11.2043 31.3131Z" fill="white"></path><path d="M17.5044 27.4131H22.7044L22.9044 28.5131H20.8044V32.7131H19.4044V28.5131H17.7044L17.5044 27.4131Z" fill="white"></path><path d="M29.0044 27.4131V27.9131L26.5044 29.7131V27.4131H25.0044V32.7131H26.5044V31.3131L29.0044 29.5131V32.7131H30.4044V27.4131H29.0044Z" fill="white"></path><path d="M35.3043 32.7131H32.7043V27.4131H35.2043C35.8043 27.4131 36.4043 27.5131 36.8043 27.8131C37.2043 28.1131 37.4043 28.4131 37.4043 29.0131C37.4043 29.2131 37.4043 29.4131 37.3043 29.5131C37.2043 29.7131 37.1043 29.8131 36.9043 30.0131C37.1043 30.2131 37.3043 30.3131 37.4043 30.5131C37.5043 30.7131 37.6043 30.9131 37.6043 31.2131C37.6043 31.8131 37.4043 32.2131 37.0043 32.4131C36.5043 32.6131 36.0043 32.7131 35.3043 32.7131ZM35.1043 28.5131H34.1043V29.4131H35.1043C35.3043 29.4131 35.5043 29.4131 35.7043 29.3131C35.9043 29.2131 35.9043 29.1131 35.9043 29.0131C35.9043 28.8131 35.8043 28.7131 35.7043 28.6131C35.6043 28.5131 35.4043 28.5131 35.1043 28.5131ZM35.4043 30.5131H34.2043V31.6131H35.5043C35.7043 31.6131 35.9043 31.6131 36.0043 31.5131C36.1043 31.4131 36.2043 31.3131 36.2043 31.1131C36.2043 30.9131 36.1043 30.8131 36.0043 30.7131C35.9043 30.6131 35.6043 30.5131 35.4043 30.5131Z" fill="white"></path><path d="M17.6042 16.4131L18.1042 20.2131H23.5042L22.8042 18.3131L17.6042 16.4131Z" fill="white"></path><path d="M12.6042 16.9131L9.60425 24.1131H14.7042L15.7042 21.7131L12.7042 17.3131L12.6042 16.9131Z" fill="white"></path><path d="M30.6042 22.5127L27.1042 24.1127H31.3042L30.6042 22.5127Z" fill="white"></path><path d="M23.1042 4.5127H22.4042L20.3042 9.5127L23.6042 17.5127H23.7042L29.5042 19.9127L23.1042 4.5127Z" fill="white"></path><path d="M19.1042 9.51289L17.4042 5.71289L14.8042 11.8129L16.8042 14.6129L19.1042 9.51289Z" fill="white"></path><mask id="mask3_799_79" style="mask-type:luminance" maskUnits="userSpaceOnUse" x="12" y="10" width="6" height="13"><path d="M13.7042 16.9129L17.3042 22.2129L16.4042 15.8129L12.6042 10.7129L13.7042 16.9129Z" fill="white"></path></mask><g mask="url(#mask3_799_79)"><path d="M16.7042 9.11328L21.3042 20.6133L13.2042 23.8133L8.60425 12.3133L16.7042 9.11328Z" fill="url(#paint3_linear_799_79)"></path></g><defs><linearGradient id="paint0_linear_799_79" x1="23.7849" y1="19.4454" x2="29.3942" y2="22.2116" gradientUnits="userSpaceOnUse"><stop stop-color="#D1DDF1"></stop><stop offset="0.1737" stop-color="#D1DDF1"></stop><stop offset="0.4309" stop-color="#CEC5E2"></stop><stop offset="0.5255" stop-color="#CDBBDB"></stop><stop offset="0.5388" stop-color="#CDBDDB"></stop><stop offset="0.763" stop-color="#CBDBE0"></stop><stop offset="0.8757" stop-color="#CAE8E3"></stop><stop offset="1" stop-color="#CAE8E3"></stop></linearGradient><linearGradient id="paint1_linear_799_79" x1="23.5072" y1="1.95382" x2="16.3612" y2="8.48513" gradientUnits="userSpaceOnUse"><stop stop-color="#E5EDF8"></stop><stop offset="0.4028" stop-color="#B6D2E5"></stop><stop offset="0.4175" stop-color="#BCD6E7"></stop><stop offset="0.4742" stop-color="#CCE0EE"></stop><stop offset="0.5449" stop-color="#D8E8F4"></stop><stop offset="0.644" stop-color="#DFEDF9"></stop><stop offset="0.9192" stop-color="#E1EFFA"></stop><stop offset="1" stop-color="#E1EFFA"></stop></linearGradient><linearGradient id="paint2_linear_799_79" x1="20.0716" y1="11.4324" x2="20.0716" y2="16.5617" gradientUnits="userSpaceOnUse"><stop stop-color="#BF83AE"></stop><stop offset="0.0881799" stop-color="#BF86AE"></stop><stop offset="0.1976" stop-color="#C190AF"></stop><stop offset="0.3177" stop-color="#C4A1B1"></stop><stop offset="0.4082" stop-color="#C8B2B2"></stop><stop offset="1" stop-color="#C3C9DD"></stop></linearGradient><linearGradient id="paint3_linear_799_79" x1="12.9372" y1="11.4135" x2="16.8956" y2="21.3827" gradientUnits="userSpaceOnUse"><stop stop-color="#CBBBDC"></stop><stop offset="0.3457" stop-color="#CBBBDC"></stop><stop offset="0.391" stop-color="#CEC3E0"></stop><stop offset="0.5264" stop-color="#D6D6EA"></stop><stop offset="0.6686" stop-color="#DCE5F1"></stop><stop offset="0.8207" stop-color="#E0EEF6"></stop><stop offset="1" stop-color="#E1F3F8"></stop></linearGradient></defs></svg> 