<?xml version="1.0" encoding="UTF-8"?> <svg xmlns="http://www.w3.org/2000/svg" id="Layer_1" data-name="Layer 1" viewBox="0 0 97.7 96.36"><defs><style> .cls-1 { stroke-width: 0px; } .cls-1, .cls-2, .cls-3 { fill: #a386c2; } .cls-2 { stroke-width: 2px; } .cls-2, .cls-3 { stroke: #a386c2; stroke-miterlimit: 10; } </style></defs><path class="cls-2" d="m21.31,9.05C8.76,14.3,1.79,17.37,1.5,17.75c-.47.58-.5,1.9-.5,20.56,0,16.48.09,20.37.41,22.55,2.57,16.06,14.43,29.13,30.1,33.16,3.29.83,9.31,1.58,10.5,1.27,1.16-.28,1.83-1.13,1.83-2.32,0-1.83-.66-2.18-4.7-2.54-7.91-.66-14.07-3.1-20.03-7.82-6.39-5.09-10.97-12.6-12.77-20.92-.44-2.15-.5-4.01-.5-21.7v-19.34l17.69-7.38c9.72-4.06,17.88-7.38,18.1-7.38s8.38,3.32,18.1,7.38l17.69,7.38.13,7.46c.13,8.07.22,8.43,1.65,8.95.97.33,1.55.19,2.43-.61.61-.55.61-.58.61-9.34,0-7.94-.06-8.82-.47-9.34-.63-.77-38.47-16.64-40.02-16.77-.93-.08-3.97,1.14-20.44,8.05Z"></path><path class="cls-3" d="m64.01,38.16c-1.52.83-2.21,2.08-2.21,3.98,0,1.49-.06,1.64-.75,1.93-.44.16-1.58.66-2.54,1.08l-1.74.8-1.36-1.21c-2.46-2.21-4.06-1.99-7.35,1.08-2.4,2.21-3.13,3.38-3.13,4.97,0,1.24.33,1.9,1.61,3.23.91.97.97,1.08.61,1.8-.19.41-.63,1.52-.97,2.43l-.63,1.65-1.88.19c-3.13.31-4.28,1.65-4.48,5.22-.22,3.62.11,5.12,1.33,6.42.99,1.11,1.13,1.13,3.01,1.24,1.68.11,1.96.19,2.13.72.09.31.55,1.43,1.02,2.46l.83,1.88-.99,1.02c-1.58,1.64-2.02,3.65-1.19,5.25.47.88,4.45,4.84,5.34,5.28,1.49.75,3.57.13,5.39-1.58l.75-.69,1.61.69c.88.38,2.02.86,2.51,1.05.86.33.88.38.88,2.05,0,1.88.5,2.9,1.83,3.79.69.44,1.36.53,4.53.53,3.51,0,3.82-.06,4.72-.66,1.16-.8,1.55-1.64,1.86-3.84l.19-1.61,2.21-.94c1.21-.53,2.35-.97,2.51-.97.13,0,.63.38,1.11.86,1.46,1.55,3.42,2.08,4.9,1.33.88-.44,4.87-4.4,5.34-5.28s.5-2.79.09-3.62c-.16-.33-.75-1.05-1.27-1.61l-.97-1.02.83-1.88c.44-1.05.91-2.18.99-2.49.16-.53.44-.61,2.1-.72,3.51-.19,4.42-1.46,4.42-6.27,0-2.63-.09-3.38-.58-4.34-.69-1.49-2.27-2.32-4.31-2.32h-1.41l-.61-1.74c-.31-.94-.75-2.02-.94-2.4-.36-.63-.33-.75.66-1.83,1.36-1.49,1.83-2.9,1.41-4.42-.44-1.68-5-6.05-6.61-6.33-1.36-.22-3.13.47-4.28,1.71l-.77.83-2.46-.97-2.43-.99-.11-1.74c-.11-1.86-.58-2.76-1.99-3.79-.66-.5-1.24-.58-4.26-.66-3.05-.09-3.67,0-4.5.45Zm6.08,6.34c0,1.93.09,2.24.66,2.79.36.33,1.24.77,1.99.97,1.8.5,3.84,1.33,5.36,2.21,1.9,1.11,2.79.97,4.48-.66.77-.77,1.49-1.39,1.58-1.39s.66.53,1.33,1.16l1.19,1.16-1.52,1.58c-1.02,1.05-1.52,1.83-1.52,2.3,0,.36.55,1.77,1.21,3.13.69,1.33,1.39,3.04,1.58,3.82.69,2.9,1.43,3.45,4.62,3.45h1.43v3.32h-1.43c-3.17,0-3.92.55-4.62,3.45-.19.75-.88,2.49-1.58,3.82-.66,1.36-1.21,2.76-1.21,3.13,0,.47.5,1.24,1.52,2.3l1.52,1.58-1.24,1.21-1.21,1.19-1.55-1.41c-1.96-1.8-2.65-1.86-5.44-.36-1.11.61-2.9,1.36-3.95,1.65-2.93.86-3.01.97-3.17,3.67l-.13,2.3-1.68.09-1.71.09-.09-2.21c-.13-2.73-.41-3.07-3.29-3.9-1.13-.33-2.95-1.08-4.06-1.68-2.73-1.49-3.48-1.43-5.19.31-.75.75-1.49,1.39-1.64,1.39-.36,0-2.38-1.96-2.38-2.32,0-.16.63-.94,1.43-1.74,1.71-1.74,1.77-2.35.41-4.84-.53-.97-1.24-2.63-1.58-3.67-.33-1.08-.72-2.21-.86-2.57-.33-.88-1.86-1.43-3.84-1.43h-1.65v-3.3h1.46c1.68,0,3.32-.41,3.76-.94.19-.22.58-1.3.88-2.4.31-1.13,1.02-2.93,1.64-3.98,1.61-2.95,1.58-3.45-.28-5.47l-1.36-1.49,1.21-1.19,1.21-1.21,1.5,1.39c1.88,1.8,2.51,1.83,5.22.36,1.11-.61,2.93-1.36,4.06-1.68,2.88-.83,3.15-1.16,3.26-3.87l.11-2.21h3.55v2.1h0Z"></path><path class="cls-1" d="m64.7,54.59c-3.01.99-5.22,2.63-6.8,4.97-2.71,4.09-2.88,9.37-.44,13.51.86,1.49,3.32,3.84,4.78,4.59,3.6,1.83,7.76,1.9,11.3.22,9.51-4.5,9.51-17.97,0-22.55-1.77-.86-2.18-.94-4.84-1.02-1.84-.04-3.28.06-4,.28Zm6.16,4.68c1.52.47,3.51,2.27,4.34,3.92,2.6,5.31-1.65,11.61-7.54,11.17-5.16-.38-8.54-5.61-6.71-10.45,1.48-3.95,5.69-5.94,9.91-4.64Z"></path></svg> 