<?xml version="1.0" encoding="UTF-8"?> <svg xmlns="http://www.w3.org/2000/svg" width="300" height="301" viewBox="0 0 300 301" fill="none"><path d="M27.3 272.413C24.8 272.413 22.8 270.413 22.8 267.913V173.413H18.1C15.6 173.413 13.6 171.413 13.6 168.913V150.913C13.6 149.413 14.3 148.113 15.6 147.313C15.8 147.113 15.9 147.013 16.1 146.913L145.5 75.0133V32.1133C145.5 30.3133 146.6 28.6133 148.2 28.0133C148.8 27.7133 149.4 27.6133 150 27.6133C151.1 27.6133 152.1 28.0133 153 28.8133L284.9 147.613C285.9 148.613 286.4 149.813 286.4 150.913V168.913C286.4 171.413 284.4 173.413 281.9 173.413H277.2V267.913C277.2 270.413 275.2 272.413 272.7 272.413H27.3ZM268.2 263.413V173.413H154.5V263.413H159.2V206.413C159.2 203.913 161.2 201.913 163.7 201.913H203.1C205.6 201.913 207.6 203.913 207.6 206.413V263.413H268.2ZM198.6 263.413V210.913H168.2V263.413H198.6ZM145.5 263.413V173.413H31.8V263.413H92.4V206.413C92.4 203.913 94.4 201.913 96.9 201.913H136.3C138.8 201.913 140.8 203.913 140.8 206.413V263.413H145.5ZM131.8 263.413V210.913H101.4V263.413H131.8ZM277.4 164.413V155.413H22.6V164.413H277.4ZM270.2 146.413L154.5 42.3133V146.413H270.2ZM145.5 146.413V85.3133L35.5 146.413H145.5ZM46.8 257.313C44.3 257.313 42.3 255.313 42.3 252.813V206.413C42.3 203.913 44.3 201.913 46.8 201.913H84C86.5 201.913 88.5 203.913 88.5 206.413V252.813C88.5 255.313 86.5 257.313 84 257.313H46.8ZM79.5 248.313V210.913H51.3V248.313H79.5ZM126.8 244.313C124.4 244.313 122.5 242.413 122.5 240.013C122.5 237.713 124.4 235.713 126.7 235.713C126.8 235.713 126.8 235.713 126.9 235.713C129.2 235.713 131 237.613 131 240.013C131.1 242.413 129.2 244.313 126.8 244.313ZM173.2 244.213C170.9 244.213 168.9 242.213 168.9 239.913C168.9 237.513 170.8 235.613 173.2 235.613C175.6 235.613 177.5 237.513 177.5 239.913C177.5 242.213 175.5 244.213 173.2 244.213ZM63.9 239.013C62.8 239.013 61.6 238.513 60.7 237.713C59.8 236.813 59.3 235.613 59.4 234.413C59.4 233.813 59.5 233.313 59.7 232.813C59.2 233.013 58.6 233.113 58.1 233.113C56.8 233.113 55.7 232.613 54.9 231.713C54.1 230.913 53.6 229.813 53.6 228.713C53.6 227.513 54.1 226.313 54.9 225.413L58.9 221.413C59.7 220.613 60.8 220.113 62 220.113C63.2 220.113 64.3 220.613 65.2 221.413C66.1 222.213 66.6 223.313 66.6 224.513C66.6 224.913 66.6 225.313 66.5 225.613L69.7 222.413C70.5 221.613 71.6 221.113 72.8 221.113C74 221.113 75.1 221.613 76 222.413C76.9 223.213 77.4 224.313 77.4 225.513C77.4 226.713 76.9 227.913 76.1 228.813L67.2 237.713C66.2 238.513 65.1 239.013 63.9 239.013ZM216 231.713C213.5 231.713 211.5 229.713 211.5 227.213V206.313C211.5 203.813 213.5 201.813 216 201.813H261.8C264.3 201.813 266.3 203.813 266.3 206.313V227.213C266.3 229.713 264.3 231.713 261.8 231.713H216ZM257.3 222.713V210.813H220.5V222.713H257.3Z" fill="url(#paint0_linear_815_46)"></path><path d="M129.6 240.013C129.6 241.613 128.3 242.813 126.8 242.813C125.2 242.813 124 241.513 124 240.013C124 238.513 125.3 237.213 126.8 237.213C128.3 237.113 129.6 238.413 129.6 240.013ZM173.2 237.113C171.6 237.113 170.4 238.413 170.4 239.913C170.4 241.413 171.7 242.713 173.2 242.713C174.7 242.713 176 241.413 176 239.913C176 238.413 174.8 237.113 173.2 237.113ZM284.9 150.913V168.913C284.9 170.613 283.6 171.913 281.9 171.913H275.7V267.913C275.7 269.613 274.4 270.913 272.7 270.913H27.3C25.6 270.913 24.3 269.613 24.3 267.913V171.913H18.1C16.4 171.913 15.1 170.613 15.1 168.913V150.913C15.1 149.813 15.7 148.913 16.6 148.413C16.6 148.413 16.6 148.313 16.7 148.313L147 75.9132V32.1132C147 30.9132 147.7 29.8132 148.8 29.4132C149.9 28.9132 151.1 29.1132 152 29.9132L283.9 148.713C284.5 149.313 284.9 150.113 284.9 150.913ZM153 77.7132V147.913H274.1L153 38.9132V77.7132ZM147 82.8132L29.7 147.913H147V82.8132ZM30.3 264.913H93.9V206.413C93.9 204.713 95.2 203.413 96.9 203.413H136.3C138 203.413 139.3 204.713 139.3 206.413V264.913H147V171.913H30.3V264.913ZM133.3 264.913V209.413H99.9V264.913H133.3ZM200.1 264.913V209.413H166.7V264.913H200.1ZM269.7 171.913H153V264.913H160.7V206.413C160.7 204.713 162 203.413 163.7 203.413H203.1C204.8 203.413 206.1 204.713 206.1 206.413V264.913H269.7V171.913ZM278.9 165.913V153.913H21.1V165.913H278.9ZM87 206.413V252.813C87 254.513 85.7 255.813 84 255.813H46.8C45.1 255.813 43.8 254.513 43.8 252.813V206.413C43.8 204.713 45.1 203.413 46.8 203.413H84C85.7 203.413 87 204.713 87 206.413ZM81 209.413H49.8V249.813H81V209.413ZM213 227.213V206.313C213 204.613 214.3 203.313 216 203.313H261.8C263.5 203.313 264.8 204.613 264.8 206.313V227.213C264.8 228.913 263.5 230.213 261.8 230.213H216C214.3 230.213 213 228.913 213 227.213ZM219 224.213H258.8V209.313H219V224.213ZM61.8 236.613C62.4 237.213 63.2 237.513 63.9 237.513C64.7 237.513 65.4 237.213 66 236.613L74.9 227.713C76.1 226.513 76.1 224.613 74.9 223.513C73.7 222.413 71.8 222.313 70.7 223.513L61.8 232.413C60.6 233.513 60.6 235.413 61.8 236.613ZM58.1 231.613C58.9 231.613 59.6 231.313 60.2 230.713L64.2 226.713C65.4 225.513 65.4 223.613 64.2 222.513C63 221.413 61.1 221.313 60 222.513L56 226.513C54.8 227.713 54.8 229.613 56 230.713C56.5 231.313 57.3 231.613 58.1 231.613Z" fill="url(#paint1_linear_815_46)"></path><defs><linearGradient id="paint0_linear_815_46" x1="53.9296" y1="300.936" x2="246.084" y2="108.779" gradientUnits="userSpaceOnUse"><stop offset="0.02" stop-color="#9C4399"></stop><stop offset="1" stop-color="#93C1CC"></stop></linearGradient><linearGradient id="paint1_linear_815_46" x1="54.9898" y1="299.878" x2="245.025" y2="109.839" gradientUnits="userSpaceOnUse"><stop offset="0.02" stop-color="#9C4399"></stop><stop offset="1" stop-color="#93C1CC"></stop></linearGradient></defs></svg> 