<?xml version="1.0" encoding="UTF-8"?> <svg xmlns="http://www.w3.org/2000/svg" xmlns:xlink="http://www.w3.org/1999/xlink" version="1.1" id="Layer_1" x="0px" y="0px" viewBox="0 0 100 100" style="enable-background:new 0 0 100 100;" xml:space="preserve"> <style type="text/css"> .st0{fill-rule:evenodd;clip-rule:evenodd;fill:#B8B8B8;stroke:#B8B8B8;stroke-width:2;stroke-miterlimit:10;} </style> <g> <path class="st0" d="M89.9,48.6c-0.2-0.6-0.8-1-1.4-1H60.1c-0.6,0-1.2,0.4-1.4,1L57.5,52V27h3.1c0.8,0,1.5-0.7,1.5-1.5v-8 c0-0.8-0.7-1.5-1.5-1.5h-4.4v-5.6c0-0.8-0.7-1.5-1.5-1.5H13.3c-0.8,0-1.5,0.7-1.5,1.5v5.6H7.4c-0.8,0-1.5,0.7-1.5,1.5v8 c0,0.8,0.7,1.5,1.5,1.5h2.8v62.7c0,0.8,0.7,1.5,1.5,1.5h80.8c0.8,0,1.5-0.7,1.5-1.5V61.5C94.2,61,89.9,48.6,89.9,48.6z M90.7,60.5 c-1.3,0.8-2.8,1.2-4.3,1.2c-1.6,0-3.1-0.5-4.5-1.3v-9.7h5.5L90.7,60.5z M69.7,50.6h9.2v9.7c-1.4,0.9-2.9,1.3-4.5,1.3 c-1.7,0-3.3-0.5-4.7-1.4V50.6z M61.1,50.6h5.5v9.6c-1.4,0.9-3,1.4-4.7,1.4c-1.5,0-2.9-0.4-4.2-1.1L61.1,50.6z M14.8,11.8h38.4v4.1 H14.8V11.8z M8.9,18.9h50.2v5H8.9C8.9,24,8.9,18.9,8.9,18.9z M13.2,27h41.3v61.2H13.2C13.2,88.2,13.2,27,13.2,27z M57.5,88.2V63.8 c1.4,0.6,2.9,0.9,4.5,0.9c2.2,0,4.3-0.6,6.2-1.8c1.8,1.2,4,1.8,6.2,1.8c2.1,0,4.2-0.6,6-1.7c1.8,1.1,3.9,1.7,6,1.7 c1.6,0,3.2-0.3,4.7-1v24.5H57.5z"></path> <path class="st0" d="M40.6,34.7H27.4c-0.8,0-1.5,0.7-1.5,1.5v31.9c0,0.8,0.7,1.5,1.5,1.5h13.2c0.8,0,1.5-0.7,1.5-1.5V36.2 C42.1,35.4,41.4,34.7,40.6,34.7z M39.1,66.6H28.9V37.7h10.2V66.6z"></path> </g> </svg> 