<?xml version="1.0" encoding="UTF-8"?> <svg xmlns="http://www.w3.org/2000/svg" xmlns:xlink="http://www.w3.org/1999/xlink" xmlns:svgjs="http://svgjs.dev/svgjs" id="line_copy" viewBox="0 0 64 64" data-name="line copy" width="300" height="300" version="1.1"><g width="100%" height="100%" transform="matrix(1,0,0,1,0,0)"><linearGradient id="linear-gradient" gradientUnits="userSpaceOnUse" x1="4" x2="60" y1="32" y2="32"><stop stop-opacity="1" stop-color="#9c4399" offset="0.02"></stop><stop stop-opacity="1" stop-color="#93c1cc" offset="1"></stop></linearGradient><path d="m59 58h-1v-33h1a1 1 0 0 0 0-2h-13.7168l-12.2832-7.55859v-3.44141h7a1 1 0 0 0 1-1v-6a1 1 0 0 0 -1-1h-8a1 1 0 0 0 -1 1v10.44141l-12.2832 7.55859h-13.7168a1 1 0 0 0 0 2h1v33h-1a1 1 0 0 0 0 2h54a1 1 0 0 0 0-2zm-26-52h6v4h-6zm4 52h-10v-14.18506h10zm5 0h-3v-15.18506a1.00005 1.00005 0 0 0 -1-1h-12a1.00005 1.00005 0 0 0 -1 1v15.18506h-3v-25h20zm14 0h-12v-26a1 1 0 0 0 -1-1h-22a1 1 0 0 0 -1 1v26h-12v-33h11a.99688.99688 0 0 0 .52393-.14844l12.47607-7.67724 12.47607 7.67724a.99688.99688 0 0 0 .52393.14844h11zm-29-20a1 1 0 0 1 1-1h8a1 1 0 0 1 0 2h-8a1 1 0 0 1 -1-1zm21 3h4a1 1 0 0 0 1-1v-4a1 1 0 0 0 -1-1h-4a1 1 0 0 0 -1 1v4a1 1 0 0 0 1 1zm1-4h2v2h-2zm-1 16h4a1 1 0 0 0 1-1v-4a1 1 0 0 0 -1-1h-4a1 1 0 0 0 -1 1v4a1 1 0 0 0 1 1zm1-4h2v2h-2zm-33-14h-4a1 1 0 0 0 -1 1v4a1 1 0 0 0 1 1h4a1 1 0 0 0 1-1v-4a1 1 0 0 0 -1-1zm-1 4h-2v-2h2zm1 8h-4a1 1 0 0 0 -1 1v4a1 1 0 0 0 1 1h4a1 1 0 0 0 1-1v-4a1 1 0 0 0 -1-1zm-1 4h-2v-2h2z" fill="url(#linear-gradient)" data-original-color="linear-gradient" stroke="none" stroke-opacity="1"></path></g></svg> 