<?xml version="1.0" encoding="UTF-8"?> <svg xmlns="http://www.w3.org/2000/svg" xmlns:xlink="http://www.w3.org/1999/xlink" xmlns:svgjs="http://svgjs.dev/svgjs" version="1.1" id="Layer_1" x="0px" y="0px" viewBox="0 0 512 512" style="enable-background:new 0 0 512 512;" xml:space="preserve" width="300" height="300"><g width="100%" height="100%" transform="matrix(1,0,0,1,0,0)"><style type="text/css"> .st0{fill:url(#power_00000181078841624552481400000005167747520187845534_);} </style><linearGradient id="power_00000016775550826808352100000017150392576942292112_" gradientUnits="userSpaceOnUse" x1="256" y1="46.9982" x2="256" y2="465.0018"><stop stop-opacity="1" stop-color="#9c4399" offset="0.02"></stop><stop stop-opacity="1" stop-color="#93c1cc" offset="1"></stop></linearGradient><path id="power_00000042730930372955950820000016433548399009713032_" style="" d=" M390.5,395.5C271.2,511.7,67.7,428.9,62.4,263c21.3-3.4,37.6-21.9,37.6-44.1v-31.3c7.9-3,5.8-14.6-2.7-14.7c-3,0-10,0-13.1,0v-36.4 c0-4.2-3.4-7.6-7.6-7.6s-7.6,3.4-7.6,7.6v36.4H40.2v-36.4c0-4.2-3.4-7.6-7.6-7.6s-7.6,3.4-7.6,7.6v36.4c-3.1,0-10.1,0-13.1,0 c-8.5,0.1-10.5,11.7-2.7,14.7V219c0,22.4,16.5,40.9,37.9,44.1c5.4,179.3,225.2,268.9,354,143.4C408.1,399.2,398.1,388.8,390.5,395.5 z M24.4,219v-30.8c11.3,0,48.9,0,60.3,0V219C83.3,258.2,25.8,258.2,24.4,219z M269.4,85.7c-3.5-1.4-7.4,0-9.3,3.2L144.5,280.7 c-1.5,2.4-1.5,5.5,0.1,7.9c1.5,2.4,4.3,3.8,7.1,3.6l115.4-9.4L237,417.5c-1.8,8.3,9.3,13,14,5.6l116.5-190.4 c3.3-5.1-1-12.2-7.1-11.6l-115.5,9.4l29.3-136.2C274.9,90.8,272.9,87.1,269.4,85.7z M227.7,237.4c-1.2,4.9,3.1,9.7,8.1,9.2l110.7-9 L261.8,376l22.3-99.9c1.2-4.8-3.1-9.8-8.1-9.3l-110.9,9L249.5,136L227.7,237.4z M502.8,324.5v-31.4c0-22.4-16.5-40.9-38-44.2 C459.5,69.7,239.7-20,110.9,105.5c-3,2.9-3.1,7.8-0.2,10.8s7.8,3.1,10.8,0.2C240.8,0.3,444.4,83.1,449.6,249 c-21.2,3.5-37.5,21.9-37.5,44.1v31.4c-7.9,3-5.8,14.6,2.7,14.7c3,0,10,0,13.1,0v36.4c0,4.2,3.4,7.6,7.6,7.6s7.6-3.4,7.6-7.6v-36.4 h28.8v36.4c0,4.2,3.4,7.6,7.6,7.6s7.6-3.4,7.6-7.6v-36.4c3.1,0,10.1,0,13.1,0C508.7,339.1,510.7,327.5,502.8,324.5z M479.5,323.9 c-5.8,0-47.6,0-52.2,0v-30.8c0-16.8,14.1-30.2,30.8-29.5c16.2,0,29.5,13.2,29.5,29.5v30.8H479.5z" fill="url(#power_00000016775550826808352100000017150392576942292112_)" data-original-color="power_00000016775550826808352100000017150392576942292112_" stroke="none" stroke-opacity="1"></path></g></svg> 