<?xml version="1.0" encoding="UTF-8"?> <svg xmlns="http://www.w3.org/2000/svg" width="736" height="101" viewBox="0 0 736 101" fill="none"><rect x="2.25391" y="1.91602" width="732.018" height="97" rx="48.5" fill="#FFFBEF" stroke="#DBB391" stroke-width="3"></rect><circle cx="50.7534" cy="50.416" r="36.5" fill="#9777A2" stroke="black"></circle><path d="M65.7534 67.4593C67.6099 67.4593 69.3904 66.7324 70.7032 65.4386C72.0159 64.1448 72.7534 62.39 72.7534 60.5602C72.7534 58.7305 72.0159 56.9757 70.7032 55.6819C69.3904 54.3881 67.6099 53.6612 65.7534 53.6612C63.8969 53.6612 62.1164 54.3881 60.8037 55.6819C59.4909 56.9757 58.7534 58.7305 58.7534 60.5602C58.7534 62.39 59.4909 64.1448 60.8037 65.4386C62.1164 66.7324 63.8969 67.4593 65.7534 67.4593ZM65.7534 50.7045C68.4056 50.7045 70.9491 51.7429 72.8245 53.5912C74.6998 55.4395 75.7534 57.9463 75.7534 60.5602C75.7534 63.1742 74.6998 65.681 72.8245 67.5293C70.9491 69.3776 68.4056 70.416 65.7534 70.416C63.1013 70.416 60.5577 69.3776 58.6824 67.5293C56.807 65.681 55.7534 63.1742 55.7534 60.5602C55.7534 57.9463 56.807 55.4395 58.6824 53.5912C60.5577 51.7429 63.1013 50.7045 65.7534 50.7045ZM46.1534 46.7622H37.7534V43.2141H44.1534L48.0334 36.7684C48.6134 35.7828 49.7534 35.1324 50.9534 35.1324C51.8934 35.1324 52.7534 35.5069 53.3534 36.1179L60.7534 43.3915C61.3734 44.0026 61.7534 44.791 61.7534 45.7766C61.7534 47.0184 61.0934 48.0631 60.0534 48.6742L53.3534 52.6756V62.5314H49.7534V49.7189L54.2534 46.4665L49.6134 41.8343M37.7534 67.4593C39.6099 67.4593 41.3904 66.7324 42.7032 65.4386C44.0159 64.1448 44.7534 62.39 44.7534 60.5602C44.7534 58.7305 44.0159 56.9757 42.7032 55.6819C41.3904 54.3881 39.6099 53.6612 37.7534 53.6612C35.8969 53.6612 34.1164 54.3881 32.8037 55.6819C31.4909 56.9757 30.7534 58.7305 30.7534 60.5602C30.7534 62.39 31.4909 64.1448 32.8037 65.4386C34.1164 66.7324 35.8969 67.4593 37.7534 67.4593ZM37.7534 50.7045C40.4056 50.7045 42.9491 51.7429 44.8245 53.5912C46.6998 55.4395 47.7534 57.9463 47.7534 60.5602C47.7534 63.1742 46.6998 65.681 44.8245 67.5293C42.9491 69.3776 40.4056 70.416 37.7534 70.416C36.4402 70.416 35.1398 70.1611 33.9266 69.6658C32.7133 69.1705 31.6109 68.4445 30.6824 67.5293C29.7538 66.6141 29.0172 65.5276 28.5146 64.3319C28.0121 63.1361 27.7534 61.8545 27.7534 60.5602C27.7534 59.266 28.0121 57.9844 28.5146 56.7886C29.0172 55.5929 29.7538 54.5064 30.6824 53.5912C31.6109 52.676 32.7133 51.95 33.9266 51.4547C35.1398 50.9594 36.4402 50.7045 37.7534 50.7045ZM43.7534 36.5122C41.7534 36.5122 40.1534 34.9352 40.1534 32.9641C40.1534 30.9929 41.7534 29.416 43.7534 29.416C45.7534 29.416 47.3534 30.9929 47.3534 32.9641C47.3534 34.9352 45.7534 36.5122 43.7534 36.5122Z" stroke="white"></path><path d="M111.081 42.098C110.735 42.098 110.466 42.0027 110.275 41.812C110.102 41.604 110.015 41.3267 110.015 40.98V24.756C110.015 24.3747 110.111 24.0887 110.301 23.898C110.509 23.69 110.804 23.586 111.185 23.586H123.977C124.341 23.586 124.627 23.69 124.835 23.898C125.043 24.0887 125.147 24.3747 125.147 24.756V40.98C125.147 41.3267 125.052 41.604 124.861 41.812C124.671 42.0027 124.411 42.098 124.081 42.098C123.735 42.098 123.466 42.0027 123.275 41.812C123.085 41.604 122.989 41.3267 122.989 40.98V25.432H112.147V40.98C112.147 41.3267 112.061 41.604 111.887 41.812C111.714 42.0027 111.445 42.098 111.081 42.098ZM133.984 42.098C133.742 42.098 133.525 42.0373 133.334 41.916C133.161 41.7773 133.057 41.5953 133.022 41.37C132.988 41.1447 133.048 40.8933 133.204 40.616L135.596 35.962V36.794L128.16 24.886C128.004 24.626 127.935 24.3833 127.952 24.158C127.987 23.9327 128.091 23.7507 128.264 23.612C128.438 23.4733 128.654 23.404 128.914 23.404C129.192 23.404 129.408 23.4733 129.564 23.612C129.72 23.7333 129.868 23.9153 130.006 24.158L136.636 34.818H136.194L141.654 24.184C141.776 23.9413 141.914 23.7507 142.07 23.612C142.226 23.4733 142.443 23.404 142.72 23.404C142.98 23.404 143.197 23.4733 143.37 23.612C143.544 23.7333 143.648 23.9067 143.682 24.132C143.734 24.34 143.682 24.5913 143.526 24.886L135.076 41.318C134.972 41.5433 134.834 41.734 134.66 41.89C134.504 42.0287 134.279 42.098 133.984 42.098ZM147.441 42.098C147.094 42.098 146.825 42.0027 146.635 41.812C146.461 41.604 146.375 41.3267 146.375 40.98V24.522C146.375 24.158 146.461 23.8807 146.635 23.69C146.825 23.4993 147.094 23.404 147.441 23.404C147.787 23.404 148.047 23.4993 148.221 23.69C148.411 23.8807 148.507 24.158 148.507 24.522V31.698H159.505V24.522C159.505 24.158 159.591 23.8807 159.765 23.69C159.955 23.4993 160.224 23.404 160.571 23.404C160.917 23.404 161.177 23.4993 161.351 23.69C161.541 23.8807 161.637 24.158 161.637 24.522V40.98C161.637 41.3267 161.541 41.604 161.351 41.812C161.177 42.0027 160.917 42.098 160.571 42.098C160.224 42.098 159.955 42.0027 159.765 41.812C159.591 41.604 159.505 41.3267 159.505 40.98V33.544H148.507V40.98C148.507 41.3267 148.42 41.604 148.247 41.812C148.073 42.0027 147.805 42.098 147.441 42.098ZM167.22 42.098C166.873 42.098 166.605 42.0027 166.414 41.812C166.241 41.604 166.154 41.3267 166.154 40.98V24.496C166.154 24.132 166.241 23.8633 166.414 23.69C166.605 23.4993 166.873 23.404 167.22 23.404C167.567 23.404 167.827 23.4993 168 23.69C168.191 23.8633 168.286 24.132 168.286 24.496V31.75H171.874L171.25 32.166L176.658 23.976C176.814 23.7333 176.996 23.5773 177.204 23.508C177.412 23.4213 177.62 23.404 177.828 23.456C178.036 23.4907 178.209 23.586 178.348 23.742C178.487 23.8807 178.565 24.0627 178.582 24.288C178.617 24.496 178.556 24.7213 178.4 24.964L173.33 32.53L172.524 31.828C173.581 31.9493 174.483 32.322 175.228 32.946C175.973 33.57 176.623 34.4367 177.178 35.546L179.648 40.59C179.787 40.8673 179.83 41.1187 179.778 41.344C179.726 41.552 179.613 41.7167 179.44 41.838C179.267 41.9593 179.067 42.0287 178.842 42.046C178.634 42.0807 178.426 42.046 178.218 41.942C178.01 41.838 177.845 41.656 177.724 41.396L175.41 36.534C174.89 35.4767 174.301 34.7227 173.642 34.272C173.001 33.8213 172.203 33.596 171.25 33.596H168.286V40.98C168.286 41.3267 168.199 41.604 168.026 41.812C167.853 42.0027 167.584 42.098 167.22 42.098ZM188.374 42.098C188.045 42.098 187.785 42.0027 187.594 41.812C187.404 41.604 187.308 41.3267 187.308 40.98V25.432H181.458C181.146 25.432 180.904 25.3453 180.73 25.172C180.557 24.9987 180.47 24.7733 180.47 24.496C180.47 24.2013 180.557 23.976 180.73 23.82C180.904 23.664 181.146 23.586 181.458 23.586H195.316C195.628 23.586 195.871 23.664 196.044 23.82C196.218 23.976 196.304 24.2013 196.304 24.496C196.304 24.7907 196.218 25.0247 196.044 25.198C195.871 25.354 195.628 25.432 195.316 25.432H189.466V40.98C189.466 41.3267 189.371 41.604 189.18 41.812C189.007 42.0027 188.738 42.098 188.374 42.098ZM206.22 42.098C205.873 42.098 205.605 42.0027 205.414 41.812C205.241 41.604 205.154 41.3267 205.154 40.98V24.756C205.154 24.3747 205.249 24.0887 205.44 23.898C205.648 23.69 205.943 23.586 206.324 23.586H219.116C219.48 23.586 219.766 23.69 219.974 23.898C220.182 24.0887 220.286 24.3747 220.286 24.756V40.98C220.286 41.3267 220.191 41.604 220 41.812C219.809 42.0027 219.549 42.098 219.22 42.098C218.873 42.098 218.605 42.0027 218.414 41.812C218.223 41.604 218.128 41.3267 218.128 40.98V25.432H207.286V40.98C207.286 41.3267 207.199 41.604 207.026 41.812C206.853 42.0027 206.584 42.098 206.22 42.098ZM225.847 42.098C225.5 42.098 225.232 42.0027 225.041 41.812C224.868 41.604 224.781 41.3267 224.781 40.98V24.678C224.781 24.314 224.876 24.0453 225.067 23.872C225.258 23.6813 225.526 23.586 225.873 23.586H232.035C233.994 23.586 235.502 24.0713 236.559 25.042C237.616 25.9953 238.145 27.3473 238.145 29.098C238.145 30.8313 237.616 32.1833 236.559 33.154C235.502 34.1247 233.994 34.61 232.035 34.61H226.913V40.98C226.913 41.3267 226.826 41.604 226.653 41.812C226.48 42.0027 226.211 42.098 225.847 42.098ZM226.913 32.816H231.775C233.179 32.816 234.236 32.504 234.947 31.88C235.675 31.2387 236.039 30.3113 236.039 29.098C236.039 27.8673 235.675 26.94 234.947 26.316C234.236 25.6747 233.179 25.354 231.775 25.354H226.913V32.816ZM248.676 42.15C246.978 42.15 245.496 41.7687 244.23 41.006C242.982 40.226 242.012 39.134 241.318 37.73C240.642 36.326 240.304 34.662 240.304 32.738C240.304 31.282 240.495 29.982 240.876 28.838C241.275 27.6767 241.838 26.6973 242.566 25.9C243.294 25.0853 244.17 24.4613 245.192 24.028C246.232 23.5773 247.394 23.352 248.676 23.352C250.41 23.352 251.9 23.7333 253.148 24.496C254.414 25.2587 255.384 26.342 256.06 27.746C256.754 29.1327 257.1 30.788 257.1 32.712C257.1 34.168 256.901 35.4767 256.502 36.638C256.104 37.7993 255.54 38.7873 254.812 39.602C254.084 40.4167 253.2 41.0493 252.16 41.5C251.138 41.9333 249.976 42.15 248.676 42.15ZM248.676 40.252C249.994 40.252 251.103 39.9573 252.004 39.368C252.923 38.7787 253.625 37.9207 254.11 36.794C254.596 35.6673 254.838 34.3153 254.838 32.738C254.838 30.3633 254.301 28.526 253.226 27.226C252.169 25.9087 250.652 25.25 248.676 25.25C247.394 25.25 246.293 25.5447 245.374 26.134C244.473 26.7233 243.78 27.5813 243.294 28.708C242.809 29.8173 242.566 31.1607 242.566 32.738C242.566 35.0953 243.104 36.9413 244.178 38.276C245.253 39.5933 246.752 40.252 248.676 40.252ZM261.978 42.098C261.631 42.098 261.363 42.0027 261.172 41.812C260.999 41.604 260.912 41.3267 260.912 40.98V24.496C260.912 24.132 260.999 23.8633 261.172 23.69C261.363 23.4993 261.631 23.404 261.978 23.404C262.325 23.404 262.585 23.4993 262.758 23.69C262.949 23.8633 263.044 24.132 263.044 24.496V31.75H266.632L266.008 32.166L271.416 23.976C271.572 23.7333 271.754 23.5773 271.962 23.508C272.17 23.4213 272.378 23.404 272.586 23.456C272.794 23.4907 272.967 23.586 273.106 23.742C273.245 23.8807 273.323 24.0627 273.34 24.288C273.375 24.496 273.314 24.7213 273.158 24.964L268.088 32.53L267.282 31.828C268.339 31.9493 269.241 32.322 269.986 32.946C270.731 33.57 271.381 34.4367 271.936 35.546L274.406 40.59C274.545 40.8673 274.588 41.1187 274.536 41.344C274.484 41.552 274.371 41.7167 274.198 41.838C274.025 41.9593 273.825 42.0287 273.6 42.046C273.392 42.0807 273.184 42.046 272.976 41.942C272.768 41.838 272.603 41.656 272.482 41.396L270.168 36.534C269.648 35.4767 269.059 34.7227 268.4 34.272C267.759 33.8213 266.961 33.596 266.008 33.596H263.044V40.98C263.044 41.3267 262.957 41.604 262.784 41.812C262.611 42.0027 262.342 42.098 261.978 42.098ZM276.721 42.098C276.444 42.098 276.218 42.0373 276.045 41.916C275.889 41.7773 275.794 41.604 275.759 41.396C275.742 41.1707 275.794 40.9193 275.915 40.642L283.065 24.366C283.221 24.0193 283.403 23.7767 283.611 23.638C283.836 23.482 284.079 23.404 284.339 23.404C284.599 23.404 284.833 23.482 285.041 23.638C285.266 23.7767 285.448 24.0193 285.587 24.366L292.763 40.642C292.902 40.9193 292.954 41.1707 292.919 41.396C292.902 41.6213 292.815 41.7947 292.659 41.916C292.503 42.0373 292.286 42.098 292.009 42.098C291.697 42.098 291.446 42.02 291.255 41.864C291.064 41.6907 290.908 41.448 290.787 41.136L288.863 36.69L289.903 37.236H278.723L279.789 36.69L277.891 41.136C277.735 41.4653 277.57 41.708 277.397 41.864C277.224 42.02 276.998 42.098 276.721 42.098ZM284.313 26.082L280.127 35.936L279.503 35.442H289.123L288.551 35.936L284.365 26.082H284.313ZM299.484 42.098C299.154 42.098 298.894 42.0027 298.704 41.812C298.513 41.604 298.418 41.3267 298.418 40.98V25.432H292.568C292.256 25.432 292.013 25.3453 291.84 25.172C291.666 24.9987 291.58 24.7733 291.58 24.496C291.58 24.2013 291.666 23.976 291.84 23.82C292.013 23.664 292.256 23.586 292.568 23.586H306.426C306.738 23.586 306.98 23.664 307.154 23.82C307.327 23.976 307.414 24.2013 307.414 24.496C307.414 24.7907 307.327 25.0247 307.154 25.198C306.98 25.354 306.738 25.432 306.426 25.432H300.576V40.98C300.576 41.3267 300.48 41.604 300.29 41.812C300.116 42.0027 299.848 42.098 299.484 42.098ZM307.038 42.098C306.76 42.098 306.535 42.0373 306.362 41.916C306.206 41.7773 306.11 41.604 306.076 41.396C306.058 41.1707 306.11 40.9193 306.232 40.642L313.382 24.366C313.538 24.0193 313.72 23.7767 313.928 23.638C314.153 23.482 314.396 23.404 314.656 23.404C314.916 23.404 315.15 23.482 315.358 23.638C315.583 23.7767 315.765 24.0193 315.904 24.366L323.08 40.642C323.218 40.9193 323.27 41.1707 323.236 41.396C323.218 41.6213 323.132 41.7947 322.976 41.916C322.82 42.0373 322.603 42.098 322.326 42.098C322.014 42.098 321.762 42.02 321.572 41.864C321.381 41.6907 321.225 41.448 321.104 41.136L319.18 36.69L320.22 37.236H309.04L310.106 36.69L308.208 41.136C308.052 41.4653 307.887 41.708 307.714 41.864C307.54 42.02 307.315 42.098 307.038 42.098ZM314.63 26.082L310.444 35.936L309.82 35.442H319.44L318.868 35.936L314.682 26.082H314.63ZM327.097 42.02C326.664 42.02 326.317 41.89 326.057 41.63C325.797 41.3527 325.667 41.006 325.667 40.59C325.667 40.174 325.797 39.836 326.057 39.576C326.317 39.2987 326.664 39.16 327.097 39.16C327.53 39.16 327.868 39.2987 328.111 39.576C328.371 39.836 328.501 40.174 328.501 40.59C328.501 41.006 328.371 41.3527 328.111 41.63C327.868 41.89 327.53 42.02 327.097 42.02ZM327.097 32.036C326.664 32.036 326.317 31.8973 326.057 31.62C325.797 31.3427 325.667 31.0047 325.667 30.606C325.667 30.1727 325.797 29.826 326.057 29.566C326.317 29.306 326.664 29.176 327.097 29.176C327.53 29.176 327.868 29.306 328.111 29.566C328.371 29.826 328.501 30.1727 328.501 30.606C328.501 31.0047 328.371 31.3427 328.111 31.62C327.868 31.8973 327.53 32.036 327.097 32.036ZM110.921 71.916C110.569 71.916 110.297 71.828 110.105 71.652C109.929 71.46 109.841 71.188 109.841 70.836V56.076C109.841 55.724 109.929 55.46 110.105 55.284C110.297 55.092 110.569 54.996 110.921 54.996H116.609C117.777 54.996 118.761 55.172 119.561 55.524C120.377 55.86 121.001 56.356 121.433 57.012C121.865 57.668 122.081 58.468 122.081 59.412C122.081 60.468 121.769 61.348 121.145 62.052C120.537 62.756 119.705 63.22 118.649 63.444V63.108C119.849 63.252 120.785 63.684 121.457 64.404C122.145 65.124 122.489 66.076 122.489 67.26C122.489 68.764 122.001 69.916 121.025 70.716C120.049 71.516 118.673 71.916 116.897 71.916H110.921ZM111.761 70.332H116.705C117.985 70.332 118.945 70.076 119.585 69.564C120.225 69.052 120.545 68.276 120.545 67.236C120.545 66.18 120.225 65.404 119.585 64.908C118.945 64.396 117.985 64.14 116.705 64.14H111.761V70.332ZM111.761 62.556H116.321C117.569 62.556 118.513 62.3 119.153 61.788C119.809 61.276 120.137 60.54 120.137 59.58C120.137 58.588 119.809 57.844 119.153 57.348C118.513 56.836 117.569 56.58 116.321 56.58H111.761V62.556ZM131.172 72.132C129.94 72.132 128.876 71.892 127.98 71.412C127.1 70.916 126.412 70.22 125.916 69.324C125.436 68.428 125.196 67.356 125.196 66.108C125.196 64.892 125.436 63.836 125.916 62.94C126.396 62.028 127.052 61.316 127.884 60.804C128.732 60.292 129.708 60.036 130.812 60.036C131.596 60.036 132.3 60.172 132.924 60.444C133.548 60.7 134.076 61.076 134.508 61.572C134.956 62.068 135.292 62.668 135.516 63.372C135.756 64.076 135.876 64.868 135.876 65.748C135.876 66.004 135.804 66.196 135.66 66.324C135.516 66.436 135.308 66.492 135.036 66.492H126.684V65.22H134.58L134.196 65.532C134.196 64.668 134.068 63.94 133.812 63.348C133.556 62.74 133.18 62.276 132.684 61.956C132.204 61.636 131.596 61.476 130.86 61.476C130.044 61.476 129.348 61.668 128.772 62.052C128.212 62.42 127.788 62.94 127.5 63.612C127.212 64.268 127.068 65.036 127.068 65.916V66.06C127.068 67.532 127.42 68.652 128.124 69.42C128.844 70.188 129.86 70.572 131.172 70.572C131.716 70.572 132.252 70.5 132.78 70.356C133.324 70.212 133.852 69.972 134.364 69.636C134.588 69.492 134.788 69.428 134.964 69.444C135.156 69.444 135.308 69.5 135.42 69.612C135.532 69.708 135.604 69.836 135.636 69.996C135.684 70.14 135.668 70.3 135.588 70.476C135.524 70.652 135.388 70.804 135.18 70.932C134.652 71.316 134.028 71.612 133.308 71.82C132.588 72.028 131.876 72.132 131.172 72.132ZM147.852 72.084C147.548 72.084 147.308 71.996 147.132 71.82C146.972 71.644 146.892 71.396 146.892 71.076V61.812H142.188V63.3C142.188 64.548 142.124 65.652 141.996 66.612C141.884 67.556 141.7 68.372 141.444 69.06C141.188 69.748 140.844 70.324 140.412 70.788C139.996 71.252 139.476 71.644 138.852 71.964C138.644 72.06 138.444 72.084 138.252 72.036C138.06 72.004 137.9 71.932 137.772 71.82C137.66 71.692 137.58 71.54 137.532 71.364C137.5 71.188 137.524 71.012 137.604 70.836C137.684 70.66 137.828 70.516 138.036 70.404C138.5 70.148 138.876 69.828 139.164 69.444C139.468 69.06 139.708 68.58 139.884 68.004C140.06 67.428 140.18 66.756 140.244 65.988C140.324 65.204 140.364 64.284 140.364 63.228V61.356C140.364 60.988 140.46 60.716 140.652 60.54C140.844 60.348 141.116 60.252 141.468 60.252H147.732C148.084 60.252 148.356 60.348 148.548 60.54C148.74 60.716 148.836 60.988 148.836 61.356V71.076C148.836 71.396 148.748 71.644 148.572 71.82C148.412 71.996 148.172 72.084 147.852 72.084ZM157.553 72.132C156.417 72.132 155.433 71.884 154.601 71.388C153.769 70.892 153.121 70.196 152.657 69.3C152.209 68.388 151.985 67.316 151.985 66.084C151.985 65.156 152.113 64.324 152.369 63.588C152.625 62.836 153.001 62.196 153.497 61.668C153.993 61.14 154.577 60.74 155.249 60.468C155.937 60.18 156.705 60.036 157.553 60.036C158.689 60.036 159.673 60.284 160.505 60.78C161.337 61.276 161.977 61.98 162.425 62.892C162.889 63.788 163.121 64.852 163.121 66.084C163.121 67.012 162.993 67.844 162.737 68.58C162.481 69.316 162.105 69.956 161.609 70.5C161.113 71.028 160.521 71.436 159.833 71.724C159.161 71.996 158.401 72.132 157.553 72.132ZM157.553 70.572C158.273 70.572 158.905 70.396 159.449 70.044C159.993 69.692 160.409 69.18 160.697 68.508C161.001 67.836 161.153 67.028 161.153 66.084C161.153 64.628 160.825 63.516 160.169 62.748C159.529 61.98 158.657 61.596 157.553 61.596C156.817 61.596 156.177 61.772 155.633 62.124C155.105 62.46 154.689 62.964 154.385 63.636C154.097 64.292 153.953 65.108 153.953 66.084C153.953 67.524 154.281 68.636 154.937 69.42C155.593 70.188 156.465 70.572 157.553 70.572ZM171.243 72.132C170.075 72.132 169.067 71.876 168.219 71.364C167.371 70.852 166.715 70.14 166.251 69.228C165.803 68.3 165.579 67.228 165.579 66.012C165.579 65.084 165.707 64.252 165.963 63.516C166.219 62.78 166.595 62.156 167.091 61.644C167.587 61.116 168.179 60.716 168.867 60.444C169.571 60.172 170.363 60.036 171.243 60.036C171.819 60.036 172.419 60.124 173.043 60.3C173.667 60.476 174.235 60.78 174.747 61.212C174.907 61.324 175.011 61.46 175.059 61.62C175.107 61.78 175.107 61.94 175.059 62.1C175.011 62.244 174.931 62.372 174.819 62.484C174.707 62.58 174.563 62.636 174.387 62.652C174.227 62.668 174.059 62.612 173.883 62.484C173.467 62.164 173.043 61.94 172.611 61.812C172.179 61.684 171.763 61.62 171.363 61.62C170.739 61.62 170.195 61.724 169.731 61.932C169.267 62.124 168.875 62.404 168.555 62.772C168.235 63.14 167.987 63.596 167.811 64.14C167.651 64.684 167.571 65.316 167.571 66.036C167.571 67.428 167.899 68.532 168.555 69.348C169.211 70.148 170.147 70.548 171.363 70.548C171.763 70.548 172.171 70.484 172.587 70.356C173.019 70.228 173.451 70.004 173.883 69.684C174.059 69.556 174.227 69.5 174.387 69.516C174.547 69.532 174.683 69.596 174.795 69.708C174.907 69.804 174.979 69.932 175.011 70.092C175.059 70.252 175.059 70.412 175.011 70.572C174.963 70.716 174.859 70.844 174.699 70.956C174.187 71.372 173.627 71.676 173.019 71.868C172.411 72.044 171.819 72.132 171.243 72.132ZM178.507 72.084C178.331 72.084 178.171 72.044 178.027 71.964C177.899 71.9 177.795 71.788 177.715 71.628C177.651 71.468 177.619 71.268 177.619 71.028V61.044C177.619 60.724 177.699 60.484 177.859 60.324C178.019 60.164 178.235 60.084 178.507 60.084C178.795 60.084 179.011 60.164 179.155 60.324C179.315 60.484 179.395 60.724 179.395 61.044V70.068H178.795L185.779 60.708C185.907 60.532 186.059 60.388 186.235 60.276C186.411 60.148 186.635 60.084 186.907 60.084C187.099 60.084 187.259 60.116 187.387 60.18C187.515 60.244 187.611 60.356 187.675 60.516C187.755 60.66 187.795 60.86 187.795 61.116V71.124C187.795 71.428 187.715 71.668 187.555 71.844C187.411 72.004 187.195 72.084 186.907 72.084C186.619 72.084 186.395 72.004 186.235 71.844C186.091 71.668 186.019 71.428 186.019 71.124V62.076H186.619L179.611 71.46C179.499 71.62 179.355 71.764 179.179 71.892C179.019 72.02 178.795 72.084 178.507 72.084ZM192.618 72.084C192.298 72.084 192.05 71.996 191.874 71.82C191.714 71.644 191.634 71.396 191.634 71.076V61.356C191.634 60.988 191.73 60.716 191.922 60.54C192.114 60.348 192.386 60.252 192.738 60.252H200.706C201.058 60.252 201.33 60.348 201.522 60.54C201.714 60.716 201.81 60.988 201.81 61.356V71.076C201.81 71.396 201.722 71.644 201.546 71.82C201.37 71.996 201.13 72.084 200.826 72.084C200.522 72.084 200.282 71.996 200.106 71.82C199.946 71.644 199.866 71.396 199.866 71.076V61.812H193.578V71.076C193.578 71.396 193.498 71.644 193.338 71.82C193.178 71.996 192.938 72.084 192.618 72.084ZM210.93 72.132C209.698 72.132 208.634 71.892 207.738 71.412C206.858 70.916 206.17 70.22 205.674 69.324C205.194 68.428 204.954 67.356 204.954 66.108C204.954 64.892 205.194 63.836 205.674 62.94C206.154 62.028 206.81 61.316 207.642 60.804C208.49 60.292 209.466 60.036 210.57 60.036C211.354 60.036 212.058 60.172 212.682 60.444C213.306 60.7 213.834 61.076 214.266 61.572C214.714 62.068 215.05 62.668 215.274 63.372C215.514 64.076 215.634 64.868 215.634 65.748C215.634 66.004 215.562 66.196 215.418 66.324C215.274 66.436 215.066 66.492 214.794 66.492H206.442V65.22H214.338L213.954 65.532C213.954 64.668 213.826 63.94 213.57 63.348C213.314 62.74 212.938 62.276 212.442 61.956C211.962 61.636 211.354 61.476 210.618 61.476C209.802 61.476 209.106 61.668 208.53 62.052C207.97 62.42 207.546 62.94 207.258 63.612C206.97 64.268 206.826 65.036 206.826 65.916V66.06C206.826 67.532 207.178 68.652 207.882 69.42C208.602 70.188 209.618 70.572 210.93 70.572C211.474 70.572 212.01 70.5 212.538 70.356C213.082 70.212 213.61 69.972 214.122 69.636C214.346 69.492 214.546 69.428 214.722 69.444C214.914 69.444 215.066 69.5 215.178 69.612C215.29 69.708 215.362 69.836 215.394 69.996C215.442 70.14 215.426 70.3 215.346 70.476C215.282 70.652 215.146 70.804 214.938 70.932C214.41 71.316 213.786 71.612 213.066 71.82C212.346 72.028 211.634 72.132 210.93 72.132ZM218.226 75.204C217.954 75.204 217.746 75.124 217.602 74.964C217.458 74.804 217.386 74.58 217.386 74.292V71.316C217.386 70.676 217.706 70.356 218.346 70.356H219.498L218.346 70.764C218.778 70.188 219.122 69.564 219.378 68.892C219.65 68.204 219.85 67.436 219.978 66.588C220.106 65.74 220.17 64.772 220.17 63.684V61.356C220.17 60.988 220.266 60.716 220.458 60.54C220.65 60.348 220.922 60.252 221.274 60.252H227.322C227.69 60.252 227.962 60.348 228.138 60.54C228.33 60.716 228.426 60.988 228.426 61.356V71.244L227.538 70.356H229.314C229.618 70.356 229.85 70.436 230.01 70.596C230.186 70.756 230.274 70.996 230.274 71.316V74.292C230.274 74.9 229.994 75.204 229.434 75.204C229.162 75.204 228.954 75.124 228.81 74.964C228.666 74.804 228.594 74.58 228.594 74.292V71.916H219.042V74.292C219.042 74.9 218.77 75.204 218.226 75.204ZM220.482 70.356H226.578V61.788H221.898V64.02C221.898 65.22 221.778 66.38 221.538 67.5C221.298 68.604 220.946 69.556 220.482 70.356ZM233.869 71.916C233.549 71.916 233.301 71.828 233.125 71.652C232.949 71.476 232.861 71.228 232.861 70.908V61.068C232.861 60.732 232.941 60.484 233.101 60.324C233.277 60.164 233.525 60.084 233.845 60.084C234.149 60.084 234.381 60.164 234.541 60.324C234.717 60.484 234.805 60.732 234.805 61.068V64.404H238.333C239.821 64.404 240.949 64.732 241.717 65.388C242.485 66.028 242.869 66.94 242.869 68.124C242.869 68.908 242.685 69.588 242.317 70.164C241.965 70.724 241.453 71.156 240.781 71.46C240.125 71.764 239.309 71.916 238.333 71.916H233.869ZM234.805 70.524H238.141C239.053 70.524 239.757 70.332 240.253 69.948C240.749 69.548 240.997 68.948 240.997 68.148C240.997 67.332 240.749 66.74 240.253 66.372C239.757 65.988 239.053 65.796 238.141 65.796H234.805V70.524ZM245.557 72.084C245.253 72.084 245.013 71.996 244.837 71.82C244.677 71.644 244.597 71.396 244.597 71.076V61.068C244.597 60.732 244.677 60.484 244.837 60.324C245.013 60.164 245.253 60.084 245.557 60.084C245.877 60.084 246.117 60.164 246.277 60.324C246.453 60.484 246.541 60.732 246.541 61.068V71.076C246.541 71.748 246.213 72.084 245.557 72.084ZM255.98 72.732C255.9 72.94 255.788 73.092 255.644 73.188C255.516 73.284 255.364 73.332 255.188 73.332C255.012 73.332 254.852 73.284 254.708 73.188C254.58 73.108 254.484 72.988 254.42 72.828C254.356 72.668 254.356 72.484 254.42 72.276L260.132 54.564C260.212 54.356 260.324 54.204 260.468 54.108C260.612 54.012 260.764 53.964 260.924 53.964C261.1 53.964 261.252 54.012 261.38 54.108C261.524 54.188 261.62 54.308 261.668 54.468C261.732 54.628 261.732 54.812 261.668 55.02L255.98 72.732ZM274.388 72.132C273.396 72.132 272.452 71.988 271.556 71.7C270.676 71.412 269.876 70.98 269.156 70.404C268.964 70.244 268.828 70.068 268.748 69.876C268.684 69.684 268.668 69.492 268.7 69.3C268.748 69.108 268.836 68.956 268.964 68.844C269.092 68.716 269.244 68.652 269.42 68.652C269.612 68.636 269.82 68.708 270.044 68.868C270.7 69.396 271.372 69.772 272.06 69.996C272.764 70.22 273.524 70.332 274.34 70.332C275.588 70.332 276.636 70.076 277.484 69.564C278.348 69.052 279.012 68.308 279.476 67.332C279.956 66.34 280.212 65.148 280.244 63.756L280.916 64.14H272.468C272.18 64.14 271.956 64.076 271.796 63.948C271.652 63.804 271.58 63.596 271.58 63.324C271.58 63.052 271.652 62.844 271.796 62.7C271.956 62.556 272.18 62.484 272.468 62.484H280.916L280.244 63.108C280.196 61.732 279.948 60.564 279.5 59.604C279.068 58.628 278.428 57.884 277.58 57.372C276.748 56.844 275.716 56.58 274.484 56.58C273.668 56.58 272.9 56.708 272.18 56.964C271.476 57.204 270.804 57.548 270.164 57.996C269.924 58.172 269.7 58.252 269.492 58.236C269.3 58.22 269.132 58.156 268.988 58.044C268.86 57.932 268.772 57.788 268.724 57.612C268.692 57.42 268.708 57.236 268.772 57.06C268.836 56.868 268.972 56.7 269.18 56.556C269.964 55.948 270.812 55.5 271.724 55.212C272.652 54.924 273.596 54.78 274.556 54.78C276.204 54.78 277.604 55.132 278.756 55.836C279.924 56.54 280.812 57.54 281.42 58.836C282.028 60.132 282.332 61.676 282.332 63.468C282.332 64.796 282.148 65.996 281.78 67.068C281.428 68.14 280.908 69.052 280.22 69.804C279.548 70.54 278.716 71.116 277.724 71.532C276.748 71.932 275.636 72.132 274.388 72.132ZM294.43 72.084C294.126 72.084 293.886 71.996 293.71 71.82C293.55 71.644 293.47 71.396 293.47 71.076V61.812H288.766V63.3C288.766 64.548 288.702 65.652 288.574 66.612C288.462 67.556 288.278 68.372 288.022 69.06C287.766 69.748 287.422 70.324 286.99 70.788C286.574 71.252 286.054 71.644 285.43 71.964C285.222 72.06 285.022 72.084 284.83 72.036C284.638 72.004 284.478 71.932 284.35 71.82C284.238 71.692 284.158 71.54 284.11 71.364C284.078 71.188 284.102 71.012 284.182 70.836C284.262 70.66 284.406 70.516 284.614 70.404C285.078 70.148 285.454 69.828 285.742 69.444C286.046 69.06 286.286 68.58 286.462 68.004C286.638 67.428 286.758 66.756 286.822 65.988C286.902 65.204 286.942 64.284 286.942 63.228V61.356C286.942 60.988 287.038 60.716 287.23 60.54C287.422 60.348 287.694 60.252 288.046 60.252H294.31C294.662 60.252 294.934 60.348 295.126 60.54C295.318 60.716 295.414 60.988 295.414 61.356V71.076C295.414 71.396 295.326 71.644 295.15 71.82C294.99 71.996 294.75 72.084 294.43 72.084ZM304.539 72.132C303.307 72.132 302.243 71.892 301.347 71.412C300.467 70.916 299.779 70.22 299.283 69.324C298.803 68.428 298.563 67.356 298.563 66.108C298.563 64.892 298.803 63.836 299.283 62.94C299.763 62.028 300.419 61.316 301.251 60.804C302.099 60.292 303.075 60.036 304.179 60.036C304.963 60.036 305.667 60.172 306.291 60.444C306.915 60.7 307.443 61.076 307.875 61.572C308.323 62.068 308.659 62.668 308.883 63.372C309.123 64.076 309.243 64.868 309.243 65.748C309.243 66.004 309.171 66.196 309.027 66.324C308.883 66.436 308.675 66.492 308.403 66.492H300.051V65.22H307.947L307.563 65.532C307.563 64.668 307.435 63.94 307.179 63.348C306.923 62.74 306.547 62.276 306.051 61.956C305.571 61.636 304.963 61.476 304.227 61.476C303.411 61.476 302.715 61.668 302.139 62.052C301.579 62.42 301.155 62.94 300.867 63.612C300.579 64.268 300.435 65.036 300.435 65.916V66.06C300.435 67.532 300.787 68.652 301.491 69.42C302.211 70.188 303.227 70.572 304.539 70.572C305.083 70.572 305.619 70.5 306.147 70.356C306.691 70.212 307.219 69.972 307.731 69.636C307.955 69.492 308.155 69.428 308.331 69.444C308.523 69.444 308.675 69.5 308.787 69.612C308.899 69.708 308.971 69.836 309.003 69.996C309.051 70.14 309.035 70.3 308.955 70.476C308.891 70.652 308.755 70.804 308.547 70.932C308.019 71.316 307.395 71.612 306.675 71.82C305.955 72.028 305.243 72.132 304.539 72.132ZM313.251 72.084C312.931 72.084 312.683 71.996 312.507 71.82C312.347 71.644 312.267 71.396 312.267 71.076V61.14C312.267 60.804 312.347 60.556 312.507 60.396C312.683 60.22 312.931 60.132 313.251 60.132C313.555 60.132 313.787 60.22 313.947 60.396C314.123 60.556 314.211 60.804 314.211 61.14V65.124H316.395L319.947 60.564C320.107 60.372 320.283 60.252 320.475 60.204C320.667 60.14 320.843 60.14 321.003 60.204C321.179 60.252 321.315 60.348 321.411 60.492C321.523 60.62 321.579 60.78 321.579 60.972C321.579 61.164 321.507 61.364 321.363 61.572L317.979 65.916L317.427 65.292C317.875 65.34 318.267 65.452 318.603 65.628C318.939 65.804 319.259 66.068 319.563 66.42C319.867 66.772 320.195 67.26 320.547 67.884L322.275 70.74C322.387 70.964 322.427 71.164 322.395 71.34C322.379 71.516 322.299 71.676 322.155 71.82C322.011 71.948 321.843 72.028 321.651 72.06C321.475 72.092 321.299 72.068 321.123 71.988C320.947 71.908 320.787 71.764 320.643 71.556L318.747 68.388C318.475 67.94 318.219 67.596 317.979 67.356C317.739 67.1 317.467 66.924 317.163 66.828C316.859 66.732 316.483 66.684 316.035 66.684H314.211V71.076C314.211 71.396 314.123 71.644 313.947 71.82C313.787 71.996 313.555 72.084 313.251 72.084ZM328.308 72.084C328.004 72.084 327.764 71.996 327.588 71.82C327.412 71.644 327.324 71.396 327.324 71.076V61.812H323.82C323.212 61.812 322.908 61.548 322.908 61.02C322.908 60.78 322.988 60.596 323.148 60.468C323.308 60.324 323.532 60.252 323.82 60.252H332.796C333.388 60.252 333.684 60.508 333.684 61.02C333.684 61.276 333.604 61.476 333.444 61.62C333.3 61.748 333.084 61.812 332.796 61.812H329.268V71.076C329.268 71.396 329.188 71.644 329.028 71.82C328.884 71.996 328.644 72.084 328.308 72.084ZM336.548 76.404C336.228 76.404 335.988 76.316 335.828 76.14C335.668 75.98 335.588 75.74 335.588 75.42V61.068C335.588 60.748 335.668 60.508 335.828 60.348C335.988 60.172 336.22 60.084 336.524 60.084C336.844 60.084 337.084 60.172 337.244 60.348C337.42 60.508 337.508 60.748 337.508 61.068V63.348L337.244 63.012C337.5 62.1 338.004 61.38 338.756 60.852C339.524 60.308 340.436 60.036 341.492 60.036C342.532 60.036 343.436 60.284 344.204 60.78C344.988 61.26 345.588 61.956 346.004 62.868C346.436 63.764 346.652 64.836 346.652 66.084C346.652 67.316 346.436 68.388 346.004 69.3C345.588 70.196 344.996 70.892 344.228 71.388C343.46 71.884 342.548 72.132 341.492 72.132C340.436 72.132 339.532 71.868 338.78 71.34C338.028 70.796 337.516 70.076 337.244 69.18H337.532V75.42C337.532 75.74 337.444 75.98 337.268 76.14C337.092 76.316 336.852 76.404 336.548 76.404ZM341.084 70.572C341.82 70.572 342.452 70.396 342.98 70.044C343.524 69.692 343.94 69.18 344.228 68.508C344.532 67.836 344.684 67.028 344.684 66.084C344.684 64.628 344.356 63.516 343.7 62.748C343.06 61.98 342.188 61.596 341.084 61.596C340.364 61.596 339.732 61.772 339.188 62.124C338.644 62.46 338.22 62.964 337.916 63.636C337.628 64.292 337.484 65.108 337.484 66.084C337.484 67.524 337.812 68.636 338.468 69.42C339.124 70.188 339.996 70.572 341.084 70.572ZM354.663 72.132C353.527 72.132 352.543 71.884 351.711 71.388C350.879 70.892 350.231 70.196 349.767 69.3C349.319 68.388 349.095 67.316 349.095 66.084C349.095 65.156 349.223 64.324 349.479 63.588C349.735 62.836 350.111 62.196 350.607 61.668C351.103 61.14 351.687 60.74 352.359 60.468C353.047 60.18 353.815 60.036 354.663 60.036C355.799 60.036 356.783 60.284 357.615 60.78C358.447 61.276 359.087 61.98 359.535 62.892C359.999 63.788 360.231 64.852 360.231 66.084C360.231 67.012 360.103 67.844 359.847 68.58C359.591 69.316 359.215 69.956 358.719 70.5C358.223 71.028 357.631 71.436 356.943 71.724C356.271 71.996 355.511 72.132 354.663 72.132ZM354.663 70.572C355.383 70.572 356.015 70.396 356.559 70.044C357.103 69.692 357.519 69.18 357.807 68.508C358.111 67.836 358.263 67.028 358.263 66.084C358.263 64.628 357.935 63.516 357.279 62.748C356.639 61.98 355.767 61.596 354.663 61.596C353.927 61.596 353.287 61.772 352.743 62.124C352.215 62.46 351.799 62.964 351.495 63.636C351.207 64.292 351.063 65.108 351.063 66.084C351.063 67.524 351.391 68.636 352.047 69.42C352.703 70.188 353.575 70.572 354.663 70.572ZM364.392 71.916C364.072 71.916 363.824 71.828 363.648 71.652C363.472 71.476 363.384 71.228 363.384 70.908V61.26C363.384 60.94 363.472 60.692 363.648 60.516C363.824 60.34 364.072 60.252 364.392 60.252H369.072C370 60.252 370.76 60.372 371.352 60.612C371.944 60.836 372.384 61.18 372.672 61.644C372.96 62.092 373.104 62.652 373.104 63.324C373.104 64.06 372.84 64.684 372.312 65.196C371.8 65.708 371.128 66.012 370.296 66.108V65.796C371.288 65.828 372.064 66.108 372.624 66.636C373.2 67.164 373.488 67.852 373.488 68.7C373.488 69.692 373.12 70.476 372.384 71.052C371.648 71.628 370.608 71.916 369.264 71.916H364.392ZM365.232 70.596H369.192C369.976 70.596 370.576 70.428 370.992 70.092C371.424 69.74 371.64 69.244 371.64 68.604C371.64 67.964 371.424 67.476 370.992 67.14C370.576 66.804 369.976 66.636 369.192 66.636H365.232V70.596ZM365.232 65.316H368.976C369.696 65.316 370.256 65.148 370.656 64.812C371.072 64.476 371.28 64.012 371.28 63.42C371.28 62.828 371.072 62.372 370.656 62.052C370.256 61.732 369.696 61.572 368.976 61.572H365.232V65.316ZM381.789 72.132C380.557 72.132 379.493 71.892 378.597 71.412C377.717 70.916 377.029 70.22 376.533 69.324C376.053 68.428 375.813 67.356 375.813 66.108C375.813 64.892 376.053 63.836 376.533 62.94C377.013 62.028 377.669 61.316 378.501 60.804C379.349 60.292 380.325 60.036 381.429 60.036C382.213 60.036 382.917 60.172 383.541 60.444C384.165 60.7 384.693 61.076 385.125 61.572C385.573 62.068 385.909 62.668 386.133 63.372C386.373 64.076 386.493 64.868 386.493 65.748C386.493 66.004 386.421 66.196 386.277 66.324C386.133 66.436 385.925 66.492 385.653 66.492H377.301V65.22H385.197L384.813 65.532C384.813 64.668 384.685 63.94 384.429 63.348C384.173 62.74 383.797 62.276 383.301 61.956C382.821 61.636 382.213 61.476 381.477 61.476C380.661 61.476 379.965 61.668 379.389 62.052C378.829 62.42 378.405 62.94 378.117 63.612C377.829 64.268 377.685 65.036 377.685 65.916V66.06C377.685 67.532 378.037 68.652 378.741 69.42C379.461 70.188 380.477 70.572 381.789 70.572C382.333 70.572 382.869 70.5 383.397 70.356C383.941 70.212 384.469 69.972 384.981 69.636C385.205 69.492 385.405 69.428 385.581 69.444C385.773 69.444 385.925 69.5 386.037 69.612C386.149 69.708 386.221 69.836 386.253 69.996C386.301 70.14 386.285 70.3 386.205 70.476C386.141 70.652 386.005 70.804 385.797 70.932C385.269 71.316 384.645 71.612 383.925 71.82C383.205 72.028 382.493 72.132 381.789 72.132ZM398.469 72.084C398.165 72.084 397.925 71.996 397.749 71.82C397.589 71.644 397.509 71.396 397.509 71.076V61.812H392.805V63.3C392.805 64.548 392.741 65.652 392.613 66.612C392.501 67.556 392.317 68.372 392.061 69.06C391.805 69.748 391.461 70.324 391.029 70.788C390.613 71.252 390.093 71.644 389.469 71.964C389.261 72.06 389.061 72.084 388.869 72.036C388.677 72.004 388.517 71.932 388.389 71.82C388.277 71.692 388.197 71.54 388.149 71.364C388.117 71.188 388.141 71.012 388.221 70.836C388.301 70.66 388.445 70.516 388.653 70.404C389.117 70.148 389.493 69.828 389.781 69.444C390.085 69.06 390.325 68.58 390.501 68.004C390.677 67.428 390.797 66.756 390.861 65.988C390.941 65.204 390.981 64.284 390.981 63.228V61.356C390.981 60.988 391.077 60.716 391.269 60.54C391.461 60.348 391.733 60.252 392.085 60.252H398.349C398.701 60.252 398.973 60.348 399.165 60.54C399.357 60.716 399.453 60.988 399.453 61.356V71.076C399.453 71.396 399.365 71.644 399.189 71.82C399.029 71.996 398.789 72.084 398.469 72.084ZM408.17 72.132C407.034 72.132 406.05 71.884 405.218 71.388C404.386 70.892 403.738 70.196 403.274 69.3C402.826 68.388 402.602 67.316 402.602 66.084C402.602 65.156 402.73 64.324 402.986 63.588C403.242 62.836 403.618 62.196 404.114 61.668C404.61 61.14 405.194 60.74 405.866 60.468C406.554 60.18 407.322 60.036 408.17 60.036C409.306 60.036 410.29 60.284 411.122 60.78C411.954 61.276 412.594 61.98 413.042 62.892C413.506 63.788 413.738 64.852 413.738 66.084C413.738 67.012 413.61 67.844 413.354 68.58C413.098 69.316 412.722 69.956 412.226 70.5C411.73 71.028 411.138 71.436 410.45 71.724C409.778 71.996 409.018 72.132 408.17 72.132ZM408.17 70.572C408.89 70.572 409.522 70.396 410.066 70.044C410.61 69.692 411.026 69.18 411.314 68.508C411.618 67.836 411.77 67.028 411.77 66.084C411.77 64.628 411.442 63.516 410.786 62.748C410.146 61.98 409.274 61.596 408.17 61.596C407.434 61.596 406.794 61.772 406.25 62.124C405.722 62.46 405.306 62.964 405.002 63.636C404.714 64.292 404.57 65.108 404.57 66.084C404.57 67.524 404.898 68.636 405.554 69.42C406.21 70.188 407.082 70.572 408.17 70.572ZM421.86 72.132C420.692 72.132 419.684 71.876 418.836 71.364C417.988 70.852 417.332 70.14 416.868 69.228C416.42 68.3 416.196 67.228 416.196 66.012C416.196 65.084 416.324 64.252 416.58 63.516C416.836 62.78 417.212 62.156 417.708 61.644C418.204 61.116 418.796 60.716 419.484 60.444C420.188 60.172 420.98 60.036 421.86 60.036C422.436 60.036 423.036 60.124 423.66 60.3C424.284 60.476 424.852 60.78 425.364 61.212C425.524 61.324 425.628 61.46 425.676 61.62C425.724 61.78 425.724 61.94 425.676 62.1C425.628 62.244 425.548 62.372 425.436 62.484C425.324 62.58 425.18 62.636 425.004 62.652C424.844 62.668 424.676 62.612 424.5 62.484C424.084 62.164 423.66 61.94 423.228 61.812C422.796 61.684 422.38 61.62 421.98 61.62C421.356 61.62 420.812 61.724 420.348 61.932C419.884 62.124 419.492 62.404 419.172 62.772C418.852 63.14 418.604 63.596 418.428 64.14C418.268 64.684 418.188 65.316 418.188 66.036C418.188 67.428 418.516 68.532 419.172 69.348C419.828 70.148 420.764 70.548 421.98 70.548C422.38 70.548 422.788 70.484 423.204 70.356C423.636 70.228 424.068 70.004 424.5 69.684C424.676 69.556 424.844 69.5 425.004 69.516C425.164 69.532 425.3 69.596 425.412 69.708C425.524 69.804 425.596 69.932 425.628 70.092C425.676 70.252 425.676 70.412 425.628 70.572C425.58 70.716 425.476 70.844 425.316 70.956C424.804 71.372 424.244 71.676 423.636 71.868C423.028 72.044 422.436 72.132 421.86 72.132ZM429.124 72.084C428.948 72.084 428.788 72.044 428.644 71.964C428.516 71.9 428.412 71.788 428.332 71.628C428.268 71.468 428.236 71.268 428.236 71.028V61.044C428.236 60.724 428.316 60.484 428.476 60.324C428.636 60.164 428.852 60.084 429.124 60.084C429.412 60.084 429.628 60.164 429.772 60.324C429.932 60.484 430.012 60.724 430.012 61.044V70.068H429.412L436.396 60.708C436.524 60.532 436.676 60.388 436.852 60.276C437.028 60.148 437.252 60.084 437.524 60.084C437.716 60.084 437.876 60.116 438.004 60.18C438.132 60.244 438.228 60.356 438.292 60.516C438.372 60.66 438.412 60.86 438.412 61.116V71.124C438.412 71.428 438.332 71.668 438.172 71.844C438.028 72.004 437.812 72.084 437.524 72.084C437.236 72.084 437.012 72.004 436.852 71.844C436.708 71.668 436.636 71.428 436.636 71.124V62.076H437.236L430.228 71.46C430.116 71.62 429.972 71.764 429.796 71.892C429.636 72.02 429.412 72.084 429.124 72.084ZM443.236 72.084C442.916 72.084 442.668 71.996 442.492 71.82C442.332 71.644 442.252 71.396 442.252 71.076V61.356C442.252 60.988 442.348 60.716 442.54 60.54C442.732 60.348 443.004 60.252 443.356 60.252H451.324C451.676 60.252 451.948 60.348 452.14 60.54C452.332 60.716 452.428 60.988 452.428 61.356V71.076C452.428 71.396 452.34 71.644 452.164 71.82C451.988 71.996 451.748 72.084 451.444 72.084C451.14 72.084 450.9 71.996 450.724 71.82C450.564 71.644 450.484 71.396 450.484 71.076V61.812H444.196V71.076C444.196 71.396 444.116 71.644 443.956 71.82C443.796 71.996 443.556 72.084 443.236 72.084ZM461.547 72.132C460.315 72.132 459.251 71.892 458.355 71.412C457.475 70.916 456.787 70.22 456.291 69.324C455.811 68.428 455.571 67.356 455.571 66.108C455.571 64.892 455.811 63.836 456.291 62.94C456.771 62.028 457.427 61.316 458.259 60.804C459.107 60.292 460.083 60.036 461.187 60.036C461.971 60.036 462.675 60.172 463.299 60.444C463.923 60.7 464.451 61.076 464.883 61.572C465.331 62.068 465.667 62.668 465.891 63.372C466.131 64.076 466.251 64.868 466.251 65.748C466.251 66.004 466.179 66.196 466.035 66.324C465.891 66.436 465.683 66.492 465.411 66.492H457.059V65.22H464.955L464.571 65.532C464.571 64.668 464.443 63.94 464.187 63.348C463.931 62.74 463.555 62.276 463.059 61.956C462.579 61.636 461.971 61.476 461.235 61.476C460.419 61.476 459.723 61.668 459.147 62.052C458.587 62.42 458.163 62.94 457.875 63.612C457.587 64.268 457.443 65.036 457.443 65.916V66.06C457.443 67.532 457.795 68.652 458.499 69.42C459.219 70.188 460.235 70.572 461.547 70.572C462.091 70.572 462.627 70.5 463.155 70.356C463.699 70.212 464.227 69.972 464.739 69.636C464.963 69.492 465.163 69.428 465.339 69.444C465.531 69.444 465.683 69.5 465.795 69.612C465.907 69.708 465.979 69.836 466.011 69.996C466.059 70.14 466.043 70.3 465.963 70.476C465.899 70.652 465.763 70.804 465.555 70.932C465.027 71.316 464.403 71.612 463.683 71.82C462.963 72.028 462.251 72.132 461.547 72.132ZM468.843 75.204C468.571 75.204 468.363 75.124 468.219 74.964C468.075 74.804 468.003 74.58 468.003 74.292V71.316C468.003 70.676 468.323 70.356 468.963 70.356H470.115L468.963 70.764C469.395 70.188 469.739 69.564 469.995 68.892C470.267 68.204 470.467 67.436 470.595 66.588C470.723 65.74 470.787 64.772 470.787 63.684V61.356C470.787 60.988 470.883 60.716 471.075 60.54C471.267 60.348 471.539 60.252 471.891 60.252H477.939C478.307 60.252 478.579 60.348 478.755 60.54C478.947 60.716 479.043 60.988 479.043 61.356V71.244L478.155 70.356H479.931C480.235 70.356 480.467 70.436 480.627 70.596C480.803 70.756 480.891 70.996 480.891 71.316V74.292C480.891 74.9 480.611 75.204 480.051 75.204C479.779 75.204 479.571 75.124 479.427 74.964C479.283 74.804 479.211 74.58 479.211 74.292V71.916H469.659V74.292C469.659 74.9 469.387 75.204 468.843 75.204ZM471.099 70.356H477.195V61.788H472.515V64.02C472.515 65.22 472.395 66.38 472.155 67.5C471.915 68.604 471.563 69.556 471.099 70.356ZM484.486 71.916C484.166 71.916 483.918 71.828 483.742 71.652C483.566 71.476 483.478 71.228 483.478 70.908V61.068C483.478 60.732 483.558 60.484 483.718 60.324C483.894 60.164 484.142 60.084 484.462 60.084C484.766 60.084 484.998 60.164 485.158 60.324C485.334 60.484 485.422 60.732 485.422 61.068V64.404H488.95C490.438 64.404 491.566 64.732 492.334 65.388C493.102 66.028 493.486 66.94 493.486 68.124C493.486 68.908 493.302 69.588 492.934 70.164C492.582 70.724 492.07 71.156 491.398 71.46C490.742 71.764 489.926 71.916 488.95 71.916H484.486ZM485.422 70.524H488.758C489.67 70.524 490.374 70.332 490.87 69.948C491.366 69.548 491.614 68.948 491.614 68.148C491.614 67.332 491.366 66.74 490.87 66.372C490.374 65.988 489.67 65.796 488.758 65.796H485.422V70.524ZM496.174 72.084C495.87 72.084 495.63 71.996 495.454 71.82C495.294 71.644 495.214 71.396 495.214 71.076V61.068C495.214 60.732 495.294 60.484 495.454 60.324C495.63 60.164 495.87 60.084 496.174 60.084C496.494 60.084 496.734 60.164 496.894 60.324C497.07 60.484 497.158 60.732 497.158 61.068V71.076C497.158 71.748 496.83 72.084 496.174 72.084ZM506.597 72.732C506.517 72.94 506.405 73.092 506.261 73.188C506.133 73.284 505.981 73.332 505.805 73.332C505.629 73.332 505.469 73.284 505.325 73.188C505.197 73.108 505.101 72.988 505.037 72.828C504.973 72.668 504.973 72.484 505.037 72.276L510.749 54.564C510.829 54.356 510.941 54.204 511.085 54.108C511.229 54.012 511.381 53.964 511.541 53.964C511.717 53.964 511.869 54.012 511.997 54.108C512.141 54.188 512.237 54.308 512.285 54.468C512.349 54.628 512.349 54.812 512.285 55.02L506.597 72.732ZM532.973 72.084C532.653 72.084 532.405 71.996 532.229 71.82C532.053 71.628 531.965 71.372 531.965 71.052V56.7H524.573V60.588C524.573 62.204 524.477 63.628 524.285 64.86C524.109 66.076 523.837 67.14 523.469 68.052C523.117 68.948 522.669 69.708 522.125 70.332C521.597 70.956 520.981 71.484 520.277 71.916C520.021 72.092 519.773 72.156 519.533 72.108C519.293 72.06 519.093 71.908 518.933 71.652C518.773 71.396 518.725 71.156 518.789 70.932C518.869 70.708 519.037 70.516 519.293 70.356C519.837 70.02 520.317 69.596 520.733 69.084C521.165 68.572 521.525 67.932 521.813 67.164C522.117 66.38 522.349 65.412 522.509 64.26C522.669 63.108 522.749 61.716 522.749 60.084V56.076C522.749 55.724 522.837 55.46 523.013 55.284C523.205 55.092 523.477 54.996 523.829 54.996H532.877C533.213 54.996 533.477 55.092 533.669 55.284C533.861 55.46 533.957 55.724 533.957 56.076V71.052C533.957 71.372 533.869 71.628 533.693 71.82C533.517 71.996 533.277 72.084 532.973 72.084ZM538.978 71.916C538.658 71.916 538.41 71.828 538.234 71.652C538.058 71.476 537.97 71.228 537.97 70.908V61.068C537.97 60.732 538.05 60.484 538.21 60.324C538.386 60.164 538.634 60.084 538.954 60.084C539.258 60.084 539.49 60.164 539.65 60.324C539.826 60.484 539.914 60.732 539.914 61.068V64.404H543.442C544.93 64.404 546.058 64.732 546.826 65.388C547.594 66.028 547.978 66.94 547.978 68.124C547.978 68.908 547.794 69.588 547.426 70.164C547.074 70.724 546.562 71.156 545.89 71.46C545.234 71.764 544.418 71.916 543.442 71.916H538.978ZM539.914 70.524H543.25C544.162 70.524 544.866 70.332 545.362 69.948C545.858 69.548 546.106 68.948 546.106 68.148C546.106 67.332 545.858 66.74 545.362 66.372C544.866 65.988 544.162 65.796 543.25 65.796H539.914V70.524ZM550.666 72.084C550.362 72.084 550.122 71.996 549.946 71.82C549.786 71.644 549.706 71.396 549.706 71.076V61.068C549.706 60.732 549.786 60.484 549.946 60.324C550.122 60.164 550.362 60.084 550.666 60.084C550.986 60.084 551.226 60.164 551.386 60.324C551.562 60.484 551.65 60.732 551.65 61.068V71.076C551.65 71.748 551.322 72.084 550.666 72.084ZM562.99 72.084C562.686 72.084 562.446 71.996 562.27 71.82C562.11 71.644 562.03 71.396 562.03 71.076V66.684H560.518C560.086 66.684 559.718 66.732 559.414 66.828C559.11 66.924 558.83 67.1 558.574 67.356C558.334 67.596 558.078 67.94 557.806 68.388L555.91 71.556C555.782 71.764 555.622 71.908 555.43 71.988C555.238 72.068 555.054 72.084 554.878 72.036C554.702 72.004 554.542 71.924 554.398 71.796C554.254 71.668 554.166 71.516 554.134 71.34C554.102 71.164 554.15 70.964 554.278 70.74L556.006 67.884C556.358 67.276 556.686 66.796 556.99 66.444C557.31 66.076 557.63 65.804 557.95 65.628C558.286 65.452 558.678 65.34 559.126 65.292L558.622 65.916L555.214 61.572C555.07 61.364 554.99 61.172 554.974 60.996C554.974 60.804 555.03 60.636 555.142 60.492C555.254 60.348 555.39 60.252 555.55 60.204C555.726 60.14 555.902 60.14 556.078 60.204C556.27 60.252 556.438 60.372 556.582 60.564L560.182 65.124H562.03V61.14C562.03 60.804 562.11 60.556 562.27 60.396C562.446 60.22 562.686 60.132 562.99 60.132C563.31 60.132 563.55 60.22 563.71 60.396C563.886 60.556 563.974 60.804 563.974 61.14V65.124H565.846L569.398 60.564C569.558 60.372 569.734 60.252 569.926 60.204C570.118 60.14 570.294 60.14 570.454 60.204C570.614 60.252 570.75 60.348 570.862 60.492C570.974 60.62 571.022 60.78 571.006 60.972C571.006 61.164 570.934 61.364 570.79 61.572L567.382 65.916L566.878 65.292C567.326 65.34 567.71 65.452 568.03 65.628C568.366 65.804 568.686 66.068 568.99 66.42C569.31 66.772 569.646 67.26 569.998 67.884L571.726 70.74C571.838 70.964 571.878 71.164 571.846 71.34C571.83 71.516 571.75 71.668 571.606 71.796C571.462 71.924 571.294 72.004 571.102 72.036C570.926 72.084 570.75 72.068 570.574 71.988C570.398 71.908 570.238 71.764 570.094 71.556L568.198 68.388C567.926 67.94 567.67 67.596 567.43 67.356C567.19 67.1 566.918 66.924 566.614 66.828C566.31 66.732 565.934 66.684 565.486 66.684H563.974V71.076C563.974 71.396 563.886 71.644 563.71 71.82C563.55 71.996 563.31 72.084 562.99 72.084ZM575.233 72.084C575.057 72.084 574.897 72.044 574.753 71.964C574.625 71.9 574.521 71.788 574.441 71.628C574.377 71.468 574.345 71.268 574.345 71.028V61.044C574.345 60.724 574.425 60.484 574.585 60.324C574.745 60.164 574.961 60.084 575.233 60.084C575.521 60.084 575.737 60.164 575.881 60.324C576.041 60.484 576.121 60.724 576.121 61.044V70.068H575.521L582.505 60.708C582.633 60.532 582.785 60.388 582.961 60.276C583.137 60.148 583.361 60.084 583.633 60.084C583.825 60.084 583.985 60.116 584.113 60.18C584.241 60.244 584.337 60.356 584.401 60.516C584.481 60.66 584.521 60.86 584.521 61.116V71.124C584.521 71.428 584.441 71.668 584.281 71.844C584.137 72.004 583.921 72.084 583.633 72.084C583.345 72.084 583.121 72.004 582.961 71.844C582.817 71.668 582.745 71.428 582.745 71.124V62.076H583.345L576.337 71.46C576.225 71.62 576.081 71.764 575.905 71.892C575.745 72.02 575.521 72.084 575.233 72.084Z" fill="black"></path></svg> 