<?xml version="1.0" encoding="UTF-8"?> <svg xmlns="http://www.w3.org/2000/svg" width="2135" height="2940" viewBox="0 0 2135 2940" fill="none"><path fill-rule="evenodd" clip-rule="evenodd" d="M388.05 0.844238L492.883 7.10291V28.8695L595.924 188.658L621.291 238.894L711.061 337.143L1273.82 1061.9L1287.71 1054.33L1291.06 1060.47L1271.94 1070.9L705.705 341.658L615.475 242.907L589.842 192.143L485.883 30.9308V13.6975L389.716 7.95614L103.728 171.593L90.4334 150.785L96.3322 147.016L106.038 162.207L388.05 0.844238ZM76.3442 193.535L88.9708 213.58L8.3651 404.467L679.936 1352.36L673.798 1482.78L542.776 1574.74L605.327 1662.7L606.428 1684.73L599.437 1685.07L598.438 1665.1L532.99 1573.06L666.967 1479.02L672.83 1354.44L0.400513 405.334L81.1016 214.221L70.4214 197.266L76.3442 193.535ZM1273.38 1099.63L1305.01 1083L1301.75 1076.8L1263.03 1097.17L1865.88 1943.02V1953.15L2015.8 2135.67L2082.28 2315.61L2111.19 2353.49L2117.42 2375.72L1828.08 2628.5L1832.69 2633.77L2123.69 2379.54L2123.71 2379.51L2123.74 2379.49L2134.74 2369.49L2130.03 2364.31L2123.22 2370.5L2117.57 2350.31L2088.48 2312.2L2021.96 2132.13L1872.88 1950.65V1940.78L1273.38 1099.63ZM572.2 1741.72L606.446 1716.73L602.32 1711.07L562.566 1740.08L611.532 1811.03L565.991 1843.06L1237.67 2787.44L1281.6 2752.5L1335.38 2832.17L1378.75 2804.86L1375.02 2798.94L1337.39 2822.63L1283.17 2742.3L1239.09 2777.36L575.774 1844.74L621.234 1812.77L572.2 1741.72ZM1807.58 2646.41L1812.19 2651.68L1751.81 2704.43L1571.89 2894.9H1509.14L1455.48 2939.18L1386.53 2824.71L1392.53 2821.09L1457.29 2928.62L1506.63 2887.9H1568.87L1746.95 2699.37L1807.58 2646.41Z" fill="#CD2027"></path></svg> 