<?xml version="1.0" encoding="UTF-8"?> <svg xmlns="http://www.w3.org/2000/svg" width="79" height="79" viewBox="0 0 79 79" fill="none"><circle cx="37.3125" cy="37.5254" r="36.5" fill="#9777A2" stroke="black"></circle><path d="M36.4691 30.4635L31.9791 27.0531C32.8054 26.8786 33.8484 26.7621 34.9342 26.8314C36.5007 26.9315 38.1025 27.4138 39.2929 28.6042C40.8579 30.1692 41.5334 31.6606 41.7488 33.0382C41.9659 34.4268 41.7232 35.7457 41.3726 36.9797L41.291 37.267L41.5053 37.4751L61.549 56.934L61.5387 58.8009L58.5884 61.7512L56.7215 61.7615L37.2626 41.7178L37.0545 41.5035L36.7672 41.5851C35.5332 41.9358 34.2142 42.1785 32.8256 41.9613C31.4481 41.7459 29.9566 41.0704 28.3917 39.5054C27.2013 38.3151 26.719 36.7132 26.6189 35.1468C26.5495 34.0609 26.6661 33.018 26.8406 32.1917L30.251 36.6816C31.2766 38.0318 33.2055 38.2738 34.5535 37.2409L34.5784 37.2243C34.6043 37.2071 34.6413 37.1821 34.6871 37.1508C34.7784 37.0884 34.905 37.0001 35.0469 36.8968C35.3247 36.6943 35.6831 36.4178 35.9442 36.1567C36.2053 35.8956 36.4818 35.5372 36.6842 35.2594C36.7876 35.1176 36.8758 34.9909 36.9383 34.8996C36.9485 34.8847 36.958 34.8708 36.9667 34.8579C36.985 34.831 37.0001 34.8084 37.0118 34.791L37.0284 34.766C38.0612 33.4181 37.8193 31.4892 36.4691 30.4635ZM51.0537 16.618L54.6009 20.1652L51.4952 23.271L51.1911 23.575L51.4463 23.9212C53.3828 26.5485 54.577 29.556 55.0297 32.6594L55.0925 33.0896L55.5273 33.0872L59.9245 33.0629L59.8966 38.1128L55.495 38.1371L55.0687 38.1395L55.0036 38.5608C54.7332 40.3123 54.2278 42.0367 53.4878 43.683L49.2271 39.4223C50.522 34.6621 49.3222 29.3822 45.6086 25.6686C40.0668 20.1268 31.0396 20.1823 25.4457 25.7761C19.8519 31.3699 19.7964 40.3972 25.3382 45.939C29.0998 49.7005 34.4684 50.8829 39.2762 49.5061L43.4927 53.7226C41.8398 54.4744 40.1071 54.9891 38.3465 55.2662L37.9266 55.3323L37.9243 55.7573L37.9002 60.1091L32.8504 60.137L32.8743 55.8072L32.8767 55.3712L32.4451 55.3095C29.3215 54.8631 26.2931 53.6662 23.6497 51.7177L23.3036 51.4626L22.9995 51.7666L19.9527 54.8134L16.4055 51.2663L19.4523 48.2195L19.7564 47.9154L19.5012 47.5692C17.5556 44.9296 16.3593 41.9062 15.9115 38.7875L15.8495 38.3561L15.4138 38.3585L11.1714 38.382L11.1993 33.3321L15.4594 33.3086L15.8848 33.3062L15.9506 32.886C16.4378 29.7766 17.6658 26.7538 19.6332 24.1027L19.8903 23.7562L19.5852 23.4512L16.5175 20.3834L20.112 16.789L23.1797 19.8567L23.4848 20.1618L23.8312 19.9047C26.4986 17.9252 29.5422 16.6942 32.6718 16.2132L33.0934 16.1484L33.0958 15.7218L33.1196 11.4118L38.1695 11.3839L38.1456 15.6937L38.1432 16.1282L38.5731 16.1912C41.6717 16.6455 44.6743 17.839 47.2978 19.7727L47.6439 20.0278L47.948 19.7238L51.0537 16.618Z" stroke="white"></path></svg> 