<?xml version="1.0" encoding="UTF-8"?> <svg xmlns="http://www.w3.org/2000/svg" xmlns:xlink="http://www.w3.org/1999/xlink" xmlns:svgjs="http://svgjs.dev/svgjs" id="Icon" viewBox="0 0 24 24" width="300" height="300" version="1.1"><g width="100%" height="100%" transform="matrix(1,0,0,1,0,0)"><path d="m19.372 10.315c-.191-.784-.762-1.376-1.469-1.634l-.023-.093c-.269-1.104-.95-2.037-1.921-2.627-.734-.447-1.566-.655-2.406-.615-.713-1.856-2.483-3.096-4.486-3.096-2.657 0-4.818 2.161-4.818 4.818v13.932c0 .414.336.75.75.75s.75-.336.75-.75v-13.932c0-1.83 1.488-3.318 3.318-3.318 1.311 0 2.475.772 3.01 1.946-1.872.802-2.958 2.856-2.462 4.901l.038.158c-.459.548-.667 1.294-.486 2.041.259 1.062 1.213 1.776 2.261 1.776.181 0 .365-.021.548-.066l5.684-1.381c1.246-.303 2.014-1.562 1.711-2.81zm-6.272-3.397c.217-.053.437-.079.654-.079.499 0 .989.137 1.427.403.543.33.946.827 1.158 1.417l-5.319 1.293c-.182-1.375.702-2.699 2.08-3.034zm4.208 4.75-5.684 1.381c-.442.106-.891-.166-.998-.607-.107-.442.165-.89.607-.997l5.685-1.382c.065-.016.13-.023.193-.023.372 0 .711.253.803.63.107.443-.165.89-.607.998zm-2.091 6.032c.14.391-.063.819-.454.958-.083.03-.168.044-.252.044-.309 0-.597-.191-.706-.498l-.672-1.884c-.14-.391.063-.819.454-.958.389-.14.819.064.958.454zm3.65-1.019c.14.391-.063.819-.454.958-.083.03-.168.044-.252.044-.309 0-.597-.191-.706-.498l-.672-1.884c-.14-.391.063-.819.454-.958.388-.142.819.064.958.454z" fill="#b8b8b8" fill-opacity="1" data-original-color="#000000ff" stroke="none" stroke-opacity="1"></path></g></svg> 