<?xml version="1.0" encoding="UTF-8"?> <svg xmlns="http://www.w3.org/2000/svg" width="1864" height="1848" viewBox="0 0 1864 1848" fill="none"><path fill-rule="evenodd" clip-rule="evenodd" d="M1583.71 0.606445L1584.06 0.612171C1610.22 1.04816 1663.34 14.7353 1696.75 62.6088L1691.01 66.6145C1659.37 21.2833 1608.99 8.1413 1584.28 7.61763L1422.78 36.8462L1389.12 73.4743L1319.78 106.842L1298.49 85.5497L936.869 190.504L608.449 263.597L608.13 263.609C592.461 264.193 568.83 265.043 548.865 265.697C538.883 266.024 529.811 266.303 523.105 266.475C519.754 266.56 516.982 266.62 514.98 266.645C513.981 266.658 513.155 266.662 512.537 266.657C512.23 266.654 511.951 266.648 511.718 266.639L511.706 266.638C511.648 266.636 511.557 266.632 511.446 266.624C511.418 266.627 511.388 266.631 511.355 266.636C511.051 266.675 510.593 266.742 509.971 266.838C508.732 267.03 506.929 267.325 504.598 267.719C499.939 268.504 493.22 269.671 484.796 271.154C467.951 274.12 444.317 278.345 416.77 283.3C361.678 293.21 290.952 306.041 227.626 317.563L226.373 310.676C289.7 299.154 360.432 286.322 415.531 276.41C443.08 271.455 466.724 267.228 483.582 264.26C492.01 262.777 498.749 261.606 503.433 260.816C505.773 260.421 507.614 260.119 508.9 259.92C509.54 259.821 510.065 259.744 510.453 259.694C510.643 259.669 510.834 259.647 511.002 259.632C511.083 259.624 511.197 259.615 511.322 259.611C511.339 259.611 511.611 259.596 511.961 259.642C511.975 259.643 511.991 259.644 512.01 259.645C512.087 259.648 512.191 259.651 512.324 259.653C512.405 259.655 512.497 259.656 512.601 259.657C513.143 259.662 513.91 259.658 514.891 259.646C516.848 259.621 519.584 259.562 522.926 259.477C529.606 259.306 538.658 259.028 548.635 258.701C568.452 258.052 591.887 257.209 607.551 256.626L935.131 183.719L1300.51 77.6736L1321.22 98.3813L1384.88 67.749L1419.22 30.3772L1583.71 0.606445ZM1706.25 94.9211C1705.17 92.2378 1704.03 89.6328 1702.84 87.1039L1709.17 84.1195C1710.42 86.7691 1711.61 89.4961 1712.75 92.3023C1741.15 162.716 1786.92 278.327 1806.26 327.327L1806.36 327.593L1863.58 592.622L1852.32 643.292L1591.43 1165.07L1583.41 1263.86L1532.2 1335.85L1461.64 1408.9L1435.55 1505.39L1446.45 1605.96L1462.37 1665.01L1443.51 1686.59L1455.28 1717.88L1448.72 1720.34L1435.48 1685.13L1454.63 1663.22L1439.55 1607.26L1428.45 1504.83L1455.36 1405.33L1526.8 1331.37L1576.59 1261.37L1584.57 1163.15L1845.68 640.932L1856.42 592.601L1799.64 329.63C1780.25 280.479 1734.6 165.18 1706.25 94.9211ZM141.103 333.329C162.715 329.385 187.836 324.805 214.627 319.929L213.373 313.042C184.922 318.221 158.353 323.064 135.871 327.169L131.897 327.894L159.394 409.886L73.2556 425.427L101.098 369.741L0.0163574 383.626L23.084 538.436L63.5875 658.446L82.9999 783.382V862.148L123.346 990.751L215.5 1110.8V1174.21L218.571 1174.59C399.511 1196.93 766.608 1242.58 788.885 1246.56C795.048 1247.66 801.705 1251.22 808.799 1257.34C815.876 1263.45 823.204 1271.95 830.698 1282.62C845.688 1303.97 861.077 1333.59 876.284 1368.99C900.76 1425.97 959.941 1537.31 986.428 1585.79L986.752 1586.38L1077.9 1661.6C1081.05 1673.35 1092.33 1712.52 1115.16 1785.65C1127.25 1824.39 1148.45 1841.39 1170.61 1846.19C1192.42 1850.93 1214.31 1843.66 1227.79 1835.62L1227.82 1835.6L1415.79 1718.31L1419.35 1714.23L1427.75 1735.4L1434.25 1732.82L1421.63 1700.99L1411.21 1712.92L1224.21 1829.61C1224.2 1829.61 1224.19 1829.62 1224.18 1829.62C1211.66 1837.08 1191.61 1843.59 1172.09 1839.35C1152.9 1835.19 1133.35 1820.43 1121.84 1783.57C1098.24 1707.97 1087.03 1668.81 1084.39 1658.72L1084.1 1657.63L992.248 1581.84C965.582 1533.01 906.941 1422.62 882.716 1366.23C867.422 1330.63 851.812 1300.51 836.427 1278.6C828.733 1267.65 821.03 1258.65 813.373 1252.04C805.732 1245.44 797.952 1241.07 790.115 1239.67C767.719 1235.67 404.283 1190.47 222.5 1168.02V1108.42L129.654 987.472L89.9999 861.076V782.841L70.4122 656.777L29.9157 536.788L7.98341 389.597L88.9015 378.482L60.7442 434.797L168.606 415.337L141.103 333.329Z" fill="#CD2027"></path></svg> 