<?xml version="1.0" encoding="UTF-8"?> <svg xmlns="http://www.w3.org/2000/svg" xmlns:xlink="http://www.w3.org/1999/xlink" version="1.1" id="Layer_1" x="0px" y="0px" width="164px" height="164px" viewBox="0 0 164 164" style="enable-background:new 0 0 164 164;" xml:space="preserve"> <style type="text/css"> .st0{fill:#9C4098;} </style> <path class="st0" d="M64.2,18.3c0.3-0.4,0.8-0.5,1.2-0.3l7.6,3.4c0.3,0.2,0.8,0.1,1-0.1l6.4-5.4c0.4-0.3,0.9-0.3,1.3,0l6.6,5.2 c0.3,0.2,0.7,0.3,1.1,0.1l7.6-3.6c0.4-0.2,0.9-0.1,1.2,0.3l5,6.7c0.2,0.3,0.6,0.5,1,0.4l8.2-1.6c0.5-0.1,0.9,0.2,1.1,0.6l3.2,7.7 c0.1,0.4,0.5,0.6,0.9,0.6l8.4,0.5c0.5,0,0.9,0.4,0.9,0.9l1.2,8.3c0.1,0.4,0.3,0.7,0.7,0.8l8,2.6c0.5,0.1,0.7,0.6,0.7,1.1l-0.9,8.3 c0,0.4,0.1,0.7,0.5,1l7.1,4.5c0.4,0.3,0.6,0.8,0.4,1.2l-2.9,7.8c-0.1,0.4-0.1,0.8,0.2,1l5.7,6.1c0.3,0.3,0.4,0.9,0.1,1.3l-4.8,6.9 c-0.2,0.3-0.2,0.7-0.1,1.1l4.1,7.3c0.2,0.4,0.1,0.9-0.2,1.2l-6.4,5.5c-0.3,0.2-0.4,0.6-0.3,1l2.1,8.1c0.1,0.5-0.1,0.9-0.5,1.1 l-7.5,3.7c-0.3,0.2-0.6,0.5-0.6,0.9v8.4c0,0.5-0.3,0.9-0.8,1l-8.2,1.7c-0.4,0.1-0.7,0.4-0.8,0.7l-2.1,8.1c-0.1,0.5-0.5,0.8-1,0.8 l-8.4-0.4c-0.4,0-0.7,0.2-0.9,0.5l-4,7.3c-0.2,0.4-0.7,0.6-1.2,0.5l-8-2.4c-0.4-0.1-0.8,0-1,0.3l-5.7,6.1c-0.3,0.3-0.8,0.4-1.3,0.2 l-7.2-4.4c-0.3-0.2-0.7-0.2-1.1,0l-7.1,4.5c-0.4,0.3-0.9,0.2-1.3-0.1l-5.8-6c-0.3-0.3-0.7-0.4-1-0.3l-8,2.6c-0.5,0.1-0.9,0-1.2-0.5 l-4.2-7.3c-0.2-0.3-0.6-0.5-0.9-0.5l-8.4,0.5c-0.5,0-0.9-0.3-1-0.7l-2.2-8.1c-0.1-0.4-0.4-0.6-0.8-0.7l-8.2-1.6 c-0.5-0.1-0.8-0.5-0.8-1l-0.2-8.4c0-0.4-0.2-0.7-0.6-0.9l-7.6-3.5c-0.4-0.2-0.7-0.7-0.5-1.1l1.9-8.2c0.1-0.4,0-0.8-0.3-1l-6.5-5.3 c-0.4-0.3-0.5-0.8-0.2-1.2l3.9-7.4c0.2-0.3,0.1-0.7-0.1-1.1L16,79c-0.3-0.4-0.3-0.9,0.1-1.3l5.6-6.2c0.3-0.3,0.3-0.7,0.2-1l-3.1-7.8 c-0.2-0.4,0-0.9,0.4-1.2l7-4.6c0.3-0.2,0.5-0.6,0.4-1l-1.1-8.3c-0.1-0.5,0.2-0.9,0.7-1.1l7.9-2.7c0.4-0.1,0.6-0.4,0.7-0.8l1-8.3 c0.1-0.5,0.4-0.8,0.9-0.9l8.3-0.7c0.4,0,0.7-0.3,0.8-0.6l3.1-7.8c0.2-0.4,0.6-0.7,1.1-0.6l8.3,1.4c0.4,0.1,0.8-0.1,1-0.4L64.2,18.3z "></path> </svg> 