<?xml version="1.0" encoding="UTF-8"?> <svg xmlns:svg="http://www.w3.org/2000/svg" xmlns:svgjs="http://svgjs.dev/svgjs" xmlns="http://www.w3.org/2000/svg" xmlns:xlink="http://www.w3.org/1999/xlink" version="1.1" id="svg1623" x="0px" y="0px" viewBox="0 0 300 300" style="enable-background:new 0 0 300 300;" xml:space="preserve"> <style type="text/css"> .st0{fill:none;stroke:#A386C2;stroke-width:17.5781;stroke-linecap:square;stroke-miterlimit:5.8594;} .st1{clip-path:url(#SVGID_00000023970931318095909450000012113968741391756684_);} </style> <g transform="matrix(1,0,0,1,0,0)"> <g id="g1629" transform="matrix(1.3333333,0,0,-1.3333333,0,682.66667)"> <path id="path1631" class="st0" d="M165.2,346.8H59.8v105.5h105.5V346.8z"></path> <g id="g1633"> <g> <defs> <rect id="SVGID_1_" x="-37.5" y="249.5" width="300" height="300"></rect> </defs> <clipPath id="SVGID_00000002361154489627003970000009375510762697811605_"> <use xlink:href="#SVGID_1_" style="overflow:visible;"></use> </clipPath> <g id="g1635" style="clip-path:url(#SVGID_00000002361154489627003970000009375510762697811605_);"> <g id="g1641" transform="translate(437,437)"> <path id="path1643" class="st0" d="M-245,42l19.8,19.8"></path> </g> <g id="g1645" transform="translate(437,497)"> <path id="path1647" class="st0" d="M-245,8.4h26.4V-18"></path> </g> <g id="g1649" transform="translate(75,437)"> <path id="path1651" class="st0" d="M-42,42l-19.8,19.8"></path> </g> <g id="g1653" transform="translate(75,497)"> <path id="path1655" class="st0" d="M-42,8.4h-26.4V-18"></path> </g> <g id="g1657" transform="translate(437,75)"> <path id="path1659" class="st0" d="M-245,245l19.8-19.8"></path> </g> <g id="g1661" transform="translate(437,15)"> <path id="path1663" class="st0" d="M-245,278.6h26.4V305"></path> </g> <g id="g1665" transform="translate(75,75)"> <path id="path1667" class="st0" d="M-42,245l-19.8-19.8"></path> </g> <g id="g1669" transform="translate(75,15)"> <path id="path1671" class="st0" d="M-42,278.6h-26.4V305"></path> </g> </g> <use xlink:href="#SVGID_1_" style="overflow:visible;fill:none;stroke:#A386C2;stroke-miterlimit:10;"></use> </g> </g> </g> </g> </svg> 