<?xml version="1.0" encoding="UTF-8"?> <svg xmlns="http://www.w3.org/2000/svg" xmlns:xlink="http://www.w3.org/1999/xlink" version="1.1" id="Layer_1" x="0px" y="0px" width="314.2px" height="106.2px" viewBox="0 0 314.2 106.2" style="enable-background:new 0 0 314.2 106.2;" xml:space="preserve"> <style type="text/css"> .st0{clip-path:url(#SVGID_2_);fill:url(#SVGID_3_);} .st1{clip-path:url(#SVGID_5_);fill:url(#SVGID_6_);} .st2{clip-path:url(#SVGID_8_);fill:url(#SVGID_9_);} .st3{clip-path:url(#SVGID_11_);fill:url(#SVGID_12_);} .st4{clip-path:url(#SVGID_14_);fill:url(#SVGID_15_);} .st5{clip-path:url(#SVGID_17_);fill:url(#SVGID_18_);} .st6{clip-path:url(#SVGID_20_);fill:url(#SVGID_21_);} .st7{clip-path:url(#SVGID_23_);fill:url(#SVGID_24_);} .st8{clip-path:url(#SVGID_26_);fill:url(#SVGID_27_);} .st9{display:none;} .st10{display:inline;} .st11{display:inline;clip-path:url(#SVGID_29_);} .st12{clip-path:url(#SVGID_31_);fill:url(#SVGID_32_);} .st13{clip-path:url(#SVGID_34_);fill:url(#SVGID_35_);} .st14{clip-path:url(#SVGID_37_);fill:url(#SVGID_38_);} .st15{clip-path:url(#SVGID_40_);fill:url(#SVGID_41_);} .st16{clip-path:url(#SVGID_43_);fill:url(#SVGID_44_);} .st17{fill:none;} </style> <g> <defs> <polygon id="SVGID_1_" points="23.8,68.1 13.9,91.6 32.7,91.6 35.1,85.8 25.1,72.8 "></polygon> </defs> <clipPath id="SVGID_2_"> <use xlink:href="#SVGID_1_" style="overflow:visible;"></use> </clipPath> <linearGradient id="SVGID_3_" gradientUnits="userSpaceOnUse" x1="-57" y1="266.1061" x2="-56" y2="266.1061" gradientTransform="matrix(-19.2564 20.0371 20.0371 19.2564 -6392.4727 -3915.4514)"> <stop offset="0" style="stop-color:#D2DFE8"></stop> <stop offset="2.040820e-02" style="stop-color:#D2DFE8"></stop> <stop offset="0.1888" style="stop-color:#DEE7F5"></stop> <stop offset="0.3504" style="stop-color:#CED9ED"></stop> <stop offset="0.5865" style="stop-color:#BBC9E4"></stop> <stop offset="1" style="stop-color:#E1EFFA"></stop> </linearGradient> <polygon class="st0" points="46.9,79.4 24.9,102.2 2.1,80.3 24.1,57.5 "></polygon> </g> <g> <defs> <polygon id="SVGID_4_" points="42.4,68.3 44.4,77.6 63.4,77.6 61.8,73.9 "></polygon> </defs> <clipPath id="SVGID_5_"> <use xlink:href="#SVGID_4_" style="overflow:visible;"></use> </clipPath> <linearGradient id="SVGID_6_" gradientUnits="userSpaceOnUse" x1="-57" y1="266.3183" x2="-56" y2="266.3183" gradientTransform="matrix(15.0929 2.8624 2.8624 -15.0929 141.6897 4253.9028)"> <stop offset="0" style="stop-color:#8A7EBB"></stop> <stop offset="1" style="stop-color:#B8C4E5"></stop> </linearGradient> <polygon class="st1" points="43.1,64.5 65.1,68.6 62.7,81.5 40.7,77.3 "></polygon> </g> <g> <defs> <polygon id="SVGID_7_" points="46.4,42.9 39.7,30.7 30.7,51.8 39.1,61.7 "></polygon> </defs> <clipPath id="SVGID_8_"> <use xlink:href="#SVGID_7_" style="overflow:visible;"></use> </clipPath> <linearGradient id="SVGID_9_" gradientUnits="userSpaceOnUse" x1="-57" y1="266.2263" x2="-56" y2="266.2263" gradientTransform="matrix(13.2713 -5.9851 -5.9851 -13.2713 2379.8716 3242.0762)"> <stop offset="0" style="stop-color:#4473B9"></stop> <stop offset="0.3278" style="stop-color:#7390C7"></stop> <stop offset="0.6245" style="stop-color:#95ADD5"></stop> <stop offset="0.8582" style="stop-color:#ACC0DE"></stop> <stop offset="1" style="stop-color:#B5C8E1"></stop> </linearGradient> <polygon class="st2" points="19.1,35.9 43.8,24.8 58.1,56.5 33.4,67.6 "></polygon> </g> <g> <defs> <polygon id="SVGID_10_" points="59.5,69.1 48.8,47.6 42.4,64.2 "></polygon> </defs> <clipPath id="SVGID_11_"> <use xlink:href="#SVGID_10_" style="overflow:visible;"></use> </clipPath> <linearGradient id="SVGID_12_" gradientUnits="userSpaceOnUse" x1="-57" y1="266.322" x2="-56" y2="266.322" gradientTransform="matrix(13.0111 14.5724 14.5724 -13.0111 -3092.5508 4349.5142)"> <stop offset="0" style="stop-color:#A1B4D5"></stop> <stop offset="1.254678e-03" style="stop-color:#A1B4D5"></stop> <stop offset="0.1373" style="stop-color:#B9C8E0"></stop> <stop offset="0.2863" style="stop-color:#CCD8E9"></stop> <stop offset="0.4558" style="stop-color:#DBE4F0"></stop> <stop offset="0.6609" style="stop-color:#E3EBF4"></stop> <stop offset="1" style="stop-color:#E6EDF5"></stop> </linearGradient> <polygon class="st3" points="51.9,39.2 70.1,59.6 50,77.6 31.7,57.2 "></polygon> </g> <g> <defs> <polygon id="SVGID_13_" points="66.8,75.5 73.9,91.8 89.5,83.3 "></polygon> </defs> <clipPath id="SVGID_14_"> <use xlink:href="#SVGID_13_" style="overflow:visible;"></use> </clipPath> <linearGradient id="SVGID_15_" gradientUnits="userSpaceOnUse" x1="-57" y1="266.3354" x2="-56" y2="266.3354" gradientTransform="matrix(-13.0111 15.8735 15.8735 13.0111 -4882.1011 -2487.9236)"> <stop offset="0" style="stop-color:#C2B0D6"></stop> <stop offset="0.2935" style="stop-color:#9F9EC8"></stop> <stop offset="0.5102" style="stop-color:#8391C0"></stop> <stop offset="0.7986" style="stop-color:#B1B8D9"></stop> <stop offset="1" style="stop-color:#D1D4EB"></stop> </linearGradient> <polygon class="st4" points="97.5,82.1 80.4,103 58.8,85.3 75.9,64.4 "></polygon> </g> <g> <defs> <polygon id="SVGID_16_" points="62.7,20.9 58.1,20.9 50.8,42.6 50.8,42.6 50.8,42.7 64.6,70.6 64.6,70.6 64.6,70.6 86.9,78.2 "></polygon> </defs> <clipPath id="SVGID_17_"> <use xlink:href="#SVGID_16_" style="overflow:visible;"></use> </clipPath> <linearGradient id="SVGID_18_" gradientUnits="userSpaceOnUse" x1="-57" y1="266.2798" x2="-56" y2="266.2798" gradientTransform="matrix(19.5166 42.6764 42.6764 -19.5166 -10187.9492 7667.2354)"> <stop offset="0" style="stop-color:#CBBBDC"></stop> <stop offset="0.1097" style="stop-color:#CEC3E0"></stop> <stop offset="0.4716" style="stop-color:#D8DCEC"></stop> <stop offset="0.7811" style="stop-color:#DEEBF4"></stop> <stop offset="1" style="stop-color:#E1F3F8"></stop> </linearGradient> <polygon class="st5" points="80.7,7.2 108.6,68.3 57,91.8 29.1,30.8 "></polygon> </g> <g> <defs> <polygon id="SVGID_19_" points="90.7,87.1 82.5,91.6 92.5,91.6 "></polygon> </defs> <clipPath id="SVGID_20_"> <use xlink:href="#SVGID_19_" style="overflow:visible;"></use> </clipPath> <linearGradient id="SVGID_21_" gradientUnits="userSpaceOnUse" x1="-57" y1="266.2032" x2="-56" y2="266.2032" gradientTransform="matrix(10.0248 0 0 -10.0248 653.937 2757.9668)"> <stop offset="0" style="stop-color:#8777A8"></stop> <stop offset="0.2673" style="stop-color:#8879AA"></stop> <stop offset="0.516" style="stop-color:#8A80B0"></stop> <stop offset="0.7573" style="stop-color:#8E8DBC"></stop> <stop offset="0.9927" style="stop-color:#949FD0"></stop> <stop offset="1" style="stop-color:#94A0D1"></stop> </linearGradient> <rect x="82.5" y="87.1" class="st6" width="10" height="4.5"></rect> </g> <g> <defs> <polygon id="SVGID_22_" points="37.9,66.4 23.2,49 23.2,49 28.6,70.8 42.8,88.7 42.8,88.7 "></polygon> </defs> <clipPath id="SVGID_23_"> <use xlink:href="#SVGID_22_" style="overflow:visible;"></use> </clipPath> <linearGradient id="SVGID_24_" gradientUnits="userSpaceOnUse" x1="-57" y1="266.1901" x2="-56" y2="266.1901" gradientTransform="matrix(14.5724 25.5018 25.5018 -14.5724 -5932.4385 5387.9575)"> <stop offset="0" style="stop-color:#D9CCDC"></stop> <stop offset="0.4778" style="stop-color:#D7CBDC"></stop> <stop offset="0.6498" style="stop-color:#D1CADE"></stop> <stop offset="0.7721" style="stop-color:#C5C7E0"></stop> <stop offset="0.8516" style="stop-color:#B8C4E5"></stop> <stop offset="1" style="stop-color:#B8C4E5"></stop> </linearGradient> <polygon class="st7" points="38,40.5 59.9,78.9 28,97.2 6,58.8 "></polygon> </g> <g> <defs> <polygon id="SVGID_25_" points="48.2,37.9 55.9,15.4 55.8,15.4 39.6,22.4 39.6,22.4 "></polygon> </defs> <clipPath id="SVGID_26_"> <use xlink:href="#SVGID_25_" style="overflow:visible;"></use> </clipPath> <linearGradient id="SVGID_27_" gradientUnits="userSpaceOnUse" x1="-57" y1="266.3896" x2="-56" y2="266.3896" gradientTransform="matrix(-5.4647 -14.052 -14.052 5.4647 3483.0483 -2221.0684)"> <stop offset="0" style="stop-color:#8A7EBB"></stop> <stop offset="1" style="stop-color:#B8C4E5"></stop> </linearGradient> <polygon class="st8" points="41.8,43.4 32,18.4 53.7,9.9 63.5,35 "></polygon> </g> <g class="st9"> <defs> <rect id="SVGID_28_" x="-57" y="-159" width="425.2" height="425.2"></rect> </defs> <clipPath id="SVGID_29_" class="st10"> <use xlink:href="#SVGID_28_" style="overflow:visible;"></use> </clipPath> <path class="st11" d="M113.5,79h0.7c1.3-1.4,2.2-4.2,2.9-8.2h6V79h1.5V84h-2.4v-2.9h-6.3V84h-2.4V79z M120.6,72.8h-1.7 c-0.4,2.5-1.1,4.8-2.1,6.2v0h3.7V72.8z"></path> <polygon class="st11" points="132.8,70.9 139.2,70.9 138.6,72.9 135.3,72.9 135.3,74.9 138.6,74.9 138.6,76.9 135.3,76.9 135.3,79.1 139.2,79.1 139.2,81.1 132.8,81.1 "></polygon> <path class="st11" d="M147.8,70.9h3.6c2.3,0,3.4,1.3,3.4,2.6c0,0.8-0.4,1.6-1.2,2v0c1.3,0.3,2,1.3,2,2.4c0,1.5-1.3,3.1-3.8,3.1 h-3.9V70.9z M151,74.9c0.9,0,1.3-0.5,1.3-1.1c0-0.6-0.4-1.1-1.4-1.1h-0.7v2.1H151z M151.3,79.1c1.2,0,1.7-0.4,1.7-1.2 c0-0.7-0.6-1.1-1.5-1.1h-1.2v2.3H151.3z"></path> <polygon class="st11" points="163.8,70.9 170.3,70.9 169.6,72.9 166.3,72.9 166.3,74.9 169.7,74.9 169.7,76.9 166.3,76.9 166.3,79.1 170.2,79.1 170.2,81.1 163.8,81.1 "></polygon> <path class="st11" d="M178,81.1v-2.2c0.1,0,0.3,0,0.3,0c0.4,0,0.8-0.2,1.1-0.6c0.9-1.1,1.4-3.7,1.8-7.5h6.2v10.2h-2.5v-8.3h-1.7 c-0.4,3.6-1.1,6.1-2.1,7.3c-0.6,0.7-1.4,1-2.5,1C178.5,81.1,178.2,81.1,178,81.1"></path> <path class="st11" d="M195.9,76c0-3.1,2.3-5.2,5.5-5.2c3.3,0,5.5,2.1,5.5,5.2c0,3.1-2.3,5.2-5.5,5.2 C198.2,81.2,195.9,79.1,195.9,76 M204.3,76c0-2.2-1.2-3.3-2.9-3.3s-2.9,1.1-2.9,3.3c0,2.2,1.2,3.3,2.9,3.3S204.3,78.1,204.3,76"></path> <polygon class="st11" points="215.5,70.9 224.6,70.9 224.6,81.1 222.1,81.1 222.1,72.9 218,72.9 218,81.1 215.5,81.1 "></polygon> <path class="st11" d="M233.5,70.9h2.2l2.7,3.6c0.3,0.4,0.6,0.8,0.8,1.2h0c0.2-0.4,0.5-0.8,0.8-1.3l2.4-3.5h2.3v10.2h-2.5v-5.2 c0-0.4,0-0.8,0-1.1h0c-0.1,0.2-0.5,0.8-0.7,1.1l-1.7,2.5h-1.1l-2-2.6c-0.2-0.3-0.5-0.6-0.7-1h0c0,0.3,0,0.7,0,1v5.3h-2.5V70.9z"></path> <polygon class="st11" points="253.6,70.9 260,70.9 259.4,72.9 256.1,72.9 256.1,74.9 259.5,74.9 259.5,76.9 256.1,76.9 256.1,79.1 260,79.1 260,81.1 253.6,81.1 "></polygon> <polygon class="st11" points="268.6,70.9 271.1,70.9 271.1,74.9 275.7,74.9 275.7,70.9 278.2,70.9 278.2,81.1 275.7,81.1 275.7,76.9 271.1,76.9 271.1,81.1 268.6,81.1 "></polygon> <polygon class="st11" points="289.2,72.9 286.1,72.9 286.1,70.9 295.1,70.9 294.4,72.9 291.7,72.9 291.7,81.1 289.2,81.1 "></polygon> </g> <g> <defs> <path id="SVGID_30_" d="M128.7,45.6l3.2,7.6h-6.5L128.7,45.6z M125.1,36.9l-11.6,27.4h7.3l2.3-5.4h11.3l2.3,5.4h7.3l-11.6-27.4 H125.1z"></path> </defs> <clipPath id="SVGID_31_"> <use xlink:href="#SVGID_30_" style="overflow:visible;"></use> </clipPath> <linearGradient id="SVGID_32_" gradientUnits="userSpaceOnUse" x1="-57" y1="266.2062" x2="-56" y2="266.2062" gradientTransform="matrix(187.1313 18.291 18.291 -187.1313 5901.7163 50906.3984)"> <stop offset="0" style="stop-color:#A7C2DF"></stop> <stop offset="1" style="stop-color:#A598C9"></stop> </linearGradient> <polygon class="st12" points="113.8,34 146.7,37.2 143.7,67.3 110.8,64.1 "></polygon> </g> <g> <defs> <polygon id="SVGID_33_" points="153.9,36.9 153.9,64.4 161.2,64.4 161.2,57.2 169.2,51.3 175.4,64.4 182.8,64.4 174.7,47.3 183.3,41.1 177.6,37 161.2,48.8 161.2,36.9 "></polygon> </defs> <clipPath id="SVGID_34_"> <use xlink:href="#SVGID_33_" style="overflow:visible;"></use> </clipPath> <linearGradient id="SVGID_35_" gradientUnits="userSpaceOnUse" x1="-57" y1="266.2047" x2="-56" y2="266.2047" gradientTransform="matrix(187.1313 18.291 18.291 -187.1313 5902.1201 50902.2656)"> <stop offset="0" style="stop-color:#A7C2DF"></stop> <stop offset="1" style="stop-color:#A598C9"></stop> </linearGradient> <polygon class="st13" points="154.2,34.1 185.9,37.2 183,67.2 151.2,64.1 "></polygon> </g> <g> <defs> <polygon id="SVGID_36_" points="194,36.9 195,42.7 203.7,42.7 203.7,64.4 211,64.4 211,42.7 221.6,42.7 220.7,36.9 "></polygon> </defs> <clipPath id="SVGID_37_"> <use xlink:href="#SVGID_36_" style="overflow:visible;"></use> </clipPath> <linearGradient id="SVGID_38_" gradientUnits="userSpaceOnUse" x1="-57" y1="266.2009" x2="-56" y2="266.2009" gradientTransform="matrix(187.1313 18.291 18.291 -187.1313 5902.561 50897.7578)"> <stop offset="0" style="stop-color:#A7C2DF"></stop> <stop offset="1" style="stop-color:#A598C9"></stop> </linearGradient> <polygon class="st14" points="194.3,34.3 224.3,37.2 221.4,67.1 191.3,64.1 "></polygon> </g> <g> <defs> <polygon id="SVGID_39_" points="252.9,36.9 252.9,39.5 240,48.8 240,36.9 232.7,36.9 232.7,64.4 240,64.4 240,57.2 252.9,47.8 252.9,64.4 260.2,64.4 260.2,36.9 "></polygon> </defs> <clipPath id="SVGID_40_"> <use xlink:href="#SVGID_39_" style="overflow:visible;"></use> </clipPath> <linearGradient id="SVGID_41_" gradientUnits="userSpaceOnUse" x1="-57" y1="266.2032" x2="-56" y2="266.2032" gradientTransform="matrix(187.1313 18.291 18.291 -187.1313 5902.8853 50894.4375)"> <stop offset="0" style="stop-color:#A7C2DF"></stop> <stop offset="1" style="stop-color:#A598C9"></stop> </linearGradient> <polygon class="st15" points="233,34.3 262.9,37.2 260,67 230,64.1 "></polygon> </g> <g> <defs> <path id="SVGID_42_" d="M279.4,53.1h6.4c1.2,0,2.2,0.3,2.9,0.8c0.7,0.5,1,1.2,1,2.1c0,0.8-0.4,1.5-1,1.9s-1.6,0.7-2.8,0.7h-6.4 V53.1z M279.4,42.7h5.2c1.2,0,2.2,0.2,2.9,0.6c0.7,0.4,1,1,1,1.9c0,0.7-0.4,1.2-1.2,1.6c-0.8,0.4-1.8,0.5-3,0.5h-4.9V42.7z M272.1,36.9v27.4h13.6c3.4,0,6.1-0.6,8.3-1.9c2.2-1.3,3.3-3.4,3.3-6.3c0-1.3-0.3-2.4-1-3.5c-0.7-1.1-1.6-2-2.7-2.8 c0.8-0.8,1.4-1.6,1.9-2.3c0.5-0.8,0.7-1.7,0.7-2.6c0-2.6-1.1-4.6-3.2-5.9c-2.1-1.3-4.8-2-8.1-2H272.1z"></path> </defs> <clipPath id="SVGID_43_"> <use xlink:href="#SVGID_42_" style="overflow:visible;"></use> </clipPath> <linearGradient id="SVGID_44_" gradientUnits="userSpaceOnUse" x1="-57" y1="266.2061" x2="-56" y2="266.2061" gradientTransform="matrix(187.1313 18.291 18.291 -187.1313 5903.1938 50891.2852)"> <stop offset="0" style="stop-color:#A7C2DF"></stop> <stop offset="1" style="stop-color:#A598C9"></stop> </linearGradient> <polygon class="st16" points="272.3,34.5 300,37.2 297.1,66.8 269.4,64.1 "></polygon> </g> <polyline class="st17" points="297.4,-89.5 297.4,93.9 113.7,93.9 113.7,-89.5 "></polyline> <polyline class="st17" points="297.4,-89.5 297.4,93.9 113.7,93.9 113.7,-89.5 "></polyline> <g> <path d="M129.3,70.4h9V81h-2.5v-8.5h-4.1V81h-2.5V70.4z"></path> <path d="M150,75.7c0-3.2,2.2-5.5,5.5-5.5c3.2,0,5.5,2.2,5.5,5.5s-2.2,5.5-5.5,5.5C152.2,81.2,150,78.9,150,75.7z M158.3,75.7 c0-2.3-1.2-3.4-2.9-3.4c-1.7,0-2.9,1.1-2.9,3.4s1.2,3.4,2.9,3.4C157.1,79.1,158.3,78,158.3,75.7z"></path> <path d="M172.6,70.4h2.5v4.2h0.9c1.4,0,1.5-1.9,2.3-3.3c0.5-0.8,1.1-1.1,2-1.1c0.4,0,0.9,0.1,1.3,0.2v2.1c-0.3-0.1-0.5-0.1-0.7-0.1 c-0.3,0-0.6,0.1-0.7,0.4c-0.5,0.7-0.8,2.1-1.6,2.7v0c0.4,0.2,0.7,0.4,1.1,1.1l2.2,4.4h-2.9l-1.5-3.4c-0.4-0.9-0.6-1-0.9-1h-1.4V81 h-2.5V70.4z"></path> <path d="M193,70.4h3c1,0,1.8,0.1,2.4,0.4c1.2,0.5,1.9,1.6,1.9,3.1c0,1.2-0.5,2.6-2.2,3.2c-0.6,0.2-1.4,0.4-2.3,0.4h-0.3V81H193 V70.4z M195.9,75.5c0.4,0,0.8,0,1-0.2c0.5-0.2,0.8-0.7,0.8-1.4c0-0.5-0.2-1.1-0.7-1.4c-0.3-0.2-0.6-0.2-1.1-0.2h-0.4v3.2H195.9z"></path> <path d="M211.5,75.7c0-3.2,2.2-5.5,5.5-5.5s5.5,2.2,5.5,5.5s-2.2,5.5-5.5,5.5S211.5,78.9,211.5,75.7z M219.9,75.7 c0-2.3-1.2-3.4-2.9-3.4s-2.9,1.1-2.9,3.4s1.2,3.4,2.9,3.4S219.9,78,219.9,75.7z"></path> <path d="M234.2,70.4h3.6c2.3,0,3.3,1.4,3.3,2.7c0,0.8-0.4,1.7-1.2,2.1v0c1.3,0.4,2,1.4,2,2.5c0,1.6-1.3,3.2-3.8,3.2h-3.8V70.4z M237.4,74.6c0.9,0,1.3-0.5,1.3-1.1c0-0.6-0.4-1.1-1.4-1.1h-0.7v2.2H237.4z M237.6,79c1.2,0,1.7-0.4,1.7-1.3c0-0.7-0.5-1.1-1.5-1.1 h-1.2V79H237.6z"></path> <path d="M253.3,70.4h2.5v4.2h0.9c1.4,0,1.5-1.9,2.3-3.3c0.5-0.8,1.1-1.1,2-1.1c0.4,0,0.9,0.1,1.3,0.2v2.1c-0.3-0.1-0.5-0.1-0.7-0.1 c-0.3,0-0.6,0.1-0.7,0.4c-0.5,0.7-0.8,2.1-1.6,2.7v0c0.4,0.2,0.7,0.4,1.1,1.1l2.2,4.4h-2.9l-1.5-3.4c-0.4-0.9-0.6-1-0.9-1h-1.4V81 h-2.5V70.4z"></path> <path d="M276.7,70.3h2l4.4,10.7h-2.6l-1-2.5H276l-1,2.5h-2.5L276.7,70.3z M278.7,76.5l-0.5-1.5c-0.2-0.7-0.4-1.2-0.5-1.5h0 c-0.1,0.4-0.2,0.8-0.5,1.5l-0.5,1.5H278.7z"></path> </g> <polygon points="113.7,70.4 120.1,75.6 113.7,80.8 "></polygon> <polygon points="297.4,80.8 291,75.6 297.4,70.4 "></polygon> <polyline class="st17" points="297.4,-89.5 297.4,93.9 113.7,93.9 113.7,-89.5 "></polyline> </svg> 