<?xml version="1.0" encoding="UTF-8"?> <svg xmlns="http://www.w3.org/2000/svg" xmlns:xlink="http://www.w3.org/1999/xlink" xmlns:svgjs="http://svgjs.dev/svgjs" id="line_copy" height="300" viewBox="0 0 64 64" width="300" data-name="line copy" version="1.1"><g width="100%" height="100%" transform="matrix(1,0,0,1,0,0)"><linearGradient id="linear-gradient" gradientUnits="userSpaceOnUse" x1="8.09" x2="55.9" y1="32" y2="32"><stop stop-opacity="1" stop-color="#9c4399" offset="0.02"></stop><stop stop-opacity="1" stop-color="#93c1cc" offset="1"></stop></linearGradient><path d="m53.06 4h-36.92a2.85515 2.85515 0 0 0 -2.85 2.85v1.3h-2.35a2.85515 2.85515 0 0 0 -2.85 2.85v46.15a2.85515 2.85515 0 0 0 2.85 2.85h36.93a2.85311 2.85311 0 0 0 2.84-2.85v-1.3h2.35a2.84661 2.84661 0 0 0 2.84-2.85v-46.15a2.84661 2.84661 0 0 0 -2.84-2.85zm-6.38 3.6 5.97 6.56h-5.13a.84722.84722 0 0 1 -.84-.85zm2.03 49.55a.8605.8605 0 0 1 -.84.85h-36.93a.84925.84925 0 0 1 -.85-.85v-46.15a.84926.84926 0 0 1 .85-.85h2.35v42.85a2.85515 2.85515 0 0 0 2.85 2.85h32.57zm5.19-4.15a.84082.84082 0 0 1 -.84.85h-36.92a.8493.8493 0 0 1 -.85-.85v-46.15a.84929.84929 0 0 1 .85-.85h28.54v7.31a2.84661 2.84661 0 0 0 2.84 2.85h6.38zm0-40.43-5.97-6.57h5.13a.84081.84081 0 0 1 .84.85zm-35.879 7.00715h6.231a1.00005 1.00005 0 0 0 1-1v-6.231a1.00005 1.00005 0 0 0 -1-1h-6.231a1.00005 1.00005 0 0 0 -1 1v6.231a1.00005 1.00005 0 0 0 1 1zm1-6.231h4.231v4.231h-4.231zm-1.03858 9.42285h33.231a1 1 0 0 1 0 2h-33.231a1 1 0 0 1 0-2zm34.231 9a1 1 0 0 1 -1 1h-33.231a1 1 0 1 1 0-2h33.231a1.00005 1.00005 0 0 1 .99996 1zm-12.46142 8.15385a1 1 0 0 1 -1 1h-20.76958a1 1 0 0 1 0-2h20.76958a1.00005 1.00005 0 0 1 1 1zm0 8a1 1 0 0 1 -1 1h-20.76958a1 1 0 0 1 0-2h20.76958a1.00005 1.00005 0 0 1 1 1z" fill="url(#linear-gradient)" data-original-color="linear-gradient" stroke="none" stroke-opacity="1"></path></g></svg> 