<?xml version="1.0" encoding="UTF-8"?> <svg xmlns="http://www.w3.org/2000/svg" width="75" height="75" viewBox="0 0 75 75" fill="none"><circle cx="37.3125" cy="37.416" r="36.5" fill="#9777A2" stroke="black"></circle><path d="M21.1187 30.9657L19.1713 21.9538C19.0533 21.6534 18.534 21.0526 17.4009 21.0526C15.9847 21.0526 16.1617 22.134 16.1617 22.4945C16.1617 22.656 17.0132 27.1976 18.0009 32.4077M20.2335 44.1232C21.0006 43.5825 23.066 42.5011 25.1905 42.5011L33.511 32.243M20.2335 44.1232C16.1617 46.8268 10.6736 55.2981 14.7454 59.2634M20.2335 44.1232C20.1064 43.4593 19.9674 42.7326 19.8198 41.9604M14.7454 59.2634C18.8172 63.2286 27.4919 61.6065 30.3245 55.2981C32.5905 50.2514 31.0326 45.7454 29.9704 44.1232L34.2024 38.8963M14.7454 59.2634C17.1649 60.1045 22.7761 58.776 25.7215 55.2981C28.7638 51.7058 29.2622 46.2861 27.6689 43.4023L50.6833 14.9491M50.6833 14.9491C49.8519 14.2877 48.6262 14.3487 47.8509 14.5639L33.511 32.243M50.6833 14.9491C51.2442 15.3952 51.6256 16.17 51.5686 17.4478L39.456 32.4077M18.0009 32.4077L33.511 32.243M18.0009 32.4077C18.4058 34.5434 18.8335 36.7915 19.2349 38.8963M19.2349 38.8963H27.1378M19.2349 38.8963C19.4388 39.9658 19.636 40.9984 19.8198 41.9604M19.8198 41.9604H24.8363M21.1187 33.3089L22.3579 37.9951M26.7837 33.3089L27.6689 37.9951M33.1569 43.4023V54.0364M31.2096 55.2981H38.9991M29.0852 58.1819H38.9991M26.7837 61.246H38.9991M56.3485 30.9658L58.2958 21.9538C58.4139 21.6534 58.9332 21.0526 60.0662 21.0526C61.4825 21.0526 61.3054 22.134 61.3054 22.4945C61.3054 22.656 60.4539 27.1976 59.4662 32.4077M59.4662 32.4077C59.0613 34.5434 58.6336 36.7915 58.2322 38.8963M59.4662 32.4077H39.456M58.2322 38.8963H50.3293H34.2024M58.2322 38.8963C58.0283 39.9659 57.8312 40.9984 57.6473 41.9604M57.6473 41.9604C57.4997 42.7326 57.3607 43.4593 57.2336 44.1232L54.9529 55.2981M57.6473 41.9604H52.6308M56.3485 33.3089L55.1093 37.9951M50.6834 33.3089L49.7982 37.9951M44.3102 43.4023V54.0364M38.468 55.2981H46.2575H54.9529M38.468 58.182H48.382H54.366M38.468 61.246H50.6834C53.0979 61.246 54.1148 59.306 54.366 58.182M39.456 32.4077L38.7264 33.3089M34.2024 38.8963L38.7264 33.3089M38.7264 33.3089V37.9951M44.8412 33.3089V37.6346M49.4441 43.0418L47.4967 53.6759M54.5781 43.4023L51.9226 53.6759M54.366 58.182C54.3801 58.1192 54.3917 58.0589 54.4011 58.0017L54.9529 55.2981M38.7264 43.4023V53.6759M24.8363 45.2047C23.4791 45.2648 20.198 46.1419 17.932 49.17C15.0994 52.955 14.9224 56.1993 17.0468 56.9203C19.1713 57.6412 22.5349 55.6586 24.8363 52.4143C27.1378 49.17 26.4296 44.9141 24.8363 45.2047Z" stroke="white"></path></svg> 