<?xml version="1.0" encoding="UTF-8"?> <svg xmlns="http://www.w3.org/2000/svg" width="527" height="101" viewBox="0 0 527 101" fill="none"><rect x="2.25391" y="1.91602" width="523" height="97" rx="48.5" fill="#FFFBEF" stroke="#DBB391" stroke-width="3"></rect><circle cx="50.7534" cy="50.416" r="36.5" fill="#F6FDDF" stroke="black"></circle><path d="M77.8502 49.5213H75.1405V41.4686C75.1405 40.7568 74.855 40.074 74.3469 39.5706C73.8387 39.0672 73.1495 38.7844 72.4308 38.7844H67.9147V36.1002C67.9147 35.3883 67.6292 34.7056 67.1211 34.2022C66.6129 33.6988 65.9237 33.416 65.205 33.416H59.7857C59.067 33.416 58.3778 33.6988 57.8696 34.2022C57.3615 34.7056 57.076 35.3883 57.076 36.1002V49.5213H44.4308V36.1002C44.4308 35.3883 44.1454 34.7056 43.6372 34.2022C43.129 33.6988 42.4398 33.416 41.7212 33.416H36.3018C35.5832 33.416 34.8939 33.6988 34.3858 34.2022C33.8776 34.7056 33.5921 35.3883 33.5921 36.1002V38.7844H29.076C28.3573 38.7844 27.6681 39.0672 27.16 39.5706C26.6518 40.074 26.3663 40.7568 26.3663 41.4686V49.5213H23.6566C23.4171 49.5213 23.1874 49.6155 23.018 49.7833C22.8486 49.9511 22.7534 50.1787 22.7534 50.416C22.7534 50.6533 22.8486 50.8809 23.018 51.0487C23.1874 51.2165 23.4171 51.3108 23.6566 51.3108H26.3663V59.3634C26.3663 60.0753 26.6518 60.758 27.16 61.2614C27.6681 61.7648 28.3573 62.0476 29.076 62.0476H33.5921V64.7318C33.5921 65.4437 33.8776 66.1264 34.3858 66.6298C34.8939 67.1332 35.5832 67.416 36.3018 67.416H41.7212C42.4398 67.416 43.129 67.1332 43.6372 66.6298C44.1454 66.1264 44.4308 65.4437 44.4308 64.7318V51.3108H57.076V64.7318C57.076 65.4437 57.3615 66.1264 57.8696 66.6298C58.3778 67.1332 59.067 67.416 59.7857 67.416H65.205C65.9237 67.416 66.6129 67.1332 67.1211 66.6298C67.6292 66.1264 67.9147 65.4437 67.9147 64.7318V62.0476H72.4308C73.1495 62.0476 73.8387 61.7648 74.3469 61.2614C74.855 60.758 75.1405 60.0753 75.1405 59.3634V51.3108H77.8502C78.0897 51.3108 78.3195 51.2165 78.4889 51.0487C78.6583 50.8809 78.7534 50.6533 78.7534 50.416C78.7534 50.1787 78.6583 49.9511 78.4889 49.7833C78.3195 49.6155 78.0897 49.5213 77.8502 49.5213ZM29.076 60.2581C28.8364 60.2581 28.6067 60.1639 28.4373 59.9961C28.2679 59.8283 28.1728 59.6007 28.1728 59.3634V41.4686C28.1728 41.2313 28.2679 41.0038 28.4373 40.836C28.6067 40.6682 28.8364 40.5739 29.076 40.5739H33.5921V60.2581H29.076ZM42.6244 64.7318C42.6244 64.9691 42.5292 65.1967 42.3598 65.3645C42.1904 65.5323 41.9607 65.6265 41.7212 65.6265H36.3018C36.0623 65.6265 35.8325 65.5323 35.6631 65.3645C35.4937 65.1967 35.3986 64.9691 35.3986 64.7318V36.1002C35.3986 35.8629 35.4937 35.6353 35.6631 35.4676C35.8325 35.2998 36.0623 35.2055 36.3018 35.2055H41.7212C41.9607 35.2055 42.1904 35.2998 42.3598 35.4676C42.5292 35.6353 42.6244 35.8629 42.6244 36.1002V64.7318ZM66.1083 64.7318C66.1083 64.9691 66.0131 65.1967 65.8437 65.3645C65.6743 65.5323 65.4446 65.6265 65.205 65.6265H59.7857C59.5461 65.6265 59.3164 65.5323 59.147 65.3645C58.9776 65.1967 58.8824 64.9691 58.8824 64.7318V36.1002C58.8824 35.8629 58.9776 35.6353 59.147 35.4676C59.3164 35.2998 59.5461 35.2055 59.7857 35.2055H65.205C65.4446 35.2055 65.6743 35.2998 65.8437 35.4676C66.0131 35.6353 66.1083 35.8629 66.1083 36.1002V64.7318ZM73.3341 59.3634C73.3341 59.6007 73.2389 59.8283 73.0695 59.9961C72.9001 60.1639 72.6704 60.2581 72.4308 60.2581H67.9147V40.5739H72.4308C72.6704 40.5739 72.9001 40.6682 73.0695 40.836C73.2389 41.0038 73.3341 41.2313 73.3341 41.4686V59.3634Z" fill="#5C5C5C"></path><path d="M119.597 60.228C119.224 60.228 118.935 60.1253 118.729 59.92C118.524 59.7147 118.421 59.4253 118.421 59.052V57.204L119.065 57.848H118.365C116.517 57.848 114.931 57.5027 113.605 56.812C112.28 56.1213 111.253 55.1507 110.525 53.9C109.816 52.6307 109.461 51.128 109.461 49.392C109.461 48.0667 109.657 46.8813 110.049 45.836C110.441 44.7907 111.02 43.9133 111.785 43.204C112.551 42.476 113.484 41.9253 114.585 41.552C115.687 41.16 116.947 40.964 118.365 40.964H119.065L118.421 41.608V39.9C118.421 39.508 118.524 39.2187 118.729 39.032C118.935 38.8267 119.224 38.724 119.597 38.724C119.971 38.724 120.251 38.8267 120.437 39.032C120.643 39.2187 120.745 39.508 120.745 39.9V41.608L120.129 40.964H120.829C122.715 40.964 124.32 41.3 125.645 41.972C126.971 42.644 127.979 43.6147 128.669 44.884C129.36 46.1347 129.705 47.6373 129.705 49.392C129.705 50.6987 129.5 51.8747 129.089 52.92C128.697 53.9653 128.119 54.852 127.353 55.58C126.588 56.308 125.655 56.868 124.553 57.26C123.452 57.652 122.211 57.848 120.829 57.848H120.129L120.745 57.204V59.052C120.745 59.4253 120.652 59.7147 120.465 59.92C120.279 60.1253 119.989 60.228 119.597 60.228ZM118.449 56.476V42.336L119.009 42.812H118.029C117.096 42.812 116.247 42.9613 115.481 43.26C114.716 43.54 114.063 43.96 113.521 44.52C112.98 45.08 112.56 45.7707 112.261 46.592C111.981 47.3947 111.841 48.328 111.841 49.392C111.841 50.7547 112.103 51.9307 112.625 52.92C113.148 53.9093 113.876 54.6653 114.809 55.188C115.743 55.7107 116.816 55.972 118.029 55.972H119.009L118.449 56.476ZM120.745 56.476L120.157 55.972H121.137C122.052 55.972 122.892 55.8227 123.657 55.524C124.423 55.2253 125.076 54.796 125.617 54.236C126.159 53.6573 126.579 52.9667 126.877 52.164C127.176 51.3427 127.325 50.4187 127.325 49.392C127.325 47.9733 127.073 46.7787 126.569 45.808C126.065 44.8187 125.347 44.072 124.413 43.568C123.499 43.064 122.407 42.812 121.137 42.812H120.157L120.745 42.336V56.476ZM134.822 59.612C134.672 59.612 134.532 59.584 134.402 59.528C134.29 59.4907 134.187 59.416 134.094 59.304C134.019 59.192 133.954 59.0707 133.898 58.94C133.86 58.7907 133.842 58.6133 133.842 58.408V40.6C133.842 40.2453 133.935 39.9747 134.122 39.788C134.308 39.5827 134.579 39.48 134.934 39.48C135.27 39.48 135.531 39.5827 135.718 39.788C135.904 39.9747 135.998 40.2453 135.998 40.6V56.448H135.382L147.534 40.18C147.702 39.9187 147.87 39.7413 148.038 39.648C148.224 39.536 148.458 39.48 148.738 39.48C148.943 39.48 149.111 39.5267 149.242 39.62C149.372 39.6947 149.475 39.816 149.55 39.984C149.624 40.152 149.662 40.3573 149.662 40.6V58.464C149.662 58.8373 149.568 59.1267 149.382 59.332C149.214 59.5187 148.962 59.612 148.626 59.612C148.271 59.612 148 59.5187 147.814 59.332C147.627 59.1267 147.534 58.8373 147.534 58.464V42.644H148.15L135.998 58.912C135.811 59.1547 135.643 59.332 135.494 59.444C135.344 59.556 135.12 59.612 134.822 59.612ZM160.56 59.612C160.206 59.612 159.926 59.5093 159.72 59.304C159.515 59.08 159.412 58.7813 159.412 58.408V41.664H153.112C152.776 41.664 152.515 41.5707 152.328 41.384C152.142 41.1973 152.048 40.9547 152.048 40.656C152.048 40.3387 152.142 40.096 152.328 39.928C152.515 39.76 152.776 39.676 153.112 39.676H168.036C168.372 39.676 168.634 39.76 168.82 39.928C169.007 40.096 169.1 40.3387 169.1 40.656C169.1 40.9733 169.007 41.2253 168.82 41.412C168.634 41.58 168.372 41.664 168.036 41.664H161.736V58.408C161.736 58.7813 161.634 59.08 161.428 59.304C161.242 59.5093 160.952 59.612 160.56 59.612ZM172.56 59.612C172.187 59.612 171.897 59.5093 171.692 59.304C171.505 59.08 171.412 58.7813 171.412 58.408V40.684C171.412 40.292 171.505 39.9933 171.692 39.788C171.897 39.5827 172.187 39.48 172.56 39.48C172.933 39.48 173.213 39.5827 173.4 39.788C173.605 39.9933 173.708 40.292 173.708 40.684V48.412H185.552V40.684C185.552 40.292 185.645 39.9933 185.832 39.788C186.037 39.5827 186.327 39.48 186.7 39.48C187.073 39.48 187.353 39.5827 187.54 39.788C187.745 39.9933 187.848 40.292 187.848 40.684V58.408C187.848 58.7813 187.745 59.08 187.54 59.304C187.353 59.5093 187.073 59.612 186.7 59.612C186.327 59.612 186.037 59.5093 185.832 59.304C185.645 59.08 185.552 58.7813 185.552 58.408V50.4H173.708V58.408C173.708 58.7813 173.615 59.08 173.428 59.304C173.241 59.5093 172.952 59.612 172.56 59.612ZM193.973 59.416C193.562 59.416 193.245 59.3133 193.021 59.108C192.816 58.884 192.713 58.5667 192.713 58.156V40.936C192.713 40.5253 192.816 40.2173 193.021 40.012C193.245 39.788 193.562 39.676 193.973 39.676H204.389C204.706 39.676 204.949 39.76 205.117 39.928C205.285 40.096 205.369 40.3293 205.369 40.628C205.369 40.9453 205.285 41.188 205.117 41.356C204.949 41.524 204.706 41.608 204.389 41.608H194.953V48.44H203.801C204.118 48.44 204.361 48.524 204.529 48.692C204.697 48.8413 204.781 49.0747 204.781 49.392C204.781 49.7093 204.697 49.952 204.529 50.12C204.361 50.288 204.118 50.372 203.801 50.372H194.953V57.484H204.389C204.706 57.484 204.949 57.568 205.117 57.736C205.285 57.904 205.369 58.1373 205.369 58.436C205.369 58.7533 205.285 58.996 205.117 59.164C204.949 59.332 204.706 59.416 204.389 59.416H193.973ZM217.495 59.668C215.554 59.668 213.892 59.2573 212.511 58.436C211.13 57.6147 210.066 56.448 209.319 54.936C208.591 53.424 208.227 51.6227 208.227 49.532C208.227 47.964 208.432 46.564 208.843 45.332C209.272 44.0813 209.879 43.0267 210.663 42.168C211.466 41.2907 212.446 40.6187 213.603 40.152C214.76 39.6667 216.058 39.424 217.495 39.424C218.652 39.424 219.754 39.592 220.799 39.928C221.844 40.2453 222.75 40.7213 223.515 41.356C223.758 41.5427 223.916 41.7573 223.991 42C224.084 42.224 224.094 42.448 224.019 42.672C223.963 42.8773 223.851 43.0547 223.683 43.204C223.534 43.3347 223.347 43.4 223.123 43.4C222.899 43.4 222.647 43.3067 222.367 43.12C221.695 42.5787 220.958 42.1773 220.155 41.916C219.352 41.6547 218.484 41.524 217.551 41.524C216.076 41.524 214.826 41.8413 213.799 42.476C212.772 43.092 211.998 43.9973 211.475 45.192C210.952 46.3867 210.691 47.8333 210.691 49.532C210.691 51.2307 210.952 52.6867 211.475 53.9C211.998 55.0947 212.772 56.0093 213.799 56.644C214.826 57.26 216.076 57.568 217.551 57.568C218.466 57.568 219.334 57.4373 220.155 57.176C220.976 56.896 221.732 56.4853 222.423 55.944C222.703 55.7573 222.955 55.6733 223.179 55.692C223.403 55.692 223.59 55.7573 223.739 55.888C223.888 56.0187 223.991 56.1867 224.047 56.392C224.122 56.5973 224.122 56.812 224.047 57.036C223.991 57.26 223.851 57.456 223.627 57.624C222.843 58.296 221.919 58.8093 220.855 59.164C219.81 59.5 218.69 59.668 217.495 59.668ZM253.074 64.036C252.719 64.036 252.448 63.9427 252.262 63.756C252.094 63.5693 252.01 63.2987 252.01 62.944V59.416H236.274C235.863 59.416 235.546 59.3133 235.322 59.108C235.116 58.884 235.014 58.5667 235.014 58.156V40.684C235.014 40.292 235.107 39.9933 235.294 39.788C235.499 39.5827 235.788 39.48 236.162 39.48C236.535 39.48 236.815 39.5827 237.002 39.788C237.207 39.9933 237.31 40.292 237.31 40.684V57.428H248.986V40.684C248.986 40.292 249.088 39.9933 249.294 39.788C249.499 39.5827 249.788 39.48 250.162 39.48C250.516 39.48 250.796 39.5827 251.002 39.788C251.207 39.9933 251.31 40.292 251.31 40.684V58.464L250.246 57.428H252.934C253.307 57.428 253.596 57.5307 253.802 57.736C254.007 57.9413 254.11 58.2213 254.11 58.576V62.944C254.11 63.672 253.764 64.036 253.074 64.036ZM258.422 59.416C258.011 59.416 257.694 59.3133 257.47 59.108C257.265 58.884 257.162 58.5667 257.162 58.156V40.936C257.162 40.5253 257.265 40.2173 257.47 40.012C257.694 39.788 258.011 39.676 258.422 39.676H268.838C269.155 39.676 269.398 39.76 269.566 39.928C269.734 40.096 269.818 40.3293 269.818 40.628C269.818 40.9453 269.734 41.188 269.566 41.356C269.398 41.524 269.155 41.608 268.838 41.608H259.402V48.44H268.25C268.567 48.44 268.81 48.524 268.978 48.692C269.146 48.8413 269.23 49.0747 269.23 49.392C269.23 49.7093 269.146 49.952 268.978 50.12C268.81 50.288 268.567 50.372 268.25 50.372H259.402V57.484H268.838C269.155 57.484 269.398 57.568 269.566 57.736C269.734 57.904 269.818 58.1373 269.818 58.436C269.818 58.7533 269.734 58.996 269.566 59.164C269.398 59.332 269.155 59.416 268.838 59.416H258.422ZM274.634 59.612C274.261 59.612 273.972 59.5093 273.766 59.304C273.58 59.08 273.486 58.7813 273.486 58.408V40.684C273.486 40.292 273.58 39.9933 273.766 39.788C273.972 39.5827 274.261 39.48 274.634 39.48C275.008 39.48 275.288 39.5827 275.474 39.788C275.68 39.9933 275.782 40.292 275.782 40.684V48.412H287.626V40.684C287.626 40.292 287.72 39.9933 287.906 39.788C288.112 39.5827 288.401 39.48 288.774 39.48C289.148 39.48 289.428 39.5827 289.614 39.788C289.82 39.9933 289.922 40.292 289.922 40.684V58.408C289.922 58.7813 289.82 59.08 289.614 59.304C289.428 59.5093 289.148 59.612 288.774 59.612C288.401 59.612 288.112 59.5093 287.906 59.304C287.72 59.08 287.626 58.7813 287.626 58.408V50.4H275.782V58.408C275.782 58.7813 275.689 59.08 275.502 59.304C275.316 59.5093 275.026 59.612 274.634 59.612ZM300.779 59.612C300.424 59.612 300.144 59.5093 299.939 59.304C299.734 59.08 299.631 58.7813 299.631 58.408V41.664H293.331C292.995 41.664 292.734 41.5707 292.547 41.384C292.36 41.1973 292.267 40.9547 292.267 40.656C292.267 40.3387 292.36 40.096 292.547 39.928C292.734 39.76 292.995 39.676 293.331 39.676H308.255C308.591 39.676 308.852 39.76 309.039 39.928C309.226 40.096 309.319 40.3387 309.319 40.656C309.319 40.9733 309.226 41.2253 309.039 41.412C308.852 41.58 308.591 41.664 308.255 41.664H301.955V58.408C301.955 58.7813 301.852 59.08 301.647 59.304C301.46 59.5093 301.171 59.612 300.779 59.612ZM312.779 59.612C312.405 59.612 312.116 59.5093 311.911 59.304C311.724 59.08 311.631 58.7813 311.631 58.408V40.852C311.631 40.46 311.733 40.1707 311.939 39.984C312.144 39.7787 312.433 39.676 312.807 39.676H319.443C321.552 39.676 323.176 40.1987 324.315 41.244C325.453 42.2707 326.023 43.7267 326.023 45.612C326.023 47.4787 325.453 48.9347 324.315 49.98C323.176 51.0253 321.552 51.548 319.443 51.548H313.927V58.408C313.927 58.7813 313.833 59.08 313.647 59.304C313.46 59.5093 313.171 59.612 312.779 59.612ZM313.927 49.616H319.163C320.675 49.616 321.813 49.28 322.579 48.608C323.363 47.9173 323.755 46.9187 323.755 45.612C323.755 44.2867 323.363 43.288 322.579 42.616C321.813 41.9253 320.675 41.58 319.163 41.58H313.927V49.616Z" fill="black"></path></svg> 