<?xml version="1.0" encoding="UTF-8"?> <svg xmlns="http://www.w3.org/2000/svg" xmlns:xlink="http://www.w3.org/1999/xlink" version="1.1" id="Layer_1" x="0px" y="0px" viewBox="0 0 100 100" style="enable-background:new 0 0 100 100;" xml:space="preserve"> <style type="text/css"> .st0{fill-rule:evenodd;clip-rule:evenodd;fill:#A386C2;stroke:#A386C2;stroke-width:2;stroke-miterlimit:10;} </style> <g> <path class="st0" d="M92.4,69.5c-0.2-5.4-1.9-12-4.8-18.4c-6.3-14.2-15.8-22.8-22-20L62,32.7v-8.6c0-6.8-11.7-11.9-27.2-11.9 S7.6,17.3,7.6,24.1v15.3c0,0.1,0,0.2,0,0.2c0,0.1,0,0.2,0,0.2c0,0.1,0,0.3,0,0.4c0,0.1,0,0.1,0,0.2v15.3c0,0.1,0,0.2,0,0.2 c0,0.1,0,0.2,0,0.2c0,0.2,0,0.3,0,0.5c0,0.1,0,0.2,0,0.3v15.3c0,0.1,0,0.2,0,0.2c0,0.1,0,0.2,0,0.2c0,6.8,11.7,11.9,27.2,11.9 c9.8,0,18.8-2.2,23.6-5.8c4.2,5.5,8.8,8.7,12.6,8.7c0.9,0,1.7-0.2,2.5-0.5l14.4-6.4C91,79.4,92.6,75.4,92.4,69.5z M34.8,15.2 c14.3,0,24.2,4.7,24.2,8.9S49,33,34.8,33s-24.2-4.7-24.2-8.9C10.6,19.9,20.5,15.2,34.8,15.2z M10.6,39.5v-9.7 c4.4,3.8,13.4,6.3,24.2,6.3s19.8-2.5,24.2-6.3V34l-7.8,3.5c-3,1.3-4.5,5-4.6,10.1c-3.6,0.8-7.7,1.2-11.8,1.2 c-14.3,0-24.2-4.7-24.2-8.9c0-0.1,0-0.2,0-0.2C10.6,39.6,10.6,39.5,10.6,39.5z M10.6,55.9V45.5c4.4,3.8,13.4,6.3,24.2,6.3 c4.2,0,8.3-0.4,12-1.2c0.3,3.7,1.3,7.9,3,12.4c-4.4,1.4-9.5,2.2-15,2.2c-14.3,0-24.2-4.7-24.2-8.9c0-0.1,0-0.2,0-0.2 C10.6,56,10.6,56,10.6,55.9z M34.8,81.9c-14.3,0-24.2-4.7-24.2-8.9c0-0.1,0-0.2,0-0.2c0-0.1,0-0.2,0-0.2V62 c4.4,3.8,13.4,6.3,24.2,6.3c5.9,0,11.3-0.8,16.1-2.4c0.2,0.4,0.4,0.9,0.6,1.4c1.6,3.5,3.3,6.6,5.2,9.4C52.5,79.8,44,81.9,34.8,81.9 z M72.2,84.5C68.3,86.2,60,79,54.2,66s-5.6-24-1.7-25.8l9.3-4.2c-0.5,1.7-0.7,3.9-0.7,6.3c0.2,5.4,1.9,12,4.8,18.4 c4.4,9.9,10.4,17.1,15.7,19.6L72.2,84.5z M86.6,78.1c-3.9,1.7-12.2-5.5-18-18.5c-2.7-6.1-4.3-12.3-4.5-17.3 c-0.2-4.5,0.8-7.6,2.8-8.5c0.4-0.2,0.8-0.3,1.3-0.3c4.2,0,11.5,7,16.8,18.7c2.7,6.1,4.3,12.2,4.5,17.3 C89.6,74.1,88.6,77.2,86.6,78.1z"></path> </g> </svg> 