<?xml version="1.0" encoding="UTF-8"?> <svg xmlns="http://www.w3.org/2000/svg" xmlns:xlink="http://www.w3.org/1999/xlink" xmlns:svgjs="http://svgjs.dev/svgjs" height="300" viewBox="0 0 48 47.923" width="300" version="1.1"><g width="100%" height="100%" transform="matrix(1,0,0,1,0,0)"><linearGradient id="linear-gradient" gradientUnits="userSpaceOnUse" x1="-.945" x2="45.505" y1="44.381" y2="-2.069"><stop stop-opacity="1" stop-color="#9c4399" offset="0.02"></stop><stop stop-opacity="1" stop-color="#93c1cc" offset="1"></stop></linearGradient><g id="Layer_2" data-name="Layer 2"><g id="Layer_1-2" data-name="Layer 1"><path id="online_discount" d="m47.273 0h-46.545a.727.727 0 0 0 -.728.728v26.123a.728.728 0 0 0 1.455 0v-18.124h45.091v21.76a.727.727 0 0 0 1.454 0v-29.759a.727.727 0 0 0 -.727-.728zm-45.818 7.273v-5.819h45.091v5.819zm42.517-3.424a.73.73 0 1 1 -1.033 0 .76.76 0 0 1 1.033 0zm-3.79.516a.727.727 0 0 1 -1.454 0 .727.727 0 0 1 1.454 0zm-4.218-.516a.736.736 0 0 1 .008 1.033.747.747 0 0 1 -1.033 0 .728.728 0 0 1 1.025-1.033zm-19.023 22.465 13.09-13.09a.727.727 0 0 1 1.029 1.028l-13.091 13.09a.727.727 0 0 1 -1.028-1.028zm8.9-4.19a3.182 3.182 0 0 0 4.5 4.5 3.182 3.182 0 0 0 -4.5-4.5zm3.471 3.476a1.728 1.728 0 0 1 -2.443-2.443 1.728 1.728 0 0 1 2.443 2.443zm-9.4-6.223a3.182 3.182 0 1 0 -2.25-5.431 3.2 3.2 0 0 0 2.247 5.426zm-1.221-4.4a1.728 1.728 0 0 1 2.443 2.443 1.728 1.728 0 0 1 -2.446-2.45zm28.402 20.603a2.094 2.094 0 0 0 -2.022-.273 2.109 2.109 0 0 0 -.911-2.307c-.981-.752-2.481-.107-4.963.958a46.8 46.8 0 0 1 -5.816 2.156 3.017 3.017 0 0 0 -.433-.559 3.523 3.523 0 0 0 -2.466-.944c-6.691.113-7.821-.551-9.131-1.321-1.658-.973-3.534-2.074-14.508-2.074h-6.115a.727.727 0 0 0 -.728.725v13.082a.727.727 0 0 0 .728.728h6c9.5 3.21 28.083 3.984 39.5-5.648.895-.548 2.95-2.821.865-4.523zm-7.321-.288c1.33-.571 3.152-1.356 3.5-1.139.885.68.145 1.36-.392 1.956a55.976 55.976 0 0 1 -9.123 3.2 4.018 4.018 0 0 0 .086-1.815 48.508 48.508 0 0 0 5.929-2.202zm-38.317-2.623h4.66v11.631h-4.66zm43.905 6.265c-14.873 11.789-34.46 6.566-37.79 5.557v-11.821c9.931.045 11.583 1.015 13.043 1.872 1.5.88 2.8 1.644 9.924 1.52 1.081-.055 2.092.834 1.908 2.459-.013.213-.053.862-1.332 1.377-.011 0-.02.013-.032.017s-.012 0-.017 0c-1.361.53-4.359.984-10.92.135a.727.727 0 0 0 -.186 1.442c4.075.479 8.337.906 11.571-.2a54.045 54.045 0 0 0 11.42-3.635c1.489-.632 2.9-1.231 3.21-.967 1.041.794-.311 1.849-.799 2.244zm-40.729-3.874a.846.846 0 0 1 -1.691 0 .846.846 0 0 1 1.691 0z" fill="url(#linear-gradient)" data-name="online discount" data-original-color="linear-gradient" stroke="none" stroke-opacity="1"></path></g></g></g></svg> 