<?xml version="1.0" encoding="UTF-8"?> <svg xmlns="http://www.w3.org/2000/svg" xmlns:xlink="http://www.w3.org/1999/xlink" version="1.1" id="Layer_1" x="0px" y="0px" viewBox="0 0 100 100" style="enable-background:new 0 0 100 100;" xml:space="preserve"> <style type="text/css"> .st0{fill-rule:evenodd;clip-rule:evenodd;fill:#B8B8B8;stroke:#B8B8B8;stroke-width:2;stroke-miterlimit:10;} </style> <g> <path class="st0" d="M88.3,10.2H11.7c-0.8,0-1.5,0.7-1.5,1.5v76.6c0,0.8,0.7,1.5,1.5,1.5h76.6c0.8,0,1.5-0.7,1.5-1.5V11.7 C89.8,10.9,89.1,10.2,88.3,10.2z M86.8,86.8H13.2V13.2h73.6V86.8z"></path> <path class="st0" d="M31.9,44.3C39.7,44.3,46,38,46,30.2c0-7.8-6.3-14.1-14.1-14.1c-7.8,0-14.1,6.3-14.1,14.1 C17.8,38,24.2,44.3,31.9,44.3z M31.9,19.2c6.1,0,11.1,5,11.1,11.1s-5,11.1-11.1,11.1c-6.1,0-11.1-5-11.1-11.1S25.8,19.2,31.9,19.2z M68.7,44.3c7.8,0,14.1-6.3,14.1-14.1c0-7.8-6.3-14.1-14.1-14.1c-7.8,0-14.1,6.3-14.1,14.1C54.7,38,61,44.3,68.7,44.3z M68.7,19.2 c6.1,0,11.1,5,11.1,11.1s-5,11.1-11.1,11.1c-6.1,0-11.1-5-11.1-11.1S62.6,19.2,68.7,19.2z M31.9,76.5c7.8,0,14.1-6.3,14.1-14.1 c0-7.8-6.3-14.1-14.1-14.1c-7.8,0-14.1,6.3-14.1,14.1C17.8,70.2,24.2,76.5,31.9,76.5z M31.9,51.3c6.1,0,11.1,5,11.1,11.1 s-5,11.1-11.1,11.1c-6.1,0-11.1-5-11.1-11.1S25.8,51.3,31.9,51.3z M68.7,76.5c7.8,0,14.1-6.3,14.1-14.1c0-7.8-6.3-14.1-14.1-14.1 c-7.8,0-14.1,6.3-14.1,14.1C54.7,70.2,61,76.5,68.7,76.5z M68.7,51.3c6.1,0,11.1,5,11.1,11.1s-5,11.1-11.1,11.1 c-6.1,0-11.1-5-11.1-11.1S62.6,51.3,68.7,51.3z M43.4,78.4c-0.8,0-1.5,0.7-1.5,1.5v4.3c0,0.8,0.7,1.5,1.5,1.5s1.5-0.7,1.5-1.5v-4.3 C44.9,79.1,44.2,78.4,43.4,78.4z M50.3,85.7c0.8,0,1.5-0.7,1.5-1.5v-4.3c0-0.8-0.7-1.5-1.5-1.5s-1.5,0.7-1.5,1.5v4.3 C48.8,85.1,49.5,85.7,50.3,85.7z M57.2,78.4c-0.8,0-1.5,0.7-1.5,1.5v4.3c0,0.8,0.7,1.5,1.5,1.5s1.5-0.7,1.5-1.5v-4.3 C58.7,79.1,58,78.4,57.2,78.4z"></path> </g> </svg> 