<?xml version="1.0" encoding="UTF-8"?> <svg xmlns="http://www.w3.org/2000/svg" width="378" height="71" viewBox="0 0 378 71" fill="none"><rect x="1.91406" y="1.28125" width="374.125" height="68.4414" rx="34.2207" stroke="black" stroke-width="2"></rect><g clip-path="url(#clip0_568_51)"><path d="M37.5 58C49.92 58 60 47.92 60 35.5C60 23.08 49.92 13 37.5 13C25.08 13 15 23.08 15 35.5C15 47.92 25.08 58 37.5 58ZM41.64 38.74L42.18 38.2C42.9 37.48 43.98 37.3 44.88 37.84L47.04 39.1C48.12 39.64 48.66 40.9 48.12 42.16C47.94 42.34 47.94 42.52 47.76 42.7L46.14 44.32C45.78 44.68 45.24 45.04 44.7 45.04C42.9 45.22 38.22 45.04 33.36 40.36C28.86 35.86 27.96 31.9 27.78 30.1C27.78 29.38 28.14 28.84 28.5 28.3L30.3 26.5C31.38 25.6 32.82 25.6 33.72 26.68L33.9 26.86L35.34 28.66C36.06 29.56 36.06 30.82 35.16 31.72L34.8 32.08C34.8 32.08 33.54 33.34 36.96 36.58C40.38 40 41.64 38.74 41.64 38.74Z" fill="#361E58"></path></g><defs><clipPath id="clip0_568_51"><rect width="45" height="45" fill="white" transform="translate(15 13)"></rect></clipPath></defs></svg> 