<?xml version="1.0" encoding="UTF-8"?> <svg xmlns="http://www.w3.org/2000/svg" width="527" height="101" viewBox="0 0 527 101" fill="none"><rect x="2.25391" y="1.91602" width="523" height="97" rx="48.5" fill="#FFFBEF" stroke="#DBB391" stroke-width="3"></rect><circle cx="50.7534" cy="50.416" r="36.5" fill="#F6FDDF" stroke="black"></circle><path d="M40.5155 85.416C40.648 84.5527 40.9329 75.6602 41.0125 74.9971C41.1119 74.1683 41.8076 74.2719 41.907 74.2719C42.1456 73.2773 42.139 69.9896 42.1058 68.4701C41.0721 65.8178 40.4823 61.425 40.3167 59.5602C39.442 57.9025 38.9582 55.7614 38.8257 54.898C37.4341 57.3845 32.4643 58.8349 30.9733 58.4205C28.5878 59.353 25.3076 59.4566 25.3076 58.8349C25.3076 58.2133 24.91 56.5557 24.2143 52.7223C23.6576 49.6557 24.1149 45.0211 24.413 43.0872C23.8737 42.4589 23.1536 41.4442 22.6978 40.3935M45.7835 40.3935V41.0151C45.7835 41.9268 46.5125 41.8785 46.8769 41.7403C46.9763 42.2929 47.195 43.8331 47.2745 45.5737C47.3739 47.7494 45.2866 46.9205 42.3046 45.9881C39.9191 45.2421 36.4733 48.0947 35.0486 49.6142C32.9811 49.2827 30.8739 50.9265 30.0787 51.7899C29.9992 50.7124 28.9191 49.1998 28.389 48.5782C28.3227 46.886 28.1703 43.3773 28.0908 42.88C28.0391 42.5566 28.5793 41.504 29.0395 40.3935M45.7835 40.3935H29.0395M45.7835 40.3935C45.6014 39.5077 45.4193 37.8452 46.0013 37.6998M29.5817 37.6998C29.8202 38.2962 29.4638 39.3695 29.0395 40.3935M29.5817 37.6998H46.0013M29.5817 37.6998C29.401 37.3199 28.4124 36.5602 25.904 36.5602C23.3957 36.5602 22.5531 37.3199 22.4453 37.6998M22.6978 40.3935H15.7534M22.6978 40.3935C22.2831 39.4376 22.216 38.7213 22.4453 37.6998M16.7534 37.6998H22.4453M46.0013 37.6998H46.1811M46.0013 37.6998C46.0546 37.6865 46.1144 37.6859 46.1811 37.6998M46.1811 37.6998C46.2143 35.9385 47.1751 32.416 50.7534 32.416C54.3317 32.416 55.2926 35.9385 55.3257 37.6998M60.9914 85.416C60.8588 84.5527 60.5739 75.6602 60.4944 74.9971C60.395 74.1683 59.6992 74.2719 59.5998 74.2719C59.3613 73.2773 59.3679 69.9896 59.401 68.4701C60.4347 65.8178 61.0245 61.425 61.1902 59.5602C62.0649 57.9025 62.5486 55.7614 62.6811 54.898C64.0727 57.3845 69.0426 58.8349 70.5335 58.4205C72.9191 59.353 76.1992 59.4566 76.1992 58.8349C76.1992 58.2133 76.5968 56.5557 77.2926 52.7223C77.8492 49.6557 77.392 45.0211 77.0938 43.0872C77.6331 42.4589 78.3533 41.4442 78.809 40.3935M55.7233 40.3935V41.0151C55.7233 41.9268 54.9944 41.8785 54.6299 41.7403C54.5305 42.2929 54.3119 43.8331 54.2323 45.5737C54.1329 47.7494 56.2203 46.9205 59.2022 45.9881C61.5878 45.2421 65.0335 48.0947 66.4582 49.6142C68.5257 49.2827 70.6329 50.9265 71.4281 51.7899C71.5076 50.7124 72.5878 49.1998 73.1179 48.5782C73.1841 46.886 73.3366 43.3773 73.4161 42.88C73.4678 42.5566 72.9276 41.504 72.4674 40.3935M55.7233 40.3935H72.4674M55.7233 40.3935C55.9054 39.5077 56.0875 37.8452 55.5055 37.6998M71.9251 37.6998C71.6867 38.2962 72.043 39.3695 72.4674 40.3935M71.9251 37.6998H55.5055M71.9251 37.6998C72.1059 37.3199 73.0945 36.5602 75.6028 36.5602C78.1112 36.5602 78.9538 37.3199 79.0615 37.6998M78.809 40.3935H85.7534M78.809 40.3935C79.2237 39.4376 79.2908 38.7213 79.0615 37.6998M84.7534 37.6998H79.0615M55.5055 37.6998H55.3257M55.5055 37.6998C55.4522 37.6865 55.3925 37.6859 55.3257 37.6998" stroke="black"></path><path d="M111.337 59.612C110.964 59.612 110.675 59.5093 110.469 59.304C110.283 59.08 110.189 58.7813 110.189 58.408V40.656C110.189 40.264 110.283 39.9747 110.469 39.788C110.675 39.5827 110.964 39.48 111.337 39.48C111.711 39.48 111.991 39.5827 112.177 39.788C112.383 39.9747 112.485 40.264 112.485 40.656V48.468H116.349L115.677 48.916L121.501 40.096C121.669 39.8347 121.865 39.6667 122.089 39.592C122.313 39.4987 122.537 39.48 122.761 39.536C122.985 39.5733 123.172 39.676 123.321 39.844C123.471 39.9933 123.555 40.1893 123.573 40.432C123.611 40.656 123.545 40.8987 123.377 41.16L117.917 49.308L117.049 48.552C118.188 48.6827 119.159 49.084 119.961 49.756C120.764 50.428 121.464 51.3613 122.061 52.556L124.721 57.988C124.871 58.2867 124.917 58.5573 124.861 58.8C124.805 59.024 124.684 59.2013 124.497 59.332C124.311 59.4627 124.096 59.5373 123.853 59.556C123.629 59.5933 123.405 59.556 123.181 59.444C122.957 59.332 122.78 59.136 122.649 58.856L120.157 53.62C119.597 52.4813 118.963 51.6693 118.253 51.184C117.563 50.6987 116.704 50.456 115.677 50.456H112.485V58.408C112.485 58.7813 112.392 59.08 112.205 59.304C112.019 59.5093 111.729 59.612 111.337 59.612ZM129.275 59.612C128.902 59.612 128.612 59.5093 128.407 59.304C128.22 59.08 128.127 58.7813 128.127 58.408V40.852C128.127 40.46 128.23 40.1707 128.435 39.984C128.64 39.7787 128.93 39.676 129.303 39.676H135.939C138.048 39.676 139.672 40.1987 140.811 41.244C141.95 42.2707 142.519 43.7267 142.519 45.612C142.519 47.4787 141.95 48.9347 140.811 49.98C139.672 51.0253 138.048 51.548 135.939 51.548H130.423V58.408C130.423 58.7813 130.33 59.08 130.143 59.304C129.956 59.5093 129.667 59.612 129.275 59.612ZM130.423 49.616H135.659C137.171 49.616 138.31 49.28 139.075 48.608C139.859 47.9173 140.251 46.9187 140.251 45.612C140.251 44.2867 139.859 43.288 139.075 42.616C138.31 41.9253 137.171 41.58 135.659 41.58H130.423V49.616ZM153.86 59.668C152.031 59.668 150.435 59.2573 149.072 58.436C147.728 57.596 146.683 56.42 145.936 54.908C145.208 53.396 144.844 51.604 144.844 49.532C144.844 47.964 145.05 46.564 145.46 45.332C145.89 44.0813 146.496 43.0267 147.28 42.168C148.064 41.2907 149.007 40.6187 150.108 40.152C151.228 39.6667 152.479 39.424 153.86 39.424C155.727 39.424 157.332 39.8347 158.676 40.656C160.039 41.4773 161.084 42.644 161.812 44.156C162.559 45.6493 162.932 47.432 162.932 49.504C162.932 51.072 162.718 52.4813 162.288 53.732C161.859 54.9827 161.252 56.0467 160.468 56.924C159.684 57.8013 158.732 58.4827 157.612 58.968C156.511 59.4347 155.26 59.668 153.86 59.668ZM153.86 57.624C155.279 57.624 156.474 57.3067 157.444 56.672C158.434 56.0373 159.19 55.1133 159.712 53.9C160.235 52.6867 160.496 51.2307 160.496 49.532C160.496 46.9747 159.918 44.996 158.76 43.596C157.622 42.1773 155.988 41.468 153.86 41.468C152.479 41.468 151.294 41.7853 150.304 42.42C149.334 43.0547 148.587 43.9787 148.064 45.192C147.542 46.3867 147.28 47.8333 147.28 49.532C147.28 52.0707 147.859 54.0587 149.016 55.496C150.174 56.9147 151.788 57.624 153.86 57.624ZM175.577 59.668C173.636 59.668 171.974 59.2573 170.593 58.436C169.212 57.6147 168.148 56.448 167.401 54.936C166.673 53.424 166.309 51.6227 166.309 49.532C166.309 47.964 166.514 46.564 166.925 45.332C167.354 44.0813 167.961 43.0267 168.745 42.168C169.548 41.2907 170.528 40.6187 171.685 40.152C172.842 39.6667 174.14 39.424 175.577 39.424C176.734 39.424 177.836 39.592 178.881 39.928C179.926 40.2453 180.832 40.7213 181.597 41.356C181.84 41.5427 181.998 41.7573 182.073 42C182.166 42.224 182.176 42.448 182.101 42.672C182.045 42.8773 181.933 43.0547 181.765 43.204C181.616 43.3347 181.429 43.4 181.205 43.4C180.981 43.4 180.729 43.3067 180.449 43.12C179.777 42.5787 179.04 42.1773 178.237 41.916C177.434 41.6547 176.566 41.524 175.633 41.524C174.158 41.524 172.908 41.8413 171.881 42.476C170.854 43.092 170.08 43.9973 169.557 45.192C169.034 46.3867 168.773 47.8333 168.773 49.532C168.773 51.2307 169.034 52.6867 169.557 53.9C170.08 55.0947 170.854 56.0093 171.881 56.644C172.908 57.26 174.158 57.568 175.633 57.568C176.548 57.568 177.416 57.4373 178.237 57.176C179.058 56.896 179.814 56.4853 180.505 55.944C180.785 55.7573 181.037 55.6733 181.261 55.692C181.485 55.692 181.672 55.7573 181.821 55.888C181.97 56.0187 182.073 56.1867 182.129 56.392C182.204 56.5973 182.204 56.812 182.129 57.036C182.073 57.26 181.933 57.456 181.709 57.624C180.925 58.296 180.001 58.8093 178.937 59.164C177.892 59.5 176.772 59.668 175.577 59.668ZM194.116 59.668C192.175 59.668 190.513 59.2573 189.132 58.436C187.751 57.6147 186.687 56.448 185.94 54.936C185.212 53.424 184.848 51.6227 184.848 49.532C184.848 47.964 185.053 46.564 185.464 45.332C185.893 44.0813 186.5 43.0267 187.284 42.168C188.087 41.2907 189.067 40.6187 190.224 40.152C191.381 39.6667 192.679 39.424 194.116 39.424C195.273 39.424 196.375 39.592 197.42 39.928C198.465 40.2453 199.371 40.7213 200.136 41.356C200.379 41.5427 200.537 41.7573 200.612 42C200.705 42.224 200.715 42.448 200.64 42.672C200.584 42.8773 200.472 43.0547 200.304 43.204C200.155 43.3347 199.968 43.4 199.744 43.4C199.52 43.4 199.268 43.3067 198.988 43.12C198.316 42.5787 197.579 42.1773 196.776 41.916C195.973 41.6547 195.105 41.524 194.172 41.524C192.697 41.524 191.447 41.8413 190.42 42.476C189.393 43.092 188.619 43.9973 188.096 45.192C187.573 46.3867 187.312 47.8333 187.312 49.532C187.312 51.2307 187.573 52.6867 188.096 53.9C188.619 55.0947 189.393 56.0093 190.42 56.644C191.447 57.26 192.697 57.568 194.172 57.568C195.087 57.568 195.955 57.4373 196.776 57.176C197.597 56.896 198.353 56.4853 199.044 55.944C199.324 55.7573 199.576 55.6733 199.8 55.692C200.024 55.692 200.211 55.7573 200.36 55.888C200.509 56.0187 200.612 56.1867 200.668 56.392C200.743 56.5973 200.743 56.812 200.668 57.036C200.612 57.26 200.472 57.456 200.248 57.624C199.464 58.296 198.54 58.8093 197.476 59.164C196.431 59.5 195.311 59.668 194.116 59.668ZM213.824 60.228C213.451 60.228 213.161 60.1253 212.956 59.92C212.751 59.7147 212.648 59.4253 212.648 59.052V57.204L213.292 57.848H212.592C210.744 57.848 209.157 57.5027 207.832 56.812C206.507 56.1213 205.48 55.1507 204.752 53.9C204.043 52.6307 203.688 51.128 203.688 49.392C203.688 48.0667 203.884 46.8813 204.276 45.836C204.668 44.7907 205.247 43.9133 206.012 43.204C206.777 42.476 207.711 41.9253 208.812 41.552C209.913 41.16 211.173 40.964 212.592 40.964H213.292L212.648 41.608V39.9C212.648 39.508 212.751 39.2187 212.956 39.032C213.161 38.8267 213.451 38.724 213.824 38.724C214.197 38.724 214.477 38.8267 214.664 39.032C214.869 39.2187 214.972 39.508 214.972 39.9V41.608L214.356 40.964H215.056C216.941 40.964 218.547 41.3 219.872 41.972C221.197 42.644 222.205 43.6147 222.896 44.884C223.587 46.1347 223.932 47.6373 223.932 49.392C223.932 50.6987 223.727 51.8747 223.316 52.92C222.924 53.9653 222.345 54.852 221.58 55.58C220.815 56.308 219.881 56.868 218.78 57.26C217.679 57.652 216.437 57.848 215.056 57.848H214.356L214.972 57.204V59.052C214.972 59.4253 214.879 59.7147 214.692 59.92C214.505 60.1253 214.216 60.228 213.824 60.228ZM212.676 56.476V42.336L213.236 42.812H212.256C211.323 42.812 210.473 42.9613 209.708 43.26C208.943 43.54 208.289 43.96 207.748 44.52C207.207 45.08 206.787 45.7707 206.488 46.592C206.208 47.3947 206.068 48.328 206.068 49.392C206.068 50.7547 206.329 51.9307 206.852 52.92C207.375 53.9093 208.103 54.6653 209.036 55.188C209.969 55.7107 211.043 55.972 212.256 55.972H213.236L212.676 56.476ZM214.972 56.476L214.384 55.972H215.364C216.279 55.972 217.119 55.8227 217.884 55.524C218.649 55.2253 219.303 54.796 219.844 54.236C220.385 53.6573 220.805 52.9667 221.104 52.164C221.403 51.3427 221.552 50.4187 221.552 49.392C221.552 47.9733 221.3 46.7787 220.796 45.808C220.292 44.8187 219.573 44.072 218.64 43.568C217.725 43.064 216.633 42.812 215.364 42.812H214.384L214.972 42.336V56.476ZM229.048 59.612C228.899 59.612 228.759 59.584 228.628 59.528C228.516 59.4907 228.414 59.416 228.32 59.304C228.246 59.192 228.18 59.0707 228.124 58.94C228.087 58.7907 228.068 58.6133 228.068 58.408V40.6C228.068 40.2453 228.162 39.9747 228.348 39.788C228.535 39.5827 228.806 39.48 229.16 39.48C229.496 39.48 229.758 39.5827 229.944 39.788C230.131 39.9747 230.224 40.2453 230.224 40.6V56.448H229.608L241.76 40.18C241.928 39.9187 242.096 39.7413 242.264 39.648C242.451 39.536 242.684 39.48 242.964 39.48C243.17 39.48 243.338 39.5267 243.468 39.62C243.599 39.6947 243.702 39.816 243.776 39.984C243.851 40.152 243.888 40.3573 243.888 40.6V58.464C243.888 58.8373 243.795 59.1267 243.608 59.332C243.44 59.5187 243.188 59.612 242.852 59.612C242.498 59.612 242.227 59.5187 242.04 59.332C241.854 59.1267 241.76 58.8373 241.76 58.464V42.644H242.376L230.224 58.912C230.038 59.1547 229.87 59.332 229.72 59.444C229.571 59.556 229.347 59.612 229.048 59.612ZM254.787 59.612C254.432 59.612 254.152 59.5093 253.947 59.304C253.742 59.08 253.639 58.7813 253.639 58.408V41.664H247.339C247.003 41.664 246.742 41.5707 246.555 41.384C246.368 41.1973 246.275 40.9547 246.275 40.656C246.275 40.3387 246.368 40.096 246.555 39.928C246.742 39.76 247.003 39.676 247.339 39.676H262.263C262.599 39.676 262.86 39.76 263.047 39.928C263.234 40.096 263.327 40.3387 263.327 40.656C263.327 40.9733 263.234 41.2253 263.047 41.412C262.86 41.58 262.599 41.664 262.263 41.664H255.963V58.408C255.963 58.7813 255.86 59.08 255.655 59.304C255.468 59.5093 255.179 59.612 254.787 59.612ZM274.005 59.612C273.632 59.612 273.343 59.5093 273.137 59.304C272.951 59.08 272.857 58.7813 272.857 58.408V40.936C272.857 40.5253 272.96 40.2173 273.165 40.012C273.389 39.788 273.707 39.676 274.117 39.676H287.893C288.285 39.676 288.593 39.788 288.817 40.012C289.041 40.2173 289.153 40.5253 289.153 40.936V58.408C289.153 58.7813 289.051 59.08 288.845 59.304C288.64 59.5093 288.36 59.612 288.005 59.612C287.632 59.612 287.343 59.5093 287.137 59.304C286.932 59.08 286.829 58.7813 286.829 58.408V41.664H275.153V58.408C275.153 58.7813 275.06 59.08 274.873 59.304C274.687 59.5093 274.397 59.612 274.005 59.612ZM308.722 59.612C308.349 59.612 308.059 59.5093 307.854 59.304C307.649 59.08 307.546 58.7813 307.546 58.408V41.664H298.922V46.2C298.922 48.0853 298.81 49.7467 298.586 51.184C298.381 52.6027 298.063 53.844 297.634 54.908C297.223 55.9533 296.701 56.84 296.066 57.568C295.45 58.296 294.731 58.912 293.91 59.416C293.611 59.6213 293.322 59.696 293.042 59.64C292.762 59.584 292.529 59.4067 292.342 59.108C292.155 58.8093 292.099 58.5293 292.174 58.268C292.267 58.0067 292.463 57.7827 292.762 57.596C293.397 57.204 293.957 56.7093 294.442 56.112C294.946 55.5147 295.366 54.768 295.702 53.872C296.057 52.9573 296.327 51.828 296.514 50.484C296.701 49.14 296.794 47.516 296.794 45.612V40.936C296.794 40.5253 296.897 40.2173 297.102 40.012C297.326 39.788 297.643 39.676 298.054 39.676H308.61C309.002 39.676 309.31 39.788 309.534 40.012C309.758 40.2173 309.87 40.5253 309.87 40.936V58.408C309.87 58.7813 309.767 59.08 309.562 59.304C309.357 59.5093 309.077 59.612 308.722 59.612ZM323.036 59.668C321.207 59.668 319.611 59.2573 318.248 58.436C316.904 57.596 315.859 56.42 315.112 54.908C314.384 53.396 314.02 51.604 314.02 49.532C314.02 47.964 314.225 46.564 314.636 45.332C315.065 44.0813 315.672 43.0267 316.456 42.168C317.24 41.2907 318.183 40.6187 319.284 40.152C320.404 39.6667 321.655 39.424 323.036 39.424C324.903 39.424 326.508 39.8347 327.852 40.656C329.215 41.4773 330.26 42.644 330.988 44.156C331.735 45.6493 332.108 47.432 332.108 49.504C332.108 51.072 331.893 52.4813 331.464 53.732C331.035 54.9827 330.428 56.0467 329.644 56.924C328.86 57.8013 327.908 58.4827 326.788 58.968C325.687 59.4347 324.436 59.668 323.036 59.668ZM323.036 57.624C324.455 57.624 325.649 57.3067 326.62 56.672C327.609 56.0373 328.365 55.1133 328.888 53.9C329.411 52.6867 329.672 51.2307 329.672 49.532C329.672 46.9747 329.093 44.996 327.936 43.596C326.797 42.1773 325.164 41.468 323.036 41.468C321.655 41.468 320.469 41.7853 319.48 42.42C318.509 43.0547 317.763 43.9787 317.24 45.192C316.717 46.3867 316.456 47.8333 316.456 49.532C316.456 52.0707 317.035 54.0587 318.192 55.496C319.349 56.9147 320.964 57.624 323.036 57.624ZM362.589 64.008C362.234 64.008 361.964 63.9147 361.777 63.728C361.609 63.5413 361.525 63.2707 361.525 62.916V59.416H337.473C337.062 59.416 336.745 59.3133 336.521 59.108C336.316 58.884 336.213 58.5667 336.213 58.156V40.684C336.213 40.292 336.306 39.9933 336.493 39.788C336.698 39.5827 336.988 39.48 337.361 39.48C337.734 39.48 338.014 39.5827 338.201 39.788C338.406 39.9933 338.509 40.292 338.509 40.684V57.428H347.385V40.684C347.385 40.292 347.478 39.9933 347.665 39.788C347.87 39.5827 348.16 39.48 348.533 39.48C348.888 39.48 349.158 39.5827 349.345 39.788C349.55 39.9933 349.653 40.292 349.653 40.684V57.428H358.529V40.684C358.529 40.292 358.632 39.9933 358.837 39.788C359.042 39.5827 359.322 39.48 359.677 39.48C360.05 39.48 360.33 39.5827 360.517 39.788C360.722 39.9933 360.825 40.292 360.825 40.684V58.464L359.789 57.428H362.449C362.822 57.428 363.102 57.5307 363.289 57.736C363.494 57.9413 363.597 58.2213 363.597 58.576V62.916C363.597 63.2707 363.513 63.5413 363.345 63.728C363.177 63.9147 362.925 64.008 362.589 64.008ZM366.254 59.612C365.955 59.612 365.712 59.5467 365.526 59.416C365.358 59.2667 365.255 59.08 365.218 58.856C365.199 58.6133 365.255 58.3427 365.386 58.044L373.086 40.516C373.254 40.1427 373.45 39.8813 373.674 39.732C373.916 39.564 374.178 39.48 374.458 39.48C374.738 39.48 374.99 39.564 375.214 39.732C375.456 39.8813 375.652 40.1427 375.802 40.516L383.53 58.044C383.679 58.3427 383.735 58.6133 383.698 58.856C383.679 59.0987 383.586 59.2853 383.418 59.416C383.25 59.5467 383.016 59.612 382.718 59.612C382.382 59.612 382.111 59.528 381.906 59.36C381.7 59.1733 381.532 58.912 381.402 58.576L379.33 53.788L380.45 54.376H368.41L369.558 53.788L367.514 58.576C367.346 58.9307 367.168 59.192 366.982 59.36C366.795 59.528 366.552 59.612 366.254 59.612ZM374.43 42.364L369.922 52.976L369.25 52.444H379.61L378.994 52.976L374.486 42.364H374.43ZM386.148 64.008C385.812 64.008 385.551 63.9147 385.364 63.728C385.196 63.5413 385.112 63.2707 385.112 62.916V58.632C385.112 57.8667 385.495 57.484 386.26 57.484H388.08L386.708 57.876C387.791 56.6813 388.594 55.02 389.116 52.892C389.639 50.7453 389.9 48.0387 389.9 44.772V40.936C389.9 40.5253 390.003 40.2173 390.208 40.012C390.432 39.788 390.75 39.676 391.16 39.676H401.744C402.136 39.676 402.444 39.788 402.668 40.012C402.892 40.2173 403.004 40.5253 403.004 40.936V58.408L402.08 57.484H404.628C405.002 57.484 405.291 57.5867 405.496 57.792C405.702 57.9787 405.804 58.2587 405.804 58.632V62.916C405.804 63.644 405.459 64.008 404.768 64.008C404.414 64.008 404.143 63.9147 403.956 63.728C403.788 63.5413 403.704 63.2707 403.704 62.916V59.416H387.184V62.916C387.184 63.644 386.839 64.008 386.148 64.008ZM389.452 57.484H400.68V41.608H392.056V44.94C392.056 47.9453 391.842 50.456 391.412 52.472C391.002 54.488 390.348 56.1587 389.452 57.484ZM410.013 59.612C409.64 59.612 409.351 59.5093 409.145 59.304C408.959 59.08 408.865 58.7813 408.865 58.408V40.656C408.865 40.264 408.959 39.9747 409.145 39.788C409.351 39.5827 409.64 39.48 410.013 39.48C410.387 39.48 410.667 39.5827 410.853 39.788C411.059 39.9747 411.161 40.264 411.161 40.656V48.468H415.025L414.353 48.916L420.177 40.096C420.345 39.8347 420.541 39.6667 420.765 39.592C420.989 39.4987 421.213 39.48 421.437 39.536C421.661 39.5733 421.848 39.676 421.997 39.844C422.147 39.9933 422.231 40.1893 422.249 40.432C422.287 40.656 422.221 40.8987 422.053 41.16L416.593 49.308L415.725 48.552C416.864 48.6827 417.835 49.084 418.637 49.756C419.44 50.428 420.14 51.3613 420.737 52.556L423.397 57.988C423.547 58.2867 423.593 58.5573 423.537 58.8C423.481 59.024 423.36 59.2013 423.173 59.332C422.987 59.4627 422.772 59.5373 422.529 59.556C422.305 59.5933 422.081 59.556 421.857 59.444C421.633 59.332 421.456 59.136 421.325 58.856L418.833 53.62C418.273 52.4813 417.639 51.6693 416.929 51.184C416.239 50.6987 415.38 50.456 414.353 50.456H411.161V58.408C411.161 58.7813 411.068 59.08 410.881 59.304C410.695 59.5093 410.405 59.612 410.013 59.612ZM425.891 59.612C425.592 59.612 425.349 59.5467 425.163 59.416C424.995 59.2667 424.892 59.08 424.855 58.856C424.836 58.6133 424.892 58.3427 425.023 58.044L432.723 40.516C432.891 40.1427 433.087 39.8813 433.311 39.732C433.553 39.564 433.815 39.48 434.095 39.48C434.375 39.48 434.627 39.564 434.851 39.732C435.093 39.8813 435.289 40.1427 435.439 40.516L443.167 58.044C443.316 58.3427 443.372 58.6133 443.335 58.856C443.316 59.0987 443.223 59.2853 443.055 59.416C442.887 59.5467 442.653 59.612 442.355 59.612C442.019 59.612 441.748 59.528 441.543 59.36C441.337 59.1733 441.169 58.912 441.039 58.576L438.967 53.788L440.087 54.376H428.047L429.195 53.788L427.151 58.576C426.983 58.9307 426.805 59.192 426.619 59.36C426.432 59.528 426.189 59.612 425.891 59.612ZM434.067 42.364L429.559 52.976L428.887 52.444H439.247L438.631 52.976L434.123 42.364H434.067Z" fill="black"></path></svg> 