<?xml version="1.0" encoding="UTF-8"?> <svg xmlns="http://www.w3.org/2000/svg" xmlns:xlink="http://www.w3.org/1999/xlink" version="1.1" id="Layer_1" x="0px" y="0px" viewBox="0 0 100 100" style="enable-background:new 0 0 100 100;" xml:space="preserve"> <style type="text/css"> .st0{fill-rule:evenodd;clip-rule:evenodd;fill:#A386C2;stroke:#A386C2;stroke-width:2;stroke-miterlimit:10;} </style> <g> <path class="st0" d="M52.8,71.2H37.5c-0.8,0-1.5,0.7-1.5,1.5v16.9h-5.3V72.7c0-0.8-0.7-1.5-1.5-1.5h-19L25,56.4 c0.6-0.6,0.6-1.5,0-2.1c-0.3-0.3-0.7-0.4-1.1-0.4h-9.1L30,38.6c0.1-0.1,0.2-0.3,0.3-0.5l0,0c0.1-0.2,0.1-0.4,0.1-0.5s0-0.4-0.1-0.5 l0,0c-0.2-0.4-0.4-0.7-0.8-0.8l0,0c-0.2-0.1-0.4-0.1-0.5-0.1h-8.7L33.5,23l7.8,7.9c0.6,0.6,1.5,0.6,2.1,0s0.6-1.5,0-2.1l0,0l-8.9-9 c-0.3-0.3-0.7-0.4-1.1-0.4l0,0c-0.4,0-0.8,0.2-1.1,0.4L15.5,36.5c-0.6,0.6-0.6,1.5,0,2.1c0.3,0.3,0.7,0.4,1.1,0.4h8.7L10.1,54.2 c-0.6,0.6-0.6,1.5,0,2.1c0.3,0.3,0.7,0.4,1.1,0.4h9.1L5.4,71.6c-0.6,0.6-0.6,1.5,0,2.1c0.3,0.3,0.7,0.4,1.1,0.4h21.1V91 c0,0.8,0.7,1.5,1.5,1.5h8.3c0.8,0,1.5-0.7,1.5-1.5V74.2h13.8c0.8,0,1.5-0.7,1.5-1.5S53.6,71.2,52.8,71.2z"></path> <path class="st0" d="M94.6,60.8l-15-15.1h9.1c0.6,0,1.2-0.4,1.4-0.9c0.2-0.6,0.1-1.2-0.3-1.6L74.4,27.6h8.8c0.8,0,1.5-0.7,1.5-1.5 c0-0.4-0.2-0.8-0.4-1L67.3,8c-0.3-0.3-0.7-0.4-1.1-0.4l0,0c-0.4,0-0.8,0.2-1.1,0.4L48,25c-0.6,0.6-0.6,1.5,0,2.1 c0.3,0.3,0.7,0.4,1.1,0.4H58L42.6,43.1c-0.6,0.6-0.6,1.5,0,2.1c0.3,0.3,0.7,0.4,1.1,0.4H53L37.8,60.8c-0.6,0.6-0.6,1.5,0,2.1 c0.3,0.3,0.7,0.4,1.1,0.4h21.5v17.2c0,0.8,0.7,1.5,1.5,1.5h8.5c0.8,0,1.5-0.7,1.5-1.5V63.3h21.6c0.6,0,1.2-0.4,1.4-0.9 C95.1,61.9,95,61.2,94.6,60.8z M70.4,60.3c-0.8,0-1.5,0.7-1.5,1.5V79h-5.5V61.8c0-0.8-0.7-1.5-1.5-1.5H42.5l15.1-15.1 c0.6-0.6,0.6-1.5,0-2.1c-0.3-0.3-0.7-0.4-1.1-0.4h-9.3l15.5-15.5c0.1-0.1,0.2-0.3,0.3-0.5l0,0c0.1-0.2,0.1-0.4,0.1-0.5 c0-0.2,0-0.4-0.1-0.5l0,0c-0.2-0.4-0.4-0.7-0.8-0.8l0,0c-0.2-0.1-0.4-0.1-0.5-0.1h-8.9l13.5-13.5l13.4,13.5h-8.8 c-0.8,0-1.5,0.7-1.5,1.5l0,0c0,0.2,0,0.4,0.1,0.5c0,0,0,0,0,0.1c0.1,0.2,0.2,0.3,0.3,0.4l0,0l15.3,15.5H76c-0.8,0-1.5,0.7-1.5,1.5 c0,0.4,0.2,0.8,0.4,1l15,15.1L70.4,60.3L70.4,60.3z"></path> </g> </svg> 