<?xml version="1.0" encoding="UTF-8"?> <svg xmlns="http://www.w3.org/2000/svg" xmlns:xlink="http://www.w3.org/1999/xlink" version="1.1" id="Layer_1" x="0px" y="0px" viewBox="0 0 100 100" style="enable-background:new 0 0 100 100;" xml:space="preserve"> <style type="text/css"> .st0{fill-rule:evenodd;clip-rule:evenodd;fill:#B8B8B8;stroke:#B8B8B8;stroke-width:2;stroke-miterlimit:10;} </style> <g> <path class="st0" d="M13.1,46.8c0.8,0,1.5-0.7,1.5-1.5c0-0.4-0.2-0.8-0.5-1.1L3.1,34.6c-0.6-0.5-1.6-0.4-2.1,0.2 c-0.5,0.6-0.4,1.5,0.1,2.1l10.9,9.6C12.4,46.7,12.7,46.8,13.1,46.8z M23.2,37.3c0.4,0.8,1.2,1.1,2,0.7c0.8-0.4,1.1-1.2,0.7-2 c0,0,0,0,0,0l-6.3-13.1c-0.4-0.7-1.3-1.1-2-0.7c-0.7,0.4-1.1,1.3-0.7,2c0,0,0,0,0,0C16.9,24.2,23.2,37.3,23.2,37.3z"></path> <path class="st0" d="M99.2,87.3V27.2c0,0,0,0,0-0.1c0-0.1,0-0.2,0-0.2c0,0,0-0.1,0-0.1c0-0.1-0.1-0.2-0.1-0.2c0,0,0,0,0-0.1 c0,0,0,0,0,0l0,0l0,0c-0.5-1-8.7-16-30.6-16c-23.3,0-30.4,15.5-30.7,16.2c-0.1,0.2-0.1,0.4-0.1,0.6V37c-14.6,1.7-25,16.7-25.5,17.4 c-0.3,0.5-0.3,1.2,0,1.7c0.5,0.7,10.9,15.7,25.5,17.4v14.6c0,0.8,0.7,1.5,1.5,1.5h58.7c0.8,0,1.5-0.7,1.5-1.5 C99.4,87.8,99.3,87.6,99.2,87.3z M91,23c2.6,0.7,4.6,3.7,5.1,4.6v58.3l-18.4-7.3V38c0.2-1,2-10.1,9.8-14.5 C88.7,22.8,89.9,22.6,91,23z M15.3,55.2C17.7,52,27.2,40.7,39,39.9c0.1,0,0.1,0,0.2,0c0.1,0,0.2,0,0.3,0c0.3,0,0.6,0,0.8,0 c11.2,0,20.7,12.1,23,15.4c-2.4,3.3-11.9,15.4-23,15.4C27.9,70.6,17.8,58.6,15.3,55.2z M40.6,73.6C55,73.4,66,56.8,66.5,56.1 c0.3-0.5,0.3-1.1,0-1.6C66,53.7,55,37.1,40.6,36.9v-9.3c1-2,7.8-14.1,27.8-14.1c9.6,0,16.3,3.1,20.7,6.4c-1,0.1-2,0.4-3,1 c-9.5,5.4-11.2,16.3-11.3,16.8c0,0.1,0,0.1,0,0.2v41.7c0,0.6,0.4,1.2,0.9,1.4l14.1,5.6H40.6V73.6z"></path> <path class="st0" d="M82.1,51.7c-0.8,0-1.5,0.7-1.5,1.5v4.4c0,0.8,0.7,1.5,1.5,1.5s1.5-0.7,1.5-1.5v-4.4 C83.6,52.4,83,51.7,82.1,51.7z M49.8,55.2c0-6-4.7-10.9-10.5-10.9s-10.5,4.9-10.5,10.9s4.7,10.9,10.5,10.9 C45.1,66.2,49.8,61.3,49.8,55.2z M39.3,63.2c-4.1,0-7.5-3.6-7.5-7.9c0-4.4,3.3-7.9,7.5-7.9s7.5,3.6,7.5,7.9 C46.8,59.6,43.4,63.2,39.3,63.2z"></path> </g> </svg> 