<?xml version="1.0" encoding="UTF-8"?> <svg xmlns="http://www.w3.org/2000/svg" xmlns:xlink="http://www.w3.org/1999/xlink" xmlns:svgjs="http://svgjs.dev/svgjs" id="line_copy" viewBox="0 0 64 64" data-name="line copy" width="300" height="300" version="1.1"><g width="100%" height="100%" transform="matrix(1,0,0,1,0,0)"><linearGradient id="linear-gradient" gradientUnits="userSpaceOnUse" x1="4" x2="60" y1="32" y2="32"><stop stop-opacity="1" stop-color="#9c4399" offset="0.02"></stop><stop stop-opacity="1" stop-color="#93c1cc" offset="1"></stop></linearGradient><path d="m36.97924 46.12012h-30.97949v-32.56006h41.20025v10.06982a1 1 0 0 0 2 0v-10.06982a2.00229 2.00229 0 0 0 -2-2h-41.20025a2.00229 2.00229 0 0 0 -2 2v32.56006a2.0023 2.0023 0 0 0 2 2h2.32031v2.23974a2.08273 2.08273 0 0 0 2.08008 2.08008h2.15918a2.08273 2.08273 0 0 0 2.08008-2.08008v-2.23974h22.33984a1.00019 1.00019 0 0 0 0-2zm-24.33984 4.23974a.08312.08312 0 0 1 -.08008.08008h-2.15918a.08312.08312 0 0 1 -.08008-.08008v-2.23974h2.31934zm30.24023-25v-7.48h-32.55957v23.91994h24.41986a1.00018 1.00018 0 0 1 .00007 2h-25.41993a.99974.99974 0 0 1 -1-1v-25.91992a.99974.99974 0 0 1 1-1h34.55957a.99974.99974 0 0 1 1 1v8.48a1 1 0 1 1 -2 0zm-21.59963 4.47998c.22382 7.03156 10.41712 7.02887 10.63965-.00012-.22337-7.02984-10.41703-7.02917-10.63965.00012zm8.63965 0a3.32 3.32 0 0 1 -6.63965-.00012 3.32 3.32 0 0 1 6.63967.00012zm29.86035 2.89307c-.08715-.50769-.12664-1.33234-.75586-1.54248l-10.45314-4.18115a1.00467 1.00467 0 0 0 -.74219 0l-10.45308 4.18115c-.5968.24866-.67029.977-.75684 1.54108a18.09842 18.09842 0 0 0 11.58111 19.63617 18.0949 18.0949 0 0 0 11.58-19.63477zm-11.58 17.53467a16.20481 16.20481 0 0 1 -9.57227-17.42383l9.57227-3.82861 9.57129 3.82861a16.20214 16.20214 0 0 1 -9.57129 17.42383z" fill="url(#linear-gradient)" data-original-color="linear-gradient" stroke="none" stroke-opacity="1"></path></g></svg> 