<?xml version="1.0" encoding="UTF-8"?> <svg xmlns="http://www.w3.org/2000/svg" xmlns:xlink="http://www.w3.org/1999/xlink" xmlns:svgjs="http://svgjs.dev/svgjs" id="line_copy" viewBox="0 0 64 64" data-name="line copy" width="300" height="300" version="1.1"><g width="100%" height="100%" transform="matrix(1,0,0,1,0,0)"><linearGradient id="linear-gradient" gradientUnits="userSpaceOnUse" x1="4" x2="60" y1="32" y2="32"><stop stop-opacity="1" stop-color="#9c4399" offset="0.02"></stop><stop stop-opacity="1" stop-color="#93c1cc" offset="1"></stop></linearGradient><path d="m32 48.082a2.98768 2.98768 0 0 0 2.50391-1.35254c4.875-7.417 13.05273-20.80957 13.05273-27.17285a15.55664 15.55664 0 0 0 -31.11328 0c0 6.36328 8.17773 19.75586 13.05273 27.17285a2.98768 2.98768 0 0 0 2.50391 1.35254zm0-42.082a13.57144 13.57144 0 0 1 13.55664 13.55664c0 4.20508-4.75684 13.95215-12.72461 26.0752a1.02108 1.02108 0 0 1 -1.66406 0c-7.96777-12.123-12.72461-21.87012-12.72461-26.0752a13.57144 13.57144 0 0 1 13.55664-13.55664zm27.82031 53.57227a1.00181 1.00181 0 0 1 -.82031.42773h-54a.99988.99988 0 0 1 -.93848-1.3457l7-19a.99929.99929 0 0 1 .93848-.6543h9.75977a1 1 0 1 1 0 2h-9.0625l-6.2627 17h51.13086l-6.2627-17h-9.0625a1 1 0 0 1 0-2h9.75977a.99929.99929 0 0 1 .93848.6543l7 19a1.00149 1.00149 0 0 1 -.11817.91797zm-27.82031-47.81934-8.71875 6.78125a1 1 0 0 1 -1.22852-1.57813l9.333-7.25878a.99985.99985 0 0 1 1.22852 0l9.333 7.25878a1 1 0 1 1 -1.22852 1.57813zm6.333 15.65234v-7.70312a1.00038 1.00038 0 0 0 -.38574-.78906l-5.333-4.14844a.99985.99985 0 0 0 -1.22852 0l-5.333 4.14844a1.00038 1.00038 0 0 0 -.38574.78906v7.70312a.99942.99942 0 0 0 1 1h10.666a.99942.99942 0 0 0 1-1zm-2-1h-3.333v-2.91992a1 1 0 1 0 -2 0v2.91992h-3.333v-6.21386l4.333-3.3711 4.333 3.3711z" fill="url(#linear-gradient)" data-original-color="linear-gradient" stroke="none" stroke-opacity="1"></path></g></svg> 