<?xml version="1.0" encoding="UTF-8"?> <svg xmlns="http://www.w3.org/2000/svg" version="1.1" width="388" height="304"><path d="M0 0 C4.31976184 0.00258287 8.63952187 0.00016962 12.95928383 -0.00138617 C20.21412989 -0.0031925 27.4689657 -0.00084395 34.7238102 0.00395441 C43.01702627 0.0093775 51.31021767 0.00764232 59.60343313 0.00212801 C66.81285225 -0.00246731 74.0222641 -0.00302238 81.23168421 -0.00043333 C85.49797943 0.00109686 89.76426322 0.00141641 94.03055763 -0.00196981 C104.04560085 -0.00855452 114.05936666 0.02472308 124.07401085 0.11594152 C126.35982823 0.1347209 128.64561702 0.14686338 130.93148232 0.1582284 C134.67319143 0.17961566 138.41367143 0.22830609 142.15480328 0.29687762 C143.54313101 0.31873395 144.93161592 0.33241431 146.32010746 0.33719277 C148.22579257 0.34555323 150.13123556 0.38801878 152.03643227 0.43196344 C153.10835068 0.44682858 154.18026909 0.46169371 155.28466988 0.4770093 C159.26890346 1.34218093 162.01569833 2.76887808 164.31170082 6.1343255 C165.18089579 9.51416186 165.1219206 12.79402737 165.07360268 16.26884699 C165.08296262 17.29864648 165.09232256 18.32844597 165.10196614 19.3894515 C165.12592723 22.84529582 165.10693052 26.29956276 165.08806801 29.75541925 C165.09619681 32.23078066 165.10687909 34.70613481 165.11992836 37.18147516 C165.14447369 43.20991288 165.1408454 49.23772995 165.12345251 55.26614356 C165.10990249 60.16542807 165.10806431 65.06458696 165.11459541 69.96388483 C165.11551481 70.6611548 165.11643421 71.35842477 165.11738147 72.07682413 C165.11929982 73.49331184 165.1212451 74.90979951 165.12321702 76.32628715 C165.14032664 89.60898109 165.12065395 102.89142658 165.08841482 116.17407978 C165.06160805 127.57143455 165.06626419 138.96842266 165.09392738 150.36577082 C165.12603608 163.6008853 165.13867869 176.83578202 165.1202538 190.07093 C165.11834251 191.48220869 165.11645628 192.89348742 165.11459541 194.30476618 C165.11366976 194.99914347 165.11274411 195.69352075 165.1117904 196.40893978 C165.10660967 201.30238934 165.11535445 206.1957008 165.12947273 211.08912897 C165.14805718 217.67532137 165.13482751 224.26092787 165.10010719 230.84709024 C165.09216035 233.26704362 165.09447489 235.68705519 165.10768318 238.10698557 C165.12402908 241.40538499 165.10358083 244.70154797 165.07360268 247.99980402 C165.08698701 248.96234818 165.10037134 249.92489235 165.11416125 250.91660452 C165.03633529 255.31705975 164.72433016 257.54174365 162.16475391 261.21758127 C156.91027545 264.73160082 149.97158261 263.91656688 143.90094948 263.9367547 C142.46407998 263.95906935 141.02724017 263.98337478 139.59043604 264.00956273 C135.88086032 264.07055273 132.17174507 264.10120422 128.46174493 264.12130392 C125.1566198 264.14132117 121.85170587 264.18018752 118.54671478 264.21560144 C111.36416402 264.27936046 104.18192226 264.29276336 96.99914539 264.29436827 C93.30560079 264.2962715 89.61206611 264.30384062 85.9185276 264.31050348 C77.916077 264.32385789 69.91363154 264.33006974 61.91117167 264.33451414 C56.90240296 264.33730591 51.89363608 264.34154706 46.88486862 264.34601831 C32.9686295 264.3581617 19.0523918 264.3684829 5.1361475 264.37189341 C3.81124397 264.37222276 3.81124397 264.37222276 2.4595747 264.37255876 C1.57451793 264.37277704 0.68946116 264.37299531 -0.22241551 264.37322021 C-2.01516124 264.37366364 -3.80790697 264.3741102 -5.60065269 264.37455988 C-6.48986736 264.37478131 -7.37908203 264.37500274 -8.2952426 264.37523088 C-22.77998801 264.3791994 -37.26468377 264.39673745 -51.74940992 264.4199194 C-66.68131262 264.44362233 -81.61319026 264.45609411 -96.54511207 264.45726132 C-104.90567479 264.45817661 -113.26617199 264.46389566 -121.62671661 264.48208094 C-128.72244469 264.49746477 -135.8180868 264.50261106 -142.91382838 264.49434283 C-146.53008369 264.49043553 -150.14616567 264.49137118 -153.76239967 264.50540018 C-157.68195275 264.52046812 -161.60126144 264.51227901 -165.52083397 264.50181818 C-166.66146453 264.50987458 -167.80209509 264.51793099 -168.97729021 264.52623153 C-175.81802695 264.4834274 -180.98264775 263.97532494 -186.56329918 259.6968255 C-188.8833062 256.47459353 -188.82007842 252.85732033 -188.84943199 249.00200129 C-188.85903954 247.98059046 -188.86864708 246.95917963 -188.87854576 245.90681696 C-188.88279564 244.8088479 -188.88704552 243.71087885 -188.89142418 242.579638 C-188.89712425 241.4453335 -188.90282433 240.311029 -188.90869713 239.14235163 C-188.91813977 236.74336411 -188.92467819 234.34436366 -188.92853355 231.94536066 C-188.93824373 228.28025396 -188.96927675 224.61570699 -189.00079918 220.95073175 C-189.00732906 218.61870383 -189.01257959 216.2866719 -189.01642418 213.954638 C-189.02877098 212.86071741 -189.04111778 211.76679682 -189.05383873 210.63972712 C-189.02479438 200.69359619 -189.02479438 200.69359619 -185.68829918 196.1343255 C-182.17699746 193.35126667 -179.59578645 192.76716091 -175.16876793 192.84135675 C-174.1471859 192.85102472 -173.12560387 192.86069269 -172.0730648 192.87065363 C-171.01796715 192.89579035 -169.96286949 192.92092707 -168.87579918 192.9468255 C-167.80136559 192.96036066 -166.72693199 192.97389582 -165.6199398 192.98784113 C-162.97554463 193.02309973 -160.3321817 193.07238184 -157.68829918 193.1343255 C-157.70924644 191.95402765 -157.73019371 190.7737298 -157.75177574 189.55766535 C-157.82437687 185.16325833 -157.87017189 180.76890397 -157.90802574 176.3740716 C-157.92809547 174.47489226 -157.95535769 172.57577436 -157.99005699 170.67680597 C-158.03878027 167.94113711 -158.06131425 165.2062878 -158.07892418 162.470263 C-158.10989189 161.20428782 -158.10989189 161.20428782 -158.14148521 159.91273737 C-158.14352156 154.51812713 -157.37992852 151.34997507 -153.68829918 147.1343255 C-150.60749725 144.93746342 -147.99257756 144.8976113 -144.26642418 144.939013 C-142.72921715 144.94868097 -142.72921715 144.94868097 -141.16095543 144.95854425 C-139.56574059 144.98368097 -139.56574059 144.98368097 -137.93829918 145.0093255 C-136.85935387 145.01834894 -135.78040855 145.02737238 -134.66876793 145.03666925 C-132.0083864 145.06021245 -129.34845582 145.09309752 -126.68829918 145.1343255 C-126.68999107 143.21970514 -126.68999107 143.21970514 -126.69171715 141.26640558 C-126.68804143 136.52295395 -126.64520942 131.78051845 -126.59064293 127.03740168 C-126.57249355 124.98603601 -126.5649125 122.93454815 -126.56818199 120.8831048 C-126.57104213 117.93072916 -126.53569666 114.98088194 -126.49298668 112.02885675 C-126.50662758 110.65670763 -126.50662758 110.65670763 -126.52054405 109.25683832 C-126.38129804 103.13327456 -126.38129804 103.13327456 -124.50436974 100.42770624 C-121.16198704 97.35319645 -118.28630726 96.52685217 -113.85236168 96.64604425 C-112.25714684 96.67021418 -112.25714684 96.67021418 -110.62970543 96.69487238 C-109.53529137 96.73676691 -108.4408773 96.77866144 -107.31329918 96.8218255 C-106.19568199 96.8443841 -105.0780648 96.86694269 -103.92658043 96.89018488 C-101.17910028 96.94889172 -98.43440157 97.03095705 -95.68829918 97.1343255 C-95.70400963 95.94879084 -95.71972008 94.76325617 -95.7359066 93.54179621 C-95.79029483 89.13431351 -95.82468164 84.72686036 -95.8530941 80.31913996 C-95.86816046 78.4131647 -95.88861742 76.50722399 -95.91461754 74.60136652 C-95.95109559 71.85835975 -95.96804709 69.11581223 -95.98126793 66.37260675 C-95.99675179 65.52346201 -96.01223564 64.67431726 -96.02818871 63.79944086 C-96.02952454 59.08052318 -95.80270227 55.92930448 -92.68829918 52.1343255 C-90.41195722 49.9085622 -89.20483251 49.20052947 -86.03107262 48.79374933 C-84.55429039 48.81731501 -84.55429039 48.81731501 -83.04767418 48.84135675 C-81.44279137 48.85585871 -81.44279137 48.85585871 -79.80548668 48.87065363 C-78.6943148 48.89579035 -77.58314293 48.92092707 -76.43829918 48.9468255 C-74.74833824 48.96712824 -74.74833824 48.96712824 -73.02423668 48.98784113 C-70.24510654 49.02316905 -67.46694555 49.07250031 -64.68829918 49.1343255 C-64.71448326 47.92373468 -64.74066734 46.71314386 -64.76764488 45.46586847 C-64.85837956 40.95971 -64.91563289 36.45363171 -64.96295738 31.9468255 C-64.98804864 29.99909607 -65.02212979 28.05146031 -65.06549644 26.10405207 C-65.12638667 23.2988036 -65.15456249 20.49480343 -65.17658043 17.689013 C-65.20238686 16.82315577 -65.22819328 15.95729853 -65.25478172 15.06520319 C-65.25675501 10.77854106 -65.03396047 8.00100711 -62.2827816 4.59965754 C-57.7502219 0.29272351 -53.84231225 0.81554098 -47.82697105 0.58012629 C-46.77070267 0.53801586 -45.71443428 0.49590544 -44.62615776 0.45251894 C-29.75607052 -0.07596499 -14.87728254 -0.01173384 0 0 Z M-42.68829918 22.1343255 C-42.68829918 31.0443255 -42.68829918 39.9543255 -42.68829918 49.1343255 C4.50170082 49.1343255 51.69170082 49.1343255 100.31170082 49.1343255 C100.31170082 40.2243255 100.31170082 31.3143255 100.31170082 22.1343255 C53.12170082 22.1343255 5.93170082 22.1343255 -42.68829918 22.1343255 Z M122.31170082 22.1343255 C122.23822426 26.48684504 122.23822426 26.48684504 122.16326332 30.92729425 C122.10922229 33.74383343 122.05192705 36.56028896 121.99431801 39.37675714 C121.95608293 41.33112059 121.92122055 43.2855531 121.88982582 45.24003839 C121.84405648 48.05270772 121.78608159 50.8649039 121.72576332 53.67729425 C121.71421211 54.54831278 121.7026609 55.4193313 121.69075966 56.31674433 C121.49427345 64.43019057 121.49427345 64.43019057 119.31170082 68.1343255 C116.20026515 69.17147073 113.81701986 69.33464412 110.54998207 69.45073175 C109.43172035 69.49262629 108.31345863 69.53452082 107.1613102 69.57768488 C105.9940641 69.61700129 104.82681801 69.65631769 103.62420082 69.6968255 C102.44535316 69.7400091 101.26650551 69.78319269 100.0519352 69.82768488 C97.13864199 69.93383726 94.22526325 70.03588793 91.31170082 70.1343255 C91.29188148 71.35538996 91.27206215 72.57645441 91.25164223 73.83452082 C91.17553959 78.36711904 91.08682921 82.8993982 90.99431801 87.43168879 C90.95604755 89.3928877 90.92119128 91.35415635 90.88982582 93.31547785 C90.84413342 96.13555548 90.78614582 98.95515388 90.72576332 101.7749505 C90.71421211 102.65113031 90.7026609 103.52731012 90.69075966 104.43004084 C90.67088997 105.25058954 90.65102028 106.07113825 90.63054848 106.91655207 C90.61722481 107.63603022 90.60390114 108.35550837 90.59017372 109.09678888 C90.26146379 111.50190089 89.60673509 113.0836084 88.31170082 115.1343255 C82.50797529 118.50249025 76.9773267 118.66385599 70.37420082 118.8218255 C69.40418129 118.85598566 68.43416176 118.89014582 67.4347477 118.92534113 C65.06051446 119.00721124 62.68662205 119.07655629 60.31170082 119.1343255 C60.2971183 120.31986017 60.28253578 121.50539484 60.26751137 122.7268548 C60.20944144 127.13471027 60.13220899 131.54205954 60.04924965 135.94951105 C60.0160412 137.85535182 59.98799657 139.76128997 59.96526527 141.66728449 C59.93164414 144.41062565 59.87932487 147.15307772 59.82341957 149.89604425 C59.81702965 150.745189 59.81063972 151.59433374 59.80405617 152.46921015 C59.68892233 157.12508651 59.4278794 160.42032952 56.31170082 164.1343255 C53.2643202 166.25525734 50.54829889 166.4264389 46.88982582 166.548388 C45.86502113 166.58705988 44.84021645 166.62573175 43.78435707 166.6655755 C42.18914223 166.71198175 42.18914223 166.71198175 40.56170082 166.7593255 C39.48275551 166.79799738 38.4038102 166.83666925 37.29216957 166.876513 C34.63218307 166.97067182 31.97220142 167.05629938 29.31170082 167.1343255 C29.2971183 168.31986017 29.28253578 169.50539484 29.26751137 170.7268548 C29.20944144 175.13471027 29.13220899 179.54205954 29.04924965 183.94951105 C29.0160412 185.85535182 28.98799657 187.76128997 28.96526527 189.66728449 C28.93164414 192.41062565 28.87932487 195.15307772 28.82341957 197.89604425 C28.81702965 198.745189 28.81063972 199.59433374 28.80405617 200.46921015 C28.68892233 205.12508651 28.4278794 208.42032952 25.31170082 212.1343255 C22.2643202 214.25525734 19.54829889 214.4264389 15.88982582 214.548388 C14.5039225 214.60180353 14.5039225 214.60180353 13.09002113 214.65629816 C11.92567543 214.69029718 10.76132973 214.72429621 9.56170082 214.7593255 C5.84920082 214.8830755 2.13670082 215.0068255 -1.68829918 215.1343255 C-1.68829918 224.0443255 -1.68829918 232.9543255 -1.68829918 242.1343255 C46.16170082 242.1343255 94.01170082 242.1343255 143.31170082 242.1343255 C143.31170082 169.5343255 143.31170082 96.9343255 143.31170082 22.1343255 C136.38170082 22.1343255 129.45170082 22.1343255 122.31170082 22.1343255 Z M-73.68829918 70.1343255 C-73.68829918 79.0443255 -73.68829918 87.9543255 -73.68829918 97.1343255 C-26.16829918 97.1343255 21.35170082 97.1343255 70.31170082 97.1343255 C70.31170082 88.2243255 70.31170082 79.3143255 70.31170082 70.1343255 C22.79170082 70.1343255 -24.72829918 70.1343255 -73.68829918 70.1343255 Z M-104.68829918 119.1343255 C-104.68829918 127.7143255 -104.68829918 136.2943255 -104.68829918 145.1343255 C-57.16829918 145.1343255 -9.64829918 145.1343255 39.31170082 145.1343255 C39.31170082 136.5543255 39.31170082 127.9743255 39.31170082 119.1343255 C-8.20829918 119.1343255 -55.72829918 119.1343255 -104.68829918 119.1343255 Z M-135.68829918 167.1343255 C-135.68829918 176.0443255 -135.68829918 184.9543255 -135.68829918 194.1343255 C-88.16829918 194.1343255 -40.64829918 194.1343255 8.31170082 194.1343255 C8.31170082 185.2243255 8.31170082 176.3143255 8.31170082 167.1343255 C-39.20829918 167.1343255 -86.72829918 167.1343255 -135.68829918 167.1343255 Z M-166.68829918 215.1343255 C-166.68829918 224.0443255 -166.68829918 232.9543255 -166.68829918 242.1343255 C-119.16829918 242.1343255 -71.64829918 242.1343255 -22.68829918 242.1343255 C-22.68829918 233.2243255 -22.68829918 224.3143255 -22.68829918 215.1343255 C-70.20829918 215.1343255 -117.72829918 215.1343255 -166.68829918 215.1343255 Z " fill="#B9B9B9" transform="translate(207.68829917907715,20.86567449569702)"></path></svg> 