<?xml version="1.0" encoding="UTF-8"?> <svg xmlns="http://www.w3.org/2000/svg" xmlns:xlink="http://www.w3.org/1999/xlink" xmlns:svgjs="http://svgjs.dev/svgjs" id="polos_copy" height="300" viewBox="0 0 64 64" width="300" data-name="polos copy" version="1.1"><g width="100%" height="100%" transform="matrix(1,0,0,1,0,0)"><linearGradient id="linear-gradient" gradientUnits="userSpaceOnUse" x1="4" x2="60" y1="32" y2="32"><stop stop-opacity="1" stop-color="#9c4399" offset="0.02"></stop><stop stop-opacity="1" stop-color="#93c1cc" offset="1"></stop></linearGradient><path d="m32 11a21 21 0 1 0 21 21 21.02359 21.02359 0 0 0 -21-21zm0 40a19 19 0 1 1 19-19 19.02162 19.02162 0 0 1 -19 19zm0-47a28 28 0 1 0 28 28 28.03146 28.03146 0 0 0 -28-28zm0 54a26 26 0 1 1 26-26 26.02916 26.02916 0 0 1 -26 26zm3.375-38h-8.25a1 1 0 0 0 -1 1v10h-3a1 1 0 0 0 0 2h3v3h-3a1 1 0 0 0 0 2h3v5a1 1 0 0 0 2 0v-5h3a1 1 0 0 0 0-2h-3v-3h7.25a6.5 6.5 0 0 0 0-13zm0 11h-7.25v-9h7.25a4.5 4.5 0 0 1 0 9z" fill="url(#linear-gradient)" data-original-color="linear-gradient" stroke="none" stroke-opacity="1"></path></g></svg> 