<?xml version="1.0" encoding="UTF-8"?> <svg xmlns="http://www.w3.org/2000/svg" width="1928" height="2277" viewBox="0 0 1928 2277" fill="none"><path fill-rule="evenodd" clip-rule="evenodd" d="M1005.02 0.834473L1071.74 94.6596L1072.85 116.68L1065.85 117.03L1064.86 97.0505L1003.58 10.8757L544.343 371.737L585.8 443.922V495.51L524.895 526.211L555.187 643.406L495.554 703.54L537.215 947.061C542.996 966.672 545.743 997.219 535.128 1025.55C524.379 1054.23 500.061 1080.24 452.524 1090.28L452.326 1090.32L275.278 1106.78L243.132 1122.85L231.929 1154.69L188.921 1097.35L63.3889 1131.05L7.43658 1174.46L12.7624 1242.73L55.1965 1391L85.5039 1530.42L42.2602 1606.96L71.4028 1665.72L135.073 1661.74L195.417 1750.45L183.753 1859.48L155.271 1969.41L143.845 2144.29L176.025 2224.02L270.899 2210.98L243.056 2266.67L329.195 2251.13L303.01 2173.05L302.982 2172.97L290.261 2137.86L295.99 2048.27L411.829 2032.52L412.772 2039.46L302.61 2054.44L297.34 2136.85L309.605 2170.7L309.619 2170.74L338.406 2256.58L230.545 2276.04L258.702 2219.73L171.575 2231.69L136.756 2145.42L148.329 1968.3L176.848 1858.23L188.184 1752.26L131.528 1668.97L67.1981 1672.99L34.3407 1606.75L78.0969 1529.3L48.4044 1392.71L5.83849 1243.98L0.164307 1171.25L60.212 1124.66L191.68 1089.36L229.672 1140.02L237.469 1117.86L273.323 1099.93L451.274 1083.39C496.405 1073.8 518.703 1049.43 528.573 1023.09C538.554 996.455 535.958 967.415 530.445 948.851L530.386 948.651L488.047 701.17L547.414 641.304L516.706 522.5L578.8 491.2V445.789L535.258 369.973L1005.02 0.834473ZM1038.62 173.673L1072.86 148.682L1068.74 143.028L1028.98 172.037L1077.95 242.988L1032.41 275.016L1704.09 1219.39L1748.02 1184.45L1801.8 1264.12L1845.17 1236.82L1841.44 1230.89L1803.8 1254.59L1749.58 1174.26L1705.51 1209.32L1042.19 276.694L1087.65 244.722L1038.62 173.673ZM1858.95 1253.05L1927.61 1367.06L1812.17 1436.02L1766.07 1495.85L1741.16 1619.38L1738.26 1619.35C1730.16 1619.27 1717.99 1619.02 1707.82 1618.54C1702.75 1618.3 1698.12 1618 1694.72 1617.62C1693.81 1617.52 1692.94 1617.41 1692.17 1617.29C1691.96 1618.13 1691.72 1619.11 1691.45 1620.21C1690.37 1624.67 1688.88 1631.06 1687.21 1638.27C1683.88 1652.68 1679.88 1670.29 1677.21 1682.12L1677 1683.07L1635.1 1727.04L1067.37 1855.04L1019.51 1831.62L959.88 1813.2L900.595 1853.68L874.43 1912.56L642.218 2008.26L424.272 2037.9L423.329 2030.96L640.383 2001.45L869.171 1907.15L895.006 1849.03L958.721 1805.51L1022.09 1825.09L1068.23 1847.67L1631.5 1720.67L1670.6 1679.64C1673.26 1667.83 1677.14 1650.74 1680.39 1636.69C1682.06 1629.48 1683.56 1623.06 1684.65 1618.56C1685.19 1616.32 1685.64 1614.53 1685.95 1613.35C1686.1 1612.79 1686.24 1612.28 1686.36 1611.93C1686.39 1611.84 1686.43 1611.72 1686.48 1611.59L1686.48 1611.58C1686.51 1611.51 1686.64 1611.2 1686.85 1610.87L1686.86 1610.87C1686.92 1610.77 1687.35 1610.1 1688.2 1609.67C1688.75 1609.39 1689.69 1609.12 1690.77 1609.43C1691.33 1609.6 1691.77 1609.87 1692.1 1610.16C1692.81 1610.32 1693.94 1610.49 1695.49 1610.67C1698.66 1611.01 1703.12 1611.31 1708.15 1611.55C1717.06 1611.97 1727.56 1612.21 1735.44 1612.32L1759.53 1492.86L1807.43 1430.69L1917.99 1364.65L1852.95 1256.66L1858.95 1253.05Z" fill="#CD2027"></path></svg> 