<?xml version="1.0" encoding="UTF-8"?> <svg xmlns="http://www.w3.org/2000/svg" width="300" height="300" viewBox="0 0 300 300" fill="none"><path d="M40.8328 259.279L65.1797 254.376C67.3687 253.935 68.9437 252.013 68.9437 249.782V241.068L109.641 252.768C111.398 254.694 113.559 256.316 116.072 257.474C118.753 258.716 121.603 259.34 124.542 259.34C132.398 259.34 139.608 254.732 142.903 247.602C144.586 243.965 145.05 240.084 144.534 236.38L150.605 223.246L152.47 224.109C153.108 224.404 153.773 224.544 154.434 224.544C156.202 224.544 157.898 223.537 158.691 221.821L165.736 206.573L205.716 225.046C208.055 226.129 210.844 225.116 211.936 222.759L216.417 213.055C217.814 214.059 219.277 214.959 220.823 215.662C234.38 221.929 250.406 216.018 256.617 202.504C261.141 192.763 259.294 181.565 252.548 173.709L262.631 167.179C264.066 166.251 264.881 164.615 264.759 162.913C264.637 161.212 263.602 159.707 262.05 158.99L120.928 93.7773C119.798 93.257 118.514 93.2054 117.342 93.632C116.175 94.0585 115.228 94.9351 114.703 96.0648L83.5687 163.438C82.4812 165.787 83.5078 168.576 85.8562 169.659C106.58 179.235 118.523 184.752 122.644 186.66L115.598 201.909C114.511 204.257 115.537 207.046 117.886 208.129L119.77 209.001L115.917 217.335L68.9344 203.882V193.48C68.9344 191.249 67.3593 189.327 65.1703 188.887L40.8328 183.984C39.464 183.702 38.025 184.063 36.9375 184.954C35.85 185.844 35.2172 187.176 35.2172 188.582V254.685C35.2219 257.638 37.9359 259.865 40.8328 259.279ZM205.392 214.569L124.72 177.29L136.355 152.113L217.027 189.393L205.392 214.569ZM248.114 198.571C244.064 207.384 233.625 211.241 224.742 207.144C223.186 206.432 221.789 205.401 220.495 204.243L226.936 190.302L244.65 178.832C249.75 183.965 251.25 191.816 248.114 198.571ZM121.252 104.254L250.406 163.935L222.872 181.762L136.036 141.637C134.911 141.116 133.617 141.065 132.45 141.491C131.283 141.923 130.336 142.794 129.811 143.924L116.212 173.357L94.05 163.115L121.252 104.254ZM152.147 213.632L126.084 201.59L131.161 190.598L157.228 202.64L152.147 213.632ZM133.031 220.771C130.636 219.66 128.091 219.121 125.484 219.004L128.287 212.938L142.092 219.318L139.308 225.337C137.573 223.48 135.478 221.901 133.031 220.771ZM134.391 243.669C131.902 249.055 125.48 251.493 120.005 248.962C114.581 246.454 112.205 239.999 114.712 234.576C117.173 229.251 123.577 226.724 129.098 229.284C134.536 231.796 136.903 238.227 134.391 243.669ZM109.819 225.341C108.366 226.893 107.119 228.655 106.2 230.643C104.564 234.177 104.105 237.941 104.55 241.546L68.9437 231.309V213.632L109.819 225.341ZM44.5969 194.31L59.5687 197.324V245.943L44.5969 248.957V194.31Z" fill="url(#paint0_linear_1035_20)"></path><path d="M196.209 109.509C200.579 109.509 204.122 105.966 204.122 101.596C204.122 97.2261 200.579 93.6836 196.209 93.6836C191.839 93.6836 188.297 97.2261 188.297 101.596C188.297 105.966 191.839 109.509 196.209 109.509Z" fill="url(#paint1_linear_1035_20)"></path><path d="M217.336 87.0887C219.169 85.2559 219.169 82.2934 217.336 80.4605C211.692 74.8168 204.192 71.709 196.209 71.709C188.227 71.709 180.722 74.8168 175.078 80.4652C173.245 82.298 173.245 85.2605 175.078 87.0934C176.911 88.9262 179.873 88.9262 181.706 87.0934C185.583 83.2168 190.73 81.084 196.209 81.084C201.689 81.084 206.836 83.2168 210.708 87.0887C212.536 88.9215 215.503 88.9215 217.336 87.0887Z" fill="url(#paint2_linear_1035_20)"></path><path d="M166.795 72.1777C174.652 64.3215 185.1 59.9902 196.209 59.9902C207.319 59.9902 217.762 64.3168 225.619 72.173C227.452 74.0012 230.419 74.0012 232.252 72.173C234.08 70.3402 234.08 67.373 232.252 65.5402C222.623 55.9168 209.822 50.6152 196.214 50.6152C182.597 50.6152 169.795 55.9168 160.172 65.5496C158.339 67.3824 158.339 70.3496 160.172 72.1777C161.995 74.0105 164.962 74.0105 166.795 72.1777Z" fill="url(#paint3_linear_1035_20)"></path><defs><linearGradient id="paint0_linear_1035_20" x1="35.2172" y1="93.3457" x2="264.771" y2="93.3457" gradientUnits="userSpaceOnUse"><stop offset="0.02" stop-color="#9C4399"></stop><stop offset="1" stop-color="#93C1CC"></stop></linearGradient><linearGradient id="paint1_linear_1035_20" x1="188.297" y1="93.6836" x2="204.122" y2="93.6836" gradientUnits="userSpaceOnUse"><stop offset="0.02" stop-color="#9C4399"></stop><stop offset="1" stop-color="#93C1CC"></stop></linearGradient><linearGradient id="paint2_linear_1035_20" x1="173.703" y1="71.709" x2="218.711" y2="71.709" gradientUnits="userSpaceOnUse"><stop offset="0.02" stop-color="#9C4399"></stop><stop offset="1" stop-color="#93C1CC"></stop></linearGradient><linearGradient id="paint3_linear_1035_20" x1="158.797" y1="50.6152" x2="233.623" y2="50.6152" gradientUnits="userSpaceOnUse"><stop offset="0.02" stop-color="#9C4399"></stop><stop offset="1" stop-color="#93C1CC"></stop></linearGradient></defs></svg> 