<?xml version="1.0" encoding="UTF-8"?> <svg xmlns:svgjs="http://svgjs.dev/svgjs" xmlns="http://www.w3.org/2000/svg" xmlns:xlink="http://www.w3.org/1999/xlink" version="1.1" id="object" x="0px" y="0px" width="300px" height="300px" viewBox="0 0 300 300" style="enable-background:new 0 0 300 300;" xml:space="preserve"> <style type="text/css"> .st0{fill:url(#SVGID_1_);} .st1{fill:url(#SVGID_00000164489562521799766250000012043071500134559110_);} </style> <g transform="matrix(1,0,0,1,0,0)"> <g id="_2-3"> <linearGradient id="SVGID_1_" gradientUnits="userSpaceOnUse" x1="-691.3568" y1="255.6408" x2="-627.3054" y2="191.5885" gradientTransform="matrix(3 0 0 3 2128 -466)"> <stop offset="2.000000e-02" style="stop-color:#9C4399"></stop> <stop offset="1" style="stop-color:#93C1CC"></stop> </linearGradient> <path class="st0" d="M27.3,272.4c-2.5,0-4.5-2-4.5-4.5v-94.5h-4.7c-2.5,0-4.5-2-4.5-4.5v-18c0-1.5,0.7-2.8,2-3.6 c0.2-0.2,0.3-0.3,0.5-0.4L145.5,75V32.1c0-1.8,1.1-3.5,2.7-4.1c0.6-0.3,1.2-0.4,1.8-0.4c1.1,0,2.1,0.4,3,1.2l131.9,118.8 c1,1,1.5,2.2,1.5,3.3v18c0,2.5-2,4.5-4.5,4.5h-4.7v94.5c0,2.5-2,4.5-4.5,4.5H27.3z M268.2,263.4v-90H154.5v90h4.7v-57 c0-2.5,2-4.5,4.5-4.5h39.4c2.5,0,4.5,2,4.5,4.5v57H268.2z M198.6,263.4v-52.5h-30.4v52.5H198.6z M145.5,263.4v-90H31.8v90h60.6 v-57c0-2.5,2-4.5,4.5-4.5h39.4c2.5,0,4.5,2,4.5,4.5v57H145.5z M131.8,263.4v-52.5h-30.4v52.5H131.8z M277.4,164.4v-9H22.6v9H277.4 z M270.2,146.4L154.5,42.3v104.1H270.2z M145.5,146.4V85.3l-110,61.1H145.5z M46.8,257.3c-2.5,0-4.5-2-4.5-4.5v-46.4 c0-2.5,2-4.5,4.5-4.5H84c2.5,0,4.5,2,4.5,4.5v46.4c0,2.5-2,4.5-4.5,4.5H46.8z M79.5,248.3v-37.4H51.3v37.4H79.5z M126.8,244.3 c-2.4,0-4.3-1.9-4.3-4.3c0-2.3,1.9-4.3,4.2-4.3c0.1,0,0.1,0,0.2,0c2.3,0,4.1,1.9,4.1,4.3C131.1,242.4,129.2,244.3,126.8,244.3z M173.2,244.2c-2.3,0-4.3-2-4.3-4.3c0-2.4,1.9-4.3,4.3-4.3s4.3,1.9,4.3,4.3C177.5,242.2,175.5,244.2,173.2,244.2z M63.9,239 c-1.1,0-2.3-0.5-3.2-1.3c-0.9-0.9-1.4-2.1-1.3-3.3c0-0.6,0.1-1.1,0.3-1.6c-0.5,0.2-1.1,0.3-1.6,0.3c-1.3,0-2.4-0.5-3.2-1.4 c-0.8-0.8-1.3-1.9-1.3-3c0-1.2,0.5-2.4,1.3-3.3l4-4c0.8-0.8,1.9-1.3,3.1-1.3c1.2,0,2.3,0.5,3.2,1.3c0.9,0.8,1.4,1.9,1.4,3.1 c0,0.4,0,0.8-0.1,1.1l3.2-3.2c0.8-0.8,1.9-1.3,3.1-1.3c1.2,0,2.3,0.5,3.2,1.3c0.9,0.8,1.4,1.9,1.4,3.1c0,1.2-0.5,2.4-1.3,3.3 l-8.9,8.9C66.2,238.5,65.1,239,63.9,239z M216,231.7c-2.5,0-4.5-2-4.5-4.5v-20.9c0-2.5,2-4.5,4.5-4.5h45.8c2.5,0,4.5,2,4.5,4.5 v20.9c0,2.5-2,4.5-4.5,4.5H216z M257.3,222.7v-11.9h-36.8v11.9H257.3z"></path> <linearGradient id="SVGID_00000051372166784060952550000004714824356378379943_" gradientUnits="userSpaceOnUse" x1="-691.0034" y1="255.2881" x2="-627.6582" y2="191.942" gradientTransform="matrix(3 0 0 3 2128 -466)"> <stop offset="2.000000e-02" style="stop-color:#9C4399"></stop> <stop offset="1" style="stop-color:#93C1CC"></stop> </linearGradient> <path style="fill:url(#SVGID_00000051372166784060952550000004714824356378379943_);" d="M129.6,240c0,1.6-1.3,2.8-2.8,2.8 c-1.6,0-2.8-1.3-2.8-2.8s1.3-2.8,2.8-2.8C128.3,237.1,129.6,238.4,129.6,240z M173.2,237.1c-1.6,0-2.8,1.3-2.8,2.8 s1.3,2.8,2.8,2.8s2.8-1.3,2.8-2.8S174.8,237.1,173.2,237.1z M284.9,150.9v18c0,1.7-1.3,3-3,3h-6.2v96c0,1.7-1.3,3-3,3H27.3 c-1.7,0-3-1.3-3-3v-96h-6.2c-1.7,0-3-1.3-3-3v-18c0-1.1,0.6-2,1.5-2.5c0,0,0-0.1,0.1-0.1L147,75.9V32.1c0-1.2,0.7-2.3,1.8-2.7 c1.1-0.5,2.3-0.3,3.2,0.5l131.9,118.8l0,0C284.5,149.3,284.9,150.1,284.9,150.9L284.9,150.9z M153,77.7v70.2h121.1L153,38.9V77.7z M147,82.8L29.7,147.9H147V82.8z M30.3,264.9h63.6v-58.5c0-1.7,1.3-3,3-3h39.4c1.7,0,3,1.3,3,3v58.5h7.7v-93H30.3V264.9z M133.3,264.9v-55.5H99.9v55.5H133.3z M200.1,264.9v-55.5h-33.4v55.5H200.1z M269.7,171.9H153v93h7.7v-58.5c0-1.7,1.3-3,3-3h39.4 c1.7,0,3,1.3,3,3v58.5h63.6V171.9L269.7,171.9z M278.9,165.9v-12H21.1v12H278.9z M87,206.4v46.4c0,1.7-1.3,3-3,3H46.8 c-1.7,0-3-1.3-3-3v-46.4c0-1.7,1.3-3,3-3H84C85.7,203.4,87,204.7,87,206.4L87,206.4z M81,209.4H49.8v40.4H81V209.4z M213,227.2 v-20.9c0-1.7,1.3-3,3-3h45.8c1.7,0,3,1.3,3,3v20.9c0,1.7-1.3,3-3,3H216C214.3,230.2,213,228.9,213,227.2z M219,224.2h39.8v-14.9 H219V224.2z M61.8,236.6c0.6,0.6,1.4,0.9,2.1,0.9c0.8,0,1.5-0.3,2.1-0.9l8.9-8.9c1.2-1.2,1.2-3.1,0-4.2s-3.1-1.2-4.2,0l-8.9,8.9 C60.6,233.5,60.6,235.4,61.8,236.6z M58.1,231.6c0.8,0,1.5-0.3,2.1-0.9l4-4c1.2-1.2,1.2-3.1,0-4.2s-3.1-1.2-4.2,0l-4,4 c-1.2,1.2-1.2,3.1,0,4.2C56.5,231.3,57.3,231.6,58.1,231.6z"></path> </g> </g> </svg> 