<?xml version="1.0" encoding="UTF-8"?> <svg xmlns="http://www.w3.org/2000/svg" xmlns:xlink="http://www.w3.org/1999/xlink" version="1.1" id="Layer_1" x="0px" y="0px" viewBox="0 0 100 100" style="enable-background:new 0 0 100 100;" xml:space="preserve"> <style type="text/css"> .st0{fill-rule:evenodd;clip-rule:evenodd;fill:#B8B8B8;stroke:#B8B8B8;stroke-width:2;stroke-miterlimit:10;} </style> <g> <path class="st0" d="M50.2,56.7c-5.4,0-10.3,3-12.8,7.8c-0.4,0.7,0,1.6,0.7,2c0.7,0.3,1.5,0.1,1.9-0.6c2.9-5.6,9.7-7.8,15.3-5 c2,1,3.7,2.7,4.8,4.7c0.4,0.7,1.3,1,2,0.6c0.7-0.4,1-1.3,0.6-2C60.2,59.6,55.4,56.7,50.2,56.7z M50.1,55.1 c5.6,0,10.1-4.5,10.1-10.1S55.6,35,50.1,35C44.5,35,40,39.5,40,45.1C40,50.6,44.5,55.1,50.1,55.1z M50.1,38c3.9,0,7.1,3.2,7.1,7.1 s-3.2,7.1-7.1,7.1S43,49,43,45.1C43,41.2,46.2,38,50.1,38z"></path> <path class="st0" d="M88.5,22H52.1L67.6,6.6C68.1,6,68.1,5,67.5,4.4c-0.6-0.5-1.5-0.5-2,0L49.5,20.4L38.6,9.4 C38,8.9,37,8.9,36.4,9.5c-0.5,0.6-0.5,1.5,0,2L46.9,22H12.5c-0.8,0-1.5,0.7-1.5,1.5v55c0,0.8,0.7,1.5,1.5,1.5h76 c0.8,0,1.5-0.7,1.5-1.5v-55C90,22.7,89.3,22,88.5,22z M87,77H14V25h73V77z"></path> <path class="st0" d="M19.5,72h62c0.8,0,1.5-0.7,1.5-1.5v-40c0-0.8-0.7-1.5-1.5-1.5l0,0h-62c-0.8,0-1.5,0.7-1.5,1.5l0,0v40 C18,71.3,18.7,72,19.5,72z M21,32h59v37H21V32z"></path> </g> </svg> 