<?xml version="1.0" encoding="UTF-8"?> <svg xmlns="http://www.w3.org/2000/svg" width="527" height="101" viewBox="0 0 527 101" fill="none"><rect x="2.25391" y="1.91602" width="523" height="97" rx="48.5" fill="#FFFBEF" stroke="#DBB391" stroke-width="3"></rect><circle cx="50.7534" cy="48.5254" r="36.5" fill="#9777A2" stroke="black"></circle><path d="M49.91 41.4635L45.4201 38.0531C46.2463 37.8786 47.2893 37.7621 48.3752 37.8314C49.9416 37.9315 51.5435 38.4138 52.7338 39.6042C54.2988 41.1692 54.9743 42.6606 55.1897 44.0382C55.4068 45.4268 55.1642 46.7457 54.8135 47.9797L54.7319 48.267L54.9462 48.4751L74.9899 67.934L74.9796 69.8009L72.0293 72.7512L70.1624 72.7615L50.7035 52.7178L50.4954 52.5035L50.2081 52.5851C48.9741 52.9358 47.6551 53.1785 46.2666 52.9613C44.889 52.7459 43.3976 52.0704 41.8326 50.5054C40.6422 49.3151 40.1599 47.7132 40.0598 46.1468C39.9904 45.0609 40.107 44.018 40.2815 43.1917L43.6919 47.6816C44.7176 49.0318 46.6465 49.2738 47.9944 48.2409L48.0193 48.2243C48.0452 48.2071 48.0822 48.1821 48.128 48.1508C48.2193 48.0884 48.346 48.0001 48.4878 47.8968C48.7656 47.6943 49.124 47.4178 49.3851 47.1567C49.6462 46.8956 49.9227 46.5372 50.1251 46.2594C50.2285 46.1176 50.3167 45.9909 50.3792 45.8996C50.3894 45.8847 50.3989 45.8708 50.4076 45.8579C50.4259 45.831 50.4411 45.8084 50.4527 45.791L50.4693 45.766C51.5021 44.4181 51.2602 42.4892 49.91 41.4635ZM64.4946 27.618L68.0418 31.1652L64.9361 34.271L64.632 34.575L64.8872 34.9212C66.8238 37.5485 68.018 40.556 68.4707 43.6594L68.5334 44.0896L68.9682 44.0872L73.3654 44.0629L73.3375 49.1128L68.9359 49.1371L68.5096 49.1395L68.4446 49.5608C68.1741 51.3123 67.6687 53.0367 66.9287 54.683L62.6681 50.4223C63.9629 45.6621 62.7631 40.3822 59.0495 36.6686C53.5077 31.1268 44.4805 31.1823 38.8866 36.7761C33.2928 42.3699 33.2373 51.3972 38.7791 56.939C42.5407 60.7005 47.9093 61.8829 52.7171 60.5061L56.9336 64.7226C55.2807 65.4744 53.5481 65.9891 51.7875 66.2662L51.3676 66.3323L51.3652 66.7573L51.3412 71.1091L46.2913 71.137L46.3152 66.8072L46.3176 66.3712L45.886 66.3095C42.7624 65.8631 39.7341 64.6662 37.0906 62.7177L36.7445 62.4626L36.4404 62.7666L33.3936 65.8134L29.8464 62.2663L32.8932 59.2195L33.1973 58.9154L32.9421 58.5692C30.9965 55.9296 29.8003 52.9062 29.3524 49.7875L29.2905 49.3561L28.8547 49.3585L24.6123 49.382L24.6402 44.3321L28.9003 44.3086L29.3257 44.3062L29.3916 43.886C29.8788 40.7766 31.1067 37.7538 33.0741 35.1027L33.3312 34.7562L33.0262 34.4512L29.9584 31.3834L33.5529 27.789L36.6206 30.8567L36.9257 31.1618L37.2721 30.9047C39.9395 28.9252 42.9832 27.6942 46.1127 27.2132L46.5344 27.1484L46.5367 26.7218L46.5605 22.4118L51.6104 22.3839L51.5866 26.6937L51.5842 27.1282L52.014 27.1912C55.1126 27.6455 58.1152 28.839 60.7387 30.7727L61.0848 31.0278L61.3889 30.7238L64.4946 27.618Z" stroke="white"></path><path d="M118.729 59.668C116.788 59.668 115.127 59.2573 113.745 58.436C112.364 57.6147 111.3 56.448 110.553 54.936C109.825 53.424 109.461 51.6227 109.461 49.532C109.461 47.964 109.667 46.564 110.077 45.332C110.507 44.0813 111.113 43.0267 111.897 42.168C112.7 41.2907 113.68 40.6187 114.837 40.152C115.995 39.6667 117.292 39.424 118.729 39.424C119.887 39.424 120.988 39.592 122.033 39.928C123.079 40.2453 123.984 40.7213 124.749 41.356C124.992 41.5427 125.151 41.7573 125.225 42C125.319 42.224 125.328 42.448 125.253 42.672C125.197 42.8773 125.085 43.0547 124.917 43.204C124.768 43.3347 124.581 43.4 124.357 43.4C124.133 43.4 123.881 43.3067 123.601 43.12C122.929 42.5787 122.192 42.1773 121.389 41.916C120.587 41.6547 119.719 41.524 118.785 41.524C117.311 41.524 116.06 41.8413 115.033 42.476C114.007 43.092 113.232 43.9973 112.709 45.192C112.187 46.3867 111.925 47.8333 111.925 49.532C111.925 51.2307 112.187 52.6867 112.709 53.9C113.232 55.0947 114.007 56.0093 115.033 56.644C116.06 57.26 117.311 57.568 118.785 57.568C119.7 57.568 120.568 57.4373 121.389 57.176C122.211 56.896 122.967 56.4853 123.657 55.944C123.937 55.7573 124.189 55.6733 124.413 55.692C124.637 55.692 124.824 55.7573 124.973 55.888C125.123 56.0187 125.225 56.1867 125.281 56.392C125.356 56.5973 125.356 56.812 125.281 57.036C125.225 57.26 125.085 57.456 124.861 57.624C124.077 58.296 123.153 58.8093 122.089 59.164C121.044 59.5 119.924 59.668 118.729 59.668ZM130.289 59.416C129.879 59.416 129.561 59.3133 129.337 59.108C129.132 58.884 129.029 58.5667 129.029 58.156V40.936C129.029 40.5253 129.132 40.2173 129.337 40.012C129.561 39.788 129.879 39.676 130.289 39.676H140.705C141.023 39.676 141.265 39.76 141.433 39.928C141.601 40.096 141.685 40.3293 141.685 40.628C141.685 40.9453 141.601 41.188 141.433 41.356C141.265 41.524 141.023 41.608 140.705 41.608H131.269V48.44H140.117C140.435 48.44 140.677 48.524 140.845 48.692C141.013 48.8413 141.097 49.0747 141.097 49.392C141.097 49.7093 141.013 49.952 140.845 50.12C140.677 50.288 140.435 50.372 140.117 50.372H131.269V57.484H140.705C141.023 57.484 141.265 57.568 141.433 57.736C141.601 57.904 141.685 58.1373 141.685 58.436C141.685 58.7533 141.601 58.996 141.433 59.164C141.265 59.332 141.023 59.416 140.705 59.416H130.289ZM146.501 59.612C146.128 59.612 145.839 59.5093 145.633 59.304C145.447 59.08 145.353 58.7813 145.353 58.408V40.852C145.353 40.46 145.456 40.1707 145.661 39.984C145.867 39.7787 146.156 39.676 146.529 39.676H153.165C155.275 39.676 156.899 40.1987 158.037 41.244C159.176 42.2707 159.745 43.7267 159.745 45.612C159.745 47.4787 159.176 48.9347 158.037 49.98C156.899 51.0253 155.275 51.548 153.165 51.548H147.649V58.408C147.649 58.7813 147.556 59.08 147.369 59.304C147.183 59.5093 146.893 59.612 146.501 59.612ZM147.649 49.616H152.885C154.397 49.616 155.536 49.28 156.301 48.608C157.085 47.9173 157.477 46.9187 157.477 45.612C157.477 44.2867 157.085 43.288 156.301 42.616C155.536 41.9253 154.397 41.58 152.885 41.58H147.649V49.616ZM164.332 59.416C163.922 59.416 163.604 59.3133 163.38 59.108C163.175 58.884 163.072 58.5667 163.072 58.156V40.936C163.072 40.5253 163.175 40.2173 163.38 40.012C163.604 39.788 163.922 39.676 164.332 39.676H170.968C172.331 39.676 173.479 39.8813 174.412 40.292C175.364 40.684 176.092 41.2627 176.596 42.028C177.1 42.7933 177.352 43.7267 177.352 44.828C177.352 46.06 176.988 47.0867 176.26 47.908C175.551 48.7293 174.58 49.2707 173.348 49.532V49.14C174.748 49.308 175.84 49.812 176.624 50.652C177.427 51.492 177.828 52.6027 177.828 53.984C177.828 55.7387 177.259 57.0827 176.12 58.016C174.982 58.9493 173.376 59.416 171.304 59.416H164.332ZM165.312 57.568H171.08C172.574 57.568 173.694 57.2693 174.44 56.672C175.187 56.0747 175.56 55.1693 175.56 53.956C175.56 52.724 175.187 51.8187 174.44 51.24C173.694 50.6427 172.574 50.344 171.08 50.344H165.312V57.568ZM165.312 48.496H170.632C172.088 48.496 173.19 48.1973 173.936 47.6C174.702 47.0027 175.084 46.144 175.084 45.024C175.084 43.8667 174.702 42.9987 173.936 42.42C173.19 41.8227 172.088 41.524 170.632 41.524H165.312V48.496ZM182.974 59.612C182.825 59.612 182.685 59.584 182.554 59.528C182.442 59.4907 182.339 59.416 182.246 59.304C182.171 59.192 182.106 59.0707 182.05 58.94C182.013 58.7907 181.994 58.6133 181.994 58.408V40.6C181.994 40.2453 182.087 39.9747 182.274 39.788C182.461 39.5827 182.731 39.48 183.086 39.48C183.422 39.48 183.683 39.5827 183.87 39.788C184.057 39.9747 184.15 40.2453 184.15 40.6V56.448H183.534L195.686 40.18C195.854 39.9187 196.022 39.7413 196.19 39.648C196.377 39.536 196.61 39.48 196.89 39.48C197.095 39.48 197.263 39.5267 197.394 39.62C197.525 39.6947 197.627 39.816 197.702 39.984C197.777 40.152 197.814 40.3573 197.814 40.6V58.464C197.814 58.8373 197.721 59.1267 197.534 59.332C197.366 59.5187 197.114 59.612 196.778 59.612C196.423 59.612 196.153 59.5187 195.966 59.332C195.779 59.1267 195.686 58.8373 195.686 58.464V42.644H196.302L184.15 58.912C183.963 59.1547 183.795 59.332 183.646 59.444C183.497 59.556 183.273 59.612 182.974 59.612ZM211.261 59.668C209.319 59.668 207.658 59.2573 206.277 58.436C204.895 57.6147 203.831 56.448 203.085 54.936C202.357 53.424 201.993 51.6227 201.993 49.532C201.993 47.964 202.198 46.564 202.609 45.332C203.038 44.0813 203.645 43.0267 204.429 42.168C205.231 41.2907 206.211 40.6187 207.369 40.152C208.526 39.6667 209.823 39.424 211.261 39.424C212.418 39.424 213.519 39.592 214.565 39.928C215.61 40.2453 216.515 40.7213 217.281 41.356C217.523 41.5427 217.682 41.7573 217.757 42C217.85 42.224 217.859 42.448 217.785 42.672C217.729 42.8773 217.617 43.0547 217.449 43.204C217.299 43.3347 217.113 43.4 216.889 43.4C216.665 43.4 216.413 43.3067 216.133 43.12C215.461 42.5787 214.723 42.1773 213.921 41.916C213.118 41.6547 212.25 41.524 211.317 41.524C209.842 41.524 208.591 41.8413 207.565 42.476C206.538 43.092 205.763 43.9973 205.241 45.192C204.718 46.3867 204.457 47.8333 204.457 49.532C204.457 51.2307 204.718 52.6867 205.241 53.9C205.763 55.0947 206.538 56.0093 207.565 56.644C208.591 57.26 209.842 57.568 211.317 57.568C212.231 57.568 213.099 57.4373 213.921 57.176C214.742 56.896 215.498 56.4853 216.189 55.944C216.469 55.7573 216.721 55.6733 216.945 55.692C217.169 55.692 217.355 55.7573 217.505 55.888C217.654 56.0187 217.757 56.1867 217.813 56.392C217.887 56.5973 217.887 56.812 217.813 57.036C217.757 57.26 217.617 57.456 217.393 57.624C216.609 58.296 215.685 58.8093 214.621 59.164C213.575 59.5 212.455 59.668 211.261 59.668ZM222.709 59.612C222.335 59.612 222.046 59.5093 221.841 59.304C221.654 59.08 221.561 58.7813 221.561 58.408V40.684C221.561 40.292 221.654 39.9933 221.841 39.788C222.046 39.5827 222.335 39.48 222.709 39.48C223.082 39.48 223.362 39.5827 223.549 39.788C223.754 39.9933 223.857 40.292 223.857 40.684V48.412H235.701V40.684C235.701 40.292 235.794 39.9933 235.981 39.788C236.186 39.5827 236.475 39.48 236.849 39.48C237.222 39.48 237.502 39.5827 237.689 39.788C237.894 39.9933 237.997 40.292 237.997 40.684V58.408C237.997 58.7813 237.894 59.08 237.689 59.304C237.502 59.5093 237.222 59.612 236.849 59.612C236.475 59.612 236.186 59.5093 235.981 59.304C235.794 59.08 235.701 58.7813 235.701 58.408V50.4H223.857V58.408C223.857 58.7813 223.763 59.08 223.577 59.304C223.39 59.5093 223.101 59.612 222.709 59.612ZM244.121 59.416C243.711 59.416 243.393 59.3133 243.169 59.108C242.964 58.884 242.861 58.5667 242.861 58.156V40.684C242.861 40.292 242.955 39.9933 243.141 39.788C243.347 39.5827 243.636 39.48 244.009 39.48C244.383 39.48 244.663 39.5827 244.849 39.788C245.055 39.9933 245.157 40.292 245.157 40.684V48.384H250.253C251.635 48.384 252.811 48.5893 253.781 49C254.752 49.4107 255.489 50.0267 255.993 50.848C256.516 51.6507 256.777 52.6587 256.777 53.872C256.777 55.6827 256.208 57.064 255.069 58.016C253.931 58.9493 252.325 59.416 250.253 59.416H244.121ZM245.157 57.484H250.029C251.523 57.484 252.643 57.1947 253.389 56.616C254.136 56.0187 254.509 55.104 254.509 53.872C254.509 52.6587 254.136 51.7627 253.389 51.184C252.643 50.6053 251.523 50.316 250.029 50.316H245.157V57.484ZM260.753 59.612C260.38 59.612 260.091 59.5093 259.885 59.304C259.699 59.08 259.605 58.7813 259.605 58.408V40.684C259.605 40.292 259.699 39.9933 259.885 39.788C260.091 39.5827 260.38 39.48 260.753 39.48C261.127 39.48 261.407 39.5827 261.593 39.788C261.799 39.9933 261.901 40.292 261.901 40.684V58.408C261.901 58.7813 261.808 59.08 261.621 59.304C261.435 59.5093 261.145 59.612 260.753 59.612ZM267.74 59.612C267.59 59.612 267.45 59.584 267.32 59.528C267.208 59.4907 267.105 59.416 267.012 59.304C266.937 59.192 266.872 59.0707 266.816 58.94C266.778 58.7907 266.76 58.6133 266.76 58.408V40.6C266.76 40.2453 266.853 39.9747 267.04 39.788C267.226 39.5827 267.497 39.48 267.852 39.48C268.188 39.48 268.449 39.5827 268.636 39.788C268.822 39.9747 268.916 40.2453 268.916 40.6V56.448H268.3L280.452 40.18C280.62 39.9187 280.788 39.7413 280.956 39.648C281.142 39.536 281.376 39.48 281.656 39.48C281.861 39.48 282.029 39.5267 282.16 39.62C282.29 39.6947 282.393 39.816 282.468 39.984C282.542 40.152 282.58 40.3573 282.58 40.6V58.464C282.58 58.8373 282.486 59.1267 282.3 59.332C282.132 59.5187 281.88 59.612 281.544 59.612C281.189 59.612 280.918 59.5187 280.732 59.332C280.545 59.1267 280.452 58.8373 280.452 58.464V42.644H281.068L268.916 58.912C268.729 59.1547 268.561 59.332 268.412 59.444C268.262 59.556 268.038 59.612 267.74 59.612ZM274.684 38.136C273.564 38.136 272.556 37.884 271.66 37.38C270.764 36.876 270.082 36.1107 269.616 35.084C269.504 34.804 269.485 34.58 269.56 34.412C269.634 34.2253 269.774 34.0947 269.98 34.02C270.185 33.9453 270.372 33.9453 270.54 34.02C270.708 34.0947 270.848 34.2533 270.96 34.496C271.314 35.2053 271.8 35.7467 272.416 36.12C273.032 36.4933 273.788 36.68 274.684 36.68C275.598 36.68 276.354 36.4933 276.952 36.12C277.568 35.7467 278.053 35.2053 278.408 34.496C278.538 34.2533 278.678 34.0947 278.828 34.02C278.996 33.9453 279.182 33.9453 279.388 34.02C279.612 34.0947 279.752 34.2253 279.808 34.412C279.882 34.58 279.854 34.804 279.724 35.084C279.238 36.1107 278.548 36.876 277.652 37.38C276.756 37.884 275.766 38.136 274.684 38.136ZM312.765 64.036C312.41 64.036 312.14 63.9427 311.953 63.756C311.785 63.5693 311.701 63.2987 311.701 62.944V59.416H295.965C295.554 59.416 295.237 59.3133 295.013 59.108C294.808 58.884 294.705 58.5667 294.705 58.156V40.684C294.705 40.292 294.798 39.9933 294.985 39.788C295.19 39.5827 295.48 39.48 295.853 39.48C296.226 39.48 296.506 39.5827 296.693 39.788C296.898 39.9933 297.001 40.292 297.001 40.684V57.428H308.677V40.684C308.677 40.292 308.78 39.9933 308.985 39.788C309.19 39.5827 309.48 39.48 309.853 39.48C310.208 39.48 310.488 39.5827 310.693 39.788C310.898 39.9933 311.001 40.292 311.001 40.684V58.464L309.937 57.428H312.625C312.998 57.428 313.288 57.5307 313.493 57.736C313.698 57.9413 313.801 58.2213 313.801 58.576V62.944C313.801 63.672 313.456 64.036 312.765 64.036ZM318.113 59.416C317.703 59.416 317.385 59.3133 317.161 59.108C316.956 58.884 316.853 58.5667 316.853 58.156V40.936C316.853 40.5253 316.956 40.2173 317.161 40.012C317.385 39.788 317.703 39.676 318.113 39.676H328.529C328.847 39.676 329.089 39.76 329.257 39.928C329.425 40.096 329.509 40.3293 329.509 40.628C329.509 40.9453 329.425 41.188 329.257 41.356C329.089 41.524 328.847 41.608 328.529 41.608H319.093V48.44H327.941C328.259 48.44 328.501 48.524 328.669 48.692C328.837 48.8413 328.921 49.0747 328.921 49.392C328.921 49.7093 328.837 49.952 328.669 50.12C328.501 50.288 328.259 50.372 327.941 50.372H319.093V57.484H328.529C328.847 57.484 329.089 57.568 329.257 57.736C329.425 57.904 329.509 58.1373 329.509 58.436C329.509 58.7533 329.425 58.996 329.257 59.164C329.089 59.332 328.847 59.416 328.529 59.416H318.113ZM334.326 59.612C333.952 59.612 333.663 59.5093 333.458 59.304C333.271 59.08 333.178 58.7813 333.178 58.408V40.684C333.178 40.292 333.271 39.9933 333.458 39.788C333.663 39.5827 333.952 39.48 334.326 39.48C334.699 39.48 334.979 39.5827 335.166 39.788C335.371 39.9933 335.474 40.292 335.474 40.684V48.412H347.318V40.684C347.318 40.292 347.411 39.9933 347.598 39.788C347.803 39.5827 348.092 39.48 348.466 39.48C348.839 39.48 349.119 39.5827 349.306 39.788C349.511 39.9933 349.614 40.292 349.614 40.684V58.408C349.614 58.7813 349.511 59.08 349.306 59.304C349.119 59.5093 348.839 59.612 348.466 59.612C348.092 59.612 347.803 59.5093 347.598 59.304C347.411 59.08 347.318 58.7813 347.318 58.408V50.4H335.474V58.408C335.474 58.7813 335.38 59.08 335.194 59.304C335.007 59.5093 334.718 59.612 334.326 59.612ZM360.47 59.612C360.116 59.612 359.836 59.5093 359.63 59.304C359.425 59.08 359.322 58.7813 359.322 58.408V41.664H353.022C352.686 41.664 352.425 41.5707 352.238 41.384C352.052 41.1973 351.958 40.9547 351.958 40.656C351.958 40.3387 352.052 40.096 352.238 39.928C352.425 39.76 352.686 39.676 353.022 39.676H367.946C368.282 39.676 368.544 39.76 368.73 39.928C368.917 40.096 369.01 40.3387 369.01 40.656C369.01 40.9733 368.917 41.2253 368.73 41.412C368.544 41.58 368.282 41.664 367.946 41.664H361.646V58.408C361.646 58.7813 361.544 59.08 361.338 59.304C361.152 59.5093 360.862 59.612 360.47 59.612ZM372.47 59.612C372.097 59.612 371.808 59.5093 371.602 59.304C371.416 59.08 371.322 58.7813 371.322 58.408V40.852C371.322 40.46 371.425 40.1707 371.63 39.984C371.836 39.7787 372.125 39.676 372.498 39.676H379.134C381.244 39.676 382.868 40.1987 384.006 41.244C385.145 42.2707 385.714 43.7267 385.714 45.612C385.714 47.4787 385.145 48.9347 384.006 49.98C382.868 51.0253 381.244 51.548 379.134 51.548H373.618V58.408C373.618 58.7813 373.525 59.08 373.338 59.304C373.152 59.5093 372.862 59.612 372.47 59.612ZM373.618 49.616H378.854C380.366 49.616 381.505 49.28 382.27 48.608C383.054 47.9173 383.446 46.9187 383.446 45.612C383.446 44.2867 383.054 43.288 382.27 42.616C381.505 41.9253 380.366 41.58 378.854 41.58H373.618V49.616Z" fill="black"></path></svg> 