<?xml version="1.0" encoding="UTF-8"?> <svg xmlns="http://www.w3.org/2000/svg" width="75" height="75" viewBox="0 0 75 75" fill="none"><circle cx="37.3125" cy="37.416" r="36.5" fill="#9777A2" stroke="black"></circle><path d="M52.3125 54.4593C54.169 54.4593 55.9495 53.7324 57.2622 52.4386C58.575 51.1448 59.3125 49.39 59.3125 47.5602C59.3125 45.7305 58.575 43.9757 57.2622 42.6819C55.9495 41.3881 54.169 40.6612 52.3125 40.6612C50.456 40.6612 48.6755 41.3881 47.3628 42.6819C46.05 43.9757 45.3125 45.7305 45.3125 47.5602C45.3125 49.39 46.05 51.1448 47.3628 52.4386C48.6755 53.7324 50.456 54.4593 52.3125 54.4593ZM52.3125 37.7045C54.9647 37.7045 57.5082 38.7429 59.3836 40.5912C61.2589 42.4395 62.3125 44.9463 62.3125 47.5602C62.3125 50.1742 61.2589 52.681 59.3836 54.5293C57.5082 56.3776 54.9647 57.416 52.3125 57.416C49.6603 57.416 47.1168 56.3776 45.2414 54.5293C43.3661 52.681 42.3125 50.1742 42.3125 47.5602C42.3125 44.9463 43.3661 42.4395 45.2414 40.5912C47.1168 38.7429 49.6603 37.7045 52.3125 37.7045ZM32.7125 33.7622H24.3125V30.2141H30.7125L34.5925 23.7684C35.1725 22.7828 36.3125 22.1324 37.5125 22.1324C38.4525 22.1324 39.3125 22.5069 39.9125 23.1179L47.3125 30.3915C47.9325 31.0026 48.3125 31.791 48.3125 32.7766C48.3125 34.0184 47.6525 35.0631 46.6125 35.6742L39.9125 39.6756V49.5314H36.3125V36.7189L40.8125 33.4665L36.1725 28.8343M24.3125 54.4593C26.169 54.4593 27.9495 53.7324 29.2622 52.4386C30.575 51.1448 31.3125 49.39 31.3125 47.5602C31.3125 45.7305 30.575 43.9757 29.2622 42.6819C27.9495 41.3881 26.169 40.6612 24.3125 40.6612C22.456 40.6612 20.6755 41.3881 19.3628 42.6819C18.05 43.9757 17.3125 45.7305 17.3125 47.5602C17.3125 49.39 18.05 51.1448 19.3628 52.4386C20.6755 53.7324 22.456 54.4593 24.3125 54.4593ZM24.3125 37.7045C26.9647 37.7045 29.5082 38.7429 31.3836 40.5912C33.2589 42.4395 34.3125 44.9463 34.3125 47.5602C34.3125 50.1742 33.2589 52.681 31.3836 54.5293C29.5082 56.3776 26.9647 57.416 24.3125 57.416C22.9993 57.416 21.6989 57.1611 20.4857 56.6658C19.2724 56.1705 18.17 55.4445 17.2414 54.5293C16.3128 53.6141 15.5763 52.5276 15.0737 51.3319C14.5712 50.1361 14.3125 48.8545 14.3125 47.5602C14.3125 46.266 14.5712 44.9844 15.0737 43.7886C15.5763 42.5929 16.3128 41.5064 17.2414 40.5912C18.17 39.676 19.2724 38.95 20.4857 38.4547C21.6989 37.9594 22.9993 37.7045 24.3125 37.7045ZM30.3125 23.5122C28.3125 23.5122 26.7125 21.9352 26.7125 19.9641C26.7125 17.9929 28.3125 16.416 30.3125 16.416C32.3125 16.416 33.9125 17.9929 33.9125 19.9641C33.9125 21.9352 32.3125 23.5122 30.3125 23.5122Z" stroke="white"></path></svg> 