<?xml version="1.0" encoding="UTF-8"?> <svg xmlns="http://www.w3.org/2000/svg" xmlns:xlink="http://www.w3.org/1999/xlink" version="1.1" id="Layer_1" x="0px" y="0px" viewBox="0 0 100 100" style="enable-background:new 0 0 100 100;" xml:space="preserve"> <style type="text/css"> .st0{fill-rule:evenodd;clip-rule:evenodd;fill:#B8B8B8;stroke:#B8B8B8;stroke-width:2;stroke-miterlimit:10;} </style> <g> <path class="st0" d="M85.7,16h-39c-0.8,0-1.5,0.7-1.5,1.5v19.7L13.7,48.6c-0.6,0.2-1,0.8-1,1.4v32.5c0,0.8,0.7,1.5,1.5,1.5l32.5,0 h39c0.8,0,1.5-0.7,1.5-1.5v-65C87.2,16.7,86.6,16,85.7,16z M15.8,51.1l29.5-10.6V81l-29.5,0C15.8,81,15.8,51.1,15.8,51.1z M84.2,81 h-36V19h36V81z"></path> <path class="st0" d="M59.7,45h13c0.8,0,1.5-0.7,1.5-1.5v-13c0-0.8-0.7-1.5-1.5-1.5l0,0h-13c-0.8,0-1.5,0.7-1.5,1.5l0,0v13 C58.2,44.3,58.9,45,59.7,45z M61.2,32h10v10h-10C61.2,42,61.2,32,61.2,32z M72.7,55h-13c-0.8,0-1.5,0.7-1.5,1.5v13 c0,0.8,0.7,1.5,1.5,1.5h13c0.8,0,1.5-0.7,1.5-1.5v-13C74.2,55.7,73.6,55,72.7,55z M71.2,68h-10V58h10V68z"></path> </g> </svg> 