<?xml version="1.0" encoding="UTF-8"?> <svg xmlns="http://www.w3.org/2000/svg" xmlns:xlink="http://www.w3.org/1999/xlink" xmlns:svgjs="http://svgjs.dev/svgjs" id="line_copy" height="300" viewBox="0 0 64 64" width="300" data-name="line copy" version="1.1"><g width="100%" height="100%" transform="matrix(1,0,0,1,0,0)"><linearGradient id="linear-gradient" gradientUnits="userSpaceOnUse" x1="4" x2="60" y1="32" y2="32"><stop stop-opacity="1" stop-color="#9c4399" offset="0.02"></stop><stop stop-opacity="1" stop-color="#93c1cc" offset="1"></stop></linearGradient><path d="m33.81856 44.8171h-24.81885a3.00311 3.00311 0 0 1 -2.99983-2.99982v-19.3226h46.137v4.48362a1.00006 1.00006 0 0 0 1.99988-.00006v-11.5393a5.0056 5.0056 0 0 0 -4.99976-4.99971h-40.13729a5.0056 5.0056 0 0 0 -4.99971 4.99971v26.37834a5.00559 5.00559 0 0 0 4.99971 4.99972h24.81885a1.00012 1.00012 0 0 0 0-1.9999zm-27.81868-29.37816a3.00311 3.00311 0 0 1 2.99983-2.99982h40.13729a3.00311 3.00311 0 0 1 2.99983 2.99982v1.49015h-46.13695zm0 3.49h46.137v1.56586h-46.137zm12.37031 19.39245a1.00013 1.00013 0 0 1 .00006 1.99988h-7.13038a1.00013 1.00013 0 0 1 -.00006-1.99988zm41.21542-4.8752c-.12036-.572-.18017-1.31926-.84273-1.51115l-10.87924-3.50126a1.01134 1.01134 0 0 0 -.61325 0l-10.87826 3.50122c-.661.19378-.721.9358-.84371 1.50919-1.60146 8.00783 1.5214 15.1788 7.95462 18.269l3.64138 1.74892a.99767.99767 0 0 0 .86519 0l3.64239-1.74893c6.43319-3.08966 9.55508-10.26063 7.95361-18.26699zm-8.81882 16.46436-3.20979 1.54093-3.2088-1.54093c-5.634-2.68874-8.32306-9.1537-6.82284-16.24514l10.03164-3.2293 10.03261 3.22881c1.49706 7.09413-1.189 13.55689-6.82282 16.24563zm2.95783-10.86455-6.00257 5.34832a.99946.99946 0 0 1 -1.372-.03954l-3.00171-3.00178a1 1 0 0 1 1.41392-1.414l2.33482 2.33433 5.29754-4.72042a1 1 0 0 1 1.33 1.49309z" fill="url(#linear-gradient)" data-original-color="linear-gradient" stroke="none" stroke-opacity="1"></path></g></svg> 