<?xml version="1.0" encoding="UTF-8"?> <svg xmlns="http://www.w3.org/2000/svg" xmlns:xlink="http://www.w3.org/1999/xlink" xmlns:svgjs="http://svgjs.dev/svgjs" id="line_copy" height="300" viewBox="0 0 64 64" width="300" data-name="line copy" version="1.1"><g width="100%" height="100%" transform="matrix(1,0,0,1,0,0)"><linearGradient id="linear-gradient" gradientUnits="userSpaceOnUse" x1="9.41" x2="54.591" y1="32.001" y2="32.001"><stop stop-opacity="1" stop-color="#9c4399" offset="0.02"></stop><stop stop-opacity="1" stop-color="#93c1cc" offset="1"></stop></linearGradient><path d="m49.84717 31.11523a8.3004 8.3004 0 0 0 -1.16333-3.32147c2.866-3.917 5.90747-8.85718 5.90747-12.19024a11.604 11.604 0 0 0 -23.208 0c0 2.22973 1.36347 5.17919 3.12274 8.06054h-14.1706a8.5127 8.5127 0 0 0 -8.44482 7.4502l-2.41407 19.31836a8.50439 8.50439 0 0 0 8.44532 9.56738h25.89355a8.55821 8.55821 0 0 0 8.4452-9.5665zm-6.85987-25.11523a9.61479 9.61479 0 0 1 9.604 9.60352c0 4.14062-6.35986 12.38671-9.604 16.15625-3.24462-3.76954-9.604-12.01368-9.604-16.15625a9.61479 9.61479 0 0 1 9.604-9.60352zm-.74414 27.94434a1.00635 1.00635 0 0 0 1.48828 0c.16608-.1851 1.73206-1.94017 3.62555-4.387.66579 1.03406 1.43231 9.96546 1.69145 11.29522h-17.17979v-15.1885h3.92359a85.30752 85.30752 0 0 0 6.45092 8.28028zm-21.90771-8.28028h9.5332v15.18848h-17.17932l1.18616-9.49121a6.51089 6.51089 0 0 1 6.45996-5.69727zm-7.30127 30.13184a6.50438 6.50438 0 0 1 -1.57324-5.11426l.97845-7.8291h17.42926v15.14746h-11.94677a6.51914 6.51914 0 0 1 -4.8877-2.2041zm35.669 0a6.51917 6.51917 0 0 1 -4.88775 2.2041h-11.94678v-15.14746h17.42957l.97815 7.83008a6.50336 6.50336 0 0 1 -1.57324 5.11328zm.83837-40.32324a6.56181 6.56181 0 0 0 -6.55425-6.55366c-8.675.30818-8.67173 12.80176.00011 13.1084a6.562 6.562 0 0 0 6.55409-6.55474zm-11.10839 0a4.55439 4.55439 0 0 1 9.1084.0001 4.55439 4.55439 0 0 1 -9.10845-.0001z" fill="url(#linear-gradient)" data-original-color="linear-gradient" stroke="none" stroke-opacity="1"></path></g></svg> 