<?xml version="1.0" encoding="UTF-8"?> <svg xmlns="http://www.w3.org/2000/svg" width="300" height="301" viewBox="0 0 300 301" fill="none"><path fill-rule="evenodd" clip-rule="evenodd" d="M51.2059 130.597L8.64115 128.949C6.68703 128.873 4.98291 127.596 4.36115 125.741C3.73997 123.887 4.33056 121.841 5.84527 120.603L147.022 5.19321C148.755 3.77674 151.245 3.77674 152.978 5.19321L294.155 120.603C295.669 121.841 296.26 123.887 295.639 125.741C295.017 127.596 293.313 128.873 291.359 128.949L248.794 130.597V291.19C248.794 293.789 246.687 295.896 244.088 295.896H55.9117C53.3129 295.896 51.2059 293.789 51.2059 291.19V130.597ZM239.382 127.711L150 54.6426L60.6176 127.711V286.484H239.382V127.711ZM152.978 44.9215L246.376 121.272L278.577 120.025L150 14.915L21.4229 120.025L53.6241 121.272L147.022 44.9215C148.755 43.5044 151.245 43.5044 152.978 44.9215ZM96.8512 235.364H92.9947C90.3959 235.364 88.2888 233.257 88.2888 230.659V207.903C88.2888 207.903 88.2888 201.526 88.2894 201.526C76.7723 198.793 68.2035 188.445 68.2035 176.093C68.2035 161.656 79.9064 149.952 94.3441 149.952C97.5688 149.952 100.658 150.536 103.51 151.604C105.44 141.584 114.306 133.953 124.869 133.953H175.104C185.669 133.953 194.538 141.59 196.464 151.614C199.324 150.54 202.421 149.952 205.656 149.952C220.093 149.952 231.796 161.927 231.796 176.093C231.796 188.696 223.214 198.863 211.684 201.541V230.659C211.684 233.257 209.576 235.364 206.978 235.364H203.149V256.129C203.149 258.727 201.042 260.834 198.443 260.834H184.166C182.066 260.834 180.221 259.444 179.642 257.426L173.315 235.364H126.663L120.35 256.886C119.762 258.89 117.923 260.267 115.834 260.267H101.557C98.9576 260.267 96.8512 258.16 96.8512 255.561V235.364ZM112.532 157.317C117.436 162.069 120.485 168.725 120.485 176.093C120.485 176.294 120.478 182.875 120.471 189.501C123.041 188.093 125.986 187.292 129.112 187.292H170.86C173.992 187.292 176.943 188.096 179.516 189.509V176.093C179.516 168.739 182.552 162.094 187.44 157.344V155.701C187.44 148.917 181.889 143.365 175.104 143.365H124.869C118.083 143.365 112.532 148.916 112.532 155.701V157.317ZM111.048 205.055C111.054 197.294 111.073 176.329 111.073 176.093C111.073 166.854 103.583 159.364 94.3441 159.364C85.1047 159.364 77.6153 166.854 77.6153 176.093C77.6153 184.977 84.54 192.243 93.287 192.787C95.7676 192.941 97.7006 194.998 97.7006 197.484V207.903V225.953H202.272V197.486C202.272 194.997 204.208 192.939 206.692 192.788C215.449 192.256 222.385 185.157 222.385 176.093C222.385 167.027 214.895 159.364 205.656 159.364C196.417 159.364 188.928 166.854 188.928 176.093V207.903C188.928 210.501 186.82 212.609 184.222 212.609H115.751C113.152 212.609 111.045 210.501 111.045 207.903C111.045 207.903 111.046 205.156 111.048 205.055ZM183.106 235.364L187.712 251.423H193.737V235.364H183.106ZM106.263 235.364V250.856H112.311L116.855 235.364H106.263ZM179.242 203.197C178.277 199.47 174.881 196.703 170.86 196.703H129.112C125.091 196.703 121.695 199.47 120.731 203.197H179.242ZM265.579 41.8056C265.579 39.2079 267.687 37.0997 270.285 37.0997C272.882 37.0997 274.991 39.2079 274.991 41.8056V50.6209C274.991 53.2179 272.882 55.3267 270.285 55.3267C267.687 55.3267 265.579 53.2179 265.579 50.6209V41.8056ZM249.392 34.4344C246.795 34.4344 244.686 32.3262 244.686 29.7285C244.686 27.1314 246.795 25.0226 249.392 25.0226H258.208C260.805 25.0226 262.914 27.1314 262.914 29.7285C262.914 32.3262 260.805 34.4344 258.208 34.4344H249.392ZM282.361 34.4344C279.764 34.4344 277.655 32.3262 277.655 29.7285C277.655 27.1314 279.764 25.0226 282.361 25.0226H291.176C293.774 25.0226 295.882 27.1314 295.882 29.7285C295.882 32.3262 293.774 34.4344 291.176 34.4344H282.361ZM265.579 8.83674C265.579 6.23968 267.687 4.13086 270.285 4.13086C272.882 4.13086 274.991 6.23968 274.991 8.83674V17.652C274.991 20.2491 272.882 22.3579 270.285 22.3579C267.687 22.3579 265.579 20.2491 265.579 17.652V8.83674ZM25.0094 41.8056C25.0094 39.2079 27.1182 37.0997 29.7153 37.0997C32.3129 37.0997 34.4211 39.2079 34.4211 41.8056V50.6209C34.4211 53.2179 32.3129 55.3267 29.7153 55.3267C27.1182 55.3267 25.0094 53.2179 25.0094 50.6209V41.8056ZM8.8235 34.4344C6.22644 34.4344 4.11762 32.3262 4.11762 29.7285C4.11762 27.1314 6.22644 25.0226 8.8235 25.0226H17.6388C20.2359 25.0226 22.3447 27.1314 22.3447 29.7285C22.3447 32.3262 20.2359 34.4344 17.6388 34.4344H8.8235ZM41.7923 34.4344C39.1947 34.4344 37.0864 32.3262 37.0864 29.7285C37.0864 27.1314 39.1947 25.0226 41.7923 25.0226H50.6076C53.2047 25.0226 55.3135 27.1314 55.3135 29.7285C55.3135 32.3262 53.2047 34.4344 50.6076 34.4344H41.7923ZM25.0094 8.83674C25.0094 6.23968 27.1182 4.13086 29.7153 4.13086C32.3129 4.13086 34.4211 6.23968 34.4211 8.83674V17.652C34.4211 20.2491 32.3129 22.3579 29.7153 22.3579C27.1182 22.3579 25.0094 20.2491 25.0094 17.652V8.83674Z" fill="url(#paint0_linear_1035_16)"></path><defs><linearGradient id="paint0_linear_1035_16" x1="-0.434149" y1="293.221" x2="300.718" y2="0.0173359" gradientUnits="userSpaceOnUse"><stop offset="0.02" stop-color="#9C4399"></stop><stop offset="1" stop-color="#93C1CC"></stop></linearGradient></defs></svg> 