<?xml version="1.0" encoding="UTF-8"?> <svg xmlns="http://www.w3.org/2000/svg" width="75" height="75" viewBox="0 0 75 75" fill="none"><circle cx="37.3125" cy="37.416" r="36.5" fill="#8D99A6" stroke="black"></circle><path fill-rule="evenodd" clip-rule="evenodd" d="M25.2078 56.1937C25.202 56.1904 25.195 56.1873 25.187 56.1844C25.1939 56.1875 25.2009 56.1907 25.2078 56.1937Z" fill="white"></path><path fill-rule="evenodd" clip-rule="evenodd" d="M47.3044 21.0967C56.0436 21.9088 55.9112 30.6833 54.7526 34.9691C55.2988 31.3439 53.6602 25.9786 49.3403 24.2869C45.0203 22.5951 44.1017 24.2869 43.8038 24.7461C43.4283 25.3249 46.6838 24.5527 45.5417 25.2053C44.6281 25.7273 44.2838 26.5184 44.2259 26.8487C51.7734 23.8277 53.8092 30.2805 54.0078 32.2139C54.2064 34.1474 53.6602 33.2048 53.0395 32.8181C52.4189 32.4315 53.4616 34.1474 53.0395 37.12C52.6175 40.0927 51.5996 37.5792 50.3085 35.96C49.0175 34.3407 50.0106 39.6818 50.4079 41.9294C50.8051 44.177 49.8368 42.4128 49.0424 41.8569C48.2479 41.3011 47.6769 46.0621 46.9569 46.4005C46.2369 46.7388 46.2369 44.7812 45.641 46.1588C45.0452 47.5364 44.921 47.488 44.3748 47.1739C43.8286 46.8597 44.1266 45.8688 42.6617 48.8898C41.1969 51.9108 38.4659 48.5031 37.2246 50.8715C36.2315 52.7663 37.6384 52.9822 38.4659 52.8533C35.3625 55.7293 36.6784 57.6385 37.2246 57.7594C37.6615 57.8561 38.3997 58.3475 38.7142 58.5811C38.3418 58.5569 35.3377 58.1219 32.5819 61.4812C33.138 60.7079 33.095 59.8378 33.0039 59.4995C32.7557 59.5961 30.7447 59.7895 29.8261 60.1278C30.4543 59.6574 32.0234 58.938 32.3356 58.9417C32.3432 58.9424 32.3508 58.943 32.3584 58.9436C32.3518 58.9424 32.3442 58.9418 32.3356 58.9417C31.8252 58.8924 31.2627 58.4733 31.0426 58.2669C32.5322 58.6053 33.8232 58.4844 34.8163 56.1401C35.2675 55.0482 35.4557 52.3314 32.5988 50.1996C31.0042 51.6557 32.2528 52.3218 33.0764 52.4728C29.1543 54.1577 29.7273 56.3872 30.1991 56.6806C30.5766 56.9154 31.1 57.6207 31.3145 57.944C31.2988 57.9373 31.2782 57.928 31.2528 57.9166C30.7249 57.6782 28.1248 56.5042 24.534 58.655C25.3267 58.1103 25.5893 57.2775 25.6215 56.9291C25.5273 56.9324 25.2229 56.8749 24.8251 56.7998L24.825 56.7998C24.0942 56.6618 23.0484 56.4643 22.4124 56.4747C23.1675 56.2388 24.8945 56.0781 25.187 56.1844C25.1939 56.1875 25.2009 56.1907 25.2078 56.1937C25.202 56.1904 25.195 56.1873 25.187 56.1844C24.7239 55.97 24.3407 55.3906 24.2054 55.124C25.4892 55.9325 26.7461 56.2436 28.4972 54.3646C30.2484 52.4856 30.1697 46.7228 26.7723 45.1438C22.113 42.9782 20.2924 40.8902 19.2993 35.4524C18.5048 31.1022 20.5903 26.9856 21.7324 25.4711C21.1117 26.1236 19.7214 26.6795 19.2993 24.6977C18.8772 22.716 20.0689 21.2659 20.2924 21.2659C19.915 20.7245 18.7283 20.6053 18.1821 20.6134C18.6389 19.8207 19.9282 19.0586 20.5158 18.7766C20.2013 18.3658 19.632 17.3652 19.8703 16.6498C20.1087 15.9344 20.102 14.9984 20.0689 14.6197C22.3779 15.514 23.5696 11.1154 24.3641 12.8072C24.9996 14.1606 26.1847 13.5 26.6978 13.0005C26.9957 14.8953 28.5433 14.1444 29.2799 13.5322C28.8578 15.7556 30.5957 14.6197 30.9433 14.6197C31.6583 18.2933 28.7419 18.0999 27.1944 17.5441C29.3047 19.4533 30.5957 22.5951 30.9433 26.317C31.2909 30.0388 33.8481 31.9723 35.3874 32.5523C36.6188 33.0163 37.7542 34.6791 38.168 35.4524C38.7142 33.664 38.2921 32.6248 37.0011 29.9905C35.7101 27.3562 36.3805 20.0817 47.3044 21.0967ZM22.0182 17.1568C22.5487 17.1937 22.8392 17.5711 22.9181 17.7552C22.7286 17.5343 22.4287 17.4483 22.3024 17.433C22.3182 17.4637 22.3498 17.5711 22.3498 17.7552C22.3498 17.9853 22.0656 18.1234 21.9235 18.1234C21.7814 18.1234 21.4499 18.0774 21.4499 17.6171C21.4499 17.2489 21.8288 17.1568 22.0182 17.1568Z" fill="white"></path><path d="M32.3356 58.9417C32.0234 58.938 30.4543 59.6574 29.8261 60.1278C30.7447 59.7895 32.7557 59.5961 33.0039 59.4995C33.095 59.8378 33.138 60.7079 32.5819 61.4812C35.3377 58.1219 38.3418 58.5569 38.7142 58.5811C38.3997 58.3475 37.6615 57.8561 37.2246 57.7594C36.6784 57.6385 35.3625 55.7293 38.4659 52.8533C37.6384 52.9822 36.2315 52.7663 37.2246 50.8715C38.4659 48.5031 41.1969 51.9108 42.6617 48.8898C44.1266 45.8688 43.8286 46.8597 44.3748 47.1739C44.921 47.488 45.0452 47.5364 45.641 46.1588C46.2369 44.7812 46.2369 46.7388 46.9569 46.4005C47.6769 46.0621 48.2479 41.3011 49.0424 41.8569C49.8368 42.4128 50.8051 44.177 50.4079 41.9294C50.0106 39.6818 49.0175 34.3407 50.3085 35.96C51.5996 37.5792 52.6175 40.0927 53.0395 37.12C53.4616 34.1474 52.4189 32.4315 53.0395 32.8181C53.6602 33.2048 54.2064 34.1474 54.0078 32.2139C53.8092 30.2805 51.7734 23.8277 44.2259 26.8487C44.2838 26.5184 44.6281 25.7273 45.5417 25.2053C46.6838 24.5527 43.4283 25.3249 43.8038 24.7461C44.1017 24.2869 45.0203 22.5951 49.3403 24.2869C53.6602 25.9786 55.2988 31.3439 54.7526 34.9691C55.9112 30.6833 56.0436 21.9088 47.3044 21.0967C36.3805 20.0817 35.7101 27.3562 37.0011 29.9905C38.2921 32.6248 38.7142 33.664 38.168 35.4524C37.7542 34.6791 36.6188 33.0163 35.3874 32.5523C33.8481 31.9723 31.2909 30.0388 30.9433 26.317C30.5957 22.5951 29.3047 19.4533 27.1944 17.5441C28.7419 18.0999 31.6583 18.2933 30.9433 14.6197C30.5957 14.6197 28.8578 15.7556 29.2799 13.5322C28.5433 14.1444 26.9957 14.8953 26.6978 13.0005C26.1847 13.5 24.9996 14.1606 24.3641 12.8072C23.5696 11.1154 22.3779 15.514 20.0689 14.6197C20.102 14.9984 20.1087 15.9344 19.8703 16.6498C19.632 17.3652 20.2013 18.3658 20.5158 18.7766C19.9282 19.0586 18.6389 19.8207 18.1821 20.6134C18.7283 20.6053 19.915 20.7245 20.2924 21.2659C20.0689 21.2659 18.8772 22.716 19.2993 24.6977C19.7214 26.6795 21.1117 26.1236 21.7324 25.4711C20.5903 26.9856 18.5048 31.1022 19.2993 35.4524C20.2924 40.8902 22.113 42.9782 26.7723 45.1438C30.1697 46.7228 30.2484 52.4856 28.4972 54.3646C26.7461 56.2436 25.4892 55.9325 24.2054 55.124C24.3407 55.3906 24.7239 55.97 25.187 56.1844M32.3356 58.9417C32.3432 58.9424 32.3508 58.943 32.3584 58.9436C32.3518 58.9424 32.3442 58.9418 32.3356 58.9417ZM32.3356 58.9417C31.8252 58.8924 31.2627 58.4733 31.0426 58.2669C32.5322 58.6053 33.8232 58.4844 34.8163 56.1401C35.2675 55.0482 35.4557 52.3314 32.5988 50.1996C31.0042 51.6557 32.2528 52.3218 33.0764 52.4728C29.1543 54.1577 29.7273 56.3872 30.1991 56.6806C30.5766 56.9154 31.1 57.6207 31.3145 57.944C31.2988 57.9373 31.2782 57.928 31.2528 57.9166C30.7249 57.6782 28.1248 56.5042 24.534 58.655C25.3267 58.1103 25.5893 57.2775 25.6215 56.9291C25.5273 56.9324 25.2229 56.8749 24.8251 56.7998L24.825 56.7998C24.0942 56.6618 23.0484 56.4643 22.4124 56.4747C23.1675 56.2388 24.8945 56.0781 25.187 56.1844M25.187 56.1844C25.1939 56.1875 25.2009 56.1907 25.2078 56.1937C25.202 56.1904 25.195 56.1873 25.187 56.1844ZM22.9181 17.7552C22.8392 17.5711 22.5487 17.1937 22.0182 17.1568C21.8288 17.1568 21.4499 17.2489 21.4499 17.6171C21.4499 18.0774 21.7814 18.1234 21.9235 18.1234C22.0656 18.1234 22.3498 17.9853 22.3498 17.7552C22.3498 17.5711 22.3182 17.4637 22.3024 17.433C22.4287 17.4483 22.7286 17.5343 22.9181 17.7552Z" stroke="black" stroke-width="0.397826" stroke-linecap="round"></path></svg> 