<?xml version="1.0" encoding="UTF-8"?> <svg xmlns="http://www.w3.org/2000/svg" width="512" height="512" viewBox="0 0 512 512" fill="none"><path fill-rule="evenodd" clip-rule="evenodd" d="M256 16C388.5 16 496 123.5 496 256C496 388.5 388.5 496 256 496C123.5 496 16 388.5 16 256C16 123.5 123.5 16 256 16ZM235.4 322.2H206.7C203.6 322.2 201 324.8 201 327.9V334.9H244.5V327.9C244.5 324.8 241.9 322.2 238.8 322.2H235.4ZM235.4 241.9H210V308.3H235.5V241.9H235.4ZM244.5 215.3H201V222.3C201 225.4 203.6 228 206.7 228H238.7C241.8 228 244.4 225.4 244.4 222.3V215.3H244.5ZM302 322.2H273.3C270.2 322.2 267.6 324.8 267.6 327.9V334.9H311V327.9C311 324.8 308.4 322.2 305.3 322.2H302ZM302 241.9H276.5V308.3H302V241.9ZM311 215.3H267.5V222.3C267.5 225.4 270.1 228 273.2 228H305.2C308.3 228 310.9 225.4 310.9 222.3L311 215.3ZM343.1 228H371.9C375 228 377.6 225.4 377.6 222.3V215.3H334.1V222.3C334.1 225.4 336.7 228 339.8 228H343.1ZM343.1 308.3H368.6V241.9H343.1V308.3ZM339.8 322.2C336.7 322.2 334.1 324.8 334.1 327.9V334.9H377.6V327.9C377.6 324.8 375 322.2 371.9 322.2H339.8ZM143.4 228H172.1C175.2 228 177.8 225.4 177.8 222.3V215.3H134.3V222.3C134.3 225.4 136.9 228 140 228H143.4ZM168.9 322.2H140.2C137.1 322.2 134.5 324.8 134.5 327.9V334.9H178V327.9C178 324.8 175.4 322.2 172.3 322.2H168.9ZM260.8 98.9C257.8 97 254.2 97 251.3 98.9L154.9 161.8H357.2L260.8 98.9ZM118.6 374.5H393.3V354.5C393.3 351.4 390.7 348.8 387.6 348.8H124.4C121.2 348.8 118.7 351.4 118.7 354.5L118.6 374.5ZM118.6 201.4H393.3V181.4C393.3 178.2 390.7 175.7 387.6 175.7H124.4C121.2 175.7 118.7 178.3 118.7 181.4L118.6 201.4ZM168.9 241.9H143.4V308.3H168.9V241.9Z" fill="url(#paint0_linear_818_2771)"></path><defs><linearGradient id="paint0_linear_818_2771" x1="16" y1="256" x2="496" y2="256" gradientUnits="userSpaceOnUse"><stop stop-color="#9C4399"></stop><stop offset="1" stop-color="#9AC2CF"></stop></linearGradient></defs></svg> 