<?xml version="1.0" encoding="UTF-8"?> <svg xmlns="http://www.w3.org/2000/svg" width="75" height="75" viewBox="0 0 75 75" fill="none"><circle cx="37.3125" cy="37.416" r="36.5" fill="#9777A2" stroke="black"></circle><path d="M23.8107 12.416L20.3399 31.116C19.8332 33.853 26.5249 35.1314 26.4138 37.916L25.5461 60.016C25.4142 63.416 29.0169 63.416 29.0169 63.416C29.0169 63.416 32.6196 63.416 32.4877 60.016L31.62 37.916C31.5124 35.1348 37.6349 33.904 37.6939 31.116L34.2231 12.416H32.4877L33.3554 26.016L30.7523 27.716L29.8846 12.416H28.1492L27.2815 27.716L24.6784 26.016L25.5461 12.416H23.8107ZM53.3125 12.416C50.758 12.416 46.4959 14.643 44.7917 17.9818C43.3687 20.4842 42.9001 26.0772 42.9001 29.416V37.916C42.9001 40.6972 46.6833 41.316 48.1063 41.316L46.3709 60.016C46.0585 63.4024 49.8417 63.416 49.8417 63.416C49.8417 63.416 53.3125 63.416 53.3125 60.016V12.416Z" stroke="white"></path></svg> 