<?xml version="1.0" encoding="UTF-8"?> <svg xmlns="http://www.w3.org/2000/svg" width="75" height="75" viewBox="0 0 75 75" fill="none"><circle cx="37.3125" cy="37.416" r="36.5" fill="#F6FDDF" stroke="black"></circle><path d="M64.4093 36.5213H61.6996V28.4686C61.6996 27.7568 61.4141 27.074 60.9059 26.5706C60.3978 26.0672 59.7086 25.7844 58.9899 25.7844H54.4738V23.1002C54.4738 22.3883 54.1883 21.7056 53.6801 21.2022C53.172 20.6988 52.4828 20.416 51.7641 20.416H46.3448C45.6261 20.416 44.9369 20.6988 44.4287 21.2022C43.9206 21.7056 43.6351 22.3883 43.6351 23.1002V36.5213H30.9899V23.1002C30.9899 22.3883 30.7044 21.7056 30.1963 21.2022C29.6881 20.6988 28.9989 20.416 28.2802 20.416H22.8609C22.1422 20.416 21.453 20.6988 20.9449 21.2022C20.4367 21.7056 20.1512 22.3883 20.1512 23.1002V25.7844H15.6351C14.9164 25.7844 14.2272 26.0672 13.719 26.5706C13.2109 27.074 12.9254 27.7568 12.9254 28.4686V36.5213H10.2157C9.97618 36.5213 9.74644 36.6155 9.57705 36.7833C9.40766 36.9511 9.3125 37.1787 9.3125 37.416C9.3125 37.6533 9.40766 37.8809 9.57705 38.0487C9.74644 38.2165 9.97618 38.3108 10.2157 38.3108H12.9254V46.3634C12.9254 47.0753 13.2109 47.758 13.719 48.2614C14.2272 48.7648 14.9164 49.0476 15.6351 49.0476H20.1512V51.7318C20.1512 52.4437 20.4367 53.1264 20.9449 53.6298C21.453 54.1332 22.1422 54.416 22.8609 54.416H28.2802C28.9989 54.416 29.6881 54.1332 30.1963 53.6298C30.7044 53.1264 30.9899 52.4437 30.9899 51.7318V38.3108H43.6351V51.7318C43.6351 52.4437 43.9206 53.1264 44.4287 53.6298C44.9369 54.1332 45.6261 54.416 46.3448 54.416H51.7641C52.4828 54.416 53.172 54.1332 53.6801 53.6298C54.1883 53.1264 54.4738 52.4437 54.4738 51.7318V49.0476H58.9899C59.7086 49.0476 60.3978 48.7648 60.9059 48.2614C61.4141 47.758 61.6996 47.0753 61.6996 46.3634V38.3108H64.4093C64.6488 38.3108 64.8786 38.2165 65.048 38.0487C65.2173 37.8809 65.3125 37.6533 65.3125 37.416C65.3125 37.1787 65.2173 36.9511 65.048 36.7833C64.8786 36.6155 64.6488 36.5213 64.4093 36.5213ZM15.6351 47.2581C15.3955 47.2581 15.1658 47.1639 14.9964 46.9961C14.827 46.8283 14.7319 46.6007 14.7319 46.3634V28.4686C14.7319 28.2313 14.827 28.0038 14.9964 27.836C15.1658 27.6682 15.3955 27.5739 15.6351 27.5739H20.1512V47.2581H15.6351ZM29.1835 51.7318C29.1835 51.9691 29.0883 52.1967 28.9189 52.3645C28.7495 52.5323 28.5198 52.6265 28.2802 52.6265H22.8609C22.6213 52.6265 22.3916 52.5323 22.2222 52.3645C22.0528 52.1967 21.9577 51.9691 21.9577 51.7318V23.1002C21.9577 22.8629 22.0528 22.6353 22.2222 22.4676C22.3916 22.2998 22.6213 22.2055 22.8609 22.2055H28.2802C28.5198 22.2055 28.7495 22.2998 28.9189 22.4676C29.0883 22.6353 29.1835 22.8629 29.1835 23.1002V51.7318ZM52.6673 51.7318C52.6673 51.9691 52.5722 52.1967 52.4028 52.3645C52.2334 52.5323 52.0037 52.6265 51.7641 52.6265H46.3448C46.1052 52.6265 45.8755 52.5323 45.7061 52.3645C45.5367 52.1967 45.4415 51.9691 45.4415 51.7318V23.1002C45.4415 22.8629 45.5367 22.6353 45.7061 22.4676C45.8755 22.2998 46.1052 22.2055 46.3448 22.2055H51.7641C52.0037 22.2055 52.2334 22.2998 52.4028 22.4676C52.5722 22.6353 52.6673 22.8629 52.6673 23.1002V51.7318ZM59.8931 46.3634C59.8931 46.6007 59.798 46.8283 59.6286 46.9961C59.4592 47.1639 59.2295 47.2581 58.9899 47.2581H54.4738V27.5739H58.9899C59.2295 27.5739 59.4592 27.6682 59.6286 27.836C59.798 28.0038 59.8931 28.2313 59.8931 28.4686V46.3634Z" fill="#5C5C5C"></path></svg> 