<?xml version="1.0" encoding="UTF-8"?> <svg xmlns="http://www.w3.org/2000/svg" xmlns:xlink="http://www.w3.org/1999/xlink" xmlns:svgjs="http://svgjs.dev/svgjs" id="line_copy" height="300" viewBox="0 0 64 64" width="300" data-name="line copy" version="1.1"><g width="100%" height="100%" transform="matrix(1,0,0,1,0,0)"><linearGradient id="linear-gradient" gradientUnits="userSpaceOnUse" x1="4" x2="60" y1="32" y2="32"><stop stop-opacity="1" stop-color="#9c4399" offset="0.02"></stop><stop stop-opacity="1" stop-color="#93c1cc" offset="1"></stop></linearGradient><path d="m56.84864 34.81544-10.5-7.59668a.9991.9991 0 0 0 -1.15918-.00876l-10.5 7.35059a1.00014 1.00014 0 0 0 1.14654 1.63858l2.079-1.45538v9.056a2.83925 2.83925 0 0 0 2.712 2.94534h10.27242a2.83925 2.83925 0 0 0 2.71191-2.94531v-8.85761l2.06543 1.49433a1.00037 1.00037 0 0 0 1.17188-1.6211zm-5.23731 8.98438c0 .5039-.333.94531-.71191.94531h-10.27242c-.37891 0-.71192-.44141-.71192-.94531v-10.45618l5.83789-4.08679 5.8584 4.2384zm-20.13287 4.75628h-23.75775a1.71334 1.71334 0 0 1 -1.71619-1.70636c.00433-1.17077-.00311-12.10516 0-12.89447h17.08356a3.83261 3.83261 0 0 0 3.71209-3.93469v-15.62616h22.50446a1.71293 1.71293 0 0 1 1.71564 1.70642v3.6081a.99994.99994 0 1 0 1.99988 0v-3.6081a3.71507 3.71507 0 0 0 -3.71552-3.70623h-23.49231a2.10653 2.10653 0 0 0 -.38257.07232c-.06976-.13983-2.78821 2.57544-2.90576 2.63733l-14.8067.00006a3.71673 3.71673 0 0 0 -3.71259 3.71259c-.01465 1.94531.01056 15.26678-.00006 16.85357l.00006 11.17926a3.71511 3.71511 0 0 0 3.716 3.70618h23.75776a.99991.99991 0 1 0 0-1.99982zm-6.67816-32.84735v14.31183a1.83587 1.83587 0 0 1 -1.71222 1.93488h-15.56061zm-18.79578 3.10816a1.7149 1.7149 0 0 1 1.71277-1.71277h12.6806l-14.39337 13.53845zm39.75842 4.31509a14.23685 14.23685 0 1 0 14.23706 14.23709 14.253 14.253 0 0 0 -14.23706-14.23709zm0 26.47388a12.237 12.237 0 1 1 12.23725-12.23679 12.25054 12.25054 0 0 1 -12.23725 12.23676z" fill="url(#linear-gradient)" data-original-color="linear-gradient" stroke="none" stroke-opacity="1"></path></g></svg> 