<?xml version="1.0" encoding="UTF-8"?> <svg xmlns="http://www.w3.org/2000/svg" viewBox="0 0 24.00 24.00" data-guides="{&quot;vertical&quot;:[],&quot;horizontal&quot;:[]}"><defs></defs><path fill="none" stroke="#0e7c62" fill-opacity="1" stroke-width="1" stroke-opacity="1" color="rgb(51, 51, 51)" id="tSvgb9e15a12b3" title="Path 9" d="M7.6 3.5C11.8667 3.5 16.1333 3.5 20.4 3.5C20.9601 3.5 21.2401 3.5 21.454 3.609C21.6422 3.7049 21.7951 3.8579 21.891 4.046C22 4.2599 22 4.54 22 5.1C22 8.3667 22 11.6333 22 14.9C22 15.4601 22 15.7401 21.891 15.954C21.7951 16.1422 21.6422 16.2951 21.454 16.391C21.2401 16.5 20.9601 16.5 20.4 16.5C20.4 16.5 20.4 16.5 20.4 16.5C16.1333 16.5 11.8667 16.5 7.6 16.5C7.04 16.5 6.7599 16.5 6.546 16.391C6.3579 16.2951 6.2049 16.1422 6.109 15.954C6 15.7401 6 15.4601 6 14.9C6 11.6333 6 8.3667 6 5.1C6 4.54 6 4.2599 6.109 4.046C6.2049 3.8579 6.3579 3.7049 6.546 3.609C6.7599 3.5 7.04 3.5 7.6 3.5Z"></path><path fill="#0e7c62" stroke="none" fill-opacity="1" stroke-width="1" stroke-opacity="1" clip-rule="evenodd" color="rgb(51, 51, 51)" fill-rule="evenodd" id="tSvg13aeef172d4" title="Path 10" d="M19 16C19 16.8 19 17.6 19 18.4C19 18.4064 19 18.4129 19 18.4193C19 18.6828 19 18.9102 18.9847 19.0975C18.9686 19.2952 18.9329 19.4918 18.8365 19.681C18.6927 19.9632 18.4632 20.1927 18.181 20.3365C17.9918 20.4329 17.7952 20.4686 17.5975 20.4847C17.4102 20.5 17.1829 20.5 16.9193 20.5C16.9129 20.5 16.9064 20.5 16.9 20.5C12.6333 20.5 8.3667 20.5 4.1 20.5C4.0936 20.5 4.0871 20.5 4.0807 20.5C3.8171 20.5 3.5898 20.5 3.4025 20.4847C3.2048 20.4686 3.0082 20.4329 2.819 20.3365C2.5368 20.1927 2.3073 19.9632 2.1635 19.681C2.0671 19.4918 2.0314 19.2952 2.0153 19.0975C2 18.9102 2 18.6829 2 18.4193C2 18.4129 2 18.4064 2 18.4C2 15.4667 2 12.5333 2 9.6C2 9.5936 2 9.5871 2 9.5807C2 9.3171 2 9.0898 2.0153 8.9025C2.0314 8.7048 2.0671 8.5082 2.1635 8.319C2.3073 8.0368 2.5368 7.8073 2.819 7.6635C3.0082 7.5671 3.2048 7.5314 3.4025 7.5153C3.5898 7.5 3.8171 7.5 4.0807 7.5C4.0872 7.5 4.0936 7.5 4.1 7.5C4.9 7.5 5.7 7.5 6.5 7.5C6.5 7.8333 6.5 8.1667 6.5 8.5C5.7 8.5 4.9 8.5 4.1 8.5C3.8117 8.5 3.6256 8.5004 3.4839 8.512C3.3481 8.5231 3.2977 8.5419 3.273 8.5545C3.1789 8.6024 3.1024 8.6789 3.0545 8.773C3.0419 8.7977 3.0231 8.8481 3.012 8.9839C3.0004 9.1256 3 9.3117 3 9.6C3 12.5333 3 15.4667 3 18.4C3 18.6883 3.0004 18.8744 3.012 19.0161C3.0231 19.1519 3.0419 19.2023 3.0545 19.227C3.1024 19.3211 3.1789 19.3976 3.273 19.4455C3.2977 19.4581 3.3481 19.4769 3.4839 19.488C3.6256 19.4996 3.8117 19.5 4.1 19.5C8.3667 19.5 12.6333 19.5 16.9 19.5C17.1883 19.5 17.3744 19.4996 17.5161 19.488C17.6519 19.4769 17.7023 19.4581 17.727 19.4455C17.8211 19.3976 17.8976 19.3211 17.9455 19.227C17.9581 19.2023 17.9769 19.1519 17.988 19.0161C17.9996 18.8744 18 18.6883 18 18.4C18 17.6 18 16.8 18 16C18.3333 16 18.6667 16 19 16Z"></path><path fill="none" stroke="#0e7c62" fill-opacity="1" stroke-width="1" stroke-opacity="1" color="rgb(51, 51, 51)" stroke-linecap="round" id="tSvge4d25c6e76" title="Path 11" d="M11.1001 7.5C13.7668 7.5 16.4334 7.5 19.1001 7.5"></path><path fill="none" stroke="#0e7c62" fill-opacity="1" stroke-width="1" stroke-opacity="1" color="rgb(51, 51, 51)" stroke-linecap="round" id="tSvg134df603ab4" title="Path 12" d="M11.1001 10C13.7668 10 16.4334 10 19.1001 10"></path><path fill="none" stroke="#0e7c62" fill-opacity="1" stroke-width="1" stroke-opacity="1" color="rgb(51, 51, 51)" stroke-linecap="round" id="tSvg124fee9d3d8" title="Path 13" d="M11.1001 12.5C13.7668 12.5 16.4334 12.5 19.1001 12.5"></path><path fill="none" stroke="#0e7c62" fill-opacity="1" stroke-width="1.5" stroke-opacity="1" color="rgb(51, 51, 51)" stroke-linecap="round" id="tSvge3e2c29e56" title="Path 14" d="M9.1001 7.5C9.1001 7.5 9.1002 7.5 9.1002 7.5"></path><path fill="none" stroke="#0e7c62" fill-opacity="1" stroke-width="1.5" stroke-opacity="1" color="rgb(51, 51, 51)" stroke-linecap="round" id="tSvgdfd605caf1" title="Path 15" d="M9.1001 10C9.1001 10 9.1002 10 9.1002 10"></path><path fill="none" stroke="#0e7c62" fill-opacity="1" stroke-width="1.5" stroke-opacity="1" color="rgb(51, 51, 51)" stroke-linecap="round" id="tSvg160866d0cd4" title="Path 16" d="M9.1001 12.5C9.1001 12.5 9.1002 12.5 9.1002 12.5"></path></svg> 