<?xml version="1.0" encoding="UTF-8"?> <svg xmlns="http://www.w3.org/2000/svg" width="512" height="512" viewBox="0 0 512 512" fill="none"><g clip-path="url(#clip0_818_2826)"><path fill-rule="evenodd" clip-rule="evenodd" d="M256 0C397.4 0 512 114.6 512 256C512 397.4 397.4 512 256 512C114.6 512 0 397.4 0 256C0 114.6 114.6 0 256 0ZM246.2 323.9C246.2 319.2 242.4 315.3 237.7 315.3H131.3C126.6 315.3 122.7 319.1 122.7 323.9C122.7 328.6 126.5 332.5 131.3 332.5H237.6C242.3 332.5 246.2 328.6 246.2 323.9ZM109.9 150C100.8 150 93.5 157.3 93.5 166.4V188.3H418.5V166.4C418.5 157.3 411.2 150 402.1 150H109.9ZM402.1 362C411.2 362 418.5 354.7 418.5 345.6V248.4H93.5V345.6C93.5 354.7 100.8 362 109.9 362H402.1ZM418.5 231.3V205.4H93.5V231.3H418.5Z" fill="url(#paint0_linear_818_2826)"></path></g><defs><linearGradient id="paint0_linear_818_2826" x1="0" y1="256" x2="512" y2="256" gradientUnits="userSpaceOnUse"><stop stop-color="#9C4399"></stop><stop offset="1" stop-color="#9AC2CF"></stop></linearGradient><clipPath id="clip0_818_2826"><rect width="512" height="512" fill="white"></rect></clipPath></defs></svg> 