<?xml version="1.0" encoding="UTF-8"?> <svg xmlns:svgjs="http://svgjs.dev/svgjs" xmlns:serif="http://www.serif.com/" xmlns="http://www.w3.org/2000/svg" xmlns:xlink="http://www.w3.org/1999/xlink" version="1.1" id="Layer_1" x="0px" y="0px" viewBox="0 0 300 300" style="enable-background:new 0 0 300 300;" xml:space="preserve"> <style type="text/css"> .st0{fill-rule:evenodd;clip-rule:evenodd;fill:#A386C2;} </style> <g transform="matrix(1,0,0,1,0,0)"> <path class="st0" d="M65.6,83V35.2C65.6,21,77.2,9.4,91.4,9.4h117.2c14.2,0,25.8,11.5,25.8,25.8V83l37,120.3 c0.3,0.8,0.4,1.6,0.5,2.5v0.5v65.6c0,5.2-4.2,9.4-9.4,9.4c-5.2,0-9.4-4.2-9.4-9.4v-9.5c-0.8,0.1-1.6,0.1-2.3,0.1H49.2 c-0.8,0-1.6,0-2.3-0.1v9.5c0,5.2-4.2,9.4-9.4,9.4s-9.4-4.2-9.4-9.4v-28.1v-38c0-0.9,0.2-1.7,0.5-2.5L65.6,83z M253.1,215.6H46.9 v25.8c0,1.3,1,2.3,2.3,2.3h201.6c1.3,0,2.3-1,2.3-2.3V215.6z M249.8,196.9L218.1,93.8H81.9L50.2,196.9H249.8z M215.6,68 c0-3.9-3.2-7-7-7h-42.2c-3.9,0-7,3.2-7,7v7h56.2V68z M84.4,75h56.2v-7c0-3.9-3.2-7-7-7H91.4c-3.9,0-7,3.2-7,7V75z M215.6,43.2v-8 c0-3.9-3.2-7-7-7H91.4c-3.9,0-7,3.1-7,7v8c2.2-0.6,4.6-1,7-1h42.2c6.2,0,12,2.2,16.4,5.9c4.5-3.7,10.2-5.9,16.4-5.9h42.2 C211,42.2,213.4,42.5,215.6,43.2z"></path> </g> </svg> 