<?xml version="1.0" encoding="UTF-8"?> <svg xmlns="http://www.w3.org/2000/svg" xmlns:xlink="http://www.w3.org/1999/xlink" xmlns:svgjs="http://svgjs.dev/svgjs" data-name="Layer 1" id="Layer_1" viewBox="0 0 64 64" width="300" height="300" version="1.1"><g width="100%" height="100%" transform="matrix(1,0,0,1,0,0)"><title></title><path d="M62.43,26.94,51.66,19V6.31h1.9a1,1,0,0,0,1-1V4A3.42,3.42,0,0,0,51.14.62H42A3.42,3.42,0,0,0,38.63,4V5.31a1,1,0,0,0,1,1h1.91v5.17l-8.93-6.6a1,1,0,0,0-1.19,0L1.57,26.93a1,1,0,1,0,1.19,1.61L32,6.93,61.24,28.54a1,1,0,0,0,1.19-1.61ZM49.66,5.31V17.49L43.54,13V5.31a1,1,0,0,0-1-1H40.63V4A1.42,1.42,0,0,1,42,2.62h9.09A1.42,1.42,0,0,1,52.56,4v.28h-1.9A1,1,0,0,0,49.66,5.31Z" fill="url(#SvgjsLinearGradient1000)" fill-opacity="1" data-original-color="#000000ff" stroke="none" stroke-opacity="1"></path><path d="M57.31,56H55.43V27.73a1,1,0,0,0-.4-.8L32.62,10.24a1,1,0,0,0-1.19,0L8.91,26.93a1,1,0,0,0-.4.8V56H6.63a1,1,0,0,0-1,1v5.37a1,1,0,0,0,1,1H57.31a1,1,0,0,0,1-1V57A1,1,0,0,0,57.31,56ZM10.51,28.24,32,12.29,53.43,28.24V56H10.51Zm45.8,33.15H7.63V58H56.31Z" fill="url(#SvgjsLinearGradient1000)" fill-opacity="1" data-original-color="#000000ff" stroke="none" stroke-opacity="1"></path><path d="M32,31a7.14,7.14,0,1,0,7.14,7.14A7.15,7.15,0,0,0,32,31Zm0,12.28a5.14,5.14,0,1,1,5.14-5.14A5.15,5.15,0,0,1,32,43.28Z" fill="url(#SvgjsLinearGradient1000)" fill-opacity="1" data-original-color="#000000ff" stroke="none" stroke-opacity="1"></path><path d="M45.51,34.45a1,1,0,0,0,.06-1.09l-2.65-4.6a1,1,0,0,0-1-.49l-2.85.31-2.4-1.39-1.16-2.62a1,1,0,0,0-.92-.6H29.32a1,1,0,0,0-.92.6l-1.16,2.62-2.4,1.39L22,28.26a1,1,0,0,0-1,.49l-2.65,4.6a1,1,0,0,0,.06,1.09l1.69,2.31v2.77l-1.69,2.31a1,1,0,0,0-.06,1.09L21,47.53A1,1,0,0,0,22,48l2.85-.31,2.4,1.39,1.16,2.62a1,1,0,0,0,.92.6h5.31a1,1,0,0,0,.92-.6L36.7,49.1l2.4-1.39,2.85.31a1,1,0,0,0,1-.49l2.65-4.6a1,1,0,0,0-.06-1.09l-1.69-2.31V36.76Zm-3.5,6,1.5,2-2,3.47L39,45.69a1,1,0,0,0-.61.13l-3,1.71A1,1,0,0,0,35,48l-1,2.32H30l-1-2.32a1,1,0,0,0-.42-.46l-3-1.71a1,1,0,0,0-.61-.13L22.43,46l-2-3.47,1.5-2a1,1,0,0,0,.19-.59V36.43a1,1,0,0,0-.19-.59l-1.5-2,2-3.47L25,30.6a1,1,0,0,0,.61-.13l3-1.71a1,1,0,0,0,.42-.46L30,26h4l1,2.32a1,1,0,0,0,.42.46l3,1.71a1,1,0,0,0,.61.13l2.52-.27,2,3.47-1.5,2a1,1,0,0,0-.19.59v3.43A1,1,0,0,0,42,40.45Z" fill="url(#SvgjsLinearGradient1000)" fill-opacity="1" data-original-color="#000000ff" stroke="none" stroke-opacity="1"></path></g><defs><linearGradient id="SvgjsLinearGradient1000"><stop stop-opacity="1" stop-color="#9c4399" offset="0.02"></stop><stop stop-opacity="1" stop-color="#93c1cc" offset="1"></stop></linearGradient></defs></svg> 