<?xml version="1.0" encoding="UTF-8"?> <svg xmlns="http://www.w3.org/2000/svg" xmlns:xlink="http://www.w3.org/1999/xlink" version="1.1" id="Layer_1" x="0px" y="0px" viewBox="0 0 100 100" style="enable-background:new 0 0 100 100;" xml:space="preserve"> <style type="text/css"> .st0{fill-rule:evenodd;clip-rule:evenodd;fill:#A386C2;stroke:#A386C2;stroke-width:2;stroke-miterlimit:10;} </style> <g> <path class="st0" d="M66,22.6V17h7.5c0.8,0,1.5-0.7,1.5-1.5c0-0.8-0.7-1.5-1.5-1.5h-18c-0.8,0-1.5,0.7-1.5,1.5 c0,0.8,0.7,1.5,1.5,1.5l0,0H63v5.6c-17.5,0.8-31.1,15.7-30.3,33.3c0.9,17.5,15.8,31,33.3,30.2s31.1-15.7,30.3-33.3 C95.5,36.4,82.4,23.3,66,22.6L66,22.6z M64.3,83.2c-15.9,0-28.9-12.9-28.9-28.8s12.9-28.9,28.9-28.9s28.8,12.9,28.8,28.8 C93.2,70.3,80.3,83.2,64.3,83.2z"></path> <path class="st0" d="M57.1,73.9c-8.2-3-13.6-10.8-13.6-19.6c0-0.8-0.7-1.5-1.5-1.5s-1.5,0.7-1.5,1.5c0,10,6.2,18.9,15.6,22.4 c0.2,0.1,0.3,0.1,0.5,0.1c0.8,0,1.5-0.7,1.5-1.5C58.1,74.7,57.7,74.2,57.1,73.9z M77.2,70.8c-2.9,2.3-6.4,3.7-10,4.2 c-0.8,0.1-1.5,0.8-1.4,1.6s0.8,1.5,1.6,1.4h0.2c4.2-0.6,8.1-2.3,11.4-4.9c0.7-0.5,0.8-1.4,0.3-2.1C78.8,70.4,77.9,70.3,77.2,70.8 L77.2,70.8L77.2,70.8z M69.3,54.4c0-0.9-0.3-1.8-0.8-2.6l10.3-10.6c0.6-0.6,0.5-1.6-0.1-2.1s-1.5-0.5-2.1,0L66.3,49.8 c-2.5-1.1-5.5,0.1-6.6,2.6s0.1,5.5,2.6,6.6s5.5-0.1,6.6-2.6C69.1,55.7,69.3,55.1,69.3,54.4L69.3,54.4z M64.3,56.4c-1.1,0-2-0.9-2-2 s0.9-2,2-2s2,0.9,2,2S65.4,56.3,64.3,56.4L64.3,56.4z M25,55.5c0-0.8-0.7-1.5-1.5-1.5l0,0h-18C4.7,54,4,54.7,4,55.5S4.7,57,5.5,57 h18C24.3,57,25,56.3,25,55.5z M26.5,68h-18C7.7,68,7,68.7,7,69.5S7.7,71,8.5,71h18c0.8,0,1.5-0.7,1.5-1.5S27.3,68,26.5,68z M26.5,39h-18C7.7,39,7,39.7,7,40.5S7.7,42,8.5,42h18c0.8,0,1.5-0.7,1.5-1.5S27.3,39,26.5,39z"></path> </g> </svg> 