<?xml version="1.0" encoding="UTF-8"?> <svg xmlns="http://www.w3.org/2000/svg" width="360" height="261" viewBox="0 0 360 261" fill="none"><mask id="mask0_954_2651" style="mask-type:alpha" maskUnits="userSpaceOnUse" x="0" y="0" width="360" height="261"><rect y="0.584961" width="360" height="260" rx="30" fill="#D9D9D9"></rect></mask><g mask="url(#mask0_954_2651)"><path d="M361.956 255.574C361.956 255.546 361.956 255.518 361.956 255.489C361.956 255.405 361.956 255.349 361.928 255.264C361.928 255.236 361.928 255.236 361.928 255.208C361.9 255.123 361.9 255.011 361.843 254.926C361.815 254.842 361.787 254.757 361.731 254.673C361.731 254.673 361.731 254.644 361.703 254.644C361.646 254.56 361.618 254.447 361.534 254.363L355.533 245.348L349.561 236.362C349.561 236.334 349.533 236.334 349.533 236.306L339.025 220.558C338.941 220.446 338.856 220.305 338.744 220.22C338.716 220.192 338.687 220.164 338.659 220.164C338.631 220.136 338.603 220.108 338.575 220.079C338.547 220.051 338.518 220.023 338.49 219.995C338.462 219.967 338.434 219.967 338.406 219.939C338.378 219.91 338.349 219.91 338.321 219.882C338.293 219.854 338.265 219.854 338.237 219.826C338.209 219.798 338.18 219.798 338.152 219.77C338.124 219.741 338.068 219.741 338.04 219.713C338.011 219.713 337.983 219.685 337.955 219.685C337.927 219.685 337.871 219.657 337.842 219.657C337.814 219.657 337.758 219.629 337.73 219.629C337.701 219.629 337.673 219.601 337.645 219.601C337.504 219.572 337.335 219.544 337.194 219.544H309.334C317.729 208.389 325.898 193.74 325.898 179.007C325.898 159.119 309.728 142.949 289.84 142.949C269.952 142.949 253.782 159.119 253.782 179.007C253.782 193.74 261.952 208.389 270.375 219.572H242.514C241.725 219.572 241.021 219.995 240.627 220.615L234.655 229.545C234.626 229.573 234.626 229.601 234.598 229.629L218.119 254.334C218.062 254.419 218.006 254.532 217.95 254.644V254.673C217.865 254.842 217.809 255.039 217.781 255.236V255.264C217.781 255.349 217.752 255.405 217.752 255.489C217.752 255.518 217.752 255.546 217.752 255.574C217.752 255.602 217.752 255.63 217.752 255.63V264.645C217.752 265.884 218.767 266.898 220.006 266.898H359.731C360.97 266.898 361.984 265.884 361.984 264.645V255.63C361.956 255.602 361.956 255.574 361.956 255.574ZM341.166 253.377L339.025 248.869H352.491L355.505 253.377H341.166ZM332.574 235.348L327.194 224.08H335.927L343.448 235.348H332.574ZM289.84 147.456C307.249 147.456 321.391 161.598 321.391 179.007C321.391 203.205 296.263 228.474 289.84 234.531C289.192 233.911 288.347 233.122 287.361 232.136C287.136 231.657 286.77 231.291 286.291 231.066C277.051 221.629 258.289 199.91 258.289 179.007C258.289 161.598 272.431 147.456 289.84 147.456ZM311.644 235.348L313.588 242.109H266.093L268.036 235.348H284.178C286.516 237.658 288.094 239.038 288.375 239.292C288.798 239.658 289.333 239.855 289.868 239.855C290.404 239.855 290.939 239.658 291.361 239.292C291.643 239.038 293.221 237.658 295.559 235.348H311.644ZM279.812 230.84H266.318H266.29C266.262 230.84 266.262 230.84 266.233 230.84C265.219 230.869 264.374 231.573 264.121 232.531L260.937 243.658C260.937 243.686 260.937 243.686 260.909 243.714C260.881 243.771 260.881 243.855 260.853 243.911C260.853 243.94 260.853 243.94 260.853 243.968C260.853 244.024 260.825 244.081 260.825 244.137C260.825 244.165 260.825 244.193 260.825 244.221C260.825 244.25 260.825 244.278 260.825 244.306V244.334C260.825 244.362 260.825 244.39 260.825 244.447C260.825 244.475 260.825 244.531 260.825 244.559C260.825 244.588 260.825 244.616 260.825 244.644C260.825 244.7 260.853 244.757 260.853 244.785C260.853 244.785 260.853 244.785 260.853 244.813C261.022 245.602 261.642 246.25 262.431 246.475C262.515 246.503 262.628 246.531 262.712 246.531C262.74 246.531 262.74 246.531 262.769 246.531C262.853 246.531 262.966 246.559 263.05 246.559H316.546C316.63 246.559 316.743 246.559 316.827 246.531C316.855 246.531 316.855 246.531 316.884 246.531C316.968 246.503 317.081 246.503 317.165 246.475C317.306 246.447 317.447 246.39 317.588 246.306C317.644 246.278 317.701 246.25 317.757 246.193C317.813 246.165 317.87 246.109 317.926 246.081C317.926 246.081 317.926 246.081 317.954 246.081C318.01 246.024 318.067 245.996 318.095 245.94C318.349 245.686 318.546 245.376 318.658 245.038C318.687 244.982 318.687 244.926 318.715 244.869C318.715 244.841 318.715 244.841 318.715 244.813C318.715 244.785 318.743 244.728 318.743 244.672C318.743 244.644 318.743 244.616 318.771 244.588C318.771 244.559 318.771 244.503 318.771 244.475C318.771 244.447 318.771 244.39 318.771 244.362V244.334C318.771 244.306 318.771 244.278 318.771 244.25C318.771 244.221 318.771 244.193 318.771 244.137C318.771 244.081 318.771 244.024 318.743 243.968C318.743 243.94 318.743 243.94 318.743 243.911C318.743 243.855 318.715 243.771 318.687 243.714C318.687 243.686 318.687 243.686 318.658 243.658L315.531 232.531C315.306 231.573 314.461 230.869 313.447 230.84C313.419 230.84 313.419 230.84 313.391 230.84H313.362H299.869C301.7 228.869 303.7 226.587 305.785 224.08H322.236L329.138 238.559C329.138 238.559 329.138 238.587 329.166 238.587C329.532 239.348 330.293 239.855 331.194 239.855H346.519L349.533 244.362H335.645C335.279 244.334 334.913 244.419 334.546 244.588C333.589 245.038 333.11 246.081 333.307 247.067C333.307 247.123 333.335 247.179 333.363 247.236C333.363 247.264 333.363 247.264 333.391 247.292C333.42 247.348 333.42 247.376 333.448 247.433C333.448 247.461 333.476 247.489 333.476 247.517C333.476 247.545 333.476 247.545 333.504 247.574L336.265 253.377H243.5L253.726 231.939C253.895 231.629 254.008 231.235 254.008 230.84C254.008 230.333 253.839 229.883 253.585 229.516C253.557 229.46 253.501 229.404 253.444 229.347C253.444 229.347 253.444 229.347 253.416 229.319C253.388 229.263 253.332 229.235 253.275 229.178L253.247 229.15C253.191 229.122 253.162 229.066 253.106 229.038L253.078 229.009C253.022 228.981 252.965 228.925 252.937 228.897C252.937 228.897 252.909 228.897 252.909 228.869C252.853 228.84 252.796 228.812 252.74 228.784C252.74 228.784 252.74 228.784 252.712 228.784C252.712 228.784 252.712 228.784 252.684 228.784C252.627 228.756 252.571 228.728 252.515 228.7C252.486 228.7 252.486 228.7 252.458 228.671C252.402 228.643 252.374 228.643 252.317 228.615C252.289 228.615 252.261 228.587 252.233 228.587C252.205 228.587 252.177 228.559 252.12 228.559C252.064 228.559 252.036 228.531 251.979 228.531C251.951 228.531 251.951 228.531 251.923 228.531C251.867 228.531 251.782 228.531 251.726 228.531H240.711L243.725 224.023H273.896C275.98 226.587 277.98 228.869 279.812 230.84ZM237.725 233.094H248.176L238.514 253.377H224.175L237.725 233.094ZM357.449 262.391H222.232V257.884H357.449V262.391ZM303.362 197.036C304.601 197.036 305.616 196.022 305.616 194.783C305.616 193.543 304.601 192.529 303.362 192.529V180.162L304.32 180.838C304.714 181.12 305.165 181.261 305.616 181.261C306.32 181.261 307.024 180.923 307.447 180.303C308.179 179.289 307.926 177.88 306.911 177.148L291.136 165.88C291.108 165.852 291.08 165.852 291.052 165.823C291.023 165.823 291.023 165.795 290.995 165.795C290.939 165.767 290.911 165.739 290.854 165.711C290.826 165.711 290.826 165.683 290.798 165.683C290.742 165.654 290.685 165.626 290.657 165.626C290.629 165.626 290.629 165.626 290.601 165.598C290.544 165.57 290.488 165.57 290.46 165.542C290.432 165.542 290.432 165.542 290.404 165.514C290.347 165.514 290.319 165.485 290.263 165.485C290.235 165.485 290.206 165.485 290.178 165.485C290.15 165.485 290.094 165.485 290.066 165.485C290.037 165.485 289.981 165.485 289.953 165.485C289.925 165.485 289.897 165.485 289.868 165.485C289.812 165.485 289.784 165.485 289.728 165.485C289.699 165.485 289.699 165.485 289.671 165.485C289.615 165.485 289.558 165.485 289.502 165.514H289.474C289.418 165.514 289.361 165.542 289.277 165.542C289.277 165.542 289.277 165.542 289.249 165.542C289.192 165.57 289.136 165.57 289.051 165.598C289.051 165.598 289.051 165.598 289.023 165.598C288.967 165.626 288.911 165.654 288.854 165.683H288.826C288.77 165.711 288.713 165.739 288.657 165.767L288.629 165.795C288.601 165.823 288.573 165.852 288.516 165.852L280.826 171.401V167.739C280.826 166.5 279.812 165.485 278.572 165.485C277.333 165.485 276.318 166.5 276.318 167.739V174.641L272.769 177.176C271.755 177.909 271.53 179.317 272.234 180.331C272.684 180.951 273.361 181.289 274.065 181.289C274.516 181.289 274.966 181.148 275.361 180.866L276.29 180.19V192.529C275.051 192.529 274.037 193.543 274.037 194.783C274.037 196.022 275.051 197.036 276.29 197.036H303.362ZM280.826 176.951L289.84 170.5L298.855 176.951V192.529H292.094V188.022C292.094 186.782 291.08 185.768 289.84 185.768C288.601 185.768 287.587 186.782 287.587 188.022V192.529H280.826V176.951Z" fill="url(#paint0_linear_954_2651)"></path></g><defs><linearGradient id="paint0_linear_954_2651" x1="217.752" y1="204.924" x2="361.984" y2="204.924" gradientUnits="userSpaceOnUse"><stop offset="0.02" stop-color="#9C4399"></stop><stop offset="1" stop-color="#93C1CC"></stop></linearGradient></defs></svg> 