<?xml version="1.0" encoding="UTF-8"?> <svg xmlns="http://www.w3.org/2000/svg" xmlns:xlink="http://www.w3.org/1999/xlink" version="1.1" id="Layer_1" x="0px" y="0px" viewBox="0 0 100 100" style="enable-background:new 0 0 100 100;" xml:space="preserve"> <style type="text/css"> .st0{fill-rule:evenodd;clip-rule:evenodd;fill:#B8B8B8;stroke:#B8B8B8;stroke-width:2;stroke-miterlimit:10;} </style> <g> <path class="st0" d="M71.2,11.7c-0.3-0.8-1.2-1.1-2-0.8c-0.3,0.1-0.5,0.3-0.7,0.6l-6,10c-0.4,0.7-0.2,1.6,0.6,2 c0.7,0.4,1.6,0.2,2-0.5l3-5c-1.1,10-6.3,20-14.6,27.8C43.7,55.3,31,60.4,17.7,60.4c-0.8,0-1.5,0.7-1.5,1.5s0.7,1.5,1.5,1.5 c14,0,27.5-5.4,37.9-15.3c8.7-8.3,14.2-18.8,15.5-29.4l2.2,5c0.3,0.8,1.2,1.1,2,0.8s1.1-1.2,0.8-2c0,0,0,0,0,0 C76,22.5,71.2,11.7,71.2,11.7z M18.1,71.4c-0.8,0-1.5,0.7-1.5,1.5v14.8c0,0.8,0.7,1.5,1.5,1.5s1.5-0.7,1.5-1.5V72.9 C19.6,72.1,18.9,71.4,18.1,71.4z M40.7,65.2c-0.8,0-1.5,0.7-1.5,1.5v21c0,0.8,0.7,1.5,1.5,1.5s1.5-0.7,1.5-1.5v-21 C42.2,65.8,41.5,65.2,40.7,65.2z M62.8,50.3c-0.8,0-1.5,0.7-1.5,1.5v35.9c0,0.8,0.7,1.5,1.5,1.5s1.5-0.7,1.5-1.5V51.8 C64.3,50.9,63.6,50.3,62.8,50.3z M82.3,14.3c-0.8,0-1.5,0.7-1.5,1.5v71.9c0,0.8,0.7,1.5,1.5,1.5s1.5-0.7,1.5-1.5V15.8 C83.8,15,83.1,14.3,82.3,14.3z"></path> </g> </svg> 