<?xml version="1.0" encoding="UTF-8"?> <svg xmlns="http://www.w3.org/2000/svg" xmlns:serif="http://www.serif.com/" xmlns:xlink="http://www.w3.org/1999/xlink" xmlns:svgjs="http://svgjs.dev/svgjs" clip-rule="evenodd" fill-rule="evenodd" stroke-linejoin="round" stroke-miterlimit="2" viewBox="0 0 32 32" width="300" height="300" version="1.1"><g width="100%" height="100%" transform="matrix(1,0,0,1,0,0)"><g fill="none"><path d="m24 3.75c0-.966-.784-1.75-1.75-1.75h-12.5c-.966 0-1.75.784-1.75 1.75v5.25h16z" fill="none" fill-opacity="1" stroke="none" stroke-opacity="1"></path><path d="m16 7.25c0-.966-.784-1.75-1.75-1.75h-4.5c-.966 0-1.75.784-1.75 1.75v1.75h8z" fill="none" fill-opacity="1" stroke="none" stroke-opacity="1"></path><path d="m24 7.25c0-.966-.784-1.75-1.75-1.75h-4.5c-.966 0-1.75.784-1.75 1.75v1.75h8z" fill="none" fill-opacity="1" stroke="none" stroke-opacity="1"></path><path d="m28 22h-24v3.75c0 .69.56 1.25 1.25 1.25h21.5c.69 0 1.25-.56 1.25-1.25z" fill="none" fill-opacity="1" stroke="none" stroke-opacity="1"></path><path d="m24 9h-16l-4 13h24z" fill="none" fill-opacity="1" stroke="none" stroke-opacity="1"></path></g><path d="m7 8.85v-5.1c0-1.518 1.232-2.75 2.75-2.75h12.5c1.518 0 2.75 1.232 2.75 2.75v5.1l3.949 12.834c.028.085.045.174.05.267l.001.049v7c0 .552-.448 1-1 1s-1-.448-1-1v-1.014c-.082.009-.166.014-.25.014h-21.5c-.084 0-.168-.005-.25-.014v1.014c0 .552-.448 1-1 1s-1-.448-1-1v-3l.001-4.049c.005-.093.022-.182.05-.267zm20 14.15h-22v2.75c0 .138.112.25.25.25h21.5c.138 0 .25-.112.25-.25zm-.354-2-3.385-11h-14.522l-3.385 11zm-3.646-13.75c0-.414-.336-.75-.75-.75h-4.5c-.414 0-.75.336-.75.75v.75h6zm-14 .75h6v-.75c0-.414-.336-.75-.75-.75h-4.5c-.414 0-.75.336-.75.75zm14-3.396v-.854c0-.414-.336-.75-.75-.75h-12.5c-.414 0-.75.336-.75.75v.854c.238-.068.49-.104.75-.104h4.5c.665 0 1.275.236 1.75.629.475-.393 1.085-.629 1.75-.629h4.5c.26 0 .512.036.75.104z" fill="#b8b8b8" fill-opacity="1" data-original-color="#000000ff" stroke="none" stroke-opacity="1"></path></g></svg> 