<?xml version="1.0" encoding="UTF-8"?> <svg xmlns="http://www.w3.org/2000/svg" width="361" height="261" viewBox="0 0 361 261" fill="none"><mask id="mask0_954_2652" style="mask-type:alpha" maskUnits="userSpaceOnUse" x="0" y="0" width="361" height="261"><rect x="0.5" y="0.584961" width="360" height="260" rx="30" fill="#D9D9D9"></rect></mask><g mask="url(#mask0_954_2652)"><path d="M239.018 206.017C240.175 206.017 241.121 206.964 241.121 208.121V218.636C241.121 219.793 240.175 220.739 239.018 220.739C237.861 220.739 236.915 219.793 236.915 218.636V208.121C236.915 206.964 237.861 206.017 239.018 206.017ZM348.382 180.78V189.192C348.382 189.218 348.382 189.245 348.382 189.271C348.382 189.297 348.382 189.35 348.382 189.376C348.382 189.403 348.382 189.455 348.382 189.481C348.382 189.508 348.382 189.534 348.355 189.587C348.355 189.613 348.329 189.665 348.329 189.692C348.329 189.718 348.303 189.744 348.303 189.771C348.303 189.797 348.277 189.849 348.277 189.876C348.277 189.902 348.25 189.928 348.25 189.955C348.224 189.981 348.224 190.033 348.198 190.06C348.198 190.086 348.171 190.112 348.171 190.139C348.145 190.165 348.145 190.217 348.119 190.244C348.119 190.27 348.093 190.27 348.093 190.296C348.093 190.296 348.093 190.323 348.066 190.323C348.014 190.401 347.987 190.454 347.935 190.533L347.909 190.559C347.856 190.612 347.83 190.664 347.777 190.717C347.751 190.743 347.725 190.743 347.725 190.77C347.672 190.796 347.646 190.848 347.593 190.875C347.567 190.901 347.567 190.901 347.541 190.927C347.409 191.032 347.278 191.085 347.12 191.164C347.094 191.164 347.094 191.164 347.067 191.19C347.015 191.216 346.936 191.243 346.883 191.243C346.857 191.243 346.857 191.243 346.831 191.269C346.778 191.295 346.699 191.295 346.647 191.295C346.62 191.295 346.62 191.295 346.594 191.295C346.515 191.295 346.436 191.322 346.357 191.322C346.279 191.322 346.2 191.322 346.095 191.295C346.068 191.295 346.042 191.295 346.016 191.295C345.937 191.295 345.884 191.269 345.805 191.243C345.779 191.243 345.779 191.243 345.753 191.243C345.674 191.216 345.569 191.19 345.49 191.138C345.49 191.138 345.464 191.138 345.464 191.111C345.385 191.085 345.332 191.032 345.253 191.006C345.227 191.006 345.227 190.98 345.201 190.98L342.125 189.034V250.183C342.125 251.34 341.178 252.287 340.022 252.287H270.618V254.39V262.802V271.215C270.618 272.372 269.671 273.318 268.515 273.318H255.896V275.421C255.896 276.578 254.949 277.524 253.793 277.524H224.296C223.139 277.524 222.193 276.578 222.193 275.421V267.009V258.596V250.183V241.771C222.193 240.614 223.139 239.668 224.296 239.668H253.74C254.897 239.668 255.843 240.614 255.843 241.771V243.874H268.462C269.619 243.874 270.565 244.82 270.565 245.977V248.08H278.978V216.533C278.978 215.376 279.924 214.43 281.081 214.43H297.906C299.063 214.43 300.009 215.376 300.009 216.533V248.08H337.866V186.379L289.494 155.936L241.121 186.379V197.736C243.277 197.999 245.328 198.683 247.141 199.708H272.668C273.825 199.708 274.772 200.654 274.772 201.811V224.946C274.772 226.102 273.825 227.049 272.668 227.049H255.317C253.451 234.305 246.852 239.668 239.018 239.668C229.738 239.668 222.193 232.123 222.193 222.843V214.43C222.193 205.86 228.634 198.788 236.915 197.736V189.034L233.839 190.98C233.839 190.98 233.813 190.98 233.813 191.006C233.734 191.059 233.655 191.085 233.576 191.138C233.576 191.138 233.576 191.138 233.55 191.138C233.471 191.164 233.366 191.216 233.287 191.243C233.261 191.243 233.261 191.243 233.234 191.243C233.156 191.269 233.103 191.269 233.024 191.295C232.998 191.295 232.972 191.295 232.945 191.295C232.866 191.295 232.787 191.322 232.682 191.322C232.603 191.322 232.525 191.322 232.446 191.295C232.419 191.295 232.419 191.295 232.393 191.295C232.314 191.295 232.262 191.269 232.209 191.269C232.183 191.269 232.183 191.269 232.157 191.243C232.078 191.216 232.025 191.216 231.973 191.19C231.946 191.19 231.946 191.19 231.92 191.164C231.762 191.111 231.631 191.032 231.499 190.927C231.473 190.901 231.473 190.901 231.447 190.875C231.394 190.848 231.368 190.796 231.315 190.77C231.289 190.743 231.263 190.743 231.263 190.717C231.21 190.664 231.158 190.612 231.131 190.586L231.105 190.559C231.052 190.507 231 190.428 230.974 190.375L230.947 190.349C230.921 190.323 230.921 190.296 230.921 190.27C230.895 190.244 230.895 190.217 230.868 190.191C230.842 190.165 230.842 190.112 230.816 190.086C230.816 190.06 230.789 190.033 230.789 190.007C230.763 189.955 230.763 189.928 230.737 189.876C230.737 189.849 230.711 189.823 230.711 189.797C230.684 189.744 230.684 189.692 230.684 189.665C230.684 189.639 230.684 189.639 230.684 189.613C230.684 189.56 230.658 189.508 230.658 189.455C230.658 189.429 230.658 189.429 230.658 189.403C230.658 189.35 230.658 189.297 230.658 189.245V189.218V180.806C230.658 180.806 230.658 180.806 230.658 180.78C230.658 180.727 230.658 180.674 230.658 180.622C230.658 180.596 230.658 180.596 230.658 180.569C230.658 180.517 230.658 180.49 230.684 180.438C230.684 180.412 230.684 180.385 230.711 180.359C230.711 180.333 230.737 180.28 230.737 180.254C230.737 180.228 230.763 180.175 230.763 180.149C230.763 180.122 230.789 180.096 230.789 180.07C230.816 180.043 230.816 179.991 230.842 179.965C230.842 179.938 230.868 179.912 230.868 179.886C230.895 179.859 230.895 179.807 230.921 179.781C230.947 179.754 230.947 179.728 230.974 179.702C231 179.675 231 179.649 231.026 179.623C231.052 179.597 231.079 179.544 231.105 179.518C231.131 179.491 231.131 179.465 231.158 179.465C231.184 179.439 231.21 179.413 231.236 179.36C231.263 179.334 231.263 179.334 231.289 179.307C231.315 179.281 231.342 179.255 231.368 179.229C231.394 179.202 231.42 179.202 231.42 179.176C231.447 179.15 231.473 179.123 231.526 179.097C231.552 179.071 231.578 179.071 231.604 179.044L231.631 179.018L288.416 143.265C288.442 143.265 288.442 143.238 288.468 143.238C288.495 143.212 288.521 143.212 288.547 143.186C288.573 143.16 288.626 143.16 288.652 143.133C288.679 143.133 288.705 143.107 288.731 143.107C288.758 143.081 288.81 143.081 288.836 143.054C288.863 143.054 288.889 143.028 288.915 143.028C288.968 143.028 288.994 143.002 289.047 143.002C289.073 143.002 289.099 143.002 289.126 142.976C289.178 142.976 289.204 142.949 289.257 142.949C289.283 142.949 289.31 142.949 289.336 142.949C289.362 142.949 289.415 142.949 289.441 142.949C289.467 142.949 289.494 142.949 289.546 142.949C289.572 142.949 289.625 142.949 289.651 142.949C289.678 142.949 289.73 142.949 289.757 142.949C289.783 142.949 289.809 142.949 289.862 142.949C289.888 142.949 289.941 142.949 289.967 142.976C289.993 142.976 290.019 142.976 290.072 143.002C290.098 143.002 290.151 143.028 290.177 143.028C290.203 143.028 290.256 143.054 290.282 143.054C290.309 143.054 290.335 143.081 290.361 143.081C290.387 143.107 290.44 143.107 290.466 143.133C290.493 143.133 290.519 143.16 290.545 143.16C290.598 143.186 290.624 143.212 290.677 143.238C290.677 143.238 290.703 143.238 290.703 143.265L347.488 179.018L347.514 179.044C347.541 179.071 347.567 179.071 347.593 179.097C347.619 179.123 347.646 179.15 347.698 179.176C347.725 179.202 347.751 179.202 347.751 179.229C347.777 179.255 347.803 179.281 347.83 179.307C347.856 179.334 347.856 179.36 347.882 179.36C347.909 179.386 347.935 179.413 347.961 179.439C347.987 179.465 347.987 179.491 348.014 179.518C348.04 179.544 348.066 179.57 348.066 179.597C348.093 179.623 348.119 179.675 348.119 179.702C348.119 179.728 348.145 179.754 348.145 179.754C348.171 179.807 348.198 179.833 348.224 179.886C348.224 179.886 348.224 179.912 348.25 179.912C348.277 179.965 348.303 180.017 348.303 180.07V180.096C348.329 180.149 348.329 180.201 348.355 180.254C348.355 180.28 348.355 180.28 348.355 180.306C348.355 180.359 348.382 180.412 348.382 180.438C348.382 180.464 348.382 180.49 348.382 180.517C348.382 180.569 348.382 180.596 348.382 180.648C348.382 180.674 348.382 180.701 348.382 180.727C348.382 180.753 348.382 180.78 348.382 180.78ZM251.637 269.112H226.399V273.318H251.637V271.215V269.112ZM251.637 260.699H226.399V264.906H251.637V262.802V260.699ZM251.637 252.287H226.399V256.493H251.637V254.39V252.287ZM251.637 243.874H226.399V248.08H251.637V245.977V243.874ZM266.359 264.906H255.843V267.009V269.112H266.359V264.906ZM266.359 256.493H255.843V258.596V260.699H266.359V256.493ZM266.359 248.08H255.843V250.183V252.287H266.359V248.08ZM295.803 218.636H283.184V248.08H295.803V218.636ZM251.243 225.971C248.167 229.231 243.829 231.255 239.018 231.255C234.207 231.255 229.869 229.231 226.794 225.971C228.187 231.413 233.129 235.461 239.018 235.461C244.907 235.461 249.849 231.413 251.243 225.971ZM270.565 216.533H255.843V222.843H270.565V216.533ZM252.136 203.914C254.029 206.28 255.317 209.172 255.712 212.327H270.565V203.914H252.136ZM239.018 201.811C232.051 201.811 226.399 207.463 226.399 214.43C226.399 221.397 232.051 227.049 239.018 227.049C245.985 227.049 251.637 221.397 251.637 214.43C251.637 207.463 245.985 201.811 239.018 201.811ZM344.175 181.936L289.494 147.497L234.812 181.936V185.38L288.363 151.651C288.389 151.625 288.416 151.625 288.442 151.625C288.468 151.625 288.468 151.598 288.495 151.598C288.547 151.572 288.573 151.546 288.626 151.546C288.652 151.546 288.652 151.52 288.679 151.52C288.731 151.493 288.784 151.493 288.81 151.467C288.836 151.467 288.836 151.467 288.863 151.441C288.915 151.414 288.968 151.414 289.02 151.388H289.047C289.099 151.388 289.152 151.362 289.204 151.362H289.231C289.283 151.362 289.336 151.362 289.415 151.336H289.441C289.494 151.336 289.546 151.336 289.625 151.336H289.651C289.704 151.336 289.757 151.336 289.835 151.362H289.862C289.914 151.362 289.967 151.388 290.046 151.388H290.072C290.125 151.414 290.203 151.414 290.256 151.441C290.256 151.441 290.256 151.441 290.282 151.441C290.335 151.467 290.414 151.493 290.466 151.52C290.519 151.546 290.598 151.572 290.65 151.625L290.729 151.677C290.729 151.677 290.729 151.677 290.755 151.677L341.178 183.435C341.178 183.435 341.178 183.435 341.205 183.435L344.228 185.328V181.936H344.175ZM306.319 220.161C305.162 220.161 304.216 219.215 304.216 218.058V194.923C304.216 193.767 305.162 192.82 306.319 192.82H331.557C332.713 192.82 333.66 193.767 333.66 194.923V218.058C333.66 219.215 332.713 220.161 331.557 220.161H306.319ZM308.422 201.233H329.453V197.026H308.422V201.233ZM308.422 215.955H329.453V205.439H308.422V215.955ZM278.978 178.098C278.978 172.288 283.684 167.582 289.494 167.582C295.304 167.582 300.009 172.288 300.009 178.098C300.009 183.908 295.304 188.614 289.494 188.614C283.684 188.614 278.978 183.908 278.978 178.098ZM291.597 175.995H295.435C294.804 174.207 293.384 172.788 291.597 172.157V175.995ZM291.597 184.039C293.384 183.409 294.804 181.989 295.435 180.201H291.597V184.039ZM283.552 175.995H287.39V172.157C285.603 172.788 284.183 174.207 283.552 175.995ZM283.552 180.201C284.183 181.989 285.603 183.409 287.39 184.039V180.201H283.552Z" fill="url(#paint0_linear_954_2652)"></path></g><defs><linearGradient id="paint0_linear_954_2652" x1="222.193" y1="210.225" x2="348.382" y2="210.225" gradientUnits="userSpaceOnUse"><stop offset="0.02" stop-color="#9C4399"></stop><stop offset="1" stop-color="#93C1CC"></stop></linearGradient></defs></svg> 