<?xml version="1.0" encoding="UTF-8"?> <svg xmlns="http://www.w3.org/2000/svg" xmlns:xlink="http://www.w3.org/1999/xlink" version="1.1" id="Layer_1" text-rendering="geometricPrecision" image-rendering="optimizeQuality" shape-rendering="geometricPrecision" x="0px" y="0px" width="512px" height="512px" viewBox="0 0 512 512" style="enable-background:new 0 0 512 512;" xml:space="preserve"> <style type="text/css"> .st0{fill-rule:evenodd;clip-rule:evenodd;fill:#021932;} </style> <path class="st0" d="M415.4,84.4c-10.4-19.4-25.2-35.7-44-48.4C339.9,14.6,302.5,7,280,7h-71V6h-64v252H95v55h49v28H96v52h49v110h63 V392h149v-53H208v-27h72l0.2,0c0.4,0,38.8-3.3,76.8-22.7c22.3-11.5,40.2-26.2,53-43.9c16-22.1,24.1-48.8,24.1-79.4 C434,134.8,427.7,107.4,415.4,84.4z M208,66h69.9c1.2,0.1,21.6,1.7,41.7,13.4c27.5,16,41.4,42.5,41.4,78.6c0,96.2-79.9,99-89,99h-64 V66z"></path> </svg> 