<?xml version="1.0" encoding="UTF-8"?> <svg xmlns="http://www.w3.org/2000/svg" xmlns:xlink="http://www.w3.org/1999/xlink" version="1.1" id="Layer_1" x="0px" y="0px" viewBox="0 0 100 100" style="enable-background:new 0 0 100 100;" xml:space="preserve"> <style type="text/css"> .st0{fill-rule:evenodd;clip-rule:evenodd;fill:#B8B8B8;stroke:#B8B8B8;stroke-width:2;stroke-miterlimit:10;} </style> <g> <path class="st0" d="M82.5,7.2h-66c-0.8,0-1.5,0.7-1.5,1.5v83c0,0.8,0.7,1.5,1.5,1.5h66c0.8,0,1.5-0.7,1.5-1.5v-83 C84,7.9,83.3,7.2,82.5,7.2z M35,59.2h15v30.5c0,0.2,0,0.3,0.1,0.5H34.9c0.1-0.2,0.1-0.3,0.1-0.5V59.2z M18,56.2v-33h22.1 C40,23.4,40,23.6,40,23.8v4.5l-8.4,6.3c-0.7,0.5-0.8,1.4-0.3,2.1c0.3,0.4,0.7,0.6,1.2,0.6h17.7c0.8,0,1.5-0.7,1.5-1.5 c0-0.5-0.2-0.9-0.6-1.2L43,28.2v-4.5c0-0.2,0-0.3-0.1-0.5h22.2C65,23.4,65,23.6,65,23.8v4.5l-8.4,6.3c-0.7,0.5-0.8,1.4-0.3,2.1 c0.3,0.4,0.7,0.6,1.2,0.6h17.7c0.8,0,1.5-0.7,1.5-1.5c0-0.5-0.2-0.9-0.6-1.2L68,28.2v-4.5c0-0.2,0-0.3-0.1-0.5h12.6 c0.2,0,0.3,0,0.5-0.1v33.2c-0.2-0.1-0.3-0.1-0.5-0.1H18z M41.5,30.9l4.4,3.4H37C37,34.2,41.5,30.9,41.5,30.9z M66.5,30.9l4.4,3.4 H62L66.5,30.9z M81,10.2v10.1c-0.2-0.1-0.3-0.1-0.5-0.1H18v-10H81z M18,59.2h14v30.5c0,0.2,0,0.3,0.1,0.5H18V59.2z M52.9,90.2 c0.1-0.2,0.1-0.3,0.1-0.5V59.2h27.5c0.2,0,0.3,0,0.5-0.1v31.1H52.9z"></path> <path class="st0" d="M42.5,79.2c0.8,0,1.5-0.7,1.5-1.5v-5c0-0.8-0.7-1.5-1.5-1.5S41,71.9,41,72.8v5C41,78.6,41.7,79.2,42.5,79.2z M24.5,71.2c-0.8,0-1.5,0.7-1.5,1.5v5c0,0.8,0.7,1.5,1.5,1.5s1.5-0.7,1.5-1.5v-5C26,71.9,25.3,71.2,24.5,71.2z"></path> </g> </svg> 