<?xml version="1.0" encoding="UTF-8"?> <svg xmlns="http://www.w3.org/2000/svg" width="1110" height="1251" viewBox="0 0 1110 1251" fill="none"><path fill-rule="evenodd" clip-rule="evenodd" d="M725.354 5.89247L714.329 15.9157L423.303 270.172L418.697 264.901L709.646 10.7129L709.697 10.6669L720.646 0.712891L725.354 5.89247ZM723.373 42.6231L734.534 34.6507L730.466 28.9546L713.627 40.9823L734.053 69.7795L892.662 310.032L918.804 294.302L915.195 288.304L894.806 300.573L739.831 65.8255L723.373 42.6231ZM398.197 282.811L402.803 288.082L342.429 340.828L162.508 531.303H99.7575L50.2023 572.198L38.8091 632.136L8.19734 679.041L19.7289 741.023L115.076 829.382L154.683 960.734L179.343 995.073L173.657 999.156L148.317 963.871L108.923 833.224L13.2709 744.582L0.802423 677.564L32.1907 629.469L43.7974 568.408L97.2422 524.303H159.491L337.571 335.777L398.197 282.811ZM913.889 329.48L933.246 318.336L929.754 312.269L903.947 327.126L1098.73 622.166L489.894 869.286L424.01 1238.63L385.683 1243.2L339.87 1218.6L195.636 1017.76L189.95 1021.84L335.13 1224L384.317 1250.41L429.99 1244.97L496.106 874.319L1109.27 625.439L913.889 329.48Z" fill="#CD2027"></path></svg> 