<?xml version="1.0" encoding="UTF-8"?> <svg xmlns="http://www.w3.org/2000/svg" width="439" height="72" viewBox="0 0 439 72" fill="none"><rect x="1.02734" y="1.69141" width="436.68" height="68.4414" rx="34.2207" stroke="black" stroke-width="2"></rect><g clip-path="url(#clip0_568_50)"><mask id="mask0_568_50" style="mask-type:luminance" maskUnits="userSpaceOnUse" x="14" y="13" width="46" height="46"><path d="M59.1133 13.2695H14.1133V58.2695H59.1133V13.2695Z" fill="white"></path></mask><g mask="url(#mask0_568_50)"><path d="M36.6133 58.2695C49.0333 58.2695 59.1133 48.1895 59.1133 35.7695C59.1133 23.3495 49.0333 13.2695 36.6133 13.2695C24.1933 13.2695 14.1133 23.3495 14.1133 35.7695C14.1133 48.1895 24.1933 58.2695 36.6133 58.2695ZM32.8333 35.5895L31.3933 34.5095C31.0333 34.1495 30.8533 34.1495 30.8533 33.9695C30.8533 33.7895 30.6733 33.6095 30.6733 33.0695V30.9095V30.5495V30.0095C30.6733 28.3895 30.8533 27.3095 31.3933 26.7695C32.1133 26.0495 33.1933 26.0495 35.5333 26.0495H37.5133C39.8533 26.0495 40.9333 26.0495 41.6533 26.7695C42.1933 27.3095 42.3733 28.3895 42.3733 30.0095V30.9095V32.8895C42.3733 33.2495 42.3733 33.6095 42.1933 33.7895C42.0133 33.9695 42.0133 34.1495 41.6533 34.3295L40.2133 35.4095C38.4133 36.8495 37.5133 37.5695 36.4333 37.5695C35.3533 37.5695 34.6333 37.0295 32.8333 35.5895ZM34.6333 29.2895C34.2733 29.2895 33.9133 29.6495 33.9133 30.0095C33.9133 30.3695 34.2733 30.7295 34.6333 30.7295H38.4133C38.7733 30.7295 39.1333 30.3695 39.1333 30.0095C39.1333 29.6495 38.7733 29.2895 38.4133 29.2895H34.6333ZM35.7133 32.1695C35.3533 32.1695 34.9933 32.5295 34.9933 32.8895C34.9933 33.2495 35.3533 33.6095 35.7133 33.6095H37.5133C37.8733 33.6095 38.2333 33.2495 38.2333 32.8895C38.2333 32.5295 37.8733 32.1695 37.5133 32.1695H35.7133ZM38.5933 45.4895H34.8133C31.2133 45.4895 29.4133 45.4895 28.1533 44.4095C27.0733 43.3295 27.0733 41.5295 27.0733 37.7495C27.0733 34.1495 27.0733 32.3495 28.1533 31.0895C28.5133 30.7295 28.8733 30.5495 29.4133 30.3695V30.9095V33.0695C29.4133 33.4295 29.4133 33.9695 29.5933 34.5095C29.7733 35.0495 30.3133 35.4095 30.4933 35.5895L32.1133 36.6695C33.0133 37.3895 33.7333 37.9295 34.2733 38.4695C34.9933 39.0095 35.7133 39.1895 36.6133 39.1895C37.5133 39.1895 38.2333 38.8295 38.9533 38.4695C39.6733 38.1095 40.3933 37.3895 41.1133 36.6695L42.5533 35.4095C42.7333 35.2295 43.2733 34.8695 43.4533 34.3295C43.6333 33.7895 43.6333 33.2495 43.6333 32.8895V32.7095V30.9095V30.3695C44.1733 30.5495 44.5333 30.7295 44.8933 31.0895C45.9733 32.1695 45.9733 33.9695 45.9733 37.7495C45.9733 41.3495 45.9733 43.1495 44.8933 44.4095C43.9933 45.4895 42.1933 45.4895 38.5933 45.4895Z" fill="#361E58"></path></g></g><defs><clipPath id="clip0_568_50"><rect width="45" height="45" fill="white" transform="translate(14.1133 13.2695)"></rect></clipPath></defs></svg> 