<?xml version="1.0" encoding="utf-8"?> <svg xmlns="http://www.w3.org/2000/svg" xmlns:xlink="http://www.w3.org/1999/xlink" version="1.1" id="Слой_1" x="0px" y="0px" viewBox="0 0 640 480" style="enable-background:new 0 0 640 480;" xml:space="preserve"> <g> <path d="M207.5,10.8c1.1,5.4,2.3,10.9,3.4,16.3c2.4,11.8,4.4,23.7,0.7,35.5c-2,6.3-4.8,12.6-8.4,18.1 c-12.5,19.1-20.9,39.7-25.1,62.1c-3.7,19.7-12.1,38-18.9,56.7c-4.9,13.3-11.1,26.4-13.8,40.2c-6.9,34.7-2.5,67.6,19.7,96.6 c4.6,5.9,10.1,10.8,16.3,15c5.3,3.6,7.1,8.6,5.4,14.9c-0.8,3-1.7,6.1-2.4,9.1c-2.8,12-2.4,24.2-1.5,36.3c1.1,14.7,2.7,29.3,4,43.9 c0.1,1.1-0.1,2.2-0.1,3.3c-1,0-2,0-3,0c-1.8-19.8-3.7-39.6-5.2-59.4c-0.8-9.8,1.6-19.4,4.2-28.8c2.4-8.4-0.1-14.7-6.6-20.2 c-21.2-18-32.1-41.3-34.9-68.7c-1.5-14.5-2-29.1,2-43.2c3.3-11.7,7.7-23.1,11.8-34.5c5.5-15.3,11.7-30.5,16.7-46 c4.1-12.7,6.6-25.9,10.1-38.8c3.3-12.3,8.7-24,15.9-34.4c11-16,13.9-32.9,10.2-51.5c-1.3-6.6-2.6-13.1-3.8-19.7c-0.2-1-0.2-2-0.3-3 C205.1,10.8,206.3,10.8,207.5,10.8z"></path> <path d="M194.1,458.9c1.1-15.9,2.4-31.7,3-47.6c0.3-8.6-0.3-17.2-1.1-25.8c-0.9-9.2-0.7-18.2,0.7-27.3c1.4-9-1.5-13.9-10.1-16.9 c-13.1-4.7-21.2-13.5-24.4-27.1c-1.2-4.9-3.6-9.7-5.9-14.3c-3.6-7.1-5.5-14.5-5.6-22.5c-0.1-7.2-1-14.4-0.4-21.5 c1.6-18.6,6-36.6,12.4-54.1c10.6-28.9,20.3-58.1,27.8-88c2.9-11.5,8.9-21,17.7-28.8c2.7-2.4,5.4-4.9,8.2-7.3 c12.5-11,15.8-22.5,9.9-38.1c-3.3-8.7-5.8-17.5-6.2-26.8c0-0.7-0.3-1.4-0.5-2c0.8,0,1.6,0,2.4,0c0.6,9.4,2,18.5,5.9,27.2 c1.7,3.8,2.9,8,3.9,12.1c1.9,7.6,0.2,14.6-5.1,20.4c-3.8,4.1-8.1,7.6-12.1,11.5c-3.3,3.1-6.7,6.2-9.9,9.5 c-5.4,5.6-9.1,12.1-11,19.7c-8.6,33.6-20.2,66.3-31.5,99c-3.3,9.5-5.6,19.5-7.3,29.5c-1.4,8-1.3,16.4-1.6,24.6 c-0.2,6.4-0.5,12.8,0.3,19.1c0.6,5,2.6,9.9,4.4,14.7c2.3,6.4,5.4,12.5,7.4,18.9c3.1,10.1,9,17.2,19.3,20.5 c4.2,1.3,8.4,3.2,12.1,5.5c5,3,6.8,7.5,4.8,12.5c-3.9,9.7-3.6,19.7-2.9,29.7c1.5,20.1,1.3,40.1,0.1,60.2c-0.3,4.6-0.3,9.1-0.4,13.7 C197,458.9,195.6,458.9,194.1,458.9z"></path> <path d="M401.1,458.9c1-7.8,2-15.7,3-23.5c4-30.1,8.7-60,17.9-89c4.4-13.9,8.4-27.9,12.9-41.8c3.8-11.6,5.3-23.2,3.9-35.3 c-1.8-16.2-2.9-32.5-4.9-48.7c-1.7-14.7-4.2-29.2-7.3-43.7c-2.3-10.6-3-21.7-3.4-32.6c-0.5-14.2-1-28.3-3.7-42.4 c-2.1-11-0.9-21.8,2-32.5c3.7-13.8,6.2-27.7,4.5-42.1c-0.7-5.5-1.6-11-2.4-16.5c0.8,0,1.6,0,2.4,0c0.6,4.8,1.2,9.6,1.8,14.4 c1.7,13.4,0.1,26.5-3.3,39.5c-3.1,11.7-5,23.6-3.3,35.8c1.1,8.3,2.4,16.7,3.1,25c0.6,6.2,0.6,12.6,0.7,18.8 c0.1,15.7,3.7,30.9,6.5,46.3c4.3,23.6,7.9,47.4,11.2,71.2c1.9,13.7-1.1,27-5,40.2c-6.9,23.2-14.1,46.3-20.4,69.7 c-6.6,24.9-9.7,50.5-12.7,76.1c-0.4,3.7-0.8,7.5-1.2,11.2C402.7,458.9,401.9,458.9,401.1,458.9z"></path> <path d="M322,458.9c-0.2-18.5-0.4-36.9-0.7-55.4c-0.2-9.8-0.6-19.7-1.1-29.5c-0.8-16.1,0.6-32,4.5-47.7c3.4-14,5.7-28.2,6.8-42.6 c1.4-17.7,3.3-35.4,2-53.1c-0.9-12.7-2-25.5-3.3-38.2c-1.6-15.1-2.1-30.2-1-45.3c1-14.2-0.6-28.1-3-42.1 c-3.3-19.3-2.5-38.6-0.2-57.9c1.5-12.2,2.7-24.4,4-36.6c0.6,0,1.2,0,1.8,0c0.2,15.7-1.2,31.4-3.1,47c-2.1,16.3-1.1,32.6,1,48.8 c1.9,15.4,2.3,30.8,1.5,46.4c-0.8,14.7,0.5,29.6,1.7,44.3c1.9,22,4.3,44,2.5,66.2c-2,23.7-4,47.5-10.1,70.6 c-3.4,13.1-3.4,26.5-3,39.9c0.7,27.1,1,54.1,1.4,81.2c0,1.2,0.2,2.4,0.2,3.6C323.2,458.9,322.6,458.9,322,458.9z"></path> <path d="M446.8,10.8c-1.6,15.8-3.5,31.7-4.7,47.5c-0.5,6,0.3,12.2,1.2,18.2c1.8,11.4,4.3,22.7,6.4,34c2.4,12.8,6.9,24.8,13,36.2 c4.8,8.9,7.4,18.1,6.7,28.3c-1.1,16.1,3,31.6,6.2,47.2c1.3,6.2,2.1,12.6,2.6,19c1.1,13-2.7,24.8-9.6,35.7 c-7.6,11.9-15.2,23.8-19.2,37.5c-2.7,9.2-5,18.6-7.1,28c-3.5,15.8-9.6,30.7-15.3,45.8c-5.8,15.3-11.5,30.8-16.1,46.5 c-2.3,7.7-2.1,16.2-3,24.3c-0.8,0-1.6,0-2.4,0c-0.2-15.7,3.7-30.5,9.4-44.9c6-15.1,12.1-30.1,17.3-45.5 c4.3-12.5,7.9-25.4,10.7-38.3c4.1-18.5,11.3-35.5,21.9-51.1c5.9-8.7,10.6-18,11.3-28.8c0.6-9.7-0.8-19.2-2.7-28.7 c-2.2-11.1-4.4-22.3-6-33.5c-0.7-5.2-0.1-10.5,0-15.8c0.2-8-1.4-15.5-5.4-22.5c-8-14.2-12.9-29.5-15.8-45.5 c-1.4-7.8-3.8-15.3-5.4-23.1c-2.4-11.5-1.1-23,0.2-34.5c1.3-11.2,2.7-22.4,4-33.5c0.1-0.8,0-1.6,0-2.4 C445.6,10.8,446.2,10.8,446.8,10.8z"></path> <path d="M239.8,10.8c0,7.5,0,15,0.1,22.5c0.1,10.8,0.1,21.7,0.5,32.5c0.3,7.6,3.3,14.3,8.5,19.7c9,9.2,13.7,20.1,16.4,32.6 c1.8,8.4,4.9,16.8,8.6,24.6c10.3,21.7,12.9,44.6,11.9,68.2c-0.4,11.1-0.7,22.3-1.2,33.4c-1,20.5-8.5,39.1-17.7,57.1 c-5.5,10.7-12.7,20.1-22.1,27.5c-4.3,3.4-8.8,6.5-13.4,9.5c-12.8,8.3-19.2,20.3-20.1,35.3c-0.9,16-2,32-2.4,48 c-0.1,5.4,1.3,11.1,2.7,16.4c1.9,7,4.6,13.8,7,20.7c-0.8,0-1.6,0-2.4,0c-2.3-7-4.8-14-6.9-21.1c-1.2-4.3-2.6-8.9-2.4-13.4 c0.7-18.6,1.6-37.3,3-55.9c1-13.2,8.1-23.1,18.7-30.7c6.1-4.4,12.5-8.5,18.1-13.4c12.8-11.3,20.3-26.1,26.6-41.7 c6.7-16.5,9.9-33.5,9.8-51.3c-0.1-11.5,0.8-22.9,0.8-34.4c0-18.3-3.5-35.8-11.4-52.4c-4.9-10.3-8.7-20.9-10.7-32.2 c-1.5-8.5-5.6-15.8-11.5-22.1c-6.2-6.7-10.9-14.2-11.8-23.5c-0.5-5-0.5-10.1-0.6-15.2c-0.2-13.7-0.2-27.4-0.3-41 C238.2,10.8,239,10.8,239.8,10.8z"></path> <path d="M415.1,458.9c0.7-7,1.2-14.1,2.2-21.1c3.3-22,11.7-42.5,18.7-63.5c7.1-21.4,13.4-43.1,19.7-64.9 c3.3-11.3,8.9-20.8,17.7-28.4c2.8-2.4,5.5-4.8,8.2-7.2c12-10.5,15.8-22.6,9.9-37.4c-4.5-11.1-6.2-22.4-6.9-34.1 c-0.5-8.7-0.3-17.4-0.7-26.1c-0.2-4.7-0.6-9.5-1.6-14.1c-3.9-18.6-9.2-36.8-17.7-53.8c-7.2-14.4-5.3-29.1-1.8-44 c3.9-16.7,7.1-33.5,10.6-50.3c0.2-1.1,0.2-2.2,0.2-3.3c0.8,0,1.6,0,2.4,0c-1.9,10.6-3.6,21.2-5.8,31.7c-2.3,11-5.3,21.9-7.7,32.8 c-2.4,11.3-1.2,22.3,4.1,32.6c9.1,17.8,14.1,36.9,18.3,56.2c1.1,5.1,1.1,10.5,0.8,15.7c-0.6,13.4,0.9,26.6,2.8,39.7 c0.8,5.7,3.6,11.1,5.4,16.7c1.1,3.4,2.3,6.7,3.1,10.2c1.8,7.4,0.3,14.2-4.8,19.9c-3.5,3.9-7.6,7.3-11.4,10.9 c-3.8,3.6-7.6,7-11.2,10.7c-5.2,5.4-8.8,11.8-10.7,19.2c-8.7,34-20.5,67.1-32,100.2c-3.3,9.5-5.2,19.6-7.2,29.5 c-1,4.9-0.5,10.1-0.8,15.2c-0.1,2.3-0.4,4.6-0.7,7C417.1,458.9,416.1,458.9,415.1,458.9z"></path> <path d="M499.7,10.8c2.4,8.2,3,16.6,2,25c-1.9,15.8-4.1,31.5-6.5,47.3c-2.2,14.4-2.7,28.6,0.3,42.9c1,4.9,0.9,10.1,1.6,15.1 c0.8,5.4,1.5,10.8,3,16.1c2.7,9.6,3.9,19.2,3.9,29.1c0,14.1,0.7,28.2,0.9,42.3c0.1,7.2-0.2,14.4-0.2,21.6c0,3.4,0.2,6.9,0.3,10.3 c0.3,8,3.5,14.9,8.5,21c1.5,1.9,3,3.8,4.7,5.6c4.9,5.5,8.5,11.8,9.8,19c2.8,14.6,8.3,28.2,14.1,41.7c6.5,15,8.6,30.8,8.4,46.9 c-0.2,17-0.8,34.1-1.5,51.1c-0.2,4.4-1.2,8.8-1.8,13.2c-0.8,0-1.6,0-2.4,0c0.9-7.3,2.2-14.6,2.6-22c0.7-13.4,1.1-26.8,1.3-40.1 c0.3-20.5-3.8-40.1-12.8-58.6c-4.2-8.7-7.2-17.8-8.9-27.4c-1.7-9.3-5.8-17.4-12.2-24.4c-6.4-6.9-11.1-14.8-11.7-24.5 c-0.3-4.3-0.3-8.7-0.4-13.1c-0.3-13-0.6-25.9-0.9-38.9c-0.1-6.3-0.7-12.6-0.2-18.9c1.1-13.2-1.3-25.8-5-38.3 c-6.6-21.9-6.7-44.2-3.7-66.6c1.9-14.5,4.6-28.8,6.5-43.3c1.4-10.7,1.2-21.5-1.4-32C498.5,10.8,499.1,10.8,499.7,10.8z"></path> <path d="M220.3,458.9c-4.5-16.1-2.3-32.7-3-49c-0.4-9.3-0.9-18.6-0.7-27.9c0.2-9.2,3.6-17.3,10.2-24.1 c11.5-11.8,22.8-23.9,34.5-35.6c11.2-11.2,17.5-24.8,20.3-40.1c2.1-11.6,3.2-23.5,4.7-35.2c1.6-12.3,3.2-24.5,4.5-36.8 c1.9-18,0.2-35.6-5.4-52.8c-5.6-17.2-10.7-34.7-16.5-51.8c-2.1-6.2-5.5-12-8.6-17.8c-7.3-13.5-11.1-28-12.4-43.2 c-0.9-11.2-1.3-22.5-2-33.7c0.6,0,1.2,0,1.8,0c0.4,8.5,0.5,17,1.3,25.5c1.2,12.3,2.3,24.7,6.7,36.4c1.9,5,4.1,9.9,6.7,14.6 c6,11,10.8,22.4,14.2,34.5c3.6,12.7,7.5,25.3,11.5,37.8c5.7,17.6,6.4,35.6,4.4,53.9c-2,18.5-4.2,37.1-6.5,55.6 c-1.9,14.8-4.7,29.4-13.3,41.9c-4.4,6.5-10,12.2-15.4,18c-9.7,10.5-19.7,20.7-29.6,31.1c-6.3,6.7-9,14.8-9.3,23.8 c-0.2,4.7,0,9.3,0.1,14c0.2,11.1,0.7,22.3,0.7,33.4c0,9.4,0.6,18.6,2.8,27.7C221.5,458.9,220.9,458.9,220.3,458.9z"></path> <path d="M231.3,458.9c-0.8-20.7,3.6-41,5.8-61.4c0.8-7.2,1.3-14.3,2.4-21.5c1.7-11.8,7.4-21.8,14.9-30.8c5-6,9.9-12.1,14.7-18.2 c8.3-10.7,12.4-23.2,15.2-36.1c3.1-14,5.5-28,8.6-42c1.8-8.1,4.1-16.1,6.5-24.1c3.6-11.8,4.4-23.8,1.3-35.7 c-5.2-19.8-10.3-39.6-16.5-59.1c-3.6-11.3-9.5-21.9-14-33c-10.4-25.4-12.4-51.9-9.3-78.9c0.3-2.4,0.6-4.8,1-7.2c0.6,0,1.2,0,1.8,0 c-5,33.9-1.8,66.7,13.6,97.6c9,18,14.4,37.2,19.3,56.6c2.6,10.4,5.3,20.8,7.4,31.3c1.8,9.4,0.5,18.8-2.4,27.9 c-6.5,21-10.3,42.5-14.5,64c-3.8,19.9-11.9,37.6-26.1,52.3c-2,2.1-3.7,4.6-5.7,6.7c-10.3,11.3-13.7,25.2-15.2,39.9 c-1.5,14.7-3.7,29.4-5.2,44.1c-0.9,9.2-1.1,18.4-1.6,27.6C232.5,458.9,231.9,458.9,231.3,458.9z"></path> <path d="M158.2,458.9c-0.7-6.2-1.4-12.5-1.9-18.7c-1.8-19.6-1.3-39.1,3.2-58.4c3.5-14.7,0.6-28.3-6.2-41.4 c-1.8-3.4-3.4-6.9-5.3-10.2c-9.7-16.6-13.7-34.4-12.2-53.7c2.6-34.2,6.4-68.3,14.8-101.6c5.5-21.9,12.1-43.6,19.2-65 c7.1-21.2,7.7-42.4,3.6-64.2c-1.9-10.2-3.1-20.6-4.5-31c-0.2-1.3-0.1-2.6-0.1-3.9c0.6,0,1.2,0,1.8,0c1.1,8.5,2.3,17.1,3.4,25.6 c1.5,11.2,3.4,22.3,4.3,33.5c1.1,14.2-2.9,27.7-6.8,41.2c-6.8,22.9-14.2,45.7-19.8,68.9c-7.3,30.5-11.5,61.6-13.5,92.9 c-0.7,10.7-1.6,21.5,1.6,31.7c2.7,8.6,6.8,16.9,10.4,25.2c3.6,8.3,7.7,16.3,10.8,24.7c3.1,8.2,3.2,16.9,1.1,25.5 c-5.4,22.1-5.4,44.4-2.8,66.8c0.5,4,1,8,1.6,12.1C159.8,458.9,159,458.9,158.2,458.9z"></path> <path d="M370.7,10.8c0,10.3-0.3,20.7,0.1,31c0.9,20.7,2,41.3,3.3,62c0.7,11.2,0.1,22.3-3.1,33.1c-2.9,9.6-4,19.4-4.7,29.3 c-0.9,13.4-3.1,26.8-3.9,40.2c-0.9,15.3-0.8,30.6-1.3,45.9c-0.5,16.3-1.3,32.6-1.6,48.9c-0.1,8.8,0.2,17.7,1.1,26.4 c1.1,11,0.9,21.9-0.3,32.8c-2,17.8-0.9,35.5,1.1,53.1c1.6,14.1,3.4,28.2,5.1,42.3c0.1,1,0.1,2,0.1,3c-0.4,0-0.8,0-1.2,0 c-2.1-16.8-4.6-33.5-6.3-50.4c-1.9-19.6-2.7-39.2-2.1-58.9c0.4-11.6,0.2-23.3,0.4-35c0.2-9.6,0.9-19.2,1.1-28.9 c0.3-16.9,0.8-33.9,0.5-50.8c-0.3-17.2,2.1-34.2,4.1-51.2c0.8-6.4,1.2-12.9,1.4-19.4c0.3-8.9,1.6-17.6,4.3-26 c4.6-14.4,3.9-29,3-43.7c-1.7-25.9-3.6-51.8-2.7-77.8c0.1-2,0.3-4,0.5-6C369.9,10.8,370.3,10.8,370.7,10.8z"></path> <path d="M388.9,458.9c1-8.2,1.8-16.5,3-24.7c1.9-12.6,1.9-25.3,0.5-37.9c-1.6-14.7-1.5-29.3-1.2-44.1c0.4-22,0-44,0.2-66 c0.1-6.8,1.2-13.5,1.7-20.3c0.9-11.6,2-23.2,2.3-34.9c0.9-30.9,1-61.9-0.1-92.8c-0.4-11.3,0.8-22.7,0.8-34c0-7.7-0.5-15.4-1.4-23 c-3.1-23.5-3.2-46.9,0.4-70.3c0.4,0,0.8,0,1.2,0c-0.6,7.3-1.2,14.5-1.8,21.8c-1.1,13.6-0.5,27.2,1.2,40.7c3.3,25,3,50.2,2.7,75.3 c-0.4,31.9-0.7,63.9-1.6,95.8c-0.3,12.2-2.2,24.4-2.9,36.7c-0.6,11.6-0.7,23.3-0.8,35c-0.1,16.3-0.3,32.7,0,49 c0.2,11.4,0.7,22.9,1.7,34.3c1.3,13.7,0.5,27.1-1.9,40.6c-1.1,6.3-1.5,12.6-2.2,19C390.2,458.9,389.5,458.9,388.9,458.9z"></path> <path d="M103.4,357.8c0.3-4.4,0.7-8.8,0.9-13.3c1.7-32.1,5.2-64.1,3.9-96.3c-3.3-78.1-2.2-156.3-2.1-234.5c0-1-0.2-2-0.3-3 c0.6,0,1.2,0,1.8,0c0,4.1-0.1,8.1-0.1,12.2c0.1,50,0,100,0.3,150c0.1,20,0.9,39.9,1.7,59.9c0.3,7.3,1.5,14.5,2.3,21.8 c1.8,17,0.1,33.8-2.5,50.6c-1.3,8.3-1.6,16.7-2.1,25.1c-0.7,10.8-1.9,21.6-1.8,32.5c0.2,22.9,1,45.8,1.6,68.7 c0.2,9.1,0.4,18.2,0.6,27.4c-0.6,0-1.2,0-1.8,0c-0.5-16.9-1-33.8-1.6-50.7c-0.2-5-0.6-10.1-0.9-15.1 C103.4,381.4,103.4,369.6,103.4,357.8z"></path> <path d="M316.5,10.8c2.4,33.1,4.8,66.2,7.1,99.2c2.4,33.8,3.6,67.7,2.5,101.6c-0.2,7.5-1.5,15-1.7,22.4c-0.2,9.4,0.4,18.9,0.2,28.3 c-0.2,15.1-3.6,29.8-6.6,44.5c-4,19.8-8.5,39.5-9.7,59.7c-1.1,19.3-1.3,38.7-1.5,58.1c-0.2,11.4,0.3,22.9,0.5,34.3 c-0.6,0-1.2,0-1.8,0c-1.4-33-2-66,1.5-98.8c2.2-20.4,6.6-40.6,10.4-60.8c3.4-18,5.9-35.9,4.8-54.4c-0.6-9.5,1.4-19.2,1.5-28.8 c0.2-22.3,0.7-44.7-0.4-66.9c-1.8-37.8-4.8-75.5-7.3-113.2c-0.5-8.4-1-16.8-1.4-25.2C315.3,10.8,315.9,10.8,316.5,10.8z"></path> <path d="M373.1,458.9c0-6.8,0.1-13.6-0.2-20.4c-2.2-53.4-2.1-106.9-2.1-160.3c0-35.9-0.1-71.8,0.5-107.7c0.2-11,1.6-22.1,3.9-32.8 c3.9-18.2,4.3-36.4,2.3-54.7c-2.5-22.9-3.6-45.9-1.3-68.9c0.1-1.1,0.3-2.2,0.5-3.3c0.6,0,1.2,0,1.8,0c-0.4,6.3-0.8,12.5-1.2,18.8 c-1.2,16.2,0.1,32.3,2,48.3c2.6,21.8,2,43.3-3.1,64.7c-3.4,14.2-3.2,28.8-3.3,43.3c-0.3,39.9-0.3,79.7-0.3,119.6 c0,26.4,0.2,52.7,0.6,79.1c0.2,14.7,0.6,29.4,1.4,44.1c0.5,10.1,1.8,20.2,2.8,30.3C376,458.9,374.5,458.9,373.1,458.9z"></path> <path d="M117.4,458.9c-2.9-20.1-5.8-40.2-5.2-60.6c0.3-10.7,1.6-21.4,2.8-32.1c3.1-27.9,4.5-55.9,3.5-83.9 c-1.3-35.9-3.3-71.7-5.3-107.6c-1.3-24-3.4-48-1.9-72.1c1-15.7,3.2-31.3,4.1-47c0.9-14,0.8-28,1.2-41.9c0-1,0-2,0.1-3 c0.6,0,1.2,0,1.8,0C118.4,28,118,45.3,118,62.5c0,12.6-2.8,24.9-4.3,37.3c-2,16-1.3,32-0.3,48c1.5,25,3.5,50,4.6,75 c1.2,28.4,2,56.8,2.2,85.1c0.2,23.5-2,47-5,70.4c-1.8,14.4-0.8,28.8,0.6,43.1c1.2,12.5,2.6,25,4,37.5 C119.1,458.9,118.2,458.9,117.4,458.9z"></path> <path d="M263.5,458.9c-3.1-11.6-1.8-23.3-0.7-35c1-10.8-0.6-21.5-2.1-32.1c-2.5-17.2-0.6-33.4,9.3-48.1c2.3-3.4,4.3-7.1,6.4-10.7 c1.8-3.2,3.5-6.4,5.4-9.5c6.5-10.5,9.1-22.3,10.8-34.3c2.3-16.2,6.1-32.1,11.8-47.4c7.9-21.4,7.1-42.4,1.1-64.1 c-9-32.7-17-65.7-25-98.7c-3.7-15.2-4.2-30.9-4.1-46.6c0-7.2,0.4-14.4,0.6-21.6c0.4,0,0.8,0,1.2,0c0.3,15.2,0.2,30.4,1,45.6 c0.9,17.3,5.3,34,9.6,50.7c6.3,24.7,12.7,49.5,19.6,74.1c5.6,19.8,5.5,39.1-1.3,58.6c-6.2,17.7-10.8,35.9-13.2,54.6 c-1.7,13.4-7.1,25.3-14,36.7c-2.7,4.5-5.2,9.2-8.1,13.6c-9.1,13.7-11.6,28.8-9.1,44.8c2.4,15.6,3.1,31.2,1.3,47 c-0.8,7.6-0.6,15.2,2.1,22.5C265.2,458.9,264.3,458.9,263.5,458.9z"></path> <path d="M149.1,458.9c-1.3-7.8-2.4-15.6-4.1-23.3c-2.6-12-6.2-23.8-8.1-35.8c-1.8-11.1-2-22.4-2.7-33.6 c-1.3-22.1-2.4-44.2-3.6-66.2c-1-18.8-0.3-37.5,3.4-56c1.2-5.7,1.5-11.7,1.4-17.6c-0.2-20.4,2.1-40.5,4.8-60.6 c5.1-38.5,7.4-77.1,6-115.9c-0.4-13-0.2-26-0.2-38.9c0.6,0,1.2,0,1.8,0c0.1,14.5,0.2,29,0.4,43.5c0.4,25.8,0.6,51.5-2.3,77.2 c-2,18.4-4.3,36.9-6.2,55.3c-1,9.3-1.9,18.6-1.9,27.9c-0.1,13-0.9,25.9-3.3,38.7c-3.3,17.3-2.5,34.8-1.7,52.2 c1.2,25.6,2.6,51.3,3.9,76.9c0.6,12.8,3,25.4,6.4,37.7c3.5,12.7,6.9,25.4,7.7,38.7C150.3,458.9,149.7,458.9,149.1,458.9z"></path> <path d="M298.8,10.8c-0.4,20-0.6,40,2.2,59.8c3.7,26.6,8.3,53.1,12,79.7c2.4,17.9,4.1,35.9,5.7,53.8c1.1,12.8-0.2,25.5-3.3,38 c-4.2,17-7.9,34.1-12.3,51.1c-2,7.7-5.1,15.2-8,22.6c-6,15.5-7.4,31.5-6.2,47.9c1.3,16.8,3.1,33.6,2,50.4 c-0.8,10.9-2.5,21.7-3.7,32.6c-0.5,4-0.7,8.1-1,12.1c-0.6,0-1.2,0-1.8,0c1.3-11.8,2.5-23.6,3.8-35.4c1.8-16.2,1.6-32.5-0.4-48.6 c-2.9-23.4-1.1-46,8.6-67.9c6.5-14.6,9.2-30.4,12.3-46c1.6-8.1,4.1-16.1,5.9-24.2c3-13.1,2.6-26.4,1.7-39.7 c-2.4-35.5-8.4-70.4-14.1-105.5C298,66.6,296.3,41.4,297,16c0-1.7,0-3.4,0-5.2C297.6,10.8,298.2,10.8,298.8,10.8z"></path> <path d="M409.6,10.8c1,7.5,1.7,15.1,3.1,22.5c2.5,14,2.4,28,2.3,42.2c-0.3,34.8-0.2,69.6-0.6,104.4c-0.4,41.4-0.7,82.8-2,124.1 c-0.6,20-3.5,40-5.6,59.9c-2,18.5-4.1,37-4.4,55.8c-0.3,13.1-2.8,26.1-4.4,39.2c-0.6,0-1.2,0-1.8,0c1.1-7.4,2.2-14.8,3.2-22.3 c0.5-4.2,1.2-8.5,1.1-12.7c-0.5-22,2.4-43.7,5-65.4c3.7-29.6,6.1-59.3,6.1-89.2c0-53.4,0.3-106.9,0.6-160.3 c0.1-12.2,0.3-24.3,0.9-36.5c0.8-16.3-1-32.4-3.7-48.4c-0.7-4.4-1.1-8.9-1.6-13.3C408.4,10.8,409,10.8,409.6,10.8z"></path> <path d="M128.4,458.9c0.9-22-2.1-43.7-3.8-65.5c-0.7-8.6-0.6-17.2-0.6-25.8c-0.1-13.6-0.1-27.2,0-40.7c0.1-23.2-0.1-46.4,0.4-69.7 c0.2-7.9,2.2-15.8,3.4-23.8c1.8-11.3,0.6-22.6-0.1-34c-0.8-12.1-1.1-24.3-1.3-36.4c-0.2-11.9,0.3-23.7,0-35.6 c-0.5-21.4-0.4-42.8,2.7-64.1c2-13.7,1.3-27.5,0.3-41.3c-0.3-3.7-0.6-7.5-1-11.2c0.6,0,1.2,0,1.8,0c0.6,14,1.7,27.9,1.6,41.9 c-0.1,9.1-2.3,18.1-2.7,27.2c-0.7,14.2-0.7,28.4-0.9,42.6c-0.2,15.7-0.4,31.4-0.2,47.2c0.2,10.9,0.6,21.9,1.8,32.8 c1.4,13.2,0.9,26.3-1.5,39.4c-2.4,12.7-3.2,25.6-3,38.5c0.3,21.4,0.9,42.8,1.1,64.2c0.1,11.2-1,22.5-0.6,33.7 c0.5,14,2.3,27.9,3.1,41.8c0.7,12.9,0.9,25.9,1.3,38.9C129.6,458.9,129,458.9,128.4,458.9z"></path> <path d="M335.4,458.9c0.4-17,0.7-34.1,1.2-51.1c0.6-19.7-0.7-39.3-3.1-58.9c-0.9-7.6-0.3-15.6,1-23.3c2.6-15.4,3.8-30.9,4.8-46.5 c1.4-21.3,3.6-42.6,6.6-63.8c5.8-40.4,8.8-80.8,7.7-121.6c-0.7-26.7,1-53.3,5.4-79.7c0.2-1.1,0.4-2.2,0.6-3.3c0.6,0,1.2,0,1.8,0 c-1.4,10.8-3.1,21.7-4.2,32.5c-2.7,27.1-1.8,54.3-1.7,81.5c0.1,27.5-3,54.6-6.7,81.8c-3.8,28.3-7.8,56.6-8.4,85.3 c-0.2,9.8-2,19.6-3.7,29.2c-2.1,11.5-2.8,22.9-0.9,34.5c2.8,17,3,34.1,2.5,51.3c-0.5,17.3-1,34.7-1.4,52 C336.6,458.9,336,458.9,335.4,458.9z"></path> <path d="M527.7,458.9c4.7-17.2,7.6-34.6,8.9-52.4c1.2-16.1-2.1-31.5-7.3-46.5c-5.1-14.8-8-30.1-10.9-45.5 c-1.5-8.2-3.5-16.4-8.3-23.3c-2.3-3.4-5.5-6.6-8.9-8.8c-5.6-3.7-11.6-3-17,1.2c-4.9,3.8-8.1,9-10.9,14.5c-5.3,10.6-8,22.1-9.9,33.7 c-3.5,21.2-9.8,41.5-18.9,61c-7.3,15.5-12.8,31.8-15.1,48.9c-0.8,5.7-0.7,11.5-1,17.2c-0.8,0-1.6,0-2.4,0 c0.2-21.7,6.3-42,14.4-61.8c4.8-11.6,10.3-23,14-34.9c3.9-12.8,5.9-26.3,8.8-39.4c2.2-10.5,5.2-20.7,10.8-29.8 c2.5-4,5.6-7.8,9.1-10.8c6-5.1,13.1-5.1,19.8-1c5.7,3.6,9.8,8.7,12,14.9c2.5,7.3,4.3,15,6.4,22.4c2.9,10.1,5.9,20.2,8.9,30.3 c7.6,24.8,10.7,49.9,6.3,75.6c-2,11.6-4.6,23-6.9,34.5C529,458.9,528.3,458.9,527.7,458.9z"></path> <path d="M386.5,10.8c-0.6,19.2-1.3,38.5-1.7,57.7c-0.1,4.7,1,9.5,1,14.2c0,8.1,0,16.2-0.6,24.3c-1.3,18.6-0.7,37.1,0.2,55.6 c1.2,24.3,2.9,48.6,3.4,72.9c0.6,29.6,0.9,59.2-0.1,88.8c-0.7,21.9-3.3,43.9-5.6,65.7c-1.8,16.6-1.6,33.2,0,49.8 c0.6,6.3,1.4,12.7,2.1,19c-0.6,0-1.2,0-1.8,0c-0.8-7.8-1.6-15.5-2.4-23.3c-1.9-19.3-0.6-38.5,1.9-57.6c4.3-33.9,5.9-67.9,5.2-102 c-0.9-38.3-2.7-76.6-4.4-114.9c-1-21.6-1.3-43.1,1.3-64.7c0.6-5.1-0.3-10.3-0.5-15.5c-0.2-6.1-0.7-12.1-0.5-18.2 c0.3-17.3,0.9-34.7,1.3-52C385.7,10.8,386.1,10.8,386.5,10.8z"></path> <path d="M551.5,357.2c-2.6-8.3-5.5-16.5-7.7-24.9c-4.9-18.3-11.2-35.9-20.5-52.5c-7.3-13-9.6-27.6-10.7-42.1 c-1.2-15.2-2-30.4-1.8-45.6c0.5-31.2-1.8-62.2-4.1-93.3c-1-13.2-2.8-26.5-0.9-39.8c1.1-7.9,3.1-15.7,4.9-23.5 c1.9-8.2,3-16.4,1.8-24.7c0.4,0,0.8,0,1.2,0c1.8,8.5,0.6,16.8-1.6,25c-3.8,14.7-6.3,29.5-5,44.8c1.6,19.5,3.2,39,4.2,58.5 c0.9,17.3,1.2,34.6,1.1,52c-0.1,22.9,0.3,45.7,5.6,68c1.7,7.1,4,14.4,7.5,20.8c8.8,16.1,15.1,33.1,19.8,50.8 c1.7,6.3,4,12.5,6.1,18.7C551.5,352,551.5,354.6,551.5,357.2z"></path> <path d="M525.3,10.8c-1.9,20.5-2.2,40.9,2.8,61.1c3,12.2,6.1,24.4,10.2,36.3c6,17.2,6,34.3,1.3,51.7c-3.8,14.1-7.7,28.2-10.5,42.4 c-6.9,34.9-2.3,68.6,12.2,101c3.3,7.5,6.8,14.8,10.3,22.3c0,2.2,0,4.5,0,6.7c-7.3-19.2-17.2-37.4-22.4-57.4 c-6.3-24.1-6.7-48.4-2.1-72.7c3-15.4,7.5-30.5,11.3-45.7c3.8-15.2,4.1-30.2-1.1-45.2c-5.9-17.1-10.8-34.4-13.3-52.3 c-2.3-16.1-1.9-32.1,0.3-48.2C524.5,10.8,524.9,10.8,525.3,10.8z"></path> <path d="M510.7,458.9c0.8-4.7,1.7-9.3,2.4-14c1.8-11.7,0.8-23.5,0.6-35.2c-0.2-13.9,0.1-27.8,0.4-41.7c0.2-8.5,0.3-16.9-2.2-25 c-1.1-3.6-2.8-7.2-5-10.3c-4.2-6-10.4-7.4-17.2-4.8c-5.8,2.2-10.1,6.3-12.9,11.6c-4,7.5-7.8,15.2-10.7,23.1 c-5.7,15.8-11.3,31.7-15.8,47.9c-3.9,14-6.3,28.5-9.2,42.8c-0.4,1.9-0.3,3.8-0.4,5.8c-0.6,0-1.2,0-1.8,0c0.6-5.2,0.9-10.5,1.8-15.6 c5.9-31.5,15.6-61.9,27.5-91.5c2.5-6.2,6.1-12.1,10.2-17.5c2.5-3.3,6.4-6,10.2-7.8c8.1-3.9,15.9-1.3,21,6.2 c3.9,5.8,5.6,12.4,5.9,19.3c0.4,8.3,0,16.6,0,24.9c0.1,13.7-0.1,27.4,0.4,41.1c0.4,13.4-0.1,26.6-3.2,39.6c-0.1,0.5-0.1,1-0.1,1.5 C511.9,458.9,511.3,458.9,510.7,458.9z"></path> <path d="M544.8,10.8c-0.5,2.8-0.6,5.7-1.5,8.3c-4.7,13.2-4.5,26.4-1.3,39.8c7.3,31.1,8.4,62.5,4.9,94.3c-3.4,31-4.6,62.1-3.3,93.2 c0.6,15.5,3.8,30.5,7.4,45.5c0.1,0.3,0.3,0.5,0.5,0.7c0,2.8,0,5.7,0,8.5c-1.8-7.2-3.9-14.4-5.5-21.7c-5.4-24.3-4.9-48.9-4.7-73.6 c0.2-22.8,3-45.3,5-67.9c2.1-24.3-0.1-48.4-4.8-72.3c-1.5-7.3-2.7-14.8-3.5-22.2c-0.8-7,0.3-13.9,2.6-20.7c1.3-3.9,2-8,2.9-12.1 C544,10.8,544.4,10.8,544.8,10.8z"></path> <path d="M495.5,458.9c0.1-0.4,0.1-0.8,0.3-1.2c7-12.9,7.9-26.7,5.6-40.8c-2-12.7-2.9-25.4-2.1-38.2c0.3-4.8-0.3-9.5-2.7-13.8 c-3.4-6.2-9-7.9-14.7-3.8c-3.5,2.5-6.6,5.8-9.2,9.2c-7.7,10.1-11.8,22.1-16.2,33.9c-5.5,14.8-8.5,30.2-9.6,46 c-0.2,2.9,0.3,5.8,0.5,8.8c-0.8,0-1.6,0-2.4,0c-0.2-22.2,4.3-43.5,13.1-63.8c3.7-8.6,8.1-17,12.6-25.2c1.8-3.3,4.7-6.1,7.5-8.7 c8.6-7.6,21.2-3.3,23.3,8.1c0.8,4.6,0.8,9.5,0.5,14.2c-0.7,11.7-0.5,23.3,1.5,34.9c2.3,13.5,0.7,26.5-5.1,38.9 c-0.2,0.5-0.3,1.1-0.4,1.7C497.1,458.9,496.3,458.9,495.5,458.9z"></path> <path d="M452.2,458.9c-2.1-8.6-1.3-17.1,0.5-25.6c2.7-12.9,4.7-25.9,9.8-38.2c2.6-6.1,5.7-11.9,10.5-16.6c1.9-1.9,4.2-3.6,6.6-4.7 c4.9-2.1,9.3-0.4,11.7,4.4c2.9,5.8,3.1,12.1,2.6,18.4c-0.6,8.3-1.2,16.5-1.6,24.8c-0.1,3.1,0.4,6.3,0.9,9.4 c1.5,9.5,1.9,18.9-2.1,28.1c-1.2,0-2.4,0-3.7,0c5-7.6,5.4-16,4.2-24.6c-1.7-12.4-1.3-24.8,0.3-37.2c0.6-4.7,0.2-9.8-1-14.4 c-2.3-8.9-8.8-10.8-15.3-4.3c-4.2,4.2-7.6,9.4-10.4,14.8c-5,9.6-6.9,20.3-8.9,30.8c-1.3,7.2-2.5,14.4-3.4,21.6 c-0.6,4.6,0,9.1,2.1,13.3C454.3,458.9,453.3,458.9,452.2,458.9z"></path> <path d="M477.2,458.9c5.8-4,7.5-10,7.3-16.5c-0.1-5.4-1.1-10.7-1.4-16c-0.2-4.5-0.2-9.1,0-13.7c0.1-3.4,0.5-6.7-1.7-9.7 c-1.9-2.6-4-3-6.5-0.9c-1.1,1-2.2,2.2-2.9,3.5c-6.1,12-10.6,24.6-10.7,38.3c0,3.2,0.5,6.5,1.6,9.5c0.8,2.1,2.9,3.7,4.5,5.5 c-1.8,0-3.7,0-5.5,0c-6.2-18.6,0.4-35.5,7.4-52.2c0.8-1.9,2.1-3.7,3.6-5.3c3.3-3.6,8.1-3.1,10.3,1.3c1,2.1,1.4,4.6,1.6,7 c0.4,8.5,0.3,17,1,25.5c0.7,8.4,0.4,16.4-4.4,23.7C480,458.9,478.6,458.9,477.2,458.9z"></path> <path d="M549.7,458.9c0.6-4.9,1.2-9.7,1.8-14.6c0,4.4-0.2,8.7,0.1,13.1C551.7,459.3,550.7,458.9,549.7,458.9z"></path> <path d="M273.9,198.7c-1.5,33.9-6.3,62.6-18.4,89.6c-5.1,11.4-11.3,22.2-20.2,31.3c-5,5-10.6,9.1-17.5,11.1 c-10.3,2.9-19.3,0-27.4-6.3c-11.7-9.1-18.9-21.5-24.3-35.1c-6.9-17.2-5.7-34.8-2.1-52.4c3.2-15.5,8.4-30.3,15.2-44.5 c8.4-17.3,13.5-35.6,16.8-54.4c2.3-13.4,5-26.8,11.7-38.8c2.4-4.3,5.3-8.5,8.8-11.9c7.2-7,16-7,23.9-0.8c6,4.7,9.5,11.1,11.6,18.2 c2.6,9,4.6,18.3,7.1,27.4c3.5,12.7,7.8,25.2,10.7,38C272.1,180.9,273,192.1,273.9,198.7z M271.7,209.8c0.5-18.4-2.5-31.2-6.6-43.8 c-4-12.4-7.5-25-9.8-37.9c-1.4-8.3-3.6-16.4-5.9-24.5c-1.7-5.7-4.6-10.8-9.1-14.9c-7.4-6.6-16.2-6.7-23,0.5 c-3.7,3.9-6.7,8.7-9.2,13.5c-5.4,10.4-7.7,21.7-9.7,33.1c-3.4,19.9-8.7,39.1-17.5,57.4c-6.1,12.6-10.9,25.8-14,39.4 c-4.3,18.5-6.1,37,0.9,55.4c5.1,13.3,12,25.6,23.3,34.6c12.1,9.7,25.5,9.5,37.6,0c8.3-6.5,14.2-15,19.3-24.1 C264.3,269.4,269.7,237.5,271.7,209.8z"></path> <path d="M482,436c-0.6,4.6-0.8,7.8-1.6,10.8c-1,4.3-3.8,6.4-7.4,6.3c-3.8-0.1-7.5-2.9-7.9-6.7c-1.1-8.7,0.7-17,5.8-24.2 c2.5-3.6,6-3.3,7.6,0.9C480.3,427.7,481.1,432.6,482,436z M480.4,437.1c-0.1,0-0.2,0-0.4,0c0-0.9,0.2-1.9,0-2.7 c-0.8-3.6-1.4-7.3-2.7-10.8c-1-2.5-3.4-2.8-4.8-0.9c-5.2,7.2-7.2,15.3-5.6,24.1c0.5,2.8,3.8,4.8,6.4,4.6c3-0.2,4.9-2,5.6-4.8 C479.7,443.5,480,440.3,480.4,437.1z"></path> <path d="M250.7,199.8c0,14.1,0.8,28.2-0.2,42.3c-1.3,18.8-6,36.8-16,53.1c-2.1,3.5-5,6.7-8.1,9.4c-9.2,7.9-20.7,8.7-30.2,1.3 c-16.6-12.8-25.1-29.9-21.7-51c3.7-23.1,9.1-45.9,17.4-67.9c4.3-11.4,7.9-23,12.7-34.2c2.5-5.9,6.5-11.1,10.3-16.4 c1.6-2.2,4.2-3.8,6.6-5.2c9.7-5.3,19.2-2.4,24.5,7.4c3.1,5.8,4.7,12.2,4.7,18.7c0.1,12.8-0.3,25.5-0.5,38.3c0,1.4,0,2.8,0,4.3 C250.3,199.8,250.5,199.8,250.7,199.8z M248,184.7c0.3,0,0.6,0,0.9,0c0-9.1,0.3-18.3-0.1-27.4c-0.3-7.5-2.1-14.7-6.7-20.8 c-4.6-6.1-10.9-8-17.7-4.7c-3.6,1.8-7.4,4.3-9.7,7.5c-4.1,5.9-8,12.3-10.6,19c-11.4,29-20.5,58.7-26.6,89.3 c-2.1,10.4-3.1,20.7,0.9,30.9c3.8,9.9,9.2,18.8,17.8,25.3c8.9,6.7,18.2,6.8,27.3,0.4c6.1-4.3,10.2-10.1,13.2-16.8 c9.1-20,13.5-40.9,12.5-63C248.6,211.3,248.4,198,248,184.7z"></path> <path d="M235.9,192.8c0.9,10.2,1.5,20.4,2.8,30.5c1.9,14.6-0.2,28.3-7.2,41.2c-3.6,6.7-7.1,13.5-11.5,19.7 c-8.2,11.7-19.4,12.2-29.1,1.7c-9.2-10-12.1-21.9-10.9-35.4c2.1-23.1,8.9-44.7,19-65.3c3.1-6.3,7.6-11.9,11.5-17.8 c0.7-1,1.7-1.7,2.6-2.5c9-7.6,21.8-3,23.4,8.7c0.8,6.3,0.1,12.7,0.1,19.1C236.5,192.8,236.2,192.8,235.9,192.8z M233.3,191.7 c0.3,0,0.7,0,1-0.1c0-4.2,0.3-8.3-0.1-12.5c-0.3-3.1-0.8-6.3-2-9.1c-3.4-8-10.3-9.9-16.8-4.2c-4.1,3.5-7.9,7.7-10.6,12.4 c-13.3,23.6-21.5,49-22.8,76.2c-0.6,11.8,4.3,22,12.7,30.3c6.8,6.7,14.2,6.6,20.8-0.3c3.1-3.3,5.6-7.2,8.2-10.9 c11.6-16.3,16.1-34.1,12.6-54.1C234.7,210.3,234.3,201,233.3,191.7z"></path> <path d="M229.6,195.6c-0.8,7-1.4,11.7-2,16.5c-1.3,9.9,0.3,19.6,1.6,29.4c2,15.1-4.2,27.7-16.8,33.7c-9.8,4.6-18.9,1.3-23.6-8.5 c-3-6.4-3.4-13.3-2.5-20c2.3-15.5,5-31,10.5-45.8c2.4-6.4,5.5-12.5,10.3-17.5c2.1-2.2,4.5-4.2,7.1-5.6c5-2.5,10.2-0.8,12.1,4.4 C228.2,187.1,228.9,192.4,229.6,195.6z M227.8,196c-0.3-2.6-0.4-5.3-1-7.8c-1-3.9-2.2-8.2-6.8-9.4c-4.3-1.2-7.9,1.3-10.3,4.4 c-3.7,4.7-7.5,9.7-9.8,15.2c-3.2,7.7-5.4,15.9-7.1,24.1c-2.1,9.9-3.5,19.9-4.6,30c-0.6,6.2,2,11.7,6,16.4 c5.1,5.9,11.5,7.2,18.2,3.2c10.5-6.3,15.3-15.8,14.8-28c-0.5-10.4-1.2-20.8-1.3-31.2C225.9,207.3,227.2,201.6,227.8,196z"></path> <path d="M219.2,220.9c0.6,7.6,1.3,15.1,1.9,22.7c0.5,7.2-0.7,14-5.4,19.7c-5.7,7-14.3,7.7-18.2-0.7c-1.8-3.9-2.6-8.6-2.9-12.9 c-0.5-9.9,2-19.3,5.4-28.5c1.7-4.5,3.6-9.1,5.8-13.3c2.2-4.2,5.3-5.8,8.1-5c3.4,0.9,5.6,4.1,5.7,8.8c0.1,3,0,6.1,0,9.1 C219.6,220.9,219.4,220.9,219.2,220.9z M196.3,246.5c0.1,2.3,0.1,4.2,0.3,6.1c0.7,4.6,2.4,8.6,7.3,10.3c6.3,2.1,12.7-1.4,14.4-8.8 c1.1-4.6,1-9.6,0.9-14.4c-0.2-7.1-0.9-14.1-1.3-21.2c-0.1-2.2,0.4-4.5,0.3-6.7c-0.2-3-1.1-6.1-4.4-7c-3.4-0.8-5.2,1.9-6.5,4.4 C201.1,221,197,233.4,196.3,246.5z"></path> <path d="M217,240.5c-0.6,4-0.8,7.1-1.5,10.2c-1,4.2-3.5,6.2-7.1,6.2c-3.7,0-7.2-2.3-8-6.1c-0.5-2.3-0.8-4.9-0.3-7.2 c1.3-5.4,2.8-10.7,4.8-15.8c0.7-1.8,3.5-3.9,5.1-3.8c1.6,0.2,3.7,2.7,4.4,4.6C215.7,232.6,216.3,237,217,240.5z M215.6,239.4 c-0.8-3.3-1.5-7.7-3-11.8c-1.2-3.3-3.7-3.3-5.7-0.4c-4.4,6.7-6,14.1-5.3,22c0.3,3.3,3.2,5.7,6.4,5.8c3.1,0.1,5.4-1.6,6.1-5.1 C214.8,246.9,215,243.8,215.6,239.4z"></path> </g> </svg> 