<?xml version="1.0" encoding="UTF-8"?> <svg xmlns="http://www.w3.org/2000/svg" width="736" height="101" viewBox="0 0 736 101" fill="none"><rect x="2.25391" y="1.91602" width="732.018" height="97" rx="48.5" fill="#FFFBEF" stroke="#DBB391" stroke-width="3"></rect><circle cx="50.7534" cy="50.416" r="36.5" fill="#9777A2" stroke="black"></circle><path d="M37.2516 25.416L33.7808 44.116C33.2741 46.853 39.9658 48.1314 39.8547 50.916L38.987 73.016C38.8551 76.416 42.4578 76.416 42.4578 76.416C42.4578 76.416 46.0605 76.416 45.9286 73.016L45.0609 50.916C44.9533 48.1348 51.0758 46.904 51.1348 44.116L47.664 25.416H45.9286L46.7963 39.016L44.1932 40.716L43.3255 25.416H41.5901L40.7224 40.716L38.1193 39.016L38.987 25.416H37.2516ZM66.7534 25.416C64.1989 25.416 59.9368 27.643 58.2326 30.9818C56.8096 33.4842 56.341 39.0772 56.341 42.416V50.916C56.341 53.6972 60.1242 54.316 61.5472 54.316L59.8118 73.016C59.4994 76.4024 63.2826 76.416 63.2826 76.416C63.2826 76.416 66.7534 76.416 66.7534 73.016V25.416Z" stroke="white"></path><path d="M111.081 33.098C110.735 33.098 110.466 33.0027 110.275 32.812C110.102 32.604 110.015 32.3267 110.015 31.98V15.678C110.015 15.314 110.111 15.0453 110.301 14.872C110.492 14.6813 110.761 14.586 111.107 14.586H117.269C119.228 14.586 120.736 15.0713 121.793 16.042C122.851 16.9953 123.379 18.3473 123.379 20.098C123.379 21.8313 122.851 23.1833 121.793 24.154C120.736 25.1247 119.228 25.61 117.269 25.61H112.147V31.98C112.147 32.3267 112.061 32.604 111.887 32.812C111.714 33.0027 111.445 33.098 111.081 33.098ZM112.147 23.816H117.009C118.413 23.816 119.471 23.504 120.181 22.88C120.909 22.2387 121.273 21.3113 121.273 20.098C121.273 18.8673 120.909 17.94 120.181 17.316C119.471 16.6747 118.413 16.354 117.009 16.354H112.147V23.816ZM127.639 32.916C127.257 32.916 126.963 32.8207 126.755 32.63C126.564 32.422 126.469 32.1273 126.469 31.746V15.756C126.469 15.3747 126.564 15.0887 126.755 14.898C126.963 14.69 127.257 14.586 127.639 14.586H137.311C137.605 14.586 137.831 14.664 137.987 14.82C138.143 14.976 138.221 15.1927 138.221 15.47C138.221 15.7647 138.143 15.99 137.987 16.146C137.831 16.302 137.605 16.38 137.311 16.38H128.549V22.724H136.765C137.059 22.724 137.285 22.802 137.441 22.958C137.597 23.0967 137.675 23.3133 137.675 23.608C137.675 23.9027 137.597 24.128 137.441 24.284C137.285 24.44 137.059 24.518 136.765 24.518H128.549V31.122H137.311C137.605 31.122 137.831 31.2 137.987 31.356C138.143 31.512 138.221 31.7287 138.221 32.006C138.221 32.3007 138.143 32.526 137.987 32.682C137.831 32.838 137.605 32.916 137.311 32.916H127.639ZM149.481 33.15C147.678 33.15 146.135 32.7687 144.853 32.006C143.57 31.2433 142.582 30.16 141.889 28.756C141.213 27.352 140.875 25.6793 140.875 23.738C140.875 22.282 141.065 20.982 141.447 19.838C141.845 18.6767 142.409 17.6973 143.137 16.9C143.882 16.0853 144.792 15.4613 145.867 15.028C146.941 14.5773 148.146 14.352 149.481 14.352C150.555 14.352 151.578 14.508 152.549 14.82C153.519 15.1147 154.36 15.5567 155.071 16.146C155.296 16.3193 155.443 16.5187 155.513 16.744C155.599 16.952 155.608 17.16 155.539 17.368C155.487 17.5587 155.383 17.7233 155.227 17.862C155.088 17.9833 154.915 18.044 154.707 18.044C154.499 18.044 154.265 17.9573 154.005 17.784C153.381 17.2813 152.696 16.9087 151.951 16.666C151.205 16.4233 150.399 16.302 149.533 16.302C148.163 16.302 147.002 16.5967 146.049 17.186C145.095 17.758 144.376 18.5987 143.891 19.708C143.405 20.8173 143.163 22.1607 143.163 23.738C143.163 25.3153 143.405 26.6673 143.891 27.794C144.376 28.9033 145.095 29.7527 146.049 30.342C147.002 30.914 148.163 31.2 149.533 31.2C150.382 31.2 151.188 31.0787 151.951 30.836C152.713 30.576 153.415 30.1947 154.057 29.692C154.317 29.5187 154.551 29.4407 154.759 29.458C154.967 29.458 155.14 29.5187 155.279 29.64C155.417 29.7613 155.513 29.9173 155.565 30.108C155.634 30.2987 155.634 30.498 155.565 30.706C155.513 30.914 155.383 31.096 155.175 31.252C154.447 31.876 153.589 32.3527 152.601 32.682C151.63 32.994 150.59 33.15 149.481 33.15ZM164.355 33.098C164.025 33.098 163.765 33.0027 163.575 32.812C163.384 32.604 163.289 32.3267 163.289 31.98V16.432H157.439C157.127 16.432 156.884 16.3453 156.711 16.172C156.537 15.9987 156.451 15.7733 156.451 15.496C156.451 15.2013 156.537 14.976 156.711 14.82C156.884 14.664 157.127 14.586 157.439 14.586H171.297C171.609 14.586 171.851 14.664 172.025 14.82C172.198 14.976 172.285 15.2013 172.285 15.496C172.285 15.7907 172.198 16.0247 172.025 16.198C171.851 16.354 171.609 16.432 171.297 16.432H165.447V31.98C165.447 32.3267 165.351 32.604 165.161 32.812C164.987 33.0027 164.719 33.098 164.355 33.098ZM181.036 33.15C179.337 33.15 177.855 32.7687 176.59 32.006C175.342 31.226 174.371 30.134 173.678 28.73C173.002 27.326 172.664 25.662 172.664 23.738C172.664 22.282 172.854 20.982 173.236 19.838C173.634 18.6767 174.198 17.6973 174.926 16.9C175.654 16.0853 176.529 15.4613 177.552 15.028C178.592 14.5773 179.753 14.352 181.036 14.352C182.769 14.352 184.26 14.7333 185.508 15.496C186.773 16.2587 187.744 17.342 188.42 18.746C189.113 20.1327 189.46 21.788 189.46 23.712C189.46 25.168 189.26 26.4767 188.862 27.638C188.463 28.7993 187.9 29.7873 187.172 30.602C186.444 31.4167 185.56 32.0493 184.52 32.5C183.497 32.9333 182.336 33.15 181.036 33.15ZM181.036 31.252C182.353 31.252 183.462 30.9573 184.364 30.368C185.282 29.7787 185.984 28.9207 186.47 27.794C186.955 26.6673 187.198 25.3153 187.198 23.738C187.198 21.3633 186.66 19.526 185.586 18.226C184.528 16.9087 183.012 16.25 181.036 16.25C179.753 16.25 178.652 16.5447 177.734 17.134C176.832 17.7233 176.139 18.5813 175.654 19.708C175.168 20.8173 174.926 22.1607 174.926 23.738C174.926 26.0953 175.463 27.9413 176.538 29.276C177.612 30.5933 179.112 31.252 181.036 31.252ZM194.337 33.098C193.991 33.098 193.722 33.0027 193.531 32.812C193.358 32.604 193.271 32.3267 193.271 31.98V15.678C193.271 15.314 193.367 15.0453 193.557 14.872C193.748 14.6813 194.017 14.586 194.363 14.586H200.525C202.484 14.586 203.992 15.0713 205.049 16.042C206.107 16.9953 206.635 18.3473 206.635 20.098C206.635 21.8313 206.107 23.1833 205.049 24.154C203.992 25.1247 202.484 25.61 200.525 25.61H195.403V31.98C195.403 32.3267 195.317 32.604 195.143 32.812C194.97 33.0027 194.701 33.098 194.337 33.098ZM195.403 23.816H200.265C201.669 23.816 202.727 23.504 203.437 22.88C204.165 22.2387 204.529 21.3113 204.529 20.098C204.529 18.8673 204.165 17.94 203.437 17.316C202.727 16.6747 201.669 16.354 200.265 16.354H195.403V23.816ZM207.379 33.098C207.102 33.098 206.877 33.0373 206.703 32.916C206.547 32.7773 206.452 32.604 206.417 32.396C206.4 32.1707 206.452 31.9193 206.573 31.642L213.723 15.366C213.879 15.0193 214.061 14.7767 214.269 14.638C214.495 14.482 214.737 14.404 214.997 14.404C215.257 14.404 215.491 14.482 215.699 14.638C215.925 14.7767 216.107 15.0193 216.245 15.366L223.421 31.642C223.56 31.9193 223.612 32.1707 223.577 32.396C223.56 32.6213 223.473 32.7947 223.317 32.916C223.161 33.0373 222.945 33.098 222.667 33.098C222.355 33.098 222.104 33.02 221.913 32.864C221.723 32.6907 221.567 32.448 221.445 32.136L219.521 27.69L220.561 28.236H209.381L210.447 27.69L208.549 32.136C208.393 32.4653 208.229 32.708 208.055 32.864C207.882 33.02 207.657 33.098 207.379 33.098ZM214.971 17.082L210.785 26.936L210.161 26.442H219.781L219.209 26.936L215.023 17.082H214.971ZM227.777 33.098C227.43 33.098 227.161 33.0027 226.971 32.812C226.797 32.604 226.711 32.3267 226.711 31.98V15.522C226.711 15.158 226.797 14.8807 226.971 14.69C227.161 14.4993 227.43 14.404 227.777 14.404C228.123 14.404 228.383 14.4993 228.557 14.69C228.747 14.8807 228.843 15.158 228.843 15.522V22.698H239.841V15.522C239.841 15.158 239.927 14.8807 240.101 14.69C240.291 14.4993 240.56 14.404 240.907 14.404C241.253 14.404 241.513 14.4993 241.687 14.69C241.877 14.8807 241.973 15.158 241.973 15.522V31.98C241.973 32.3267 241.877 32.604 241.687 32.812C241.513 33.0027 241.253 33.098 240.907 33.098C240.56 33.098 240.291 33.0027 240.101 32.812C239.927 32.604 239.841 32.3267 239.841 31.98V24.544H228.843V31.98C228.843 32.3267 228.756 32.604 228.583 32.812C228.409 33.0027 228.141 33.098 227.777 33.098ZM247.556 33.098C247.209 33.098 246.941 33.0027 246.75 32.812C246.577 32.604 246.49 32.3267 246.49 31.98V15.522C246.49 15.158 246.577 14.8807 246.75 14.69C246.941 14.4993 247.209 14.404 247.556 14.404C247.903 14.404 248.163 14.4993 248.336 14.69C248.527 14.8807 248.622 15.158 248.622 15.522V22.698H259.62V15.522C259.62 15.158 259.707 14.8807 259.88 14.69C260.071 14.4993 260.339 14.404 260.686 14.404C261.033 14.404 261.293 14.4993 261.466 14.69C261.657 14.8807 261.752 15.158 261.752 15.522V31.98C261.752 32.3267 261.657 32.604 261.466 32.812C261.293 33.0027 261.033 33.098 260.686 33.098C260.339 33.098 260.071 33.0027 259.88 32.812C259.707 32.604 259.62 32.3267 259.62 31.98V24.544H248.622V31.98C248.622 32.3267 248.535 32.604 248.362 32.812C248.189 33.0027 247.92 33.098 247.556 33.098ZM267.439 32.916C267.058 32.916 266.763 32.8207 266.555 32.63C266.365 32.422 266.269 32.1273 266.269 31.746V15.522C266.269 15.158 266.356 14.8807 266.529 14.69C266.72 14.4993 266.989 14.404 267.335 14.404C267.682 14.404 267.942 14.4993 268.115 14.69C268.306 14.8807 268.401 15.158 268.401 15.522V22.672H273.133C274.416 22.672 275.508 22.8627 276.409 23.244C277.311 23.6253 277.995 24.1973 278.463 24.96C278.949 25.7053 279.191 26.6413 279.191 27.768C279.191 29.4493 278.663 30.732 277.605 31.616C276.548 32.4827 275.057 32.916 273.133 32.916H267.439ZM268.401 31.122H272.925C274.312 31.122 275.352 30.8533 276.045 30.316C276.739 29.7613 277.085 28.912 277.085 27.768C277.085 26.6413 276.739 25.8093 276.045 25.272C275.352 24.7347 274.312 24.466 272.925 24.466H268.401V31.122ZM282.883 33.098C282.537 33.098 282.268 33.0027 282.077 32.812C281.904 32.604 281.817 32.3267 281.817 31.98V15.522C281.817 15.158 281.904 14.8807 282.077 14.69C282.268 14.4993 282.537 14.404 282.883 14.404C283.23 14.404 283.49 14.4993 283.663 14.69C283.854 14.8807 283.949 15.158 283.949 15.522V31.98C283.949 32.3267 283.863 32.604 283.689 32.812C283.516 33.0027 283.247 33.098 282.883 33.098ZM289.371 33.098C289.232 33.098 289.102 33.072 288.981 33.02C288.877 32.9853 288.781 32.916 288.695 32.812C288.625 32.708 288.565 32.5953 288.513 32.474C288.478 32.3353 288.461 32.1707 288.461 31.98V15.444C288.461 15.1147 288.547 14.8633 288.721 14.69C288.894 14.4993 289.145 14.404 289.475 14.404C289.787 14.404 290.029 14.4993 290.203 14.69C290.376 14.8633 290.463 15.1147 290.463 15.444V30.16H289.891L301.175 15.054C301.331 14.8113 301.487 14.6467 301.643 14.56C301.816 14.456 302.033 14.404 302.293 14.404C302.483 14.404 302.639 14.4473 302.761 14.534C302.882 14.6033 302.977 14.716 303.047 14.872C303.116 15.028 303.151 15.2187 303.151 15.444V32.032C303.151 32.3787 303.064 32.6473 302.891 32.838C302.735 33.0113 302.501 33.098 302.189 33.098C301.859 33.098 301.608 33.0113 301.435 32.838C301.261 32.6473 301.175 32.3787 301.175 32.032V17.342H301.747L290.463 32.448C290.289 32.6733 290.133 32.838 289.995 32.942C289.856 33.046 289.648 33.098 289.371 33.098ZM295.819 13.156C294.779 13.156 293.843 12.922 293.011 12.454C292.179 11.986 291.546 11.2753 291.113 10.322C291.009 10.062 290.991 9.85401 291.061 9.69801C291.13 9.52468 291.26 9.40335 291.451 9.33401C291.641 9.26468 291.815 9.26468 291.971 9.33401C292.127 9.40335 292.257 9.55068 292.361 9.77601C292.69 10.4347 293.141 10.9373 293.713 11.284C294.285 11.6307 294.987 11.804 295.819 11.804C296.668 11.804 297.37 11.6307 297.925 11.284C298.497 10.9373 298.947 10.4347 299.277 9.77601C299.398 9.55068 299.528 9.40335 299.667 9.33401C299.823 9.26468 299.996 9.26468 300.187 9.33401C300.395 9.40335 300.525 9.52468 300.577 9.69801C300.646 9.85401 300.62 10.062 300.499 10.322C300.048 11.2753 299.407 11.986 298.575 12.454C297.743 12.922 296.824 13.156 295.819 13.156ZM315.476 33.098C315.129 33.098 314.861 33.0027 314.67 32.812C314.497 32.604 314.41 32.3267 314.41 31.98V15.496C314.41 15.132 314.497 14.8633 314.67 14.69C314.861 14.4993 315.129 14.404 315.476 14.404C315.823 14.404 316.083 14.4993 316.256 14.69C316.447 14.8633 316.542 15.132 316.542 15.496V22.75H320.13L319.506 23.166L324.914 14.976C325.07 14.7333 325.252 14.5773 325.46 14.508C325.668 14.4213 325.876 14.404 326.084 14.456C326.292 14.4907 326.465 14.586 326.604 14.742C326.743 14.8807 326.821 15.0627 326.838 15.288C326.873 15.496 326.812 15.7213 326.656 15.964L321.586 23.53L320.78 22.828C321.837 22.9493 322.739 23.322 323.484 23.946C324.229 24.57 324.879 25.4367 325.434 26.546L327.904 31.59C328.043 31.8673 328.086 32.1187 328.034 32.344C327.982 32.552 327.869 32.7167 327.696 32.838C327.523 32.9593 327.323 33.0287 327.098 33.046C326.89 33.0807 326.682 33.046 326.474 32.942C326.266 32.838 326.101 32.656 325.98 32.396L323.666 27.534C323.146 26.4767 322.557 25.7227 321.898 25.272C321.257 24.8213 320.459 24.596 319.506 24.596H316.542V31.98C316.542 32.3267 316.455 32.604 316.282 32.812C316.109 33.0027 315.84 33.098 315.476 33.098ZM338.61 33.15C336.911 33.15 335.429 32.7687 334.164 32.006C332.916 31.226 331.945 30.134 331.252 28.73C330.576 27.326 330.238 25.662 330.238 23.738C330.238 22.282 330.429 20.982 330.81 19.838C331.209 18.6767 331.772 17.6973 332.5 16.9C333.228 16.0853 334.103 15.4613 335.126 15.028C336.166 14.5773 337.327 14.352 338.61 14.352C340.343 14.352 341.834 14.7333 343.082 15.496C344.347 16.2587 345.318 17.342 345.994 18.746C346.687 20.1327 347.034 21.788 347.034 23.712C347.034 25.168 346.835 26.4767 346.436 27.638C346.037 28.7993 345.474 29.7873 344.746 30.602C344.018 31.4167 343.134 32.0493 342.094 32.5C341.071 32.9333 339.91 33.15 338.61 33.15ZM338.61 31.252C339.927 31.252 341.037 30.9573 341.938 30.368C342.857 29.7787 343.559 28.9207 344.044 27.794C344.529 26.6673 344.772 25.3153 344.772 23.738C344.772 21.3633 344.235 19.526 343.16 18.226C342.103 16.9087 340.586 16.25 338.61 16.25C337.327 16.25 336.227 16.5447 335.308 17.134C334.407 17.7233 333.713 18.5813 333.228 19.708C332.743 20.8173 332.5 22.1607 332.5 23.738C332.5 26.0953 333.037 27.9413 334.112 29.276C335.187 30.5933 336.686 31.252 338.61 31.252ZM351.885 33.098C351.573 33.098 351.331 33.0113 351.157 32.838C350.984 32.6473 350.897 32.3873 350.897 32.058V15.444C350.897 15.0973 350.984 14.8373 351.157 14.664C351.331 14.4907 351.573 14.404 351.885 14.404C352.163 14.404 352.379 14.4647 352.535 14.586C352.709 14.69 352.865 14.872 353.003 15.132L360.127 28.548H359.347L366.445 15.132C366.584 14.872 366.731 14.69 366.887 14.586C367.043 14.4647 367.269 14.404 367.563 14.404C367.858 14.404 368.092 14.4907 368.265 14.664C368.439 14.8373 368.525 15.0973 368.525 15.444V32.058C368.525 32.3873 368.439 32.6473 368.265 32.838C368.109 33.0113 367.867 33.098 367.537 33.098C367.225 33.098 366.983 33.0113 366.809 32.838C366.636 32.6473 366.549 32.3873 366.549 32.058V17.446H367.173L360.673 29.64C360.552 29.8653 360.422 30.03 360.283 30.134C360.162 30.2207 359.98 30.264 359.737 30.264C359.495 30.264 359.304 30.212 359.165 30.108C359.027 30.004 358.905 29.848 358.801 29.64L352.223 17.42H352.847V32.058C352.847 32.3873 352.761 32.6473 352.587 32.838C352.431 33.0113 352.197 33.098 351.885 33.098ZM374.154 33.098C373.807 33.098 373.538 33.0027 373.348 32.812C373.174 32.604 373.088 32.3267 373.088 31.98V15.756C373.088 15.3747 373.183 15.0887 373.374 14.898C373.582 14.69 373.876 14.586 374.258 14.586H387.05C387.414 14.586 387.7 14.69 387.908 14.898C388.116 15.0887 388.22 15.3747 388.22 15.756V31.98C388.22 32.3267 388.124 32.604 387.934 32.812C387.743 33.0027 387.483 33.098 387.154 33.098C386.807 33.098 386.538 33.0027 386.348 32.812C386.157 32.604 386.062 32.3267 386.062 31.98V16.432H375.22V31.98C375.22 32.3267 375.133 32.604 374.96 32.812C374.786 33.0027 374.518 33.098 374.154 33.098ZM406.391 33.098C406.044 33.098 405.775 33.0027 405.585 32.812C405.394 32.604 405.299 32.3267 405.299 31.98V16.432H397.291V20.644C397.291 22.3947 397.187 23.9373 396.979 25.272C396.788 26.5893 396.493 27.742 396.095 28.73C395.713 29.7007 395.228 30.524 394.639 31.2C394.067 31.876 393.399 32.448 392.637 32.916C392.359 33.1067 392.091 33.176 391.831 33.124C391.571 33.072 391.354 32.9073 391.181 32.63C391.007 32.3527 390.955 32.0927 391.025 31.85C391.111 31.6073 391.293 31.3993 391.571 31.226C392.16 30.862 392.68 30.4027 393.131 29.848C393.599 29.2933 393.989 28.6 394.301 27.768C394.63 26.9187 394.881 25.87 395.055 24.622C395.228 23.374 395.315 21.866 395.315 20.098V15.756C395.315 15.3747 395.41 15.0887 395.601 14.898C395.809 14.69 396.103 14.586 396.485 14.586H406.287C406.651 14.586 406.937 14.69 407.145 14.898C407.353 15.0887 407.457 15.3747 407.457 15.756V31.98C407.457 32.3267 407.361 32.604 407.171 32.812C406.98 33.0027 406.72 33.098 406.391 33.098ZM413.156 32.916C412.775 32.916 412.48 32.8207 412.272 32.63C412.081 32.422 411.986 32.1273 411.986 31.746V15.756C411.986 15.3747 412.081 15.0887 412.272 14.898C412.48 14.69 412.775 14.586 413.156 14.586H422.828C423.123 14.586 423.348 14.664 423.504 14.82C423.66 14.976 423.738 15.1927 423.738 15.47C423.738 15.7647 423.66 15.99 423.504 16.146C423.348 16.302 423.123 16.38 422.828 16.38H414.066V22.724H422.282C422.577 22.724 422.802 22.802 422.958 22.958C423.114 23.0967 423.192 23.3133 423.192 23.608C423.192 23.9027 423.114 24.128 422.958 24.284C422.802 24.44 422.577 24.518 422.282 24.518H414.066V31.122H422.828C423.123 31.122 423.348 31.2 423.504 31.356C423.66 31.512 423.738 31.7287 423.738 32.006C423.738 32.3007 423.66 32.526 423.504 32.682C423.348 32.838 423.123 32.916 422.828 32.916H413.156ZM428.21 33.098C427.864 33.098 427.595 33.0027 427.404 32.812C427.231 32.604 427.144 32.3267 427.144 31.98V15.496C427.144 15.132 427.231 14.8633 427.404 14.69C427.595 14.4993 427.864 14.404 428.21 14.404C428.557 14.404 428.817 14.4993 428.99 14.69C429.181 14.8633 429.276 15.132 429.276 15.496V22.75H432.864L432.24 23.166L437.648 14.976C437.804 14.7333 437.986 14.5773 438.194 14.508C438.402 14.4213 438.61 14.404 438.818 14.456C439.026 14.4907 439.2 14.586 439.338 14.742C439.477 14.8807 439.555 15.0627 439.572 15.288C439.607 15.496 439.546 15.7213 439.39 15.964L434.32 23.53L433.514 22.828C434.572 22.9493 435.473 23.322 436.218 23.946C436.964 24.57 437.614 25.4367 438.168 26.546L440.638 31.59C440.777 31.8673 440.82 32.1187 440.768 32.344C440.716 32.552 440.604 32.7167 440.43 32.838C440.257 32.9593 440.058 33.0287 439.832 33.046C439.624 33.0807 439.416 33.046 439.208 32.942C439 32.838 438.836 32.656 438.714 32.396L436.4 27.534C435.88 26.4767 435.291 25.7227 434.632 25.272C433.991 24.8213 433.194 24.596 432.24 24.596H429.276V31.98C429.276 32.3267 429.19 32.604 429.016 32.812C428.843 33.0027 428.574 33.098 428.21 33.098ZM451.578 33.15C449.776 33.15 448.233 32.7687 446.95 32.006C445.668 31.2433 444.68 30.16 443.986 28.756C443.31 27.352 442.972 25.6793 442.972 23.738C442.972 22.282 443.163 20.982 443.544 19.838C443.943 18.6767 444.506 17.6973 445.234 16.9C445.98 16.0853 446.89 15.4613 447.964 15.028C449.039 14.5773 450.244 14.352 451.578 14.352C452.653 14.352 453.676 14.508 454.646 14.82C455.617 15.1147 456.458 15.5567 457.168 16.146C457.394 16.3193 457.541 16.5187 457.61 16.744C457.697 16.952 457.706 17.16 457.636 17.368C457.584 17.5587 457.48 17.7233 457.324 17.862C457.186 17.9833 457.012 18.044 456.804 18.044C456.596 18.044 456.362 17.9573 456.102 17.784C455.478 17.2813 454.794 16.9087 454.048 16.666C453.303 16.4233 452.497 16.302 451.63 16.302C450.261 16.302 449.1 16.5967 448.146 17.186C447.193 17.758 446.474 18.5987 445.988 19.708C445.503 20.8173 445.26 22.1607 445.26 23.738C445.26 25.3153 445.503 26.6673 445.988 27.794C446.474 28.9033 447.193 29.7527 448.146 30.342C449.1 30.914 450.261 31.2 451.63 31.2C452.48 31.2 453.286 31.0787 454.048 30.836C454.811 30.576 455.513 30.1947 456.154 29.692C456.414 29.5187 456.648 29.4407 456.856 29.458C457.064 29.458 457.238 29.5187 457.376 29.64C457.515 29.7613 457.61 29.9173 457.662 30.108C457.732 30.2987 457.732 30.498 457.662 30.706C457.61 30.914 457.48 31.096 457.272 31.252C456.544 31.876 455.686 32.3527 454.698 32.682C453.728 32.994 452.688 33.15 451.578 33.15ZM461.87 33.02C461.437 33.02 461.09 32.89 460.83 32.63C460.57 32.3527 460.44 32.006 460.44 31.59C460.44 31.174 460.57 30.836 460.83 30.576C461.09 30.2987 461.437 30.16 461.87 30.16C462.304 30.16 462.642 30.2987 462.884 30.576C463.144 30.836 463.274 31.174 463.274 31.59C463.274 32.006 463.144 32.3527 462.884 32.63C462.642 32.89 462.304 33.02 461.87 33.02ZM461.87 23.036C461.437 23.036 461.09 22.8973 460.83 22.62C460.57 22.3427 460.44 22.0047 460.44 21.606C460.44 21.1727 460.57 20.826 460.83 20.566C461.09 20.306 461.437 20.176 461.87 20.176C462.304 20.176 462.642 20.306 462.884 20.566C463.144 20.826 463.274 21.1727 463.274 21.606C463.274 22.0047 463.144 22.3427 462.884 22.62C462.642 22.8973 462.304 23.036 461.87 23.036ZM110.825 63.084C110.505 63.084 110.257 62.996 110.081 62.82C109.921 62.628 109.841 62.372 109.841 62.052V47.004C109.841 46.668 109.929 46.42 110.105 46.26C110.281 46.084 110.529 45.996 110.849 45.996H116.537C118.345 45.996 119.737 46.444 120.713 47.34C121.689 48.22 122.177 49.468 122.177 51.084C122.177 52.684 121.689 53.932 120.713 54.828C119.737 55.724 118.345 56.172 116.537 56.172H111.809V62.052C111.809 62.372 111.729 62.628 111.569 62.82C111.409 62.996 111.161 63.084 110.825 63.084ZM111.809 54.516H116.297C117.593 54.516 118.569 54.228 119.225 53.652C119.897 53.06 120.233 52.204 120.233 51.084C120.233 49.948 119.897 49.092 119.225 48.516C118.569 47.924 117.593 47.628 116.297 47.628H111.809V54.516ZM129.766 63.132C128.534 63.132 127.47 62.892 126.574 62.412C125.694 61.916 125.006 61.22 124.51 60.324C124.03 59.428 123.79 58.356 123.79 57.108C123.79 55.892 124.03 54.836 124.51 53.94C124.99 53.028 125.646 52.316 126.478 51.804C127.326 51.292 128.302 51.036 129.406 51.036C130.19 51.036 130.894 51.172 131.518 51.444C132.142 51.7 132.67 52.076 133.102 52.572C133.55 53.068 133.886 53.668 134.11 54.372C134.35 55.076 134.47 55.868 134.47 56.748C134.47 57.004 134.398 57.196 134.254 57.324C134.11 57.436 133.902 57.492 133.63 57.492H125.278V56.22H133.174L132.79 56.532C132.79 55.668 132.662 54.94 132.406 54.348C132.15 53.74 131.774 53.276 131.278 52.956C130.798 52.636 130.19 52.476 129.454 52.476C128.638 52.476 127.942 52.668 127.366 53.052C126.806 53.42 126.382 53.94 126.094 54.612C125.806 55.268 125.662 56.036 125.662 56.916V57.06C125.662 58.532 126.014 59.652 126.718 60.42C127.438 61.188 128.454 61.572 129.766 61.572C130.31 61.572 130.846 61.5 131.374 61.356C131.918 61.212 132.446 60.972 132.958 60.636C133.182 60.492 133.382 60.428 133.558 60.444C133.75 60.444 133.902 60.5 134.014 60.612C134.126 60.708 134.198 60.836 134.23 60.996C134.278 61.14 134.262 61.3 134.182 61.476C134.118 61.652 133.982 61.804 133.774 61.932C133.246 62.316 132.622 62.612 131.902 62.82C131.182 63.028 130.47 63.132 129.766 63.132ZM142.462 63.132C141.294 63.132 140.286 62.876 139.438 62.364C138.59 61.852 137.934 61.14 137.47 60.228C137.022 59.3 136.798 58.228 136.798 57.012C136.798 56.084 136.926 55.252 137.182 54.516C137.438 53.78 137.814 53.156 138.31 52.644C138.806 52.116 139.398 51.716 140.086 51.444C140.79 51.172 141.582 51.036 142.462 51.036C143.038 51.036 143.638 51.124 144.262 51.3C144.886 51.476 145.454 51.78 145.966 52.212C146.126 52.324 146.23 52.46 146.278 52.62C146.326 52.78 146.326 52.94 146.278 53.1C146.23 53.244 146.15 53.372 146.038 53.484C145.926 53.58 145.782 53.636 145.606 53.652C145.446 53.668 145.278 53.612 145.102 53.484C144.686 53.164 144.262 52.94 143.83 52.812C143.398 52.684 142.982 52.62 142.582 52.62C141.958 52.62 141.414 52.724 140.95 52.932C140.486 53.124 140.094 53.404 139.774 53.772C139.454 54.14 139.206 54.596 139.03 55.14C138.87 55.684 138.79 56.316 138.79 57.036C138.79 58.428 139.118 59.532 139.774 60.348C140.43 61.148 141.366 61.548 142.582 61.548C142.982 61.548 143.39 61.484 143.806 61.356C144.238 61.228 144.67 61.004 145.102 60.684C145.278 60.556 145.446 60.5 145.606 60.516C145.766 60.532 145.902 60.596 146.014 60.708C146.126 60.804 146.198 60.932 146.23 61.092C146.278 61.252 146.278 61.412 146.23 61.572C146.182 61.716 146.078 61.844 145.918 61.956C145.406 62.372 144.846 62.676 144.238 62.868C143.63 63.044 143.038 63.132 142.462 63.132ZM152.245 63.084C151.941 63.084 151.701 62.996 151.525 62.82C151.349 62.644 151.261 62.396 151.261 62.076V52.812H147.757C147.149 52.812 146.845 52.548 146.845 52.02C146.845 51.78 146.925 51.596 147.085 51.468C147.245 51.324 147.469 51.252 147.757 51.252H156.733C157.325 51.252 157.621 51.508 157.621 52.02C157.621 52.276 157.541 52.476 157.381 52.62C157.237 52.748 157.021 52.812 156.733 52.812H153.205V62.076C153.205 62.396 153.125 62.644 152.965 62.82C152.821 62.996 152.581 63.084 152.245 63.084ZM164.327 63.132C163.191 63.132 162.207 62.884 161.375 62.388C160.543 61.892 159.895 61.196 159.431 60.3C158.983 59.388 158.759 58.316 158.759 57.084C158.759 56.156 158.887 55.324 159.143 54.588C159.399 53.836 159.775 53.196 160.271 52.668C160.767 52.14 161.351 51.74 162.023 51.468C162.711 51.18 163.479 51.036 164.327 51.036C165.463 51.036 166.447 51.284 167.279 51.78C168.111 52.276 168.751 52.98 169.199 53.892C169.663 54.788 169.895 55.852 169.895 57.084C169.895 58.012 169.767 58.844 169.511 59.58C169.255 60.316 168.879 60.956 168.383 61.5C167.887 62.028 167.295 62.436 166.607 62.724C165.935 62.996 165.175 63.132 164.327 63.132ZM164.327 61.572C165.047 61.572 165.679 61.396 166.223 61.044C166.767 60.692 167.183 60.18 167.471 59.508C167.775 58.836 167.927 58.028 167.927 57.084C167.927 55.628 167.599 54.516 166.943 53.748C166.303 52.98 165.431 52.596 164.327 52.596C163.591 52.596 162.951 52.772 162.407 53.124C161.879 53.46 161.463 53.964 161.159 54.636C160.871 55.292 160.727 56.108 160.727 57.084C160.727 58.524 161.055 59.636 161.711 60.42C162.367 61.188 163.239 61.572 164.327 61.572ZM174.032 67.404C173.712 67.404 173.472 67.316 173.312 67.14C173.152 66.98 173.072 66.74 173.072 66.42V52.068C173.072 51.748 173.152 51.508 173.312 51.348C173.472 51.172 173.704 51.084 174.008 51.084C174.328 51.084 174.568 51.172 174.728 51.348C174.904 51.508 174.992 51.748 174.992 52.068V54.348L174.728 54.012C174.984 53.1 175.488 52.38 176.24 51.852C177.008 51.308 177.92 51.036 178.976 51.036C180.016 51.036 180.92 51.284 181.688 51.78C182.472 52.26 183.072 52.956 183.488 53.868C183.92 54.764 184.136 55.836 184.136 57.084C184.136 58.316 183.92 59.388 183.488 60.3C183.072 61.196 182.48 61.892 181.712 62.388C180.944 62.884 180.032 63.132 178.976 63.132C177.92 63.132 177.016 62.868 176.264 62.34C175.512 61.796 175 61.076 174.728 60.18H175.016V66.42C175.016 66.74 174.928 66.98 174.752 67.14C174.576 67.316 174.336 67.404 174.032 67.404ZM178.568 61.572C179.304 61.572 179.936 61.396 180.464 61.044C181.008 60.692 181.424 60.18 181.712 59.508C182.016 58.836 182.168 58.028 182.168 57.084C182.168 55.628 181.84 54.516 181.184 53.748C180.544 52.98 179.672 52.596 178.568 52.596C177.848 52.596 177.216 52.772 176.672 53.124C176.128 53.46 175.704 53.964 175.4 54.636C175.112 55.292 174.968 56.108 174.968 57.084C174.968 58.524 175.296 59.636 175.952 60.42C176.608 61.188 177.48 61.572 178.568 61.572ZM190.971 63.132C190.171 63.132 189.451 62.98 188.811 62.676C188.187 62.356 187.691 61.924 187.323 61.38C186.955 60.836 186.771 60.228 186.771 59.556C186.771 58.692 186.987 58.012 187.419 57.516C187.867 57.02 188.595 56.668 189.603 56.46C190.627 56.252 192.019 56.148 193.779 56.148H194.859V57.42H193.803C192.507 57.42 191.483 57.484 190.731 57.612C189.995 57.724 189.475 57.924 189.171 58.212C188.883 58.5 188.739 58.908 188.739 59.436C188.739 60.092 188.963 60.628 189.411 61.044C189.875 61.46 190.499 61.668 191.283 61.668C191.923 61.668 192.483 61.516 192.963 61.212C193.459 60.908 193.843 60.492 194.115 59.964C194.403 59.436 194.547 58.828 194.547 58.14V55.404C194.547 54.412 194.347 53.7 193.947 53.268C193.547 52.82 192.891 52.596 191.979 52.596C191.419 52.596 190.859 52.668 190.299 52.812C189.739 52.956 189.147 53.188 188.523 53.508C188.299 53.62 188.107 53.66 187.947 53.628C187.787 53.58 187.659 53.492 187.563 53.364C187.467 53.236 187.411 53.092 187.395 52.932C187.379 52.756 187.411 52.588 187.491 52.428C187.587 52.268 187.731 52.14 187.923 52.044C188.627 51.692 189.323 51.436 190.011 51.276C190.699 51.116 191.355 51.036 191.979 51.036C192.987 51.036 193.819 51.204 194.475 51.54C195.131 51.86 195.619 52.356 195.939 53.028C196.259 53.684 196.419 54.532 196.419 55.572V62.076C196.419 62.396 196.339 62.644 196.179 62.82C196.035 62.996 195.819 63.084 195.531 63.084C195.227 63.084 194.995 62.996 194.835 62.82C194.675 62.644 194.595 62.396 194.595 62.076V60.204H194.811C194.683 60.812 194.435 61.332 194.067 61.764C193.715 62.196 193.275 62.532 192.747 62.772C192.219 63.012 191.627 63.132 190.971 63.132ZM201.196 63.084C200.876 63.084 200.628 62.996 200.452 62.82C200.292 62.644 200.212 62.396 200.212 62.076V52.068C200.212 51.732 200.292 51.484 200.452 51.324C200.628 51.164 200.876 51.084 201.196 51.084C201.5 51.084 201.732 51.164 201.892 51.324C202.068 51.484 202.156 51.732 202.156 52.068V56.1H208.516V52.068C208.516 51.732 208.596 51.484 208.756 51.324C208.932 51.164 209.172 51.084 209.476 51.084C209.78 51.084 210.02 51.164 210.196 51.324C210.372 51.484 210.46 51.732 210.46 52.068V62.076C210.46 62.396 210.372 62.644 210.196 62.82C210.02 62.996 209.78 63.084 209.476 63.084C209.172 63.084 208.932 62.996 208.756 62.82C208.596 62.644 208.516 62.396 208.516 62.076V57.684H202.156V62.076C202.156 62.396 202.076 62.644 201.916 62.82C201.756 62.996 201.516 63.084 201.196 63.084ZM215.354 65.196C215.194 65.404 215.026 65.524 214.85 65.556C214.674 65.588 214.522 65.556 214.394 65.46C214.266 65.364 214.194 65.228 214.178 65.052C214.178 64.876 214.258 64.684 214.418 64.476C214.674 64.14 214.85 63.796 214.946 63.444C215.042 63.108 215.09 62.796 215.09 62.508L215.186 63.012C214.77 63.012 214.434 62.892 214.178 62.652C213.938 62.396 213.818 62.076 213.818 61.692C213.818 61.308 213.93 60.996 214.154 60.756C214.394 60.5 214.706 60.372 215.09 60.372C215.506 60.372 215.834 60.516 216.074 60.804C216.314 61.076 216.434 61.476 216.434 62.004C216.434 62.34 216.402 62.684 216.338 63.036C216.274 63.404 216.162 63.772 216.002 64.14C215.842 64.508 215.626 64.86 215.354 65.196ZM230.867 63.132C229.715 63.132 228.715 62.884 227.867 62.388C227.035 61.876 226.387 61.124 225.923 60.132C225.475 59.14 225.251 57.924 225.251 56.484V54.684C225.251 53.132 225.451 51.836 225.851 50.796C226.267 49.756 226.891 48.916 227.723 48.276C228.571 47.636 229.619 47.148 230.867 46.812L234.371 45.828C234.659 45.748 234.899 45.756 235.091 45.852C235.299 45.948 235.427 46.124 235.475 46.38C235.539 46.652 235.499 46.884 235.355 47.076C235.227 47.268 235.019 47.404 234.731 47.484L231.011 48.492C230.147 48.732 229.427 49.092 228.851 49.572C228.275 50.052 227.843 50.644 227.555 51.348C227.267 52.036 227.123 52.82 227.123 53.7V54.636H226.787C226.979 53.932 227.283 53.324 227.699 52.812C228.115 52.3 228.627 51.908 229.235 51.636C229.859 51.348 230.547 51.204 231.299 51.204C232.307 51.204 233.195 51.444 233.963 51.924C234.731 52.404 235.323 53.084 235.739 53.964C236.171 54.844 236.387 55.892 236.387 57.108C236.387 58.324 236.155 59.388 235.691 60.3C235.243 61.196 234.603 61.892 233.771 62.388C232.955 62.884 231.987 63.132 230.867 63.132ZM230.795 61.572C231.563 61.572 232.211 61.404 232.739 61.068C233.283 60.716 233.699 60.212 233.987 59.556C234.275 58.9 234.419 58.1 234.419 57.156C234.419 55.764 234.099 54.684 233.459 53.916C232.819 53.148 231.939 52.764 230.819 52.764C230.067 52.764 229.419 52.932 228.875 53.268C228.347 53.604 227.939 54.092 227.651 54.732C227.363 55.356 227.219 56.108 227.219 56.988C227.219 58.492 227.531 59.636 228.155 60.42C228.795 61.188 229.675 61.572 230.795 61.572ZM240.429 63.084C240.253 63.084 240.093 63.044 239.949 62.964C239.821 62.9 239.717 62.788 239.637 62.628C239.573 62.468 239.541 62.268 239.541 62.028V52.044C239.541 51.724 239.621 51.484 239.781 51.324C239.941 51.164 240.157 51.084 240.429 51.084C240.717 51.084 240.933 51.164 241.077 51.324C241.237 51.484 241.317 51.724 241.317 52.044V61.068H240.717L247.701 51.708C247.829 51.532 247.981 51.388 248.157 51.276C248.333 51.148 248.557 51.084 248.829 51.084C249.021 51.084 249.181 51.116 249.309 51.18C249.437 51.244 249.533 51.356 249.597 51.516C249.677 51.66 249.717 51.86 249.717 52.116V62.124C249.717 62.428 249.637 62.668 249.477 62.844C249.333 63.004 249.117 63.084 248.829 63.084C248.541 63.084 248.317 63.004 248.157 62.844C248.013 62.668 247.941 62.428 247.941 62.124V53.076H248.541L241.533 62.46C241.421 62.62 241.277 62.764 241.101 62.892C240.941 63.02 240.717 63.084 240.429 63.084ZM262.508 63.084C262.204 63.084 261.964 62.996 261.788 62.82C261.628 62.644 261.548 62.396 261.548 62.076V52.812H256.844V54.3C256.844 55.548 256.78 56.652 256.652 57.612C256.54 58.556 256.356 59.372 256.1 60.06C255.844 60.748 255.5 61.324 255.068 61.788C254.652 62.252 254.132 62.644 253.508 62.964C253.3 63.06 253.1 63.084 252.908 63.036C252.716 63.004 252.556 62.932 252.428 62.82C252.316 62.692 252.236 62.54 252.188 62.364C252.156 62.188 252.18 62.012 252.26 61.836C252.34 61.66 252.484 61.516 252.692 61.404C253.156 61.148 253.532 60.828 253.82 60.444C254.124 60.06 254.364 59.58 254.54 59.004C254.716 58.428 254.836 57.756 254.9 56.988C254.98 56.204 255.02 55.284 255.02 54.228V52.356C255.02 51.988 255.116 51.716 255.308 51.54C255.5 51.348 255.772 51.252 256.124 51.252H262.388C262.74 51.252 263.012 51.348 263.204 51.54C263.396 51.716 263.492 51.988 263.492 52.356V62.076C263.492 62.396 263.404 62.644 263.228 62.82C263.068 62.996 262.828 63.084 262.508 63.084ZM268.345 62.916C268.025 62.916 267.777 62.828 267.601 62.652C267.425 62.476 267.337 62.228 267.337 61.908V52.068C267.337 51.732 267.417 51.484 267.577 51.324C267.753 51.164 268.001 51.084 268.321 51.084C268.625 51.084 268.857 51.164 269.017 51.324C269.193 51.484 269.281 51.732 269.281 52.068V55.404H272.809C274.297 55.404 275.425 55.732 276.193 56.388C276.961 57.028 277.345 57.94 277.345 59.124C277.345 59.908 277.161 60.588 276.793 61.164C276.441 61.724 275.929 62.156 275.257 62.46C274.601 62.764 273.785 62.916 272.809 62.916H268.345ZM269.281 61.524H272.617C273.529 61.524 274.233 61.332 274.729 60.948C275.225 60.548 275.473 59.948 275.473 59.148C275.473 58.332 275.225 57.74 274.729 57.372C274.233 56.988 273.529 56.796 272.617 56.796H269.281V61.524ZM288.646 63.084C288.342 63.084 288.11 63.004 287.95 62.844C287.79 62.668 287.71 62.436 287.71 62.148V58.476H286.006C285.382 58.476 284.846 58.636 284.398 58.956C283.95 59.276 283.59 59.668 283.318 60.132L281.95 62.532C281.806 62.772 281.638 62.932 281.446 63.012C281.254 63.092 281.062 63.108 280.87 63.06C280.678 63.012 280.51 62.916 280.366 62.772C280.222 62.628 280.134 62.46 280.102 62.268C280.07 62.06 280.118 61.844 280.246 61.62L281.398 59.676C281.67 59.196 282.03 58.796 282.478 58.476C282.926 58.156 283.382 57.996 283.846 57.996H284.158V58.212C282.846 58.212 281.83 57.908 281.11 57.3C280.39 56.692 280.03 55.844 280.03 54.756C280.03 54.036 280.182 53.42 280.486 52.908C280.806 52.38 281.286 51.972 281.926 51.684C282.566 51.396 283.358 51.252 284.302 51.252H288.526C288.862 51.252 289.118 51.34 289.294 51.516C289.47 51.692 289.558 51.94 289.558 52.26V62.148C289.558 62.436 289.47 62.668 289.294 62.844C289.134 63.004 288.918 63.084 288.646 63.084ZM284.662 57.06H287.71V52.62H284.662C283.718 52.62 283.022 52.82 282.574 53.22C282.126 53.604 281.902 54.14 281.902 54.828C281.902 55.532 282.126 56.084 282.574 56.484C283.022 56.868 283.718 57.06 284.662 57.06ZM294.384 67.404C294.064 67.404 293.824 67.316 293.664 67.14C293.504 66.98 293.424 66.74 293.424 66.42V52.068C293.424 51.748 293.504 51.508 293.664 51.348C293.824 51.172 294.056 51.084 294.36 51.084C294.68 51.084 294.92 51.172 295.08 51.348C295.256 51.508 295.344 51.748 295.344 52.068V54.348L295.08 54.012C295.336 53.1 295.84 52.38 296.592 51.852C297.36 51.308 298.272 51.036 299.328 51.036C300.368 51.036 301.272 51.284 302.04 51.78C302.824 52.26 303.424 52.956 303.84 53.868C304.272 54.764 304.488 55.836 304.488 57.084C304.488 58.316 304.272 59.388 303.84 60.3C303.424 61.196 302.832 61.892 302.064 62.388C301.296 62.884 300.384 63.132 299.328 63.132C298.272 63.132 297.368 62.868 296.616 62.34C295.864 61.796 295.352 61.076 295.08 60.18H295.368V66.42C295.368 66.74 295.28 66.98 295.104 67.14C294.928 67.316 294.688 67.404 294.384 67.404ZM298.92 61.572C299.656 61.572 300.288 61.396 300.816 61.044C301.36 60.692 301.776 60.18 302.064 59.508C302.368 58.836 302.52 58.028 302.52 57.084C302.52 55.628 302.192 54.516 301.536 53.748C300.896 52.98 300.024 52.596 298.92 52.596C298.2 52.596 297.568 52.772 297.024 53.124C296.48 53.46 296.056 53.964 295.752 54.636C295.464 55.292 295.32 56.108 295.32 57.084C295.32 58.524 295.648 59.636 296.304 60.42C296.96 61.188 297.832 61.572 298.92 61.572ZM307.195 66.204C306.923 66.204 306.715 66.124 306.571 65.964C306.427 65.804 306.355 65.58 306.355 65.292V62.316C306.355 61.676 306.675 61.356 307.315 61.356H308.467L307.315 61.764C307.747 61.188 308.091 60.564 308.347 59.892C308.619 59.204 308.819 58.436 308.947 57.588C309.075 56.74 309.139 55.772 309.139 54.684V52.356C309.139 51.988 309.235 51.716 309.427 51.54C309.619 51.348 309.891 51.252 310.243 51.252H316.291C316.659 51.252 316.931 51.348 317.107 51.54C317.299 51.716 317.395 51.988 317.395 52.356V62.244L316.507 61.356H318.283C318.587 61.356 318.819 61.436 318.979 61.596C319.155 61.756 319.243 61.996 319.243 62.316V65.292C319.243 65.9 318.963 66.204 318.403 66.204C318.131 66.204 317.923 66.124 317.779 65.964C317.635 65.804 317.563 65.58 317.563 65.292V62.916H308.011V65.292C308.011 65.9 307.739 66.204 307.195 66.204ZM309.451 61.356H315.547V52.788H310.867V55.02C310.867 56.22 310.747 57.38 310.507 58.5C310.267 59.604 309.915 60.556 309.451 61.356ZM322.886 65.196C322.726 65.404 322.558 65.524 322.382 65.556C322.206 65.588 322.054 65.556 321.926 65.46C321.798 65.364 321.726 65.228 321.71 65.052C321.71 64.876 321.79 64.684 321.95 64.476C322.206 64.14 322.382 63.796 322.478 63.444C322.574 63.108 322.622 62.796 322.622 62.508L322.718 63.012C322.302 63.012 321.966 62.892 321.71 62.652C321.47 62.396 321.35 62.076 321.35 61.692C321.35 61.308 321.462 60.996 321.686 60.756C321.926 60.5 322.238 60.372 322.622 60.372C323.038 60.372 323.366 60.516 323.606 60.804C323.846 61.076 323.966 61.476 323.966 62.004C323.966 62.34 323.934 62.684 323.87 63.036C323.806 63.404 323.694 63.772 323.534 64.14C323.374 64.508 323.158 64.86 322.886 65.196ZM334.462 63.084C334.142 63.084 333.894 62.996 333.718 62.82C333.558 62.644 333.478 62.396 333.478 62.076V52.14C333.478 51.804 333.558 51.556 333.718 51.396C333.894 51.22 334.142 51.132 334.462 51.132C334.766 51.132 334.998 51.22 335.158 51.396C335.334 51.556 335.422 51.804 335.422 52.14V56.124H337.606L341.158 51.564C341.318 51.372 341.494 51.252 341.686 51.204C341.878 51.14 342.054 51.14 342.214 51.204C342.39 51.252 342.526 51.348 342.622 51.492C342.734 51.62 342.79 51.78 342.79 51.972C342.79 52.164 342.718 52.364 342.574 52.572L339.19 56.916L338.638 56.292C339.086 56.34 339.478 56.452 339.814 56.628C340.15 56.804 340.47 57.068 340.774 57.42C341.078 57.772 341.406 58.26 341.758 58.884L343.486 61.74C343.598 61.964 343.638 62.164 343.606 62.34C343.59 62.516 343.51 62.676 343.366 62.82C343.222 62.948 343.054 63.028 342.862 63.06C342.686 63.092 342.51 63.068 342.334 62.988C342.158 62.908 341.998 62.764 341.854 62.556L339.958 59.388C339.686 58.94 339.43 58.596 339.19 58.356C338.95 58.1 338.678 57.924 338.374 57.828C338.07 57.732 337.694 57.684 337.246 57.684H335.422V62.076C335.422 62.396 335.334 62.644 335.158 62.82C334.998 62.996 334.766 63.084 334.462 63.084ZM349.807 63.132C349.007 63.132 348.287 62.98 347.647 62.676C347.023 62.356 346.527 61.924 346.159 61.38C345.791 60.836 345.607 60.228 345.607 59.556C345.607 58.692 345.823 58.012 346.255 57.516C346.703 57.02 347.431 56.668 348.439 56.46C349.463 56.252 350.855 56.148 352.615 56.148H353.695V57.42H352.639C351.343 57.42 350.319 57.484 349.567 57.612C348.831 57.724 348.311 57.924 348.007 58.212C347.719 58.5 347.575 58.908 347.575 59.436C347.575 60.092 347.799 60.628 348.247 61.044C348.711 61.46 349.335 61.668 350.119 61.668C350.759 61.668 351.319 61.516 351.799 61.212C352.295 60.908 352.679 60.492 352.951 59.964C353.239 59.436 353.383 58.828 353.383 58.14V55.404C353.383 54.412 353.183 53.7 352.783 53.268C352.383 52.82 351.727 52.596 350.815 52.596C350.255 52.596 349.695 52.668 349.135 52.812C348.575 52.956 347.983 53.188 347.359 53.508C347.135 53.62 346.943 53.66 346.783 53.628C346.623 53.58 346.495 53.492 346.399 53.364C346.303 53.236 346.247 53.092 346.231 52.932C346.215 52.756 346.247 52.588 346.327 52.428C346.423 52.268 346.567 52.14 346.759 52.044C347.463 51.692 348.159 51.436 348.847 51.276C349.535 51.116 350.191 51.036 350.815 51.036C351.823 51.036 352.655 51.204 353.311 51.54C353.967 51.86 354.455 52.356 354.775 53.028C355.095 53.684 355.255 54.532 355.255 55.572V62.076C355.255 62.396 355.175 62.644 355.015 62.82C354.871 62.996 354.655 63.084 354.367 63.084C354.063 63.084 353.831 62.996 353.671 62.82C353.511 62.644 353.431 62.396 353.431 62.076V60.204H353.647C353.519 60.812 353.271 61.332 352.903 61.764C352.551 62.196 352.111 62.532 351.583 62.772C351.055 63.012 350.463 63.132 349.807 63.132ZM360.032 67.404C359.712 67.404 359.472 67.316 359.312 67.14C359.152 66.98 359.072 66.74 359.072 66.42V52.068C359.072 51.748 359.152 51.508 359.312 51.348C359.472 51.172 359.704 51.084 360.008 51.084C360.328 51.084 360.568 51.172 360.728 51.348C360.904 51.508 360.992 51.748 360.992 52.068V54.348L360.728 54.012C360.984 53.1 361.488 52.38 362.24 51.852C363.008 51.308 363.92 51.036 364.976 51.036C366.016 51.036 366.92 51.284 367.688 51.78C368.472 52.26 369.072 52.956 369.488 53.868C369.92 54.764 370.136 55.836 370.136 57.084C370.136 58.316 369.92 59.388 369.488 60.3C369.072 61.196 368.48 61.892 367.712 62.388C366.944 62.884 366.032 63.132 364.976 63.132C363.92 63.132 363.016 62.868 362.264 62.34C361.512 61.796 361 61.076 360.728 60.18H361.016V66.42C361.016 66.74 360.928 66.98 360.752 67.14C360.576 67.316 360.336 67.404 360.032 67.404ZM364.568 61.572C365.304 61.572 365.936 61.396 366.464 61.044C367.008 60.692 367.424 60.18 367.712 59.508C368.016 58.836 368.168 58.028 368.168 57.084C368.168 55.628 367.84 54.516 367.184 53.748C366.544 52.98 365.672 52.596 364.568 52.596C363.848 52.596 363.216 52.772 362.672 53.124C362.128 53.46 361.704 53.964 361.4 54.636C361.112 55.292 360.968 56.108 360.968 57.084C360.968 58.524 361.296 59.636 361.952 60.42C362.608 61.188 363.48 61.572 364.568 61.572ZM376.971 63.132C376.171 63.132 375.451 62.98 374.811 62.676C374.187 62.356 373.691 61.924 373.323 61.38C372.955 60.836 372.771 60.228 372.771 59.556C372.771 58.692 372.987 58.012 373.419 57.516C373.867 57.02 374.595 56.668 375.603 56.46C376.627 56.252 378.019 56.148 379.779 56.148H380.859V57.42H379.803C378.507 57.42 377.483 57.484 376.731 57.612C375.995 57.724 375.475 57.924 375.171 58.212C374.883 58.5 374.739 58.908 374.739 59.436C374.739 60.092 374.963 60.628 375.411 61.044C375.875 61.46 376.499 61.668 377.283 61.668C377.923 61.668 378.483 61.516 378.963 61.212C379.459 60.908 379.843 60.492 380.115 59.964C380.403 59.436 380.547 58.828 380.547 58.14V55.404C380.547 54.412 380.347 53.7 379.947 53.268C379.547 52.82 378.891 52.596 377.979 52.596C377.419 52.596 376.859 52.668 376.299 52.812C375.739 52.956 375.147 53.188 374.523 53.508C374.299 53.62 374.107 53.66 373.947 53.628C373.787 53.58 373.659 53.492 373.563 53.364C373.467 53.236 373.411 53.092 373.395 52.932C373.379 52.756 373.411 52.588 373.491 52.428C373.587 52.268 373.731 52.14 373.923 52.044C374.627 51.692 375.323 51.436 376.011 51.276C376.699 51.116 377.355 51.036 377.979 51.036C378.987 51.036 379.819 51.204 380.475 51.54C381.131 51.86 381.619 52.356 381.939 53.028C382.259 53.684 382.419 54.532 382.419 55.572V62.076C382.419 62.396 382.339 62.644 382.179 62.82C382.035 62.996 381.819 63.084 381.531 63.084C381.227 63.084 380.995 62.996 380.835 62.82C380.675 62.644 380.595 62.396 380.595 62.076V60.204H380.811C380.683 60.812 380.435 61.332 380.067 61.764C379.715 62.196 379.275 62.532 378.747 62.772C378.219 63.012 377.627 63.132 376.971 63.132ZM391.084 63.132C389.948 63.132 388.964 62.884 388.132 62.388C387.3 61.892 386.652 61.196 386.188 60.3C385.74 59.388 385.516 58.316 385.516 57.084C385.516 56.156 385.644 55.324 385.9 54.588C386.156 53.836 386.532 53.196 387.028 52.668C387.524 52.14 388.108 51.74 388.78 51.468C389.468 51.18 390.236 51.036 391.084 51.036C392.22 51.036 393.204 51.284 394.036 51.78C394.868 52.276 395.508 52.98 395.956 53.892C396.42 54.788 396.652 55.852 396.652 57.084C396.652 58.012 396.524 58.844 396.268 59.58C396.012 60.316 395.636 60.956 395.14 61.5C394.644 62.028 394.052 62.436 393.364 62.724C392.692 62.996 391.932 63.132 391.084 63.132ZM391.084 61.572C391.804 61.572 392.436 61.396 392.98 61.044C393.524 60.692 393.94 60.18 394.228 59.508C394.532 58.836 394.684 58.028 394.684 57.084C394.684 55.628 394.356 54.516 393.7 53.748C393.06 52.98 392.188 52.596 391.084 52.596C390.348 52.596 389.708 52.772 389.164 53.124C388.636 53.46 388.22 53.964 387.916 54.636C387.628 55.292 387.484 56.108 387.484 57.084C387.484 58.524 387.812 59.636 388.468 60.42C389.124 61.188 389.996 61.572 391.084 61.572ZM400.79 63.084C400.47 63.084 400.222 62.996 400.046 62.82C399.886 62.644 399.806 62.396 399.806 62.076V52.14C399.806 51.804 399.886 51.556 400.046 51.396C400.222 51.22 400.47 51.132 400.79 51.132C401.094 51.132 401.326 51.22 401.486 51.396C401.662 51.556 401.75 51.804 401.75 52.14V56.124H403.934L407.486 51.564C407.646 51.372 407.822 51.252 408.014 51.204C408.206 51.14 408.382 51.14 408.542 51.204C408.718 51.252 408.854 51.348 408.95 51.492C409.062 51.62 409.118 51.78 409.118 51.972C409.118 52.164 409.046 52.364 408.902 52.572L405.518 56.916L404.966 56.292C405.414 56.34 405.806 56.452 406.142 56.628C406.478 56.804 406.798 57.068 407.102 57.42C407.406 57.772 407.734 58.26 408.086 58.884L409.814 61.74C409.926 61.964 409.966 62.164 409.934 62.34C409.918 62.516 409.838 62.676 409.694 62.82C409.55 62.948 409.382 63.028 409.19 63.06C409.014 63.092 408.838 63.068 408.662 62.988C408.486 62.908 408.326 62.764 408.182 62.556L406.286 59.388C406.014 58.94 405.758 58.596 405.518 58.356C405.278 58.1 405.006 57.924 404.702 57.828C404.398 57.732 404.022 57.684 403.574 57.684H401.75V62.076C401.75 62.396 401.662 62.644 401.486 62.82C401.326 62.996 401.094 63.084 400.79 63.084ZM417.719 63.132C416.487 63.132 415.423 62.892 414.527 62.412C413.647 61.916 412.959 61.22 412.463 60.324C411.983 59.428 411.743 58.356 411.743 57.108C411.743 55.892 411.983 54.836 412.463 53.94C412.943 53.028 413.599 52.316 414.431 51.804C415.279 51.292 416.255 51.036 417.359 51.036C418.143 51.036 418.847 51.172 419.471 51.444C420.095 51.7 420.623 52.076 421.055 52.572C421.503 53.068 421.839 53.668 422.063 54.372C422.303 55.076 422.423 55.868 422.423 56.748C422.423 57.004 422.351 57.196 422.207 57.324C422.063 57.436 421.855 57.492 421.583 57.492H413.231V56.22H421.127L420.743 56.532C420.743 55.668 420.615 54.94 420.359 54.348C420.103 53.74 419.727 53.276 419.231 52.956C418.751 52.636 418.143 52.476 417.407 52.476C416.591 52.476 415.895 52.668 415.319 53.052C414.759 53.42 414.335 53.94 414.047 54.612C413.759 55.268 413.615 56.036 413.615 56.916V57.06C413.615 58.532 413.967 59.652 414.671 60.42C415.391 61.188 416.407 61.572 417.719 61.572C418.263 61.572 418.799 61.5 419.327 61.356C419.871 61.212 420.399 60.972 420.911 60.636C421.135 60.492 421.335 60.428 421.511 60.444C421.703 60.444 421.855 60.5 421.967 60.612C422.079 60.708 422.151 60.836 422.183 60.996C422.231 61.14 422.215 61.3 422.135 61.476C422.071 61.652 421.935 61.804 421.727 61.932C421.199 62.316 420.575 62.612 419.855 62.82C419.135 63.028 418.423 63.132 417.719 63.132ZM426.503 65.196C426.343 65.404 426.175 65.524 425.999 65.556C425.823 65.588 425.671 65.556 425.543 65.46C425.415 65.364 425.343 65.228 425.327 65.052C425.327 64.876 425.407 64.684 425.567 64.476C425.823 64.14 425.999 63.796 426.095 63.444C426.191 63.108 426.239 62.796 426.239 62.508L426.335 63.012C425.919 63.012 425.583 62.892 425.327 62.652C425.087 62.396 424.967 62.076 424.967 61.692C424.967 61.308 425.079 60.996 425.303 60.756C425.543 60.5 425.855 60.372 426.239 60.372C426.655 60.372 426.983 60.516 427.223 60.804C427.463 61.076 427.583 61.476 427.583 62.004C427.583 62.34 427.551 62.684 427.487 63.036C427.423 63.404 427.311 63.772 427.151 64.14C426.991 64.508 426.775 64.86 426.503 65.196ZM438.079 63.084C437.759 63.084 437.511 62.996 437.335 62.82C437.175 62.644 437.095 62.396 437.095 62.076V52.14C437.095 51.804 437.175 51.556 437.335 51.396C437.511 51.22 437.759 51.132 438.079 51.132C438.383 51.132 438.615 51.22 438.775 51.396C438.951 51.556 439.039 51.804 439.039 52.14V56.124H441.223L444.775 51.564C444.935 51.372 445.111 51.252 445.303 51.204C445.495 51.14 445.671 51.14 445.831 51.204C446.007 51.252 446.143 51.348 446.239 51.492C446.351 51.62 446.407 51.78 446.407 51.972C446.407 52.164 446.335 52.364 446.191 52.572L442.807 56.916L442.255 56.292C442.703 56.34 443.095 56.452 443.431 56.628C443.767 56.804 444.087 57.068 444.391 57.42C444.695 57.772 445.023 58.26 445.375 58.884L447.103 61.74C447.215 61.964 447.255 62.164 447.223 62.34C447.207 62.516 447.127 62.676 446.983 62.82C446.839 62.948 446.671 63.028 446.479 63.06C446.303 63.092 446.127 63.068 445.951 62.988C445.775 62.908 445.615 62.764 445.471 62.556L443.575 59.388C443.303 58.94 443.047 58.596 442.807 58.356C442.567 58.1 442.295 57.924 441.991 57.828C441.687 57.732 441.311 57.684 440.863 57.684H439.039V62.076C439.039 62.396 438.951 62.644 438.775 62.82C438.615 62.996 438.383 63.084 438.079 63.084ZM453.424 63.132C452.624 63.132 451.904 62.98 451.264 62.676C450.64 62.356 450.144 61.924 449.776 61.38C449.408 60.836 449.224 60.228 449.224 59.556C449.224 58.692 449.44 58.012 449.872 57.516C450.32 57.02 451.048 56.668 452.056 56.46C453.08 56.252 454.472 56.148 456.232 56.148H457.312V57.42H456.256C454.96 57.42 453.936 57.484 453.184 57.612C452.448 57.724 451.928 57.924 451.624 58.212C451.336 58.5 451.192 58.908 451.192 59.436C451.192 60.092 451.416 60.628 451.864 61.044C452.328 61.46 452.952 61.668 453.736 61.668C454.376 61.668 454.936 61.516 455.416 61.212C455.912 60.908 456.296 60.492 456.568 59.964C456.856 59.436 457 58.828 457 58.14V55.404C457 54.412 456.8 53.7 456.4 53.268C456 52.82 455.344 52.596 454.432 52.596C453.872 52.596 453.312 52.668 452.752 52.812C452.192 52.956 451.6 53.188 450.976 53.508C450.752 53.62 450.56 53.66 450.4 53.628C450.24 53.58 450.112 53.492 450.016 53.364C449.92 53.236 449.864 53.092 449.848 52.932C449.832 52.756 449.864 52.588 449.944 52.428C450.04 52.268 450.184 52.14 450.376 52.044C451.08 51.692 451.776 51.436 452.464 51.276C453.152 51.116 453.808 51.036 454.432 51.036C455.44 51.036 456.272 51.204 456.928 51.54C457.584 51.86 458.072 52.356 458.392 53.028C458.712 53.684 458.872 54.532 458.872 55.572V62.076C458.872 62.396 458.792 62.644 458.632 62.82C458.488 62.996 458.272 63.084 457.984 63.084C457.68 63.084 457.448 62.996 457.288 62.82C457.128 62.644 457.048 62.396 457.048 62.076V60.204H457.264C457.136 60.812 456.888 61.332 456.52 61.764C456.168 62.196 455.728 62.532 455.2 62.772C454.672 63.012 454.08 63.132 453.424 63.132ZM463.53 63.084C463.258 63.084 463.042 63.004 462.882 62.844C462.738 62.668 462.666 62.436 462.666 62.148V52.116C462.666 51.892 462.698 51.708 462.762 51.564C462.826 51.404 462.922 51.284 463.05 51.204C463.178 51.124 463.338 51.084 463.53 51.084C463.722 51.084 463.882 51.116 464.01 51.18C464.138 51.228 464.25 51.308 464.346 51.42C464.442 51.516 464.522 51.636 464.586 51.78L468.666 59.052L472.746 51.78C472.81 51.636 472.89 51.516 472.986 51.42C473.082 51.308 473.194 51.228 473.322 51.18C473.45 51.116 473.602 51.084 473.778 51.084C474.066 51.084 474.282 51.172 474.426 51.348C474.57 51.508 474.642 51.764 474.642 52.116V62.148C474.642 62.436 474.57 62.668 474.426 62.844C474.282 63.004 474.066 63.084 473.778 63.084C473.506 63.084 473.29 63.004 473.13 62.844C472.986 62.668 472.914 62.436 472.914 62.148V53.484H473.466L469.362 60.684C469.298 60.812 469.21 60.924 469.098 61.02C468.986 61.1 468.842 61.14 468.666 61.14C468.474 61.14 468.322 61.092 468.21 60.996C468.114 60.9 468.026 60.796 467.946 60.684L463.842 53.484H464.394V62.148C464.394 62.436 464.314 62.668 464.154 62.844C464.01 63.004 463.802 63.084 463.53 63.084ZM479.374 63.084C479.198 63.084 479.038 63.044 478.894 62.964C478.766 62.9 478.662 62.788 478.582 62.628C478.518 62.468 478.486 62.268 478.486 62.028V52.044C478.486 51.724 478.566 51.484 478.726 51.324C478.886 51.164 479.102 51.084 479.374 51.084C479.662 51.084 479.878 51.164 480.022 51.324C480.182 51.484 480.262 51.724 480.262 52.044V61.068H479.662L486.646 51.708C486.774 51.532 486.926 51.388 487.102 51.276C487.278 51.148 487.502 51.084 487.774 51.084C487.966 51.084 488.126 51.116 488.254 51.18C488.382 51.244 488.478 51.356 488.542 51.516C488.622 51.66 488.662 51.86 488.662 52.116V62.124C488.662 62.428 488.582 62.668 488.422 62.844C488.278 63.004 488.062 63.084 487.774 63.084C487.486 63.084 487.262 63.004 487.102 62.844C486.958 62.668 486.886 62.428 486.886 62.124V53.076H487.486L480.478 62.46C480.366 62.62 480.222 62.764 480.046 62.892C479.886 63.02 479.662 63.084 479.374 63.084ZM493.486 63.084C493.166 63.084 492.918 62.996 492.742 62.82C492.582 62.644 492.502 62.396 492.502 62.076V52.068C492.502 51.732 492.582 51.484 492.742 51.324C492.918 51.164 493.166 51.084 493.486 51.084C493.79 51.084 494.022 51.164 494.182 51.324C494.358 51.484 494.446 51.732 494.446 52.068V56.1H500.806V52.068C500.806 51.732 500.886 51.484 501.046 51.324C501.222 51.164 501.462 51.084 501.766 51.084C502.07 51.084 502.31 51.164 502.486 51.324C502.662 51.484 502.75 51.732 502.75 52.068V62.076C502.75 62.396 502.662 62.644 502.486 62.82C502.31 62.996 502.07 63.084 501.766 63.084C501.462 63.084 501.222 62.996 501.046 62.82C500.886 62.644 500.806 62.396 500.806 62.076V57.684H494.446V62.076C494.446 62.396 494.366 62.644 494.206 62.82C494.046 62.996 493.806 63.084 493.486 63.084ZM507.571 63.084C507.251 63.084 507.003 62.996 506.827 62.82C506.667 62.644 506.587 62.396 506.587 62.076V52.068C506.587 51.732 506.667 51.484 506.827 51.324C507.003 51.164 507.251 51.084 507.571 51.084C507.875 51.084 508.107 51.164 508.267 51.324C508.443 51.484 508.531 51.732 508.531 52.068V56.1H514.891V52.068C514.891 51.732 514.971 51.484 515.131 51.324C515.307 51.164 515.547 51.084 515.851 51.084C516.155 51.084 516.395 51.164 516.571 51.324C516.747 51.484 516.835 51.732 516.835 52.068V62.076C516.835 62.396 516.747 62.644 516.571 62.82C516.395 62.996 516.155 63.084 515.851 63.084C515.547 63.084 515.307 62.996 515.131 62.82C514.971 62.644 514.891 62.396 514.891 62.076V57.684H508.531V62.076C508.531 62.396 508.451 62.644 508.291 62.82C508.131 62.996 507.891 63.084 507.571 63.084ZM521.681 62.916C521.361 62.916 521.113 62.828 520.937 62.652C520.761 62.476 520.673 62.228 520.673 61.908V52.068C520.673 51.732 520.753 51.484 520.913 51.324C521.089 51.164 521.337 51.084 521.657 51.084C521.961 51.084 522.193 51.164 522.353 51.324C522.529 51.484 522.617 51.732 522.617 52.068V55.404H526.145C527.633 55.404 528.761 55.732 529.529 56.388C530.297 57.028 530.681 57.94 530.681 59.124C530.681 59.908 530.497 60.588 530.129 61.164C529.777 61.724 529.265 62.156 528.593 62.46C527.937 62.764 527.121 62.916 526.145 62.916H521.681ZM522.617 61.524H525.953C526.865 61.524 527.569 61.332 528.065 60.948C528.561 60.548 528.809 59.948 528.809 59.148C528.809 58.332 528.561 57.74 528.065 57.372C527.569 56.988 526.865 56.796 525.953 56.796H522.617V61.524ZM533.369 63.084C533.065 63.084 532.825 62.996 532.649 62.82C532.489 62.644 532.409 62.396 532.409 62.076V52.068C532.409 51.732 532.489 51.484 532.649 51.324C532.825 51.164 533.065 51.084 533.369 51.084C533.689 51.084 533.929 51.164 534.089 51.324C534.265 51.484 534.353 51.732 534.353 52.068V62.076C534.353 62.748 534.025 63.084 533.369 63.084ZM539.093 63.084C538.917 63.084 538.757 63.044 538.613 62.964C538.485 62.9 538.381 62.788 538.301 62.628C538.237 62.468 538.205 62.268 538.205 62.028V52.044C538.205 51.724 538.285 51.484 538.445 51.324C538.605 51.164 538.821 51.084 539.093 51.084C539.381 51.084 539.597 51.164 539.741 51.324C539.901 51.484 539.981 51.724 539.981 52.044V61.068H539.381L546.365 51.708C546.493 51.532 546.645 51.388 546.821 51.276C546.997 51.148 547.221 51.084 547.493 51.084C547.685 51.084 547.845 51.116 547.973 51.18C548.101 51.244 548.197 51.356 548.261 51.516C548.341 51.66 548.381 51.86 548.381 52.116V62.124C548.381 62.428 548.301 62.668 548.141 62.844C547.997 63.004 547.781 63.084 547.493 63.084C547.205 63.084 546.981 63.004 546.821 62.844C546.677 62.668 546.605 62.428 546.605 62.124V53.076H547.205L540.197 62.46C540.085 62.62 539.941 62.764 539.765 62.892C539.605 63.02 539.381 63.084 539.093 63.084ZM543.293 49.74C542.445 49.74 541.661 49.524 540.941 49.092C540.237 48.66 539.709 48.004 539.357 47.124C539.277 46.884 539.269 46.692 539.333 46.548C539.397 46.388 539.517 46.276 539.693 46.212C539.869 46.148 540.029 46.156 540.173 46.236C540.317 46.3 540.437 46.444 540.533 46.668C540.821 47.276 541.189 47.74 541.637 48.06C542.101 48.364 542.653 48.516 543.293 48.516C543.949 48.516 544.501 48.364 544.949 48.06C545.397 47.74 545.765 47.276 546.053 46.668C546.165 46.444 546.293 46.3 546.437 46.236C546.581 46.156 546.733 46.148 546.893 46.212C547.085 46.276 547.205 46.388 547.253 46.548C547.317 46.692 547.301 46.884 547.205 47.124C546.837 48.004 546.301 48.66 545.597 49.092C544.909 49.524 544.141 49.74 543.293 49.74ZM562.272 63.132C561.44 63.132 560.632 63.036 559.848 62.844C559.064 62.652 558.392 62.372 557.832 62.004C557.64 61.876 557.504 61.732 557.424 61.572C557.36 61.412 557.336 61.252 557.352 61.092C557.368 60.932 557.424 60.796 557.52 60.684C557.632 60.572 557.776 60.508 557.952 60.492C558.144 60.46 558.344 60.516 558.552 60.66C559.064 60.98 559.64 61.22 560.28 61.38C560.936 61.54 561.584 61.62 562.224 61.62C563.392 61.62 564.224 61.452 564.72 61.116C565.216 60.764 565.464 60.268 565.464 59.628C565.464 59.004 565.248 58.532 564.816 58.212C564.4 57.892 563.808 57.732 563.04 57.732H560.952C560.696 57.732 560.488 57.668 560.328 57.54C560.184 57.396 560.112 57.212 560.112 56.988C560.112 56.764 560.184 56.588 560.328 56.46C560.488 56.332 560.696 56.268 560.952 56.268H562.8C563.488 56.268 564.032 56.108 564.432 55.788C564.848 55.468 565.056 55.028 565.056 54.468C565.056 53.876 564.84 53.412 564.408 53.076C563.976 52.724 563.248 52.548 562.224 52.548C561.6 52.548 561 52.62 560.424 52.764C559.848 52.892 559.296 53.108 558.768 53.412C558.48 53.556 558.24 53.604 558.048 53.556C557.856 53.492 557.712 53.372 557.616 53.196C557.52 53.02 557.504 52.828 557.568 52.62C557.632 52.412 557.784 52.244 558.024 52.116C558.648 51.748 559.336 51.476 560.088 51.3C560.84 51.124 561.632 51.036 562.464 51.036C563.936 51.036 565.04 51.324 565.776 51.9C566.528 52.476 566.904 53.284 566.904 54.324C566.904 55.06 566.648 55.684 566.136 56.196C565.624 56.708 564.944 57.012 564.096 57.108V56.796C565.072 56.828 565.848 57.108 566.424 57.636C567.016 58.148 567.312 58.836 567.312 59.7C567.312 60.74 566.888 61.572 566.04 62.196C565.192 62.82 563.936 63.132 562.272 63.132ZM574.033 63.132C573.233 63.132 572.513 62.98 571.873 62.676C571.249 62.356 570.753 61.924 570.385 61.38C570.017 60.836 569.833 60.228 569.833 59.556C569.833 58.692 570.049 58.012 570.481 57.516C570.929 57.02 571.657 56.668 572.665 56.46C573.689 56.252 575.081 56.148 576.841 56.148H577.921V57.42H576.865C575.569 57.42 574.545 57.484 573.793 57.612C573.057 57.724 572.537 57.924 572.233 58.212C571.945 58.5 571.801 58.908 571.801 59.436C571.801 60.092 572.025 60.628 572.473 61.044C572.937 61.46 573.561 61.668 574.345 61.668C574.985 61.668 575.545 61.516 576.025 61.212C576.521 60.908 576.905 60.492 577.177 59.964C577.465 59.436 577.609 58.828 577.609 58.14V55.404C577.609 54.412 577.409 53.7 577.009 53.268C576.609 52.82 575.953 52.596 575.041 52.596C574.481 52.596 573.921 52.668 573.361 52.812C572.801 52.956 572.209 53.188 571.585 53.508C571.361 53.62 571.169 53.66 571.009 53.628C570.849 53.58 570.721 53.492 570.625 53.364C570.529 53.236 570.473 53.092 570.457 52.932C570.441 52.756 570.473 52.588 570.553 52.428C570.649 52.268 570.793 52.14 570.985 52.044C571.689 51.692 572.385 51.436 573.073 51.276C573.761 51.116 574.417 51.036 575.041 51.036C576.049 51.036 576.881 51.204 577.537 51.54C578.193 51.86 578.681 52.356 579.001 53.028C579.321 53.684 579.481 54.532 579.481 55.572V62.076C579.481 62.396 579.401 62.644 579.241 62.82C579.097 62.996 578.881 63.084 578.593 63.084C578.289 63.084 578.057 62.996 577.897 62.82C577.737 62.644 577.657 62.396 577.657 62.076V60.204H577.873C577.745 60.812 577.497 61.332 577.129 61.764C576.777 62.196 576.337 62.532 575.809 62.772C575.281 63.012 574.689 63.132 574.033 63.132ZM592.227 63.084C591.923 63.084 591.683 62.996 591.507 62.82C591.347 62.644 591.267 62.396 591.267 62.076V52.812H586.563V54.3C586.563 55.548 586.499 56.652 586.371 57.612C586.259 58.556 586.075 59.372 585.819 60.06C585.563 60.748 585.219 61.324 584.787 61.788C584.371 62.252 583.851 62.644 583.227 62.964C583.019 63.06 582.819 63.084 582.627 63.036C582.435 63.004 582.275 62.932 582.147 62.82C582.035 62.692 581.955 62.54 581.907 62.364C581.875 62.188 581.899 62.012 581.979 61.836C582.059 61.66 582.203 61.516 582.411 61.404C582.875 61.148 583.251 60.828 583.539 60.444C583.843 60.06 584.083 59.58 584.259 59.004C584.435 58.428 584.555 57.756 584.619 56.988C584.699 56.204 584.739 55.284 584.739 54.228V52.356C584.739 51.988 584.835 51.716 585.027 51.54C585.219 51.348 585.491 51.252 585.843 51.252H592.107C592.459 51.252 592.731 51.348 592.923 51.54C593.115 51.716 593.211 51.988 593.211 52.356V62.076C593.211 62.396 593.123 62.644 592.947 62.82C592.787 62.996 592.547 63.084 592.227 63.084ZM598.112 65.196C597.952 65.404 597.784 65.524 597.608 65.556C597.432 65.588 597.28 65.556 597.152 65.46C597.024 65.364 596.952 65.228 596.936 65.052C596.936 64.876 597.016 64.684 597.176 64.476C597.432 64.14 597.608 63.796 597.704 63.444C597.8 63.108 597.848 62.796 597.848 62.508L597.944 63.012C597.528 63.012 597.192 62.892 596.936 62.652C596.696 62.396 596.576 62.076 596.576 61.692C596.576 61.308 596.688 60.996 596.912 60.756C597.152 60.5 597.464 60.372 597.848 60.372C598.264 60.372 598.592 60.516 598.832 60.804C599.072 61.076 599.192 61.476 599.192 62.004C599.192 62.34 599.16 62.684 599.096 63.036C599.032 63.404 598.92 63.772 598.76 64.14C598.6 64.508 598.384 64.86 598.112 65.196ZM114.641 85.132C113.473 85.132 112.465 84.876 111.617 84.364C110.769 83.852 110.113 83.14 109.649 82.228C109.201 81.3 108.977 80.228 108.977 79.012C108.977 78.084 109.105 77.252 109.361 76.516C109.617 75.78 109.993 75.156 110.489 74.644C110.985 74.116 111.577 73.716 112.265 73.444C112.969 73.172 113.761 73.036 114.641 73.036C115.217 73.036 115.817 73.124 116.441 73.3C117.065 73.476 117.633 73.78 118.145 74.212C118.305 74.324 118.409 74.46 118.457 74.62C118.505 74.78 118.505 74.94 118.457 75.1C118.409 75.244 118.329 75.372 118.217 75.484C118.105 75.58 117.961 75.636 117.785 75.652C117.625 75.668 117.457 75.612 117.281 75.484C116.865 75.164 116.441 74.94 116.009 74.812C115.577 74.684 115.161 74.62 114.761 74.62C114.137 74.62 113.593 74.724 113.129 74.932C112.665 75.124 112.273 75.404 111.953 75.772C111.633 76.14 111.385 76.596 111.209 77.14C111.049 77.684 110.969 78.316 110.969 79.036C110.969 80.428 111.297 81.532 111.953 82.348C112.609 83.148 113.545 83.548 114.761 83.548C115.161 83.548 115.569 83.484 115.985 83.356C116.417 83.228 116.849 83.004 117.281 82.684C117.457 82.556 117.625 82.5 117.785 82.516C117.945 82.532 118.081 82.596 118.193 82.708C118.305 82.804 118.377 82.932 118.409 83.092C118.457 83.252 118.457 83.412 118.409 83.572C118.361 83.716 118.257 83.844 118.097 83.956C117.585 84.372 117.025 84.676 116.417 84.868C115.809 85.044 115.217 85.132 114.641 85.132ZM121.905 85.084C121.729 85.084 121.569 85.044 121.425 84.964C121.297 84.9 121.193 84.788 121.113 84.628C121.049 84.468 121.017 84.268 121.017 84.028V74.044C121.017 73.724 121.097 73.484 121.257 73.324C121.417 73.164 121.633 73.084 121.905 73.084C122.193 73.084 122.409 73.164 122.553 73.324C122.713 73.484 122.793 73.724 122.793 74.044V83.068H122.193L129.177 73.708C129.305 73.532 129.457 73.388 129.633 73.276C129.809 73.148 130.033 73.084 130.305 73.084C130.497 73.084 130.657 73.116 130.785 73.18C130.913 73.244 131.009 73.356 131.073 73.516C131.153 73.66 131.193 73.86 131.193 74.116V84.124C131.193 84.428 131.113 84.668 130.953 84.844C130.809 85.004 130.593 85.084 130.305 85.084C130.017 85.084 129.793 85.004 129.633 84.844C129.489 84.668 129.417 84.428 129.417 84.124V75.076H130.017L123.009 84.46C122.897 84.62 122.753 84.764 122.577 84.892C122.417 85.02 122.193 85.084 121.905 85.084ZM136.017 85.084C135.697 85.084 135.449 84.996 135.273 84.82C135.113 84.628 135.033 84.364 135.033 84.028V74.356C135.033 73.988 135.129 73.716 135.321 73.54C135.513 73.348 135.785 73.252 136.137 73.252H142.497C142.801 73.252 143.025 73.316 143.169 73.444C143.313 73.572 143.385 73.764 143.385 74.02C143.385 74.276 143.313 74.476 143.169 74.62C143.025 74.748 142.801 74.812 142.497 74.812H136.977V84.028C136.977 84.732 136.657 85.084 136.017 85.084ZM149.158 85.132C148.358 85.132 147.638 84.98 146.998 84.676C146.374 84.356 145.878 83.924 145.51 83.38C145.142 82.836 144.958 82.228 144.958 81.556C144.958 80.692 145.174 80.012 145.606 79.516C146.054 79.02 146.782 78.668 147.79 78.46C148.814 78.252 150.206 78.148 151.966 78.148H153.046V79.42H151.99C150.694 79.42 149.67 79.484 148.918 79.612C148.182 79.724 147.662 79.924 147.358 80.212C147.07 80.5 146.926 80.908 146.926 81.436C146.926 82.092 147.15 82.628 147.598 83.044C148.062 83.46 148.686 83.668 149.47 83.668C150.11 83.668 150.67 83.516 151.15 83.212C151.646 82.908 152.03 82.492 152.302 81.964C152.59 81.436 152.734 80.828 152.734 80.14V77.404C152.734 76.412 152.534 75.7 152.134 75.268C151.734 74.82 151.078 74.596 150.166 74.596C149.606 74.596 149.046 74.668 148.486 74.812C147.926 74.956 147.334 75.188 146.71 75.508C146.486 75.62 146.294 75.66 146.134 75.628C145.974 75.58 145.846 75.492 145.75 75.364C145.654 75.236 145.598 75.092 145.582 74.932C145.566 74.756 145.598 74.588 145.678 74.428C145.774 74.268 145.918 74.14 146.11 74.044C146.814 73.692 147.51 73.436 148.198 73.276C148.886 73.116 149.542 73.036 150.166 73.036C151.174 73.036 152.006 73.204 152.662 73.54C153.318 73.86 153.806 74.356 154.126 75.028C154.446 75.684 154.606 76.532 154.606 77.572V84.076C154.606 84.396 154.526 84.644 154.366 84.82C154.222 84.996 154.006 85.084 153.718 85.084C153.414 85.084 153.182 84.996 153.022 84.82C152.862 84.644 152.782 84.396 152.782 84.076V82.204H152.998C152.87 82.812 152.622 83.332 152.254 83.764C151.902 84.196 151.462 84.532 150.934 84.772C150.406 85.012 149.814 85.132 149.158 85.132ZM159.384 89.404C159.064 89.404 158.824 89.316 158.664 89.14C158.504 88.98 158.424 88.74 158.424 88.42V74.068C158.424 73.748 158.504 73.508 158.664 73.348C158.824 73.172 159.056 73.084 159.36 73.084C159.68 73.084 159.92 73.172 160.08 73.348C160.256 73.508 160.344 73.748 160.344 74.068V76.348L160.08 76.012C160.336 75.1 160.84 74.38 161.592 73.852C162.36 73.308 163.272 73.036 164.328 73.036C165.368 73.036 166.272 73.284 167.04 73.78C167.824 74.26 168.424 74.956 168.84 75.868C169.272 76.764 169.488 77.836 169.488 79.084C169.488 80.316 169.272 81.388 168.84 82.3C168.424 83.196 167.832 83.892 167.064 84.388C166.296 84.884 165.384 85.132 164.328 85.132C163.272 85.132 162.368 84.868 161.616 84.34C160.864 83.796 160.352 83.076 160.08 82.18H160.368V88.42C160.368 88.74 160.28 88.98 160.104 89.14C159.928 89.316 159.688 89.404 159.384 89.404ZM163.92 83.572C164.656 83.572 165.288 83.396 165.816 83.044C166.36 82.692 166.776 82.18 167.064 81.508C167.368 80.836 167.52 80.028 167.52 79.084C167.52 77.628 167.192 76.516 166.536 75.748C165.896 74.98 165.024 74.596 163.92 74.596C163.2 74.596 162.568 74.772 162.024 75.124C161.48 75.46 161.056 75.964 160.752 76.636C160.464 77.292 160.32 78.108 160.32 79.084C160.32 80.524 160.648 81.636 161.304 82.42C161.96 83.188 162.832 83.572 163.92 83.572ZM173.611 85.084C173.291 85.084 173.043 84.996 172.867 84.82C172.707 84.644 172.627 84.396 172.627 84.076V74.068C172.627 73.732 172.707 73.484 172.867 73.324C173.043 73.164 173.291 73.084 173.611 73.084C173.915 73.084 174.147 73.164 174.307 73.324C174.483 73.484 174.571 73.732 174.571 74.068V78.1H180.931V74.068C180.931 73.732 181.011 73.484 181.171 73.324C181.347 73.164 181.587 73.084 181.891 73.084C182.195 73.084 182.435 73.164 182.611 73.324C182.787 73.484 182.875 73.732 182.875 74.068V84.076C182.875 84.396 182.787 84.644 182.611 84.82C182.435 84.996 182.195 85.084 181.891 85.084C181.587 85.084 181.347 84.996 181.171 84.82C181.011 84.644 180.931 84.396 180.931 84.076V79.684H174.571V84.076C174.571 84.396 174.491 84.644 174.331 84.82C174.171 84.996 173.931 85.084 173.611 85.084ZM190.408 85.132C189.608 85.132 188.888 84.98 188.248 84.676C187.624 84.356 187.128 83.924 186.76 83.38C186.392 82.836 186.208 82.228 186.208 81.556C186.208 80.692 186.424 80.012 186.856 79.516C187.304 79.02 188.032 78.668 189.04 78.46C190.064 78.252 191.456 78.148 193.216 78.148H194.296V79.42H193.24C191.944 79.42 190.92 79.484 190.168 79.612C189.432 79.724 188.912 79.924 188.608 80.212C188.32 80.5 188.176 80.908 188.176 81.436C188.176 82.092 188.4 82.628 188.848 83.044C189.312 83.46 189.936 83.668 190.72 83.668C191.36 83.668 191.92 83.516 192.4 83.212C192.896 82.908 193.28 82.492 193.552 81.964C193.84 81.436 193.984 80.828 193.984 80.14V77.404C193.984 76.412 193.784 75.7 193.384 75.268C192.984 74.82 192.328 74.596 191.416 74.596C190.856 74.596 190.296 74.668 189.736 74.812C189.176 74.956 188.584 75.188 187.96 75.508C187.736 75.62 187.544 75.66 187.384 75.628C187.224 75.58 187.096 75.492 187 75.364C186.904 75.236 186.848 75.092 186.832 74.932C186.816 74.756 186.848 74.588 186.928 74.428C187.024 74.268 187.168 74.14 187.36 74.044C188.064 73.692 188.76 73.436 189.448 73.276C190.136 73.116 190.792 73.036 191.416 73.036C192.424 73.036 193.256 73.204 193.912 73.54C194.568 73.86 195.056 74.356 195.376 75.028C195.696 75.684 195.856 76.532 195.856 77.572V84.076C195.856 84.396 195.776 84.644 195.616 84.82C195.472 84.996 195.256 85.084 194.968 85.084C194.664 85.084 194.432 84.996 194.272 84.82C194.112 84.644 194.032 84.396 194.032 84.076V82.204H194.248C194.12 82.812 193.872 83.332 193.504 83.764C193.152 84.196 192.712 84.532 192.184 84.772C191.656 85.012 191.064 85.132 190.408 85.132ZM207.834 85.084C207.53 85.084 207.298 85.004 207.138 84.844C206.978 84.668 206.898 84.436 206.898 84.148V80.476H205.194C204.57 80.476 204.034 80.636 203.586 80.956C203.138 81.276 202.778 81.668 202.506 82.132L201.138 84.532C200.994 84.772 200.826 84.932 200.634 85.012C200.442 85.092 200.25 85.108 200.058 85.06C199.866 85.012 199.698 84.916 199.554 84.772C199.41 84.628 199.322 84.46 199.29 84.268C199.258 84.06 199.306 83.844 199.434 83.62L200.586 81.676C200.858 81.196 201.218 80.796 201.666 80.476C202.114 80.156 202.57 79.996 203.034 79.996H203.346V80.212C202.034 80.212 201.018 79.908 200.298 79.3C199.578 78.692 199.218 77.844 199.218 76.756C199.218 76.036 199.37 75.42 199.674 74.908C199.994 74.38 200.474 73.972 201.114 73.684C201.754 73.396 202.546 73.252 203.49 73.252H207.714C208.05 73.252 208.306 73.34 208.482 73.516C208.658 73.692 208.746 73.94 208.746 74.26V84.148C208.746 84.436 208.658 84.668 208.482 84.844C208.322 85.004 208.106 85.084 207.834 85.084ZM203.85 79.06H206.898V74.62H203.85C202.906 74.62 202.21 74.82 201.762 75.22C201.314 75.604 201.09 76.14 201.09 76.828C201.09 77.532 201.314 78.084 201.762 78.484C202.21 78.868 202.906 79.06 203.85 79.06ZM219.759 85.084C219.439 85.084 219.191 84.996 219.015 84.82C218.855 84.644 218.775 84.396 218.775 84.076V74.14C218.775 73.804 218.855 73.556 219.015 73.396C219.191 73.22 219.439 73.132 219.759 73.132C220.063 73.132 220.295 73.22 220.455 73.396C220.631 73.556 220.719 73.804 220.719 74.14V78.124H222.903L226.455 73.564C226.615 73.372 226.791 73.252 226.983 73.204C227.175 73.14 227.351 73.14 227.511 73.204C227.687 73.252 227.823 73.348 227.919 73.492C228.031 73.62 228.087 73.78 228.087 73.972C228.087 74.164 228.015 74.364 227.871 74.572L224.487 78.916L223.935 78.292C224.383 78.34 224.775 78.452 225.111 78.628C225.447 78.804 225.767 79.068 226.071 79.42C226.375 79.772 226.703 80.26 227.055 80.884L228.783 83.74C228.895 83.964 228.935 84.164 228.903 84.34C228.887 84.516 228.807 84.676 228.663 84.82C228.519 84.948 228.351 85.028 228.159 85.06C227.983 85.092 227.807 85.068 227.631 84.988C227.455 84.908 227.295 84.764 227.151 84.556L225.255 81.388C224.983 80.94 224.727 80.596 224.487 80.356C224.247 80.1 223.975 79.924 223.671 79.828C223.367 79.732 222.991 79.684 222.543 79.684H220.719V84.076C220.719 84.396 220.631 84.644 220.455 84.82C220.295 84.996 220.063 85.084 219.759 85.084ZM236.28 85.132C235.144 85.132 234.16 84.884 233.328 84.388C232.496 83.892 231.848 83.196 231.384 82.3C230.936 81.388 230.712 80.316 230.712 79.084C230.712 78.156 230.84 77.324 231.096 76.588C231.352 75.836 231.728 75.196 232.224 74.668C232.72 74.14 233.304 73.74 233.976 73.468C234.664 73.18 235.432 73.036 236.28 73.036C237.416 73.036 238.4 73.284 239.232 73.78C240.064 74.276 240.704 74.98 241.152 75.892C241.616 76.788 241.848 77.852 241.848 79.084C241.848 80.012 241.72 80.844 241.464 81.58C241.208 82.316 240.832 82.956 240.336 83.5C239.84 84.028 239.248 84.436 238.56 84.724C237.888 84.996 237.128 85.132 236.28 85.132ZM236.28 83.572C237 83.572 237.632 83.396 238.176 83.044C238.72 82.692 239.136 82.18 239.424 81.508C239.728 80.836 239.88 80.028 239.88 79.084C239.88 77.628 239.552 76.516 238.896 75.748C238.256 74.98 237.384 74.596 236.28 74.596C235.544 74.596 234.904 74.772 234.36 75.124C233.832 75.46 233.416 75.964 233.112 76.636C232.824 77.292 232.68 78.108 232.68 79.084C232.68 80.524 233.008 81.636 233.664 82.42C234.32 83.188 235.192 83.572 236.28 83.572ZM245.866 85.084C245.594 85.084 245.378 85.004 245.218 84.844C245.074 84.668 245.002 84.436 245.002 84.148V74.116C245.002 73.892 245.034 73.708 245.098 73.564C245.162 73.404 245.258 73.284 245.386 73.204C245.514 73.124 245.674 73.084 245.866 73.084C246.058 73.084 246.218 73.116 246.346 73.18C246.474 73.228 246.586 73.308 246.682 73.42C246.778 73.516 246.858 73.636 246.922 73.78L251.002 81.052L255.082 73.78C255.146 73.636 255.226 73.516 255.322 73.42C255.418 73.308 255.53 73.228 255.658 73.18C255.786 73.116 255.938 73.084 256.114 73.084C256.402 73.084 256.618 73.172 256.762 73.348C256.906 73.508 256.978 73.764 256.978 74.116V84.148C256.978 84.436 256.906 84.668 256.762 84.844C256.618 85.004 256.402 85.084 256.114 85.084C255.842 85.084 255.626 85.004 255.466 84.844C255.322 84.668 255.25 84.436 255.25 84.148V75.484H255.802L251.698 82.684C251.634 82.812 251.546 82.924 251.434 83.02C251.322 83.1 251.178 83.14 251.002 83.14C250.81 83.14 250.658 83.092 250.546 82.996C250.45 82.9 250.362 82.796 250.282 82.684L246.178 75.484H246.73V84.148C246.73 84.436 246.65 84.668 246.49 84.844C246.346 85.004 246.138 85.084 245.866 85.084ZM261.806 85.084C261.486 85.084 261.238 84.996 261.062 84.82C260.902 84.644 260.822 84.396 260.822 84.076V74.068C260.822 73.732 260.902 73.484 261.062 73.324C261.238 73.164 261.486 73.084 261.806 73.084C262.11 73.084 262.342 73.164 262.502 73.324C262.678 73.484 262.766 73.732 262.766 74.068V78.1H269.126V74.068C269.126 73.732 269.206 73.484 269.366 73.324C269.542 73.164 269.782 73.084 270.086 73.084C270.39 73.084 270.63 73.164 270.806 73.324C270.982 73.484 271.07 73.732 271.07 74.068V84.076C271.07 84.396 270.982 84.644 270.806 84.82C270.63 84.996 270.39 85.084 270.086 85.084C269.782 85.084 269.542 84.996 269.366 84.82C269.206 84.644 269.126 84.396 269.126 84.076V79.684H262.766V84.076C262.766 84.396 262.686 84.644 262.526 84.82C262.366 84.996 262.126 85.084 261.806 85.084ZM278.604 85.132C277.804 85.132 277.084 84.98 276.444 84.676C275.82 84.356 275.324 83.924 274.956 83.38C274.588 82.836 274.404 82.228 274.404 81.556C274.404 80.692 274.62 80.012 275.052 79.516C275.5 79.02 276.228 78.668 277.236 78.46C278.26 78.252 279.652 78.148 281.412 78.148H282.492V79.42H281.436C280.14 79.42 279.116 79.484 278.364 79.612C277.628 79.724 277.108 79.924 276.804 80.212C276.516 80.5 276.372 80.908 276.372 81.436C276.372 82.092 276.596 82.628 277.044 83.044C277.508 83.46 278.132 83.668 278.916 83.668C279.556 83.668 280.116 83.516 280.596 83.212C281.092 82.908 281.476 82.492 281.748 81.964C282.036 81.436 282.18 80.828 282.18 80.14V77.404C282.18 76.412 281.98 75.7 281.58 75.268C281.18 74.82 280.524 74.596 279.612 74.596C279.052 74.596 278.492 74.668 277.932 74.812C277.372 74.956 276.78 75.188 276.156 75.508C275.932 75.62 275.74 75.66 275.58 75.628C275.42 75.58 275.292 75.492 275.196 75.364C275.1 75.236 275.044 75.092 275.028 74.932C275.012 74.756 275.044 74.588 275.124 74.428C275.22 74.268 275.364 74.14 275.556 74.044C276.26 73.692 276.956 73.436 277.644 73.276C278.332 73.116 278.988 73.036 279.612 73.036C280.62 73.036 281.452 73.204 282.108 73.54C282.764 73.86 283.252 74.356 283.572 75.028C283.892 75.684 284.052 76.532 284.052 77.572V84.076C284.052 84.396 283.972 84.644 283.812 84.82C283.668 84.996 283.452 85.084 283.164 85.084C282.86 85.084 282.628 84.996 282.468 84.82C282.308 84.644 282.228 84.396 282.228 84.076V82.204H282.444C282.316 82.812 282.068 83.332 281.7 83.764C281.348 84.196 280.908 84.532 280.38 84.772C279.852 85.012 279.26 85.132 278.604 85.132ZM291.253 85.084C290.949 85.084 290.709 84.996 290.533 84.82C290.357 84.644 290.269 84.396 290.269 84.076V74.812H286.765C286.157 74.812 285.853 74.548 285.853 74.02C285.853 73.78 285.933 73.596 286.093 73.468C286.253 73.324 286.477 73.252 286.765 73.252H295.741C296.333 73.252 296.629 73.508 296.629 74.02C296.629 74.276 296.549 74.476 296.389 74.62C296.245 74.748 296.029 74.812 295.741 74.812H292.213V84.076C292.213 84.396 292.133 84.644 291.973 84.82C291.829 84.996 291.589 85.084 291.253 85.084ZM302.205 85.132C301.405 85.132 300.685 84.98 300.045 84.676C299.421 84.356 298.925 83.924 298.557 83.38C298.189 82.836 298.005 82.228 298.005 81.556C298.005 80.692 298.221 80.012 298.653 79.516C299.101 79.02 299.829 78.668 300.837 78.46C301.861 78.252 303.253 78.148 305.013 78.148H306.093V79.42H305.037C303.741 79.42 302.717 79.484 301.965 79.612C301.229 79.724 300.709 79.924 300.405 80.212C300.117 80.5 299.973 80.908 299.973 81.436C299.973 82.092 300.197 82.628 300.645 83.044C301.109 83.46 301.733 83.668 302.517 83.668C303.157 83.668 303.717 83.516 304.197 83.212C304.693 82.908 305.077 82.492 305.349 81.964C305.637 81.436 305.781 80.828 305.781 80.14V77.404C305.781 76.412 305.581 75.7 305.181 75.268C304.781 74.82 304.125 74.596 303.213 74.596C302.653 74.596 302.093 74.668 301.533 74.812C300.973 74.956 300.381 75.188 299.757 75.508C299.533 75.62 299.341 75.66 299.181 75.628C299.021 75.58 298.893 75.492 298.797 75.364C298.701 75.236 298.645 75.092 298.629 74.932C298.613 74.756 298.645 74.588 298.725 74.428C298.821 74.268 298.965 74.14 299.157 74.044C299.861 73.692 300.557 73.436 301.245 73.276C301.933 73.116 302.589 73.036 303.213 73.036C304.221 73.036 305.053 73.204 305.709 73.54C306.365 73.86 306.853 74.356 307.173 75.028C307.493 75.684 307.653 76.532 307.653 77.572V84.076C307.653 84.396 307.573 84.644 307.413 84.82C307.269 84.996 307.053 85.084 306.765 85.084C306.461 85.084 306.229 84.996 306.069 84.82C305.909 84.644 305.829 84.396 305.829 84.076V82.204H306.045C305.917 82.812 305.669 83.332 305.301 83.764C304.949 84.196 304.509 84.532 303.981 84.772C303.453 85.012 302.861 85.132 302.205 85.132ZM310.847 85.732C310.767 85.94 310.655 86.092 310.511 86.188C310.383 86.284 310.231 86.332 310.055 86.332C309.879 86.332 309.719 86.284 309.575 86.188C309.447 86.108 309.351 85.988 309.287 85.828C309.223 85.668 309.223 85.484 309.287 85.276L314.999 67.564C315.079 67.356 315.191 67.204 315.335 67.108C315.479 67.012 315.631 66.964 315.791 66.964C315.967 66.964 316.119 67.012 316.247 67.108C316.391 67.188 316.487 67.308 316.535 67.468C316.599 67.628 316.599 67.812 316.535 68.02L310.847 85.732ZM317.798 85.084C317.478 85.084 317.23 84.996 317.054 84.82C316.894 84.644 316.814 84.396 316.814 84.076V74.14C316.814 73.804 316.894 73.556 317.054 73.396C317.23 73.22 317.478 73.132 317.798 73.132C318.102 73.132 318.334 73.22 318.494 73.396C318.67 73.556 318.758 73.804 318.758 74.14V78.124H320.942L324.494 73.564C324.654 73.372 324.83 73.252 325.022 73.204C325.214 73.14 325.39 73.14 325.55 73.204C325.726 73.252 325.862 73.348 325.958 73.492C326.07 73.62 326.126 73.78 326.126 73.972C326.126 74.164 326.054 74.364 325.91 74.572L322.526 78.916L321.974 78.292C322.422 78.34 322.814 78.452 323.15 78.628C323.486 78.804 323.806 79.068 324.11 79.42C324.414 79.772 324.742 80.26 325.094 80.884L326.822 83.74C326.934 83.964 326.974 84.164 326.942 84.34C326.926 84.516 326.846 84.676 326.702 84.82C326.558 84.948 326.39 85.028 326.198 85.06C326.022 85.092 325.846 85.068 325.67 84.988C325.494 84.908 325.334 84.764 325.19 84.556L323.294 81.388C323.022 80.94 322.766 80.596 322.526 80.356C322.286 80.1 322.014 79.924 321.71 79.828C321.406 79.732 321.03 79.684 320.582 79.684H318.758V84.076C318.758 84.396 318.67 84.644 318.494 84.82C318.334 84.996 318.102 85.084 317.798 85.084ZM333.143 85.132C332.343 85.132 331.623 84.98 330.983 84.676C330.359 84.356 329.863 83.924 329.495 83.38C329.127 82.836 328.943 82.228 328.943 81.556C328.943 80.692 329.159 80.012 329.591 79.516C330.039 79.02 330.767 78.668 331.775 78.46C332.799 78.252 334.191 78.148 335.951 78.148H337.031V79.42H335.975C334.679 79.42 333.655 79.484 332.903 79.612C332.167 79.724 331.647 79.924 331.343 80.212C331.055 80.5 330.911 80.908 330.911 81.436C330.911 82.092 331.135 82.628 331.583 83.044C332.047 83.46 332.671 83.668 333.455 83.668C334.095 83.668 334.655 83.516 335.135 83.212C335.631 82.908 336.015 82.492 336.287 81.964C336.575 81.436 336.719 80.828 336.719 80.14V77.404C336.719 76.412 336.519 75.7 336.119 75.268C335.719 74.82 335.063 74.596 334.151 74.596C333.591 74.596 333.031 74.668 332.471 74.812C331.911 74.956 331.319 75.188 330.695 75.508C330.471 75.62 330.279 75.66 330.119 75.628C329.959 75.58 329.831 75.492 329.735 75.364C329.639 75.236 329.583 75.092 329.567 74.932C329.551 74.756 329.583 74.588 329.663 74.428C329.759 74.268 329.903 74.14 330.095 74.044C330.799 73.692 331.495 73.436 332.183 73.276C332.871 73.116 333.527 73.036 334.151 73.036C335.159 73.036 335.991 73.204 336.647 73.54C337.303 73.86 337.791 74.356 338.111 75.028C338.431 75.684 338.591 76.532 338.591 77.572V84.076C338.591 84.396 338.511 84.644 338.351 84.82C338.207 84.996 337.991 85.084 337.703 85.084C337.399 85.084 337.167 84.996 337.007 84.82C336.847 84.644 336.767 84.396 336.767 84.076V82.204H336.983C336.855 82.812 336.607 83.332 336.239 83.764C335.887 84.196 335.447 84.532 334.919 84.772C334.391 85.012 333.799 85.132 333.143 85.132ZM351.336 85.084C351.032 85.084 350.792 84.996 350.616 84.82C350.456 84.644 350.376 84.396 350.376 84.076V74.812H345.672V76.3C345.672 77.548 345.608 78.652 345.48 79.612C345.368 80.556 345.184 81.372 344.928 82.06C344.672 82.748 344.328 83.324 343.896 83.788C343.48 84.252 342.96 84.644 342.336 84.964C342.128 85.06 341.928 85.084 341.736 85.036C341.544 85.004 341.384 84.932 341.256 84.82C341.144 84.692 341.064 84.54 341.016 84.364C340.984 84.188 341.008 84.012 341.088 83.836C341.168 83.66 341.312 83.516 341.52 83.404C341.984 83.148 342.36 82.828 342.648 82.444C342.952 82.06 343.192 81.58 343.368 81.004C343.544 80.428 343.664 79.756 343.728 78.988C343.808 78.204 343.848 77.284 343.848 76.228V74.356C343.848 73.988 343.944 73.716 344.136 73.54C344.328 73.348 344.6 73.252 344.952 73.252H351.216C351.568 73.252 351.84 73.348 352.032 73.54C352.224 73.716 352.32 73.988 352.32 74.356V84.076C352.32 84.396 352.232 84.644 352.056 84.82C351.896 84.996 351.656 85.084 351.336 85.084ZM357.174 84.916C356.854 84.916 356.606 84.828 356.43 84.652C356.254 84.476 356.166 84.228 356.166 83.908V74.068C356.166 73.732 356.246 73.484 356.406 73.324C356.582 73.164 356.83 73.084 357.15 73.084C357.454 73.084 357.686 73.164 357.846 73.324C358.022 73.484 358.11 73.732 358.11 74.068V77.404H361.638C363.126 77.404 364.254 77.732 365.022 78.388C365.79 79.028 366.174 79.94 366.174 81.124C366.174 81.908 365.99 82.588 365.622 83.164C365.27 83.724 364.758 84.156 364.086 84.46C363.43 84.764 362.614 84.916 361.638 84.916H357.174ZM358.11 83.524H361.446C362.358 83.524 363.062 83.332 363.558 82.948C364.054 82.548 364.302 81.948 364.302 81.148C364.302 80.332 364.054 79.74 363.558 79.372C363.062 78.988 362.358 78.796 361.446 78.796H358.11V83.524ZM377.475 85.084C377.171 85.084 376.939 85.004 376.779 84.844C376.619 84.668 376.539 84.436 376.539 84.148V80.476H374.835C374.211 80.476 373.675 80.636 373.227 80.956C372.779 81.276 372.419 81.668 372.147 82.132L370.779 84.532C370.635 84.772 370.467 84.932 370.275 85.012C370.083 85.092 369.891 85.108 369.699 85.06C369.507 85.012 369.339 84.916 369.195 84.772C369.051 84.628 368.963 84.46 368.931 84.268C368.899 84.06 368.947 83.844 369.075 83.62L370.227 81.676C370.499 81.196 370.859 80.796 371.307 80.476C371.755 80.156 372.211 79.996 372.675 79.996H372.987V80.212C371.675 80.212 370.659 79.908 369.939 79.3C369.219 78.692 368.859 77.844 368.859 76.756C368.859 76.036 369.011 75.42 369.315 74.908C369.635 74.38 370.115 73.972 370.755 73.684C371.395 73.396 372.187 73.252 373.131 73.252H377.355C377.691 73.252 377.947 73.34 378.123 73.516C378.299 73.692 378.387 73.94 378.387 74.26V84.148C378.387 84.436 378.299 84.668 378.123 84.844C377.963 85.004 377.747 85.084 377.475 85.084ZM373.491 79.06H376.539V74.62H373.491C372.547 74.62 371.851 74.82 371.403 75.22C370.955 75.604 370.731 76.14 370.731 76.828C370.731 77.532 370.955 78.084 371.403 78.484C371.851 78.868 372.547 79.06 373.491 79.06ZM383.212 85.084C382.892 85.084 382.644 84.996 382.468 84.82C382.308 84.644 382.228 84.396 382.228 84.076V74.068C382.228 73.732 382.308 73.484 382.468 73.324C382.644 73.164 382.892 73.084 383.212 73.084C383.516 73.084 383.748 73.164 383.908 73.324C384.084 73.484 384.172 73.732 384.172 74.068V78.1H390.532V74.068C390.532 73.732 390.612 73.484 390.772 73.324C390.948 73.164 391.188 73.084 391.492 73.084C391.796 73.084 392.036 73.164 392.212 73.324C392.388 73.484 392.476 73.732 392.476 74.068V84.076C392.476 84.396 392.388 84.644 392.212 84.82C392.036 84.996 391.796 85.084 391.492 85.084C391.188 85.084 390.948 84.996 390.772 84.82C390.612 84.644 390.532 84.396 390.532 84.076V79.684H384.172V84.076C384.172 84.396 384.092 84.644 383.932 84.82C383.772 84.996 383.532 85.084 383.212 85.084ZM397.298 85.084C396.978 85.084 396.73 84.996 396.554 84.82C396.394 84.644 396.314 84.396 396.314 84.076V74.068C396.314 73.732 396.394 73.484 396.554 73.324C396.73 73.164 396.978 73.084 397.298 73.084C397.602 73.084 397.834 73.164 397.994 73.324C398.17 73.484 398.258 73.732 398.258 74.068V78.1H404.618V74.068C404.618 73.732 404.698 73.484 404.858 73.324C405.034 73.164 405.274 73.084 405.578 73.084C405.882 73.084 406.122 73.164 406.298 73.324C406.474 73.484 406.562 73.732 406.562 74.068V84.076C406.562 84.396 406.474 84.644 406.298 84.82C406.122 84.996 405.882 85.084 405.578 85.084C405.274 85.084 405.034 84.996 404.858 84.82C404.698 84.644 404.618 84.396 404.618 84.076V79.684H398.258V84.076C398.258 84.396 398.178 84.644 398.018 84.82C397.858 84.996 397.618 85.084 397.298 85.084ZM411.408 84.916C411.088 84.916 410.84 84.828 410.664 84.652C410.488 84.476 410.4 84.228 410.4 83.908V74.068C410.4 73.732 410.48 73.484 410.64 73.324C410.816 73.164 411.064 73.084 411.384 73.084C411.688 73.084 411.92 73.164 412.08 73.324C412.256 73.484 412.344 73.732 412.344 74.068V77.404H415.872C417.36 77.404 418.488 77.732 419.256 78.388C420.024 79.028 420.408 79.94 420.408 81.124C420.408 81.908 420.224 82.588 419.856 83.164C419.504 83.724 418.992 84.156 418.32 84.46C417.664 84.764 416.848 84.916 415.872 84.916H411.408ZM412.344 83.524H415.68C416.592 83.524 417.296 83.332 417.792 82.948C418.288 82.548 418.536 81.948 418.536 81.148C418.536 80.332 418.288 79.74 417.792 79.372C417.296 78.988 416.592 78.796 415.68 78.796H412.344V83.524ZM423.096 85.084C422.792 85.084 422.552 84.996 422.376 84.82C422.216 84.644 422.136 84.396 422.136 84.076V74.068C422.136 73.732 422.216 73.484 422.376 73.324C422.552 73.164 422.792 73.084 423.096 73.084C423.416 73.084 423.656 73.164 423.816 73.324C423.992 73.484 424.08 73.732 424.08 74.068V84.076C424.08 84.748 423.752 85.084 423.096 85.084ZM428.819 85.084C428.643 85.084 428.483 85.044 428.339 84.964C428.211 84.9 428.107 84.788 428.027 84.628C427.963 84.468 427.931 84.268 427.931 84.028V74.044C427.931 73.724 428.011 73.484 428.171 73.324C428.331 73.164 428.547 73.084 428.819 73.084C429.107 73.084 429.323 73.164 429.467 73.324C429.627 73.484 429.707 73.724 429.707 74.044V83.068H429.107L436.091 73.708C436.219 73.532 436.371 73.388 436.547 73.276C436.723 73.148 436.947 73.084 437.219 73.084C437.411 73.084 437.571 73.116 437.699 73.18C437.827 73.244 437.923 73.356 437.987 73.516C438.067 73.66 438.107 73.86 438.107 74.116V84.124C438.107 84.428 438.027 84.668 437.867 84.844C437.723 85.004 437.507 85.084 437.219 85.084C436.931 85.084 436.707 85.004 436.547 84.844C436.403 84.668 436.331 84.428 436.331 84.124V75.076H436.931L429.923 84.46C429.811 84.62 429.667 84.764 429.491 84.892C429.331 85.02 429.107 85.084 428.819 85.084ZM433.019 71.74C432.171 71.74 431.387 71.524 430.667 71.092C429.963 70.66 429.435 70.004 429.083 69.124C429.003 68.884 428.995 68.692 429.059 68.548C429.123 68.388 429.243 68.276 429.419 68.212C429.595 68.148 429.755 68.156 429.899 68.236C430.043 68.3 430.163 68.444 430.259 68.668C430.547 69.276 430.915 69.74 431.363 70.06C431.827 70.364 432.379 70.516 433.019 70.516C433.675 70.516 434.227 70.364 434.675 70.06C435.123 69.74 435.491 69.276 435.779 68.668C435.891 68.444 436.019 68.3 436.163 68.236C436.307 68.156 436.459 68.148 436.619 68.212C436.811 68.276 436.931 68.388 436.979 68.548C437.043 68.692 437.027 68.884 436.931 69.124C436.563 70.004 436.027 70.66 435.323 71.092C434.635 71.524 433.867 71.74 433.019 71.74ZM451.998 85.132C451.166 85.132 450.358 85.036 449.574 84.844C448.79 84.652 448.118 84.372 447.558 84.004C447.366 83.876 447.23 83.732 447.15 83.572C447.086 83.412 447.062 83.252 447.078 83.092C447.094 82.932 447.15 82.796 447.246 82.684C447.358 82.572 447.502 82.508 447.678 82.492C447.87 82.46 448.07 82.516 448.278 82.66C448.79 82.98 449.366 83.22 450.006 83.38C450.662 83.54 451.31 83.62 451.95 83.62C453.118 83.62 453.95 83.452 454.446 83.116C454.942 82.764 455.19 82.268 455.19 81.628C455.19 81.004 454.974 80.532 454.542 80.212C454.126 79.892 453.534 79.732 452.766 79.732H450.678C450.422 79.732 450.214 79.668 450.054 79.54C449.91 79.396 449.838 79.212 449.838 78.988C449.838 78.764 449.91 78.588 450.054 78.46C450.214 78.332 450.422 78.268 450.678 78.268H452.526C453.214 78.268 453.758 78.108 454.158 77.788C454.574 77.468 454.782 77.028 454.782 76.468C454.782 75.876 454.566 75.412 454.134 75.076C453.702 74.724 452.974 74.548 451.95 74.548C451.326 74.548 450.726 74.62 450.15 74.764C449.574 74.892 449.022 75.108 448.494 75.412C448.206 75.556 447.966 75.604 447.774 75.556C447.582 75.492 447.438 75.372 447.342 75.196C447.246 75.02 447.23 74.828 447.294 74.62C447.358 74.412 447.51 74.244 447.75 74.116C448.374 73.748 449.062 73.476 449.814 73.3C450.566 73.124 451.358 73.036 452.19 73.036C453.662 73.036 454.766 73.324 455.502 73.9C456.254 74.476 456.63 75.284 456.63 76.324C456.63 77.06 456.374 77.684 455.862 78.196C455.35 78.708 454.67 79.012 453.822 79.108V78.796C454.798 78.828 455.574 79.108 456.15 79.636C456.742 80.148 457.038 80.836 457.038 81.7C457.038 82.74 456.614 83.572 455.766 84.196C454.918 84.82 453.662 85.132 451.998 85.132ZM463.76 85.132C462.96 85.132 462.24 84.98 461.6 84.676C460.976 84.356 460.48 83.924 460.112 83.38C459.744 82.836 459.56 82.228 459.56 81.556C459.56 80.692 459.776 80.012 460.208 79.516C460.656 79.02 461.384 78.668 462.392 78.46C463.416 78.252 464.808 78.148 466.568 78.148H467.648V79.42H466.592C465.296 79.42 464.272 79.484 463.52 79.612C462.784 79.724 462.264 79.924 461.96 80.212C461.672 80.5 461.528 80.908 461.528 81.436C461.528 82.092 461.752 82.628 462.2 83.044C462.664 83.46 463.288 83.668 464.072 83.668C464.712 83.668 465.272 83.516 465.752 83.212C466.248 82.908 466.632 82.492 466.904 81.964C467.192 81.436 467.336 80.828 467.336 80.14V77.404C467.336 76.412 467.136 75.7 466.736 75.268C466.336 74.82 465.68 74.596 464.768 74.596C464.208 74.596 463.648 74.668 463.088 74.812C462.528 74.956 461.936 75.188 461.312 75.508C461.088 75.62 460.896 75.66 460.736 75.628C460.576 75.58 460.448 75.492 460.352 75.364C460.256 75.236 460.2 75.092 460.184 74.932C460.168 74.756 460.2 74.588 460.28 74.428C460.376 74.268 460.52 74.14 460.712 74.044C461.416 73.692 462.112 73.436 462.8 73.276C463.488 73.116 464.144 73.036 464.768 73.036C465.776 73.036 466.608 73.204 467.264 73.54C467.92 73.86 468.408 74.356 468.728 75.028C469.048 75.684 469.208 76.532 469.208 77.572V84.076C469.208 84.396 469.128 84.644 468.968 84.82C468.824 84.996 468.608 85.084 468.32 85.084C468.016 85.084 467.784 84.996 467.624 84.82C467.464 84.644 467.384 84.396 467.384 84.076V82.204H467.6C467.472 82.812 467.224 83.332 466.856 83.764C466.504 84.196 466.064 84.532 465.536 84.772C465.008 85.012 464.416 85.132 463.76 85.132ZM481.954 85.084C481.65 85.084 481.41 84.996 481.234 84.82C481.074 84.644 480.994 84.396 480.994 84.076V74.812H476.29V76.3C476.29 77.548 476.226 78.652 476.098 79.612C475.986 80.556 475.802 81.372 475.546 82.06C475.29 82.748 474.946 83.324 474.514 83.788C474.098 84.252 473.578 84.644 472.954 84.964C472.746 85.06 472.546 85.084 472.354 85.036C472.162 85.004 472.002 84.932 471.874 84.82C471.762 84.692 471.682 84.54 471.634 84.364C471.602 84.188 471.626 84.012 471.706 83.836C471.786 83.66 471.93 83.516 472.138 83.404C472.602 83.148 472.978 82.828 473.266 82.444C473.57 82.06 473.81 81.58 473.986 81.004C474.162 80.428 474.282 79.756 474.346 78.988C474.426 78.204 474.466 77.284 474.466 76.228V74.356C474.466 73.988 474.562 73.716 474.754 73.54C474.946 73.348 475.218 73.252 475.57 73.252H481.834C482.186 73.252 482.458 73.348 482.65 73.54C482.842 73.716 482.938 73.988 482.938 74.356V84.076C482.938 84.396 482.85 84.644 482.674 84.82C482.514 84.996 482.274 85.084 481.954 85.084Z" fill="black"></path></svg> 