<?xml version="1.0" encoding="utf-8"?> <svg xmlns="http://www.w3.org/2000/svg" xmlns:xlink="http://www.w3.org/1999/xlink" version="1.1" id="Layer_1" x="0px" y="0px" viewBox="0 0 314.2 106.2" style="enable-background:new 0 0 314.2 106.2;" xml:space="preserve"> <style type="text/css"> .st0{clip-path:url(#SVGID_00000007430639960782997080000017917873152523499928_);fill:#0E7C62;} .st1{clip-path:url(#SVGID_00000034056818239630962620000005937465574386498715_);fill:#0E7C62;} .st2{clip-path:url(#SVGID_00000168816005012455777290000014870020552970507180_);fill:#0E7C62;} .st3{clip-path:url(#SVGID_00000061466994508934797470000016250082745188603543_);fill:#0E7C62;} .st4{clip-path:url(#SVGID_00000139983202984101206200000006339639941184248975_);fill:#0E7C62;} .st5{clip-path:url(#SVGID_00000155121207939576567300000014046030450611519395_);fill:#0E7C62;} .st6{clip-path:url(#SVGID_00000150804715955008528230000017198370030659874699_);fill:#0E7C62;} .st7{clip-path:url(#SVGID_00000038396636097464521100000002986284799834135989_);fill:#0E7C62;} .st8{clip-path:url(#SVGID_00000093870807671543457350000014029194567837968532_);fill:#0E7C62;} .st9{display:none;} .st10{display:inline;} .st11{clip-path:url(#SVGID_00000115501774878244327580000005260611926559995058_);} .st12{clip-path:url(#SVGID_00000154401322662827285930000016117183802408376709_);} .st13{clip-path:url(#SVGID_00000027598930053363318660000001531702820326767521_);} .st14{clip-path:url(#SVGID_00000038402492018029012450000014376252833308275900_);} .st15{clip-path:url(#SVGID_00000031910743969854919480000012724218551316245688_);} .st16{clip-path:url(#SVGID_00000042008151034583232730000007707472710424762036_);} .st17{clip-path:url(#SVGID_00000161628200771273872030000011458146998149291699_);} .st18{clip-path:url(#SVGID_00000154416308496317642660000017947406583664179605_);} .st19{clip-path:url(#SVGID_00000099661426854162288730000018034184599712086443_);} .st20{clip-path:url(#SVGID_00000020397334347857603450000014720447549968427433_);} .st21{clip-path:url(#SVGID_00000096042606722998687790000003870050640379779243_);} .st22{clip-path:url(#SVGID_00000099623249900648015120000016291903795354214556_);fill:#0E7C62;} .st23{clip-path:url(#SVGID_00000005225377772939251480000009324899326647536018_);fill:#0E7C62;} .st24{clip-path:url(#SVGID_00000173148326785321852920000005290506832603637437_);fill:#0E7C62;} .st25{clip-path:url(#SVGID_00000098192090264953442000000000044522393513673138_);fill:#0E7C62;} .st26{clip-path:url(#SVGID_00000079481781056039697900000017448080559791587723_);fill:#0E7C62;} .st27{display:none;fill:none;} </style> <g> <g> <defs> <polygon id="SVGID_1_" points="23.8,68.1 13.9,91.6 32.7,91.6 35.1,85.8 25.1,72.8 "></polygon> </defs> <clipPath id="SVGID_00000051358835882416963110000011570736691693342364_"> <use xlink:href="#SVGID_1_" style="overflow:visible;"></use> </clipPath> <polygon style="clip-path:url(#SVGID_00000051358835882416963110000011570736691693342364_);fill:#0E7C62;" points="46.9,79.4 24.9,102.2 2.1,80.3 24.1,57.5 "></polygon> </g> </g> <g> <g> <defs> <polygon id="SVGID_00000101089570808643963200000015980237849028259483_" points="42.4,68.3 44.4,77.6 63.4,77.6 61.8,73.9 "></polygon> </defs> <clipPath id="SVGID_00000036243203775143982260000009952078612947504822_"> <use xlink:href="#SVGID_00000101089570808643963200000015980237849028259483_" style="overflow:visible;"></use> </clipPath> <polygon style="clip-path:url(#SVGID_00000036243203775143982260000009952078612947504822_);fill:#0E7C62;" points="43.1,64.5 65.1,68.6 62.7,81.5 40.7,77.3 "></polygon> </g> </g> <g> <g> <defs> <polygon id="SVGID_00000067945552513582020310000007321127457571334066_" points="46.4,42.9 39.7,30.7 30.7,51.8 39.1,61.7 "></polygon> </defs> <clipPath id="SVGID_00000060031130754011502050000002516219444091489456_"> <use xlink:href="#SVGID_00000067945552513582020310000007321127457571334066_" style="overflow:visible;"></use> </clipPath> <polygon style="clip-path:url(#SVGID_00000060031130754011502050000002516219444091489456_);fill:#0E7C62;" points="19.1,35.9 43.8,24.8 58.1,56.5 33.4,67.6 "></polygon> </g> </g> <g> <g> <defs> <polygon id="SVGID_00000101808145320693997500000015211991694663760002_" points="59.5,69.1 48.8,47.6 42.4,64.2 "></polygon> </defs> <clipPath id="SVGID_00000112617892525164066620000001067341277555412642_"> <use xlink:href="#SVGID_00000101808145320693997500000015211991694663760002_" style="overflow:visible;"></use> </clipPath> <polygon style="clip-path:url(#SVGID_00000112617892525164066620000001067341277555412642_);fill:#0E7C62;" points="51.9,39.2 70.1,59.6 50,77.6 31.7,57.2 "></polygon> </g> </g> <g> <g> <defs> <polygon id="SVGID_00000083803090104709231040000017592727277589671578_" points="66.8,75.5 73.9,91.8 89.5,83.3 "></polygon> </defs> <clipPath id="SVGID_00000135657303059907030950000001782708307014018495_"> <use xlink:href="#SVGID_00000083803090104709231040000017592727277589671578_" style="overflow:visible;"></use> </clipPath> <polygon style="clip-path:url(#SVGID_00000135657303059907030950000001782708307014018495_);fill:#0E7C62;" points="97.5,82.1 80.4,103 58.8,85.3 75.9,64.4 "></polygon> </g> </g> <g> <g> <defs> <polygon id="SVGID_00000004533453851239270790000014903654078932201885_" points="62.7,20.9 58.1,20.9 50.8,42.6 50.8,42.6 50.8,42.7 64.6,70.6 64.6,70.6 64.6,70.6 86.9,78.2 "></polygon> </defs> <clipPath id="SVGID_00000140707872334574087250000013679178912580435115_"> <use xlink:href="#SVGID_00000004533453851239270790000014903654078932201885_" style="overflow:visible;"></use> </clipPath> <polygon style="clip-path:url(#SVGID_00000140707872334574087250000013679178912580435115_);fill:#0E7C62;" points="80.7,7.2 108.6,68.3 57,91.8 29.1,30.8 "></polygon> </g> </g> <g> <g> <defs> <polygon id="SVGID_00000126292927616419791320000004828472605990829480_" points="90.7,87.1 82.5,91.6 92.5,91.6 "></polygon> </defs> <clipPath id="SVGID_00000035490126955345053140000005366143932011039620_"> <use xlink:href="#SVGID_00000126292927616419791320000004828472605990829480_" style="overflow:visible;"></use> </clipPath> <rect x="82.5" y="87.1" style="clip-path:url(#SVGID_00000035490126955345053140000005366143932011039620_);fill:#0E7C62;" width="10" height="4.5"></rect> </g> </g> <g> <g> <defs> <polygon id="SVGID_00000033345813134620955720000002661282483189146509_" points="37.9,66.4 23.2,49 23.2,49 28.6,70.8 42.8,88.7 42.8,88.7 "></polygon> </defs> <clipPath id="SVGID_00000107569238326043948770000001048133946632011920_"> <use xlink:href="#SVGID_00000033345813134620955720000002661282483189146509_" style="overflow:visible;"></use> </clipPath> <polygon style="clip-path:url(#SVGID_00000107569238326043948770000001048133946632011920_);fill:#0E7C62;" points="38,40.5 59.9,78.9 28,97.2 6,58.8 "></polygon> </g> </g> <g> <g> <defs> <polygon id="SVGID_00000145054416416546713270000000682864651473999543_" points="48.2,37.9 55.9,15.4 55.8,15.4 39.6,22.4 39.6,22.4 "></polygon> </defs> <clipPath id="SVGID_00000046327738116643247680000006971608153278742192_"> <use xlink:href="#SVGID_00000145054416416546713270000000682864651473999543_" style="overflow:visible;"></use> </clipPath> <polygon style="clip-path:url(#SVGID_00000046327738116643247680000006971608153278742192_);fill:#0E7C62;" points="41.8,43.4 32,18.4 53.7,9.9 63.5,35 "></polygon> </g> </g> <g class="st9"> <g class="st10"> <defs> <rect id="SVGID_00000145746765001776183540000006313714712587702676_" x="-57" y="-159" width="425.2" height="425.2"></rect> </defs> <clipPath id="SVGID_00000178917773349619812510000003369466521629050559_"> <use xlink:href="#SVGID_00000145746765001776183540000006313714712587702676_" style="overflow:visible;"></use> </clipPath> <path style="clip-path:url(#SVGID_00000178917773349619812510000003369466521629050559_);" d="M113.5,79h0.7 c1.3-1.4,2.2-4.2,2.9-8.2h6V79h1.5v5h-2.4v-2.9h-6.3V84h-2.4C113.5,84,113.5,79,113.5,79z M120.6,72.8h-1.7 c-0.4,2.5-1.1,4.8-2.1,6.2l0,0h3.7L120.6,72.8L120.6,72.8z"></path> </g> <g class="st10"> <defs> <rect id="SVGID_00000001656600516926718950000014323005289139025804_" x="-57" y="-159" width="425.2" height="425.2"></rect> </defs> <clipPath id="SVGID_00000038379303820308125500000000930818830164815489_"> <use xlink:href="#SVGID_00000001656600516926718950000014323005289139025804_" style="overflow:visible;"></use> </clipPath> <polygon style="clip-path:url(#SVGID_00000038379303820308125500000000930818830164815489_);" points="132.8,70.9 139.2,70.9 138.6,72.9 135.3,72.9 135.3,74.9 138.6,74.9 138.6,76.9 135.3,76.9 135.3,79.1 139.2,79.1 139.2,81.1 132.8,81.1 "></polygon> </g> <g class="st10"> <defs> <rect id="SVGID_00000083075522297820996840000007199239410123145883_" x="-57" y="-159" width="425.2" height="425.2"></rect> </defs> <clipPath id="SVGID_00000158031008841947301930000010021709744891213743_"> <use xlink:href="#SVGID_00000083075522297820996840000007199239410123145883_" style="overflow:visible;"></use> </clipPath> <path style="clip-path:url(#SVGID_00000158031008841947301930000010021709744891213743_);" d="M147.8,70.9h3.6 c2.3,0,3.4,1.3,3.4,2.6c0,0.8-0.4,1.6-1.2,2l0,0c1.3,0.3,2,1.3,2,2.4c0,1.5-1.3,3.1-3.8,3.1h-3.9V70.9H147.8z M151,74.9 c0.9,0,1.3-0.5,1.3-1.1s-0.4-1.1-1.4-1.1h-0.7v2.1L151,74.9L151,74.9z M151.3,79.1c1.2,0,1.7-0.4,1.7-1.2c0-0.7-0.6-1.1-1.5-1.1 h-1.2v2.3C150.3,79.1,151.3,79.1,151.3,79.1z"></path> </g> <g class="st10"> <defs> <rect id="SVGID_00000038405168585426849670000005092191483773343646_" x="-57" y="-159" width="425.2" height="425.2"></rect> </defs> <clipPath id="SVGID_00000039112445086428183250000010908260252444562845_"> <use xlink:href="#SVGID_00000038405168585426849670000005092191483773343646_" style="overflow:visible;"></use> </clipPath> <polygon style="clip-path:url(#SVGID_00000039112445086428183250000010908260252444562845_);" points="163.8,70.9 170.3,70.9 169.6,72.9 166.3,72.9 166.3,74.9 169.7,74.9 169.7,76.9 166.3,76.9 166.3,79.1 170.2,79.1 170.2,81.1 163.8,81.1 "></polygon> </g> <g class="st10"> <defs> <rect id="SVGID_00000158013366264143852080000010614566327201509798_" x="-57" y="-159" width="425.2" height="425.2"></rect> </defs> <clipPath id="SVGID_00000059280710498752820710000007531689011446702515_"> <use xlink:href="#SVGID_00000158013366264143852080000010614566327201509798_" style="overflow:visible;"></use> </clipPath> <path style="clip-path:url(#SVGID_00000059280710498752820710000007531689011446702515_);" d="M178,81.1v-2.2c0.1,0,0.3,0,0.3,0 c0.4,0,0.8-0.2,1.1-0.6c0.9-1.1,1.4-3.7,1.8-7.5h6.2V81h-2.5v-8.3h-1.7c-0.4,3.6-1.1,6.1-2.1,7.3c-0.6,0.7-1.4,1-2.5,1 C178.5,81.1,178.2,81.1,178,81.1"></path> </g> <g class="st10"> <defs> <rect id="SVGID_00000116200274446988221080000011056610096799645343_" x="-57" y="-159" width="425.2" height="425.2"></rect> </defs> <clipPath id="SVGID_00000160894828770841029810000018285597310083251134_"> <use xlink:href="#SVGID_00000116200274446988221080000011056610096799645343_" style="overflow:visible;"></use> </clipPath> <path style="clip-path:url(#SVGID_00000160894828770841029810000018285597310083251134_);" d="M195.9,76c0-3.1,2.3-5.2,5.5-5.2 c3.3,0,5.5,2.1,5.5,5.2s-2.3,5.2-5.5,5.2S195.9,79.1,195.9,76 M204.3,76c0-2.2-1.2-3.3-2.9-3.3s-2.9,1.1-2.9,3.3 c0,2.2,1.2,3.3,2.9,3.3S204.3,78.1,204.3,76"></path> </g> <g class="st10"> <defs> <rect id="SVGID_00000114779623174505781520000018057564421080758201_" x="-57" y="-159" width="425.2" height="425.2"></rect> </defs> <clipPath id="SVGID_00000065035789509863267580000000949074503102137990_"> <use xlink:href="#SVGID_00000114779623174505781520000018057564421080758201_" style="overflow:visible;"></use> </clipPath> <polygon style="clip-path:url(#SVGID_00000065035789509863267580000000949074503102137990_);" points="215.5,70.9 224.6,70.9 224.6,81.1 222.1,81.1 222.1,72.9 218,72.9 218,81.1 215.5,81.1 "></polygon> </g> <g class="st10"> <defs> <rect id="SVGID_00000138565133155531333130000008627514882123763352_" x="-57" y="-159" width="425.2" height="425.2"></rect> </defs> <clipPath id="SVGID_00000164513162792577108400000002632846367493646214_"> <use xlink:href="#SVGID_00000138565133155531333130000008627514882123763352_" style="overflow:visible;"></use> </clipPath> <path style="clip-path:url(#SVGID_00000164513162792577108400000002632846367493646214_);" d="M233.5,70.9h2.2l2.7,3.6 c0.3,0.4,0.6,0.8,0.8,1.2l0,0c0.2-0.4,0.5-0.8,0.8-1.3l2.4-3.5h2.3v10.2h-2.5v-5.2c0-0.4,0-0.8,0-1.1l0,0 c-0.1,0.2-0.5,0.8-0.7,1.1l-1.7,2.5h-1.1l-2-2.6c-0.2-0.3-0.5-0.6-0.7-1l0,0c0,0.3,0,0.7,0,1v5.3h-2.5V70.9z"></path> </g> <g class="st10"> <defs> <rect id="SVGID_00000039827123055247018930000017583538917872045444_" x="-57" y="-159" width="425.2" height="425.2"></rect> </defs> <clipPath id="SVGID_00000023965833380863205320000012000152416209340861_"> <use xlink:href="#SVGID_00000039827123055247018930000017583538917872045444_" style="overflow:visible;"></use> </clipPath> <polygon style="clip-path:url(#SVGID_00000023965833380863205320000012000152416209340861_);" points="253.6,70.9 260,70.9 259.4,72.9 256.1,72.9 256.1,74.9 259.5,74.9 259.5,76.9 256.1,76.9 256.1,79.1 260,79.1 260,81.1 253.6,81.1 "></polygon> </g> <g class="st10"> <defs> <rect id="SVGID_00000042711653663803466710000001725204607320767126_" x="-57" y="-159" width="425.2" height="425.2"></rect> </defs> <clipPath id="SVGID_00000142868423579766695710000001084156231411503803_"> <use xlink:href="#SVGID_00000042711653663803466710000001725204607320767126_" style="overflow:visible;"></use> </clipPath> <polygon style="clip-path:url(#SVGID_00000142868423579766695710000001084156231411503803_);" points="268.6,70.9 271.1,70.9 271.1,74.9 275.7,74.9 275.7,70.9 278.2,70.9 278.2,81.1 275.7,81.1 275.7,76.9 271.1,76.9 271.1,81.1 268.6,81.1 "></polygon> </g> <g class="st10"> <defs> <rect id="SVGID_00000171696265247439166610000003519399932573952957_" x="-57" y="-159" width="425.2" height="425.2"></rect> </defs> <clipPath id="SVGID_00000021101351144349918600000000782517885725065089_"> <use xlink:href="#SVGID_00000171696265247439166610000003519399932573952957_" style="overflow:visible;"></use> </clipPath> <polygon style="clip-path:url(#SVGID_00000021101351144349918600000000782517885725065089_);" points="289.2,72.9 286.1,72.9 286.1,70.9 295.1,70.9 294.4,72.9 291.7,72.9 291.7,81.1 289.2,81.1 "></polygon> </g> </g> <g> <g> <defs> <path id="SVGID_00000037681102045950656910000008805743639848567991_" d="M128.7,45.6l3.2,7.6h-6.5L128.7,45.6z M125.1,36.9 l-11.6,27.4h7.3l2.3-5.4h11.3l2.3,5.4h7.3l-11.6-27.4H125.1z"></path> </defs> <clipPath id="SVGID_00000159457961715762387500000000131303346667747999_"> <use xlink:href="#SVGID_00000037681102045950656910000008805743639848567991_" style="overflow:visible;"></use> </clipPath> <polygon style="clip-path:url(#SVGID_00000159457961715762387500000000131303346667747999_);fill:#0E7C62;" points="113.8,34 146.7,37.2 143.7,67.3 110.8,64.1 "></polygon> </g> </g> <g> <g> <defs> <polygon id="SVGID_00000054982739401980579710000010509459750056554130_" points="153.9,36.9 153.9,64.4 161.2,64.4 161.2,57.2 169.2,51.3 175.4,64.4 182.8,64.4 174.7,47.3 183.3,41.1 177.6,37 161.2,48.8 161.2,36.9 "></polygon> </defs> <clipPath id="SVGID_00000041981020200416706380000001679508783537153959_"> <use xlink:href="#SVGID_00000054982739401980579710000010509459750056554130_" style="overflow:visible;"></use> </clipPath> <polygon style="clip-path:url(#SVGID_00000041981020200416706380000001679508783537153959_);fill:#0E7C62;" points="154.2,34.1 185.9,37.2 183,67.2 151.2,64.1 "></polygon> </g> </g> <g> <g> <defs> <polygon id="SVGID_00000028311099399655093630000009673797451531264390_" points="194,36.9 195,42.7 203.7,42.7 203.7,64.4 211,64.4 211,42.7 221.6,42.7 220.7,36.9 "></polygon> </defs> <clipPath id="SVGID_00000058573677233350516540000012697730807505064833_"> <use xlink:href="#SVGID_00000028311099399655093630000009673797451531264390_" style="overflow:visible;"></use> </clipPath> <polygon style="clip-path:url(#SVGID_00000058573677233350516540000012697730807505064833_);fill:#0E7C62;" points="194.3,34.3 224.3,37.2 221.4,67.1 191.3,64.1 "></polygon> </g> </g> <g> <g> <defs> <polygon id="SVGID_00000046302517246483131590000012804066517258784665_" points="252.9,36.9 252.9,39.5 240,48.8 240,36.9 232.7,36.9 232.7,64.4 240,64.4 240,57.2 252.9,47.8 252.9,64.4 260.2,64.4 260.2,36.9 "></polygon> </defs> <clipPath id="SVGID_00000165944536172938261880000005258584068165235373_"> <use xlink:href="#SVGID_00000046302517246483131590000012804066517258784665_" style="overflow:visible;"></use> </clipPath> <polygon style="clip-path:url(#SVGID_00000165944536172938261880000005258584068165235373_);fill:#0E7C62;" points="233,34.3 262.9,37.2 260,67 230,64.1 "></polygon> </g> </g> <g> <g> <defs> <path id="SVGID_00000125576101595520751650000007270929489360548493_" d="M279.4,53.1h6.4c1.2,0,2.2,0.3,2.9,0.8 c0.7,0.5,1,1.2,1,2.1c0,0.8-0.4,1.5-1,1.9s-1.6,0.7-2.8,0.7h-6.4v-5.5H279.4z M279.4,42.7h5.2c1.2,0,2.2,0.2,2.9,0.6 c0.7,0.4,1,1,1,1.9c0,0.7-0.4,1.2-1.2,1.6c-0.8,0.4-1.8,0.5-3,0.5h-4.9V42.7z M272.1,36.9v27.4h13.6c3.4,0,6.1-0.6,8.3-1.9 c2.2-1.3,3.3-3.4,3.3-6.3c0-1.3-0.3-2.4-1-3.5s-1.6-2-2.7-2.8c0.8-0.8,1.4-1.6,1.9-2.3c0.5-0.8,0.7-1.7,0.7-2.6 c0-2.6-1.1-4.6-3.2-5.9c-2.1-1.3-4.8-2-8.1-2h-12.8V36.9z"></path> </defs> <clipPath id="SVGID_00000000206302281522245910000002102809996198514331_"> <use xlink:href="#SVGID_00000125576101595520751650000007270929489360548493_" style="overflow:visible;"></use> </clipPath> <polygon style="clip-path:url(#SVGID_00000000206302281522245910000002102809996198514331_);fill:#0E7C62;" points="272.3,34.5 300,37.2 297.1,66.8 269.4,64.1 "></polygon> </g> </g> <polyline class="st27" points="297.4,-89.5 297.4,93.9 113.7,93.9 113.7,-89.5 "></polyline> <polyline class="st27" points="297.4,-89.5 297.4,93.9 113.7,93.9 113.7,-89.5 "></polyline> <g> <path d="M129.3,70.4h9V81h-2.5v-8.5h-4.1V81h-2.5V70.4H129.3z"></path> <path d="M150,75.7c0-3.2,2.2-5.5,5.5-5.5c3.2,0,5.5,2.2,5.5,5.5s-2.2,5.5-5.5,5.5S150,78.9,150,75.7z M158.3,75.7 c0-2.3-1.2-3.4-2.9-3.4s-2.9,1.1-2.9,3.4s1.2,3.4,2.9,3.4S158.3,78,158.3,75.7z"></path> <path d="M172.6,70.4h2.5v4.2h0.9c1.4,0,1.5-1.9,2.3-3.3c0.5-0.8,1.1-1.1,2-1.1c0.4,0,0.9,0.1,1.3,0.2v2.1c-0.3-0.1-0.5-0.1-0.7-0.1 c-0.3,0-0.6,0.1-0.7,0.4c-0.5,0.7-0.8,2.1-1.6,2.7l0,0c0.4,0.2,0.7,0.4,1.1,1.1l2.2,4.4H179l-1.5-3.4c-0.4-0.9-0.6-1-0.9-1h-1.4V81 h-2.5V70.4H172.6z"></path> <path d="M193,70.4h3c1,0,1.8,0.1,2.4,0.4c1.2,0.5,1.9,1.6,1.9,3.1c0,1.2-0.5,2.6-2.2,3.2c-0.6,0.2-1.4,0.4-2.3,0.4h-0.3V81H193 V70.4z M195.9,75.5c0.4,0,0.8,0,1-0.2c0.5-0.2,0.8-0.7,0.8-1.4c0-0.5-0.2-1.1-0.7-1.4c-0.3-0.2-0.6-0.2-1.1-0.2h-0.4v3.2H195.9z"></path> <path d="M211.5,75.7c0-3.2,2.2-5.5,5.5-5.5s5.5,2.2,5.5,5.5s-2.2,5.5-5.5,5.5S211.5,78.9,211.5,75.7z M219.9,75.7 c0-2.3-1.2-3.4-2.9-3.4s-2.9,1.1-2.9,3.4s1.2,3.4,2.9,3.4S219.9,78,219.9,75.7z"></path> <path d="M234.2,70.4h3.6c2.3,0,3.3,1.4,3.3,2.7c0,0.8-0.4,1.7-1.2,2.1l0,0c1.3,0.4,2,1.4,2,2.5c0,1.6-1.3,3.2-3.8,3.2h-3.8V70.4 H234.2z M237.4,74.6c0.9,0,1.3-0.5,1.3-1.1s-0.4-1.1-1.4-1.1h-0.7v2.2H237.4z M237.6,79c1.2,0,1.7-0.4,1.7-1.3 c0-0.7-0.5-1.1-1.5-1.1h-1.2V79H237.6z"></path> <path d="M253.3,70.4h2.5v4.2h0.9c1.4,0,1.5-1.9,2.3-3.3c0.5-0.8,1.1-1.1,2-1.1c0.4,0,0.9,0.1,1.3,0.2v2.1c-0.3-0.1-0.5-0.1-0.7-0.1 c-0.3,0-0.6,0.1-0.7,0.4c-0.5,0.7-0.8,2.1-1.6,2.7l0,0c0.4,0.2,0.7,0.4,1.1,1.1l2.2,4.4h-2.9l-1.5-3.4c-0.4-0.9-0.6-1-0.9-1h-1.4 V81h-2.5L253.3,70.4L253.3,70.4z"></path> <path d="M276.7,70.3h2l4.4,10.7h-2.6l-1-2.5H276l-1,2.5h-2.5L276.7,70.3z M278.7,76.5l-0.5-1.5c-0.2-0.7-0.4-1.2-0.5-1.5l0,0 c-0.1,0.4-0.2,0.8-0.5,1.5l-0.5,1.5H278.7z"></path> </g> <polygon points="113.7,70.4 120.1,75.6 113.7,80.8 "></polygon> <polygon points="297.4,80.8 291,75.6 297.4,70.4 "></polygon> <polyline class="st27" points="297.4,-89.5 297.4,93.9 113.7,93.9 113.7,-89.5 "></polyline> </svg> 