<?xml version="1.0" encoding="UTF-8"?> <svg xmlns="http://www.w3.org/2000/svg" xmlns:xlink="http://www.w3.org/1999/xlink" xmlns:svgjs="http://svgjs.dev/svgjs" id="line_copy" viewBox="0 0 64 64" data-name="line copy" width="300" height="300" version="1.1"><g width="100%" height="100%" transform="matrix(1,0,0,1,0,0)"><linearGradient id="linear-gradient" gradientUnits="userSpaceOnUse" x1="4.002" x2="59.998" y1="32" y2="32"><stop stop-opacity="1" stop-color="#9c4098" offset="0"></stop><stop stop-opacity="1" stop-color="#93c1cc" offset="0.97"></stop></linearGradient><path d="m54.99857 7.99975h-7.9995v-.99994a2.99982 2.99982 0 0 0 -5.99963 0v1.00342h-17.99888v-1.00342a2.99982 2.99982 0 0 0 -5.99963 0v.99994h-7.9995a5.00793 5.00793 0 0 0 -4.99969 4.99969v23.43856a.99994.99994 0 1 0 1.99988 0v-16.439h51.99676v19.99876a2.01443 2.01443 0 0 1 -1.99987 1.99988h-4.99969a5.00154 5.00154 0 0 0 -4.99969 4.99969v4.99967a2.01443 2.01443 0 0 1 -1.99988 1.99987h-13.15915a.99994.99994 0 0 0 0 1.99988h13.15915a4.00382 4.00382 0 0 0 2.82985-1.16991l11.99925-11.99924a4.0038 4.0038 0 0 0 1.16991-2.82984v-26.99832a5.00793 5.00793 0 0 0 -4.99969-4.99969zm-6.99957 42.82736v-3.82978a3.00864 3.00864 0 0 1 2.99981-2.99981h3.82979zm-4.99968-43.8273a.99994.99994 0 0 1 1.99987 0v3.99976a.99994.99994 0 0 1 -1.99987 0zm-23.99851 0a.99994.99994 0 0 1 1.99987 0v3.99976a.99994.99994 0 0 1 -1.99987 0zm38.99757 10.99932h-51.99676v-4.99969a3.00864 3.00864 0 0 1 2.99981-2.99981h7.9995v.99994a2.99982 2.99982 0 0 0 5.99963 0v-.99646h17.99888v.99646a2.99982 2.99982 0 0 0 5.99963 0v-.99994h7.9995a3.00864 3.00864 0 0 1 2.99981 2.99981zm-40.99745 16.00249a12.99919 12.99919 0 1 0 12.99919 12.99919 13.01392 13.01392 0 0 0 -12.99919-12.99919zm0 23.9985a10.99932 10.99932 0 1 1 10.99932-10.99931 11.01175 11.01175 0 0 1 -10.99932 10.99931zm7.29929-16.29195-11.99922 11.99925a.99981.99981 0 1 1 -1.41392-1.414l11.9992-11.99926a1 1 0 0 1 1.41394 1.41401zm-2.7068 6.29258a2.99981 2.99981 0 1 0 2.99981 2.99981 3.00309 3.00309 0 0 0 -2.99981-2.99981zm0 3.99975a.99994.99994 0 1 1 .99994-.99994 1.00093 1.00093 0 0 1 -.99994.99994zm-7.9995-5.99963a2.99982 2.99982 0 1 0 -2.99982-2.99981 3.00309 3.00309 0 0 0 2.99982 2.99981zm0-3.99975a.99994.99994 0 1 1 -.99994.99994 1.00092 1.00092 0 0 1 .99994-.99994z" fill="url(#linear-gradient)" data-original-color="linear-gradient" stroke="none" stroke-opacity="1"></path></g></svg> 