<?xml version="1.0" encoding="UTF-8"?> <svg xmlns="http://www.w3.org/2000/svg" width="736" height="101" viewBox="0 0 736 101" fill="none"><rect x="2.25391" y="1.91602" width="732.018" height="97" rx="48.5" fill="#FFFBEF" stroke="#DBB391" stroke-width="3"></rect><circle cx="50.7534" cy="50.416" r="36.5" fill="#9777A2" stroke="black"></circle><path d="M34.5596 43.9657L32.6122 34.9538C32.4942 34.6534 31.9749 34.0526 30.8419 34.0526C29.4256 34.0526 29.6026 35.134 29.6026 35.4945C29.6026 35.656 30.4542 40.1976 31.4418 45.4077M33.6744 57.1232C34.4416 56.5825 36.507 55.5011 38.6314 55.5011L46.9519 45.243M33.6744 57.1232C29.6026 59.8268 24.1146 68.2981 28.1863 72.2634M33.6744 57.1232C33.5473 56.4593 33.4083 55.7326 33.2607 54.9604M28.1863 72.2634C32.2581 76.2286 40.9328 74.6065 43.7654 68.2981C46.0314 63.2514 44.4735 58.7454 43.4113 57.1232L47.6433 51.8963M28.1863 72.2634C30.6058 73.1045 36.217 71.776 39.1624 68.2981C42.2047 64.7058 42.7031 59.2861 41.1098 56.4023L64.1243 27.9491M64.1243 27.9491C63.2928 27.2877 62.0671 27.3487 61.2918 27.5639L46.9519 45.243M64.1243 27.9491C64.6851 28.3952 65.0665 29.17 65.0095 30.4478L52.897 45.4077M31.4418 45.4077L46.9519 45.243M31.4418 45.4077C31.8467 47.5434 32.2745 49.7915 32.6758 51.8963M32.6758 51.8963H40.5787M32.6758 51.8963C32.8797 52.9658 33.0769 53.9984 33.2607 54.9604M33.2607 54.9604H38.2772M34.5596 46.3089L35.7988 50.9951M40.2246 46.3089L41.1098 50.9951M46.5979 56.4023V67.0364M44.6505 68.2981H52.44M42.5261 71.1819H52.44M40.2246 74.246H52.44M69.7894 43.9658L71.7368 34.9538C71.8548 34.6534 72.3741 34.0526 73.5071 34.0526C74.9234 34.0526 74.7463 35.134 74.7463 35.4945C74.7463 35.656 73.8948 40.1976 72.9071 45.4077M72.9071 45.4077C72.5022 47.5434 72.0745 49.7915 71.6731 51.8963M72.9071 45.4077H52.897M71.6731 51.8963H63.7703H47.6433M71.6731 51.8963C71.4692 52.9659 71.2721 53.9984 71.0882 54.9604M71.0882 54.9604C70.9407 55.7326 70.8016 56.4593 70.6745 57.1232L68.3938 68.2981M71.0882 54.9604H66.0717M69.7894 46.3089L68.5502 50.9951M64.1243 46.3089L63.2392 50.9951M57.7511 56.4023V67.0364M51.909 68.2981H59.6985H68.3938M51.909 71.182H61.8229H67.8069M51.909 74.246H64.1243C66.5388 74.246 67.5557 72.306 67.8069 71.182M52.897 45.4077L52.1673 46.3089M47.6433 51.8963L52.1673 46.3089M52.1673 46.3089V50.9951M58.2821 46.3089V50.6346M62.885 56.0418L60.9376 66.6759M68.019 56.4023L65.3635 66.6759M67.8069 71.182C67.821 71.1192 67.8326 71.0589 67.842 71.0017L68.3938 68.2981M52.1673 56.4023V66.6759M38.2772 58.2047C36.92 58.2648 33.6389 59.1419 31.3729 62.17C28.5404 65.955 28.3633 69.1993 30.4877 69.9203C32.6122 70.6412 35.9758 68.6586 38.2772 65.4143C40.5787 62.17 39.8706 57.9141 38.2772 58.2047Z" stroke="white"></path><path d="M111.185 41.916C110.804 41.916 110.509 41.8207 110.301 41.63C110.111 41.422 110.015 41.1273 110.015 40.746V24.756C110.015 24.3747 110.111 24.0887 110.301 23.898C110.509 23.69 110.804 23.586 111.185 23.586H121.247C121.542 23.586 121.767 23.664 121.923 23.82C122.097 23.976 122.183 24.1927 122.183 24.47C122.183 24.7647 122.097 24.99 121.923 25.146C121.767 25.302 121.542 25.38 121.247 25.38H112.095V31.672H117.659C119.583 31.672 121.074 32.0967 122.131 32.946C123.189 33.7953 123.717 35.0693 123.717 36.768C123.717 38.4493 123.189 39.732 122.131 40.616C121.074 41.4827 119.583 41.916 117.659 41.916H111.185ZM112.095 40.122H117.451C118.838 40.122 119.878 39.8533 120.571 39.316C121.265 38.7613 121.611 37.912 121.611 36.768C121.611 35.6413 121.265 34.8093 120.571 34.272C119.878 33.7347 118.838 33.466 117.451 33.466H112.095V40.122ZM126.789 42.098C126.512 42.098 126.287 42.0373 126.113 41.916C125.957 41.7773 125.862 41.604 125.827 41.396C125.81 41.1707 125.862 40.9193 125.983 40.642L133.133 24.366C133.289 24.0193 133.471 23.7767 133.679 23.638C133.905 23.482 134.147 23.404 134.407 23.404C134.667 23.404 134.901 23.482 135.109 23.638C135.335 23.7767 135.517 24.0193 135.655 24.366L142.831 40.642C142.97 40.9193 143.022 41.1707 142.987 41.396C142.97 41.6213 142.883 41.7947 142.727 41.916C142.571 42.0373 142.355 42.098 142.077 42.098C141.765 42.098 141.514 42.02 141.323 41.864C141.133 41.6907 140.977 41.448 140.855 41.136L138.931 36.69L139.971 37.236H128.791L129.857 36.69L127.959 41.136C127.803 41.4653 127.639 41.708 127.465 41.864C127.292 42.02 127.067 42.098 126.789 42.098ZM134.381 26.082L130.195 35.936L129.571 35.442H139.191L138.619 35.936L134.433 26.082H134.381ZM147.187 42.098C146.84 42.098 146.572 42.0027 146.381 41.812C146.208 41.604 146.121 41.3267 146.121 40.98V24.522C146.121 24.158 146.208 23.8807 146.381 23.69C146.572 23.4993 146.84 23.404 147.187 23.404C147.534 23.404 147.794 23.4993 147.967 23.69C148.158 23.8807 148.253 24.158 148.253 24.522V31.698H159.251V24.522C159.251 24.158 159.338 23.8807 159.511 23.69C159.702 23.4993 159.97 23.404 160.317 23.404C160.664 23.404 160.924 23.4993 161.097 23.69C161.288 23.8807 161.383 24.158 161.383 24.522V40.98C161.383 41.3267 161.288 41.604 161.097 41.812C160.924 42.0027 160.664 42.098 160.317 42.098C159.97 42.098 159.702 42.0027 159.511 41.812C159.338 41.604 159.251 41.3267 159.251 40.98V33.544H148.253V40.98C148.253 41.3267 148.166 41.604 147.993 41.812C147.82 42.0027 147.551 42.098 147.187 42.098ZM166.966 42.098C166.62 42.098 166.351 42.0027 166.16 41.812C165.987 41.604 165.9 41.3267 165.9 40.98V24.522C165.9 24.158 165.987 23.8807 166.16 23.69C166.351 23.4993 166.62 23.404 166.966 23.404C167.313 23.404 167.573 23.4993 167.746 23.69C167.937 23.8807 168.032 24.158 168.032 24.522V31.698H179.03V24.522C179.03 24.158 179.117 23.8807 179.29 23.69C179.481 23.4993 179.75 23.404 180.096 23.404C180.443 23.404 180.703 23.4993 180.876 23.69C181.067 23.8807 181.162 24.158 181.162 24.522V40.98C181.162 41.3267 181.067 41.604 180.876 41.812C180.703 42.0027 180.443 42.098 180.096 42.098C179.75 42.098 179.481 42.0027 179.29 41.812C179.117 41.604 179.03 41.3267 179.03 40.98V33.544H168.032V40.98C168.032 41.3267 167.946 41.604 167.772 41.812C167.599 42.0027 167.33 42.098 166.966 42.098ZM186.849 41.916C186.468 41.916 186.173 41.8207 185.965 41.63C185.775 41.422 185.679 41.1273 185.679 40.746V24.522C185.679 24.158 185.766 23.8807 185.939 23.69C186.13 23.4993 186.399 23.404 186.745 23.404C187.092 23.404 187.352 23.4993 187.525 23.69C187.716 23.8807 187.811 24.158 187.811 24.522V31.672H192.543C193.826 31.672 194.918 31.8627 195.819 32.244C196.721 32.6253 197.405 33.1973 197.873 33.96C198.359 34.7053 198.601 35.6413 198.601 36.768C198.601 38.4493 198.073 39.732 197.015 40.616C195.958 41.4827 194.467 41.916 192.543 41.916H186.849ZM187.811 40.122H192.335C193.722 40.122 194.762 39.8533 195.455 39.316C196.149 38.7613 196.495 37.912 196.495 36.768C196.495 35.6413 196.149 34.8093 195.455 34.272C194.762 33.7347 193.722 33.466 192.335 33.466H187.811V40.122ZM202.293 42.098C201.947 42.098 201.678 42.0027 201.487 41.812C201.314 41.604 201.227 41.3267 201.227 40.98V24.522C201.227 24.158 201.314 23.8807 201.487 23.69C201.678 23.4993 201.947 23.404 202.293 23.404C202.64 23.404 202.9 23.4993 203.073 23.69C203.264 23.8807 203.359 24.158 203.359 24.522V40.98C203.359 41.3267 203.273 41.604 203.099 41.812C202.926 42.0027 202.657 42.098 202.293 42.098ZM208.781 42.098C208.642 42.098 208.512 42.072 208.391 42.02C208.287 41.9853 208.192 41.916 208.105 41.812C208.036 41.708 207.975 41.5953 207.923 41.474C207.888 41.3353 207.871 41.1707 207.871 40.98V24.444C207.871 24.1147 207.958 23.8633 208.131 23.69C208.304 23.4993 208.556 23.404 208.885 23.404C209.197 23.404 209.44 23.4993 209.613 23.69C209.786 23.8633 209.873 24.1147 209.873 24.444V39.16H209.301L220.585 24.054C220.741 23.8113 220.897 23.6467 221.053 23.56C221.226 23.456 221.443 23.404 221.703 23.404C221.894 23.404 222.05 23.4473 222.171 23.534C222.292 23.6033 222.388 23.716 222.457 23.872C222.526 24.028 222.561 24.2187 222.561 24.444V41.032C222.561 41.3787 222.474 41.6473 222.301 41.838C222.145 42.0113 221.911 42.098 221.599 42.098C221.27 42.098 221.018 42.0113 220.845 41.838C220.672 41.6473 220.585 41.3787 220.585 41.032V26.342H221.157L209.873 41.448C209.7 41.6733 209.544 41.838 209.405 41.942C209.266 42.046 209.058 42.098 208.781 42.098ZM215.229 22.156C214.189 22.156 213.253 21.922 212.421 21.454C211.589 20.986 210.956 20.2753 210.523 19.322C210.419 19.062 210.402 18.854 210.471 18.698C210.54 18.5247 210.67 18.4033 210.861 18.334C211.052 18.2647 211.225 18.2647 211.381 18.334C211.537 18.4033 211.667 18.5507 211.771 18.776C212.1 19.4347 212.551 19.9373 213.123 20.284C213.695 20.6307 214.397 20.804 215.229 20.804C216.078 20.804 216.78 20.6307 217.335 20.284C217.907 19.9373 218.358 19.4347 218.687 18.776C218.808 18.5507 218.938 18.4033 219.077 18.334C219.233 18.2647 219.406 18.2647 219.597 18.334C219.805 18.4033 219.935 18.5247 219.987 18.698C220.056 18.854 220.03 19.062 219.909 19.322C219.458 20.2753 218.817 20.986 217.985 21.454C217.153 21.922 216.234 22.156 215.229 22.156ZM234.886 42.098C234.539 42.098 234.271 42.0027 234.08 41.812C233.907 41.604 233.82 41.3267 233.82 40.98V24.496C233.82 24.132 233.907 23.8633 234.08 23.69C234.271 23.4993 234.539 23.404 234.886 23.404C235.233 23.404 235.493 23.4993 235.666 23.69C235.857 23.8633 235.952 24.132 235.952 24.496V31.75H239.54L238.916 32.166L244.324 23.976C244.48 23.7333 244.662 23.5773 244.87 23.508C245.078 23.4213 245.286 23.404 245.494 23.456C245.702 23.4907 245.875 23.586 246.014 23.742C246.153 23.8807 246.231 24.0627 246.248 24.288C246.283 24.496 246.222 24.7213 246.066 24.964L240.996 32.53L240.19 31.828C241.247 31.9493 242.149 32.322 242.894 32.946C243.639 33.57 244.289 34.4367 244.844 35.546L247.314 40.59C247.453 40.8673 247.496 41.1187 247.444 41.344C247.392 41.552 247.279 41.7167 247.106 41.838C246.933 41.9593 246.733 42.0287 246.508 42.046C246.3 42.0807 246.092 42.046 245.884 41.942C245.676 41.838 245.511 41.656 245.39 41.396L243.076 36.534C242.556 35.4767 241.967 34.7227 241.308 34.272C240.667 33.8213 239.869 33.596 238.916 33.596H235.952V40.98C235.952 41.3267 235.865 41.604 235.692 41.812C235.519 42.0027 235.25 42.098 234.886 42.098ZM258.02 42.15C256.321 42.15 254.839 41.7687 253.574 41.006C252.326 40.226 251.355 39.134 250.662 37.73C249.986 36.326 249.648 34.662 249.648 32.738C249.648 31.282 249.839 29.982 250.22 28.838C250.619 27.6767 251.182 26.6973 251.91 25.9C252.638 25.0853 253.513 24.4613 254.536 24.028C255.576 23.5773 256.737 23.352 258.02 23.352C259.753 23.352 261.244 23.7333 262.492 24.496C263.757 25.2587 264.728 26.342 265.404 27.746C266.097 29.1327 266.444 30.788 266.444 32.712C266.444 34.168 266.245 35.4767 265.846 36.638C265.447 37.7993 264.884 38.7873 264.156 39.602C263.428 40.4167 262.544 41.0493 261.504 41.5C260.481 41.9333 259.32 42.15 258.02 42.15ZM258.02 40.252C259.337 40.252 260.447 39.9573 261.348 39.368C262.267 38.7787 262.969 37.9207 263.454 36.794C263.939 35.6673 264.182 34.3153 264.182 32.738C264.182 30.3633 263.645 28.526 262.57 27.226C261.513 25.9087 259.996 25.25 258.02 25.25C256.737 25.25 255.637 25.5447 254.718 26.134C253.817 26.7233 253.123 27.5813 252.638 28.708C252.153 29.8173 251.91 31.1607 251.91 32.738C251.91 35.0953 252.447 36.9413 253.522 38.276C254.597 39.5933 256.096 40.252 258.02 40.252ZM271.296 42.098C270.984 42.098 270.741 42.0113 270.568 41.838C270.394 41.6473 270.308 41.3873 270.308 41.058V24.444C270.308 24.0973 270.394 23.8373 270.568 23.664C270.741 23.4907 270.984 23.404 271.296 23.404C271.573 23.404 271.79 23.4647 271.946 23.586C272.119 23.69 272.275 23.872 272.414 24.132L279.538 37.548H278.758L285.856 24.132C285.994 23.872 286.142 23.69 286.298 23.586C286.454 23.4647 286.679 23.404 286.974 23.404C287.268 23.404 287.502 23.4907 287.676 23.664C287.849 23.8373 287.936 24.0973 287.936 24.444V41.058C287.936 41.3873 287.849 41.6473 287.676 41.838C287.52 42.0113 287.277 42.098 286.948 42.098C286.636 42.098 286.393 42.0113 286.22 41.838C286.046 41.6473 285.96 41.3873 285.96 41.058V26.446H286.584L280.084 38.64C279.962 38.8653 279.832 39.03 279.694 39.134C279.572 39.2207 279.39 39.264 279.148 39.264C278.905 39.264 278.714 39.212 278.576 39.108C278.437 39.004 278.316 38.848 278.212 38.64L271.634 26.42H272.258V41.058C272.258 41.3873 272.171 41.6473 271.998 41.838C271.842 42.0113 271.608 42.098 271.296 42.098ZM293.564 42.098C293.217 42.098 292.949 42.0027 292.758 41.812C292.585 41.604 292.498 41.3267 292.498 40.98V24.756C292.498 24.3747 292.593 24.0887 292.784 23.898C292.992 23.69 293.287 23.586 293.668 23.586H306.46C306.824 23.586 307.11 23.69 307.318 23.898C307.526 24.0887 307.63 24.3747 307.63 24.756V40.98C307.63 41.3267 307.535 41.604 307.344 41.812C307.153 42.0027 306.893 42.098 306.564 42.098C306.217 42.098 305.949 42.0027 305.758 41.812C305.567 41.604 305.472 41.3267 305.472 40.98V25.432H294.63V40.98C294.63 41.3267 294.543 41.604 294.37 41.812C294.197 42.0027 293.928 42.098 293.564 42.098ZM325.801 42.098C325.454 42.098 325.185 42.0027 324.995 41.812C324.804 41.604 324.709 41.3267 324.709 40.98V25.432H316.701V29.644C316.701 31.3947 316.597 32.9373 316.389 34.272C316.198 35.5893 315.903 36.742 315.505 37.73C315.123 38.7007 314.638 39.524 314.049 40.2C313.477 40.876 312.809 41.448 312.047 41.916C311.769 42.1067 311.501 42.176 311.241 42.124C310.981 42.072 310.764 41.9073 310.591 41.63C310.417 41.3527 310.365 41.0927 310.435 40.85C310.521 40.6073 310.703 40.3993 310.981 40.226C311.57 39.862 312.09 39.4027 312.541 38.848C313.009 38.2933 313.399 37.6 313.711 36.768C314.04 35.9187 314.291 34.87 314.465 33.622C314.638 32.374 314.725 30.866 314.725 29.098V24.756C314.725 24.3747 314.82 24.0887 315.011 23.898C315.219 23.69 315.513 23.586 315.895 23.586H325.697C326.061 23.586 326.347 23.69 326.555 23.898C326.763 24.0887 326.867 24.3747 326.867 24.756V40.98C326.867 41.3267 326.771 41.604 326.581 41.812C326.39 42.0027 326.13 42.098 325.801 42.098ZM332.566 41.916C332.185 41.916 331.89 41.8207 331.682 41.63C331.492 41.422 331.396 41.1273 331.396 40.746V24.756C331.396 24.3747 331.492 24.0887 331.682 23.898C331.89 23.69 332.185 23.586 332.566 23.586H342.238C342.533 23.586 342.758 23.664 342.914 23.82C343.07 23.976 343.148 24.1927 343.148 24.47C343.148 24.7647 343.07 24.99 342.914 25.146C342.758 25.302 342.533 25.38 342.238 25.38H333.476V31.724H341.692C341.987 31.724 342.212 31.802 342.368 31.958C342.524 32.0967 342.602 32.3133 342.602 32.608C342.602 32.9027 342.524 33.128 342.368 33.284C342.212 33.44 341.987 33.518 341.692 33.518H333.476V40.122H342.238C342.533 40.122 342.758 40.2 342.914 40.356C343.07 40.512 343.148 40.7287 343.148 41.006C343.148 41.3007 343.07 41.526 342.914 41.682C342.758 41.838 342.533 41.916 342.238 41.916H332.566ZM347.62 42.098C347.274 42.098 347.005 42.0027 346.814 41.812C346.641 41.604 346.554 41.3267 346.554 40.98V24.496C346.554 24.132 346.641 23.8633 346.814 23.69C347.005 23.4993 347.274 23.404 347.62 23.404C347.967 23.404 348.227 23.4993 348.4 23.69C348.591 23.8633 348.686 24.132 348.686 24.496V31.75H352.274L351.65 32.166L357.058 23.976C357.214 23.7333 357.396 23.5773 357.604 23.508C357.812 23.4213 358.02 23.404 358.228 23.456C358.436 23.4907 358.61 23.586 358.748 23.742C358.887 23.8807 358.965 24.0627 358.982 24.288C359.017 24.496 358.956 24.7213 358.8 24.964L353.73 32.53L352.924 31.828C353.982 31.9493 354.883 32.322 355.628 32.946C356.374 33.57 357.024 34.4367 357.578 35.546L360.048 40.59C360.187 40.8673 360.23 41.1187 360.178 41.344C360.126 41.552 360.014 41.7167 359.84 41.838C359.667 41.9593 359.468 42.0287 359.242 42.046C359.034 42.0807 358.826 42.046 358.618 41.942C358.41 41.838 358.246 41.656 358.124 41.396L355.81 36.534C355.29 35.4767 354.701 34.7227 354.042 34.272C353.401 33.8213 352.604 33.596 351.65 33.596H348.686V40.98C348.686 41.3267 348.6 41.604 348.426 41.812C348.253 42.0027 347.984 42.098 347.62 42.098ZM370.988 42.15C369.186 42.15 367.643 41.7687 366.36 41.006C365.078 40.2433 364.09 39.16 363.396 37.756C362.72 36.352 362.382 34.6793 362.382 32.738C362.382 31.282 362.573 29.982 362.954 28.838C363.353 27.6767 363.916 26.6973 364.644 25.9C365.39 25.0853 366.3 24.4613 367.374 24.028C368.449 23.5773 369.654 23.352 370.988 23.352C372.063 23.352 373.086 23.508 374.056 23.82C375.027 24.1147 375.868 24.5567 376.578 25.146C376.804 25.3193 376.951 25.5187 377.02 25.744C377.107 25.952 377.116 26.16 377.046 26.368C376.994 26.5587 376.89 26.7233 376.734 26.862C376.596 26.9833 376.422 27.044 376.214 27.044C376.006 27.044 375.772 26.9573 375.512 26.784C374.888 26.2813 374.204 25.9087 373.458 25.666C372.713 25.4233 371.907 25.302 371.04 25.302C369.671 25.302 368.51 25.5967 367.556 26.186C366.603 26.758 365.884 27.5987 365.398 28.708C364.913 29.8173 364.67 31.1607 364.67 32.738C364.67 34.3153 364.913 35.6673 365.398 36.794C365.884 37.9033 366.603 38.7527 367.556 39.342C368.51 39.914 369.671 40.2 371.04 40.2C371.89 40.2 372.696 40.0787 373.458 39.836C374.221 39.576 374.923 39.1947 375.564 38.692C375.824 38.5187 376.058 38.4407 376.266 38.458C376.474 38.458 376.648 38.5187 376.786 38.64C376.925 38.7613 377.02 38.9173 377.072 39.108C377.142 39.2987 377.142 39.498 377.072 39.706C377.02 39.914 376.89 40.096 376.682 40.252C375.954 40.876 375.096 41.3527 374.108 41.682C373.138 41.994 372.098 42.15 370.988 42.15ZM381.281 42.02C380.847 42.02 380.501 41.89 380.241 41.63C379.981 41.3527 379.851 41.006 379.851 40.59C379.851 40.174 379.981 39.836 380.241 39.576C380.501 39.2987 380.847 39.16 381.281 39.16C381.714 39.16 382.052 39.2987 382.295 39.576C382.555 39.836 382.685 40.174 382.685 40.59C382.685 41.006 382.555 41.3527 382.295 41.63C382.052 41.89 381.714 42.02 381.281 42.02ZM381.281 32.036C380.847 32.036 380.501 31.8973 380.241 31.62C379.981 31.3427 379.851 31.0047 379.851 30.606C379.851 30.1727 379.981 29.826 380.241 29.566C380.501 29.306 380.847 29.176 381.281 29.176C381.714 29.176 382.052 29.306 382.295 29.566C382.555 29.826 382.685 30.1727 382.685 30.606C382.685 31.0047 382.555 31.3427 382.295 31.62C382.052 31.8973 381.714 32.036 381.281 32.036ZM110.825 72.084C110.505 72.084 110.257 71.996 110.081 71.82C109.921 71.628 109.841 71.372 109.841 71.052V56.004C109.841 55.668 109.929 55.42 110.105 55.26C110.281 55.084 110.529 54.996 110.849 54.996H116.537C118.345 54.996 119.737 55.444 120.713 56.34C121.689 57.22 122.177 58.468 122.177 60.084C122.177 61.684 121.689 62.932 120.713 63.828C119.737 64.724 118.345 65.172 116.537 65.172H111.809V71.052C111.809 71.372 111.729 71.628 111.569 71.82C111.409 71.996 111.161 72.084 110.825 72.084ZM111.809 63.516H116.297C117.593 63.516 118.569 63.228 119.225 62.652C119.897 62.06 120.233 61.204 120.233 60.084C120.233 58.948 119.897 58.092 119.225 57.516C118.569 56.924 117.593 56.628 116.297 56.628H111.809V63.516ZM127.477 76.404C127.237 76.404 127.045 76.34 126.901 76.212C126.757 76.084 126.669 75.908 126.637 75.684C126.621 75.476 126.661 75.26 126.757 75.036L128.413 71.316V72.156L123.805 61.452C123.709 61.212 123.677 60.988 123.709 60.78C123.741 60.572 123.837 60.404 123.997 60.276C124.157 60.148 124.381 60.084 124.669 60.084C124.925 60.084 125.125 60.14 125.269 60.252C125.413 60.364 125.541 60.564 125.653 60.852L129.589 70.5H128.941L132.925 60.852C133.053 60.564 133.189 60.364 133.333 60.252C133.477 60.14 133.685 60.084 133.957 60.084C134.213 60.084 134.405 60.148 134.533 60.276C134.677 60.404 134.757 60.572 134.773 60.78C134.805 60.972 134.773 61.188 134.677 61.428L128.533 75.636C128.405 75.924 128.261 76.124 128.101 76.236C127.957 76.348 127.749 76.404 127.477 76.404ZM142.274 72.132C141.106 72.132 140.098 71.876 139.25 71.364C138.402 70.852 137.746 70.14 137.282 69.228C136.834 68.3 136.61 67.228 136.61 66.012C136.61 65.084 136.738 64.252 136.994 63.516C137.25 62.78 137.626 62.156 138.122 61.644C138.618 61.116 139.21 60.716 139.898 60.444C140.602 60.172 141.394 60.036 142.274 60.036C142.85 60.036 143.45 60.124 144.074 60.3C144.698 60.476 145.266 60.78 145.778 61.212C145.938 61.324 146.042 61.46 146.09 61.62C146.138 61.78 146.138 61.94 146.09 62.1C146.042 62.244 145.962 62.372 145.85 62.484C145.738 62.58 145.594 62.636 145.418 62.652C145.258 62.668 145.09 62.612 144.914 62.484C144.498 62.164 144.074 61.94 143.642 61.812C143.21 61.684 142.794 61.62 142.394 61.62C141.77 61.62 141.226 61.724 140.762 61.932C140.298 62.124 139.906 62.404 139.586 62.772C139.266 63.14 139.018 63.596 138.842 64.14C138.682 64.684 138.602 65.316 138.602 66.036C138.602 67.428 138.93 68.532 139.586 69.348C140.242 70.148 141.178 70.548 142.394 70.548C142.794 70.548 143.202 70.484 143.618 70.356C144.05 70.228 144.482 70.004 144.914 69.684C145.09 69.556 145.258 69.5 145.418 69.516C145.578 69.532 145.714 69.596 145.826 69.708C145.938 69.804 146.01 69.932 146.042 70.092C146.09 70.252 146.09 70.412 146.042 70.572C145.994 70.716 145.89 70.844 145.73 70.956C145.218 71.372 144.658 71.676 144.05 71.868C143.442 72.044 142.85 72.132 142.274 72.132ZM153.618 72.132C152.45 72.132 151.442 71.876 150.594 71.364C149.746 70.852 149.09 70.14 148.626 69.228C148.178 68.3 147.954 67.228 147.954 66.012C147.954 65.084 148.082 64.252 148.338 63.516C148.594 62.78 148.97 62.156 149.466 61.644C149.962 61.116 150.554 60.716 151.242 60.444C151.946 60.172 152.738 60.036 153.618 60.036C154.194 60.036 154.794 60.124 155.418 60.3C156.042 60.476 156.61 60.78 157.122 61.212C157.282 61.324 157.386 61.46 157.434 61.62C157.482 61.78 157.482 61.94 157.434 62.1C157.386 62.244 157.306 62.372 157.194 62.484C157.082 62.58 156.938 62.636 156.762 62.652C156.602 62.668 156.434 62.612 156.258 62.484C155.842 62.164 155.418 61.94 154.986 61.812C154.554 61.684 154.138 61.62 153.738 61.62C153.114 61.62 152.57 61.724 152.106 61.932C151.642 62.124 151.25 62.404 150.93 62.772C150.61 63.14 150.362 63.596 150.186 64.14C150.026 64.684 149.946 65.316 149.946 66.036C149.946 67.428 150.274 68.532 150.93 69.348C151.586 70.148 152.522 70.548 153.738 70.548C154.138 70.548 154.546 70.484 154.962 70.356C155.394 70.228 155.826 70.004 156.258 69.684C156.434 69.556 156.602 69.5 156.762 69.516C156.922 69.532 157.058 69.596 157.17 69.708C157.282 69.804 157.354 69.932 157.386 70.092C157.434 70.252 157.434 70.412 157.386 70.572C157.338 70.716 157.234 70.844 157.074 70.956C156.562 71.372 156.002 71.676 155.394 71.868C154.786 72.044 154.194 72.132 153.618 72.132ZM160.978 72.084C160.658 72.084 160.41 71.996 160.234 71.82C160.074 71.644 159.994 71.396 159.994 71.076V61.14C159.994 60.804 160.074 60.556 160.234 60.396C160.41 60.22 160.658 60.132 160.978 60.132C161.282 60.132 161.514 60.22 161.674 60.396C161.85 60.556 161.938 60.804 161.938 61.14V65.124H164.122L167.674 60.564C167.834 60.372 168.01 60.252 168.202 60.204C168.394 60.14 168.57 60.14 168.73 60.204C168.906 60.252 169.042 60.348 169.138 60.492C169.25 60.62 169.306 60.78 169.306 60.972C169.306 61.164 169.234 61.364 169.09 61.572L165.706 65.916L165.154 65.292C165.602 65.34 165.994 65.452 166.33 65.628C166.666 65.804 166.986 66.068 167.29 66.42C167.594 66.772 167.922 67.26 168.274 67.884L170.002 70.74C170.114 70.964 170.154 71.164 170.122 71.34C170.106 71.516 170.026 71.676 169.882 71.82C169.738 71.948 169.57 72.028 169.378 72.06C169.202 72.092 169.026 72.068 168.85 71.988C168.674 71.908 168.514 71.764 168.37 71.556L166.474 68.388C166.202 67.94 165.946 67.596 165.706 67.356C165.466 67.1 165.194 66.924 164.89 66.828C164.586 66.732 164.21 66.684 163.762 66.684H161.938V71.076C161.938 71.396 161.85 71.644 161.674 71.82C161.514 71.996 161.282 72.084 160.978 72.084ZM176.323 72.132C175.523 72.132 174.803 71.98 174.163 71.676C173.539 71.356 173.043 70.924 172.675 70.38C172.307 69.836 172.123 69.228 172.123 68.556C172.123 67.692 172.339 67.012 172.771 66.516C173.219 66.02 173.947 65.668 174.955 65.46C175.979 65.252 177.371 65.148 179.131 65.148H180.211V66.42H179.155C177.859 66.42 176.835 66.484 176.083 66.612C175.347 66.724 174.827 66.924 174.523 67.212C174.235 67.5 174.091 67.908 174.091 68.436C174.091 69.092 174.315 69.628 174.763 70.044C175.227 70.46 175.851 70.668 176.635 70.668C177.275 70.668 177.835 70.516 178.315 70.212C178.811 69.908 179.195 69.492 179.467 68.964C179.755 68.436 179.899 67.828 179.899 67.14V64.404C179.899 63.412 179.699 62.7 179.299 62.268C178.899 61.82 178.243 61.596 177.331 61.596C176.771 61.596 176.211 61.668 175.651 61.812C175.091 61.956 174.499 62.188 173.875 62.508C173.651 62.62 173.459 62.66 173.299 62.628C173.139 62.58 173.011 62.492 172.915 62.364C172.819 62.236 172.763 62.092 172.747 61.932C172.731 61.756 172.763 61.588 172.843 61.428C172.939 61.268 173.083 61.14 173.275 61.044C173.979 60.692 174.675 60.436 175.363 60.276C176.051 60.116 176.707 60.036 177.331 60.036C178.339 60.036 179.171 60.204 179.827 60.54C180.483 60.86 180.971 61.356 181.291 62.028C181.611 62.684 181.771 63.532 181.771 64.572V71.076C181.771 71.396 181.691 71.644 181.531 71.82C181.387 71.996 181.171 72.084 180.883 72.084C180.579 72.084 180.347 71.996 180.187 71.82C180.027 71.644 179.947 71.396 179.947 71.076V69.204H180.163C180.035 69.812 179.787 70.332 179.419 70.764C179.067 71.196 178.627 71.532 178.099 71.772C177.571 72.012 176.979 72.132 176.323 72.132ZM193.748 72.084C193.444 72.084 193.212 72.004 193.052 71.844C192.892 71.668 192.812 71.436 192.812 71.148V67.476H191.108C190.484 67.476 189.948 67.636 189.5 67.956C189.052 68.276 188.692 68.668 188.42 69.132L187.052 71.532C186.908 71.772 186.74 71.932 186.548 72.012C186.356 72.092 186.164 72.108 185.972 72.06C185.78 72.012 185.612 71.916 185.468 71.772C185.324 71.628 185.236 71.46 185.204 71.268C185.172 71.06 185.22 70.844 185.348 70.62L186.5 68.676C186.772 68.196 187.132 67.796 187.58 67.476C188.028 67.156 188.484 66.996 188.948 66.996H189.26V67.212C187.948 67.212 186.932 66.908 186.212 66.3C185.492 65.692 185.132 64.844 185.132 63.756C185.132 63.036 185.284 62.42 185.588 61.908C185.908 61.38 186.388 60.972 187.028 60.684C187.668 60.396 188.46 60.252 189.404 60.252H193.628C193.964 60.252 194.22 60.34 194.396 60.516C194.572 60.692 194.66 60.94 194.66 61.26V71.148C194.66 71.436 194.572 71.668 194.396 71.844C194.236 72.004 194.02 72.084 193.748 72.084ZM189.764 66.06H192.812V61.62H189.764C188.82 61.62 188.124 61.82 187.676 62.22C187.228 62.604 187.004 63.14 187.004 63.828C187.004 64.532 187.228 65.084 187.676 65.484C188.124 65.868 188.82 66.06 189.764 66.06ZM209.609 72.132C208.457 72.132 207.457 71.884 206.609 71.388C205.777 70.876 205.129 70.124 204.665 69.132C204.217 68.14 203.993 66.924 203.993 65.484V63.684C203.993 62.132 204.193 60.836 204.593 59.796C205.009 58.756 205.633 57.916 206.465 57.276C207.313 56.636 208.361 56.148 209.609 55.812L213.113 54.828C213.401 54.748 213.641 54.756 213.833 54.852C214.041 54.948 214.169 55.124 214.217 55.38C214.281 55.652 214.241 55.884 214.097 56.076C213.969 56.268 213.761 56.404 213.473 56.484L209.753 57.492C208.889 57.732 208.169 58.092 207.593 58.572C207.017 59.052 206.585 59.644 206.297 60.348C206.009 61.036 205.865 61.82 205.865 62.7V63.636H205.529C205.721 62.932 206.025 62.324 206.441 61.812C206.857 61.3 207.369 60.908 207.977 60.636C208.601 60.348 209.289 60.204 210.041 60.204C211.049 60.204 211.937 60.444 212.705 60.924C213.473 61.404 214.065 62.084 214.481 62.964C214.913 63.844 215.129 64.892 215.129 66.108C215.129 67.324 214.897 68.388 214.433 69.3C213.985 70.196 213.345 70.892 212.513 71.388C211.697 71.884 210.729 72.132 209.609 72.132ZM209.537 70.572C210.305 70.572 210.953 70.404 211.481 70.068C212.025 69.716 212.441 69.212 212.729 68.556C213.017 67.9 213.161 67.1 213.161 66.156C213.161 64.764 212.841 63.684 212.201 62.916C211.561 62.148 210.681 61.764 209.561 61.764C208.809 61.764 208.161 61.932 207.617 62.268C207.089 62.604 206.681 63.092 206.393 63.732C206.105 64.356 205.961 65.108 205.961 65.988C205.961 67.492 206.273 68.636 206.897 69.42C207.537 70.188 208.417 70.572 209.537 70.572ZM221.979 72.132C221.179 72.132 220.459 71.98 219.819 71.676C219.195 71.356 218.699 70.924 218.331 70.38C217.963 69.836 217.779 69.228 217.779 68.556C217.779 67.692 217.995 67.012 218.427 66.516C218.875 66.02 219.603 65.668 220.611 65.46C221.635 65.252 223.027 65.148 224.787 65.148H225.867V66.42H224.811C223.515 66.42 222.491 66.484 221.739 66.612C221.003 66.724 220.483 66.924 220.179 67.212C219.891 67.5 219.747 67.908 219.747 68.436C219.747 69.092 219.971 69.628 220.419 70.044C220.883 70.46 221.507 70.668 222.291 70.668C222.931 70.668 223.491 70.516 223.971 70.212C224.467 69.908 224.851 69.492 225.123 68.964C225.411 68.436 225.555 67.828 225.555 67.14V64.404C225.555 63.412 225.355 62.7 224.955 62.268C224.555 61.82 223.899 61.596 222.987 61.596C222.427 61.596 221.867 61.668 221.307 61.812C220.747 61.956 220.155 62.188 219.531 62.508C219.307 62.62 219.115 62.66 218.955 62.628C218.795 62.58 218.667 62.492 218.571 62.364C218.475 62.236 218.419 62.092 218.403 61.932C218.387 61.756 218.419 61.588 218.499 61.428C218.595 61.268 218.739 61.14 218.931 61.044C219.635 60.692 220.331 60.436 221.019 60.276C221.707 60.116 222.363 60.036 222.987 60.036C223.995 60.036 224.827 60.204 225.483 60.54C226.139 60.86 226.627 61.356 226.947 62.028C227.267 62.684 227.427 63.532 227.427 64.572V71.076C227.427 71.396 227.347 71.644 227.187 71.82C227.043 71.996 226.827 72.084 226.539 72.084C226.235 72.084 226.003 71.996 225.843 71.82C225.683 71.644 225.603 71.396 225.603 71.076V69.204H225.819C225.691 69.812 225.443 70.332 225.075 70.764C224.723 71.196 224.283 71.532 223.755 71.772C223.227 72.012 222.635 72.132 221.979 72.132ZM232.204 72.084C231.884 72.084 231.636 71.996 231.46 71.82C231.3 71.644 231.22 71.396 231.22 71.076V61.068C231.22 60.732 231.3 60.484 231.46 60.324C231.636 60.164 231.884 60.084 232.204 60.084C232.508 60.084 232.74 60.164 232.9 60.324C233.076 60.484 233.164 60.732 233.164 61.068V65.1H239.524V61.068C239.524 60.732 239.604 60.484 239.764 60.324C239.94 60.164 240.18 60.084 240.484 60.084C240.788 60.084 241.028 60.164 241.204 60.324C241.38 60.484 241.468 60.732 241.468 61.068V71.076C241.468 71.396 241.38 71.644 241.204 71.82C241.028 71.996 240.788 72.084 240.484 72.084C240.18 72.084 239.94 71.996 239.764 71.82C239.604 71.644 239.524 71.396 239.524 71.076V66.684H233.164V71.076C233.164 71.396 233.084 71.644 232.924 71.82C232.764 71.996 232.524 72.084 232.204 72.084ZM253.49 72.084C253.186 72.084 252.954 72.004 252.794 71.844C252.634 71.668 252.554 71.436 252.554 71.148V67.476H250.85C250.226 67.476 249.69 67.636 249.242 67.956C248.794 68.276 248.434 68.668 248.162 69.132L246.794 71.532C246.65 71.772 246.482 71.932 246.29 72.012C246.098 72.092 245.906 72.108 245.714 72.06C245.522 72.012 245.354 71.916 245.21 71.772C245.066 71.628 244.978 71.46 244.946 71.268C244.914 71.06 244.962 70.844 245.09 70.62L246.242 68.676C246.514 68.196 246.874 67.796 247.322 67.476C247.77 67.156 248.226 66.996 248.69 66.996H249.002V67.212C247.69 67.212 246.674 66.908 245.954 66.3C245.234 65.692 244.874 64.844 244.874 63.756C244.874 63.036 245.026 62.42 245.33 61.908C245.65 61.38 246.13 60.972 246.77 60.684C247.41 60.396 248.202 60.252 249.146 60.252H253.37C253.706 60.252 253.962 60.34 254.138 60.516C254.314 60.692 254.402 60.94 254.402 61.26V71.148C254.402 71.436 254.314 71.668 254.138 71.844C253.978 72.004 253.762 72.084 253.49 72.084ZM249.506 66.06H252.554V61.62H249.506C248.562 61.62 247.866 61.82 247.418 62.22C246.97 62.604 246.746 63.14 246.746 63.828C246.746 64.532 246.97 65.084 247.418 65.484C247.866 65.868 248.562 66.06 249.506 66.06ZM259.3 74.196C259.14 74.404 258.972 74.524 258.796 74.556C258.62 74.588 258.468 74.556 258.34 74.46C258.212 74.364 258.14 74.228 258.124 74.052C258.124 73.876 258.204 73.684 258.364 73.476C258.62 73.14 258.796 72.796 258.892 72.444C258.988 72.108 259.036 71.796 259.036 71.508L259.132 72.012C258.716 72.012 258.38 71.892 258.124 71.652C257.884 71.396 257.764 71.076 257.764 70.692C257.764 70.308 257.876 69.996 258.1 69.756C258.34 69.5 258.652 69.372 259.036 69.372C259.452 69.372 259.78 69.516 260.02 69.804C260.26 70.076 260.38 70.476 260.38 71.004C260.38 71.34 260.348 71.684 260.284 72.036C260.22 72.404 260.108 72.772 259.948 73.14C259.788 73.508 259.572 73.86 259.3 74.196ZM277.5 76.404C277.196 76.404 276.956 76.316 276.78 76.14C276.62 75.964 276.54 75.708 276.54 75.372V69.348H276.756C276.532 70.228 276.132 70.916 275.556 71.412C274.98 71.892 274.268 72.132 273.42 72.132C272.572 72.132 271.828 71.884 271.188 71.388C270.564 70.892 270.076 70.188 269.724 69.276C269.372 68.364 269.196 67.3 269.196 66.084C269.196 64.836 269.372 63.764 269.724 62.868C270.076 61.956 270.564 61.26 271.188 60.78C271.828 60.284 272.572 60.036 273.42 60.036C274.284 60.036 274.996 60.284 275.556 60.78C276.132 61.26 276.532 61.94 276.756 62.82H276.54V55.86C276.54 55.524 276.62 55.268 276.78 55.092C276.956 54.916 277.196 54.828 277.5 54.828C277.82 54.828 278.06 54.916 278.22 55.092C278.396 55.268 278.484 55.524 278.484 55.86V62.82H278.244C278.484 61.94 278.884 61.26 279.444 60.78C280.02 60.284 280.74 60.036 281.604 60.036C282.452 60.036 283.188 60.284 283.812 60.78C284.452 61.26 284.948 61.956 285.3 62.868C285.652 63.764 285.828 64.836 285.828 66.084C285.828 67.3 285.652 68.364 285.3 69.276C284.948 70.188 284.46 70.892 283.836 71.388C283.212 71.884 282.468 72.132 281.604 72.132C280.756 72.132 280.044 71.892 279.468 71.412C278.892 70.916 278.484 70.228 278.244 69.348H278.484V75.372C278.484 75.708 278.404 75.964 278.244 76.14C278.084 76.316 277.836 76.404 277.5 76.404ZM273.852 70.596C274.428 70.596 274.916 70.428 275.316 70.092C275.716 69.74 276.02 69.228 276.228 68.556C276.452 67.884 276.564 67.06 276.564 66.084C276.564 64.612 276.316 63.492 275.82 62.724C275.34 61.956 274.684 61.572 273.852 61.572C273.308 61.572 272.828 61.748 272.412 62.1C272.012 62.436 271.7 62.94 271.476 63.612C271.252 64.284 271.14 65.108 271.14 66.084C271.14 67.06 271.244 67.884 271.452 68.556C271.676 69.228 271.996 69.74 272.412 70.092C272.828 70.428 273.308 70.596 273.852 70.596ZM281.148 70.596C281.708 70.596 282.188 70.428 282.588 70.092C283.004 69.74 283.324 69.228 283.548 68.556C283.772 67.884 283.884 67.06 283.884 66.084C283.884 65.108 283.764 64.284 283.524 63.612C283.3 62.94 282.988 62.436 282.588 62.1C282.188 61.748 281.708 61.572 281.148 61.572C280.588 61.572 280.108 61.748 279.708 62.1C279.308 62.436 278.996 62.94 278.772 63.612C278.564 64.284 278.46 65.108 278.46 66.084C278.46 67.572 278.692 68.7 279.156 69.468C279.636 70.22 280.3 70.596 281.148 70.596ZM289.858 72.084C289.682 72.084 289.522 72.044 289.378 71.964C289.25 71.9 289.146 71.788 289.066 71.628C289.002 71.468 288.97 71.268 288.97 71.028V61.044C288.97 60.724 289.05 60.484 289.21 60.324C289.37 60.164 289.586 60.084 289.858 60.084C290.146 60.084 290.362 60.164 290.506 60.324C290.666 60.484 290.746 60.724 290.746 61.044V70.068H290.146L297.13 60.708C297.258 60.532 297.41 60.388 297.586 60.276C297.762 60.148 297.986 60.084 298.258 60.084C298.45 60.084 298.61 60.116 298.738 60.18C298.866 60.244 298.962 60.356 299.026 60.516C299.106 60.66 299.146 60.86 299.146 61.116V71.124C299.146 71.428 299.066 71.668 298.906 71.844C298.762 72.004 298.546 72.084 298.258 72.084C297.97 72.084 297.746 72.004 297.586 71.844C297.442 71.668 297.37 71.428 297.37 71.124V62.076H297.97L290.962 71.46C290.85 71.62 290.706 71.764 290.53 71.892C290.37 72.02 290.146 72.084 289.858 72.084ZM303.97 72.084C303.65 72.084 303.402 71.996 303.226 71.82C303.066 71.644 302.986 71.396 302.986 71.076V61.068C302.986 60.732 303.066 60.484 303.226 60.324C303.402 60.164 303.65 60.084 303.97 60.084C304.274 60.084 304.506 60.164 304.666 60.324C304.842 60.484 304.93 60.732 304.93 61.068V65.1H311.29V61.068C311.29 60.732 311.37 60.484 311.53 60.324C311.706 60.164 311.946 60.084 312.25 60.084C312.554 60.084 312.794 60.164 312.97 60.324C313.146 60.484 313.234 60.732 313.234 61.068V71.076C313.234 71.396 313.146 71.644 312.97 71.82C312.794 71.996 312.554 72.084 312.25 72.084C311.946 72.084 311.706 71.996 311.53 71.82C311.37 71.644 311.29 71.396 311.29 71.076V66.684H304.93V71.076C304.93 71.396 304.85 71.644 304.69 71.82C304.53 71.996 304.29 72.084 303.97 72.084ZM322.04 72.132C320.872 72.132 319.864 71.876 319.016 71.364C318.168 70.852 317.512 70.14 317.048 69.228C316.6 68.3 316.376 67.228 316.376 66.012C316.376 65.084 316.504 64.252 316.76 63.516C317.016 62.78 317.392 62.156 317.888 61.644C318.384 61.116 318.976 60.716 319.664 60.444C320.368 60.172 321.16 60.036 322.04 60.036C322.616 60.036 323.216 60.124 323.84 60.3C324.464 60.476 325.032 60.78 325.544 61.212C325.704 61.324 325.808 61.46 325.856 61.62C325.904 61.78 325.904 61.94 325.856 62.1C325.808 62.244 325.728 62.372 325.616 62.484C325.504 62.58 325.36 62.636 325.184 62.652C325.024 62.668 324.856 62.612 324.68 62.484C324.264 62.164 323.84 61.94 323.408 61.812C322.976 61.684 322.56 61.62 322.16 61.62C321.536 61.62 320.992 61.724 320.528 61.932C320.064 62.124 319.672 62.404 319.352 62.772C319.032 63.14 318.784 63.596 318.608 64.14C318.448 64.684 318.368 65.316 318.368 66.036C318.368 67.428 318.696 68.532 319.352 69.348C320.008 70.148 320.944 70.548 322.16 70.548C322.56 70.548 322.968 70.484 323.384 70.356C323.816 70.228 324.248 70.004 324.68 69.684C324.856 69.556 325.024 69.5 325.184 69.516C325.344 69.532 325.48 69.596 325.592 69.708C325.704 69.804 325.776 69.932 325.808 70.092C325.856 70.252 325.856 70.412 325.808 70.572C325.76 70.716 325.656 70.844 325.496 70.956C324.984 71.372 324.424 71.676 323.816 71.868C323.208 72.044 322.616 72.132 322.04 72.132ZM329.4 72.084C329.08 72.084 328.832 71.996 328.656 71.82C328.496 71.644 328.416 71.396 328.416 71.076V61.14C328.416 60.804 328.496 60.556 328.656 60.396C328.832 60.22 329.08 60.132 329.4 60.132C329.704 60.132 329.936 60.22 330.096 60.396C330.272 60.556 330.36 60.804 330.36 61.14V65.124H332.544L336.096 60.564C336.256 60.372 336.432 60.252 336.624 60.204C336.816 60.14 336.992 60.14 337.152 60.204C337.328 60.252 337.464 60.348 337.56 60.492C337.672 60.62 337.728 60.78 337.728 60.972C337.728 61.164 337.656 61.364 337.512 61.572L334.128 65.916L333.576 65.292C334.024 65.34 334.416 65.452 334.752 65.628C335.088 65.804 335.408 66.068 335.712 66.42C336.016 66.772 336.344 67.26 336.696 67.884L338.424 70.74C338.536 70.964 338.576 71.164 338.544 71.34C338.528 71.516 338.448 71.676 338.304 71.82C338.16 71.948 337.992 72.028 337.8 72.06C337.624 72.092 337.448 72.068 337.272 71.988C337.096 71.908 336.936 71.764 336.792 71.556L334.896 68.388C334.624 67.94 334.368 67.596 334.128 67.356C333.888 67.1 333.616 66.924 333.312 66.828C333.008 66.732 332.632 66.684 332.184 66.684H330.36V71.076C330.36 71.396 330.272 71.644 330.096 71.82C329.936 71.996 329.704 72.084 329.4 72.084ZM344.744 72.132C343.944 72.132 343.224 71.98 342.584 71.676C341.96 71.356 341.464 70.924 341.096 70.38C340.728 69.836 340.544 69.228 340.544 68.556C340.544 67.692 340.76 67.012 341.192 66.516C341.64 66.02 342.368 65.668 343.376 65.46C344.4 65.252 345.792 65.148 347.552 65.148H348.632V66.42H347.576C346.28 66.42 345.256 66.484 344.504 66.612C343.768 66.724 343.248 66.924 342.944 67.212C342.656 67.5 342.512 67.908 342.512 68.436C342.512 69.092 342.736 69.628 343.184 70.044C343.648 70.46 344.272 70.668 345.056 70.668C345.696 70.668 346.256 70.516 346.736 70.212C347.232 69.908 347.616 69.492 347.888 68.964C348.176 68.436 348.32 67.828 348.32 67.14V64.404C348.32 63.412 348.12 62.7 347.72 62.268C347.32 61.82 346.664 61.596 345.752 61.596C345.192 61.596 344.632 61.668 344.072 61.812C343.512 61.956 342.92 62.188 342.296 62.508C342.072 62.62 341.88 62.66 341.72 62.628C341.56 62.58 341.432 62.492 341.336 62.364C341.24 62.236 341.184 62.092 341.168 61.932C341.152 61.756 341.184 61.588 341.264 61.428C341.36 61.268 341.504 61.14 341.696 61.044C342.4 60.692 343.096 60.436 343.784 60.276C344.472 60.116 345.128 60.036 345.752 60.036C346.76 60.036 347.592 60.204 348.248 60.54C348.904 60.86 349.392 61.356 349.712 62.028C350.032 62.684 350.192 63.532 350.192 64.572V71.076C350.192 71.396 350.112 71.644 349.952 71.82C349.808 71.996 349.592 72.084 349.304 72.084C349 72.084 348.768 71.996 348.608 71.82C348.448 71.644 348.368 71.396 348.368 71.076V69.204H348.584C348.456 69.812 348.208 70.332 347.84 70.764C347.488 71.196 347.048 71.532 346.52 71.772C345.992 72.012 345.4 72.132 344.744 72.132ZM362.17 72.084C361.866 72.084 361.634 72.004 361.474 71.844C361.314 71.668 361.234 71.436 361.234 71.148V67.476H359.53C358.906 67.476 358.37 67.636 357.922 67.956C357.474 68.276 357.114 68.668 356.842 69.132L355.474 71.532C355.33 71.772 355.162 71.932 354.97 72.012C354.778 72.092 354.586 72.108 354.394 72.06C354.202 72.012 354.034 71.916 353.89 71.772C353.746 71.628 353.658 71.46 353.626 71.268C353.594 71.06 353.642 70.844 353.77 70.62L354.922 68.676C355.194 68.196 355.554 67.796 356.002 67.476C356.45 67.156 356.906 66.996 357.37 66.996H357.682V67.212C356.37 67.212 355.354 66.908 354.634 66.3C353.914 65.692 353.554 64.844 353.554 63.756C353.554 63.036 353.706 62.42 354.01 61.908C354.33 61.38 354.81 60.972 355.45 60.684C356.09 60.396 356.882 60.252 357.826 60.252H362.05C362.386 60.252 362.642 60.34 362.818 60.516C362.994 60.692 363.082 60.94 363.082 61.26V71.148C363.082 71.436 362.994 71.668 362.818 71.844C362.658 72.004 362.442 72.084 362.17 72.084ZM358.186 66.06H361.234V61.62H358.186C357.242 61.62 356.546 61.82 356.098 62.22C355.65 62.604 355.426 63.14 355.426 63.828C355.426 64.532 355.65 65.084 356.098 65.484C356.546 65.868 357.242 66.06 358.186 66.06ZM378.079 72.132C376.911 72.132 375.903 71.876 375.055 71.364C374.207 70.852 373.551 70.14 373.087 69.228C372.639 68.3 372.415 67.228 372.415 66.012C372.415 65.084 372.543 64.252 372.799 63.516C373.055 62.78 373.431 62.156 373.927 61.644C374.423 61.116 375.015 60.716 375.703 60.444C376.407 60.172 377.199 60.036 378.079 60.036C378.655 60.036 379.255 60.124 379.879 60.3C380.503 60.476 381.071 60.78 381.583 61.212C381.743 61.324 381.847 61.46 381.895 61.62C381.943 61.78 381.943 61.94 381.895 62.1C381.847 62.244 381.767 62.372 381.655 62.484C381.543 62.58 381.399 62.636 381.223 62.652C381.063 62.668 380.895 62.612 380.719 62.484C380.303 62.164 379.879 61.94 379.447 61.812C379.015 61.684 378.599 61.62 378.199 61.62C377.575 61.62 377.031 61.724 376.567 61.932C376.103 62.124 375.711 62.404 375.391 62.772C375.071 63.14 374.823 63.596 374.647 64.14C374.487 64.684 374.407 65.316 374.407 66.036C374.407 67.428 374.735 68.532 375.391 69.348C376.047 70.148 376.983 70.548 378.199 70.548C378.599 70.548 379.007 70.484 379.423 70.356C379.855 70.228 380.287 70.004 380.719 69.684C380.895 69.556 381.063 69.5 381.223 69.516C381.383 69.532 381.519 69.596 381.631 69.708C381.743 69.804 381.815 69.932 381.847 70.092C381.895 70.252 381.895 70.412 381.847 70.572C381.799 70.716 381.695 70.844 381.535 70.956C381.023 71.372 380.463 71.676 379.855 71.868C379.247 72.044 378.655 72.132 378.079 72.132ZM388.151 72.132C387.351 72.132 386.631 71.98 385.991 71.676C385.367 71.356 384.871 70.924 384.503 70.38C384.135 69.836 383.951 69.228 383.951 68.556C383.951 67.692 384.167 67.012 384.599 66.516C385.047 66.02 385.775 65.668 386.783 65.46C387.807 65.252 389.199 65.148 390.959 65.148H392.039V66.42H390.983C389.687 66.42 388.663 66.484 387.911 66.612C387.175 66.724 386.655 66.924 386.351 67.212C386.063 67.5 385.919 67.908 385.919 68.436C385.919 69.092 386.143 69.628 386.591 70.044C387.055 70.46 387.679 70.668 388.463 70.668C389.103 70.668 389.663 70.516 390.143 70.212C390.639 69.908 391.023 69.492 391.295 68.964C391.583 68.436 391.727 67.828 391.727 67.14V64.404C391.727 63.412 391.527 62.7 391.127 62.268C390.727 61.82 390.071 61.596 389.159 61.596C388.599 61.596 388.039 61.668 387.479 61.812C386.919 61.956 386.327 62.188 385.703 62.508C385.479 62.62 385.287 62.66 385.127 62.628C384.967 62.58 384.839 62.492 384.743 62.364C384.647 62.236 384.591 62.092 384.575 61.932C384.559 61.756 384.591 61.588 384.671 61.428C384.767 61.268 384.911 61.14 385.103 61.044C385.807 60.692 386.503 60.436 387.191 60.276C387.879 60.116 388.535 60.036 389.159 60.036C390.167 60.036 390.999 60.204 391.655 60.54C392.311 60.86 392.799 61.356 393.119 62.028C393.439 62.684 393.599 63.532 393.599 64.572V71.076C393.599 71.396 393.519 71.644 393.359 71.82C393.215 71.996 392.999 72.084 392.711 72.084C392.407 72.084 392.175 71.996 392.015 71.82C391.855 71.644 391.775 71.396 391.775 71.076V69.204H391.991C391.863 69.812 391.615 70.332 391.247 70.764C390.895 71.196 390.455 71.532 389.927 71.772C389.399 72.012 388.807 72.132 388.151 72.132ZM400.008 76.404C399.768 76.404 399.576 76.34 399.432 76.212C399.288 76.084 399.2 75.908 399.168 75.684C399.152 75.476 399.192 75.26 399.288 75.036L400.944 71.316V72.156L396.336 61.452C396.24 61.212 396.208 60.988 396.24 60.78C396.272 60.572 396.368 60.404 396.528 60.276C396.688 60.148 396.912 60.084 397.2 60.084C397.456 60.084 397.656 60.14 397.8 60.252C397.944 60.364 398.072 60.564 398.184 60.852L402.12 70.5H401.472L405.456 60.852C405.584 60.564 405.72 60.364 405.864 60.252C406.008 60.14 406.216 60.084 406.488 60.084C406.744 60.084 406.936 60.148 407.064 60.276C407.208 60.404 407.288 60.572 407.304 60.78C407.336 60.972 407.304 61.188 407.208 61.428L401.064 75.636C400.936 75.924 400.792 76.124 400.632 76.236C400.488 76.348 400.28 76.404 400.008 76.404ZM410.962 72.084C410.642 72.084 410.394 71.996 410.218 71.82C410.058 71.644 409.978 71.396 409.978 71.076V61.068C409.978 60.732 410.058 60.484 410.218 60.324C410.394 60.164 410.642 60.084 410.962 60.084C411.266 60.084 411.498 60.164 411.658 60.324C411.834 60.484 411.922 60.732 411.922 61.068V65.1H418.282V61.068C418.282 60.732 418.362 60.484 418.522 60.324C418.698 60.164 418.938 60.084 419.242 60.084C419.546 60.084 419.786 60.164 419.962 60.324C420.138 60.484 420.226 60.732 420.226 61.068V71.076C420.226 71.396 420.138 71.644 419.962 71.82C419.786 71.996 419.546 72.084 419.242 72.084C418.938 72.084 418.698 71.996 418.522 71.82C418.362 71.644 418.282 71.396 418.282 71.076V66.684H411.922V71.076C411.922 71.396 411.842 71.644 411.682 71.82C411.522 71.996 411.282 72.084 410.962 72.084ZM427.76 72.132C426.96 72.132 426.24 71.98 425.6 71.676C424.976 71.356 424.48 70.924 424.112 70.38C423.744 69.836 423.56 69.228 423.56 68.556C423.56 67.692 423.776 67.012 424.208 66.516C424.656 66.02 425.384 65.668 426.392 65.46C427.416 65.252 428.808 65.148 430.568 65.148H431.648V66.42H430.592C429.296 66.42 428.272 66.484 427.52 66.612C426.784 66.724 426.264 66.924 425.96 67.212C425.672 67.5 425.528 67.908 425.528 68.436C425.528 69.092 425.752 69.628 426.2 70.044C426.664 70.46 427.288 70.668 428.072 70.668C428.712 70.668 429.272 70.516 429.752 70.212C430.248 69.908 430.632 69.492 430.904 68.964C431.192 68.436 431.336 67.828 431.336 67.14V64.404C431.336 63.412 431.136 62.7 430.736 62.268C430.336 61.82 429.68 61.596 428.768 61.596C428.208 61.596 427.648 61.668 427.088 61.812C426.528 61.956 425.936 62.188 425.312 62.508C425.088 62.62 424.896 62.66 424.736 62.628C424.576 62.58 424.448 62.492 424.352 62.364C424.256 62.236 424.2 62.092 424.184 61.932C424.168 61.756 424.2 61.588 424.28 61.428C424.376 61.268 424.52 61.14 424.712 61.044C425.416 60.692 426.112 60.436 426.8 60.276C427.488 60.116 428.144 60.036 428.768 60.036C429.776 60.036 430.608 60.204 431.264 60.54C431.92 60.86 432.408 61.356 432.728 62.028C433.048 62.684 433.208 63.532 433.208 64.572V71.076C433.208 71.396 433.128 71.644 432.968 71.82C432.824 71.996 432.608 72.084 432.32 72.084C432.016 72.084 431.784 71.996 431.624 71.82C431.464 71.644 431.384 71.396 431.384 71.076V69.204H431.6C431.472 69.812 431.224 70.332 430.856 70.764C430.504 71.196 430.064 71.532 429.536 71.772C429.008 72.012 428.416 72.132 427.76 72.132ZM438.058 74.196C437.898 74.404 437.73 74.524 437.554 74.556C437.378 74.588 437.226 74.556 437.098 74.46C436.97 74.364 436.898 74.228 436.882 74.052C436.882 73.876 436.962 73.684 437.122 73.476C437.378 73.14 437.554 72.796 437.65 72.444C437.746 72.108 437.794 71.796 437.794 71.508L437.89 72.012C437.474 72.012 437.138 71.892 436.882 71.652C436.642 71.396 436.522 71.076 436.522 70.692C436.522 70.308 436.634 69.996 436.858 69.756C437.098 69.5 437.41 69.372 437.794 69.372C438.21 69.372 438.538 69.516 438.778 69.804C439.018 70.076 439.138 70.476 439.138 71.004C439.138 71.34 439.106 71.684 439.042 72.036C438.978 72.404 438.866 72.772 438.706 73.14C438.546 73.508 438.33 73.86 438.058 74.196ZM448.722 72.06C448.514 72.06 448.33 71.996 448.17 71.868C448.01 71.74 447.922 71.572 447.906 71.364C447.906 71.14 448.01 70.908 448.218 70.668L452.418 65.388V66.396L448.482 61.476C448.274 61.22 448.17 60.988 448.17 60.78C448.186 60.572 448.274 60.404 448.434 60.276C448.594 60.148 448.778 60.084 448.986 60.084C449.226 60.084 449.426 60.132 449.586 60.228C449.762 60.308 449.922 60.444 450.066 60.636L453.498 64.98H452.826L456.282 60.636C456.426 60.444 456.578 60.308 456.738 60.228C456.898 60.132 457.098 60.084 457.338 60.084C457.562 60.084 457.746 60.148 457.89 60.276C458.05 60.404 458.13 60.58 458.13 60.804C458.146 61.012 458.05 61.244 457.842 61.5L453.93 66.348V65.46L458.13 70.668C458.322 70.908 458.41 71.14 458.394 71.364C458.394 71.572 458.314 71.74 458.154 71.868C457.994 71.996 457.802 72.06 457.578 72.06C457.354 72.06 457.154 72.012 456.978 71.916C456.818 71.836 456.658 71.7 456.498 71.508L452.802 66.852H453.498L449.802 71.508C449.658 71.684 449.498 71.82 449.322 71.916C449.162 72.012 448.962 72.06 448.722 72.06ZM465.073 72.132C464.273 72.132 463.553 71.98 462.913 71.676C462.289 71.356 461.793 70.924 461.425 70.38C461.057 69.836 460.873 69.228 460.873 68.556C460.873 67.692 461.089 67.012 461.521 66.516C461.969 66.02 462.697 65.668 463.705 65.46C464.729 65.252 466.121 65.148 467.881 65.148H468.961V66.42H467.905C466.609 66.42 465.585 66.484 464.833 66.612C464.097 66.724 463.577 66.924 463.273 67.212C462.985 67.5 462.841 67.908 462.841 68.436C462.841 69.092 463.065 69.628 463.513 70.044C463.977 70.46 464.601 70.668 465.385 70.668C466.025 70.668 466.585 70.516 467.065 70.212C467.561 69.908 467.945 69.492 468.217 68.964C468.505 68.436 468.649 67.828 468.649 67.14V64.404C468.649 63.412 468.449 62.7 468.049 62.268C467.649 61.82 466.993 61.596 466.081 61.596C465.521 61.596 464.961 61.668 464.401 61.812C463.841 61.956 463.249 62.188 462.625 62.508C462.401 62.62 462.209 62.66 462.049 62.628C461.889 62.58 461.761 62.492 461.665 62.364C461.569 62.236 461.513 62.092 461.497 61.932C461.481 61.756 461.513 61.588 461.593 61.428C461.689 61.268 461.833 61.14 462.025 61.044C462.729 60.692 463.425 60.436 464.113 60.276C464.801 60.116 465.457 60.036 466.081 60.036C467.089 60.036 467.921 60.204 468.577 60.54C469.233 60.86 469.721 61.356 470.041 62.028C470.361 62.684 470.521 63.532 470.521 64.572V71.076C470.521 71.396 470.441 71.644 470.281 71.82C470.137 71.996 469.921 72.084 469.633 72.084C469.329 72.084 469.097 71.996 468.937 71.82C468.777 71.644 468.697 71.396 468.697 71.076V69.204H468.913C468.785 69.812 468.537 70.332 468.169 70.764C467.817 71.196 467.377 71.532 466.849 71.772C466.321 72.012 465.729 72.132 465.073 72.132ZM475.178 72.084C474.906 72.084 474.69 72.004 474.53 71.844C474.386 71.668 474.314 71.436 474.314 71.148V61.116C474.314 60.892 474.346 60.708 474.41 60.564C474.474 60.404 474.57 60.284 474.698 60.204C474.826 60.124 474.986 60.084 475.178 60.084C475.37 60.084 475.53 60.116 475.658 60.18C475.786 60.228 475.898 60.308 475.994 60.42C476.09 60.516 476.17 60.636 476.234 60.78L480.314 68.052L484.394 60.78C484.458 60.636 484.538 60.516 484.634 60.42C484.73 60.308 484.842 60.228 484.97 60.18C485.098 60.116 485.25 60.084 485.426 60.084C485.714 60.084 485.93 60.172 486.074 60.348C486.218 60.508 486.29 60.764 486.29 61.116V71.148C486.29 71.436 486.218 71.668 486.074 71.844C485.93 72.004 485.714 72.084 485.426 72.084C485.154 72.084 484.938 72.004 484.778 71.844C484.634 71.668 484.562 71.436 484.562 71.148V62.484H485.114L481.01 69.684C480.946 69.812 480.858 69.924 480.746 70.02C480.634 70.1 480.49 70.14 480.314 70.14C480.122 70.14 479.97 70.092 479.858 69.996C479.762 69.9 479.674 69.796 479.594 69.684L475.49 62.484H476.042V71.148C476.042 71.436 475.962 71.668 475.802 71.844C475.658 72.004 475.45 72.084 475.178 72.084ZM493.83 72.132C493.03 72.132 492.31 71.98 491.67 71.676C491.046 71.356 490.55 70.924 490.182 70.38C489.814 69.836 489.63 69.228 489.63 68.556C489.63 67.692 489.846 67.012 490.278 66.516C490.726 66.02 491.454 65.668 492.462 65.46C493.486 65.252 494.878 65.148 496.638 65.148H497.718V66.42H496.662C495.366 66.42 494.342 66.484 493.59 66.612C492.854 66.724 492.334 66.924 492.03 67.212C491.742 67.5 491.598 67.908 491.598 68.436C491.598 69.092 491.822 69.628 492.27 70.044C492.734 70.46 493.358 70.668 494.142 70.668C494.782 70.668 495.342 70.516 495.822 70.212C496.318 69.908 496.702 69.492 496.974 68.964C497.262 68.436 497.406 67.828 497.406 67.14V64.404C497.406 63.412 497.206 62.7 496.806 62.268C496.406 61.82 495.75 61.596 494.838 61.596C494.278 61.596 493.718 61.668 493.158 61.812C492.598 61.956 492.006 62.188 491.382 62.508C491.158 62.62 490.966 62.66 490.806 62.628C490.646 62.58 490.518 62.492 490.422 62.364C490.326 62.236 490.27 62.092 490.254 61.932C490.238 61.756 490.27 61.588 490.35 61.428C490.446 61.268 490.59 61.14 490.782 61.044C491.486 60.692 492.182 60.436 492.87 60.276C493.558 60.116 494.214 60.036 494.838 60.036C495.846 60.036 496.678 60.204 497.334 60.54C497.99 60.86 498.478 61.356 498.798 62.028C499.118 62.684 499.278 63.532 499.278 64.572V71.076C499.278 71.396 499.198 71.644 499.038 71.82C498.894 71.996 498.678 72.084 498.39 72.084C498.086 72.084 497.854 71.996 497.694 71.82C497.534 71.644 497.454 71.396 497.454 71.076V69.204H497.67C497.542 69.812 497.294 70.332 496.926 70.764C496.574 71.196 496.134 71.532 495.606 71.772C495.078 72.012 494.486 72.132 493.83 72.132ZM503.936 72.084C503.664 72.084 503.448 72.004 503.288 71.844C503.144 71.668 503.072 71.436 503.072 71.148V61.116C503.072 60.892 503.104 60.708 503.168 60.564C503.232 60.404 503.328 60.284 503.456 60.204C503.584 60.124 503.744 60.084 503.936 60.084C504.128 60.084 504.288 60.116 504.416 60.18C504.544 60.228 504.656 60.308 504.752 60.42C504.848 60.516 504.928 60.636 504.992 60.78L509.072 68.052L513.152 60.78C513.216 60.636 513.296 60.516 513.392 60.42C513.488 60.308 513.6 60.228 513.728 60.18C513.856 60.116 514.008 60.084 514.184 60.084C514.472 60.084 514.688 60.172 514.832 60.348C514.976 60.508 515.048 60.764 515.048 61.116V71.148C515.048 71.436 514.976 71.668 514.832 71.844C514.688 72.004 514.472 72.084 514.184 72.084C513.912 72.084 513.696 72.004 513.536 71.844C513.392 71.668 513.32 71.436 513.32 71.148V62.484H513.872L509.768 69.684C509.704 69.812 509.616 69.924 509.504 70.02C509.392 70.1 509.248 70.14 509.072 70.14C508.88 70.14 508.728 70.092 508.616 69.996C508.52 69.9 508.432 69.796 508.352 69.684L504.248 62.484H504.8V71.148C504.8 71.436 504.72 71.668 504.56 71.844C504.416 72.004 504.208 72.084 503.936 72.084ZM519.948 74.196C519.788 74.404 519.62 74.524 519.444 74.556C519.268 74.588 519.116 74.556 518.988 74.46C518.86 74.364 518.788 74.228 518.772 74.052C518.772 73.876 518.852 73.684 519.012 73.476C519.268 73.14 519.444 72.796 519.54 72.444C519.636 72.108 519.684 71.796 519.684 71.508L519.78 72.012C519.364 72.012 519.028 71.892 518.772 71.652C518.532 71.396 518.412 71.076 518.412 70.692C518.412 70.308 518.524 69.996 518.748 69.756C518.988 69.5 519.3 69.372 519.684 69.372C520.1 69.372 520.428 69.516 520.668 69.804C520.908 70.076 521.028 70.476 521.028 71.004C521.028 71.34 520.996 71.684 520.932 72.036C520.868 72.404 520.756 72.772 520.596 73.14C520.436 73.508 520.22 73.86 519.948 74.196ZM531.525 72.084C531.205 72.084 530.957 71.996 530.781 71.82C530.621 71.644 530.541 71.396 530.541 71.076V61.14C530.541 60.804 530.621 60.556 530.781 60.396C530.957 60.22 531.205 60.132 531.525 60.132C531.829 60.132 532.061 60.22 532.221 60.396C532.397 60.556 532.485 60.804 532.485 61.14V65.124H534.669L538.221 60.564C538.381 60.372 538.557 60.252 538.749 60.204C538.941 60.14 539.117 60.14 539.277 60.204C539.453 60.252 539.589 60.348 539.685 60.492C539.797 60.62 539.853 60.78 539.853 60.972C539.853 61.164 539.781 61.364 539.637 61.572L536.253 65.916L535.701 65.292C536.149 65.34 536.541 65.452 536.877 65.628C537.213 65.804 537.533 66.068 537.837 66.42C538.141 66.772 538.469 67.26 538.821 67.884L540.549 70.74C540.661 70.964 540.701 71.164 540.669 71.34C540.653 71.516 540.573 71.676 540.429 71.82C540.285 71.948 540.117 72.028 539.925 72.06C539.749 72.092 539.573 72.068 539.397 71.988C539.221 71.908 539.061 71.764 538.917 71.556L537.021 68.388C536.749 67.94 536.493 67.596 536.253 67.356C536.013 67.1 535.741 66.924 535.437 66.828C535.133 66.732 534.757 66.684 534.309 66.684H532.485V71.076C532.485 71.396 532.397 71.644 532.221 71.82C532.061 71.996 531.829 72.084 531.525 72.084ZM548.453 72.132C547.221 72.132 546.157 71.892 545.261 71.412C544.381 70.916 543.693 70.22 543.197 69.324C542.717 68.428 542.477 67.356 542.477 66.108C542.477 64.892 542.717 63.836 543.197 62.94C543.677 62.028 544.333 61.316 545.165 60.804C546.013 60.292 546.989 60.036 548.093 60.036C548.877 60.036 549.581 60.172 550.205 60.444C550.829 60.7 551.357 61.076 551.789 61.572C552.237 62.068 552.573 62.668 552.797 63.372C553.037 64.076 553.157 64.868 553.157 65.748C553.157 66.004 553.085 66.196 552.941 66.324C552.797 66.436 552.589 66.492 552.317 66.492H543.965V65.22H551.861L551.477 65.532C551.477 64.668 551.349 63.94 551.093 63.348C550.837 62.74 550.461 62.276 549.965 61.956C549.485 61.636 548.877 61.476 548.141 61.476C547.325 61.476 546.629 61.668 546.053 62.052C545.493 62.42 545.069 62.94 544.781 63.612C544.493 64.268 544.349 65.036 544.349 65.916V66.06C544.349 67.532 544.701 68.652 545.405 69.42C546.125 70.188 547.141 70.572 548.453 70.572C548.997 70.572 549.533 70.5 550.061 70.356C550.605 70.212 551.133 69.972 551.645 69.636C551.869 69.492 552.069 69.428 552.245 69.444C552.437 69.444 552.589 69.5 552.701 69.612C552.813 69.708 552.885 69.836 552.917 69.996C552.965 70.14 552.949 70.3 552.869 70.476C552.805 70.652 552.669 70.804 552.461 70.932C551.933 71.316 551.309 71.612 550.589 71.82C549.869 72.028 549.157 72.132 548.453 72.132ZM565.133 72.084C564.829 72.084 564.589 71.996 564.413 71.82C564.253 71.644 564.173 71.396 564.173 71.076V61.812H559.469V63.3C559.469 64.548 559.405 65.652 559.277 66.612C559.165 67.556 558.981 68.372 558.725 69.06C558.469 69.748 558.125 70.324 557.693 70.788C557.277 71.252 556.757 71.644 556.133 71.964C555.925 72.06 555.725 72.084 555.533 72.036C555.341 72.004 555.181 71.932 555.053 71.82C554.941 71.692 554.861 71.54 554.813 71.364C554.781 71.188 554.805 71.012 554.885 70.836C554.965 70.66 555.109 70.516 555.317 70.404C555.781 70.148 556.157 69.828 556.445 69.444C556.749 69.06 556.989 68.58 557.165 68.004C557.341 67.428 557.461 66.756 557.525 65.988C557.605 65.204 557.645 64.284 557.645 63.228V61.356C557.645 60.988 557.741 60.716 557.933 60.54C558.125 60.348 558.397 60.252 558.749 60.252H565.013C565.365 60.252 565.637 60.348 565.829 60.54C566.021 60.716 566.117 60.988 566.117 61.356V71.076C566.117 71.396 566.029 71.644 565.853 71.82C565.693 71.996 565.453 72.084 565.133 72.084ZM575.242 72.132C574.01 72.132 572.946 71.892 572.05 71.412C571.17 70.916 570.482 70.22 569.986 69.324C569.506 68.428 569.266 67.356 569.266 66.108C569.266 64.892 569.506 63.836 569.986 62.94C570.466 62.028 571.122 61.316 571.954 60.804C572.802 60.292 573.778 60.036 574.882 60.036C575.666 60.036 576.37 60.172 576.994 60.444C577.618 60.7 578.146 61.076 578.578 61.572C579.026 62.068 579.362 62.668 579.586 63.372C579.826 64.076 579.946 64.868 579.946 65.748C579.946 66.004 579.874 66.196 579.73 66.324C579.586 66.436 579.378 66.492 579.106 66.492H570.754V65.22H578.65L578.266 65.532C578.266 64.668 578.138 63.94 577.882 63.348C577.626 62.74 577.25 62.276 576.754 61.956C576.274 61.636 575.666 61.476 574.93 61.476C574.114 61.476 573.418 61.668 572.842 62.052C572.282 62.42 571.858 62.94 571.57 63.612C571.282 64.268 571.138 65.036 571.138 65.916V66.06C571.138 67.532 571.49 68.652 572.194 69.42C572.914 70.188 573.93 70.572 575.242 70.572C575.786 70.572 576.322 70.5 576.85 70.356C577.394 70.212 577.922 69.972 578.434 69.636C578.658 69.492 578.858 69.428 579.034 69.444C579.226 69.444 579.378 69.5 579.49 69.612C579.602 69.708 579.674 69.836 579.706 69.996C579.754 70.14 579.738 70.3 579.658 70.476C579.594 70.652 579.458 70.804 579.25 70.932C578.722 71.316 578.098 71.612 577.378 71.82C576.658 72.028 575.946 72.132 575.242 72.132ZM583.954 72.084C583.634 72.084 583.386 71.996 583.21 71.82C583.05 71.644 582.97 71.396 582.97 71.076V61.14C582.97 60.804 583.05 60.556 583.21 60.396C583.386 60.22 583.634 60.132 583.954 60.132C584.258 60.132 584.49 60.22 584.65 60.396C584.826 60.556 584.914 60.804 584.914 61.14V65.124H587.098L590.65 60.564C590.81 60.372 590.986 60.252 591.178 60.204C591.37 60.14 591.546 60.14 591.706 60.204C591.882 60.252 592.018 60.348 592.114 60.492C592.226 60.62 592.282 60.78 592.282 60.972C592.282 61.164 592.21 61.364 592.066 61.572L588.682 65.916L588.13 65.292C588.578 65.34 588.97 65.452 589.306 65.628C589.642 65.804 589.962 66.068 590.266 66.42C590.57 66.772 590.898 67.26 591.25 67.884L592.978 70.74C593.09 70.964 593.13 71.164 593.098 71.34C593.082 71.516 593.002 71.676 592.858 71.82C592.714 71.948 592.546 72.028 592.354 72.06C592.178 72.092 592.002 72.068 591.826 71.988C591.65 71.908 591.49 71.764 591.346 71.556L589.45 68.388C589.178 67.94 588.922 67.596 588.682 67.356C588.442 67.1 588.17 66.924 587.866 66.828C587.562 66.732 587.186 66.684 586.738 66.684H584.914V71.076C584.914 71.396 584.826 71.644 584.65 71.82C584.49 71.996 584.258 72.084 583.954 72.084Z" fill="black"></path></svg> 