<?xml version="1.0" encoding="UTF-8"?> <svg xmlns="http://www.w3.org/2000/svg" xmlns:xlink="http://www.w3.org/1999/xlink" xmlns:svgjs="http://svgjs.dev/svgjs" id="Layer_1" height="300" viewBox="0 0 512 512" width="300" version="1.1"><g width="100%" height="100%" transform="matrix(1,0,0,1,0,0)"><linearGradient id="SVGID_1_" gradientUnits="userSpaceOnUse" x1="20.356" x2="491.645" y1="256" y2="256"><stop stop-opacity="1" stop-color="#9c4399" offset="0.02"></stop><stop stop-opacity="1" stop-color="#93c1cc" offset="1"></stop></linearGradient><path d="m378.13 204.84c19.24-28.48 29.41-61.74 29.41-96.18 0-34.47-10.17-67.73-29.41-96.18-2.47-3.66-1.51-8.63 2.14-11.1 3.65-2.47 8.63-1.51 11.1 2.14 21.04 31.11 32.16 67.46 32.16 105.14 0 37.64-11.12 74-32.15 105.13-1.54 2.29-4.07 3.52-6.63 3.52-1.54 0-3.1-.44-4.47-1.37-3.66-2.47-4.63-7.44-2.15-11.1zm-47.75-22.61c1.37.93 2.93 1.37 4.47 1.37 2.56 0 5.08-1.23 6.63-3.52 14.29-21.12 21.84-45.82 21.84-71.43 0-25.6-7.55-50.31-21.84-71.46-2.47-3.66-7.44-4.62-11.1-2.15s-4.62 7.44-2.15 11.1c12.49 18.49 19.1 40.11 19.1 62.51 0 22.41-6.6 44.01-19.09 62.47-2.48 3.67-1.52 8.64 2.14 11.11zm-203.12 35.08c1.54 0 3.1-.44 4.47-1.37 3.66-2.47 4.62-7.44 2.15-11.1-19.22-28.46-29.39-61.72-29.39-96.18 0-34.49 10.16-67.75 29.38-96.18 2.47-3.66 1.51-8.63-2.14-11.1-3.66-2.47-8.63-1.51-11.1 2.14-21.02 31.08-32.13 67.44-32.13 105.14 0 37.67 11.11 74.02 32.13 105.13 1.54 2.28 4.06 3.52 6.63 3.52zm49.91-33.71c1.54 0 3.11-.45 4.48-1.38 3.65-2.48 4.61-7.45 2.13-11.1-12.51-18.45-19.12-40.05-19.12-62.47 0-22.41 6.61-44.03 19.12-62.5 2.48-3.66 1.52-8.63-2.14-11.1-3.65-2.47-8.63-1.52-11.1 2.14-14.31 21.13-21.87 45.84-21.87 71.46 0 25.63 7.56 50.34 21.87 71.44 1.56 2.29 4.07 3.51 6.63 3.51zm314.47 254.47c0 40.76-33.15 73.93-73.9 73.93-40.76 0-73.93-33.16-73.93-73.93 0-.14.01-.28.01-.43h-13.91c0 .14.01.28.01.43 0 40.76-33.16 73.93-73.93 73.93-40.75 0-73.9-33.16-73.9-73.93 0-.14.01-.28.01-.43h-13.94c0 .14.01.28.01.43 0 40.76-33.15 73.93-73.9 73.93-40.76 0-73.93-33.16-73.93-73.93 0-40.75 33.16-73.9 73.93-73.9 18.22 0 34.91 6.64 47.81 17.61l38.07-94.54c.11-.33.24-.66.4-.98l54.07-134.24c-15.97-7.9-26.99-24.37-26.99-43.36 0-26.67 21.69-48.36 48.36-48.36s48.36 21.69 48.36 48.36c0 19-11.01 35.46-26.99 43.36l20.76 51.54c.05.11.09.21.13.32l33.29 82.65c.01.04.03.07.04.11l6.63 16.46c.04.09.07.17.11.26l31.59 78.41c12.9-10.97 29.59-17.6 47.81-17.6 40.77 0 73.92 33.15 73.92 73.9zm-284.95-173.88 36.6-29.5-18.66-15.04zm-49.48 122.86 81.59-42.23-53.44-27.66zm98.98-51.23 64.54-33.4-3.17-7.86-61.53-49.61-61.58 49.64-3.09 7.68zm31.2-116.14-18.63 15.01 36.54 29.46zm-13.81 125.14 81.15 41.99-28-69.5zm-17.58-203.79c17.85 0 32.37-14.52 32.37-32.37s-14.52-32.38-32.37-32.38-32.37 14.52-32.37 32.37 14.52 32.38 32.37 32.38zm-5.99 15.6-19.13 47.51 25.16 20.28 25.12-20.25-19.15-47.55c-1.97.24-3.96.38-5.99.38-2.05.01-4.05-.13-6.01-.37zm-155.73 339.38c11.32 0 21.89-3.28 30.82-8.93-5.29-15.31-17.42-25.6-30.82-25.6-13.42 0-25.55 10.29-30.85 25.59 8.94 5.66 19.52 8.94 30.85 8.94zm11.94-66.36c0-6.6-5.35-11.96-11.93-11.96-6.6 0-11.96 5.37-11.96 11.96 0 6.58 5.37 11.93 11.96 11.93 6.57 0 11.93-5.35 11.93-11.93zm45.98 8.42c0-31.93-25.98-57.91-57.91-57.91-31.95 0-57.94 25.98-57.94 57.91 0 14.55 5.4 27.86 14.3 38.05 5.43-11.79 14.16-20.98 24.55-26.1-5.45-5.1-8.86-12.34-8.86-20.37 0-15.41 12.54-27.95 27.95-27.95 15.4 0 27.92 12.54 27.92 27.95 0 8.03-3.41 15.27-8.85 20.36 10.39 5.12 19.11 14.31 24.55 26.1 8.88-10.18 14.29-23.49 14.29-38.04zm103.8 57.94c11.33 0 21.91-3.28 30.85-8.93-5.3-15.3-17.43-25.59-30.85-25.59-13.43 0-25.56 10.29-30.83 25.6 8.93 5.64 19.5 8.92 30.83 8.92zm11.96-66.36c0-6.6-5.37-11.96-11.96-11.96-6.58 0-11.93 5.37-11.93 11.96 0 6.58 5.35 11.93 11.93 11.93 6.6 0 11.96-5.35 11.96-11.93zm45.98 8.42c0-31.93-25.99-57.91-57.94-57.91-31.93 0-57.91 25.98-57.91 57.91 0 14.55 5.4 27.85 14.28 38.04 5.42-11.8 14.15-20.98 24.55-26.1-5.44-5.1-8.84-12.34-8.84-20.36 0-15.41 12.53-27.95 27.92-27.95 15.41 0 27.95 12.54 27.95 27.95 0 8.03-3.41 15.27-8.86 20.37 10.39 5.12 19.12 14.3 24.55 26.1 8.89-10.19 14.3-23.5 14.3-38.05zm31.74-16.41c1.45-6.37 3.72-12.43 6.7-18.05l-96.19-49.78-96.48 49.93c2.94 5.58 5.18 11.59 6.62 17.9h17.64c7.49-32.87 36.93-57.49 72.04-57.49 35.12 0 64.58 24.61 72.07 57.49zm72.07 74.35c11.33 0 21.9-3.28 30.83-8.93-5.27-15.3-17.4-25.6-30.83-25.6-13.42 0-25.55 10.29-30.85 25.59 8.94 5.66 19.51 8.94 30.85 8.94zm11.93-66.36c0-6.6-5.35-11.96-11.93-11.96-6.6 0-11.96 5.37-11.96 11.96 0 6.58 5.37 11.93 11.96 11.93 6.58 0 11.93-5.35 11.93-11.93zm45.98 8.42c0-31.93-25.98-57.91-57.91-57.91-31.95 0-57.94 25.98-57.94 57.91 0 14.55 5.41 27.86 14.3 38.05 5.43-11.79 14.16-20.98 24.55-26.1-5.45-5.1-8.86-12.34-8.86-20.37 0-15.41 12.54-27.95 27.95-27.95 15.4 0 27.92 12.54 27.92 27.95 0 8.02-3.41 15.26-8.84 20.36 10.4 5.12 19.12 14.3 24.55 26.1 8.88-10.19 14.28-23.49 14.28-38.04z" fill="url(#SVGID_1_)" data-original-color="SVGID_1_" stroke="none" stroke-opacity="1"></path></g></svg> 