<?xml version="1.0" encoding="UTF-8"?> <svg xmlns="http://www.w3.org/2000/svg" width="75" height="75" viewBox="0 0 75 75" fill="none"><circle cx="37.3125" cy="37.416" r="36.5" fill="#A7E08C" stroke="black"></circle><path fill-rule="evenodd" clip-rule="evenodd" d="M22.6891 19.9064C19.952 22.9444 14.3715 29.1657 13.9465 29.7475L13.9378 29.7593C13.4089 30.4831 12.8416 31.2595 13.9465 32.947C15.0574 34.6438 15.637 35.3709 17.4725 34.2559C18.9409 33.3639 23.0111 30.717 24.8627 29.5051L26.4566 32.2683L21.3849 42.6911C20.6282 44.3717 20.4286 48.1885 25.6838 50.0113L31.0936 38.5444L32.1562 36.292C32.4201 35.6639 32.654 34.8576 32.8083 33.9166C33.3885 30.3785 32.8435 24.9363 28.5336 19.9064C26.4566 17.4825 25.7321 16.416 24.1864 16.416C22.9499 16.416 22.5442 18.743 22.6891 19.9064ZM23.4559 24.9481C22.8376 24.9481 22.683 25.4976 22.683 25.7723C22.683 25.9177 22.7797 26.4025 23.4559 26.4025C23.9969 26.4025 24.1321 25.95 24.1321 25.7238C24.1643 25.4652 24.0741 24.9481 23.4559 24.9481Z" fill="#FAF8F8"></path><path d="M32.8083 33.9166C32.654 34.8576 32.4201 35.6639 32.1562 36.292L31.0936 38.5444H33.8468H45.7773H49.6258C49.0971 36.8256 48.6152 35.2086 48.2571 33.9166H32.8083Z" fill="#FAF8F8"></path><path d="M60.9924 30.3292C61.8618 27.7114 61.118 24.2888 56.7901 23.5908C51.3803 22.7182 47.0332 28.3416 47.7094 31.7351C47.811 32.2449 48.0028 32.9988 48.2571 33.9166C48.6152 35.2086 49.0971 36.8256 49.6258 38.5444C50.7214 42.1059 52.018 46.1049 52.8294 48.5569C53.0548 49.2518 53.95 50.3894 55.7275 49.3811C57.9494 48.1206 59.6883 46.5693 57.5147 41.8185C55.3411 37.0676 53.7471 32.8985 54.7132 31.3957C55.6792 29.8929 58.046 30.2807 60.9924 30.3292Z" fill="#FAF8F8"></path><path d="M33.8468 38.5444C33.7502 39.3611 33.8082 41.2465 34.8128 42.2548C36.0687 43.5152 38.2906 43.6122 39.7879 43.6122C39.9838 43.6122 40.2309 43.6096 40.5124 43.5942C42.3836 43.4916 45.7773 42.8198 45.7773 38.5444H33.8468Z" fill="#FAF8F8"></path><path d="M40.5124 55.0045H33.9434V59.416H46.6951V55.0045H40.5124Z" fill="#FAF8F8"></path><path d="M13.9465 29.7475C14.3715 29.1657 19.952 22.9444 22.6891 19.9064C22.5442 18.743 22.9499 16.416 24.1864 16.416C25.7321 16.416 26.4566 17.4825 28.5336 19.9064C32.8435 24.9363 33.3885 30.3785 32.8083 33.9166M13.9465 29.7475L13.9378 29.7593M13.9465 29.7475C13.9436 29.7514 13.9407 29.7554 13.9378 29.7593M32.8083 33.9166C32.654 34.8576 32.4201 35.6639 32.1562 36.292L31.0936 38.5444M32.8083 33.9166H48.2571M48.2571 33.9166C48.0028 32.9988 47.811 32.2449 47.7094 31.7351C47.0332 28.3416 51.3803 22.7182 56.7901 23.5908C61.118 24.2888 61.8618 27.7114 60.9924 30.3292C58.046 30.2807 55.6792 29.8929 54.7132 31.3957C53.7471 32.8985 55.3411 37.0676 57.5147 41.8185C59.6883 46.5693 57.9494 48.1206 55.7275 49.3811C53.95 50.3894 53.0548 49.2518 52.8294 48.5569C52.018 46.1049 50.7214 42.1059 49.6258 38.5444M48.2571 33.9166C48.6152 35.2086 49.0971 36.8256 49.6258 38.5444M31.0936 38.5444L25.6838 50.0113C20.4286 48.1885 20.6282 44.3717 21.3849 42.6911L26.4566 32.2683L24.8627 29.5051C23.0111 30.717 18.9409 33.3639 17.4725 34.2559C15.637 35.3709 15.0574 34.6438 13.9465 32.947C12.8416 31.2595 13.4089 30.4831 13.9378 29.7593M31.0936 38.5444H33.8468M49.6258 38.5444H45.7773M33.8468 38.5444C33.7502 39.3611 33.8082 41.2465 34.8128 42.2548C36.0687 43.5152 38.2906 43.6122 39.7879 43.6122C39.9838 43.6122 40.2309 43.6096 40.5124 43.5942M33.8468 38.5444H45.7773M45.7773 38.5444C45.7773 42.8198 42.3836 43.4916 40.5124 43.5942M40.5124 43.5942V44.8241L38.8215 45.9715C38.0038 46.5263 38.0276 47.7391 38.8666 48.2614L38.9567 48.3175C39.8148 48.8516 39.7663 50.1164 38.8699 50.5834V50.5834C38.0307 51.0205 37.9208 52.1773 38.6627 52.7646L40.5124 54.2289V55.0045M40.5124 55.0045H33.9434V59.416H46.6951V55.0045H40.5124ZM22.683 25.7723C22.683 25.4976 22.8376 24.9481 23.4559 24.9481C24.0741 24.9481 24.1643 25.4652 24.1321 25.7238C24.1321 25.95 23.9969 26.4025 23.4559 26.4025C22.7797 26.4025 22.683 25.9177 22.683 25.7723Z" stroke="#5C5C5C" stroke-linecap="round"></path><circle cx="27.8125" cy="45.916" r="2" fill="#FAF8F8" stroke="#5C5C5C"></circle><circle cx="51.8125" cy="45.916" r="2" fill="#FAF8F8" stroke="#5C5C5C"></circle></svg> 