<?xml version="1.0" encoding="UTF-8"?> <svg xmlns="http://www.w3.org/2000/svg" width="650" height="650" viewBox="0 0 650 650" fill="none"><circle cx="325.345" cy="324.581" r="324.581" fill="#807EAF"></circle><path d="M343.468 97.8159L302.735 217.405L257.257 135.098L257.271 135.093L343.468 97.8159Z" fill="#E7F2F9"></path><path d="M379.953 126.949H355.46L316.444 242.227L316.517 242.364L316.462 242.51L389.77 390.819L389.92 390.865L389.98 391.006L508.139 430.996L379.953 126.949Z" fill="#E7F2F9"></path><path d="M257.542 178.908L293.44 243.897L254.57 343.55L209.996 291.091L257.542 178.908Z" fill="#E7F2F9"></path><path d="M120.571 502.088L173.363 377.527L179.92 402.275L233.383 471.276L220.311 502.088H120.571Z" fill="#E7F2F9"></path><path d="M271.905 378.629L282.653 428.106H383.389L374.686 408.262L271.905 378.629Z" fill="#E7F2F9"></path><path d="M362.525 382.959L306.158 268.918L271.871 356.818L362.525 382.959Z" fill="#E7F2F9"></path><path d="M439.339 503.345L401.381 416.974L521.929 457.927L439.339 503.345Z" fill="#E7F2F9"></path><path d="M484.921 502.088L528.07 478.253L538.119 502.088H484.921Z" fill="#E7F2F9"></path><path d="M248.272 368.487L169.878 276.066L169.929 276.271L199.005 391.988L273.943 486.678L274.148 486.938L248.272 368.487Z" fill="#E7F2F9"></path></svg> 