<?xml version="1.0" encoding="utf-8"?> <svg xmlns="http://www.w3.org/2000/svg" xmlns:xlink="http://www.w3.org/1999/xlink" version="1.1" id="Layer_1" x="0px" y="0px" viewBox="0 0 314.2 106.2" style="enable-background:new 0 0 314.2 106.2;" xml:space="preserve"> <style type="text/css"> .st0{clip-path:url(#SVGID_00000182504689527211303290000002688770656647309990_);fill:#0E7C62;} .st1{clip-path:url(#SVGID_00000181786122723634237110000017780303544372442284_);fill:#0E7C62;} .st2{clip-path:url(#SVGID_00000063627227270138719970000018246795349600491947_);fill:#0E7C62;} .st3{clip-path:url(#SVGID_00000136404150808185816920000012037475347506282882_);fill:#0E7C62;} .st4{clip-path:url(#SVGID_00000076583310427482118650000017438723700022984639_);fill:#0E7C62;} .st5{clip-path:url(#SVGID_00000095321776737862075220000015322191457665971083_);fill:#0E7C62;} .st6{clip-path:url(#SVGID_00000147215450590511292490000016631150158003429558_);fill:#0E7C62;} .st7{clip-path:url(#SVGID_00000074443157097910621190000010503335535848846756_);fill:#0E7C62;} .st8{clip-path:url(#SVGID_00000050627260482678561680000018382927443017426077_);fill:#0E7C62;} .st9{display:none;} .st10{display:inline;} .st11{clip-path:url(#SVGID_00000161589584629765969890000018019728403659120531_);} .st12{clip-path:url(#SVGID_00000093136584584868060740000006703230175561398944_);} .st13{clip-path:url(#SVGID_00000085226345770433121260000012307838690463962809_);} .st14{clip-path:url(#SVGID_00000065789103607976769730000008975837198752636064_);} .st15{clip-path:url(#SVGID_00000123434242467117096780000001632608347369717429_);} .st16{clip-path:url(#SVGID_00000148658353480001233450000014183079486393826745_);} .st17{clip-path:url(#SVGID_00000117641293024168972020000001939178067492048527_);} .st18{clip-path:url(#SVGID_00000109751209685351690730000001281406623209886594_);} .st19{clip-path:url(#SVGID_00000097472245786752464470000007305235987244535739_);} .st20{clip-path:url(#SVGID_00000020391823169038030320000011001666978200880270_);} .st21{clip-path:url(#SVGID_00000101824903907756206920000018090093786116904621_);} .st22{clip-path:url(#SVGID_00000078024379057570101830000017362119123111693247_);fill:#0E7C62;} .st23{clip-path:url(#SVGID_00000014622175336741015410000014429846977991034505_);fill:#0E7C62;} .st24{clip-path:url(#SVGID_00000072983846207037564110000016978428530833169046_);fill:#0E7C62;} .st25{clip-path:url(#SVGID_00000134932373401786856720000016245171669846014137_);fill:#0E7C62;} .st26{clip-path:url(#SVGID_00000010288428956843367120000010103961435892953017_);fill:#0E7C62;} .st27{display:none;fill:none;} </style> <g> <g> <defs> <polygon id="SVGID_1_" points="23.8,68.1 13.9,91.6 32.7,91.6 35.1,85.8 25.1,72.8 "></polygon> </defs> <clipPath id="SVGID_00000058556444021396988830000009894833929023264178_"> <use xlink:href="#SVGID_1_" style="overflow:visible;"></use> </clipPath> <polygon style="clip-path:url(#SVGID_00000058556444021396988830000009894833929023264178_);fill:#0E7C62;" points="46.9,79.4 24.9,102.2 2.1,80.3 24.1,57.5 "></polygon> </g> </g> <g> <g> <defs> <polygon id="SVGID_00000135687500450317365620000007400495973268525718_" points="42.4,68.3 44.4,77.6 63.4,77.6 61.8,73.9 "></polygon> </defs> <clipPath id="SVGID_00000027565804258571772100000016652674701679356559_"> <use xlink:href="#SVGID_00000135687500450317365620000007400495973268525718_" style="overflow:visible;"></use> </clipPath> <polygon style="clip-path:url(#SVGID_00000027565804258571772100000016652674701679356559_);fill:#0E7C62;" points="43.1,64.5 65.1,68.6 62.7,81.5 40.7,77.3 "></polygon> </g> </g> <g> <g> <defs> <polygon id="SVGID_00000066488608897084809690000010664203775550777508_" points="46.4,42.9 39.7,30.7 30.7,51.8 39.1,61.7 "></polygon> </defs> <clipPath id="SVGID_00000165202836056897044210000007012812020054695083_"> <use xlink:href="#SVGID_00000066488608897084809690000010664203775550777508_" style="overflow:visible;"></use> </clipPath> <polygon style="clip-path:url(#SVGID_00000165202836056897044210000007012812020054695083_);fill:#0E7C62;" points="19.1,35.9 43.8,24.8 58.1,56.5 33.4,67.6 "></polygon> </g> </g> <g> <g> <defs> <polygon id="SVGID_00000087396082706929657830000001905269821466388127_" points="59.5,69.1 48.8,47.6 42.4,64.2 "></polygon> </defs> <clipPath id="SVGID_00000049926730318994976700000010805486549563329920_"> <use xlink:href="#SVGID_00000087396082706929657830000001905269821466388127_" style="overflow:visible;"></use> </clipPath> <polygon style="clip-path:url(#SVGID_00000049926730318994976700000010805486549563329920_);fill:#0E7C62;" points="51.9,39.2 70.1,59.6 50,77.6 31.7,57.2 "></polygon> </g> </g> <g> <g> <defs> <polygon id="SVGID_00000100384310248499719410000002965894325337795243_" points="66.8,75.5 73.9,91.8 89.5,83.3 "></polygon> </defs> <clipPath id="SVGID_00000092438587124444419430000014043900385069875903_"> <use xlink:href="#SVGID_00000100384310248499719410000002965894325337795243_" style="overflow:visible;"></use> </clipPath> <polygon style="clip-path:url(#SVGID_00000092438587124444419430000014043900385069875903_);fill:#0E7C62;" points="97.5,82.1 80.4,103 58.8,85.3 75.9,64.4 "></polygon> </g> </g> <g> <g> <defs> <polygon id="SVGID_00000023974681499776969400000006558144655270269835_" points="62.7,20.9 58.1,20.9 50.8,42.6 50.8,42.6 50.8,42.7 64.6,70.6 64.6,70.6 64.6,70.6 86.9,78.2 "></polygon> </defs> <clipPath id="SVGID_00000054250999198838280630000017806540549669676180_"> <use xlink:href="#SVGID_00000023974681499776969400000006558144655270269835_" style="overflow:visible;"></use> </clipPath> <polygon style="clip-path:url(#SVGID_00000054250999198838280630000017806540549669676180_);fill:#0E7C62;" points="80.7,7.2 108.6,68.3 57,91.8 29.1,30.8 "></polygon> </g> </g> <g> <g> <defs> <polygon id="SVGID_00000110458149946616527430000001238815444072924814_" points="90.7,87.1 82.5,91.6 92.5,91.6 "></polygon> </defs> <clipPath id="SVGID_00000054234675478159066900000009776237036195369392_"> <use xlink:href="#SVGID_00000110458149946616527430000001238815444072924814_" style="overflow:visible;"></use> </clipPath> <rect x="82.5" y="87.1" style="clip-path:url(#SVGID_00000054234675478159066900000009776237036195369392_);fill:#0E7C62;" width="10" height="4.5"></rect> </g> </g> <g> <g> <defs> <polygon id="SVGID_00000037675311334345896840000001720034821493799606_" points="37.9,66.4 23.2,49 23.2,49 28.6,70.8 42.8,88.7 42.8,88.7 "></polygon> </defs> <clipPath id="SVGID_00000020382961571499405700000014022581157246378881_"> <use xlink:href="#SVGID_00000037675311334345896840000001720034821493799606_" style="overflow:visible;"></use> </clipPath> <polygon style="clip-path:url(#SVGID_00000020382961571499405700000014022581157246378881_);fill:#0E7C62;" points="38,40.5 59.9,78.9 28,97.2 6,58.8 "></polygon> </g> </g> <g> <g> <defs> <polygon id="SVGID_00000139983044225411393350000004872862996589993367_" points="48.2,37.9 55.9,15.4 55.8,15.4 39.6,22.4 39.6,22.4 "></polygon> </defs> <clipPath id="SVGID_00000147191401726922669460000008601273386870620340_"> <use xlink:href="#SVGID_00000139983044225411393350000004872862996589993367_" style="overflow:visible;"></use> </clipPath> <polygon style="clip-path:url(#SVGID_00000147191401726922669460000008601273386870620340_);fill:#0E7C62;" points="41.8,43.4 32,18.4 53.7,9.9 63.5,35 "></polygon> </g> </g> <g class="st9"> <g class="st10"> <defs> <rect id="SVGID_00000065770759637214958050000009149450843140347055_" x="-57" y="-159" width="425.2" height="425.2"></rect> </defs> <clipPath id="SVGID_00000165930371629230496850000006406243437598377125_"> <use xlink:href="#SVGID_00000065770759637214958050000009149450843140347055_" style="overflow:visible;"></use> </clipPath> <path style="clip-path:url(#SVGID_00000165930371629230496850000006406243437598377125_);" d="M113.5,79h0.7 c1.3-1.4,2.2-4.2,2.9-8.2h6V79h1.5v5h-2.4v-2.9h-6.3V84h-2.4C113.5,84,113.5,79,113.5,79z M120.6,72.8h-1.7 c-0.4,2.5-1.1,4.8-2.1,6.2l0,0h3.7L120.6,72.8L120.6,72.8z"></path> </g> <g class="st10"> <defs> <rect id="SVGID_00000026870567428085275200000012788885091760194706_" x="-57" y="-159" width="425.2" height="425.2"></rect> </defs> <clipPath id="SVGID_00000106855725926963290040000007807359846698593676_"> <use xlink:href="#SVGID_00000026870567428085275200000012788885091760194706_" style="overflow:visible;"></use> </clipPath> <polygon style="clip-path:url(#SVGID_00000106855725926963290040000007807359846698593676_);" points="132.8,70.9 139.2,70.9 138.6,72.9 135.3,72.9 135.3,74.9 138.6,74.9 138.6,76.9 135.3,76.9 135.3,79.1 139.2,79.1 139.2,81.1 132.8,81.1 "></polygon> </g> <g class="st10"> <defs> <rect id="SVGID_00000057113454698395111160000012822979514924206775_" x="-57" y="-159" width="425.2" height="425.2"></rect> </defs> <clipPath id="SVGID_00000169518288465837302080000016540227076254920075_"> <use xlink:href="#SVGID_00000057113454698395111160000012822979514924206775_" style="overflow:visible;"></use> </clipPath> <path style="clip-path:url(#SVGID_00000169518288465837302080000016540227076254920075_);" d="M147.8,70.9h3.6 c2.3,0,3.4,1.3,3.4,2.6c0,0.8-0.4,1.6-1.2,2l0,0c1.3,0.3,2,1.3,2,2.4c0,1.5-1.3,3.1-3.8,3.1h-3.9V70.9H147.8z M151,74.9 c0.9,0,1.3-0.5,1.3-1.1s-0.4-1.1-1.4-1.1h-0.7v2.1L151,74.9L151,74.9z M151.3,79.1c1.2,0,1.7-0.4,1.7-1.2c0-0.7-0.6-1.1-1.5-1.1 h-1.2v2.3C150.3,79.1,151.3,79.1,151.3,79.1z"></path> </g> <g class="st10"> <defs> <rect id="SVGID_00000104665233454207528800000012545519765001002685_" x="-57" y="-159" width="425.2" height="425.2"></rect> </defs> <clipPath id="SVGID_00000034809092704575229050000016037644114614309513_"> <use xlink:href="#SVGID_00000104665233454207528800000012545519765001002685_" style="overflow:visible;"></use> </clipPath> <polygon style="clip-path:url(#SVGID_00000034809092704575229050000016037644114614309513_);" points="163.8,70.9 170.3,70.9 169.6,72.9 166.3,72.9 166.3,74.9 169.7,74.9 169.7,76.9 166.3,76.9 166.3,79.1 170.2,79.1 170.2,81.1 163.8,81.1 "></polygon> </g> <g class="st10"> <defs> <rect id="SVGID_00000116939357134046270190000008207805663733336489_" x="-57" y="-159" width="425.2" height="425.2"></rect> </defs> <clipPath id="SVGID_00000029018401104135617780000016798895512095483571_"> <use xlink:href="#SVGID_00000116939357134046270190000008207805663733336489_" style="overflow:visible;"></use> </clipPath> <path style="clip-path:url(#SVGID_00000029018401104135617780000016798895512095483571_);" d="M178,81.1v-2.2c0.1,0,0.3,0,0.3,0 c0.4,0,0.8-0.2,1.1-0.6c0.9-1.1,1.4-3.7,1.8-7.5h6.2V81h-2.5v-8.3h-1.7c-0.4,3.6-1.1,6.1-2.1,7.3c-0.6,0.7-1.4,1-2.5,1 C178.5,81.1,178.2,81.1,178,81.1"></path> </g> <g class="st10"> <defs> <rect id="SVGID_00000060003284109671707110000002490718945768060309_" x="-57" y="-159" width="425.2" height="425.2"></rect> </defs> <clipPath id="SVGID_00000121274438706823512450000002991052543964662964_"> <use xlink:href="#SVGID_00000060003284109671707110000002490718945768060309_" style="overflow:visible;"></use> </clipPath> <path style="clip-path:url(#SVGID_00000121274438706823512450000002991052543964662964_);" d="M195.9,76c0-3.1,2.3-5.2,5.5-5.2 c3.3,0,5.5,2.1,5.5,5.2s-2.3,5.2-5.5,5.2S195.9,79.1,195.9,76 M204.3,76c0-2.2-1.2-3.3-2.9-3.3s-2.9,1.1-2.9,3.3 c0,2.2,1.2,3.3,2.9,3.3S204.3,78.1,204.3,76"></path> </g> <g class="st10"> <defs> <rect id="SVGID_00000096779202181528197270000002685645902822471596_" x="-57" y="-159" width="425.2" height="425.2"></rect> </defs> <clipPath id="SVGID_00000083064500110020212780000005202198303048068522_"> <use xlink:href="#SVGID_00000096779202181528197270000002685645902822471596_" style="overflow:visible;"></use> </clipPath> <polygon style="clip-path:url(#SVGID_00000083064500110020212780000005202198303048068522_);" points="215.5,70.9 224.6,70.9 224.6,81.1 222.1,81.1 222.1,72.9 218,72.9 218,81.1 215.5,81.1 "></polygon> </g> <g class="st10"> <defs> <rect id="SVGID_00000130618646530171825060000017908470909498870668_" x="-57" y="-159" width="425.2" height="425.2"></rect> </defs> <clipPath id="SVGID_00000155137433950390946800000003692630368811997089_"> <use xlink:href="#SVGID_00000130618646530171825060000017908470909498870668_" style="overflow:visible;"></use> </clipPath> <path style="clip-path:url(#SVGID_00000155137433950390946800000003692630368811997089_);" d="M233.5,70.9h2.2l2.7,3.6 c0.3,0.4,0.6,0.8,0.8,1.2l0,0c0.2-0.4,0.5-0.8,0.8-1.3l2.4-3.5h2.3v10.2h-2.5v-5.2c0-0.4,0-0.8,0-1.1l0,0 c-0.1,0.2-0.5,0.8-0.7,1.1l-1.7,2.5h-1.1l-2-2.6c-0.2-0.3-0.5-0.6-0.7-1l0,0c0,0.3,0,0.7,0,1v5.3h-2.5V70.9z"></path> </g> <g class="st10"> <defs> <rect id="SVGID_00000040535444087230942310000009525134111451874704_" x="-57" y="-159" width="425.2" height="425.2"></rect> </defs> <clipPath id="SVGID_00000148653038858159151150000008251186124246758291_"> <use xlink:href="#SVGID_00000040535444087230942310000009525134111451874704_" style="overflow:visible;"></use> </clipPath> <polygon style="clip-path:url(#SVGID_00000148653038858159151150000008251186124246758291_);" points="253.6,70.9 260,70.9 259.4,72.9 256.1,72.9 256.1,74.9 259.5,74.9 259.5,76.9 256.1,76.9 256.1,79.1 260,79.1 260,81.1 253.6,81.1 "></polygon> </g> <g class="st10"> <defs> <rect id="SVGID_00000119090091847418943770000007432852783158260896_" x="-57" y="-159" width="425.2" height="425.2"></rect> </defs> <clipPath id="SVGID_00000167395683620213293680000009391113701818037928_"> <use xlink:href="#SVGID_00000119090091847418943770000007432852783158260896_" style="overflow:visible;"></use> </clipPath> <polygon style="clip-path:url(#SVGID_00000167395683620213293680000009391113701818037928_);" points="268.6,70.9 271.1,70.9 271.1,74.9 275.7,74.9 275.7,70.9 278.2,70.9 278.2,81.1 275.7,81.1 275.7,76.9 271.1,76.9 271.1,81.1 268.6,81.1 "></polygon> </g> <g class="st10"> <defs> <rect id="SVGID_00000140699938287423173270000002163513541466748816_" x="-57" y="-159" width="425.2" height="425.2"></rect> </defs> <clipPath id="SVGID_00000016043284721971746470000011533986144478092958_"> <use xlink:href="#SVGID_00000140699938287423173270000002163513541466748816_" style="overflow:visible;"></use> </clipPath> <polygon style="clip-path:url(#SVGID_00000016043284721971746470000011533986144478092958_);" points="289.2,72.9 286.1,72.9 286.1,70.9 295.1,70.9 294.4,72.9 291.7,72.9 291.7,81.1 289.2,81.1 "></polygon> </g> </g> <g> <g> <defs> <path id="SVGID_00000137098985388852982560000002420591363477516192_" d="M128.7,45.6l3.2,7.6h-6.5L128.7,45.6z M125.1,36.9 l-11.6,27.4h7.3l2.3-5.4h11.3l2.3,5.4h7.3l-11.6-27.4H125.1z"></path> </defs> <clipPath id="SVGID_00000077308928174116447580000006053140623997778596_"> <use xlink:href="#SVGID_00000137098985388852982560000002420591363477516192_" style="overflow:visible;"></use> </clipPath> <polygon style="clip-path:url(#SVGID_00000077308928174116447580000006053140623997778596_);fill:#0E7C62;" points="113.8,34 146.7,37.2 143.7,67.3 110.8,64.1 "></polygon> </g> </g> <g> <g> <defs> <polygon id="SVGID_00000001651515787712978560000011251990411856232638_" points="153.9,36.9 153.9,64.4 161.2,64.4 161.2,57.2 169.2,51.3 175.4,64.4 182.8,64.4 174.7,47.3 183.3,41.1 177.6,37 161.2,48.8 161.2,36.9 "></polygon> </defs> <clipPath id="SVGID_00000170977038239860557360000012265464590935136173_"> <use xlink:href="#SVGID_00000001651515787712978560000011251990411856232638_" style="overflow:visible;"></use> </clipPath> <polygon style="clip-path:url(#SVGID_00000170977038239860557360000012265464590935136173_);fill:#0E7C62;" points="154.2,34.1 185.9,37.2 183,67.2 151.2,64.1 "></polygon> </g> </g> <g> <g> <defs> <polygon id="SVGID_00000132062880922839106060000018203486718467312771_" points="194,36.9 195,42.7 203.7,42.7 203.7,64.4 211,64.4 211,42.7 221.6,42.7 220.7,36.9 "></polygon> </defs> <clipPath id="SVGID_00000147940430068429071150000015969620587685394619_"> <use xlink:href="#SVGID_00000132062880922839106060000018203486718467312771_" style="overflow:visible;"></use> </clipPath> <polygon style="clip-path:url(#SVGID_00000147940430068429071150000015969620587685394619_);fill:#0E7C62;" points="194.3,34.3 224.3,37.2 221.4,67.1 191.3,64.1 "></polygon> </g> </g> <g> <g> <defs> <polygon id="SVGID_00000011716701458265937200000008529406731843557816_" points="252.9,36.9 252.9,39.5 240,48.8 240,36.9 232.7,36.9 232.7,64.4 240,64.4 240,57.2 252.9,47.8 252.9,64.4 260.2,64.4 260.2,36.9 "></polygon> </defs> <clipPath id="SVGID_00000000938851382913437190000003952890937865120176_"> <use xlink:href="#SVGID_00000011716701458265937200000008529406731843557816_" style="overflow:visible;"></use> </clipPath> <polygon style="clip-path:url(#SVGID_00000000938851382913437190000003952890937865120176_);fill:#0E7C62;" points="233,34.3 262.9,37.2 260,67 230,64.1 "></polygon> </g> </g> <g> <g> <defs> <path id="SVGID_00000108287981281527657610000014416643577252294540_" d="M279.4,53.1h6.4c1.2,0,2.2,0.3,2.9,0.8 c0.7,0.5,1,1.2,1,2.1c0,0.8-0.4,1.5-1,1.9s-1.6,0.7-2.8,0.7h-6.4v-5.5H279.4z M279.4,42.7h5.2c1.2,0,2.2,0.2,2.9,0.6 c0.7,0.4,1,1,1,1.9c0,0.7-0.4,1.2-1.2,1.6c-0.8,0.4-1.8,0.5-3,0.5h-4.9V42.7z M272.1,36.9v27.4h13.6c3.4,0,6.1-0.6,8.3-1.9 c2.2-1.3,3.3-3.4,3.3-6.3c0-1.3-0.3-2.4-1-3.5s-1.6-2-2.7-2.8c0.8-0.8,1.4-1.6,1.9-2.3c0.5-0.8,0.7-1.7,0.7-2.6 c0-2.6-1.1-4.6-3.2-5.9c-2.1-1.3-4.8-2-8.1-2h-12.8V36.9z"></path> </defs> <clipPath id="SVGID_00000150091334642182118600000000920615321667166908_"> <use xlink:href="#SVGID_00000108287981281527657610000014416643577252294540_" style="overflow:visible;"></use> </clipPath> <polygon style="clip-path:url(#SVGID_00000150091334642182118600000000920615321667166908_);fill:#0E7C62;" points="272.3,34.5 300,37.2 297.1,66.8 269.4,64.1 "></polygon> </g> </g> <polyline class="st27" points="297.4,-89.5 297.4,93.9 113.7,93.9 113.7,-89.5 "></polyline> <polyline class="st27" points="297.4,-89.5 297.4,93.9 113.7,93.9 113.7,-89.5 "></polyline> <g> <path d="M129.3,70.4h9V81h-2.5v-8.5h-4.1V81h-2.5V70.4H129.3z"></path> <path d="M150,75.7c0-3.2,2.2-5.5,5.5-5.5c3.2,0,5.5,2.2,5.5,5.5s-2.2,5.5-5.5,5.5S150,78.9,150,75.7z M158.3,75.7 c0-2.3-1.2-3.4-2.9-3.4s-2.9,1.1-2.9,3.4s1.2,3.4,2.9,3.4S158.3,78,158.3,75.7z"></path> <path d="M172.6,70.4h2.5v4.2h0.9c1.4,0,1.5-1.9,2.3-3.3c0.5-0.8,1.1-1.1,2-1.1c0.4,0,0.9,0.1,1.3,0.2v2.1c-0.3-0.1-0.5-0.1-0.7-0.1 c-0.3,0-0.6,0.1-0.7,0.4c-0.5,0.7-0.8,2.1-1.6,2.7l0,0c0.4,0.2,0.7,0.4,1.1,1.1l2.2,4.4H179l-1.5-3.4c-0.4-0.9-0.6-1-0.9-1h-1.4V81 h-2.5V70.4H172.6z"></path> <path d="M193,70.4h3c1,0,1.8,0.1,2.4,0.4c1.2,0.5,1.9,1.6,1.9,3.1c0,1.2-0.5,2.6-2.2,3.2c-0.6,0.2-1.4,0.4-2.3,0.4h-0.3V81H193 V70.4z M195.9,75.5c0.4,0,0.8,0,1-0.2c0.5-0.2,0.8-0.7,0.8-1.4c0-0.5-0.2-1.1-0.7-1.4c-0.3-0.2-0.6-0.2-1.1-0.2h-0.4v3.2H195.9z"></path> <path d="M211.5,75.7c0-3.2,2.2-5.5,5.5-5.5s5.5,2.2,5.5,5.5s-2.2,5.5-5.5,5.5S211.5,78.9,211.5,75.7z M219.9,75.7 c0-2.3-1.2-3.4-2.9-3.4s-2.9,1.1-2.9,3.4s1.2,3.4,2.9,3.4S219.9,78,219.9,75.7z"></path> <path d="M234.2,70.4h3.6c2.3,0,3.3,1.4,3.3,2.7c0,0.8-0.4,1.7-1.2,2.1l0,0c1.3,0.4,2,1.4,2,2.5c0,1.6-1.3,3.2-3.8,3.2h-3.8V70.4 H234.2z M237.4,74.6c0.9,0,1.3-0.5,1.3-1.1s-0.4-1.1-1.4-1.1h-0.7v2.2H237.4z M237.6,79c1.2,0,1.7-0.4,1.7-1.3 c0-0.7-0.5-1.1-1.5-1.1h-1.2V79H237.6z"></path> <path d="M253.3,70.4h2.5v4.2h0.9c1.4,0,1.5-1.9,2.3-3.3c0.5-0.8,1.1-1.1,2-1.1c0.4,0,0.9,0.1,1.3,0.2v2.1c-0.3-0.1-0.5-0.1-0.7-0.1 c-0.3,0-0.6,0.1-0.7,0.4c-0.5,0.7-0.8,2.1-1.6,2.7l0,0c0.4,0.2,0.7,0.4,1.1,1.1l2.2,4.4h-2.9l-1.5-3.4c-0.4-0.9-0.6-1-0.9-1h-1.4 V81h-2.5L253.3,70.4L253.3,70.4z"></path> <path d="M276.7,70.3h2l4.4,10.7h-2.6l-1-2.5H276l-1,2.5h-2.5L276.7,70.3z M278.7,76.5l-0.5-1.5c-0.2-0.7-0.4-1.2-0.5-1.5l0,0 c-0.1,0.4-0.2,0.8-0.5,1.5l-0.5,1.5H278.7z"></path> </g> <polygon points="113.7,70.4 120.1,75.6 113.7,80.8 "></polygon> <polygon points="297.4,80.8 291,75.6 297.4,70.4 "></polygon> <polyline class="st27" points="297.4,-89.5 297.4,93.9 113.7,93.9 113.7,-89.5 "></polyline> </svg> 