<?xml version="1.0" encoding="UTF-8"?> <svg xmlns="http://www.w3.org/2000/svg" version="1.1" width="160" height="139"><path d="M0 0 C2.1012942 0.89321683 4.13587826 1.86982109 6.17584229 2.89538574 C6.93846878 3.26278366 7.70109528 3.63018158 8.48683167 4.00871277 C10.95545594 5.20154048 13.413089 6.41534621 15.87115479 7.62976074 C17.5712816 8.45636125 19.27221611 9.2813025 20.97393799 10.10461426 C23.53681681 11.34464611 26.09917918 12.58560131 28.6587677 13.83241272 C33.8010088 16.33472809 38.96484743 18.77711922 44.17193604 21.14147949 C45.37028076 21.68578613 46.56862549 22.23009277 47.80328369 22.79089355 C50.00551308 23.78528458 52.20953368 24.7757212 54.41558838 25.76159668 C55.38447998 26.20148926 56.35337158 26.64138184 57.35162354 27.09460449 C58.18331055 27.46706299 59.01499756 27.83952148 59.87188721 28.2232666 C62.02755118 29.39685357 63.43083437 30.49838655 64.99615479 32.37976074 C65.68365479 34.75476074 65.68365479 34.75476074 64.99615479 37.37976074 C62.54310116 39.43016667 59.80648834 40.87439947 56.99615479 42.37976074 C55.66142171 43.14816782 54.32795504 43.91878166 52.99615479 44.69226074 C52.00615479 45.24913574 51.01615479 45.80601074 49.99615479 46.37976074 C50.99517822 46.87347168 51.99420166 47.36718262 53.02349854 47.87585449 C54.32693619 48.52288469 55.63031876 49.17002585 56.93365479 49.81726074 C57.59301025 50.14274902 58.25236572 50.4682373 58.93170166 50.80358887 C63.88287354 53.26647949 63.88287354 53.26647949 64.99615479 54.37976074 C65.37115479 56.69226074 65.37115479 56.69226074 64.99615479 59.37976074 C60.97346349 63.67063146 55.24546674 65.89270809 49.99615479 68.37976074 C50.91138916 68.86187012 51.82662354 69.34397949 52.76959229 69.84069824 C53.97021429 70.47852868 55.17072958 71.11656 56.37115479 71.75476074 C56.97443604 72.07187012 57.57771729 72.38897949 58.19927979 72.71569824 C60.7816586 74.09296695 62.9144606 75.29806655 64.99615479 77.37976074 C65.62115479 79.69226074 65.62115479 79.69226074 64.99615479 82.37976074 C59.34947898 86.99647438 52.09017448 89.95551677 45.59381104 93.16101074 C44.51667343 93.69697876 43.43953583 94.23294678 42.32975769 94.78515625 C38.90795257 96.48720623 35.48351012 98.18385788 32.05865479 99.87976074 C28.63771994 101.57635136 25.21739904 103.27415114 21.79826355 104.97436523 C19.67793931 106.02847149 17.5565498 107.0804387 15.43391418 108.12988281 C10.16845509 110.74496896 4.99898019 113.44275133 -0.07022095 116.42288208 C-3.49268699 118.11653311 -6.38939799 118.25229543 -10.00384521 117.37976074 C-14.2679745 115.71338887 -18.27206204 113.64311396 -22.31634521 111.50476074 C-23.46699463 110.91267822 -24.61764404 110.3205957 -25.80316162 109.71057129 C-29.21267116 107.95078617 -32.60984063 106.16923365 -36.00384521 104.37976074 C-37.74471077 103.46696245 -39.48559415 102.55419815 -41.22650146 101.64147949 C-43.52837168 100.43178936 -45.82842086 99.21909597 -48.1239624 97.99743652 C-54.90855253 94.3924769 -61.78080167 90.97139047 -68.68499756 87.60168457 C-69.48244385 87.20876221 -70.27989014 86.81583984 -71.10150146 86.41101074 C-71.80798828 86.06618652 -72.5144751 85.7213623 -73.24237061 85.36608887 C-75.00384521 84.37976074 -75.00384521 84.37976074 -77.00384521 82.37976074 C-77.44134521 80.00476074 -77.44134521 80.00476074 -77.00384521 77.37976074 C-72.98115392 73.08889003 -67.25315717 70.8668134 -62.00384521 68.37976074 C-62.91907959 67.89765137 -63.83431396 67.41554199 -64.77728271 66.91882324 C-65.97790472 66.2809928 -67.17842001 65.64296148 -68.37884521 65.00476074 C-69.28376709 64.52909668 -69.28376709 64.52909668 -70.20697021 64.04382324 C-72.78934903 62.66655454 -74.92215103 61.46145493 -77.00384521 59.37976074 C-77.62884521 57.06726074 -77.62884521 57.06726074 -77.00384521 54.37976074 C-72.65034135 50.62141943 -67.24742757 48.5788874 -62.00384521 46.37976074 C-63.00286865 45.8138623 -64.00189209 45.24796387 -65.03118896 44.66491699 C-66.33462267 43.92411654 -67.63800546 43.18322649 -68.94134521 42.44226074 C-69.60070068 42.06907715 -70.26005615 41.69589355 -70.93939209 41.31140137 C-75.89056396 38.49304199 -75.89056396 38.49304199 -77.00384521 37.37976074 C-77.37884521 35.06726074 -77.37884521 35.06726074 -77.00384521 32.37976074 C-73.50856952 29.13198814 -69.81041074 27.15556456 -65.49993896 25.16491699 C-64.87193893 24.87254654 -64.2439389 24.58017609 -63.59690857 24.27894592 C-61.54798644 23.32690486 -59.49476164 22.38456363 -57.44134521 21.44226074 C-56.01705741 20.78258241 -54.59306986 20.12225548 -53.16937256 19.46130371 C-50.24170737 18.10343153 -47.3122929 16.74944866 -44.38128662 15.39880371 C-40.16181213 13.45402583 -35.94727022 11.49876877 -31.73431396 9.53991699 C-25.92288794 6.83802299 -20.10921959 4.14102883 -14.293396 1.4486084 C-9.46150791 -0.80709708 -5.21840448 -1.61522422 0 0 Z M-13.96868896 9.51257324 C-14.91937256 9.98259766 -15.87005615 10.45262207 -16.84954834 10.93688965 C-17.86984131 11.45428711 -18.89013428 11.97168457 -19.94134521 12.50476074 C-27.41188498 16.20508996 -34.89537718 19.82563406 -42.50775146 23.22351074 C-43.21600571 23.53988495 -43.92425995 23.85625916 -44.65397644 24.18222046 C-47.46855221 25.43686066 -50.28444639 26.68829004 -53.10513306 27.92913818 C-55.07373317 28.79547544 -57.03893408 29.6691593 -59.00384521 30.54382324 C-60.13822021 31.04349609 -61.27259521 31.54316895 -62.44134521 32.0579834 C-65.12014732 33.12078575 -65.12014732 33.12078575 -66.00384521 35.37976074 C-65.13180199 35.8141169 -65.13180199 35.8141169 -64.24214172 36.25724792 C-58.15700176 39.28870192 -52.07330608 42.32303983 -45.99041748 45.35900879 C-43.72418051 46.4896227 -41.45758405 47.61951634 -39.19061279 48.74865723 C-35.92036235 50.37767453 -32.65144047 52.00933178 -29.38275146 53.64147949 C-28.37926163 54.14064377 -27.37577179 54.63980804 -26.34187317 55.15409851 C-21.1099189 57.76986989 -15.98673869 60.46946794 -10.97080994 63.48202515 C-7.49694739 65.06751879 -4.54042848 64.54226528 -1.00384521 63.37976074 C1.70453886 62.26816461 4.20476454 60.8910496 6.74615479 59.44226074 C16.76218612 53.9486097 26.95883956 48.84481016 37.18365479 43.75476074 C38.84158085 42.9281164 40.49945935 42.10137664 42.1572876 41.27453613 C46.10253054 39.30750419 50.04898256 37.34291818 53.99615479 35.37976074 C50.45256643 32.4278134 46.48009222 30.57704958 42.32818604 28.64929199 C41.57510666 28.29517746 40.82202728 27.94106293 40.04612732 27.57621765 C37.63562414 26.44393608 35.22222733 25.31798248 32.80865479 24.19226074 C30.45219404 23.08749521 28.096328 21.98146897 25.74050903 20.87533569 C24.17393554 20.14129493 22.60632578 19.40946168 21.03768921 18.67984009 C17.08505576 16.84014741 13.15031813 14.97308991 9.23980713 13.04528809 C8.47552902 12.67288498 7.71125092 12.30048187 6.92381287 11.91679382 C5.48153392 11.21274428 4.04360179 10.49968911 2.61109924 9.7759552 C-3.57470857 6.77657111 -7.83734573 6.4146187 -13.96868896 9.51257324 Z M-56.11712646 51.49694824 C-57.17286865 52.07702637 -58.22861084 52.65710449 -59.31634521 53.25476074 C-60.38497803 53.82968262 -61.45361084 54.40460449 -62.55462646 54.99694824 C-63.36286865 55.45327637 -64.17111084 55.90960449 -65.00384521 56.37976074 C-65.00384521 57.03976074 -65.00384521 57.69976074 -65.00384521 58.37976074 C-57.55709657 62.21904861 -50.09974715 66.03653439 -42.62793541 69.8267765 C-39.15868306 71.58748317 -35.69353899 73.35542412 -32.23675537 75.14050293 C-28.8998114 76.86335124 -25.55343795 78.56639656 -22.19966507 80.25623703 C-20.9227027 80.90394814 -19.64927853 81.55868467 -18.37958908 82.22053909 C-16.59901527 83.14718059 -14.80433386 84.04655932 -13.00921631 84.94470215 C-11.99217621 85.46432526 -10.97513611 85.98394836 -9.92727661 86.51931763 C-4.5635085 88.09801633 -0.15618258 85.08159388 4.61846924 82.70593262 C5.69590897 82.17197876 6.77334869 81.6380249 7.88343811 81.08789062 C9.03051743 80.51389526 10.17759674 79.9398999 11.35943604 79.34851074 C12.55907103 78.75063861 13.75879475 78.15294447 14.95860291 77.55541992 C17.46215166 76.30736204 19.96414261 75.05624502 22.46514893 73.80310059 C25.67425351 72.1956364 28.88784029 70.59736521 32.10271931 69.00148773 C34.5762856 67.77205407 37.04707297 66.53711832 39.51708031 65.30055237 C41.2774998 64.42072464 43.04054005 63.5461471 44.80360413 62.67163086 C45.86528305 62.137677 46.92696198 61.60372314 48.02081299 61.05358887 C48.95979935 60.5844104 49.89878571 60.11523193 50.8662262 59.63183594 C53.13327896 58.55920593 53.13327896 58.55920593 53.99615479 56.37976074 C52.29486393 55.53214252 50.58472394 54.70227394 48.87115479 53.87976074 C47.91982666 53.41569824 46.96849854 52.95163574 45.98834229 52.47351074 C41.20166243 50.72381054 38.14001689 50.90189166 33.41265869 52.87683105 C32.09283144 53.55804168 30.77977637 54.25248626 29.47271729 54.95788574 C28.41520767 55.50965485 28.41520767 55.50965485 27.33633423 56.0725708 C25.09172957 57.24689895 22.85645178 58.43782745 20.62115479 59.62976074 C19.12696305 60.41605809 17.63217623 61.20122571 16.13677979 61.98522949 C14.0157218 63.09777636 11.89561473 64.21179228 9.77999878 65.33465576 C8.49873783 66.01466798 7.21464452 66.68937355 5.9276123 67.35839844 C4.58614836 68.06776983 3.25861245 68.80386348 1.94311523 69.56030273 C-1.21222292 71.30564972 -3.30733913 72.37705598 -6.9586792 72.39123535 C-11.08948778 71.01915647 -14.8616909 69.18714955 -18.72650146 67.19616699 C-19.54960312 66.78060043 -20.37270477 66.36503387 -21.2207489 65.93687439 C-23.8398511 64.61287683 -26.45324941 63.2780678 -29.06634521 61.94226074 C-31.68401913 60.61211742 -34.30283033 59.28426434 -36.9226532 57.95835876 C-38.54910751 57.13434822 -40.17414684 56.30753708 -41.79756165 55.47755432 C-48.69397394 51.33762701 -48.69397394 51.33762701 -56.11712646 51.49694824 Z M-60.25384521 76.37976074 C-61.33150146 76.93663574 -62.40915771 77.49351074 -63.51947021 78.06726074 C-64.33931396 78.50038574 -65.15915771 78.93351074 -66.00384521 79.37976074 C-63.04840972 81.72392636 -60.04527991 83.50059581 -56.68792725 85.21472168 C-55.62647491 85.75828308 -54.56502258 86.30184448 -53.47140503 86.86187744 C-52.32968842 87.44012268 -51.1879718 88.01836792 -50.01165771 88.61413574 C-49.13475595 89.05869991 -49.13475595 89.05869991 -48.24013901 89.51224518 C-45.1492695 91.07847086 -42.05584555 92.63951816 -38.96038818 94.19665527 C-35.77032575 95.80277581 -32.59004953 97.42736202 -29.41156197 99.05624008 C-26.95814496 100.30911262 -24.49771058 101.54768535 -22.03518295 102.78253937 C-20.28961894 103.6625395 -18.5518119 104.55787224 -16.81417847 105.45343018 C-15.74642181 105.98438293 -14.67866516 106.51533569 -13.57855225 107.06237793 C-12.64463654 107.53520203 -11.71072083 108.00802612 -10.74850464 108.49517822 C-5.3199566 110.2447573 -1.06058968 108.15725851 3.81793213 105.69592285 C4.93864105 105.13541733 6.05934998 104.5749118 7.21401978 103.99742126 C8.42013147 103.38415445 9.62615359 102.77071144 10.83209229 102.15710449 C12.07869898 101.53006706 13.32566315 100.90373987 14.57296753 100.27809143 C17.84144899 98.63624534 21.10500878 96.98484385 24.36761475 95.33135986 C27.70309804 93.64309279 31.04317723 91.96397059 34.38287354 90.28405762 C40.92514898 86.99152468 47.46224863 83.68887669 53.99615479 80.37976074 C52.56566317 77.51877752 50.67561657 77.04255718 47.80865479 75.69226074 C46.39519775 75.00583496 46.39519775 75.00583496 44.95318604 74.30554199 C40.02148669 72.76153573 36.32026113 74.09280376 31.83013916 76.32922363 C30.24599556 77.16260551 28.66611668 78.00412909 27.08990479 78.85241699 C25.35953107 79.76080117 23.62905933 80.66899864 21.89849854 81.57702637 C19.19076167 83.01057752 16.48521831 84.44809294 13.78179932 85.88977051 C11.16071625 87.28363439 8.53210734 88.66240213 5.90240479 90.03991699 C4.69747375 90.69142479 4.69747375 90.69142479 3.46820068 91.35609436 C-0.82252897 93.59557655 -4.07403522 95.28767469 -9.00384521 94.37976074 C-12.26382411 93.06646886 -15.32541802 91.45074549 -18.41790771 89.78601074 C-19.30996918 89.3198938 -20.20203064 88.85377686 -21.12112427 88.37353516 C-23.963255 86.88711468 -26.79657967 85.38488284 -29.62884521 83.87976074 C-32.4689464 82.37609296 -35.31077396 80.8761423 -38.1579895 79.38598633 C-39.92748408 78.45940851 -41.69282475 77.52484494 -43.45346069 76.58154297 C-44.25464325 76.16110718 -45.05582581 75.74067139 -45.88128662 75.30749512 C-46.933358 74.747901 -46.933358 74.747901 -48.00668335 74.17700195 C-52.82181831 72.25486229 -55.98905819 74.15465447 -60.25384521 76.37976074 Z " fill="#B9B9B9" transform="translate(87.00384521484375,13.6202392578125)"></path></svg> 