<?xml version="1.0" encoding="UTF-8"?> <svg xmlns="http://www.w3.org/2000/svg" width="265" height="199" viewBox="0 0 265 199" fill="none"><rect x="0.438477" y="0.78363" width="264.479" height="198" fill="url(#paint0_linear_497_86)"></rect><path d="M190.671 88.5799L197.974 83.1981H173.535V115.523H197.974V110.139H180.51V101.864H195.405V96.482H180.51V88.5799H190.671Z" fill="white"></path><path d="M155.087 95.7973H146.599V88.5799H160.147L167.449 83.1981H139.624V115.523H154.187C162.355 115.523 167.039 111.82 167.039 105.367C167.039 99.1969 162.795 95.7973 155.087 95.7973ZM153.872 110.139H146.599V101.179H153.872C158.298 101.179 160.36 102.679 160.36 105.66C160.36 108.706 158.178 110.139 153.872 110.139Z" fill="white"></path><path d="M217.774 83.1981H204.469V115.521H211.441V106.366H217.774C226.265 106.366 231.54 101.901 231.54 94.7662C231.54 87.6314 226.265 83.1981 217.774 83.1981ZM217.62 100.985H211.441V88.5799H217.62C222.09 88.5799 224.547 90.7832 224.547 94.7822C224.547 98.7813 222.087 100.985 217.62 100.985Z" fill="white"></path><path d="M127.651 108.524C125.803 109.525 123.732 110.044 121.63 110.032C115.342 110.032 110.778 105.543 110.778 99.3591C110.778 93.1754 115.342 88.6995 121.63 88.6995C123.903 88.6664 126.126 89.363 127.973 90.687L132.977 86.9997L132.646 86.7093C129.716 84.1436 125.823 82.7875 121.361 82.7875C116.52 82.7875 112.126 84.418 108.991 87.3833C105.855 90.3486 104.099 94.5581 104.099 99.1939C104.099 103.83 105.831 108.108 108.975 111.183C112.119 114.258 116.509 115.963 121.315 115.963C126.343 115.963 130.734 114.21 133.712 111.02L129.196 107.693L127.651 108.524Z" fill="white"></path><path d="M81.9456 82.9132C83.2122 84.5494 84.2851 86.3267 85.1427 88.2098L60.8635 106.103L50.7207 99.7433V92.0942L60.8635 98.4511L81.9456 82.9132Z" fill="white"></path><mask id="mask0_497_86" style="mask-type:alpha" maskUnits="userSpaceOnUse" x="33" y="72" width="56" height="56"><path d="M78.0996 78.5524C73.1321 74.5627 66.9229 72.4411 60.5527 72.5568C54.1824 72.6725 48.0544 75.0183 43.2351 79.1858C38.4158 83.3534 35.2104 89.0788 34.1767 95.3657C33.1431 101.653 34.3466 108.103 37.5779 113.594C40.8091 119.085 45.8635 123.27 51.8614 125.419C57.8593 127.568 64.4209 127.546 70.4043 125.357C76.3877 123.168 81.414 118.95 84.6085 113.437C87.803 107.924 88.9634 101.466 87.8878 95.1863L82.3662 99.2279C82.4684 103.15 81.4863 107.047 79.4991 110.476C76.9974 114.793 73.061 118.097 68.3752 119.811C63.6893 121.526 58.5506 121.543 53.8534 119.86C49.1562 118.177 45.1979 114.9 42.6673 110.599C40.1368 106.299 39.1942 101.247 40.0037 96.3238C40.8133 91.4002 43.3235 86.9163 47.0977 83.6526C50.8719 80.3888 55.6711 78.5517 60.6599 78.4611C65.0643 78.3811 69.3703 79.6667 72.9957 82.119L78.0996 78.5524Z" fill="white"></path></mask><g mask="url(#mask0_497_86)"><g filter="url(#filter0_f_497_86)"><circle cx="50.2104" cy="79.6334" r="13.6157" fill="white"></circle></g><g filter="url(#filter1_f_497_86)"><circle cx="35.483" cy="89.2254" r="9.4476" fill="white"></circle></g><g filter="url(#filter2_f_497_86)"><ellipse cx="66.6045" cy="125.07" rx="16.1165" ry="15.8386" fill="white"></ellipse></g><g filter="url(#filter3_f_497_86)"><ellipse cx="42.7076" cy="113.956" rx="18.3395" ry="18.0616" fill="white"></ellipse></g><g filter="url(#filter4_f_497_86)"><ellipse cx="82.7211" cy="105.619" rx="18.8952" ry="18.6173" fill="white"></ellipse></g><g filter="url(#filter5_f_497_86)"><circle cx="70.217" cy="75.6093" r="13.6157" fill="white"></circle></g></g><defs><filter id="filter0_f_497_86" x="27.7752" y="57.1982" width="44.8706" height="44.8704" filterUnits="userSpaceOnUse" color-interpolation-filters="sRGB"><feFlood flood-opacity="0" result="BackgroundImageFix"></feFlood><feBlend mode="normal" in="SourceGraphic" in2="BackgroundImageFix" result="shape"></feBlend><feGaussianBlur stdDeviation="4.40978" result="effect1_foregroundBlur_497_86"></feGaussianBlur></filter><filter id="filter1_f_497_86" x="23.0354" y="76.7778" width="24.8953" height="24.8952" filterUnits="userSpaceOnUse" color-interpolation-filters="sRGB"><feFlood flood-opacity="0" result="BackgroundImageFix"></feFlood><feBlend mode="normal" in="SourceGraphic" in2="BackgroundImageFix" result="shape"></feBlend><feGaussianBlur stdDeviation="1.5" result="effect1_foregroundBlur_497_86"></feGaussianBlur></filter><filter id="filter2_f_497_86" x="40.6676" y="99.4111" width="51.8737" height="51.3181" filterUnits="userSpaceOnUse" color-interpolation-filters="sRGB"><feFlood flood-opacity="0" result="BackgroundImageFix"></feFlood><feBlend mode="normal" in="SourceGraphic" in2="BackgroundImageFix" result="shape"></feBlend><feGaussianBlur stdDeviation="4.91021" result="effect1_foregroundBlur_497_86"></feGaussianBlur></filter><filter id="filter3_f_497_86" x="14.5477" y="86.0736" width="56.3198" height="55.764" filterUnits="userSpaceOnUse" color-interpolation-filters="sRGB"><feFlood flood-opacity="0" result="BackgroundImageFix"></feFlood><feBlend mode="normal" in="SourceGraphic" in2="BackgroundImageFix" result="shape"></feBlend><feGaussianBlur stdDeviation="4.91021" result="effect1_foregroundBlur_497_86"></feGaussianBlur></filter><filter id="filter4_f_497_86" x="54.0055" y="77.1811" width="57.4314" height="56.8755" filterUnits="userSpaceOnUse" color-interpolation-filters="sRGB"><feFlood flood-opacity="0" result="BackgroundImageFix"></feFlood><feBlend mode="normal" in="SourceGraphic" in2="BackgroundImageFix" result="shape"></feBlend><feGaussianBlur stdDeviation="4.91021" result="effect1_foregroundBlur_497_86"></feGaussianBlur></filter><filter id="filter5_f_497_86" x="50.6601" y="56.0524" width="39.1139" height="39.1137" filterUnits="userSpaceOnUse" color-interpolation-filters="sRGB"><feFlood flood-opacity="0" result="BackgroundImageFix"></feFlood><feBlend mode="normal" in="SourceGraphic" in2="BackgroundImageFix" result="shape"></feBlend><feGaussianBlur stdDeviation="2.97061" result="effect1_foregroundBlur_497_86"></feGaussianBlur></filter><linearGradient id="paint0_linear_497_86" x1="258.306" y1="99.7836" x2="9.25446" y2="99.7836" gradientUnits="userSpaceOnUse"><stop stop-color="#1E996A"></stop><stop offset="1" stop-color="#0C3D35"></stop></linearGradient></defs></svg> 