<?xml version="1.0" encoding="UTF-8"?> <svg xmlns="http://www.w3.org/2000/svg" width="75" height="75" viewBox="0 0 75 75" fill="none"><circle cx="37.313" cy="37.416" r="36.5" fill="#9777A2" stroke="black"></circle><path d="M22.0826 14.0309C22.1232 13.9292 22.1847 13.8371 22.2632 13.7606C22.3417 13.6842 22.4354 13.6251 22.5382 13.5873C22.641 13.5494 22.7506 13.5336 22.8599 13.5409C22.9692 13.5482 23.0758 13.5784 23.1727 13.6296L41.7656 23.4404C41.9342 23.5297 42.0644 23.6776 42.1314 23.8563C42.1985 24.035 42.1978 24.2321 42.1294 24.4103L41.7468 25.4114L52.48 31.2976C52.6489 31.39 52.7777 31.5415 52.8417 31.7231C52.9057 31.9047 52.9003 32.1036 52.8267 32.2815L52.4706 33.1389L63.869 38.5862C64.0495 38.6725 64.19 38.8248 64.2614 39.0117C64.3329 39.1985 64.33 39.4057 64.2532 39.5904L61.9138 45.2283C61.8373 45.4132 61.6927 45.5616 61.51 45.643C61.3272 45.7243 61.1201 45.7324 60.9316 45.6656L49.0241 41.4473L48.668 42.3047C48.5945 42.4823 48.4581 42.6265 48.285 42.7097C48.1118 42.793 47.914 42.8095 47.7295 42.7561L36.367 39.4811L36.0265 40.3697C35.9566 40.5546 35.8188 40.7059 35.6412 40.7927C35.4636 40.8795 35.2596 40.8952 35.0708 40.8367L14.7695 34.5897C14.6665 34.5579 14.5711 34.5052 14.4895 34.4347C14.4079 34.3643 14.3418 34.2777 14.2953 34.1804C14.2488 34.0831 14.2229 33.9773 14.2193 33.8695C14.2157 33.7618 14.2345 33.6544 14.2744 33.5543L22.0826 14.0309ZM60.7551 43.9461L62.526 39.6763L51.8709 34.5835L49.6237 40.0027L60.7551 43.9461ZM47.4952 41.0631L51.1167 32.3299L41.2221 26.9028L37.5148 36.4826L36.9292 38.0146L47.4952 41.0631ZM34.8319 39.1297L35.1489 38.3004C35.1536 38.2832 35.1504 38.2629 35.1583 38.2458L36.1233 35.7517L40.4241 24.4977L23.2101 15.4162L16.0391 33.345L34.8319 39.1297ZM19.7402 10.9075C19.817 10.7151 19.9671 10.5611 20.1575 10.4793C20.3478 10.3976 20.5629 10.3949 20.7552 10.4717C20.9476 10.5486 21.1016 10.6987 21.1833 10.889C21.265 11.0794 21.2678 11.2945 21.1909 11.4869L11.8211 34.913C11.7831 35.0085 11.7266 35.0955 11.6549 35.1691C11.5832 35.2427 11.4977 35.3014 11.4032 35.3419C11.3088 35.3824 11.2073 35.4038 11.1045 35.405C11.0018 35.4062 10.8998 35.387 10.8045 35.3487C10.7092 35.3107 10.6223 35.2543 10.5489 35.1827C10.4754 35.1111 10.4168 35.0257 10.3763 34.9314C10.3358 34.8372 10.3143 34.7359 10.313 34.6333C10.3118 34.5307 10.3307 34.4289 10.3688 34.3336L19.7402 10.9075ZM36.862 43.2137H41.5469C43.3272 43.2137 44.6702 44.5568 44.6702 46.3372V48.3908L53.8511 59.1028C53.9228 59.1798 53.9782 59.2705 54.014 59.3694C54.0498 59.4683 54.0653 59.5735 54.0594 59.6785C54.0536 59.7836 54.0266 59.8863 53.98 59.9807C53.9335 60.075 53.8683 60.159 53.7885 60.2275C53.7087 60.2961 53.6159 60.3478 53.5156 60.3796C53.4153 60.4113 53.3097 60.4225 53.2049 60.4124C53.1002 60.4023 52.9986 60.3712 52.9063 60.3209C52.8139 60.2705 52.7326 60.2021 52.6674 60.1195L43.5302 49.4606H39.9853V59.612C39.9853 59.8191 39.903 60.0177 39.7566 60.1641C39.6102 60.3106 39.4115 60.3928 39.2045 60.3928C38.9974 60.3928 38.7988 60.3106 38.6523 60.1641C38.5059 60.0177 38.4236 59.8191 38.4236 59.612V49.4606H34.8787L25.7431 60.1195C25.6767 60.1979 25.5954 60.2623 25.504 60.309C25.4125 60.3557 25.3127 60.3838 25.2103 60.3917C25.1078 60.3995 25.0049 60.387 24.9074 60.3547C24.8099 60.3225 24.7197 60.2712 24.6422 60.2039C24.485 60.069 24.3878 59.8773 24.372 59.6708C24.3562 59.4643 24.423 59.26 24.5578 59.1028L33.7387 48.3908V46.4543C33.7387 44.638 35.1098 43.2137 36.862 43.2137ZM35.3004 47.8989H43.1086V46.3372C43.1086 45.4173 42.4667 44.7754 41.5469 44.7754H36.862C35.9719 44.7754 35.3004 45.4969 35.3004 46.4543V47.8989Z" fill="white"></path></svg> 