<?xml version="1.0" encoding="UTF-8"?> <svg xmlns="http://www.w3.org/2000/svg" width="527" height="101" viewBox="0 0 527 101" fill="none"><rect x="2.25391" y="1.91602" width="523" height="97" rx="48.5" fill="#FFFBEF" stroke="#DBB391" stroke-width="3"></rect><circle cx="50.7534" cy="50.416" r="36.5" fill="#8D99A6" stroke="black"></circle><path fill-rule="evenodd" clip-rule="evenodd" d="M38.6487 69.1937C38.6429 69.1904 38.636 69.1873 38.6279 69.1844C38.6348 69.1875 38.6418 69.1907 38.6487 69.1937Z" fill="white"></path><path fill-rule="evenodd" clip-rule="evenodd" d="M60.7454 34.0967C69.4846 34.9088 69.3522 43.6833 68.1935 47.9691C68.7397 44.3439 67.1011 38.9786 62.7812 37.2869C58.4613 35.5951 57.5426 37.2869 57.2447 37.7461C56.8692 38.3249 60.1247 37.5527 58.9826 38.2053C58.069 38.7273 57.7247 39.5184 57.6668 39.8487C65.2143 36.8277 67.2501 43.2805 67.4487 45.2139C67.6473 47.1474 67.1011 46.2048 66.4805 45.8181C65.8598 45.4315 66.9025 47.1474 66.4805 50.12C66.0584 53.0927 65.0405 50.5792 63.7495 48.96C62.4584 47.3407 63.4515 52.6818 63.8488 54.9294C64.246 57.177 63.2777 55.4128 62.4833 54.8569C61.6888 54.3011 61.1178 59.0621 60.3978 59.4005C59.6778 59.7388 59.6778 57.7812 59.0819 59.1588C58.4861 60.5364 58.3619 60.488 57.8157 60.1739C57.2695 59.8597 57.5675 58.8688 56.1027 61.8898C54.6379 64.9108 51.9069 61.5031 50.6655 63.8715C49.6724 65.7663 51.0793 65.9822 51.9069 65.8533C48.8034 68.7293 50.1193 70.6385 50.6655 70.7594C51.1025 70.8561 51.8407 71.3475 52.1551 71.5811C51.7827 71.5569 48.7786 71.1219 46.0228 74.4812C46.5789 73.7079 46.5359 72.8378 46.4449 72.4995C46.1966 72.5961 44.1856 72.7895 43.267 73.1278C43.8952 72.6574 45.4643 71.938 45.7765 71.9417C45.7842 71.9424 45.7918 71.943 45.7994 71.9436C45.7927 71.9424 45.7851 71.9418 45.7765 71.9417C45.2661 71.8924 44.7037 71.4733 44.4835 71.2669C45.9731 71.6053 47.2642 71.4844 48.2572 69.1401C48.7085 68.0482 48.8966 65.3314 46.0397 63.1996C44.4451 64.6557 45.6937 65.3218 46.5173 65.4728C42.5952 67.1577 43.1682 69.3872 43.64 69.6806C44.0175 69.9154 44.5409 70.6207 44.7554 70.944C44.7397 70.9373 44.7191 70.928 44.6938 70.9166C44.1658 70.6782 41.5657 69.5042 37.9749 71.655C38.7676 71.1103 39.0302 70.2775 39.0625 69.9291C38.9682 69.9324 38.6638 69.8749 38.266 69.7998L38.2659 69.7998C37.5351 69.6618 36.4893 69.4643 35.8533 69.4747C36.6084 69.2388 38.3354 69.0781 38.6279 69.1844C38.6348 69.1875 38.6418 69.1907 38.6487 69.1937C38.6429 69.1904 38.636 69.1873 38.6279 69.1844C38.1648 68.97 37.7816 68.3906 37.6464 68.124C38.9301 68.9325 40.187 69.2436 41.9381 67.3646C43.6893 65.4856 43.6107 59.7228 40.2132 58.1438C35.5539 55.9782 33.7333 53.8902 32.7402 48.4524C31.9457 44.1022 34.0312 39.9856 35.1733 38.4711C34.5526 39.1236 33.1623 39.6795 32.7402 37.6977C32.3181 35.716 33.5099 34.2659 33.7333 34.2659C33.3559 33.7245 32.1692 33.6053 31.623 33.6134C32.0798 32.8207 33.3692 32.0586 33.9567 31.7766C33.6423 31.3658 33.0729 30.3652 33.3112 29.6498C33.5496 28.9344 33.543 27.9984 33.5099 27.6197C35.8188 28.514 37.0105 24.1154 37.805 25.8072C38.4405 27.1606 39.6256 26.5 40.1387 26.0005C40.4367 27.8953 41.9842 27.1444 42.7208 26.5322C42.2987 28.7556 44.0366 27.6197 44.3842 27.6197C45.0992 31.2933 42.1828 31.0999 40.6353 30.5441C42.7456 32.4533 44.0366 35.5951 44.3842 39.317C44.7318 43.0388 47.289 44.9723 48.8283 45.5523C50.0597 46.0163 51.1951 47.6791 51.6089 48.4524C52.1551 46.664 51.7331 45.6248 50.442 42.9905C49.151 40.3562 49.8214 33.0817 60.7454 34.0967ZM35.4592 30.1568C35.9896 30.1937 36.2801 30.5711 36.359 30.7552C36.1696 30.5343 35.8696 30.4483 35.7433 30.433C35.7591 30.4637 35.7907 30.5711 35.7907 30.7552C35.7907 30.9853 35.5065 31.1234 35.3644 31.1234C35.2224 31.1234 34.8908 31.0774 34.8908 30.6171C34.8908 30.2489 35.2697 30.1568 35.4592 30.1568Z" fill="white"></path><path d="M45.7765 71.9417C45.4643 71.938 43.8952 72.6574 43.267 73.1278C44.1856 72.7895 46.1966 72.5961 46.4449 72.4995C46.5359 72.8378 46.5789 73.7079 46.0228 74.4812C48.7786 71.1219 51.7827 71.5569 52.1551 71.5811C51.8407 71.3475 51.1025 70.8561 50.6655 70.7594C50.1193 70.6385 48.8034 68.7293 51.9069 65.8533C51.0793 65.9822 49.6724 65.7663 50.6655 63.8715C51.9069 61.5031 54.6379 64.9108 56.1027 61.8898C57.5675 58.8688 57.2695 59.8597 57.8157 60.1739C58.3619 60.488 58.4861 60.5364 59.0819 59.1588C59.6778 57.7812 59.6778 59.7388 60.3978 59.4005C61.1178 59.0621 61.6888 54.3011 62.4833 54.8569C63.2777 55.4128 64.246 57.177 63.8488 54.9294C63.4515 52.6818 62.4584 47.3407 63.7495 48.96C65.0405 50.5792 66.0584 53.0927 66.4805 50.12C66.9025 47.1474 65.8598 45.4315 66.4805 45.8181C67.1011 46.2048 67.6473 47.1474 67.4487 45.2139C67.2501 43.2805 65.2143 36.8277 57.6668 39.8487C57.7247 39.5184 58.069 38.7273 58.9826 38.2053C60.1247 37.5527 56.8692 38.3249 57.2447 37.7461C57.5426 37.2869 58.4613 35.5951 62.7812 37.2869C67.1011 38.9786 68.7397 44.3439 68.1935 47.9691C69.3522 43.6833 69.4846 34.9088 60.7454 34.0967C49.8214 33.0817 49.151 40.3562 50.442 42.9905C51.7331 45.6248 52.1551 46.664 51.6089 48.4524C51.1951 47.6791 50.0597 46.0163 48.8283 45.5523C47.289 44.9723 44.7318 43.0388 44.3842 39.317C44.0366 35.5951 42.7456 32.4533 40.6353 30.5441C42.1828 31.0999 45.0992 31.2933 44.3842 27.6197C44.0366 27.6197 42.2987 28.7556 42.7208 26.5322C41.9842 27.1444 40.4367 27.8953 40.1387 26.0005C39.6256 26.5 38.4405 27.1606 37.805 25.8072C37.0105 24.1154 35.8188 28.514 33.5099 27.6197C33.543 27.9984 33.5496 28.9344 33.3112 29.6498C33.0729 30.3652 33.6423 31.3658 33.9567 31.7766C33.3692 32.0586 32.0798 32.8207 31.623 33.6134C32.1692 33.6053 33.3559 33.7245 33.7333 34.2659C33.5099 34.2659 32.3181 35.716 32.7402 37.6977C33.1623 39.6795 34.5526 39.1236 35.1733 38.4711C34.0312 39.9856 31.9457 44.1022 32.7402 48.4524C33.7333 53.8902 35.5539 55.9782 40.2132 58.1438C43.6107 59.7228 43.6893 65.4856 41.9381 67.3646C40.187 69.2436 38.9301 68.9325 37.6464 68.124C37.7816 68.3906 38.1648 68.97 38.6279 69.1844M45.7765 71.9417C45.7842 71.9424 45.7918 71.943 45.7994 71.9436C45.7927 71.9424 45.7851 71.9418 45.7765 71.9417ZM45.7765 71.9417C45.2661 71.8924 44.7037 71.4733 44.4835 71.2669C45.9731 71.6053 47.2642 71.4844 48.2572 69.1401C48.7085 68.0482 48.8966 65.3314 46.0397 63.1996C44.4451 64.6557 45.6937 65.3218 46.5173 65.4728C42.5952 67.1577 43.1682 69.3872 43.64 69.6806C44.0175 69.9154 44.5409 70.6207 44.7554 70.944C44.7397 70.9373 44.7191 70.928 44.6938 70.9166C44.1658 70.6782 41.5657 69.5042 37.9749 71.655C38.7676 71.1103 39.0302 70.2775 39.0625 69.9291C38.9682 69.9324 38.6638 69.8749 38.266 69.7998L38.2659 69.7998C37.5351 69.6618 36.4893 69.4643 35.8533 69.4747C36.6084 69.2388 38.3354 69.0781 38.6279 69.1844M38.6279 69.1844C38.6348 69.1875 38.6418 69.1907 38.6487 69.1937C38.6429 69.1904 38.636 69.1873 38.6279 69.1844ZM36.359 30.7552C36.2801 30.5711 35.9896 30.1937 35.4592 30.1568C35.2697 30.1568 34.8908 30.2489 34.8908 30.6171C34.8908 31.0774 35.2224 31.1234 35.3644 31.1234C35.5065 31.1234 35.7907 30.9853 35.7907 30.7552C35.7907 30.5711 35.7591 30.4637 35.7433 30.433C35.8696 30.4483 36.1696 30.5343 36.359 30.7552Z" stroke="black" stroke-width="0.397826" stroke-linecap="round"></path><path d="M111.337 59.612C110.964 59.612 110.675 59.5093 110.469 59.304C110.283 59.08 110.189 58.7813 110.189 58.408V40.656C110.189 40.264 110.283 39.9747 110.469 39.788C110.675 39.5827 110.964 39.48 111.337 39.48C111.711 39.48 111.991 39.5827 112.177 39.788C112.383 39.9747 112.485 40.264 112.485 40.656V48.468H116.349L115.677 48.916L121.501 40.096C121.669 39.8347 121.865 39.6667 122.089 39.592C122.313 39.4987 122.537 39.48 122.761 39.536C122.985 39.5733 123.172 39.676 123.321 39.844C123.471 39.9933 123.555 40.1893 123.573 40.432C123.611 40.656 123.545 40.8987 123.377 41.16L117.917 49.308L117.049 48.552C118.188 48.6827 119.159 49.084 119.961 49.756C120.764 50.428 121.464 51.3613 122.061 52.556L124.721 57.988C124.871 58.2867 124.917 58.5573 124.861 58.8C124.805 59.024 124.684 59.2013 124.497 59.332C124.311 59.4627 124.096 59.5373 123.853 59.556C123.629 59.5933 123.405 59.556 123.181 59.444C122.957 59.332 122.78 59.136 122.649 58.856L120.157 53.62C119.597 52.4813 118.963 51.6693 118.253 51.184C117.563 50.6987 116.704 50.456 115.677 50.456H112.485V58.408C112.485 58.7813 112.392 59.08 112.205 59.304C112.019 59.5093 111.729 59.612 111.337 59.612ZM136.251 59.668C134.422 59.668 132.826 59.2573 131.463 58.436C130.119 57.596 129.074 56.42 128.327 54.908C127.599 53.396 127.235 51.604 127.235 49.532C127.235 47.964 127.44 46.564 127.851 45.332C128.28 44.0813 128.887 43.0267 129.671 42.168C130.455 41.2907 131.398 40.6187 132.499 40.152C133.619 39.6667 134.87 39.424 136.251 39.424C138.118 39.424 139.723 39.8347 141.067 40.656C142.43 41.4773 143.475 42.644 144.203 44.156C144.95 45.6493 145.323 47.432 145.323 49.504C145.323 51.072 145.108 52.4813 144.679 53.732C144.25 54.9827 143.643 56.0467 142.859 56.924C142.075 57.8013 141.123 58.4827 140.003 58.968C138.902 59.4347 137.651 59.668 136.251 59.668ZM136.251 57.624C137.67 57.624 138.864 57.3067 139.835 56.672C140.824 56.0373 141.58 55.1133 142.103 53.9C142.626 52.6867 142.887 51.2307 142.887 49.532C142.887 46.9747 142.308 44.996 141.151 43.596C140.012 42.1773 138.379 41.468 136.251 41.468C134.87 41.468 133.684 41.7853 132.695 42.42C131.724 43.0547 130.978 43.9787 130.455 45.192C129.932 46.3867 129.671 47.8333 129.671 49.532C129.671 52.0707 130.25 54.0587 131.407 55.496C132.564 56.9147 134.179 57.624 136.251 57.624ZM150.576 59.612C150.202 59.612 149.913 59.5093 149.708 59.304C149.521 59.08 149.428 58.7813 149.428 58.408V40.684C149.428 40.292 149.521 39.9933 149.708 39.788C149.913 39.5827 150.202 39.48 150.576 39.48C150.949 39.48 151.229 39.5827 151.416 39.788C151.621 39.9933 151.724 40.292 151.724 40.684V48.412H163.568V40.684C163.568 40.292 163.661 39.9933 163.848 39.788C164.053 39.5827 164.342 39.48 164.716 39.48C165.089 39.48 165.369 39.5827 165.556 39.788C165.761 39.9933 165.864 40.292 165.864 40.684V58.408C165.864 58.7813 165.761 59.08 165.556 59.304C165.369 59.5093 165.089 59.612 164.716 59.612C164.342 59.612 164.053 59.5093 163.848 59.304C163.661 59.08 163.568 58.7813 163.568 58.408V50.4H151.724V58.408C151.724 58.7813 151.63 59.08 151.444 59.304C151.257 59.5093 150.968 59.612 150.576 59.612ZM176.72 59.612C176.366 59.612 176.086 59.5093 175.88 59.304C175.675 59.08 175.572 58.7813 175.572 58.408V41.664H169.272C168.936 41.664 168.675 41.5707 168.488 41.384C168.302 41.1973 168.208 40.9547 168.208 40.656C168.208 40.3387 168.302 40.096 168.488 39.928C168.675 39.76 168.936 39.676 169.272 39.676H184.196C184.532 39.676 184.794 39.76 184.98 39.928C185.167 40.096 185.26 40.3387 185.26 40.656C185.26 40.9733 185.167 41.2253 184.98 41.412C184.794 41.58 184.532 41.664 184.196 41.664H177.896V58.408C177.896 58.7813 177.794 59.08 177.588 59.304C177.402 59.5093 177.112 59.612 176.72 59.612ZM184.855 59.612C184.557 59.612 184.314 59.5467 184.127 59.416C183.959 59.2667 183.857 59.08 183.819 58.856C183.801 58.6133 183.857 58.3427 183.987 58.044L191.687 40.516C191.855 40.1427 192.051 39.8813 192.275 39.732C192.518 39.564 192.779 39.48 193.059 39.48C193.339 39.48 193.591 39.564 193.815 39.732C194.058 39.8813 194.254 40.1427 194.403 40.516L202.131 58.044C202.281 58.3427 202.337 58.6133 202.299 58.856C202.281 59.0987 202.187 59.2853 202.019 59.416C201.851 59.5467 201.618 59.612 201.319 59.612C200.983 59.612 200.713 59.528 200.507 59.36C200.302 59.1733 200.134 58.912 200.003 58.576L197.931 53.788L199.051 54.376H187.011L188.159 53.788L186.115 58.576C185.947 58.9307 185.77 59.192 185.583 59.36C185.397 59.528 185.154 59.612 184.855 59.612ZM193.031 42.364L188.523 52.976L187.851 52.444H198.211L197.595 52.976L193.087 42.364H193.031ZM206.822 59.612C206.448 59.612 206.159 59.5093 205.954 59.304C205.767 59.08 205.674 58.7813 205.674 58.408V40.656C205.674 40.264 205.767 39.9747 205.954 39.788C206.159 39.5827 206.448 39.48 206.822 39.48C207.195 39.48 207.475 39.5827 207.662 39.788C207.867 39.9747 207.97 40.264 207.97 40.656V48.468H211.834L211.162 48.916L216.986 40.096C217.154 39.8347 217.35 39.6667 217.574 39.592C217.798 39.4987 218.022 39.48 218.246 39.536C218.47 39.5733 218.656 39.676 218.806 39.844C218.955 39.9933 219.039 40.1893 219.058 40.432C219.095 40.656 219.03 40.8987 218.862 41.16L213.402 49.308L212.534 48.552C213.672 48.6827 214.643 49.084 215.446 49.756C216.248 50.428 216.948 51.3613 217.546 52.556L220.206 57.988C220.355 58.2867 220.402 58.5573 220.346 58.8C220.29 59.024 220.168 59.2013 219.982 59.332C219.795 59.4627 219.58 59.5373 219.338 59.556C219.114 59.5933 218.89 59.556 218.666 59.444C218.442 59.332 218.264 59.136 218.134 58.856L215.642 53.62C215.082 52.4813 214.447 51.6693 213.738 51.184C213.047 50.6987 212.188 50.456 211.162 50.456H207.97V58.408C207.97 58.7813 207.876 59.08 207.69 59.304C207.503 59.5093 207.214 59.612 206.822 59.612ZM229.603 59.612C229.249 59.612 228.969 59.5093 228.763 59.304C228.558 59.08 228.455 58.7813 228.455 58.408V41.664H222.155C221.819 41.664 221.558 41.5707 221.371 41.384C221.185 41.1973 221.091 40.9547 221.091 40.656C221.091 40.3387 221.185 40.096 221.371 39.928C221.558 39.76 221.819 39.676 222.155 39.676H237.079C237.415 39.676 237.677 39.76 237.863 39.928C238.05 40.096 238.143 40.3387 238.143 40.656C238.143 40.9733 238.05 41.2253 237.863 41.412C237.677 41.58 237.415 41.664 237.079 41.664H230.779V58.408C230.779 58.7813 230.677 59.08 230.471 59.304C230.285 59.5093 229.995 59.612 229.603 59.612ZM241.603 59.612C241.23 59.612 240.94 59.5093 240.735 59.304C240.548 59.08 240.455 58.7813 240.455 58.408V40.684C240.455 40.292 240.548 39.9933 240.735 39.788C240.94 39.5827 241.23 39.48 241.603 39.48C241.976 39.48 242.256 39.5827 242.443 39.788C242.648 39.9933 242.751 40.292 242.751 40.684V48.412H254.595V40.684C254.595 40.292 254.688 39.9933 254.875 39.788C255.08 39.5827 255.37 39.48 255.743 39.48C256.116 39.48 256.396 39.5827 256.583 39.788C256.788 39.9933 256.891 40.292 256.891 40.684V58.408C256.891 58.7813 256.788 59.08 256.583 59.304C256.396 59.5093 256.116 59.612 255.743 59.612C255.37 59.612 255.08 59.5093 254.875 59.304C254.688 59.08 254.595 58.7813 254.595 58.408V50.4H242.751V58.408C242.751 58.7813 242.658 59.08 242.471 59.304C242.284 59.5093 241.995 59.612 241.603 59.612ZM263.016 59.416C262.605 59.416 262.288 59.3133 262.064 59.108C261.858 58.884 261.756 58.5667 261.756 58.156V40.684C261.756 40.292 261.849 39.9933 262.036 39.788C262.241 39.5827 262.53 39.48 262.904 39.48C263.277 39.48 263.557 39.5827 263.744 39.788C263.949 39.9933 264.052 40.292 264.052 40.684V48.384H269.148C270.529 48.384 271.705 48.5893 272.676 49C273.646 49.4107 274.384 50.0267 274.888 50.848C275.41 51.6507 275.672 52.6587 275.672 53.872C275.672 55.6827 275.102 57.064 273.964 58.016C272.825 58.9493 271.22 59.416 269.148 59.416H263.016ZM264.052 57.484H268.924C270.417 57.484 271.537 57.1947 272.284 56.616C273.03 56.0187 273.404 55.104 273.404 53.872C273.404 52.6587 273.03 51.7627 272.284 51.184C271.537 50.6053 270.417 50.316 268.924 50.316H264.052V57.484ZM279.648 59.612C279.274 59.612 278.985 59.5093 278.78 59.304C278.593 59.08 278.5 58.7813 278.5 58.408V40.684C278.5 40.292 278.593 39.9933 278.78 39.788C278.985 39.5827 279.274 39.48 279.648 39.48C280.021 39.48 280.301 39.5827 280.488 39.788C280.693 39.9933 280.796 40.292 280.796 40.684V58.408C280.796 58.7813 280.702 59.08 280.516 59.304C280.329 59.5093 280.04 59.612 279.648 59.612ZM286.634 59.612C286.485 59.612 286.345 59.584 286.214 59.528C286.102 59.4907 286 59.416 285.906 59.304C285.832 59.192 285.766 59.0707 285.71 58.94C285.673 58.7907 285.654 58.6133 285.654 58.408V40.6C285.654 40.2453 285.748 39.9747 285.934 39.788C286.121 39.5827 286.392 39.48 286.746 39.48C287.082 39.48 287.344 39.5827 287.53 39.788C287.717 39.9747 287.81 40.2453 287.81 40.6V56.448H287.194L299.346 40.18C299.514 39.9187 299.682 39.7413 299.85 39.648C300.037 39.536 300.27 39.48 300.55 39.48C300.756 39.48 300.924 39.5267 301.054 39.62C301.185 39.6947 301.288 39.816 301.362 39.984C301.437 40.152 301.474 40.3573 301.474 40.6V58.464C301.474 58.8373 301.381 59.1267 301.194 59.332C301.026 59.5187 300.774 59.612 300.438 59.612C300.084 59.612 299.813 59.5187 299.626 59.332C299.44 59.1267 299.346 58.8373 299.346 58.464V42.644H299.962L287.81 58.912C287.624 59.1547 287.456 59.332 287.306 59.444C287.157 59.556 286.933 59.612 286.634 59.612ZM293.578 38.136C292.458 38.136 291.45 37.884 290.554 37.38C289.658 36.876 288.977 36.1107 288.51 35.084C288.398 34.804 288.38 34.58 288.454 34.412C288.529 34.2253 288.669 34.0947 288.874 34.02C289.08 33.9453 289.266 33.9453 289.434 34.02C289.602 34.0947 289.742 34.2533 289.854 34.496C290.209 35.2053 290.694 35.7467 291.31 36.12C291.926 36.4933 292.682 36.68 293.578 36.68C294.493 36.68 295.249 36.4933 295.846 36.12C296.462 35.7467 296.948 35.2053 297.302 34.496C297.433 34.2533 297.573 34.0947 297.722 34.02C297.89 33.9453 298.077 33.9453 298.282 34.02C298.506 34.0947 298.646 34.2253 298.702 34.412C298.777 34.58 298.749 34.804 298.618 35.084C298.133 36.1107 297.442 36.876 296.546 37.38C295.65 37.884 294.661 38.136 293.578 38.136ZM319.9 59.668C318.425 59.668 317.072 59.4813 315.84 59.108C314.626 58.7347 313.609 58.212 312.788 57.54C312.564 57.372 312.414 57.1853 312.34 56.98C312.284 56.7747 312.274 56.5693 312.312 56.364C312.368 56.1587 312.47 55.9907 312.62 55.86C312.769 55.7293 312.946 55.6547 313.152 55.636C313.376 55.6173 313.609 55.692 313.852 55.86C314.393 56.252 314.962 56.5787 315.56 56.84C316.176 57.1013 316.829 57.2973 317.52 57.428C318.229 57.5587 318.976 57.624 319.76 57.624C320.973 57.624 321.962 57.484 322.728 57.204C323.512 56.924 324.09 56.5133 324.464 55.972C324.837 55.412 325.024 54.7213 325.024 53.9C325.024 52.6867 324.65 51.8 323.904 51.24C323.176 50.6613 322.056 50.372 320.544 50.372H316.568C316.25 50.372 315.998 50.288 315.812 50.12C315.625 49.952 315.532 49.7187 315.532 49.42C315.532 49.1027 315.625 48.8693 315.812 48.72C315.998 48.552 316.25 48.468 316.568 48.468H320.096C321.57 48.468 322.681 48.1787 323.428 47.6C324.174 47.0213 324.548 46.172 324.548 45.052C324.548 44.3053 324.37 43.6613 324.016 43.12C323.661 42.5787 323.129 42.168 322.42 41.888C321.729 41.608 320.852 41.468 319.788 41.468C318.798 41.468 317.837 41.5987 316.904 41.86C315.989 42.1213 315.14 42.5413 314.356 43.12C314.113 43.2693 313.88 43.344 313.656 43.344C313.45 43.3253 313.273 43.2507 313.124 43.12C312.974 42.9707 312.872 42.7933 312.816 42.588C312.778 42.3827 312.797 42.1773 312.872 41.972C312.946 41.7667 313.096 41.5893 313.32 41.44C314.216 40.7493 315.242 40.2453 316.4 39.928C317.576 39.592 318.761 39.424 319.956 39.424C321.505 39.424 322.784 39.648 323.792 40.096C324.818 40.544 325.584 41.1693 326.088 41.972C326.61 42.7747 326.872 43.7267 326.872 44.828C326.872 46.06 326.508 47.0867 325.78 47.908C325.07 48.7293 324.1 49.2707 322.868 49.532V49.14C324.249 49.308 325.341 49.812 326.144 50.652C326.946 51.492 327.348 52.6027 327.348 53.984C327.348 55.16 327.077 56.1773 326.536 57.036C325.994 57.876 325.173 58.5293 324.072 58.996C322.989 59.444 321.598 59.668 319.9 59.668ZM339.798 59.668C337.968 59.668 336.372 59.2573 335.01 58.436C333.666 57.596 332.62 56.42 331.874 54.908C331.146 53.396 330.782 51.604 330.782 49.532C330.782 47.964 330.987 46.564 331.398 45.332C331.827 44.0813 332.434 43.0267 333.218 42.168C334.002 41.2907 334.944 40.6187 336.046 40.152C337.166 39.6667 338.416 39.424 339.798 39.424C341.664 39.424 343.27 39.8347 344.614 40.656C345.976 41.4773 347.022 42.644 347.75 44.156C348.496 45.6493 348.87 47.432 348.87 49.504C348.87 51.072 348.655 52.4813 348.226 53.732C347.796 54.9827 347.19 56.0467 346.406 56.924C345.622 57.8013 344.67 58.4827 343.55 58.968C342.448 59.4347 341.198 59.668 339.798 59.668ZM339.798 57.624C341.216 57.624 342.411 57.3067 343.382 56.672C344.371 56.0373 345.127 55.1133 345.65 53.9C346.172 52.6867 346.434 51.2307 346.434 49.532C346.434 46.9747 345.855 44.996 344.698 43.596C343.559 42.1773 341.926 41.468 339.798 41.468C338.416 41.468 337.231 41.7853 336.242 42.42C335.271 43.0547 334.524 43.9787 334.002 45.192C333.479 46.3867 333.218 47.8333 333.218 49.532C333.218 52.0707 333.796 54.0587 334.954 55.496C336.111 56.9147 337.726 57.624 339.798 57.624ZM361.263 59.668C359.433 59.668 357.837 59.2573 356.475 58.436C355.131 57.596 354.085 56.42 353.339 54.908C352.611 53.396 352.247 51.604 352.247 49.532C352.247 47.964 352.452 46.564 352.863 45.332C353.292 44.0813 353.899 43.0267 354.683 42.168C355.467 41.2907 356.409 40.6187 357.511 40.152C358.631 39.6667 359.881 39.424 361.263 39.424C363.129 39.424 364.735 39.8347 366.079 40.656C367.441 41.4773 368.487 42.644 369.215 44.156C369.961 45.6493 370.335 47.432 370.335 49.504C370.335 51.072 370.12 52.4813 369.691 53.732C369.261 54.9827 368.655 56.0467 367.871 56.924C367.087 57.8013 366.135 58.4827 365.015 58.968C363.913 59.4347 362.663 59.668 361.263 59.668ZM361.263 57.624C362.681 57.624 363.876 57.3067 364.847 56.672C365.836 56.0373 366.592 55.1133 367.115 53.9C367.637 52.6867 367.899 51.2307 367.899 49.532C367.899 46.9747 367.32 44.996 366.163 43.596C365.024 42.1773 363.391 41.468 361.263 41.468C359.881 41.468 358.696 41.7853 357.707 42.42C356.736 43.0547 355.989 43.9787 355.467 45.192C354.944 46.3867 354.683 47.8333 354.683 49.532C354.683 52.0707 355.261 54.0587 356.419 55.496C357.576 56.9147 359.191 57.624 361.263 57.624ZM375.587 59.612C375.214 59.612 374.925 59.5093 374.719 59.304C374.533 59.08 374.439 58.7813 374.439 58.408V40.936C374.439 40.5253 374.542 40.2173 374.747 40.012C374.971 39.788 375.289 39.676 375.699 39.676H389.475C389.867 39.676 390.175 39.788 390.399 40.012C390.623 40.2173 390.735 40.5253 390.735 40.936V58.408C390.735 58.7813 390.633 59.08 390.427 59.304C390.222 59.5093 389.942 59.612 389.587 59.612C389.214 59.612 388.925 59.5093 388.719 59.304C388.514 59.08 388.411 58.7813 388.411 58.408V41.664H376.735V58.408C376.735 58.7813 376.642 59.08 376.455 59.304C376.269 59.5093 375.979 59.612 375.587 59.612ZM395.156 59.612C394.857 59.612 394.615 59.5467 394.428 59.416C394.26 59.2667 394.157 59.08 394.12 58.856C394.101 58.6133 394.157 58.3427 394.288 58.044L401.988 40.516C402.156 40.1427 402.352 39.8813 402.576 39.732C402.819 39.564 403.08 39.48 403.36 39.48C403.64 39.48 403.892 39.564 404.116 39.732C404.359 39.8813 404.555 40.1427 404.704 40.516L412.432 58.044C412.581 58.3427 412.637 58.6133 412.6 58.856C412.581 59.0987 412.488 59.2853 412.32 59.416C412.152 59.5467 411.919 59.612 411.62 59.612C411.284 59.612 411.013 59.528 410.808 59.36C410.603 59.1733 410.435 58.912 410.304 58.576L408.232 53.788L409.352 54.376H397.312L398.46 53.788L396.416 58.576C396.248 58.9307 396.071 59.192 395.884 59.36C395.697 59.528 395.455 59.612 395.156 59.612ZM403.332 42.364L398.824 52.976L398.152 52.444H408.512L407.896 52.976L403.388 42.364H403.332ZM417.123 59.612C416.749 59.612 416.46 59.5093 416.255 59.304C416.068 59.08 415.975 58.7813 415.975 58.408V40.852C415.975 40.46 416.077 40.1707 416.283 39.984C416.488 39.7787 416.777 39.676 417.151 39.676H423.787C425.896 39.676 427.52 40.1987 428.659 41.244C429.797 42.2707 430.367 43.7267 430.367 45.612C430.367 47.4787 429.797 48.9347 428.659 49.98C427.52 51.0253 425.896 51.548 423.787 51.548H418.271V58.408C418.271 58.7813 418.177 59.08 417.991 59.304C417.804 59.5093 417.515 59.612 417.123 59.612ZM418.271 49.616H423.507C425.019 49.616 426.157 49.28 426.923 48.608C427.707 47.9173 428.099 46.9187 428.099 45.612C428.099 44.2867 427.707 43.288 426.923 42.616C426.157 41.9253 425.019 41.58 423.507 41.58H418.271V49.616ZM434.841 59.612C434.468 59.612 434.179 59.5093 433.973 59.304C433.787 59.08 433.693 58.7813 433.693 58.408V40.656C433.693 40.264 433.787 39.9747 433.973 39.788C434.179 39.5827 434.468 39.48 434.841 39.48C435.215 39.48 435.495 39.5827 435.681 39.788C435.887 39.9747 435.989 40.264 435.989 40.656V48.468H439.853L439.181 48.916L445.005 40.096C445.173 39.8347 445.369 39.6667 445.593 39.592C445.817 39.4987 446.041 39.48 446.265 39.536C446.489 39.5733 446.676 39.676 446.825 39.844C446.975 39.9933 447.059 40.1893 447.077 40.432C447.115 40.656 447.049 40.8987 446.881 41.16L441.421 49.308L440.553 48.552C441.692 48.6827 442.663 49.084 443.465 49.756C444.268 50.428 444.968 51.3613 445.565 52.556L448.225 57.988C448.375 58.2867 448.421 58.5573 448.365 58.8C448.309 59.024 448.188 59.2013 448.001 59.332C447.815 59.4627 447.6 59.5373 447.357 59.556C447.133 59.5933 446.909 59.556 446.685 59.444C446.461 59.332 446.284 59.136 446.153 58.856L443.661 53.62C443.101 52.4813 442.467 51.6693 441.757 51.184C441.067 50.6987 440.208 50.456 439.181 50.456H435.989V58.408C435.989 58.7813 435.896 59.08 435.709 59.304C435.523 59.5093 435.233 59.612 434.841 59.612Z" fill="black"></path></svg> 