<?xml version="1.0" encoding="UTF-8"?> <svg xmlns="http://www.w3.org/2000/svg" width="527" height="101" viewBox="0 0 527 101" fill="none"><rect x="2.25391" y="1.91602" width="523" height="97" rx="48.5" fill="#FFFBEF" stroke="#DBB391" stroke-width="3"></rect><circle cx="50.7534" cy="50.416" r="36.5" fill="#A7E08C" stroke="black"></circle><path fill-rule="evenodd" clip-rule="evenodd" d="M36.13 32.9064C33.3929 35.9444 27.8124 42.1657 27.3874 42.7475L27.3788 42.7593C26.8498 43.4831 26.2825 44.2595 27.3874 45.947C28.4983 47.6438 29.0779 48.3709 30.9134 47.2559C32.3818 46.3639 36.452 43.717 38.3036 42.5051L39.8975 45.2683L34.8259 55.6911C34.0691 57.3717 33.8695 61.1885 39.1247 63.0113L44.5345 51.5444L45.5972 49.292C45.861 48.6639 46.0949 47.8576 46.2492 46.9166C46.8294 43.3785 46.2844 37.9363 41.9745 32.9064C39.8975 30.4825 39.173 29.416 37.6274 29.416C36.3908 29.416 35.9851 31.743 36.13 32.9064ZM36.8968 37.9481C36.2785 37.9481 36.124 38.4976 36.124 38.7723C36.124 38.9177 36.2206 39.4025 36.8968 39.4025C37.4378 39.4025 37.573 38.95 37.573 38.7238C37.6052 38.4652 37.5151 37.9481 36.8968 37.9481Z" fill="#FAF8F8"></path><path d="M46.2492 46.9166C46.0949 47.8576 45.861 48.6639 45.5972 49.292L44.5345 51.5444H47.2877H59.2183H63.0668C62.538 49.8256 62.0561 48.2086 61.6981 46.9166H46.2492Z" fill="#FAF8F8"></path><path d="M74.4333 43.3292C75.3028 40.7114 74.5589 37.2888 70.2311 36.5908C64.8213 35.7182 60.4741 41.3416 61.1503 44.7351C61.2519 45.2449 61.4437 45.9988 61.6981 46.9166C62.0561 48.2086 62.538 49.8256 63.0668 51.5444C64.1623 55.1059 65.4589 59.1049 66.2703 61.5569C66.4957 62.2518 67.3909 63.3894 69.1684 62.3811C71.3903 61.1206 73.1292 59.5693 70.9556 54.8185C68.782 50.0676 67.1881 45.8985 68.1541 44.3957C69.1201 42.8929 71.4869 43.2807 74.4333 43.3292Z" fill="#FAF8F8"></path><path d="M47.2877 51.5444C47.1911 52.3611 47.2491 54.2465 48.2538 55.2548C49.5096 56.5152 51.7315 56.6122 53.2288 56.6122C53.4247 56.6122 53.6718 56.6096 53.9534 56.5942C55.8245 56.4916 59.2183 55.8198 59.2183 51.5444H47.2877Z" fill="#FAF8F8"></path><path d="M53.9534 68.0045H47.3843V72.416H60.136V68.0045H53.9534Z" fill="#FAF8F8"></path><path d="M27.3874 42.7475C27.8124 42.1657 33.3929 35.9444 36.13 32.9064C35.9851 31.743 36.3908 29.416 37.6274 29.416C39.173 29.416 39.8975 30.4825 41.9745 32.9064C46.2844 37.9363 46.8294 43.3785 46.2492 46.9166M27.3874 42.7475L27.3788 42.7593M27.3874 42.7475C27.3845 42.7514 27.3816 42.7554 27.3788 42.7593M46.2492 46.9166C46.0949 47.8576 45.861 48.6639 45.5972 49.292L44.5345 51.5444M46.2492 46.9166H61.6981M61.6981 46.9166C61.4437 45.9988 61.2519 45.2449 61.1503 44.7351C60.4741 41.3416 64.8213 35.7182 70.2311 36.5908C74.5589 37.2888 75.3028 40.7114 74.4333 43.3292C71.4869 43.2807 69.1201 42.8929 68.1541 44.3957C67.1881 45.8985 68.782 50.0676 70.9556 54.8185C73.1292 59.5693 71.3903 61.1206 69.1684 62.3811C67.3909 63.3894 66.4957 62.2518 66.2703 61.5569C65.4589 59.1049 64.1623 55.1059 63.0668 51.5444M61.6981 46.9166C62.0561 48.2086 62.538 49.8256 63.0668 51.5444M44.5345 51.5444L39.1247 63.0113C33.8695 61.1885 34.0691 57.3717 34.8259 55.6911L39.8975 45.2683L38.3036 42.5051C36.452 43.717 32.3818 46.3639 30.9134 47.2559C29.0779 48.3709 28.4983 47.6438 27.3874 45.947C26.2825 44.2595 26.8498 43.4831 27.3788 42.7593M44.5345 51.5444H47.2877M63.0668 51.5444H59.2183M47.2877 51.5444C47.1911 52.3611 47.2491 54.2465 48.2538 55.2548C49.5096 56.5152 51.7315 56.6122 53.2288 56.6122C53.4247 56.6122 53.6718 56.6096 53.9534 56.5942M47.2877 51.5444H59.2183M59.2183 51.5444C59.2183 55.8198 55.8245 56.4916 53.9534 56.5942M53.9534 56.5942V57.8241L52.2624 58.9715C51.4447 59.5263 51.4685 60.7391 52.3075 61.2614L52.3976 61.3175C53.2557 61.8516 53.2072 63.1164 52.3108 63.5834V63.5834C51.4716 64.0205 51.3617 65.1773 52.1036 65.7646L53.9534 67.2289V68.0045M53.9534 68.0045H47.3843V72.416H60.136V68.0045H53.9534ZM36.124 38.7723C36.124 38.4976 36.2785 37.9481 36.8968 37.9481C37.5151 37.9481 37.6052 38.4652 37.573 38.7238C37.573 38.95 37.4378 39.4025 36.8968 39.4025C36.2206 39.4025 36.124 38.9177 36.124 38.7723Z" stroke="#5C5C5C" stroke-linecap="round"></path><circle cx="41.2534" cy="58.916" r="2" fill="#FAF8F8" stroke="#5C5C5C"></circle><circle cx="65.2534" cy="58.916" r="2" fill="#FAF8F8" stroke="#5C5C5C"></circle><path d="M111.337 59.612C110.964 59.612 110.675 59.5093 110.469 59.304C110.283 59.08 110.189 58.7813 110.189 58.408V40.936C110.189 40.5253 110.292 40.2173 110.497 40.012C110.721 39.788 111.039 39.676 111.449 39.676H125.225C125.617 39.676 125.925 39.788 126.149 40.012C126.373 40.2173 126.485 40.5253 126.485 40.936V58.408C126.485 58.7813 126.383 59.08 126.177 59.304C125.972 59.5093 125.692 59.612 125.337 59.612C124.964 59.612 124.675 59.5093 124.469 59.304C124.264 59.08 124.161 58.7813 124.161 58.408V41.664H112.485V58.408C112.485 58.7813 112.392 59.08 112.205 59.304C112.019 59.5093 111.729 59.612 111.337 59.612ZM146.054 59.612C145.681 59.612 145.391 59.5093 145.186 59.304C144.981 59.08 144.878 58.7813 144.878 58.408V41.664H136.254V46.2C136.254 48.0853 136.142 49.7467 135.918 51.184C135.713 52.6027 135.395 53.844 134.966 54.908C134.555 55.9533 134.033 56.84 133.398 57.568C132.782 58.296 132.063 58.912 131.242 59.416C130.943 59.6213 130.654 59.696 130.374 59.64C130.094 59.584 129.861 59.4067 129.674 59.108C129.487 58.8093 129.431 58.5293 129.506 58.268C129.599 58.0067 129.795 57.7827 130.094 57.596C130.729 57.204 131.289 56.7093 131.774 56.112C132.278 55.5147 132.698 54.768 133.034 53.872C133.389 52.9573 133.659 51.828 133.846 50.484C134.033 49.14 134.126 47.516 134.126 45.612V40.936C134.126 40.5253 134.229 40.2173 134.434 40.012C134.658 39.788 134.975 39.676 135.386 39.676H145.942C146.334 39.676 146.642 39.788 146.866 40.012C147.09 40.2173 147.202 40.5253 147.202 40.936V58.408C147.202 58.7813 147.099 59.08 146.894 59.304C146.689 59.5093 146.409 59.612 146.054 59.612ZM153.34 59.416C152.929 59.416 152.612 59.3133 152.388 59.108C152.183 58.884 152.08 58.5667 152.08 58.156V40.936C152.08 40.5253 152.183 40.2173 152.388 40.012C152.612 39.788 152.929 39.676 153.34 39.676H163.756C164.073 39.676 164.316 39.76 164.484 39.928C164.652 40.096 164.736 40.3293 164.736 40.628C164.736 40.9453 164.652 41.188 164.484 41.356C164.316 41.524 164.073 41.608 163.756 41.608H154.32V48.44H163.168C163.485 48.44 163.728 48.524 163.896 48.692C164.064 48.8413 164.148 49.0747 164.148 49.392C164.148 49.7093 164.064 49.952 163.896 50.12C163.728 50.288 163.485 50.372 163.168 50.372H154.32V57.484H163.756C164.073 57.484 164.316 57.568 164.484 57.736C164.652 57.904 164.736 58.1373 164.736 58.436C164.736 58.7533 164.652 58.996 164.484 59.164C164.316 59.332 164.073 59.416 163.756 59.416H153.34ZM169.384 59.612C169.235 59.612 169.095 59.584 168.964 59.528C168.852 59.4907 168.75 59.416 168.656 59.304C168.582 59.192 168.516 59.0707 168.46 58.94C168.423 58.7907 168.404 58.6133 168.404 58.408V40.6C168.404 40.2453 168.498 39.9747 168.684 39.788C168.871 39.5827 169.142 39.48 169.496 39.48C169.832 39.48 170.094 39.5827 170.28 39.788C170.467 39.9747 170.56 40.2453 170.56 40.6V56.448H169.944L182.096 40.18C182.264 39.9187 182.432 39.7413 182.6 39.648C182.787 39.536 183.02 39.48 183.3 39.48C183.506 39.48 183.674 39.5267 183.804 39.62C183.935 39.6947 184.038 39.816 184.112 39.984C184.187 40.152 184.224 40.3573 184.224 40.6V58.464C184.224 58.8373 184.131 59.1267 183.944 59.332C183.776 59.5187 183.524 59.612 183.188 59.612C182.834 59.612 182.563 59.5187 182.376 59.332C182.19 59.1267 182.096 58.8373 182.096 58.464V42.644H182.712L170.56 58.912C170.374 59.1547 170.206 59.332 170.056 59.444C169.907 59.556 169.683 59.612 169.384 59.612ZM176.328 38.136C175.208 38.136 174.2 37.884 173.304 37.38C172.408 36.876 171.727 36.1107 171.26 35.084C171.148 34.804 171.13 34.58 171.204 34.412C171.279 34.2253 171.419 34.0947 171.624 34.02C171.83 33.9453 172.016 33.9453 172.184 34.02C172.352 34.0947 172.492 34.2533 172.604 34.496C172.959 35.2053 173.444 35.7467 174.06 36.12C174.676 36.4933 175.432 36.68 176.328 36.68C177.243 36.68 177.999 36.4933 178.596 36.12C179.212 35.7467 179.698 35.2053 180.052 34.496C180.183 34.2533 180.323 34.0947 180.472 34.02C180.64 33.9453 180.827 33.9453 181.032 34.02C181.256 34.0947 181.396 34.2253 181.452 34.412C181.527 34.58 181.499 34.804 181.368 35.084C180.883 36.1107 180.192 36.876 179.296 37.38C178.4 37.884 177.411 38.136 176.328 38.136ZM196.098 59.612C195.78 59.612 195.519 59.528 195.314 59.36C195.127 59.192 195.015 58.9867 194.978 58.744C194.959 58.5013 195.052 58.2587 195.258 58.016L202.034 48.888V49.756L195.65 41.132C195.444 40.852 195.351 40.5907 195.37 40.348C195.388 40.1053 195.491 39.9 195.678 39.732C195.883 39.564 196.126 39.48 196.406 39.48C196.667 39.48 196.891 39.536 197.078 39.648C197.264 39.76 197.46 39.956 197.666 40.236L203.406 48.104H202.678L208.39 40.236C208.576 39.956 208.763 39.76 208.95 39.648C209.136 39.536 209.36 39.48 209.622 39.48C209.92 39.48 210.163 39.564 210.35 39.732C210.555 39.8813 210.667 40.0867 210.686 40.348C210.704 40.5907 210.611 40.852 210.406 41.132L204.022 49.756V48.888L210.798 58.016C210.984 58.2587 211.059 58.5013 211.022 58.744C211.003 58.9867 210.9 59.192 210.714 59.36C210.527 59.528 210.275 59.612 209.958 59.612C209.715 59.612 209.491 59.5467 209.286 59.416C209.099 59.304 208.903 59.1173 208.698 58.856L202.566 50.484H203.462L197.33 58.856C197.143 59.1173 196.947 59.304 196.742 59.416C196.536 59.5467 196.322 59.612 196.098 59.612ZM213.73 59.612C213.432 59.612 213.189 59.5467 213.002 59.416C212.834 59.2667 212.732 59.08 212.694 58.856C212.676 58.6133 212.732 58.3427 212.862 58.044L220.562 40.516C220.73 40.1427 220.926 39.8813 221.15 39.732C221.393 39.564 221.654 39.48 221.934 39.48C222.214 39.48 222.466 39.564 222.69 39.732C222.933 39.8813 223.129 40.1427 223.278 40.516L231.006 58.044C231.156 58.3427 231.212 58.6133 231.174 58.856C231.156 59.0987 231.062 59.2853 230.894 59.416C230.726 59.5467 230.493 59.612 230.194 59.612C229.858 59.612 229.588 59.528 229.382 59.36C229.177 59.1733 229.009 58.912 228.878 58.576L226.806 53.788L227.926 54.376H215.886L217.034 53.788L214.99 58.576C214.822 58.9307 214.645 59.192 214.458 59.36C214.272 59.528 214.029 59.612 213.73 59.612ZM221.906 42.364L217.398 52.976L216.726 52.444H227.086L226.47 52.976L221.962 42.364H221.906ZM235.809 59.416C235.398 59.416 235.081 59.3133 234.857 59.108C234.651 58.884 234.549 58.5667 234.549 58.156V40.936C234.549 40.5253 234.651 40.2173 234.857 40.012C235.081 39.788 235.398 39.676 235.809 39.676H246.645C246.962 39.676 247.205 39.76 247.373 39.928C247.559 40.096 247.653 40.3293 247.653 40.628C247.653 40.9453 247.559 41.188 247.373 41.356C247.205 41.524 246.962 41.608 246.645 41.608H236.789V48.384H242.781C244.853 48.384 246.458 48.8413 247.597 49.756C248.735 50.6707 249.305 52.0427 249.305 53.872C249.305 55.6827 248.735 57.064 247.597 58.016C246.458 58.9493 244.853 59.416 242.781 59.416H235.809ZM236.789 57.484H242.557C244.05 57.484 245.17 57.1947 245.917 56.616C246.663 56.0187 247.037 55.104 247.037 53.872C247.037 52.6587 246.663 51.7627 245.917 51.184C245.17 50.6053 244.05 50.316 242.557 50.316H236.789V57.484ZM259.328 64.008C258.992 64.008 258.731 63.9147 258.544 63.728C258.376 63.5413 258.292 63.2707 258.292 62.916V58.632C258.292 57.8667 258.675 57.484 259.44 57.484H261.26L259.888 57.876C260.971 56.6813 261.773 55.02 262.296 52.892C262.819 50.7453 263.08 48.0387 263.08 44.772V40.936C263.08 40.5253 263.183 40.2173 263.388 40.012C263.612 39.788 263.929 39.676 264.34 39.676H274.924C275.316 39.676 275.624 39.788 275.848 40.012C276.072 40.2173 276.184 40.5253 276.184 40.936V58.408L275.26 57.484H277.808C278.181 57.484 278.471 57.5867 278.676 57.792C278.881 57.9787 278.984 58.2587 278.984 58.632V62.916C278.984 63.644 278.639 64.008 277.948 64.008C277.593 64.008 277.323 63.9147 277.136 63.728C276.968 63.5413 276.884 63.2707 276.884 62.916V59.416H260.364V62.916C260.364 63.644 260.019 64.008 259.328 64.008ZM262.632 57.484H273.86V41.608H265.236V44.94C265.236 47.9453 265.021 50.456 264.592 52.472C264.181 54.488 263.528 56.1587 262.632 57.484ZM296.773 59.612C296.4 59.612 296.11 59.5093 295.905 59.304C295.7 59.08 295.597 58.7813 295.597 58.408V41.664H286.973V46.2C286.973 48.0853 286.861 49.7467 286.637 51.184C286.432 52.6027 286.114 53.844 285.685 54.908C285.274 55.9533 284.752 56.84 284.117 57.568C283.501 58.296 282.782 58.912 281.961 59.416C281.662 59.6213 281.373 59.696 281.093 59.64C280.813 59.584 280.58 59.4067 280.393 59.108C280.206 58.8093 280.15 58.5293 280.225 58.268C280.318 58.0067 280.514 57.7827 280.813 57.596C281.448 57.204 282.008 56.7093 282.493 56.112C282.997 55.5147 283.417 54.768 283.753 53.872C284.108 52.9573 284.378 51.828 284.565 50.484C284.752 49.14 284.845 47.516 284.845 45.612V40.936C284.845 40.5253 284.948 40.2173 285.153 40.012C285.377 39.788 285.694 39.676 286.105 39.676H296.661C297.053 39.676 297.361 39.788 297.585 40.012C297.809 40.2173 297.921 40.5253 297.921 40.936V58.408C297.921 58.7813 297.818 59.08 297.613 59.304C297.408 59.5093 297.128 59.612 296.773 59.612ZM315.539 59.612C315.165 59.612 314.876 59.5093 314.671 59.304C314.484 59.08 314.391 58.7813 314.391 58.408V51.072H311.087C310.489 51.072 309.967 51.128 309.519 51.24C309.089 51.352 308.697 51.5573 308.343 51.856C308.007 52.136 307.699 52.5467 307.419 53.088L304.283 58.884C304.133 59.164 303.937 59.36 303.695 59.472C303.452 59.584 303.219 59.6213 302.995 59.584C302.771 59.5467 302.575 59.4533 302.407 59.304C302.239 59.136 302.136 58.9307 302.099 58.688C302.061 58.4453 302.127 58.1653 302.295 57.848L304.927 52.976C305.356 52.1733 305.841 51.5853 306.383 51.212C306.943 50.82 307.587 50.624 308.315 50.624H309.043L308.875 50.988C306.803 50.988 305.188 50.4933 304.031 49.504C302.873 48.5147 302.295 47.1427 302.295 45.388C302.295 44.156 302.547 43.12 303.051 42.28C303.555 41.44 304.301 40.796 305.291 40.348C306.28 39.9 307.475 39.676 308.875 39.676H315.427C315.837 39.676 316.145 39.788 316.351 40.012C316.575 40.2173 316.687 40.5253 316.687 40.936V58.408C316.687 58.7813 316.584 59.08 316.379 59.304C316.192 59.5093 315.912 59.612 315.539 59.612ZM309.211 49.252H314.391V41.58H309.211C307.68 41.58 306.523 41.9067 305.739 42.56C304.955 43.1947 304.563 44.1373 304.563 45.388C304.563 46.676 304.955 47.6467 305.739 48.3C306.523 48.9347 307.68 49.252 309.211 49.252ZM327.851 64.008C327.515 64.008 327.254 63.9147 327.067 63.728C326.899 63.5413 326.815 63.2707 326.815 62.916V58.632C326.815 57.8667 327.198 57.484 327.963 57.484H329.783L328.411 57.876C329.494 56.6813 330.297 55.02 330.819 52.892C331.342 50.7453 331.603 48.0387 331.603 44.772V40.936C331.603 40.5253 331.706 40.2173 331.911 40.012C332.135 39.788 332.453 39.676 332.863 39.676H343.447C343.839 39.676 344.147 39.788 344.371 40.012C344.595 40.2173 344.707 40.5253 344.707 40.936V58.408L343.783 57.484H346.331C346.705 57.484 346.994 57.5867 347.199 57.792C347.405 57.9787 347.507 58.2587 347.507 58.632V62.916C347.507 63.644 347.162 64.008 346.471 64.008C346.117 64.008 345.846 63.9147 345.659 63.728C345.491 63.5413 345.407 63.2707 345.407 62.916V59.416H328.887V62.916C328.887 63.644 328.542 64.008 327.851 64.008ZM331.155 57.484H342.383V41.608H333.759V44.94C333.759 47.9453 333.545 50.456 333.115 52.472C332.705 54.488 332.051 56.1587 331.155 57.484ZM351.828 59.416C351.418 59.416 351.1 59.3133 350.876 59.108C350.671 58.884 350.568 58.5667 350.568 58.156V40.936C350.568 40.5253 350.671 40.2173 350.876 40.012C351.1 39.788 351.418 39.676 351.828 39.676H362.244C362.562 39.676 362.804 39.76 362.972 39.928C363.14 40.096 363.224 40.3293 363.224 40.628C363.224 40.9453 363.14 41.188 362.972 41.356C362.804 41.524 362.562 41.608 362.244 41.608H352.808V48.44H361.656C361.974 48.44 362.216 48.524 362.384 48.692C362.552 48.8413 362.636 49.0747 362.636 49.392C362.636 49.7093 362.552 49.952 362.384 50.12C362.216 50.288 361.974 50.372 361.656 50.372H352.808V57.484H362.244C362.562 57.484 362.804 57.568 362.972 57.736C363.14 57.904 363.224 58.1373 363.224 58.436C363.224 58.7533 363.14 58.996 362.972 59.164C362.804 59.332 362.562 59.416 362.244 59.416H351.828ZM372.529 59.612C372.174 59.612 371.894 59.5093 371.689 59.304C371.484 59.08 371.381 58.7813 371.381 58.408V41.664H365.081C364.745 41.664 364.484 41.5707 364.297 41.384C364.11 41.1973 364.017 40.9547 364.017 40.656C364.017 40.3387 364.11 40.096 364.297 39.928C364.484 39.76 364.745 39.676 365.081 39.676H380.005C380.341 39.676 380.602 39.76 380.789 39.928C380.976 40.096 381.069 40.3387 381.069 40.656C381.069 40.9733 380.976 41.2253 380.789 41.412C380.602 41.58 380.341 41.664 380.005 41.664H373.705V58.408C373.705 58.7813 373.602 59.08 373.397 59.304C373.21 59.5093 372.921 59.612 372.529 59.612ZM384.641 59.416C384.23 59.416 383.913 59.3133 383.689 59.108C383.483 58.884 383.381 58.5667 383.381 58.156V40.936C383.381 40.5253 383.483 40.2173 383.689 40.012C383.913 39.788 384.23 39.676 384.641 39.676H395.057C395.374 39.676 395.617 39.76 395.785 39.928C395.953 40.096 396.037 40.3293 396.037 40.628C396.037 40.9453 395.953 41.188 395.785 41.356C395.617 41.524 395.374 41.608 395.057 41.608H385.621V48.44H394.469C394.786 48.44 395.029 48.524 395.197 48.692C395.365 48.8413 395.449 49.0747 395.449 49.392C395.449 49.7093 395.365 49.952 395.197 50.12C395.029 50.288 394.786 50.372 394.469 50.372H385.621V57.484H395.057C395.374 57.484 395.617 57.568 395.785 57.736C395.953 57.904 396.037 58.1373 396.037 58.436C396.037 58.7533 395.953 58.996 395.785 59.164C395.617 59.332 395.374 59.416 395.057 59.416H384.641ZM400.685 59.612C400.536 59.612 400.396 59.584 400.265 59.528C400.153 59.4907 400.05 59.416 399.957 59.304C399.882 59.192 399.817 59.0707 399.761 58.94C399.724 58.7907 399.705 58.6133 399.705 58.408V40.6C399.705 40.2453 399.798 39.9747 399.985 39.788C400.172 39.5827 400.442 39.48 400.797 39.48C401.133 39.48 401.394 39.5827 401.581 39.788C401.768 39.9747 401.861 40.2453 401.861 40.6V56.448H401.245L413.397 40.18C413.565 39.9187 413.733 39.7413 413.901 39.648C414.088 39.536 414.321 39.48 414.601 39.48C414.806 39.48 414.974 39.5267 415.105 39.62C415.236 39.6947 415.338 39.816 415.413 39.984C415.488 40.152 415.525 40.3573 415.525 40.6V58.464C415.525 58.8373 415.432 59.1267 415.245 59.332C415.077 59.5187 414.825 59.612 414.489 59.612C414.134 59.612 413.864 59.5187 413.677 59.332C413.49 59.1267 413.397 58.8373 413.397 58.464V42.644H414.013L401.861 58.912C401.674 59.1547 401.506 59.332 401.357 59.444C401.208 59.556 400.984 59.612 400.685 59.612ZM407.629 38.136C406.509 38.136 405.501 37.884 404.605 37.38C403.709 36.876 403.028 36.1107 402.561 35.084C402.449 34.804 402.43 34.58 402.505 34.412C402.58 34.2253 402.72 34.0947 402.925 34.02C403.13 33.9453 403.317 33.9453 403.485 34.02C403.653 34.0947 403.793 34.2533 403.905 34.496C404.26 35.2053 404.745 35.7467 405.361 36.12C405.977 36.4933 406.733 36.68 407.629 36.68C408.544 36.68 409.3 36.4933 409.897 36.12C410.513 35.7467 410.998 35.2053 411.353 34.496C411.484 34.2533 411.624 34.0947 411.773 34.02C411.941 33.9453 412.128 33.9453 412.333 34.02C412.557 34.0947 412.697 34.2253 412.753 34.412C412.828 34.58 412.8 34.804 412.669 35.084C412.184 36.1107 411.493 36.876 410.597 37.38C409.701 37.884 408.712 38.136 407.629 38.136Z" fill="black"></path></svg> 