<?xml version="1.0" encoding="UTF-8"?> <svg xmlns="http://www.w3.org/2000/svg" viewBox="0 0 161.00 161.00" data-guides="{&quot;vertical&quot;:[],&quot;horizontal&quot;:[]}"><defs></defs><mask x="100.33349609375" y="78.0771484375" width="25.18212890625" height="18.98974609375" style="mask-type:luminance" maskUnits="userSpaceOnUse" maskContentUnits="userSpaceOnUse" id="tSvg10d21b5efc5"><path fill="white" stroke="none" fill-opacity="1" stroke-width="1" stroke-opacity="1" id="tSvgd11a445efa" title="Path 1" d="M106.9387 97.0669C113.131 94.1772 119.3233 91.2874 125.5156 88.3977C117.1216 84.9575 108.7276 81.5173 100.3335 78.0772C102.5353 84.4071 104.737 90.737 106.9387 97.0669Z"></path></mask><mask x="73.5" y="8.30859375" width="18.990234375" height="25.59521484375" style="mask-type:luminance" maskUnits="userSpaceOnUse" maskContentUnits="userSpaceOnUse" id="tSvg18131ab899d"><path fill="white" stroke="none" fill-opacity="1" stroke-width="1" stroke-opacity="1" id="tSvge3f48f75b0" title="Path 3" d="M73.5002 15.3268C76.2524 21.5191 79.0045 27.7114 81.7566 33.9037C85.3344 25.3721 88.9122 16.8404 92.49 8.3088C86.16 10.6482 79.8301 12.9875 73.5002 15.3268Z"></path></mask><mask x="73.5" y="45.05126953125" width="18.990234375" height="25.18212890625" style="mask-type:luminance" maskUnits="userSpaceOnUse" maskContentUnits="userSpaceOnUse" id="tSvgb46e1ef6cf"><path fill="white" stroke="none" fill-opacity="1" stroke-width="1" stroke-opacity="1" id="tSvg103a217250" title="Path 5" d="M73.5002 63.2156C79.8301 65.5549 86.16 67.8943 92.49 70.2336C88.9122 61.8395 85.3344 53.4455 81.7566 45.0515C79.0045 51.1062 76.2524 57.1609 73.5002 63.2156Z"></path></mask><mask x="52.03271484375" y="44.22509765625" width="19.40234375" height="47.47412109375" style="mask-type:luminance" maskUnits="userSpaceOnUse" maskContentUnits="userSpaceOnUse" id="tSvg16d1c572538"><path fill="white" stroke="none" fill-opacity="1" stroke-width="1" stroke-opacity="1" id="tSvgc654b9c302" title="Path 28" d="M56.5737 69.8199C61.5276 77.1131 66.4814 84.4062 71.4353 91.6994C70.1968 82.8926 68.9584 74.0857 67.7199 65.2789C62.4908 58.2609 57.2618 51.243 52.0327 44.225C53.5464 52.7567 55.0601 61.2883 56.5737 69.8199Z"></path></mask><path fill="white" stroke="none" fill-opacity="0.01" stroke-width="0" stroke-opacity="1" x="0.539795" y="0.547852" width="38.4292" height="38.4292" id="tSvg18b82e76e96" title="Rectangle 1" d="M2.2284 2.2616C55.1096 2.2616 107.9908 2.2616 160.872 2.2616C160.872 55.1428 160.872 108.0241 160.872 160.9053C107.9908 160.9053 55.1096 160.9053 2.2284 160.9053C2.2284 108.0241 2.2284 55.1428 2.2284 2.2616Z" style="transform-origin: -5338.45px -4792.42px;"></path><path fill="#ffffff" stroke="none" fill-opacity="1" stroke-width="1" stroke-opacity="1" mask="url(#tSvg10d21b5efc5)" id="tSvg7ced4e476d" title="Path 2" d="M105.2878 67.7566C114.5075 72.4353 123.7271 77.1139 132.9468 81.7925C128.8186 90.1866 124.6904 98.5806 120.5622 106.9746C111.2049 102.4336 101.8476 97.8925 92.4904 93.3515C96.7562 84.8199 101.022 76.2883 105.2878 67.7566Z"></path><path fill="#ffffff" stroke="none" fill-opacity="1" stroke-width="1" stroke-opacity="1" mask="url(#tSvg18131ab899d)" id="tSvg93308fd0e3" title="Path 4" d="M104.8742 22.3455C97.3058 29.3635 89.7374 36.3814 82.169 43.3994C75.0135 35.5558 67.8579 27.7122 60.7024 19.8686C68.4083 12.8506 76.1143 5.8327 83.8203 -1.1852C90.8383 6.6583 97.8562 14.5019 104.8742 22.3455Z"></path><path fill="#ffffff" stroke="none" fill-opacity="1" stroke-width="1" stroke-opacity="1" mask="url(#tSvgb46e1ef6cf)" id="tSvg4261969c5b" title="Path 6" d="M92.49 45.0515C86.16 45.0515 79.8301 45.0515 73.5002 45.0515C73.5002 53.4455 73.5002 61.8395 73.5002 70.2336C79.8301 70.2336 86.16 70.2336 92.49 70.2336C92.49 61.8395 92.49 53.4455 92.49 45.0515Z"></path><path fill="white" stroke="none" fill-opacity="1" stroke-width="1" stroke-opacity="1" id="tSvg1073af37395" title="Path 7" d="M8.2745 150.7311C8.4121 150.7311 8.5497 150.7311 8.6874 150.7311C9.9258 149.4926 10.3387 147.0157 11.1643 143.7131C12.8156 143.7131 14.4669 143.7131 16.1182 143.7131C16.1182 146.0525 16.1182 148.3918 16.1182 150.7311C16.531 150.7311 16.9438 150.7311 17.3566 150.7311C17.3566 152.1072 17.3566 153.4832 17.3566 154.8593C16.6686 154.8593 15.9806 154.8593 15.2925 154.8593C15.2925 154.0337 15.2925 153.208 15.2925 152.3824C13.6412 152.3824 11.9899 152.3824 10.3386 152.3824C10.3386 153.208 10.3386 154.0337 10.3386 154.8593C9.6506 154.8593 8.9626 154.8593 8.2745 154.8593C8.2745 153.4832 8.2745 152.1072 8.2745 150.7311ZM13.6412 145.7772C13.2284 145.7772 12.8156 145.7772 12.4027 145.7772C11.9899 147.8413 11.5771 149.9054 10.7515 151.1439C11.7147 151.1439 12.678 151.1439 13.6412 151.1439C13.6412 149.355 13.6412 147.5661 13.6412 145.7772Z"></path><path fill="white" stroke="none" fill-opacity="1" stroke-width="1" stroke-opacity="1" id="tSvg64b6efa740" title="Path 8" d="M23.5487 144.1284C25.2 144.1284 26.8513 144.1284 28.5026 144.1284C28.365 144.6789 28.2274 145.2293 28.0898 145.7797C27.2641 145.7797 26.4385 145.7797 25.6128 145.7797C25.6128 146.3301 25.6128 146.8806 25.6128 147.431C26.4385 147.431 27.2641 147.431 28.0898 147.431C28.0898 147.9814 28.0898 148.5319 28.0898 149.0823C27.2641 149.0823 26.4385 149.0823 25.6128 149.0823C25.6128 149.6327 25.6128 150.1831 25.6128 150.7336C26.5761 150.7336 27.5393 150.7336 28.5026 150.7336C28.5026 151.284 28.5026 151.8344 28.5026 152.3848C26.8513 152.3848 25.2 152.3848 23.5487 152.3848C23.5487 149.6327 23.5487 146.8806 23.5487 144.1284Z"></path><path fill="white" stroke="none" fill-opacity="1" stroke-width="1" stroke-opacity="1" id="tSvg179b1954d17" title="Path 9" d="M35.5201 144.1284C36.4834 144.1284 37.4466 144.1284 38.4099 144.1284C40.0611 144.1284 40.8868 145.3669 40.8868 146.1925C40.8868 147.0182 40.474 147.431 40.0611 147.8438C41.2994 148.2566 41.7122 149.0823 41.7122 149.9079C41.7122 151.1464 40.8868 152.3848 38.8227 152.3848C37.8594 152.3848 36.8962 152.3848 35.9329 152.3848C35.9329 149.6327 35.9329 146.8806 35.9329 144.1284C35.7953 144.1284 35.6577 144.1284 35.5201 144.1284ZM37.997 147.431C38.8227 147.431 39.2355 147.0182 39.2355 146.6054C39.2355 146.1925 38.8227 145.7797 37.997 145.7797C37.8594 145.7797 37.7218 145.7797 37.5842 145.7797C37.5842 146.3301 37.5842 146.8806 37.5842 147.431C37.7218 147.431 37.8594 147.431 37.997 147.431ZM38.4099 151.1464C39.2355 151.1464 39.6483 150.7336 39.6483 150.3207C39.6483 149.9079 39.2355 149.4951 38.4099 149.4951C38.1346 149.4951 37.8594 149.4951 37.5842 149.4951C37.5842 150.1831 37.5842 150.8712 37.5842 151.5592C37.8594 151.5592 38.1346 151.5592 38.4099 151.5592C38.4099 151.4216 38.4099 151.284 38.4099 151.1464Z"></path><path fill="white" stroke="none" fill-opacity="1" stroke-width="1" stroke-opacity="1" id="tSvg11c801b1788" title="Path 10" d="M48.3178 144.1284C49.969 144.1284 51.6203 144.1284 53.2716 144.1284C53.134 144.6789 52.9964 145.2293 52.8588 145.7797C52.0331 145.7797 51.2075 145.7797 50.3819 145.7797C50.3819 146.3301 50.3819 146.8806 50.3819 147.431C51.2075 147.431 52.0331 147.431 52.8588 147.431C52.8588 147.9814 52.8588 148.5319 52.8588 149.0823C52.0331 149.0823 51.2075 149.0823 50.3819 149.0823C50.3819 149.6327 50.3819 150.1831 50.3819 150.7336C51.3451 150.7336 52.3083 150.7336 53.2716 150.7336C53.2716 151.284 53.2716 151.8344 53.2716 152.3848C51.6203 152.3848 49.969 152.3848 48.3178 152.3848C48.3178 149.6327 48.3178 146.8806 48.3178 144.1284Z"></path><path fill="white" stroke="none" fill-opacity="1" stroke-width="1" stroke-opacity="1" id="tSvg16034cc82ea" title="Path 11" d="M59.4639 152.3848C59.4639 151.8344 59.4639 151.284 59.4639 150.7336C59.6015 150.7336 59.7391 150.7336 59.8767 150.7336C60.2895 150.7336 60.7024 150.7336 60.7024 150.3207C61.528 149.4951 61.9408 147.0182 62.3536 144.1284C64.0049 144.1284 65.6562 144.1284 67.3075 144.1284C67.3075 147.0182 67.3075 149.9079 67.3075 152.7977C66.6195 152.7977 65.9314 152.7977 65.2434 152.7977C65.2434 150.4584 65.2434 148.119 65.2434 145.7797C64.8306 145.7797 64.4178 145.7797 64.0049 145.7797C63.5921 148.6695 63.1793 150.7336 62.3536 151.972C61.9408 152.3848 61.1152 152.7977 60.2895 152.7977C59.8767 152.7977 59.8767 152.7977 59.4639 152.3848Z"></path><path fill="white" stroke="none" fill-opacity="1" stroke-width="1" stroke-opacity="1" id="tSvg119ba4ec99d" title="Path 12" d="M73.9126 148.2542C73.9126 145.7772 75.5639 143.7131 78.4536 143.7131C80.9306 143.7131 82.9947 145.3644 82.9947 148.2542C82.9947 150.7311 81.3434 152.7952 78.4536 152.7952C75.5639 152.7952 73.9126 150.7311 73.9126 148.2542ZM80.5178 148.2542C80.5178 146.6029 79.6921 145.3644 78.0408 145.3644C76.8024 145.3644 75.5639 146.1901 75.5639 148.2542C75.5639 149.9054 76.3895 151.1439 78.0408 151.1439C79.6921 151.1439 80.5178 150.3183 80.5178 148.2542Z"></path><path fill="white" stroke="none" fill-opacity="1" stroke-width="1" stroke-opacity="1" id="tSvg13f816cb220" title="Path 13" d="M89.5998 144.1284C91.9391 144.1284 94.2784 144.1284 96.6178 144.1284C96.6178 146.8806 96.6178 149.6327 96.6178 152.3848C96.0673 152.3848 95.5169 152.3848 94.9665 152.3848C94.9665 150.1831 94.9665 147.9814 94.9665 145.7797C93.8656 145.7797 92.7648 145.7797 91.6639 145.7797C91.6639 147.9814 91.6639 150.1831 91.6639 152.3848C90.9759 152.3848 90.2878 152.3848 89.5998 152.3848C89.5998 149.6327 89.5998 146.8806 89.5998 144.1284Z"></path><path fill="white" stroke="none" fill-opacity="1" stroke-width="1" stroke-opacity="1" id="tSvgacf4535ced" title="Path 14" d="M104.0485 144.126C104.5989 144.126 105.1494 144.126 105.6998 144.126C106.3878 145.0892 107.0759 146.0525 107.7639 147.0157C108.1767 147.4285 108.1767 147.8413 108.5895 147.8413C108.5895 147.4285 109.0024 147.0157 109.0024 146.6029C109.6904 145.6396 110.3784 144.6764 111.0665 143.7131C111.6169 143.7131 112.1673 143.7131 112.7178 143.7131C112.7178 146.6029 112.7178 149.4926 112.7178 152.3824C112.0297 152.3824 111.3417 152.3824 110.6536 152.3824C110.6536 150.8687 110.6536 149.355 110.6536 147.8413C110.6536 147.4285 110.6536 147.0157 110.6536 147.0157C110.516 147.2909 110.3784 147.5661 110.2408 147.8413C109.828 148.667 109.4152 149.4926 109.0024 150.3183C108.7272 150.3183 108.4519 150.3183 108.1767 150.3183C107.6263 149.6302 107.0759 148.9422 106.5254 148.2542C106.5254 147.8413 106.1126 147.8413 106.1126 147.4285C106.1126 147.8413 106.1126 147.8413 106.1126 148.2542C106.1126 149.7678 106.1126 151.2815 106.1126 152.7952C105.4246 152.7952 104.7366 152.7952 104.0485 152.7952C104.0485 149.9054 104.0485 147.0157 104.0485 144.126Z"></path><path fill="white" stroke="none" fill-opacity="1" stroke-width="1" stroke-opacity="1" id="tSvg788351203f" title="Path 15" d="M120.1481 144.1284C121.7994 144.1284 123.4507 144.1284 125.102 144.1284C124.9643 144.6789 124.8267 145.2293 124.6891 145.7797C123.7259 145.7797 122.7626 145.7797 121.7994 145.7797C121.7994 146.3301 121.7994 146.8806 121.7994 147.431C122.7626 147.431 123.7259 147.431 124.6891 147.431C124.6891 147.9814 124.6891 148.5319 124.6891 149.0823C123.7259 149.0823 122.7626 149.0823 121.7994 149.0823C121.7994 149.6327 121.7994 150.1831 121.7994 150.7336C122.9002 150.7336 124.0011 150.7336 125.102 150.7336C125.102 151.284 125.102 151.8344 125.102 152.3848C123.4507 152.3848 121.7994 152.3848 120.1481 152.3848C120.1481 149.6327 120.1481 146.8806 120.1481 144.1284Z"></path><path fill="white" stroke="none" fill-opacity="1" stroke-width="1" stroke-opacity="1" id="tSvg1454dd8d59d" title="Path 16" d="M132.1207 144.1284C132.6712 144.1284 133.2216 144.1284 133.772 144.1284C133.772 145.2293 133.772 146.3301 133.772 147.431C135.0105 147.431 136.2489 147.431 137.4874 147.431C137.4874 146.3301 137.4874 145.2293 137.4874 144.1284C138.1754 144.1284 138.8635 144.1284 139.5515 144.1284C139.5515 146.8806 139.5515 149.6327 139.5515 152.3848C138.8635 152.3848 138.1754 152.3848 137.4874 152.3848C137.4874 151.284 137.4874 150.1831 137.4874 149.0823C136.2489 149.0823 135.0105 149.0823 133.772 149.0823C133.772 150.1831 133.772 151.284 133.772 152.3848C133.2216 152.3848 132.6712 152.3848 132.1207 152.3848C132.1207 149.6327 132.1207 146.8806 132.1207 144.1284Z"></path><path fill="white" stroke="none" fill-opacity="1" stroke-width="1" stroke-opacity="1" id="tSvg17239c84871" title="Path 17" d="M148.2199 145.7797C147.3943 145.7797 146.5686 145.7797 145.743 145.7797C145.743 145.2293 145.743 144.6789 145.743 144.1284C148.2199 144.1284 150.6968 144.1284 153.1737 144.1284C152.8985 144.6789 152.6233 145.2293 152.3481 145.7797C151.6601 145.7797 150.972 145.7797 150.284 145.7797C150.284 147.9814 150.284 150.1831 150.284 152.3848C149.596 152.3848 148.9079 152.3848 148.2199 152.3848C148.2199 150.1831 148.2199 147.9814 148.2199 145.7797Z"></path><path fill="white" stroke="none" fill-opacity="1" stroke-width="1" stroke-opacity="1" id="tSvg2d65d5ff8d" title="Path 18" d="M7.8613 135.0464C11.0263 127.7532 14.1913 120.4601 17.3562 113.1669C19.2827 113.1669 21.2092 113.1669 23.1357 113.1669C26.1631 120.4601 29.1904 127.7532 32.2178 135.0464C30.2913 135.0464 28.3648 135.0464 26.4383 135.0464C25.7502 133.5327 25.0622 132.019 24.3742 130.5054C21.3468 130.5054 18.3195 130.5054 15.2921 130.5054C14.7417 132.019 14.1913 133.5327 13.6408 135.0464C11.7143 135.0464 9.7878 135.0464 7.8613 135.0464ZM17.3562 125.9643C19.1451 125.9643 20.934 125.9643 22.7229 125.9643C21.8972 123.9002 21.0716 121.8361 20.246 119.772C19.2827 121.8361 18.3195 123.9002 17.3562 125.9643Z"></path><path fill="white" stroke="none" fill-opacity="1" stroke-width="1" stroke-opacity="1" id="tSvga137e12a60" title="Path 19" d="M46.2536 129.2669C46.2536 131.1934 46.2536 133.1199 46.2536 135.0464C44.1896 135.0464 42.1256 135.0464 40.0615 135.0464C40.0615 127.7532 40.0615 120.4601 40.0615 113.1669C42.1256 113.1669 44.1896 113.1669 46.2536 113.1669C46.2536 116.3319 46.2536 119.4968 46.2536 122.6618C50.5195 119.4968 54.7853 116.3319 59.0511 113.1669C60.5648 114.2678 62.0784 115.3686 63.5921 116.4695C61.3904 118.1207 59.1887 119.772 56.987 121.4233C59.1887 125.9643 61.3904 130.5054 63.5921 135.0464C61.528 135.0464 59.4639 135.0464 57.3998 135.0464C55.7485 131.6062 54.0972 128.166 52.446 124.7259C50.3819 126.2395 48.3178 127.7532 46.2536 129.2669Z"></path><path fill="white" stroke="none" fill-opacity="1" stroke-width="1" stroke-opacity="1" id="tSvg11217186c33" title="Path 20" d="M72.2618 113.1669C79.4173 113.1669 86.5729 113.1669 93.7284 113.1669C94.0036 114.6806 94.2788 116.1943 94.5541 117.7079C91.6643 117.7079 88.7746 117.7079 85.8848 117.7079C85.8848 123.4874 85.8848 129.2669 85.8848 135.0464C83.9583 135.0464 82.0318 135.0464 80.1053 135.0464C80.1053 129.2669 80.1053 123.4874 80.1053 117.7079C77.766 117.7079 75.4267 117.7079 73.0874 117.7079C72.8122 116.1943 72.537 114.6806 72.2618 113.1669Z"></path><path fill="white" stroke="none" fill-opacity="1" stroke-width="1" stroke-opacity="1" id="tSvg1645d8a2001" title="Path 21" d="M119.7361 113.1669C119.7361 113.8549 119.7361 114.543 119.7361 115.231C116.2959 117.7079 112.8558 120.1848 109.4156 122.6618C109.4156 119.4968 109.4156 116.3319 109.4156 113.1669C107.3515 113.1669 105.2874 113.1669 103.2233 113.1669C103.2233 120.4601 103.2233 127.7532 103.2233 135.0464C105.2874 135.0464 107.3515 135.0464 109.4156 135.0464C109.4156 133.1199 109.4156 131.1934 109.4156 129.2669C112.8558 126.79 116.2959 124.3131 119.7361 121.8361C119.7361 126.2395 119.7361 130.643 119.7361 135.0464C121.6626 135.0464 123.5891 135.0464 125.5156 135.0464C125.5156 127.7532 125.5156 120.4601 125.5156 113.1669C123.5891 113.1669 121.6626 113.1669 119.7361 113.1669Z"></path><path fill="white" stroke="none" fill-opacity="1" stroke-width="1" stroke-opacity="1" id="tSvg8d7d3338a7" title="Path 22" d="M145.7434 135.0464C142.1656 135.0464 138.5878 135.0464 135.0101 135.0464C135.0101 127.7532 135.0101 120.4601 135.0101 113.1669C138.4502 113.1669 141.8904 113.1669 145.3306 113.1669C147.8075 113.1669 150.2844 113.5797 151.9357 114.8182C153.587 116.0566 154.4126 117.2951 154.4126 119.772C154.4126 120.5977 154.4126 121.4233 153.9998 121.8361C153.587 122.6618 153.1742 123.0746 152.3485 123.9002C153.1742 124.7259 153.9998 125.1387 154.4126 125.9643C154.8254 126.79 155.2383 127.6156 155.2383 128.8541C155.2383 131.331 154.4126 132.9823 152.7613 133.8079C150.6972 134.6336 148.6331 135.0464 145.7434 135.0464ZM144.9178 117.7079C143.5417 117.7079 142.1656 117.7079 140.7895 117.7079C140.7895 118.9464 140.7895 120.1848 140.7895 121.4233C142.1656 121.4233 143.5417 121.4233 144.9178 121.4233C145.7434 121.4233 146.569 121.4233 147.3947 121.0105C148.2203 120.5977 148.2203 120.1848 148.2203 119.772C148.2203 118.9464 147.8075 118.5336 147.3947 118.1207C146.9819 117.7079 146.1562 117.7079 144.9178 117.7079ZM146.1562 125.9643C144.5049 125.9643 142.8536 125.9643 141.2024 125.9643C141.2024 127.478 141.2024 128.9917 141.2024 130.5054C142.9913 130.5054 144.7801 130.5054 146.569 130.5054C147.3947 130.5054 148.2203 130.5054 148.6331 130.0925C149.046 129.6797 149.4588 129.2669 149.4588 128.4413C149.4588 127.6156 149.046 127.2028 148.6331 126.79C148.2203 126.3772 146.9819 125.9643 146.1562 125.9643Z"></path><path fill="white" stroke="none" fill-opacity="1" stroke-width="1" stroke-opacity="1" id="tSvg190ceea652e" title="Path 23" d="M72.6737 67.7566C73.3618 72.9857 74.0498 78.2148 74.7379 83.4438C82.1686 83.4438 89.5994 83.4438 97.0302 83.4438C96.0669 80.8293 95.1037 78.2148 94.1404 75.6002C86.9849 72.9857 79.8293 70.3712 72.6737 67.7566Z"></path><path fill="white" stroke="none" fill-opacity="1" stroke-width="1" stroke-opacity="1" id="tSvg22ee49bb2" title="Path 24" d="M52.0327 69.8207C47.9046 79.7284 43.7765 89.6361 39.6483 99.5438C46.6662 99.5438 53.6841 99.5438 60.702 99.5438C62.078 96.2413 63.4541 92.9387 64.8302 89.6361C60.702 83.5814 56.5737 77.5267 52.4455 71.472C52.3079 70.9216 52.1703 70.3712 52.0327 69.8207Z"></path><path fill="white" stroke="none" fill-opacity="1" stroke-width="1" stroke-opacity="1" id="tSvg113570411a0" title="Path 25" d="M126.3404 92.937C121.5242 95.1388 116.7079 97.3405 111.8917 99.5422C117.6712 99.5422 123.4507 99.5422 129.2302 99.5422C128.2669 97.3405 127.3037 95.1388 126.3404 92.937Z"></path><path fill="white" stroke="none" fill-opacity="1" stroke-width="1" stroke-opacity="1" id="tSvg57bb7fda9a" title="Path 26" d="M95.3789 18.6294C94.4156 18.6294 93.4524 18.6294 92.4891 18.6294C89.5994 25.5097 86.7096 32.39 83.8199 39.2704C88.3609 50.2789 92.902 61.2875 97.443 72.296C97.5806 72.296 97.7182 72.296 97.8558 72.296C105.837 75.5986 113.8182 78.9011 121.7994 82.2037C112.9926 61.0123 104.1857 39.8208 95.3789 18.6294Z"></path><path fill="white" stroke="none" fill-opacity="1" stroke-width="1" stroke-opacity="1" id="tSvg53b0634add" title="Path 27" d="M78.8661 39.2712C76.5267 34.0421 74.1874 28.813 71.8481 23.584C68.2703 31.978 64.6926 40.372 61.1148 48.7661C63.8669 52.6191 66.619 56.4721 69.3712 60.325C72.5361 53.3071 75.7011 46.2891 78.8661 39.2712Z"></path><path fill="#ffffff" stroke="none" fill-opacity="1" stroke-width="1" stroke-opacity="1" mask="url(#tSvg16d1c572538)" id="tSvgebe8daf378" title="Path 29" d="M68.9584 37.6215C75.2883 53.4463 81.6182 69.2711 87.9481 85.0959C76.802 89.4993 65.6558 93.9028 54.5096 98.3062C48.1798 82.4814 41.85 66.6566 35.5201 50.8318C46.6662 46.4284 57.8123 42.0249 68.9584 37.6215Z"></path></svg> 