<?xml version="1.0" encoding="UTF-8"?> <svg xmlns="http://www.w3.org/2000/svg" width="527" height="101" viewBox="0 0 527 101" fill="none"><rect x="2.25391" y="1.91602" width="523" height="97" rx="48.5" fill="#FFFBEF" stroke="#DBB391" stroke-width="3"></rect><circle cx="50.7534" cy="50.416" r="36.5" fill="#F6FDDF" stroke="black"></circle><path d="M78.3568 50.7995C78.174 50.4735 77.9287 50.1877 77.6353 49.9588C77.3419 49.73 77.0063 49.5626 76.6482 49.4666C74.5765 48.9343 72.4251 48.796 70.3035 49.0588C71.626 43.8196 70.8779 39.6937 70.1225 37.3402C69.9007 36.6367 69.4278 36.042 68.7959 35.6723C68.164 35.3026 67.4186 35.1844 66.7052 35.3407C64.0014 35.9569 61.4537 37.1349 59.2238 38.8002C57.7516 35.3408 55.4347 32.3166 52.4906 30.0112C51.9899 29.6251 51.3777 29.416 50.7482 29.416C50.1186 29.416 49.5064 29.6251 49.0057 30.0112C46.0616 32.3166 43.7447 35.3408 42.2725 38.8002C40.0425 37.1353 37.4948 35.9572 34.7911 35.3407C34.0777 35.1844 33.3323 35.3026 32.7004 35.6723C32.0686 36.042 31.5956 36.6367 31.3738 37.3402C30.6184 39.7035 29.8703 43.8294 31.1928 49.0588C29.0736 48.797 26.9247 48.9352 24.8554 49.4666C24.4972 49.5626 24.1616 49.73 23.8682 49.9588C23.5748 50.1877 23.3295 50.4735 23.1467 50.7995C22.9528 51.1364 22.8274 51.509 22.7776 51.8955C22.7279 52.282 22.7549 52.6747 22.8571 53.0505C23.639 55.9801 26.0427 61.5489 33.36 65.9703C40.6773 70.3916 47.244 70.416 50.7554 70.416C54.2668 70.416 60.7973 70.416 68.1484 65.9703C75.4994 61.5245 77.8694 55.9777 78.6513 53.0505C78.7527 52.6744 78.7789 52.2815 78.7284 51.895C78.6778 51.5085 78.5515 51.136 78.3568 50.7995ZM67.1179 37.2401C67.3655 37.1882 67.6233 37.2319 67.8408 37.3624C68.0582 37.4929 68.2196 37.701 68.2932 37.9457C69.2585 40.9974 70.2239 47.3084 65.694 55.2795C63.1721 59.7203 59.6341 63.1407 56.4967 65.3965C58.9608 62.1153 61.3741 57.047 61.3741 49.7107C61.3995 46.6409 60.9199 43.5882 59.9551 40.6776C62.0635 39.0125 64.5093 37.8387 67.1179 37.2401ZM33.2176 37.9457C33.2931 37.7029 33.4554 37.4974 33.6727 37.3692C33.8901 37.2409 34.1468 37.1993 34.3929 37.2523C37.0005 37.8473 39.4462 39.0168 41.5557 40.6776C40.5909 43.5882 40.1113 46.6409 40.1367 49.7107C40.1367 57.047 42.55 62.1178 45.014 65.3917C41.8767 63.1358 38.3387 59.7155 35.8168 55.2746C31.2845 47.2962 32.2426 40.9852 33.2176 37.9457ZM34.3567 64.3126C27.6235 60.2428 25.4273 55.2013 24.7274 52.5573C24.6918 52.4298 24.6822 52.2963 24.6993 52.165C24.7163 52.0336 24.7595 51.9071 24.8264 51.7932C24.8828 51.6902 24.9591 51.5998 25.0507 51.5273C25.1423 51.4547 25.2474 51.4015 25.3597 51.3708C27.4696 50.8351 29.667 50.7519 31.8106 51.1267C32.4276 52.9056 33.2081 54.6221 34.1419 56.2536C37.3468 61.8932 42.0239 65.9385 45.7911 68.2432C41.7416 67.7826 37.8397 66.4355 34.3567 64.2955V64.3126ZM50.7675 68.3018C49.1946 67.1938 47.8036 65.8427 46.6455 64.2979C43.6046 60.3038 42.0673 55.4015 42.0673 49.7107C42.0673 38.9076 47.7363 33.4145 50.1738 31.5566C50.3413 31.4287 50.5455 31.3595 50.7554 31.3595C50.9653 31.3595 51.1695 31.4287 51.337 31.5566C53.7745 33.4145 59.4434 38.9076 59.4434 49.7107C59.4434 55.4015 57.9061 60.3038 54.8774 64.2808C53.7192 65.8257 52.3282 67.1768 50.7554 68.2847L50.7675 68.3018ZM76.7954 52.5573C76.0907 55.2013 73.8994 60.2428 67.1662 64.3126C63.6828 66.4509 59.7809 67.7963 55.7317 68.2554C59.499 65.9507 64.1784 61.9078 67.3809 56.2658C68.3148 54.6343 69.0953 52.9178 69.7122 51.1389C71.8557 50.763 74.0534 50.8462 76.1631 51.383C76.2754 51.4137 76.3805 51.4669 76.4722 51.5395C76.5638 51.612 76.6401 51.7024 76.6965 51.8054C76.8196 52.0293 76.8508 52.2932 76.7833 52.5402L76.7954 52.5573Z" fill="#5C5C5C"></path><path d="M50.7675 68.3018C49.1946 67.1938 47.8036 65.8427 46.6455 64.2979C43.6046 60.3038 42.0673 55.4015 42.0673 49.7107C42.0673 38.9076 47.7363 33.4145 50.1738 31.5566C50.3413 31.4287 50.5455 31.3595 50.7554 31.3595C50.9653 31.3595 51.1695 31.4287 51.337 31.5566C53.7745 33.4145 59.4434 38.9076 59.4434 49.7107C59.4434 55.4015 57.9061 60.3038 54.8774 64.2808C53.7192 65.8257 52.3282 67.1768 50.7554 68.2847L50.7675 68.3018Z" fill="#F6FDDF"></path><path d="M67.1179 37.2401C67.3655 37.1882 67.6233 37.2319 67.8408 37.3624C68.0582 37.4929 68.2196 37.701 68.2932 37.9457C69.2585 40.9974 70.2239 47.3084 65.694 55.2795C63.1721 59.7203 59.6341 63.1407 56.4967 65.3965C58.9608 62.1153 61.3741 57.047 61.3741 49.7107C61.3995 46.6409 60.9199 43.5882 59.9551 40.6776C62.0635 39.0125 64.5093 37.8387 67.1179 37.2401Z" fill="#F6FDDF"></path><path d="M76.7954 52.5573C76.0907 55.2013 73.8994 60.2428 67.1662 64.3126C63.6828 66.4509 59.7809 67.7963 55.7317 68.2554C59.499 65.9507 64.1784 61.9078 67.3809 56.2658C68.3148 54.6343 69.0953 52.9178 69.7122 51.1389C71.8557 50.763 74.0534 50.8462 76.1631 51.383C76.2754 51.4137 76.3805 51.4669 76.4722 51.5395C76.5638 51.612 76.6401 51.7024 76.6965 51.8054C76.8196 52.0293 76.8508 52.2932 76.7833 52.5402L76.7954 52.5573Z" fill="#F6FDDF"></path><path d="M33.2176 37.9457C33.2931 37.7029 33.4554 37.4974 33.6727 37.3692C33.8901 37.2409 34.1468 37.1993 34.3929 37.2523C37.0005 37.8473 39.4462 39.0168 41.5557 40.6776C40.5909 43.5882 40.1113 46.6409 40.1367 49.7107C40.1367 57.047 42.55 62.1178 45.014 65.3917C41.8767 63.1358 38.3387 59.7155 35.8168 55.2746C31.2845 47.2962 32.2426 40.9852 33.2176 37.9457Z" fill="#F6FDDF"></path><path d="M34.3567 64.3126C27.6235 60.2428 25.4273 55.2013 24.7274 52.5573C24.6918 52.4298 24.6822 52.2963 24.6993 52.165C24.7163 52.0336 24.7595 51.9071 24.8264 51.7932C24.8828 51.6902 24.9591 51.5998 25.0507 51.5273C25.1423 51.4547 25.2474 51.4015 25.3597 51.3708C27.4696 50.8351 29.667 50.7519 31.8106 51.1267C32.4276 52.9056 33.2081 54.6221 34.1419 56.2536C37.3468 61.8932 42.0239 65.9385 45.7911 68.2432C41.7416 67.7826 37.8397 66.4355 34.3567 64.2955V64.3126Z" fill="#F6FDDF"></path><path d="M111.337 59.612C110.964 59.612 110.675 59.5093 110.469 59.304C110.283 59.08 110.189 58.7813 110.189 58.408V40.852C110.189 40.46 110.292 40.1707 110.497 39.984C110.703 39.7787 110.992 39.676 111.365 39.676H118.001C120.111 39.676 121.735 40.1987 122.873 41.244C124.012 42.2707 124.581 43.7267 124.581 45.612C124.581 47.4787 124.012 48.9347 122.873 49.98C121.735 51.0253 120.111 51.548 118.001 51.548H112.485V58.408C112.485 58.7813 112.392 59.08 112.205 59.304C112.019 59.5093 111.729 59.612 111.337 59.612ZM112.485 49.616H117.721C119.233 49.616 120.372 49.28 121.137 48.608C121.921 47.9173 122.313 46.9187 122.313 45.612C122.313 44.2867 121.921 43.288 121.137 42.616C120.372 41.9253 119.233 41.58 117.721 41.58H112.485V49.616ZM129.168 59.416C128.758 59.416 128.44 59.3133 128.216 59.108C128.011 58.884 127.908 58.5667 127.908 58.156V40.936C127.908 40.5253 128.011 40.2173 128.216 40.012C128.44 39.788 128.758 39.676 129.168 39.676H139.584C139.902 39.676 140.144 39.76 140.312 39.928C140.48 40.096 140.564 40.3293 140.564 40.628C140.564 40.9453 140.48 41.188 140.312 41.356C140.144 41.524 139.902 41.608 139.584 41.608H130.148V48.44H138.996C139.314 48.44 139.556 48.524 139.724 48.692C139.892 48.8413 139.976 49.0747 139.976 49.392C139.976 49.7093 139.892 49.952 139.724 50.12C139.556 50.288 139.314 50.372 138.996 50.372H130.148V57.484H139.584C139.902 57.484 140.144 57.568 140.312 57.736C140.48 57.904 140.564 58.1373 140.564 58.436C140.564 58.7533 140.48 58.996 140.312 59.164C140.144 59.332 139.902 59.416 139.584 59.416H129.168ZM149.869 59.612C149.514 59.612 149.234 59.5093 149.029 59.304C148.824 59.08 148.721 58.7813 148.721 58.408V41.664H142.421C142.085 41.664 141.824 41.5707 141.637 41.384C141.45 41.1973 141.357 40.9547 141.357 40.656C141.357 40.3387 141.45 40.096 141.637 39.928C141.824 39.76 142.085 39.676 142.421 39.676H157.345C157.681 39.676 157.942 39.76 158.129 39.928C158.316 40.096 158.409 40.3387 158.409 40.656C158.409 40.9733 158.316 41.2253 158.129 41.412C157.942 41.58 157.681 41.664 157.345 41.664H151.045V58.408C151.045 58.7813 150.942 59.08 150.737 59.304C150.55 59.5093 150.261 59.612 149.869 59.612ZM161.869 59.612C161.495 59.612 161.206 59.5093 161.001 59.304C160.814 59.08 160.721 58.7813 160.721 58.408V40.852C160.721 40.46 160.823 40.1707 161.029 39.984C161.234 39.7787 161.523 39.676 161.897 39.676H168.533C170.642 39.676 172.266 40.1987 173.405 41.244C174.543 42.2707 175.113 43.7267 175.113 45.612C175.113 47.4787 174.543 48.9347 173.405 49.98C172.266 51.0253 170.642 51.548 168.533 51.548H163.017V58.408C163.017 58.7813 162.923 59.08 162.737 59.304C162.55 59.5093 162.261 59.612 161.869 59.612ZM163.017 49.616H168.253C169.765 49.616 170.903 49.28 171.669 48.608C172.453 47.9173 172.845 46.9187 172.845 45.612C172.845 44.2867 172.453 43.288 171.669 42.616C170.903 41.9253 169.765 41.58 168.253 41.58H163.017V49.616ZM179.419 59.612C179.27 59.612 179.13 59.584 178.999 59.528C178.887 59.4907 178.785 59.416 178.691 59.304C178.617 59.192 178.551 59.0707 178.495 58.94C178.458 58.7907 178.439 58.6133 178.439 58.408V40.6C178.439 40.2453 178.533 39.9747 178.719 39.788C178.906 39.5827 179.177 39.48 179.531 39.48C179.867 39.48 180.129 39.5827 180.315 39.788C180.502 39.9747 180.595 40.2453 180.595 40.6V56.448H179.979L192.131 40.18C192.299 39.9187 192.467 39.7413 192.635 39.648C192.822 39.536 193.055 39.48 193.335 39.48C193.541 39.48 193.709 39.5267 193.839 39.62C193.97 39.6947 194.073 39.816 194.147 39.984C194.222 40.152 194.259 40.3573 194.259 40.6V58.464C194.259 58.8373 194.166 59.1267 193.979 59.332C193.811 59.5187 193.559 59.612 193.223 59.612C192.869 59.612 192.598 59.5187 192.411 59.332C192.225 59.1267 192.131 58.8373 192.131 58.464V42.644H192.747L180.595 58.912C180.409 59.1547 180.241 59.332 180.091 59.444C179.942 59.556 179.718 59.612 179.419 59.612ZM205.158 59.612C204.803 59.612 204.523 59.5093 204.318 59.304C204.113 59.08 204.01 58.7813 204.01 58.408V41.664H197.71C197.374 41.664 197.113 41.5707 196.926 41.384C196.739 41.1973 196.646 40.9547 196.646 40.656C196.646 40.3387 196.739 40.096 196.926 39.928C197.113 39.76 197.374 39.676 197.71 39.676H212.634C212.97 39.676 213.231 39.76 213.418 39.928C213.605 40.096 213.698 40.3387 213.698 40.656C213.698 40.9733 213.605 41.2253 213.418 41.412C213.231 41.58 212.97 41.664 212.634 41.664H206.334V58.408C206.334 58.7813 206.231 59.08 206.026 59.304C205.839 59.5093 205.55 59.612 205.158 59.612ZM241.288 64.036C240.934 64.036 240.663 63.9427 240.476 63.756C240.308 63.5693 240.224 63.2987 240.224 62.944V59.416H224.488C224.078 59.416 223.76 59.3133 223.536 59.108C223.331 58.884 223.228 58.5667 223.228 58.156V40.684C223.228 40.292 223.322 39.9933 223.508 39.788C223.714 39.5827 224.003 39.48 224.376 39.48C224.75 39.48 225.03 39.5827 225.216 39.788C225.422 39.9933 225.524 40.292 225.524 40.684V57.428H237.2V40.684C237.2 40.292 237.303 39.9933 237.508 39.788C237.714 39.5827 238.003 39.48 238.376 39.48C238.731 39.48 239.011 39.5827 239.216 39.788C239.422 39.9933 239.524 40.292 239.524 40.684V58.464L238.46 57.428H241.148C241.522 57.428 241.811 57.5307 242.016 57.736C242.222 57.9413 242.324 58.2213 242.324 58.576V62.944C242.324 63.672 241.979 64.036 241.288 64.036ZM246.637 59.416C246.226 59.416 245.909 59.3133 245.685 59.108C245.48 58.884 245.377 58.5667 245.377 58.156V40.936C245.377 40.5253 245.48 40.2173 245.685 40.012C245.909 39.788 246.226 39.676 246.637 39.676H257.053C257.37 39.676 257.613 39.76 257.781 39.928C257.949 40.096 258.033 40.3293 258.033 40.628C258.033 40.9453 257.949 41.188 257.781 41.356C257.613 41.524 257.37 41.608 257.053 41.608H247.617V48.44H256.465C256.782 48.44 257.025 48.524 257.193 48.692C257.361 48.8413 257.445 49.0747 257.445 49.392C257.445 49.7093 257.361 49.952 257.193 50.12C257.025 50.288 256.782 50.372 256.465 50.372H247.617V57.484H257.053C257.37 57.484 257.613 57.568 257.781 57.736C257.949 57.904 258.033 58.1373 258.033 58.436C258.033 58.7533 257.949 58.996 257.781 59.164C257.613 59.332 257.37 59.416 257.053 59.416H246.637ZM262.849 59.612C262.476 59.612 262.186 59.5093 261.981 59.304C261.794 59.08 261.701 58.7813 261.701 58.408V40.684C261.701 40.292 261.794 39.9933 261.981 39.788C262.186 39.5827 262.476 39.48 262.849 39.48C263.222 39.48 263.502 39.5827 263.689 39.788C263.894 39.9933 263.997 40.292 263.997 40.684V48.412H275.841V40.684C275.841 40.292 275.934 39.9933 276.121 39.788C276.326 39.5827 276.616 39.48 276.989 39.48C277.362 39.48 277.642 39.5827 277.829 39.788C278.034 39.9933 278.137 40.292 278.137 40.684V58.408C278.137 58.7813 278.034 59.08 277.829 59.304C277.642 59.5093 277.362 59.612 276.989 59.612C276.616 59.612 276.326 59.5093 276.121 59.304C275.934 59.08 275.841 58.7813 275.841 58.408V50.4H263.997V58.408C263.997 58.7813 263.904 59.08 263.717 59.304C263.53 59.5093 263.241 59.612 262.849 59.612ZM288.994 59.612C288.639 59.612 288.359 59.5093 288.154 59.304C287.949 59.08 287.846 58.7813 287.846 58.408V41.664H281.546C281.21 41.664 280.949 41.5707 280.762 41.384C280.575 41.1973 280.482 40.9547 280.482 40.656C280.482 40.3387 280.575 40.096 280.762 39.928C280.949 39.76 281.21 39.676 281.546 39.676H296.47C296.806 39.676 297.067 39.76 297.254 39.928C297.441 40.096 297.534 40.3387 297.534 40.656C297.534 40.9733 297.441 41.2253 297.254 41.412C297.067 41.58 296.806 41.664 296.47 41.664H290.17V58.408C290.17 58.7813 290.067 59.08 289.862 59.304C289.675 59.5093 289.386 59.612 288.994 59.612ZM300.994 59.612C300.62 59.612 300.331 59.5093 300.126 59.304C299.939 59.08 299.846 58.7813 299.846 58.408V40.852C299.846 40.46 299.948 40.1707 300.154 39.984C300.359 39.7787 300.648 39.676 301.022 39.676H307.658C309.767 39.676 311.391 40.1987 312.53 41.244C313.668 42.2707 314.238 43.7267 314.238 45.612C314.238 47.4787 313.668 48.9347 312.53 49.98C311.391 51.0253 309.767 51.548 307.658 51.548H302.142V58.408C302.142 58.7813 302.048 59.08 301.862 59.304C301.675 59.5093 301.386 59.612 300.994 59.612ZM302.142 49.616H307.378C308.89 49.616 310.028 49.28 310.794 48.608C311.578 47.9173 311.97 46.9187 311.97 45.612C311.97 44.2867 311.578 43.288 310.794 42.616C310.028 41.9253 308.89 41.58 307.378 41.58H302.142V49.616Z" fill="black"></path></svg> 