<?xml version="1.0" encoding="UTF-8"?> <svg xmlns="http://www.w3.org/2000/svg" xmlns:xlink="http://www.w3.org/1999/xlink" xmlns:svgjs="http://svgjs.dev/svgjs" id="line_copy" viewBox="0 0 64 64" data-name="line copy" width="300" height="300" version="1.1"><g width="100%" height="100%" transform="matrix(1,0,0,1,0,0)"><linearGradient id="linear-gradient" gradientUnits="userSpaceOnUse" x1="4" x2="60" y1="32" y2="32"><stop stop-opacity="1" stop-color="#9c4399" offset="0.02"></stop><stop stop-opacity="1" stop-color="#93c1cc" offset="1"></stop></linearGradient><path d="m17.00025 34a12.99984 12.99984 0 1 0 12.99983 12.99981 13.01488 13.01488 0 0 0 -12.99983-12.99981zm0 23.99969a10.99986 10.99986 0 1 1 10.99986-10.99988 11.0123 11.0123 0 0 1 -10.99986 10.99985zm4.59564-16.46853-7.496 11.99784a.99984.99984 0 0 1 -1.69529-1.06053l7.496-11.9979a.99984.99984 0 1 1 1.69529 1.06054zm-5.98137 1.37884c0-1.83494-1.18748-3.27145-2.70309-3.27145-1.51658 0-2.70406 1.43651-2.70406 3.27145s1.18748 3.27241 2.70406 3.27241c1.51557.00002 2.70309-1.43741 2.70309-3.27241zm-3.40718 0c0-.77636.417-1.27147.70409-1.27147s.70312.49511.70312 1.27147-.416 1.27244-.70312 1.27244-.70409-.49607-.70409-1.27244zm8.88172 4.90716c-1.5156 0-2.70309 1.4365-2.70309 3.27144s1.18749 3.2724 2.70309 3.2724c1.51658 0 2.70407-1.43748 2.70407-3.27242s-1.18749-3.2714-2.70407-3.2714zm0 4.54388c-.2871 0-.70311-.49608-.70311-1.27244s.416-1.27147.70311-1.27147.70409.49511.70409 1.27147-.41698 1.27246-.70409 1.27246zm38.27194-35.29346-10.37093-4.01458v-7.05266h.50487a1 1 0 1 0 0-2h-8.99988a1 1 0 0 0 0 2h.50488v3.95972l-12.63851-4.89233a1.00771 1.00771 0 0 0 -.82421.0459l-22.9997 11.99984a1 1 0 0 0 .46288 1.8867h53.9993a1 1 0 0 0 .36133-1.93259zm-16.36109-6.41691v-4.65033h3.99018v6.27848l-4.0058-1.55064c.00219-.02698.01562-.04999.01562-.07751zm-33.92143 6.34952 18.98315-9.90419 19.53191 7.56105.01813.007 6.03459 2.33609zm45.92128 3.99995a.99941.99941 0 0 0 -1 1v20.99972h-6.00968v-15.9998a.99941.99941 0 0 0 -1-1h-11.99008a.99941.99941 0 0 0 -1 1v15.9998h-1.29a1 1 0 1 0 0 2h22.28976a.99941.99941 0 0 0 1-1v-21.99973a.99941.99941 0 0 0 -1-.99999zm-18.99976 6.99991h9.99011v14.99981h-9.99011zm-26.99965 6.15031a.99941.99941 0 0 1 -1-1v-11.15023a1 1 0 0 1 2 0v11.15025a.99941.99941 0 0 1 -1 .99998zm5.99992-2.02048a.99941.99941 0 0 1 -1-1v-9.12975a1 1 0 1 1 2 0v9.12976a.99941.99941 0 0 1 -1 .99999zm5.99993.37012a.99941.99941 0 0 1 -1-1v-9.49987a1 1 0 1 1 2 0v9.49987a.99941.99941 0 0 1 -1 1zm4.99993 2.02049v-12.52036a1 1 0 0 1 2 0v12.52035a1 1 0 0 1 -2 0z" fill="url(#linear-gradient)" data-original-color="linear-gradient" stroke="none" stroke-opacity="1"></path></g></svg> 