<?xml version="1.0" encoding="UTF-8"?> <svg xmlns="http://www.w3.org/2000/svg" xmlns:xlink="http://www.w3.org/1999/xlink" version="1.1" id="Layer_1" x="0px" y="0px" width="24px" height="24px" viewBox="0 0 24 24" style="enable-background:new 0 0 24 24;" xml:space="preserve"> <style type="text/css"> .st0{fill:url(#SVGID_1_);} </style> <linearGradient id="SVGID_1_" gradientUnits="userSpaceOnUse" x1="0" y1="12" x2="24" y2="12"> <stop offset="0" style="stop-color:#9C4399"></stop> <stop offset="1" style="stop-color:#9AC2CF"></stop> </linearGradient> <path class="st0" d="M14.4,10.5v3c0,0.5-0.4,0.9-0.9,0.9s-0.9-0.4-0.9-0.9v-3c0-0.5,0.4-0.9,0.9-0.9S14.4,10,14.4,10.5z M23.5,8.7 c0.3,1,0.5,2.1,0.5,3.3c0,0.7-0.1,1.4-0.2,2.1c-0.2-0.4-0.6-0.6-1.1-0.6c-0.7,0-1.2,0.6-1.2,1.2s0.6,1.2,1.2,1.2 c0.2,0,0.4-0.1,0.6-0.2C21.8,20.6,17.3,24,12,24C5.4,24,0,18.6,0,12S5.4,0,12,0c5.2,0,9.7,3.3,11.3,8h-1.2l-5.2,8h1.9L23.5,8.7 L23.5,8.7z M17,9.2c0,0.7,0.6,1.2,1.2,1.2s1.2-0.6,1.2-1.2S18.9,8,18.2,8S17,8.6,17,9.2z M4,8H2.8l-2.4,2.5l1.1,1.1l0.9-0.9V16H4V8z M10,10.5C10,9.1,8.9,8,7.5,8S5,9.1,5,10.5v3C5,14.9,6.1,16,7.5,16s2.5-1.1,2.5-2.5V10.5z M16,10.5C16,9.1,14.9,8,13.5,8 S11,9.1,11,10.5v3c0,1.4,1.1,2.5,2.5,2.5s2.5-1.1,2.5-2.5V10.5z M7.5,9.6C7,9.6,6.6,10,6.6,10.5v3c0,0.5,0.4,0.9,0.9,0.9 s0.9-0.4,0.9-0.9v-3C8.4,10,8,9.6,7.5,9.6z"></path> </svg> 