<?xml version="1.0" encoding="UTF-8"?> <svg xmlns="http://www.w3.org/2000/svg" width="512" height="512" viewBox="0 0 512 512" fill="none"><path fill-rule="evenodd" clip-rule="evenodd" d="M256 16C388.5 16 496 123.5 496 256C496 388.5 388.5 496 256 496C123.5 496 16 388.5 16 256C16 123.5 123.5 16 256 16ZM225.2 218.6C220.6 218.6 216.8 222.4 216.8 227C216.8 231.6 220.6 235.4 225.2 235.4C229.8 235.4 233.6 231.6 233.6 227C233.6 222.3 229.8 218.6 225.2 218.6ZM275.5 210.2L223.7 286.8C221.5 290 222.4 294.3 225.6 296.5C228.8 298.7 233.1 297.8 235.3 294.6L287.1 218C289.3 214.8 288.4 210.5 285.2 208.3C282 206.1 277.7 207 275.5 210.2ZM285.8 270.4C281.2 270.4 277.4 274.2 277.4 278.8C277.4 283.4 281.2 287.2 285.8 287.2C290.4 287.2 294.2 283.4 294.2 278.8C294.2 274.2 290.4 270.4 285.8 270.4ZM285.8 256.5C273.5 256.5 263.5 266.5 263.5 278.8C263.5 291.1 273.5 301.1 285.8 301.1C298.1 301.1 308.1 291.1 308.1 278.8C308.1 266.5 298.1 256.5 285.8 256.5ZM225.2 204.6C212.9 204.6 202.9 214.6 202.9 226.9C202.9 239.2 212.9 249.2 225.2 249.2C237.5 249.2 247.5 239.2 247.5 226.9C247.5 214.6 237.5 204.6 225.2 204.6ZM395.4 338.5V127.9C395.4 123.1 391.5 119.2 386.7 119.2H203.3C198.5 119.2 194.6 123.1 194.6 127.9V144.7H347.3C359.8 144.7 369.9 154.9 369.9 167.3V346.4C369.9 360.3 365.1 373.5 356.7 384C378.6 380.5 395.4 361.4 395.4 338.5ZM274.1 392.8C263.4 382.9 257.3 369 257.3 354.3C257.3 352.5 257.4 350.7 257.6 349H122.4C120.8 349 119.4 349.6 118.2 350.8C117.1 352 116.5 353.4 116.6 355.1C117.2 369.3 134.2 392.9 155.1 392.9L274.1 392.8ZM335.7 384.7C347.9 376.4 355.9 362.4 355.9 346.5V167.4C355.9 162.6 352 158.7 347.2 158.7H163.8C159 158.7 155.1 162.6 155.1 167.4V335H267.4C269.3 335 271 335.8 272.1 337.4C273.2 338.9 273.5 340.8 272.9 342.6C271.7 346.3 271.1 350.2 271.1 354.3C271.1 366.7 276.9 377.7 286 384.7C292.5 389.7 300.7 392.7 309.6 392.7C319.3 392.8 328.3 389.8 335.7 384.7Z" fill="url(#paint0_linear_818_157)"></path><defs><linearGradient id="paint0_linear_818_157" x1="16" y1="256" x2="496" y2="256" gradientUnits="userSpaceOnUse"><stop stop-color="#9C4399"></stop><stop offset="1" stop-color="#9AC2CF"></stop></linearGradient></defs></svg> 