<?xml version="1.0" encoding="UTF-8"?> <svg xmlns="http://www.w3.org/2000/svg" width="75" height="75" viewBox="0 0 75 75" fill="none"><circle cx="37.3125" cy="37.416" r="36.5" fill="#F6FDDF" stroke="black"></circle><path d="M27.0745 72.416C27.2071 71.5527 27.492 62.6602 27.5715 61.9971C27.6709 61.1683 28.3667 61.2719 28.4661 61.2719C28.7047 60.2773 28.698 56.9896 28.6649 55.4701C27.6312 52.8178 27.0414 48.425 26.8758 46.5602C26.0011 44.9025 25.5173 42.7614 25.3848 41.898C23.9932 44.3845 19.0233 45.8349 17.5324 45.4205C15.1468 46.353 11.8667 46.4566 11.8667 45.8349C11.8667 45.2133 11.4691 43.5557 10.7733 39.7223C10.2167 36.6557 10.6739 32.0211 10.9721 30.0872C10.4328 29.4589 9.71266 28.4442 9.25688 27.3935M32.3426 27.3935V28.0151C32.3426 28.9268 33.0715 28.8785 33.436 28.7403C33.5354 29.2929 33.7541 30.8331 33.8336 32.5737C33.933 34.7494 31.8456 33.9205 28.8637 32.9881C26.4782 32.2421 23.0324 35.0947 21.6077 36.6142C19.5402 36.2827 17.433 37.9265 16.6378 38.7899C16.5583 37.7124 15.4782 36.1998 14.948 35.5782C14.8818 33.886 14.7294 30.3773 14.6498 29.88C14.5981 29.5566 15.1383 28.504 15.5985 27.3935M32.3426 27.3935H15.5985M32.3426 27.3935C32.1605 26.5077 31.9784 24.8452 32.5604 24.6998M16.1408 24.6998C16.3792 25.2962 16.0229 26.3695 15.5985 27.3935M16.1408 24.6998H32.5604M16.1408 24.6998C15.9601 24.3199 14.9715 23.5602 12.4631 23.5602C9.95475 23.5602 9.11215 24.3199 9.0044 24.6998M9.25688 27.3935H2.3125M9.25688 27.3935C8.84223 26.4376 8.77509 25.7213 9.0044 24.6998M3.3125 24.6998H9.0044M32.5604 24.6998H32.7402M32.5604 24.6998C32.6137 24.6865 32.6735 24.6859 32.7402 24.6998M32.7402 24.6998C32.7733 22.9385 33.7342 19.416 37.3125 19.416C40.8908 19.416 41.8517 22.9385 41.8848 24.6998M47.5505 72.416C47.4179 71.5527 47.133 62.6602 47.0535 61.9971C46.9541 61.1683 46.2583 61.2719 46.1589 61.2719C45.9203 60.2773 45.927 56.9896 45.9601 55.4701C46.9938 52.8178 47.5836 48.425 47.7492 46.5602C48.6239 44.9025 49.1077 42.7614 49.2402 41.898C50.6318 44.3845 55.6017 45.8349 57.0926 45.4205C59.4782 46.353 62.7583 46.4566 62.7583 45.8349C62.7583 45.2133 63.1559 43.5557 63.8517 39.7223C64.4083 36.6557 63.9511 32.0211 63.6529 30.0872C64.1922 29.4589 64.9123 28.4442 65.3681 27.3935M42.2824 27.3935V28.0151C42.2824 28.9268 41.5535 28.8785 41.189 28.7403C41.0896 29.2929 40.8709 30.8331 40.7914 32.5737C40.692 34.7494 42.7794 33.9205 45.7613 32.9881C48.1468 32.2421 51.5926 35.0947 53.0173 36.6142C55.0848 36.2827 57.192 37.9265 57.9872 38.7899C58.0667 37.7124 59.1468 36.1998 59.677 35.5782C59.7432 33.886 59.8956 30.3773 59.9752 29.88C60.0269 29.5566 59.4867 28.504 59.0265 27.3935M42.2824 27.3935H59.0265M42.2824 27.3935C42.4645 26.5077 42.6466 24.8452 42.0646 24.6998M58.4842 24.6998C58.2458 25.2962 58.6021 26.3695 59.0265 27.3935M58.4842 24.6998H42.0646M58.4842 24.6998C58.6649 24.3199 59.6535 23.5602 62.1619 23.5602C64.6703 23.5602 65.5128 24.3199 65.6206 24.6998M65.3681 27.3935H72.3125M65.3681 27.3935C65.7828 26.4376 65.8499 25.7213 65.6206 24.6998M71.3125 24.6998H65.6206M42.0646 24.6998H41.8848M42.0646 24.6998C42.0113 24.6865 41.9515 24.6859 41.8848 24.6998" stroke="black"></path></svg> 