<svg viewBox="0 0 32 32" fill="none" xmlns="http://www.w3.org/2000/svg">
    <path fill-rule="evenodd" clip-rule="evenodd"
        d="M3.65004 16C3.65004 8.84774 9.44808 3.04969 16.6003 3.04969C18.9609 3.04969 21.1709 3.68031 23.0747 4.78158C23.5647 5.065 24.1917 4.89757 24.4751 4.40763C24.7585 3.9177 24.591 3.29077 24.1011 3.00736C21.8937 1.73048 19.3308 1 16.6003 1C8.31607 1 1.60034 7.71572 1.60034 16C1.60034 24.2843 8.31607 31 16.6003 31C24.8847 31 31.6003 24.2843 31.6003 16C31.6003 14.7963 31.4584 13.6246 31.1898 12.5009C31.0582 11.9504 30.5052 11.6108 29.9547 11.7423C29.4042 11.874 29.0647 12.4269 29.1962 12.9774C29.4278 13.9461 29.5507 14.9581 29.5507 16C29.5507 23.1523 23.7526 28.9503 16.6003 28.9503C9.44808 28.9503 3.65004 23.1523 3.65004 16ZM30.3685 6.01063C30.7687 5.61041 30.7687 4.96151 30.3685 4.56128C29.9682 4.16105 29.3194 4.16105 28.9192 4.56128L16.1345 17.346L10.3374 11.5489C9.93716 11.1486 9.28827 11.1486 8.88804 11.5489C8.48782 11.9492 8.48782 12.598 8.88804 12.9982L16.1345 20.2446L30.3685 6.01063Z"
        fill="black" />
</svg>