<?xml version="1.0" encoding="UTF-8"?> <svg xmlns="http://www.w3.org/2000/svg" xmlns:xlink="http://www.w3.org/1999/xlink" viewBox="0 0 1080 264.32"> <defs> <linearGradient id="linear-gradient" x1="2809.67" y1="7222.96" x2="2823.32" y2="7209.31" gradientTransform="translate(-6338.43 2911.25) rotate(-90)" gradientUnits="userSpaceOnUse"> <stop offset="0" stop-color="#66dac7"></stop> <stop offset="1" stop-color="#00c2a2"></stop> </linearGradient> <linearGradient id="linear-gradient-2" x1="-6183.32" y1="2053.5" x2="-6169.66" y2="2039.85" gradientTransform="translate(2965.28 6284.91) rotate(90)" gradientUnits="userSpaceOnUse"> <stop offset="0" stop-color="#66baac"></stop> <stop offset="1" stop-color="#008c75"></stop> </linearGradient> <linearGradient id="linear-gradient-3" x1="911.78" y1="74.32" x2="925.43" y2="60.67" gradientTransform="matrix(1, 0, 0, 1, 0, 0)" xlink:href="#linear-gradient"></linearGradient> <linearGradient id="linear-gradient-4" x1="2503.2" y1="1534.75" x2="2516.85" y2="1521.09" gradientTransform="translate(-2055.67 -291.83) rotate(-24.7)" xlink:href="#linear-gradient"></linearGradient> <linearGradient id="linear-gradient-5" x1="939.08" y1="101.6" x2="952.73" y2="87.95" gradientUnits="userSpaceOnUse"> <stop offset="0" stop-color="#66a699"></stop> <stop offset="1" stop-color="#006b55"></stop> </linearGradient> <linearGradient id="linear-gradient-6" x1="5212.74" y1="2965.27" x2="5226.39" y2="2951.62" gradientTransform="translate(-5122.25 896.51) rotate(-37.31)" xlink:href="#linear-gradient-5"></linearGradient> <linearGradient id="linear-gradient-7" x1="-6105.05" y1="2025.2" x2="-6091.4" y2="2011.55" gradientTransform="translate(2964.28 6179.38) rotate(90)" xlink:href="#linear-gradient-2"></linearGradient> <linearGradient id="linear-gradient-8" x1="-4269.84" y1="-1648.8" x2="-4256.19" y2="-1662.45" gradientTransform="translate(798.25 4616.04) rotate(68.87)" xlink:href="#linear-gradient-2"></linearGradient> <linearGradient id="linear-gradient-9" x1="-6259.33" y1="4986.19" x2="-6245.68" y2="4972.54" gradientTransform="translate(2690.25 7817.34) rotate(115.59)" xlink:href="#linear-gradient-2"></linearGradient> <linearGradient id="linear-gradient-10" x1="939.08" y1="47.19" x2="952.73" y2="33.54" gradientUnits="userSpaceOnUse"> <stop offset="0" stop-color="#ff66bf"></stop> <stop offset="1" stop-color="#ff0095"></stop> </linearGradient> </defs> <g style="isolation:isolate;"> <g id="Layer_2"> <g id="fon_photo"> <rect y="77.32" width="1080" height="187" style="fill:#006b55;"></rect> </g> <g id="cubes_"> <g> <g> <g> <rect x="870.88" y="87.95" width="27.3" height="27.3" transform="translate(782.93 986.13) rotate(-90)" style="fill:#00c2a2; mix-blend-mode:screen;"></rect> <rect x="870.88" y="87.95" width="27.3" height="27.3" transform="translate(782.93 986.13) rotate(-90)" style="fill:#00c2a2; mix-blend-mode:screen;"></rect> <polygon points="870.88 115.25 870.88 87.95 898.18 87.95 870.88 115.25" style="fill:url(#linear-gradient); mix-blend-mode:screen;"></polygon> </g> <g> <rect x="898.13" y="87.95" width="27.3" height="27.3" transform="translate(1013.38 -810.18) rotate(90)" style="fill:#008c75; mix-blend-mode:screen;"></rect> <rect x="898.13" y="87.95" width="27.3" height="27.3" transform="translate(1013.38 -810.18) rotate(90)" style="fill:#008c75; mix-blend-mode:screen;"></rect> <polygon points="925.43 87.95 925.43 115.25 898.13 115.25 925.43 87.95" style="fill:url(#linear-gradient-2); mix-blend-mode:screen;"></polygon> </g> <g> <rect x="898.13" y="60.67" width="27.3" height="27.3" style="fill:#00c2a2; mix-blend-mode:screen;"></rect> <rect x="898.13" y="60.67" width="27.3" height="27.3" style="fill:#00c2a2; mix-blend-mode:screen;"></rect> <polygon points="898.13 60.67 925.43 60.67 925.43 87.98 898.13 60.67" style="fill:url(#linear-gradient-3); mix-blend-mode:screen;"></polygon> </g> <g> <rect x="846.16" y="42.98" width="27.3" height="27.3" transform="translate(54.99 364.43) rotate(-24.7)" style="fill:#00c2a2; mix-blend-mode:screen;"></rect> <rect x="846.16" y="42.98" width="27.3" height="27.3" transform="translate(54.99 364.43) rotate(-24.7)" style="fill:#00c2a2; mix-blend-mode:screen;"></rect> <polygon points="841.71 49.93 866.51 38.52 877.92 63.33 841.71 49.93" style="fill:url(#linear-gradient-4); mix-blend-mode:screen;"></polygon> </g> <g> <rect x="925.43" y="87.95" width="27.3" height="27.3" style="fill:#006b55; mix-blend-mode:screen;"></rect> <rect x="925.43" y="87.95" width="27.3" height="27.3" style="fill:#006b55; mix-blend-mode:screen;"></rect> <polygon points="925.43 87.95 952.73 87.95 952.73 115.25 925.43 87.95" style="fill:url(#linear-gradient-5); mix-blend-mode:screen;"></polygon> </g> <g> <rect x="807.45" y="81.6" width="27.3" height="27.3" transform="translate(110.3 517.2) rotate(-37.31)" style="fill:#006b55; mix-blend-mode:screen;"></rect> <rect x="807.45" y="81.6" width="27.3" height="27.3" transform="translate(110.3 517.2) rotate(-37.31)" style="fill:#006b55; mix-blend-mode:screen;"></rect> <polygon points="801.97 92.67 823.69 76.12 840.24 97.83 801.97 92.67" style="fill:url(#linear-gradient-6); mix-blend-mode:screen;"></polygon> </g> <g> <rect x="925.43" y="60.67" width="27.3" height="27.3" transform="translate(1013.41 -864.76) rotate(90)" style="fill:#008c75; mix-blend-mode:screen;"></rect> <rect x="925.43" y="60.67" width="27.3" height="27.3" transform="translate(1013.41 -864.76) rotate(90)" style="fill:#008c75; mix-blend-mode:screen;"></rect> <polygon points="952.73 60.67 952.73 87.98 925.43 87.98 952.73 60.67" style="fill:url(#linear-gradient-7); mix-blend-mode:screen;"></polygon> </g> <g> <rect x="783.27" y="25.26" width="27.3" height="27.3" transform="translate(545.93 -718.45) rotate(68.87)" style="fill:#008c75; mix-blend-mode:screen;"></rect> <rect x="783.27" y="25.26" width="27.3" height="27.3" transform="translate(545.93 -718.45) rotate(68.87)" style="fill:#008c75; mix-blend-mode:screen;"></rect> <polygon points="804.73 21.26 814.57 46.73 789.11 56.57 804.73 21.26" style="fill:url(#linear-gradient-8); mix-blend-mode:screen;"></polygon> </g> <g> <rect x="883.58" y="4.56" width="27.3" height="27.3" transform="translate(1301.25 -783.12) rotate(115.59)" style="fill:#008c75; mix-blend-mode:screen;"></rect> <rect x="883.58" y="4.56" width="27.3" height="27.3" transform="translate(1301.25 -783.12) rotate(115.59)" style="fill:#008c75; mix-blend-mode:screen;"></rect> <polygon points="915.44 11.79 903.65 36.42 879.02 24.63 915.44 11.79" style="fill:url(#linear-gradient-9); mix-blend-mode:screen;"></polygon> </g> </g> <g> <rect x="925.43" y="33.54" width="27.3" height="27.3" style="fill:#ff0095;"></rect> <polygon points="925.43 33.54 952.73 33.54 952.73 60.84 925.43 33.54" style="fill:url(#linear-gradient-10);"></polygon> </g> </g> </g> </g> </g> </svg> 