<?xml version="1.0" encoding="UTF-8"?> <!-- Generator: Adobe Illustrator 26.5.0, SVG Export Plug-In . SVG Version: 6.00 Build 0) --> <svg xmlns="http://www.w3.org/2000/svg" xmlns:xlink="http://www.w3.org/1999/xlink" id="Layer_2_00000023247446486653155810000007072698604449294212_" x="0px" y="0px" viewBox="0 0 408.3 408.8" style="enable-background:new 0 0 408.3 408.8;" xml:space="preserve"> <style type="text/css"> .st0{fill-rule:evenodd;clip-rule:evenodd;fill:#6E4817;} </style> <g id="Layer_1-2"> <g> <path class="st0" d="M204.2,321.1l15.3-13.7l70.7-79.5c17.5-18.7,32.6-25,50.2-21.4c11.9,2.5,21.9,9.9,27.8,20.6 c8.4,15.4,2.7,34.7-12.5,43.1c-2,1.1-4.6,2-7.4,2.6c0-1.3-0.3-2.6-0.8-3.8c-1.1-3.1-3.4-5.5-6.4-6.8c-2.9-1.4-6.2-1.5-9.3-0.4 c-3,1.2-5.5,3.5-6.8,6.4c-1.3,3-1.4,6.3-0.3,9.3c1.5,4,5.2,7.2,10.4,8.7c9.6,2.8,21.5-0.9,27.2-4c22-12.1,30-39.8,18-61.9 c-7.9-14.1-21.3-24.2-37.1-27.4c-29.5-6.1-50.2,11.6-63.3,25.6l-75.7,85.2l-75.8-85.2c-13-14-33.7-31.8-63.2-25.6 c-15.8,3.3-29.3,13.3-37.1,27.4c-12.1,22-4.1,49.8,17.9,61.9c5.7,3.1,17.6,6.9,27.2,4c5.2-1.5,8.9-4.6,10.5-8.7 c1.2-3.1,1-6.4-0.3-9.3c-1.4-3-3.8-5.2-6.8-6.4c-3.1-1.1-6.3-1.1-9.3,0.4c-2.9,1.3-5.2,3.7-6.4,6.8c-0.5,1.2-0.7,2.5-0.8,3.8 c-2.8-0.6-5.4-1.5-7.4-2.6c-15.3-8.4-21-27.8-12.5-43.1c5.9-10.7,16-18.1,27.8-20.6c17.7-3.6,32.7,2.7,50.2,21.4l70.7,79.5 L204.2,321.1L204.2,321.1z"></path> <g> <path class="st0" d="M198.2,224.2c1.3,2,3.5,3.3,5.9,3.3s4.6-1.2,5.9-3.3l32.3-52.8c1.1-1.9,1.3-4.3,0.4-6.4l-32.2-73.5 c-1.1-2.5-3.7-3.8-6.3-3.8s-5.2,1.3-6.3,3.8L165.5,165c-0.9,2.1-0.8,4.4,0.4,6.4L198.2,224.2L198.2,224.2z"></path> <polygon class="st0" points="204.2,111.5 228.7,167.2 204.2,207.3 179.7,167.2 "></polygon> </g> </g> </g> </svg> 