<?xml version="1.0" encoding="UTF-8"?> <svg xmlns="http://www.w3.org/2000/svg" xmlns:xlink="http://www.w3.org/1999/xlink" viewBox="0 0 1458.49 136.49"> <defs> <linearGradient id="linear-gradient" x1="1401.55" y1="2016.33" x2="1415.2" y2="2002.68" gradientTransform="translate(-626.04 1524.38) rotate(-90)" gradientUnits="userSpaceOnUse"> <stop offset="0" stop-color="#66dac7"></stop> <stop offset="1" stop-color="#00c2a2"></stop> </linearGradient> <linearGradient id="linear-gradient-2" x1="-449.68" y1="160.87" x2="-436.03" y2="147.22" gradientTransform="translate(1578.41 572.52) rotate(90)" gradientUnits="userSpaceOnUse"> <stop offset="0" stop-color="#66baac"></stop> <stop offset="1" stop-color="#008c75"></stop> </linearGradient> <linearGradient id="linear-gradient-3" x1="1417.54" y1="95.56" x2="1431.19" y2="81.91" gradientTransform="matrix(1, 0, 0, 1, 0, 0)" xlink:href="#linear-gradient"></linearGradient> <linearGradient id="linear-gradient-4" x1="1581.03" y1="506.41" x2="1594.68" y2="492.76" gradientTransform="translate(-224.54 -437.61)" xlink:href="#linear-gradient"></linearGradient> <linearGradient id="linear-gradient-5" x1="1444.84" y1="122.84" x2="1458.49" y2="109.18" gradientUnits="userSpaceOnUse"> <stop offset="0" stop-color="#66a699"></stop> <stop offset="1" stop-color="#006b55"></stop> </linearGradient> <linearGradient id="linear-gradient-6" x1="3800.84" y1="1181.28" x2="3814.5" y2="1167.62" gradientTransform="translate(-2705.19 341.02) rotate(-20.61)" xlink:href="#linear-gradient-5"></linearGradient> <linearGradient id="linear-gradient-7" x1="-371.42" y1="132.56" x2="-357.77" y2="118.91" gradientTransform="translate(1577.4 466.99) rotate(90)" xlink:href="#linear-gradient-2"></linearGradient> <linearGradient id="linear-gradient-8" x1="577.19" y1="-2261.89" x2="590.84" y2="-2275.54" gradientTransform="translate(-928.71 -739.11) rotate(94.94)" xlink:href="#linear-gradient-2"></linearGradient> <linearGradient id="linear-gradient-9" x1="-185.81" y1="1310.7" x2="-172.16" y2="1297.05" gradientTransform="translate(2708.01 215.67) rotate(90)" xlink:href="#linear-gradient-2"></linearGradient> <linearGradient id="linear-gradient-10" x1="1444.84" y1="68.43" x2="1458.49" y2="54.78" gradientUnits="userSpaceOnUse"> <stop offset="0" stop-color="#ff66bf"></stop> <stop offset="1" stop-color="#ff0095"></stop> </linearGradient> </defs> <g style="isolation:isolate;"> <g id="Layer_2"> <g id="text"> <rect width="313.54" height="82.46" style="fill:#fff;"></rect> </g> <g id="cubes_"> <g> <g> <rect x="1376.64" y="109.18" width="27.3" height="27.3" transform="translate(1267.45 1513.13) rotate(-90)" style="fill:#00c2a2; mix-blend-mode:screen;"></rect> <rect x="1376.64" y="109.18" width="27.3" height="27.3" transform="translate(1267.45 1513.13) rotate(-90)" style="fill:#00c2a2; mix-blend-mode:screen;"></rect> <polygon points="1376.64 136.49 1376.64 109.18 1403.94 109.18 1376.64 136.49" style="fill:url(#linear-gradient); mix-blend-mode:screen;"></polygon> </g> <g> <rect x="1403.89" y="109.18" width="27.3" height="27.3" transform="translate(1540.37 -1294.7) rotate(90)" style="fill:#008c75; mix-blend-mode:screen;"></rect> <rect x="1403.89" y="109.18" width="27.3" height="27.3" transform="translate(1540.37 -1294.7) rotate(90)" style="fill:#008c75; mix-blend-mode:screen;"></rect> <polygon points="1431.19 109.18 1431.19 136.49 1403.89 136.49 1431.19 109.18" style="fill:url(#linear-gradient-2); mix-blend-mode:screen;"></polygon> </g> <g> <rect x="1403.89" y="81.91" width="27.3" height="27.3" style="fill:#00c2a2; mix-blend-mode:screen;"></rect> <rect x="1403.89" y="81.91" width="27.3" height="27.3" style="fill:#00c2a2; mix-blend-mode:screen;"></rect> <polygon points="1403.89 81.91 1431.19 81.91 1431.19 109.21 1403.89 81.91" style="fill:url(#linear-gradient-3); mix-blend-mode:screen;"></polygon> </g> <g> <rect x="1342.84" y="55.15" width="27.3" height="27.3" style="fill:#00c2a2; mix-blend-mode:screen;"></rect> <rect x="1342.84" y="55.15" width="27.3" height="27.3" style="fill:#00c2a2; mix-blend-mode:screen;"></rect> <polygon points="1342.84 55.15 1370.14 55.15 1370.14 82.46 1342.84 55.15" style="fill:url(#linear-gradient-4); mix-blend-mode:screen;"></polygon> </g> <g> <rect x="1431.19" y="109.18" width="27.3" height="27.3" style="fill:#006b55; mix-blend-mode:screen;"></rect> <rect x="1431.19" y="109.18" width="27.3" height="27.3" style="fill:#006b55; mix-blend-mode:screen;"></rect> <polygon points="1431.19 109.18 1458.49 109.18 1458.49 136.49 1431.19 109.18" style="fill:url(#linear-gradient-5); mix-blend-mode:screen;"></polygon> </g> <g> <rect x="1254.54" y="94.91" width="27.3" height="27.3" transform="translate(42.97 453.43) rotate(-20.61)" style="fill:#006b55; mix-blend-mode:screen;"></rect> <rect x="1254.54" y="94.91" width="27.3" height="27.3" transform="translate(42.97 453.43) rotate(-20.61)" style="fill:#006b55; mix-blend-mode:screen;"></rect> <polygon points="1250.61 100.59 1276.17 90.97 1285.78 116.53 1250.61 100.59" style="fill:url(#linear-gradient-6); mix-blend-mode:screen;"></polygon> </g> <g> <rect x="1431.19" y="81.91" width="27.3" height="27.3" transform="translate(1540.4 -1349.28) rotate(90)" style="fill:#008c75; mix-blend-mode:screen;"></rect> <rect x="1431.19" y="81.91" width="27.3" height="27.3" transform="translate(1540.4 -1349.28) rotate(90)" style="fill:#008c75; mix-blend-mode:screen;"></rect> <polygon points="1458.49 81.91 1458.49 109.21 1431.19 109.21 1458.49 81.91" style="fill:url(#linear-gradient-7); mix-blend-mode:screen;"></polygon> </g> <g> <rect x="1261.37" y="17.21" width="27.3" height="27.3" transform="translate(1415.66 -1236.75) rotate(94.94)" style="fill:#008c75; mix-blend-mode:screen;"></rect> <rect x="1261.37" y="17.21" width="27.3" height="27.3" transform="translate(1415.66 -1236.75) rotate(94.94)" style="fill:#008c75; mix-blend-mode:screen;"></rect> <polygon points="1289.8 18.44 1287.44 45.64 1260.24 43.29 1289.8 18.44" style="fill:url(#linear-gradient-8); mix-blend-mode:screen;"></polygon> </g> <g> <rect x="1383.66" y="16.21" width="27.3" height="27.3" transform="translate(1427.17 -1367.45) rotate(90)" style="fill:#008c75; mix-blend-mode:screen;"></rect> <rect x="1383.66" y="16.21" width="27.3" height="27.3" transform="translate(1427.17 -1367.45) rotate(90)" style="fill:#008c75; mix-blend-mode:screen;"></rect> <polygon points="1410.96 16.21 1410.96 43.51 1383.66 43.51 1410.96 16.21" style="fill:url(#linear-gradient-9); mix-blend-mode:screen;"></polygon> </g> <g> <rect x="1431.19" y="54.78" width="27.3" height="27.3" style="fill:#ff0095;"></rect> <polygon points="1431.19 54.78 1458.49 54.78 1458.49 82.08 1431.19 54.78" style="fill:url(#linear-gradient-10);"></polygon> </g> </g> </g> </g> </g> </svg> 