<?xml version="1.0" encoding="UTF-8"?> <!-- Generator: Adobe Illustrator 26.5.0, SVG Export Plug-In . SVG Version: 6.00 Build 0) --> <svg xmlns="http://www.w3.org/2000/svg" xmlns:xlink="http://www.w3.org/1999/xlink" id="Layer_2_00000138563675679965215410000009843381489575905214_" x="0px" y="0px" viewBox="0 0 130 180" style="enable-background:new 0 0 130 180;" xml:space="preserve"> <style type="text/css"> .st0{opacity:0.25;} .st1{fill:#3C415A;} .st2{fill:none;} .st3{fill:#FF8000;} </style> <g class="st0"> <path class="st1" d="M110.1,2.8c6.8,0,12.2,5.5,12.2,12.2v101.7H20.2c-6.8,0-12.2-5.5-12.2-12.2V15.1C8,8.3,13.5,2.8,20.2,2.8 H110.1 M110.1,0H20.2c-8.3,0-15,6.8-15,15.1v89.4c0,8.3,6.8,15.1,15.1,15.1h104.9V15.1C125.2,6.8,118.4,0,110.1,0L110.1,0L110.1,0z "></path> <g> <path class="st2" d="M43.5,91c0-2.8,2-5,4.7-5s4.6,2,4.6,5s-1.9,5-4.8,5C45.3,96,43.5,93.9,43.5,91z"></path> <path class="st2" d="M59.7,91c0-2.8,2-5,4.7-5c2.7,0,4.6,2,4.6,5s-1.9,5-4.8,5C61.6,96,59.7,93.9,59.7,91z"></path> <path class="st2" d="M76,91c0-2.8,2-5,4.7-5s4.6,2,4.6,5s-1.9,5-4.8,5C77.9,96,76,93.9,76,91z"></path> </g> </g> <path class="st3" d="M61.3,156.1l2.4,20.4h-3.4l-1.1-10.8c-0.1-0.6-0.2-1.5-0.3-2.8s-0.2-2-0.2-2.1h-0.2c-0.5,1.8-1,3.4-1.4,4.9 l-3.4,10.8h-2.6l-3.4-11c-0.7-2.2-1.2-3.8-1.4-4.7h-0.2c-0.1,1.3-0.2,2.8-0.4,4.6l-1.1,11h-3.2l2.4-20.4h4l3.6,11.1 c0.4,1.4,0.8,2.6,1.1,3.7h0.1c0.2-0.6,0.5-1.9,1.1-3.7l3.6-11.1C57.3,156.1,61.3,156.1,61.3,156.1z"></path> <path class="st3" d="M66.9,176.5v-20.4h3.5v8.3h2.9c2.1,0,3.8,0.5,5.1,1.6c1.3,1.1,1.9,2.5,1.9,4.4s-0.7,3.4-2,4.5s-3,1.6-5.1,1.6 L66.9,176.5L66.9,176.5z M76.8,170.4c0-1-0.3-1.8-1-2.3s-1.6-0.8-2.8-0.8h-2.5v6.4h2.8c1.2,0,2-0.3,2.7-0.9S76.8,171.4,76.8,170.4z M82.9,176.5v-20.4h3.5v20.4H82.9z"></path> <g> <path class="st3" d="M58,72.1c2.8-2.6,5.2-4.9,7.7-7.1c0.9-0.8,1.3-1.7,1.3-3c-0.1-9.3,0-18.6,0-27.9c0-8.3,5-13.2,13.3-13.2 c3.7,0,7.4,0,11.1,0c7.4,0.1,12.5,5.3,12.5,12.7v29.9c0,7.7-5.1,12.8-12.7,12.8c-3.9,0-7.9,0-11.8,0c-3.8,0-6.9-1.3-9.4-4.2 c-0.6-0.7-1.1-0.9-2-0.8C64.8,71.5,61.6,71.7,58,72.1L58,72.1z M86.3,54.7c3.1,0,6.2-0.1,9.3,0c1.4,0,1.6-0.5,1.5-1.7 c-0.1-1,0.2-1.9-1.4-1.8c-6.4,0.1-12.8,0.1-19.2,0c-1.7,0-1.3,1-1.3,1.9c-0.1,1,0,1.7,1.4,1.6C79.9,54.6,83.1,54.7,86.3,54.7 L86.3,54.7z M86.3,32.5c-3.2,0-6.5,0.1-9.7,0c-1.7-0.1-1.3,1-1.3,1.9c-0.1,1,0,1.7,1.4,1.7c6.4-0.1,12.8-0.1,19.2,0 c1.6,0,1.3-1,1.3-1.9c0.1-1,0-1.7-1.4-1.7C92.6,32.5,89.4,32.5,86.3,32.5L86.3,32.5z M86.3,41.9c-3.2,0-6.5,0.1-9.7,0 c-1.4,0-1.4,0.7-1.3,1.7c0.1,0.9-0.4,1.9,1.3,1.9c6.4-0.1,12.8-0.1,19.2,0c1.6,0,1.3-0.9,1.4-1.8c0.1-1.1-0.1-1.8-1.5-1.7 C92.6,41.9,89.4,41.8,86.3,41.9L86.3,41.9z M81.9,64.2L81.9,64.2c1.9,0,3.9,0,5.8,0c1.3,0.1,1.2-0.8,1.2-1.7 c-0.1-0.8,0.4-1.9-1.2-1.9c-3.7,0-7.5,0.1-11.2,0c-1.3,0-1.3,0.8-1.2,1.6c0.1,0.8-0.4,1.9,1.2,1.9C78.3,64.1,80.1,64.2,81.9,64.2 L81.9,64.2z"></path> <path class="st1" d="M46,97.6c-6,0-12,0-18,0c-1.3,0-1.8-0.3-1.8-1.7c0.1-4.5-0.1-9.1,0.2-13.6c0.3-5.2,2.6-7.4,7.8-7.8 c0.5,0,0.9-0.1,1.4-0.1c2.4,0,4.1,1.1,5,3.3c0.8,1.9,1.7,3.8,3.3,5.2c1.8,1.7,2.8,1.7,4.6,0c1.9-1.8,3.1-4.2,3.7-6.7 c0.3-1.3,0.9-1.8,2.2-1.8c2,0,4-0.1,6,0.4c3.3,0.8,5.3,3.1,5.4,6.5c0.2,5,0,10,0.1,14.9c0,1.3-0.7,1.2-1.6,1.2 C58.2,97.6,52.1,97.6,46,97.6L46,97.6z"></path> <path class="st1" d="M46.1,41.8c8.5,0,15.4,6.8,15.4,15.3c0,8.6-6.8,15.4-15.3,15.4c-8.6,0-15.5-6.7-15.6-15.2 C30.6,48.7,37.4,41.8,46.1,41.8z"></path> </g> </svg> 