<?xml version="1.0" encoding="UTF-8"?> <!-- Generator: Adobe Illustrator 26.0.3, SVG Export Plug-In . SVG Version: 6.00 Build 0) --> <svg xmlns="http://www.w3.org/2000/svg" xmlns:xlink="http://www.w3.org/1999/xlink" id="Layer_1" x="0px" y="0px" viewBox="0 0 981.5 253.8" style="enable-background:new 0 0 981.5 253.8;" xml:space="preserve"> <style type="text/css"> .st0{fill:#F47F20;} .st1{fill:#384059;} .st2{fill:#FFFFFF;} </style> <path class="st0" d="M361.2,55.7C304.7,8.1,241.1,0,241.1,0v25.4c0,0,63.7,0.7,120.1,48.4c56.5-47.6,120.1-48.4,120.1-48.4V0 C481.3,0,417.7,8.1,361.2,55.7z"></path> <path class="st1" d="M488.3,195.3v0.1h0.1C488.4,195.4,488.3,195.4,488.3,195.3z"></path> <path class="st2" d="M126.9,185.7c0,5.3-4.4,9.7-9.7,9.7H98.5c-0.3,0-0.5-0.2-0.5-0.5v-36.4c0-5.3,0-14,0-19.4c0,0,0-14.3,0.3-25.5 c-1.9,11.2-5.4,25.8-5.4,25.8c-1.3,5.2-3.4,13.6-4.7,18.8l-9.7,37.1c0,0.1-0.1,0.2-0.2,0.2H49.1c-0.3,0-0.5-0.2-0.6-0.5l-9.8-36.8 c-1.4-5.1-3.5-13.6-4.8-18.8l-3.4-16.3c-1-5.2-1.8-5.1-1.7,0.2l0.2,15.8c0,5.3,0,14,0,19.4v27.2c0,5.3-4.4,9.7-9.7,9.7H0.7 c-0.3,0-0.6-0.2-0.6-0.6v-87c0-5.3,0-12.8,0-16.5c0-3.8,4.2-6.8,9.2-6.8s13.6,0,18.9,0h17l0,0L64,167c0,0.1,0.1,0.1,0.1,0l16.6-73 c1.2-5.2,6.5-9.4,11.8-9.4h34c0.2,0,0.4,0.2,0.4,0.4V185.7z"></path> <path class="st2" d="M209.9,84.5c5.3,0,9.7,4.4,9.7,9.7v15.1c0,0.1-0.1,0.1-0.1,0.1h-39.9c-0.2,0-0.4,0.2-0.4,0.4v16.6 c0,0.1,0.1,0.2,0.2,0.2H218c0,0,0.1,0,0.1,0.1v22.8c0,0.2-0.2,0.4-0.4,0.4h-38.5c-0.1,0-0.1,0-0.1,0.1v20.4c0,0.1,0.1,0.1,0.1,0.1 H221c0.1,0,0.2,0.1,0.2,0.2v24.6c0,0,0,0.1-0.1,0.1h-61.5c-5.3,0-9.7-4.4-9.7-9.7V84.6l0,0L209.9,84.5L209.9,84.5z"></path> <path class="st0" d="M481.3,33.8c0,0-56.9,1.4-110.9,41.1c-0.1,0.2-7.2,5.6-9.3,7.3c-1.9-1.6-8.1-6.3-8.2-6.5 C298.7,35.2,241,33.8,241,33.8v184.9c0,19.4,15.7,35.1,35.1,35.1h170.1c19.4,0,35.1-15.7,35.1-35.1L481.3,33.8z"></path> <path class="st2" d="M334.7,188.3c-7.3,7.1-18.1,10.7-32.3,10.7c-13.4,0-24-3.5-31.9-10.6c-7.9-7-11.9-16.6-11.9-28.8h23.7 c0,0,6.5-0.6,7.2,4.7c1.1,7.6,5.7,11.4,13.4,11.4c3.5,0,6.3-0.9,8.5-2.8c2.2-1.8,3.3-4.3,3.3-7.5c0-3.6-1.5-6.5-4.4-8.7 s-8-4.5-15.1-6.7c-22.2-6.9-33.3-19.1-33.3-36.4c0-10.1,3.9-18,11.8-23.9s17.6-8.8,29.1-8.8c12.5,0,22.5,3.2,29.9,9.7 c5.5,4.8,8.7,10.9,10.3,18.2c2,8.8-5,8.3-5,8.3h-23.4c0-4-1.1-7.2-3.2-9.5s-5.1-3.5-8.9-3.5c-2.9,0-5.2,0.8-7.2,2.4 c-1.9,1.6-2.9,3.7-2.9,6.4c0,3.1,1.6,5.7,4.7,7.6c3.2,2,8.2,4,15.1,6.2c22.2,7,33.3,19.4,33.3,37.1 C345.7,173.1,342,181.2,334.7,188.3z"></path> <path class="st2" d="M686.4,140c0-16.1,5.6-30,16.9-41.6C714.6,86.8,728.7,81,745.6,81c17.6,0,31.7,5.8,42.4,17.4s16,25.5,16,41.6 c0,16.3-5.6,30.2-16.8,41.7S762,199,745.3,199c-9.8,0-18.5-1.8-26.3-5.3s-13.9-8.2-18.5-14s-8.1-12.1-10.5-18.9 C687.6,154,686.4,147,686.4,140z M724.4,116.6c-5.6,6.3-8.5,14.1-8.5,23.4s2.8,17.1,8.4,23.4c5.6,6.3,12.5,9.4,20.7,9.4 c8.3,0,15.3-3.1,20.9-9.4c5.6-6.3,8.4-14.1,8.4-23.4c0-9.3-2.7-17.1-8-23.4s-12.3-9.4-21-9.4C737.1,107.1,730.1,110.3,724.4,116.6z"></path> <path class="st2" d="M879.3,84.5c5.3,0,9.7,4.4,9.7,9.7V109c0,0.2-0.2,0.4-0.4,0.4h-40.1c0,0-0.1,0-0.1,0.1v20.4c0,0,0,0.1,0.1,0.1 h38.7c0.1,0,0.1,0.1,0.1,0.1v23c0,0.1,0,0.1-0.1,0.1h-38.5c-0.1,0-0.2,0.1-0.2,0.2v32.4c0,5.3-4.4,9.7-9.7,9.7h-19.4 c-0.1,0-0.2-0.1-0.2-0.2V84.8c0-0.1,0.1-0.2,0.2-0.2h59.9V84.5z"></path> <path class="st2" d="M971.8,84.5c5.3,0,9.7,4.4,9.7,9.7V109c0,0.2-0.2,0.4-0.4,0.4H941c0,0-0.1,0-0.1,0.1v20.4c0,0,0,0.1,0.1,0.1 h38.7c0.1,0,0.1,0.1,0.1,0.1v23c0,0.1,0,0.1-0.1,0.1h-38.5c-0.1,0-0.2,0.1-0.2,0.2v32.4c0,5.3-4.4,9.7-9.7,9.7h-19.4 c-0.1,0-0.2-0.1-0.2-0.2V84.9c0-0.2,0.2-0.3,0.3-0.3L971.8,84.5L971.8,84.5z"></path> <path class="st2" d="M568.3,93.9c-8-6.2-18.3-9.3-30.9-9.3h-8.5l0,0h-28.7c-0.1,0-0.2,0.1-0.2,0.2v110.6c0,0.1,0.1,0.1,0.1,0.1h19.3 c5.3,0,9.7-4.4,9.7-9.7V158h7.8c14.3,0,25.1-3.3,32.4-9.8c7.3-6.5,11-15.6,11-27.2C580.3,109.2,576.3,100.1,568.3,93.9z M535.6,135.4h-6.5v-28.3h6.8c5.2,0,9,1.4,11.5,4.1c2.4,2.8,3.7,6.2,3.7,10.2C551,130.8,545.9,135.4,535.6,135.4z"></path> <path class="st2" d="M652.9,149.1c6.2-2.2,11.2-5.8,15-10.9c3.8-5.1,5.7-11.4,5.7-19c0-23.1-14.9-34.6-44.7-34.6h-6.7h-0.3h-28.1 c-0.3,0-0.5,0.2-0.5,0.5v100.6c0,5.4,4.4,9.8,9.8,9.8h19.2c0,0,0.1,0,0.1-0.1v-41.9h2.4l28.1,41.9h33.8L652.9,149.1z M639.9,130.2 c-2.5,2.3-5.9,3.4-10,3.4h-7.6v-26.5h7.4c4.4,0,7.9,1.2,10.3,3.6c2.4,2.4,3.7,5.7,3.7,9.9C643.8,124.7,642.5,127.9,639.9,130.2z"></path> <g> <path class="st2" d="M499.8,233.5c0-3.1,1-5.7,3.1-7.8s4.7-3.1,7.8-3.1c3.2,0,5.8,1,7.9,3.1c2,2.1,3.1,4.7,3.1,7.8 c0,3-1,5.6-3.1,7.8c-2.1,2.1-4.7,3.2-7.8,3.2c-3.1,0-5.7-1.1-7.8-3.2S499.8,236.6,499.8,233.5z M506.3,228.7 c-1.1,1.3-1.7,2.8-1.7,4.8c0,1.9,0.6,3.5,1.8,4.8c1.2,1.3,2.6,1.9,4.3,1.9c1.8,0,3.3-0.6,4.4-1.9c1.1-1.3,1.7-2.9,1.7-4.8 c0-1.9-0.6-3.5-1.7-4.7c-1.1-1.3-2.6-1.9-4.4-1.9C508.9,226.9,507.4,227.5,506.3,228.7z"></path> <path class="st2" d="M550.7,218.8c-4.9,0.7-7.6,2.9-8.2,6.6h0.1c0.7-0.8,1.6-1.4,2.8-1.9s2.3-0.7,3.6-0.7c3.1,0,5.6,1,7.5,3 s2.9,4.6,2.9,7.7c0,3-1,5.6-3.1,7.8c-2.1,2.1-4.7,3.2-7.8,3.2c-3.2,0-5.9-1.1-7.9-3.3s-3-5.3-3-9.3c0-2.3,0.2-4.4,0.6-6.2 c0.4-1.8,1-3.4,1.7-4.6c0.7-1.2,1.6-2.3,2.7-3.2c1.1-0.9,2.2-1.6,3.4-2c1.2-0.5,2.6-0.9,4.1-1.1c2.2-0.4,4-1.1,5.6-2l1.9,3.9 C555.4,217.8,553.2,218.5,550.7,218.8z M542.2,233.5c0,1.9,0.6,3.5,1.8,4.8s2.6,1.9,4.3,1.9c1.8,0,3.3-0.6,4.4-1.9 c1.1-1.3,1.7-2.9,1.7-4.8c0-1.9-0.5-3.5-1.6-4.7c-1.1-1.3-2.5-1.9-4.4-1.9c-1.8,0-3.3,0.6-4.5,1.9 C542.8,230,542.2,231.6,542.2,233.5z"></path> <path class="st2" d="M592.9,223.3l-11.2,30.5h-4.6l3.8-10.1l-7.5-20.4h4.9l3.5,10.2c0.7,2.2,1.2,3.8,1.4,4.7h0.1 c0.4-1.6,0.9-3.2,1.4-4.7l3.5-10.2H592.9z"></path> <path class="st2" d="M626.1,223.3v20.5h-4.8V234h-0.1c-1.4,2.2-3.3,3.2-5.8,3.2c-2.2,0-3.9-0.8-5.3-2.3s-2.1-3.8-2.1-6.9v-4.8h4.8 v4.5c0,1.7,0.4,2.9,1.1,3.8c0.7,0.9,1.7,1.3,2.9,1.3c1.4,0,2.5-0.5,3.3-1.5s1.2-2.4,1.2-4.3v-3.8h4.8V223.3z"></path> <path class="st2" d="M653.4,222.6c3.3,0,5.8,1.1,7.6,3.2c1.8,2.1,2.7,4.6,2.7,7.5c0,0.7,0,1.1-0.1,1.4h-15.8c0,1.6,0.6,3,1.8,4.2 s2.6,1.8,4.3,1.8c1.9,0,3.4-0.8,4.6-2.3h4.9c-0.8,1.8-1.9,3.2-3.5,4.4c-1.6,1.1-3.6,1.7-6,1.7c-3.2,0-5.8-1-7.8-3.1s-3.1-4.8-3.1-8 c0-3,0.9-5.5,2.8-7.6C647.7,223.7,650.3,222.6,653.4,222.6z M653.4,226.2c-1.6,0-2.8,0.5-3.8,1.5s-1.6,2.2-1.7,3.6H659 c-0.1-1.4-0.7-2.6-1.7-3.6C656.2,226.7,654.9,226.2,653.4,226.2z"></path> <path class="st2" d="M699.8,223.3v20.5H695v-8.7h-9.4v8.7h-4.8v-20.5h4.8v7.8h9.4v-7.8H699.8z"></path> <path class="st2" d="M718.1,243.8v-20.5h4.6v7.9c0,2.5,0,4.6-0.1,6.3h0.1c0.4-0.8,1.4-2.2,2.8-4.2l7.4-10h4.2v20.5h-4.6V236 c0-2.5,0-4.6,0.1-6.3h-0.1c-0.5,0.8-1.4,2.2-2.8,4.2l-7.4,9.9L718.1,243.8L718.1,243.8z"></path> <path class="st2" d="M764.5,222.6c3.3,0,5.8,1.1,7.6,3.2c1.8,2.1,2.7,4.6,2.7,7.5c0,0.7,0,1.1-0.1,1.4h-15.8c0,1.6,0.6,3,1.8,4.2 s2.6,1.8,4.3,1.8c1.9,0,3.4-0.8,4.6-2.3h4.9c-0.8,1.8-1.9,3.2-3.5,4.4c-1.6,1.1-3.6,1.7-6,1.7c-3.2,0-5.8-1-7.8-3.1s-3.1-4.8-3.1-8 c0-3,0.9-5.5,2.8-7.6C758.8,223.7,761.3,222.6,764.5,222.6z M764.5,226.2c-1.6,0-2.8,0.5-3.8,1.5s-1.6,2.2-1.7,3.6h11 c-0.1-1.4-0.7-2.6-1.7-3.6C767.2,226.7,766,226.2,764.5,226.2z"></path> </g> <path class="st2" d="M449,98.4C438.3,86.8,424.2,81,406.6,81c-16.9,0-31,5.8-42.3,17.4C353,110,347.4,123.9,347.4,140 c0,7,1.2,14,3.6,20.8c2.4,6.8,5.9,13.1,10.5,18.9c4.6,5.8,10.7,10.5,18.5,14s16.5,5.3,26.3,5.3c16.7,0,30.6-5.8,41.8-17.3 c11.3-11.6,16.9-25.5,16.9-41.7C465,123.9,459.7,110,449,98.4z M426.9,163.3c-5.6,6.3-12.6,9.4-20.9,9.4c-8.2,0-15.1-3.1-20.7-9.4 c-5.6-6.3-8.4-14.1-8.4-23.4s2.9-17.1,8.5-23.4c5.7-6.3,12.7-9.4,21-9.4c8.7,0,15.7,3.2,20.9,9.4c5.3,6.3,8,14.1,8,23.4 S432.5,157,426.9,163.3z"></path> </svg> 