<?xml version="1.0" encoding="UTF-8"?> <svg xmlns="http://www.w3.org/2000/svg" id="Layer_2" viewBox="0 0 639.23 273.5"> <g id="Layer_1-2"> <g> <path d="M23.81,164.33v-26.59H7.28v26.59h-1.86v-28.25H25.67v28.25h-1.86Z" style="fill:#fff;"></path> <path d="M30.11,150.21c0-4.14,1.43-7.68,4.29-10.62,2.86-2.94,6.43-4.41,10.71-4.41s8.08,1.47,10.83,4.41c2.75,2.94,4.12,6.48,4.12,10.62s-1.44,7.75-4.31,10.67c-2.87,2.91-6.42,4.37-10.64,4.37-2.46,0-4.67-.45-6.65-1.35-1.97-.9-3.56-2.08-4.74-3.56-1.19-1.48-2.09-3.08-2.69-4.8-.61-1.73-.91-3.5-.91-5.32Zm1.99,0c0,3.84,1.24,7.03,3.73,9.57,2.49,2.54,5.56,3.81,9.24,3.81s6.76-1.27,9.26-3.81c2.5-2.54,3.75-5.73,3.75-9.57s-1.21-7.03-3.64-9.57c-2.43-2.54-5.55-3.81-9.36-3.81s-6.75,1.26-9.24,3.79c-2.49,2.53-3.73,5.72-3.73,9.59Z" style="fill:#fff;"></path> <path d="M68.54,137.74l-1.7,21.58c-.17,1.96-.62,3.33-1.37,4.1-.75,.77-1.79,1.16-3.15,1.16-.55,0-1.06-.1-1.53-.29v-1.62c.28,.17,.81,.25,1.62,.25s1.37-.27,1.78-.81c.41-.54,.68-1.47,.79-2.8l1.82-23.24h17.69v28.25h-1.86v-26.59h-14.08Z" style="fill:#fff;"></path> <path d="M110.46,138.82h-.12c-.22,.3-.78,1.11-1.68,2.4-.9,1.3-1.78,2.58-2.65,3.83-.87,1.26-1.62,2.33-2.26,3.21l-11.51,16.07h-1.62v-28.25h1.86v19.26c0,1.35-.03,3.36-.08,6.01h.17c.75-1.05,1.88-2.68,3.42-4.89,1.53-2.21,2.67-3.82,3.42-4.85l11.14-15.53h1.7v28.25h-1.86v-18.68c0-3.04,.03-5.32,.08-6.83Z" style="fill:#fff;"></path> <path d="M140.74,150.08h-13.34v-1.66h13.34v1.66Z" style="fill:#fff;"></path> <path d="M155.4,164.33v-28.25h1.86v26.59h14.08v1.66h-15.95Z" style="fill:#fff;"></path> <path d="M197.15,150.08h-13.34v-1.66h13.34v1.66Z" style="fill:#fff;"></path> <path d="M236.3,136.08l4.51,28.25h-1.82l-2.61-16.49c-.14-.88-.35-2.24-.64-4.06s-.5-3.19-.64-4.1h-.12c-1.08,3.26-2,5.96-2.77,8.12l-5.88,16.53h-1.66l-6.09-17.27c-.61-1.77-1.41-4.22-2.4-7.37h-.12c-.17,1.55-.51,3.99-1.04,7.33l-2.69,17.31h-1.78l4.47-28.25h1.66l6.92,19.67c.5,1.35,1.13,3.3,1.91,5.84h.12c.69-2.24,1.34-4.18,1.95-5.84l7.08-19.67h1.66Z" style="fill:#fff;"></path> <path d="M243.75,150.21c0-4.14,1.43-7.68,4.29-10.62,2.86-2.94,6.43-4.41,10.71-4.41s8.08,1.47,10.83,4.41c2.75,2.94,4.12,6.48,4.12,10.62s-1.44,7.75-4.31,10.67c-2.87,2.91-6.42,4.37-10.64,4.37-2.46,0-4.67-.45-6.65-1.35-1.97-.9-3.56-2.08-4.74-3.56-1.19-1.48-2.09-3.08-2.69-4.8-.61-1.73-.91-3.5-.91-5.32Zm1.99,0c0,3.84,1.24,7.03,3.73,9.57,2.49,2.54,5.56,3.81,9.24,3.81s6.76-1.27,9.26-3.81c2.5-2.54,3.75-5.73,3.75-9.57s-1.21-7.03-3.64-9.57c-2.43-2.54-5.55-3.81-9.36-3.81s-6.75,1.26-9.24,3.79c-2.49,2.53-3.73,5.72-3.73,9.59Z" style="fill:#fff;"></path> <path d="M282.19,137.74l-1.7,21.58c-.17,1.96-.62,3.33-1.37,4.1-.75,.77-1.79,1.16-3.15,1.16-.55,0-1.06-.1-1.53-.29v-1.62c.28,.17,.81,.25,1.62,.25s1.37-.27,1.78-.81c.41-.54,.68-1.47,.79-2.8l1.82-23.24h17.69v28.25h-1.86v-26.59h-14.08Z" style="fill:#fff;"></path> <path d="M302.57,150.21c0-4.14,1.43-7.68,4.29-10.62,2.86-2.94,6.43-4.41,10.71-4.41s8.08,1.47,10.83,4.41c2.75,2.94,4.12,6.48,4.12,10.62s-1.44,7.75-4.31,10.67c-2.87,2.91-6.42,4.37-10.64,4.37-2.46,0-4.67-.45-6.65-1.35-1.97-.9-3.56-2.08-4.74-3.56-1.19-1.48-2.09-3.08-2.69-4.8-.61-1.73-.91-3.5-.91-5.32Zm1.99,0c0,3.84,1.24,7.03,3.73,9.57,2.49,2.54,5.56,3.81,9.24,3.81s6.76-1.27,9.26-3.81c2.5-2.54,3.75-5.73,3.75-9.57s-1.21-7.03-3.64-9.57c-2.43-2.54-5.55-3.81-9.36-3.81s-6.75,1.26-9.24,3.79c-2.49,2.53-3.73,5.72-3.73,9.59Z" style="fill:#fff;"></path> <path d="M355.38,164.33h-1.86v-14.33c-1.77,2.71-4.38,4.06-7.83,4.06-3.01,0-5.33-.86-6.96-2.57-1.63-1.71-2.44-4.32-2.44-7.83v-7.58h1.86v8.04c0,2.62,.66,4.66,1.97,6.11,1.31,1.45,3.16,2.17,5.53,2.17,2.54,0,4.49-.73,5.84-2.17,1.35-1.45,2.03-3.36,2.03-5.74v-8.41h1.86v28.25Z" style="fill:#fff;"></path> <path d="M381.97,164.33v-13.83h-18.6v13.83h-1.86v-28.25h1.86v12.76h18.6v-12.76h1.86v28.25h-1.86Z" style="fill:#fff;"></path> <path d="M388.26,150.21c0-4.14,1.43-7.68,4.29-10.62,2.86-2.94,6.43-4.41,10.71-4.41s8.08,1.47,10.83,4.41c2.75,2.94,4.12,6.48,4.12,10.62s-1.44,7.75-4.31,10.67c-2.87,2.91-6.42,4.37-10.64,4.37-2.46,0-4.67-.45-6.65-1.35-1.97-.9-3.56-2.08-4.74-3.56-1.19-1.48-2.09-3.08-2.69-4.8-.61-1.73-.91-3.5-.91-5.32Zm1.99,0c0,3.84,1.24,7.03,3.73,9.57,2.49,2.54,5.56,3.81,9.24,3.81s6.76-1.27,9.26-3.81c2.5-2.54,3.75-5.73,3.75-9.57s-1.21-7.03-3.64-9.57c-2.43-2.54-5.55-3.81-9.36-3.81s-6.75,1.26-9.24,3.79c-2.49,2.53-3.73,5.72-3.73,9.59Z" style="fill:#fff;"></path> <path d="M442.48,138.82h-.12c-.22,.3-.78,1.11-1.68,2.4-.9,1.3-1.78,2.58-2.65,3.83-.87,1.26-1.62,2.33-2.26,3.21l-11.51,16.07h-1.62v-28.25h1.86v19.26c0,1.35-.03,3.36-.08,6.01h.17c.75-1.05,1.88-2.68,3.42-4.89,1.53-2.21,2.67-3.82,3.42-4.85l11.14-15.53h1.7v28.25h-1.86v-18.68c0-3.04,.03-5.32,.08-6.83Zm-4.85-10.19h1.74c-.11,1.44-.69,2.61-1.74,3.52-1.05,.91-2.44,1.37-4.18,1.37s-3.13-.46-4.18-1.37c-1.05-.91-1.63-2.08-1.74-3.52h1.74c.05,.88,.44,1.64,1.16,2.28,.72,.64,1.72,.95,3.02,.95s2.3-.32,3.02-.95c.72-.63,1.1-1.39,1.16-2.28Z" style="fill:#fff;"></path> <path d="M461.33,164.33h-1.86v-28.25h1.86v12.8l14.33-12.8h2.53l-14.7,13.01,15.04,15.24h-2.4l-14.79-14.99v14.99Z" style="fill:#fff;"></path> <path d="M501.63,138.82h-.12c-.22,.3-.78,1.11-1.68,2.4-.9,1.3-1.78,2.58-2.65,3.83-.87,1.26-1.62,2.33-2.26,3.21l-11.51,16.07h-1.62v-28.25h1.86v19.26c0,1.35-.03,3.36-.08,6.01h.17c.75-1.05,1.88-2.68,3.42-4.89,1.53-2.21,2.67-3.82,3.42-4.85l11.14-15.53h1.7v28.25h-1.86v-18.68c0-3.04,.03-5.32,.08-6.83Z" style="fill:#fff;"></path> <path d="M522.42,135.17c3.34,0,6.09,.77,8.26,2.3s3.76,3.49,4.78,5.86h-2.11c-.86-1.99-2.24-3.57-4.16-4.74-1.92-1.17-4.19-1.76-6.81-1.76-3.4,0-6.34,1.18-8.82,3.54s-3.73,5.63-3.73,9.8c0,3.87,1.19,7.07,3.56,9.61,2.38,2.54,5.44,3.81,9.2,3.81,2.65,0,4.92-.62,6.81-1.86,1.89-1.24,3.32-2.97,4.29-5.18h2.11c-2.54,5.8-7,8.7-13.38,8.7-4.31,0-7.82-1.42-10.52-4.27-2.71-2.84-4.06-6.46-4.06-10.85s1.41-7.84,4.25-10.69c2.83-2.84,6.28-4.27,10.33-4.27Z" style="fill:#fff;"></path> <path d="M544.83,137.74l-1.7,21.58c-.17,1.96-.62,3.33-1.37,4.1-.75,.77-1.79,1.16-3.15,1.16-.55,0-1.06-.1-1.53-.29v-1.62c.28,.17,.81,.25,1.62,.25s1.37-.27,1.78-.81c.41-.54,.68-1.47,.79-2.8l1.82-23.24h17.69v28.25h-1.86v-26.59h-14.08Z" style="fill:#fff;"></path> <path d="M565.21,150.21c0-4.14,1.43-7.68,4.29-10.62,2.86-2.94,6.43-4.41,10.71-4.41s8.08,1.47,10.83,4.41c2.75,2.94,4.12,6.48,4.12,10.62s-1.44,7.75-4.31,10.67c-2.87,2.91-6.42,4.37-10.64,4.37-2.46,0-4.67-.45-6.65-1.35-1.97-.9-3.56-2.08-4.74-3.56-1.19-1.48-2.09-3.08-2.69-4.8-.61-1.73-.91-3.5-.91-5.32Zm1.99,0c0,3.84,1.24,7.03,3.73,9.57,2.49,2.54,5.56,3.81,9.24,3.81s6.76-1.27,9.26-3.81c2.5-2.54,3.75-5.73,3.75-9.57s-1.21-7.03-3.64-9.57c-2.43-2.54-5.55-3.81-9.36-3.81s-6.75,1.26-9.24,3.79c-2.49,2.53-3.73,5.72-3.73,9.59Z" style="fill:#fff;"></path> <path d="M603.65,164.33v-26.59h-8.2v-1.66h18.27v1.66h-8.2v26.59h-1.86Z" style="fill:#fff;"></path> <path d="M616.74,164.33v-28.25h1.86v12.76h5.88c2.98,0,5.32,.64,7.02,1.93s2.55,3.22,2.55,5.82c0,5.16-3.09,7.75-9.28,7.75h-8.04Zm15.33-7.7c0-1.91-.64-3.4-1.91-4.49-1.27-1.09-3.16-1.64-5.67-1.64h-5.88v12.18h6.25c4.8,0,7.21-2.01,7.21-6.05Zm5.3,7.7v-28.25h1.86v28.25h-1.86Z" style="fill:#fff;"></path> <path d="M27,210.42h-8.24v8.49h-4.97v-8.49H5.54v-4.97H13.79v-8.49h4.97v8.49h8.24v4.97Z" style="fill:#bc262b;"></path> <path d="M84.29,218.92v-28.25h15.57v1.66h-13.71v26.59h-1.86Z" style="fill:#fff;"></path> <path d="M123.51,193.4h-.12c-.22,.3-.78,1.11-1.68,2.4-.9,1.3-1.78,2.58-2.65,3.83-.87,1.26-1.62,2.33-2.26,3.21l-11.51,16.07h-1.62v-28.25h1.86v19.26c0,1.35-.03,3.36-.08,6.01h.17c.75-1.05,1.88-2.68,3.42-4.89,1.53-2.21,2.67-3.82,3.42-4.85l11.14-15.53h1.7v28.25h-1.86v-18.68c0-3.04,.03-5.32,.08-6.83Z" style="fill:#fff;"></path> <path d="M128.65,218.92l11.97-28.25h1.82l11.97,28.25h-1.95l-3.4-8.04h-15.16l-3.35,8.04h-1.91Zm9.94-19.01l-3.98,9.32h13.75l-4.1-9.61c-.83-1.88-1.73-4.13-2.69-6.75h-.17c-.14,.39-.42,1.1-.85,2.15-.43,1.05-.81,2-1.14,2.86-.33,.86-.61,1.53-.83,2.03Z" style="fill:#fff;"></path> <path d="M163.69,192.32l-1.7,21.58c-.17,1.96-.62,3.33-1.37,4.1-.75,.77-1.79,1.16-3.15,1.16-.55,0-1.06-.1-1.53-.29v-1.62c.28,.17,.81,.25,1.62,.25s1.37-.27,1.78-.81c.41-.54,.68-1.47,.79-2.8l1.82-23.24h17.69v28.25h-1.86v-26.59h-14.08Z" style="fill:#fff;"></path> <path d="M203.7,190.67l-9.69,23.36c-.77,1.85-1.53,3.18-2.28,4-.75,.81-1.75,1.22-3.02,1.22-.69,0-1.39-.11-2.11-.33v-1.62c.69,.19,1.35,.29,1.99,.29,.75,0,1.38-.28,1.91-.83,.52-.55,1.12-1.59,1.78-3.11l1.45-3.35-10.64-19.63h1.95l8.08,15.04c.52,.97,.98,1.89,1.37,2.77h.17c.3-.88,.73-2,1.28-3.35l5.88-14.46h1.91Z" style="fill:#fff;"></path> <path d="M206.06,218.92v-28.25h7.58c3.26,0,5.8,.7,7.62,2.09,1.82,1.39,2.73,3.53,2.73,6.4s-.85,4.95-2.55,6.4c-1.7,1.45-4.4,2.17-8.1,2.17h-5.43v11.18h-1.86Zm15.95-19.67c0-2.15-.68-3.84-2.05-5.07-1.37-1.23-3.42-1.84-6.15-1.84h-5.88v13.75h6.25c5.22,0,7.83-2.28,7.83-6.83Z" style="fill:#fff;"></path> <path d="M226.61,204.79c0-4.14,1.43-7.68,4.29-10.62,2.86-2.94,6.43-4.41,10.71-4.41s8.08,1.47,10.83,4.41c2.75,2.94,4.12,6.48,4.12,10.62s-1.44,7.75-4.31,10.67c-2.87,2.91-6.42,4.37-10.64,4.37-2.46,0-4.67-.45-6.65-1.35-1.97-.9-3.56-2.08-4.74-3.56-1.19-1.48-2.09-3.08-2.69-4.8-.61-1.73-.91-3.5-.91-5.32Zm1.99,0c0,3.84,1.24,7.03,3.73,9.57,2.49,2.54,5.56,3.81,9.24,3.81s6.76-1.27,9.26-3.81c2.5-2.54,3.75-5.73,3.75-9.57s-1.21-7.03-3.64-9.57c-2.43-2.54-5.55-3.81-9.36-3.81s-6.75,1.26-9.24,3.79c-2.49,2.53-3.73,5.72-3.73,9.59Z" style="fill:#fff;"></path> <path d="M281.45,218.92v-13.83h-18.6v13.83h-1.86v-28.25h1.86v12.76h18.6v-12.76h1.86v28.25h-1.86Z" style="fill:#fff;"></path> <path d="M287.74,204.79c0-4.14,1.43-7.68,4.29-10.62,2.86-2.94,6.43-4.41,10.71-4.41s8.08,1.47,10.83,4.41c2.75,2.94,4.12,6.48,4.12,10.62s-1.44,7.75-4.31,10.67c-2.87,2.91-6.42,4.37-10.64,4.37-2.46,0-4.67-.45-6.65-1.35-1.97-.9-3.56-2.08-4.74-3.56-1.19-1.48-2.09-3.08-2.69-4.8-.61-1.73-.91-3.5-.91-5.32Zm1.99,0c0,3.84,1.24,7.03,3.73,9.57,2.49,2.54,5.56,3.81,9.24,3.81s6.76-1.27,9.26-3.81c2.5-2.54,3.75-5.73,3.75-9.57s-1.21-7.03-3.64-9.57c-2.43-2.54-5.55-3.81-9.36-3.81s-6.75,1.26-9.24,3.79c-2.49,2.53-3.73,5.72-3.73,9.59Z" style="fill:#fff;"></path> <path d="M321.91,218.92v-28.25h6.79c2.71,0,4.83,.58,6.36,1.74,1.53,1.16,2.3,2.89,2.3,5.18,0,3.04-1.52,5.14-4.56,6.3v.08c2.13,.25,3.76,1.04,4.91,2.36,1.15,1.33,1.72,2.93,1.72,4.8,0,2.54-.88,4.47-2.63,5.8-1.75,1.33-4.01,1.99-6.77,1.99h-8.12Zm13.46-21.17c0-1.74-.48-3.08-1.45-4.02-.97-.94-2.6-1.41-4.89-1.41h-5.22v11.1h4.85c2.1,0,3.74-.5,4.93-1.51s1.78-2.4,1.78-4.16Zm2.07,13.5c0-1.93-.65-3.44-1.95-4.54-1.3-1.09-3.12-1.64-5.47-1.64h-6.21v12.18h6.83c2.24,0,3.93-.54,5.07-1.64,1.15-1.09,1.72-2.55,1.72-4.37Z" style="fill:#fff;"></path> <path d="M341.09,218.92l11.97-28.25h1.82l11.97,28.25h-1.95l-3.4-8.04h-15.16l-3.35,8.04h-1.91Zm9.94-19.01l-3.98,9.32h13.75l-4.1-9.61c-.83-1.88-1.73-4.13-2.69-6.75h-.17c-.14,.39-.42,1.1-.85,2.15-.43,1.05-.81,2-1.14,2.86-.33,.86-.61,1.53-.83,2.03Z" style="fill:#fff;"></path> <path d="M367.02,218.92l9.9-12.59c-2.46-.28-4.33-1.07-5.61-2.38s-1.93-3.09-1.93-5.32,.79-4.23,2.36-5.72c1.57-1.49,3.87-2.24,6.88-2.24h8.45v28.25h-1.91v-12.51h-6.17l-9.82,12.51h-2.15Zm4.35-20.3c0,1.88,.59,3.37,1.76,4.47,1.17,1.1,2.86,1.66,5.07,1.66h6.96v-12.43h-6.92c-2.07,0-3.73,.55-4.99,1.66-1.26,1.11-1.88,2.65-1.88,4.64Z" style="fill:#fff;"></path> <path d="M403.92,218.92h-1.86v-28.25h1.86v12.8l14.33-12.8h2.53l-14.7,13.01,15.04,15.24h-2.4l-14.79-14.99v14.99Z" style="fill:#fff;"></path> <path d="M444.23,193.4h-.12c-.22,.3-.78,1.11-1.68,2.4-.9,1.3-1.78,2.58-2.65,3.83-.87,1.26-1.62,2.33-2.26,3.21l-11.51,16.07h-1.62v-28.25h1.86v19.26c0,1.35-.03,3.36-.08,6.01h.17c.75-1.05,1.88-2.68,3.42-4.89,1.53-2.21,2.67-3.82,3.42-4.85l11.14-15.53h1.7v28.25h-1.86v-18.68c0-3.04,.03-5.32,.08-6.83Z" style="fill:#fff;"></path> <path d="M465.02,189.75c3.34,0,6.09,.77,8.26,2.3s3.76,3.49,4.78,5.86h-2.11c-.86-1.99-2.24-3.57-4.16-4.74-1.92-1.17-4.19-1.76-6.81-1.76-3.4,0-6.34,1.18-8.82,3.54s-3.73,5.63-3.73,9.8c0,3.87,1.19,7.07,3.56,9.61,2.38,2.54,5.44,3.81,9.2,3.81,2.65,0,4.92-.62,6.81-1.86,1.89-1.24,3.32-2.97,4.29-5.18h2.11c-2.54,5.8-7,8.7-13.38,8.7-4.31,0-7.82-1.42-10.52-4.27-2.71-2.84-4.06-6.46-4.06-10.85s1.41-7.84,4.25-10.69c2.83-2.84,6.28-4.27,10.33-4.27Z" style="fill:#fff;"></path> <path d="M487.43,192.32l-1.7,21.58c-.17,1.96-.62,3.33-1.37,4.1-.75,.77-1.79,1.16-3.15,1.16-.55,0-1.06-.1-1.53-.29v-1.62c.28,.17,.81,.25,1.62,.25s1.37-.27,1.78-.81c.41-.54,.68-1.47,.79-2.8l1.82-23.24h17.69v28.25h-1.86v-26.59h-14.08Z" style="fill:#fff;"></path> <path d="M507.81,204.79c0-4.14,1.43-7.68,4.29-10.62,2.86-2.94,6.43-4.41,10.71-4.41s8.08,1.47,10.83,4.41c2.75,2.94,4.12,6.48,4.12,10.62s-1.44,7.75-4.31,10.67c-2.87,2.91-6.42,4.37-10.64,4.37-2.46,0-4.67-.45-6.65-1.35-1.97-.9-3.56-2.08-4.74-3.56-1.19-1.48-2.09-3.08-2.69-4.8-.61-1.73-.91-3.5-.91-5.32Zm1.99,0c0,3.84,1.24,7.03,3.73,9.57,2.49,2.54,5.56,3.81,9.24,3.81s6.76-1.27,9.26-3.81c2.5-2.54,3.75-5.73,3.75-9.57s-1.21-7.03-3.64-9.57c-2.43-2.54-5.55-3.81-9.36-3.81s-6.75,1.26-9.24,3.79c-2.49,2.53-3.73,5.72-3.73,9.59Z" style="fill:#fff;"></path> <path d="M546.24,218.92v-26.59h-8.2v-1.66h18.27v1.66h-8.2v26.59h-1.86Z" style="fill:#fff;"></path> <path d="M555.11,218.92l11.97-28.25h1.82l11.97,28.25h-1.95l-3.4-8.04h-15.16l-3.35,8.04h-1.91Zm9.94-19.01l-3.98,9.32h13.75l-4.1-9.61c-.83-1.88-1.73-4.13-2.69-6.75h-.17c-.14,.39-.42,1.1-.85,2.15-.43,1.05-.81,2-1.14,2.86-.33,.86-.61,1.53-.83,2.03Z" style="fill:#fff;"></path> <path d="M27,265h-8.24v8.49h-4.97v-8.49H5.54v-4.97H13.79v-8.49h4.97v8.49h8.24v4.97Z" style="fill:#bc262b;"></path> <path d="M84.08,273.5v-28.25h7.58c3.26,0,5.8,.7,7.62,2.09,1.82,1.39,2.73,3.53,2.73,6.4s-.85,4.95-2.55,6.4c-1.7,1.45-4.4,2.17-8.1,2.17h-5.43v11.18h-1.86Zm15.95-19.67c0-2.15-.68-3.84-2.05-5.07-1.37-1.23-3.42-1.84-6.15-1.84h-5.88v13.75h6.25c5.22,0,7.83-2.28,7.83-6.83Z" style="fill:#fff;"></path> <path d="M106.32,245.25h8.95c4.89,0,8.68,1.34,11.37,4.02,2.69,2.68,4.04,6.05,4.04,10.11s-1.38,7.36-4.14,10.06c-2.76,2.71-6.54,4.06-11.35,4.06h-8.86v-28.25Zm1.86,26.59h6.79c4.36,0,7.74-1.18,10.13-3.54,2.39-2.36,3.58-5.34,3.58-8.93s-1.17-6.77-3.52-9.05-5.61-3.42-9.78-3.42h-7.21v24.93Z" style="fill:#fff;"></path> <path d="M145.05,260.9l9.9,12.59h-2.15l-9.82-12.51h-6.17v12.51h-1.91v-28.25h8.45c3.2,0,5.54,.73,7.02,2.2,1.48,1.46,2.22,3.38,2.22,5.76,0,2.07-.68,3.8-2.03,5.2s-3.19,2.23-5.51,2.51Zm5.55-7.7c0-2.02-.59-3.57-1.78-4.66-1.19-1.09-2.89-1.64-5.09-1.64h-6.92v12.43h6.96c2.15,0,3.83-.59,5.03-1.76,1.2-1.17,1.8-2.63,1.8-4.37Z" style="fill:#fff;"></path> <path d="M159.8,248.11h-.12c.06,1.52,.08,3.8,.08,6.83v18.56h-1.66v-28.25h1.7l11.35,15.62c.77,1.05,1.93,2.65,3.46,4.81,1.53,2.15,2.66,3.73,3.38,4.72h.17c-.06-2.65-.08-4.65-.08-6.01v-19.14h1.66v28.25h-1.62l-11.72-16.15c-1.99-2.71-4.18-5.78-6.59-9.24Z" style="fill:#fff;"></path> </g> <g> <path d="M23.69,49.57V17.23H7.47V49.57H1.03V11.41H30.13V49.57h-6.43Z" style="fill:#fff;"></path> <path d="M61.18,11.41v5.82h-15.44v9.79h14.88v5.65h-14.88v11.08h16.06v5.82h-22.66V11.41h22.04Z" style="fill:#fff;"></path> <path d="M70.19,49.57V11.41h11.75c4.29,0,7.74,1.02,10.35,3.05,2.61,2.03,3.92,5.03,3.92,8.98s-1.21,6.88-3.64,9.01c-2.43,2.13-6.08,3.19-10.97,3.19h-4.81v13.93h-6.6Zm19.3-26.02c0-1.98-.62-3.57-1.85-4.78-1.23-1.21-3.12-1.82-5.65-1.82h-5.2v13.2h5.09c5.07,0,7.61-2.2,7.61-6.6Z" style="fill:#fff;"></path> <path d="M102.36,49.57V11.41h9.68c3.99,0,7.13,.85,9.43,2.55,2.29,1.7,3.44,4.08,3.44,7.13,0,2.05-.62,3.77-1.85,5.15-1.23,1.38-2.8,2.35-4.7,2.91v.11c2.83,.33,5.03,1.4,6.57,3.19,1.55,1.79,2.32,3.9,2.32,6.32,0,3.43-1.22,6.09-3.67,7.97s-5.59,2.83-9.43,2.83h-11.81Zm15.95-27.86c0-1.68-.58-2.94-1.73-3.78-1.16-.84-2.74-1.26-4.76-1.26h-3.13v10.41h3.41c2.01,0,3.55-.48,4.62-1.45,1.06-.97,1.59-2.28,1.59-3.92Zm2.24,16.56c0-1.83-.63-3.28-1.9-4.36-1.27-1.08-3.04-1.62-5.32-1.62h-4.64v11.97h5.15c2.2,0,3.87-.53,5.01-1.59s1.71-2.53,1.71-4.39Z" style="fill:#fff;"></path> <path d="M134.48,49.57V11.41h6.6v15.5h5.48c3.99,0,7.17,.99,9.54,2.97,2.37,1.98,3.55,4.74,3.55,8.28s-1.22,6.33-3.67,8.36c-2.44,2.03-5.6,3.05-9.48,3.05h-12.03Zm18.46-11.41c0-1.87-.63-3.32-1.9-4.36-1.27-1.04-3.04-1.57-5.32-1.57h-4.64v12.03h5.15c2.16,0,3.82-.54,4.98-1.62,1.16-1.08,1.73-2.57,1.73-4.48Zm11.58,11.41V11.41h6.6V49.57h-6.6Z" style="fill:#fff;"></path> <path d="M180.13,11.41h6.43v20.87c0,3.62-.04,6.1-.11,7.44h.11c.75-1.46,2.98-5.15,6.71-11.08l10.91-17.23h6.1V49.57h-6.43V29.04c0-2.54,.04-5.07,.11-7.61h-.11c-.78,1.53-3.19,5.45-7.22,11.75l-10.41,16.39h-6.1V11.41ZM199.72,0h4.48c-.15,2.35-1.06,4.23-2.74,5.65-1.68,1.42-3.8,2.13-6.38,2.13-2.8,0-4.99-.72-6.57-2.15-1.59-1.44-2.42-3.31-2.49-5.62h4.42c.07,1.01,.52,1.8,1.34,2.38,.82,.58,1.92,.87,3.3,.87s2.53-.3,3.33-.89c.8-.6,1.24-1.38,1.31-2.35Z" style="fill:#fff;"></path> <path d="M257.12,49.57V17.23h-16.23V49.57h-6.43V11.41h29.09V49.57h-6.43Z" style="fill:#fff;"></path> <path d="M272.56,49.57V11.41h11.75c4.29,0,7.74,1.02,10.35,3.05,2.61,2.03,3.92,5.03,3.92,8.98s-1.21,6.88-3.64,9.01c-2.43,2.13-6.08,3.19-10.97,3.19h-4.81v13.93h-6.6Zm19.3-26.02c0-1.98-.62-3.57-1.85-4.78-1.23-1.21-3.12-1.82-5.65-1.82h-5.2v13.2h5.09c5.07,0,7.61-2.2,7.61-6.6Z" style="fill:#fff;"></path> <path d="M326.73,11.41v5.82h-15.44v9.79h14.88v5.65h-14.88v11.08h16.06v5.82h-22.66V11.41h22.04Z" style="fill:#fff;"></path> <path d="M358.45,49.57V17.23h-16.23V49.57h-6.43V11.41h29.09V49.57h-6.43Z" style="fill:#fff;"></path> <path d="M369.98,49.57l15.16-38.16h6.04l14.49,38.16h-6.88l-3.41-9.34h-15.22l-3.47,9.34h-6.71Zm15.5-24.12l-3.58,9.74h11.75l-3.53-9.79c-.78-2.16-1.49-4.36-2.13-6.6h-.28c-.67,2.31-1.42,4.53-2.24,6.66Z" style="fill:#fff;"></path> <path d="M410.71,49.57V11.41h11.75c4.29,0,7.74,1.02,10.35,3.05,2.61,2.03,3.92,5.03,3.92,8.98s-1.21,6.88-3.64,9.01c-2.43,2.13-6.08,3.19-10.97,3.19h-4.81v13.93h-6.6Zm19.3-26.02c0-1.98-.62-3.57-1.85-4.78-1.23-1.21-3.12-1.82-5.65-1.82h-5.2v13.2h5.09c5.07,0,7.61-2.2,7.61-6.6Z" style="fill:#fff;"></path> <path d="M436.33,49.57l15.16-38.16h6.04l14.49,38.16h-6.88l-3.41-9.34h-15.22l-3.47,9.34h-6.71Zm15.5-24.12l-3.58,9.74h11.75l-3.53-9.79c-.78-2.16-1.49-4.36-2.13-6.6h-.28c-.67,2.31-1.42,4.53-2.24,6.66Z" style="fill:#fff;"></path> <path d="M480.54,49.57V17.23h-9.51v-5.82h25.63v5.82h-9.51V49.57h-6.6Z" style="fill:#fff;"></path> <path d="M17.93,99.26v-12.42H4.89v12.42H0v-28.24H4.89v11.47h13.04v-11.47h4.89v28.24h-4.89Z" style="fill:#fff;"></path> <path d="M26.58,99.26l11.22-28.24h4.47l10.72,28.24h-5.09l-2.53-6.92h-11.26l-2.57,6.92h-4.97Zm11.47-17.85l-2.65,7.21h8.69l-2.61-7.25c-.58-1.6-1.1-3.23-1.57-4.89h-.21c-.5,1.71-1.05,3.35-1.66,4.93Z" style="fill:#fff;"></path> <path d="M66.74,85.14c0-4.11,1.43-7.65,4.29-10.6,2.86-2.95,6.44-4.43,10.75-4.43s8.07,1.48,10.81,4.43c2.73,2.95,4.1,6.49,4.1,10.6s-1.44,7.72-4.31,10.64-6.42,4.39-10.64,4.39c-2.48,0-4.71-.45-6.69-1.35-1.97-.9-3.55-2.08-4.72-3.56s-2.06-3.08-2.67-4.8c-.61-1.72-.91-3.5-.91-5.32Zm7.89-7.6c-1.92,2.03-2.88,4.56-2.88,7.6s.95,5.57,2.86,7.6c1.9,2.03,4.26,3.04,7.08,3.04s5.22-1.01,7.12-3.04c1.91-2.03,2.86-4.56,2.86-7.6s-.93-5.57-2.77-7.6c-1.85-2.03-4.24-3.04-7.16-3.04s-5.18,1.01-7.1,3.04Z" style="fill:#fff;"></path> <path d="M115.02,70.11c3.62,0,6.55,.92,8.82,2.75s3.74,3.98,4.43,6.44h-5.34c-.53-1.44-1.48-2.62-2.88-3.56-1.39-.94-3.08-1.41-5.07-1.41-2.71,0-4.98,.98-6.81,2.94-1.84,1.96-2.75,4.57-2.75,7.83,0,3.04,.91,5.6,2.73,7.7,1.82,2.1,4.15,3.15,7,3.15,2.04,0,3.75-.51,5.13-1.53,1.38-1.02,2.37-2.33,2.98-3.93h5.46c-1.08,2.95-2.76,5.31-5.05,7.06-2.29,1.75-5.19,2.63-8.7,2.63-4.31,0-7.81-1.43-10.52-4.29-2.71-2.86-4.06-6.47-4.06-10.83s1.39-7.87,4.16-10.7c2.77-2.83,6.26-4.24,10.46-4.24Z" style="fill:#fff;"></path> <path d="M152.29,99.26v-12.42h-13.04v12.42h-4.89v-28.24h4.89v11.47h13.04v-11.47h4.89v28.24h-4.89Z" style="fill:#fff;"></path> <path d="M162.39,85.14c0-4.11,1.43-7.65,4.29-10.6,2.86-2.95,6.44-4.43,10.75-4.43s8.07,1.48,10.81,4.43c2.73,2.95,4.1,6.49,4.1,10.6s-1.44,7.72-4.31,10.64-6.42,4.39-10.64,4.39c-2.48,0-4.71-.45-6.69-1.35-1.97-.9-3.55-2.08-4.72-3.56s-2.06-3.08-2.67-4.8c-.61-1.72-.91-3.5-.91-5.32Zm7.89-7.6c-1.92,2.03-2.88,4.56-2.88,7.6s.95,5.57,2.86,7.6c1.9,2.03,4.26,3.04,7.08,3.04s5.22-1.01,7.12-3.04c1.91-2.03,2.86-4.56,2.86-7.6s-.93-5.57-2.77-7.6c-1.85-2.03-4.24-3.04-7.16-3.04s-5.18,1.01-7.1,3.04Z" style="fill:#fff;"></path> <path d="M197.54,99.26v-28.24h7.16c2.95,0,5.28,.63,6.98,1.88,1.7,1.26,2.55,3.02,2.55,5.28,0,1.52-.46,2.79-1.37,3.81-.91,1.02-2.07,1.74-3.48,2.15v.08c2.1,.25,3.72,1.04,4.87,2.36s1.72,2.88,1.72,4.68c0,2.54-.91,4.51-2.71,5.9-1.81,1.39-4.13,2.09-6.98,2.09h-8.74Zm11.8-20.62c0-1.24-.43-2.17-1.28-2.79s-2.03-.93-3.52-.93h-2.32v7.7h2.53c1.49,0,2.63-.36,3.42-1.08,.79-.72,1.18-1.68,1.18-2.9Zm1.66,12.26c0-1.35-.47-2.43-1.41-3.23-.94-.8-2.25-1.2-3.93-1.2h-3.44v8.86h3.81c1.63,0,2.86-.39,3.71-1.18,.84-.79,1.26-1.87,1.26-3.25Z" style="fill:#fff;"></path> <path d="M237.58,71.02v4.31h-11.43v7.25h11.01v4.18h-11.01v8.2h11.88v4.31h-16.77v-28.24h16.31Z" style="fill:#fff;"></path> </g> </g> </svg> 