<?xml version="1.0" encoding="UTF-8"?> <svg xmlns="http://www.w3.org/2000/svg" viewBox="0 0 975.11 756.99"> <defs> <style>.cls-1{fill:#6e00bd;}.cls-2{fill:none;stroke:#fff;stroke-miterlimit:10;stroke-width:8.5px;}</style> </defs> <g id="Layer_2" data-name="Layer 2"> <g id="Layer_2-2" data-name="Layer 2"> <path class="cls-1" d="M629.93,737.65q.84-2.61,1.66-5.22l-3.37.25C627.28,737.11,627.28,737.11,629.93,737.65Z"></path> <path class="cls-1" d="M26.57,365c1-.47,1-1.55.34-2.6-2.32.73-5.05-.75-6.74,3.34l3.31,0A15.16,15.16,0,0,0,26.57,365Z"></path> <path class="cls-1" d="M17.4,390.64c-.44-.3-.9-.86-1.33-.8s-.82.76-1.23,1.19c.45.29.9.86,1.33.8S17,391.06,17.4,390.64Z"></path> <path class="cls-1" d="M141.61,734.83h0l1.67-2.72c.54-.78.6-2,0-2.1-2.39-.26-5-1.47-6.81,2.6a2.19,2.19,0,0,1,0,2.66l-3.41.32c1.06,2.61,3.69,3.4,3.56,7.38,1.93.17,3.37-1.89,5-2.94.38.68.76.89,1.14.61s.56-.53.56-.77a1.78,1.78,0,0,0-.12-2.72A15.4,15.4,0,0,1,141.61,734.83Zm0,0Z"></path> <path class="cls-1" d="M342.2,735.39c-4.88,3.48-9.66,1.36-14.47.84a1.57,1.57,0,0,0-1.63-1,25.24,25.24,0,0,0-2.64,1.13c-.57.17-1.13.35-1.7.48s-1.13.14-1.7.18l-.85,0L314.8,745l13-.91a9.6,9.6,0,0,0,3.38-2.89q.85-.11,1.71-.15l5.13-.42c1.67-.17,3.35-.24,5-.56,1-.2,2.51-.39,1.92-2.81C344.58,735.68,343.21,734.67,342.2,735.39Z"></path> <path class="cls-1" d="M346.65,750.23c2.22-.32,3.35-2.15,3.37-5.55a11,11,0,0,0-2.48.43C345.4,746,345.31,746.65,346.65,750.23Z"></path> <path class="cls-1" d="M306.38,738.16c-.94-.32-1.73-1.48-2.59-2.26-.53,0-1.07.07-1.61.13-1.29,2.69-1.46,5.29,0,7.76l3.41-.3,3.39-.32C308.89,740.56,308.23,738.78,306.38,738.16Z"></path> <path class="cls-1" d="M298.85,749.27c-1.39-1-1.72-2.91-1.78-5h0c0-1.72,0-3.43,0-5.15-1.83-3.64-4.48-1.86-6.84-2q-.88-2.22-1.71.15l-1.7.18c-1,1.48-.59,3.91-1.66,5.33,1.81,3.64,4.47,1.82,6.82,2h0l2.6-.18c-1.5,2.13-3.26,4.09-2.49,7.94.57,0,1.13-.08,1.69-.09,1.88-.19,3.75-.34,5.63-.57.76-.09,1.55-.52,1-2C300.12,749.39,299.36,749.46,298.85,749.27Z"></path> <path class="cls-1" d="M485,748.21c1.25,2.89,3.26,2.17,5.12,2.16l1.74,2.38,1.7-.13,8.19-5.3-8.23,0C490.56,741.68,487.77,745.19,485,748.21Z"></path> <path class="cls-1" d="M477.48,749a3.08,3.08,0,0,0-1.27,1c.29,1.5,1.18,1.44,1.88.92a11.14,11.14,0,0,0,1.77-2.31l0,0A14.53,14.53,0,0,0,477.48,749Z"></path> <path class="cls-1" d="M480.65,738.23c-.48.28-.93.67-1.4,1,.14.31.35.93.41.89a3.49,3.49,0,0,0,1.36-1C481.73,738.11,481.56,737.71,480.65,738.23Z"></path> <path class="cls-1" d="M934.9,496.9l-3.4.3c-1,.28-2.4.54-2.56,2.26-.27,2.88,1.41,2.65,2.66,2.88h0a11.23,11.23,0,0,0,1.64-.15l.06.25c.76.38,1.51.82,2.28,1.13s1.69.18,2-1.19a3.69,3.69,0,0,0-.44-2.16C936.49,499,935.66,498,934.9,496.9Z"></path> <path class="cls-1" d="M943,502.37c.08.31.15.88.23.88s.47-.25.71-.4c-.08-.31-.15-.88-.23-.87C943.49,502,943.26,502.22,943,502.37Z"></path> <path class="cls-1" d="M157.9,750a12.52,12.52,0,0,0-2.9,2.76,3.62,3.62,0,0,0-.38,2.27c.14.63.77,1,1.19,1.44,1.58.35,2.75-.8,3.64-2.69a4.8,4.8,0,0,0,.37-2.4C159.59,750,158.7,749.48,157.9,750Z"></path> <path class="cls-1" d="M162.07,732.91c-1.81,4.19-1.72,4.55,1.76,7.61,0-.83,0-1.65,0-2.48C164.77,733.56,164.77,733.56,162.07,732.91Z"></path> <path class="cls-1" d="M179.26,744.46h0c-2.13,4.07-2.13,4.1.07,7.77,0-.87,0-1.73,0-2.6A4.8,4.8,0,0,0,179.26,744.46Z"></path> <path class="cls-1" d="M172.51,750.29v0c-.13-.34-.32-1-.4-1C171.55,749.52,171.69,749.92,172.51,750.29Z"></path> <path class="cls-1" d="M153.59,738.93h0Z"></path> <path class="cls-1" d="M152.51,731.33a11.22,11.22,0,0,0-.59,2.24c-.13,2.27.31,4.19,1.67,5.34-.05-2.13,0-4.28-.18-6.39C153.38,732.06,152.83,731.72,152.51,731.33Z"></path> <path class="cls-1" d="M138.05,722.1a3,3,0,0,0-3.39-2.24C135.39,721.91,136.65,722.25,138.05,722.1Z"></path> <path class="cls-1" d="M278.35,751.11c-1.69,2.21-.41,4,.39,5.45s1.26-.66,1.88-1.26c.9-.87,2.31.05,2.9-2C282.25,750.36,280.23,751.07,278.35,751.11Z"></path> <path class="cls-1" d="M491.7,739.75l3.38-.33C493.92,736.91,492.79,737.07,491.7,739.75Z"></path> <path class="cls-1" d="M967.89,393.13c-1.77,0-3.52,1-5.28.58-.93-.41-1.83-.92-2.73-1.4a4.47,4.47,0,0,0-1.88-.25l-.23,0c0-.44,0-.87,0-1.31l-.85,1.4-1.72.2a4.74,4.74,0,0,1-1.34.14c.71-.89,1.09-2,.33-3.84l0,0c-.69-1.52-1.62-1.61-2.68-.87a2.21,2.21,0,0,0-.39.56,3.83,3.83,0,0,0,.38-1.77c1.52.59,1.91-2.06,2.76-3.37,0-.83,0-1.67,0-2.51-1.37-5.47,2.63-3.16,3.43-5.48l1.68-.26V375a27,27,0,0,1,1.76,2.37c3.67-.79,3.68-.79,4.41-6,.22-1.59.37-3.19.55-4.79l-6.77-2.09-1.76-2.4-.07.14h0l.08-.14c-5.22-2.28-8.83-8.78-13.83-11.62h0l-2.28-1-1,1.06-3.46-2.29h0l-2.77-.65c-.84-3.36-2.36-4.12-4.17-3.78h0l-5.08-2.25c-2.78-2.6-4.75-7.25-8.5-7.36h0a6.35,6.35,0,0,1-.32-2.11l-6.42-2.71-1.77-2.25-.27.92-.15-.21.42-.71-1.77-2.35-.4.64h0l-.07-.09c.15-.19.31-.37.47-.55-.39-1.28-1-2-2-2l-.12.59-.09-.11.21-.48a7.59,7.59,0,0,0-1.21-1.09c-.14-.08-.43.42-.65.65l.42.87,0,0c-.16-.37-.32-.74-.49-1.1l-2.92.58h0c-.34-1.24-1-1.86-1.88-1.9-.71-1.71-1.65-2.95-3.06-3.16-.39-1.25-1-2-2-2.09l-.33.68h-.06l.39-.67c-1.73-2.62-4-3.44-6.33-4.07a3.34,3.34,0,0,1-2.66-2,3.3,3.3,0,0,0-1.86-2.62l-.11.13-6.29-.5h0a15.6,15.6,0,0,0-.18-1.69h0c-1.78-4.17-4.47-2.34-6.93-2-1.68-4.21-4.37-2.38-6.79-2.15-1.75-3.9-4.39-2.32-6.81-2.07,0-.9,0-1.79,0-2.69-.61-.85-.88-2.15-1.47-3l1.44-2c0,.85,0,1.7.07,2.54a4.45,4.45,0,0,1,1.54-.09h0a3,3,0,0,0,3.62,2c.51,0,1-.11,1.54-.18h0l1.82-.1a1.8,1.8,0,0,0-.08-.21.37.37,0,0,1,.08.21v0h0c1.13,2.63,2.25,2.53,3.37-.25l3.41-.29.67-1.47-2.45-3.52c-.57,0-1.13.05-1.69.11l-3.37-2.37h0l-1.68-2.51c1.93-2.78,3.81-5.6,4.39-9.71l-.93-1.06h-1.78a10.8,10.8,0,0,0-.49-1.92h0c.12-1.77.25-3.54.38-5.3h0l5.44-.82.17.21a33.21,33.21,0,0,0,3.09,1.89,1.6,1.6,0,0,1,1.41.3c1,1.34,2.58.74,3.68,1.88a2.65,2.65,0,0,1,1.25,0,11.81,11.81,0,0,0,2.5-6,5.07,5.07,0,0,0-2.21-3.72c-3.19-1.08-6.19-3.16-9.46-3.88l2.21-3.67h.09a4.72,4.72,0,0,0-3.44-2.16,3.29,3.29,0,0,1-1.6-.39c-.72-.78-1.21-2.41-2.09-2.61,0-.41-.08-.81-.08-1.23-.9-2.22.12-6.77-3-6.3,0-1.33,0-2.66.08-4a2.76,2.76,0,0,0,.86,0c3.07-3.62,6-7.49,9.79-9.42,3.17-4.56,4.48-12.13,9.16-14.24v0c.38.84.8,1.14,1.24.91s.7-.5.7-.76l1.68-2.82c1.23-2.27,3-1.2,4.49-2l.42-1.42a3.86,3.86,0,0,0-2.55-2.09,3.06,3.06,0,0,1-2-2.37l.38.16a19.11,19.11,0,0,0,11.65-1.53,21.15,21.15,0,0,0,2.26-3.09c3.52-1.39,7-3.06,10.66-3.23-.07-2.8-1-4.64-2.68-5.51-3.53-1.84-7-4.27-10.93-3.52h0c-3.18-1.81-6.53-2.59-8.87-7.38-2-4.05-6.82-4.78-8.89-8.74l-8,0h0c-.94,1.67-2.39,1.62-3.25-.09-2.75-5.42-5.6-7.65-8.84-6.26h0l-3.13-.34h0l-2-2.07c-2.17-1.53-4.39-.74-6.62.07,0,.28,0,.55,0,.81a3.59,3.59,0,0,1-.17-.34c-.09-.6-.22-1.19-.36-1.76l-6.54.07h0a16.49,16.49,0,0,1,.48-7.23h0c1.1-.3,2.21-.53,3.3-.93,1.91-.7,3.26-2.08,1.82-5.2-1.56-3.36.39-5.43,1.25-7.93,2.27-.67,4.75-1.69,5.86-4.76,1.43-4,3.84-3.14,5.8-4.45h0l3.31-.54.15,1.2,5.06-1.24h0a3.21,3.21,0,0,1,3.46,2.24c1.29-3.75,1.18-4.4-1-4.89a10.73,10.73,0,0,0-2.47,0c-.25-.17-.58-.24-.75-.53-.51-.87-1.34-1.8-1.35-2.76,0-1.63,1.12-1.49,1.9-1.58,1.13-.12,2.26-.15,3.39-.21l.14-.06a11,11,0,0,0-.12,2c3.45,4.47,6.91.85,10.36-.61a4.8,4.8,0,0,1,3.63-3,9.8,9.8,0,0,0,6.52-5.74c-7.37-3.3-14.49-7.94-22.41-8.25h0l-4.76-.2h0l-3.44-3.52c-6,.89-10-7.69-16.15-6.21a3.66,3.66,0,0,0-1.2,1.29l-2.55-4.62-4.2.2h0l-2.58-2.36-2.57.28-.4.8a2.33,2.33,0,0,1-.07-.25l.47-.55a10.59,10.59,0,0,1-.5-1.82l-49.1-1.53c-2.63-1.25-5.25-2.56-8-.3-3.3.8-6.51-.12-9.5-.49-2.24-.27-4.14-1.34-6.45-2-2.92-.77-6.07.54-9.1.87,0,0-6.84-2.3-23.11-.88-1.26-1.28-2.85-1.63-4-3.14a26.55,26.55,0,0,1-3.18-1.44l-3.52-6.14c.32-2.76-1-2.65-1.82-3.36a2.82,2.82,0,0,1-1.47-.32c-1.19-1.13-2.63-.84-3.93-1.38a5.08,5.08,0,0,0-6,1.8c1.34-3-.28-5.26-1.91-7.35-2-2.64-2,.65-3-3.69-3.3-4.64-10.16-6.79-14.25-8h0c-5.46-1.75-11.17,2.58-16.6,0-2.46-.85-5-.9-7.46-2-2.43-.81-4.94-1.14-7.34-2.14-4-1.34-8.29.56-12.26-1.33-3.09-1.31-6.1-3-9.3-3.78a12.87,12.87,0,0,0-3.6.64c-2.39,0-4.66-1-7-1.62-1.46-1.81-13.25-8.75-15.13-8.89-.32.06-4.62-1.64-5.88-2-.52-2.14-1.72-3.51-4.14-3.1-8.24,1.38-23.55-8.15-25.78-7.43-.62-1.42-8.21-6.59-9-6.39h0a16.11,16.11,0,0,0-3-1.26c-10.12-3.51-20.48-4.58-30.89-5.17a14,14,0,0,0-1.94,0A8.44,8.44,0,0,0,518.19,5c-16.52-1.89-33-5.32-49.74-2-11-.66-21.91-1.52-32.88-1.91C423.62.71,411.64.8,399.68.6c-1.89,0-3.78-.16-5.66-.31-17.88-1.37-35.55,2.24-53.11,8.4h0c-7.46.57-15,.27-22.14,5-5.77.06-11.37,2.27-17,4.07h0l-6.6.68,0,.16-3,2.58c-3.25,0-6.35.32-8.55,4.91-.39.83-1.46.92-2.22,1.34l.41.57a1.67,1.67,0,0,1-.41-.57v-.15a16.12,16.12,0,0,1-1.69.29,4.72,4.72,0,0,0,.05,5.12h0q.57.86,1.14.51c.37-.23.56-.44.56-.64l3.4-.38h0l1.73.17a1.59,1.59,0,0,0,1.7.66c1.08-1,2.37-.5,3.49-1.33,0,1.71,0,3.42,0,5.13-.49.18-1,.33-1.48.46h0l-1.93-.13c0,2.19.37,4.11,1.91,4.89v0c-.06.91-.13,1.82-.2,2.73a19.54,19.54,0,0,0-3.28,1c-.23.1-.32,1.32-.33,2,0,.29.4.85.57.8,1.65-.43,3.28-1,4.92-1.47h0c.18,1,.58,1.44,1.16,1a1.84,1.84,0,0,0,.41-.73.4.4,0,0,0,.11-.25h0c.54,0,1.07,0,1.61-.06a1.18,1.18,0,0,0,.55.34,2.81,2.81,0,0,0,.76.37c.11,0,.31-.64.47-1h0c1.19.79,1.58,2.33,1.62,4.2h0l-3.14,1c-1.26.43-2.94.52-2.71,3.28.14,1.77,1.56,1.76,2.59,2h0l-1.65,5.3h0c-3.32,2.05-7.07.13-10.27,3.24a1.42,1.42,0,0,0-1.63.28h0c-4.29-.49-8.5,0-12.41,3.56-.46-.26-.87-.12-1.22.42h0l-6.68,1.18a15,15,0,0,1-.31,1.78h0c-2.51.11-5,.53-7,3.33-8.73,1-88.61,12.45-96.71,17.75a10.28,10.28,0,0,0-6.64,2,10.91,10.91,0,0,1-6.62,2.2l-8.69,6,0,0,0,0c-.93.3-1.52,1.14-1.77,2.55h0c-1.1.19-2.26.44-2.28,2.63,0,1.62.46,3.26-.4,4.75-1.89,3.3,0,2.95,1.26,3.12a5.73,5.73,0,0,0,1.62-.24h0c0,.86,0,1.72.1,2.56a6.46,6.46,0,0,1,1.52.12,3.19,3.19,0,0,0,2.42,1.42,3.57,3.57,0,0,1-1.95,1L133.91,125c0,3.43-1.14,5.33-3.37,5.64h0c-.51,1-1.13,1.81-1.69,2.7l-1.7.21a1.72,1.72,0,0,0,0,2.59l5.1-.41a9.73,9.73,0,0,0,1.28,1.4,3,3,0,0,0-1.24,1.13c-1.36,1.27-1.66,3.25-1.69,5.41v0c2,2.59,4.1,2.6,6.37.56a7,7,0,0,0,.65-1.42,7.9,7.9,0,0,0,1.53-.35c4-1.69,4.44-1.84,5,3.25v.1c0,.38.07.77.11,1.15-.06-.09-.1-.19-.16-.28-5-3.05-9.92-1.58-14.71,2.06-.3-.33-.6-.66-.87-1-1.73-.84-3.31-.47-4.64,1.72l-5.25,4.1c1.49,3,3.76,0,5.31,1.92-.16,2.91-3,1.78-3.28,4.61l8.45-.63c.47.6.95.81,1.45.63s.77-.38.77-.57l0,0c.92,1.15,1.87.83,2.87-.48l1.78-.07c1.51,1.66,3.06.87,4.64-2.32l4.1,1h0c3.45,1.8,3.45,1.8,1.43,8h0l-3.51.61-1.57,2.39a3.63,3.63,0,0,0-3.22,2.94l7-.13,2.91,2.41c.45,3.06-.2,6.32.76,9.38,1.08,3.41-.14,6.27-2,8.54h0c-1.47-.06-2.73.51-3.48,2.74v0h0l-3.37.35-2.6.38-.17-.36c-1.73-1.66-3.37-1.42-4.9.87-.7,1.18-1.09,3.52-2.61,1.79a1.91,1.91,0,0,0-1.74.3,4.66,4.66,0,0,1-.34.83,7.84,7.84,0,0,0-1,.11,4.43,4.43,0,0,1-.39-.88c-.64-.15-1.18.12-1.63.88-7.29,6.83,56.27,1.13,48.11,1.23-2.12,0-3,1.7-4,3.77h0c-3.57.43-7.15.88-10.72,1.28a5.52,5.52,0,0,0-4.55,2.66l.35.42h-.07l-.28-.41-6.55,1c1.85,3.52,4.46,1.77,6.8,1.87h0a16.12,16.12,0,0,0,1.7-.08c2.6-.36,2.7,1.74,1.91,4.71l1.51.21h0c0,1.1,0,2.2,0,3.3a6.44,6.44,0,0,0-.73.88,8.7,8.7,0,0,1-1.37-.15c-2.67.77-5.48-.5-8,1.85-.52.2-1,.39-1.56.55h0c-2.39.23-5-.92-6.84,2.92a15,15,0,0,1,1.63-.08l5.2-.58h0c3,.12,6-.49,8.91.81,2.63,1.17,5.37.8,8.1.36h0a4.4,4.4,0,0,0,1.49.11h0c-2.16,4.26-6.63,1.87-8.43,7.26,2,1.74,4.27.35,6.38.68s1.16,5.85,3.84,5.08c.87,2.35,2.67,4.54.35,7.45h0a3.4,3.4,0,0,0-1.51.37c-.29.2-.44,1-.58,1.52a1.17,1.17,0,0,0,.59.54,9.62,9.62,0,0,0,1.52,0l3.22,2.74h0l-1.44,4.42h0l-3,1a2.46,2.46,0,0,0-1.09-1.3,3,3,0,0,0-2.77,1.48h0c-.61,3.29-1.21,6.58-1.82,9.87a4,4,0,0,1-3.18,3.58c-.05.78-.12,1.55-.21,2.32h0c-1.11.38-2.71.2-3.24,1.24-1.86,3.65-4.92,4.42-6.88,7.65h0c-2.79,1.13-5.39,3.5-8.36,3.42l-6.77.69c-.42,2.37-1.25,5.2,1.5,5,3.51-.2,7-.67,10.52-1h0a9.21,9.21,0,0,0,1.65-.15h0c.6,1.24.29,2.35-.59,2.55-2.1.48-4.21.64-6.32.92a3.15,3.15,0,0,1-1.38.19h0l-8.86.72a11.4,11.4,0,0,1-7.83,3.25c-2.44.07-4.89.47-7.33.73h0c-2.23.14-4.46.26-6.69.44a3.9,3.9,0,0,0-2.55,1.12c-.46-.1-.93-.21-1.39-.34a11.89,11.89,0,0,0-2.86,0c-.19.12-.39.21-.58.31-1-.21-2.06-.08-3.05-.28-1.68.17-3.36.36-5,.51-2,.19-3.93.51-5.42,3h0L81,303h0l-18.67,2.07a12.94,12.94,0,0,1-.38,2.08.93.93,0,0,0-1.12.11h0c-.72-1.21-1.39-1.4-2,.35h0l-5.08.61c-2.47,0-5-.37-7,2.79l-1.31-.08-12.17,3.59a5.53,5.53,0,0,1-2.28.75,6.14,6.14,0,0,1-2.23-.55c-1.4-.33-2.78-.48-4,1l-3.36.45c-.21,1.91-1.3,4.89.93,4.82,6.14-.2,12.3-.89,18.44-1.64,1-.12,1.94-1.55,2.91-2.37h0l6.7-.77h0q0,1.25,0,2.49l.07.09h0l-.07-.09a7.32,7.32,0,0,0-2.54.46c-3.21,1.8-6.61,3-9.26,6.73-2.46,3.48-6.37.48-8.61,5h0l-6.67.81c-1.67,4.64-.36,5.58,3.3,4.88h0a15.52,15.52,0,0,1-1.83,2.47c-3.44,3.15-3.47,3.16-2.07,8.58.19.76.47,1.47.7,2.2,0,.94,0,1.88,0,2.82l2.38,2.07a8.5,8.5,0,0,0,3.41-.89c2.37-1.5,3.61,0,4.53,2.91h0c0,1.67-.05,3.35-.07,5-2.23.15-2.39,2.11-2.37,5,0,3.24,1.29,2.93,2.64,2.93.53,0,1.07-.05,1.61-.07h0q1.71,2.34,3.4,4.69h0c-2.28.54-4.12,2-4.85,5.69a12.85,12.85,0,0,1,1.52,0c1.65,2,3.39,2,5.21.17.11-.25.2-.49.28-.73,1.64.17,3.43-.43,4.64,1.91l.35.52h0s-.3-.52-.31-.52a12.53,12.53,0,0,0-1.54.41c-3.61,4.06-7.79,3.08-11.77,3.84-.06-.11-.11-.22-.16-.33-2,.29-4,.51-5.93.9a3.1,3.1,0,0,0-2.71,2.71c-.49,2.78,1.17,2.44,2.09,2.38,2.08-.12,3.17,2.68,4.73,4l2,5.73c-.4,2-.09,2.87.5,3.29a3.92,3.92,0,0,0-2.19,2l-6.73.71c-1.07,3.05.8,3.65,1.7,5.06h0a27,27,0,0,1,1.76,2.37c.55,0,1.1,0,1.65,0a19.15,19.15,0,0,1,1.78,2.38h0c.58.79,1.18,1.56,1.74,2.4l1.64,0a5.15,5.15,0,0,0,.86,1.27c-.27.41-.52.84-.76,1.28h0c-1.13,1.64-2.28,1.81-3.45.33l-3.37.29c-2.48-3,1.3,13-3.62,2.94-.6-1.22-2.12-.56-3.21.2-.55.07-1.09.17-1.63.29-2.08,4.05-.57,7.17.8,10.34a4,4,0,0,0-2.45,2.72c-1.87-.05-3.06-1.2-3.55-4.17A42.83,42.83,0,0,0,12.19,429l-5.07.47,1.68,4.93h0l-5,.46c.62,3.63.53,7.95,1.79,9.21,1.54,1.54,4.22.61,6.41.58a3.53,3.53,0,0,1,3.65,2.08L3.92,448h0a11.94,11.94,0,0,0-3.1.34c-1,.38-1,1.48-.36,2.54,1.16,1.29,2.32,2.58,3.49,3.85l3-2.61L6.88,452h0l2.41.74,1.41-.24a3.52,3.52,0,0,0,3.5,2.25,3.89,3.89,0,0,1,3.61,2.07l9.2-.57,6,4.38h0c2.82,1.69,6.09,1.53,8.68,4.21l6.74-.46v.69l1.94,1.8c3.24-.35,6.52-1.12,9.52,1.35,5.23-3.16,10.31.6,15.5-.25l.4-.82a.26.26,0,0,1,.05.09l-.45.73c.31,1.39.62,2.78.94,4.16a1.05,1.05,0,0,1,1.12.17c2.7,2.38,5.52,1,8.32.09-.09-.59-.2-1.13-.32-1.63a4.36,4.36,0,0,1,.51.7c5.8,1.78,11.57-1.53,17.39-1.47,2.81,0,5.51-.16,8,1.84,3.91-2.73,8-1.26,12-2.22a4.72,4.72,0,0,0,2.39-1,6.16,6.16,0,0,0,1.54-2.91c2.35,1.32,4.9.72,7.32,1.26a7.15,7.15,0,0,0,1.56-.79l1,1.14a2.57,2.57,0,0,1,1.67-.24l5.08-.39h0c1.26,2,2.93,2,4.64,1.91,2.53-.2,5.06-.5,7.58-.52,2.7,0,3.19.37,3.66,6.06.27,3.09,3.56,4.95,1.29,8.91h0c-.53.13-1.06.25-1.59.35h0c-1.22-3-3.26-2.3-5.14-2.24h0c-.12-1.58-.13-3.22-.4-4.74-.21-1.14-.86-2-1.76-1.49a2.8,2.8,0,0,0-1,1.72c-.21,1.58-.22,3.2-.31,4.8h0l0,2.67c.06.82.1,1.64.13,2.46,2.82-3,5.65-3.4,8.47-.57l.07-.23.14.07-.21.17c-.06,1.68-.09,3.56-1.53,3.82s-2.76,1.23-2.94,3.68c-.22,3,1.18,4.46,2.84,5.15,1.31.56,2.69.79,3.52,2.69l-1.89,2.6h0c-2.19-.21-4.45,0-6.55-.74-2.51-.84-4.34,1.18-6.24,2.9-1.54,1.39-1.53,3.06-.22,4.94,1,1.43-.08,3.09-.42,4.61l-1.69,2.9h3.3a3.84,3.84,0,0,0,3.48,2.23,10.1,10.1,0,0,1-5.44,5.21c-2.69,1.06-1.66,3.3-1.11,5.51a11.28,11.28,0,0,1,2.52-.13c3.77.55,4,.61,4.23,5.69.21,4.82.28,9.47,3.51,12h0a9.65,9.65,0,0,1,0,2.15h0l-10.46.94c1.62,4.31,3.93,1.69,5.66,2.64,2.38,1.3,2.89,3.54,1.93,7,.46.11.92.23,1.38.37a1.27,1.27,0,0,0,1.58.22c.07,1.42.15,2.84.22,4.26-.57-.31-1.12-.11-1.64.67h0c-3,6.21-1.38,12,.2,17.78h0l-.15,2.63-1.32,2.75a21.33,21.33,0,0,0-3.76,5.65l-1.57.33c-.19.59-.38,1.18-.56,1.77,0,.07,0,.12.07.18-1-.74-2-.43-2.94.78a9.52,9.52,0,0,0-6.71,3.23h0c-1.27-3.1-3.82-2.12-5.9-2.65l-1,.79c0,2.16.26,4.11,1.69,5.08h0l1.81,2.36c.56.87,1.12,1.74,1.67,2.62l5.14-.6a7.75,7.75,0,0,1,3.5,4.86h0c.13,2.25.65,4.09,2.06,5.14a35.1,35.1,0,0,0,9.47,4.76c6.39,2.29,6.7,2.91,8.71,2.18.22-.08.5.33.82.57-.13,2.08-31.59,5.43-31.72,7.55h0c3.61.59,38.61.47,41.56-4.66h0c.56-.07-30.21,1.08-29.65,1h0c2.14,1.77,2.48,6.49,5.2,7.3h0c4.1-.89,8.05.1,12,1.55h0a3.12,3.12,0,0,0,3.42,2.31h0c0,2.13-.3,4.09-1.65,5.34h0a6.47,6.47,0,0,0-.32,2.65h0c-1.26.24-.82,4.25-1.48,6.22,1.25-.16,5.82.76,6.56-.86,0,.07-3.41-1.25-3.4-1.18a8.58,8.58,0,0,0,3.4,5c2.56,1.55,2.31.63,2.18,4h0c.15.58,31.61-.06,31.72.53l-.3,0h0l-1.75.16.06.21a.42.42,0,0,1-.06-.21q-.84.07-1.68.09a1.83,1.83,0,0,0-.31-.42c-.47-.67-.95-1.34-1.43-2,0,.85-31.31,2.93-31.31,3.78h0c-.54.09-1.08.2-1.61.32h0l-5.07.54c-.82-1.48,29.48-2.91,28.33-2.36-1.22,2-33.62,2.2-34.69,1h0c-1.55-.47-2.91.08-4,2h0A31.92,31.92,0,0,1,137,668.7h0c.19,1.68,33.14,2,31.33,3.86h0c-2,2-1.61,5.07-1.66,7.93l0,0h0c1.05,3.2,4.1,1.49,5.14,4.7-2,2.69-4.77.78-6.81,3.19h0c-1.72-1.84-3.43-.5-5.15.19a17.16,17.16,0,0,0,1.47-8.34c-1.77-7.24-3.53-4.72-5.28-.07a2.12,2.12,0,0,0-.6-.79A8.73,8.73,0,0,0,157,672c-.17-2-1.62.14-2-1.3.63-1.78-31.7-1.47-34.34-1.52l-7.88,8.32c0,1.2,31.46,1.18,31.66,2.36,0,.88,0,1.75,0,2.62h0c-.65,1.17-.57,2.18.42,2.36a12.74,12.74,0,0,0,3-.14c1.48-1,2.89-1.84,4.6-1,1.19.59,2.61.22,3.93.28-.92,3.6-2.65,5.44-5.11,5.72h0l-8.54,1h0l-8.4.63h0l-1.72.07c0,2.82,1,4.41,2.56,5.54.91.65,2.21,2.3,1.2,3.66-3.59,4.82.65,4.21,1.45,6l1.71.09c1.71-1.77,4-2.76,2.59-7.37-.47-1.5.45-4.08.74-6.17h0l3.43-.12a3.44,3.44,0,0,0,1.78,2,20.6,20.6,0,0,0,2.22-.09l1.1,1c0,4.68,1,8.72,3.49,11.67h0c2.72-1,2.72-1,1.68-5.34.53-.12,1.06-.21,1.6-.28h0l3.55,5h0c0,.85,0,1.7,0,2.55h0c-.58.92-1.16,1.84-1.73,2.76l.13.13-.06.11a2.25,2.25,0,0,0-.08-.24c-.28,0-.59-.06-.84.1-1.74,1.14-4.09-2.59-5.17,1-.55,1.83.63,4.78,1,7.23.58.78,1.17,1.56,1.75,2.35h0l2.3,2,6.21-5.33h0l1.72,0h0a3,3,0,0,0,3.45,2.12l10.24-.91h0a10.45,10.45,0,0,0,1.57-.24h0q1.74-2.72,3.46-5.43c.52.08,1,.18,1.55.31,1.75,5.34,2.23,5.52,5.35,1.88l3.72.29c1.08,1.83,2.5,3.22,2.39,6.49-.07,2.08.73,4.12-.91,5.63h0l-1.73.22a1.18,1.18,0,0,0,.07.2.37.37,0,0,1-.07-.2l-1.66.16h0c-2.65.62-3.38-3.41-5.21-4.79h0l-3.37,2.84-1.75-2.37h0c-1.37.14-2.51.49-2.61,3.27-.08,2.09-1.33,2.07-2.35,2.24h0c-.06-1.19-.07-2.4-.22-3.55-.1-.72-.49-2-.64-1.92-.67.21-1.61.55-1.88,1.3a26.66,26.66,0,0,0-.83,4.57c-.68.48-1.62.71-2,1.52a2.14,2.14,0,0,0,.85,2.67,14.48,14.48,0,0,0,3,1,5.65,5.65,0,0,1,1.64-.11l1.73-.31.61-.47,12.61,2.31a6.43,6.43,0,0,0,1.55,1.57l1.26.06a28,28,0,0,1,4.55-1.94c.71-.13,1.41-.32,2.11-.5,1.77-.41,3.55-.56,5.32-1a7.74,7.74,0,0,0,2.17-1c.12-.09.23-.21.34-.31a3.33,3.33,0,0,0,1.25,2.29c1.57.85,3.25.4,4.89.57l.94.16,1.68-.15h0c.72-1.08,1.79-1.67,2.19-3.21l2.83-2.55h0l3.38,0,.13-.22h.06a2.11,2.11,0,0,0-.19.23c0,.81.09,1.62.11,2.44l1.52-.16a4.25,4.25,0,0,0,.15.56,2.29,2.29,0,0,0,3.34-.62l1.86-.17a2.55,2.55,0,0,0,3.43.54l.24-.31c.47.61.94,1.23,1.4,1.85a8.09,8.09,0,0,0,4.54-3.5,5.37,5.37,0,0,1,3.89-2.44c0-.15.09-.3.14-.45a.66.66,0,0,0,0,.14l-.15.31c1.91,3.39,4.48,1.82,6.86,1.67q.09-1.2.12-2.4h0a5.93,5.93,0,0,0,1.16-.22v0c.42.6.85.81,1.28.69a14.1,14.1,0,0,0,.29,1.84c.54,1.34,1.3,2.2,2.38,2.31l5.12-.38v0a4.4,4.4,0,0,0,.55-1.93.5.5,0,0,0,.55-.05c.39-.26.58-.51.58-.75a6.53,6.53,0,0,1,1.7-.2,12.1,12.1,0,0,0,1.83,2.3v-.06c.34.61.68.81,1,.59s.52-.44.52-.64v0c.63-.8,1.12-1.84,1.75-2.64l0,0c2.23-2.87,2.55-2.67,3.48,2.15a8.15,8.15,0,0,0,1.54-.21l1.54-2.33c.45.55.88.69,1.31.41s.64-.53.64-.76l3.4-.34c.31.51.62.71.93.64a18.13,18.13,0,0,0,.81,1.78h0c0,.87,0,1.75,0,2.62.39.72.77.94,1.15.65s.56-.55.56-.8c.56-.9,1.12-1.8,1.69-2.7s1.13-1.83,1.7-2.75a5.36,5.36,0,0,1,1.64-.11c.95,3.86.95,3.85,3,1.72.69-.72,1.39-1.4,2.08-2.09l0,0L300,729l.46,2.06c1.68,1.24,3.35,1.16,5-.63h0l1.7-2.77h0l3.42-.28-.07.15h0q.06,1.23.09,2.46l1.72-.18h0l1.76-2.63h0c.52-.06,1-.12,1.57-.16h0c.67,2.44,1.82,4.08,3.54,4.68l3.39-.5-.05.55a7.47,7.47,0,0,1,1.57-.48c0-1.64.09-3.28.13-4.92h0l1.72-.25h0a49.59,49.59,0,0,0,4.21,3.82c1.69,1.21,3.23.65,4.27-2.11h0c.09-.73.16-1.46.22-2.19h0l6.62-1h0l1.72-.19c1.75,1.32,2.28,5.61,5,4.59h0c2,.25,3.55-1.61,5.23-2.85h0c.6.77,1.17,1.59,1.73,2.43h0c.24,1,.67,1.37,1.23.91a2.1,2.1,0,0,0,.41-.78.39.39,0,0,0,.1-.23,9.21,9.21,0,0,1,1.66,0l0-.39h.17l-.2.4,3.44,4.64-3.37.37a2.34,2.34,0,0,0-.36,1.47,15,15,0,0,1-1.37-1.29c-1.07.11-2.13.24-3.2.33-2.26.2-3.41,2.06-3.55,5.47l1.7-.16h0l1.75-.13c0-.11-.08-.19-.11-.29a.58.58,0,0,1,.11.29c1.72,1.46,3.42,1.2,5.1-.53v.87l3.4,1.43h0l3.45-.25,1.68-.23h0l.88,0,4.2-3h0c1.67.91,3.22,2.4,5.13,2.06.43-1.33.87-1.7,1.32-1.07l3.83.68h0c.11,2.43.18,4.87.34,7.29.06,1,.58,1.4,1.2.95a3.6,3.6,0,0,0,1.15-1.61c1-2.73-.51-4.55-1-6.75h0l3.45-.41h0c.54,0,1.08-.07,1.63-.14h0l1.73-.12h0l5.13-.44,5.1-.42,3.41-.31c1,2.48,1.89,5,2.94,7.39.2.47.89.42,1.35.61a8.46,8.46,0,0,0,.31-2.26c-.3-2-.75-4-1.14-5.93a46.22,46.22,0,0,0,4.94-1.32c.34-.12.75-1.31.74-2s-.45-1.76-.79-1.82a43.49,43.49,0,0,0-5-.45v.29l-2.82.23a3.11,3.11,0,0,0-1.18-1.4,4.06,4.06,0,0,0-3.13.15c-2.1,1.17-4.14.43-6.2,0a4.28,4.28,0,0,0-4.11,2.29.87.87,0,0,0-1,.11l-.07-.17,0,0q1.59-3.81,3.17-7.62h0c2.44-1.67,3-4.31,2-7.8l3.76-.49c0,.15-.05.29-.07.44a10.51,10.51,0,0,0,.78,5.15c.14.19.29.33.43.49.1,1.61.53,2.72,2.1,2.58,1-.09,2,.71,3,1.11.52-.08,1-.14,1.56-.2l.74-1.53-.45-.79h0c.91,1.29,2.44.53,3.29,2,1.73-.21,3.56.09,4.81-2.27l3.64-1h0a3.22,3.22,0,0,0,3.46,2.21c2.58,3,2.6,3,5.11-.48h0l1.72-.15h0c.24,1,.66,1.37,1.22.94a1.88,1.88,0,0,0,.38-.71.44.44,0,0,0,.13-.29,5.23,5.23,0,0,1,1.58,0h0c1.13,2.12,2.72,2.16,4.36,2s3.22-.12,4.28,2.15h0a12.83,12.83,0,0,0-1.63.25l-5.16.43-8.46.88h0a24.59,24.59,0,0,0-4.18.43c-1.69.47-2.05,1-1.46,3.39l2.56,1.72c5-.69,9.93-2.24,14.91-1.67l-.43-.61a1.4,1.4,0,0,1,.43.61l3.51,2.38c0-.86,0-1.71,0-2.56l3.4-.36h0l3.41-.2c2.84-2.5.51-5.06.26-7.59l-.37-.34c0-.07.07-.12.1-.18l.27.52c3.81-.09,3.79-.08,4.07,5.22a6.61,6.61,0,0,0,.77,2l1.77-.35h0l3.41-.31,4,.87a.59.59,0,0,0,.58-.17c.23-.18.35-.66.52-1h0l1.59-.09q.94,2.41,1.86-.15h0c.52-.05,1-.12,1.57-.19h0c2.34,3.29,4.68,2.86,7-.53h0c1.86-.33,3.44.84,5,2,.58,1.67,1.17,3.34,1.75,5a3.09,3.09,0,0,1,3.44,2.25v0c1.16,1.31,2.29,1.41,3.41-.32-.32-4,2.29-5.25,3.32-8,1.83-.54,3.89-.15,5.13-3.16h0a11.65,11.65,0,0,0,1.64-.26h0l3.49,2.37h0q0,3.9.08,7.8l6.83-.68h0l3.39-.14c1.71,1.55,3.41,1.23,5.12-.32l3.43-.63,0,.19c.4.58.79.74,1.17.49s.57-.48.57-.69l3.34-.41a3.92,3.92,0,0,1,3.41-2.8h0l1.66,0c2.48,3.65,5.65,1.47,8.53,1.81h0c1.13,2.19,2.65,2.23,4.21,2l2.64-2.26.14-.41c2.2-3.11,4.45-.39,6.67-.57l.11-.23v0h0l-.11.19c1.35,2.69,3.33,2.12,5.22,2,1.17.8,2.33,1.61,3.49,2.42l1.87-2.62h0a5.31,5.31,0,0,0,1.43-.58h0l3.29.07h0l0,0a4,4,0,0,1,1.25,1.36l5.68.34,1.91-2.47c2.53-4.82,7-7.67,8.4-13.64.54,1.59,1.07,3.19,1.61,4.78h0c-.8,1.77-1.62,3.51-2.38,5.31-.91,2.14-.69,3.9.68,5.18l3.38-.53,1.45-2.22c1.09,1.22,2.78.3,3.74,2a16.19,16.19,0,0,0,1.7-.12h0l3.35-.44c0-1.3,0-2.6,0-3.89a4.32,4.32,0,0,1,1.15-.59c3.86-1.31,5.86-5.73,7.6-10.6a9.28,9.28,0,0,0,.23-1.26h1.1c.09.79.16,1.59.21,2.38h0c-.75,1.18-1.52,2.33-2.26,3.53a10.49,10.49,0,0,0-1.13,9.93l1.65-.07h0c4,2.17,8.05,2.51,12-1.19a2.27,2.27,0,0,0,0-2.58h0c-.6-1.13-2.06-1.32-2-2.67,0-.82,1.3-.08,2,0,3.37-.63,4.56-5.46,6.77-8.32h0l1.83,2.07h0c.89,3.85,1.39,4.23,3,2.63,1.36-1.31,1.84-3.16,1.92-5.39h0a3.77,3.77,0,0,0,3.43-3,1.65,1.65,0,0,0,0-2.53l-.06-2.58h0l0-2.62,1.17-1.37c5.32-.77,4.76-3.82,3.92-7h0a5.05,5.05,0,0,0,1.06-1.5,6.57,6.57,0,0,0-.09-2c-.38.37-.76.74-1.15,1.1-1.23-.94-1.52-2.66-1.54-4.6h0c5.8-.43,5.8-.43,6.86,9.13h0A27.6,27.6,0,0,1,645.1,713l3.4-.32a4.54,4.54,0,0,1,2.63,4.32c0,2.56-.17,5.14-.19,7.71,0,2.1.86,3.22,2.12,3,1.47-.32,3.33,1.5,4.36-1.8-2-3.25,1.11-4,1.42-6.19h0a4.47,4.47,0,0,0,3.37-3.54c.45-1.61,1-3.48-.44-4.27s-2.76-1-3.65-2.78a3.71,3.71,0,0,1,.44-4.41c1.2-1.14,2.72-1.48,3.5-3.62l5.05-.44h0a26.64,26.64,0,0,1-.93,8.86c-.35,1.26-.16,2.63.78,3.06s1.53-.56,2-1.7a34.25,34.25,0,0,0,1.57-4.36c1.6-7.09,2.53-7.67,6.93-4,3.34,2.74,3.34,2.74,5.06-3.2a3.28,3.28,0,0,1-.19-4.85,35.22,35.22,0,0,1,3.53-3.3h0a29.73,29.73,0,0,1,3.4-.13c1.1.08,2.46.19,2.16,2.65-.66,5.28.52,9.24,3.12,12.35,1.58-4.1,1.74-8.53,1.65-13h0L708,691.54h0c5.2-.61,10.51.38,15.5-3.41a1,1,0,0,0,1.37.16l.19-.69h0c1.31-.72,2.72-2.29,3.91-2,9.31,2,18.7.23,28,.23,4.12,0,8.23,1.16,12.42.49h0a3.44,3.44,0,0,0,3.45,2.19,3.42,3.42,0,0,1,3.43,2.25c.56-.05,1.13-.09,1.69-.12.39.71.78.92,1.15.63s.57-.55.56-.8h0l.62-.82s-.08-1.21-.07-1.2c.1-1.39.24-1,1-.45.94.74.75-2.08.79-.36a13.93,13.93,0,0,1,2.58-1.81,2.39,2.39,0,0,1,2.34.86,3.7,3.7,0,0,0,1.45,1.25,1.83,1.83,0,0,0,1.55-1v0a6.57,6.57,0,0,0,2.2-6.22l-.06-.24a4.47,4.47,0,0,1,2.85-1.93h0l3.32-.37h0l1.82,0c1-2.43,2.57-2.62,4.12-3.08,1.93-.58,2.47-2.75,2.63-5.33h0c1.41.15,2.46.75,3.34,2.8,1.41,3.29,2.44,3,3.89-.39,1.23-2.9.66-5.18-1.43-5.27-1.93-.08-3.87.16-5.81.26-.58-.79-1.16-1.59-1.73-2.39h0l-6.55.66-.21-.2c0-1.61,0-3.22,0-4.83.53-.11,1.07-.24,1.6-.39h0l5.08-.43h0a3.6,3.6,0,0,0,4.31,2.13,9.22,9.22,0,0,1,7.74,2c2.21-.32,3.33-2.15,3.32-5.55h0c-2.77-2.52-5.7-4.21-9.08-3.64a10.87,10.87,0,0,0-2.44,1,1.86,1.86,0,0,0-1.7.77s0-.08,0-.12c-1-1.71-2.07-3.07-3.64-1.83,0-.1,0-.17,0-.27a4.88,4.88,0,0,0-1.32-1.15,3.3,3.3,0,0,0-.1-1,3.07,3.07,0,0,0-.17-.31c.43-.75.85-1.51,1.28-2.27l-2.47,0a3.19,3.19,0,0,1,0-.45c.05-1-.24-1.67-.87-2h0c-2.91-3.46-6.05-3.32-9.34-.74a6.38,6.38,0,0,0-1,1.44c-1.27-2.77-3.24-2-5.07-1.89h0a11.88,11.88,0,0,0-1.46-.06h0c1.85-3.76,4.54-2.51,6.91-3.08,4.1-1,4.16-1,4.69-8.06.06-.84,0-1.69.06-2.53l.33-.12.13.26a29.37,29.37,0,0,0,3.62,4.57,3.8,3.8,0,0,0-2.36,2.71h0a3.07,3.07,0,0,0,3.4,2.32l0,2.55,1.44-2.17a.69.69,0,0,0,.32-.48l5-.57h0c.54,0,1.08,0,1.62,0l1.82,2.35c2.34-.74,5.08.77,6.81-3.3-1.92.3-3.49-1.17-5.15-2.13-.47-.85-1.06-1.1-1.78-.76l0,0a7.63,7.63,0,0,0-1.67-4.16c-.12-3.37-1.23-5.06-3.5-4.81h0l-3.36.27,3.39-5.52h0c3.74,1.74,7.12.52,10.15-3.53h0c-1-2-2.15-3.73-2.63-6.21,0-.15-.07-.29-.1-.44.62-1.68.36-2.32-1.09-2.9-.12-.2-.23-.4-.36-.58l-.38-.34c1.26-1.16,1.81-3.33,2.71-5h0c.37-.69.75-.95,1.14-.76s.57.38.58.61l1.68-.09c1.38,1.54,2.75,1.71,4.11.59a5.27,5.27,0,0,0,1.06,1.45c.43,0,.85-.06,1.28-.06l5.37-.45c.6-.1,1.2-.2,1.81-.28a29.51,29.51,0,0,0-.41-3.74c-.56-2.26-.37-4.21,1-5.58s2.8-1.52,3.84.2c1.57,2.59,3.07,3.25,5,.5,1.36-2,2.86-2.62,4.6-1.45s3.19-1,4.71-1.94L854,595.2h0c0,.89,0,1.78,0,2.67h0c.78,2.28,1.73,4.4,3.73,3.2s4.3-1.24,6.47-1.44l.06-.13v0l-.76,1.25.79,1.35L866,602c0-.86,0-1.71,0-2.57h0c-.58-.8-1.15-1.61-1.72-2.41h0l-5.11.38c.41-1,.67-2.55,1.27-3,3.09-2.57,2.48-6.37,2-10.21l-3.32.21,0,0h0c-1.85-3.15-1.83-3.14-.4-7.8a5.24,5.24,0,0,0,.19-1.35,2.58,2.58,0,0,0,1.77-1.35h0c1.49-2.51,3.74-.8,5.35-2.59,0-.07,0-.13,0-.2,1.07,1.09,2.13.91,3.19-.48l3.68-3.74-2-4.34h-.07a3.15,3.15,0,0,0-3.45-2.27,3.5,3.5,0,0,1-.24-4.88c2-2.9,5.19-2.48,7-6h0a7.22,7.22,0,0,1,1.49-.37c-.75-3.49-2.45-4.91-4.79-4.9h0c-.14-.7-.26-1.39-.38-2.09-2.3.11-3.32-1.72-3.32-5.09h0l0-.19c0-.11,0-.23.08-.34a7.77,7.77,0,0,0,.68,1.35c3.59,1,7.15-.61,10.73-.92a3,3,0,0,0,.56-.85c.89,1,1.78,1.09,2.66.29a2.33,2.33,0,0,0,.66,1.87h1.72c2.62,1.66,5.32.5,8,0-.38,1.33,1.36,2.45,5,3.38l2.18-2.85a7.51,7.51,0,0,0-6.62-4.13l0-.11c-1.47-2-3.77.26-5.19-2a8.18,8.18,0,0,1-1.64,0l-1.89.63h0l-5,.32h0c-3-1-6.18-1.16-8.55-4.59,1.4-.31,2.81-.58,4.21-1s2.12-1.34,1.91-3.49c-.55-5.68,2.31-3.38,3.9-4.08l.38-.57s0,0,0,0l-.39.53c1.59,2.19,3.51,2.93,5.47,1.35,2.67-2.15,5.48-2.39,8.3-2.86h0l1.73-.11c1.88-.24,3.9.07,5.12-3h0c1.33-1.26,1.61-3.23,1.66-5.34h0l5.06-3.12h0l1.71-.11,3.76-.37,7.26,1.63c1.32.69,2.16-.15,4.37-2.67l.1-2.38q-.93-1.26-1.83-2.58H923l-2.28-4.52.48-.61c-.79-1.83-2-2.46-3.38-2.38a3.31,3.31,0,0,1-3.45-2.2l1.06-1.23c3.13,1.2,5.92,1.4,7.36-2.24h0v-1.18l0-1.18-3.27-4.9h0l3.21-.54h0l8.65-.6.49-.15.38,0a2,2,0,0,1,1.18.9,2.25,2.25,0,0,0,1.34-1.09h0c.09-.85,0-2.06.31-2.5,1.72-2.27,1.84-4.83,1.62-7.46l-.38-7.59v-.73h0a3.71,3.71,0,0,0,3.24-3.15c0-.79,0-1.57,0-2.36h0v-.06l1.69-.1a3.42,3.42,0,0,0,2.8,2.2c2.5.13,4.56-2,7-2.38-.91-4.38-4-2.39-4.75-5.5a1.85,1.85,0,0,0-2.85-.84,4.55,4.55,0,0,0-.53,1,25.65,25.65,0,0,0,.46-3.65c2,1,4,3.1,6.3.69l.07-.4a6.6,6.6,0,0,0,1.6,0l1.78,0h0c1.27,2.87,3.27,2.18,5.14,2.13,1.77-1.85,1.65-4.5,1.65-7.11l-1.6-3.08q-1.78-1.27-3.59-2.53c-3.56-3-7.45-1.94-11.28-1.57l-5.11-1.81-.5-.48c1.62-3.52,5-5.19,4.84-10.58h0l1.64-.18h0c2,4.31,2,4.34,5.16,2.09,1.8-1.61,2.38-5.87,5-5.68l.08.05c1,2.23,2.51,2.51,4.14,2.07.4-.11,1.1-.82,1.08-1.07a2.38,2.38,0,0,0-.09-.45c1.65-.91,3.19-3,5.08-1.54,1.53-.31,2.71-1.06,2.1-3.95-.54-2.58-.43-4.92,1.2-6.73,1.29-2.57,3.86-3.7,3.88-7.73a6.61,6.61,0,0,0-2-3.86A4.42,4.42,0,0,0,967.89,393.13ZM142.8,692.94h0l.13.18Zm97.77,35.9a.83.83,0,0,1,0-.15h.09l-.05-.21h0l.13,0a2.09,2.09,0,0,0-.08.23Zm-82.14-29.41ZM140.82,118.81l0,0h0l-.06,0S140.81,118.83,140.82,118.81Zm260-97,0,.06h-.06ZM523.62,10.62a.93.93,0,0,1,0,.1l-.1,0A.61.61,0,0,1,523.62,10.62ZM795.55,663.94l.11.21h0ZM302.77,723.77c0,.33.06.67.08,1l0,.17C302.81,724.56,302.79,724.17,302.77,723.77ZM889,509c-.13-.19-.38-.55-.38-.56h0c.13.18.25.37.38.56ZM219.84,702.07c0-.09,0-.19-.07-.29h.07ZM116.49,445.61l-.35,0a3.34,3.34,0,0,0,.16-.38A3.9,3.9,0,0,1,116.49,445.61Zm238.4-414.9L355,31l-.21,0,.05.19h-.17l.12-.2Zm-217.51,288,0,.11h-.09A.67.67,0,0,1,137.38,318.68ZM116.78,439h0l.16-.05A.94.94,0,0,1,116.78,439Zm17.06-120.43c.06.16.12.33.17.5h0l-.31.07C133.75,318.9,133.8,318.71,133.84,318.53Zm588.8-209c0,.14.07.29.1.43h0l-.23,0C722.55,109.78,722.59,109.62,722.64,109.48Zm105,71.71h0ZM137,436l0-.07H137Zm-68.21-90.3s0,0,0-.06l.67.05v0c-.1-.16-.19-.33-.28-.51.13,0,.26.17.39.5h-.11v0l0,.18A2.4,2.4,0,0,1,68.74,345.74ZM815.61,134.88l-.19.26C815.24,134.86,815.31,134.77,815.61,134.88Zm118,250.34a3.07,3.07,0,0,1-.26.4l.25-.41Zm-7.89,42.2h0l.26-.06-.18.19ZM625.82,665.25l-.15,0a1.33,1.33,0,0,0,.14-.19C625.81,665.14,625.82,665.19,625.82,665.25ZM72.14,348.38a7.93,7.93,0,0,0,.21,1.34,8.05,8.05,0,0,1-.26-1.15Zm858.34,47.39s0,0,0,0a.6.6,0,0,0-.08-.08,1.86,1.86,0,0,0,.1-.2v.26ZM178.28,312.4h0l.09.14,0,.1Zm653,217.24-.17,0a9,9,0,0,1,.13-1.75C831.25,528.46,831.26,529,831.26,529.64ZM475.55,663a.42.42,0,0,1,0,.1h0Zm-189.46,6.77h0a.06.06,0,0,0,0,0l0,0,0,0Zm-135-331.41h.25c0,.07-.11.11-.16.17A1,1,0,0,0,151.07,338.36Zm-46.77,79.7h0Zm754.16-54.78v0h0ZM581.24,634.19c0-.46-.07-.91-.11-1.36l.5-.05A13.08,13.08,0,0,1,581.24,634.19Zm167.33-498,.08.08h0v0l0,0h0Zm161.17,271.5.12.17h0ZM97.28,395.31l0-.06h-.07l.07-.15v.14l.08.06ZM786.71,190.1h0L787,190c-.05.12-.1.24-.14.37C786.79,190.3,786.76,190.2,786.71,190.1Zm14.15,35.21v.3c-.05-.1-.11-.18-.16-.29h.16ZM370.9,612.7l.08.06-.08.06ZM264.74,588.4l-.25,0,.16-.28c0,.07.08.13.12.21Zm244.48,35.42s0-.09-.05-.13h.15ZM201.61,422.33h0l.09-.07c0-.09.05-.18.08-.27l.13.24-.21,0Zm-6.93-15h0l0-.06h0ZM715,193.94h.09l0,.11ZM267.13,319.88l.22.23h-.11l0,.07-.08-.07h.13Zm156.4,262h0v0ZM339.82,579h0a2,2,0,0,1,.41-.67l-.41.67h0Zm-5.6-382.27c0,.07,0,.13.07.19l-.17,0C334.15,196.91,334.19,196.84,334.22,196.76Zm281.71-9.53c0,.11,0,.21,0,.32a3.45,3.45,0,0,1-.28-.26Zm-98.3,414.86-.06.18-.06-.19Zm-1.12-.09a3.51,3.51,0,0,0-.23.37,2.41,2.41,0,0,1,.22-.37ZM291.1,307.4h0l-.12.21h0ZM667.18,187.83v0h0ZM334.89,285.2a2.67,2.67,0,0,0,.3.17h0a.6.6,0,0,1-.05-.16l.12.05-.07.11h0v.16a1.09,1.09,0,0,0-.74-.1A1,1,0,0,1,334.89,285.2ZM543.57,168.06l-.06,0a3.77,3.77,0,0,0,.39-.48A3.79,3.79,0,0,1,543.57,168.06Zm168.81,101.6.2-.05-.11.18Zm22.68,82-.09,0c.06-.07.12-.13.18-.21A1.45,1.45,0,0,1,735.06,351.68ZM283,355.15h.1c0,.08-.07.16-.1.23ZM743.1,397a1.1,1.1,0,0,1-.41-.06v-.13A1.48,1.48,0,0,0,743.1,397Zm-54-68.06s-.07,0-.09.11l0-.07h.08a.25.25,0,0,1,0-.07Zm-60.59-75.18h0a6.45,6.45,0,0,1,.84-.21,7.73,7.73,0,0,1-.08,1.67A2.9,2.9,0,0,1,628.54,253.79ZM269.58,385l.06,0-.06.07Zm182-169.49c0,.41.07.83.13,1.25-.07-.35-.12-.71-.17-1.08ZM687.28,329.06l-.1.1s0-.06.06-.14ZM568.54,235.57v0l-.09.15h-.06Zm-143.33,2.64c-.1-.13-.19-.26-.28-.4l.27-.07C425.2,237.9,425.2,238.06,425.21,238.21Zm216.54,31.61a20.94,20.94,0,0,0,.49,2.82A7.8,7.8,0,0,1,641.75,269.82Zm31.72,74.47a6.71,6.71,0,0,1,.27-.67C673.78,344.05,673.65,344.21,673.47,344.29ZM481.88,443.9h0l-.13,0c0-.08,0-.15,0-.23Zm-66.43,14.33a3.9,3.9,0,0,0-.17-.48h.16C415.45,457.9,415.45,458.06,415.45,458.23ZM512.22,230.4h0l-.12.34a2,2,0,0,0-.05-.33h.17Zm10.51,27.67v.08l-.06-.07ZM401.48,313.71l.07.11-.06.12A1.55,1.55,0,0,0,401.48,313.71Zm-58.65,42.45a3.14,3.14,0,0,1,.87.08,3.17,3.17,0,0,1-.67.13C343,356.3,342.9,356.22,342.83,356.16Zm31.26,63.64h0ZM536.82,301h0l0,.05v.12l-.06-.11h.06Zm98,69.26-.3-.42a5.11,5.11,0,0,1,.64-1.28C635.07,369.07,635,369.63,634.83,370.3Zm-16.58,11.21c0,.05,0,.1-.07.16h0A.71.71,0,0,1,618.25,381.51Zm6.21-25.89,0-.05c0-.09,0-.18,0-.28a.91.91,0,0,0,.11.16A.89.89,0,0,0,624.46,355.62ZM492.29,286.86c-.19.38-.38.76-.56,1.15a6.73,6.73,0,0,1-.14-1.4ZM542,313.07c0,.18.08.36.12.51h0l-.27,0C541.86,313.43,541.92,313.24,542,313.07Zm38.27,59.48,0,.06h-.06Zm-32.82-25.91c0,.1.08.19.12.3l-.15,0A1.82,1.82,0,0,0,547.41,346.64Zm-98.59,32.61h0l-.2,0c0-.07.05-.13.07-.2l.13.18Zm-18.74,4.28H430a.61.61,0,0,0,.05-.12v.12Zm27.57-35,.6,0-.61.08Zm76.07-15.91-.67-.07a4.72,4.72,0,0,1,.66-.68C533.71,332.08,533.71,332.33,533.72,332.58Zm-74.85,58.79.32,0h0l-.2.51A4.21,4.21,0,0,0,458.87,391.37Zm18.78-33h0v-.09l.1.08ZM491.37,365v0h0v-.32a2.06,2.06,0,0,0,.12.26Zm92.07,11.75c.25.45-.34,1.62-.63,1.08a3.73,3.73,0,0,0-.34-.53A7.41,7.41,0,0,0,583.44,376.74Zm-54.73-74.27-.42-.65h0l.6-.05C528.83,302,528.77,302.25,528.71,302.47Zm-46.52-4.4,0,.12h-.05l0,0S482.18,298.1,482.19,298.07Zm2.36,7.69a3.08,3.08,0,0,1-.63.74c0-.23,0-.46,0-.69Zm-95.11,28.05c0-.4,0-.8,0-1.23l.89-.08A6.45,6.45,0,0,1,389.44,333.81Zm-29.61,35.25h.08c0,.07-.06.13-.08.19ZM558,382.25l.1.13-.14.05C558,382.37,558,382.31,558,382.25Zm18.54-35.31c-.11.23-.24.42-.36.62-.07-.24-.14-.48-.22-.71l.58.09Zm-27.78-25.83,0-.07.15-.26A2.59,2.59,0,0,1,548.76,321.11ZM482.22,306h0l0,.11-.08-.1ZM422.6,316.54h0Zm-47.52,27.68h0v-.07ZM525.84,401Zm106.36-6.07.18-.13a2.77,2.77,0,0,1,.48,1.34C632.66,395.72,632.44,395.31,632.2,394.91ZM549,320.75v0h0l0,0,.07-.19.07.18Zm3.32-10.65h0s0-.05,0-.07l.05.1ZM535,294c0-.15.06-.29.09-.45h0l.05.06C535,293.7,535,293.84,535,294ZM374.1,419.79c.07-.15.15-.26.22-.4,0,.13.06.24.09.35l-.31.05ZM410.5,304.6l0,0h0v0h-.06l0-.09Zm-44.93,116ZM560,408.3h.09a1.93,1.93,0,0,1,0,.24C560.07,408.46,560,408.39,560,408.3Zm31.8-75.73h0a1.42,1.42,0,0,0,.05-.16,1.18,1.18,0,0,1,0,.2ZM465.09,299.7h0l-.21.45c-.05-.13-.09-.27-.14-.42ZM365.56,420.57h0Zm-36.32-43.63c0-.11,0-.21,0-.31,0,.1.05.2.08.3h-.09v0h0ZM587.43,411h0v0Zm-143-127.88V283l.06.14ZM321,393.06h0ZM422,431.12v0h0v0a.2.2,0,0,0,0,.07l0-.06Zm55.67-7.62c0-.33.08-.64.1-.93a4.74,4.74,0,0,1,.5.87Zm27.9-10.83c0,.14,0,.29,0,.43h0l-.44,0Zm114.73,9.18-.33-.75c.24-.09.46-.15.69-.22A7.65,7.65,0,0,1,620.31,421.85ZM364.53,329.12c0,.14.07.28.11.43h0v0l0,0-.25,0C364.44,329.42,364.49,329.27,364.53,329.12ZM396.7,456.77Zm27.33-5.1-.08.09-.11-.22Zm41.47-6.18,0,.12a4.19,4.19,0,0,1-.42,1.05A5,5,0,0,0,465.5,445.49ZM682.86,387s0-.09-.05-.13h.1ZM615.45,309.6l0-.1.08.09Zm-55-40.09h0ZM464.72,271l.09.11h-.13A.56.56,0,0,1,464.72,271ZM324.14,351.34a.42.42,0,0,1,.15-.11s.07,0,.11,0Zm10.7,69.37v0h0Zm12.1,14.57c-.07.17-.12.34-.18.52l-.09-.5Zm49.3,21.62.4,0,.06-.09h0l-.06.1c-.07.19-.12.37-.19.56Zm24.06-5.77,0,0a2,2,0,0,0-.27.17ZM313.9,378.39h0c0,.13-.08.24-.12.36,0-.11-.07-.22-.11-.34Zm17.49,42.52,0,.12h-.06Zm152,39.73h0Zm50.28,38.49.21-.05-.09.29C533.77,499.29,533.73,499.22,533.69,499.13Zm140-155.78v0h0Zm-153.25-139,0-.35s0,0,0,0,0,.24,0,.36ZM370.94,281.94l.09.15h-.11A.78.78,0,0,0,370.94,281.94Zm-18.1,40.86-.21,0h0l.15-.3ZM363,473.31l.19.27a1.19,1.19,0,0,1-.2-.19Zm103.76-9.73-.21,1.18c0-.39-.1-.78-.16-1.18Zm64.11-247.86-.08.11a.28.28,0,0,0,0-.09Zm-10-11.71,0-.07.06.06ZM381.21,281.14s0,.07,0,.1h-.07A.31.31,0,0,0,381.21,281.14Zm-10.3-4.25-.55.28a2,2,0,0,1,.41-.59,2.92,2.92,0,0,1,.14.31ZM288.66,394h0s0,0,0,0Zm41.2,37.69.11,0a1.85,1.85,0,0,0,0,.23c0-.07-.05-.13-.07-.2Zm1.84,18h.15a2.17,2.17,0,0,0-.07.24A2.09,2.09,0,0,1,331.7,449.65Zm201,29h0l-.12,0Zm26.15-8h0a2.39,2.39,0,0,1-.36-.35C558.56,470.4,558.68,470.52,558.8,470.64Zm8.54-28.88-.09-.28h.17C567.39,441.56,567.37,441.66,567.34,441.76ZM678.18,265.39a2.51,2.51,0,0,0-.16-.46h.16Zm0-.47v0h0Zm-110-28.18s0,0,0,0l0,0A.64.64,0,0,1,568.15,236.74ZM350.72,317.6l.13.15,0,0,0,0v-.07l-.17.05A1.42,1.42,0,0,1,350.72,317.6Zm44.5,170.3a2.7,2.7,0,0,1,0,.28h-.18C395.12,488.09,395.18,488,395.22,487.9Zm94.47-24,.35-.13-.33.15ZM594.35,249h0s0,0,0-.05ZM579.43,463.8h0l-.09.19c0-.07-.05-.14-.07-.2Zm144.15-59.4a.77.77,0,0,1,.28-.2c-.05.1-.09.22-.14.31ZM679.87,262.16h0s0,0,0,.05v0h0ZM530.45,517.65a.65.65,0,0,1,0,.13l0-.11Zm62.63-55.07,0,0h0v0h0Zm87.47,39v.18a2,2,0,0,1-.1-.26l.1.08-.19-.48a2.52,2.52,0,0,0,.24.43A.12.12,0,0,0,680.55,501.55ZM606.36,253.62c0-.15,0-.3,0-.45h0l.19,0A3.27,3.27,0,0,0,606.36,253.62Zm-56.72-37v0l0,0ZM486,172.88v0h0v0h-.08s0-.08,0-.13Zm-61.08,39.37,0,.09s0-.05,0-.08Zm-52.37,9.64,0,.08a6.72,6.72,0,0,1-.28.67C372.42,222.38,372.48,222.14,372.57,221.89Zm-30.24,70.78.29,0C342.45,292.84,342.3,292.92,342.33,292.67ZM330.25,304h0l-.19.3c0-.09-.05-.18-.09-.27ZM531.91,530.27l.37.23h0l-.48,0Zm32.38-33.7.1-.18v0s0,0,0,.05,0,0,0,0,0,.22,0,.33ZM725.65,375.83a5.68,5.68,0,0,0-.27-.63v0h0v0l.31,0C725.68,375.44,725.67,375.64,725.65,375.83ZM682,287.19a2.82,2.82,0,0,1,1.17-2c-.3.6-.59,1.21-.86,1.84Zm-416.48,110,.84.37-1,.19C265.4,397.57,265.46,397.38,265.49,397.19Zm101.11,130s0,0,0,0h0S366.6,527.17,366.6,527.15Zm197.89-20.33Zm143.24-18.07,0-.06h.06l-.11.22A.78.78,0,0,0,707.73,488.75Zm16-127.62v-.05h0ZM337,280H337l-.16.17v-.06Zm-74.63,99.09v.08h-.8Zm25,74.63h0l.16,0a9.67,9.67,0,0,1-.5,1.6C287.13,454.85,287.23,454.32,287.36,453.68Zm164.05,71.78.57-.74c0,.38,0,.77,0,1.16A2.25,2.25,0,0,1,451.41,525.46Zm140.07-49.72h0l0,0h0v0Zm113,31.46.11-.07-.09.2,0-.07S704.53,507.22,704.53,507.2Zm10.3,9.51h0l0-.06v0h0Zm32.72-140.87-.11.24a1.77,1.77,0,0,0,0-.23h.12l0-.08v0ZM625,243.69Zm-97.57-80.14h0Zm-29.76-20.17,0-.15h.07C497.72,143.28,497.71,143.33,497.69,143.38ZM254.52,415l0,0,0,0Zm51.74,52.5Zm0,0ZM516.93,531.9h0a.76.76,0,0,0,0,.11l-.06-.11Zm55.6,13.37a4.91,4.91,0,0,1,.17-1.66,3.18,3.18,0,0,1,.69,1.44A4.19,4.19,0,0,1,572.53,545.27ZM757.88,377.58l0-.11h.08A.61.61,0,0,1,757.88,377.58Zm-45.5-107.93,0,0,0,0ZM691.57,235.2l0-.11.06,0Zm-73.51-3.93h0v.11A.5.5,0,0,0,618.06,231.27Zm-87-76h0V154c0,.42,0,.84,0,1.26Zm-72.43,12.32v0ZM258.06,427.64v.25l-.11-.11Zm48.2,39.88c-.14.16-.27.33-.4.5,0-.14-.09-.3-.14-.45Zm21.07,58h0a1.58,1.58,0,0,1,.13-.26c0,.07,0,.15.08.23l-.21,0h0Zm153.58,9.29.07-.14a1.67,1.67,0,0,1,.13.45h0C481,534.93,480.91,534.8,480.91,534.8Zm20.53-14.54v.35l-.23-.16ZM508,152.68a.41.41,0,0,1,0-.11l0,.07ZM278.76,464.6l.17.16h0l-.19,0C278.75,464.72,278.75,464.66,278.76,464.6Zm83,94.24h0v-.18l.06.18h-.08Zm135.78-31.08a.19.19,0,0,1,0,.07l-.3,0Zm52.09,35h0v0Zm163.58-35.71.1.12-.1,0Zm35.83-172.2h0s0-.05,0-.08v.08ZM329.49,228.61h0v0l-.11,0a1.14,1.14,0,0,1,.11-.11Zm-33.14,78.47.08.14-.15,0A1.22,1.22,0,0,0,296.35,307.08ZM218.21,392a1.26,1.26,0,0,0,.23.13v.07a1.5,1.5,0,0,0-.24-.2Zm.21.08.1.05h-.08S218.43,392.13,218.42,392.11ZM455.67,553h0l-.15.62a6.26,6.26,0,0,0-.51-.39A4.67,4.67,0,0,1,455.67,553Zm94,9.9a.45.45,0,0,0,0-.11l.12.07Zm15.46,8.76.12,0-.12.09Zm25.07-46.38.06,0c0,.08,0,.15,0,.22S590.21,525.35,590.21,525.28Zm73.52,3.84h0Zm44.47,6.29a.16.16,0,0,1,0,.07h0ZM749.1,354.8h0l0-.13a1.12,1.12,0,0,0,.05.13Zm-9.31-77.21h0l-.55.37a4.54,4.54,0,0,1,.54-.93ZM711.92,223v-.16l.35-.14A3.44,3.44,0,0,1,711.92,223ZM277.67,332.18h-.08l0-.08ZM532.78,579.91h0l-.18-.12a1.63,1.63,0,0,1,.11-.17c0,.1,0,.19.07.29h0ZM381.54,162.44c.18-.66.88-.77,1.42-.73a1.81,1.81,0,0,1,1,.38C383.26,162.15,382.48,162.28,381.54,162.44ZM295.93,288.91h-.31c.07-.17.15-.34.23-.51C295.88,288.56,295.9,288.73,295.93,288.91ZM298.28,536l.13-.09h0a1.49,1.49,0,0,1,0,.21ZM379,565.14Zm8.17,1.84.37,0h0l-.27.43C387.21,567.25,387.18,567.12,387.14,567Zm75.59-4.11-.12-.07,0,.08-.1,0,.06-.1h0v-.5a1.06,1.06,0,0,0,.56.21A.9.9,0,0,1,462.73,562.87Zm-.15-2.66v0Zm55.05,41.88-.24-.44a1.83,1.83,0,0,1,.35.41Zm81.2-75Zm142.84,6.09a1,1,0,0,1-.1.46,8.25,8.25,0,0,1,.06-1.36C741.64,532.61,741.66,532.9,741.67,533.22ZM741,242.29l-.13-.06h-.08a4.63,4.63,0,0,1-.28-2.29A21,21,0,0,1,741,242.29Zm-63.34-55-.27-.41.32,0C677.69,187,677.68,187.17,677.66,187.32ZM611.94,172.5l0-.52.45,0h0Zm-61.32-34a.22.22,0,0,1,0-.08h.07S550.63,138.5,550.62,138.53ZM307.54,251.43h.09a.94.94,0,0,1,0,.16A1.42,1.42,0,0,0,307.54,251.43Zm-36.83,81,.06.24.12.19h-.13v-.2l-.18,0C270.63,332.61,270.66,332.52,270.71,332.42ZM216.63,381.9a1,1,0,0,0,.07-.15.5.5,0,0,1,0,.13l-.11,0ZM341.48,573.69l-.4,0a5.55,5.55,0,0,0,.35-.46C341.45,573.42,341.47,573.55,341.48,573.69Zm44.36,3.67a1,1,0,0,1,.07.15h-.12Zm213-50v-.2h0v0h0l.08,0A1.09,1.09,0,0,0,598.85,527.32Zm148.52-3a.31.31,0,0,0,0-.1h0A.65.65,0,0,0,747.37,524.28Zm23.77-10.08h0ZM596.71,142.09l-.35.14c.12-.1.22-.2.35-.29v.15Zm-94.07-14.94-.35,0c0-.15.12-.31.16-.46C502.52,126.86,502.58,127,502.64,127.15ZM268.91,319.8c0,.05,0,.11,0,.16h0l-.24,0A1.16,1.16,0,0,0,268.91,319.8Zm7.39,225.9,0,0v0Zm19.2,8.68.05,0,.14,0,0,.06Zm43.41,24.73.91-.08c-.32.68-.63,1.38-1,2l0,.08A7.59,7.59,0,0,1,338.91,579.11Zm96.81,27.62,0,.07,0,.05h0ZM540,618.32h0v-.22c0,.06,0,.13.08.2Zm183.55-405a3.2,3.2,0,0,1,.21.64l-.45,0Zm-287.5-85.41v0Zm0,0v.14l-.06-.14ZM332.22,160.73c0,.37-.1.74-.15,1.11a8.8,8.8,0,0,1-.26-1.07Zm-68.4,339,.09.25h-.17A2,2,0,0,0,263.82,499.74Zm12.5,45.94a2.43,2.43,0,0,1,.13-.38l0,.33ZM471.4,567.23h-.11l-.08-.12.06-.16C471.31,567,471.35,567.13,471.4,567.23ZM824.76,413.94a3,3,0,0,1-.45-.28c-1-.06.69-1.53.42.16A.18.18,0,0,0,824.76,413.94Zm-90.7-195.71c.1-.12.18-.26.28-.39,0,.13,0,.25,0,.37Zm-188.77-94.9h0v0h-.17a3.35,3.35,0,0,0,.16-.54c0,.18,0,.35,0,.53l0,0Zm-98.55-8.21c.33.11.67.19,1,.27a9.72,9.72,0,0,1-3.53-.26C445,115.07,445.87,115.1,446.74,115.12ZM357.79,155.8l-.12.19a.83.83,0,0,0,0-.15l.16,0v0h0v0Zm-131.42,176v-.24h.09Zm-9,127.7v.33l0,.06-.29.07C217.19,459.83,217.3,459.68,217.41,459.53Zm32.51,12.81h0v0h0ZM399.84,604.81v.06l0,0ZM427,610.36a2.71,2.71,0,0,1,2-.5c0,.07,0,.13,0,.2a7.86,7.86,0,0,0-1.67.2Zm340.09-77v0Zm-28.18-341.5-.05-.11h.11Zm-34.2-10v0ZM278,556h.11a1.36,1.36,0,0,1,0,.17Zm51.56,21.4,0-.08v0l0,0v.13l-.06-.12Zm214,51Zm63.77-28.07c0,.25,0,.5,0,.75,0-.24,0-.5,0-.75ZM795.15,499l-.06.42a3.78,3.78,0,0,1-.17-.35Zm16.37-121.42h0a1.64,1.64,0,0,0,.51-.3C812.06,377.73,811.5,378.21,811.52,377.62Zm-19.39-24.69q.11.4.21.78c-.18,0-.37-.09-.56-.12v0h0A6.75,6.75,0,0,1,792.13,352.93ZM297.23,249.72l0-.05v0l0,0-.06.1a.28.28,0,0,0,0-.09ZM777,220.53c-.06-.27-.14-.56-.21-.88l.34,0A7.66,7.66,0,0,1,777,220.53ZM689,152h0l.28,0c0,.11-.07.22-.1.33-.06-.1-.12-.18-.18-.29h0Zm-10.44.79-.06,0a.17.17,0,0,1,0-.07l.07.07ZM285.16,230l-.05,0h0v-.09ZM233.7,564.89l.09.22h0l-.13,0A2,2,0,0,1,233.7,564.89Zm261.63,46.64a2.31,2.31,0,0,1,.21.35l-.4,0Zm102.58-8.78,0-.08h0S597.92,602.73,597.91,602.75Zm127.84-4.65a2.74,2.74,0,0,1,.14.88l-.24,0A2.76,2.76,0,0,0,725.75,598.1Zm25.62-35.7.06-.13A.26.26,0,0,1,751.37,562.4Zm21.1-372.14s0,0,0-.06h0S772.48,190.24,772.47,190.26Zm-433.63-51h0a.08.08,0,0,0,0,0v-.06Zm-49,61.6.11.06h0l.09.12-.19-.18Zm-87.4,141.52a.11.11,0,0,0,0,.05,1.34,1.34,0,0,1-.26-.09A1.36,1.36,0,0,0,202.45,342.39ZM200.29,466.5l.11.16-.27.06A1.77,1.77,0,0,1,200.29,466.5Zm292,171.92c0-.11,0-.22,0-.33l.13.1h0A1.63,1.63,0,0,1,492.27,638.42Zm292-418.28a4.08,4.08,0,0,1-.67-1.08h0L784,219C784.07,219.39,784.14,219.78,784.22,220.14ZM601.59,110.36a5.73,5.73,0,0,1-1.29.23,9.57,9.57,0,0,1,.68-1.11,5.21,5.21,0,0,1,.61.88Zm-54.78-8h0Zm-12.23-1c.08-.17.16-.35.24-.51l-.42.1a1.33,1.33,0,0,0,.26-.39c.05.1.11.18.17.29H535A1.8,1.8,0,0,1,534.58,101.33Zm-178.88,13c0-.11-.09-.47.06,0Zm0,0h0v0Zm1.81,10.29a8.75,8.75,0,0,1-.48.86c0-.52-.08-1-.15-1.52A8.11,8.11,0,0,0,357.49,124.62ZM110.71,375.73v-.36a3.59,3.59,0,0,0,.12.35Zm89.38,94.56a1.65,1.65,0,0,1-.93-1.56l1.34.66v0h0A4.51,4.51,0,0,1,200.09,470.29Zm29.17,97.85.76-.09a4.94,4.94,0,0,1-.77.12Zm6.47,17.66h0l0,.16c0-.05,0-.09,0-.13l.09,0Zm133.46,27.05,0,0h0l0,0Zm38.09,20.67h0s0,0,0,.06A.43.43,0,0,1,407.28,633.52Zm325.55-27.33.06-.11v0c0,.08,0,.15,0,.21s0,0,0,0A1.42,1.42,0,0,1,732.83,606.19ZM871,409.36c0-.13-.09-.27-.13-.4h0l.28,0C871.09,409.08,871,409.22,871,409.36Zm10-9-.09-.08H881l-.11-.24a1.54,1.54,0,0,0,.19.17l-.08.07ZM807.07,347ZM193.49,451.68h0l-.1-.11,0-.05ZM205.6,471.6l-.07-.15,0-.17a.61.61,0,0,1,.07.1l0,.07.14,0C205.65,471.49,205.62,471.55,205.6,471.6Zm7.05,20h0l-.06.13s0-.09,0-.13ZM831.19,483l.24-.06v0Zm26.46-53.62c-.08-.31-.18-.62-.29-.93h0l.59.08A5.31,5.31,0,0,1,857.65,429.35Zm10,.83-.06-.09h0a.41.41,0,0,0,0,.09ZM818.9,335.54H819l-.07.14ZM251.89,160a.71.71,0,0,1,.08.15h0l-.14,0ZM126.47,410.72s0,.09,0,.13h0Zm78.39,159.65h0v.14s0-.1-.05-.14h.05Zm106.29,42.49c0-.05,0-.09,0-.14s.1.16.14.24l-.15-.1Zm46.17,3.84,0-.18.11,0Zm171.07,48,.1.06a2.51,2.51,0,0,1-1.5-.91l.11.08A2.66,2.66,0,0,0,528.39,664.71Zm-1.46-1h0l-.06-.07v0ZM817.31,517.87h0v0ZM406.63,83.69l-.29.15c0-.24-.06-.48-.1-.72q.19.25.39.57Zm-.36,4.55.36.71-.52.23C406.18,88.87,406.22,88.55,406.27,88.24ZM278.93,142.09l.18,0,0-.13h.1a.57.57,0,0,1-.08.13c0,.15,0,.3,0,.45a.1.1,0,0,1-.05,0C279,142.35,279,142.22,278.93,142.09Zm2,4.89h0l-.14,0c0-.06,0-.11,0-.17ZM126.42,410.85h0a1.46,1.46,0,0,1-.16.19Zm1.66-.16h0v0Zm0,0c0-.13-.07-.24-.1-.34a.66.66,0,0,1,.26.32Zm67.33,74.43,0,0h0ZM206.36,500a2.27,2.27,0,0,0-.06.25,2.17,2.17,0,0,1,0-.25ZM311.14,612.87ZM746,604.1a2.16,2.16,0,0,0,.38.63.92.92,0,0,1-.46-.32Zm20.9-3.6v0c0-.13,0-.26,0-.39a2.25,2.25,0,0,0,.19.38Zm21.85-33.19h0l-.12-.08a4.48,4.48,0,0,0,.41-.52l-.29.6h0l.05,0-.05.05ZM904.88,398.07v0h0ZM818,226.78c-.05-.15-.11-.29-.16-.46l.26,0C818.05,226.46,818,226.63,818,226.78ZM498.66,70.07v.08l0,.06-.05,0ZM195.37,284.47h0c0-.09.09-.19.14-.28C195.46,284.28,195.41,284.38,195.37,284.47Zm-28.78,52.31.06.15h-.14Zm-10.11,6.28h-.16a5,5,0,0,0,.15-.67C156.48,342.62,156.48,342.84,156.48,343.06ZM134.26,340l-.08-.06.08,0Zm-27.12,9.87c0,.11,0,.22,0,.34l-.15-.05C107.06,350,107.1,349.94,107.14,349.84ZM71.8,413.17c.08.2.15.41.23.61a2.65,2.65,0,0,1-.89.29l.66-.9Zm58-2.64h0Zm0-.06,0,.07h-.06ZM268.65,632.28h0v-.16l.11,0A2,2,0,0,1,268.65,632.28Zm83.59,17.56c.08.3.17.61.26.92l-.62.16A8.55,8.55,0,0,1,352.24,649.84ZM432.92,667h0l.15,0c0,.1,0,.19,0,.28A2,2,0,0,1,432.92,667ZM726.46,122.74l-.11,0,0-.08ZM472.86,49.21l0-.05,0,0S472.86,49.18,472.86,49.21Zm-92.19,5.62h0l0,0Zm-42.22,45.44-.19,0a3.72,3.72,0,0,1,.19-.34Zm-182,240.34-.09-.17.09,0Zm-30.38-1c.81-.49,1.53-.09,1.93.85A2.45,2.45,0,0,1,126.07,339.63Zm44.81,77.63v.16l0-.05A.54.54,0,0,1,170.88,417.26Zm18.45,136.18,0,.08h0ZM373,654.15h0Zm58.16,13v0h0l0,0,0,.11,0-.1Zm44.34-6.52v-.07l0,0h0v0h0Zm78.69,13.73v.35a.81.81,0,0,0-.72-.09A1,1,0,0,1,554.22,674.35ZM841.79,358.61l-.21.44a2.78,2.78,0,0,1-.35.46l-.08,0A5.34,5.34,0,0,0,841.79,358.61Zm-8.23-97.23,0-.08.06.06Zm-16-61.1,0,.08,0,0,0-.13c0-.14,0-.25,0-.39h.34ZM659.27,89.84c0-.06,0-.11,0-.17h.08ZM379.05,62.76v0h0ZM203.55,264.15c0-.25,0-.5-.05-.74h0l.49-.05C203.85,263.63,203.7,263.9,203.55,264.15Zm-30.27,61.76.13.14a2.67,2.67,0,0,0,.14.34l0,0a5,5,0,0,0-.37-.5Zm-21.84,7.25h0Zm11.18,99.31s0-.05,0-.08l.35.06A1.88,1.88,0,0,1,162.62,432.47ZM302.79,634.33l0,.09h-.06Zm17.45,40.15h.05v.07Zm349.9-38.83c-.06-.13-.13-.24-.18-.38l.33,0C670.24,635.38,670.18,635.52,670.14,635.65Zm102.12-30,.09.11,0,.06Zm35.22-55.55-.13-.09h0v-.2c0,.1.09.2.13.3h.28c0,.2-.08.39-.13.58Zm-59-429.32a.35.35,0,0,1,0-.08l.08,0ZM548.19,73.54l.12-.48c.06.14.12.3.18.46ZM244.88,134.68v0h0Zm-88.63,185Zm67.93,311.22.06.18.16.11-.21,0,.05-.15-.13,0C224.13,631,224.16,630.94,224.18,630.89Zm0,.33Zm73.58,8.9.1.09a2.17,2.17,0,0,0-.19,1A1.85,1.85,0,0,1,297.77,640.12Zm75.33,45,.22.26h0l-.23.07C373.08,685.34,373.09,685.23,373.1,685.12Zm50.26-2.36.1,0a2.37,2.37,0,0,0-.15.28A2.88,2.88,0,0,1,423.36,682.76ZM794.64,129.48a.5.5,0,0,1,0-.13l.09.12ZM312.69,87h0ZM168.12,129.89v0Zm.32,33.77c0,.27,0,.54,0,.81a3.49,3.49,0,0,1-.18-.66ZM85.66,432.74h0v.07l0-.07Zm0,2.53v.06h0S85.68,435.29,85.69,435.27ZM586.6,663.66l0-.13h.1Zm39.22,1.6h0l.13-.06a2,2,0,0,1-.22.27C625.76,665.39,625.79,665.34,625.82,665.26ZM676.61,662V662l-.75.05C676.11,662,676.36,662,676.61,662ZM753,643.06l0-.07.56-.09ZM925.71,427.41h-.06l.11-.11A.93.93,0,0,0,925.71,427.41Zm-.54-54.48,0-.07h0S925.17,372.91,925.17,372.93ZM211.75,244.85l-.21-.38.34,0C211.83,244.59,211.79,244.71,211.75,244.85ZM106.19,436.27v-.18h.07A1.07,1.07,0,0,0,106.19,436.27Zm44,.31a5.24,5.24,0,0,1,.44.7l-1,.16C149.81,437.16,150,436.88,150.16,436.58ZM219.8,688.79l0,0,0,0Zm286.86,10.6.22.14-.22.17ZM741.79,649.6l.19,0-.1.18Zm96.27-110.06,0-.07h0ZM827.61,181.2h.06l0,.05Zm3.11-52.32h-.23c0-.09.08-.18.11-.27Zm-77-18.76c-.19-.15-.36-.29-.55-.46l.66-.06A4,4,0,0,0,753.72,110.12ZM630.11,68.85H630c0-.08,0-.16.08-.24A1.83,1.83,0,0,0,630.11,68.85ZM354.85,31.21Zm-20.09,43.3a.08.08,0,0,0,0,0h0S334.75,74.53,334.76,74.51Zm-62,21.18-.07.1-.06-.08ZM215.25,244.1h0l.43-.76a4.34,4.34,0,0,1,0,.72ZM50.65,347.2l.21.16h-.13l-.08-.08Zm11.09,90.13.06.16h-.12A1.15,1.15,0,0,0,61.74,437.33Zm.09,2.76h0c0,.08,0,.16-.08.25,0-.08-.07-.16-.1-.23Zm49.08-.23-.17.16-.11.07h0Zm46.57,10.94.84-.16a6.4,6.4,0,0,1-.68.27Zm58.94,228.08a1.75,1.75,0,0,0,1.73.33,4.81,4.81,0,0,1,1.09-.63,3,3,0,0,1,2,2.06h0a7.48,7.48,0,0,1-1.49.45h0l-5.15.33A6.64,6.64,0,0,0,216.42,678.88Zm34.18,27.9Zm387-31.6a2.11,2.11,0,0,0,.2.29,1.83,1.83,0,0,1-.21-.26Zm134.89-23.11h0a.24.24,0,0,0,0,.08l0-.07Zm159.8-235.78c0-.11,0-.21,0-.32,0,.11,0,.22,0,.34ZM929,357.67v-.08l.19.12Zm-23.67-12.93s0,0,0,.06a5.35,5.35,0,0,1-.35-.65C905.08,344.35,905.19,344.55,905.32,344.74Zm-796,103.69h0l-.22.14C109.15,448.52,109.22,448.48,109.28,448.43Zm39.77,7.25,0,0h0l0,0c0,.17,0,.34,0,.52a5.16,5.16,0,0,0-.09-.52Zm12.72,64,.07,0-.15,0ZM270.64,695.09a5.56,5.56,0,0,0,1.92,4.66,14,14,0,0,1-3.59-3.83A1.8,1.8,0,0,0,270.64,695.09Zm9.34-.66a5.2,5.2,0,0,0,2.64,1.91c-.64,1.47-1.07,3.16-1.69,4.65,0,.1,0,.19,0,.28a2,2,0,0,0-1.13-.74A14.14,14.14,0,0,0,280,694.43Zm69.44-7h0v.07a.08.08,0,0,1,0,0h0ZM440.36,17.74c0,.1-.05.2-.08.3a1.86,1.86,0,0,0,0-.33ZM84.7,311.87l.09-.1,0,0a3.83,3.83,0,0,1,.83,0A4.25,4.25,0,0,1,84.7,311.87ZM67.53,320h0V320l0,0Zm49,125.66,0,0-.06.07Zm32.58,12c0,.22,0,.44,0,.67H149A5.1,5.1,0,0,0,149.08,457.59Zm59.46,223.49a7.42,7.42,0,0,0-1.07-.82c-.15-.06-.29-.09-.44-.14-.07-.22-.15-.43-.23-.64.58.55,1.17,1.08,1.76,1.58Zm363.34,30.63a.92.92,0,0,1-.43.22l.23-.21h.2Zm101.79-35.08Zm110.89-17.32v-.52h0l.24.32Zm121.2-175.19v0ZM849.28,299l0,0h0c-.07-.77-.13-1.53-.19-2.3a2.59,2.59,0,0,1-.94-.26,6.56,6.56,0,0,0,.65-1.27c0,.15,0,.29,0,.45a4.34,4.34,0,0,0,1.31,2.32,5.85,5.85,0,0,0-.79,1.1ZM554.65,31.43a.25.25,0,0,1,.12-.16l.07-.05a.76.76,0,0,0-.11.32ZM388.92,22.78l-.09,0a1.7,1.7,0,0,0,0-.22c0,.07.09.12.13.2ZM288.68,78.62a.24.24,0,0,1,0,.08h-.05ZM127.05,304.09h0l0-.06-.25,0,.1-.24.15.21,0,.05Zm-85,56.69c0,.07.09.14.13.22h0l-.13,0Zm4.1,34.67,0,.18a1,1,0,0,1,0-.13S46.16,395.47,46.16,395.45Zm-1.57,20h.13l-.25.28,0,0,.14-.24ZM27.85,442.85a.45.45,0,0,0,0,.11h0l-.12.16h0C27.76,443,27.81,442.94,27.85,442.85Zm21.82,1h.22a5.82,5.82,0,0,1-.36.75C49.57,444.33,49.62,444.09,49.67,443.84ZM169,480.13a9.67,9.67,0,0,0,.13,1.32.33.33,0,0,0-.4.07l0,.06A5.28,5.28,0,0,1,169,480.13Zm-4.83,137.7,0,0-.13.1A1.43,1.43,0,0,0,164.17,617.83Zm13.45,84.92c0-.19-.05-.37-.08-.55.42-.67.84-1.34,1.25-2h0l4.92,2.16a6.64,6.64,0,0,0-.28,1,4.92,4.92,0,0,0,.23,1.55c-1.31-.21-1.69,1-1.64,2.81-1.22-.25-1.75.48-1.43,2.43l-.63-.36-.05,0,0,0a5.28,5.28,0,0,0-.6-.27l.09-.38a8.13,8.13,0,0,0-1.84-4.53l0,0A5.46,5.46,0,0,0,177.62,702.75ZM244,715.35h0l.12,0-.12.07Zm97.64-25.55a6.68,6.68,0,0,1-1.31.29A1,1,0,0,1,341.62,689.8Zm329.67-9.52c0,.36,0,.72,0,1.08a2.94,2.94,0,0,1-.28-1.14A.41.41,0,0,0,671.29,680.28Zm2.38-3.65v0l0,0Zm15.38-9.4v0h0ZM873.41,494.74v-.08l.24,0ZM856.29,280a1.84,1.84,0,0,1,.49.91,1,1,0,0,1-.63-.45l.05,0h-.05s0,0,0,0l0,0h0C856.19,280.27,856.24,280.14,856.29,280Zm8.19-167,0-.09h0l0,0ZM532.23,12.57c-.41.07-.82.11-1.23.15l.7-.89A6.41,6.41,0,0,1,532.23,12.57Zm-175.36-.29c-.07-.25-.13-.5-.2-.75l.09,0A5.62,5.62,0,0,1,356.87,12.28ZM292,70.63a1.56,1.56,0,0,0-.17.25l-.08-.23ZM147.68,136.92v0l0,0Zm63.77,60.86h.05l0,.21c-.06-.08-.11-.14-.16-.22h.14Zm-42.11,60.81h0l0-.07v.07ZM26,443.4l.1-.15h.09l-.19.16Zm138.31,20.92.26.36h0l-.45.05C164.14,464.59,164.21,464.45,164.26,464.32Zm3.43,156.28h.12v0h0c0,.06-.05.1-.07.15S167.71,620.66,167.69,620.6Zm38.14,95a21.37,21.37,0,0,0,.92,4.21,6.72,6.72,0,0,1-.88-.46l-.21-.19A29.69,29.69,0,0,0,205.83,715.64Zm22.38,5.57.12.17.23.17v5a1.47,1.47,0,0,0-1-.28A25.77,25.77,0,0,0,228.21,721.21Zm199.71-1.77.36,0c0,.14-.11.27-.16.4Zm.36,0,0-.08h.11Zm267.61-36.84a1.68,1.68,0,0,1,.84,1.07,3.77,3.77,0,0,1-.73-.26C696,683.1,695.94,682.83,695.89,682.56ZM858.78,568.37l.06.21-.18.1Zm92-179.51h0l-.14,0,.2-.13ZM855,299.24a2.71,2.71,0,0,1-.63-.6h0C854.55,298.86,854.76,299.05,855,299.24ZM290.22,41.93h0Zm-28.47,31.9-.08,0-.5-.8Zm-74,607.1c1.09,1.26,2.3,1.73,3.67,1.15a4.77,4.77,0,0,0,.84-.78c0,.68,0,1.36,0,2-.55.1-1.09.21-1.63.33-1.73.14-3.55-.13-4.82,2.18l-.21,0c-.64-1.63-1.72-2.7-2.38-4.3a3.8,3.8,0,0,0,3.58-2.2A13,13,0,0,0,187.77,680.93ZM156,696.09a6.27,6.27,0,0,0-1.53-1.08,13.09,13.09,0,0,0,2.84-2.36c.24-.29.46-.62.69-.93l1.91-.08h0c.14,2.82-.86,5.15-1.55,7.61,0-.06,0-.12,0-.18A11.33,11.33,0,0,0,156,696.09ZM295.13,720l0-1.62.16,0c.12.37.24.75.37,1.11a13.07,13.07,0,0,1,.33,1.63A11.68,11.68,0,0,0,295.13,720Zm11.26,4.48v0a.82.82,0,0,0-.49,0,2.33,2.33,0,0,0-.42.16c0-1.51,0-3-.05-4.54h0c.31-.54.63-1.08.95-1.62a2.43,2.43,0,0,0,.8-.06,8.77,8.77,0,0,0,3.51-3.34l.46.41c.31.3.62.58.94.85.17.74.59,1.08,1.29.93-.08.16-.16.32-.25.48a9.48,9.48,0,0,0-.12,2.81c-2.14-3.1-2.63-2.92-3.87.75l-.22-.09C307.62,721.44,306.77,722.53,306.39,724.48Zm16.12-.7v-.06l-.15-1.37a13,13,0,0,0-.88-2.32,20.91,20.91,0,0,1-.8-2.23s-.08-1.28,0-1.28c.42-2.13,1.67-3.08,2.65-4.42l2,2.82h-.2c-1.77,1.15-2.08,3.31-1.88,5.83a7.59,7.59,0,0,0,.69,2.23c0,.07,0,.13.07.19A1.91,1.91,0,0,0,322.51,723.78Zm13.43-10.13c-1,1.33-1.76,2.9-2.67,4.31a9.76,9.76,0,0,0-.86,1.71c-1.07-1.88-2.7-2.44-4.1-3.58a7.55,7.55,0,0,0-.77-.53c0-2.49,0-5,0-7.45h0a2.8,2.8,0,0,1,1.61-.5h0c1.54,2.8,3.56,2.36,5.55,2.1a8.14,8.14,0,0,0,2.74.19,2.69,2.69,0,0,1,1.16,1.11c-.07.08-.13.17-.21.25A27.54,27.54,0,0,0,335.94,713.65Zm41.43,17a4.62,4.62,0,0,0-2.05.39,8.66,8.66,0,0,0-2.66,2.52c-.13.29-.25.59-.37.89,0,0,0,0,0-.07-1.31-2.68-2.9-3.27-4.85-1.2l-.28.44c.67-2.49,3.62-2.36,3.62-5.63a5.29,5.29,0,0,0-.21-.6l3.19-.39c.94,1.49,2.55.72,3.49,2.2,1.86-.22,3.85.12,5-3h0l1-.08a9.44,9.44,0,0,0-1.27,5.74A17.14,17.14,0,0,0,377.37,730.62Zm213.39-2.53a5.64,5.64,0,0,0,.2-4.94c-.12-.09-.24-.16-.35-.23l1-1.53a3.29,3.29,0,0,0,1.72-1.51C592.56,722.72,592.91,726.56,590.76,728.09Zm18.1,0a.64.64,0,0,1,0,.07,5,5,0,0,0-.53.25A3.41,3.41,0,0,1,608.86,728.12ZM639,693.47l.65-1v0C639.39,692.89,639.18,693.21,639,693.47Zm37.87.89a1.64,1.64,0,0,0,.37-.26l.15.2A.48.48,0,0,1,676.85,694.36ZM800,660a2.27,2.27,0,0,1,.28-.45Zm-7.18-32.89h-.33l.3-.53a2.34,2.34,0,0,0,0,.26ZM907.61,504.57h0l0,0h0l0,0a1.62,1.62,0,0,1,0,.22A1.66,1.66,0,0,0,907.61,504.57Zm1.81-.24h0l0,.06Zm9.25.22c.06-1.12.39-1.23.8-1A1.65,1.65,0,0,0,918.67,504.55Zm2.07-18a.2.2,0,0,0,0,.07,4.07,4.07,0,0,0-.71.26A4,4,0,0,1,920.74,486.56Zm9.1-18.38c-.09.22-.18.4-.27.58l-3.43.22h0c1-2.78,3.62-4.06,3.29-8.05,0-.53,0-1.07,0-1.61.56,2,1.52,3.27,3,3.76A25.17,25.17,0,0,0,929.84,468.18Zm16.81-48.74-.08.09a16.21,16.21,0,0,1,.17-1.75,4.17,4.17,0,0,0,.7,0l-.45.9c0,.25,0,.47.06.7A.42.42,0,0,0,946.65,419.44Z"></path> <path class="cls-1" d="M975.09,415.15a10,10,0,0,0-1.57.46c-.24.1-.63.54-.61.72.11,1,.59,1.36,1.17.71a10.33,10.33,0,0,0,1-1.87Z"></path> <path class="cls-1" d="M945.78,463.5c-1,1.58-.16,2.86.8,3.73l1.71-2.74C947.65,463.11,946.75,461.92,945.78,463.5Z"></path> <path class="cls-1" d="M907.92,513a1.41,1.41,0,0,0-.22.84c.88,1.32,2,.89,3,.49.23-.08.41-.54.61-.82-.12-.29-.19-.74-.36-.84A2.33,2.33,0,0,0,907.92,513Z"></path> <path class="cls-1" d="M936.44,478.53c1.26,2.94,3.25,2.22,5.13,2.12C940.31,477.74,938.31,478.46,936.44,478.53Z"></path> <path class="cls-1" d="M926.23,482.05l0,2.6,1.7-.15c0-.87,0-1.73,0-2.6Z"></path> <path class="cls-1" d="M884.21,545.47c-1.53-1.83-3.76.32-5.23-1.81a13.73,13.73,0,0,1-1.55.21,4.48,4.48,0,0,0-.09,5.07l6.83,1.75C884.53,548.93,886.26,547.1,884.21,545.47Z"></path> <path class="cls-1" d="M140.61,578c-.37.28-.56.55-.56.8l.08.08c0,.73,0,1.45.05,2.17l3.38.09c2.17-.35,3.27-2.18,3.26-5.51l-5.09.42a3.07,3.07,0,0,0-.56,1.89A.49.49,0,0,0,140.61,578Z"></path> <path class="cls-1" d="M127.5,689.23c1.7-1.86,1.7-3.57,0-5.15Z"></path> <polygon class="cls-1" points="85.66 432.74 85.66 432.74 85.66 432.74 85.66 432.74"></polygon> <path class="cls-1" d="M189.61,751.29l6.78-.6,1.67-5.33-5.63,1.69C190.88,747.51,190.14,749.24,189.61,751.29Z"></path> <path class="cls-1" d="M145.22,699.6c-.38.91-.13,1.63.55,1.72.13,0,.39-.6.44-1,.11-.79.11-1.6.16-2.41h0A8.17,8.17,0,0,0,145.22,699.6Z"></path> <path class="cls-1" d="M153.41,720.72l-1.71-2.42c-1.68-.89-.22-5.43-2.66-5.44-.54,0-1.17-.36-1.58,0a3.23,3.23,0,0,0-.31,2.12c.87,3.09,1.8,6.21,4.61,5.86h0A15.24,15.24,0,0,0,153.41,720.72Z"></path> <polygon class="cls-1" points="153.41 720.72 153.41 720.72 153.41 720.73 153.41 720.72"></polygon> <path class="cls-1" d="M221.3,743.56a3.94,3.94,0,0,0-2.4.3,2.2,2.2,0,0,0-1.27,2.68,2,2,0,0,0,2.23,1.84,3.22,3.22,0,0,0,2.33-2.27C222.7,744.78,222.15,743.74,221.3,743.56Z"></path> <path class="cls-1" d="M239,741.59l-1.7.25V747l3.38-.38a4.92,4.92,0,0,0,0-5.15C240.15,741.55,239.59,741.58,239,741.59Z"></path> <path class="cls-1" d="M276.53,738.27v.05c-1.36,2.57-3.73.61-5.14,2.95l-1.45.23a3.09,3.09,0,0,0-.48-.89c-1.75-1.27-3.38-1-4.86,1.21v.2h0c-1.05.21-2.4.45-2.59,2.17-.31,2.89,1.36,2.71,2.62,2.94,0-.81.06-1.62.08-2.43h0l5-.54,0-.08h0l-.05.08c0,.85,0,1.7.06,2.54l3.42-.27,3.38-.35c0-.84,0-1.68,0-2.51h0C278.32,741.61,278.26,739.85,276.53,738.27Z"></path> <path class="cls-1" d="M254.36,742.94h0c0-.87,0-1.74,0-2.61l-3.38.29h0c-.55,0-1.09,0-1.64,0a4.15,4.15,0,0,0-3.37,3c1.64,1.09,3.19,2.55,5.11,2.33v-.08h0c.55-.07,1.1-.14,1.65-.19h0l0,.13,1.76-2.93-.07.08Z"></path> <path class="cls-1" d="M956.5,429.83a11.41,11.41,0,0,0,3-.42c1-.4,1-1.5.34-2.54A3.81,3.81,0,0,0,956.5,429.83Z"></path> <path class="cls-1" d="M962.85,440.75a3.35,3.35,0,0,0,.47-1,11.42,11.42,0,0,0-1.65.1C961.91,440.82,962.32,441.2,962.85,440.75Z"></path> <path class="cls-1" d="M130.86,167.07l0-.06c-.39-.55-.77-.71-1.15-.5s-.57.42-.57.61l-1.66.24c0,.85,0,1.7,0,2.55A3.64,3.64,0,0,0,130.86,167.07Z"></path> <path class="cls-1" d="M148.58,497c.41-.09.78-.86,1.16-1.32-.2-.21-.39-.58-.6-.6-1-.09-2.07-.09-3.1-.13h0C146.62,496.36,147.45,497.25,148.58,497Z"></path> <path class="cls-1" d="M867.06,587.23c.1,1,.57,1.35,1.15.7a9.92,9.92,0,0,0,1-1.84h0a10.78,10.78,0,0,0-1.55.42C867.43,586.61,867.05,587,867.06,587.23Z"></path> <path class="cls-1" d="M160.63,648.22h0c-.09-1.23,0-2.59-.89-3.27l-.81,3.42h0l-3.4.33h0c0,.86,0,1.72,0,2.57h0a3.73,3.73,0,0,0,3.38-2.88h0Z"></path> <polygon class="cls-1" points="155.53 648.7 155.53 648.7 155.53 648.7 155.53 648.7"></polygon> <path class="cls-1" d="M812.63,631.05a10.86,10.86,0,0,0-1,1.86l0,0a11,11,0,0,0,1.56-.45c.24-.1.62-.54.6-.72C813.69,630.73,813.21,630.4,812.63,631.05Z"></path> <path class="cls-1" d="M871.46,299.55l1.72-.12q0-1.26-.09-2.52l-1.64.07c0-.83-.06-1.66-.1-2.48-.54,0-1.09,0-1.64,0C869.78,296.65,870,298.61,871.46,299.55Z"></path> <path class="cls-1" d="M157.32,656.31v0h0Z"></path> <path class="cls-1" d="M157.33,656.29c.23-.21.65-.5.63-.61C157.83,654.87,157.59,655.09,157.33,656.29Z"></path> <path class="cls-1" d="M165.88,660.77c1.15-1,1.12-1.85,0-2.61-1.15-2.48-2.29-2.47-3.4.31l3.39-.29h0Z"></path> <path class="cls-1" d="M564.39,496.39h0v0Z"></path> <rect class="cls-2" x="188.4" y="76.52" width="609.39" height="609.39"></rect> </g> </g> </svg> 