<?xml version="1.0" encoding="UTF-8"?> <svg xmlns="http://www.w3.org/2000/svg" id="Text" viewBox="0 0 1900 940"> <g> <path d="M927.48,766.5c0,.28-1.11,.47-1.44,.47-.45,0-1.9-.19-1.9-.47,0-12.51-12.46-19-22.91-19-7.67,0-14.23,3.43-14.23,10.38,0,14.92,47.38,7.88,47.38,35.5,0,15.02-17.24,22.34-32.92,22.34-9.23,0-18.36-4.18-20.47-4.18-2.22,0-3.33,2.13-3.33,3.16,0,.65-.67,1.11-1.67,1.11-1.67,0-1.89-.37-1.89-1.11,0-1.76-.78-15.2-.78-21.13,0-.37,1.23-.65,1.89-.65,.78,0,2.12,.28,2.12,.74,.11,13.07,13.9,19.46,26.02,19.46,9.57,0,18.13-3.98,18.13-11.86,0-14.09-46.38-10.38-46.38-34.48,0-16.04,11.23-21.87,26.69-21.87,12.12,0,14.79,4.54,18.68,4.54,2.23,0,2.67-2.69,2.78-4.08,0-.37,1.11-.56,1.67-.56,.89,0,1.56,.37,1.56,1.11,0,1.76,.56,14.64,1,20.57" style="fill:#380063;"></path> <g> <path d="M722.55,758.71v-10.26h2.09v8.4h2.89v-8.4h2.09v8.4h2.89v-8.4h2.09v10.26h-12.06Z" style="fill:#58595b;"></path> <path d="M744.49,758.71l-4.18-4.73v4.73h-2.15v-10.26h2.15v4.65l4.14-4.65h2.63l-4.65,4.97,4.8,5.3h-2.74Z" style="fill:#58595b;"></path> <path d="M748.93,753.58c0-1.49,.52-2.77,1.57-3.85,1.04-1.08,2.34-1.62,3.9-1.62,1.09,0,2.06,.26,2.9,.77,.84,.52,1.47,1.19,1.89,2.01,.42,.82,.63,1.72,.63,2.68,0,1.51-.52,2.8-1.56,3.87-1.04,1.06-2.33,1.59-3.88,1.59-.72,0-1.39-.11-2-.32-.61-.22-1.13-.5-1.54-.87-.42-.36-.77-.78-1.06-1.26-.29-.48-.5-.97-.64-1.47-.14-.51-.2-1.02-.2-1.54Zm3.13-2.52c-.62,.68-.93,1.52-.93,2.52s.31,1.84,.93,2.52c.62,.68,1.39,1.02,2.31,1.02s1.7-.34,2.32-1.02c.62-.68,.93-1.52,.93-2.52s-.3-1.84-.9-2.52-1.38-1.02-2.34-1.02-1.7,.34-2.32,1.02Z" style="fill:#58595b;"></path> <path d="M765.92,750.31l-.45,5.64c-.08,1.02-.32,1.76-.71,2.2s-1.02,.66-1.88,.66c-.36,0-.68-.05-.95-.14v-1.79c.14,.06,.34,.09,.59,.09,.28,0,.49-.07,.62-.22,.14-.15,.22-.41,.25-.81l.59-7.51h7.31v10.26h-2.08v-8.4h-3.3Z" style="fill:#58595b;"></path> <path d="M773.94,758.71l3.99-10.26h2.02l3.78,10.26h-2.21l-.8-2.33h-3.79l-.81,2.33h-2.17Zm4.35-6.31l-.86,2.44h2.75l-.84-2.45c-.2-.58-.36-1.1-.48-1.57h-.07c-.13,.52-.3,1.05-.5,1.58Z" style="fill:#58595b;"></path> <path d="M722.55,765.38h2.09v5.27c0,.72-.02,1.34-.05,1.85h.05c.21-.46,.73-1.36,1.55-2.71l2.69-4.41h1.97v10.26h-2.08v-5.1c0-.33,.02-.98,.05-1.94h-.05c-.17,.34-.77,1.35-1.79,3.03l-2.47,4.02h-1.97v-10.26Z" style="fill:#58595b;"></path> <path d="M740.5,775.64v-4.37h-4.11v4.37h-2.15v-10.26h2.15v4.03h4.11v-4.03h2.15v10.26h-2.15Z" style="fill:#58595b;"></path> <path d="M747.58,767.24h-2.44v-1.87h4.59v4.03h1.32c1.12,0,2,.27,2.64,.82,.64,.55,.96,1.3,.96,2.27s-.33,1.73-1,2.3c-.67,.57-1.54,.85-2.61,.85h-3.46v-8.4Zm4.91,5.25c0-.45-.15-.81-.45-1.07-.3-.26-.72-.39-1.26-.39h-1.04v2.98h1.11c.52,0,.93-.13,1.21-.4,.29-.27,.43-.64,.43-1.12Z" style="fill:#58595b;"></path> <path d="M763.59,765.38v1.87h-3.97v2.21h3.84v1.78h-3.84v2.54h4.14v1.87h-6.29v-10.26h6.13Z" style="fill:#58595b;"></path> <path d="M773.31,775.64l-4.18-4.73v4.73h-2.15v-10.26h2.15v4.65l4.14-4.65h2.63l-4.65,4.97,4.8,5.3h-2.74Z" style="fill:#58595b;"></path> <path d="M785.55,775.64h-7.45v-10.26h2.15v8.4h3.84v-8.4h2.15v8.4h1.46v4.5h-2.15v-2.63Z" style="fill:#58595b;"></path> <path d="M790.5,765.38h2.09v5.27c0,.72-.02,1.34-.05,1.85h.05c.21-.46,.73-1.36,1.55-2.71l2.69-4.41h1.97v10.26h-2.08v-5.1c0-.33,.02-.98,.05-1.94h-.05c-.17,.34-.77,1.35-1.79,3.03l-2.47,4.02h-1.97v-10.26Z" style="fill:#58595b;"></path> <path d="M801.67,770.51c0-1.49,.52-2.77,1.57-3.85,1.04-1.08,2.34-1.62,3.9-1.62,1.09,0,2.06,.26,2.9,.77,.84,.52,1.47,1.19,1.89,2.01,.42,.82,.63,1.72,.63,2.68,0,1.51-.52,2.8-1.56,3.87-1.04,1.06-2.33,1.59-3.88,1.59-.72,0-1.39-.11-2-.32-.61-.22-1.13-.5-1.54-.87-.42-.36-.77-.78-1.06-1.26-.29-.48-.5-.97-.64-1.47-.14-.51-.2-1.02-.2-1.54Zm3.13-2.52c-.62,.68-.93,1.52-.93,2.52s.31,1.84,.93,2.52c.62,.68,1.39,1.02,2.31,1.02s1.7-.34,2.32-1.02c.62-.68,.93-1.52,.93-2.52s-.3-1.84-.9-2.52-1.38-1.02-2.34-1.02-1.7,.34-2.32,1.02Z" style="fill:#58595b;"></path> <path d="M821.66,775.64v-4.37h-4.11v4.37h-2.15v-10.26h2.15v4.03h4.11v-4.03h2.15v10.26h-2.15Z" style="fill:#58595b;"></path> <path d="M833.46,775.64v-4.37h-4.11v4.37h-2.15v-10.26h2.15v4.03h4.11v-4.03h2.15v10.26h-2.15Z" style="fill:#58595b;"></path> <path d="M838.47,770.51c0-1.49,.52-2.77,1.57-3.85,1.04-1.08,2.34-1.62,3.9-1.62,1.09,0,2.06,.26,2.9,.77,.84,.52,1.47,1.19,1.89,2.01,.42,.82,.63,1.72,.63,2.68,0,1.51-.52,2.8-1.56,3.87-1.04,1.06-2.33,1.59-3.88,1.59-.72,0-1.39-.11-2-.32-.61-.22-1.13-.5-1.54-.87-.42-.36-.77-.78-1.06-1.26-.29-.48-.5-.97-.64-1.47-.14-.51-.2-1.02-.2-1.54Zm3.13-2.52c-.62,.68-.93,1.52-.93,2.52s.31,1.84,.93,2.52c.62,.68,1.39,1.02,2.31,1.02s1.7-.34,2.32-1.02c.62-.68,.93-1.52,.93-2.52s-.3-1.84-.9-2.52-1.38-1.02-2.34-1.02-1.7,.34-2.32,1.02Z" style="fill:#58595b;"></path> <path d="M852.19,765.38h2.09v5.27c0,.72-.02,1.34-.05,1.85h.05c.21-.46,.73-1.36,1.55-2.71l2.69-4.41h1.97v10.26h-2.08v-5.1c0-.33,.02-.98,.05-1.94h-.05c-.17,.34-.77,1.35-1.79,3.03l-2.47,4.02h-1.97v-10.26Zm5.27-3.15h1.35c-.04,.66-.29,1.19-.76,1.58-.47,.39-1.05,.59-1.75,.59-.77,0-1.38-.2-1.81-.59-.44-.4-.67-.92-.7-1.57h1.34c.02,.24,.14,.43,.35,.58,.21,.15,.49,.22,.83,.22s.63-.07,.83-.22c.2-.15,.31-.34,.33-.58Z" style="fill:#58595b;"></path> <path d="M728.88,792.58l-4.18-4.73v4.73h-2.15v-10.26h2.15v4.65l4.14-4.65h2.63l-4.65,4.97,4.8,5.3h-2.74Z" style="fill:#58595b;"></path> <path d="M733.32,787.44c0-1.49,.52-2.77,1.57-3.85,1.04-1.08,2.34-1.62,3.9-1.62,1.09,0,2.06,.26,2.9,.77,.84,.52,1.47,1.19,1.89,2.01,.42,.82,.63,1.72,.63,2.68,0,1.51-.52,2.8-1.56,3.87-1.04,1.06-2.33,1.59-3.88,1.59-.72,0-1.39-.11-2-.32-.61-.22-1.13-.5-1.54-.87-.42-.36-.77-.78-1.06-1.26-.29-.48-.5-.97-.64-1.47-.14-.51-.2-1.02-.2-1.54Zm3.13-2.52c-.62,.68-.93,1.52-.93,2.52s.31,1.84,.93,2.52c.62,.68,1.39,1.02,2.31,1.02s1.7-.34,2.32-1.02c.62-.68,.93-1.52,.93-2.52s-.3-1.84-.9-2.52-1.38-1.02-2.34-1.02-1.7,.34-2.32,1.02Z" style="fill:#58595b;"></path> <path d="M752.03,781.98c1.33,0,2.43,.36,3.3,1.09,.86,.73,1.39,1.57,1.6,2.52h-2.32c-.14-.5-.44-.92-.9-1.26-.46-.34-1.02-.51-1.69-.51-.91,0-1.66,.34-2.24,1.01-.58,.67-.87,1.54-.87,2.6s.29,1.87,.88,2.58,1.34,1.06,2.26,1.06c.7,0,1.28-.19,1.72-.56,.45-.37,.76-.83,.94-1.38h2.39c-.35,1.12-.96,2.03-1.82,2.73-.86,.7-1.96,1.05-3.3,1.05-1.57,0-2.84-.52-3.82-1.56-.98-1.04-1.47-2.35-1.47-3.94s.5-2.86,1.5-3.89c1-1.03,2.28-1.54,3.82-1.54Z" style="fill:#58595b;"></path> <path d="M769.82,782.31l1.26,10.26h-2.08l-.5-5.04c-.08-.76-.15-1.51-.21-2.26h-.09s-.08,.32-.25,.93c-.17,.61-.29,1.06-.37,1.34l-1.49,5.03h-1.51l-1.52-5.1c-.3-.98-.5-1.72-.59-2.2h-.12c-.02,.45-.08,1.17-.17,2.17l-.53,5.13h-1.94l1.22-10.26h2.38l1.5,4.85c.24,.77,.42,1.4,.54,1.88h.06c.09-.35,.27-.98,.54-1.88l1.47-4.85h2.36Z" style="fill:#58595b;"></path> <path d="M780.25,782.31v1.87h-3.97v2.21h3.84v1.78h-3.84v2.54h4.14v1.87h-6.29v-10.26h6.13Z" style="fill:#58595b;"></path> <path d="M785.35,792.58v-8.4h-2.44v-1.87h7.06v1.87h-2.45v8.4h-2.17Z" style="fill:#58595b;"></path> <path d="M792.1,787.44c0-1.49,.52-2.77,1.57-3.85,1.04-1.08,2.34-1.62,3.9-1.62,1.09,0,2.06,.26,2.9,.77,.84,.52,1.47,1.19,1.89,2.01,.42,.82,.63,1.72,.63,2.68,0,1.51-.52,2.8-1.56,3.87-1.04,1.06-2.33,1.59-3.88,1.59-.72,0-1.39-.11-2-.32-.61-.22-1.13-.5-1.54-.87-.42-.36-.77-.78-1.06-1.26-.29-.48-.5-.97-.64-1.47-.14-.51-.2-1.02-.2-1.54Zm3.13-2.52c-.62,.68-.93,1.52-.93,2.52s.31,1.84,.93,2.52c.62,.68,1.39,1.02,2.31,1.02s1.7-.34,2.32-1.02c.62-.68,.93-1.52,.93-2.52s-.3-1.84-.9-2.52-1.38-1.02-2.34-1.02-1.7,.34-2.32,1.02Z" style="fill:#58595b;"></path> <path d="M809.09,784.18l-.45,5.64c-.08,1.02-.32,1.76-.71,2.2s-1.02,.66-1.88,.66c-.36,0-.68-.05-.95-.14v-1.79c.14,.06,.34,.09,.59,.09,.28,0,.49-.07,.62-.22,.14-.15,.22-.41,.25-.81l.59-7.51h7.31v10.26h-2.08v-8.4h-3.3Z" style="fill:#58595b;"></path> <path d="M817.5,787.44c0-1.49,.52-2.77,1.57-3.85,1.04-1.08,2.34-1.62,3.9-1.62,1.09,0,2.06,.26,2.9,.77,.84,.52,1.47,1.19,1.89,2.01,.42,.82,.63,1.72,.63,2.68,0,1.51-.52,2.8-1.56,3.87-1.04,1.06-2.33,1.59-3.88,1.59-.72,0-1.39-.11-2-.32-.61-.22-1.13-.5-1.54-.87-.42-.36-.77-.78-1.06-1.26-.29-.48-.5-.97-.64-1.47-.14-.51-.2-1.02-.2-1.54Zm3.13-2.52c-.62,.68-.93,1.52-.93,2.52s.31,1.84,.93,2.52c.62,.68,1.39,1.02,2.31,1.02s1.7-.34,2.32-1.02c.62-.68,.93-1.52,.93-2.52s-.3-1.84-.9-2.52-1.38-1.02-2.34-1.02-1.7,.34-2.32,1.02Z" style="fill:#58595b;"></path> <path d="M831.41,792.58v-10.26h6.29v1.87h-4.21v8.4h-2.08Z" style="fill:#58595b;"></path> <path d="M840.35,782.31h2.09v5.27c0,.72-.02,1.34-.05,1.85h.05c.21-.46,.73-1.36,1.55-2.71l2.69-4.41h1.97v10.26h-2.08v-5.1c0-.33,.02-.98,.05-1.94h-.05c-.17,.34-.77,1.35-1.79,3.03l-2.47,4.02h-1.97v-10.26Z" style="fill:#58595b;"></path> <path d="M852.22,782.31h2.09v5.27c0,.72-.02,1.34-.05,1.85h.05c.21-.46,.73-1.36,1.55-2.71l2.69-4.41h1.97v10.26h-2.08v-5.1c0-.33,.02-.98,.05-1.94h-.05c-.17,.34-.77,1.35-1.79,3.03l-2.47,4.02h-1.97v-10.26Z" style="fill:#58595b;"></path> </g> <g> <path d="M722.08,803.35s0-.07,.02-.1c.02-.03,.04-.05,.06-.05h2.5c.08,0,.11,.05,.11,.13v3.49c.28-.25,.55-.43,.82-.52,.26-.1,.54-.14,.84-.14,.32,0,.63,.06,.91,.18,.28,.12,.52,.29,.73,.5,.2,.21,.38,.45,.52,.73,.14,.27,.25,.57,.32,.88,.07,.31,.11,.63,.11,.95,0,.28-.03,.56-.11,.84s-.18,.56-.33,.83c-.15,.27-.32,.51-.52,.72-.2,.21-.44,.38-.73,.51s-.58,.19-.91,.19c-.37,0-.69-.07-.97-.21s-.55-.34-.81-.61c-1.02,.53-1.55,.8-1.59,.8h-.35v-8.98h-.55s-.08-.05-.08-.14Zm2.69,7.25c0,.45,.1,.8,.31,1.06,.2,.25,.44,.38,.72,.38,.31,0,.57-.13,.8-.38,.23-.25,.34-.6,.34-1.05v-2.6c0-.44-.11-.78-.34-1.03-.23-.25-.5-.37-.8-.37-.28,0-.52,.12-.72,.37-.2,.25-.31,.59-.31,1.03v2.59Z" style="fill:#380063;"></path> <path d="M730.02,806.41s0-.07,.02-.1c.02-.03,.04-.05,.06-.05h2.47s.06,.01,.09,.04,.04,.06,.04,.09v4.45c0,.37,.1,.65,.31,.86,.2,.21,.45,.31,.73,.31s.52-.1,.73-.31c.21-.21,.31-.49,.31-.86v-4.59h1.94c.08,0,.12,.05,.12,.13v6.33c0,.36-.06,.68-.19,.97-.13,.29-.29,.53-.5,.73-.21,.19-.46,.35-.74,.49-.28,.13-.58,.22-.89,.28-.31,.06-.63,.09-.96,.09-.5,0-.98-.07-1.43-.2s-.81-.32-1.09-.57c-.28-.24-.42-.51-.42-.8,0-.32,.1-.57,.31-.75,.21-.18,.45-.27,.73-.27s.52,.09,.73,.28,.31,.44,.31,.77c0,.23-.08,.43-.23,.6s-.37,.28-.65,.31v.05c.19,.09,.42,.16,.71,.22,.28,.06,.56,.09,.83,.09,.21,0,.39-.01,.54-.05,.15-.03,.3-.08,.45-.16,.14-.07,.25-.19,.32-.34,.07-.15,.11-.34,.11-.56v-2.02c-.49,.39-1.04,.58-1.67,.58-.31,0-.61-.05-.9-.16-.29-.1-.55-.25-.79-.44-.23-.19-.42-.43-.56-.72-.14-.29-.21-.61-.21-.95v-3.65h-.53c-.06,0-.09-.05-.09-.14Z" style="fill:#380063;"></path> <path d="M741.24,809.29c0-.41,.06-.8,.17-1.17,.11-.37,.27-.7,.48-1,.21-.29,.48-.53,.82-.71s.71-.26,1.13-.26c.29,0,.57,.05,.84,.14,.27,.09,.54,.27,.82,.52v-3.52s0-.07,.03-.08,.05-.02,.1-.02h2.48s.05,.01,.06,.05c.02,.03,.03,.06,.03,.1,0,.03,0,.07-.02,.09-.02,.03-.03,.05-.06,.05h-.55v7.64c0,.21,.04,.38,.13,.5s.19,.18,.31,.18,.22-.06,.31-.18c.09-.12,.13-.29,.13-.51,0-.03,.02-.06,.05-.08,.03-.02,.07-.03,.1-.03s.07,0,.1,.03c.03,.02,.04,.05,.04,.08,0,.41-.16,.74-.47,.99s-.68,.36-1.11,.36c-.34,0-.65-.08-.93-.24-.28-.16-.48-.42-.62-.78-.53,.68-1.16,1.02-1.88,1.02-.32,0-.64-.08-.94-.24-.3-.16-.57-.38-.8-.65s-.41-.61-.55-1.01-.21-.82-.21-1.27Zm2.07,1.07c0,.49,.11,.87,.34,1.14,.23,.27,.5,.41,.8,.41,.28,0,.53-.14,.73-.41,.21-.28,.31-.66,.31-1.14v-2.34c0-.44-.1-.78-.31-1.03-.21-.25-.45-.37-.73-.37-.31,0-.58,.12-.81,.37-.23,.25-.35,.59-.35,1.03v2.35Z" style="fill:#380063;"></path> <path d="M749.38,806.41s0-.07,.02-.1c.02-.03,.04-.05,.06-.05h2.51c.06,0,.09,.03,.09,.09v.47h.12c.19-.21,.42-.38,.69-.5,.27-.12,.55-.18,.83-.18,.47,0,.84,.15,1.11,.44,.28,.29,.41,.62,.41,.99,0,.29-.09,.53-.27,.73-.18,.2-.43,.29-.77,.29-.31,0-.56-.1-.75-.31-.19-.21-.28-.44-.28-.71,0-.24,.08-.45,.25-.63,.17-.18,.41-.27,.73-.28-.16-.16-.37-.24-.61-.24-.21,0-.44,.08-.71,.24-.27,.16-.48,.36-.63,.6v5.08h-2.07v-5.8h-.66c-.06,0-.09-.05-.09-.14Z" style="fill:#380063;"></path> <path d="M756.59,811.31c0-.33,.11-.61,.34-.84,.22-.23,.49-.34,.8-.34s.59,.11,.82,.34c.23,.23,.34,.51,.34,.84,0,.31-.12,.58-.35,.81-.23,.23-.5,.34-.81,.34s-.57-.12-.8-.34c-.23-.23-.34-.5-.34-.81Z" style="fill:#380063;"></path> <path d="M763.77,808.13c0-.57,.08-1.09,.24-1.57,.16-.48,.37-.89,.64-1.23,.27-.34,.58-.63,.94-.87,.36-.24,.74-.42,1.14-.53,.4-.11,.81-.17,1.24-.17s.85,.06,1.25,.17c.4,.12,.79,.29,1.15,.53,.36,.24,.67,.53,.94,.87,.27,.34,.49,.75,.64,1.24,.16,.48,.24,1,.24,1.57s-.08,1.08-.24,1.56c-.16,.48-.37,.88-.64,1.22-.27,.34-.58,.62-.94,.86-.36,.24-.74,.41-1.14,.53-.4,.11-.82,.17-1.24,.17s-.84-.06-1.24-.17c-.4-.11-.78-.29-1.14-.52-.36-.24-.67-.52-.94-.86-.27-.34-.48-.74-.64-1.22-.16-.48-.24-1-.24-1.56Zm2.41,.5c0,.5,.02,.93,.05,1.29,.03,.36,.09,.69,.16,.99,.08,.3,.19,.54,.32,.72,.14,.18,.31,.32,.52,.41,.21,.1,.46,.14,.75,.14s.55-.05,.75-.15c.21-.1,.38-.23,.51-.41,.13-.18,.24-.42,.31-.72s.13-.63,.16-.99c.03-.35,.04-.79,.04-1.29v-1.01c0-.42-.01-.79-.03-1.1-.02-.31-.06-.61-.1-.89s-.12-.51-.2-.7c-.09-.19-.19-.35-.32-.49-.13-.14-.29-.24-.47-.3-.18-.06-.4-.1-.64-.1-.29,0-.54,.05-.75,.15-.21,.1-.38,.24-.52,.42-.14,.18-.24,.42-.32,.72-.08,.3-.13,.63-.16,.99-.03,.36-.05,.79-.05,1.3v1.01Z" style="fill:#380063;"></path> <path d="M773.34,803.35s0-.07,.02-.1c.02-.03,.04-.05,.06-.05h2.54c.12,0,.18,.04,.18,.12v7.77c0,.22,.04,.39,.13,.51,.09,.12,.19,.18,.31,.18s.23-.06,.32-.18c.09-.12,.14-.29,.14-.51,0-.03,.02-.06,.05-.08,.03-.02,.07-.03,.1-.03s.07,0,.1,.03c.03,.02,.04,.05,.04,.08,0,.43-.16,.77-.48,1.01-.32,.24-.7,.36-1.15,.36s-.82-.12-1.15-.36c-.32-.24-.48-.58-.48-1.01v-7.61h-.66c-.06,0-.09-.05-.09-.14Z" style="fill:#380063;"></path> <path d="M777.92,811.25c0-.18,.03-.35,.1-.54,.07-.18,.19-.37,.36-.57,.18-.19,.4-.35,.66-.46-.6-.32-.9-.85-.9-1.57,0-.61,.23-1.09,.7-1.44,.47-.35,1.17-.52,2.12-.52,.42,0,.82,.04,1.21,.13,0-.29,.05-.57,.11-.84s.18-.45,.32-.57c.16-.15,.37-.22,.64-.22s.47,.07,.65,.21c.18,.14,.27,.34,.27,.59s-.08,.45-.23,.6-.34,.22-.55,.22-.42-.07-.58-.22c-.17-.15-.25-.35-.25-.6v-.03s0,.02-.02,.05c0,.03-.01,.05-.02,.05-.02,.12-.03,.4-.04,.84,.45,.15,.78,.37,1,.67s.33,.66,.33,1.08c0,.61-.23,1.09-.7,1.43-.47,.34-1.18,.52-2.13,.52-.65,0-1.18-.08-1.6-.23-.18,.07-.31,.17-.39,.3-.08,.13-.11,.25-.11,.36,0,.16,.06,.27,.18,.33s.3,.1,.53,.1c.2,0,.57-.03,1.12-.08,.55-.05,.98-.08,1.28-.08,.68,0,1.23,.2,1.66,.59,.43,.39,.64,.88,.64,1.46,0,.29-.06,.56-.18,.8s-.31,.45-.55,.64c-.25,.19-.58,.33-.99,.43-.41,.1-.89,.15-1.44,.15-.27,0-.54-.02-.81-.05-.28-.04-.55-.09-.83-.18-.28-.08-.52-.18-.74-.31-.21-.12-.39-.28-.53-.47-.14-.19-.2-.4-.2-.63,0-.27,.06-.46,.18-.57,.12-.11,.28-.17,.47-.17-.48-.29-.72-.69-.72-1.2Zm.66,1.97c0,.25,.07,.46,.2,.64s.31,.31,.55,.41c.23,.1,.49,.17,.76,.21,.28,.05,.58,.07,.91,.07,.4,0,.77-.04,1.11-.11,.34-.07,.63-.18,.86-.34,.23-.15,.34-.33,.34-.54s-.07-.38-.22-.52c-.15-.15-.33-.22-.55-.22-.24,0-.54,.01-.9,.04-.37,.03-.67,.04-.92,.04-.71,0-1.31-.1-1.79-.31-.23,.18-.34,.39-.34,.63Zm1.63-4.86c0,.49,.05,.85,.16,1.07,.11,.22,.31,.34,.59,.34s.49-.11,.6-.34c.11-.22,.17-.58,.17-1.07v-.5c0-.5-.05-.86-.16-1.08-.11-.23-.31-.34-.61-.34s-.48,.11-.59,.34c-.11,.23-.16,.59-.16,1.08v.5Z" style="fill:#380063;"></path> <path d="M785.52,809.29c0-.41,.05-.8,.16-1.17,.11-.37,.27-.7,.47-1,.21-.29,.48-.53,.81-.71s.71-.26,1.12-.26c.3,0,.58,.05,.85,.14,.27,.09,.55,.27,.84,.52v-.56h1.9c.11,0,.17,.05,.17,.16v4.7c0,.19,.05,.34,.14,.44,.09,.11,.2,.16,.32,.16s.23-.05,.32-.16c.09-.11,.13-.26,.13-.46,0-.03,.02-.06,.05-.08,.03-.02,.07-.03,.1-.03s.07,0,.09,.03c.03,.02,.04,.05,.04,.08,0,.37-.16,.69-.47,.95-.32,.27-.69,.4-1.12,.4-.33,0-.64-.08-.92-.25-.28-.17-.49-.42-.62-.76-.54,.68-1.17,1.02-1.9,1.02-.32,0-.63-.08-.93-.24-.3-.16-.56-.38-.79-.65s-.41-.61-.55-1.01c-.14-.4-.2-.82-.2-1.27Zm2.07,1.07c0,.49,.11,.87,.32,1.14,.22,.27,.47,.41,.76,.41s.56-.14,.78-.41c.22-.28,.33-.66,.33-1.14v-2.34c0-.44-.11-.78-.33-1.03-.22-.25-.47-.37-.77-.37s-.55,.12-.77,.37c-.22,.25-.33,.59-.33,1.03v2.35Z" style="fill:#380063;"></path> <path d="M796.95,809.71s.02-.03,.07-.05c.05-.01,.09-.02,.13-.02,.05,0,.09,0,.14,.02s.08,.04,.08,.06c0,.31,.06,.6,.16,.86,.11,.26,.25,.49,.43,.67,.18,.18,.38,.34,.61,.47,.23,.13,.47,.23,.72,.29s.5,.09,.76,.09c.53,0,.97-.13,1.33-.38s.54-.61,.54-1.07c0-.18-.05-.35-.16-.5-.11-.15-.25-.28-.44-.39-.18-.11-.4-.21-.64-.31-.24-.1-.49-.2-.76-.3-.27-.1-.53-.21-.8-.31-.27-.11-.52-.24-.76-.39s-.45-.32-.64-.5c-.18-.18-.33-.4-.44-.67-.11-.26-.16-.55-.16-.86,0-.48,.07-.9,.2-1.26,.13-.36,.33-.64,.58-.85s.54-.36,.87-.46,.7-.15,1.11-.15c.28,0,.54,.03,.77,.09,.23,.06,.4,.13,.52,.21,.12,.08,.23,.14,.35,.2s.21,.09,.3,.09c.17,0,.26-.18,.29-.53,0-.05,.06-.07,.17-.07,.1,0,.16,.05,.16,.14,0,.54,.04,1.39,.11,2.56,0,.01-.02,.02-.06,.03s-.07,.01-.09,.01c-.03,0-.07,0-.12-.02s-.08-.02-.08-.04c0-.29-.05-.57-.14-.83-.1-.26-.22-.47-.38-.65-.16-.18-.34-.33-.54-.46-.21-.13-.42-.22-.64-.29-.22-.06-.44-.09-.66-.09-.42,0-.77,.11-1.05,.33-.28,.22-.42,.54-.42,.95,0,.19,.06,.37,.17,.52,.11,.15,.26,.28,.45,.38s.4,.2,.65,.29c.24,.09,.5,.18,.77,.27,.27,.09,.54,.19,.81,.29,.27,.1,.53,.23,.77,.38,.24,.15,.46,.33,.65,.52s.34,.44,.45,.73c.11,.29,.17,.62,.17,.98s-.07,.69-.2,1c-.13,.31-.31,.57-.53,.78-.22,.21-.48,.4-.77,.55-.29,.15-.6,.26-.92,.33s-.65,.11-.97,.11c-.28,0-.57-.05-.89-.14-.32-.09-.59-.18-.81-.27-.22-.09-.36-.14-.41-.14-.1,0-.19,.05-.25,.14-.06,.09-.1,.18-.1,.27,0,.04-.02,.08-.05,.11-.03,.03-.07,.04-.12,.04-.08,0-.14-.01-.16-.04s-.04-.06-.04-.11c0-.03-.01-.4-.04-1.11-.03-.71-.04-1.21-.04-1.5Z" style="fill:#380063;"></path> <path d="M804.33,809.3c0-.5,.09-.95,.26-1.36,.17-.41,.4-.74,.68-1,.28-.26,.6-.45,.95-.59,.35-.14,.72-.21,1.1-.21,.4,0,.78,.07,1.15,.21s.7,.34,1.01,.6c.3,.26,.55,.6,.73,1.03s.28,.9,.28,1.43c-.02,.05-.04,.08-.08,.08h-4c0,.97,.1,1.67,.31,2.08,.21,.41,.55,.62,1.01,.62,.37,0,.71-.06,1.04-.18,.33-.12,.61-.3,.85-.55,.24-.25,.38-.54,.43-.87,0-.03,.02-.05,.05-.07,.03-.02,.06-.03,.1-.03,.04,0,.07,0,.1,.03,.03,.02,.04,.04,.04,.07-.04,.53-.31,.97-.83,1.33-.52,.36-1.12,.54-1.81,.54-.34,0-.67-.05-1-.15-.33-.1-.63-.24-.92-.43-.28-.19-.53-.41-.75-.66-.22-.25-.38-.54-.51-.88s-.18-.68-.18-1.05Zm2.07-.1h2.03v-1.38c0-.44-.1-.78-.3-1.02-.2-.24-.44-.37-.71-.37s-.51,.12-.71,.37c-.2,.24-.3,.59-.3,1.02v1.38Z" style="fill:#380063;"></path> <path d="M811.47,803.35s0-.07,.02-.1c.02-.03,.04-.05,.06-.05h2.54c.12,0,.18,.04,.18,.12v7.77c0,.22,.04,.39,.13,.51,.09,.12,.19,.18,.31,.18s.23-.06,.32-.18c.09-.12,.14-.29,.14-.51,0-.03,.02-.06,.05-.08,.03-.02,.07-.03,.1-.03s.07,0,.1,.03c.03,.02,.04,.05,.04,.08,0,.43-.16,.77-.48,1.01-.32,.24-.7,.36-1.15,.36s-.82-.12-1.15-.36c-.32-.24-.48-.58-.48-1.01v-7.61h-.66c-.06,0-.09-.05-.09-.14Z" style="fill:#380063;"></path> <path d="M816.13,806.41s0-.07,.02-.1c.02-.03,.04-.05,.06-.05h2.47s.06,.01,.09,.04,.04,.06,.04,.09v4.45c0,.37,.1,.65,.31,.86,.2,.21,.45,.31,.73,.31s.52-.1,.73-.31c.21-.21,.31-.49,.31-.86v-4.59h1.94c.08,0,.12,.05,.12,.13v6.33c0,.36-.06,.68-.19,.97-.13,.29-.29,.53-.5,.73-.21,.19-.46,.35-.74,.49-.28,.13-.58,.22-.89,.28-.31,.06-.63,.09-.96,.09-.5,0-.98-.07-1.43-.2s-.81-.32-1.09-.57c-.28-.24-.42-.51-.42-.8,0-.32,.1-.57,.31-.75,.21-.18,.45-.27,.73-.27s.52,.09,.73,.28,.31,.44,.31,.77c0,.23-.08,.43-.23,.6s-.37,.28-.65,.31v.05c.19,.09,.42,.16,.71,.22,.28,.06,.56,.09,.83,.09,.21,0,.39-.01,.54-.05,.15-.03,.3-.08,.45-.16,.14-.07,.25-.19,.32-.34,.07-.15,.11-.34,.11-.56v-2.02c-.49,.39-1.04,.58-1.67,.58-.31,0-.61-.05-.9-.16-.29-.1-.55-.25-.79-.44-.23-.19-.42-.43-.56-.72-.14-.29-.21-.61-.21-.95v-3.65h-.53c-.06,0-.09-.05-.09-.14Z" style="fill:#380063;"></path> <path d="M824.32,809.29c0-.41,.05-.8,.16-1.17,.11-.37,.27-.7,.47-1,.21-.29,.48-.53,.81-.71s.71-.26,1.12-.26c.3,0,.58,.05,.85,.14,.27,.09,.55,.27,.84,.52v-.56h1.9c.11,0,.17,.05,.17,.16v4.7c0,.19,.05,.34,.14,.44,.09,.11,.2,.16,.32,.16s.23-.05,.32-.16c.09-.11,.13-.26,.13-.46,0-.03,.02-.06,.05-.08,.03-.02,.07-.03,.1-.03s.07,0,.09,.03c.03,.02,.04,.05,.04,.08,0,.37-.16,.69-.47,.95-.32,.27-.69,.4-1.12,.4-.33,0-.64-.08-.92-.25-.28-.17-.49-.42-.62-.76-.54,.68-1.17,1.02-1.9,1.02-.32,0-.63-.08-.93-.24-.3-.16-.56-.38-.79-.65s-.41-.61-.55-1.01c-.14-.4-.2-.82-.2-1.27Zm2.07,1.07c0,.49,.11,.87,.32,1.14,.22,.27,.47,.41,.76,.41s.56-.14,.78-.41c.22-.28,.33-.66,.33-1.14v-2.34c0-.44-.11-.78-.33-1.03-.22-.25-.47-.37-.77-.37s-.55,.12-.77,.37c-.22,.25-.33,.59-.33,1.03v2.35Z" style="fill:#380063;"></path> <path d="M832.58,806.41s0-.07,.02-.1c.02-.03,.04-.05,.06-.05h2.49s.06,.01,.08,.04c.02,.03,.03,.06,.03,.09v.43h.1c.48-.45,1.06-.68,1.75-.68,.22,0,.43,.02,.63,.07,.21,.05,.41,.12,.6,.22,.2,.1,.37,.24,.51,.39,.15,.16,.26,.36,.35,.6,.09,.24,.13,.52,.13,.82v2.85c0,.22,.04,.39,.13,.51,.09,.12,.19,.18,.31,.18s.23-.06,.32-.18c.09-.12,.14-.29,.14-.51,0-.03,.02-.06,.05-.08,.03-.02,.07-.03,.1-.03s.07,0,.1,.03c.03,.02,.04,.05,.04,.08,0,.43-.16,.77-.48,1.01-.32,.24-.7,.36-1.14,.36s-.82-.12-1.14-.36c-.32-.24-.48-.58-.48-1.01v-3.73c0-.26-.06-.46-.18-.6-.12-.14-.29-.21-.5-.21-.41,0-.82,.21-1.22,.64v5.16h-2.07v-5.8h-.66c-.06,0-.09-.05-.09-.14Z" style="fill:#380063;"></path> <path d="M841.23,806.41s0-.07,.02-.1c.02-.03,.04-.05,.06-.05h2.57c.1,0,.15,.05,.15,.13v4.69c0,.22,.04,.39,.13,.51,.09,.12,.19,.18,.31,.18s.23-.06,.32-.18c.09-.12,.14-.29,.14-.51,0-.03,.02-.06,.05-.08,.03-.02,.07-.03,.1-.03s.07,0,.1,.03c.03,.02,.04,.05,.04,.08,0,.43-.16,.77-.48,1.01-.32,.24-.7,.36-1.15,.36s-.83-.12-1.15-.36c-.32-.24-.49-.58-.49-1.01v-4.54h-.65c-.06,0-.09-.05-.09-.14Zm.74-2.18c0-.28,.1-.53,.3-.73s.44-.3,.72-.3,.53,.1,.74,.3,.3,.44,.3,.73-.1,.52-.31,.72c-.2,.2-.45,.3-.73,.3s-.51-.1-.72-.3c-.2-.2-.31-.44-.31-.72Z" style="fill:#380063;"></path> <path d="M845.88,806.41s0-.07,.02-.1c.02-.03,.04-.05,.06-.05h2.49s.06,.01,.08,.04c.02,.03,.03,.06,.03,.09v.43h.1c.48-.45,1.06-.68,1.75-.68,.22,0,.43,.02,.63,.07,.21,.05,.41,.12,.6,.22,.2,.1,.37,.24,.51,.39,.15,.16,.26,.36,.35,.6,.09,.24,.13,.52,.13,.82v2.85c0,.22,.04,.39,.13,.51,.09,.12,.19,.18,.31,.18s.23-.06,.32-.18c.09-.12,.14-.29,.14-.51,0-.03,.02-.06,.05-.08,.03-.02,.07-.03,.1-.03s.07,0,.1,.03c.03,.02,.04,.05,.04,.08,0,.43-.16,.77-.48,1.01-.32,.24-.7,.36-1.14,.36s-.82-.12-1.14-.36c-.32-.24-.48-.58-.48-1.01v-3.73c0-.26-.06-.46-.18-.6-.12-.14-.29-.21-.5-.21-.41,0-.82,.21-1.22,.64v5.16h-2.07v-5.8h-.66c-.06,0-.09-.05-.09-.14Z" style="fill:#380063;"></path> <path d="M854.65,809.29c0-.41,.05-.8,.16-1.17,.11-.37,.27-.7,.47-1,.21-.29,.48-.53,.81-.71s.71-.26,1.12-.26c.3,0,.58,.05,.85,.14,.27,.09,.55,.27,.84,.52v-.56h1.9c.11,0,.17,.05,.17,.16v4.7c0,.19,.05,.34,.14,.44,.09,.11,.2,.16,.32,.16s.23-.05,.32-.16c.09-.11,.13-.26,.13-.46,0-.03,.02-.06,.05-.08,.03-.02,.07-.03,.1-.03s.07,0,.09,.03c.03,.02,.04,.05,.04,.08,0,.37-.16,.69-.47,.95-.32,.27-.69,.4-1.12,.4-.33,0-.64-.08-.92-.25-.28-.17-.49-.42-.62-.76-.54,.68-1.17,1.02-1.9,1.02-.32,0-.63-.08-.93-.24-.3-.16-.56-.38-.79-.65s-.41-.61-.55-1.01c-.14-.4-.2-.82-.2-1.27Zm2.07,1.07c0,.49,.11,.87,.32,1.14,.22,.27,.47,.41,.76,.41s.56-.14,.78-.41c.22-.28,.33-.66,.33-1.14v-2.34c0-.44-.11-.78-.33-1.03-.22-.25-.47-.37-.77-.37s-.55,.12-.77,.37c-.22,.25-.33,.59-.33,1.03v2.35Z" style="fill:#380063;"></path> </g> <g> <path d="M943.9,780.37l-3.41-.13c-.04,1.45,.01,2.88,.15,4.28l3.4-.4c-.12-1.23-.17-2.49-.14-3.75Z" style="fill:#00f917;"></path> <path d="M953.16,759.45l-2.32-2.51c-1.03,.99-2.01,2.03-2.92,3.14l2.69,2.12c.79-.97,1.65-1.88,2.55-2.75Z" style="fill:#00f917;"></path> <path d="M944.38,775.7l-3.35-.66c-.25,1.38-.42,2.81-.49,4.25l3.41,.13c.07-1.27,.21-2.51,.44-3.72Z" style="fill:#00f917;"></path> <path d="M945.57,771.16l-3.21-1.19c-.47,1.34-.85,2.72-1.15,4.13l3.35,.67c.27-1.23,.6-2.44,1.01-3.61Z" style="fill:#00f917;"></path> <path d="M947.47,766.88l-2.98-1.68c-.68,1.25-1.28,2.55-1.8,3.89l3.21,1.18c.45-1.17,.97-2.31,1.57-3.4Z" style="fill:#00f917;"></path> <path d="M950.02,762.94l-2.68-2.12c-.87,1.13-1.67,2.32-2.39,3.56l2.98,1.67c.63-1.08,1.34-2.12,2.09-3.11Z" style="fill:#00f917;"></path> <path d="M998.38,764.09l2.84-1.9c-.81-1.18-1.7-2.3-2.66-3.36l-2.51,2.32c.83,.93,1.61,1.91,2.32,2.94Z" style="fill:#00f917;"></path> <path d="M1000.74,768.15l3.1-1.43c-.62-1.29-1.32-2.54-2.1-3.74l-2.85,1.9c.68,1.05,1.29,2.14,1.84,3.27Z" style="fill:#00f917;"></path> <path d="M1002.43,772.53l3.29-.93c-.41-1.38-.9-2.72-1.49-4.02l-3.1,1.43c.51,1.14,.93,2.31,1.29,3.52Z" style="fill:#00f917;"></path> <path d="M1003.41,777.11l3.4-.4c-.19-1.43-.46-2.84-.82-4.21l-3.29,.93c.32,1.2,.56,2.43,.72,3.68Z" style="fill:#00f917;"></path> <path d="M995.42,760.46l2.51-2.32c-.99-1.04-2.03-2.01-3.14-2.92l-2.12,2.69c.97,.79,1.89,1.65,2.75,2.55Z" style="fill:#00f917;"></path> <path d="M991.93,757.33l2.12-2.68c-1.14-.87-2.33-1.67-3.57-2.39l-1.67,2.98c1.09,.63,2.12,1.33,3.12,2.09Z" style="fill:#00f917;"></path> <path d="M975.44,751.24c1.26,.07,2.51,.22,3.72,.44l.67-3.35c-1.39-.25-2.81-.42-4.26-.5l-.13,3.41Z" style="fill:#00f917;"></path> <path d="M984.89,749.67c-1.33-.47-2.72-.86-4.13-1.16l-.66,3.35c1.23,.27,2.44,.6,3.61,1.01l1.19-3.21Z" style="fill:#00f917;"></path> <path d="M987.99,754.77l1.67-2.98c-1.25-.68-2.55-1.28-3.89-1.8l-1.19,3.21c1.18,.46,2.31,.98,3.41,1.57Z" style="fill:#00f917;"></path> <path d="M997.53,799.22l2.69,2.12c.87-1.14,1.66-2.32,2.39-3.57l-2.98-1.67c-.64,1.08-1.33,2.12-2.09,3.11Z" style="fill:#00f917;"></path> <path d="M994.41,802.72l2.32,2.51c1.04-.99,2.02-2.04,2.92-3.14l-2.68-2.12c-.79,.96-1.65,1.88-2.55,2.74Z" style="fill:#00f917;"></path> <path d="M990.77,805.69l1.9,2.84c1.18-.81,2.3-1.71,3.36-2.66l-2.32-2.51c-.93,.83-1.91,1.61-2.94,2.33Z" style="fill:#00f917;"></path> <path d="M986.71,808.04l1.43,3.1c1.3-.62,2.54-1.32,3.74-2.1l-1.91-2.85c-1.05,.68-2.13,1.29-3.26,1.84Z" style="fill:#00f917;"></path> <path d="M1003.19,786.46l3.35,.67c.25-1.39,.42-2.81,.5-4.25l-3.41-.14c-.07,1.26-.21,2.51-.44,3.72Z" style="fill:#00f917;"></path> <path d="M982.33,809.72l.93,3.3c1.38-.41,2.72-.91,4.02-1.49l-1.43-3.1c-1.14,.5-2.31,.93-3.52,1.29Z" style="fill:#00f917;"></path> <path d="M1003.66,781.8l3.41,.14c.03-1.45-.02-2.88-.16-4.28l-3.39,.4c.12,1.23,.17,2.48,.14,3.75Z" style="fill:#00f917;"></path> <path d="M1000.09,795.29l2.98,1.67c.68-1.25,1.28-2.55,1.8-3.9l-3.2-1.18c-.46,1.17-.98,2.31-1.57,3.41Z" style="fill:#00f917;"></path> <path d="M944.15,785.05l-3.39,.4c.18,1.43,.45,2.84,.82,4.21l3.3-.93c-.32-1.2-.56-2.43-.72-3.68Z" style="fill:#00f917;"></path> <path d="M1001.99,791l3.21,1.18c.47-1.33,.86-2.71,1.16-4.12l-3.35-.67c-.26,1.23-.6,2.44-1.01,3.61Z" style="fill:#00f917;"></path> <path d="M977.75,810.71l.39,3.39c1.43-.18,2.84-.46,4.21-.82l-.93-3.29c-1.2,.31-2.43,.56-3.68,.72Z" style="fill:#00f917;"></path> <path d="M949.18,798.08l-2.84,1.89c.81,1.18,1.7,2.3,2.65,3.37l2.51-2.32c-.83-.93-1.61-1.92-2.32-2.93Z" style="fill:#00f917;"></path> <path d="M945.14,789.63l-3.29,.93c.41,1.38,.9,2.72,1.48,4.02l3.11-1.43c-.51-1.14-.93-2.31-1.29-3.53Z" style="fill:#00f917;"></path> <path d="M946.83,794.01l-3.11,1.43c.62,1.3,1.32,2.55,2.1,3.74l2.84-1.9c-.67-1.05-1.29-2.14-1.84-3.27Z" style="fill:#00f917;"></path> <path d="M973.06,810.96l-.14,3.41c1.45,.04,2.88-.02,4.28-.16l-.4-3.39c-1.23,.12-2.48,.17-3.74,.14Z" style="fill:#00f917;"></path> </g> <path d="M970.15,816.66l-.48,4.06c1.72,.18,3.43,.25,5.12,.21l-.16-4.09c-1.48,.03-2.98-.03-4.48-.19Z" style="fill:#380063;"></path> <path d="M946.06,803.66l-3.21,2.54c1.08,1.32,2.23,2.59,3.48,3.77l2.78-3c-1.08-1.04-2.09-2.14-3.04-3.31Z" style="fill:#380063;"></path> <path d="M964.62,815.66l-1.1,3.94c1.63,.43,3.31,.77,5.03,.99l.48-4.06c-1.5-.19-2.97-.48-4.4-.87Z" style="fill:#380063;"></path> <path d="M959.32,813.81l-1.71,3.72c1.55,.69,3.16,1.27,4.82,1.76l1.11-3.93c-1.45-.43-2.86-.95-4.22-1.55Z" style="fill:#380063;"></path> <path d="M954.39,811.14l-2.28,3.4c1.43,.94,2.93,1.77,4.48,2.52l1.71-3.73c-1.36-.64-2.67-1.37-3.91-2.19Z" style="fill:#380063;"></path> <path d="M949.93,807.72l-2.78,3.01c1.27,1.14,2.61,2.2,4.02,3.18l2.27-3.4c-1.24-.86-2.41-1.79-3.52-2.79Z" style="fill:#380063;"></path> <path d="M955.84,750.15l-2-3.57c-1.48,.86-2.9,1.81-4.26,2.86l2.53,3.21c1.19-.9,2.43-1.75,3.73-2.5Z" style="fill:#380063;"></path> <path d="M960.9,747.71l-1.42-3.83c-1.6,.62-3.16,1.34-4.66,2.15l2,3.58c1.31-.71,2.67-1.34,4.07-1.89Z" style="fill:#380063;"></path> <path d="M966.28,746.11l-.79-4.01c-1.68,.36-3.34,.82-4.94,1.39l1.42,3.83c1.41-.5,2.85-.9,4.32-1.21Z" style="fill:#380063;"></path> <path d="M971.84,745.37l-.16-4.09c-1.73,.09-3.43,.28-5.1,.59l.79,4.01c1.46-.27,2.95-.43,4.46-.51Z" style="fill:#380063;"></path> <path d="M951.22,753.35l-2.53-3.22c-1.33,1.08-2.59,2.23-3.78,3.48l3,2.77c1.03-1.08,2.15-2.09,3.3-3.03Z" style="fill:#380063;"></path> <path d="M947.16,757.21l-3-2.78c-1.14,1.27-2.21,2.62-3.19,4.03l3.4,2.27c.86-1.24,1.78-2.41,2.79-3.52Z" style="fill:#380063;"></path> <path d="M938.35,776.31c.2-1.5,.49-2.97,.87-4.4l-3.94-1.11c-.44,1.63-.77,3.31-.99,5.03l4.06,.48Z" style="fill:#380063;"></path> <path d="M937.36,764.89c-.69,1.55-1.28,3.16-1.77,4.82l3.94,1.11c.43-1.44,.94-2.86,1.54-4.21l-3.71-1.72Z" style="fill:#380063;"></path> <path d="M943.75,761.68l-3.4-2.28c-.93,1.43-1.77,2.92-2.51,4.48l3.71,1.72c.65-1.36,1.38-2.67,2.19-3.92Z" style="fill:#380063;"></path> <path d="M997.67,754.45l2.78-3c-1.27-1.14-2.6-2.21-4.02-3.18l-2.27,3.39c1.23,.86,2.4,1.79,3.51,2.79Z" style="fill:#380063;"></path> <path d="M1001.54,758.51l3.22-2.53c-1.08-1.33-2.24-2.59-3.48-3.78l-2.77,3c1.08,1.04,2.09,2.15,3.04,3.3Z" style="fill:#380063;"></path> <path d="M1004.74,763.13l3.56-1.99c-.85-1.48-1.82-2.91-2.85-4.26l-3.21,2.53c.9,1.19,1.74,2.43,2.5,3.72Z" style="fill:#380063;"></path> <path d="M1007.17,768.19l3.83-1.41c-.61-1.6-1.34-3.15-2.15-4.66l-3.57,2c.71,1.31,1.34,2.66,1.89,4.07Z" style="fill:#380063;"></path> <path d="M982.97,746.51l1.12-3.93c-1.64-.43-3.31-.76-5.03-1l-.48,4.06c1.5,.2,2.97,.49,4.39,.87Z" style="fill:#380063;"></path> <path d="M1008.78,773.57l4.01-.8c-.36-1.69-.82-3.33-1.39-4.94l-3.83,1.42c.49,1.41,.89,2.85,1.21,4.32Z" style="fill:#380063;"></path> <path d="M977.45,745.51l.48-4.06c-1.72-.17-3.44-.24-5.13-.21l.16,4.08c1.48-.03,2.98,.03,4.49,.19Z" style="fill:#380063;"></path> <path d="M942.83,798.98l-3.57,1.99c.86,1.5,1.81,2.93,2.83,4.27l3.22-2.52c-.89-1.18-1.72-2.43-2.48-3.74Z" style="fill:#380063;"></path> <path d="M993.21,751.03l2.27-3.39c-1.43-.93-2.92-1.77-4.48-2.51l-1.71,3.71c1.36,.66,2.67,1.38,3.92,2.19Z" style="fill:#380063;"></path> <path d="M975.76,816.81l.16,4.08c1.72-.09,3.43-.28,5.1-.58l-.8-4.02c-1.46,.26-2.95,.43-4.46,.52Z" style="fill:#380063;"></path> <path d="M988.27,748.36l1.71-3.71c-1.54-.69-3.15-1.28-4.81-1.76l-1.11,3.94c1.44,.43,2.85,.94,4.21,1.54Z" style="fill:#380063;"></path> <path d="M1009.52,779.13l4.08-.16c-.08-1.72-.28-3.43-.59-5.1l-4.01,.8c.26,1.46,.43,2.95,.51,4.46Z" style="fill:#380063;"></path> <path d="M981.32,816.06l.8,4.01c1.68-.36,3.33-.82,4.94-1.39l-1.41-3.84c-1.41,.5-2.85,.9-4.33,1.21Z" style="fill:#380063;"></path> <path d="M986.7,814.45l1.41,3.84c1.61-.62,3.16-1.34,4.67-2.15l-2-3.58c-1.32,.71-2.67,1.34-4.08,1.88Z" style="fill:#380063;"></path> <path d="M1009.38,784.74l4.06,.48c.18-1.72,.24-3.44,.21-5.12l-4.09,.16c.04,1.48-.03,2.98-.18,4.48Z" style="fill:#380063;"></path> <g> <path d="M961.54,759.5l-1.36-2.49c-1.05,.59-2.05,1.24-2.98,1.94l1.73,2.25c.82-.61,1.7-1.19,2.61-1.7Z" style="fill:#a600f1;"></path> <path d="M980.39,757.17l.8-2.72c-1.14-.32-2.3-.57-3.48-.74l-.37,2.81c1.03,.15,2.05,.37,3.05,.64Z" style="fill:#a600f1;"></path> <path d="M965.07,757.84l-.95-2.67c-1.1,.41-2.18,.9-3.25,1.46l1.37,2.49c.93-.49,1.88-.91,2.84-1.27Z" style="fill:#a600f1;"></path> <path d="M968.81,756.76l-.52-2.79c-1.15,.23-2.3,.55-3.43,.94l.96,2.67c.99-.34,1.99-.61,3-.82Z" style="fill:#a600f1;"></path> <path d="M972.68,756.29l-.08-2.84c-1.18,.05-2.36,.18-3.54,.38l.53,2.79c1.03-.18,2.06-.29,3.1-.34Z" style="fill:#a600f1;"></path> <path d="M976.57,756.42l.36-2.81c-1.18-.13-2.36-.2-3.55-.18l.08,2.84c1.04-.01,2.08,.05,3.11,.16Z" style="fill:#a600f1;"></path> <path d="M996.36,791.36l2.56,1.22c.5-1.08,.91-2.19,1.26-3.33l-2.72-.8c-.31,1-.67,1.96-1.11,2.91Z" style="fill:#a600f1;"></path> <path d="M994.47,794.77l2.34,1.6c.66-.99,1.25-2.02,1.78-3.09l-2.57-1.21c-.46,.93-.97,1.83-1.54,2.7Z" style="fill:#a600f1;"></path> <path d="M992.08,797.84l2.07,1.95c.8-.88,1.55-1.8,2.23-2.77l-2.34-1.6c-.6,.84-1.25,1.65-1.96,2.42Z" style="fill:#a600f1;"></path> <path d="M989.22,800.49l1.73,2.25c.94-.75,1.83-1.54,2.65-2.38l-2.07-1.95c-.71,.74-1.49,1.43-2.31,2.08Z" style="fill:#a600f1;"></path> <path d="M997.68,787.7l2.72,.8c.32-1.15,.57-2.31,.74-3.48l-2.81-.36c-.16,1.02-.37,2.04-.65,3.04Z" style="fill:#a600f1;"></path> <path d="M998.42,783.88l2.82,.37c.13-1.18,.19-2.36,.18-3.56l-2.84,.08c.01,1.04-.04,2.09-.16,3.11Z" style="fill:#a600f1;"></path> <path d="M995.73,769.54c.49,.93,.92,1.88,1.28,2.84l2.67-.96c-.41-1.1-.9-2.18-1.46-3.24l-2.49,1.36Z" style="fill:#a600f1;"></path> <path d="M1000.88,775.6c-.23-1.15-.55-2.3-.93-3.43l-2.67,.95c.34,1,.62,2,.82,3.01l2.79-.52Z" style="fill:#a600f1;"></path> <path d="M998.56,779.99l2.83-.08c-.05-1.18-.17-2.36-.38-3.53l-2.79,.52c.18,1.03,.29,2.06,.33,3.09Z" style="fill:#a600f1;"></path> <path d="M970.97,805.74l-.36,2.81c1.17,.13,2.36,.2,3.55,.18l-.08-2.83c-1.04,0-2.07-.04-3.11-.16Z" style="fill:#a600f1;"></path> <path d="M967.15,804.99l-.81,2.72c1.15,.32,2.31,.57,3.49,.74l.36-2.82c-1.03-.16-2.05-.37-3.04-.65Z" style="fill:#a600f1;"></path> <path d="M963.49,803.67l-1.21,2.56c1.07,.49,2.19,.91,3.33,1.26l.8-2.72c-.99-.31-1.97-.68-2.92-1.1Z" style="fill:#a600f1;"></path> <path d="M960.08,801.78l-1.6,2.33c.99,.67,2.03,1.25,3.09,1.78l1.22-2.57c-.93-.45-1.83-.97-2.71-1.54Z" style="fill:#a600f1;"></path> <path d="M982.47,804.32l.95,2.67c1.1-.41,2.19-.9,3.25-1.45l-1.36-2.49c-.93,.49-1.88,.91-2.84,1.27Z" style="fill:#a600f1;"></path> <path d="M957.01,799.39l-1.95,2.06c.88,.81,1.8,1.55,2.77,2.23l1.6-2.34c-.84-.59-1.65-1.25-2.42-1.96Z" style="fill:#a600f1;"></path> <path d="M986,802.67l1.36,2.49c1.04-.59,2.04-1.25,2.98-1.94l-1.73-2.25c-.82,.61-1.69,1.18-2.61,1.7Z" style="fill:#a600f1;"></path> <path d="M974.86,805.88l.08,2.83c1.18-.04,2.36-.18,3.54-.38l-.52-2.79c-1.03,.17-2.07,.29-3.1,.34Z" style="fill:#a600f1;"></path> <path d="M958.32,761.66l-1.74-2.24c-.94,.74-1.83,1.54-2.65,2.38l2.06,1.95c.72-.74,1.49-1.43,2.32-2.09Z" style="fill:#a600f1;"></path> <path d="M978.74,805.4l.52,2.79c1.15-.23,2.3-.55,3.43-.94l-.95-2.67c-.99,.34-1.99,.61-3,.82Z" style="fill:#a600f1;"></path> <path d="M954.36,796.54l-2.25,1.73c.75,.94,1.54,1.82,2.38,2.65l1.95-2.07c-.74-.72-1.43-1.49-2.08-2.31Z" style="fill:#a600f1;"></path> <path d="M951.18,770.8l-2.56-1.22c-.5,1.08-.91,2.19-1.26,3.33l2.72,.8c.31-.99,.68-1.97,1.11-2.91Z" style="fill:#a600f1;"></path> <path d="M955.47,764.32l-2.06-1.95c-.81,.88-1.55,1.8-2.23,2.77l2.34,1.6c.6-.84,1.25-1.65,1.96-2.42Z" style="fill:#a600f1;"></path> <path d="M953.07,767.39l-2.34-1.61c-.66,1-1.25,2.02-1.78,3.09l2.56,1.22c.45-.93,.97-1.84,1.55-2.7Z" style="fill:#a600f1;"></path> <path d="M952.18,793.31l-2.49,1.36c.6,1.05,1.24,2.05,1.94,2.98l2.25-1.73c-.61-.82-1.18-1.7-1.7-2.61Z" style="fill:#a600f1;"></path> </g> </g> <g> <path d="M673.06,518.26l-.81,7.67c.83-.21,1.83-.31,2.99-.31,4.58,0,8.24,1.27,10.98,3.81,2.75,2.54,4.12,5.97,4.12,10.29,0,3.99-1.37,7.47-4.12,10.42-2.75,2.95-6.38,4.43-10.92,4.43s-8-1.22-10.51-3.65c-2.52-2.43-3.9-5.46-4.15-9.08h8.98c.21,1.5,.79,2.7,1.75,3.62,.96,.92,2.31,1.37,4.06,1.37,1.62,0,2.99-.6,4.12-1.81,1.12-1.21,1.68-2.79,1.68-4.74,0-2.25-.73-4-2.18-5.27-1.46-1.27-3.56-1.9-6.3-1.9s-5.93,.37-9.55,1.12l2.18-23.58h22.02v7.61h-14.35Z" style="fill:#a600f1;"></path> <path d="M715.11,564.11v-18.65h1.62c3.95,0,6.15-3.49,6.61-10.48l1.81-24.33h30.26v34.81h5.99v18.65h-8.92v-10.92h-28.45v10.92h-8.92Zm31.38-18.65v-27.08h-13.23l-1.19,16.6c-.37,4.99-1.48,8.48-3.31,10.48h17.72Z" style="fill:#a600f1;"></path> <path d="M795.28,510.65v7.74h-16.47v9.17h15.91v7.36h-15.91v10.54h17.16v7.74h-26.08v-42.55h25.39Z" style="fill:#a600f1;"></path> <path d="M832.47,553.2l-17.34-19.59v19.59h-8.92v-42.55h8.92v19.28l17.16-19.28h10.92l-19.28,20.59,19.9,21.96h-11.35Z" style="fill:#a600f1;"></path> <path d="M845.38,553.2l16.53-42.55h8.36l15.66,42.55h-9.17l-3.31-9.67h-15.72l-3.37,9.67h-8.98Zm18.03-26.14l-3.56,10.11h11.42l-3.49-10.17c-.83-2.41-1.5-4.57-2-6.49h-.31c-.54,2.16-1.23,4.35-2.06,6.55Z" style="fill:#a600f1;"></path> <path d="M892.17,510.65h25.08v7.74h-16.16v8.98h5.49c4.66,0,8.31,1.14,10.95,3.43,2.64,2.29,3.96,5.41,3.96,9.36s-1.39,7.17-4.18,9.51c-2.79,2.35-6.41,3.52-10.86,3.52h-14.29v-42.55Zm20.28,29.51c0-1.87-.62-3.35-1.87-4.43-1.25-1.08-2.99-1.62-5.24-1.62h-4.24v12.35h4.62c2.16,0,3.83-.55,4.99-1.65,1.16-1.1,1.75-2.65,1.75-4.65Z" style="fill:#a600f1;"></path> <path d="M930.17,553.2v-42.55h13.6c4.78,0,8.66,1.15,11.64,3.46,2.97,2.31,4.46,5.71,4.46,10.2s-1.37,7.77-4.12,10.2-6.84,3.65-12.29,3.65h-4.37v15.04h-8.92Zm20.71-28.76c0-1.91-.6-3.49-1.81-4.74-1.21-1.25-3.04-1.87-5.49-1.87h-4.49v13.16h4.3c4.99,0,7.49-2.18,7.49-6.55Z" style="fill:#a600f1;"></path> <path d="M962.61,553.2l13.16-17.97c-2.54-.71-4.62-2.08-6.24-4.12-1.62-2.04-2.43-4.53-2.43-7.49,0-3.83,1.3-6.95,3.9-9.36,2.6-2.41,6.69-3.62,12.26-3.62h13.23v42.55h-8.92v-16.72h-2.81l-11.54,16.72h-10.61Zm13.66-29.2c0,1.79,.58,3.22,1.75,4.3,1.16,1.08,2.75,1.62,4.74,1.62h4.8v-12.1h-4.74c-2.12,0-3.74,.54-4.87,1.62-1.12,1.08-1.68,2.6-1.68,4.55Z" style="fill:#a600f1;"></path> </g> <g> <path d="M288.11,169.34v-37.88h-16.18v37.88h-12.31v-48.83h40.81v48.83h-12.31Z" style="fill:#a600f1;"></path> <path d="M308.23,169.34v-48.83h16.47c5.54,0,10.07,1.37,13.6,4.12,3.53,2.75,5.3,6.74,5.3,11.99s-1.61,9.09-4.83,11.96c-3.22,2.86-7.98,4.3-14.28,4.3h-3.44v16.47h-12.82Zm22.48-32.58c0-1.77-.54-3.26-1.61-4.47-1.07-1.22-2.76-1.83-5.05-1.83h-3.01v12.46h2.86c4.53,0,6.8-2.05,6.8-6.16Z" style="fill:#a600f1;"></path> <path d="M378.83,120.51v10.95h-17.83v7.59h17.18v10.24h-17.18v9.09h18.54v10.96h-31.36v-48.83h30.65Z" style="fill:#a600f1;"></path> <path d="M383.77,181.87v-23.49h2.22c1.86,0,3.34-.74,4.44-2.22,1.1-1.48,1.79-4.08,2.08-7.8l2.08-27.85h36.95v37.88h7.52v23.49h-12.82v-12.53h-29.64v12.53h-12.82Zm34.94-23.49v-26.92h-12.53l-1.29,16.9c-.38,4.82-1.36,8.16-2.94,10.02h16.75Z" style="fill:#a600f1;"></path> <path d="M472.41,169.34v-19.69h-15.18v19.69h-12.82v-48.83h12.82v18.19h15.18v-18.19h12.82v48.83h-12.82Z" style="fill:#a600f1;"></path> <path d="M490.59,144.92c0-7.11,2.48-13.22,7.45-18.33,4.96-5.11,11.17-7.66,18.62-7.66s13.95,2.55,18.65,7.66c4.7,5.11,7.05,11.22,7.05,18.33s-2.47,13.28-7.41,18.37-11.09,7.63-18.44,7.63c-4.3,0-8.15-.78-11.56-2.33-3.41-1.55-6.13-3.6-8.16-6.16-2.03-2.55-3.57-5.33-4.62-8.34-1.05-3.01-1.58-6.06-1.58-9.17Zm16.75-10.31c-2.48,2.77-3.72,6.21-3.72,10.31s1.23,7.54,3.69,10.31c2.46,2.77,5.5,4.15,9.13,4.15s6.74-1.38,9.2-4.15c2.46-2.77,3.69-6.2,3.69-10.31s-1.17-7.54-3.51-10.31c-2.34-2.77-5.42-4.15-9.24-4.15s-6.76,1.39-9.24,4.15Z" style="fill:#a600f1;"></path> <path d="M547.73,169.34v-48.83h15.11c5.35,0,9.59,1.01,12.75,3.04,3.15,2.03,4.73,5.1,4.73,9.2,0,2.58-.87,4.79-2.61,6.62-1.74,1.84-3.93,3.02-6.55,3.54v.14c3.53,.57,6.29,1.98,8.27,4.22,1.98,2.24,2.97,4.8,2.97,7.66,0,4.39-1.64,7.89-4.9,10.49-3.27,2.6-7.48,3.9-12.64,3.9h-17.11Zm20.05-35.3c0-1.38-.48-2.49-1.43-3.33-.96-.83-2.39-1.25-4.3-1.25h-2.43v9.74h2.79c1.96,0,3.34-.43,4.15-1.29,.81-.86,1.22-2.15,1.22-3.87Zm1.79,19.83c0-1.72-.6-3.14-1.79-4.26-1.19-1.12-2.82-1.68-4.87-1.68h-3.29v12.24h3.29c2.1,0,3.73-.54,4.9-1.61,1.17-1.07,1.75-2.64,1.75-4.69Z" style="fill:#a600f1;"></path> <path d="M585.25,144.92c0-7.11,2.48-13.22,7.45-18.33,4.96-5.11,11.17-7.66,18.62-7.66s13.95,2.55,18.65,7.66c4.7,5.11,7.05,11.22,7.05,18.33s-2.47,13.28-7.41,18.37-11.09,7.63-18.44,7.63c-4.3,0-8.15-.78-11.56-2.33-3.41-1.55-6.13-3.6-8.16-6.16-2.03-2.55-3.57-5.33-4.62-8.34-1.05-3.01-1.58-6.06-1.58-9.17Zm16.75-10.31c-2.48,2.77-3.72,6.21-3.72,10.31s1.23,7.54,3.69,10.31c2.46,2.77,5.5,4.15,9.13,4.15s6.74-1.38,9.2-4.15c2.46-2.77,3.69-6.2,3.69-10.31s-1.17-7.54-3.51-10.31c-2.34-2.77-5.42-4.15-9.24-4.15s-6.76,1.39-9.24,4.15Z" style="fill:#a600f1;"></path> <path d="M642.31,169.34v-48.83h31.36v10.95h-19.05v37.88h-12.32Z" style="fill:#a600f1;"></path> <path d="M673.96,144.92c0-7.11,2.48-13.22,7.45-18.33,4.96-5.11,11.17-7.66,18.62-7.66s13.95,2.55,18.65,7.66c4.7,5.11,7.05,11.22,7.05,18.33s-2.47,13.28-7.41,18.37-11.09,7.63-18.44,7.63c-4.3,0-8.15-.78-11.56-2.33-3.41-1.55-6.13-3.6-8.16-6.16-2.03-2.55-3.57-5.33-4.62-8.34-1.05-3.01-1.58-6.06-1.58-9.17Zm16.75-10.31c-2.48,2.77-3.72,6.21-3.72,10.31s1.23,7.54,3.69,10.31c2.46,2.77,5.5,4.15,9.13,4.15s6.74-1.38,9.2-4.15c2.46-2.77,3.69-6.2,3.69-10.31s-1.17-7.54-3.51-10.31c-2.34-2.77-5.42-4.15-9.24-4.15s-6.76,1.39-9.24,4.15Z" style="fill:#a600f1;"></path> <path d="M726.44,181.87v-23.49h2.22c1.86,0,3.34-.74,4.44-2.22,1.1-1.48,1.79-4.08,2.08-7.8l2.08-27.85h36.95v37.88h7.52v23.49h-12.82v-12.53h-29.64v12.53h-12.82Zm34.94-23.49v-26.92h-12.53l-1.29,16.9c-.38,4.82-1.36,8.16-2.94,10.02h16.75Z" style="fill:#a600f1;"></path> <path d="M815.09,169.34v-19.69h-15.18v19.69h-12.82v-48.83h12.82v18.19h15.18v-18.19h12.82v48.83h-12.82Z" style="fill:#a600f1;"></path> <path d="M835.78,120.51h12.31v22.55c0,3.1-.07,5.73-.21,7.88h.21c1.19-2.82,3.08-6.47,5.66-10.96l11.1-19.48h11.74v48.83h-12.31v-21.27c0-.29,.09-3.2,.29-8.74h-.29c-.91,2-3.37,6.49-7.38,13.46l-9.45,16.54h-11.67v-48.83Z" style="fill:#a600f1;"></path> <path d="M884.47,120.51h12.31v22.55c0,3.1-.07,5.73-.21,7.88h.21c1.19-2.82,3.08-6.47,5.66-10.96l11.1-19.48h11.74v48.83h-12.31v-21.27c0-.29,.09-3.2,.29-8.74h-.29c-.91,2-3.37,6.49-7.38,13.46l-9.45,16.54h-11.67v-48.83Zm25.06-15.54h7.45c-.19,3.39-1.46,6.05-3.79,7.98-2.34,1.93-5.23,2.9-8.66,2.9-3.77,0-6.74-.97-8.91-2.9-2.17-1.93-3.35-4.59-3.54-7.98h7.45c.09,1.05,.6,1.87,1.5,2.47,.91,.6,2.08,.9,3.51,.9s2.67-.3,3.58-.9c.91-.6,1.38-1.42,1.43-2.47Z" style="fill:#a600f1;"></path> </g> <g> <polygon points="294.79 760.57 294.79 798.53 284.17 798.53 284.17 772.11 276.77 798.53 270.62 798.53 263.02 772.56 263.02 798.53 259.32 798.53 259.32 760.57 270.51 760.57 277.02 783.48 283.5 760.57 294.79 760.57" style="fill:#231f20; fill-rule:evenodd;"></polygon> <polygon points="325.7 760.53 325.7 764.34 312.1 764.34 312.1 775.83 323.53 775.83 323.53 779.63 312.1 779.63 312.1 794.69 328.01 794.69 328.01 798.5 301.09 798.5 301.09 760.53 325.7 760.53" style="fill:#231f20; fill-rule:evenodd;"></polygon> <path d="M367.19,761.83l-6.68,1.24c.28-1.34,.43-2.44,.43-3.35,0-5.77-3.5-8.64-10.49-8.64-5.52,0-8.28,1.98-8.28,5.95,0,2.99,3.09,5.54,9.26,7.67,11.92,4.09,17.87,10.14,17.87,18.15,0,4.7-1.67,8.47-5.01,11.32-3.35,2.84-7.79,4.27-13.34,4.27-12.28,0-18.42-4.76-18.42-14.27,0-.78,.06-1.74,.19-2.88l6.93-1.52c-.53,2.11-.79,3.94-.79,5.49,0,6.15,3.52,9.23,10.57,9.23,5.64,0,8.47-2.22,8.47-6.65,0-3.3-3.37-6.19-10.13-8.68-9.76-3.58-14.65-9.31-14.65-17.19,0-4.45,1.62-8.05,4.89-10.76,3.26-2.73,7.54-4.09,12.85-4.09,10.9,0,16.34,4.9,16.34,14.71" style="fill:#ec1c24; fill-rule:evenodd;"></path> <path d="M395.34,747.17c14.43,0,21.65,8.54,21.65,25.64s-7.35,25.64-22.05,25.64-22.06-8.74-22.06-26.23,7.49-25.06,22.46-25.06m-.4,3.96c-2.72,0-4.55,1.5-5.5,4.49-.96,2.99-1.44,8.72-1.44,17.2s.48,14.21,1.44,17.2c.95,2.99,2.79,4.49,5.5,4.49s4.54-1.5,5.49-4.49c.96-2.99,1.44-8.72,1.44-17.2s-.48-14.19-1.44-17.19c-.95-3-2.79-4.5-5.49-4.5" style="fill:#ec1c24; fill-rule:evenodd;"></path> <path d="M421.12,798.57v-37.97h16.38c9.3,0,13.94,3.72,13.94,11.16s-5.17,11.26-15.49,11.26h-3.81v15.55h-11.01Zm11.01-19.05h2.48c4,0,6-2.65,6-7.96,0-4.97-2-7.45-6-7.45h-2.48v15.41Z" style="fill:#231f20; fill-rule:evenodd;"></path> <path d="M454.93,798.51v-37.97h16.33c4.24,0,7.63,.89,10.18,2.69,2.54,1.79,3.81,4.19,3.81,7.19,0,4.59-2.73,7.59-8.18,8.98,2.8,1.04,4.61,2.18,5.44,3.43,.83,1.23,1.39,3.65,1.68,7.23,.35,4.27,1.06,7.08,2.14,8.46h-11.95c-.76-1.76-1.14-3.96-1.14-6.59l-.06-2.26-.06-2.84c0-4.38-1.76-6.56-5.29-6.56h-1.89v18.25h-11.01Zm11.01-21.39h2.22c4.17,0,6.26-2.18,6.26-6.54s-2.09-6.53-6.26-6.53h-2.22v13.07Z" style="fill:#231f20; fill-rule:evenodd;"></path> <path d="M505.76,759.24c11.05,0,16.58,6.54,16.58,19.63s-5.63,19.63-16.88,19.63-16.89-6.69-16.89-20.08,5.74-19.19,17.2-19.19m-.3,3.03c-2.08,0-3.48,1.15-4.22,3.44-.73,2.29-1.1,6.67-1.1,13.17s.37,10.88,1.1,13.17c.73,2.29,2.14,3.44,4.22,3.44s3.47-1.15,4.2-3.44c.73-2.29,1.1-6.67,1.1-13.17s-.37-10.86-1.1-13.16c-.73-2.3-2.14-3.45-4.2-3.45" style="fill:#231f20; fill-rule:evenodd;"></path> <polygon points="550.95 760.6 550.95 764.41 537.19 764.41 537.19 777.06 548.86 777.06 548.86 780.87 537.19 780.87 537.19 798.57 526.17 798.57 526.17 760.6 550.95 760.6" style="fill:#231f20; fill-rule:evenodd;"></polygon> <polygon points="579.92 760.6 579.92 764.41 566.15 764.41 566.15 777.06 577.83 777.06 577.83 780.87 566.15 780.87 566.15 798.57 555.14 798.57 555.14 760.6 579.92 760.6" style="fill:#231f20; fill-rule:evenodd;"></polygon> <rect x="302.37" y="804.38" width="236.34" height="1.34" style="fill:#ec1c24;"></rect> <g> <path d="M309.51,816.61l1.34,.41v.36c0,2.23-1.21,3.34-3.65,3.34-2.89,0-4.33-1.46-4.33-4.39,0-1.47,.42-2.64,1.26-3.51,.84-.87,1.97-1.31,3.39-1.31,2.04,0,3.05,.92,3.05,2.77l-1.49,.72,.02-.84c0-1.25-.42-1.88-1.26-1.88-1.11,0-1.67,1.23-1.67,3.69,0,1.52,.12,2.56,.36,3.13,.24,.57,.68,.85,1.32,.85,1.18,0,1.77-.76,1.77-2.29,0-.21-.03-.56-.1-1.04Z" style="fill:#231f20;"></path> <path d="M316.06,811.53c2.9,0,4.35,1.53,4.35,4.59s-1.45,4.6-4.35,4.6-4.36-1.53-4.36-4.6,1.45-4.59,4.36-4.59Zm0,.77c-.7,0-1.05,1.27-1.05,3.82s.35,3.82,1.05,3.82,1.06-1.27,1.06-3.82-.35-3.82-1.06-3.82Z" style="fill:#231f20;"></path> <path d="M328.75,814.01l-1.54,.27c0-1.31-.61-1.97-1.83-1.97-.75,0-1.12,.31-1.12,.92,0,.45,.64,.94,1.93,1.46,1.97,.81,2.96,1.83,2.96,3.07,0,1.98-1.26,2.97-3.77,2.97-2.66,0-3.99-.99-3.99-2.97l1.64-.33c-.02,.19-.03,.37-.03,.54,0,.51,.21,.95,.64,1.33,.43,.38,.93,.57,1.51,.57,.77,0,1.15-.32,1.15-.97,0-.44-.62-.92-1.85-1.45-1.86-.8-2.79-1.83-2.79-3.08,0-.83,.36-1.51,1.07-2.04,.71-.53,1.63-.8,2.75-.8,1.99,0,3.08,.82,3.28,2.47Z" style="fill:#231f20;"></path> <path d="M343.4,820.52h-3.18v-6.59c0-.57-.17-.86-.5-.86-.78,0-1.17,.83-1.17,2.48v4.97h-3.18v-6.45c0-.66-.15-.98-.45-.98-.79,0-1.18,.82-1.18,2.47v4.96h-3.18v-8.8c1.07,0,2.13-.07,3.18-.22v1.51c.75-1,1.67-1.51,2.77-1.51,.92,0,1.6,.47,2.04,1.42,.71-.96,1.59-1.44,2.65-1.44,1.46,0,2.19,.74,2.19,2.22v6.81Z" style="fill:#231f20;"></path> <path d="M351.61,817.31l1.28,.37c-.13,2.02-1.33,3.04-3.58,3.04-2.92,0-4.39-1.46-4.39-4.38,0-1.42,.39-2.58,1.16-3.48,.78-.9,1.77-1.36,2.99-1.36,2.54,0,3.8,1.64,3.8,4.91h-4.63c0,2.3,.58,3.45,1.75,3.45,1.09,0,1.64-.65,1.64-1.95,0-.17,0-.37-.02-.6Zm-3.38-1.88h1.9c0-2.04-.31-3.06-.92-3.06-.56,0-.87,.76-.94,2.27l-.03,.79Z" style="fill:#231f20;"></path> <path d="M359.11,811.78v.98h-1.41v6.2c0,.39,.13,.58,.37,.58,.18,0,.29-.13,.32-.39l.91,.09c-.25,.92-1.04,1.38-2.38,1.38-1.6,0-2.39-.68-2.39-2.04v-5.82h-1.06v-.98h1.06v-1.55c1.1-.3,2.16-.74,3.18-1.31v2.85h1.41Z" style="fill:#231f20;"></path> <path d="M364.21,811.53c2.9,0,4.35,1.53,4.35,4.59s-1.45,4.6-4.35,4.6-4.36-1.53-4.36-4.6,1.45-4.59,4.36-4.59Zm0,.77c-.7,0-1.05,1.27-1.05,3.82s.35,3.82,1.05,3.82,1.06-1.27,1.06-3.82-.35-3.82-1.06-3.82Z" style="fill:#231f20;"></path> <path d="M373.2,808.47v12.05h-3.18v-11.88c.88,0,1.93-.06,3.18-.17Z" style="fill:#231f20;"></path> <path d="M379.03,811.53c2.9,0,4.35,1.53,4.35,4.59s-1.45,4.6-4.35,4.6-4.36-1.53-4.36-4.6,1.45-4.59,4.36-4.59Zm0,.77c-.7,0-1.05,1.27-1.05,3.82s.35,3.82,1.05,3.82,1.06-1.27,1.06-3.82-.35-3.82-1.06-3.82Z" style="fill:#231f20;"></path> <path d="M390.59,811.84c1.48,.63,2.22,1.55,2.22,2.76,0,.8-.37,1.47-1.11,2.04-.74,.56-1.64,.84-2.69,.84-.41,0-.95-.05-1.64-.16-.4,.23-.6,.46-.6,.7,0,.32,.25,.48,.74,.48,.13,0,.39-.01,.77-.03,.98-.06,1.69-.1,2.14-.1,2.11,0,3.17,.8,3.17,2.4,0,1.94-1.75,2.91-5.25,2.91-2.6,0-3.91-.55-3.91-1.64,0-.63,.53-1.06,1.58-1.29-1.13-.3-1.69-.79-1.69-1.47,0-.85,.67-1.6,2.01-2.25-1.18-.48-1.77-1.29-1.77-2.43,0-.87,.36-1.6,1.07-2.19,.71-.59,1.6-.88,2.65-.88,.36,0,.83,.04,1.42,.11-.03-.2-.04-.36-.04-.48,0-1.15,.6-1.72,1.8-1.72,.96,0,1.44,.4,1.44,1.21,0,.61-.29,.92-.86,.92-.19,0-.42-.06-.68-.19-.16-.08-.28-.12-.36-.13-.27-.02-.41,.18-.41,.6Zm-2.05,9.26c-1.48,0-2.22,.29-2.22,.86s.72,.85,2.15,.85c1.66,0,2.5-.32,2.5-.96,0-.5-.81-.76-2.43-.76Zm.09-8.72c-.59,0-.89,.74-.89,2.21,0,1.35,.31,2.03,.92,2.03,.56,0,.85-.6,.85-1.8,0-1.62-.29-2.44-.88-2.44Z" style="fill:#231f20;"></path> <path d="M401.93,811.75l-4.02,9.9c-.55,1.36-1.29,2.04-2.23,2.04s-1.52-.39-1.85-1.16l1.1-.79c.09,.67,.33,1,.74,1,.46,0,.83-.39,1.11-1.16l.23-.63-3.53-9.21h3.49l1.77,5.16,2.01-5.16h1.18Z" style="fill:#231f20;"></path> <path d="M408.2,820.52v-11.88c.52,0,1.58-.06,3.18-.18v4.22c.59-.77,1.25-1.16,1.98-1.16,2.08,0,3.11,1.44,3.11,4.32,0,3.25-1.23,4.87-3.71,4.87-1.17,0-2.16-.55-2.98-1.64l-.78,1.45h-.79Zm4.17-7.72c-.7,0-1.05,1.02-1.05,3.05,0,2.39,.34,3.59,1.03,3.59,.6,0,.9-.62,.9-1.87l.05-2.15-.06-1.21c-.09-.93-.38-1.4-.86-1.4Z" style="fill:#231f20;"></path> <path d="M425.33,811.75l-4.02,9.9c-.55,1.36-1.29,2.04-2.23,2.04s-1.52-.39-1.85-1.16l1.1-.79c.09,.67,.33,1,.74,1,.46,0,.83-.39,1.11-1.16l.24-.63-3.53-9.21h3.49l1.77,5.16,2.01-5.16h1.17Z" style="fill:#231f20;"></path> <path d="M431.78,820.52v-11.88h4.93c3.5,0,5.25,1.98,5.25,5.95s-1.81,5.93-5.44,5.93h-4.73Zm3.45-.98h.91c.83,0,1.4-.36,1.72-1.07,.32-.72,.48-2.01,.48-3.89s-.16-3.17-.47-3.88c-.32-.71-.89-1.07-1.73-1.07h-.91v9.91Z" style="fill:#231f20;"></path> <path d="M449.78,814.94h-2.18c.08-.34,.14-.59,.2-.76,.08-.24,.12-.45,.12-.64,0-.37-.13-.56-.4-.56-.2,0-.4,.25-.58,.74-.19,.49-.28,1.01-.28,1.55v5.26h-3.18v-8.77h.62c.73,0,1.58-.07,2.56-.23v1.44c.52-.96,1.15-1.44,1.9-1.44,1.02,0,1.53,.56,1.53,1.69,0,.3-.05,.64-.15,1.02-.03,.16-.09,.39-.16,.7Z" style="fill:#231f20;"></path> <path d="M452.9,817.63c1.02,0,1.53,.51,1.53,1.53s-.51,1.53-1.53,1.53-1.53-.51-1.53-1.53,.51-1.53,1.53-1.53Z" style="fill:#231f20;"></path> <path d="M469.86,811.97l-1.6,.3c.07-.32,.1-.59,.1-.8,0-1.38-.84-2.07-2.52-2.07-1.32,0-1.98,.48-1.98,1.43,0,.71,.74,1.33,2.22,1.84,2.85,.98,4.28,2.43,4.28,4.35,0,1.13-.4,2.03-1.2,2.71-.8,.68-1.86,1.02-3.19,1.02-2.94,0-4.41-1.14-4.41-3.42,0-.19,.01-.41,.04-.69l1.66-.37c-.13,.5-.19,.94-.19,1.31,0,1.47,.85,2.21,2.53,2.21,1.35,0,2.03-.53,2.03-1.59,0-.79-.81-1.48-2.43-2.08-2.34-.86-3.51-2.23-3.51-4.12,0-1.07,.39-1.93,1.17-2.58,.78-.65,1.8-.98,3.08-.98,2.61,0,3.92,1.17,3.92,3.52Z" style="fill:#231f20;"></path> <path d="M478.16,817.31l1.28,.37c-.13,2.02-1.33,3.04-3.59,3.04-2.92,0-4.39-1.46-4.39-4.38,0-1.42,.39-2.58,1.17-3.48,.78-.9,1.77-1.36,2.98-1.36,2.54,0,3.8,1.64,3.8,4.91h-4.63c0,2.3,.58,3.45,1.75,3.45,1.09,0,1.64-.65,1.64-1.95,0-.17,0-.37-.02-.6Zm-3.38-1.88h1.9c0-2.04-.31-3.06-.92-3.06-.56,0-.87,.76-.94,2.27l-.03,.79Z" style="fill:#231f20;"></path> <path d="M484.07,808.47v12.05h-3.18v-11.88c.88,0,1.94-.06,3.18-.17Z" style="fill:#231f20;"></path> <path d="M493.33,811.75l-4.02,9.9c-.55,1.36-1.29,2.04-2.23,2.04s-1.52-.39-1.85-1.16l1.1-.79c.09,.67,.33,1,.74,1,.46,0,.83-.39,1.11-1.16l.23-.63-3.53-9.21h3.49l1.77,5.16,2.01-5.16h1.18Z" style="fill:#231f20;"></path> <path d="M502.99,820.21c-.78,.3-1.54,.45-2.27,.45-1.09,0-1.76-.34-2.02-1.02-.53,.71-1.29,1.06-2.28,1.06-1.85,0-2.78-.86-2.78-2.58,0-1.31,.85-2.22,2.54-2.75,1.55-.49,2.33-1.07,2.33-1.76,0-.9-.45-1.35-1.34-1.35-1.03,0-1.55,.44-1.55,1.31,0,.27,.08,.63,.24,1.08l-1.57-.3c-.04-.27-.06-.53-.06-.77,0-1.39,1.27-2.09,3.81-2.09s3.62,.65,3.62,1.95v5.33c0,.55,.18,.82,.53,.82,.11,0,.27-.06,.49-.18l.3,.8Zm-4.5-4.96c-.2,.23-.43,.42-.69,.57-.66,.38-.98,1.03-.98,1.93,0,1.16,.22,1.74,.68,1.74,.66,0,.99-.57,.99-1.72v-2.52Z" style="fill:#231f20;"></path> <path d="M512.01,820.52h-3.18v-6.44c0-.66-.18-.98-.55-.98s-.69,.26-.97,.78c-.27,.52-.41,1.13-.41,1.84v4.8h-3.17v-8.79c1.09,0,2.15-.07,3.17-.22v1.64c.79-1.09,1.75-1.64,2.89-1.64,1.47,0,2.21,.75,2.21,2.24v6.75Z" style="fill:#231f20;"></path> <path d="M513.97,820.52v-8.76c.99,0,2.05-.08,3.17-.23v9h-3.17Zm1.61-12.18c.99,0,1.48,.38,1.48,1.15s-.49,1.15-1.48,1.15-1.48-.38-1.48-1.15,.49-1.15,1.48-1.15Z" style="fill:#231f20;"></path> <path d="M527.38,820.52h-3.18v-6.44c0-.66-.18-.98-.55-.98s-.69,.26-.97,.78c-.27,.52-.41,1.13-.41,1.84v4.8h-3.18v-8.79c1.09,0,2.15-.07,3.18-.22v1.64c.79-1.09,1.75-1.64,2.89-1.64,1.47,0,2.21,.75,2.21,2.24v6.75Z" style="fill:#231f20;"></path> <path d="M538.15,820.21c-.78,.3-1.54,.45-2.27,.45-1.09,0-1.76-.34-2.02-1.02-.53,.71-1.29,1.06-2.28,1.06-1.85,0-2.78-.86-2.78-2.58,0-1.31,.85-2.22,2.54-2.75,1.55-.49,2.33-1.07,2.33-1.76,0-.9-.45-1.35-1.34-1.35-1.03,0-1.55,.44-1.55,1.31,0,.27,.08,.63,.24,1.08l-1.58-.3c-.04-.27-.06-.53-.06-.77,0-1.39,1.27-2.09,3.81-2.09s3.62,.65,3.62,1.95v5.33c0,.55,.18,.82,.53,.82,.11,0,.27-.06,.49-.18l.3,.8Zm-4.5-4.96c-.2,.23-.43,.42-.69,.57-.66,.38-.98,1.03-.98,1.93,0,1.16,.22,1.74,.68,1.74,.66,0,.99-.57,.99-1.72v-2.52Z" style="fill:#231f20;"></path> </g> </g> <g> <path d="M283.25,430.93v-14.07h-18.92v14.07h-1.9v-28.73h1.9v12.98h18.92v-12.98h1.9v28.73h-1.9Z" style="fill:#380063;"></path> <path d="M290.2,416.56c0-4.21,1.45-7.82,4.36-10.81,2.91-2.99,6.54-4.49,10.89-4.49s8.22,1.5,11.02,4.49c2.79,2.99,4.19,6.59,4.19,10.81s-1.46,7.89-4.38,10.85c-2.92,2.96-6.53,4.44-10.83,4.44-2.5,0-4.75-.46-6.76-1.37s-3.62-2.12-4.82-3.62c-1.21-1.5-2.12-3.13-2.74-4.89-.62-1.75-.93-3.56-.93-5.41Zm2.02,0c0,3.9,1.26,7.15,3.79,9.73,2.53,2.58,5.66,3.88,9.4,3.88s6.87-1.29,9.42-3.88c2.54-2.58,3.81-5.83,3.81-9.73s-1.24-7.15-3.71-9.73c-2.47-2.58-5.65-3.88-9.52-3.88s-6.87,1.29-9.4,3.85c-2.53,2.57-3.79,5.82-3.79,9.75Z" style="fill:#380063;"></path> <path d="M325.51,430.93v-28.73h6.91c2.75,0,4.91,.59,6.47,1.77s2.34,2.94,2.34,5.27c0,3.09-1.54,5.22-4.63,6.4v.08c2.16,.25,3.83,1.05,4.99,2.4,1.17,1.35,1.75,2.98,1.75,4.89,0,2.58-.89,4.55-2.68,5.9-1.78,1.35-4.08,2.02-6.89,2.02h-8.26Zm13.69-21.53c0-1.77-.49-3.13-1.47-4.09-.98-.95-2.64-1.43-4.97-1.43h-5.31v11.29h4.93c2.13,0,3.81-.51,5.01-1.54,1.21-1.02,1.81-2.44,1.81-4.23Zm2.11,13.74c0-1.97-.66-3.5-1.98-4.61-1.32-1.11-3.17-1.66-5.56-1.66h-6.32v12.39h6.95c2.28,0,4-.55,5.16-1.66,1.17-1.11,1.75-2.59,1.75-4.44Z" style="fill:#380063;"></path> <path d="M346.87,416.56c0-4.21,1.45-7.82,4.36-10.81,2.91-2.99,6.54-4.49,10.89-4.49s8.22,1.5,11.02,4.49c2.79,2.99,4.19,6.59,4.19,10.81s-1.46,7.89-4.38,10.85c-2.92,2.96-6.53,4.44-10.83,4.44-2.5,0-4.75-.46-6.76-1.37s-3.62-2.12-4.82-3.62c-1.21-1.5-2.12-3.13-2.74-4.89-.62-1.75-.93-3.56-.93-5.41Zm2.02,0c0,3.9,1.26,7.15,3.79,9.73,2.53,2.58,5.66,3.88,9.4,3.88s6.87-1.29,9.42-3.88c2.54-2.58,3.81-5.83,3.81-9.73s-1.24-7.15-3.71-9.73c-2.47-2.58-5.65-3.88-9.52-3.88s-6.87,1.29-9.4,3.85c-2.53,2.57-3.79,5.82-3.79,9.75Z" style="fill:#380063;"></path> <path d="M382.18,430.93v-28.73h15.84v1.69h-13.95v27.05h-1.9Z" style="fill:#380063;"></path> <path d="M398.4,416.56c0-4.21,1.45-7.82,4.36-10.81,2.91-2.99,6.54-4.49,10.89-4.49s8.22,1.5,11.02,4.49c2.79,2.99,4.19,6.59,4.19,10.81s-1.46,7.89-4.38,10.85c-2.92,2.96-6.53,4.44-10.83,4.44-2.5,0-4.75-.46-6.76-1.37s-3.62-2.12-4.82-3.62c-1.21-1.5-2.12-3.13-2.74-4.89-.62-1.75-.93-3.56-.93-5.41Zm2.02,0c0,3.9,1.26,7.15,3.79,9.73,2.53,2.58,5.66,3.88,9.4,3.88s6.87-1.29,9.42-3.88c2.54-2.58,3.81-5.83,3.81-9.73s-1.24-7.15-3.71-9.73c-2.47-2.58-5.65-3.88-9.52-3.88s-6.87,1.29-9.4,3.85c-2.53,2.57-3.79,5.82-3.79,9.75Z" style="fill:#380063;"></path> <path d="M453.93,402.2v27.05h3.37v9.06h-1.9v-7.37h-23.55v7.37h-1.9v-9.06h.29c1.46,0,2.71-.64,3.75-1.92,1.04-1.28,1.66-3.32,1.85-6.13l1.35-19h16.73Zm-1.9,27.05v-25.36h-13.06l-1.22,17.32c-.25,3.88-1.35,6.56-3.29,8.05h17.57Z" style="fill:#380063;"></path> <path d="M482.83,430.93v-14.07h-18.92v14.07h-1.9v-28.73h1.9v12.98h18.92v-12.98h1.9v28.73h-1.9Z" style="fill:#380063;"></path> <path d="M511.69,404.98h-.13c-.23,.31-.79,1.12-1.71,2.44-.91,1.32-1.81,2.62-2.7,3.9-.88,1.28-1.65,2.37-2.3,3.27l-11.71,16.35h-1.64v-28.73h1.9v19.59c0,1.38-.03,3.41-.08,6.11h.17c.76-1.07,1.92-2.72,3.48-4.97,1.56-2.25,2.72-3.89,3.48-4.93l11.33-15.8h1.73v28.73h-1.9v-19c0-3.09,.03-5.41,.08-6.95Z" style="fill:#380063;"></path> <path d="M535.83,402.2v1.69h-13.86v11.29h13.4v1.69h-13.4v12.39h14.32v1.69h-16.22v-28.73h15.76Z" style="fill:#380063;"></path> <path d="M570.93,430.93v-27.05h-16.81v27.05h-1.9v-28.73h20.6v28.73h-1.9Z" style="fill:#380063;"></path> <path d="M579.19,430.93v-28.73h7.71c3.31,0,5.9,.71,7.75,2.13,1.85,1.42,2.78,3.59,2.78,6.51s-.86,5.03-2.59,6.51-4.47,2.21-8.24,2.21h-5.52v11.38h-1.9Zm16.22-20.01c0-2.19-.7-3.91-2.09-5.16-1.39-1.25-3.48-1.87-6.26-1.87h-5.98v13.99h6.36c5.31,0,7.96-2.32,7.96-6.95Z" style="fill:#380063;"></path> <path d="M617.91,402.2v1.69h-13.86v11.29h13.4v1.69h-13.4v12.39h14.32v1.69h-16.22v-28.73h15.76Z" style="fill:#380063;"></path> <path d="M623.09,423.64h1.94c.17,2.02,.88,3.61,2.15,4.76,1.26,1.15,2.88,1.73,4.85,1.73,2.3,0,4.09-.62,5.37-1.88,1.28-1.25,1.92-2.97,1.92-5.16,0-2.05-.63-3.67-1.9-4.87-1.26-1.19-3.17-1.79-5.73-1.79h-2.78v-1.69h2.53c2.13,0,3.81-.53,5.01-1.6,1.21-1.07,1.81-2.54,1.81-4.42,0-1.66-.56-3.03-1.66-4.11-1.11-1.08-2.54-1.62-4.28-1.62s-3.13,.43-4.17,1.29c-1.04,.86-1.66,2.03-1.85,3.52h-1.94c.2-1.83,.98-3.36,2.36-4.61,1.38-1.25,3.27-1.88,5.69-1.88,2.28,0,4.14,.71,5.58,2.13,1.45,1.42,2.17,3.18,2.17,5.29,0,1.66-.42,3.05-1.26,4.19-.84,1.14-1.92,1.97-3.24,2.51v.08c1.71,.39,3.09,1.29,4.13,2.7,1.04,1.4,1.56,3.08,1.56,5.01,0,2.3-.76,4.31-2.28,6.03-1.52,1.71-3.83,2.57-6.95,2.57-2.58,0-4.68-.74-6.28-2.23-1.6-1.49-2.51-3.47-2.74-5.94Z" style="fill:#380063;"></path> <path d="M662.65,402.2v1.69h-13.86v11.29h13.4v1.69h-13.4v12.39h14.32v1.69h-16.22v-28.73h15.76Z" style="fill:#380063;"></path> <path d="M690.08,430.93v-14.07h-18.92v14.07h-1.9v-28.73h1.9v12.98h18.92v-12.98h1.9v28.73h-1.9Z" style="fill:#380063;"></path> <path d="M704.36,430.93v-27.05h-8.34v-1.69h18.58v1.69h-8.34v27.05h-1.9Z" style="fill:#380063;"></path> <path d="M718.22,430.93v-28.73h1.9v12.98h5.98c3.03,0,5.41,.65,7.14,1.96,1.73,1.31,2.59,3.28,2.59,5.92,0,5.25-3.15,7.88-9.44,7.88h-8.17Zm15.59-7.84c0-1.94-.65-3.46-1.94-4.57-1.29-1.11-3.22-1.66-5.77-1.66h-5.98v12.39h6.36c4.89,0,7.33-2.05,7.33-6.15Zm5.39,7.84v-28.73h1.9v28.73h-1.9Z" style="fill:#380063;"></path> <path d="M747.88,430.93v-3.16h2.99v1.56c0,2.72-.55,5.15-1.64,7.29h-1.43c.9-1.77,1.39-3.67,1.47-5.69h-1.39Z" style="fill:#380063;"></path> <path d="M777.63,431.56v-3.29c-3.62-.08-6.52-1.2-8.68-3.35-2.16-2.15-3.24-4.94-3.24-8.36,0-3.17,1.12-5.91,3.37-8.19,2.25-2.29,5.1-3.49,8.55-3.6v-3.2h1.9v3.2c3.57,.14,6.45,1.36,8.64,3.64,2.19,2.29,3.29,5.01,3.29,8.15s-1.12,5.96-3.35,8.19-5.09,3.41-8.57,3.52v3.29h-1.9Zm-9.9-15c0,3.12,.88,5.55,2.65,7.29,1.77,1.74,4.19,2.65,7.25,2.74v-20.14c-2.89,.08-5.27,1.07-7.12,2.95-1.85,1.88-2.78,4.27-2.78,7.16Zm21.7,0c0-2.84-.92-5.2-2.76-7.1-1.84-1.9-4.22-2.9-7.14-3.01v20.14c2.95-.11,5.34-1.11,7.16-2.99,1.83-1.88,2.74-4.23,2.74-7.04Z" style="fill:#380063;"></path> <path d="M814.12,402.2l-9.86,23.76c-.79,1.88-1.56,3.24-2.32,4.07-.76,.83-1.78,1.24-3.08,1.24-.7,0-1.42-.11-2.15-.34v-1.64c.7,.2,1.38,.29,2.02,.29,.76,0,1.4-.28,1.94-.84,.53-.56,1.14-1.61,1.81-3.16l1.47-3.41-10.83-19.97h1.98l8.22,15.29c.53,.98,1,1.92,1.39,2.82h.17c.31-.9,.74-2.04,1.31-3.41l5.98-14.7h1.94Z" style="fill:#380063;"></path> <path d="M817.06,430.93v-28.73h7.71c3.31,0,5.9,.71,7.75,2.13,1.85,1.42,2.78,3.59,2.78,6.51s-.86,5.03-2.59,6.51-4.47,2.21-8.24,2.21h-5.52v11.38h-1.9Zm16.22-20.01c0-2.19-.7-3.91-2.09-5.16-1.39-1.25-3.48-1.87-6.26-1.87h-5.98v13.99h6.36c5.31,0,7.96-2.32,7.96-6.95Z" style="fill:#380063;"></path> <path d="M870.28,430.93h-30.04v-28.73h1.9v27.05h12.18v-27.05h1.9v27.05h12.18v-27.05h1.9v28.73Z" style="fill:#380063;"></path> <path d="M892.61,402.2v1.69h-13.86v11.29h13.4v1.69h-13.4v12.39h14.32v1.69h-16.22v-28.73h15.76Z" style="fill:#380063;"></path> <path d="M904.82,430.93v-27.05h-8.34v-1.69h18.58v1.69h-8.34v27.05h-1.9Z" style="fill:#380063;"></path> <path d="M282.62,455.54h-.13c-.23,.31-.79,1.12-1.71,2.44-.91,1.32-1.81,2.62-2.7,3.9-.88,1.28-1.65,2.37-2.3,3.27l-11.71,16.35h-1.64v-28.73h1.9v19.59c0,1.38-.03,3.41-.08,6.11h.17c.76-1.07,1.92-2.72,3.48-4.97,1.56-2.25,2.72-3.89,3.48-4.93l11.33-15.8h1.73v28.73h-1.9v-19c0-3.09,.03-5.41,.08-6.95Z" style="fill:#380063;"></path> <path d="M300.57,481.49v-28.73h7.71c3.31,0,5.9,.71,7.75,2.13,1.85,1.42,2.78,3.59,2.78,6.51s-.86,5.03-2.59,6.51-4.47,2.21-8.24,2.21h-5.52v11.38h-1.9Zm16.22-20.01c0-2.19-.7-3.91-2.09-5.16-1.39-1.25-3.48-1.87-6.26-1.87h-5.98v13.99h6.36c5.31,0,7.96-2.32,7.96-6.95Z" style="fill:#380063;"></path> <path d="M322.01,467.12c0-4.21,1.45-7.82,4.36-10.81,2.91-2.99,6.54-4.49,10.89-4.49s8.22,1.5,11.02,4.49c2.79,2.99,4.19,6.59,4.19,10.81s-1.46,7.89-4.38,10.85c-2.92,2.96-6.53,4.44-10.83,4.44-2.5,0-4.75-.46-6.76-1.37s-3.62-2.12-4.82-3.62c-1.21-1.5-2.12-3.13-2.74-4.89-.62-1.75-.93-3.56-.93-5.41Zm2.02,0c0,3.9,1.26,7.15,3.79,9.73,2.53,2.58,5.66,3.88,9.4,3.88s6.87-1.29,9.42-3.88c2.54-2.58,3.81-5.83,3.81-9.73s-1.24-7.15-3.71-9.73c-2.47-2.58-5.65-3.88-9.52-3.88s-6.87,1.29-9.4,3.85c-2.53,2.57-3.79,5.82-3.79,9.75Z" style="fill:#380063;"></path> <path d="M356.1,474.2h1.94c.17,2.02,.88,3.61,2.15,4.76,1.26,1.15,2.88,1.73,4.85,1.73,2.3,0,4.09-.62,5.37-1.88,1.28-1.25,1.92-2.97,1.92-5.16,0-2.05-.63-3.67-1.9-4.87-1.26-1.19-3.17-1.79-5.73-1.79h-2.78v-1.69h2.53c2.13,0,3.81-.53,5.01-1.6,1.21-1.07,1.81-2.54,1.81-4.42,0-1.66-.56-3.03-1.66-4.11-1.11-1.08-2.54-1.62-4.28-1.62s-3.13,.43-4.17,1.29c-1.04,.86-1.66,2.03-1.85,3.52h-1.94c.2-1.83,.98-3.36,2.36-4.61,1.38-1.25,3.27-1.88,5.69-1.88,2.28,0,4.14,.71,5.58,2.13,1.45,1.42,2.17,3.18,2.17,5.29,0,1.66-.42,3.05-1.26,4.19-.84,1.14-1.92,1.97-3.24,2.51v.08c1.71,.39,3.09,1.29,4.13,2.7,1.04,1.4,1.56,3.08,1.56,5.01,0,2.3-.76,4.31-2.28,6.03-1.52,1.71-3.83,2.57-6.95,2.57-2.58,0-4.68-.74-6.28-2.23-1.6-1.49-2.51-3.47-2.74-5.94Z" style="fill:#380063;"></path> <path d="M379.69,481.49v-28.73h1.9v12.98h5.98c3.03,0,5.41,.65,7.14,1.96s2.59,3.28,2.59,5.92c0,5.25-3.15,7.88-9.44,7.88h-8.17Zm15.59-7.84c0-1.94-.65-3.46-1.94-4.57-1.29-1.11-3.22-1.66-5.77-1.66h-5.98v12.39h6.36c4.89,0,7.33-2.05,7.33-6.15Zm5.39,7.84v-28.73h1.9v28.73h-1.9Z" style="fill:#380063;"></path> <path d="M409.14,481.49v-28.73h15.84v1.69h-13.95v27.05h-1.9Z" style="fill:#380063;"></path> <path d="M428.99,481.49v-28.73h7.71c3.31,0,5.9,.71,7.75,2.13,1.85,1.42,2.78,3.59,2.78,6.51s-.86,5.03-2.59,6.51-4.47,2.21-8.24,2.21h-5.52v11.38h-1.9Zm16.22-20.01c0-2.19-.7-3.91-2.09-5.16-1.39-1.25-3.48-1.87-6.26-1.87h-5.98v13.99h6.36c5.31,0,7.96-2.32,7.96-6.95Z" style="fill:#380063;"></path> <path d="M451.74,481.49v-28.73h1.9v12.98h5.98c3.03,0,5.41,.65,7.14,1.96s2.59,3.28,2.59,5.92c0,5.25-3.15,7.88-9.44,7.88h-8.17Zm15.59-7.84c0-1.94-.65-3.46-1.94-4.57-1.29-1.11-3.22-1.66-5.77-1.66h-5.98v12.39h6.36c4.89,0,7.33-2.05,7.33-6.15Zm5.39,7.84v-28.73h1.9v28.73h-1.9Z" style="fill:#380063;"></path> <path d="M511.44,481.49h-30.04v-28.73h1.9v27.05h12.18v-27.05h1.9v27.05h12.18v-27.05h1.9v28.73Z" style="fill:#380063;"></path> <path d="M546.7,481.49v-27.05h-16.81v27.05h-1.9v-28.73h20.6v28.73h-1.9Z" style="fill:#380063;"></path> <path d="M554.96,481.49v-28.73h7.71c3.31,0,5.9,.71,7.75,2.13,1.85,1.42,2.78,3.59,2.78,6.51s-.86,5.03-2.59,6.51-4.47,2.21-8.24,2.21h-5.52v11.38h-1.9Zm16.22-20.01c0-2.19-.7-3.91-2.09-5.16-1.39-1.25-3.48-1.87-6.26-1.87h-5.98v13.99h6.36c5.31,0,7.96-2.32,7.96-6.95Z" style="fill:#380063;"></path> <path d="M598.32,455.54h-.13c-.23,.31-.79,1.12-1.71,2.44-.91,1.32-1.81,2.62-2.7,3.9-.88,1.28-1.65,2.37-2.3,3.27l-11.71,16.35h-1.64v-28.73h1.9v19.59c0,1.38-.03,3.41-.08,6.11h.17c.76-1.07,1.92-2.72,3.48-4.97,1.56-2.25,2.72-3.89,3.48-4.93l11.33-15.8h1.73v28.73h-1.9v-19c0-3.09,.03-5.41,.08-6.95Z" style="fill:#380063;"></path> <path d="M605.48,474.2h1.94c.17,2.02,.88,3.61,2.15,4.76,1.26,1.15,2.88,1.73,4.85,1.73,2.3,0,4.09-.62,5.37-1.88,1.28-1.25,1.92-2.97,1.92-5.16,0-2.05-.63-3.67-1.9-4.87-1.26-1.19-3.17-1.79-5.73-1.79h-2.78v-1.69h2.53c2.13,0,3.81-.53,5.01-1.6,1.21-1.07,1.81-2.54,1.81-4.42,0-1.66-.56-3.03-1.66-4.11-1.11-1.08-2.54-1.62-4.28-1.62s-3.13,.43-4.17,1.29c-1.04,.86-1.66,2.03-1.85,3.52h-1.94c.2-1.83,.98-3.36,2.36-4.61,1.38-1.25,3.27-1.88,5.69-1.88,2.28,0,4.14,.71,5.58,2.13,1.45,1.42,2.17,3.18,2.17,5.29,0,1.66-.42,3.05-1.26,4.19-.84,1.14-1.92,1.97-3.24,2.51v.08c1.71,.39,3.09,1.29,4.13,2.7,1.04,1.4,1.56,3.08,1.56,5.01,0,2.3-.76,4.31-2.28,6.03-1.52,1.71-3.83,2.57-6.95,2.57-2.58,0-4.68-.74-6.28-2.23-1.6-1.49-2.51-3.47-2.74-5.94Z" style="fill:#380063;"></path> <path d="M627.77,467.12c0-4.21,1.45-7.82,4.36-10.81,2.91-2.99,6.54-4.49,10.89-4.49s8.22,1.5,11.02,4.49c2.79,2.99,4.19,6.59,4.19,10.81s-1.46,7.89-4.38,10.85c-2.92,2.96-6.53,4.44-10.83,4.44-2.5,0-4.75-.46-6.76-1.37s-3.62-2.12-4.82-3.62c-1.21-1.5-2.12-3.13-2.74-4.89-.62-1.75-.93-3.56-.93-5.41Zm2.02,0c0,3.9,1.26,7.15,3.79,9.73,2.53,2.58,5.66,3.88,9.4,3.88s6.87-1.29,9.42-3.88c2.54-2.58,3.81-5.83,3.81-9.73s-1.24-7.15-3.71-9.73c-2.47-2.58-5.65-3.88-9.52-3.88s-6.87,1.29-9.4,3.85c-2.53,2.57-3.79,5.82-3.79,9.75Z" style="fill:#380063;"></path> <path d="M663.07,481.49v-28.73h6.91c2.75,0,4.91,.59,6.47,1.77s2.34,2.94,2.34,5.27c0,3.09-1.54,5.22-4.63,6.4v.08c2.16,.25,3.83,1.05,4.99,2.4,1.17,1.35,1.75,2.98,1.75,4.89,0,2.58-.89,4.55-2.68,5.9-1.78,1.35-4.08,2.02-6.89,2.02h-8.26Zm13.69-21.53c0-1.77-.49-3.13-1.47-4.09-.98-.95-2.64-1.43-4.97-1.43h-5.31v11.29h4.93c2.13,0,3.81-.51,5.01-1.54,1.21-1.02,1.81-2.44,1.81-4.23Zm2.11,13.74c0-1.97-.66-3.5-1.98-4.61-1.32-1.11-3.17-1.66-5.56-1.66h-6.32v12.39h6.95c2.28,0,4-.55,5.16-1.66,1.17-1.11,1.75-2.59,1.75-4.44Z" style="fill:#380063;"></path> </g> <rect x="657.31" y="573.69" width="344.33" height="42.31" style="fill:#a600f1;"></rect> <g> <path d="M793.28,605.55v-2.41l6.94-7.7c1.08-1.2,1.89-2.29,2.42-3.25,.54-.96,.81-1.96,.81-3s-.32-1.9-.97-2.58c-.64-.69-1.54-1.03-2.68-1.03-1.04,0-1.9,.34-2.6,1.03-.7,.69-1.05,1.61-1.05,2.77h-2.76c.06-1.8,.71-3.27,1.93-4.42,1.22-1.15,2.74-1.73,4.53-1.73,2.01,0,3.56,.55,4.66,1.66,1.1,1.11,1.65,2.46,1.65,4.04,0,1.39-.34,2.69-1.01,3.88-.68,1.19-1.7,2.55-3.07,4.07l-5.67,6.24h10.14v2.41h-13.28Z" style="fill:#fff;"></path> <path d="M811.22,594.62c0-1.99,.23-3.74,.68-5.26,.45-1.52,1.07-2.71,1.84-3.57,.77-.86,1.6-1.49,2.49-1.92,.89-.42,1.83-.63,2.82-.63s1.89,.19,2.74,.57,1.67,.98,2.44,1.81c.77,.82,1.38,2,1.84,3.52,.45,1.52,.68,3.31,.68,5.36,0,1.84-.17,3.47-.52,4.9-.35,1.43-.79,2.56-1.32,3.39-.53,.83-1.15,1.53-1.87,2.08-.72,.55-1.4,.92-2.04,1.11-.64,.19-1.3,.29-1.98,.29-.97,0-1.89-.19-2.76-.57s-1.69-.99-2.47-1.82c-.78-.83-1.41-2.04-1.87-3.63-.46-1.58-.7-3.45-.7-5.61Zm12.84,0c0-3-.44-5.26-1.32-6.77-.88-1.51-2.13-2.27-3.76-2.27-1.48,0-2.69,.72-3.63,2.17-.94,1.45-1.41,3.7-1.41,6.77,0,6.25,1.71,9.38,5.13,9.38,1.44,0,2.63-.75,3.57-2.25,.94-1.5,1.41-3.85,1.41-7.04Z" style="fill:#fff;"></path> <path d="M832.07,605.55v-2.41l6.94-7.7c1.08-1.2,1.89-2.29,2.42-3.25s.81-1.96,.81-3-.32-1.9-.97-2.58c-.65-.69-1.54-1.03-2.68-1.03-1.04,0-1.9,.34-2.6,1.03-.7,.69-1.05,1.61-1.05,2.77h-2.76c.06-1.8,.71-3.27,1.93-4.42,1.23-1.15,2.74-1.73,4.53-1.73,2.01,0,3.56,.55,4.66,1.66,1.1,1.11,1.65,2.46,1.65,4.04,0,1.39-.34,2.69-1.01,3.88-.68,1.19-1.7,2.55-3.07,4.07l-5.67,6.24h10.14v2.41h-13.28Z" style="fill:#fff;"></path> <path d="M854.54,588.66h-2.69c.15-1.44,.77-2.7,1.85-3.79s2.6-1.63,4.55-1.63c1.84,0,3.32,.52,4.45,1.57,1.13,1.05,1.7,2.36,1.7,3.95,0,1.25-.39,2.3-1.16,3.15-.77,.86-1.73,1.44-2.87,1.76v.06c1.39,.21,2.55,.82,3.45,1.82,.91,1,1.36,2.33,1.36,3.98,0,1.88-.61,3.47-1.82,4.75-1.22,1.29-2.93,1.93-5.15,1.93-2.07,0-3.71-.56-4.91-1.68-1.21-1.12-1.89-2.54-2.06-4.25h2.79c.19,1.08,.66,1.94,1.41,2.6,.75,.66,1.73,.98,2.93,.98s2.19-.41,2.96-1.24c.77-.82,1.16-1.84,1.16-3.04,0-1.27-.41-2.32-1.22-3.17-.81-.84-2.07-1.28-3.76-1.3h-1.2v-2.41h1.05c1.29,0,2.33-.34,3.12-1.01,.79-.68,1.19-1.62,1.19-2.82,0-.89-.29-1.66-.87-2.31-.58-.65-1.44-.98-2.58-.98s-2.04,.3-2.65,.9-.95,1.33-1.03,2.17Z" style="fill:#fff;"></path> </g> <g> <path d="M261.03,322.87v-30.35h6.03c5.06,0,9.08-2.01,12.07-6.03,2.98-4.02,4.87-11.09,5.64-21.22l5.64-75.72h100.44v102.97h20.44v30.35h-150.27Zm94.99-30.35v-73.19h-34.06l-3.5,45.94c-1.04,13.11-3.7,22.19-7.98,27.25h45.55Z" style="fill:#380063;"></path> <path d="M510.97,189.55v29.78h-48.47v20.63h46.72v27.84h-46.72v24.72h50.42v29.78h-85.26V189.55h83.31Z" style="fill:#380063;"></path> <path d="M610.24,322.3v-53.53h-41.27v53.53h-34.84V189.55h34.84v49.44h41.27v-49.44h34.84v132.76h-34.84Z" style="fill:#380063;"></path> <path d="M668.44,322.3V189.55h34.84v49.44h14.21c15.44,0,27.28,3.73,35.52,11.19,8.24,7.46,12.36,17.49,12.36,30.07s-4.45,22.91-13.33,30.56c-8.89,7.66-20.6,11.48-35.13,11.48h-48.47Zm61.9-42.05c0-5.06-1.62-9.05-4.87-11.97-3.24-2.92-7.66-4.38-13.24-4.38h-8.95v33.48h8.95c5.71,0,10.15-1.46,13.33-4.38,3.18-2.92,4.77-7.17,4.77-12.75Z" style="fill:#380063;"></path> <g> <path d="M382.64,352.25c0-5.93,2.06-11.02,6.18-15.27,4.12-4.26,9.26-6.39,15.42-6.39s11.65,2.13,15.6,6.39c3.96,4.26,5.94,9.35,5.94,15.27s-2.07,11.12-6.21,15.33c-4.14,4.22-9.25,6.32-15.33,6.32-3.54,0-6.73-.65-9.58-1.94s-5.12-3-6.83-5.13c-1.71-2.13-3-4.44-3.88-6.92-.88-2.49-1.31-5.04-1.31-7.67Zm5.13,0c0,4.93,1.57,9.04,4.71,12.32,3.14,3.28,7.04,4.92,11.69,4.92s8.56-1.64,11.72-4.92c3.16-3.28,4.74-7.39,4.74-12.32s-1.53-9.04-4.59-12.32c-3.06-3.28-7.02-4.92-11.87-4.92s-8.55,1.63-11.69,4.89c-3.14,3.26-4.71,7.38-4.71,12.35Z" style="fill:#380063;"></path> <path d="M437.18,372.59v-36.16h-10.68v-4.53h26.31v4.53h-10.68v36.16h-4.95Z" style="fill:#380063;"></path> <path d="M482.59,372.59l-20.17-20.53v20.53h-4.95v-40.69h4.95v19.75l19.63-19.75h6.44l-20.11,19.75,20.94,20.94h-6.74Z" style="fill:#380063;"></path> <path d="M492.49,372.59v-40.69h11.81c4.53,0,8.15,1.05,10.86,3.16,2.7,2.11,4.06,5.23,4.06,9.37s-1.25,7.13-3.76,9.34c-2.51,2.21-6.36,3.31-11.58,3.31h-6.44v15.51h-4.95Zm21.66-28.04c0-2.51-.78-4.48-2.33-5.94-1.55-1.45-3.92-2.18-7.1-2.18h-7.28v16.17h7.1c6.4,0,9.61-2.68,9.61-8.05Z" style="fill:#380063;"></path> <path d="M524.11,372.59v-40.69h4.95v17.36h6.74c3.94,0,7.18,1.01,9.73,3.01,2.55,2.01,3.82,4.86,3.82,8.56s-1.27,6.58-3.82,8.65c-2.55,2.07-5.79,3.1-9.73,3.1h-11.69Zm20.11-11.75c0-2.23-.77-3.96-2.3-5.19-1.53-1.23-3.73-1.85-6.59-1.85h-6.26v14.26h7.1c2.66,0,4.67-.66,6.03-1.97,1.35-1.31,2.03-3.06,2.03-5.25Zm10.74,11.75v-40.69h4.95v40.69h-4.95Z" style="fill:#380063;"></path> <path d="M575.25,372.59v-36.16h-10.68v-4.53h26.31v4.53h-10.68v36.16h-4.95Z" style="fill:#380063;"></path> <path d="M595.53,372.59v-40.69h4.95v17.36h6.74c3.94,0,7.18,1.01,9.73,3.01,2.55,2.01,3.82,4.86,3.82,8.56s-1.27,6.58-3.82,8.65c-2.55,2.07-5.79,3.1-9.73,3.1h-11.69Zm20.11-11.75c0-2.23-.77-3.96-2.3-5.19-1.53-1.23-3.73-1.85-6.59-1.85h-6.26v14.26h7.1c2.66,0,4.67-.66,6.03-1.97,1.35-1.31,2.03-3.06,2.03-5.25Zm10.74,11.75v-40.69h4.95v40.69h-4.95Z" style="fill:#380063;"></path> <path d="M642.01,331.9l7.22,11.16c.99,1.51,1.95,3.06,2.86,4.65h.18c.83-1.51,1.79-3.1,2.86-4.77l7.1-11.04h5.43l-13.01,19.45,13.6,21.24h-5.79l-7.28-11.7c-.36-.6-.92-1.5-1.67-2.72-.76-1.21-1.31-2.12-1.67-2.72h-.12l-3.4,5.55-7.16,11.58h-5.49l13.54-21-13.07-19.69h5.85Z" style="fill:#380063;"></path> <path d="M698.04,383.03v-14.98h1.01c1.91,0,3.63-.97,5.16-2.92,1.53-1.95,2.46-5.23,2.77-9.85l1.67-23.39h25.78v36.16h4.95v14.98h-4.95v-10.44h-31.44v10.44h-4.95Zm31.44-14.98v-31.62h-16.23l-1.31,18.85c-.4,6.01-1.85,10.26-4.36,12.77h21.9Z" style="fill:#380063;"></path> <path d="M744.99,372.59v-40.69h9.01c4.18,0,7.44,.93,9.78,2.8s3.52,4.4,3.52,7.58c0,4.18-2.21,7.06-6.62,8.65v.12c3.06,.32,5.42,1.43,7.07,3.34,1.65,1.91,2.48,4.24,2.48,6.98,0,3.66-1.26,6.44-3.79,8.35-2.53,1.91-5.78,2.86-9.76,2.86h-11.69Zm17.24-29.89c0-2.11-.76-3.68-2.27-4.71-1.51-1.03-3.5-1.55-5.97-1.55h-4.06v12.83h4.41c2.43,0,4.35-.61,5.76-1.82,1.41-1.21,2.12-2.79,2.12-4.74Zm2.86,18.32c0-2.27-.78-4.04-2.33-5.31s-3.74-1.91-6.56-1.91h-6.26v14.26h7.1c2.67,0,4.67-.64,6.03-1.91,1.35-1.27,2.03-2.98,2.03-5.13Z" style="fill:#380063;"></path> <path d="M798.93,331.9v4.53h-17.36v12.83h16.71v4.53h-16.71v14.26h18.02v4.53h-22.97v-40.69h22.31Z" style="fill:#380063;"></path> <path d="M807.22,372.59v-40.69h11.81c4.53,0,8.15,1.05,10.86,3.16,2.7,2.11,4.06,5.23,4.06,9.37s-1.25,7.13-3.76,9.34c-2.51,2.21-6.36,3.31-11.57,3.31h-6.44v15.51h-4.95Zm21.66-28.04c0-2.51-.78-4.48-2.33-5.94-1.55-1.45-3.92-2.18-7.1-2.18h-7.28v16.17h7.1c6.4,0,9.61-2.68,9.61-8.05Z" style="fill:#380063;"></path> <path d="M861.16,331.9v4.53h-17.36v12.83h16.71v4.53h-16.71v14.26h18.02v4.53h-22.97v-40.69h22.31Z" style="fill:#380063;"></path> <path d="M869.46,331.9h4.95v24.28c0,4.22-.04,7.1-.12,8.65h.12c.72-1.31,3.58-5.77,8.59-13.37l12.95-19.57h4.65v40.69h-4.95v-24.34c0-2.74,.04-5.59,.12-8.53h-.12c-.68,1.27-3.54,5.71-8.59,13.31l-12.95,19.57h-4.65v-40.69Zm20.88-11.75h3.94c-.12,2.31-1.03,4.2-2.72,5.67-1.69,1.47-3.89,2.21-6.59,2.21-2.9,0-5.16-.75-6.77-2.24-1.61-1.49-2.46-3.37-2.54-5.64h3.94c.08,1.19,.59,2.14,1.52,2.83,.93,.7,2.22,1.04,3.85,1.04s2.96-.37,3.88-1.1c.91-.74,1.41-1.66,1.49-2.77Z" style="fill:#380063;"></path> </g> </g> </svg> 