<?xml version="1.0" encoding="UTF-8"?> <svg xmlns="http://www.w3.org/2000/svg" viewBox="0 0 267.51 35.91"> <defs> <style>.cls-1{fill:#323e48;}</style> </defs> <g id="Layer_2" data-name="Layer 2"> <g id="Layer_4" data-name="Layer 4"> <path class="cls-1" d="M21.82,34.22a1.59,1.59,0,0,1-.13.7,1.21,1.21,0,0,1-.33.46,1.14,1.14,0,0,1-.44.25,1.61,1.61,0,0,1-.46.07h-.59a2.86,2.86,0,0,1-.85-.12,2.27,2.27,0,0,1-.76-.41,4,4,0,0,1-.72-.79,12.11,12.11,0,0,1-.82-1.26L6,14.14c-.54-.93-1.07-1.88-1.61-2.86S3.35,9.35,2.87,8.43h0q0,1.71,0,3.51V35.13a.53.53,0,0,1-.07.26.47.47,0,0,1-.24.19,1.73,1.73,0,0,1-.43.12,4.25,4.25,0,0,1-.69,0,4.44,4.44,0,0,1-.69,0,1.83,1.83,0,0,1-.44-.12.47.47,0,0,1-.24-.19A.53.53,0,0,1,0,35.13V6.69A1.33,1.33,0,0,1,.45,5.53a1.51,1.51,0,0,1,.87-.32H2.49a4,4,0,0,1,.94.1,1.83,1.83,0,0,1,.68.31,2.49,2.49,0,0,1,.6.64,10.92,10.92,0,0,1,.65,1l8.2,14.54c.51.91,1,1.78,1.46,2.62s.92,1.66,1.35,2.47l1.31,2.38L19,31.68h0c0-1.31,0-2.68,0-4.11V5.78a.49.49,0,0,1,.3-.46,1.22,1.22,0,0,1,.44-.12,5.71,5.71,0,0,1,1.35,0,1.16,1.16,0,0,1,.44.12.57.57,0,0,1,.25.2.4.4,0,0,1,.08.26Z"></path> <path class="cls-1" d="M71.06,34.34a2.92,2.92,0,0,1,0,.54,1,1,0,0,1-.16.4.61.61,0,0,1-.24.24.55.55,0,0,1-.31.08H56.07a1.52,1.52,0,0,1-.87-.31,1.33,1.33,0,0,1-.45-1.16V6.69a1.33,1.33,0,0,1,.45-1.16,1.53,1.53,0,0,1,.87-.32h14a.68.68,0,0,1,.31.08.7.7,0,0,1,.23.25,1.16,1.16,0,0,1,.14.41,3.3,3.3,0,0,1,0,.58,2.92,2.92,0,0,1,0,.54.89.89,0,0,1-.14.38.59.59,0,0,1-.23.24.58.58,0,0,1-.31.08H57.62V18.46H68.38a.73.73,0,0,1,.33.08.66.66,0,0,1,.23.24,1.16,1.16,0,0,1,.14.4,3.1,3.1,0,0,1,0,.57,2.65,2.65,0,0,1,0,.53,1,1,0,0,1-.14.36.6.6,0,0,1-.23.22.88.88,0,0,1-.33.07H57.62V33H70.3a.56.56,0,0,1,.31.09.61.61,0,0,1,.24.24.82.82,0,0,1,.16.39A3.3,3.3,0,0,1,71.06,34.34Z"></path> <path class="cls-1" d="M129.85,35.09a.79.79,0,0,1-.23.31.89.89,0,0,1-.4.2,2.78,2.78,0,0,1-.56.11c-.21,0-.46,0-.74,0s-.53,0-.75,0a3,3,0,0,1-.58-.11,1,1,0,0,1-.4-.2.77.77,0,0,1-.22-.31l-7.19-25h0l-6.58,25a.61.61,0,0,1-.18.31.7.7,0,0,1-.35.2,2.44,2.44,0,0,1-.54.11c-.21,0-.47,0-.76,0s-.59,0-.82,0a3.1,3.1,0,0,1-.59-.11.93.93,0,0,1-.41-.2.7.7,0,0,1-.23-.31L99.66,6.18a2.54,2.54,0,0,1-.12-.59.41.41,0,0,1,.16-.33.87.87,0,0,1,.47-.15,6.28,6.28,0,0,1,.83,0,6,6,0,0,1,.82,0,1.51,1.51,0,0,1,.47.1.45.45,0,0,1,.23.19,1.51,1.51,0,0,1,.1.28l7.64,26.66h0l7-26.66a1,1,0,0,1,.12-.28.5.5,0,0,1,.25-.19,1.67,1.67,0,0,1,.49-.1,6.28,6.28,0,0,1,.83,0,3.8,3.8,0,0,1,.65,0,1.3,1.3,0,0,1,.4.1.55.55,0,0,1,.23.19.8.8,0,0,1,.13.28l7.66,26.66h.05l7.44-26.66a1.49,1.49,0,0,1,.11-.28.42.42,0,0,1,.22-.19,1.51,1.51,0,0,1,.45-.1,5.23,5.23,0,0,1,.77,0,4.51,4.51,0,0,1,.82,0,1,1,0,0,1,.46.16.45.45,0,0,1,.17.33,1.73,1.73,0,0,1-.09.57Z"></path> <path class="cls-1" d="M184,34.29a3,3,0,0,1,0,.56,1.41,1.41,0,0,1-.14.41.68.68,0,0,1-.24.26.58.58,0,0,1-.33.08H170.06a1.47,1.47,0,0,1-.87-.31,1.33,1.33,0,0,1-.45-1.16V5.68a.59.59,0,0,1,.07-.26.42.42,0,0,1,.24-.18,1.7,1.7,0,0,1,.44-.12,4.79,4.79,0,0,1,1.38,0,1.73,1.73,0,0,1,.43.12.45.45,0,0,1,.24.18.59.59,0,0,1,.07.26V33h11.62a.67.67,0,0,1,.33.08.78.78,0,0,1,.24.24,1.18,1.18,0,0,1,.14.39A3.37,3.37,0,0,1,184,34.29Z"></path> <path class="cls-1" d="M215.22,35.13a.44.44,0,0,1-.07.26.42.42,0,0,1-.22.19,1.53,1.53,0,0,1-.42.12,4.3,4.3,0,0,1-.7,0,4.17,4.17,0,0,1-.67,0,1.73,1.73,0,0,1-.43-.12.38.38,0,0,1-.22-.19.53.53,0,0,1-.06-.26V13.88a.58.58,0,0,1,.06-.26.48.48,0,0,1,.22-.2,1.73,1.73,0,0,1,.43-.12,6.32,6.32,0,0,1,.67,0,6.54,6.54,0,0,1,.7,0,1.53,1.53,0,0,1,.42.12.54.54,0,0,1,.22.2.48.48,0,0,1,.07.26Z"></path> <path class="cls-1" d="M267.51,31.47c0,.18,0,.33,0,.47a2,2,0,0,1-.08.38,1,1,0,0,1-.13.3,1.6,1.6,0,0,1-.3.37,7.49,7.49,0,0,1-1,.72,11.64,11.64,0,0,1-1.89,1,16.14,16.14,0,0,1-2.62.85,14.29,14.29,0,0,1-3.26.35,13,13,0,0,1-5.19-1,10.6,10.6,0,0,1-4-2.92,13.36,13.36,0,0,1-2.51-4.75,21.41,21.41,0,0,1-.88-6.43,21.78,21.78,0,0,1,.94-6.66,14.61,14.61,0,0,1,2.64-5A11.42,11.42,0,0,1,253.36,6a12.46,12.46,0,0,1,5.27-1.09,13.43,13.43,0,0,1,2.64.25,17.87,17.87,0,0,1,2.36.66,12.06,12.06,0,0,1,1.94.92,6.48,6.48,0,0,1,1.17.83,2.79,2.79,0,0,1,.4.46,1,1,0,0,1,.13.32,2.06,2.06,0,0,1,.07.4,3.63,3.63,0,0,1,0,.5,3.37,3.37,0,0,1,0,.58,1.61,1.61,0,0,1-.11.42.75.75,0,0,1-.21.27.43.43,0,0,1-.28.09,1.67,1.67,0,0,1-.92-.48,15.72,15.72,0,0,0-1.58-1.07A13,13,0,0,0,261.85,8a10.48,10.48,0,0,0-3.36-.47,9,9,0,0,0-3.93.85,8.42,8.42,0,0,0-3.06,2.53,12.5,12.5,0,0,0-2,4.11,20.23,20.23,0,0,0-.71,5.61,20,20,0,0,0,.66,5.38,11.4,11.4,0,0,0,1.9,4,8.13,8.13,0,0,0,3.07,2.45,9.76,9.76,0,0,0,4.16.85,10.62,10.62,0,0,0,3.32-.48,13.69,13.69,0,0,0,2.44-1.07A17.81,17.81,0,0,0,266,30.64a2,2,0,0,1,1-.48.37.37,0,0,1,.39.27,1.58,1.58,0,0,1,.09.41A3.77,3.77,0,0,1,267.51,31.47Z"></path> <path class="cls-1" d="M221.85,2.08c-.59-.8-2.38-.94-3.62-.88A15.48,15.48,0,0,0,214,2.62a.66.66,0,0,0,0-.14V2.37a.28.28,0,0,0,0-.09.3.3,0,0,1,0-.1A.37.37,0,0,0,214,2l.06-.3a4.23,4.23,0,0,1,.28-.85,1.35,1.35,0,0,1,.48-.56.36.36,0,0,1,.27-.07.33.33,0,0,1,.23.19.47.47,0,0,1,0,.35c0,.09-.12.14-.19.09s-.06,0-.08,0a.12.12,0,0,0,0,.13c.12.09.28,0,.35-.17a.66.66,0,0,0,0-.55.4.4,0,0,0-.31-.26.46.46,0,0,0-.33.07,1.55,1.55,0,0,0-.53.63,3.94,3.94,0,0,0-.3.9c0,.19-.07.38-.1.57h0V1.6h0a3.55,3.55,0,0,0-.08.47c0-.16-.05-.32-.08-.47s0,0,0,0v.59h0c0-.19-.06-.38-.1-.57a4.58,4.58,0,0,0-.31-.89,1.48,1.48,0,0,0-.53-.63.49.49,0,0,0-.34-.07.44.44,0,0,0-.31.26.83.83,0,0,0,0,.56c.08.18.24.26.36.16a.12.12,0,0,0,0-.13.05.05,0,0,0-.08,0c-.06.05-.15,0-.19-.09a.48.48,0,0,1,0-.35A.3.3,0,0,1,212.4.2a.37.37,0,0,1,.27.07,1.24,1.24,0,0,1,.48.56,3.5,3.5,0,0,1,.29.85l.06.29a.74.74,0,0,0,0,.21.3.3,0,0,1,0,.1.28.28,0,0,1,0,.09v.11a.71.71,0,0,0,0,.14,15.53,15.53,0,0,0-4.26-1.39c-1.24-.05-3,.12-3.62.92-.21.22.08.29.1.39a1.64,1.64,0,0,0,.37.61c.1,0,.35.52.47.65s.4.21.48.47.32.32.41.59.39.21.47.59.37.21.4.46.4.23.47.21.25-.18.27,0,.14.22.08.39-.23.64-.16.71.4.06.29.57c-.07.23.12.3.2.26s.3.19.24.51.16.41.29.34.41.19.19.76-.64.87-.77,1.33.28.66.49.38.16-.67.32-.94.47-.93.66-.84.39-.39.5-.38.31-.09.44,0,.42-.49.38-.82.19-.11.29-.64a20.85,20.85,0,0,1,1-2.4,6.1,6.1,0,0,0,.18,1.43s0,0,0,0l0,0A6.33,6.33,0,0,0,214,5.32,20.46,20.46,0,0,1,215,7.72c.1.52.33.31.3.63s.26.92.38.82.33,0,.44,0,.33.47.51.37.49.56.66.84.11.67.33.94.63.08.49-.38-.56-.75-.78-1.33.05-.83.18-.76.35,0,.29-.34.15-.55.23-.51.27,0,.2-.26c-.11-.52.21-.51.29-.58s-.12-.53-.17-.7.08-.2.07-.4.22.18.28,0,.44,0,.47-.22.31-.08.39-.45.38-.34.47-.61.31-.31.4-.58.35-.35.47-.48.37-.62.48-.66.33-.5.36-.6S222.07,2.29,221.85,2.08Z"></path> </g> </g> </svg> 