<?xml version="1.0" encoding="UTF-8"?> <svg xmlns="http://www.w3.org/2000/svg" width="547" height="509" viewBox="0 0 547 509" fill="none"><path d="M289.344 45.5263H293.76V46.7423H278.144V45.5263H282.56V18.1983H278.144V17.0463H293.76V18.1983H289.344V45.5263ZM260.608 29.4623H263.936C268.373 29.4623 271.744 30.2517 274.048 31.8303C276.352 33.409 277.504 35.5423 277.504 38.2303C277.504 40.1503 276.672 42.049 275.008 43.9263C273.387 45.8037 270.4 46.7423 266.048 46.7423H249.408V45.5263H253.76V18.1983H249.408V17.0463H265.024V18.1983H260.608V29.4623ZM260.608 45.5263H263.36C266.091 45.5263 267.819 45.121 268.544 44.3103C269.312 43.4997 269.696 42.3903 269.696 40.9823C269.696 40.129 269.717 39.297 269.76 38.4863C269.803 37.633 269.781 36.801 269.696 35.9903C269.696 34.5397 269.333 33.281 268.608 32.2143C267.925 31.1477 266.389 30.6143 264 30.6143H260.608V45.5263Z" fill="white"></path><path d="M246.873 17.0463L247.513 28.3103H246.041C244.59 21.2703 241.326 17.8997 236.249 18.1983V45.5263H240.665V46.7423H225.049V45.5263H229.401V18.1983C226.542 18.0277 224.473 18.7317 223.193 20.3103C221.913 21.889 220.74 24.5557 219.673 28.3103H218.201L218.841 17.0463H246.873Z" fill="white"></path><path d="M194.296 30.4223H196.856C198.818 30.4223 200.162 29.8677 200.888 28.7583C201.656 27.649 202.232 26.177 202.616 24.3423C203.213 21.3557 203.917 19.265 204.728 18.0703C205.581 16.8757 207.032 16.2783 209.08 16.2783C210.658 16.2783 211.96 16.7477 212.984 17.6863C214.008 18.5823 214.52 19.7343 214.52 21.1423C214.52 22.4223 214.178 23.4677 213.496 24.2783C212.813 25.089 211.917 25.4943 210.808 25.4943C209.869 25.4943 209.016 25.217 208.248 24.6623C207.522 24.065 207.16 23.3397 207.16 22.4863C207.16 21.889 207.224 21.377 207.352 20.9503C207.394 20.8223 207.416 20.7157 207.416 20.6303C207.458 20.5023 207.48 20.417 207.48 20.3743C207.522 20.3317 207.544 20.2463 207.544 20.1183C207.544 19.4357 206.989 19.0943 205.88 19.0943C205.197 19.0943 204.557 20.9077 203.96 24.5343C203.533 26.4543 203.064 27.8837 202.552 28.8223C202.04 29.7183 201.272 30.3157 200.248 30.6143V30.8063C204.344 31.0197 207.053 31.8943 208.376 33.4303C209.698 34.9663 210.53 37.057 210.872 39.7023C211.042 41.3237 211.256 42.5397 211.512 43.3503C211.81 44.161 212.365 44.5663 213.176 44.5663C213.688 44.5663 214.242 44.3743 214.84 43.9903C215.437 43.5637 215.821 43.137 215.992 42.7103L216.888 43.1583C216.29 44.5663 215.309 45.6543 213.944 46.4223C212.621 47.1477 211.213 47.5103 209.72 47.5103C208.098 47.5103 206.861 47.0837 206.008 46.2303C205.154 45.3343 204.6 44.353 204.344 43.2863C204.088 42.177 203.853 40.769 203.64 39.0623C203.213 35.7343 202.509 33.6437 201.528 32.7903C200.589 31.937 199.181 31.5103 197.304 31.5103H195.832L194.296 31.5743V45.5263H198.712V46.7423H183.096V45.5263H187.448V18.1983H183.096V17.0463H198.712V18.1983H194.296V30.4223Z" fill="white"></path><path d="M180.746 43.0303L181.706 43.9263C180.084 46.3157 177.759 47.5103 174.73 47.5103C171.7 47.5103 169.78 45.9957 168.97 42.9663C165.471 45.9957 162.079 47.5103 158.794 47.5103C156.362 47.5103 154.399 46.8277 152.906 45.4623C151.412 44.0543 150.666 42.177 150.666 39.8303C150.666 36.7583 152.01 34.3477 154.698 32.5983C157.428 30.8063 161.418 29.9103 166.666 29.9103C167.69 29.9103 168.458 29.9317 168.97 29.9743V22.1663C168.97 20.801 168.671 19.6917 168.074 18.8383C167.519 17.9423 166.26 17.4943 164.298 17.4943C163.188 17.4943 162.164 17.6437 161.226 17.9423C160.287 18.1983 159.818 18.561 159.818 19.0303C159.818 19.8837 160.052 20.673 160.522 21.3983C161.119 22.3797 161.418 23.1477 161.418 23.7023C161.418 24.8543 161.076 25.8783 160.394 26.7743C159.711 27.6277 158.644 28.0543 157.194 28.0543C155.828 28.0543 154.762 27.6063 153.994 26.7103C153.226 25.8143 152.842 24.6623 152.842 23.2543C152.842 21.0783 154.036 19.3717 156.426 18.1343C158.858 16.897 161.503 16.2783 164.362 16.2783C169.311 16.2783 172.447 17.089 173.77 18.7103C175.135 20.3317 175.818 22.3797 175.818 24.8543V42.9663C175.818 44.5023 176.351 45.2703 177.418 45.2703C177.93 45.2703 178.527 45.0357 179.21 44.5663C179.892 44.097 180.404 43.585 180.746 43.0303ZM168.97 40.7903V31.1263C165.002 31.041 162.25 31.5957 160.714 32.7903C159.22 33.9423 158.474 36.2677 158.474 39.7663C158.474 42.9663 160.095 44.5663 163.338 44.5663C164.063 44.5663 165.172 44.1397 166.666 43.2863C168.202 42.433 168.97 41.601 168.97 40.7903Z" fill="white"></path><path d="M147.811 17.0463L148.451 28.3103H146.979C145.528 21.2703 142.264 17.8997 137.187 18.1983V45.5263H141.603V46.7423H125.987V45.5263H130.339V18.1983C127.48 18.0277 125.411 18.7317 124.131 20.3103C122.851 21.889 121.677 24.5557 120.611 28.3103H119.139L119.779 17.0463H147.811Z" fill="white"></path><path d="M94.0456 31.2543V45.5263H97.9496V46.7423H82.8456V45.5263H87.1976V18.1983H82.8456V17.0463H97.9496V18.1983H94.0456V30.1663H105.95V18.1983H102.046V17.0463H117.15V18.1983H112.734V45.5263H117.15V46.7423H102.046V45.5263H105.95V31.2543H94.0456Z" fill="white"></path><path d="M49.7236 31.8943C49.7236 27.7983 51.1102 24.1717 53.8836 21.0143C56.6996 17.857 60.3262 16.2783 64.7636 16.2783C67.7076 16.2783 70.3316 17.0463 72.6356 18.5823C74.9822 20.0757 76.7742 22.0383 78.0116 24.4703C79.2916 26.8597 79.9316 29.3343 79.9316 31.8943C79.9316 34.4543 79.2916 36.9503 78.0116 39.3823C76.7742 41.7717 74.9822 43.7343 72.6356 45.2703C70.3316 46.7637 67.7076 47.5103 64.7636 47.5103C61.7769 47.5103 59.1316 46.7637 56.8276 45.2703C54.5236 43.7343 52.7529 41.7717 51.5156 39.3823C50.3209 36.9503 49.7236 34.4543 49.7236 31.8943ZM57.5956 26.8383C57.5529 28.033 57.5316 29.7823 57.5316 32.0863C57.5316 35.6703 57.7236 38.4437 58.1076 40.4063C58.5342 42.369 59.2596 43.841 60.2836 44.8223C61.3502 45.8037 62.8862 46.2943 64.8916 46.2943C67.4089 46.2943 69.2436 45.2917 70.3956 43.2863C71.5476 41.281 72.1236 37.5263 72.1236 32.0223C72.1236 27.2863 71.6756 23.681 70.7796 21.2063C69.8836 18.689 67.9209 17.4303 64.8916 17.4303C62.9289 17.4303 61.2436 18.1983 59.8356 19.7343C58.4702 21.2703 57.7236 23.6383 57.5956 26.8383Z" fill="white"></path><path d="M16.1281 21.0143H22.7841C25.6427 21.0143 27.4774 20.3317 28.2881 18.9663C29.0987 17.5583 29.7174 14.8277 30.1441 10.7743C30.4427 7.91565 30.8481 5.73965 31.3601 4.24632C31.9147 2.75298 32.7041 1.72898 33.7281 1.17432C34.7521 0.576987 36.2027 0.27832 38.0801 0.27832C39.9147 0.27832 41.4507 0.896987 42.6881 2.13432C43.9681 3.32899 44.6081 4.71565 44.6081 6.29432C44.6081 7.48899 44.2667 8.61965 43.5841 9.68632C42.9441 10.7103 41.7707 11.2223 40.0641 11.2223C38.8694 11.2223 37.8667 10.881 37.0561 10.1983C36.2881 9.51565 35.9041 8.74765 35.9041 7.89432C35.9041 7.21165 36.1174 6.05965 36.5441 4.43832C36.5867 4.22499 36.6081 3.64899 36.6081 2.71032C36.6081 2.32632 36.2027 2.13432 35.3921 2.13432C33.2587 2.13432 32.0001 5.07832 31.6161 10.9663C31.3601 14.3797 30.9334 16.8757 30.3361 18.4543C29.7814 20.033 28.3947 21.0783 26.1761 21.5903V21.9103C26.5174 21.953 26.9014 22.017 27.3281 22.1023C27.7547 22.1877 28.1387 22.273 28.4801 22.3583C32.2347 22.8703 35.0294 24.1717 36.8641 26.2623C38.5707 28.1823 39.6374 30.1877 40.0641 32.2783C40.5334 34.369 40.6827 36.6517 40.5121 39.1263C40.3414 41.601 40.3201 43.2223 40.4481 43.9903C40.5761 44.7583 41.1521 45.1423 42.1761 45.1423C43.9681 45.1423 45.3761 44.4383 46.4001 43.0303L47.4241 43.9903C45.3334 46.337 43.0294 47.5103 40.5121 47.5103C37.6961 47.5103 35.5841 46.8703 34.1761 45.5903C32.8107 44.2677 31.9147 42.5823 31.4881 40.5343C31.0614 38.4437 30.8054 35.8197 30.7201 32.6623C30.6347 29.889 30.0801 27.4997 29.0561 25.4943C28.0747 23.4463 25.9841 22.4223 22.7841 22.4223H16.1281V45.3343H21.5041V46.7423H2.94406V45.3343H8.32006V2.45432H2.94406V1.04632H21.5041V2.45432H16.1281V21.0143Z" fill="white"></path><path d="M116.563 387.202V361.498H120.487V363.694H120.595C122.155 361.87 124.135 360.958 126.535 360.958C128.815 360.958 130.759 361.822 132.367 363.55C133.975 365.254 134.779 367.462 134.779 370.174C134.779 372.838 133.951 375.034 132.295 376.762C130.663 378.49 128.671 379.354 126.319 379.354C123.967 379.354 122.071 378.454 120.631 376.654H120.523V387.202H116.563ZM130.639 370.138C130.639 368.578 130.183 367.246 129.271 366.142C128.359 365.038 127.075 364.486 125.419 364.486C123.979 364.486 122.767 365.014 121.783 366.07C120.823 367.126 120.343 368.506 120.343 370.21C120.343 371.842 120.835 373.198 121.819 374.278C122.827 375.334 124.039 375.862 125.455 375.862C127.087 375.862 128.359 375.298 129.271 374.17C130.183 373.018 130.639 371.674 130.639 370.138Z" fill="white"></path><path d="M111.864 361.498V378.742H107.94V376.546H107.832C106.32 378.418 104.352 379.354 101.928 379.354C99.7922 379.354 97.8722 378.538 96.1682 376.906C94.4882 375.25 93.6482 372.982 93.6482 370.102C93.6482 367.414 94.4762 365.218 96.1322 363.514C97.7882 361.81 99.8162 360.958 102.216 360.958C104.52 360.958 106.404 361.918 107.868 363.838H107.94V361.498H111.864ZM97.7882 370.102C97.7882 371.662 98.2322 373.006 99.1202 374.134C100.032 375.262 101.328 375.826 103.008 375.826C104.376 375.826 105.564 375.298 106.572 374.242C107.604 373.162 108.12 371.818 108.12 370.21C108.12 368.506 107.628 367.114 106.644 366.034C105.684 364.954 104.484 364.414 103.044 364.414C101.364 364.414 100.068 364.978 99.1562 366.106C98.2442 367.234 97.7882 368.566 97.7882 370.102Z" fill="white"></path><path d="M76.801 378.742V361.498H84.037C85.885 361.498 87.313 361.87 88.321 362.614C89.329 363.334 89.833 364.366 89.833 365.71C89.833 366.55 89.593 367.306 89.113 367.978C88.633 368.626 87.913 369.082 86.953 369.346C88.369 369.61 89.401 370.126 90.049 370.894C90.721 371.662 91.057 372.562 91.057 373.594C91.057 375.154 90.493 376.402 89.365 377.338C88.261 378.274 86.713 378.742 84.721 378.742H76.801ZM83.965 371.11H80.617V375.934H84.325C85.285 375.934 85.993 375.706 86.449 375.25C86.929 374.794 87.169 374.218 87.169 373.522C87.169 371.914 86.101 371.11 83.965 371.11ZM83.353 364.306H80.617V368.374H83.065C85.009 368.374 85.981 367.666 85.981 366.25C85.981 364.954 85.105 364.306 83.353 364.306Z" fill="white"></path><path d="M66.6529 371.11H64.1689V375.682H66.6529C67.5409 375.682 68.1889 375.466 68.5969 375.034C69.0289 374.602 69.2449 374.05 69.2449 373.378C69.2449 371.866 68.3809 371.11 66.6529 371.11ZM64.1689 368.05H67.0129C69.0049 368.05 70.5409 368.506 71.6209 369.418C72.7249 370.33 73.2769 371.65 73.2769 373.378C73.2769 375.01 72.7369 376.318 71.6569 377.302C70.5769 378.262 69.0889 378.742 67.1929 378.742H60.1369V361.498H64.1689V368.05Z" fill="white"></path><path d="M40.6882 373.09L41.7322 361.498H55.4482V378.742H51.4522V364.99H45.1882L44.3962 373.558C44.2042 375.526 43.7242 376.93 42.9562 377.77C42.1882 378.586 40.9762 378.994 39.3202 378.994C38.8402 378.994 38.2642 378.922 37.5922 378.778V375.466C37.9762 375.562 38.3722 375.61 38.7802 375.61C39.4042 375.61 39.8602 375.406 40.1482 374.998C40.4362 374.59 40.6162 373.954 40.6882 373.09Z" fill="white"></path><path d="M37.2989 361.498L27.8309 387.202H23.9789L27.1469 378.67L20.8469 361.498H24.9869L27.9749 370.066C28.5989 371.962 28.9829 373.282 29.1269 374.026H29.2349C29.5709 372.682 29.9549 371.362 30.3869 370.066L33.3029 361.498H37.2989Z" fill="white"></path><path d="M5.36407 370.102C5.36407 371.734 5.85607 373.09 6.84007 374.17C7.84807 375.226 9.07207 375.754 10.5121 375.754C12.0241 375.754 13.2481 375.226 14.1841 374.17C15.1441 373.09 15.6241 371.734 15.6241 370.102C15.6241 368.518 15.1681 367.186 14.2561 366.106C13.3441 365.026 12.1201 364.486 10.5841 364.486C9.04807 364.486 7.78807 365.026 6.80407 366.106C5.84407 367.162 5.36407 368.494 5.36407 370.102ZM12.5281 357.718C8.42407 358.342 6.10807 360.19 5.58007 363.262H5.68807C6.26407 362.614 7.03207 362.086 7.99207 361.678C8.97607 361.246 9.98407 361.03 11.0161 361.03C13.6081 361.03 15.7081 361.882 17.3161 363.586C18.9241 365.29 19.7281 367.462 19.7281 370.102C19.7281 372.67 18.8521 374.854 17.1001 376.654C15.3481 378.454 13.1521 379.354 10.5121 379.354C7.77607 379.354 5.56807 378.43 3.88807 376.582C2.20807 374.71 1.36807 372.094 1.36807 368.734C1.36807 366.766 1.53607 365.014 1.87207 363.478C2.23207 361.942 2.71207 360.658 3.31207 359.626C3.91207 358.57 4.65607 357.67 5.54407 356.926C6.45607 356.182 7.41607 355.606 8.42407 355.198C9.45607 354.79 10.6201 354.478 11.9161 354.262C13.7401 353.926 15.3001 353.362 16.5961 352.57L18.2161 355.882C16.4881 356.842 14.5921 357.454 12.5281 357.718Z" fill="white"></path><path d="M429.172 338.742V321.498H433.06V328.122C433.06 330.258 433.024 332.022 432.952 333.414H433.024C433.384 332.742 434.176 331.566 435.4 329.886L441.628 321.498H445.192V338.742H441.304V332.154C441.304 330.018 441.34 328.242 441.412 326.826H441.34C440.956 327.522 440.164 328.698 438.964 330.354L432.736 338.742H429.172ZM440.296 312.786H443.176C443.08 314.418 442.48 315.75 441.376 316.782C440.272 317.814 438.916 318.33 437.308 318.33C435.628 318.33 434.248 317.826 433.168 316.818C432.112 315.786 431.548 314.442 431.476 312.786H434.32C434.392 313.578 434.692 314.202 435.22 314.658C435.748 315.114 436.444 315.342 437.308 315.342C438.148 315.342 438.844 315.114 439.396 314.658C439.948 314.178 440.248 313.554 440.296 312.786Z" fill="white"></path><path d="M408.465 338.742V321.498H412.353V328.122C412.353 330.258 412.317 332.022 412.245 333.414H412.317C412.677 332.742 413.469 331.566 414.693 329.886L420.921 321.498H424.485V338.742H420.597V332.154C420.597 330.018 420.633 328.242 420.705 326.826H420.633C420.249 327.522 419.457 328.698 418.257 330.354L412.029 338.742H408.465Z" fill="white"></path><path d="M389.797 338.742V321.498H393.829V329.13L401.029 321.498H405.745L398.041 329.67L405.961 338.742H401.065L393.829 330.318V338.742H389.797Z" fill="white"></path><path d="M378.102 320.922C380.358 320.922 382.17 321.51 383.538 322.686C384.906 323.862 385.746 325.194 386.058 326.682H381.918C381.294 325.122 380.01 324.342 378.066 324.342C376.578 324.342 375.366 324.858 374.43 325.89C373.518 326.922 373.062 328.326 373.062 330.102C373.062 331.758 373.53 333.138 374.466 334.242C375.426 335.346 376.674 335.898 378.21 335.898C380.106 335.898 381.426 335.034 382.17 333.306H386.346C385.818 335.058 384.87 336.51 383.502 337.662C382.158 338.79 380.37 339.354 378.138 339.354C375.498 339.354 373.302 338.502 371.55 336.798C369.798 335.07 368.922 332.826 368.922 330.066C368.922 327.474 369.762 325.302 371.442 323.55C373.122 321.798 375.342 320.922 378.102 320.922Z" fill="white"></path><path d="M365.423 321.498V338.742H361.391V331.434H353.435V338.742H349.403V321.498H353.435V328.05H361.391V321.498H365.423Z" fill="white"></path><path d="M337.134 320.922C339.918 320.946 342.054 321.858 343.542 323.658C345.054 325.434 345.81 327.534 345.81 329.958C345.81 330.51 345.786 330.906 345.738 331.146H332.418C332.418 332.49 332.922 333.666 333.93 334.674C334.962 335.682 336.174 336.186 337.566 336.186C339.174 336.186 340.458 335.538 341.418 334.242H345.558C344.91 335.73 343.914 336.954 342.57 337.914C341.25 338.874 339.582 339.354 337.566 339.354C334.902 339.354 332.706 338.478 330.978 336.726C329.25 334.95 328.386 332.694 328.386 329.958C328.386 327.438 329.178 325.302 330.762 323.55C332.37 321.798 334.494 320.922 337.134 320.922ZM337.134 323.946C335.814 323.946 334.734 324.366 333.894 325.206C333.054 326.046 332.574 327.054 332.454 328.23H341.778C341.658 327.03 341.166 326.022 340.302 325.206C339.462 324.366 338.406 323.946 337.134 323.946Z" fill="white"></path><path d="M326.854 321.498V324.99H322.174V338.742H318.178V324.99H313.462V321.498H326.854Z" fill="white"></path><path d="M303.138 320.922C305.922 320.946 308.058 321.858 309.546 323.658C311.058 325.434 311.814 327.534 311.814 329.958C311.814 330.51 311.79 330.906 311.742 331.146H298.422C298.422 332.49 298.926 333.666 299.934 334.674C300.966 335.682 302.178 336.186 303.57 336.186C305.178 336.186 306.462 335.538 307.422 334.242H311.562C310.914 335.73 309.918 336.954 308.574 337.914C307.254 338.874 305.586 339.354 303.57 339.354C300.906 339.354 298.71 338.478 296.982 336.726C295.254 334.95 294.39 332.694 294.39 329.958C294.39 327.438 295.182 325.302 296.766 323.55C298.374 321.798 300.498 320.922 303.138 320.922ZM303.138 323.946C301.818 323.946 300.738 324.366 299.898 325.206C299.058 326.046 298.578 327.054 298.458 328.23H307.782C307.662 327.03 307.17 326.022 306.306 325.206C305.466 324.366 304.41 323.946 303.138 323.946Z" fill="white"></path><path d="M273.852 347.202V321.498H277.776V323.694H277.884C279.444 321.87 281.424 320.958 283.824 320.958C286.104 320.958 288.048 321.822 289.656 323.55C291.264 325.254 292.068 327.462 292.068 330.174C292.068 332.838 291.24 335.034 289.584 336.762C287.952 338.49 285.96 339.354 283.608 339.354C281.256 339.354 279.36 338.454 277.92 336.654H277.812V347.202H273.852ZM287.928 330.138C287.928 328.578 287.472 327.246 286.56 326.142C285.648 325.038 284.364 324.486 282.708 324.486C281.268 324.486 280.056 325.014 279.072 326.07C278.112 327.126 277.632 328.506 277.632 330.21C277.632 331.842 278.124 333.198 279.108 334.278C280.116 335.334 281.328 335.862 282.744 335.862C284.376 335.862 285.648 335.298 286.56 334.17C287.472 333.018 287.928 331.674 287.928 330.138Z" fill="white"></path><path d="M257.988 313.398C261.132 313.398 263.688 314.202 265.656 315.81C267.624 317.394 268.908 319.254 269.508 321.39H264.864C264.408 320.142 263.568 319.11 262.344 318.294C261.144 317.478 259.68 317.07 257.952 317.07C255.6 317.07 253.62 317.922 252.012 319.626C250.428 321.33 249.636 323.598 249.636 326.43C249.636 329.07 250.428 331.302 252.012 333.126C253.596 334.95 255.624 335.862 258.096 335.862C259.872 335.862 261.36 335.418 262.56 334.53C263.76 333.642 264.624 332.502 265.152 331.11H269.904C268.968 333.678 267.504 335.73 265.512 337.266C263.52 338.778 261 339.534 257.952 339.534C254.208 339.534 251.16 338.298 248.808 335.826C246.456 333.33 245.28 330.186 245.28 326.394C245.28 322.65 246.48 319.554 248.88 317.106C251.304 314.634 254.34 313.398 257.988 313.398Z" fill="white"></path><path d="M227.897 338.742V333.882H232.973V336.186C232.973 338.826 232.241 341.298 230.777 343.602H228.293C229.157 342.186 229.697 340.566 229.913 338.742H227.897Z" fill="white"></path><path d="M219.448 332.082H218.044L213.76 338.742H209.332L214.228 331.686C213.1 331.374 212.2 330.798 211.528 329.958C210.88 329.118 210.556 328.086 210.556 326.862C210.556 325.23 211.096 323.934 212.176 322.974C213.28 321.99 214.816 321.498 216.784 321.498H223.48V338.742H219.448V332.082ZM217.18 329.238H219.448V324.522H217.18C216.316 324.522 215.668 324.75 215.236 325.206C214.804 325.638 214.588 326.19 214.588 326.862C214.588 328.446 215.452 329.238 217.18 329.238Z" fill="white"></path><path d="M206.47 321.498V338.742H202.546V336.546H202.438C200.926 338.418 198.958 339.354 196.534 339.354C194.398 339.354 192.478 338.538 190.774 336.906C189.094 335.25 188.254 332.982 188.254 330.102C188.254 327.414 189.082 325.218 190.738 323.514C192.394 321.81 194.422 320.958 196.822 320.958C199.126 320.958 201.01 321.918 202.474 323.838H202.546V321.498H206.47ZM192.394 330.102C192.394 331.662 192.838 333.006 193.726 334.134C194.638 335.262 195.934 335.826 197.614 335.826C198.982 335.826 200.17 335.298 201.178 334.242C202.21 333.162 202.726 331.818 202.726 330.21C202.726 328.506 202.234 327.114 201.25 326.034C200.29 324.954 199.09 324.414 197.65 324.414C195.97 324.414 194.674 324.978 193.762 326.106C192.85 327.234 192.394 328.566 192.394 330.102Z" fill="white"></path><path d="M170.774 338.742V321.498H174.806V329.13L182.006 321.498H186.722L179.018 329.67L186.938 338.742H182.042L174.806 330.318V338.742H170.774Z" fill="white"></path><path d="M159.078 320.922C161.334 320.922 163.146 321.51 164.514 322.686C165.882 323.862 166.722 325.194 167.034 326.682H162.894C162.27 325.122 160.986 324.342 159.042 324.342C157.554 324.342 156.342 324.858 155.406 325.89C154.494 326.922 154.038 328.326 154.038 330.102C154.038 331.758 154.506 333.138 155.442 334.242C156.402 335.346 157.65 335.898 159.186 335.898C161.082 335.898 162.402 335.034 163.146 333.306H167.322C166.794 335.058 165.846 336.51 164.478 337.662C163.134 338.79 161.346 339.354 159.114 339.354C156.474 339.354 154.278 338.502 152.526 336.798C150.774 335.07 149.898 332.826 149.898 330.066C149.898 327.474 150.738 325.302 152.418 323.55C154.098 321.798 156.318 320.922 159.078 320.922Z" fill="white"></path><path d="M133.051 338.742V321.498H140.287C142.135 321.498 143.563 321.87 144.571 322.614C145.579 323.334 146.083 324.366 146.083 325.71C146.083 326.55 145.843 327.306 145.363 327.978C144.883 328.626 144.163 329.082 143.203 329.346C144.619 329.61 145.651 330.126 146.299 330.894C146.971 331.662 147.307 332.562 147.307 333.594C147.307 335.154 146.743 336.402 145.615 337.338C144.511 338.274 142.963 338.742 140.971 338.742H133.051ZM140.215 331.11H136.867V335.934H140.575C141.535 335.934 142.243 335.706 142.699 335.25C143.179 334.794 143.419 334.218 143.419 333.522C143.419 331.914 142.351 331.11 140.215 331.11ZM139.603 324.306H136.867V328.374H139.315C141.259 328.374 142.231 327.666 142.231 326.25C142.231 324.954 141.355 324.306 139.603 324.306Z" fill="white"></path><path d="M120.783 320.922C123.567 320.946 125.703 321.858 127.191 323.658C128.703 325.434 129.459 327.534 129.459 329.958C129.459 330.51 129.435 330.906 129.387 331.146H116.067C116.067 332.49 116.571 333.666 117.579 334.674C118.611 335.682 119.823 336.186 121.215 336.186C122.823 336.186 124.107 335.538 125.067 334.242H129.207C128.559 335.73 127.563 336.954 126.219 337.914C124.899 338.874 123.231 339.354 121.215 339.354C118.551 339.354 116.355 338.478 114.627 336.726C112.899 334.95 112.035 332.694 112.035 329.958C112.035 327.438 112.827 325.302 114.411 323.55C116.019 321.798 118.143 320.922 120.783 320.922ZM120.783 323.946C119.463 323.946 118.383 324.366 117.543 325.206C116.703 326.046 116.223 327.054 116.103 328.23H125.427C125.307 327.03 124.815 326.022 123.951 325.206C123.111 324.366 122.055 323.946 120.783 323.946Z" fill="white"></path><path d="M108.536 321.498V338.742H104.504V331.434H96.5478V338.742H92.5158V321.498H96.5478V328.05H104.504V321.498H108.536Z" fill="white"></path><path d="M80.2477 320.922C83.0317 320.946 85.1677 321.858 86.6557 323.658C88.1677 325.434 88.9237 327.534 88.9237 329.958C88.9237 330.51 88.8997 330.906 88.8517 331.146H75.5317C75.5317 332.49 76.0357 333.666 77.0437 334.674C78.0757 335.682 79.2877 336.186 80.6797 336.186C82.2877 336.186 83.5717 335.538 84.5317 334.242H88.6717C88.0237 335.73 87.0277 336.954 85.6837 337.914C84.3637 338.874 82.6957 339.354 80.6797 339.354C78.0157 339.354 75.8197 338.478 74.0917 336.726C72.3637 334.95 71.4997 332.694 71.4997 329.958C71.4997 327.438 72.2917 325.302 73.8757 323.55C75.4837 321.798 77.6077 320.922 80.2477 320.922ZM80.2477 323.946C78.9277 323.946 77.8477 324.366 77.0077 325.206C76.1677 326.046 75.6877 327.054 75.5677 328.23H84.8917C84.7717 327.03 84.2797 326.022 83.4157 325.206C82.5757 324.366 81.5197 323.946 80.2477 323.946Z" fill="white"></path><path d="M69.9914 321.498V324.99H61.5674V338.742H57.5354V321.498H69.9914Z" fill="white"></path><path d="M35.8088 347.202V321.498H39.7328V323.694H39.8408C41.4008 321.87 43.3808 320.958 45.7808 320.958C48.0608 320.958 50.0048 321.822 51.6128 323.55C53.2208 325.254 54.0248 327.462 54.0248 330.174C54.0248 332.838 53.1968 335.034 51.5408 336.762C49.9088 338.49 47.9168 339.354 45.5648 339.354C43.2128 339.354 41.3168 338.454 39.8768 336.654H39.7688V347.202H35.8088ZM49.8848 330.138C49.8848 328.578 49.4288 327.246 48.5168 326.142C47.6048 325.038 46.3208 324.486 44.6648 324.486C43.2248 324.486 42.0128 325.014 41.0288 326.07C40.0688 327.126 39.5888 328.506 39.5888 330.21C39.5888 331.842 40.0808 333.198 41.0648 334.278C42.0728 335.334 43.2848 335.862 44.7008 335.862C46.3328 335.862 47.6048 335.298 48.5168 334.17C49.4288 333.018 49.8848 331.674 49.8848 330.138Z" fill="white"></path><path d="M33.6075 321.498L24.1395 347.202H20.2875L23.4555 338.67L17.1555 321.498H21.2955L24.2835 330.066C24.9075 331.962 25.2915 333.282 25.4355 334.026H25.5435C25.8795 332.682 26.2635 331.362 26.6955 330.066L29.6115 321.498H33.6075Z" fill="white"></path><path d="M6.48005 338.742V317.934H0.360046V314.19H16.848V317.934H10.728V338.742H6.48005Z" fill="white"></path><path d="M325.526 298.742V293.882H330.602V296.186C330.602 298.826 329.87 301.298 328.406 303.602H325.922C326.786 302.186 327.326 300.566 327.542 298.742H325.526Z" fill="white"></path><path d="M307.438 291.11H304.954V295.682H307.438C308.326 295.682 308.974 295.466 309.382 295.034C309.814 294.602 310.03 294.05 310.03 293.378C310.03 291.866 309.166 291.11 307.438 291.11ZM304.954 288.05H307.798C309.79 288.05 311.326 288.506 312.406 289.418C313.51 290.33 314.062 291.65 314.062 293.378C314.062 295.01 313.522 296.318 312.442 297.302C311.362 298.262 309.874 298.742 307.978 298.742H300.922V281.498H304.954V288.05ZM317.05 298.742V281.498H321.082V298.742H317.05Z" fill="white"></path><path d="M277.009 304.322V295.25H277.405C279.757 295.25 281.161 292.802 281.617 287.906L282.229 281.498H295.441V295.25H298.033V304.322H294.073V298.742H280.969V304.322H277.009ZM291.409 295.25V284.99H285.613L285.289 288.23C285.097 290.222 284.845 291.722 284.533 292.73C284.221 293.738 283.765 294.578 283.165 295.25H291.409Z" fill="white"></path><path d="M276.607 281.498L267.139 307.202H263.287L266.455 298.67L260.155 281.498H264.295L267.283 290.066C267.907 291.962 268.291 293.282 268.435 294.026H268.543C268.879 292.682 269.263 291.362 269.695 290.066L272.611 281.498H276.607Z" fill="white"></path><path d="M240.805 307.202V281.498H244.729V283.694H244.837C246.397 281.87 248.377 280.958 250.777 280.958C253.057 280.958 255.001 281.822 256.609 283.55C258.217 285.254 259.021 287.462 259.021 290.174C259.021 292.838 258.193 295.034 256.537 296.762C254.905 298.49 252.913 299.354 250.561 299.354C248.209 299.354 246.313 298.454 244.873 296.654H244.765V307.202H240.805ZM254.881 290.138C254.881 288.578 254.425 287.246 253.513 286.142C252.601 285.038 251.317 284.486 249.661 284.486C248.221 284.486 247.009 285.014 246.025 286.07C245.065 287.126 244.585 288.506 244.585 290.21C244.585 291.842 245.077 293.198 246.061 294.278C247.069 295.334 248.281 295.862 249.697 295.862C251.329 295.862 252.601 295.298 253.513 294.17C254.425 293.018 254.881 291.674 254.881 290.138Z" fill="white"></path><path d="M236.118 281.498V298.742H232.086V284.99H224.13V298.742H220.098V281.498H236.118Z" fill="white"></path><path d="M198.83 280.922C201.614 280.946 203.75 281.858 205.238 283.658C206.75 285.434 207.506 287.534 207.506 289.958C207.506 290.51 207.482 290.906 207.434 291.146H194.114C194.114 292.49 194.618 293.666 195.626 294.674C196.658 295.682 197.87 296.186 199.262 296.186C200.87 296.186 202.154 295.538 203.114 294.242H207.254C206.606 295.73 205.61 296.954 204.266 297.914C202.946 298.874 201.278 299.354 199.262 299.354C196.598 299.354 194.402 298.478 192.674 296.726C190.946 294.95 190.082 292.694 190.082 289.958C190.082 287.438 190.874 285.302 192.458 283.55C194.066 281.798 196.19 280.922 198.83 280.922ZM198.83 283.946C197.51 283.946 196.43 284.366 195.59 285.206C194.75 286.046 194.27 287.054 194.15 288.23H203.474C203.354 287.03 202.862 286.022 201.998 285.206C201.158 284.366 200.102 283.946 198.83 283.946Z" fill="white"></path><path d="M172.93 291.11H170.446V295.682H172.93C173.818 295.682 174.466 295.466 174.874 295.034C175.306 294.602 175.522 294.05 175.522 293.378C175.522 291.866 174.658 291.11 172.93 291.11ZM170.446 288.05H173.29C175.282 288.05 176.818 288.506 177.898 289.418C179.002 290.33 179.554 291.65 179.554 293.378C179.554 295.01 179.014 296.318 177.934 297.302C176.854 298.262 175.366 298.742 173.47 298.742H166.414V281.498H170.446V288.05ZM182.542 298.742V281.498H186.574V298.742H182.542Z" fill="white"></path><path d="M163.694 281.498V284.99H159.014V298.742H155.018V284.99H150.302V281.498H163.694Z" fill="white"></path><path d="M140.551 280.922C142.807 280.922 144.619 281.51 145.987 282.686C147.355 283.862 148.195 285.194 148.507 286.682H144.367C143.743 285.122 142.459 284.342 140.515 284.342C139.027 284.342 137.815 284.858 136.879 285.89C135.967 286.922 135.511 288.326 135.511 290.102C135.511 291.758 135.979 293.138 136.915 294.242C137.875 295.346 139.123 295.898 140.659 295.898C142.555 295.898 143.875 295.034 144.619 293.306H148.795C148.267 295.058 147.319 296.51 145.951 297.662C144.607 298.79 142.819 299.354 140.587 299.354C137.947 299.354 135.751 298.502 133.999 296.798C132.247 295.07 131.371 292.826 131.371 290.066C131.371 287.474 132.211 285.302 133.891 283.55C135.571 281.798 137.791 280.922 140.551 280.922Z" fill="white"></path><path d="M111.852 298.742V281.498H115.74V288.122C115.74 290.258 115.704 292.022 115.632 293.414H115.704C116.064 292.742 116.856 291.566 118.08 289.886L124.308 281.498H127.872V298.742H123.984V292.154C123.984 290.018 124.02 288.242 124.092 286.826H124.02C123.636 287.522 122.844 288.698 121.644 290.354L115.416 298.742H111.852Z" fill="white"></path><path d="M106.991 298.742H102.743V287.474H102.599C102.023 288.266 101.183 288.902 100.079 289.382C98.9989 289.838 97.907 290.066 96.803 290.066C94.355 290.066 92.459 289.394 91.115 288.05C89.795 286.682 89.1349 284.63 89.1349 281.894V274.19H93.3829V281.534C93.3829 284.774 94.9069 286.394 97.9549 286.394C99.4189 286.394 100.583 285.962 101.447 285.098C102.311 284.234 102.743 283.022 102.743 281.462V274.19H106.991V298.742Z" fill="white"></path><path d="M70.924 298.742V293.882H76V298.742H70.924Z" fill="white"></path><path d="M64.7894 281.498L67.8854 298.742H64.1774L62.7734 290.39C62.4614 288.35 62.2814 287.054 62.2334 286.502H62.1254C61.7894 287.99 61.4294 289.286 61.0454 290.39L57.9494 298.742H54.8534L51.7214 290.21C51.1694 288.746 50.7974 287.51 50.6054 286.502H50.4974C50.3054 287.99 50.1374 289.214 49.9934 290.174L48.5534 298.742H44.8814L48.0494 281.498H52.0814L55.5014 290.75C55.7894 291.518 56.0774 292.55 56.3654 293.846H56.4734C56.8094 292.55 57.1094 291.506 57.3734 290.714L60.8294 281.498H64.7894Z" fill="white"></path><path d="M34.5654 281.498V284.99H29.8854V298.742H25.8894V284.99H21.1734V281.498H34.5654Z" fill="white"></path><path d="M1.15207 290.102C1.15207 287.462 2.02807 285.278 3.78007 283.55C5.55607 281.798 7.75207 280.922 10.3681 280.922C13.0561 280.922 15.2641 281.798 16.9921 283.55C18.7201 285.278 19.5841 287.462 19.5841 290.102C19.5841 292.67 18.7081 294.854 16.9561 296.654C15.2041 298.454 13.0081 299.354 10.3681 299.354C7.75207 299.354 5.55607 298.466 3.78007 296.69C2.02807 294.914 1.15207 292.718 1.15207 290.102ZM6.66007 286.07C5.72407 287.126 5.25607 288.47 5.25607 290.102C5.25607 291.734 5.74807 293.09 6.73207 294.17C7.74007 295.226 8.95207 295.754 10.3681 295.754C11.8801 295.754 13.1161 295.226 14.0761 294.17C15.0361 293.09 15.5161 291.734 15.5161 290.102C15.5161 288.518 15.0481 287.186 14.1121 286.106C13.1761 285.026 11.9281 284.486 10.3681 284.486C8.83207 284.486 7.59607 285.014 6.66007 286.07Z" fill="white"></path><path d="M543.02 241.498L546.116 258.742H542.408L541.004 250.39C540.692 248.35 540.512 247.054 540.464 246.502H540.356C540.02 247.99 539.66 249.286 539.276 250.39L536.18 258.742H533.084L529.952 250.21C529.4 248.746 529.028 247.51 528.836 246.502H528.728C528.536 247.99 528.368 249.214 528.224 250.174L526.784 258.742H523.112L526.28 241.498H530.312L533.732 250.75C534.02 251.518 534.308 252.55 534.596 253.846H534.704C535.04 252.55 535.34 251.506 535.604 250.714L539.06 241.498H543.02Z" fill="white"></path><path d="M502.55 250.102C502.55 247.462 503.426 245.278 505.178 243.55C506.954 241.798 509.15 240.922 511.766 240.922C514.454 240.922 516.663 241.798 518.391 243.55C520.119 245.278 520.982 247.462 520.982 250.102C520.982 252.67 520.106 254.854 518.354 256.654C516.602 258.454 514.406 259.354 511.766 259.354C509.15 259.354 506.954 258.466 505.178 256.69C503.426 254.914 502.55 252.718 502.55 250.102ZM508.058 246.07C507.122 247.126 506.654 248.47 506.654 250.102C506.654 251.734 507.146 253.09 508.13 254.17C509.138 255.226 510.35 255.754 511.766 255.754C513.278 255.754 514.514 255.226 515.474 254.17C516.434 253.09 516.914 251.734 516.914 250.102C516.914 248.518 516.446 247.186 515.51 246.106C514.574 245.026 513.326 244.486 511.766 244.486C510.23 244.486 508.994 245.014 508.058 246.07Z" fill="white"></path><path d="M485.07 258.742V241.498H489.103V249.13L496.302 241.498H501.018L493.315 249.67L501.234 258.742H496.339L489.103 250.318V258.742H485.07Z" fill="white"></path><path d="M480.402 258.742H454.59V241.498H458.622V255.25H465.498V241.498H469.494V255.25H476.37V241.498H480.402V258.742Z" fill="white"></path><path d="M442.322 240.922C445.106 240.946 447.242 241.858 448.73 243.658C450.242 245.434 450.998 247.534 450.998 249.958C450.998 250.51 450.974 250.906 450.926 251.146H437.606C437.606 252.49 438.11 253.666 439.118 254.674C440.15 255.682 441.362 256.186 442.754 256.186C444.362 256.186 445.646 255.538 446.606 254.242H450.746C450.098 255.73 449.102 256.954 447.758 257.914C446.438 258.874 444.77 259.354 442.754 259.354C440.09 259.354 437.894 258.478 436.166 256.726C434.438 254.95 433.574 252.694 433.574 249.958C433.574 247.438 434.366 245.302 435.95 243.55C437.558 241.798 439.682 240.922 442.322 240.922ZM442.322 243.946C441.002 243.946 439.922 244.366 439.082 245.206C438.242 246.046 437.762 247.054 437.642 248.23H446.966C446.846 247.03 446.354 246.022 445.49 245.206C444.65 244.366 443.594 243.946 442.322 243.946Z" fill="white"></path><path d="M430.075 241.498V258.742H426.043V244.99H418.087V258.742H414.055V241.498H430.075Z" fill="white"></path><path d="M402.335 241.498V244.99H397.655V258.742H393.659V244.99H388.943V241.498H402.335Z" fill="white"></path><path d="M388.686 241.498L379.218 267.202H375.366L378.534 258.67L372.234 241.498H376.374L379.362 250.066C379.986 251.962 380.37 253.282 380.514 254.026H380.622C380.958 252.682 381.342 251.362 381.774 250.066L384.69 241.498H388.686Z" fill="white"></path><path d="M369.923 241.498V258.742H365.891V251.434H357.935V258.742H353.903V241.498H357.935V248.05H365.891V241.498H369.923Z" fill="white"></path><path d="M333.195 258.742V241.498H337.083V248.122C337.083 250.258 337.047 252.022 336.975 253.414H337.047C337.407 252.742 338.199 251.566 339.423 249.886L345.651 241.498H349.216V258.742H345.328V252.154C345.328 250.018 345.363 248.242 345.435 246.826H345.363C344.979 247.522 344.187 248.698 342.987 250.354L336.759 258.742H333.195Z" fill="white"></path><path d="M326.809 241.498L329.905 258.742H326.197L324.793 250.39C324.481 248.35 324.301 247.054 324.253 246.502H324.145C323.809 247.99 323.449 249.286 323.065 250.39L319.969 258.742H316.873L313.741 250.21C313.189 248.746 312.817 247.51 312.625 246.502H312.517C312.325 247.99 312.157 249.214 312.013 250.174L310.573 258.742H306.901L310.069 241.498H314.101L317.521 250.75C317.809 251.518 318.097 252.55 318.385 253.846H318.493C318.829 252.55 319.129 251.506 319.393 250.714L322.849 241.498H326.809Z" fill="white"></path><path d="M284.605 237.898L284.065 243.19C284.785 242.998 285.565 242.902 286.405 242.902C289.045 242.902 291.157 243.634 292.741 245.098C294.325 246.538 295.117 248.494 295.117 250.966C295.117 253.246 294.337 255.25 292.777 256.978C291.241 258.682 289.165 259.534 286.549 259.534C284.053 259.534 282.073 258.862 280.609 257.518C279.145 256.15 278.341 254.458 278.197 252.442H282.553C282.697 253.426 283.105 254.242 283.777 254.89C284.473 255.514 285.433 255.826 286.657 255.826C287.809 255.826 288.781 255.418 289.573 254.602C290.365 253.762 290.761 252.67 290.761 251.326C290.761 249.814 290.305 248.65 289.393 247.834C288.481 246.994 287.149 246.574 285.397 246.574C283.693 246.574 281.785 246.838 279.673 247.366L280.933 234.19H293.425V237.898H284.605Z" fill="white"></path><path d="M260.346 258.742V253.882H265.422V258.742H260.346Z" fill="white"></path><path d="M242.258 251.11H239.774V255.682H242.258C243.146 255.682 243.794 255.466 244.202 255.034C244.634 254.602 244.85 254.05 244.85 253.378C244.85 251.866 243.986 251.11 242.258 251.11ZM239.774 248.05H242.618C244.61 248.05 246.146 248.506 247.226 249.418C248.33 250.33 248.882 251.65 248.882 253.378C248.882 255.01 248.342 256.318 247.262 257.302C246.182 258.262 244.694 258.742 242.798 258.742H235.742V241.498H239.774V248.05ZM251.87 258.742V241.498H255.902V258.742H251.87Z" fill="white"></path><path d="M217.707 258.742V241.498H224.943C226.791 241.498 228.219 241.87 229.227 242.614C230.235 243.334 230.739 244.366 230.739 245.71C230.739 246.55 230.499 247.306 230.019 247.978C229.539 248.626 228.819 249.082 227.859 249.346C229.275 249.61 230.307 250.126 230.955 250.894C231.627 251.662 231.963 252.562 231.963 253.594C231.963 255.154 231.399 256.402 230.271 257.338C229.167 258.274 227.619 258.742 225.627 258.742H217.707ZM224.871 251.11H221.523V255.934H225.231C226.191 255.934 226.899 255.706 227.355 255.25C227.835 254.794 228.075 254.218 228.075 253.522C228.075 251.914 227.007 251.11 224.871 251.11ZM224.259 244.306H221.523V248.374H223.971C225.915 248.374 226.887 247.666 226.887 246.25C226.887 244.954 226.011 244.306 224.259 244.306Z" fill="white"></path><path d="M199.039 258.742V241.498H203.071V249.13L210.271 241.498H214.987L207.283 249.67L215.203 258.742H210.307L203.071 250.318V258.742H199.039Z" fill="white"></path><path d="M187.344 240.922C189.6 240.922 191.412 241.51 192.78 242.686C194.148 243.862 194.988 245.194 195.3 246.682H191.16C190.536 245.122 189.252 244.342 187.308 244.342C185.82 244.342 184.608 244.858 183.672 245.89C182.76 246.922 182.304 248.326 182.304 250.102C182.304 251.758 182.772 253.138 183.708 254.242C184.668 255.346 185.916 255.898 187.452 255.898C189.348 255.898 190.668 255.034 191.412 253.306H195.588C195.06 255.058 194.112 256.51 192.744 257.662C191.4 258.79 189.612 259.354 187.38 259.354C184.74 259.354 182.544 258.502 180.792 256.798C179.04 255.07 178.164 252.826 178.164 250.066C178.164 247.474 179.004 245.302 180.684 243.55C182.364 241.798 184.584 240.922 187.344 240.922Z" fill="white"></path><path d="M157.386 250.102C157.386 247.462 158.262 245.278 160.014 243.55C161.79 241.798 163.986 240.922 166.602 240.922C169.29 240.922 171.498 241.798 173.226 243.55C174.954 245.278 175.818 247.462 175.818 250.102C175.818 252.67 174.942 254.854 173.19 256.654C171.438 258.454 169.242 259.354 166.602 259.354C163.986 259.354 161.79 258.466 160.014 256.69C158.262 254.914 157.386 252.718 157.386 250.102ZM162.894 246.07C161.958 247.126 161.49 248.47 161.49 250.102C161.49 251.734 161.982 253.09 162.966 254.17C163.974 255.226 165.186 255.754 166.602 255.754C168.114 255.754 169.35 255.226 170.31 254.17C171.27 253.09 171.75 251.734 171.75 250.102C171.75 248.518 171.282 247.186 170.346 246.106C169.41 245.026 168.162 244.486 166.602 244.486C165.066 244.486 163.83 245.014 162.894 246.07Z" fill="white"></path><path d="M152.01 234.19L154.89 258.742H150.786L149.49 245.746C149.418 245.05 149.31 243.922 149.166 242.362C149.022 240.802 148.95 239.974 148.95 239.878H148.77C148.17 242.062 147.594 244.03 147.042 245.782L142.974 258.742H139.806L135.702 245.494C134.814 242.782 134.262 240.91 134.046 239.878H133.794C133.722 241.438 133.578 243.298 133.362 245.458L131.994 258.742H128.106L130.95 234.19H135.81L140.13 247.546C140.658 249.202 141.09 250.702 141.426 252.046H141.57C141.762 251.278 142.206 249.778 142.902 247.546L147.186 234.19H152.01Z" fill="white"></path><path d="M107.81 240.922C110.594 240.946 112.73 241.858 114.218 243.658C115.73 245.434 116.486 247.534 116.486 249.958C116.486 250.51 116.462 250.906 116.414 251.146H103.094C103.094 252.49 103.598 253.666 104.606 254.674C105.638 255.682 106.85 256.186 108.242 256.186C109.85 256.186 111.134 255.538 112.094 254.242H116.234C115.586 255.73 114.59 256.954 113.246 257.914C111.926 258.874 110.258 259.354 108.242 259.354C105.578 259.354 103.382 258.478 101.654 256.726C99.9262 254.95 99.0622 252.694 99.0622 249.958C99.0622 247.438 99.8542 245.302 101.438 243.55C103.046 241.798 105.17 240.922 107.81 240.922ZM107.81 243.946C106.49 243.946 105.41 244.366 104.57 245.206C103.73 246.046 103.25 247.054 103.13 248.23H112.454C112.334 247.03 111.842 246.022 110.978 245.206C110.138 244.366 109.082 243.946 107.81 243.946Z" fill="white"></path><path d="M78.5237 267.202V241.498H82.4476V243.694H82.5556C84.1156 241.87 86.0956 240.958 88.4956 240.958C90.7756 240.958 92.7196 241.822 94.3276 243.55C95.9356 245.254 96.7396 247.462 96.7396 250.174C96.7396 252.838 95.9116 255.034 94.2556 256.762C92.6236 258.49 90.6316 259.354 88.2796 259.354C85.9276 259.354 84.0316 258.454 82.5916 256.654H82.4837V267.202H78.5237ZM92.5996 250.138C92.5996 248.578 92.1437 247.246 91.2317 246.142C90.3197 245.038 89.0356 244.486 87.3796 244.486C85.9396 244.486 84.7276 245.014 83.7436 246.07C82.7836 247.126 82.3036 248.506 82.3036 250.21C82.3036 251.842 82.7956 253.198 83.7796 254.278C84.7876 255.334 85.9996 255.862 87.4156 255.862C89.0476 255.862 90.3197 255.298 91.2317 254.17C92.1437 253.018 92.5996 251.674 92.5996 250.138Z" fill="white"></path><path d="M75.8037 241.498V244.99H71.1237V258.742H67.1277V244.99H62.4117V241.498H75.8037Z" fill="white"></path><path d="M59.6687 241.498V258.742H55.6367V251.434H47.6807V258.742H43.6487V241.498H47.6807V248.05H55.6367V241.498H59.6687Z" fill="white"></path><path d="M31.3805 240.922C34.1645 240.946 36.3005 241.858 37.7885 243.658C39.3005 245.434 40.0565 247.534 40.0565 249.958C40.0565 250.51 40.0325 250.906 39.9845 251.146H26.6645C26.6645 252.49 27.1685 253.666 28.1765 254.674C29.2085 255.682 30.4205 256.186 31.8125 256.186C33.4205 256.186 34.7045 255.538 35.6645 254.242H39.8045C39.1565 255.73 38.1605 256.954 36.8165 257.914C35.4965 258.874 33.8285 259.354 31.8125 259.354C29.1485 259.354 26.9525 258.478 25.2245 256.726C23.4965 254.95 22.6325 252.694 22.6325 249.958C22.6325 247.438 23.4245 245.302 25.0085 243.55C26.6165 241.798 28.7405 240.922 31.3805 240.922ZM31.3805 243.946C30.0605 243.946 28.9805 244.366 28.1405 245.206C27.3005 246.046 26.8205 247.054 26.7005 248.23H36.0245C35.9045 247.03 35.4125 246.022 34.5485 245.206C33.7085 244.366 32.6525 243.946 31.3805 243.946Z" fill="white"></path><path d="M18.3601 255.25H20.9521V264.322H16.9201V258.742H2.34006V241.498H6.37206V255.25H14.3281V241.498H18.3601V255.25Z" fill="white"></path><path d="M507.125 201.498L510.221 218.742H506.513L505.109 210.39C504.797 208.35 504.617 207.054 504.569 206.502H504.461C504.125 207.99 503.765 209.286 503.381 210.39L500.285 218.742H497.189L494.057 210.21C493.505 208.746 493.133 207.51 492.941 206.502H492.833C492.641 207.99 492.473 209.214 492.329 210.174L490.889 218.742H487.217L490.385 201.498H494.417L497.837 210.75C498.125 211.518 498.413 212.55 498.701 213.846H498.809C499.145 212.55 499.445 211.506 499.709 210.714L503.165 201.498H507.125Z" fill="white"></path><path d="M466.656 210.102C466.656 207.462 467.532 205.278 469.284 203.55C471.06 201.798 473.256 200.922 475.872 200.922C478.56 200.922 480.768 201.798 482.496 203.55C484.224 205.278 485.088 207.462 485.088 210.102C485.088 212.67 484.212 214.854 482.46 216.654C480.708 218.454 478.512 219.354 475.872 219.354C473.256 219.354 471.06 218.466 469.284 216.69C467.532 214.914 466.656 212.718 466.656 210.102ZM472.164 206.07C471.228 207.126 470.76 208.47 470.76 210.102C470.76 211.734 471.252 213.09 472.236 214.17C473.244 215.226 474.456 215.754 475.872 215.754C477.384 215.754 478.62 215.226 479.58 214.17C480.54 213.09 481.02 211.734 481.02 210.102C481.02 208.518 480.552 207.186 479.616 206.106C478.68 205.026 477.432 204.486 475.872 204.486C474.336 204.486 473.1 205.014 472.164 206.07Z" fill="white"></path><path d="M449.176 218.742V201.498H453.208V209.13L460.408 201.498H465.124L457.42 209.67L465.34 218.742H460.444L453.208 210.318V218.742H449.176Z" fill="white"></path><path d="M437.48 200.922C439.736 200.922 441.548 201.51 442.916 202.686C444.284 203.862 445.124 205.194 445.436 206.682H441.296C440.672 205.122 439.388 204.342 437.444 204.342C435.956 204.342 434.744 204.858 433.808 205.89C432.896 206.922 432.44 208.326 432.44 210.102C432.44 211.758 432.908 213.138 433.844 214.242C434.804 215.346 436.052 215.898 437.588 215.898C439.484 215.898 440.804 215.034 441.548 213.306H445.724C445.196 215.058 444.248 216.51 442.88 217.662C441.536 218.79 439.748 219.354 437.516 219.354C434.876 219.354 432.68 218.502 430.928 216.798C429.176 215.07 428.3 212.826 428.3 210.066C428.3 207.474 429.14 205.302 430.82 203.55C432.5 201.798 434.72 200.922 437.48 200.922Z" fill="white"></path><path d="M417.22 200.922C420.004 200.946 422.14 201.858 423.628 203.658C425.14 205.434 425.896 207.534 425.896 209.958C425.896 210.51 425.872 210.906 425.824 211.146H412.504C412.504 212.49 413.008 213.666 414.016 214.674C415.048 215.682 416.26 216.186 417.652 216.186C419.26 216.186 420.544 215.538 421.504 214.242H425.644C424.996 215.73 424 216.954 422.656 217.914C421.336 218.874 419.668 219.354 417.652 219.354C414.988 219.354 412.792 218.478 411.064 216.726C409.336 214.95 408.472 212.694 408.472 209.958C408.472 207.438 409.264 205.302 410.848 203.55C412.456 201.798 414.58 200.922 417.22 200.922ZM417.22 203.946C415.9 203.946 414.82 204.366 413.98 205.206C413.14 206.046 412.66 207.054 412.54 208.23H421.864C421.744 207.03 421.252 206.022 420.388 205.206C419.548 204.366 418.492 203.946 417.22 203.946Z" fill="white"></path><path d="M404.983 201.498V218.742H400.951V210.498H400.879C399.727 212.322 398.095 213.234 395.983 213.234C394.159 213.234 392.659 212.598 391.483 211.326C390.307 210.03 389.719 208.098 389.719 205.53V201.498H393.751V205.278C393.751 206.67 394.051 207.75 394.651 208.518C395.251 209.262 396.079 209.634 397.135 209.634C398.311 209.634 399.235 209.214 399.907 208.374C400.603 207.534 400.951 206.322 400.951 204.738V201.498H404.983Z" fill="white"></path><path d="M369.336 218.742V201.498H373.224V208.122C373.224 210.258 373.188 212.022 373.116 213.414H373.188C373.548 212.742 374.34 211.566 375.564 209.886L381.792 201.498H385.356V218.742H381.468V212.154C381.468 210.018 381.504 208.242 381.576 206.826H381.504C381.12 207.522 380.328 208.698 379.128 210.354L372.9 218.742H369.336Z" fill="white"></path><path d="M347.61 227.202V201.498H351.534V203.694H351.642C353.202 201.87 355.182 200.958 357.582 200.958C359.862 200.958 361.806 201.822 363.414 203.55C365.022 205.254 365.826 207.462 365.826 210.174C365.826 212.838 364.998 215.034 363.342 216.762C361.71 218.49 359.718 219.354 357.366 219.354C355.014 219.354 353.118 218.454 351.678 216.654H351.57V227.202H347.61ZM361.686 210.138C361.686 208.578 361.23 207.246 360.318 206.142C359.406 205.038 358.122 204.486 356.466 204.486C355.026 204.486 353.814 205.014 352.83 206.07C351.87 207.126 351.39 208.506 351.39 210.21C351.39 211.842 351.882 213.198 352.866 214.278C353.874 215.334 355.086 215.862 356.502 215.862C358.134 215.862 359.406 215.298 360.318 214.17C361.23 213.018 361.686 211.674 361.686 210.138Z" fill="white"></path><path d="M325.644 210.102C325.644 207.462 326.52 205.278 328.272 203.55C330.048 201.798 332.244 200.922 334.86 200.922C337.548 200.922 339.756 201.798 341.484 203.55C343.212 205.278 344.076 207.462 344.076 210.102C344.076 212.67 343.2 214.854 341.448 216.654C339.696 218.454 337.5 219.354 334.86 219.354C332.244 219.354 330.048 218.466 328.272 216.69C326.52 214.914 325.644 212.718 325.644 210.102ZM331.152 206.07C330.216 207.126 329.748 208.47 329.748 210.102C329.748 211.734 330.24 213.09 331.224 214.17C332.232 215.226 333.444 215.754 334.86 215.754C336.372 215.754 337.608 215.226 338.568 214.17C339.528 213.09 340.008 211.734 340.008 210.102C340.008 208.518 339.54 207.186 338.604 206.106C337.668 205.026 336.42 204.486 334.86 204.486C333.324 204.486 332.088 205.014 331.152 206.07Z" fill="white"></path><path d="M324.112 201.498V204.99H319.432V218.742H315.436V204.99H310.72V201.498H324.112Z" fill="white"></path><path d="M300.969 200.922C303.225 200.922 305.037 201.51 306.405 202.686C307.773 203.862 308.613 205.194 308.925 206.682H304.785C304.161 205.122 302.877 204.342 300.933 204.342C299.445 204.342 298.233 204.858 297.297 205.89C296.385 206.922 295.929 208.326 295.929 210.102C295.929 211.758 296.397 213.138 297.333 214.242C298.293 215.346 299.541 215.898 301.077 215.898C302.973 215.898 304.293 215.034 305.037 213.306H309.213C308.685 215.058 307.737 216.51 306.369 217.662C305.025 218.79 303.237 219.354 301.005 219.354C298.365 219.354 296.169 218.502 294.417 216.798C292.665 215.07 291.789 212.826 291.789 210.066C291.789 207.474 292.629 205.302 294.309 203.55C295.989 201.798 298.209 200.922 300.969 200.922Z" fill="white"></path><path d="M272.27 218.742V201.498H276.158V208.122C276.158 210.258 276.122 212.022 276.05 213.414H276.122C276.482 212.742 277.274 211.566 278.498 209.886L284.726 201.498H288.29V218.742H284.402V212.154C284.402 210.018 284.438 208.242 284.51 206.826H284.438C284.054 207.522 283.262 208.698 282.062 210.354L275.834 218.742H272.27Z" fill="white"></path><path d="M245.235 218.742V201.498H252.471C254.319 201.498 255.747 201.87 256.755 202.614C257.763 203.334 258.267 204.366 258.267 205.71C258.267 206.55 258.027 207.306 257.547 207.978C257.067 208.626 256.347 209.082 255.387 209.346C256.803 209.61 257.835 210.126 258.483 210.894C259.155 211.662 259.491 212.562 259.491 213.594C259.491 215.154 258.927 216.402 257.799 217.338C256.695 218.274 255.147 218.742 253.155 218.742H245.235ZM252.399 211.11H249.051V215.934H252.759C253.719 215.934 254.427 215.706 254.883 215.25C255.363 214.794 255.603 214.218 255.603 213.522C255.603 211.914 254.535 211.11 252.399 211.11ZM251.787 204.306H249.051V208.374H251.499C253.443 208.374 254.415 207.666 254.415 206.25C254.415 204.954 253.539 204.306 251.787 204.306Z" fill="white"></path><path d="M214.269 210.102C214.269 207.462 215.145 205.278 216.897 203.55C218.673 201.798 220.869 200.922 223.485 200.922C226.173 200.922 228.381 201.798 230.109 203.55C231.837 205.278 232.701 207.462 232.701 210.102C232.701 212.67 231.825 214.854 230.073 216.654C228.321 218.454 226.125 219.354 223.485 219.354C220.869 219.354 218.673 218.466 216.897 216.69C215.145 214.914 214.269 212.718 214.269 210.102ZM219.777 206.07C218.841 207.126 218.373 208.47 218.373 210.102C218.373 211.734 218.865 213.09 219.849 214.17C220.857 215.226 222.069 215.754 223.485 215.754C224.997 215.754 226.233 215.226 227.193 214.17C228.153 213.09 228.633 211.734 228.633 210.102C228.633 208.518 228.165 207.186 227.229 206.106C226.293 205.026 225.045 204.486 223.485 204.486C221.949 204.486 220.713 205.014 219.777 206.07Z" fill="white"></path><path d="M197.422 218.742V201.498H204.658C206.506 201.498 207.934 201.87 208.942 202.614C209.95 203.334 210.454 204.366 210.454 205.71C210.454 206.55 210.214 207.306 209.734 207.978C209.254 208.626 208.534 209.082 207.574 209.346C208.99 209.61 210.022 210.126 210.67 210.894C211.342 211.662 211.678 212.562 211.678 213.594C211.678 215.154 211.114 216.402 209.986 217.338C208.882 218.274 207.334 218.742 205.342 218.742H197.422ZM204.586 211.11H201.238V215.934H204.946C205.906 215.934 206.614 215.706 207.07 215.25C207.55 214.794 207.79 214.218 207.79 213.522C207.79 211.914 206.722 211.11 204.586 211.11ZM203.974 204.306H201.238V208.374H203.686C205.63 208.374 206.602 207.666 206.602 206.25C206.602 204.954 205.726 204.306 203.974 204.306Z" fill="white"></path><path d="M194.702 201.498V204.99H190.022V218.742H186.026V204.99H181.31V201.498H194.702Z" fill="white"></path><path d="M171.559 200.922C173.815 200.922 175.627 201.51 176.995 202.686C178.363 203.862 179.203 205.194 179.515 206.682H175.375C174.751 205.122 173.467 204.342 171.523 204.342C170.035 204.342 168.823 204.858 167.887 205.89C166.975 206.922 166.519 208.326 166.519 210.102C166.519 211.758 166.987 213.138 167.923 214.242C168.883 215.346 170.131 215.898 171.667 215.898C173.563 215.898 174.883 215.034 175.627 213.306H179.803C179.275 215.058 178.327 216.51 176.959 217.662C175.615 218.79 173.827 219.354 171.595 219.354C168.955 219.354 166.759 218.502 165.007 216.798C163.255 215.07 162.379 212.826 162.379 210.066C162.379 207.474 163.219 205.302 164.899 203.55C166.579 201.798 168.799 200.922 171.559 200.922Z" fill="white"></path><path d="M158.88 201.498V218.742H154.848V211.434H146.892V218.742H142.86V201.498H146.892V208.05H154.848V201.498H158.88Z" fill="white"></path><path d="M138.161 201.498V218.742H134.237V216.546H134.129C132.617 218.418 130.649 219.354 128.225 219.354C126.089 219.354 124.169 218.538 122.465 216.906C120.785 215.25 119.945 212.982 119.945 210.102C119.945 207.414 120.773 205.218 122.429 203.514C124.085 201.81 126.113 200.958 128.513 200.958C130.817 200.958 132.701 201.918 134.165 203.838H134.237V201.498H138.161ZM124.085 210.102C124.085 211.662 124.529 213.006 125.417 214.134C126.329 215.262 127.625 215.826 129.305 215.826C130.673 215.826 131.861 215.298 132.869 214.242C133.901 213.162 134.417 211.818 134.417 210.21C134.417 208.506 133.925 207.114 132.941 206.034C131.981 204.954 130.781 204.414 129.341 204.414C127.661 204.414 126.365 204.978 125.453 206.106C124.541 207.234 124.085 208.566 124.085 210.102Z" fill="white"></path><path d="M99.4065 227.202V201.498H103.33V203.694H103.438C104.998 201.87 106.978 200.958 109.378 200.958C111.658 200.958 113.602 201.822 115.21 203.55C116.818 205.254 117.622 207.462 117.622 210.174C117.622 212.838 116.794 215.034 115.138 216.762C113.506 218.49 111.514 219.354 109.162 219.354C106.81 219.354 104.914 218.454 103.474 216.654H103.366V227.202H99.4065ZM113.482 210.138C113.482 208.578 113.026 207.246 112.114 206.142C111.202 205.038 109.918 204.486 108.262 204.486C106.822 204.486 105.61 205.014 104.626 206.07C103.666 207.126 103.186 208.506 103.186 210.21C103.186 211.842 103.678 213.198 104.662 214.278C105.67 215.334 106.882 215.862 108.298 215.862C109.93 215.862 111.202 215.298 112.114 214.17C113.026 213.018 113.482 211.674 113.482 210.138Z" fill="white"></path><path d="M96.6865 201.498V204.99H92.0065V218.742H88.0105V204.99H83.2945V201.498H96.6865Z" fill="white"></path><path d="M73.543 200.922C75.799 200.922 77.611 201.51 78.979 202.686C80.347 203.862 81.187 205.194 81.499 206.682H77.359C76.735 205.122 75.451 204.342 73.507 204.342C72.019 204.342 70.807 204.858 69.871 205.89C68.959 206.922 68.503 208.326 68.503 210.102C68.503 211.758 68.971 213.138 69.907 214.242C70.867 215.346 72.115 215.898 73.651 215.898C75.547 215.898 76.867 215.034 77.611 213.306H81.787C81.259 215.058 80.311 216.51 78.943 217.662C77.599 218.79 75.811 219.354 73.579 219.354C70.939 219.354 68.743 218.502 66.991 216.798C65.239 215.07 64.363 212.826 64.363 210.066C64.363 207.474 65.203 205.302 66.883 203.55C68.563 201.798 70.783 200.922 73.543 200.922Z" fill="white"></path><path d="M43.5857 210.102C43.5857 207.462 44.4617 205.278 46.2137 203.55C47.9897 201.798 50.1857 200.922 52.8017 200.922C55.4897 200.922 57.6977 201.798 59.4257 203.55C61.1537 205.278 62.0177 207.462 62.0177 210.102C62.0177 212.67 61.1417 214.854 59.3897 216.654C57.6377 218.454 55.4417 219.354 52.8017 219.354C50.1857 219.354 47.9897 218.466 46.2137 216.69C44.4617 214.914 43.5857 212.718 43.5857 210.102ZM49.0937 206.07C48.1577 207.126 47.6897 208.47 47.6897 210.102C47.6897 211.734 48.1817 213.09 49.1657 214.17C50.1737 215.226 51.3857 215.754 52.8017 215.754C54.3137 215.754 55.5497 215.226 56.5097 214.17C57.4697 213.09 57.9497 211.734 57.9497 210.102C57.9497 208.518 57.4817 207.186 56.5457 206.106C55.6097 205.026 54.3617 204.486 52.8017 204.486C51.2657 204.486 50.0297 205.014 49.0937 206.07Z" fill="white"></path><path d="M23.0471 227.202V201.498H26.9711V203.694H27.0791C28.6391 201.87 30.6191 200.958 33.0191 200.958C35.2991 200.958 37.2431 201.822 38.8511 203.55C40.4591 205.254 41.2631 207.462 41.2631 210.174C41.2631 212.838 40.4351 215.034 38.7791 216.762C37.1471 218.49 35.1551 219.354 32.8031 219.354C30.4511 219.354 28.5551 218.454 27.1151 216.654H27.0071V227.202H23.0471ZM37.1231 210.138C37.1231 208.578 36.6671 207.246 35.7551 206.142C34.8431 205.038 33.5591 204.486 31.9031 204.486C30.4631 204.486 29.2511 205.014 28.2671 206.07C27.3071 207.126 26.8271 208.506 26.8271 210.21C26.8271 211.842 27.3191 213.198 28.3031 214.278C29.3111 215.334 30.5231 215.862 31.9391 215.862C33.5711 215.862 34.8431 215.298 35.7551 214.17C36.6671 213.018 37.1231 211.674 37.1231 210.138Z" fill="white"></path><path d="M18.3601 201.498V218.742H14.3281V204.99H6.37206V218.742H2.34006V201.498H18.3601Z" fill="white"></path><path d="M374.152 170.93H362.56V167.546H374.152V170.93Z" fill="white"></path><path d="M359.444 161.498V164.99H354.764V178.742H350.768V164.99H346.052V161.498H359.444Z" fill="white"></path><path d="M328.764 163.226H328.836V152.822H332.796V163.226H332.904C333.96 161.714 335.484 160.958 337.476 160.958C339.42 160.958 341.064 161.774 342.408 163.406C343.752 165.014 344.424 167.27 344.424 170.174C344.424 172.886 343.764 175.094 342.444 176.798C341.148 178.502 339.444 179.354 337.332 179.354C336.372 179.354 335.496 179.15 334.704 178.742C333.936 178.31 333.336 177.758 332.904 177.086H332.796V187.202H328.836V177.05H328.764C327.516 178.586 326.016 179.354 324.264 179.354C322.128 179.354 320.412 178.502 319.116 176.798C317.844 175.094 317.208 172.862 317.208 170.102C317.208 167.414 317.88 165.218 319.224 163.514C320.568 161.81 322.32 160.958 324.48 160.958C325.368 160.958 326.196 161.186 326.964 161.642C327.732 162.074 328.332 162.602 328.764 163.226ZM321.24 170.102C321.24 171.854 321.588 173.27 322.284 174.35C323.004 175.406 323.976 175.934 325.2 175.934C326.256 175.934 327.156 175.43 327.9 174.422C328.644 173.39 329.016 171.986 329.016 170.21C329.016 168.362 328.656 166.934 327.936 165.926C327.24 164.894 326.316 164.378 325.164 164.378C323.964 164.378 323.004 164.918 322.284 165.998C321.588 167.078 321.24 168.446 321.24 170.102ZM340.392 170.138C340.392 168.53 340.068 167.174 339.42 166.07C338.772 164.942 337.8 164.378 336.504 164.378C335.376 164.378 334.452 164.882 333.732 165.89C333.012 166.874 332.652 168.314 332.652 170.21C332.652 171.914 333 173.294 333.696 174.35C334.416 175.406 335.364 175.934 336.54 175.934C337.74 175.934 338.676 175.394 339.348 174.314C340.044 173.234 340.392 171.842 340.392 170.138Z" fill="white"></path><path d="M296.359 170.102C296.359 167.462 297.235 165.278 298.987 163.55C300.763 161.798 302.959 160.922 305.575 160.922C308.263 160.922 310.471 161.798 312.199 163.55C313.927 165.278 314.791 167.462 314.791 170.102C314.791 172.67 313.915 174.854 312.163 176.654C310.411 178.454 308.215 179.354 305.575 179.354C302.959 179.354 300.763 178.466 298.987 176.69C297.235 174.914 296.359 172.718 296.359 170.102ZM301.867 166.07C300.931 167.126 300.463 168.47 300.463 170.102C300.463 171.734 300.955 173.09 301.939 174.17C302.947 175.226 304.159 175.754 305.575 175.754C307.087 175.754 308.323 175.226 309.283 174.17C310.243 173.09 310.723 171.734 310.723 170.102C310.723 168.518 310.255 167.186 309.319 166.106C308.383 165.026 307.135 164.486 305.575 164.486C304.039 164.486 302.803 165.014 301.867 166.07Z" fill="white"></path><path d="M278.098 173.09L279.142 161.498H292.858V178.742H288.862V164.99H282.598L281.806 173.558C281.614 175.526 281.134 176.93 280.366 177.77C279.598 178.586 278.386 178.994 276.73 178.994C276.25 178.994 275.674 178.922 275.002 178.778V175.466C275.386 175.562 275.782 175.61 276.19 175.61C276.814 175.61 277.27 175.406 277.558 174.998C277.846 174.59 278.026 173.954 278.098 173.09Z" fill="white"></path><path d="M263.094 170.93H251.502V167.546H263.094V170.93Z" fill="white"></path><path d="M229.838 160.922C232.622 160.946 234.758 161.858 236.246 163.658C237.758 165.434 238.514 167.534 238.514 169.958C238.514 170.51 238.49 170.906 238.442 171.146H225.122C225.122 172.49 225.626 173.666 226.634 174.674C227.666 175.682 228.878 176.186 230.27 176.186C231.878 176.186 233.162 175.538 234.122 174.242H238.262C237.614 175.73 236.618 176.954 235.274 177.914C233.954 178.874 232.286 179.354 230.27 179.354C227.606 179.354 225.41 178.478 223.682 176.726C221.954 174.95 221.09 172.694 221.09 169.958C221.09 167.438 221.882 165.302 223.466 163.55C225.074 161.798 227.198 160.922 229.838 160.922ZM229.838 163.946C228.518 163.946 227.438 164.366 226.598 165.206C225.758 166.046 225.278 167.054 225.158 168.23H234.482C234.362 167.03 233.87 166.022 233.006 165.206C232.166 164.366 231.11 163.946 229.838 163.946Z" fill="white"></path><path d="M210.582 160.922C212.838 160.922 214.65 161.51 216.018 162.686C217.386 163.862 218.226 165.194 218.538 166.682H214.398C213.774 165.122 212.49 164.342 210.546 164.342C209.058 164.342 207.846 164.858 206.91 165.89C205.998 166.922 205.542 168.326 205.542 170.102C205.542 171.758 206.01 173.138 206.946 174.242C207.906 175.346 209.154 175.898 210.69 175.898C212.586 175.898 213.906 175.034 214.65 173.306H218.826C218.298 175.058 217.35 176.51 215.982 177.662C214.638 178.79 212.85 179.354 210.618 179.354C207.978 179.354 205.782 178.502 204.03 176.798C202.278 175.07 201.402 172.826 201.402 170.066C201.402 167.474 202.242 165.302 203.922 163.55C205.602 161.798 207.822 160.922 210.582 160.922Z" fill="white"></path><path d="M197.891 161.498V178.742H193.967V176.546H193.859C192.347 178.418 190.379 179.354 187.955 179.354C185.819 179.354 183.899 178.538 182.195 176.906C180.515 175.25 179.675 172.982 179.675 170.102C179.675 167.414 180.503 165.218 182.159 163.514C183.815 161.81 185.843 160.958 188.243 160.958C190.547 160.958 192.431 161.918 193.895 163.838H193.967V161.498H197.891ZM183.815 170.102C183.815 171.662 184.259 173.006 185.147 174.134C186.059 175.262 187.355 175.826 189.035 175.826C190.403 175.826 191.591 175.298 192.599 174.242C193.631 173.162 194.147 171.818 194.147 170.21C194.147 168.506 193.655 167.114 192.671 166.034C191.711 164.954 190.511 164.414 189.071 164.414C187.391 164.414 186.095 164.978 185.183 166.106C184.271 167.234 183.815 168.566 183.815 170.102Z" fill="white"></path><path d="M159.173 187.202V161.498H163.097V163.694H163.205C164.765 161.87 166.745 160.958 169.145 160.958C171.425 160.958 173.369 161.822 174.977 163.55C176.585 165.254 177.389 167.462 177.389 170.174C177.389 172.838 176.561 175.034 174.905 176.762C173.273 178.49 171.281 179.354 168.929 179.354C166.577 179.354 164.681 178.454 163.241 176.654H163.133V187.202H159.173ZM173.249 170.138C173.249 168.578 172.793 167.246 171.881 166.142C170.969 165.038 169.685 164.486 168.029 164.486C166.589 164.486 165.377 165.014 164.393 166.07C163.433 167.126 162.953 168.506 162.953 170.21C162.953 171.842 163.445 173.198 164.429 174.278C165.437 175.334 166.649 175.862 168.065 175.862C169.697 175.862 170.969 175.298 171.881 174.17C172.793 173.018 173.249 171.674 173.249 170.138Z" fill="white"></path><path d="M154.608 160.022H150.432C150.312 159.086 149.94 158.342 149.316 157.79C148.716 157.214 147.924 156.926 146.94 156.926C145.956 156.926 145.152 157.214 144.528 157.79C143.928 158.342 143.628 159.074 143.628 159.986C143.628 160.946 143.988 161.714 144.708 162.29C145.452 162.866 146.556 163.394 148.02 163.874C150.564 164.666 152.376 165.734 153.456 167.078C154.56 168.398 155.112 170.03 155.112 171.974C155.112 173.966 154.404 175.73 152.988 177.266C151.596 178.778 149.616 179.534 147.048 179.534C144.72 179.534 142.8 178.898 141.288 177.626C139.776 176.354 138.864 174.518 138.552 172.118H142.872C143.088 173.342 143.544 174.302 144.24 174.998C144.96 175.67 145.908 176.006 147.084 176.006C148.26 176.006 149.184 175.634 149.856 174.89C150.552 174.146 150.9 173.258 150.9 172.226C150.9 171.074 150.528 170.138 149.784 169.418C149.04 168.698 147.828 168.074 146.148 167.546C141.684 166.106 139.452 163.598 139.452 160.022C139.452 158.102 140.16 156.518 141.576 155.27C143.016 154.022 144.816 153.398 146.976 153.398C149.136 153.398 150.9 154.01 152.268 155.234C153.66 156.458 154.44 158.054 154.608 160.022Z" fill="white"></path><path d="M108.379 170.102C108.379 167.462 109.255 165.278 111.007 163.55C112.783 161.798 114.979 160.922 117.595 160.922C120.283 160.922 122.491 161.798 124.219 163.55C125.947 165.278 126.811 167.462 126.811 170.102C126.811 172.67 125.935 174.854 124.183 176.654C122.431 178.454 120.235 179.354 117.595 179.354C114.979 179.354 112.783 178.466 111.007 176.69C109.255 174.914 108.379 172.718 108.379 170.102ZM113.887 166.07C112.951 167.126 112.483 168.47 112.483 170.102C112.483 171.734 112.975 173.09 113.959 174.17C114.967 175.226 116.179 175.754 117.595 175.754C119.107 175.754 120.343 175.226 121.303 174.17C122.263 173.09 122.743 171.734 122.743 170.102C122.743 168.518 122.275 167.186 121.339 166.106C120.403 165.026 119.155 164.486 117.595 164.486C116.059 164.486 114.823 165.014 113.887 166.07Z" fill="white"></path><path d="M107.279 161.066V164.81C106.439 164.69 105.767 164.63 105.263 164.63C103.871 164.63 102.791 165.086 102.023 165.998C101.279 166.91 100.907 168.254 100.907 170.03V178.742H96.8752V161.498H100.835V163.946H100.943C101.375 163.13 102.011 162.434 102.851 161.858C103.715 161.258 104.687 160.958 105.767 160.958C106.343 160.958 106.847 160.994 107.279 161.066Z" fill="white"></path><path d="M83.0158 164.882V161.498H85.1758V155.99H89.2078V161.498H93.4918V164.882H89.2078V172.586C89.2078 173.714 89.3878 174.494 89.7478 174.926C90.1078 175.358 90.7198 175.574 91.5838 175.574C92.1598 175.574 92.8558 175.478 93.6718 175.286V178.562C92.7358 178.826 91.7158 178.958 90.6118 178.958C88.5958 178.958 87.1798 178.43 86.3638 177.374C85.5718 176.294 85.1758 174.782 85.1758 172.838V164.882H83.0158Z" fill="white"></path><path d="M70.8166 164.882V161.498H72.9766V155.99H77.0086V161.498H81.2926V164.882H77.0086V172.586C77.0086 173.714 77.1886 174.494 77.5486 174.926C77.9086 175.358 78.5206 175.574 79.3846 175.574C79.9606 175.574 80.6566 175.478 81.4726 175.286V178.562C80.5366 178.826 79.5166 178.958 78.4126 178.958C76.3966 178.958 74.9806 178.43 74.1646 177.374C73.3726 176.294 72.9766 174.782 72.9766 172.838V164.882H70.8166Z" fill="white"></path><path d="M67.954 161.498V178.742H64.03V176.546H63.922C62.41 178.418 60.442 179.354 58.018 179.354C55.882 179.354 53.962 178.538 52.258 176.906C50.578 175.25 49.738 172.982 49.738 170.102C49.738 167.414 50.566 165.218 52.222 163.514C53.878 161.81 55.906 160.958 58.306 160.958C60.61 160.958 62.494 161.918 63.958 163.838H64.03V161.498H67.954ZM53.878 170.102C53.878 171.662 54.322 173.006 55.21 174.134C56.122 175.262 57.418 175.826 59.098 175.826C60.466 175.826 61.654 175.298 62.662 174.242C63.694 173.162 64.21 171.818 64.21 170.21C64.21 168.506 63.718 167.114 62.734 166.034C61.774 164.954 60.574 164.414 59.134 164.414C57.454 164.414 56.158 164.978 55.246 166.106C54.334 167.234 53.878 168.566 53.878 170.102Z" fill="white"></path><path d="M46.2949 161.498V178.742H42.2989V176.618H42.1909C40.8949 178.418 39.1909 179.318 37.0789 179.318C36.2869 179.318 35.5309 179.186 34.8109 178.922C34.1149 178.658 33.4429 178.25 32.7949 177.698C32.1469 177.146 31.6309 176.354 31.2469 175.322C30.8629 174.29 30.6709 173.078 30.6709 171.686V161.498H34.7029V171.218C34.7029 172.658 35.0149 173.774 35.6389 174.566C36.2869 175.358 37.1509 175.754 38.2309 175.754C39.4789 175.754 40.4629 175.322 41.1829 174.458C41.9029 173.57 42.2629 172.31 42.2629 170.678V161.498H46.2949Z" fill="white"></path><path d="M23.4001 182.558L19.9081 178.274C18.1081 179.114 16.2241 179.534 14.2561 179.534C12.1201 179.534 10.1881 179.15 8.46006 178.382C6.75606 177.59 5.38806 176.558 4.35606 175.286C3.32406 173.99 2.54406 172.598 2.01606 171.11C1.48806 169.598 1.22406 168.05 1.22406 166.466C1.22406 162.89 2.46006 159.818 4.93206 157.25C7.42806 154.682 10.5481 153.398 14.2921 153.398C18.1801 153.398 21.3121 154.682 23.6881 157.25C26.0641 159.818 27.2521 162.89 27.2521 166.466C27.2521 170.378 25.8481 173.606 23.0401 176.15L26.3161 180.182L23.4001 182.558ZM8.06406 159.878C6.40806 161.63 5.58006 163.826 5.58006 166.466C5.58006 169.106 6.40806 171.314 8.06406 173.09C9.72006 174.842 11.7721 175.718 14.2201 175.718C15.3001 175.718 16.3441 175.514 17.3521 175.106L14.1481 171.146L17.0641 168.77L20.4481 172.982C22.0801 171.23 22.8961 169.058 22.8961 166.466C22.8961 163.826 22.0921 161.63 20.4841 159.878C18.8761 158.102 16.8001 157.214 14.2561 157.214C11.8081 157.214 9.74406 158.102 8.06406 159.878Z" fill="white"></path><path d="M136.892 135.782H136.268L134.364 138.742H132.396L134.572 135.606C134.071 135.468 133.671 135.212 133.372 134.838C133.084 134.465 132.94 134.006 132.94 133.462C132.94 132.737 133.18 132.161 133.66 131.734C134.151 131.297 134.833 131.078 135.708 131.078H138.684V138.742H136.892V135.782ZM135.884 134.518H136.892V132.422H135.884C135.5 132.422 135.212 132.524 135.02 132.726C134.828 132.918 134.732 133.164 134.732 133.462C134.732 134.166 135.116 134.518 135.884 134.518Z" fill="white"></path><path d="M124.009 138.742V131.078H125.737V134.022C125.737 134.972 125.721 135.756 125.689 136.374H125.721C125.881 136.076 126.233 135.553 126.777 134.806L129.545 131.078H131.129V138.742H129.401V135.814C129.401 134.865 129.417 134.076 129.449 133.446H129.417C129.246 133.756 128.894 134.278 128.361 135.014L125.593 138.742H124.009Z" fill="white"></path><path d="M121.926 131.078V138.742H120.134V135.494H116.598V138.742H114.806V131.078H116.598V133.99H120.134V131.078H121.926Z" fill="white"></path><path d="M109.353 130.822C110.591 130.833 111.54 131.238 112.201 132.038C112.873 132.828 113.209 133.761 113.209 134.838C113.209 135.084 113.199 135.26 113.177 135.366H107.257C107.257 135.964 107.481 136.486 107.929 136.934C108.388 137.382 108.927 137.606 109.545 137.606C110.26 137.606 110.831 137.318 111.257 136.742H113.097C112.809 137.404 112.367 137.948 111.769 138.374C111.183 138.801 110.441 139.014 109.545 139.014C108.361 139.014 107.385 138.625 106.617 137.846C105.849 137.057 105.465 136.054 105.465 134.838C105.465 133.718 105.817 132.769 106.521 131.99C107.236 131.212 108.18 130.822 109.353 130.822ZM109.353 132.166C108.767 132.166 108.287 132.353 107.913 132.726C107.54 133.1 107.327 133.548 107.273 134.07H111.417C111.364 133.537 111.145 133.089 110.761 132.726C110.388 132.353 109.919 132.166 109.353 132.166Z" fill="white"></path><path d="M95.3651 141.222V137.19H95.5411C96.5864 137.19 97.2104 136.102 97.4131 133.926L97.6851 131.078H103.557V137.19H104.709V141.222H102.949V138.742H97.1251V141.222H95.3651ZM101.765 137.19V132.63H99.1891L99.0451 134.07C98.9597 134.956 98.8477 135.622 98.7091 136.07C98.5704 136.518 98.3677 136.892 98.1011 137.19H101.765Z" fill="white"></path><path d="M90.7126 130.822C91.9499 130.833 92.8992 131.238 93.5606 132.038C94.2326 132.828 94.5686 133.761 94.5686 134.838C94.5686 135.084 94.5579 135.26 94.5366 135.366H88.6166C88.6166 135.964 88.8406 136.486 89.2886 136.934C89.7472 137.382 90.2859 137.606 90.9046 137.606C91.6192 137.606 92.1899 137.318 92.6166 136.742H94.4566C94.1686 137.404 93.7259 137.948 93.1286 138.374C92.5419 138.801 91.8006 139.014 90.9046 139.014C89.7206 139.014 88.7446 138.625 87.9766 137.846C87.2086 137.057 86.8246 136.054 86.8246 134.838C86.8246 133.718 87.1766 132.769 87.8806 131.99C88.5952 131.212 89.5392 130.822 90.7126 130.822ZM90.7126 132.166C90.1259 132.166 89.6459 132.353 89.2726 132.726C88.8992 133.1 88.6859 133.548 88.6326 134.07H92.7766C92.7232 133.537 92.5046 133.089 92.1206 132.726C91.7472 132.353 91.2779 132.166 90.7126 132.166Z" fill="white"></path><path d="M79.3369 138.742V131.078H82.5529C83.3743 131.078 84.0089 131.244 84.4569 131.574C84.9049 131.894 85.1289 132.353 85.1289 132.95C85.1289 133.324 85.0223 133.66 84.8089 133.958C84.5956 134.246 84.2756 134.449 83.8489 134.566C84.4783 134.684 84.9369 134.913 85.2249 135.254C85.5236 135.596 85.6729 135.996 85.6729 136.454C85.6729 137.148 85.4223 137.702 84.9209 138.118C84.4303 138.534 83.7423 138.742 82.8569 138.742H79.3369ZM82.5209 135.35H81.0329V137.494H82.6809C83.1076 137.494 83.4223 137.393 83.6249 137.19C83.8383 136.988 83.9449 136.732 83.9449 136.422C83.9449 135.708 83.4703 135.35 82.5209 135.35ZM82.2489 132.326H81.0329V134.134H82.1209C82.9849 134.134 83.4169 133.82 83.4169 133.19C83.4169 132.614 83.0276 132.326 82.2489 132.326Z" fill="white"></path><path d="M69.5746 134.902C69.5746 133.729 69.9639 132.758 70.7426 131.99C71.5319 131.212 72.5079 130.822 73.6706 130.822C74.8652 130.822 75.8466 131.212 76.6146 131.99C77.3826 132.758 77.7666 133.729 77.7666 134.902C77.7666 136.044 77.3772 137.014 76.5986 137.814C75.8199 138.614 74.8439 139.014 73.6706 139.014C72.5079 139.014 71.5319 138.62 70.7426 137.83C69.9639 137.041 69.5746 136.065 69.5746 134.902ZM72.0226 133.11C71.6066 133.58 71.3986 134.177 71.3986 134.902C71.3986 135.628 71.6172 136.23 72.0546 136.71C72.5026 137.18 73.0412 137.414 73.6706 137.414C74.3426 137.414 74.8919 137.18 75.3186 136.71C75.7452 136.23 75.9586 135.628 75.9586 134.902C75.9586 134.198 75.7506 133.606 75.3346 133.126C74.9186 132.646 74.3639 132.406 73.6706 132.406C72.9879 132.406 72.4386 132.641 72.0226 133.11Z" fill="white"></path><path d="M60.4463 142.502V131.078H62.1903V132.054H62.2383C62.9317 131.244 63.8117 130.838 64.8783 130.838C65.8917 130.838 66.7557 131.222 67.4703 131.99C68.185 132.748 68.5423 133.729 68.5423 134.934C68.5423 136.118 68.1743 137.094 67.4383 137.862C66.713 138.63 65.8277 139.014 64.7823 139.014C63.737 139.014 62.8943 138.614 62.2543 137.814H62.2063V142.502H60.4463ZM66.7023 134.918C66.7023 134.225 66.4997 133.633 66.0943 133.142C65.689 132.652 65.1183 132.406 64.3823 132.406C63.7423 132.406 63.2037 132.641 62.7663 133.11C62.3397 133.58 62.1263 134.193 62.1263 134.95C62.1263 135.676 62.345 136.278 62.7823 136.758C63.2303 137.228 63.769 137.462 64.3983 137.462C65.1236 137.462 65.689 137.212 66.0943 136.71C66.4997 136.198 66.7023 135.601 66.7023 134.918Z" fill="white"></path><path d="M58.3632 131.078V138.742H56.5712V132.63H53.0352V138.742H51.2432V131.078H58.3632Z" fill="white"></path><path d="M37.4808 134.902C37.4808 133.729 37.8701 132.758 38.6488 131.99C39.4381 131.212 40.4141 130.822 41.5768 130.822C42.7715 130.822 43.7528 131.212 44.5208 131.99C45.2888 132.758 45.6728 133.729 45.6728 134.902C45.6728 136.044 45.2835 137.014 44.5048 137.814C43.7261 138.614 42.7501 139.014 41.5768 139.014C40.4141 139.014 39.4381 138.62 38.6488 137.83C37.8701 137.041 37.4808 136.065 37.4808 134.902ZM39.9288 133.11C39.5128 133.58 39.3048 134.177 39.3048 134.902C39.3048 135.628 39.5235 136.23 39.9608 136.71C40.4088 137.18 40.9475 137.414 41.5768 137.414C42.2488 137.414 42.7981 137.18 43.2248 136.71C43.6515 136.23 43.8648 135.628 43.8648 134.902C43.8648 134.198 43.6568 133.606 43.2408 133.126C42.8248 132.646 42.2701 132.406 41.5768 132.406C40.8941 132.406 40.3448 132.641 39.9288 133.11Z" fill="white"></path><path d="M36.7999 131.078V132.63H34.7199V138.742H32.9439V132.63H30.8479V131.078H36.7999Z" fill="white"></path><path d="M26.5139 130.822C27.5166 130.822 28.3219 131.084 28.9299 131.606C29.5379 132.129 29.9113 132.721 30.0499 133.382H28.2099C27.9326 132.689 27.3619 132.342 26.4979 132.342C25.8366 132.342 25.2979 132.572 24.8819 133.03C24.4766 133.489 24.2739 134.113 24.2739 134.902C24.2739 135.638 24.4819 136.252 24.8979 136.742C25.3246 137.233 25.8793 137.478 26.5619 137.478C27.4046 137.478 27.9913 137.094 28.3219 136.326H30.1779C29.9433 137.105 29.5219 137.75 28.9139 138.262C28.3166 138.764 27.5219 139.014 26.5299 139.014C25.3566 139.014 24.3806 138.636 23.6019 137.878C22.8233 137.11 22.4339 136.113 22.4339 134.886C22.4339 133.734 22.8073 132.769 23.5539 131.99C24.3006 131.212 25.2873 130.822 26.5139 130.822Z" fill="white"></path><path d="M17.5094 130.822C18.7468 130.833 19.6961 131.238 20.3574 132.038C21.0294 132.828 21.3654 133.761 21.3654 134.838C21.3654 135.084 21.3548 135.26 21.3334 135.366H15.4134C15.4134 135.964 15.6374 136.486 16.0854 136.934C16.5441 137.382 17.0828 137.606 17.7014 137.606C18.4161 137.606 18.9868 137.318 19.4134 136.742H21.2534C20.9654 137.404 20.5228 137.948 19.9254 138.374C19.3388 138.801 18.5974 139.014 17.7014 139.014C16.5174 139.014 15.5414 138.625 14.7734 137.846C14.0054 137.057 13.6214 136.054 13.6214 134.838C13.6214 133.718 13.9734 132.769 14.6774 131.99C15.3921 131.212 16.3361 130.822 17.5094 130.822ZM17.5094 132.166C16.9228 132.166 16.4428 132.353 16.0694 132.726C15.6961 133.1 15.4828 133.548 15.4294 134.07H19.5734C19.5201 133.537 19.3014 133.089 18.9174 132.726C18.5441 132.353 18.0748 132.166 17.5094 132.166Z" fill="white"></path><path d="M11.2321 127.83L12.5121 138.742H10.6881L10.1121 132.966C10.0801 132.657 10.0321 132.156 9.96806 131.462C9.90406 130.769 9.87206 130.401 9.87206 130.358H9.79206C9.5254 131.329 9.2694 132.204 9.02406 132.982L7.21606 138.742H5.80806L3.98406 132.854C3.5894 131.649 3.34406 130.817 3.24806 130.358H3.13606C3.10406 131.052 3.04006 131.878 2.94406 132.838L2.33606 138.742H0.608063L1.87206 127.83H4.03206L5.95206 133.766C6.18673 134.502 6.37873 135.169 6.52806 135.766H6.59206C6.6774 135.425 6.87473 134.758 7.18406 133.766L9.08806 127.83H11.2321Z" fill="white"></path><path d="M515.946 487.322C515.946 485.066 516.21 483.074 516.738 481.346C517.29 479.618 518.01 478.274 518.898 477.314C519.81 476.33 520.782 475.598 521.814 475.118C522.87 474.638 523.974 474.398 525.126 474.398C526.23 474.398 527.274 474.614 528.258 475.046C529.266 475.478 530.214 476.162 531.102 477.098C531.99 478.034 532.698 479.366 533.226 481.094C533.754 482.822 534.018 484.862 534.018 487.214C534.018 489.278 533.814 491.126 533.406 492.758C532.998 494.366 532.482 495.65 531.858 496.61C531.234 497.546 530.502 498.326 529.662 498.95C528.846 499.574 528.054 499.994 527.286 500.21C526.542 500.426 525.786 500.534 525.018 500.534C523.89 500.534 522.822 500.318 521.814 499.886C520.83 499.454 519.87 498.77 518.934 497.834C518.022 496.874 517.29 495.494 516.738 493.694C516.21 491.894 515.946 489.77 515.946 487.322ZM529.806 487.322C529.806 484.25 529.386 481.934 528.546 480.374C527.706 478.814 526.53 478.034 525.018 478.034C523.626 478.034 522.474 478.79 521.562 480.302C520.674 481.79 520.23 484.094 520.23 487.214C520.23 493.67 521.85 496.898 525.09 496.898C526.434 496.898 527.55 496.13 528.438 494.594C529.35 493.034 529.806 490.61 529.806 487.322Z" fill="white"></path><path d="M496.926 499.742V496.43L504.522 487.97C505.674 486.674 506.55 485.51 507.15 484.478C507.774 483.446 508.086 482.414 508.086 481.382C508.086 480.422 507.774 479.63 507.15 479.006C506.55 478.358 505.722 478.034 504.666 478.034C503.634 478.034 502.794 478.394 502.146 479.114C501.498 479.834 501.174 480.782 501.174 481.958H496.926C496.974 479.75 497.694 477.938 499.086 476.522C500.478 475.106 502.374 474.398 504.774 474.398C507.126 474.398 508.974 475.046 510.318 476.342C511.686 477.614 512.37 479.222 512.37 481.166C512.37 482.702 511.962 484.166 511.146 485.558C510.354 486.926 509.082 488.558 507.33 490.454L502.146 496.034H512.766V499.742H496.926Z" fill="white"></path><path d="M475.906 481.922C478.162 481.922 479.974 482.51 481.342 483.686C482.71 484.862 483.55 486.194 483.862 487.682H479.722C479.098 486.122 477.814 485.342 475.87 485.342C474.382 485.342 473.17 485.858 472.234 486.89C471.322 487.922 470.866 489.326 470.866 491.102C470.866 492.758 471.334 494.138 472.27 495.242C473.23 496.346 474.478 496.898 476.014 496.898C477.91 496.898 479.23 496.034 479.974 494.306H484.15C483.622 496.058 482.674 497.51 481.306 498.662C479.962 499.79 478.174 500.354 475.942 500.354C473.302 500.354 471.106 499.502 469.354 497.798C467.602 496.07 466.726 493.826 466.726 491.066C466.726 488.474 467.566 486.302 469.246 484.55C470.926 482.798 473.146 481.922 475.906 481.922Z" fill="white"></path><path d="M449.451 499.742V494.882H454.527V497.186C454.527 499.826 453.795 502.298 452.331 504.602H449.847C450.711 503.186 451.251 501.566 451.467 499.742H449.451Z" fill="white"></path><path d="M433.779 481.166H429.675C429.771 479.246 430.491 477.638 431.835 476.342C433.203 475.046 435.051 474.398 437.379 474.398C439.659 474.398 441.483 474.998 442.851 476.198C444.219 477.398 444.903 478.922 444.903 480.77C444.903 482.138 444.483 483.314 443.643 484.298C442.827 485.258 441.831 485.906 440.655 486.242V486.314C442.191 486.626 443.415 487.346 444.327 488.474C445.263 489.602 445.731 491.03 445.731 492.758C445.731 494.918 444.987 496.754 443.499 498.266C442.035 499.754 439.971 500.498 437.307 500.498C434.739 500.498 432.747 499.826 431.331 498.482C429.915 497.138 429.135 495.374 428.991 493.19H433.131C433.275 494.342 433.719 495.266 434.463 495.962C435.207 496.658 436.191 497.006 437.415 497.006C438.615 497.006 439.599 496.598 440.367 495.782C441.135 494.942 441.519 493.898 441.519 492.65C441.519 491.378 441.099 490.346 440.259 489.554C439.419 488.738 438.171 488.33 436.515 488.33H435.075V484.874H436.515C437.763 484.874 438.759 484.538 439.503 483.866C440.247 483.194 440.619 482.282 440.619 481.13C440.619 480.266 440.331 479.522 439.755 478.898C439.203 478.25 438.387 477.926 437.307 477.926C436.179 477.926 435.327 478.238 434.751 478.862C434.175 479.486 433.851 480.254 433.779 481.166Z" fill="white"></path><path d="M414.759 499.742V478.898H411.267V475.19H418.863V499.742H414.759Z" fill="white"></path><path d="M390.248 499.742V494.882H395.324V497.186C395.324 499.826 394.592 502.298 393.128 504.602H390.644C391.508 503.186 392.048 501.566 392.264 499.742H390.248Z" fill="white"></path><path d="M381.8 493.082H380.396L376.112 499.742H371.684L376.58 492.686C375.452 492.374 374.552 491.798 373.88 490.958C373.232 490.118 372.908 489.086 372.908 487.862C372.908 486.23 373.448 484.934 374.528 483.974C375.632 482.99 377.168 482.498 379.136 482.498H385.832V499.742H381.8V493.082ZM379.532 490.238H381.8V485.522H379.532C378.668 485.522 378.02 485.75 377.588 486.206C377.156 486.638 376.94 487.19 376.94 487.862C376.94 489.446 377.804 490.238 379.532 490.238Z" fill="white"></path><path d="M368.821 482.498V499.742H364.897V497.546H364.789C363.277 499.418 361.309 500.354 358.885 500.354C356.749 500.354 354.829 499.538 353.125 497.906C351.445 496.25 350.605 493.982 350.605 491.102C350.605 488.414 351.433 486.218 353.089 484.514C354.745 482.81 356.773 481.958 359.173 481.958C361.477 481.958 363.361 482.918 364.825 484.838H364.897V482.498H368.821ZM354.745 491.102C354.745 492.662 355.189 494.006 356.077 495.134C356.989 496.262 358.285 496.826 359.965 496.826C361.333 496.826 362.521 496.298 363.529 495.242C364.561 494.162 365.077 492.818 365.077 491.21C365.077 489.506 364.585 488.114 363.601 487.034C362.641 485.954 361.441 485.414 360.001 485.414C358.321 485.414 357.025 485.978 356.113 487.106C355.201 488.234 354.745 489.566 354.745 491.102Z" fill="white"></path><path d="M333.125 499.742V482.498H337.157V490.13L344.357 482.498H349.073L341.369 490.67L349.289 499.742H344.393L337.157 491.318V499.742H333.125Z" fill="white"></path><path d="M327.665 496.25H330.257V505.322H326.225V499.742H311.645V482.498H315.677V496.25H323.633V482.498H327.665V496.25Z" fill="white"></path><path d="M290.938 499.742V482.498H294.826V489.122C294.826 491.258 294.79 493.022 294.718 494.414H294.79C295.15 493.742 295.942 492.566 297.166 490.886L303.394 482.498H306.958V499.742H303.07V493.154C303.07 491.018 303.106 489.242 303.178 487.826H303.106C302.722 488.522 301.93 489.698 300.73 491.354L294.502 499.742H290.938Z" fill="white"></path><path d="M286.251 482.498V499.742H282.219V492.434H274.263V499.742H270.231V482.498H274.263V489.05H282.219V482.498H286.251Z" fill="white"></path><path d="M258.535 481.922C260.791 481.922 262.603 482.51 263.971 483.686C265.339 484.862 266.179 486.194 266.491 487.682H262.351C261.727 486.122 260.443 485.342 258.499 485.342C257.011 485.342 255.799 485.858 254.863 486.89C253.951 487.922 253.495 489.326 253.495 491.102C253.495 492.758 253.963 494.138 254.899 495.242C255.859 496.346 257.107 496.898 258.643 496.898C260.539 496.898 261.859 496.034 262.603 494.306H266.779C266.251 496.058 265.303 497.51 263.935 498.662C262.591 499.79 260.803 500.354 258.571 500.354C255.931 500.354 253.735 499.502 251.983 497.798C250.231 496.07 249.355 493.826 249.355 491.066C249.355 488.474 250.195 486.302 251.875 484.55C253.555 482.798 255.775 481.922 258.535 481.922Z" fill="white"></path><path d="M241.843 493.082H240.439L236.155 499.742H231.727L236.623 492.686C235.495 492.374 234.595 491.798 233.923 490.958C233.275 490.118 232.951 489.086 232.951 487.862C232.951 486.23 233.491 484.934 234.571 483.974C235.675 482.99 237.211 482.498 239.179 482.498H245.875V499.742H241.843V493.082ZM239.575 490.238H241.843V485.522H239.575C238.711 485.522 238.063 485.75 237.631 486.206C237.199 486.638 236.983 487.19 236.983 487.862C236.983 489.446 237.847 490.238 239.575 490.238Z" fill="white"></path><path d="M226.999 475.19L229.879 499.742H225.775L224.479 486.746C224.407 486.05 224.299 484.922 224.155 483.362C224.011 481.802 223.939 480.974 223.939 480.878H223.759C223.159 483.062 222.583 485.03 222.031 486.782L217.963 499.742H214.795L210.691 486.494C209.803 483.782 209.251 481.91 209.035 480.878H208.783C208.711 482.438 208.567 484.298 208.351 486.458L206.983 499.742H203.095L205.939 475.19H210.799L215.119 488.546C215.647 490.202 216.079 491.702 216.415 493.046H216.559C216.751 492.278 217.195 490.778 217.891 488.546L222.175 475.19H226.999Z" fill="white"></path><path d="M185.604 499.742V494.882H190.68V499.742H185.604Z" fill="white"></path><path d="M166.407 494.09L167.451 482.498H181.167V499.742H177.171V485.99H170.907L170.115 494.558C169.923 496.526 169.443 497.93 168.675 498.77C167.907 499.586 166.695 499.994 165.039 499.994C164.559 499.994 163.983 499.922 163.311 499.778V496.466C163.695 496.562 164.091 496.61 164.499 496.61C165.123 496.61 165.579 496.406 165.867 495.998C166.155 495.59 166.335 494.954 166.407 494.09Z" fill="white"></path><path d="M163.018 482.498L153.55 508.202H149.698L152.866 499.67L146.566 482.498H150.706L153.694 491.066C154.318 492.962 154.702 494.282 154.846 495.026H154.954C155.29 493.682 155.674 492.362 156.106 491.066L159.022 482.498H163.018Z" fill="white"></path><path d="M130.479 499.742V494.882H135.555V497.186C135.555 499.826 134.823 502.298 133.359 504.602H130.875C131.739 503.186 132.279 501.566 132.495 499.742H130.479Z" fill="white"></path><path d="M126.032 482.498V499.742H122.108V497.546H122C120.488 499.418 118.52 500.354 116.096 500.354C113.96 500.354 112.04 499.538 110.336 497.906C108.656 496.25 107.816 493.982 107.816 491.102C107.816 488.414 108.644 486.218 110.3 484.514C111.956 482.81 113.984 481.958 116.384 481.958C118.688 481.958 120.572 482.918 122.036 484.838H122.108V482.498H126.032ZM111.956 491.102C111.956 492.662 112.4 494.006 113.288 495.134C114.2 496.262 115.496 496.826 117.176 496.826C118.544 496.826 119.732 496.298 120.74 495.242C121.772 494.162 122.288 492.818 122.288 491.21C122.288 489.506 121.796 488.114 120.812 487.034C119.852 485.954 118.652 485.414 117.212 485.414C115.532 485.414 114.236 485.978 113.324 487.106C112.412 488.234 111.956 489.566 111.956 491.102Z" fill="white"></path><path d="M90.969 499.742V482.498H98.205C100.053 482.498 101.481 482.87 102.489 483.614C103.497 484.334 104.001 485.366 104.001 486.71C104.001 487.55 103.761 488.306 103.281 488.978C102.801 489.626 102.081 490.082 101.121 490.346C102.537 490.61 103.569 491.126 104.217 491.894C104.889 492.662 105.225 493.562 105.225 494.594C105.225 496.154 104.661 497.402 103.533 498.338C102.429 499.274 100.881 499.742 98.889 499.742H90.969ZM98.133 492.11H94.785V496.934H98.493C99.453 496.934 100.161 496.706 100.617 496.25C101.097 495.794 101.337 495.218 101.337 494.522C101.337 492.914 100.269 492.11 98.133 492.11ZM97.521 485.306H94.785V489.374H97.233C99.177 489.374 100.149 488.666 100.149 487.25C100.149 485.954 99.273 485.306 97.521 485.306Z" fill="white"></path><path d="M72.301 499.742V482.498H76.333V490.13L83.533 482.498H88.249L80.545 490.67L88.465 499.742H83.569L76.333 491.318V499.742H72.301Z" fill="white"></path><path d="M60.6055 481.922C62.8615 481.922 64.6735 482.51 66.0415 483.686C67.4095 484.862 68.2495 486.194 68.5615 487.682H64.4215C63.7975 486.122 62.5135 485.342 60.5695 485.342C59.0815 485.342 57.8695 485.858 56.9335 486.89C56.0215 487.922 55.5655 489.326 55.5655 491.102C55.5655 492.758 56.0335 494.138 56.9695 495.242C57.9295 496.346 59.1775 496.898 60.7135 496.898C62.6095 496.898 63.9295 496.034 64.6735 494.306H68.8495C68.3215 496.058 67.3735 497.51 66.0055 498.662C64.6615 499.79 62.8735 500.354 60.6415 500.354C58.0015 500.354 55.8055 499.502 54.0535 497.798C52.3015 496.07 51.4255 493.826 51.4255 491.066C51.4255 488.474 52.2655 486.302 53.9455 484.55C55.6255 482.798 57.8455 481.922 60.6055 481.922Z" fill="white"></path><path d="M30.6482 491.102C30.6482 488.462 31.5242 486.278 33.2762 484.55C35.0522 482.798 37.2482 481.922 39.8642 481.922C42.5522 481.922 44.7602 482.798 46.4882 484.55C48.2162 486.278 49.0802 488.462 49.0802 491.102C49.0802 493.67 48.2042 495.854 46.4522 497.654C44.7002 499.454 42.5042 500.354 39.8642 500.354C37.2482 500.354 35.0522 499.466 33.2762 497.69C31.5242 495.914 30.6482 493.718 30.6482 491.102ZM36.1562 487.07C35.2202 488.126 34.7522 489.47 34.7522 491.102C34.7522 492.734 35.2442 494.09 36.2282 495.17C37.2362 496.226 38.4482 496.754 39.8642 496.754C41.3762 496.754 42.6122 496.226 43.5722 495.17C44.5322 494.09 45.0122 492.734 45.0122 491.102C45.0122 489.518 44.5442 488.186 43.6082 487.106C42.6722 486.026 41.4242 485.486 39.8642 485.486C38.3282 485.486 37.0922 486.014 36.1562 487.07Z" fill="white"></path><path d="M25.2721 475.19L28.1521 499.742H24.0481L22.7521 486.746C22.6801 486.05 22.5721 484.922 22.4281 483.362C22.2841 481.802 22.2121 480.974 22.2121 480.878H22.0321C21.4321 483.062 20.8561 485.03 20.3041 486.782L16.2361 499.742H13.0681L8.96407 486.494C8.07607 483.782 7.52407 481.91 7.30807 480.878H7.05607C6.98407 482.438 6.84007 484.298 6.62407 486.458L5.25607 499.742H1.36807L4.21207 475.19H9.07207L13.3921 488.546C13.9201 490.202 14.3521 491.702 14.6881 493.046H14.8321C15.0241 492.278 15.4681 490.778 16.1641 488.546L20.4481 475.19H25.2721Z" fill="white"></path><path d="M43.3264 451.822C44.3291 451.822 45.1344 452.084 45.7424 452.606C46.3504 453.129 46.7238 453.721 46.8624 454.382H45.0224C44.7451 453.689 44.1744 453.342 43.3104 453.342C42.6491 453.342 42.1104 453.572 41.6944 454.03C41.2891 454.489 41.0864 455.113 41.0864 455.902C41.0864 456.638 41.2944 457.252 41.7104 457.742C42.1371 458.233 42.6918 458.478 43.3744 458.478C44.2171 458.478 44.8038 458.094 45.1344 457.326H46.9904C46.7558 458.105 46.3344 458.75 45.7264 459.262C45.1291 459.764 44.3344 460.014 43.3424 460.014C42.1691 460.014 41.1931 459.636 40.4144 458.878C39.6358 458.11 39.2464 457.113 39.2464 455.886C39.2464 454.734 39.6198 453.769 40.3664 452.99C41.1131 452.212 42.0998 451.822 43.3264 451.822Z" fill="white"></path><path d="M34.3219 451.822C35.5593 451.833 36.5086 452.238 37.1699 453.038C37.8419 453.828 38.1779 454.761 38.1779 455.838C38.1779 456.084 38.1673 456.26 38.1459 456.366H32.2259C32.2259 456.964 32.4499 457.486 32.8979 457.934C33.3566 458.382 33.8953 458.606 34.5139 458.606C35.2286 458.606 35.7993 458.318 36.2259 457.742H38.0659C37.7779 458.404 37.3353 458.948 36.7379 459.374C36.1513 459.801 35.4099 460.014 34.5139 460.014C33.3299 460.014 32.3539 459.625 31.5859 458.846C30.8179 458.057 30.4339 457.054 30.4339 455.838C30.4339 454.718 30.7859 453.769 31.4899 452.99C32.2046 452.212 33.1486 451.822 34.3219 451.822ZM34.3219 453.166C33.7353 453.166 33.2553 453.353 32.8819 453.726C32.5086 454.1 32.2953 454.548 32.2419 455.07H36.3859C36.3326 454.537 36.1139 454.089 35.7299 453.726C35.3566 453.353 34.8873 453.166 34.3219 453.166Z" fill="white"></path><path d="M21.3057 463.502V452.078H23.0497V453.054H23.0977C23.791 452.244 24.671 451.838 25.7377 451.838C26.751 451.838 27.615 452.222 28.3297 452.99C29.0444 453.748 29.4017 454.729 29.4017 455.934C29.4017 457.118 29.0337 458.094 28.2977 458.862C27.5724 459.63 26.687 460.014 25.6417 460.014C24.5964 460.014 23.7537 459.614 23.1137 458.814H23.0657V463.502H21.3057ZM27.5617 455.918C27.5617 455.225 27.359 454.633 26.9537 454.142C26.5484 453.652 25.9777 453.406 25.2417 453.406C24.6017 453.406 24.063 453.641 23.6257 454.11C23.199 454.58 22.9857 455.193 22.9857 455.95C22.9857 456.676 23.2044 457.278 23.6417 457.758C24.0897 458.228 24.6284 458.462 25.2577 458.462C25.983 458.462 26.5484 458.212 26.9537 457.71C27.359 457.198 27.5617 456.601 27.5617 455.918Z" fill="white"></path><path d="M10.6776 462.222V458.19H10.8536C11.8989 458.19 12.5229 457.102 12.7256 454.926L12.9976 452.078H18.8696V458.19H20.0216V462.222H18.2616V459.742H12.4376V462.222H10.6776ZM17.0776 458.19V453.63H14.5016L14.3576 455.07C14.2722 455.956 14.1602 456.622 14.0216 457.07C13.8829 457.518 13.6802 457.892 13.4136 458.19H17.0776Z" fill="white"></path><path d="M0.112061 459.742L4.44806 448.83H6.17606L10.3201 459.742H8.35206L7.37606 457.07H3.02406L2.03206 459.742H0.112061ZM4.54406 452.846L3.52006 455.63H6.88006L5.87206 452.83C5.64806 452.212 5.44539 451.582 5.26406 450.942H5.18406C4.99206 451.604 4.77873 452.238 4.54406 452.846Z" fill="white"></path></svg> 