<?xml version="1.0" encoding="UTF-8"?> <!-- Generator: Adobe Illustrator 25.4.1, SVG Export Plug-In . SVG Version: 6.00 Build 0) --> <svg xmlns="http://www.w3.org/2000/svg" xmlns:xlink="http://www.w3.org/1999/xlink" x="0px" y="0px" viewBox="0 0 48 48" style="enable-background:new 0 0 48 48;" xml:space="preserve"> <style type="text/css"> .st0{fill-rule:evenodd;clip-rule:evenodd;fill:#FFFFFF;} .st1{fill:#FFFFFF;} </style> <g xmlns:sketch="http://www.bohemiancoding.com/sketch/ns" id="Layer_1"> <desc>Created with Sketch.</desc> <path id="Shape" sketch:type="MSShapeGroup" class="st0" d="M24,0C10.8,0,0,10.8,0,24c0,13.2,10.8,24,24,24s24-10.8,24-24 C48,10.8,37.2,0,24,0L24,0z M24,1c12.7,0,23,10.3,23,23c0,12.7-10.3,23-23,23S1,36.7,1,24C1,11.3,11.3,1,24,1L24,1z"></path> </g> <g id="Layer_4"> <path class="st1" d="M21,32.5c-0.4,0-0.8-0.2-1.1-0.4L14.9,27c-0.3-0.3-0.4-0.7-0.4-1.1c0-0.4,0.2-0.8,0.4-1.1l8.6-8.6 c0.5-0.5,1.4-0.9,2.1-0.9H30c0.8,0,1.5,0.7,1.5,1.5v4.5c0,0.7-0.4,1.6-0.9,2.1l-8.6,8.6C21.8,32.4,21.4,32.5,21,32.5L21,32.5z M25.5,16.5c-0.4,0-1.1,0.3-1.4,0.6l-8.6,8.6c-0.1,0.1-0.1,0.2-0.1,0.4s0.1,0.3,0.1,0.4l5.1,5.1c0.1,0.1,0.2,0.1,0.4,0.1 s0.3-0.1,0.4-0.1l8.6-8.6c0.3-0.3,0.6-0.9,0.6-1.4V17c0-0.3-0.2-0.5-0.5-0.5H25.5L25.5,16.5z"></path> <path class="st1" d="M28,20.5c-0.8,0-1.5-0.7-1.5-1.5s0.7-1.5,1.5-1.5s1.5,0.7,1.5,1.5S28.9,20.5,28,20.5z M28,18.5 c-0.3,0-0.5,0.2-0.5,0.5c0,0.3,0.2,0.5,0.5,0.5c0.3,0,0.5-0.2,0.5-0.5C28.5,18.7,28.3,18.5,28,18.5z"></path> </g> </svg> 