<?xml version="1.0" encoding="UTF-8"?> <svg xmlns="http://www.w3.org/2000/svg" viewBox="0 0 1080 1080"> <g id="Fon"> <rect x="259.78" y="48.68" width="215.38" height="316.26" style="fill:#fff;"></rect> </g> <g id="Text"> <g> <g> <path d="M163.29,844.74c-34.29,0-62.18-27.89-62.18-62.18V387.66c0-34.29,27.89-62.18,62.18-62.18h396.73c34.29,0,62.18,27.89,62.18,62.18v457.08H163.29Z" style="fill:#fff;"></path> <path d="M560.02,329.93c31.83,0,57.73,25.9,57.73,57.73v452.63H163.29c-31.83,0-57.73-25.9-57.73-57.73V387.66c0-31.83,25.9-57.73,57.73-57.73h396.73m0-8.91H163.29c-36.8,0-66.64,29.83-66.64,66.64v394.9c0,36.8,29.83,66.64,66.64,66.64h463.36V387.66c0-36.8-29.83-66.64-66.64-66.64h0Z" style="fill:#fff;"></path> </g> <g> <path d="M265.83,723.12c0-12.51,8.68-21.89,20.84-21.89s20.5,9.03,20.5,21.89-8.34,21.89-21.19,21.89c-11.81,0-20.15-9.38-20.15-21.89Z" style="fill:#fff; stroke:#fff; stroke-miterlimit:10;"></path> <path d="M337.74,723.12c0-12.51,8.68-21.89,20.84-21.89s20.5,9.03,20.5,21.89-8.34,21.89-21.19,21.89c-11.81,0-20.15-9.38-20.15-21.89Z" style="fill:#fff; stroke:#fff; stroke-miterlimit:10;"></path> <path d="M409.65,723.12c0-12.51,8.68-21.89,20.84-21.89s20.5,9.03,20.5,21.89-8.34,21.89-21.19,21.89c-11.81,0-20.15-9.38-20.15-21.89Z" style="fill:#fff; stroke:#fff; stroke-miterlimit:10;"></path> </g> </g> <g style="opacity:.25;"> <path d="M560.02,329.93c31.83,0,57.73,25.9,57.73,57.73v452.63H163.29c-31.83,0-57.73-25.9-57.73-57.73V387.66c0-31.83,25.9-57.73,57.73-57.73h396.73m0-8.91H163.29c-36.8,0-66.64,29.83-66.64,66.64v394.9c0,36.8,29.83,66.64,66.64,66.64h463.36V387.66c0-36.8-29.83-66.64-66.64-66.64h0Z" style="fill:#3c415a;"></path> <g> <path d="M265.83,723.12c0-12.51,8.68-21.89,20.84-21.89s20.5,9.03,20.5,21.89-8.34,21.89-21.19,21.89c-11.81,0-20.15-9.38-20.15-21.89Z" style="fill:none;"></path> <path d="M337.74,723.12c0-12.51,8.68-21.89,20.84-21.89s20.5,9.03,20.5,21.89-8.34,21.89-21.19,21.89c-11.81,0-20.15-9.38-20.15-21.89Z" style="fill:none;"></path> <path d="M409.65,723.12c0-12.51,8.68-21.89,20.84-21.89s20.5,9.03,20.5,21.89-8.34,21.89-21.19,21.89c-11.81,0-20.15-9.38-20.15-21.89Z" style="fill:none;"></path> </g> </g> <g> <path d="M169.58,467.7v-41h9.08c4.21,0,7.49,.94,9.86,2.83,2.36,1.88,3.55,4.43,3.55,7.63,0,4.21-2.22,7.11-6.67,8.72v.12c3.09,.32,5.46,1.44,7.12,3.37,1.66,1.92,2.49,4.27,2.49,7.03,0,3.69-1.27,6.49-3.82,8.42s-5.82,2.89-9.83,2.89h-11.78Zm17.37-30.12c0-2.12-.76-3.71-2.28-4.75-1.52-1.04-3.53-1.56-6.01-1.56h-4.09v12.92h4.45c2.44,0,4.38-.61,5.8-1.83,1.42-1.22,2.13-2.81,2.13-4.78Zm2.89,18.46c0-2.28-.78-4.07-2.34-5.35-1.56-1.28-3.77-1.92-6.61-1.92h-6.31v14.37h7.15c2.68,0,4.71-.64,6.07-1.92,1.36-1.28,2.04-3.01,2.04-5.17Z" style="fill:#ff8000;"></path> <path d="M197.59,467.7l16.71-41h4.45l16.23,41h-5.47l-4.21-11.06h-18.15l-4.27,11.06h-5.29Zm15.69-26.99l-4.45,11.48h14.79l-4.33-11.54c-1.08-2.84-2.02-5.61-2.83-8.3h-.24c-.72,2.37-1.7,5.15-2.95,8.36Z" style="fill:#ff8000;"></path> <path d="M239.43,467.7v-41h4.99v36.43h14.79v-36.43h4.99v36.43h14.79v-36.43h4.99v41h-44.55Z" style="fill:#ff8000;"></path> <path d="M288.43,467.7l16.71-41h4.45l16.23,41h-5.47l-4.21-11.06h-18.15l-4.27,11.06h-5.29Zm15.69-26.99l-4.45,11.48h14.79l-4.33-11.54c-1.08-2.84-2.02-5.61-2.83-8.3h-.24c-.72,2.37-1.7,5.15-2.95,8.36Z" style="fill:#ff8000;"></path> <path d="M344.87,467.7v-41h11.9c4.57,0,8.21,1.06,10.94,3.19,2.72,2.12,4.09,5.27,4.09,9.44s-1.26,7.18-3.79,9.41c-2.52,2.22-6.41,3.34-11.66,3.34h-6.49v15.63h-4.99Zm21.82-28.25c0-2.53-.78-4.52-2.34-5.98-1.56-1.46-3.95-2.19-7.15-2.19h-7.33v16.29h7.15c6.45,0,9.68-2.71,9.68-8.12Z" style="fill:#ff8000;"></path> <path d="M405.47,426.71l-14.25,33.66c-2.2,5.13-5.27,7.69-9.2,7.69-1.04,0-1.88-.12-2.53-.36v-4.21c.44,.16,1.12,.24,2.04,.24,1.08,0,2-.27,2.77-.81,.76-.54,1.46-1.57,2.1-3.1l1.98-4.63-15.21-28.49h5.59l10.22,19.78c.72,1.4,1.28,2.67,1.68,3.79h.12c.12-.4,.64-1.7,1.56-3.91l7.93-19.66h5.17Z" style="fill:#ff8000;"></path> <path d="M435.47,467.7l-20.32-20.68v20.68h-4.99v-41h4.99v19.9l19.78-19.9h6.49l-20.26,19.9,21.1,21.1h-6.79Z" style="fill:#ff8000;"></path> <path d="M441.6,467.7l16.71-41h4.45l16.23,41h-5.47l-4.21-11.06h-18.15l-4.27,11.06h-5.29Zm15.69-26.99l-4.45,11.48h14.79l-4.33-11.54c-1.08-2.84-2.02-5.61-2.83-8.3h-.24c-.72,2.37-1.7,5.15-2.95,8.36Z" style="fill:#ff8000;"></path> <path d="M169.58,545.5v-41h9.08c4.21,0,7.49,.94,9.86,2.83,2.36,1.88,3.55,4.43,3.55,7.63,0,4.21-2.22,7.11-6.67,8.72v.12c3.09,.32,5.46,1.44,7.12,3.37,1.66,1.92,2.49,4.27,2.49,7.03,0,3.69-1.27,6.49-3.82,8.42s-5.82,2.89-9.83,2.89h-11.78Zm17.37-30.12c0-2.12-.76-3.71-2.28-4.75-1.52-1.04-3.53-1.56-6.01-1.56h-4.09v12.92h4.45c2.44,0,4.38-.61,5.8-1.83,1.42-1.22,2.13-2.81,2.13-4.78Zm2.89,18.46c0-2.28-.78-4.07-2.34-5.35-1.56-1.28-3.77-1.92-6.61-1.92h-6.31v14.37h7.15c2.68,0,4.71-.64,6.07-1.92,1.36-1.28,2.04-3.01,2.04-5.17Z" style="fill:#ff8000;"></path> <path d="M243.76,545.5v-18.94h-22.54v18.94h-4.99v-41h4.99v17.49h22.54v-17.49h4.99v41h-4.99Z" style="fill:#ff8000;"></path> <path d="M253.2,545.5l16.71-41h4.45l16.23,41h-5.47l-4.21-11.06h-18.15l-4.27,11.06h-5.29Zm15.69-26.99l-4.45,11.48h14.79l-4.33-11.54c-1.08-2.84-2.02-5.61-2.83-8.3h-.24c-.72,2.37-1.7,5.15-2.95,8.36Z" style="fill:#ff8000;"></path> <path d="M295.04,545.5v-41h4.99v36.43h14.79v-36.43h4.99v36.43h14.79v-36.43h4.99v41h-44.55Z" style="fill:#ff8000;"></path> <path d="M370.54,504.5v4.57h-17.49v12.92h16.83v4.57h-16.83v14.37h18.15v4.57h-23.14v-41h22.48Z" style="fill:#ff8000;"></path> <path d="M379.08,504.5h4.99v24.47c0,4.25-.04,7.15-.12,8.72h.12c.72-1.32,3.61-5.81,8.66-13.47l13.04-19.72h4.69v41h-4.99v-24.53c0-2.76,.04-5.63,.12-8.6h-.12c-.68,1.28-3.57,5.75-8.66,13.41l-13.04,19.72h-4.69v-41Zm21.04-11.84h3.97c-.12,2.32-1.03,4.23-2.74,5.71-1.7,1.48-3.92,2.22-6.64,2.22-2.93,0-5.2-.75-6.82-2.25-1.62-1.5-2.47-3.4-2.55-5.68h3.97c.08,1.2,.59,2.15,1.53,2.86,.94,.7,2.23,1.05,3.88,1.05s2.99-.37,3.91-1.11c.92-.74,1.42-1.67,1.5-2.79Z" style="fill:#ff8000;"></path> <path d="M433.54,545.5v-41h11.9c4.57,0,8.21,1.06,10.94,3.19,2.72,2.12,4.09,5.27,4.09,9.44s-1.26,7.18-3.79,9.41c-2.52,2.22-6.41,3.34-11.66,3.34h-6.49v15.63h-4.99Zm21.82-28.25c0-2.53-.78-4.52-2.34-5.98-1.56-1.46-3.95-2.19-7.15-2.19h-7.33v16.29h7.15c6.45,0,9.68-2.71,9.68-8.12Z" style="fill:#ff8000;"></path> <path d="M494.14,504.5l-14.25,33.66c-2.2,5.13-5.27,7.69-9.2,7.69-1.04,0-1.88-.12-2.53-.36v-4.21c.44,.16,1.12,.24,2.04,.24,1.08,0,2-.27,2.77-.81,.76-.54,1.46-1.57,2.1-3.1l1.98-4.63-15.21-28.49h5.59l10.22,19.78c.72,1.4,1.28,2.67,1.68,3.79h.12c.12-.4,.64-1.7,1.56-3.91l7.93-19.66h5.17Z" style="fill:#ff8000;"></path> <path d="M524.14,545.5l-20.32-20.68v20.68h-4.99v-41h4.99v19.9l19.78-19.9h6.49l-20.26,19.9,21.1,21.1h-6.79Z" style="fill:#ff8000;"></path> <path d="M556.78,504.5v4.57h-17.49v12.92h16.83v4.57h-16.83v14.37h18.15v4.57h-23.14v-41h22.48Z" style="fill:#ff8000;"></path> </g> <g> <path d="M166.18,651.49c0-2.97,1.03-5.52,3.09-7.65s4.65-3.2,7.76-3.2,5.83,1.07,7.8,3.2,2.96,4.68,2.96,7.65-1.04,5.57-3.11,7.68-4.63,3.17-7.68,3.17c-1.79,0-3.4-.32-4.83-.97-1.43-.65-2.56-1.5-3.41-2.57-.85-1.07-1.49-2.22-1.93-3.47-.44-1.25-.66-2.53-.66-3.84Zm5.7-5.49c-1.39,1.46-2.08,3.29-2.08,5.49s.69,4.02,2.06,5.49,3.08,2.2,5.11,2.2,3.77-.73,5.14-2.2,2.06-3.29,2.06-5.49-.67-4.02-2-5.49c-1.34-1.46-3.06-2.2-5.17-2.2s-3.74,.73-5.13,2.2Z" style="fill:#3c415a;"></path> <path d="M202.26,644.23c-3.41,.52-5.33,2.05-5.77,4.6h.09c.48-.54,1.12-.98,1.93-1.33,.81-.35,1.64-.52,2.5-.52,2.15,0,3.9,.71,5.23,2.12,1.33,1.42,2,3.22,2,5.41s-.73,3.95-2.18,5.44c-1.46,1.49-3.28,2.24-5.47,2.24s-4.11-.77-5.5-2.32c-1.4-1.54-2.09-3.71-2.09-6.5,0-1.63,.14-3.09,.43-4.36s.68-2.35,1.18-3.21,1.12-1.61,1.87-2.23c.75-.62,1.54-1.1,2.39-1.43s1.81-.6,2.88-.78c1.51-.28,2.81-.75,3.89-1.41l1.34,2.75c-1.43,.8-3.01,1.31-4.72,1.52Zm-5.95,10.28c0,1.36,.41,2.48,1.24,3.36,.83,.89,1.84,1.33,3.04,1.33,1.26,0,2.28-.44,3.06-1.33s1.18-2.01,1.18-3.36-.38-2.42-1.13-3.32c-.76-.9-1.77-1.34-3.05-1.34s-2.32,.44-3.12,1.33-1.21,2-1.21,3.33Z" style="fill:#3c415a;"></path> <path d="M225.85,647.37l-7.86,21.34h-3.2l2.63-7.08-5.23-14.26h3.44l2.48,7.12c.52,1.57,.84,2.67,.96,3.29h.09c.28-1.12,.6-2.21,.96-3.29l2.42-7.12h3.32Z" style="fill:#3c415a;"></path> <path d="M243.09,647.37v14.32h-3.35v-6.85h-.06c-.96,1.51-2.31,2.27-4.06,2.27-1.52,0-2.76-.53-3.74-1.6s-1.46-2.67-1.46-4.8v-3.35h3.35v3.14c0,1.16,.25,2.05,.75,2.68s1.19,.94,2.06,.94c.98,0,1.75-.35,2.32-1.05,.57-.7,.85-1.7,.85-3.02v-2.69h3.35Z" style="fill:#3c415a;"></path> <path d="M264.14,647.37v14.32h-3.26v-1.82h-.09c-1.26,1.55-2.89,2.33-4.9,2.33-1.77,0-3.36-.68-4.77-2.05-1.41-1.37-2.11-3.24-2.11-5.64,0-2.23,.69-4.05,2.06-5.47,1.38-1.41,3.06-2.12,5.05-2.12s3.48,.8,4.69,2.39h.06v-1.94h3.26Zm-11.69,7.14c0,1.3,.37,2.41,1.12,3.35,.75,.94,1.82,1.4,3.21,1.4,1.14,0,2.13-.44,2.97-1.33,.85-.89,1.27-2,1.27-3.33,0-1.42-.4-2.57-1.21-3.47-.81-.9-1.81-1.34-3.01-1.34-1.39,0-2.47,.47-3.23,1.4-.76,.94-1.13,2.04-1.13,3.32Z" style="fill:#3c415a;"></path> <path d="M277.35,646.89c2.31,.02,4.09,.77,5.34,2.26,1.25,1.49,1.87,3.23,1.87,5.25,0,.46-.02,.79-.06,.99h-11.06c0,1.12,.42,2.09,1.27,2.93,.85,.84,1.85,1.26,3,1.26,1.34,0,2.4-.54,3.2-1.61h3.44c-.54,1.24-1.36,2.25-2.47,3.05s-2.5,1.2-4.17,1.2c-2.21,0-4.04-.73-5.47-2.2s-2.15-3.33-2.15-5.6c0-2.09,.66-3.87,1.99-5.32,1.32-1.46,3.08-2.18,5.28-2.18Zm0,2.51c-1.1,0-1.99,.35-2.69,1.05-.7,.7-1.1,1.54-1.2,2.51h7.74c-.1-1-.5-1.84-1.21-2.53s-1.59-1.03-2.65-1.03Z" style="fill:#3c415a;"></path> <path d="M305.93,647.37l2.57,14.32h-3.08l-1.17-6.94c-.26-1.69-.41-2.77-.45-3.23h-.09c-.28,1.24-.58,2.31-.9,3.23l-2.57,6.94h-2.57l-2.6-7.08c-.46-1.21-.77-2.24-.93-3.08h-.09c-.16,1.24-.3,2.25-.42,3.05l-1.2,7.12h-3.05l2.63-14.32h3.35l2.84,7.68c.24,.64,.48,1.5,.72,2.57h.09c.28-1.08,.53-1.94,.75-2.6l2.87-7.65h3.29Z" style="fill:#3c415a;"></path> <path d="M324.73,661.69v-14.32h3.23v5.5c0,1.77-.03,3.24-.09,4.39h.06c.3-.56,.96-1.53,1.97-2.93l5.17-6.97h2.96v14.32h-3.23v-5.47c0-1.77,.03-3.25,.09-4.42h-.06c-.32,.58-.98,1.55-1.97,2.93l-5.17,6.96h-2.96Z" style="fill:#3c415a;"></path> <path d="M358.25,647.37v14.32h-3.35v-6.07h-6.61v6.07h-3.35v-14.32h3.35v5.44h6.61v-5.44h3.35Z" style="fill:#3c415a;"></path> <path d="M370.86,647.37v5.44h2.36c1.65,0,2.94,.38,3.84,1.14,.91,.76,1.36,1.85,1.36,3.29,0,1.36-.45,2.44-1.34,3.24-.9,.81-2.13,1.21-3.71,1.21h-5.86v-11.42h-3.98v-2.9h7.32Zm2.06,7.98h-2.06v3.8h2.06c.72,0,1.26-.18,1.62-.54,.36-.36,.54-.82,.54-1.38,0-1.26-.72-1.88-2.15-1.88Z" style="fill:#3c415a;"></path> <path d="M390.62,646.89c2.31,.02,4.09,.77,5.34,2.26,1.25,1.49,1.87,3.23,1.87,5.25,0,.46-.02,.79-.06,.99h-11.06c0,1.12,.42,2.09,1.27,2.93,.85,.84,1.85,1.26,3,1.26,1.34,0,2.4-.54,3.2-1.61h3.44c-.54,1.24-1.36,2.25-2.47,3.05s-2.5,1.2-4.17,1.2c-2.21,0-4.04-.73-5.47-2.2s-2.15-3.33-2.15-5.6c0-2.09,.66-3.87,1.99-5.32,1.32-1.46,3.08-2.18,5.28-2.18Zm0,2.51c-1.1,0-1.99,.35-2.69,1.05-.7,.7-1.1,1.54-1.2,2.51h7.74c-.1-1-.5-1.84-1.21-2.53s-1.59-1.03-2.65-1.03Z" style="fill:#3c415a;"></path> <path d="M403.83,661.69v-14.32h3.35v6.34l5.98-6.34h3.92l-6.4,6.79,6.58,7.53h-4.07l-6.01-7v7h-3.35Z" style="fill:#3c415a;"></path> <path d="M435.67,658.79h2.15v7.53h-3.35v-4.63h-12.11v-14.32h3.35v11.42h6.61v-11.42h3.35v11.42Z" style="fill:#3c415a;"></path> <path d="M443.53,661.69v-14.32h3.23v5.5c0,1.77-.03,3.24-.09,4.39h.06c.3-.56,.96-1.53,1.97-2.93l5.17-6.97h2.96v14.32h-3.23v-5.47c0-1.77,.03-3.25,.09-4.42h-.06c-.32,.58-.98,1.55-1.97,2.93l-5.17,6.96h-2.96Z" style="fill:#3c415a;"></path> <path d="M462.75,654.51c0-2.19,.73-4.01,2.2-5.46s3.28-2.17,5.46-2.17,4.07,.72,5.5,2.17c1.43,1.45,2.15,3.26,2.15,5.46s-.73,3.95-2.18,5.44c-1.46,1.49-3.28,2.24-5.47,2.24s-3.99-.74-5.46-2.21c-1.46-1.47-2.2-3.3-2.2-5.47Zm4.57-3.35c-.78,.88-1.17,1.99-1.17,3.35s.41,2.48,1.24,3.36,1.83,1.33,3,1.33c1.26,0,2.28-.44,3.08-1.33s1.2-2.01,1.2-3.36-.39-2.42-1.17-3.32c-.78-.9-1.81-1.34-3.11-1.34s-2.3,.44-3.08,1.32Z" style="fill:#3c415a;"></path> <path d="M497.31,647.37v14.32h-3.35v-6.07h-6.61v6.07h-3.35v-14.32h3.35v5.44h6.61v-5.44h3.35Z" style="fill:#3c415a;"></path> <path d="M517.52,647.37v14.32h-3.35v-6.07h-6.61v6.07h-3.35v-14.32h3.35v5.44h6.61v-5.44h3.35Z" style="fill:#3c415a;"></path> <path d="M523.44,654.51c0-2.19,.73-4.01,2.2-5.46,1.46-1.45,3.28-2.17,5.46-2.17s4.06,.72,5.5,2.17,2.15,3.26,2.15,5.46-.73,3.95-2.18,5.44c-1.46,1.49-3.28,2.24-5.47,2.24s-3.99-.74-5.46-2.21c-1.46-1.47-2.2-3.3-2.2-5.47Zm4.57-3.35c-.78,.88-1.17,1.99-1.17,3.35s.41,2.48,1.24,3.36c.83,.89,1.83,1.33,3,1.33,1.26,0,2.28-.44,3.08-1.33s1.2-2.01,1.2-3.36-.39-2.42-1.17-3.32c-.78-.9-1.81-1.34-3.11-1.34s-2.3,.44-3.08,1.32Z" style="fill:#3c415a;"></path> <path d="M544.7,661.69v-14.32h3.23v5.5c0,1.77-.03,3.24-.09,4.39h.06c.3-.56,.96-1.53,1.97-2.93l5.17-6.97h2.96v14.32h-3.23v-5.47c0-1.77,.03-3.25,.09-4.42h-.06c-.32,.58-.98,1.55-1.97,2.93l-5.17,6.96h-2.96Zm9.24-21.55h2.39c-.08,1.36-.58,2.46-1.49,3.32-.92,.86-2.04,1.29-3.38,1.29s-2.54-.42-3.42-1.27c-.89-.85-1.36-1.96-1.42-3.33h2.36c.06,.66,.31,1.18,.75,1.55,.44,.38,1.02,.57,1.73,.57s1.28-.19,1.73-.58,.71-.9,.75-1.54Z" style="fill:#3c415a;"></path> <path d="M167.07,697.56v-14.32h3.35v6.34l5.98-6.34h3.92l-6.4,6.79,6.58,7.53h-4.06l-6.01-7v7h-3.35Z" style="fill:#3c415a;"></path> <path d="M184.41,690.38c0-2.19,.73-4.01,2.2-5.46,1.46-1.45,3.28-2.17,5.46-2.17s4.06,.72,5.5,2.17,2.15,3.26,2.15,5.46-.73,3.95-2.18,5.44c-1.46,1.49-3.28,2.24-5.47,2.24s-3.99-.74-5.46-2.21c-1.46-1.47-2.2-3.3-2.2-5.47Zm4.57-3.35c-.78,.88-1.17,1.99-1.17,3.35s.41,2.48,1.24,3.36c.83,.89,1.83,1.33,3,1.33,1.26,0,2.28-.44,3.08-1.33s1.2-2.01,1.2-3.36-.39-2.42-1.17-3.32c-.78-.9-1.81-1.34-3.11-1.34s-2.3,.44-3.08,1.32Z" style="fill:#3c415a;"></path> <path d="M212.31,682.76c1.87,0,3.38,.49,4.51,1.46,1.14,.98,1.83,2.08,2.09,3.32h-3.44c-.52-1.29-1.58-1.94-3.2-1.94-1.24,0-2.24,.43-3.01,1.29-.77,.86-1.15,2.02-1.15,3.5,0,1.38,.39,2.52,1.18,3.44,.79,.92,1.82,1.38,3.09,1.38,1.57,0,2.67-.72,3.29-2.15h3.47c-.44,1.46-1.22,2.66-2.35,3.6-1.13,.95-2.62,1.42-4.47,1.42-2.19,0-4.02-.71-5.47-2.14s-2.18-3.28-2.18-5.58c0-2.15,.7-3.96,2.09-5.41,1.4-1.46,3.24-2.18,5.53-2.18Z" style="fill:#3c415a;"></path> <path d="M240.4,683.24l2.57,14.32h-3.08l-1.17-6.94c-.26-1.69-.41-2.77-.45-3.23h-.09c-.28,1.24-.58,2.31-.9,3.23l-2.57,6.94h-2.57l-2.6-7.08c-.46-1.21-.77-2.24-.93-3.08h-.09c-.16,1.24-.3,2.25-.42,3.05l-1.2,7.12h-3.05l2.63-14.32h3.35l2.84,7.68c.24,.64,.48,1.5,.72,2.57h.09c.28-1.08,.53-1.94,.75-2.6l2.87-7.65h3.29Z" style="fill:#3c415a;"></path> <path d="M254.99,682.76c2.31,.02,4.09,.77,5.34,2.26,1.24,1.49,1.87,3.23,1.87,5.25,0,.46-.02,.79-.06,.99h-11.06c0,1.12,.42,2.09,1.27,2.93s1.85,1.26,3.01,1.26c1.33,0,2.4-.54,3.2-1.61h3.44c-.54,1.24-1.36,2.25-2.46,3.05-1.11,.8-2.5,1.2-4.17,1.2-2.21,0-4.04-.73-5.47-2.2-1.44-1.46-2.15-3.33-2.15-5.6,0-2.09,.66-3.87,1.99-5.32,1.33-1.46,3.08-2.18,5.28-2.18Zm0,2.51c-1.1,0-1.99,.35-2.69,1.05-.7,.7-1.1,1.54-1.2,2.51h7.74c-.1-1-.5-1.84-1.21-2.53s-1.59-1.03-2.64-1.03Z" style="fill:#3c415a;"></path> <path d="M277.59,683.24v2.9h-3.88v11.42h-3.32v-11.42h-3.92v-2.9h11.12Z" style="fill:#3c415a;"></path> <path d="M281.57,690.38c0-2.19,.73-4.01,2.2-5.46s3.28-2.17,5.46-2.17,4.07,.72,5.5,2.17c1.43,1.45,2.15,3.26,2.15,5.46s-.73,3.95-2.18,5.44c-1.46,1.49-3.28,2.24-5.47,2.24s-3.99-.74-5.46-2.21c-1.46-1.47-2.2-3.3-2.2-5.47Zm4.57-3.35c-.78,.88-1.17,1.99-1.17,3.35s.41,2.48,1.24,3.36,1.83,1.33,3,1.33c1.26,0,2.28-.44,3.08-1.33s1.2-2.01,1.2-3.36-.39-2.42-1.17-3.32c-.78-.9-1.81-1.34-3.11-1.34s-2.3,.44-3.08,1.32Z" style="fill:#3c415a;"></path> <path d="M303.48,692.87l.87-9.63h11.39v14.32h-3.32v-11.42h-5.2l-.66,7.12c-.16,1.63-.56,2.79-1.2,3.48-.64,.69-1.64,1.03-3.02,1.03-.4,0-.88-.06-1.44-.18v-2.75c.32,.08,.65,.12,.99,.12,.52,0,.9-.17,1.14-.51,.24-.34,.39-.87,.45-1.58Z" style="fill:#3c415a;"></path> <path d="M321.66,690.38c0-2.19,.73-4.01,2.2-5.46s3.28-2.17,5.46-2.17,4.07,.72,5.5,2.17c1.43,1.45,2.15,3.26,2.15,5.46s-.73,3.95-2.18,5.44c-1.46,1.49-3.28,2.24-5.47,2.24s-3.99-.74-5.46-2.21c-1.46-1.47-2.2-3.3-2.2-5.47Zm4.57-3.35c-.78,.88-1.17,1.99-1.17,3.35s.41,2.48,1.24,3.36,1.83,1.33,3,1.33c1.26,0,2.28-.44,3.08-1.33s1.2-2.01,1.2-3.36-.39-2.42-1.17-3.32c-.78-.9-1.81-1.34-3.11-1.34s-2.3,.44-3.08,1.32Z" style="fill:#3c415a;"></path> <path d="M353.25,683.24v2.9h-6.99v11.42h-3.35v-14.32h10.34Z" style="fill:#3c415a;"></path> <path d="M358.52,697.56v-14.32h3.23v5.5c0,1.77-.03,3.24-.09,4.39h.06c.3-.56,.96-1.53,1.97-2.93l5.17-6.97h2.96v14.32h-3.23v-5.47c0-1.77,.03-3.25,.09-4.42h-.06c-.32,.58-.98,1.55-1.97,2.93l-5.17,6.96h-2.96Z" style="fill:#3c415a;"></path> <path d="M378.73,697.56v-14.32h3.23v5.5c0,1.77-.03,3.24-.09,4.39h.06c.3-.56,.96-1.53,1.97-2.93l5.17-6.97h2.96v14.32h-3.23v-5.47c0-1.77,.03-3.25,.09-4.42h-.06c-.32,.58-.98,1.55-1.97,2.93l-5.17,6.96h-2.96Z" style="fill:#3c415a;"></path> <path d="M167.07,733.43v-14.32h3.23v5.5c0,1.77-.03,3.24-.09,4.39h.06c.3-.56,.96-1.53,1.97-2.93l5.17-6.97h2.96v14.32h-3.23v-5.47c0-1.77,.03-3.25,.09-4.42h-.06c-.32,.58-.98,1.55-1.97,2.93l-5.17,6.96h-2.96Z" style="fill:#3c415a;"></path> <path d="M207.28,719.11v2.9h-3.89v11.42h-3.32v-11.42h-3.92v-2.9h11.12Z" style="fill:#3c415a;"></path> <path d="M212.57,740.46v-21.34h3.26v1.82h.09c1.29-1.51,2.94-2.27,4.93-2.27s3.51,.71,4.84,2.14c1.33,1.42,2,3.26,2,5.51s-.68,4.04-2.05,5.47c-1.37,1.44-3.03,2.15-4.98,2.15s-3.53-.75-4.72-2.24h-.09v8.76h-3.29Zm11.69-14.17c0-1.29-.38-2.4-1.13-3.32-.76-.92-1.82-1.38-3.2-1.38-1.2,0-2.2,.44-3,1.32-.81,.88-1.21,2.02-1.21,3.44s.41,2.48,1.24,3.36c.83,.89,1.83,1.33,3,1.33,1.36,0,2.41-.47,3.17-1.42,.76-.95,1.13-2.06,1.13-3.33Z" style="fill:#3c415a;"></path> <path d="M239.93,718.63c2.31,.02,4.09,.77,5.34,2.26,1.25,1.49,1.87,3.23,1.87,5.25,0,.46-.02,.79-.06,.99h-11.06c0,1.12,.42,2.09,1.27,2.93,.85,.84,1.85,1.26,3,1.26,1.34,0,2.4-.54,3.2-1.61h3.44c-.54,1.24-1.36,2.25-2.47,3.05s-2.5,1.2-4.17,1.2c-2.21,0-4.04-.73-5.47-2.2s-2.15-3.33-2.15-5.6c0-2.09,.66-3.87,1.99-5.32,1.32-1.46,3.08-2.18,5.28-2.18Zm0,2.51c-1.1,0-1.99,.35-2.69,1.05-.7,.7-1.1,1.54-1.2,2.51h7.74c-.1-1-.5-1.84-1.21-2.53s-1.59-1.03-2.65-1.03Z" style="fill:#3c415a;"></path> <path d="M251.53,738.07v-7.53h.33c1.95,0,3.12-2.03,3.5-6.1l.51-5.32h10.97v11.42h2.15v7.53h-3.29v-4.63h-10.88v4.63h-3.29Zm11.96-7.53v-8.52h-4.81l-.27,2.69c-.16,1.66-.37,2.9-.63,3.74-.26,.84-.64,1.54-1.13,2.09h6.85Z" style="fill:#3c415a;"></path> <path d="M276.46,728.74l.87-9.63h11.39v14.32h-3.32v-11.42h-5.2l-.66,7.12c-.16,1.63-.56,2.79-1.2,3.48-.64,.69-1.64,1.03-3.02,1.03-.4,0-.88-.06-1.44-.18v-2.75c.32,.08,.65,.12,.99,.12,.52,0,.9-.17,1.13-.51,.24-.34,.39-.87,.45-1.58Z" style="fill:#3c415a;"></path> <path d="M295.62,733.43v-14.32h3.23v5.5c0,1.77-.03,3.24-.09,4.39h.06c.3-.56,.96-1.53,1.97-2.93l5.17-6.97h2.96v14.32h-3.23v-5.47c0-1.77,.03-3.25,.09-4.42h-.06c-.32,.58-.98,1.55-1.97,2.93l-5.17,6.96h-2.96Z" style="fill:#3c415a;"></path> <path d="M324.5,720.55h.06v-8.64h3.29v8.64h.09c.88-1.25,2.14-1.88,3.8-1.88s2.98,.67,4.1,2.02c1.12,1.35,1.67,3.22,1.67,5.63,0,2.25-.54,4.09-1.63,5.5-1.09,1.42-2.51,2.12-4.26,2.12-.8,0-1.52-.17-2.17-.52-.65-.35-1.15-.8-1.51-1.36h-.09v8.4h-3.29v-8.43h-.06c-1.04,1.28-2.28,1.91-3.74,1.91-1.78,0-3.2-.71-4.26-2.12-1.07-1.42-1.6-3.27-1.6-5.56s.56-4.05,1.67-5.47c1.12-1.41,2.57-2.12,4.36-2.12,.74,0,1.43,.18,2.06,.55,.64,.37,1.13,.81,1.49,1.33Zm-6.25,5.71c0,1.46,.29,2.63,.88,3.51s1.39,1.33,2.41,1.33c.88,0,1.62-.42,2.24-1.27,.62-.85,.93-2.01,.93-3.48s-.29-2.72-.88-3.57c-.59-.85-1.36-1.27-2.32-1.27s-1.79,.45-2.38,1.35c-.59,.9-.88,2.03-.88,3.41Zm15.9,.03c0-1.33-.27-2.47-.81-3.39-.54-.93-1.34-1.39-2.42-1.39-.94,0-1.71,.41-2.3,1.24-.6,.83-.9,2.03-.9,3.6,0,1.42,.29,2.56,.88,3.44,.59,.88,1.37,1.32,2.35,1.32s1.78-.45,2.35-1.34c.57-.9,.85-2.05,.85-3.47Z" style="fill:#3c415a;"></path> <path d="M352.66,719.11v2.9h-3.88v11.42h-3.32v-11.42h-3.92v-2.9h11.12Z" style="fill:#3c415a;"></path> <path d="M357.95,733.43v-14.32h3.23v5.5c0,1.77-.03,3.24-.09,4.39h.06c.3-.56,.96-1.53,1.97-2.93l5.17-6.97h2.96v14.32h-3.23v-5.47c0-1.77,.03-3.25,.09-4.42h-.06c-.32,.58-.98,1.55-1.97,2.93l-5.17,6.96h-2.96Z" style="fill:#3c415a;"></path> <path d="M391.46,719.11v14.32h-3.35v-6.07h-6.61v6.07h-3.35v-14.32h3.35v5.44h6.61v-5.44h3.35Z" style="fill:#3c415a;"></path> <path d="M408.71,719.11v2.9h-7v11.42h-3.35v-14.32h10.34Z" style="fill:#3c415a;"></path> <path d="M426.41,719.11l-7.86,21.34h-3.2l2.63-7.08-5.23-14.26h3.44l2.48,7.12c.52,1.57,.84,2.67,.96,3.29h.09c.28-1.12,.6-2.21,.96-3.29l2.42-7.12h3.32Z" style="fill:#3c415a;"></path> </g> <g> <path d="M725.83,417.82l3.21,27.4h-4.58l-1.45-14.5c-.08-.78-.2-2.04-.36-3.78-.16-1.74-.24-2.67-.24-2.77h-.2c-.67,2.44-1.31,4.63-1.93,6.59l-4.54,14.46h-3.54l-4.58-14.78c-.99-3.03-1.61-5.11-1.85-6.27h-.28c-.08,1.74-.24,3.82-.48,6.23l-1.53,14.82h-4.34l3.17-27.4h5.42l4.82,14.9c.59,1.85,1.07,3.52,1.45,5.02h.16c.21-.86,.71-2.53,1.49-5.02l4.78-14.9h5.38Z" style="fill:#fff; stroke:#fff; stroke-linecap:round; stroke-linejoin:round; stroke-width:8.5px;"></path> <path d="M753.19,417.82v4.18h-11.09v7.03h10.69v4.06h-10.69v7.95h11.53v4.18h-16.27v-27.4h15.83Z" style="fill:#fff; stroke:#fff; stroke-linecap:round; stroke-linejoin:round; stroke-width:8.5px;"></path> <path d="M767.29,445.21v-23.22h-6.83v-4.18h18.4v4.18h-6.83v23.22h-4.74Z" style="fill:#fff; stroke:#fff; stroke-linecap:round; stroke-linejoin:round; stroke-width:8.5px;"></path> <path d="M783.76,431.52c0-3.99,1.38-7.42,4.16-10.28s6.25-4.3,10.42-4.3,7.83,1.43,10.48,4.3,3.98,6.29,3.98,10.28-1.39,7.49-4.18,10.32c-2.79,2.84-6.23,4.26-10.32,4.26-2.41,0-4.57-.44-6.49-1.31s-3.44-2.02-4.58-3.45c-1.14-1.43-2-2.99-2.59-4.66-.59-1.67-.88-3.39-.88-5.16Zm7.65-7.37c-1.86,1.97-2.79,4.43-2.79,7.37s.92,5.4,2.77,7.37c1.85,1.97,4.14,2.95,6.87,2.95s5.06-.98,6.91-2.95c1.85-1.97,2.77-4.42,2.77-7.37s-.9-5.4-2.69-7.37c-1.79-1.97-4.11-2.95-6.95-2.95s-5.03,.98-6.89,2.95Z" style="fill:#fff; stroke:#fff; stroke-linecap:round; stroke-linejoin:round; stroke-width:8.5px;"></path> <path d="M818.22,452.24v-11.21h.88c2.79,0,4.37-2.5,4.74-7.51l1.12-15.71h18.6v23.22h3.66v11.21h-4.74v-7.03h-19.52v7.03h-4.74Zm20.61-11.21v-19.04h-9.52l-.8,11.53c-.29,3.56-1.12,6.07-2.49,7.51h12.81Z" style="fill:#fff; stroke:#fff; stroke-linecap:round; stroke-linejoin:round; stroke-width:8.5px;"></path> <path d="M855.3,445.21v-27.4h4.74v11.13h3.94c2.87,0,5.15,.71,6.85,2.13,1.7,1.42,2.55,3.4,2.55,5.95s-.88,4.55-2.63,6c-1.75,1.46-4.02,2.19-6.81,2.19h-8.64Zm13.26-8.19c0-1.34-.46-2.38-1.37-3.13-.91-.75-2.18-1.12-3.82-1.12h-3.33v8.64h3.7c1.55,0,2.74-.39,3.57-1.16s1.25-1.85,1.25-3.21Zm8.31,8.19v-27.4h4.74v27.4h-4.74Z" style="fill:#fff; stroke:#fff; stroke-linecap:round; stroke-linejoin:round; stroke-width:8.5px;"></path> <path d="M704.87,514.42v-23.22h-6.83v-4.18h18.4v4.18h-6.83v23.22h-4.74Z" style="fill:#fff; stroke:#fff; stroke-linecap:round; stroke-linejoin:round; stroke-width:8.5px;"></path> <path d="M739.49,487.02v4.18h-11.09v7.03h10.69v4.06h-10.69v7.95h11.53v4.18h-16.27v-27.4h15.83Z" style="fill:#fff; stroke:#fff; stroke-linecap:round; stroke-linejoin:round; stroke-width:8.5px;"></path> <path d="M752.22,487.02l4.22,6.59c.54,.83,1.18,1.89,1.93,3.17h.12c.67-1.21,1.31-2.29,1.93-3.25l4.18-6.51h5.06l-8.88,13.1,9.28,14.3h-5.34l-4.3-6.95c-.29-.48-.72-1.19-1.29-2.13s-.87-1.46-.92-1.57h-.08c-.24,.4-.62,1.03-1.12,1.89-.51,.86-.9,1.49-1.17,1.89l-4.22,6.87h-5.1l9.2-14.14-8.88-13.26h5.38Z" style="fill:#fff; stroke:#fff; stroke-linecap:round; stroke-linejoin:round; stroke-width:8.5px;"></path> <path d="M794.48,514.42v-12.05h-12.65v12.05h-4.74v-27.4h4.74v11.13h12.65v-11.13h4.74v27.4h-4.74Z" style="fill:#fff; stroke:#fff; stroke-linecap:round; stroke-linejoin:round; stroke-width:8.5px;"></path> <path d="M808.94,487.02h4.62v14.98c0,2.6-.03,4.38-.08,5.34h.08c.54-1.04,2.14-3.7,4.82-7.95l7.83-12.37h4.38v27.4h-4.62v-14.74c0-1.82,.03-3.64,.08-5.46h-.08c-.56,1.1-2.29,3.91-5.18,8.44l-7.47,11.77h-4.38v-27.4Z" style="fill:#fff; stroke:#fff; stroke-linecap:round; stroke-linejoin:round; stroke-width:8.5px;"></path> <path d="M857.22,514.42l-12.17-13.09v13.09h-4.74v-27.4h4.74v12.77l11.93-12.77h5.9l-12.89,13.26,13.38,14.14h-6.15Z" style="fill:#fff; stroke:#fff; stroke-linecap:round; stroke-linejoin:round; stroke-width:8.5px;"></path> <path d="M869.6,487.02h4.62v14.98c0,2.6-.03,4.38-.08,5.34h.08c.54-1.04,2.14-3.7,4.82-7.95l7.83-12.37h4.38v27.4h-4.62v-14.74c0-1.82,.03-3.64,.08-5.46h-.08c-.56,1.1-2.29,3.91-5.18,8.44l-7.47,11.77h-4.38v-27.4Z" style="fill:#fff; stroke:#fff; stroke-linecap:round; stroke-linejoin:round; stroke-width:8.5px;"></path> <path d="M716.75,583.62v-23.22h-11.65v23.22h-4.62v-27.4h20.89v27.4h-4.62Z" style="fill:#fff; stroke:#fff; stroke-linecap:round; stroke-linejoin:round; stroke-width:8.5px;"></path> <path d="M731.05,583.62v-27.4h8.44c3.08,0,5.56,.73,7.43,2.19,1.88,1.46,2.81,3.61,2.81,6.45s-.87,4.94-2.61,6.47-4.37,2.29-7.87,2.29h-3.46v10h-4.74Zm13.86-18.68c0-1.42-.44-2.56-1.33-3.43-.88-.87-2.24-1.3-4.06-1.3h-3.74v9.48h3.66c3.64,0,5.46-1.58,5.46-4.74Z" style="fill:#fff; stroke:#fff; stroke-linecap:round; stroke-linejoin:round; stroke-width:8.5px;"></path> <path d="M756.32,569.92c0-3.99,1.38-7.42,4.16-10.28s6.25-4.3,10.42-4.3,7.83,1.43,10.48,4.3,3.98,6.29,3.98,10.28-1.39,7.49-4.18,10.32c-2.79,2.84-6.23,4.26-10.32,4.26-2.41,0-4.57-.44-6.49-1.31s-3.44-2.02-4.58-3.45c-1.14-1.43-2-2.99-2.59-4.66-.59-1.67-.88-3.39-.88-5.16Zm7.65-7.37c-1.86,1.97-2.79,4.43-2.79,7.37s.92,5.4,2.77,7.37c1.85,1.97,4.14,2.95,6.87,2.95s5.06-.98,6.91-2.95c1.85-1.97,2.77-4.42,2.77-7.37s-.9-5.4-2.69-7.37c-1.79-1.97-4.11-2.95-6.95-2.95s-5.03,.98-6.89,2.95Z" style="fill:#fff; stroke:#fff; stroke-linecap:round; stroke-linejoin:round; stroke-width:8.5px;"></path> <path d="M797.09,583.62v-23.22h-6.83v-4.18h18.4v4.18h-6.83v23.22h-4.74Z" style="fill:#fff; stroke:#fff; stroke-linecap:round; stroke-linejoin:round; stroke-width:8.5px;"></path> <path d="M813.56,569.92c0-3.99,1.39-7.42,4.16-10.28s6.25-4.3,10.42-4.3,7.83,1.43,10.48,4.3c2.65,2.87,3.98,6.29,3.98,10.28s-1.39,7.49-4.18,10.32c-2.79,2.84-6.23,4.26-10.32,4.26-2.41,0-4.57-.44-6.49-1.31-1.92-.87-3.44-2.02-4.58-3.45s-2-2.99-2.59-4.66c-.59-1.67-.88-3.39-.88-5.16Zm7.65-7.37c-1.86,1.97-2.79,4.43-2.79,7.37s.92,5.4,2.77,7.37c1.85,1.97,4.14,2.95,6.87,2.95s5.06-.98,6.91-2.95c1.85-1.97,2.77-4.42,2.77-7.37s-.9-5.4-2.69-7.37c-1.79-1.97-4.11-2.95-6.95-2.95s-5.03,.98-6.89,2.95Z" style="fill:#fff; stroke:#fff; stroke-linecap:round; stroke-linejoin:round; stroke-width:8.5px;"></path> <path d="M867.79,583.62l-12.17-13.09v13.09h-4.74v-27.4h4.74v12.77l11.93-12.77h5.9l-12.89,13.26,13.38,14.14h-6.15Z" style="fill:#fff; stroke:#fff; stroke-linecap:round; stroke-linejoin:round; stroke-width:8.5px;"></path> <path d="M877.51,569.92c0-3.99,1.38-7.42,4.16-10.28s6.25-4.3,10.42-4.3,7.83,1.43,10.48,4.3,3.98,6.29,3.98,10.28-1.39,7.49-4.18,10.32c-2.79,2.84-6.23,4.26-10.32,4.26-2.41,0-4.57-.44-6.49-1.31s-3.44-2.02-4.58-3.45c-1.14-1.43-2-2.99-2.59-4.66-.59-1.67-.88-3.39-.88-5.16Zm7.65-7.37c-1.86,1.97-2.79,4.43-2.79,7.37s.92,5.4,2.77,7.37c1.85,1.97,4.14,2.95,6.87,2.95s5.06-.98,6.91-2.95c1.85-1.97,2.77-4.42,2.77-7.37s-.9-5.4-2.69-7.37c-1.79-1.97-4.11-2.95-6.95-2.95s-5.03,.98-6.89,2.95Z" style="fill:#fff; stroke:#fff; stroke-linecap:round; stroke-linejoin:round; stroke-width:8.5px;"></path> <path d="M921.73,560.4l-1.29,16.47c-.19,2.49-.78,4.28-1.77,5.38-.99,1.1-2.5,1.65-4.54,1.65-.75,0-1.51-.12-2.29-.36v-3.98c.38,.16,.9,.24,1.57,.24,.75,0,1.31-.21,1.69-.64,.38-.43,.62-1.19,.72-2.29l1.61-20.65h18.6v27.4h-4.62v-23.22h-9.68Z" style="fill:#fff; stroke:#fff; stroke-linecap:round; stroke-linejoin:round; stroke-width:8.5px;"></path> <path d="M945.75,583.62v-27.4h4.74v11.13h3.94c2.87,0,5.15,.71,6.85,2.13,1.7,1.42,2.55,3.4,2.55,5.95s-.88,4.55-2.63,6c-1.75,1.46-4.02,2.19-6.81,2.19h-8.64Zm13.26-8.19c0-1.34-.46-2.38-1.37-3.13s-2.18-1.12-3.82-1.12h-3.33v8.64h3.7c1.55,0,2.75-.39,3.58-1.16s1.24-1.85,1.24-3.21Zm8.32,8.19v-27.4h4.74v27.4h-4.74Z" style="fill:#fff; stroke:#fff; stroke-linecap:round; stroke-linejoin:round; stroke-width:8.5px;"></path> <path d="M716.75,652.82v-23.22h-11.65v23.22h-4.62v-27.4h20.89v27.4h-4.62Z" style="fill:#fff; stroke:#fff; stroke-linecap:round; stroke-linejoin:round; stroke-width:8.5px;"></path> <path d="M731.05,652.82v-27.4h8.44c3.08,0,5.56,.73,7.43,2.19,1.88,1.46,2.81,3.61,2.81,6.45s-.87,4.94-2.61,6.47-4.37,2.29-7.87,2.29h-3.46v10h-4.74Zm13.86-18.68c0-1.42-.44-2.56-1.33-3.43-.88-.87-2.24-1.3-4.06-1.3h-3.74v9.48h3.66c3.64,0,5.46-1.58,5.46-4.74Z" style="fill:#fff; stroke:#fff; stroke-linecap:round; stroke-linejoin:round; stroke-width:8.5px;"></path> <path d="M773.15,625.42v4.18h-11.09v7.03h10.68v4.06h-10.68v7.95h11.53v4.18h-16.27v-27.4h15.83Z" style="fill:#fff; stroke:#fff; stroke-linecap:round; stroke-linejoin:round; stroke-width:8.5px;"></path> <path d="M799.14,652.82v-23.22h-11.65v23.22h-4.62v-27.4h20.89v27.4h-4.62Z" style="fill:#fff; stroke:#fff; stroke-linecap:round; stroke-linejoin:round; stroke-width:8.5px;"></path> <path d="M810.63,652.82l10.89-27.4h4.34l10.4,27.4h-4.94l-2.45-6.71h-10.93l-2.49,6.71h-4.82Zm11.13-17.31l-2.57,6.99h8.44l-2.53-7.03c-.56-1.55-1.07-3.13-1.53-4.74h-.2c-.48,1.66-1.02,3.25-1.61,4.78Z" style="fill:#fff; stroke:#fff; stroke-linecap:round; stroke-linejoin:round; stroke-width:8.5px;"></path> <path d="M843.08,652.82v-27.4h8.44c3.08,0,5.56,.73,7.43,2.19,1.88,1.46,2.81,3.61,2.81,6.45s-.87,4.94-2.61,6.47-4.37,2.29-7.87,2.29h-3.46v10h-4.74Zm13.86-18.68c0-1.42-.44-2.56-1.33-3.43-.88-.87-2.24-1.3-4.06-1.3h-3.74v9.48h3.66c3.64,0,5.46-1.58,5.46-4.74Z" style="fill:#fff; stroke:#fff; stroke-linecap:round; stroke-linejoin:round; stroke-width:8.5px;"></path> <path d="M864.69,652.82l10.89-27.4h4.34l10.4,27.4h-4.94l-2.45-6.71h-10.93l-2.49,6.71h-4.82Zm11.13-17.31l-2.57,6.99h8.44l-2.53-7.03c-.56-1.55-1.07-3.13-1.53-4.74h-.2c-.48,1.66-1.02,3.25-1.61,4.78Z" style="fill:#fff; stroke:#fff; stroke-linecap:round; stroke-linejoin:round; stroke-width:8.5px;"></path> <path d="M899.64,652.82v-23.22h-6.83v-4.18h18.4v4.18h-6.83v23.22h-4.74Z" style="fill:#fff; stroke:#fff; stroke-linecap:round; stroke-linejoin:round; stroke-width:8.5px;"></path> <path d="M918.48,652.82v-27.4h4.74v11.13h3.94c2.87,0,5.15,.71,6.85,2.13,1.7,1.42,2.55,3.4,2.55,5.95s-.88,4.55-2.63,6c-1.75,1.46-4.02,2.19-6.81,2.19h-8.64Zm13.26-8.19c0-1.34-.46-2.38-1.37-3.13-.91-.75-2.18-1.12-3.82-1.12h-3.33v8.64h3.7c1.55,0,2.74-.39,3.57-1.16s1.25-1.85,1.25-3.21Zm8.31,8.19v-27.4h4.74v27.4h-4.74Z" style="fill:#fff; stroke:#fff; stroke-linecap:round; stroke-linejoin:round; stroke-width:8.5px;"></path> <path d="M697.92,722.02l10.88-27.4h4.34l10.4,27.4h-4.94l-2.45-6.71h-10.93l-2.49,6.71h-4.82Zm11.13-17.31l-2.57,6.99h8.44l-2.53-7.03c-.56-1.55-1.07-3.13-1.53-4.74h-.2c-.48,1.66-1.02,3.25-1.61,4.78Z" style="fill:#fff; stroke:#fff; stroke-linecap:round; stroke-linejoin:round; stroke-width:8.5px;"></path> <path d="M730.41,722.02v-27.4h6.95c2.87,0,5.12,.61,6.77,1.83,1.65,1.22,2.47,2.93,2.47,5.12,0,1.47-.44,2.71-1.32,3.7-.88,.99-2.01,1.69-3.38,2.09v.08c2.04,.24,3.61,1,4.72,2.29,1.11,1.29,1.67,2.8,1.67,4.54,0,2.46-.88,4.37-2.63,5.72s-4.01,2.03-6.77,2.03h-8.47Zm11.45-20c0-1.21-.41-2.11-1.24-2.71s-1.97-.9-3.41-.9h-2.25v7.47h2.45c1.45,0,2.55-.35,3.31-1.04,.76-.7,1.14-1.63,1.14-2.81Zm1.61,11.89c0-1.31-.46-2.36-1.37-3.13s-2.18-1.17-3.82-1.17h-3.33v8.6h3.7c1.58,0,2.78-.38,3.6-1.14,.82-.76,1.22-1.81,1.22-3.15Z" style="fill:#fff; stroke:#fff; stroke-linecap:round; stroke-linejoin:round; stroke-width:8.5px;"></path> <path d="M760.5,722.02v-23.22h-6.83v-4.18h18.4v4.18h-6.83v23.22h-4.74Z" style="fill:#fff; stroke:#fff; stroke-linecap:round; stroke-linejoin:round; stroke-width:8.5px;"></path> <path d="M776.97,708.33c0-3.99,1.39-7.42,4.16-10.28s6.25-4.3,10.42-4.3,7.83,1.43,10.48,4.3c2.65,2.87,3.98,6.29,3.98,10.28s-1.39,7.49-4.18,10.32c-2.79,2.84-6.23,4.26-10.32,4.26-2.41,0-4.57-.44-6.49-1.31-1.92-.87-3.44-2.02-4.58-3.45s-2-2.99-2.59-4.66c-.59-1.67-.88-3.39-.88-5.16Zm7.65-7.37c-1.86,1.97-2.79,4.43-2.79,7.37s.92,5.4,2.77,7.37c1.85,1.97,4.14,2.95,6.87,2.95s5.06-.98,6.91-2.95c1.85-1.97,2.77-4.42,2.77-7.37s-.9-5.4-2.69-7.37c-1.79-1.97-4.11-2.95-6.95-2.95s-5.03,.98-6.89,2.95Z" style="fill:#fff; stroke:#fff; stroke-linecap:round; stroke-linejoin:round; stroke-width:8.5px;"></path> <path d="M814.24,722.02v-27.4h8.44c3.08,0,5.56,.73,7.43,2.19,1.88,1.46,2.81,3.61,2.81,6.45s-.87,4.94-2.61,6.47-4.37,2.29-7.87,2.29h-3.46v10h-4.74Zm13.86-18.68c0-1.42-.44-2.56-1.33-3.43-.88-.87-2.24-1.3-4.06-1.3h-3.74v9.48h3.66c3.64,0,5.46-1.58,5.46-4.74Z" style="fill:#fff; stroke:#fff; stroke-linecap:round; stroke-linejoin:round; stroke-width:8.5px;"></path> <path d="M853.69,693.74c3.51,0,6.36,.89,8.56,2.67,2.2,1.78,3.63,3.86,4.3,6.25h-5.18c-.51-1.39-1.44-2.54-2.79-3.45-1.35-.91-2.99-1.37-4.92-1.37-2.62,0-4.83,.95-6.61,2.85-1.78,1.9-2.67,4.43-2.67,7.59,0,2.95,.88,5.44,2.65,7.47,1.77,2.04,4.03,3.05,6.79,3.05,1.98,0,3.64-.5,4.98-1.49,1.34-.99,2.3-2.26,2.89-3.82h5.3c-1.04,2.87-2.68,5.15-4.9,6.85s-5.03,2.55-8.44,2.55c-4.18,0-7.58-1.39-10.2-4.16-2.62-2.77-3.94-6.27-3.94-10.5s1.35-7.64,4.04-10.38,6.07-4.12,10.14-4.12Z" style="fill:#fff; stroke:#fff; stroke-linecap:round; stroke-linejoin:round; stroke-width:8.5px;"></path> <path d="M892.57,722.02l-12.17-13.09v13.09h-4.74v-27.4h4.74v12.77l11.93-12.77h5.9l-12.89,13.26,13.38,14.14h-6.15Z" style="fill:#fff; stroke:#fff; stroke-linecap:round; stroke-linejoin:round; stroke-width:8.5px;"></path> <path d="M904.94,694.63h4.62v14.98c0,2.6-.03,4.38-.08,5.34h.08c.54-1.04,2.14-3.7,4.82-7.95l7.83-12.37h4.38v27.4h-4.62v-14.74c0-1.82,.03-3.64,.08-5.46h-.08c-.56,1.1-2.29,3.91-5.18,8.44l-7.47,11.77h-4.38v-27.4Z" style="fill:#fff; stroke:#fff; stroke-linecap:round; stroke-linejoin:round; stroke-width:8.5px;"></path> <path d="M952.1,694.63v4.18h-11.09v7.03h10.68v4.06h-10.68v7.95h11.53v4.18h-16.27v-27.4h15.83Z" style="fill:#fff; stroke:#fff; stroke-linecap:round; stroke-linejoin:round; stroke-width:8.5px;"></path> <path d="M725.83,742.83l3.21,27.4h-4.58l-1.45-14.5c-.08-.78-.2-2.04-.36-3.78-.16-1.74-.24-2.67-.24-2.77h-.2c-.67,2.44-1.31,4.63-1.93,6.59l-4.54,14.46h-3.54l-4.58-14.78c-.99-3.03-1.61-5.11-1.85-6.27h-.28c-.08,1.74-.24,3.82-.48,6.23l-1.53,14.82h-4.34l3.17-27.4h5.42l4.82,14.9c.59,1.85,1.07,3.52,1.45,5.02h.16c.21-.86,.71-2.53,1.49-5.02l4.78-14.9h5.38Z" style="fill:#fff; stroke:#fff; stroke-linecap:round; stroke-linejoin:round; stroke-width:8.5px;"></path> <path d="M753.19,742.83v4.18h-11.09v7.03h10.69v4.06h-10.69v7.95h11.53v4.18h-16.27v-27.4h15.83Z" style="fill:#fff; stroke:#fff; stroke-linecap:round; stroke-linejoin:round; stroke-width:8.5px;"></path> <path d="M767.29,770.23v-23.22h-6.83v-4.18h18.4v4.18h-6.83v23.22h-4.74Z" style="fill:#fff; stroke:#fff; stroke-linecap:round; stroke-linejoin:round; stroke-width:8.5px;"></path> <path d="M783.76,756.53c0-3.99,1.38-7.42,4.16-10.28s6.25-4.3,10.42-4.3,7.83,1.43,10.48,4.3,3.98,6.29,3.98,10.28-1.39,7.49-4.18,10.32c-2.79,2.84-6.23,4.26-10.32,4.26-2.41,0-4.57-.44-6.49-1.31s-3.44-2.02-4.58-3.45c-1.14-1.43-2-2.99-2.59-4.66-.59-1.67-.88-3.39-.88-5.16Zm7.65-7.37c-1.86,1.97-2.79,4.43-2.79,7.37s.92,5.4,2.77,7.37c1.85,1.97,4.14,2.95,6.87,2.95s5.06-.98,6.91-2.95c1.85-1.97,2.77-4.42,2.77-7.37s-.9-5.4-2.69-7.37c-1.79-1.97-4.11-2.95-6.95-2.95s-5.03,.98-6.89,2.95Z" style="fill:#fff; stroke:#fff; stroke-linecap:round; stroke-linejoin:round; stroke-width:8.5px;"></path> <path d="M818.22,777.25v-11.21h.88c2.79,0,4.37-2.5,4.74-7.51l1.12-15.71h18.6v23.22h3.66v11.21h-4.74v-7.03h-19.52v7.03h-4.74Zm20.61-11.21v-19.04h-9.52l-.8,11.53c-.29,3.56-1.12,6.07-2.49,7.51h12.81Z" style="fill:#fff; stroke:#fff; stroke-linecap:round; stroke-linejoin:round; stroke-width:8.5px;"></path> <path d="M855.3,742.83h4.62v14.98c0,2.6-.03,4.38-.08,5.34h.08c.54-1.04,2.14-3.7,4.82-7.95l7.83-12.37h4.38v27.4h-4.62v-14.74c0-1.82,.03-3.64,.08-5.46h-.08c-.56,1.1-2.29,3.91-5.18,8.44l-7.47,11.77h-4.38v-27.4Z" style="fill:#fff; stroke:#fff; stroke-linecap:round; stroke-linejoin:round; stroke-width:8.5px;"></path> <path d="M903.58,770.23l-12.17-13.09v13.09h-4.74v-27.4h4.74v12.77l11.93-12.77h5.9l-12.89,13.26,13.38,14.14h-6.15Z" style="fill:#fff; stroke:#fff; stroke-linecap:round; stroke-linejoin:round; stroke-width:8.5px;"></path> <path d="M915.95,742.83h4.62v14.98c0,2.6-.03,4.38-.08,5.34h.08c.54-1.04,2.14-3.7,4.82-7.95l7.83-12.37h4.38v27.4h-4.62v-14.74c0-1.82,.03-3.64,.08-5.46h-.08c-.56,1.1-2.29,3.91-5.18,8.44l-7.47,11.77h-4.38v-27.4Z" style="fill:#fff; stroke:#fff; stroke-linecap:round; stroke-linejoin:round; stroke-width:8.5px;"></path> </g> <g> <path d="M725.83,417.82l3.21,27.4h-4.58l-1.45-14.5c-.08-.78-.2-2.04-.36-3.78-.16-1.74-.24-2.67-.24-2.77h-.2c-.67,2.44-1.31,4.63-1.93,6.59l-4.54,14.46h-3.54l-4.58-14.78c-.99-3.03-1.61-5.11-1.85-6.27h-.28c-.08,1.74-.24,3.82-.48,6.23l-1.53,14.82h-4.34l3.17-27.4h5.42l4.82,14.9c.59,1.85,1.07,3.52,1.45,5.02h.16c.21-.86,.71-2.53,1.49-5.02l4.78-14.9h5.38Z" style="fill:#3c415a;"></path> <path d="M753.19,417.82v4.18h-11.09v7.03h10.69v4.06h-10.69v7.95h11.53v4.18h-16.27v-27.4h15.83Z" style="fill:#3c415a;"></path> <path d="M767.29,445.21v-23.22h-6.83v-4.18h18.4v4.18h-6.83v23.22h-4.74Z" style="fill:#3c415a;"></path> <path d="M783.76,431.52c0-3.99,1.38-7.42,4.16-10.28s6.25-4.3,10.42-4.3,7.83,1.43,10.48,4.3,3.98,6.29,3.98,10.28-1.39,7.49-4.18,10.32c-2.79,2.84-6.23,4.26-10.32,4.26-2.41,0-4.57-.44-6.49-1.31s-3.44-2.02-4.58-3.45c-1.14-1.43-2-2.99-2.59-4.66-.59-1.67-.88-3.39-.88-5.16Zm7.65-7.37c-1.86,1.97-2.79,4.43-2.79,7.37s.92,5.4,2.77,7.37c1.85,1.97,4.14,2.95,6.87,2.95s5.06-.98,6.91-2.95c1.85-1.97,2.77-4.42,2.77-7.37s-.9-5.4-2.69-7.37c-1.79-1.97-4.11-2.95-6.95-2.95s-5.03,.98-6.89,2.95Z" style="fill:#3c415a;"></path> <path d="M818.22,452.24v-11.21h.88c2.79,0,4.37-2.5,4.74-7.51l1.12-15.71h18.6v23.22h3.66v11.21h-4.74v-7.03h-19.52v7.03h-4.74Zm20.61-11.21v-19.04h-9.52l-.8,11.53c-.29,3.56-1.12,6.07-2.49,7.51h12.81Z" style="fill:#3c415a;"></path> <path d="M855.3,445.21v-27.4h4.74v11.13h3.94c2.87,0,5.15,.71,6.85,2.13,1.7,1.42,2.55,3.4,2.55,5.95s-.88,4.55-2.63,6c-1.75,1.46-4.02,2.19-6.81,2.19h-8.64Zm13.26-8.19c0-1.34-.46-2.38-1.37-3.13s-2.18-1.12-3.82-1.12h-3.33v8.64h3.7c1.55,0,2.75-.39,3.58-1.16s1.24-1.85,1.24-3.21Zm8.32,8.19v-27.4h4.74v27.4h-4.74Z" style="fill:#3c415a;"></path> <path d="M704.87,514.42v-23.22h-6.83v-4.18h18.4v4.18h-6.83v23.22h-4.74Z" style="fill:#3c415a;"></path> <path d="M739.49,487.02v4.18h-11.09v7.03h10.68v4.06h-10.68v7.95h11.53v4.18h-16.27v-27.4h15.83Z" style="fill:#3c415a;"></path> <path d="M752.22,487.02l4.22,6.59c.54,.83,1.18,1.89,1.93,3.17h.12c.67-1.21,1.31-2.29,1.93-3.25l4.18-6.51h5.06l-8.88,13.1,9.28,14.3h-5.34l-4.3-6.95c-.29-.48-.72-1.19-1.29-2.13s-.87-1.46-.92-1.57h-.08c-.24,.4-.62,1.03-1.12,1.89-.51,.86-.9,1.49-1.17,1.89l-4.22,6.87h-5.1l9.2-14.14-8.88-13.26h5.38Z" style="fill:#3c415a;"></path> <path d="M794.48,514.42v-12.05h-12.65v12.05h-4.74v-27.4h4.74v11.13h12.65v-11.13h4.74v27.4h-4.74Z" style="fill:#3c415a;"></path> <path d="M808.94,487.02h4.62v14.98c0,2.6-.03,4.38-.08,5.34h.08c.54-1.04,2.14-3.7,4.82-7.95l7.83-12.37h4.38v27.4h-4.62v-14.74c0-1.82,.03-3.64,.08-5.46h-.08c-.56,1.1-2.29,3.91-5.18,8.44l-7.47,11.77h-4.38v-27.4Z" style="fill:#3c415a;"></path> <path d="M857.22,514.42l-12.17-13.09v13.09h-4.74v-27.4h4.74v12.77l11.93-12.77h5.9l-12.89,13.26,13.38,14.14h-6.15Z" style="fill:#3c415a;"></path> <path d="M869.6,487.02h4.62v14.98c0,2.6-.03,4.38-.08,5.34h.08c.54-1.04,2.14-3.7,4.82-7.95l7.83-12.37h4.38v27.4h-4.62v-14.74c0-1.82,.03-3.64,.08-5.46h-.08c-.56,1.1-2.29,3.91-5.18,8.44l-7.47,11.77h-4.38v-27.4Z" style="fill:#3c415a;"></path> <path d="M716.75,583.62v-23.22h-11.65v23.22h-4.62v-27.4h20.89v27.4h-4.62Z" style="fill:#3c415a;"></path> <path d="M731.06,583.62v-27.4h8.44c3.08,0,5.56,.73,7.43,2.19,1.87,1.46,2.81,3.61,2.81,6.45s-.87,4.94-2.61,6.47c-1.74,1.53-4.37,2.29-7.87,2.29h-3.45v10h-4.74Zm13.86-18.68c0-1.42-.44-2.56-1.32-3.43-.88-.87-2.24-1.3-4.06-1.3h-3.73v9.48h3.65c3.64,0,5.46-1.58,5.46-4.74Z" style="fill:#3c415a;"></path> <path d="M756.32,569.92c0-3.99,1.38-7.42,4.16-10.28s6.25-4.3,10.42-4.3,7.83,1.43,10.48,4.3,3.98,6.29,3.98,10.28-1.39,7.49-4.18,10.32c-2.79,2.84-6.23,4.26-10.32,4.26-2.41,0-4.57-.44-6.49-1.31s-3.44-2.02-4.58-3.45c-1.14-1.43-2-2.99-2.59-4.66-.59-1.67-.88-3.39-.88-5.16Zm7.65-7.37c-1.86,1.97-2.79,4.43-2.79,7.37s.92,5.4,2.77,7.37c1.85,1.97,4.14,2.95,6.87,2.95s5.06-.98,6.91-2.95c1.85-1.97,2.77-4.42,2.77-7.37s-.9-5.4-2.69-7.37c-1.79-1.97-4.11-2.95-6.95-2.95s-5.03,.98-6.89,2.95Z" style="fill:#3c415a;"></path> <path d="M797.09,583.62v-23.22h-6.83v-4.18h18.4v4.18h-6.83v23.22h-4.74Z" style="fill:#3c415a;"></path> <path d="M813.56,569.92c0-3.99,1.39-7.42,4.16-10.28s6.25-4.3,10.42-4.3,7.83,1.43,10.48,4.3c2.65,2.87,3.98,6.29,3.98,10.28s-1.39,7.49-4.18,10.32c-2.79,2.84-6.23,4.26-10.32,4.26-2.41,0-4.57-.44-6.49-1.31-1.92-.87-3.44-2.02-4.58-3.45s-2-2.99-2.59-4.66c-.59-1.67-.88-3.39-.88-5.16Zm7.65-7.37c-1.86,1.97-2.79,4.43-2.79,7.37s.92,5.4,2.77,7.37c1.85,1.97,4.14,2.95,6.87,2.95s5.06-.98,6.91-2.95c1.85-1.97,2.77-4.42,2.77-7.37s-.9-5.4-2.69-7.37c-1.79-1.97-4.11-2.95-6.95-2.95s-5.03,.98-6.89,2.95Z" style="fill:#3c415a;"></path> <path d="M867.79,583.62l-12.17-13.09v13.09h-4.74v-27.4h4.74v12.77l11.93-12.77h5.9l-12.89,13.26,13.38,14.14h-6.15Z" style="fill:#3c415a;"></path> <path d="M877.51,569.92c0-3.99,1.38-7.42,4.16-10.28s6.25-4.3,10.42-4.3,7.83,1.43,10.48,4.3,3.98,6.29,3.98,10.28-1.39,7.49-4.18,10.32c-2.79,2.84-6.23,4.26-10.32,4.26-2.41,0-4.57-.44-6.49-1.31s-3.44-2.02-4.58-3.45c-1.14-1.43-2-2.99-2.59-4.66-.59-1.67-.88-3.39-.88-5.16Zm7.65-7.37c-1.86,1.97-2.79,4.43-2.79,7.37s.92,5.4,2.77,7.37c1.85,1.97,4.14,2.95,6.87,2.95s5.06-.98,6.91-2.95c1.85-1.97,2.77-4.42,2.77-7.37s-.9-5.4-2.69-7.37c-1.79-1.97-4.11-2.95-6.95-2.95s-5.03,.98-6.89,2.95Z" style="fill:#3c415a;"></path> <path d="M921.73,560.4l-1.29,16.47c-.19,2.49-.78,4.28-1.77,5.38-.99,1.1-2.5,1.65-4.54,1.65-.75,0-1.51-.12-2.29-.36v-3.98c.38,.16,.9,.24,1.57,.24,.75,0,1.31-.21,1.69-.64,.38-.43,.62-1.19,.72-2.29l1.61-20.65h18.6v27.4h-4.62v-23.22h-9.68Z" style="fill:#3c415a;"></path> <path d="M945.76,583.62v-27.4h4.74v11.13h3.94c2.87,0,5.15,.71,6.85,2.13,1.7,1.42,2.55,3.4,2.55,5.95s-.88,4.55-2.63,6c-1.75,1.46-4.02,2.19-6.81,2.19h-8.64Zm13.26-8.19c0-1.34-.46-2.38-1.37-3.13-.91-.75-2.18-1.12-3.82-1.12h-3.33v8.64h3.7c1.55,0,2.74-.39,3.57-1.16s1.25-1.85,1.25-3.21Zm8.31,8.19v-27.4h4.74v27.4h-4.74Z" style="fill:#3c415a;"></path> <path d="M716.75,652.82v-23.22h-11.65v23.22h-4.62v-27.4h20.89v27.4h-4.62Z" style="fill:#3c415a;"></path> <path d="M731.06,652.82v-27.4h8.44c3.08,0,5.56,.73,7.43,2.19,1.87,1.46,2.81,3.61,2.81,6.45s-.87,4.94-2.61,6.47c-1.74,1.53-4.37,2.29-7.87,2.29h-3.45v10h-4.74Zm13.86-18.68c0-1.42-.44-2.56-1.32-3.43-.88-.87-2.24-1.3-4.06-1.3h-3.73v9.48h3.65c3.64,0,5.46-1.58,5.46-4.74Z" style="fill:#3c415a;"></path> <path d="M773.15,625.42v4.18h-11.09v7.03h10.68v4.06h-10.68v7.95h11.53v4.18h-16.27v-27.4h15.83Z" style="fill:#3c415a;"></path> <path d="M799.14,652.82v-23.22h-11.65v23.22h-4.62v-27.4h20.89v27.4h-4.62Z" style="fill:#3c415a;"></path> <path d="M810.63,652.82l10.89-27.4h4.34l10.4,27.4h-4.94l-2.45-6.71h-10.93l-2.49,6.71h-4.82Zm11.13-17.31l-2.57,6.99h8.44l-2.53-7.03c-.56-1.55-1.07-3.13-1.53-4.74h-.2c-.48,1.66-1.02,3.25-1.61,4.78Z" style="fill:#3c415a;"></path> <path d="M843.08,652.82v-27.4h8.44c3.08,0,5.56,.73,7.43,2.19,1.87,1.46,2.81,3.61,2.81,6.45s-.87,4.94-2.61,6.47c-1.74,1.53-4.37,2.29-7.87,2.29h-3.45v10h-4.74Zm13.86-18.68c0-1.42-.44-2.56-1.32-3.43-.88-.87-2.24-1.3-4.06-1.3h-3.73v9.48h3.65c3.64,0,5.46-1.58,5.46-4.74Z" style="fill:#3c415a;"></path> <path d="M864.7,652.82l10.88-27.4h4.34l10.4,27.4h-4.94l-2.45-6.71h-10.93l-2.49,6.71h-4.82Zm11.13-17.31l-2.57,6.99h8.44l-2.53-7.03c-.56-1.55-1.07-3.13-1.53-4.74h-.2c-.48,1.66-1.02,3.25-1.61,4.78Z" style="fill:#3c415a;"></path> <path d="M899.64,652.82v-23.22h-6.83v-4.18h18.4v4.18h-6.83v23.22h-4.74Z" style="fill:#3c415a;"></path> <path d="M918.48,652.82v-27.4h4.74v11.13h3.94c2.87,0,5.15,.71,6.85,2.13,1.7,1.42,2.55,3.4,2.55,5.95s-.88,4.55-2.63,6c-1.75,1.46-4.02,2.19-6.81,2.19h-8.64Zm13.26-8.19c0-1.34-.46-2.38-1.37-3.13-.91-.75-2.18-1.12-3.82-1.12h-3.33v8.64h3.7c1.55,0,2.74-.39,3.57-1.16s1.25-1.85,1.25-3.21Zm8.31,8.19v-27.4h4.74v27.4h-4.74Z" style="fill:#3c415a;"></path> <path d="M697.92,722.02l10.88-27.4h4.34l10.4,27.4h-4.94l-2.45-6.71h-10.93l-2.49,6.71h-4.82Zm11.13-17.31l-2.57,6.99h8.44l-2.53-7.03c-.56-1.55-1.07-3.13-1.53-4.74h-.2c-.48,1.66-1.02,3.25-1.61,4.78Z" style="fill:#3c415a;"></path> <path d="M730.41,722.02v-27.4h6.95c2.87,0,5.12,.61,6.77,1.83,1.65,1.22,2.47,2.93,2.47,5.12,0,1.47-.44,2.71-1.32,3.7-.88,.99-2.01,1.69-3.38,2.09v.08c2.04,.24,3.61,1,4.72,2.29,1.11,1.29,1.67,2.8,1.67,4.54,0,2.46-.88,4.37-2.63,5.72s-4.01,2.03-6.77,2.03h-8.47Zm11.45-20c0-1.21-.41-2.11-1.24-2.71s-1.97-.9-3.41-.9h-2.25v7.47h2.45c1.45,0,2.55-.35,3.31-1.04,.76-.7,1.14-1.63,1.14-2.81Zm1.61,11.89c0-1.31-.46-2.36-1.37-3.13s-2.18-1.17-3.82-1.17h-3.33v8.6h3.7c1.58,0,2.78-.38,3.6-1.14,.82-.76,1.22-1.81,1.22-3.15Z" style="fill:#3c415a;"></path> <path d="M760.5,722.02v-23.22h-6.83v-4.18h18.4v4.18h-6.83v23.22h-4.74Z" style="fill:#3c415a;"></path> <path d="M776.97,708.33c0-3.99,1.38-7.42,4.16-10.28s6.25-4.3,10.42-4.3,7.83,1.43,10.48,4.3,3.98,6.29,3.98,10.28-1.39,7.49-4.18,10.32c-2.79,2.84-6.23,4.26-10.32,4.26-2.41,0-4.57-.44-6.49-1.31s-3.44-2.02-4.58-3.45c-1.14-1.43-2-2.99-2.59-4.66-.59-1.67-.88-3.39-.88-5.16Zm7.65-7.37c-1.86,1.97-2.79,4.43-2.79,7.37s.92,5.4,2.77,7.37c1.85,1.97,4.14,2.95,6.87,2.95s5.06-.98,6.91-2.95c1.85-1.97,2.77-4.42,2.77-7.37s-.9-5.4-2.69-7.37c-1.79-1.97-4.11-2.95-6.95-2.95s-5.03,.98-6.89,2.95Z" style="fill:#3c415a;"></path> <path d="M814.24,722.02v-27.4h8.44c3.08,0,5.56,.73,7.43,2.19,1.87,1.46,2.81,3.61,2.81,6.45s-.87,4.94-2.61,6.47c-1.74,1.53-4.37,2.29-7.87,2.29h-3.45v10h-4.74Zm13.86-18.68c0-1.42-.44-2.56-1.32-3.43-.88-.87-2.24-1.3-4.06-1.3h-3.73v9.48h3.65c3.64,0,5.46-1.58,5.46-4.74Z" style="fill:#3c415a;"></path> <path d="M853.69,693.74c3.51,0,6.36,.89,8.56,2.67,2.2,1.78,3.63,3.86,4.3,6.25h-5.18c-.51-1.39-1.44-2.54-2.79-3.45-1.35-.91-2.99-1.37-4.92-1.37-2.62,0-4.83,.95-6.61,2.85-1.78,1.9-2.67,4.43-2.67,7.59,0,2.95,.88,5.44,2.65,7.47,1.77,2.04,4.03,3.05,6.79,3.05,1.98,0,3.64-.5,4.98-1.49,1.34-.99,2.3-2.26,2.89-3.82h5.3c-1.04,2.87-2.68,5.15-4.9,6.85s-5.03,2.55-8.44,2.55c-4.18,0-7.58-1.39-10.2-4.16-2.62-2.77-3.94-6.27-3.94-10.5s1.35-7.64,4.04-10.38,6.07-4.12,10.14-4.12Z" style="fill:#3c415a;"></path> <path d="M892.57,722.02l-12.17-13.09v13.09h-4.74v-27.4h4.74v12.77l11.93-12.77h5.9l-12.89,13.26,13.38,14.14h-6.15Z" style="fill:#3c415a;"></path> <path d="M904.94,694.63h4.62v14.98c0,2.6-.03,4.38-.08,5.34h.08c.54-1.04,2.14-3.7,4.82-7.95l7.83-12.37h4.38v27.4h-4.62v-14.74c0-1.82,.03-3.64,.08-5.46h-.08c-.56,1.1-2.29,3.91-5.18,8.44l-7.47,11.77h-4.38v-27.4Z" style="fill:#3c415a;"></path> <path d="M952.1,694.63v4.18h-11.09v7.03h10.69v4.06h-10.69v7.95h11.53v4.18h-16.27v-27.4h15.83Z" style="fill:#3c415a;"></path> <path d="M725.83,742.83l3.21,27.4h-4.58l-1.45-14.5c-.08-.78-.2-2.04-.36-3.78-.16-1.74-.24-2.67-.24-2.77h-.2c-.67,2.44-1.31,4.63-1.93,6.59l-4.54,14.46h-3.54l-4.58-14.78c-.99-3.03-1.61-5.11-1.85-6.27h-.28c-.08,1.74-.24,3.82-.48,6.23l-1.53,14.82h-4.34l3.17-27.4h5.42l4.82,14.9c.59,1.85,1.07,3.52,1.45,5.02h.16c.21-.86,.71-2.53,1.49-5.02l4.78-14.9h5.38Z" style="fill:#3c415a;"></path> <path d="M753.19,742.83v4.18h-11.09v7.03h10.69v4.06h-10.69v7.95h11.53v4.18h-16.27v-27.4h15.83Z" style="fill:#3c415a;"></path> <path d="M767.29,770.23v-23.22h-6.83v-4.18h18.4v4.18h-6.83v23.22h-4.74Z" style="fill:#3c415a;"></path> <path d="M783.76,756.53c0-3.99,1.38-7.42,4.16-10.28s6.25-4.3,10.42-4.3,7.83,1.43,10.48,4.3,3.98,6.29,3.98,10.28-1.39,7.49-4.18,10.32c-2.79,2.84-6.23,4.26-10.32,4.26-2.41,0-4.57-.44-6.49-1.31s-3.44-2.02-4.58-3.45c-1.14-1.43-2-2.99-2.59-4.66-.59-1.67-.88-3.39-.88-5.16Zm7.65-7.37c-1.86,1.97-2.79,4.43-2.79,7.37s.92,5.4,2.77,7.37c1.85,1.97,4.14,2.95,6.87,2.95s5.06-.98,6.91-2.95c1.85-1.97,2.77-4.42,2.77-7.37s-.9-5.4-2.69-7.37c-1.79-1.97-4.11-2.95-6.95-2.95s-5.03,.98-6.89,2.95Z" style="fill:#3c415a;"></path> <path d="M818.22,777.25v-11.21h.88c2.79,0,4.37-2.5,4.74-7.51l1.12-15.71h18.6v23.22h3.66v11.21h-4.74v-7.03h-19.52v7.03h-4.74Zm20.61-11.21v-19.04h-9.52l-.8,11.53c-.29,3.56-1.12,6.07-2.49,7.51h12.81Z" style="fill:#3c415a;"></path> <path d="M855.3,742.83h4.62v14.98c0,2.6-.03,4.38-.08,5.34h.08c.54-1.04,2.14-3.7,4.82-7.95l7.83-12.37h4.38v27.4h-4.62v-14.74c0-1.82,.03-3.64,.08-5.46h-.08c-.56,1.1-2.29,3.91-5.18,8.44l-7.47,11.77h-4.38v-27.4Z" style="fill:#3c415a;"></path> <path d="M903.58,770.23l-12.17-13.09v13.09h-4.74v-27.4h4.74v12.77l11.93-12.77h5.9l-12.89,13.26,13.38,14.14h-6.15Z" style="fill:#3c415a;"></path> <path d="M915.95,742.83h4.62v14.98c0,2.6-.03,4.38-.08,5.34h.08c.54-1.04,2.14-3.7,4.82-7.95l7.83-12.37h4.38v27.4h-4.62v-14.74c0-1.82,.03-3.64,.08-5.46h-.08c-.56,1.1-2.29,3.91-5.18,8.44l-7.47,11.77h-4.38v-27.4Z" style="fill:#3c415a;"></path> </g> <path d="M666.89,426.63h5.81c1.62,0,2.94,1.32,2.94,2.94v8.75h-8.75c-1.62,0-2.94-1.32-2.94-2.94v-5.81c0-1.62,1.32-2.94,2.94-2.94Z" style="fill:#ff8000;"></path> <path d="M666.89,494.5h5.81c1.62,0,2.94,1.32,2.94,2.94v8.75h-8.75c-1.62,0-2.94-1.32-2.94-2.94v-5.81c0-1.62,1.32-2.94,2.94-2.94Z" style="fill:#ff8000;"></path> <path d="M666.89,562.37h5.81c1.62,0,2.94,1.32,2.94,2.94v8.75h-8.75c-1.62,0-2.94-1.32-2.94-2.94v-5.81c0-1.62,1.32-2.94,2.94-2.94Z" style="fill:#ff8000;"></path> <path d="M666.89,630.24h5.81c1.62,0,2.94,1.32,2.94,2.94v8.75h-8.75c-1.62,0-2.94-1.32-2.94-2.94v-5.81c0-1.62,1.32-2.94,2.94-2.94Z" style="fill:#ff8000;"></path> <path d="M666.89,698.11h5.81c1.62,0,2.94,1.32,2.94,2.94v8.75h-8.75c-1.62,0-2.94-1.32-2.94-2.94v-5.81c0-1.62,1.32-2.94,2.94-2.94Z" style="fill:#ff8000;"></path> <g> <path d="M143.52,975.21h-11.08v11.39h-4.73v-11.39h-11.03v-4.73h11.03v-11.45h4.73v11.45h11.08v4.73Z" style="fill:#3c415a;"></path> <path d="M179.15,951.12v4.99l-14.25,30.49h-6.56l14.57-30.12h-16.39v-5.36h22.63Z" style="fill:#3c415a;"></path> <path d="M233.83,962.83c0,3.43-1.46,7.21-4.37,11.34l-8.9,12.43h-6.61l8.17-11.39c-.66,.28-1.67,.42-3.02,.42-3.43-.07-6.25-1.32-8.45-3.75-2.2-2.43-3.3-5.44-3.3-9.05s1.27-6.61,3.8-9.1c2.53-2.5,5.71-3.75,9.52-3.75s7,1.21,9.47,3.62c2.46,2.41,3.69,5.49,3.69,9.23Zm-6.14-.05c0-2.18-.68-3.99-2.03-5.41s-3.04-2.13-5.05-2.13-3.75,.71-5.1,2.13-2.03,3.23-2.03,5.41,.66,4.01,1.98,5.46c1.32,1.46,3.03,2.18,5.15,2.18s3.82-.71,5.12-2.13c1.3-1.42,1.95-3.26,1.95-5.51Z" style="fill:#3c415a;"></path> <path d="M242.1,974.9c0-1.98,.37-3.85,1.12-5.62s1.83-3.68,3.25-5.72l8.9-12.43h6.66l-8.22,11.39c.73-.28,1.73-.42,3.02-.42,3.4,.1,6.22,1.37,8.45,3.8,2.24,2.43,3.36,5.43,3.36,9s-1.27,6.61-3.8,9.1c-2.53,2.5-5.71,3.75-9.52,3.75s-7.06-1.21-9.52-3.62-3.69-5.49-3.69-9.23Zm6.14,.05c0,2.15,.68,3.95,2.05,5.38s3.04,2.16,5.02,2.16,3.75-.71,5.12-2.13c1.37-1.42,2.05-3.23,2.05-5.41s-.67-4.01-2-5.46c-1.34-1.46-3.06-2.18-5.18-2.18s-3.78,.71-5.1,2.13c-1.32,1.42-1.98,3.26-1.98,5.51Z" style="fill:#3c415a;"></path> <path d="M301.77,951.12v4.99l-14.25,30.49h-6.56l14.57-30.12h-16.39v-5.36h22.63Z" style="fill:#3c415a;"></path> <path d="M332.25,986.6v-4.79l10.98-12.23c1.66-1.87,2.94-3.55,3.82-5.05,.88-1.49,1.33-2.98,1.33-4.47,0-1.39-.44-2.54-1.33-3.46-.88-.92-2.09-1.38-3.62-1.38s-2.71,.52-3.64,1.56c-.94,1.04-1.41,2.41-1.41,4.11h-6.14c.07-3.19,1.11-5.81,3.12-7.86,2.01-2.05,4.75-3.07,8.22-3.07s6.08,.93,8.04,2.78c1.96,1.86,2.94,4.19,2.94,7,0,2.22-.58,4.33-1.74,6.32-1.16,2-3.01,4.36-5.54,7.1l-7.49,8.06h15.35v5.36h-22.89Z" style="fill:#3c415a;"></path> <path d="M390.99,979.22h-4.53v7.39h-5.83v-7.39h-15.76v-4.89l15.82-23.2h5.77v22.94h4.53v5.15Zm-13.01-15.97l-7.49,10.82h10.14v-10.92c0-1.8,.02-3.19,.05-4.16h-.16c-.62,1.25-1.47,2.67-2.55,4.27Z" style="fill:#3c415a;"></path> <path d="M425.79,979.22h-4.53v7.39h-5.83v-7.39h-15.76v-4.89l15.82-23.2h5.77v22.94h4.53v5.15Zm-13.01-15.97l-7.49,10.82h10.14v-10.92c0-1.8,.02-3.19,.05-4.16h-.16c-.62,1.25-1.47,2.67-2.55,4.27Z" style="fill:#3c415a;"></path> <path d="M461.01,959.76h-5.93c.14-2.77,1.19-5.1,3.15-6.97,1.96-1.87,4.62-2.81,7.99-2.81s5.93,.87,7.91,2.6,2.97,3.94,2.97,6.61c0,1.98-.6,3.67-1.79,5.07-1.2,1.41-2.65,2.35-4.34,2.84v.1c2.22,.45,4,1.49,5.33,3.12,1.33,1.63,2,3.69,2,6.19,0,3.12-1.07,5.77-3.2,7.93-2.13,2.17-5.12,3.25-8.97,3.25s-6.59-.97-8.64-2.91c-2.05-1.94-3.17-4.49-3.38-7.65h5.98c.21,1.67,.85,3,1.93,4.01,1.07,1.01,2.5,1.51,4.27,1.51s3.16-.6,4.27-1.79c1.11-1.2,1.67-2.7,1.67-4.5s-.61-3.34-1.82-4.5c-1.21-1.16-3.02-1.74-5.41-1.74h-2.08v-5h2.08c1.8,0,3.24-.49,4.32-1.46,1.07-.97,1.61-2.29,1.61-3.95,0-1.25-.41-2.33-1.22-3.25-.82-.92-2-1.38-3.56-1.38s-2.86,.45-3.69,1.35c-.83,.9-1.3,2.01-1.41,3.33Z" style="fill:#3c415a;"></path> <path d="M497.58,956.48l-.78,7.65c1.04-.28,2.17-.42,3.38-.42,3.82,0,6.87,1.05,9.16,3.15,2.29,2.1,3.43,4.93,3.43,8.51,0,3.3-1.12,6.18-3.36,8.66-2.24,2.48-5.25,3.72-9.03,3.72s-6.47-.98-8.58-2.94-3.28-4.4-3.49-7.31h6.29c.21,1.42,.81,2.59,1.79,3.51,.99,.92,2.37,1.38,4.14,1.38,1.67,0,3.07-.6,4.21-1.79s1.72-2.77,1.72-4.71c0-2.19-.66-3.88-1.98-5.07-1.32-1.2-3.24-1.79-5.77-1.79s-5.22,.38-8.27,1.14l1.82-19.04h18.05v5.36h-12.75Z" style="fill:#3c415a;"></path> <path d="M548.82,959.76h-5.93c.14-2.77,1.19-5.1,3.15-6.97,1.96-1.87,4.62-2.81,7.99-2.81s5.93,.87,7.91,2.6,2.97,3.94,2.97,6.61c0,1.98-.6,3.67-1.79,5.07-1.2,1.41-2.65,2.35-4.34,2.84v.1c2.22,.45,4,1.49,5.33,3.12,1.33,1.63,2,3.69,2,6.19,0,3.12-1.07,5.77-3.2,7.93-2.13,2.17-5.12,3.25-8.97,3.25s-6.59-.97-8.64-2.91c-2.05-1.94-3.17-4.49-3.38-7.65h5.98c.21,1.67,.85,3,1.93,4.01,1.07,1.01,2.5,1.51,4.27,1.51s3.16-.6,4.27-1.79c1.11-1.2,1.67-2.7,1.67-4.5s-.61-3.34-1.82-4.5c-1.21-1.16-3.02-1.74-5.41-1.74h-2.08v-5h2.08c1.8,0,3.24-.49,4.32-1.46,1.07-.97,1.61-2.29,1.61-3.95,0-1.25-.41-2.33-1.22-3.25-.82-.92-2-1.38-3.56-1.38s-2.86,.45-3.69,1.35c-.83,.9-1.3,2.01-1.41,3.33Z" style="fill:#3c415a;"></path> <path d="M601.42,979.22h-4.53v7.39h-5.83v-7.39h-15.76v-4.89l15.82-23.2h5.77v22.94h4.53v5.15Zm-13.01-15.97l-7.49,10.82h10.14v-10.92c0-1.8,.02-3.19,.05-4.16h-.16c-.62,1.25-1.47,2.67-2.55,4.27Z" style="fill:#3c415a;"></path> </g> <g> <path d="M356.55,111.66h0s-30.75,.76-59.88,22.19c-.08,.09-3.91,3-5,3.93-1.01-.85-4.36-3.42-4.44-3.51-29.3-21.89-60.44-22.61-60.44-22.61v99.85c0,10.46,8.48,18.94,18.94,18.94h91.88c10.46,0,18.94-8.48,18.94-18.94V111.66Z" style="fill:#f47f20;"></path> <path d="M291.67,123.47c-30.5-25.72-64.88-30.09-64.88-30.09v13.69s34.38,.4,64.88,26.12c30.5-25.72,64.88-26.12,64.88-26.12v-13.69s-34.38,4.37-64.88,30.09Z" style="fill:#f47f20;"></path> <path d="M360.32,198.83v.08h.08s-.08-.04-.08-.08Z" style="fill:#384059;"></path> <path d="M165.13,193.68c0,2.88-2.35,5.23-5.23,5.23h-10.1c-.16,0-.29-.13-.29-.29v-30.11s0-7.7,.17-13.78c-1.04,6.08-2.94,13.92-2.94,13.92-.68,2.8-1.82,7.36-2.55,10.14l-5.25,20.02c-.01,.05-.06,.09-.12,.09h-15.71c-.15,0-.28-.1-.32-.25l-5.27-19.87c-.74-2.78-1.89-7.34-2.57-10.14l-1.85-8.79c-.55-2.82-.97-2.78-.93,.1l.11,8.55v25.17c0,2.88-2.35,5.23-5.23,5.23h-10.09c-.16,0-.3-.13-.3-.3v-55.89c0-2.03,2.24-3.69,4.99-3.69h19.4s0,0,0,0l10.11,44.51s.07,.04,.08,0l8.96-39.42c.64-2.8,3.51-5.1,6.39-5.1h18.34c.12,0,.22,.1,.22,.22v54.44Z" style="fill:#384059;"></path> <path d="M209.96,139.03c2.88,0,5.23,2.35,5.23,5.23v8.14s-.03,.07-.07,.07h-21.57c-.12,0-.22,.1-.22,.22v8.98c0,.05,.04,.1,.1,.1h20.93s.04,.02,.04,.04v12.31c0,.11-.09,.21-.21,.21h-20.81s-.06,.03-.06,.06v11.02s.03,.07,.07,.07h22.57c.05,0,.1,.04,.1,.1v13.3s-.01,.03-.03,.03h-33.2c-2.88,0-5.23-2.35-5.23-5.23v-54.64s0-.01,.01-.01h32.34Z" style="fill:#384059;"></path> <path d="M279.23,156.68h-12.65c0-2.16-.58-3.88-1.74-5.14-1.16-1.26-2.77-1.89-4.83-1.89-1.54,0-2.83,.43-3.86,1.27-1.03,.85-1.54,2.01-1.54,3.47,0,1.7,.85,3.07,2.56,4.13,1.7,1.05,4.42,2.17,8.16,3.34,11.97,3.81,17.96,10.48,17.96,20.02,0,4.98-1.98,9.38-5.94,13.22-3.96,3.83-9.77,5.75-17.43,5.75-7.21,0-12.95-1.9-17.23-5.71-4.28-3.8-6.42-8.98-6.42-15.54h12.79s3.51-.3,3.91,2.53c.58,4.12,3.07,6.17,7.25,6.17,1.87,0,3.39-.5,4.59-1.49,1.19-.99,1.79-2.34,1.79-4.04,0-1.93-.79-3.5-2.37-4.7-1.58-1.2-4.3-2.42-8.16-3.64-11.97-3.75-17.96-10.3-17.96-19.67,0-5.44,2.12-9.75,6.37-12.91,4.25-3.16,9.49-4.74,15.74-4.74,6.76,0,12.13,1.74,16.12,5.22,2.95,2.57,4.67,5.88,5.58,9.85,1.08,4.75-2.68,4.51-2.68,4.51Z" style="fill:#fff;"></path> <path d="M284.23,168.97c0-8.72,3.04-16.21,9.13-22.48,6.09-6.26,13.7-9.4,22.83-9.4s17.11,3.13,22.87,9.4c5.77,6.26,8.65,13.76,8.65,22.48s-3.03,16.29-9.09,22.52c-6.06,6.23-13.6,9.35-22.61,9.35-5.27,0-10-.95-14.18-2.85-4.19-1.9-7.52-4.42-10.01-7.55-2.49-3.13-4.38-6.54-5.66-10.23-1.29-3.69-1.93-7.43-1.93-11.24Zm20.55-12.64c-3.04,3.4-4.57,7.61-4.57,12.64s1.51,9.25,4.52,12.64c3.01,3.4,6.75,5.09,11.2,5.09s8.27-1.7,11.28-5.09c3.01-3.39,4.52-7.61,4.52-12.64s-1.43-9.25-4.3-12.64c-2.87-3.39-6.64-5.09-11.33-5.09s-8.28,1.7-11.33,5.09Z" style="fill:#fff;"></path> <path d="M467.29,168.97c0-8.72,3.04-16.21,9.13-22.48,6.09-6.26,13.7-9.4,22.83-9.4s17.11,3.13,22.87,9.4c5.77,6.26,8.65,13.76,8.65,22.48s-3.03,16.29-9.09,22.52c-6.06,6.23-13.6,9.35-22.61,9.35-5.27,0-10-.95-14.18-2.85-4.19-1.9-7.52-4.42-10.01-7.55-2.49-3.13-4.38-6.54-5.66-10.23-1.29-3.69-1.93-7.43-1.93-11.24Zm20.55-12.64c-3.04,3.4-4.57,7.61-4.57,12.64s1.51,9.25,4.52,12.64c3.01,3.4,6.75,5.09,11.2,5.09s8.27-1.7,11.28-5.09c3.01-3.39,4.52-7.61,4.52-12.64s-1.44-9.25-4.3-12.64c-2.87-3.39-6.64-5.09-11.33-5.09s-8.28,1.7-11.33,5.09Z" style="fill:#384059;"></path> <path d="M571.46,139.03c2.88,0,5.23,2.35,5.23,5.23v8.01c0,.11-.09,.2-.2,.2h-21.63s-.03,.01-.03,.03v11s.01,.03,.03,.03h20.88s.08,.03,.08,.08v12.42s-.03,.06-.06,.06h-20.82c-.06,0-.11,.05-.11,.11v17.49c0,2.88-2.35,5.23-5.23,5.23h-10.48c-.05,0-.1-.04-.1-.1v-59.65c0-.07,.06-.13,.13-.13h32.3Z" style="fill:#384059;"></path> <path d="M621.43,139.03c2.88,0,5.23,2.35,5.23,5.23v8.01c0,.11-.09,.2-.2,.2h-21.63s-.03,.01-.03,.03v11s.01,.03,.03,.03h20.88s.08,.03,.08,.08v12.42s-.03,.06-.06,.06h-20.82c-.06,0-.11,.05-.11,.11v17.49c0,2.88-2.35,5.23-5.23,5.23h-10.48c-.05,0-.1-.04-.1-.1v-59.61c0-.1,.08-.18,.18-.18h32.26Z" style="fill:#384059;"></path> <path d="M403.49,144.08c-4.33-3.37-9.89-5.05-16.68-5.05h-20.1c-.05,0-.09,.04-.09,.09v59.71s.04,.08,.08,.08h10.41c2.88,0,5.23-2.35,5.23-5.23v-14.97h4.21c7.73,0,13.57-1.76,17.52-5.27,3.95-3.51,5.93-8.4,5.93-14.66s-2.17-11.34-6.5-14.71Zm-17.65,22.44h-3.51v-15.28h3.69c2.81,0,4.87,.75,6.19,2.24,1.32,1.49,1.98,3.32,1.98,5.49,0,5.03-2.78,7.55-8.34,7.55Z" style="fill:#384059;"></path> <path d="M449.18,173.89c3.34-1.17,6.03-3.13,8.08-5.88,2.05-2.75,3.07-6.17,3.07-10.27,0-12.47-8.05-18.7-24.15-18.7h-18.93c-.14,0-.26,.12-.26,.26v54.34c0,2.92,2.37,5.29,5.29,5.29h10.38s.05-.02,.05-.05v-22.61h1.28l15.19,22.65h18.26l-18.26-25.02Zm-6.98-10.19c-1.38,1.23-3.18,1.84-5.4,1.84h-4.09v-14.31h4c2.4,0,4.26,.64,5.58,1.93,1.32,1.29,1.98,3.07,1.98,5.36s-.69,3.95-2.06,5.18Z" style="fill:#384059;"></path> <g> <path d="M366.52,221.77c0-1.69,.56-3.09,1.69-4.21,1.13-1.11,2.53-1.67,4.21-1.67s3.14,.56,4.24,1.67c1.11,1.12,1.66,2.52,1.66,4.21s-.56,3.04-1.68,4.2c-1.12,1.15-2.53,1.73-4.22,1.73s-3.08-.57-4.21-1.71-1.69-2.54-1.69-4.22Zm3.53-2.58c-.6,.68-.9,1.54-.9,2.58s.32,1.91,.96,2.59c.64,.68,1.41,1.03,2.32,1.03,.97,0,1.76-.34,2.38-1.03,.61-.68,.92-1.55,.92-2.59s-.3-1.87-.9-2.56-1.4-1.04-2.4-1.04-1.78,.34-2.38,1.01Z" style="fill:#3c415a;"></path> <path d="M394.03,213.84c-2.63,.4-4.11,1.58-4.45,3.55h.07c.37-.42,.86-.76,1.49-1.03s1.26-.4,1.93-.4c1.66,0,3,.55,4.04,1.64,1.03,1.09,1.54,2.48,1.54,4.17s-.56,3.04-1.68,4.2c-1.12,1.15-2.53,1.73-4.22,1.73s-3.17-.6-4.24-1.79-1.61-2.86-1.61-5.02c0-1.26,.11-2.38,.33-3.37,.22-.98,.53-1.81,.91-2.48,.38-.67,.87-1.24,1.44-1.72,.58-.48,1.19-.85,1.84-1.11,.65-.26,1.4-.46,2.23-.6,1.17-.21,2.17-.58,3-1.08l1.04,2.12c-1.11,.61-2.32,1.01-3.64,1.18Zm-4.59,7.93c0,1.05,.32,1.91,.96,2.59,.64,.68,1.42,1.03,2.34,1.03,.97,0,1.76-.34,2.36-1.03,.61-.68,.91-1.55,.91-2.59s-.29-1.87-.88-2.56-1.37-1.04-2.35-1.04-1.79,.34-2.41,1.03c-.62,.68-.93,1.54-.93,2.57Z" style="fill:#3c415a;"></path> <path d="M416.81,216.26l-6.07,16.46h-2.47l2.03-5.46-4.04-11h2.65l1.91,5.49c.4,1.21,.65,2.06,.74,2.54h.07c.22-.86,.46-1.71,.74-2.54l1.87-5.49h2.56Z" style="fill:#3c415a;"></path> <path d="M434.7,216.26v11.05h-2.58v-5.28h-.05c-.74,1.17-1.78,1.75-3.14,1.75-1.17,0-2.13-.41-2.88-1.23-.75-.82-1.13-2.06-1.13-3.7v-2.58h2.58v2.42c0,.89,.19,1.58,.58,2.06,.38,.48,.92,.73,1.59,.73,.75,0,1.35-.27,1.79-.81,.44-.54,.66-1.31,.66-2.33v-2.08h2.58Z" style="fill:#3c415a;"></path> <path d="M449.46,215.89c1.78,.02,3.16,.6,4.12,1.74,.96,1.15,1.44,2.49,1.44,4.05,0,.35-.02,.61-.05,.76h-8.53c0,.86,.33,1.61,.98,2.26,.65,.65,1.43,.97,2.32,.97,1.03,0,1.85-.42,2.47-1.25h2.65c-.42,.95-1.05,1.74-1.9,2.35-.85,.61-1.92,.92-3.22,.92-1.71,0-3.11-.56-4.22-1.69-1.11-1.13-1.66-2.57-1.66-4.32,0-1.61,.51-2.98,1.53-4.1,1.02-1.12,2.38-1.68,4.07-1.68Zm0,1.94c-.85,0-1.54,.27-2.08,.81-.54,.54-.85,1.18-.92,1.94h5.97c-.08-.77-.39-1.42-.93-1.95-.55-.53-1.23-.8-2.04-.8Z" style="fill:#3c415a;"></path> <path d="M474.51,216.26v11.05h-2.58v-4.68h-5.1v4.68h-2.58v-11.05h2.58v4.2h5.1v-4.2h2.58Z" style="fill:#3c415a;"></path> <path d="M484.42,227.3v-11.05h2.49v4.24c0,1.37-.02,2.5-.07,3.39h.05c.23-.43,.74-1.18,1.52-2.26l3.99-5.37h2.28v11.05h-2.49v-4.22c0-1.37,.02-2.51,.07-3.41h-.05c-.25,.45-.75,1.2-1.52,2.26l-3.99,5.37h-2.28Z" style="fill:#3c415a;"></path> <path d="M509.44,215.89c1.78,.02,3.16,.6,4.12,1.74,.96,1.15,1.44,2.49,1.44,4.05,0,.35-.02,.61-.05,.76h-8.53c0,.86,.33,1.61,.98,2.26,.65,.65,1.43,.97,2.32,.97,1.03,0,1.85-.42,2.47-1.25h2.65c-.42,.95-1.05,1.74-1.9,2.35-.85,.61-1.92,.92-3.22,.92-1.71,0-3.11-.56-4.22-1.69-1.11-1.13-1.66-2.57-1.66-4.32,0-1.61,.51-2.98,1.53-4.1,1.02-1.12,2.38-1.68,4.07-1.68Zm0,1.94c-.85,0-1.54,.27-2.08,.81-.54,.54-.85,1.18-.92,1.94h5.97c-.08-.77-.39-1.42-.93-1.95-.55-.53-1.23-.8-2.04-.8Z" style="fill:#3c415a;"></path> </g> </g> </g> </svg> 