<?xml version="1.0" encoding="UTF-8"?> <!-- Generator: Adobe Illustrator 25.4.1, SVG Export Plug-In . SVG Version: 6.00 Build 0) --> <svg xmlns="http://www.w3.org/2000/svg" xmlns:xlink="http://www.w3.org/1999/xlink" id="Layer_1" x="0px" y="0px" viewBox="0 0 936 230" style="enable-background:new 0 0 936 230;" xml:space="preserve"> <style type="text/css"> .st0{fill-rule:evenodd;clip-rule:evenodd;} .st1{fill-rule:evenodd;clip-rule:evenodd;fill:#ED1C24;} </style> <g> <polygon class="st0" points="107.3,43.3 107.3,153.1 76.6,153.1 76.6,76.7 55.2,153.1 37.4,153.1 15.4,78 15.4,153.1 4.7,153.1 4.7,43.3 37,43.3 55.9,109.5 74.6,43.3 "></polygon> <polygon class="st0" points="196.7,43.2 196.7,54.2 157.3,54.2 157.3,87.4 190.4,87.4 190.4,98.4 157.3,98.4 157.3,142 203.4,142 203.4,153 125.5,153 125.5,43.2 "></polygon> <path class="st1" d="M316.6,46.9l-19.3,3.6c0.8-3.9,1.3-7.1,1.3-9.7c0-16.7-10.1-25-30.3-25c-16,0-24,5.7-24,17.2 c0,8.6,8.9,16,26.8,22.2c34.5,11.8,51.7,29.3,51.7,52.5c0,13.6-4.8,24.5-14.5,32.7c-9.7,8.2-22.5,12.3-38.6,12.3 c-35.5,0-53.3-13.8-53.3-41.3c0-2.3,0.2-5,0.5-8.3l20-4.4c-1.5,6.1-2.3,11.4-2.3,15.9c0,17.8,10.2,26.7,30.6,26.7 c16.3,0,24.5-6.4,24.5-19.2c0-9.5-9.8-17.9-29.3-25.1c-28.2-10.4-42.4-26.9-42.4-49.7c0-12.9,4.7-23.3,14.1-31.1 c9.4-7.9,21.8-11.8,37.1-11.8C300.9,4.4,316.6,18.5,316.6,46.9"></path> <path class="st1" d="M398.1,4.5c41.7,0,62.6,24.7,62.6,74.2s-21.3,74.2-63.8,74.2c-42.5,0-63.8-25.3-63.8-75.9 C333.1,28.7,354.8,4.5,398.1,4.5 M396.9,16c-7.9,0-13.2,4.3-15.9,13s-4.2,25.2-4.2,49.7c0,24.5,1.4,41.1,4.2,49.7 c2.8,8.7,8.1,13,15.9,13c7.8,0,13.1-4.3,15.9-13c2.8-8.6,4.2-25.2,4.2-49.7c0-24.5-1.4-41-4.2-49.7C410.1,20.3,404.8,16,396.9,16"></path> <path class="st0" d="M472.6,153.2V43.4H520c26.9,0,40.3,10.8,40.3,32.3c0,21.7-14.9,32.6-44.8,32.6h-11v45H472.6z M504.5,98.1h7.2 c11.6,0,17.3-7.7,17.3-23c0-14.4-5.8-21.5-17.3-21.5h-7.2V98.1z"></path> <path class="st0" d="M570.4,153V43.2h47.2c12.3,0,22.1,2.6,29.4,7.8c7.3,5.2,11,12.1,11,20.8c0,13.3-7.9,22-23.6,26 c8.1,3,13.3,6.3,15.7,9.9c2.4,3.6,4,10.5,4.9,20.9c1,12.4,3.1,20.5,6.2,24.5h-34.6c-2.2-5.1-3.3-11.5-3.3-19.1l-0.2-6.5l-0.2-8.2 c0-12.7-5.1-19-15.3-19h-5.5V153H570.4z M602.3,91.2h6.4c12.1,0,18.1-6.3,18.1-18.9s-6-18.9-18.1-18.9h-6.4V91.2z"></path> <path class="st0" d="M717.4,39.4c32,0,47.9,18.9,47.9,56.8S749.1,153,716.5,153c-32.6,0-48.8-19.3-48.8-58.1 C667.7,57.9,684.3,39.4,717.4,39.4 M716.5,48.2c-6,0-10.1,3.3-12.2,9.9c-2.1,6.6-3.2,19.3-3.2,38.1s1.1,31.5,3.2,38.1 s6.2,9.9,12.2,9.9c6,0,10-3.3,12.2-9.9c2.1-6.6,3.2-19.3,3.2-38.1c0-18.7-1.1-31.4-3.2-38.1C726.6,51.5,722.5,48.2,716.5,48.2"></path> <polygon class="st0" points="848.1,43.4 848.1,54.4 808.3,54.4 808.3,91 842.1,91 842.1,102 808.3,102 808.3,153.2 776.4,153.2 776.4,43.4 "></polygon> <polygon class="st0" points="931.9,43.4 931.9,54.4 892,54.4 892,91 925.8,91 925.8,102 892,102 892,153.2 860.2,153.2 860.2,43.4 "></polygon> <rect x="129.2" y="170" class="st1" width="683.5" height="3.9"></rect> <g> <path d="M149.8,205.3l3.9,1.2l0,1c0,6.4-3.5,9.7-10.6,9.7c-8.4,0-12.5-4.2-12.5-12.7c0-4.2,1.2-7.6,3.6-10.2 c2.4-2.5,5.7-3.8,9.8-3.8c5.9,0,8.8,2.7,8.8,8l-4.3,2.1l0.1-2.4c0-3.6-1.2-5.4-3.6-5.4c-3.2,0-4.8,3.6-4.8,10.7c0,4.4,0.3,7.4,1,9 s2,2.5,3.8,2.5c3.4,0,5.1-2.2,5.1-6.6C150.1,207.8,150,206.7,149.8,205.3z"></path> <path d="M168.8,190.7c8.4,0,12.6,4.4,12.6,13.3s-4.2,13.3-12.6,13.3c-8.4,0-12.6-4.4-12.6-13.3S160.4,190.7,168.8,190.7z M168.8,192.9c-2,0-3.1,3.7-3.1,11s1,11,3.1,11c2.1,0,3.1-3.7,3.1-11S170.8,192.9,168.8,192.9z"></path> <path d="M205.5,197.8l-4.5,0.8c0-3.8-1.8-5.7-5.3-5.7c-2.2,0-3.2,0.9-3.2,2.7c0,1.3,1.9,2.7,5.6,4.2c5.7,2.3,8.6,5.3,8.6,8.9 c0,5.7-3.6,8.6-10.9,8.6c-7.7,0-11.5-2.9-11.5-8.6l4.7-1c-0.1,0.5-0.1,1.1-0.1,1.6c0,1.5,0.6,2.8,1.9,3.8c1.2,1.1,2.7,1.6,4.4,1.6 c2.2,0,3.3-0.9,3.3-2.8c0-1.3-1.8-2.7-5.4-4.2c-5.4-2.3-8.1-5.3-8.1-8.9c0-2.4,1-4.4,3.1-5.9c2.1-1.5,4.7-2.3,8-2.3 C201.8,190.7,204.9,193.1,205.5,197.8z"></path> <path d="M247.9,216.7h-9.2v-19c0-1.7-0.5-2.5-1.5-2.5c-2.2,0-3.4,2.4-3.4,7.2v14.4h-9.2V198c0-1.9-0.4-2.8-1.3-2.8 c-2.3,0-3.4,2.4-3.4,7.2v14.3h-9.2v-25.4c3.1,0,6.2-0.2,9.2-0.6v4.4c2.2-2.9,4.8-4.3,8-4.3c2.6,0,4.6,1.4,5.9,4.1 c2-2.8,4.6-4.2,7.7-4.2c4.2,0,6.3,2.1,6.3,6.4L247.9,216.7L247.9,216.7z"></path> <path d="M271.6,207.4l3.7,1.1c-0.4,5.9-3.8,8.8-10.4,8.8c-8.5,0-12.7-4.2-12.7-12.7c0-4.1,1.1-7.5,3.4-10.1s5.1-3.9,8.6-3.9 c7.3,0,11,4.7,11,14.2h-13.4c0,6.6,1.7,10,5.1,10c3.2,0,4.7-1.9,4.7-5.6C271.6,208.6,271.6,208,271.6,207.4z M261.8,202h5.5 c0-5.9-0.9-8.9-2.7-8.9c-1.6,0-2.5,2.2-2.7,6.6L261.8,202z"></path> <path d="M293.3,191.4v2.8h-4.1v17.9c0,1.1,0.4,1.7,1.1,1.7c0.5,0,0.8-0.4,0.9-1.1l2.6,0.2c-0.7,2.7-3,4-6.9,4 c-4.6,0-6.9-2-6.9-5.9v-16.8H277v-2.8h3.1v-4.5c3.2-0.9,6.2-2.1,9.2-3.8v8.2L293.3,191.4L293.3,191.4z"></path> <path d="M308,190.7c8.4,0,12.6,4.4,12.6,13.3s-4.2,13.3-12.6,13.3c-8.4,0-12.6-4.4-12.6-13.3C295.5,195.1,299.6,190.7,308,190.7z M308,192.9c-2,0-3,3.7-3,11s1,11,3,11c2,0,3.1-3.7,3.1-11S310.1,192.9,308,192.9z"></path> <path d="M334,181.8v34.9h-9.2v-34.3C327.4,182.3,330.5,182.2,334,181.8z"></path> <path d="M350.9,190.7c8.4,0,12.6,4.4,12.6,13.3s-4.2,13.3-12.6,13.3c-8.4,0-12.6-4.4-12.6-13.3 C338.3,195.1,342.5,190.7,350.9,190.7z M350.9,192.9c-2,0-3,3.7-3,11s1,11,3,11c2,0,3.1-3.7,3.1-11 C354,196.6,352.9,192.9,350.9,192.9z"></path> <path d="M384.3,191.6c4.3,1.8,6.4,4.5,6.4,8c0,2.3-1.1,4.3-3.2,5.9s-4.7,2.4-7.8,2.4c-1.2,0-2.8-0.2-4.8-0.5 c-1.2,0.7-1.7,1.3-1.7,2c0,0.9,0.7,1.4,2.1,1.4c0.4,0,1.1,0,2.2-0.1c2.8-0.2,4.9-0.3,6.2-0.3c6.1,0,9.2,2.3,9.2,7 c0,5.6-5.1,8.4-15.2,8.4c-7.5,0-11.3-1.6-11.3-4.8c0-1.8,1.5-3.1,4.6-3.7c-3.3-0.9-4.9-2.3-4.9-4.2c0-2.5,1.9-4.6,5.8-6.5 c-3.4-1.4-5.1-3.7-5.1-7c0-2.5,1-4.6,3.1-6.3s4.6-2.5,7.7-2.5c1,0,2.4,0.1,4.1,0.3c-0.1-0.6-0.1-1-0.1-1.4c0-3.3,1.7-5,5.2-5 c2.8,0,4.1,1.2,4.1,3.5c0,1.8-0.8,2.7-2.5,2.7c-0.5,0-1.2-0.2-2-0.5c-0.5-0.2-0.8-0.4-1-0.4C384.7,189.8,384.3,190.3,384.3,191.6z M378.4,218.3c-4.3,0-6.4,0.8-6.4,2.5c0,1.7,2.1,2.5,6.2,2.5c4.8,0,7.2-0.9,7.2-2.8C385.4,219.1,383.1,218.3,378.4,218.3z M378.6,193.1c-1.7,0-2.6,2.1-2.6,6.4c0,3.9,0.9,5.9,2.7,5.9c1.6,0,2.4-1.7,2.4-5.2C381.2,195.5,380.4,193.1,378.6,193.1z"></path> <path d="M417.1,191.3L405.5,220c-1.6,3.9-3.7,5.9-6.4,5.9c-2.6,0-4.4-1.1-5.3-3.3l3.2-2.3c0.2,1.9,1,2.9,2.1,2.9 c1.3,0,2.4-1.1,3.2-3.3l0.7-1.8l-10.2-26.6h10.1l5.1,14.9l5.8-14.9L417.1,191.3L417.1,191.3z"></path> <path d="M435.3,216.7v-34.3c1.5,0,4.6-0.2,9.2-0.5V194c1.7-2.2,3.6-3.3,5.7-3.3c6,0,9,4.2,9,12.5c0,9.4-3.6,14.1-10.7,14.1 c-3.4,0-6.2-1.6-8.6-4.8l-2.3,4.2L435.3,216.7L435.3,216.7z M447.3,194.3c-2,0-3,2.9-3,8.8c0,6.9,1,10.4,3,10.4 c1.7,0,2.6-1.8,2.6-5.4l0.2-6.2l-0.2-3.5C449.5,195.7,448.7,194.3,447.3,194.3z"></path> <path d="M484.8,191.3L473.2,220c-1.6,3.9-3.7,5.9-6.4,5.9c-2.6,0-4.4-1.1-5.3-3.3l3.2-2.3c0.2,1.9,1,2.9,2.1,2.9 c1.3,0,2.4-1.1,3.2-3.3l0.7-1.8l-10.2-26.6h10.1l5.1,14.9l5.8-14.9L484.8,191.3L484.8,191.3z"></path> <path d="M503.5,216.7v-34.3h14.2c10.1,0,15.2,5.7,15.2,17.2c0,11.4-5.2,17.1-15.7,17.1L503.5,216.7L503.5,216.7z M513.4,213.8h2.6 c2.4,0,4.1-1,5-3.1s1.4-5.8,1.4-11.2s-0.5-9.2-1.4-11.2c-0.9-2.1-2.6-3.1-5-3.1h-2.6V213.8z"></path> <path d="M555.5,200.5h-6.3c0.2-1,0.4-1.7,0.6-2.2c0.2-0.7,0.3-1.3,0.3-1.9c0-1.1-0.4-1.6-1.2-1.6c-0.6,0-1.2,0.7-1.7,2.1 s-0.8,2.9-0.8,4.5v15.2h-9.2v-25.4l1.8,0c2.1,0,4.6-0.2,7.4-0.7v4.2c1.5-2.8,3.3-4.2,5.5-4.2c3,0,4.4,1.6,4.4,4.9 c0,0.8-0.1,1.8-0.4,2.9C555.9,198.9,555.7,199.6,555.5,200.5z"></path> <path d="M564.5,208.3c3,0,4.4,1.5,4.4,4.4s-1.5,4.4-4.4,4.4s-4.4-1.5-4.4-4.4C560.1,209.8,561.6,208.3,564.5,208.3z"></path> <path d="M613.6,191.9l-4.6,0.8c0.2-0.9,0.3-1.7,0.3-2.3c0-4-2.4-6-7.3-6c-3.8,0-5.7,1.4-5.7,4.1c0,2.1,2.1,3.8,6.4,5.3 c8.2,2.8,12.4,7,12.4,12.6c0,3.3-1.2,5.9-3.5,7.8c-2.3,2-5.4,3-9.2,3c-8.5,0-12.8-3.3-12.8-9.9c0-0.5,0-1.2,0.1-2l4.8-1.1 c-0.4,1.5-0.5,2.7-0.5,3.8c0,4.3,2.4,6.4,7.3,6.4c3.9,0,5.9-1.5,5.9-4.6c0-2.3-2.3-4.3-7-6c-6.8-2.5-10.1-6.5-10.1-11.9 c0-3.1,1.1-5.6,3.4-7.5c2.2-1.9,5.2-2.8,8.9-2.8C609.8,181.7,613.6,185.1,613.6,191.9z"></path> <path d="M637.6,207.4l3.7,1.1c-0.4,5.9-3.8,8.8-10.4,8.8c-8.5,0-12.7-4.2-12.7-12.7c0-4.1,1.1-7.5,3.4-10.1 c2.2-2.6,5.1-3.9,8.6-3.9c7.3,0,11,4.7,11,14.2h-13.4c0,6.6,1.7,10,5.1,10c3.2,0,4.7-1.9,4.7-5.6 C637.6,208.6,637.6,208,637.6,207.4z M627.8,202h5.5c0-5.9-0.9-8.9-2.7-8.9c-1.6,0-2.5,2.2-2.7,6.6L627.8,202z"></path> <path d="M654.7,181.8v34.9h-9.2v-34.3C648,182.3,651.1,182.2,654.7,181.8z"></path> <path d="M681.5,191.3L669.8,220c-1.6,3.9-3.7,5.9-6.4,5.9c-2.6,0-4.4-1.1-5.3-3.3l3.2-2.3c0.2,1.9,1,2.9,2.1,2.9 c1.3,0,2.4-1.1,3.2-3.3l0.7-1.8L657,191.3h10.1l5.1,14.9l5.8-14.9L681.5,191.3L681.5,191.3z"></path> <path d="M709.4,215.8c-2.2,0.9-4.4,1.3-6.6,1.3c-3.2,0-5.1-1-5.8-2.9c-1.5,2-3.7,3.1-6.6,3.1c-5.3,0-8-2.5-8-7.5 c0-3.8,2.5-6.4,7.3-8c4.5-1.4,6.7-3.1,6.7-5.1c0-2.6-1.3-3.9-3.9-3.9c-3,0-4.5,1.3-4.5,3.8c0,0.8,0.2,1.8,0.7,3.1l-4.5-0.9 c-0.1-0.8-0.2-1.5-0.2-2.2c0-4,3.7-6,11-6c7,0,10.5,1.9,10.5,5.6v15.4c0,1.6,0.5,2.4,1.5,2.4c0.3,0,0.8-0.2,1.4-0.5L709.4,215.8z M696.4,201.4c-0.6,0.7-1.2,1.2-2,1.6c-1.9,1.1-2.8,3-2.8,5.6c0,3.4,0.7,5,2,5c1.9,0,2.9-1.7,2.9-5V201.4z"></path> <path d="M735.5,216.7h-9.2V198c0-1.9-0.5-2.8-1.6-2.8c-1.1,0-2,0.8-2.8,2.2c-0.8,1.5-1.2,3.3-1.2,5.3v13.9h-9.2v-25.4 c3.2,0,6.2-0.2,9.2-0.6v4.8c2.3-3.2,5.1-4.7,8.4-4.7c4.3,0,6.4,2.2,6.4,6.5V216.7z"></path> <path d="M741.2,216.7v-25.3c2.9,0,5.9-0.2,9.2-0.7v26H741.2z M745.8,181.5c2.8,0,4.3,1.1,4.3,3.3s-1.4,3.3-4.3,3.3 c-2.8,0-4.3-1.1-4.3-3.3C741.5,182.6,743,181.5,745.8,181.5z"></path> <path d="M779.9,216.7h-9.2V198c0-1.9-0.5-2.8-1.6-2.8c-1.1,0-2,0.8-2.8,2.2c-0.8,1.5-1.2,3.3-1.2,5.3v13.9H756v-25.4 c3.2,0,6.2-0.2,9.2-0.6v4.8c2.3-3.2,5.1-4.7,8.3-4.7c4.3,0,6.4,2.2,6.4,6.5V216.7z"></path> <path d="M811.1,215.8c-2.2,0.9-4.4,1.3-6.6,1.3c-3.2,0-5.1-1-5.8-2.9c-1.5,2-3.7,3.1-6.6,3.1c-5.3,0-8-2.5-8-7.5 c0-3.8,2.5-6.4,7.3-8c4.5-1.4,6.7-3.1,6.7-5.1c0-2.6-1.3-3.9-3.9-3.9c-3,0-4.5,1.3-4.5,3.8c0,0.8,0.2,1.8,0.7,3.1l-4.6-0.9 c-0.1-0.8-0.2-1.5-0.2-2.2c0-4,3.7-6,11-6c7,0,10.5,1.9,10.5,5.6v15.4c0,1.6,0.5,2.4,1.5,2.4c0.3,0,0.8-0.2,1.4-0.5L811.1,215.8z M798.1,201.4c-0.6,0.7-1.2,1.2-2,1.6c-1.9,1.1-2.8,3-2.8,5.6c0,3.4,0.7,5,2,5c1.9,0,2.9-1.7,2.9-5V201.4z"></path> </g> </g> </svg> 