<?xml version="1.0" encoding="UTF-8"?> <svg xmlns="http://www.w3.org/2000/svg" viewBox="0 0 100 100" fill-rule="evenodd"> <g fill="#ffffff"> <path d="M42.86 41.255c9.294 0 16.854-7.56 16.854-16.853 0-9.291-7.561-16.85-16.854-16.85-9.29 0-16.848 7.559-16.848 16.85 0 9.293 7.558 16.853 16.848 16.853zm0-30.702c7.64 0 13.854 6.213 13.854 13.85 0 7.639-6.215 13.853-13.854 13.853-7.636 0-13.848-6.214-13.848-13.853 0-7.637 6.212-13.85 13.848-13.85z"></path> <path d="M88.399 71.983h-4.484V48.956c0-.384-.146-.752-.411-1.031l-3.673-3.88c1.151-2.315.642-5.202-1.416-6.943l-4.09-3.461a5.719 5.719 0 0 0-4.188-1.34 5.71 5.71 0 0 0-3.913 2.016 5.756 5.756 0 0 0 .676 8.099l4.089 3.463a5.726 5.726 0 0 0 3.709 1.356c1.1 0 2.192-.321 3.137-.935l3.08 3.254v22.431H72.39c-.391-15.688-13.266-28.333-29.047-28.333-15.779 0-28.652 12.645-29.043 28.333h-3.736a1.5 1.5 0 0 0-1.5 1.5v16.427a1.5 1.5 0 0 0 1.5 1.5h77.835a1.5 1.5 0 0 0 1.5-1.5V73.485c0-.83-.672-1.502-1.5-1.502zM72.927 43.587l-4.089-3.463a2.752 2.752 0 0 1-.323-3.872 2.723 2.723 0 0 1 2.101-.972c.648 0 1.271.227 1.771.65l4.09 3.461a2.752 2.752 0 0 1 .321 3.873 2.752 2.752 0 0 1-3.871.323zm-29.584 3.062C57.47 46.649 69 57.948 69.39 71.982H17.3c.389-14.033 11.918-25.333 26.043-25.333zM86.899 88.41H12.064V74.983h74.835V88.41z"></path> </g> </svg> 