<?xml version="1.0" encoding="UTF-8"?> <svg xmlns="http://www.w3.org/2000/svg" id="Layer_2" viewBox="0 0 306.05 112.8"> <g id="Layer_1-2"> <g> <path d="M306.05,60.41v-3.59c0-4.01-3.27-6.02-7.14-6.02-3.64,0-7.09,2.01-7.09,6.02v2.24c0,6.9,8.3,6.34,8.3,11.06v2.24c0,.65-.28,1.4-1.21,1.4s-1.17-.75-1.17-1.4v-4.66h-5.92v4.43c0,4.01,3.45,6.02,7.09,6.02,3.87,0,7.14-2.01,7.14-6.02v-2.15c0-8.21-8.3-7.18-8.3-11.85v-1.54c0-.65,.23-1.4,1.17-1.4s1.21,.75,1.21,1.4v3.83h5.92Zm-23.39,.98v-4.8c0-.65,.23-1.4,1.03-1.4s1.07,.75,1.07,1.4v4.8h-2.1Zm8.02,4.01v-8.58c0-4.01-3.27-6.02-7-6.02s-6.95,2.01-6.95,6.02v15.3c0,4.01,3.17,6.02,6.95,6.02s7-2.01,7-6.02v-4.9h-5.92v5.13c0,.65-.28,1.4-1.07,1.4s-1.03-.75-1.03-1.4v-6.95h8.02Zm-29.09-14.27v22.25c0,2.8,1.07,4.76,4.15,4.76,1.77,0,3.64-1.49,3.78-3.31h.09v2.99h5.92v-26.68h-5.92v20.76c0,.65-.28,1.4-1.07,1.4s-1.03-.75-1.03-1.4v-20.76h-5.92Zm-1.26,0h-5.92v2.8h-.09c-.51-1.87-2.01-3.13-3.78-3.13-3.69,0-4.15,2.99-4.15,5.97v15.53c0,2.99,.47,5.83,4.15,5.83,1.77,0,3.27-1.12,3.78-2.66h.09v16.04h5.92V51.12Zm-8.02,5.92c0-.65,.23-1.4,1.03-1.4s1.07,.75,1.07,1.4v14.83c0,.65-.28,1.4-1.07,1.4s-1.03-.75-1.03-1.4v-14.83Zm-7.22-12.46h-5.92v5.04h5.92v-5.04Zm0,6.53h-5.92v26.68h5.92v-26.68Zm-8.63-4.85h-5.92v4.85h-1.59v4.39h1.59v16.89c0,4.1,.75,5.41,4.99,5.41h2.66v-4.39h-.7c-.89,0-1.03-.98-1.03-1.82v-16.09h1.63v-4.39h-1.63v-4.85Zm-16.44,15.11v-4.8c0-.65,.23-1.4,1.03-1.4s1.07,.75,1.07,1.4v4.8h-2.1Zm8.02,4.01v-8.58c0-4.01-3.27-6.02-7-6.02s-6.95,2.01-6.95,6.02v15.3c0,4.01,3.17,6.02,6.95,6.02s7-2.01,7-6.02v-4.9h-5.92v5.13c0,.65-.28,1.4-1.07,1.4s-1.03-.75-1.03-1.4v-6.95h8.02Zm-29.09-20.81v33.21h5.92v-20.76c0-.65,.23-1.4,1.03-1.4s1.07,.75,1.07,1.4v20.76h5.92v-21.18c0-3.08-.14-5.83-3.92-5.83-1.59,0-3.64,1.03-3.87,2.66h-.23v-8.86h-5.92Zm-2.63,1.68h-5.92v4.85h-1.59v4.39h1.59v16.89c0,4.1,.75,5.41,4.99,5.41h2.66v-4.39h-.7c-.89,0-1.03-.98-1.03-1.82v-16.09h1.63v-4.39h-1.63v-4.85Zm-8.41,14.13v-3.59c0-4.01-3.27-6.02-7.14-6.02-3.64,0-7.09,2.01-7.09,6.02v2.24c0,6.9,8.3,6.34,8.3,11.06v2.24c0,.65-.28,1.4-1.21,1.4s-1.17-.75-1.17-1.4v-4.66h-5.92v4.43c0,4.01,3.45,6.02,7.09,6.02,3.87,0,7.14-2.01,7.14-6.02v-2.15c0-8.21-8.3-7.18-8.3-11.85v-1.54c0-.65,.23-1.4,1.17-1.4s1.21,.75,1.21,1.4v3.83h5.92Zm-23.39,.98v-4.8c0-.65,.23-1.4,1.03-1.4s1.07,.75,1.07,1.4v4.8h-2.1Zm8.02,4.01v-8.58c0-4.01-3.27-6.02-7-6.02s-6.95,2.01-6.95,6.02v15.3c0,4.01,3.17,6.02,6.95,6.02s7-2.01,7-6.02v-4.9h-5.92v5.13c0,.65-.28,1.4-1.07,1.4s-1.03-.75-1.03-1.4v-6.95h8.02Z" style="fill:#231f20;"></path> <path d="M36.52,60.41v-3.59c0-4.01-3.27-6.02-7.14-6.02-3.64,0-7.09,2.01-7.09,6.02v2.24c0,6.9,8.3,6.34,8.3,11.06v2.24c0,.65-.28,1.4-1.21,1.4s-1.17-.75-1.17-1.4v-4.67h-5.92v4.43c0,4.01,3.45,6.02,7.09,6.02,3.87,0,7.14-2.01,7.14-6.02v-2.15c0-8.21-8.3-7.18-8.3-11.85v-1.54c0-.65,.23-1.4,1.17-1.4s1.21,.75,1.21,1.4v3.83h5.92Zm-23.39,.98v-4.81c0-.65,.23-1.4,1.03-1.4s1.07,.75,1.07,1.4v4.81h-2.1Zm8.02,4.01v-8.58c0-4.01-3.27-6.02-7-6.02s-6.95,2.01-6.95,6.02v15.3c0,4.01,3.17,6.02,6.95,6.02s7-2.01,7-6.02v-4.9h-5.92v5.13c0,.65-.28,1.4-1.07,1.4s-1.03-.75-1.03-1.4v-6.95h8.02ZM5.92,0H0V77.81H5.92V0Z" style="fill:#231f20;"></path> <path d="M157.59,60.18v-3.6c0-4.02-3.27-6.03-7.15-6.03-3.65,0-7.1,2.01-7.1,6.03v2.24c0,6.92,8.32,6.36,8.32,11.08v2.24c0,.65-.28,1.4-1.22,1.4s-1.17-.75-1.17-1.4v-4.67h-5.94v4.44c0,4.02,3.46,6.03,7.1,6.03,3.88,0,7.15-2.01,7.15-6.03v-2.15c0-8.23-8.32-7.2-8.32-11.87v-1.54c0-.65,.23-1.4,1.17-1.4s1.22,.75,1.22,1.4v3.83h5.94Zm-23.44,.98v-4.81c0-.65,.23-1.4,1.03-1.4s1.08,.75,1.08,1.4v4.81h-2.1Zm8.04,4.02v-8.6c0-4.02-3.27-6.03-7.01-6.03s-6.96,2.01-6.96,6.03v15.33c0,4.02,3.18,6.03,6.96,6.03s7.01-2.01,7.01-6.03v-4.91h-5.94v5.14c0,.65-.28,1.4-1.08,1.4s-1.03-.75-1.03-1.4v-6.96h8.04Zm-15.26-20.85h-5.94v33.28h5.94V44.33Zm-7.33,0h-5.94v33.28h5.94V44.33Zm-15.27,16.83v-4.81c0-.65,.23-1.4,1.03-1.4s1.07,.75,1.07,1.4v4.81h-2.1Zm8.04,4.02v-8.6c0-4.02-3.27-6.03-7.01-6.03s-6.96,2.01-6.96,6.03v15.33c0,4.02,3.18,6.03,6.96,6.03s7.01-2.01,7.01-6.03v-4.91h-5.94v5.14c0,.65-.28,1.4-1.07,1.4s-1.03-.75-1.03-1.4v-6.96h8.04Zm-29.58-14.3l3.93,26.74h7.24l3.88-26.74h-5.42l-1.87,20.43h-.09l-1.54-20.43h-6.12Zm-14.86,0v22.3c0,2.8,1.07,4.77,4.16,4.77,1.78,0,3.65-1.5,3.79-3.32h.09v2.99h5.94v-26.74h-5.94v20.8c0,.65-.28,1.4-1.07,1.4s-1.03-.75-1.03-1.4v-20.8h-5.94Zm-7.14,21.27c0,.65-.28,1.4-1.07,1.4s-1.03-.75-1.03-1.4v-15.8c0-.65,.23-1.4,1.03-1.4s1.07,.75,1.07,1.4v15.8Zm5.94-15.56c0-4.02-3.27-6.03-7.01-6.03s-6.96,2.01-6.96,6.03v15.33c0,4.02,3.18,6.03,6.96,6.03s7.01-2.01,7.01-6.03v-15.33Zm-23.22-5.7h-5.94v26.74h5.94v-20.8c0-.65,.23-1.4,1.03-1.4s1.07,.75,1.07,1.4v20.8h5.94v-21.22c0-3.08-.14-5.84-3.93-5.84-1.59,0-3.65,1.03-4.02,2.66h-.09v-2.34Z" style="fill:#ed1c24;"></path> </g> <g> <path d="M37.42,83.75h1.21v5.04h7.84v-5.04h1.21v12.07h-1.21v-5.88h-7.84v5.88h-1.21v-12.07Z" style="fill:#231f20;"></path> <path d="M61.25,96.14c-3.96,0-6.33-2.43-6.33-6.35s2.38-6.35,6.33-6.35,6.35,2.43,6.35,6.35-2.39,6.35-6.35,6.35Zm5.12-6.35c0-3.24-1.93-5.19-5.12-5.19s-5.12,1.94-5.12,5.19,1.93,5.19,5.12,5.19,5.12-1.94,5.12-5.19Z" style="fill:#231f20;"></path> <path d="M74.85,83.75h5.87c2.51,0,3.79,1.06,3.79,3.04,0,1.28-.61,2.16-1.88,2.66,1.51,.3,2.34,1.3,2.34,2.86,0,2.41-1.4,3.51-4.27,3.51h-5.85v-12.07Zm5.5,5.19c1.98,0,2.93-.48,2.93-2.04s-.9-2.03-2.81-2.03h-4.39v4.07h4.27Zm.23,5.67c2.09,0,3.12-.58,3.12-2.18,0-1.71-.9-2.41-2.86-2.41h-4.77v4.59h4.5Z" style="fill:#231f20;"></path> <path d="M98,96.14c-3.96,0-6.33-2.43-6.33-6.35s2.38-6.35,6.33-6.35,6.35,2.43,6.35,6.35-2.39,6.35-6.35,6.35Zm5.12-6.35c0-3.24-1.93-5.19-5.12-5.19s-5.12,1.94-5.12,5.19,1.93,5.19,5.12,5.19,5.12-1.94,5.12-5.19Z" style="fill:#231f20;"></path> <path d="M117.45,84.6c-3.16,0-5.09,1.96-5.09,5.19s1.93,5.17,4.85,5.17c2.43,0,4.27-1.41,4.75-3.67h1.3c-.55,2.97-2.86,4.85-6.02,4.85-3.69,0-6.12-2.48-6.12-6.35s2.38-6.35,6.33-6.35c3.14,0,5.22,1.63,5.6,4.25h-1.23c-.47-1.96-2.03-3.09-4.39-3.09Z" style="fill:#231f20;"></path> <path d="M133.47,84.87h-4.67v-1.11h10.54v1.11h-4.67v10.95h-1.2v-10.95Z" style="fill:#231f20;"></path> <path d="M157.16,95.82h-1.18v-10.82l-8.36,10.82h-1.61v-12.07h1.18v10.82l8.43-10.82h1.55v12.07Z" style="fill:#231f20;"></path> </g> <g> <path d="M37.04,104.35c.38-2.63,2.46-4.25,5.6-4.25,3.96,0,6.33,2.43,6.33,6.35s-2.43,6.35-6.12,6.35c-3.16,0-5.47-1.88-6.02-4.85h1.3c.48,2.26,2.33,3.67,4.75,3.67,2.88,0,4.79-1.91,4.85-5.02h-6.78v-1.15h6.71c-.37-2.63-2.19-4.19-5.02-4.19-2.36,0-3.92,1.13-4.39,3.09h-1.23Z" style="fill:#231f20;"></path> <path d="M60.02,101.26c-3.16,0-5.09,1.96-5.09,5.19s1.93,5.17,4.85,5.17c2.43,0,4.27-1.41,4.75-3.67h1.3c-.55,2.97-2.86,4.85-6.02,4.85-3.69,0-6.12-2.48-6.12-6.35s2.38-6.35,6.33-6.35c3.14,0,5.22,1.63,5.6,4.25h-1.23c-.47-1.96-2.03-3.09-4.39-3.09Z" style="fill:#231f20;"></path> <path d="M74.15,101.53h-4.67v-1.11h10.54v1.11h-4.67v10.95h-1.2v-10.95Z" style="fill:#231f20;"></path> <path d="M84.79,100.41h9.26v1.13h-8.06v4.22h7.45v1.13h-7.45v4.44h8.06v1.15h-9.26v-12.07Z" style="fill:#231f20;"></path> <path d="M103.17,101.53h-4.67v-1.11h10.54v1.11h-4.67v10.95h-1.2v-10.95Z" style="fill:#231f20;"></path> <path d="M124.95,112.48h-1.18v-10.82l-8.36,10.82h-1.61v-12.07h1.18v10.82l8.43-10.82h1.55v12.07Z" style="fill:#231f20;"></path> <path d="M130.85,100.41h1.21v6.6l7.46-6.6h1.68l-5.68,5.05,5.68,7.01h-1.55l-5.04-6.23-2.56,2.24v3.99h-1.21v-12.07Z" style="fill:#231f20;"></path> <path d="M157.18,112.48h-1.18v-10.82l-8.36,10.82h-1.61v-12.07h1.18v10.82l8.43-10.82h1.55v12.07Z" style="fill:#231f20;"></path> </g> </g> </svg> 