<?xml version="1.0" encoding="UTF-8"?> <!-- Generator: Adobe Illustrator 25.4.1, SVG Export Plug-In . SVG Version: 6.00 Build 0) --> <svg xmlns="http://www.w3.org/2000/svg" xmlns:xlink="http://www.w3.org/1999/xlink" id="Layer_1" x="0px" y="0px" viewBox="0 0 220.8 35.4" style="enable-background:new 0 0 220.8 35.4;" xml:space="preserve"> <style type="text/css"> .st0{fill-rule:evenodd;clip-rule:evenodd;fill:#FFFFFF;} .st1{fill-rule:evenodd;clip-rule:evenodd;fill:#FF0000;} </style> <polygon class="st0" points="24.4,9.3 24.4,35.4 17.1,35.4 17.1,17.2 12,35.4 7.8,35.4 2.5,17.5 2.5,35.4 0,35.4 0,9.3 7.7,9.3 12.2,25 16.6,9.3 "></polygon> <polygon class="st0" points="45.7,9.2 45.7,11.9 36.3,11.9 36.3,19.8 44.2,19.8 44.2,22.4 36.3,22.4 36.3,32.8 47.3,32.8 47.3,35.4 28.8,35.4 28.8,9.2 "></polygon> <path class="st1" d="M74.3,10.1L69.7,11c0.2-0.8,0.3-1.5,0.3-2.3c0-4-2.4-6-7.2-6c-3.8,0-5.7,1.4-5.7,4.1c0,2.1,2.1,3.8,6.4,5.3 c8.2,2.8,12.3,7,12.3,12.5c0.1,3-1.2,5.9-3.4,7.8c-2.3,2-5.4,2.9-9.2,2.9c-8.5,0-12.7-3.3-12.7-9.8c0-0.7,0-1.3,0.1-2l4.8-1 c-0.3,1.2-0.5,2.5-0.5,3.8c0,4.2,2.4,6.4,7.3,6.3c3.9,0,5.8-1.5,5.8-4.6c0-2.3-2.3-4.3-7-6c-6.7-2.5-10.1-6.4-10.1-11.8 c-0.1-2.9,1.1-5.6,3.4-7.4C56.7,0.8,59.8-0.2,63,0C70.5,0,74.3,3.4,74.3,10.1"></path> <path class="st1" d="M93.7,0c9.9,0,14.9,5.9,14.9,17.7s-5.1,17.7-15.2,17.7c-10.1,0-15.2-6-15.2-18.1C78.2,5.8,83.4,0,93.7,0 M93.4,2.7c-1.9,0-3.1,1-3.8,3.1s-1,6-1,11.8s0.3,9.8,1,11.9s1.9,3.1,3.8,3.1s3.1-1,3.8-3.1s1-6,1-11.9s-0.3-9.8-1-11.8 S95.3,2.7,93.4,2.7"></path> <path class="st0" d="M111.4,35.4V9.3h11.3c6.4,0,9.6,2.6,9.6,7.7s-3.6,7.8-10.7,7.8H119v10.7H111.4z M119,22.3h1.7 c2.8,0,4.1-1.8,4.1-5.5c0-3.4-1.4-5.1-4.1-5.1H119V22.3z"></path> <path class="st0" d="M134.7,35.4V9.2H146c2.5-0.1,4.9,0.5,7,1.9c1.7,1.1,2.7,3,2.6,5c0,3.2-1.9,5.2-5.6,6.2c1.5,0.4,2.8,1.2,3.8,2.4 c0.6,0.9,0.9,2.5,1.1,5c0.3,2.9,0.7,4.9,1.5,5.8h-8.2c-0.6-1.4-0.8-3-0.8-4.5v-1.6v-2c0-3-1.2-4.5-3.6-4.5h-1.3v12.5H134.7z M142.3,20.7h1.5c2.9,0,4.3-1.5,4.3-4.5s-1.4-4.5-4.3-4.5h-1.5V20.7z"></path> <path class="st0" d="M169.7,8.4c7.6,0,11.4,4.5,11.4,13.5c0,9-3.9,13.5-11.6,13.5c-7.8,0-11.6-4.6-11.6-13.8 C157.9,12.8,161.8,8.3,169.7,8.4 M169.5,10.4c-1.4,0-2.6,1-2.9,2.4c-0.5,1.6-0.8,4.6-0.8,9.1s0.3,7.5,0.8,9.1 c0.4,1.6,2.1,2.6,3.7,2.1c1-0.3,1.9-1.1,2.1-2.1c0.5-1.6,0.8-4.6,0.8-9.1s-0.2-7.5-0.8-9.1C172.2,11.4,170.9,10.4,169.5,10.4"></path> <polygon class="st0" points="200.9,9.3 200.9,11.9 191.4,11.9 191.4,20.6 199.4,20.6 199.4,23.2 191.4,23.2 191.4,35.4 183.8,35.4 183.8,9.3 "></polygon> <polygon class="st0" points="220.8,9.3 220.8,11.9 211.3,11.9 211.3,20.6 219.4,20.6 219.4,23.2 211.3,23.2 211.3,35.4 203.7,35.4 203.7,9.3 "></polygon> </svg> 