<?xml version="1.0" encoding="UTF-8"?> <!-- Generator: Adobe Illustrator 26.5.0, SVG Export Plug-In . SVG Version: 6.00 Build 0) --> <svg xmlns="http://www.w3.org/2000/svg" xmlns:xlink="http://www.w3.org/1999/xlink" id="Layer_2_00000127005242883331288810000009094232506698311865_" x="0px" y="0px" viewBox="0 0 130 180" style="enable-background:new 0 0 130 180;" xml:space="preserve"> <style type="text/css"> .st0{opacity:0.25;} .st1{fill:#3C415A;} .st2{fill:none;} .st3{fill:#FF8000;} </style> <g class="st0"> <path class="st1" d="M110.6,2.8c6.8,0,12.2,5.5,12.2,12.2v101.7h-102c-6.8,0-12.2-5.5-12.2-12.2V15.1c0-6.8,5.5-12.2,12.2-12.2 L110.6,2.8 M110.6,0H20.8C12.5,0,5.7,6.8,5.7,15.1v89.4c0,8.3,6.8,15.1,15.1,15.1h104.9V15.1C125.7,6.8,119,0,110.6,0L110.6,0 L110.6,0z"></path> <g> <path class="st2" d="M44,91c0-2.8,2-5,4.7-5s4.6,2,4.6,5s-1.9,5-4.8,5C45.9,96,44,93.9,44,91z"></path> <path class="st2" d="M60.3,91c0-2.8,2-5,4.7-5c2.7,0,4.6,2,4.6,5s-1.9,5-4.8,5C62.2,96,60.3,93.9,60.3,91z"></path> <path class="st2" d="M76.6,91c0-2.8,2-5,4.7-5s4.6,2,4.6,5s-1.9,5-4.8,5C78.5,96,76.6,93.9,76.6,91z"></path> </g> </g> <path class="st3" d="M40.9,156.1l-7.1,16.3c-1.2,2.9-3,4.3-5.2,4.3c-0.6,0-1.1-0.1-1.7-0.3v-2.9c0.3,0.1,0.7,0.2,1.2,0.2 s1-0.1,1.4-0.4s0.7-0.8,1.1-1.5l0.7-1.7L23.7,156h3.9l4.5,8.7c0.4,0.7,0.7,1.3,0.9,2h0c0-0.1,0.3-0.8,0.8-2l3.5-8.6H40.9L40.9,156.1 z"></path> <path class="st3" d="M50.6,176.5v-20.4h5.2c2.1,0,3.8,0.4,5,1.4s1.8,2.2,1.8,3.8c0,1.1-0.3,2-1,2.8c-0.7,0.7-1.5,1.3-2.5,1.6v0.1 c1.5,0.2,2.7,0.8,3.5,1.7c0.8,1,1.2,2.1,1.2,3.4c0,1.8-0.7,3.2-2,4.3c-1.3,1-3,1.5-5,1.5L50.6,176.5L50.6,176.5z M59.2,161.6 c0-0.9-0.3-1.6-0.9-2s-1.5-0.7-2.5-0.7H54v5.6h1.8c1.1,0,1.9-0.3,2.5-0.8S59.2,162.5,59.2,161.6z M60.4,170.5c0-1-0.3-1.8-1-2.3 s-1.6-0.9-2.8-0.9H54v6.4h2.8c1.2,0,2.1-0.3,2.7-0.9S60.4,171.5,60.4,170.5L60.4,170.5z"></path> <path class="st3" d="M65.2,176.5l8.1-20.4h3.2l7.7,20.4h-3.7l-1.8-5h-8.1l-1.8,5C68.8,176.5,65.2,176.5,65.2,176.5z M73.4,163.6 l-1.9,5.2h6.3l-1.9-5.2c-0.4-1.2-0.8-2.3-1.1-3.5h-0.2C74.3,161.3,73.9,162.5,73.4,163.6z"></path> <path class="st3" d="M95.4,155.5c2.6,0,4.7,0.7,6.4,2c1.6,1.3,2.7,2.9,3.2,4.6h-3.9c-0.4-1-1.1-1.9-2.1-2.6c-1-0.7-2.2-1-3.7-1 c-1.9,0-3.6,0.7-4.9,2.1c-1.3,1.4-2,3.3-2,5.6c0,2.2,0.7,4.1,2,5.6s3,2.3,5.1,2.3c1.5,0,2.7-0.4,3.7-1.1s1.7-1.7,2.2-2.8h3.9 c-0.8,2.1-2,3.8-3.7,5.1s-3.8,1.9-6.3,1.9c-3.1,0-5.6-1-7.6-3.1s-2.9-4.7-2.9-7.8s1-5.7,3-7.7C89.8,156.5,92.3,155.5,95.4,155.5 L95.4,155.5z"></path> <g> <path class="st2" d="M5,64.1C5.3,30.5,31.9,5,63.5,4.2C97.9,3.4,124,31,125,62.3c1,33.5-25.6,61.1-58.5,61.9 C33.4,124.9,5.2,98.7,5,64.1L5,64.1z M121.8,64.3c0-31.8-25.3-56.9-57.4-56.9C33.8,7.3,8.2,33.1,8.1,64C8,95.1,33.6,121,64.4,121 C96.4,121,121.8,95.9,121.8,64.3z"></path> <path class="st1" d="M104.7,62.1c0,6.9,0,13.8,0,20.8c0,1.3-0.3,1.8-1.7,1.7c-4.7-0.1-9.4-0.1-14.2,0c-1.2,0-1.6-0.3-1.6-1.6 c0.1-14,0.1-27.9,0-41.9c0-1.3,0.3-1.8,1.7-1.8c4.7,0.1,9.4,0.1,14.2,0c1.4,0,1.6,0.4,1.6,1.6C104.6,48,104.7,55,104.7,62.1 L104.7,62.1z"></path> <path class="st1" d="M84.6,67c0,5.4,0,10.7,0,16.1c0,1.2-0.3,1.5-1.5,1.5c-4.8-0.1-9.7-0.1-14.5,0c-1.1,0-1.4-0.3-1.4-1.4 c0-10.7,0.1-21.5,0-32.2c0-1.2,0.2-1.7,1.6-1.7c4.7,0.1,9.4,0.1,14.2,0c1.5,0,1.7,0.5,1.7,1.8C84.5,56.4,84.5,61.7,84.6,67L84.6,67 z"></path> <path class="st3" d="M82.7,43.9c-1.7-2.3-3.1-4.2-4.5-6.2c-11.9,9-26.3,9.1-34.2,5.5c8-1.4,15.1-4.5,21-10c1.6-1.5,3.6-2.9,4.3-4.9 c0.8-2.2-1.7-3.8-2.4-5.8c-0.2-0.5-0.5-0.9-0.7-1.3c0.3-0.6,0.9-0.4,1.3-0.4c6.5,0,12.9,0,19.4,0c1.2,0,1.7,0.1,1.3,1.6 C86.2,29.4,84.5,36.4,82.7,43.9L82.7,43.9z"></path> <path class="st1" d="M40.8,94.4c-4.5,0-9,0-13.6,0c-1.3,0-1.8-0.2-1.8-1.7c0.1-3.4,0-6.8,0-10.3c0-3.7,1.9-5.7,5.6-6.1 c0.5,0,0.9-0.1,1.3-0.1c2-0.1,3.7-0.1,4.2,2.6c0.3,1.7,1.5,3.2,2.9,4.4c1,0.8,1.8,0.7,2.7-0.1c1.8-1.5,2.8-3.4,3.3-5.6 c0.3-1.1,0.8-1.5,1.9-1.4c1,0.1,1.9,0,2.9,0c3.8,0.3,5.7,2.1,5.9,5.8c0.2,3.7,0.1,7.4,0.1,11.1c0,1.2-0.6,1.2-1.5,1.2 C50.2,94.4,45.5,94.4,40.8,94.4z"></path> <path class="st1" d="M41,74.9c-6.7,0.1-12.1-5.2-12.1-12s5.3-12.2,12-12.3c6.6,0,12.1,5.5,12.1,12.1C53.1,69.4,47.6,74.9,41,74.9 L41,74.9z"></path> <path class="st1" d="M51.4,73.6c3.3-3.6,4.8-7.6,4.4-12.2c-0.1-0.9,0.4-0.9,1.1-0.9c2.2,0,4.4,0,6.6,0c0.8,0,1.1,0.3,1.1,1.1 c0,7.3,0,14.6,0,21.9c0,0.8-0.3,1.2-1.1,1.1c-0.1,0-0.3,0-0.4,0c-1.2,0-2.6,0.3-3.4-0.2c-0.9-0.5-0.3-2-0.4-3.1 C58.5,76.9,55.9,74.5,51.4,73.6L51.4,73.6z"></path> </g> </svg> 