<?xml version="1.0" encoding="UTF-8"?> <svg xmlns="http://www.w3.org/2000/svg" viewBox="0 0 616.79 174.53"> <defs> <style>.cls-1{fill:#335f6e;}</style> </defs> <g id="Layer_2" data-name="Layer 2"> <g id="Layer_1-2" data-name="Layer 1"> <path class="cls-1" d="M0,22.28V.7H6.27A9.14,9.14,0,0,1,12,2.37a5.91,5.91,0,0,1,2.16,5,6.25,6.25,0,0,1-2,4.95C10.85,13.46,8.81,14.05,6,14.05H2.63v8.23ZM11.49,7.41a4.08,4.08,0,0,0-1.24-3.15A5.34,5.34,0,0,0,6.49,3.1H2.63v8.58H6.39C9.79,11.68,11.49,10.25,11.49,7.41Z"></path> <path class="cls-1" d="M30.44.7V3.1H21.23V9.91h8.86v2.4H21.23v7.56h9.56v2.41H18.61V.7Z"></path> <path class="cls-1" d="M36.68,22.28V.7H48.86V3.1H39.3V22.28Z"></path> <path class="cls-1" d="M65,.7V3.1H55.79V9.91h8.86v2.4H55.79v7.56h9.56v2.41H53.16V.7Z"></path> <path class="cls-1" d="M85.73,22.28v-10H73.86v10H71.23V.7h2.63V9.91H85.73V.7h2.62V22.28Z"></path> <path class="cls-1" d="M106.39.7V3.1H97.18V9.91H106v2.4H97.18v7.56h9.56v2.41H94.55V.7Z"></path> <path class="cls-1" d="M112.62,22.28V.7h6.27a9.19,9.19,0,0,1,5.76,1.67,5.94,5.94,0,0,1,2.15,5,6.24,6.24,0,0,1-2,4.95q-2,1.76-6.14,1.76h-3.42v8.23ZM124.11,7.41a4.11,4.11,0,0,0-1.23-3.15,5.37,5.37,0,0,0-3.77-1.16h-3.86v8.58H119C122.41,11.68,124.11,10.25,124.11,7.41Z"></path> <path class="cls-1" d="M127.37,22.28,136.17.7h2.34l8.54,21.58h-2.88L142,16.46H132.4l-2.25,5.82Zm8.26-14.21-2.34,6h7.78L138.79,8c-.57-1.5-1.06-3-1.48-4.37h-.13C136.8,4.92,136.28,6.38,135.63,8.07Z"></path> <path class="cls-1" d="M165.63,22.28v-10H153.76v10h-2.62V.7h2.62V9.91h11.87V.7h2.63V22.28Z"></path> <path class="cls-1" d="M178.22,22.28V3.1h-5.66V.7h13.95V3.1h-5.66V22.28Z"></path> <path class="cls-1" d="M190.82,22.28V.7h2.62V9.91H197a8.1,8.1,0,0,1,5.16,1.59,5.45,5.45,0,0,1,2,4.54,5.56,5.56,0,0,1-2,4.59A7.9,7.9,0,0,1,197,22.28ZM201.48,16a3.32,3.32,0,0,0-1.22-2.75,5.45,5.45,0,0,0-3.49-1h-3.33v7.56h3.77a4.42,4.42,0,0,0,3.2-1A3.74,3.74,0,0,0,201.48,16Zm5.7,6.24V.7h2.62V22.28Z"></path> <path class="cls-1" d="M239.93,22.28v-10H228.06v10h-2.62V.7h2.62V9.91h11.87V.7h2.63V22.28Z"></path> <path class="cls-1" d="M246.64,22.28,255.44.7h2.34l8.54,21.58h-2.88l-2.21-5.82h-9.56l-2.25,5.82ZM254.9,8.07l-2.34,6h7.78L258.06,8c-.57-1.5-1.06-3-1.48-4.37h-.13C256.07,4.92,255.55,6.38,254.9,8.07Z"></path> <path class="cls-1" d="M278.69,11.49A11.24,11.24,0,0,1,282,3.39,10.9,10.9,0,0,1,290.15,0a10.74,10.74,0,0,1,8.27,3.39,11.45,11.45,0,0,1,3.15,8.1,11.17,11.17,0,0,1-3.29,8.13A10.91,10.91,0,0,1,290.15,23a12.23,12.23,0,0,1-5.08-1,9.66,9.66,0,0,1-3.62-2.73,12.28,12.28,0,0,1-2.76-7.73Zm2.73,0a9.06,9.06,0,0,0,2.5,6.53,8.69,8.69,0,0,0,12.42,0,9.07,9.07,0,0,0,2.51-6.53A9.23,9.23,0,0,0,296.42,5a8.8,8.8,0,0,0-12.5,0A9,9,0,0,0,281.42,11.49Z"></path> <path class="cls-1" d="M316.64,0a12.37,12.37,0,0,1,3.86.57,8.91,8.91,0,0,1,2.91,1.53,11.35,11.35,0,0,1,1.91,2,10,10,0,0,1,1.22,2.15h-3A6.47,6.47,0,0,0,321,3.42a8.32,8.32,0,0,0-4.36-1.08,8.1,8.1,0,0,0-5.91,2.44,8.94,8.94,0,0,0-2.47,6.68A9.32,9.32,0,0,0,310.64,18a7.93,7.93,0,0,0,6.12,2.64,8.1,8.1,0,0,0,4.42-1.15,7,7,0,0,0,2.7-3.15h3Q323.72,23,316.64,23a10.59,10.59,0,0,1-8-3.27,11.54,11.54,0,0,1-3.1-8.28,11.19,11.19,0,0,1,3.19-8.18A10.71,10.71,0,0,1,316.64,0Z"></path> <path class="cls-1" d="M346.83,22.28v-10H335v10h-2.63V.7H335V9.91h11.87V.7h2.62V22.28Z"></path> <path class="cls-1" d="M354.52,11.49a11.23,11.23,0,0,1,3.27-8.1A10.9,10.9,0,0,1,366,0a10.77,10.77,0,0,1,8.28,3.39,11.45,11.45,0,0,1,3.15,8.1,11.18,11.18,0,0,1-3.3,8.13A10.91,10.91,0,0,1,366,23a12.23,12.23,0,0,1-5.08-1,9.74,9.74,0,0,1-3.62-2.73,12.35,12.35,0,0,1-2.06-3.67A12.2,12.2,0,0,1,354.52,11.49Zm2.72,0a9.06,9.06,0,0,0,2.5,6.53,8.69,8.69,0,0,0,12.42,0,9.07,9.07,0,0,0,2.51-6.53A9.23,9.23,0,0,0,372.24,5a8.8,8.8,0,0,0-12.5,0A9,9,0,0,0,357.24,11.49Z"></path> <path class="cls-1" d="M382.46,22.28V.7h4.78a8.15,8.15,0,0,1,5.19,1.48,4.89,4.89,0,0,1,1.86,4q0,3.33-3.51,4.59v.06a5.48,5.48,0,0,1,3.75,1.78,5.42,5.42,0,0,1,1.31,3.7,5.21,5.21,0,0,1-2,4.43,8.35,8.35,0,0,1-5.17,1.52ZM391.6,6.42a2.84,2.84,0,0,0-1.2-2.5,5.57,5.57,0,0,0-3.16-.82h-2.16V9.91h2.35a4.55,4.55,0,0,0,3.05-1A3.15,3.15,0,0,0,391.6,6.42Zm1.52,9.72a3.46,3.46,0,0,0-1.23-2.82,5.38,5.38,0,0,0-3.48-1h-3.33v7.56h3.77a4.5,4.5,0,0,0,3.2-1A3.57,3.57,0,0,0,393.12,16.14Z"></path> <path class="cls-1" d="M412.9.7V3.1h-9.21V9.91h8.86v2.4h-8.86v7.56h9.56v2.41H401.06V.7Z"></path> <path class="cls-1" d="M12.94,71.18V52H2.63V71.18H0V49.6H15.57V71.18Z"></path> <path class="cls-1" d="M20.63,60.39a11.23,11.23,0,0,1,3.28-8.1,10.93,10.93,0,0,1,8.18-3.38,10.78,10.78,0,0,1,8.27,3.38,11.49,11.49,0,0,1,3.15,8.1,11.17,11.17,0,0,1-3.29,8.14,11,11,0,0,1-8.13,3.35,12.07,12.07,0,0,1-5.08-1,9.54,9.54,0,0,1-3.62-2.72,12.25,12.25,0,0,1-2.06-3.67A12,12,0,0,1,20.63,60.39Zm2.72,0a9.11,9.11,0,0,0,2.5,6.54,8.26,8.26,0,0,0,6.21,2.61,8.28,8.28,0,0,0,6.21-2.61,9,9,0,0,0,2.52-6.54,9.18,9.18,0,0,0-2.44-6.53,8.21,8.21,0,0,0-6.29-2.61,8.28,8.28,0,0,0-6.21,2.59A9.1,9.1,0,0,0,23.35,60.39Z"></path> <path class="cls-1" d="M53.16,52,52.06,66.5a6.28,6.28,0,0,1-1.27,3.74,3.88,3.88,0,0,1-3,1.13,4.6,4.6,0,0,1-1.48-.25V68.84a2.85,2.85,0,0,0,1.23.19,1.66,1.66,0,0,0,1.35-.55,3.74,3.74,0,0,0,.58-2l1.3-16.9H64.4V71.18H61.77V52Z"></path> <path class="cls-1" d="M70.6,49.6h2.63V62.48c0,2.24,0,3.77-.07,4.59h.07c.38-.69,1.89-3.06,4.55-7.09L84.65,49.6h2.47V71.18H84.49V58.27c0-1.45,0-3,.07-4.52h-.07c-.36.67-1.88,3-4.55,7L73.07,71.18H70.6Z"></path> <path class="cls-1" d="M91.61,76.72V68.78h.54a3.5,3.5,0,0,0,2.74-1.55q1.22-1.55,1.47-5.22l.88-12.41h13.68V68.78h2.62v7.94h-2.62V71.18H94.24v5.54Zm16.68-7.94V52H99.68L99,62q-.33,4.77-2.31,6.77Z"></path> <path class="cls-1" d="M130.19,49.6V52H121v6.8h8.86v2.41H121v7.56h9.56v2.4H118.35V49.6Z"></path> <path class="cls-1" d="M135.28,65.93h2.79a3.83,3.83,0,0,0,1.39,2.57,4.48,4.48,0,0,0,2.91.94,4,4,0,0,0,3-1.18,4.24,4.24,0,0,0,1.15-3.09A4.19,4.19,0,0,0,142,60.84h-2.28V58.43H142a3.54,3.54,0,0,0,2.71-1.06,3.64,3.64,0,0,0,1-2.58,3.41,3.41,0,0,0-1-2.47,3.33,3.33,0,0,0-2.5-1A3.44,3.44,0,0,0,140,52,3,3,0,0,0,139,54H136.2a5.09,5.09,0,0,1,1.91-3.7,6.51,6.51,0,0,1,4.23-1.39,5.94,5.94,0,0,1,4.35,1.66,5.65,5.65,0,0,1,1.69,4.22,4.75,4.75,0,0,1-.84,2.77,5.32,5.32,0,0,1-2.38,1.88v.1a5.75,5.75,0,0,1,2.94,2.13,5.84,5.84,0,0,1,1.11,3.5,6.37,6.37,0,0,1-2,4.76,6.71,6.71,0,0,1-4.9,1.92,7.27,7.27,0,0,1-4.86-1.66A6.19,6.19,0,0,1,135.28,65.93Z"></path> <path class="cls-1" d="M153.64,60.39a11.26,11.26,0,0,1,3.27-8.1,10.93,10.93,0,0,1,8.18-3.38,10.8,10.8,0,0,1,8.28,3.38,11.49,11.49,0,0,1,3.15,8.1,11.18,11.18,0,0,1-3.3,8.14,11,11,0,0,1-8.13,3.35,12.07,12.07,0,0,1-5.08-1,9.61,9.61,0,0,1-3.62-2.72,12.47,12.47,0,0,1-2.06-3.67A12.25,12.25,0,0,1,153.64,60.39Zm2.72,0a9.07,9.07,0,0,0,2.5,6.54,8.69,8.69,0,0,0,12.42,0,9,9,0,0,0,2.51-6.54,9.22,9.22,0,0,0-2.43-6.53,8.81,8.81,0,0,0-12.5,0A9.06,9.06,0,0,0,156.36,60.39Z"></path> <path class="cls-1" d="M194.9,71.18,184.21,60.3V71.18h-2.63V49.6h2.63V60.08L194.62,49.6H198L187.37,60.08l11.11,11.1Z"></path> <path class="cls-1" d="M211,48.91a12.37,12.37,0,0,1,3.86.57A8.91,8.91,0,0,1,217.81,51a11.1,11.1,0,0,1,1.92,2,10.13,10.13,0,0,1,1.21,2.15h-3a6.54,6.54,0,0,0-2.61-2.82A8.35,8.35,0,0,0,211,51.25a8.15,8.15,0,0,0-5.92,2.43,9,9,0,0,0-2.47,6.68A9.33,9.33,0,0,0,205,66.9a8.64,8.64,0,0,0,10.54,1.48,7.08,7.08,0,0,0,2.71-3.14h3q-3.13,6.65-10.22,6.64a10.59,10.59,0,0,1-8-3.27,11.57,11.57,0,0,1-3.1-8.28,11.18,11.18,0,0,1,3.2-8.18A10.71,10.71,0,0,1,211,48.91Z"></path> <path class="cls-1" d="M226.74,49.6h2.62V62.48q0,3.36-.06,4.59h.06c.38-.69,1.9-3.06,4.56-7.09l6.87-10.38h2.46V71.18h-2.62V58.27c0-1.45,0-3,.06-4.52h-.06c-.36.67-1.88,3-4.56,7L229.2,71.18h-2.46Z"></path> <path class="cls-1" d="M249.46,71.18V49.6h6.26a9.09,9.09,0,0,1,5.76,1.68,5.9,5.9,0,0,1,2.15,5,6.24,6.24,0,0,1-2,5q-2,1.75-6.14,1.76h-3.42v8.22Zm11.48-14.87a4.11,4.11,0,0,0-1.23-3.15A5.35,5.35,0,0,0,255.94,52h-3.86v8.57h3.77C259.25,60.58,260.94,59.16,260.94,56.31Z"></path> <path class="cls-1" d="M268.06,49.6h2.63V62.48q0,3.36-.06,4.59h.06c.38-.69,1.9-3.06,4.56-7.09l6.86-10.38h2.47V71.18H282V58.27c0-1.45,0-3,.06-4.52H282c-.36.67-1.88,3-4.56,7l-6.87,10.38h-2.47Z"></path> <path class="cls-1" d="M290.78,49.6h11.84V52h-9.21v6.8H297a8.07,8.07,0,0,1,5.16,1.6,5.44,5.44,0,0,1,2,4.54,5.59,5.59,0,0,1-2,4.59A7.92,7.92,0,0,1,297,71.18h-6.21ZM301.45,65a3.33,3.33,0,0,0-1.22-2.75,5.43,5.43,0,0,0-3.5-1h-3.32v7.56h3.77a4.42,4.42,0,0,0,3.19-1A3.71,3.71,0,0,0,301.45,65Z"></path> <path class="cls-1" d="M308.09,60.39a11.27,11.27,0,0,1,3.28-8.1,10.93,10.93,0,0,1,8.18-3.38,10.76,10.76,0,0,1,8.27,3.38,11.49,11.49,0,0,1,3.15,8.1,11.17,11.17,0,0,1-3.29,8.14,11,11,0,0,1-8.13,3.35,12.07,12.07,0,0,1-5.08-1,9.54,9.54,0,0,1-3.62-2.72,12.28,12.28,0,0,1-2.76-7.74Zm2.73,0a9.07,9.07,0,0,0,2.5,6.54,8.69,8.69,0,0,0,12.42,0,9.07,9.07,0,0,0,2.51-6.54,9.22,9.22,0,0,0-2.43-6.53,8.81,8.81,0,0,0-12.5,0A9.06,9.06,0,0,0,310.82,60.39Z"></path> <path class="cls-1" d="M350.53,71.18v-10H338.66v10H336V49.6h2.62v9.21h11.87V49.6h2.63V71.18Z"></path> <path class="cls-1" d="M374.39,49.6l-7.5,17.72q-1.74,4.05-4.84,4.05a3.79,3.79,0,0,1-1.33-.19V69a3.46,3.46,0,0,0,1.07.13,2.49,2.49,0,0,0,1.46-.43A3.83,3.83,0,0,0,364.36,67l1-2.44-8-15h2.94L365.72,60a16.65,16.65,0,0,1,.88,2h.07c.06-.21.34-.9.82-2.06l4.18-10.35Z"></path> <path class="cls-1" d="M391.92,71.18,381.23,60.3V71.18H378.6V49.6h2.63V60.08L391.64,49.6h3.41L384.39,60.08l11.11,11.1Z"></path> <path class="cls-1" d="M404.55,52,403.44,66.5a6.28,6.28,0,0,1-1.27,3.74,3.84,3.84,0,0,1-3,1.13,4.66,4.66,0,0,1-1.49-.25V68.84a2.85,2.85,0,0,0,1.23.19,1.66,1.66,0,0,0,1.35-.55,3.74,3.74,0,0,0,.58-2l1.3-16.9h13.64V71.18h-2.63V52Z"></path> <path class="cls-1" d="M433.82,49.6V52h-9.21v6.8h8.86v2.41h-8.86v7.56h9.56v2.4H422V49.6Z"></path> <path class="cls-1" d="M438.91,60.39a11.27,11.27,0,0,1,3.28-8.1,10.93,10.93,0,0,1,8.18-3.38,10.78,10.78,0,0,1,8.27,3.38,11.49,11.49,0,0,1,3.15,8.1,11.17,11.17,0,0,1-3.29,8.14,11,11,0,0,1-8.13,3.35,12.07,12.07,0,0,1-5.08-1,9.54,9.54,0,0,1-3.62-2.72,12.28,12.28,0,0,1-2.76-7.74Zm2.72,0a9.11,9.11,0,0,0,2.5,6.54,8.7,8.7,0,0,0,12.43,0,9.07,9.07,0,0,0,2.51-6.54,9.18,9.18,0,0,0-2.44-6.53,8.81,8.81,0,0,0-12.5,0A9.1,9.1,0,0,0,441.63,60.39Z"></path> <path class="cls-1" d="M469.67,71.18V52H464V49.6H478V52H472.3V71.18Z"></path> <path class="cls-1" d="M482.27,49.6h2.62V62.48q0,3.36-.06,4.59h.06c.38-.69,1.9-3.06,4.56-7.09l6.87-10.38h2.46V71.18h-2.62V58.27c0-1.45,0-3,.06-4.52h-.06c-.36.67-1.88,3-4.56,7l-6.87,10.38h-2.46Z"></path> <path class="cls-1" d="M503.28,76.72V68.78h.54a3.47,3.47,0,0,0,2.73-1.55Q507.78,65.69,508,62l.88-12.41h13.67V68.78h2.63v7.94h-2.63V71.18H505.9v5.54ZM520,68.78V52h-8.61l-.7,10q-.31,4.77-2.31,6.77Z"></path> <path class="cls-1" d="M528.88,60.39a11.26,11.26,0,0,1,3.27-8.1,10.94,10.94,0,0,1,8.18-3.38,10.8,10.8,0,0,1,8.28,3.38,11.49,11.49,0,0,1,3.15,8.1,11.21,11.21,0,0,1-3.29,8.14,11,11,0,0,1-8.14,3.35,12,12,0,0,1-5.07-1,9.65,9.65,0,0,1-3.63-2.72,12.44,12.44,0,0,1-2-3.67A12,12,0,0,1,528.88,60.39Zm2.72,0a9.07,9.07,0,0,0,2.5,6.54,8.69,8.69,0,0,0,12.42,0A9,9,0,0,0,549,60.39a9.23,9.23,0,0,0-2.44-6.53,8.81,8.81,0,0,0-12.5,0A9.06,9.06,0,0,0,531.6,60.39Z"></path> <path class="cls-1" d="M556.82,71.18V49.6h4.78a8.14,8.14,0,0,1,5.19,1.49,4.88,4.88,0,0,1,1.87,4q0,3.31-3.52,4.59v.06a5.27,5.27,0,0,1,5.07,5.48,5.22,5.22,0,0,1-2,4.43A8.38,8.38,0,0,1,563,71.18ZM566,55.33a2.81,2.81,0,0,0-1.21-2.5A5.47,5.47,0,0,0,561.6,52h-2.15v6.8h2.34a4.53,4.53,0,0,0,3.05-1A3.18,3.18,0,0,0,566,55.33Zm1.52,9.72a3.44,3.44,0,0,0-1.24-2.82,5.31,5.31,0,0,0-3.48-1h-3.32v7.56h3.76a4.53,4.53,0,0,0,3.2-1A3.57,3.57,0,0,0,567.49,65.05Z"></path> <path class="cls-1" d="M575,71.18V67.7h3.48v1.9a10.52,10.52,0,0,1-1.71,5.86H575a9.52,9.52,0,0,0,1.26-4.28Z"></path> <path class="cls-1" d="M12.94,120.09V100.91H2.63v19.18H0V98.51H15.57v21.58Z"></path> <path class="cls-1" d="M20.63,109.3a11.23,11.23,0,0,1,3.28-8.1,10.9,10.9,0,0,1,8.18-3.39,10.75,10.75,0,0,1,8.27,3.39,11.49,11.49,0,0,1,3.15,8.1,11.15,11.15,0,0,1-3.29,8.13,10.92,10.92,0,0,1-8.13,3.36,12.23,12.23,0,0,1-5.08-1A9.64,9.64,0,0,1,23.39,117a12.38,12.38,0,0,1-2.06-3.67A12.06,12.06,0,0,1,20.63,109.3Zm2.72,0a9.08,9.08,0,0,0,2.5,6.53,8.26,8.26,0,0,0,6.21,2.61,8.28,8.28,0,0,0,6.21-2.61,9,9,0,0,0,2.52-6.53,9.19,9.19,0,0,0-2.44-6.54,8.21,8.21,0,0,0-6.29-2.61,8.29,8.29,0,0,0-6.21,2.6A9.08,9.08,0,0,0,23.35,109.3Z"></path> <path class="cls-1" d="M53.16,100.91l-1.1,14.5a6.25,6.25,0,0,1-1.27,3.73,3.88,3.88,0,0,1-3,1.14A4.6,4.6,0,0,1,46.3,120v-2.28a2.85,2.85,0,0,0,1.23.19,1.66,1.66,0,0,0,1.35-.56,3.67,3.67,0,0,0,.58-2l1.3-16.9H64.4v21.58H61.77V100.91Z"></path> <path class="cls-1" d="M85.63,98.51l-7.5,17.72q-1.74,4-4.84,4a3.79,3.79,0,0,1-1.33-.19v-2.21A3.55,3.55,0,0,0,73,118a2.39,2.39,0,0,0,1.45-.43,3.71,3.71,0,0,0,1.11-1.63l1-2.43-8-15h2.94L77,108.92a16.79,16.79,0,0,1,.89,2h.06c.06-.21.34-.89.82-2l4.18-10.35Z"></path> <path class="cls-1" d="M104.17,120.09h-2.62v-10h-.1a5,5,0,0,1-2.21,1.66,7.58,7.58,0,0,1-3,.62q-6.86,0-6.86-7.31V98.51H92v6.74A5,5,0,0,0,93.21,109a4.82,4.82,0,0,0,3.47,1.14,5,5,0,0,0,3.56-1.26,4.86,4.86,0,0,0,1.31-3.64V98.51h2.62Z"></path> <path class="cls-1" d="M122.21,98.51v2.4H113v6.81h8.86v2.4H113v7.56h9.56v2.41H110.38V98.51Z"></path> <path class="cls-1" d="M142.94,120.09v-10H131.07v10h-2.62V98.51h2.62v9.21h11.87V98.51h2.63v21.58Z"></path> <path class="cls-1" d="M166.26,120.09v-10H154.4v10h-2.63V98.51h2.63v9.21h11.86V98.51h2.63v21.58Z"></path> <path class="cls-1" d="M175.09,120.09V98.51h2.63v9.21h3.57a8.1,8.1,0,0,1,5.16,1.59,5.47,5.47,0,0,1,2,4.55,5.56,5.56,0,0,1-2,4.58,7.9,7.9,0,0,1-5.16,1.65Zm10.67-6.23a3.35,3.35,0,0,0-1.22-2.76,5.48,5.48,0,0,0-3.5-1h-3.32v7.56h3.76a4.4,4.4,0,0,0,3.2-1A3.69,3.69,0,0,0,185.76,113.86Zm5.69,6.23V98.51h2.63v21.58Z"></path> <path class="cls-1" d="M201.58,98.51l3.83,5.92c.52.8,1,1.62,1.52,2.46H207c.44-.8.95-1.64,1.52-2.53l3.76-5.85h2.88l-6.89,10.31,7.21,11.27h-3.07l-3.86-6.2c-.19-.32-.49-.8-.89-1.44L206.8,111h-.06L204.93,114l-3.8,6.14h-2.91L205.41,109l-6.93-10.44Z"></path> <path class="cls-1" d="M229.08,98.51h2.62v12.88q0,3.35-.06,4.59h.06q.57-1,4.56-7.09l6.87-10.38h2.47v21.58H243V107.18q0-2.19.06-4.53H243q-.54,1-4.56,7.06l-6.87,10.38h-2.46Z"></path> <path class="cls-1" d="M250.66,114.84h2.78a3.86,3.86,0,0,0,1.4,2.56,4.49,4.49,0,0,0,2.91.95,4,4,0,0,0,3-1.19,4.23,4.23,0,0,0,1.15-3.08,4.22,4.22,0,0,0-4.49-4.34h-2.28v-2.4h2.31a3.54,3.54,0,0,0,2.7-1.06,3.62,3.62,0,0,0,1-2.58,3.44,3.44,0,0,0-1-2.47,3.31,3.31,0,0,0-2.5-1,3.47,3.47,0,0,0-2.23.69,3,3,0,0,0-1.06,2h-2.75a5.08,5.08,0,0,1,1.91-3.71,6.56,6.56,0,0,1,4.23-1.39,6,6,0,0,1,4.35,1.66,5.71,5.71,0,0,1,1.69,4.23,4.79,4.79,0,0,1-.84,2.77,5.35,5.35,0,0,1-2.39,1.88v.09a5.86,5.86,0,0,1,4.05,5.64,6.37,6.37,0,0,1-2,4.76,6.72,6.72,0,0,1-4.9,1.91,7.2,7.2,0,0,1-4.86-1.66A6.15,6.15,0,0,1,250.66,114.84Z"></path> <path class="cls-1" d="M299.33,98.51l2.37,21.58h-2.56L297.9,107.5c-.19-2.09-.35-4-.5-5.73h-.1q-.6,2-1.83,5.76l-4.21,12.56H289l-4.21-12.91c-1.07-3.31-1.65-5.12-1.74-5.41h-.13c-.14,2.13-.3,3.92-.47,5.38l-1.33,12.94h-2.53l2.5-21.58h3.2L289,112.4q.72,2.09,1.17,4h.13q.38-1.56,1.2-4l4.71-13.89Z"></path> <path class="cls-1" d="M305.75,109.3a11.23,11.23,0,0,1,3.28-8.1,10.9,10.9,0,0,1,8.18-3.39,10.77,10.77,0,0,1,8.27,3.39,11.49,11.49,0,0,1,3.15,8.1,11.19,11.19,0,0,1-3.29,8.13,10.93,10.93,0,0,1-8.13,3.36,12.23,12.23,0,0,1-5.08-1A9.76,9.76,0,0,1,308.5,117a12.57,12.57,0,0,1-2.05-3.67A12.06,12.06,0,0,1,305.75,109.3Zm2.72,0a9.08,9.08,0,0,0,2.5,6.53,8.69,8.69,0,0,0,12.42,0,9,9,0,0,0,2.52-6.53,9.19,9.19,0,0,0-2.44-6.54,8.8,8.8,0,0,0-12.5,0A9.08,9.08,0,0,0,308.47,109.3Z"></path> <path class="cls-1" d="M338.28,100.91l-1.1,14.5a6.25,6.25,0,0,1-1.27,3.73,3.88,3.88,0,0,1-3,1.14,4.6,4.6,0,0,1-1.48-.25v-2.28a2.85,2.85,0,0,0,1.23.19,1.66,1.66,0,0,0,1.35-.56,3.67,3.67,0,0,0,.58-2l1.3-16.9h13.64v21.58h-2.63V100.91Z"></path> <path class="cls-1" d="M354.58,109.3a11.26,11.26,0,0,1,3.27-8.1A10.94,10.94,0,0,1,366,97.81a10.77,10.77,0,0,1,8.27,3.39,11.49,11.49,0,0,1,3.15,8.1,11.19,11.19,0,0,1-3.29,8.13,11,11,0,0,1-8.13,3.36,12.2,12.2,0,0,1-5.08-1,9.76,9.76,0,0,1-3.63-2.72,12.57,12.57,0,0,1-2.05-3.67A12.06,12.06,0,0,1,354.58,109.3Zm2.72,0a9,9,0,0,0,2.5,6.53,8.69,8.69,0,0,0,12.42,0,9,9,0,0,0,2.52-6.53,9.19,9.19,0,0,0-2.44-6.54,8.8,8.8,0,0,0-12.5,0A9,9,0,0,0,357.3,109.3Z"></path> <path class="cls-1" d="M395.84,120.09,385.15,109.2v10.89h-2.63V98.51h2.63V109l10.41-10.47H399L388.31,109l11.11,11.11Z"></path> <path class="cls-1" d="M417.27,100.91l-1.11,14.5a6.32,6.32,0,0,1-1.26,3.73,3.88,3.88,0,0,1-3,1.14,4.66,4.66,0,0,1-1.49-.25v-2.28a2.91,2.91,0,0,0,1.24.19,1.64,1.64,0,0,0,1.34-.56,3.66,3.66,0,0,0,.59-2l1.29-16.9H428.5v21.58h-2.62V100.91Z"></path> <path class="cls-1" d="M433.56,109.3a11.27,11.27,0,0,1,3.28-8.1A10.9,10.9,0,0,1,445,97.81a10.77,10.77,0,0,1,8.28,3.39,11.52,11.52,0,0,1,3.14,8.1,11.15,11.15,0,0,1-3.29,8.13,10.92,10.92,0,0,1-8.13,3.36,12.23,12.23,0,0,1-5.08-1,9.64,9.64,0,0,1-3.62-2.72,12.28,12.28,0,0,1-2.76-7.74Zm2.73,0a9,9,0,0,0,2.5,6.53,8.69,8.69,0,0,0,12.42,0,9,9,0,0,0,2.51-6.53,9.23,9.23,0,0,0-2.43-6.54,8.8,8.8,0,0,0-12.5,0A9,9,0,0,0,436.29,109.3Z"></path> <path class="cls-1" d="M471.51,97.81a12.37,12.37,0,0,1,3.86.57,8.74,8.74,0,0,1,2.91,1.54,11,11,0,0,1,1.91,2,10.06,10.06,0,0,1,1.22,2.16h-3a6.54,6.54,0,0,0-2.61-2.82,8.31,8.31,0,0,0-4.35-1.08,8.14,8.14,0,0,0-5.92,2.44,8.94,8.94,0,0,0-2.47,6.68,9.32,9.32,0,0,0,2.42,6.53,8,8,0,0,0,6.12,2.64,8.1,8.1,0,0,0,4.42-1.15,7,7,0,0,0,2.7-3.15h3q-3.14,6.64-10.22,6.65a10.6,10.6,0,0,1-8-3.28,11.53,11.53,0,0,1-3.1-8.27,11.16,11.16,0,0,1,3.19-8.18A10.68,10.68,0,0,1,471.51,97.81Z"></path> <path class="cls-1" d="M486.06,109.3a11.27,11.27,0,0,1,3.28-8.1,10.9,10.9,0,0,1,8.18-3.39,10.75,10.75,0,0,1,8.27,3.39,11.49,11.49,0,0,1,3.15,8.1,11.15,11.15,0,0,1-3.29,8.13,10.92,10.92,0,0,1-8.13,3.36,12.23,12.23,0,0,1-5.08-1,9.64,9.64,0,0,1-3.62-2.72,12.28,12.28,0,0,1-2.76-7.74Zm2.73,0a9,9,0,0,0,2.5,6.53,8.69,8.69,0,0,0,12.42,0,9,9,0,0,0,2.51-6.53,9.23,9.23,0,0,0-2.43-6.54,8.8,8.8,0,0,0-12.5,0A9,9,0,0,0,488.79,109.3Z"></path> <path class="cls-1" d="M524,97.81a12.37,12.37,0,0,1,3.86.57,8.74,8.74,0,0,1,2.91,1.54,11,11,0,0,1,1.91,2,10.5,10.5,0,0,1,1.22,2.16h-3a6.54,6.54,0,0,0-2.61-2.82,8.32,8.32,0,0,0-4.36-1.08,8.12,8.12,0,0,0-5.91,2.44,8.94,8.94,0,0,0-2.47,6.68A9.32,9.32,0,0,0,518,115.8a7.93,7.93,0,0,0,6.12,2.64,8.1,8.1,0,0,0,4.42-1.15,7,7,0,0,0,2.7-3.15h3q-3.13,6.64-10.22,6.65a10.58,10.58,0,0,1-8-3.28,11.53,11.53,0,0,1-3.1-8.27,11.16,11.16,0,0,1,3.19-8.18A10.68,10.68,0,0,1,524,97.81Z"></path> <path class="cls-1" d="M551.54,98.51v2.4h-9.21v6.81h8.86v2.4h-8.86v7.56h9.56v2.41H539.7V98.51Z"></path> <path class="cls-1" d="M557.77,120.09V98.51h4.78a8.08,8.08,0,0,1,5.19,1.49,4.87,4.87,0,0,1,1.87,4q0,3.33-3.52,4.59v.07a5.26,5.26,0,0,1,5.07,5.47,5.21,5.21,0,0,1-2,4.43,8.38,8.38,0,0,1-5.18,1.52Zm9.15-15.85a2.8,2.8,0,0,0-1.21-2.5,5.47,5.47,0,0,0-3.16-.83H560.4v6.81h2.34a4.48,4.48,0,0,0,3-1A3.15,3.15,0,0,0,566.92,104.24Zm1.52,9.71a3.47,3.47,0,0,0-1.24-2.82,5.36,5.36,0,0,0-3.48-1H560.4v7.56h3.76a4.49,4.49,0,0,0,3.2-1A3.54,3.54,0,0,0,568.44,114Z"></path> <path class="cls-1" d="M576.38,120.09V98.51H579v9.21h3.58a8.1,8.1,0,0,1,5.16,1.59,5.46,5.46,0,0,1,2,4.55,5.56,5.56,0,0,1-2,4.58,7.9,7.9,0,0,1-5.16,1.65ZM587,113.86a3.32,3.32,0,0,0-1.22-2.76,5.45,5.45,0,0,0-3.49-1H579v7.56h3.77a4.42,4.42,0,0,0,3.2-1A3.72,3.72,0,0,0,587,113.86Zm5.7,6.23V98.51h2.62v21.58Z"></path> <path class="cls-1" d="M602.86,98.51l3.83,5.92c.53.8,1,1.62,1.52,2.46h.1c.44-.8,1-1.64,1.52-2.53l3.76-5.85h2.88l-6.9,10.31,7.22,11.27h-3.07l-3.86-6.2c-.19-.32-.49-.8-.89-1.44l-.88-1.44H608l-1.8,2.94-3.8,6.14h-2.91L606.69,109l-6.93-10.44Z"></path> <path class="cls-1" d="M12.94,169V149.82H2.63V169H0V147.41H15.57V169Z"></path> <path class="cls-1" d="M20.63,158.21a11.23,11.23,0,0,1,3.28-8.11,10.93,10.93,0,0,1,8.18-3.38,10.78,10.78,0,0,1,8.27,3.38,11.49,11.49,0,0,1,3.15,8.11,11.17,11.17,0,0,1-3.29,8.13,11,11,0,0,1-8.13,3.35,12.07,12.07,0,0,1-5.08-1,9.54,9.54,0,0,1-3.62-2.72,12.25,12.25,0,0,1-2.06-3.67A12,12,0,0,1,20.63,158.21Zm2.72,0a9.1,9.1,0,0,0,2.5,6.53,8.26,8.26,0,0,0,6.21,2.61,8.28,8.28,0,0,0,6.21-2.61,9,9,0,0,0,2.52-6.53,9.19,9.19,0,0,0-2.44-6.54,8.21,8.21,0,0,0-6.29-2.61,8.28,8.28,0,0,0-6.21,2.59A9.11,9.11,0,0,0,23.35,158.21Z"></path> <path class="cls-1" d="M48.58,169V147.41h6.26a9.09,9.09,0,0,1,5.76,1.68,5.94,5.94,0,0,1,2.15,5,6.24,6.24,0,0,1-2,4.95q-2,1.76-6.14,1.76H51.2V169Zm11.48-14.88A4.11,4.11,0,0,0,58.83,151a5.35,5.35,0,0,0-3.77-1.15H51.2v8.57H55Q60.06,158.39,60.06,154.12Z"></path> <path class="cls-1" d="M66.36,158.21a11.27,11.27,0,0,1,3.27-8.11,10.94,10.94,0,0,1,8.18-3.38,10.8,10.8,0,0,1,8.28,3.38,11.49,11.49,0,0,1,3.15,8.11A11.21,11.21,0,0,1,86,166.34a11,11,0,0,1-8.14,3.35,12,12,0,0,1-5.07-1,9.65,9.65,0,0,1-3.63-2.72,12.22,12.22,0,0,1-2-3.67A12,12,0,0,1,66.36,158.21Zm2.72,0a9.06,9.06,0,0,0,2.5,6.53,8.69,8.69,0,0,0,12.42,0,9,9,0,0,0,2.52-6.53,9.23,9.23,0,0,0-2.44-6.54,8.81,8.81,0,0,0-12.5,0A9.06,9.06,0,0,0,69.08,158.21Z"></path> <path class="cls-1" d="M92,174.53v-7.94h.54A3.47,3.47,0,0,0,95.23,165q1.23-1.54,1.48-5.22l.88-12.41h13.67v19.18h2.63v7.94h-2.63V169H94.59v5.53Zm16.68-7.94V149.82H100l-.7,10Q99,164.59,97,166.59Z"></path> <path class="cls-1" d="M128.13,169V147.41h6.27a9.08,9.08,0,0,1,5.75,1.68,5.91,5.91,0,0,1,2.16,5,6.25,6.25,0,0,1-2,4.95c-1.33,1.17-3.37,1.76-6.14,1.76h-3.41V169Zm11.49-14.88a4.08,4.08,0,0,0-1.24-3.15,5.34,5.34,0,0,0-3.76-1.15h-3.86v8.57h3.76Q139.62,158.39,139.62,154.12Z"></path> <path class="cls-1" d="M146.74,169V147.41h2.62v9.21h3.58a8.11,8.11,0,0,1,5.16,1.6,5.45,5.45,0,0,1,2,4.54,5.59,5.59,0,0,1-2,4.59,7.9,7.9,0,0,1-5.16,1.65Zm10.66-6.24a3.33,3.33,0,0,0-1.22-2.75,5.45,5.45,0,0,0-3.49-1h-3.33v7.56h3.77a4.46,4.46,0,0,0,3.2-1A3.74,3.74,0,0,0,157.4,162.76Zm5.7,6.24V147.41h2.62V169Z"></path> <path class="cls-1" d="M171.93,147.41h11.83v2.41h-9.21v6.8h3.58a8.11,8.11,0,0,1,5.16,1.6,5.45,5.45,0,0,1,2,4.54,5.59,5.59,0,0,1-2,4.59,7.9,7.9,0,0,1-5.16,1.65h-6.2Zm10.66,15.35a3.33,3.33,0,0,0-1.22-2.75,5.47,5.47,0,0,0-3.49-1h-3.33v7.56h3.77a4.42,4.42,0,0,0,3.19-1A3.71,3.71,0,0,0,182.59,162.76Z"></path> </g> </g> </svg> 