<?xml version="1.0" encoding="UTF-8"?> <svg xmlns="http://www.w3.org/2000/svg" xmlns:xlink="http://www.w3.org/1999/xlink" viewBox="0 0 149.4 117.53"> <defs> <linearGradient id="linear-gradient" x1="-6606" y1="-1387.8" x2="-6592.34" y2="-1401.45" gradientTransform="translate(1468.95 -6502.12) rotate(-90)" gradientUnits="userSpaceOnUse"> <stop offset="0" stop-color="#66dac7"></stop> <stop offset="1" stop-color="#00c2a2"></stop> </linearGradient> <linearGradient id="linear-gradient-2" x1="1626.35" y1="-6556.81" x2="1640" y2="-6570.46" gradientTransform="translate(-6448.09 -1522.47) rotate(90)" gradientUnits="userSpaceOnUse"> <stop offset="0" stop-color="#66baac"></stop> <stop offset="1" stop-color="#008c75"></stop> </linearGradient> <linearGradient id="linear-gradient-3" x1="108.45" y1="76.57" x2="122.1" y2="62.92" gradientTransform="matrix(1, 0, 0, 1, 0, 0)" xlink:href="#linear-gradient"></linearGradient> <linearGradient id="linear-gradient-4" x1="44.78" y1="50.36" x2="58.43" y2="36.7" gradientTransform="matrix(1, 0, 0, 1, 0, 0)" xlink:href="#linear-gradient"></linearGradient> <linearGradient id="linear-gradient-5" x1="135.75" y1="103.62" x2="149.4" y2="89.97" gradientUnits="userSpaceOnUse"> <stop offset="0" stop-color="#66a699"></stop> <stop offset="1" stop-color="#006b55"></stop> </linearGradient> <linearGradient id="linear-gradient-6" x1="13.65" y1="100.62" x2="27.3" y2="86.97" xlink:href="#linear-gradient-5"></linearGradient> <linearGradient id="linear-gradient-7" x1="1704.57" y1="-6584.86" x2="1718.23" y2="-6598.51" gradientTransform="translate(-6449.11 -1628) rotate(90)" xlink:href="#linear-gradient-2"></linearGradient> <linearGradient id="linear-gradient-8" x1="1641.65" y1="-6539.91" x2="1655.3" y2="-6553.56" gradientTransform="translate(-6449.11 -1628) rotate(90)" xlink:href="#linear-gradient-2"></linearGradient> <linearGradient id="linear-gradient-9" x1="135.75" y1="49.27" x2="149.4" y2="35.62" gradientUnits="userSpaceOnUse"> <stop offset="0" stop-color="#ff66bf"></stop> <stop offset="1" stop-color="#ff0095"></stop> </linearGradient> </defs> <g style="isolation:isolate;"> <g id="Layer_2"> <g id="cubes_"> <g> <rect x="67.49" y="90.23" width="27.3" height="27.3" transform="translate(-22.74 185.02) rotate(-90)" style="fill:#00c2a2; mix-blend-mode:screen;"></rect> <rect x="95.31" y="89.97" width="27.3" height="27.3" transform="translate(212.59 -5.35) rotate(90)" style="fill:#008c75; mix-blend-mode:screen;"></rect> <rect x="94.8" y="62.92" width="27.3" height="27.3" style="fill:#00c2a2; mix-blend-mode:screen;"></rect> <rect x="31.12" y="36.7" width="27.3" height="27.3" style="fill:#00c2a2; mix-blend-mode:screen;"></rect> <rect x="122.1" y="90.23" width="27.3" height="27.3" style="fill:#006b55; mix-blend-mode:screen;"></rect> <rect y="87.23" width="27.3" height="27.3" style="fill:#006b55; mix-blend-mode:screen;"></rect> <rect x="122.1" y="62.92" width="27.3" height="27.3" transform="translate(212.33 -59.18) rotate(90)" style="fill:#008c75; mix-blend-mode:screen;"></rect> <rect x="77.15" y="0" width="27.3" height="27.3" transform="translate(104.46 -77.15) rotate(90)" style="fill:#008c75; mix-blend-mode:screen;"></rect> <rect x="67.49" y="90.23" width="27.3" height="27.3" transform="translate(-22.74 185.02) rotate(-90)" style="fill:#00c2a2; mix-blend-mode:screen;"></rect> <rect x="94.8" y="90.23" width="27.3" height="27.3" transform="translate(212.33 -4.57) rotate(90)" style="fill:#008c75; mix-blend-mode:screen;"></rect> <rect x="94.8" y="62.92" width="27.3" height="27.3" style="fill:#00c2a2; mix-blend-mode:screen;"></rect> <rect x="31.12" y="36.7" width="27.3" height="27.3" style="fill:#00c2a2; mix-blend-mode:screen;"></rect> <rect x="122.1" y="89.97" width="27.3" height="27.3" style="fill:#006b55; mix-blend-mode:screen;"></rect> <rect y="86.97" width="27.3" height="27.3" style="fill:#006b55; mix-blend-mode:screen;"></rect> <rect x="122.1" y="62.92" width="27.3" height="27.3" transform="translate(212.33 -59.18) rotate(90)" style="fill:#008c75; mix-blend-mode:screen;"></rect> <rect x="77.15" y="0" width="27.3" height="27.3" transform="translate(104.46 -77.15) rotate(90)" style="fill:#008c75; mix-blend-mode:screen;"></rect> <polygon points="67.49 117.53 67.49 90.23 94.8 90.23 67.49 117.53" style="fill:url(#linear-gradient); mix-blend-mode:screen;"></polygon> <polygon points="122.36 90.23 122.36 117.53 95.05 117.53 122.36 90.23" style="fill:url(#linear-gradient-2); mix-blend-mode:screen;"></polygon> <polygon points="94.8 62.92 122.1 62.92 122.1 90.23 94.8 62.92" style="fill:url(#linear-gradient-3); mix-blend-mode:screen;"></polygon> <polygon points="31.12 36.7 58.43 36.7 58.43 64.01 31.12 36.7" style="fill:url(#linear-gradient-4); mix-blend-mode:screen;"></polygon> <polygon points="122.1 89.97 149.4 89.97 149.4 117.27 122.1 89.97" style="fill:url(#linear-gradient-5); mix-blend-mode:screen;"></polygon> <polygon points="0 86.97 27.3 86.97 27.3 114.28 0 86.97" style="fill:url(#linear-gradient-6); mix-blend-mode:screen;"></polygon> <polygon points="149.4 62.92 149.4 90.23 122.1 90.23 149.4 62.92" style="fill:url(#linear-gradient-7); mix-blend-mode:screen;"></polygon> <polygon points="104.46 0 104.46 27.3 77.15 27.3 104.46 0" style="fill:url(#linear-gradient-8); mix-blend-mode:screen;"></polygon> <g> <rect x="122.1" y="35.62" width="27.3" height="27.3" style="fill:#ff0095;"></rect> <polygon points="122.1 35.62 149.4 35.62 149.4 62.92 122.1 35.62" style="fill:url(#linear-gradient-9);"></polygon> </g> </g> </g> </g> </g> </svg> 