<?xml version="1.0" encoding="UTF-8"?> <svg xmlns="http://www.w3.org/2000/svg" xmlns:xlink="http://www.w3.org/1999/xlink" id="Layer_1" viewBox="0 0 1900 513.35"> <defs> <clipPath id="clippath"> <rect y="-940.98" width="1905.45" height="940" style="fill:none;"></rect> </clipPath> <linearGradient id="linear-gradient" x1="-606.57" y1="523.05" x2="-606.57" y2="370.59" gradientTransform="translate(1125.8 -632.57) rotate(-90)" gradientUnits="userSpaceOnUse"> <stop offset="0" stop-color="#f2f2f2"></stop> <stop offset="1" stop-color="gray"></stop> </linearGradient> <linearGradient id="linear-gradient-2" x1="-694.67" y1="562.78" x2="-694.67" y2="523.34" xlink:href="#linear-gradient"></linearGradient> <linearGradient id="linear-gradient-3" x1="-653.4" y1="637.89" x2="-653.4" y2="561.83" xlink:href="#linear-gradient"></linearGradient> <linearGradient id="linear-gradient-4" x1="-610.06" y1="685.47" x2="-610.06" y2="617.5" xlink:href="#linear-gradient"></linearGradient> <linearGradient id="linear-gradient-5" x1="-664.29" y1="745.87" x2="-664.29" y2="667.15" xlink:href="#linear-gradient"></linearGradient> <linearGradient id="linear-gradient-6" x1="-716.77" y1="759.29" x2="-716.77" y2="716.05" xlink:href="#linear-gradient"></linearGradient> <linearGradient id="linear-gradient-7" x1="-713.36" y1="680.27" x2="-713.36" y2="637.03" xlink:href="#linear-gradient"></linearGradient> <linearGradient id="linear-gradient-8" x1="-742.64" y1="643.47" x2="-742.64" y2="621.9" gradientTransform="translate(2078.47 -811.56) rotate(-30.42)" xlink:href="#linear-gradient"></linearGradient> <linearGradient id="linear-gradient-9" x1="-657.28" y1="813.31" x2="-657.28" y2="745.2" xlink:href="#linear-gradient"></linearGradient> <linearGradient id="linear-gradient-10" x1="-768.32" y1="759.71" x2="-768.32" y2="703.41" xlink:href="#linear-gradient"></linearGradient> <linearGradient id="linear-gradient-11" x1="-743.28" y1="546.7" x2="-743.28" y2="517.75" xlink:href="#linear-gradient"></linearGradient> <linearGradient id="linear-gradient-12" x1="-708.13" y1="594.78" x2="-708.13" y2="580.19" gradientTransform="translate(2026.72 -789.5) rotate(-30.4)" xlink:href="#linear-gradient"></linearGradient> <linearGradient id="linear-gradient-13" x1="-712.73" y1="455.27" x2="-712.73" y2="384.01" xlink:href="#linear-gradient"></linearGradient> <linearGradient id="linear-gradient-14" x1="-714.76" y1="385.29" x2="-714.76" y2="333.47" xlink:href="#linear-gradient"></linearGradient> <linearGradient id="linear-gradient-15" x1="-672.08" y1="492.67" x2="-672.08" y2="475.75" xlink:href="#linear-gradient"></linearGradient> <linearGradient id="linear-gradient-16" x1="-664.68" y1="571.06" x2="-664.68" y2="554.15" xlink:href="#linear-gradient"></linearGradient> <linearGradient id="linear-gradient-17" x1="-688.81" y1="725.19" x2="-688.81" y2="708.27" xlink:href="#linear-gradient"></linearGradient> <linearGradient id="linear-gradient-18" x1="-696.71" y1="597.31" x2="-696.71" y2="591.05" xlink:href="#linear-gradient"></linearGradient> <linearGradient id="linear-gradient-19" x1="-725.29" y1="646" x2="-725.29" y2="639.74" xlink:href="#linear-gradient"></linearGradient> <linearGradient id="linear-gradient-20" x1="-671.54" y1="417.14" x2="-671.54" y2="400.23" xlink:href="#linear-gradient"></linearGradient> <linearGradient id="linear-gradient-21" x1="-712.22" y1="389.72" x2="-712.22" y2="379.89" xlink:href="#linear-gradient"></linearGradient> <linearGradient id="linear-gradient-22" x1="-753.24" y1="411.24" x2="-753.24" y2="404.95" xlink:href="#linear-gradient"></linearGradient> <linearGradient id="linear-gradient-23" x1="-753.58" y1="460.18" x2="-753.58" y2="450.35" xlink:href="#linear-gradient"></linearGradient> <linearGradient id="linear-gradient-24" x1="-702.63" y1="529.02" x2="-702.63" y2="519.19" xlink:href="#linear-gradient"></linearGradient> <linearGradient id="linear-gradient-25" x1="-629.17" y1="549.27" x2="-629.17" y2="539.44" xlink:href="#linear-gradient"></linearGradient> <linearGradient id="linear-gradient-26" x1="-685.39" y1="642.62" x2="-685.39" y2="632.8" xlink:href="#linear-gradient"></linearGradient> <linearGradient id="linear-gradient-27" x1="-660.57" y1="750.3" x2="-660.57" y2="740.47" xlink:href="#linear-gradient"></linearGradient> <linearGradient id="linear-gradient-28" x1="-744.19" y1="763.93" x2="-744.19" y2="754.11" xlink:href="#linear-gradient"></linearGradient> <linearGradient id="linear-gradient-29" x1="-723.68" y1="343.27" x2="-723.68" y2="338.23" xlink:href="#linear-gradient"></linearGradient> <linearGradient id="linear-gradient-30" x1="-730.66" y1="368.6" x2="-730.66" y2="363.57" xlink:href="#linear-gradient"></linearGradient> <linearGradient id="linear-gradient-31" x1="-698.25" y1="339.05" x2="-698.25" y2="329.22" xlink:href="#linear-gradient"></linearGradient> <linearGradient id="linear-gradient-32" x1="-724.85" y1="549.16" x2="-724.85" y2="542.87" xlink:href="#linear-gradient"></linearGradient> <linearGradient id="linear-gradient-33" x1="-761.16" y1="521.16" x2="-761.16" y2="514.87" xlink:href="#linear-gradient"></linearGradient> <linearGradient id="linear-gradient-34" x1="-751.09" y1="544.45" x2="-751.09" y2="540.54" xlink:href="#linear-gradient"></linearGradient> <linearGradient id="linear-gradient-35" x1="-759.98" y1="624.46" x2="-759.98" y2="620.54" xlink:href="#linear-gradient"></linearGradient> <linearGradient id="linear-gradient-36" x1="-740.77" y1="681.96" x2="-740.77" y2="678.05" xlink:href="#linear-gradient"></linearGradient> <linearGradient id="linear-gradient-37" x1="-775.97" y1="761.92" x2="-775.97" y2="755.65" xlink:href="#linear-gradient"></linearGradient> <linearGradient id="linear-gradient-38" x1="-775.56" y1="705.72" x2="-775.56" y2="701.8" xlink:href="#linear-gradient"></linearGradient> <linearGradient id="linear-gradient-39" x1="-719.55" y1="582.74" x2="-719.55" y2="578.82" xlink:href="#linear-gradient"></linearGradient> <linearGradient id="linear-gradient-40" x1="-1084.65" y1="288.47" x2="-295.6" y2="288.47" gradientTransform="translate(1348.31 -877.94) rotate(-90)" gradientUnits="userSpaceOnUse"> <stop offset=".3" stop-color="#fff"></stop> <stop offset=".73" stop-color="#b3b3b3"></stop> </linearGradient> <linearGradient id="linear-gradient-41" gradientTransform="translate(2402.74 -743.95) rotate(-30.42)" xlink:href="#linear-gradient-40"></linearGradient> <linearGradient id="linear-gradient-42" gradientTransform="translate(2350.96 -721.77) rotate(-30.4)" xlink:href="#linear-gradient-40"></linearGradient> <linearGradient id="linear-gradient-43" x1="-2290.34" y1="-3911.12" x2="-2290.34" y2="-4424.46" gradientTransform="translate(3240.34 4424.46)" gradientUnits="userSpaceOnUse"> <stop offset="0" stop-color="#fff"></stop> <stop offset=".37" stop-color="#fbfbfc"></stop> <stop offset=".72" stop-color="#f0f2f3"></stop> <stop offset="1" stop-color="#e1e6e7"></stop> </linearGradient> <linearGradient id="linear-gradient-44" x1="-228.99" y1="3751.01" x2="-228.99" y2="3674.96" gradientTransform="translate(1335.77 -3201.93) rotate(-179.1) scale(1 -1)" xlink:href="#linear-gradient"></linearGradient> <linearGradient id="linear-gradient-45" x1="-244.48" y1="3601.02" x2="-244.48" y2="3482.63" gradientTransform="translate(1335.77 -3201.93) rotate(-179.1) scale(1 -1)" xlink:href="#linear-gradient"></linearGradient> <linearGradient id="linear-gradient-46" x1="-329.69" y1="3640.09" x2="-329.69" y2="3558.95" gradientTransform="translate(1335.77 -3201.93) rotate(-179.1) scale(1 -1)" xlink:href="#linear-gradient"></linearGradient> <linearGradient id="linear-gradient-47" x1="-250" y1="3675.56" x2="-250" y2="3600.33" gradientTransform="translate(1335.77 -3201.93) rotate(-179.1) scale(1 -1)" xlink:href="#linear-gradient"></linearGradient> <linearGradient id="linear-gradient-48" x1="-294.7" y1="3485.81" x2="-294.7" y2="3480.82" gradientTransform="translate(1335.77 -3201.93) rotate(-179.1) scale(1 -1)" xlink:href="#linear-gradient"></linearGradient> <linearGradient id="linear-gradient-49" x1="-228.63" y1="3658.68" x2="-228.63" y2="3641.91" gradientTransform="translate(1335.77 -3201.93) rotate(-179.1) scale(1 -1)" xlink:href="#linear-gradient"></linearGradient> <linearGradient id="linear-gradient-50" x1="-227.43" y1="3492.18" x2="-227.43" y2="3475.42" gradientTransform="translate(1335.77 -3201.93) rotate(-179.1) scale(1 -1)" xlink:href="#linear-gradient"></linearGradient> <linearGradient id="linear-gradient-51" x1="-364.05" y1="3564.51" x2="-364.05" y2="3554.77" gradientTransform="translate(1335.77 -3201.93) rotate(-179.1) scale(1 -1)" xlink:href="#linear-gradient"></linearGradient> <linearGradient id="linear-gradient-52" x1="-272.08" y1="3677.46" x2="-272.08" y2="3672.47" gradientTransform="translate(1335.77 -3201.93) rotate(-179.1) scale(1 -1)" xlink:href="#linear-gradient"></linearGradient> <linearGradient id="linear-gradient-53" x1="-364.62" y1="3641.56" x2="-364.62" y2="3636.57" gradientTransform="translate(1335.77 -3201.93) rotate(-179.1) scale(1 -1)" xlink:href="#linear-gradient"></linearGradient> <linearGradient id="linear-gradient-54" x1="-318.19" y1="3562.46" x2="-318.19" y2="3557.47" gradientTransform="translate(1335.77 -3201.93) rotate(-179.1) scale(1 -1)" xlink:href="#linear-gradient"></linearGradient> <linearGradient id="linear-gradient-55" x1="-185.54" y1="3680.46" x2="-185.54" y2="3670.72" gradientTransform="translate(1335.77 -3201.93) rotate(-179.1) scale(1 -1)" xlink:href="#linear-gradient"></linearGradient> <linearGradient id="linear-gradient-56" x1="-295.55" y1="3604.72" x2="-295.55" y2="3594.98" gradientTransform="translate(1335.77 -3201.93) rotate(-179.1) scale(1 -1)" xlink:href="#linear-gradient"></linearGradient> <linearGradient id="linear-gradient-57" x1="-194.2" y1="3544.81" x2="-194.2" y2="3539.82" gradientTransform="translate(1335.77 -3201.93) rotate(-179.1) scale(1 -1)" xlink:href="#linear-gradient"></linearGradient> <linearGradient id="linear-gradient-58" x1="-228.27" y1="3602.83" x2="-228.27" y2="3597.84" gradientTransform="translate(1335.77 -3201.93) rotate(-179.1) scale(1 -1)" xlink:href="#linear-gradient"></linearGradient> <linearGradient id="linear-gradient-59" x1="-318.76" y1="3644.27" x2="-318.76" y2="3634.53" gradientTransform="translate(1335.77 -3201.93) rotate(-179.1) scale(1 -1)" xlink:href="#linear-gradient"></linearGradient> <linearGradient id="linear-gradient-60" x1="-608.51" y1="3700.61" x2="-608.51" y2="3693.71" gradientTransform="translate(5311.07 -1015.51) rotate(-104.58) scale(1 -1)" xlink:href="#linear-gradient"></linearGradient> <linearGradient id="linear-gradient-61" x1="-557.11" y1="3620.98" x2="-557.11" y2="3556.9" gradientTransform="translate(1335.77 -3201.93) rotate(-179.1) scale(1 -1)" xlink:href="#linear-gradient"></linearGradient> <linearGradient id="linear-gradient-62" x1="-607.57" y1="3648.79" x2="-607.57" y2="3595.91" gradientTransform="translate(1335.77 -3201.93) rotate(-179.1) scale(1 -1)" xlink:href="#linear-gradient"></linearGradient> <linearGradient id="linear-gradient-63" x1="-627.37" y1="3700.32" x2="-627.37" y2="3647.77" gradientTransform="translate(1335.77 -3201.93) rotate(-179.1) scale(1 -1)" xlink:href="#linear-gradient"></linearGradient> <linearGradient id="linear-gradient-64" x1="-488.29" y1="3768.55" x2="-488.29" y2="3655" gradientTransform="translate(1335.77 -3201.93) rotate(-179.1) scale(1 -1)" xlink:href="#linear-gradient"></linearGradient> <linearGradient id="linear-gradient-65" x1="-422.83" y1="3656.73" x2="-422.83" y2="3580.68" gradientTransform="translate(1335.77 -3201.93) rotate(-179.1) scale(1 -1)" xlink:href="#linear-gradient"></linearGradient> <linearGradient id="linear-gradient-66" x1="-465.55" y1="3581.48" x2="-465.55" y2="3505.43" gradientTransform="translate(1335.77 -3201.93) rotate(-179.1) scale(1 -1)" xlink:href="#linear-gradient"></linearGradient> <linearGradient id="linear-gradient-67" x1="-481.05" y1="3431.49" x2="-481.05" y2="3313.1" gradientTransform="translate(1335.77 -3201.93) rotate(-179.1) scale(1 -1)" xlink:href="#linear-gradient"></linearGradient> <linearGradient id="linear-gradient-68" x1="-566.25" y1="3470.55" x2="-566.25" y2="3389.42" gradientTransform="translate(1335.77 -3201.93) rotate(-179.1) scale(1 -1)" xlink:href="#linear-gradient"></linearGradient> <linearGradient id="linear-gradient-69" x1="-486.56" y1="3506.03" x2="-486.56" y2="3430.8" gradientTransform="translate(1335.77 -3201.93) rotate(-179.1) scale(1 -1)" xlink:href="#linear-gradient"></linearGradient> <linearGradient id="linear-gradient-70" x1="-575.46" y1="3708.21" x2="-575.46" y2="3693.78" gradientTransform="translate(1335.77 -3201.93) rotate(-179.1) scale(1 -1)" xlink:href="#linear-gradient"></linearGradient> <linearGradient id="linear-gradient-71" x1="-530.8" y1="3695.6" x2="-530.8" y2="3681.17" gradientTransform="translate(1335.77 -3201.93) rotate(-179.1) scale(1 -1)" xlink:href="#linear-gradient"></linearGradient> <linearGradient id="linear-gradient-72" x1="-597.78" y1="3702.75" x2="-597.78" y2="3685.99" gradientTransform="translate(1335.77 -3201.93) rotate(-179.1) scale(1 -1)" xlink:href="#linear-gradient"></linearGradient> <linearGradient id="linear-gradient-73" x1="-545.95" y1="3620.48" x2="-545.95" y2="3603.71" gradientTransform="translate(1335.77 -3201.93) rotate(-179.1) scale(1 -1)" xlink:href="#linear-gradient"></linearGradient> <linearGradient id="linear-gradient-74" x1="-465.92" y1="3589.07" x2="-465.92" y2="3572.31" gradientTransform="translate(1335.77 -3201.93) rotate(-179.1) scale(1 -1)" xlink:href="#linear-gradient"></linearGradient> <linearGradient id="linear-gradient-75" x1="-423.19" y1="3660.81" x2="-423.19" y2="3651.08" gradientTransform="translate(1335.77 -3201.93) rotate(-179.1) scale(1 -1)" xlink:href="#linear-gradient"></linearGradient> <linearGradient id="linear-gradient-76" x1="-553.13" y1="3697.18" x2="-553.13" y2="3692.19" gradientTransform="translate(1335.77 -3201.93) rotate(-179.1) scale(1 -1)" xlink:href="#linear-gradient"></linearGradient> <linearGradient id="linear-gradient-77" x1="-621.17" y1="3650.84" x2="-621.17" y2="3645.84" gradientTransform="translate(1335.77 -3201.93) rotate(-179.1) scale(1 -1)" xlink:href="#linear-gradient"></linearGradient> <linearGradient id="linear-gradient-78" x1="-591.44" y1="3651.73" x2="-591.44" y2="3641.99" gradientTransform="translate(1335.77 -3201.93) rotate(-179.1) scale(1 -1)" xlink:href="#linear-gradient"></linearGradient> <linearGradient id="linear-gradient-79" x1="-619.25" y1="3701.89" x2="-619.25" y2="3698.01" gradientTransform="translate(1335.77 -3201.93) rotate(-179.1) scale(1 -1)" xlink:href="#linear-gradient"></linearGradient> <linearGradient id="linear-gradient-80" x1="-508.48" y1="3696.95" x2="-508.48" y2="3693.07" gradientTransform="translate(1335.77 -3201.93) rotate(-179.1) scale(1 -1)" xlink:href="#linear-gradient"></linearGradient> <linearGradient id="linear-gradient-81" x1="-530.71" y1="3683.9" x2="-530.71" y2="3680.02" gradientTransform="translate(1335.77 -3201.93) rotate(-179.1) scale(1 -1)" xlink:href="#linear-gradient"></linearGradient> <linearGradient id="linear-gradient-82" x1="-552.84" y1="3659.88" x2="-552.84" y2="3650.14" gradientTransform="translate(1335.77 -3201.93) rotate(-179.1) scale(1 -1)" xlink:href="#linear-gradient"></linearGradient> <linearGradient id="linear-gradient-83" x1="-575.55" y1="3708.95" x2="-575.55" y2="3705.88" gradientTransform="translate(1335.77 -3201.93) rotate(-179.1) scale(1 -1)" xlink:href="#linear-gradient"></linearGradient> <linearGradient id="linear-gradient-84" x1="-560.52" y1="3560.17" x2="-560.52" y2="3555.18" gradientTransform="translate(1335.77 -3201.93) rotate(-179.1) scale(1 -1)" xlink:href="#linear-gradient"></linearGradient> <linearGradient id="linear-gradient-85" x1="-531.27" y1="3316.28" x2="-531.27" y2="3311.29" gradientTransform="translate(1335.77 -3201.93) rotate(-179.1) scale(1 -1)" xlink:href="#linear-gradient"></linearGradient> <linearGradient id="linear-gradient-86" x1="-577.54" y1="3622.09" x2="-577.54" y2="3618.54" gradientTransform="translate(1335.77 -3201.93) rotate(-179.1) scale(1 -1)" xlink:href="#linear-gradient"></linearGradient> <linearGradient id="linear-gradient-87" x1="-537.28" y1="3582.4" x2="-537.28" y2="3578.86" gradientTransform="translate(1335.77 -3201.93) rotate(-179.1) scale(1 -1)" xlink:href="#linear-gradient"></linearGradient> <linearGradient id="linear-gradient-88" x1="-466.27" y1="3633.15" x2="-466.27" y2="3628.15" gradientTransform="translate(1335.77 -3201.93) rotate(-179.1) scale(1 -1)" xlink:href="#linear-gradient"></linearGradient> <linearGradient id="linear-gradient-89" x1="-379.74" y1="3633.77" x2="-379.74" y2="3628.78" gradientTransform="translate(1335.77 -3201.93) rotate(-179.1) scale(1 -1)" xlink:href="#linear-gradient"></linearGradient> <linearGradient id="linear-gradient-90" x1="-465.19" y1="3489.14" x2="-465.19" y2="3472.38" gradientTransform="translate(1335.77 -3201.93) rotate(-179.1) scale(1 -1)" xlink:href="#linear-gradient"></linearGradient> <linearGradient id="linear-gradient-91" x1="-463.99" y1="3322.65" x2="-463.99" y2="3305.88" gradientTransform="translate(1335.77 -3201.93) rotate(-179.1) scale(1 -1)" xlink:href="#linear-gradient"></linearGradient> <linearGradient id="linear-gradient-92" x1="-509" y1="3560.26" x2="-509" y2="3550.52" gradientTransform="translate(1335.77 -3201.93) rotate(-179.1) scale(1 -1)" xlink:href="#linear-gradient"></linearGradient> <linearGradient id="linear-gradient-93" x1="-600.61" y1="3394.97" x2="-600.61" y2="3385.23" gradientTransform="translate(1335.77 -3201.93) rotate(-179.1) scale(1 -1)" xlink:href="#linear-gradient"></linearGradient> <linearGradient id="linear-gradient-94" x1="-508.64" y1="3507.93" x2="-508.64" y2="3502.94" gradientTransform="translate(1335.77 -3201.93) rotate(-179.1) scale(1 -1)" xlink:href="#linear-gradient"></linearGradient> <linearGradient id="linear-gradient-95" x1="-601.18" y1="3472.03" x2="-601.18" y2="3467.04" gradientTransform="translate(1335.77 -3201.93) rotate(-179.1) scale(1 -1)" xlink:href="#linear-gradient"></linearGradient> <linearGradient id="linear-gradient-96" x1="-554.75" y1="3392.93" x2="-554.75" y2="3387.94" gradientTransform="translate(1335.77 -3201.93) rotate(-179.1) scale(1 -1)" xlink:href="#linear-gradient"></linearGradient> <linearGradient id="linear-gradient-97" x1="-422.47" y1="3558.51" x2="-422.47" y2="3553.52" gradientTransform="translate(1335.77 -3201.93) rotate(-179.1) scale(1 -1)" xlink:href="#linear-gradient"></linearGradient> <linearGradient id="linear-gradient-98" x1="-422.1" y1="3510.93" x2="-422.1" y2="3501.19" gradientTransform="translate(1335.77 -3201.93) rotate(-179.1) scale(1 -1)" xlink:href="#linear-gradient"></linearGradient> <linearGradient id="linear-gradient-99" x1="-379.38" y1="3586.18" x2="-379.38" y2="3576.44" gradientTransform="translate(1335.77 -3201.93) rotate(-179.1) scale(1 -1)" xlink:href="#linear-gradient"></linearGradient> <linearGradient id="linear-gradient-100" x1="-532.11" y1="3435.19" x2="-532.11" y2="3425.45" gradientTransform="translate(1335.77 -3201.93) rotate(-179.1) scale(1 -1)" xlink:href="#linear-gradient"></linearGradient> <linearGradient id="linear-gradient-101" x1="-430.76" y1="3375.28" x2="-430.76" y2="3370.28" gradientTransform="translate(1335.77 -3201.93) rotate(-179.1) scale(1 -1)" xlink:href="#linear-gradient"></linearGradient> <linearGradient id="linear-gradient-102" x1="-464.83" y1="3433.3" x2="-464.83" y2="3428.31" gradientTransform="translate(1335.77 -3201.93) rotate(-179.1) scale(1 -1)" xlink:href="#linear-gradient"></linearGradient> <linearGradient id="linear-gradient-103" x1="-555.33" y1="3474.73" x2="-555.33" y2="3465" gradientTransform="translate(1335.77 -3201.93) rotate(-179.1) scale(1 -1)" xlink:href="#linear-gradient"></linearGradient> <linearGradient id="linear-gradient-104" x1="2073" y1="486.11" x2="2073" y2="-683.14" gradientTransform="translate(-271.34 793.96)" gradientUnits="userSpaceOnUse"> <stop offset="0" stop-color="#fff"></stop> <stop offset=".18" stop-color="#fafbfb"></stop> <stop offset=".36" stop-color="#eef1f1"></stop> <stop offset=".55" stop-color="#d9dfe1"></stop> <stop offset=".74" stop-color="#bcc7ca"></stop> <stop offset=".93" stop-color="#98a8ad"></stop> <stop offset="1" stop-color="#889ba1"></stop> </linearGradient> <linearGradient id="linear-gradient-105" gradientTransform="translate(1031.17 -1497.66) rotate(74.52)" xlink:href="#linear-gradient-104"></linearGradient> </defs> <g style="clip-path:url(#clippath);"> <g style="opacity:.4;"> <g style="opacity:.5;"> <g style="opacity:.5;"> <g> <polygon points="1534.08 39.66 1533.89 39.31 1496.39 -26.72 1496.59 -27.07 1534.83 -92.2 1536.02 -91.5 1497.99 -26.71 1534.89 38.28 1609.62 38.82 1647.66 -25.97 1648.85 -25.27 1610.41 40.21 1610.01 40.21 1534.08 39.66" style="fill:url(#linear-gradient);"></polygon> <polygon points="1649.14 70.26 1657.64 39.4 1688.23 31.44 1688.58 32.78 1658.76 40.54 1650.68 69.86 1672.3 91.8 1671.32 92.77 1649.14 70.26" style="fill:url(#linear-gradient-2);"></polygon> <polygon points="1687.63 32.31 1699.8 -11.82 1743.72 -23.25 1744.07 -21.91 1700.92 -10.69 1689.18 31.91 1720.19 63.38 1763.34 52.15 1763.69 53.49 1719.77 64.91 1687.63 32.31" style="fill:url(#linear-gradient-3);"></polygon> <polygon points="1743.3 -22.93 1760.36 -51.99 1760.75 -51.98 1794.44 -51.74 1811.27 -22.09 1794.22 6.96 1793.02 6.26 1809.68 -22.1 1793.63 -50.37 1761.14 -50.6 1744.49 -22.23 1743.3 -22.93" style="fill:url(#linear-gradient-4);"></polygon> <polygon points="1803.18 46.1 1792.95 6.78 1794.29 6.44 1804.31 44.99 1842.33 55.47 1870.7 27.51 1871.67 28.49 1842.73 57.01 1803.18 46.1" style="fill:url(#linear-gradient-5);"></polygon> <polygon points="1847.06 96.63 1841.85 56.33 1843.22 56.15 1848.32 95.66 1885.09 110.99 1884.55 112.26 1847.06 96.63" style="fill:url(#linear-gradient-6);"></polygon> <polygon points="1768.04 93.2 1762.83 52.91 1764.2 52.73 1769.3 92.23 1806.07 107.56 1805.54 108.84 1768.04 93.2" style="fill:url(#linear-gradient-7);"></polygon> <rect x="1738.37" y="109.38" width="40.23" height="1.38" transform="translate(773.08 1570.67) rotate(-59.58)" style="fill:url(#linear-gradient-8);"></rect> <polygon points="1871 28.66 1871.37 27.33 1909.77 37.93 1938.14 9.96 1939.11 10.94 1910.17 39.47 1871 28.66" style="fill:url(#linear-gradient-9);"></polygon> <polygon points="1829.21 143.59 1829.91 142.4 1856.96 158.29 1883.9 142.99 1884.13 111.62 1885.51 111.63 1885.27 143.8 1856.95 159.88 1829.21 143.59" style="fill:url(#linear-gradient-10);"></polygon> <polygon points="1644.08 129.23 1643.55 127.95 1667.66 118.04 1671.13 92.19 1672.5 92.38 1668.93 119.01 1644.08 129.23" style="fill:url(#linear-gradient-11);"></polygon> <rect x="1700.05" y="74.87" width="26.47" height="1.38" transform="translate(781.05 1515) rotate(-59.6)" style="fill:url(#linear-gradient-12);"></rect> <polygon points="1533.49 121.36 1509.81 79.64 1510.01 79.3 1533.89 38.62 1535.08 39.32 1511.4 79.66 1534.3 119.99 1581.07 120.32 1581.06 121.7 1533.49 121.36" style="fill:url(#linear-gradient-13);"></polygon> <polygon points="1465.98 91.67 1459.27 65.85 1460.6 65.51 1467.12 90.55 1491.69 97.32 1510.12 79.16 1511.09 80.14 1492.09 98.87 1465.98 91.67" style="fill:url(#linear-gradient-14);"></polygon> </g> <g> <path d="M1604.47,33.13c3.53-3.06,8.87-2.68,11.93,.84s2.69,8.87-.84,11.93c-3.53,3.06-8.87,2.69-11.93-.84-3.06-3.53-2.69-8.87,.84-11.93Z" style="fill:url(#linear-gradient-15);"></path> <path d="M1682.86,25.72c3.52-3.06,8.86-2.69,11.93,.84,3.06,3.53,2.69,8.87-.84,11.93-3.53,3.06-8.87,2.69-11.93-.84-3.06-3.53-2.69-8.87,.84-11.93Z" style="fill:url(#linear-gradient-16);"></path> <path d="M1836.99,49.86c3.53-3.06,8.87-2.69,11.94,.84,3.06,3.52,2.68,8.87-.84,11.93-3.53,3.06-8.87,2.69-11.93-.84-3.07-3.53-2.69-8.87,.84-11.94Z" style="fill:url(#linear-gradient-17);"></path> <path d="M1717.93,61.78c1.31-1.13,3.29-1,4.42,.31s.99,3.29-.31,4.42c-1.31,1.14-3.29,.99-4.42-.31-1.14-1.31-1-3.29,.31-4.42Z" style="fill:url(#linear-gradient-18);"></path> <path d="M1766.62,90.35c1.31-1.13,3.29-1,4.42,.31,1.13,1.31,.99,3.29-.31,4.42-1.31,1.13-3.29,1-4.42-.31-1.14-1.31-1-3.29,.31-4.42Z" style="fill:url(#linear-gradient-19);"></path> <path d="M1528.94,32.58c3.53-3.06,8.87-2.69,11.93,.84s2.68,8.87-.84,11.93c-3.53,3.06-8.87,2.69-11.93-.83s-2.69-8.87,.84-11.94Z" style="fill:url(#linear-gradient-20);"></path> <path d="M1507.38,75.94c2.05-1.78,5.15-1.56,6.93,.49,1.78,2.05,1.56,5.15-.49,6.93-2.05,1.78-5.15,1.56-6.93-.49-1.78-2.05-1.56-5.15,.49-6.93Z" style="fill:url(#linear-gradient-21);"></path> <path d="M1531.84,118.3c1.31-1.14,3.3-1,4.44,.31s1,3.29-.31,4.43c-1.31,1.14-3.3,1-4.43-.31-1.14-1.31-1-3.3,.31-4.44Z" style="fill:url(#linear-gradient-22);"></path> <path d="M1577.84,117.3c2.05-1.78,5.15-1.56,6.93,.49,1.78,2.05,1.56,5.15-.49,6.93-2.05,1.78-5.15,1.56-6.93-.49-1.78-2.05-1.56-5.15,.48-6.93Z" style="fill:url(#linear-gradient-23);"></path> <path d="M1646.68,66.35c2.05-1.78,5.15-1.56,6.93,.49,1.78,2.05,1.56,5.15-.49,6.93s-5.15,1.56-6.93-.48-1.56-5.15,.49-6.93Z" style="fill:url(#linear-gradient-24);"></path> <path d="M1666.94-7.1c2.05-1.78,5.15-1.56,6.93,.49s1.56,5.15-.49,6.93c-2.05,1.78-5.15,1.57-6.93-.48-1.78-2.05-1.56-5.15,.49-6.93Z" style="fill:url(#linear-gradient-25);"></path> <path d="M1760.29,49.11c2.05-1.78,5.15-1.57,6.93,.49,1.78,2.05,1.56,5.15-.49,6.93-2.05,1.78-5.15,1.56-6.93-.49s-1.56-5.15,.49-6.93Z" style="fill:url(#linear-gradient-26);"></path> <path d="M1867.97,24.29c2.05-1.78,5.15-1.56,6.93,.49,1.78,2.04,1.56,5.15-.49,6.93-2.05,1.78-5.15,1.56-6.93-.48s-1.56-5.15,.49-6.93Z" style="fill:url(#linear-gradient-27);"></path> <path d="M1881.6,107.92c2.05-1.78,5.15-1.56,6.93,.48s1.56,5.16-.48,6.93c-2.05,1.78-5.15,1.56-6.93-.49-1.78-2.05-1.56-5.15,.49-6.93Z" style="fill:url(#linear-gradient-28);"></path> <path d="M1464.9,89.21c1.05-.91,2.64-.8,3.55,.25,.91,1.05,.8,2.64-.25,3.55s-2.64,.8-3.55-.25c-.91-1.05-.8-2.64,.25-3.56Z" style="fill:url(#linear-gradient-29);"></path> <path d="M1490.24,96.19c1.05-.91,2.64-.8,3.55,.25s.8,2.64-.25,3.55c-1.05,.91-2.64,.8-3.55-.25-.91-1.05-.8-2.64,.25-3.55Z" style="fill:url(#linear-gradient-30);"></path> <path d="M1456.71,61.97c2.05-1.78,5.15-1.56,6.93,.49s1.56,5.15-.49,6.93c-2.05,1.78-5.15,1.56-6.93-.49-1.78-2.05-1.56-5.15,.49-6.93Z" style="fill:url(#linear-gradient-31);"></path> <path d="M1669.75,89.91c1.31-1.14,3.3-1,4.44,.31s1,3.29-.31,4.44c-1.31,1.14-3.3,1-4.43-.31-1.14-1.31-1-3.3,.31-4.44Z" style="fill:url(#linear-gradient-32);"></path> <path d="M1641.75,126.22c1.31-1.14,3.3-1,4.44,.31s1,3.3-.31,4.44c-1.31,1.14-3.3,1-4.44-.32-1.14-1.31-1-3.3,.31-4.43Z" style="fill:url(#linear-gradient-33);"></path> <path d="M1667.01,117.04c.82-.71,2.05-.62,2.76,.19,.71,.82,.62,2.05-.2,2.76-.82,.71-2.05,.62-2.76-.19-.71-.82-.62-2.05,.19-2.76Z" style="fill:url(#linear-gradient-34);"></path> <path d="M1747.02,125.94c.82-.71,2.05-.63,2.76,.19s.62,2.05-.2,2.76c-.82,.71-2.05,.62-2.76-.19s-.62-2.05,.2-2.76Z" style="fill:url(#linear-gradient-35);"></path> <path d="M1804.52,106.72c.82-.71,2.06-.62,2.76,.2s.62,2.05-.19,2.76-2.05,.62-2.76-.2c-.71-.81-.62-2.06,.19-2.76Z" style="fill:url(#linear-gradient-36);"></path> <path d="M1882.53,141.03c1.31-1.14,3.29-1,4.42,.31,1.13,1.31,.99,3.28-.31,4.42s-3.28,1-4.42-.31-1-3.29,.31-4.42Z" style="fill:url(#linear-gradient-37);"></path> <path d="M1828.28,141.52c.82-.71,2.05-.62,2.76,.19s.62,2.05-.2,2.76c-.82,.71-2.05,.62-2.76-.19s-.62-2.05,.19-2.76Z" style="fill:url(#linear-gradient-38);"></path> <path d="M1705.3,85.5c.82-.71,2.05-.62,2.76,.2s.62,2.05-.2,2.76c-.82,.71-2.05,.62-2.76-.19-.71-.82-.62-2.05,.19-2.76Z" style="fill:url(#linear-gradient-39);"></path> </g> </g> </g> <g> <g> <polygon points="1534.08 39.66 1533.89 39.31 1496.39 -26.72 1496.59 -27.07 1534.83 -92.2 1536.02 -91.5 1497.99 -26.71 1534.89 38.28 1609.62 38.82 1647.66 -25.97 1648.85 -25.27 1610.41 40.21 1610.01 40.21 1534.08 39.66" style="fill:url(#linear-gradient-40);"></polygon> <polygon points="1649.14 70.26 1657.64 39.4 1688.23 31.44 1688.58 32.78 1658.76 40.54 1650.68 69.86 1672.3 91.8 1671.32 92.77 1649.14 70.26" style="fill:url(#linear-gradient-40);"></polygon> <polygon points="1687.63 32.31 1699.8 -11.82 1743.72 -23.25 1744.07 -21.91 1700.92 -10.69 1689.18 31.91 1720.19 63.38 1763.34 52.15 1763.69 53.49 1719.77 64.91 1687.63 32.31" style="fill:url(#linear-gradient-40);"></polygon> <polygon points="1743.3 -22.93 1760.36 -51.99 1760.75 -51.98 1794.44 -51.74 1811.27 -22.09 1794.22 6.96 1793.02 6.26 1809.68 -22.1 1793.63 -50.37 1761.14 -50.6 1744.49 -22.23 1743.3 -22.93" style="fill:url(#linear-gradient-40);"></polygon> <polygon points="1803.18 46.1 1792.95 6.78 1794.29 6.44 1804.31 44.99 1842.33 55.47 1870.7 27.51 1871.67 28.49 1842.73 57.01 1803.18 46.1" style="fill:url(#linear-gradient-40);"></polygon> <polygon points="1847.06 96.63 1841.85 56.33 1843.22 56.15 1848.32 95.66 1885.09 110.99 1884.55 112.26 1847.06 96.63" style="fill:url(#linear-gradient-40);"></polygon> <polygon points="1768.04 93.2 1762.83 52.91 1764.2 52.73 1769.3 92.23 1806.07 107.56 1805.54 108.84 1768.04 93.2" style="fill:url(#linear-gradient-40);"></polygon> <rect x="1738.37" y="109.38" width="40.23" height="1.38" transform="translate(773.08 1570.67) rotate(-59.58)" style="fill:url(#linear-gradient-41);"></rect> <polygon points="1871 28.66 1871.37 27.33 1909.77 37.93 1938.14 9.96 1939.11 10.94 1910.17 39.47 1871 28.66" style="fill:url(#linear-gradient-40);"></polygon> <polygon points="1829.21 143.59 1829.91 142.4 1856.96 158.29 1883.9 142.99 1884.13 111.62 1885.51 111.63 1885.27 143.8 1856.95 159.88 1829.21 143.59" style="fill:url(#linear-gradient-40);"></polygon> <polygon points="1644.08 129.23 1643.55 127.95 1667.66 118.04 1671.13 92.19 1672.5 92.38 1668.93 119.01 1644.08 129.23" style="fill:url(#linear-gradient-40);"></polygon> <rect x="1700.05" y="74.87" width="26.47" height="1.38" transform="translate(781.05 1515) rotate(-59.6)" style="fill:url(#linear-gradient-42);"></rect> <polygon points="1533.49 121.36 1509.81 79.64 1510.01 79.3 1533.89 38.62 1535.08 39.32 1511.4 79.66 1534.3 119.99 1581.07 120.32 1581.06 121.7 1533.49 121.36" style="fill:url(#linear-gradient-40);"></polygon> <polygon points="1465.98 91.67 1459.27 65.85 1460.6 65.51 1467.12 90.55 1491.69 97.32 1510.12 79.16 1511.09 80.14 1492.09 98.87 1465.98 91.67" style="fill:url(#linear-gradient-40);"></polygon> </g> <g> <path d="M1604.47,33.13c3.53-3.06,8.87-2.68,11.93,.84s2.69,8.87-.84,11.93c-3.53,3.06-8.87,2.69-11.93-.84-3.06-3.53-2.69-8.87,.84-11.93Z" style="fill:url(#linear-gradient-40);"></path> <path d="M1682.86,25.72c3.52-3.06,8.86-2.69,11.93,.84,3.06,3.53,2.69,8.87-.84,11.93-3.53,3.06-8.87,2.69-11.93-.84-3.06-3.53-2.69-8.87,.84-11.93Z" style="fill:url(#linear-gradient-40);"></path> <path d="M1836.99,49.86c3.53-3.06,8.87-2.69,11.94,.84,3.06,3.52,2.68,8.87-.84,11.93-3.53,3.06-8.87,2.69-11.93-.84-3.07-3.53-2.69-8.87,.84-11.94Z" style="fill:url(#linear-gradient-40);"></path> <path d="M1717.93,61.78c1.31-1.13,3.29-1,4.42,.31s.99,3.29-.31,4.42c-1.31,1.14-3.29,.99-4.42-.31-1.14-1.31-1-3.29,.31-4.42Z" style="fill:url(#linear-gradient-40);"></path> <path d="M1766.62,90.35c1.31-1.13,3.29-1,4.42,.31,1.13,1.31,.99,3.29-.31,4.42-1.31,1.13-3.29,1-4.42-.31-1.14-1.31-1-3.29,.31-4.42Z" style="fill:url(#linear-gradient-40);"></path> <path d="M1528.94,32.58c3.53-3.06,8.87-2.69,11.93,.84s2.68,8.87-.84,11.93c-3.53,3.06-8.87,2.69-11.93-.83s-2.69-8.87,.84-11.94Z" style="fill:url(#linear-gradient-40);"></path> <path d="M1507.38,75.94c2.05-1.78,5.15-1.56,6.93,.49,1.78,2.05,1.56,5.15-.49,6.93-2.05,1.78-5.15,1.56-6.93-.49-1.78-2.05-1.56-5.15,.49-6.93Z" style="fill:url(#linear-gradient-40);"></path> <path d="M1531.84,118.3c1.31-1.14,3.3-1,4.44,.31s1,3.29-.31,4.43c-1.31,1.14-3.3,1-4.43-.31-1.14-1.31-1-3.3,.31-4.44Z" style="fill:url(#linear-gradient-40);"></path> <path d="M1577.84,117.3c2.05-1.78,5.15-1.56,6.93,.49,1.78,2.05,1.56,5.15-.49,6.93-2.05,1.78-5.15,1.56-6.93-.49-1.78-2.05-1.56-5.15,.48-6.93Z" style="fill:url(#linear-gradient-40);"></path> <path d="M1646.68,66.35c2.05-1.78,5.15-1.56,6.93,.49,1.78,2.05,1.56,5.15-.49,6.93s-5.15,1.56-6.93-.48-1.56-5.15,.49-6.93Z" style="fill:url(#linear-gradient-40);"></path> <path d="M1666.94-7.1c2.05-1.78,5.15-1.56,6.93,.49s1.56,5.15-.49,6.93c-2.05,1.78-5.15,1.57-6.93-.48-1.78-2.05-1.56-5.15,.49-6.93Z" style="fill:url(#linear-gradient-40);"></path> <path d="M1760.29,49.11c2.05-1.78,5.15-1.57,6.93,.49,1.78,2.05,1.56,5.15-.49,6.93-2.05,1.78-5.15,1.56-6.93-.49s-1.56-5.15,.49-6.93Z" style="fill:url(#linear-gradient-40);"></path> <path d="M1867.97,24.29c2.05-1.78,5.15-1.56,6.93,.49,1.78,2.04,1.56,5.15-.49,6.93-2.05,1.78-5.15,1.56-6.93-.48s-1.56-5.15,.49-6.93Z" style="fill:url(#linear-gradient-40);"></path> <path d="M1881.6,107.92c2.05-1.78,5.15-1.56,6.93,.48s1.56,5.16-.48,6.93c-2.05,1.78-5.15,1.56-6.93-.49-1.78-2.05-1.56-5.15,.49-6.93Z" style="fill:url(#linear-gradient-40);"></path> <path d="M1464.9,89.21c1.05-.91,2.64-.8,3.55,.25,.91,1.05,.8,2.64-.25,3.55s-2.64,.8-3.55-.25c-.91-1.05-.8-2.64,.25-3.56Z" style="fill:url(#linear-gradient-40);"></path> <path d="M1490.24,96.19c1.05-.91,2.64-.8,3.55,.25s.8,2.64-.25,3.55c-1.05,.91-2.64,.8-3.55-.25-.91-1.05-.8-2.64,.25-3.55Z" style="fill:url(#linear-gradient-40);"></path> <path d="M1456.71,61.97c2.05-1.78,5.15-1.56,6.93,.49s1.56,5.15-.49,6.93c-2.05,1.78-5.15,1.56-6.93-.49-1.78-2.05-1.56-5.15,.49-6.93Z" style="fill:url(#linear-gradient-40);"></path> <path d="M1669.75,89.91c1.31-1.14,3.3-1,4.44,.31s1,3.29-.31,4.44c-1.31,1.14-3.3,1-4.43-.31-1.14-1.31-1-3.3,.31-4.44Z" style="fill:url(#linear-gradient-40);"></path> <path d="M1641.75,126.22c1.31-1.14,3.3-1,4.44,.31s1,3.3-.31,4.44c-1.31,1.14-3.3,1-4.44-.32-1.14-1.31-1-3.3,.31-4.43Z" style="fill:url(#linear-gradient-40);"></path> <path d="M1667.01,117.04c.82-.71,2.05-.62,2.76,.19,.71,.82,.62,2.05-.2,2.76-.82,.71-2.05,.62-2.76-.19-.71-.82-.62-2.05,.19-2.76Z" style="fill:url(#linear-gradient-40);"></path> <path d="M1747.02,125.94c.82-.71,2.05-.63,2.76,.19s.62,2.05-.2,2.76c-.82,.71-2.05,.62-2.76-.19s-.62-2.05,.2-2.76Z" style="fill:url(#linear-gradient-40);"></path> <path d="M1804.52,106.72c.82-.71,2.06-.62,2.76,.2s.62,2.05-.19,2.76-2.05,.62-2.76-.2c-.71-.81-.62-2.06,.19-2.76Z" style="fill:url(#linear-gradient-40);"></path> <path d="M1882.53,141.03c1.31-1.14,3.29-1,4.42,.31,1.13,1.31,.99,3.28-.31,4.42s-3.28,1-4.42-.31-1-3.29,.31-4.42Z" style="fill:url(#linear-gradient-40);"></path> <path d="M1828.28,141.52c.82-.71,2.05-.62,2.76,.19s.62,2.05-.2,2.76c-.82,.71-2.05,.62-2.76-.19s-.62-2.05,.19-2.76Z" style="fill:url(#linear-gradient-40);"></path> <path d="M1705.3,85.5c.82-.71,2.05-.62,2.76,.2s.62,2.05-.2,2.76c-.82,.71-2.05,.62-2.76-.19-.71-.82-.62-2.05,.19-2.76Z" style="fill:url(#linear-gradient-40);"></path> </g> </g> </g> </g> <rect x="0" y="0" width="1900" height="513.35" transform="translate(1900 513.35) rotate(180)" style="fill:url(#linear-gradient-43);"></rect> <g> <path d="M695.18,114.52v-43.9h-13.54v-2.74h30.16v2.74h-13.54v43.9h-3.08Z"></path> <path d="M710.78,98.1c0-5.01,1.69-9.17,5.06-12.48,3.37-3.31,7.52-4.96,12.45-4.96s9.19,1.66,12.51,4.99c3.33,3.33,4.99,7.48,4.99,12.45s-1.68,9.03-5.03,12.45c-3.35,3.42-7.51,5.13-12.48,5.13s-9.07-1.69-12.45-5.06c-3.38-3.37-5.06-7.54-5.06-12.51Zm3.08,0c0,4.24,1.44,7.77,4.31,10.6,2.87,2.83,6.25,4.24,10.12,4.24,4.15,0,7.59-1.41,10.33-4.24s4.1-6.36,4.1-10.6-1.35-7.58-4.04-10.43c-2.69-2.85-6.15-4.27-10.39-4.27s-7.65,1.38-10.36,4.14c-2.71,2.76-4.07,6.28-4.07,10.57Z"></path> <path d="M760.77,84.49l-1.64,20.38c-.32,3.83-1.03,6.49-2.12,7.97-1.09,1.48-2.9,2.22-5.4,2.22-.78,0-1.44-.09-1.98-.27v-2.74c.55,.18,1.19,.27,1.92,.27,1.46,0,2.54-.48,3.25-1.44,.71-.96,1.17-2.76,1.4-5.4l1.98-23.73h21.82v32.76h-2.87v-30.02h-16.34Z"></path> <path d="M793.66,96.05h7.18c3.56,0,6.25,.83,8.07,2.5s2.74,3.86,2.74,6.6c0,2.92-.98,5.21-2.94,6.87s-4.72,2.5-8.27,2.5h-9.64v-32.76h2.87v14.29Zm7.32,2.6h-7.32v13.27h6.63c5.65,0,8.48-2.28,8.48-6.84,0-4.28-2.6-6.43-7.8-6.43Z"></path> <path d="M820.67,114.52v-32.76h2.87v15.04l16.41-15.04h3.83l-16.82,15.25,17.1,17.51h-3.97l-16.55-17.23v17.23h-2.87Z"></path> <path d="M848.02,98.1c0-5.01,1.69-9.17,5.06-12.48,3.37-3.31,7.52-4.96,12.45-4.96s9.19,1.66,12.51,4.99c3.33,3.33,4.99,7.48,4.99,12.45s-1.68,9.03-5.03,12.45c-3.35,3.42-7.51,5.13-12.48,5.13s-9.07-1.69-12.45-5.06c-3.38-3.37-5.06-7.54-5.06-12.51Zm3.08,0c0,4.24,1.44,7.77,4.31,10.6,2.87,2.83,6.25,4.24,10.12,4.24,4.15,0,7.59-1.41,10.33-4.24s4.1-6.36,4.1-10.6-1.35-7.58-4.04-10.43c-2.69-2.85-6.15-4.27-10.39-4.27s-7.65,1.38-10.36,4.14c-2.71,2.76-4.07,6.28-4.07,10.57Z"></path> <path d="M906.35,98.1c0-5.01,1.69-9.17,5.06-12.48,3.37-3.31,7.52-4.96,12.45-4.96s9.19,1.66,12.51,4.99c3.33,3.33,4.99,7.48,4.99,12.45s-1.68,9.03-5.03,12.45c-3.35,3.42-7.51,5.13-12.48,5.13s-9.07-1.69-12.45-5.06c-3.38-3.37-5.06-7.54-5.06-12.51Zm3.08,0c0,4.24,1.44,7.77,4.31,10.6,2.87,2.83,6.25,4.24,10.12,4.24,4.15,0,7.59-1.41,10.33-4.24s4.1-6.36,4.1-10.6-1.35-7.58-4.04-10.43c-2.69-2.85-6.15-4.27-10.39-4.27s-7.65,1.38-10.36,4.14c-2.71,2.76-4.07,6.28-4.07,10.57Z"></path> <path d="M945.88,111.78h.62c4.65,0,7.43-5.68,8.34-17.03l1.09-12.99h19.97v30.02h5.33v13.33h-2.87v-10.6h-29.61v10.6h-2.87v-13.33Zm6.63,0h20.52v-27.29h-14.5l-.82,10.26c-.32,4.38-.89,7.86-1.71,10.46s-1.98,4.79-3.49,6.57Z"></path> <path d="M989.03,114.52v-32.76h2.87v18.87c0,3.97-.07,7.29-.21,9.98h.14c.68-1.41,2.19-3.56,4.51-6.43l17.44-22.43h2.39v32.76h-2.87v-18.46c0-4.01,.07-7.34,.21-9.98h-.14c-.5,.91-2.05,3.05-4.65,6.43l-17.3,22.02h-2.39Z"></path> <path d="M1054.13,81.76v32.76h-2.87v-15.73h-21.4v15.73h-2.87v-32.76h2.87v14.29h21.4v-14.29h2.87Z"></path> <path d="M1078.61,111.78h.62c4.65,0,7.43-5.68,8.34-17.03l1.09-12.99h19.97v30.02h5.33v13.33h-2.87v-10.6h-29.61v10.6h-2.87v-13.33Zm6.63,0h20.52v-27.29h-14.5l-.82,10.26c-.32,4.38-.89,7.86-1.71,10.46s-1.98,4.79-3.49,6.57Z"></path> <path d="M1135.37,80.66c4.92,.05,8.87,1.78,11.83,5.2,2.96,3.42,4.45,7.5,4.45,12.24v.48h-29.41c.09,4.19,1.49,7.67,4.21,10.43,2.71,2.76,5.96,4.14,9.74,4.14,2.69,0,4.9-.52,6.63-1.57,1.73-1.05,3.28-2.6,4.65-4.65h3.56c-3.38,5.88-8.27,8.82-14.7,8.82-4.97,0-9.07-1.69-12.31-5.06-3.24-3.37-4.86-7.57-4.86-12.58s1.54-9.12,4.62-12.45c3.08-3.33,6.94-4.99,11.59-4.99Zm0,2.74c-3.69,0-6.73,1.26-9.1,3.79s-3.67,5.53-3.9,8.99h26.12c-.41-3.46-1.77-6.46-4.07-8.99-2.3-2.53-5.32-3.79-9.06-3.79Z"></path> <path d="M1187.34,81.76v32.76h-2.87v-15.73h-21.4v15.73h-2.87v-32.76h2.87v14.29h21.4v-14.29h2.87Z"></path> <path d="M1201.02,96.05h7.18c3.56,0,6.25,.83,8.07,2.5s2.74,3.86,2.74,6.6c0,2.92-.98,5.21-2.94,6.87s-4.72,2.5-8.27,2.5h-9.64v-32.76h2.87v14.29Zm7.32,2.6h-7.32v13.27h6.63c5.65,0,8.48-2.28,8.48-6.84,0-4.28-2.6-6.43-7.8-6.43Z"></path> <path d="M1228.85,114.52v-5.13h4.58v5.13h-4.58Zm.82-46.64h3.01l-.48,33.71h-2.05l-.48-33.71Z"></path> <path d="M686.25,141.23v12.83h6.8c3.45,0,6.15,.74,8.11,2.23,1.96,1.48,2.94,3.73,2.94,6.73,0,5.97-3.58,8.95-10.72,8.95h-9.29v-32.65h17.52v1.92h-15.37Zm15.56,21.83c0-2.2-.73-3.93-2.2-5.19-1.47-1.26-3.65-1.89-6.56-1.89h-6.8v14.07h7.23c5.55,0,8.33-2.33,8.33-6.99Z"></path> <path d="M719.8,148.26c3.45,.03,6.21,1.24,8.28,3.64,2.07,2.39,3.11,5.25,3.11,8.57v.33h-20.58c.06,2.94,1.04,5.37,2.94,7.3,1.9,1.93,4.17,2.9,6.82,2.9,1.88,0,3.43-.37,4.64-1.1,1.21-.73,2.3-1.82,3.25-3.25h2.49c-2.36,4.12-5.79,6.17-10.29,6.17-3.48,0-6.35-1.18-8.62-3.54-2.27-2.36-3.4-5.3-3.4-8.81s1.08-6.38,3.23-8.71c2.15-2.33,4.86-3.49,8.11-3.49Zm0,1.91c-2.58,0-4.71,.89-6.37,2.66s-2.57,3.87-2.73,6.29h18.29c-.29-2.42-1.24-4.52-2.85-6.29-1.61-1.77-3.73-2.66-6.34-2.66Z"></path> <path d="M736.12,166.41h2.01c.64,3.03,2.87,4.55,6.7,4.55,2.17,0,3.81-.52,4.91-1.56,1.1-1.04,1.65-2.3,1.65-3.81,0-1.4-.55-2.58-1.65-3.52-1.1-.94-2.85-1.41-5.24-1.41h-2.15v-1.72h1.77c2.42,0,4.14-.38,5.15-1.12,1.01-.75,1.51-1.83,1.51-3.23s-.53-2.54-1.6-3.33c-1.07-.78-2.48-1.17-4.24-1.17-1.66,0-3.02,.35-4.07,1.05-1.05,.7-1.69,1.75-1.92,3.16h-1.96c.16-1.75,.96-3.2,2.42-4.33s3.29-1.7,5.53-1.7,4.14,.58,5.62,1.75c1.48,1.17,2.23,2.67,2.23,4.52,0,2.71-1.44,4.47-4.31,5.27,3.29,.96,4.93,2.95,4.93,5.98,0,1.82-.76,3.44-2.27,4.86-1.52,1.42-3.6,2.13-6.25,2.13-2.46,0-4.44-.55-5.96-1.65s-2.45-2.67-2.8-4.71Z"></path> <path d="M790.65,149.03v22.93h-2.01v-21.01h-14.98v21.01h-2.01v-22.93h19Z"></path> <path d="M796.63,160.47c0-3.51,1.18-6.42,3.54-8.74,2.36-2.31,5.27-3.47,8.71-3.47s6.43,1.17,8.76,3.49c2.33,2.33,3.5,5.23,3.5,8.71s-1.17,6.32-3.52,8.71-5.26,3.59-8.74,3.59-6.35-1.18-8.71-3.54c-2.36-2.36-3.54-5.28-3.54-8.76Zm2.15,0c0,2.97,1.01,5.44,3.02,7.42,2.01,1.98,4.37,2.97,7.08,2.97,2.9,0,5.31-.99,7.23-2.97,1.92-1.98,2.87-4.45,2.87-7.42s-.94-5.3-2.82-7.3c-1.88-1.99-4.31-2.99-7.28-2.99s-5.35,.97-7.25,2.9c-1.9,1.93-2.85,4.4-2.85,7.4Z"></path> <path d="M827.12,171.96v-22.93h8.33c2.3,0,4.07,.5,5.31,1.48,1.25,.99,1.87,2.31,1.87,3.97,0,2.62-1.18,4.29-3.54,5.03,1.69,.35,2.99,1.05,3.9,2.08,.91,1.04,1.36,2.29,1.36,3.76,0,4.4-3.02,6.61-9.05,6.61h-8.19Zm8.33-21.11h-6.32v8.09h5.65c3.89,0,5.84-1.47,5.84-4.4,0-2.46-1.72-3.69-5.17-3.69Zm-.24,9.81h-6.08v9.48h6.32c2.49,0,4.26-.41,5.31-1.22,1.05-.81,1.58-2,1.58-3.57,0-3.13-2.38-4.69-7.13-4.69Z"></path> <path d="M864.17,149.03v1.92h-6.89v21.01h-2.01v-21.01h-6.89v-1.92h15.8Z"></path> <path d="M867.05,160.47c0-3.51,1.18-6.42,3.54-8.74,2.36-2.31,5.27-3.47,8.71-3.47s6.43,1.17,8.76,3.49c2.33,2.33,3.5,5.23,3.5,8.71s-1.17,6.32-3.52,8.71-5.26,3.59-8.74,3.59-6.35-1.18-8.71-3.54c-2.36-2.36-3.54-5.28-3.54-8.76Zm2.15,0c0,2.97,1.01,5.44,3.02,7.42,2.01,1.98,4.37,2.97,7.08,2.97,2.9,0,5.31-.99,7.23-2.97,1.92-1.98,2.87-4.45,2.87-7.42s-.94-5.3-2.82-7.3c-1.88-1.99-4.31-2.99-7.28-2.99s-5.35,.97-7.25,2.9c-1.9,1.93-2.85,4.4-2.85,7.4Z"></path> <path d="M897.54,183.21v-34.18h2.01v4.79h.1c2.23-3.7,5.66-5.55,10.29-5.55,3.19,0,5.93,1.14,8.21,3.42,2.28,2.28,3.42,5.24,3.42,8.88s-1.13,6.46-3.4,8.76c-2.27,2.3-5.11,3.45-8.52,3.45-4.44,0-7.75-1.8-9.96-5.41h-.14v15.84h-2.01Zm19.24-15.39c1.75-2.03,2.63-4.44,2.63-7.25s-.88-5.24-2.63-7.3-4.23-3.09-7.42-3.09c-2.71,0-5.05,.97-7.01,2.9-1.96,1.93-2.94,4.38-2.94,7.35s.95,5.61,2.85,7.54,4.24,2.9,7.01,2.9c3.25,0,5.76-1.01,7.51-3.04Z"></path> <path d="M925.97,160.47c0-3.51,1.18-6.42,3.54-8.74,2.36-2.31,5.27-3.47,8.71-3.47s6.43,1.17,8.76,3.49c2.33,2.33,3.5,5.23,3.5,8.71s-1.17,6.32-3.52,8.71-5.26,3.59-8.74,3.59-6.35-1.18-8.71-3.54c-2.36-2.36-3.54-5.28-3.54-8.76Zm2.15,0c0,2.97,1.01,5.44,3.02,7.42,2.01,1.98,4.37,2.97,7.08,2.97,2.9,0,5.31-.99,7.23-2.97,1.92-1.98,2.87-4.45,2.87-7.42s-.94-5.3-2.82-7.3c-1.88-1.99-4.31-2.99-7.28-2.99s-5.35,.97-7.25,2.9c-1.9,1.93-2.85,4.4-2.85,7.4Z"></path> <path d="M956.46,171.96v-22.93h8.33c2.3,0,4.07,.5,5.31,1.48,1.25,.99,1.87,2.31,1.87,3.97,0,2.62-1.18,4.29-3.54,5.03,1.69,.35,2.99,1.05,3.9,2.08,.91,1.04,1.36,2.29,1.36,3.76,0,4.4-3.02,6.61-9.05,6.61h-8.19Zm8.33-21.11h-6.32v8.09h5.65c3.89,0,5.84-1.47,5.84-4.4,0-2.46-1.72-3.69-5.17-3.69Zm-.24,9.81h-6.08v9.48h6.32c2.49,0,4.26-.41,5.31-1.22,1.05-.81,1.58-2,1.58-3.57,0-3.13-2.38-4.69-7.13-4.69Z"></path> <path d="M992.03,171.96v-22.93h2.01v13.21c0,2.78-.05,5.11-.14,6.99h.1c.48-.99,1.53-2.49,3.16-4.5l12.21-15.7h1.67v22.93h-2.01v-12.92c0-2.81,.05-5.14,.14-6.99h-.1c-.35,.64-1.44,2.14-3.26,4.5l-12.11,15.41h-1.68Z"></path> <path d="M1029.46,166.41h2.01c.64,3.03,2.87,4.55,6.7,4.55,2.17,0,3.81-.52,4.91-1.56,1.1-1.04,1.65-2.3,1.65-3.81,0-1.4-.55-2.58-1.65-3.52-1.1-.94-2.85-1.41-5.24-1.41h-2.15v-1.72h1.77c2.42,0,4.14-.38,5.15-1.12,1.01-.75,1.51-1.83,1.51-3.23s-.53-2.54-1.6-3.33c-1.07-.78-2.48-1.17-4.24-1.17-1.66,0-3.02,.35-4.07,1.05-1.05,.7-1.69,1.75-1.92,3.16h-1.96c.16-1.75,.96-3.2,2.42-4.33s3.29-1.7,5.53-1.7,4.14,.58,5.62,1.75c1.48,1.17,2.23,2.67,2.23,4.52,0,2.71-1.44,4.47-4.31,5.27,3.29,.96,4.93,2.95,4.93,5.98,0,1.82-.76,3.44-2.27,4.86-1.52,1.42-3.6,2.13-6.25,2.13-2.46,0-4.44-.55-5.96-1.65s-2.45-2.67-2.8-4.71Z"></path> <path d="M1075.51,149.03v22.93h-2.01v-4.74h-.1c-2.33,3.7-5.76,5.55-10.29,5.55-3.19,0-5.93-1.14-8.21-3.42-2.28-2.28-3.42-5.24-3.42-8.88s1.13-6.46,3.4-8.76c2.27-2.3,5.11-3.45,8.52-3.45,2.33,0,4.35,.52,6.06,1.56,1.71,1.04,3.01,2.32,3.9,3.85h.14v-4.64h2.01Zm-19.24,4.19c-1.75,2.03-2.63,4.44-2.63,7.25s.88,5.24,2.63,7.3c1.75,2.06,4.23,3.09,7.42,3.09,2.68,0,5.01-.96,6.99-2.9,1.98-1.93,2.97-4.38,2.97-7.35s-.95-5.61-2.85-7.54c-1.9-1.93-4.24-2.9-7.01-2.9-3.25,0-5.76,1.01-7.52,3.04Z"></path> <path d="M1102.08,149.03v22.93h-2.01v-21.01h-14.98v21.01h-2.01v-22.93h19Z"></path> <path d="M1109.64,171.96v-22.93h2.01v13.21c0,2.78-.05,5.11-.14,6.99h.1c.48-.99,1.53-2.49,3.16-4.5l12.21-15.7h1.67v22.93h-2.01v-12.92c0-2.81,.05-5.14,.14-6.99h-.1c-.35,.64-1.44,2.14-3.26,4.5l-12.11,15.41h-1.68Z"></path> <path d="M1146.69,148.26c2.81,0,5.07,.65,6.77,1.94,1.71,1.29,2.9,2.86,3.57,4.71h-2.3c-.64-1.5-1.64-2.68-3.02-3.54-1.37-.86-3.03-1.29-4.98-1.29-2.75,0-5.09,.91-7.04,2.73-1.95,1.82-2.92,4.37-2.92,7.66,0,3.03,.95,5.54,2.85,7.52,1.9,1.98,4.3,2.97,7.2,2.97,2.14,0,3.91-.49,5.31-1.48s2.39-2.27,2.97-3.83h2.25c-.77,2.08-2.03,3.78-3.78,5.12-1.76,1.34-4.02,2.01-6.8,2.01-3.38,0-6.25-1.12-8.62-3.38-2.36-2.25-3.54-5.24-3.54-8.98,0-3.45,1.1-6.33,3.3-8.66,2.2-2.33,5.12-3.49,8.76-3.49Z"></path> <path d="M1163.16,171.96v-22.93h2.01v13.21c0,2.78-.05,5.11-.14,6.99h.1c.48-.99,1.53-2.49,3.16-4.5l12.21-15.7h1.67v22.93h-2.01v-12.92c0-2.81,.05-5.14,.14-6.99h-.1c-.35,.64-1.44,2.14-3.26,4.5l-12.11,15.41h-1.68Z"></path> <path d="M1190.3,171.96v-3.59h3.21v3.59h-3.21Zm.58-32.65h2.11l-.33,23.6h-1.44l-.33-23.6Z"></path> </g> <g> <path d="M690.47,288.58c0-6.84,2.36-12.69,7.08-17.54,4.72-4.86,10.61-7.28,17.68-7.28s13.35,2.43,17.88,7.28c4.54,4.86,6.8,10.7,6.8,17.54s-2.37,12.8-7.11,17.61c-4.74,4.81-10.6,7.21-17.58,7.21-4.06,0-7.72-.74-10.98-2.22-3.26-1.48-5.87-3.44-7.83-5.88-1.96-2.44-3.44-5.08-4.45-7.93-1-2.85-1.5-5.78-1.5-8.79Zm3.28,0c0,6.34,2.05,11.6,6.16,15.8,4.1,4.2,9.19,6.29,15.25,6.29s11.16-2.1,15.28-6.29c4.13-4.19,6.19-9.46,6.19-15.8s-2.01-11.6-6.02-15.8-9.16-6.29-15.46-6.29-11.15,2.09-15.25,6.26c-4.1,4.17-6.16,9.45-6.16,15.83Z"></path> <path d="M753.66,281.88l-1.64,20.38c-.32,3.83-1.03,6.49-2.12,7.97-1.09,1.48-2.9,2.22-5.4,2.22-.78,0-1.44-.09-1.98-.27v-2.74c.55,.18,1.19,.27,1.92,.27,1.46,0,2.54-.48,3.25-1.44,.71-.96,1.17-2.76,1.4-5.4l1.98-23.73h21.82v32.76h-2.87v-30.02h-16.34Z"></path> <path d="M784.5,293.44h7.18c3.56,0,6.25,.83,8.07,2.5,1.82,1.66,2.74,3.86,2.74,6.6,0,2.92-.98,5.21-2.94,6.87-1.96,1.66-4.72,2.5-8.28,2.5h-9.64v-32.76h2.87v14.29Zm7.32,2.6h-7.32v13.27h6.63c5.65,0,8.48-2.28,8.48-6.84,0-4.28-2.6-6.43-7.8-6.43Z"></path> <path d="M830.66,279.14v2.74h-18.33v30.02h-2.87v-32.76h21.2Z"></path> <path d="M866.01,279.14v32.76h-2.87v-6.77h-.14c-3.33,5.29-8.23,7.93-14.7,7.93-4.56,0-8.47-1.63-11.73-4.89-3.26-3.26-4.89-7.49-4.89-12.69s1.62-9.23,4.86-12.51c3.24-3.28,7.29-4.92,12.17-4.92,3.33,0,6.21,.74,8.65,2.22,2.44,1.48,4.3,3.32,5.57,5.5h.21v-6.63h2.87Zm-27.49,5.98c-2.51,2.9-3.76,6.35-3.76,10.36s1.25,7.49,3.76,10.43c2.51,2.94,6.04,4.41,10.6,4.41,3.83,0,7.16-1.38,9.98-4.14,2.83-2.76,4.24-6.26,4.24-10.5s-1.36-8.01-4.07-10.77c-2.71-2.76-6.05-4.14-10.02-4.14-4.65,0-8.23,1.45-10.74,4.34Z"></path> <path d="M911.69,263.76c5.52,0,10.06,1.27,13.64,3.8s6.21,5.76,7.9,9.68h-3.49c-1.41-3.28-3.7-5.89-6.87-7.83-3.17-1.94-6.92-2.91-11.25-2.91-5.61,0-10.46,1.95-14.57,5.85-4.1,3.9-6.16,9.29-6.16,16.17,0,6.38,1.96,11.67,5.88,15.87,3.92,4.2,8.98,6.29,15.18,6.29,4.38,0,8.13-1.03,11.25-3.08,3.12-2.05,5.48-4.9,7.08-8.55h3.49c-4.2,9.57-11.56,14.36-22.09,14.36-7.11,0-12.9-2.35-17.37-7.04s-6.7-10.67-6.7-17.92,2.34-12.95,7.01-17.64c4.67-4.7,10.36-7.04,17.06-7.04Z"></path> <path d="M967.22,265.26v2.74h-22.5v18.33h21.75v2.74h-21.75v20.11h23.25v2.74h-26.33v-46.64h25.58Z"></path> <path d="M985.13,268l-2.8,35.63c-.27,3.24-1.03,5.49-2.26,6.77-1.23,1.28-2.96,1.92-5.2,1.92-.91,0-1.76-.16-2.53-.48v-2.67c.46,.27,1.34,.41,2.67,.41s2.26-.44,2.94-1.33c.68-.89,1.12-2.43,1.3-4.62l3.01-38.36h29.2v46.64h-3.08v-43.9h-23.25Z"></path> <path d="M1016.66,311.9l16.34-20.79c-4.06-.46-7.15-1.77-9.27-3.93-2.12-2.17-3.18-5.09-3.18-8.79s1.3-6.98,3.9-9.44,6.38-3.69,11.35-3.69h13.95v46.64h-3.15v-20.65h-10.19l-16.21,20.65h-3.56Zm7.18-33.51c0,3.1,.97,5.56,2.91,7.39,1.94,1.82,4.73,2.74,8.38,2.74h11.49v-20.52h-11.42c-3.42,0-6.17,.91-8.24,2.74-2.08,1.82-3.11,4.38-3.11,7.66Z"></path> <path d="M1093.32,311.9v-22.84h-30.71v22.84h-3.08v-46.64h3.08v21.06h30.71v-21.06h3.08v46.64h-3.08Z"></path> <path d="M1139.27,269.77h-.21c-.37,.5-1.29,1.82-2.77,3.97-1.48,2.14-2.94,4.25-4.38,6.33-1.44,2.08-2.68,3.84-3.73,5.3l-19.01,26.53h-2.67v-46.64h3.08v31.8c0,2.23-.05,5.54-.14,9.92h.27c1.23-1.73,3.11-4.42,5.64-8.07s4.41-6.31,5.64-8l18.4-25.64h2.8v46.64h-3.08v-30.84c0-5.01,.04-8.78,.14-11.28Z"></path> <path d="M1186.12,311.9v-22.84h-30.71v22.84h-3.08v-46.64h3.08v21.06h30.71v-21.06h3.08v46.64h-3.08Z"></path> <path d="M1194.73,311.9l19.76-46.64h3.01l19.76,46.64h-3.21l-5.61-13.27h-25.03l-5.54,13.27h-3.15Zm16.41-31.39l-6.56,15.39h22.7l-6.77-15.87c-1.37-3.1-2.85-6.81-4.45-11.15h-.27c-.23,.64-.7,1.82-1.4,3.56-.71,1.73-1.33,3.31-1.88,4.72-.55,1.41-1,2.53-1.37,3.35Z"></path> </g> <g> <path d="M690.4,379.68v-16.38h1.44v9.44c0,1.98-.03,3.65-.1,4.99h.07c.34-.71,1.09-1.78,2.26-3.21l8.72-11.22h1.2v16.38h-1.44v-9.23c0-2.01,.03-3.67,.1-4.99h-.07c-.25,.46-1.03,1.53-2.33,3.21l-8.65,11.01h-1.2Z"></path> <path d="M715.84,379.68v-16.38h1.44v7.52l8.21-7.52h1.91l-8.41,7.62,8.55,8.75h-1.98l-8.28-8.62v8.62h-1.44Z"></path> <path d="M728.49,371.48c0-2.51,.84-4.59,2.53-6.24,1.69-1.65,3.76-2.48,6.22-2.48s4.59,.83,6.26,2.5c1.66,1.66,2.5,3.74,2.5,6.22s-.84,4.51-2.51,6.22c-1.68,1.71-3.76,2.56-6.24,2.56s-4.54-.84-6.22-2.53-2.53-3.77-2.53-6.26Zm1.54,0c0,2.12,.72,3.89,2.15,5.3,1.44,1.41,3.12,2.12,5.06,2.12,2.07,0,3.79-.71,5.16-2.12,1.37-1.41,2.05-3.18,2.05-5.3s-.67-3.79-2.02-5.21c-1.35-1.42-3.08-2.14-5.2-2.14s-3.82,.69-5.18,2.07c-1.36,1.38-2.03,3.14-2.03,5.28Z"></path> <path d="M764.91,363.31l3.25,16.38h-1.44l-1.3-7.01c-.73-3.99-1.16-6.41-1.3-7.25h-.1c-.75,2.37-1.61,4.78-2.56,7.21l-2.77,7.04h-1.26l-2.97-7.66c-.98-2.53-1.77-4.73-2.36-6.6h-.1c-.18,1.46-.56,3.65-1.13,6.57l-1.47,7.69h-1.44l3.25-16.38h1.3l3.62,9.47c1,2.64,1.63,4.37,1.88,5.16h.1c.18-.57,.54-1.55,1.08-2.94,.54-1.39,.81-2.13,.84-2.22l3.59-9.47h1.3Z"></path> <path d="M784.81,363.31v16.38h-1.44v-15.01h-10.7v15.01h-1.44v-16.38h13.57Z"></path> <path d="M805.22,363.31v16.38h-1.44v-3.39h-.07c-1.66,2.64-4.11,3.97-7.35,3.97-2.28,0-4.24-.81-5.86-2.44-1.63-1.63-2.45-3.74-2.45-6.34s.81-4.62,2.43-6.26c1.62-1.64,3.65-2.46,6.09-2.46,1.66,0,3.11,.37,4.33,1.11,1.22,.74,2.15,1.66,2.79,2.75h.1v-3.32h1.44Zm-13.75,2.99c-1.25,1.45-1.88,3.17-1.88,5.18s.63,3.74,1.88,5.21c1.25,1.47,3.02,2.21,5.3,2.21,1.92,0,3.58-.69,4.99-2.07,1.41-1.38,2.12-3.13,2.12-5.25s-.68-4.01-2.04-5.39c-1.36-1.38-3.03-2.07-5.01-2.07-2.33,0-4.12,.72-5.37,2.17Z"></path> <path d="M823.17,363.31v16.38h-1.44v-7.86h-10.7v7.86h-1.44v-16.38h1.44v7.15h10.7v-7.15h1.44Z"></path> <path d="M827.55,379.68v-16.38h1.44v9.44c0,1.98-.03,3.65-.1,4.99h.07c.34-.71,1.09-1.78,2.26-3.21l8.72-11.22h1.2v16.38h-1.44v-9.23c0-2.01,.03-3.67,.1-4.99h-.07c-.25,.46-1.03,1.53-2.33,3.21l-8.65,11.01h-1.2Z"></path> <path d="M853.53,372.54h-2.97l-4.99,7.15h-1.61l5.2-7.25c-2.92-.41-4.38-1.9-4.38-4.48,0-3.1,1.97-4.65,5.92-4.65h4.27v16.38h-1.44v-7.15Zm-2.77-1.3h2.77v-6.63h-2.94c-1.55,0-2.67,.29-3.35,.85-.68,.57-1.03,1.4-1.03,2.5,0,2.19,1.52,3.28,4.55,3.28Z"></path> <path d="M888.65,356.36l2.74,23.32h-3.9l-1.23-12.34c-.07-.66-.17-1.73-.31-3.21s-.21-2.27-.21-2.36h-.17c-.57,2.07-1.12,3.94-1.64,5.61l-3.86,12.31h-3.01l-3.9-12.58c-.84-2.58-1.37-4.35-1.57-5.33h-.24c-.07,1.48-.21,3.25-.41,5.3l-1.3,12.62h-3.69l2.7-23.32h4.62l4.1,12.69c.5,1.57,.91,3,1.23,4.27h.14c.18-.73,.6-2.15,1.27-4.27l4.07-12.69h4.58Z"></path> <path d="M908.51,356.36v3.56h-9.44v5.98h9.1v3.45h-9.1v6.77h9.81v3.56h-13.85v-23.32h13.47Z"></path> <path d="M927.66,361.9h-3.97c-.11-.89-.46-1.6-1.04-2.14-.58-.54-1.34-.8-2.27-.8s-1.69,.27-2.27,.8c-.58,.54-.87,1.24-.87,2.1,0,.91,.35,1.64,1.04,2.19s1.74,1.05,3.13,1.5c2.42,.75,4.14,1.76,5.18,3.03,1.04,1.26,1.56,2.82,1.56,4.67s-.67,3.56-2,5.01c-1.33,1.45-3.22,2.17-5.66,2.17-2.21,0-4.04-.6-5.47-1.81-1.44-1.21-2.3-2.95-2.6-5.23h4.1c.21,1.16,.64,2.07,1.32,2.72,.67,.65,1.57,.97,2.68,.97s2-.35,2.65-1.06c.65-.71,.97-1.55,.97-2.53,0-1.09-.35-1.98-1.06-2.67-.71-.68-1.86-1.28-3.45-1.78-4.24-1.37-6.36-3.75-6.36-7.15,0-1.82,.68-3.33,2.03-4.51,1.36-1.18,3.06-1.78,5.11-1.78s3.73,.58,5.04,1.74c1.31,1.16,2.05,2.68,2.21,4.55Z"></path> <path d="M931.18,368.02c0-3.4,1.18-6.31,3.54-8.75s5.32-3.66,8.87-3.66,6.67,1.22,8.92,3.66,3.38,5.36,3.38,8.75-1.19,6.37-3.56,8.79c-2.37,2.42-5.3,3.62-8.79,3.62-2.05,0-3.89-.37-5.52-1.11-1.63-.74-2.93-1.72-3.9-2.94-.97-1.22-1.7-2.54-2.21-3.97-.5-1.42-.75-2.89-.75-4.39Zm6.51-6.27c-1.58,1.68-2.38,3.77-2.38,6.27s.79,4.6,2.36,6.27c1.57,1.68,3.52,2.51,5.85,2.51s4.31-.84,5.88-2.51c1.57-1.67,2.36-3.77,2.36-6.27s-.76-4.6-2.29-6.27c-1.53-1.67-3.5-2.51-5.92-2.51s-4.28,.84-5.86,2.51Z"></path> <path d="M959.49,379.68v-23.32h7.18c2.62,0,4.73,.62,6.33,1.86s2.39,3.07,2.39,5.49-.74,4.21-2.22,5.5c-1.48,1.3-3.72,1.95-6.7,1.95h-2.94v8.51h-4.03Zm11.8-15.9c0-1.21-.38-2.18-1.13-2.92-.75-.74-1.9-1.11-3.45-1.11h-3.18v8.07h3.11c3.1,0,4.65-1.34,4.65-4.03Z"></path> <path d="M988.93,369.77l7.25,9.92h-4.86l-6.63-9.4h-2.22v9.4h-4.03v-23.32h7.04c2.92,0,5.06,.67,6.43,2,1.37,1.33,2.05,3,2.05,5.01,0,1.6-.48,2.97-1.44,4.12-.96,1.15-2.15,1.91-3.59,2.27Zm.85-6.29c0-1.18-.35-2.1-1.04-2.75s-1.69-.97-2.99-.97h-3.28v7.35h3.32c1.25,0,2.23-.34,2.94-1.01,.71-.67,1.06-1.54,1.06-2.62Z"></path> <path d="M996.73,368.02c0-3.4,1.18-6.31,3.54-8.75s5.32-3.66,8.87-3.66,6.67,1.22,8.92,3.66,3.38,5.36,3.38,8.75-1.19,6.37-3.56,8.79c-2.37,2.42-5.3,3.62-8.79,3.62-2.05,0-3.89-.37-5.52-1.11-1.63-.74-2.93-1.72-3.9-2.94-.97-1.22-1.7-2.54-2.21-3.97-.5-1.42-.75-2.89-.75-4.39Zm6.51-6.27c-1.58,1.68-2.38,3.77-2.38,6.27s.79,4.6,2.36,6.27c1.57,1.68,3.52,2.51,5.85,2.51s4.31-.84,5.88-2.51c1.57-1.67,2.36-3.77,2.36-6.27s-.76-4.6-2.29-6.27c-1.53-1.67-3.5-2.51-5.92-2.51s-4.28,.84-5.86,2.51Z"></path> <path d="M1038.51,356.36v3.56h-9.4v6.5h9.06v3.42h-9.06v9.85h-4.07v-23.32h13.47Z"></path> <path d="M1055.88,356.36v3.56h-9.4v6.5h9.06v3.42h-9.06v9.85h-4.07v-23.32h13.47Z"></path> <path d="M1080.64,363.31v16.38h-1.44v-15.01h-10.7v15.01h-1.44v-16.38h13.57Z"></path> <path d="M1085.01,387.72v-24.41h1.44v3.42h.07c1.6-2.64,4.05-3.97,7.35-3.97,2.28,0,4.23,.82,5.86,2.45s2.44,3.74,2.44,6.34-.81,4.62-2.43,6.26c-1.62,1.64-3.65,2.46-6.09,2.46-3.17,0-5.54-1.29-7.11-3.86h-.1v11.32h-1.44Zm13.75-10.99c1.25-1.45,1.88-3.17,1.88-5.18s-.63-3.74-1.88-5.21c-1.25-1.47-3.02-2.21-5.3-2.21-1.94,0-3.61,.69-5.01,2.07-1.4,1.38-2.1,3.13-2.1,5.25s.68,4.01,2.04,5.38c1.36,1.38,3.03,2.07,5.01,2.07,2.33,0,4.11-.72,5.37-2.17Z"></path> <path d="M1112.4,362.76c2.46,.02,4.43,.89,5.92,2.6,1.48,1.71,2.22,3.75,2.22,6.12v.24h-14.7c.05,2.1,.75,3.83,2.1,5.21,1.36,1.38,2.98,2.07,4.87,2.07,1.34,0,2.45-.26,3.32-.79s1.64-1.3,2.33-2.33h1.78c-1.69,2.94-4.14,4.41-7.35,4.41-2.49,0-4.54-.84-6.16-2.53-1.62-1.69-2.43-3.78-2.43-6.29s.77-4.56,2.31-6.22c1.54-1.66,3.47-2.5,5.8-2.5Zm0,1.37c-1.85,0-3.36,.63-4.55,1.9-1.19,1.26-1.83,2.76-1.95,4.5h13.06c-.21-1.73-.88-3.23-2.03-4.5-1.15-1.27-2.66-1.9-4.53-1.9Z"></path> <path d="M1121.77,378.32h.31c2.33,0,3.72-2.84,4.17-8.51l.55-6.5h9.98v15.01h2.67v6.67h-1.44v-5.3h-14.8v5.3h-1.44v-6.67Zm3.32,0h10.26v-13.64h-7.25l-.41,5.13c-.16,2.19-.44,3.93-.85,5.23-.41,1.3-.99,2.39-1.74,3.28Z"></path> <path d="M1149.64,362.76c2,0,3.62,.46,4.84,1.38,1.22,.92,2.07,2.05,2.55,3.37h-1.64c-.46-1.07-1.17-1.92-2.15-2.53-.98-.62-2.17-.92-3.56-.92-1.96,0-3.64,.65-5.03,1.95-1.39,1.3-2.09,3.12-2.09,5.47,0,2.17,.68,3.96,2.03,5.37s3.07,2.12,5.15,2.12c1.53,0,2.79-.35,3.79-1.06,1-.71,1.71-1.62,2.12-2.74h1.61c-.55,1.48-1.45,2.7-2.7,3.66-1.25,.96-2.87,1.44-4.86,1.44-2.42,0-4.47-.8-6.16-2.41-1.69-1.61-2.53-3.74-2.53-6.41,0-2.46,.79-4.53,2.36-6.19,1.57-1.66,3.66-2.5,6.26-2.5Z"></path> <path d="M1169.61,363.31v1.37h-4.92v15.01h-1.44v-15.01h-4.92v-1.37h11.28Z"></path> <path d="M1187.79,363.31v16.38h-1.44v-3.39h-.07c-1.66,2.64-4.11,3.97-7.35,3.97-2.28,0-4.24-.81-5.86-2.44-1.63-1.63-2.45-3.74-2.45-6.34s.81-4.62,2.43-6.26c1.62-1.64,3.65-2.46,6.09-2.46,1.66,0,3.11,.37,4.33,1.11,1.22,.74,2.15,1.66,2.79,2.75h.1v-3.32h1.44Zm-13.75,2.99c-1.25,1.45-1.88,3.17-1.88,5.18s.63,3.74,1.88,5.21c1.25,1.47,3.02,2.21,5.3,2.21,1.92,0,3.58-.69,4.99-2.07,1.41-1.38,2.12-3.13,2.12-5.25s-.68-4.01-2.04-5.39c-1.36-1.38-3.03-2.07-5.01-2.07-2.33,0-4.12,.72-5.37,2.17Z"></path> <path d="M1192.17,379.68v-16.38h5.95c1.64,0,2.91,.35,3.8,1.06,.89,.71,1.33,1.65,1.33,2.84,0,1.87-.84,3.07-2.53,3.59,1.21,.25,2.14,.75,2.79,1.49,.65,.74,.97,1.64,.97,2.68,0,3.15-2.15,4.72-6.46,4.72h-5.85Zm5.95-15.08h-4.51v5.78h4.04c2.78,0,4.17-1.05,4.17-3.15,0-1.75-1.23-2.63-3.69-2.63Zm-.17,7.01h-4.34v6.77h4.51c1.78,0,3.04-.29,3.8-.87,.75-.58,1.13-1.43,1.13-2.55,0-2.23-1.7-3.35-5.09-3.35Z"></path> <path d="M1211.59,364.67l-.82,10.19c-.16,1.92-.51,3.24-1.06,3.98-.55,.74-1.45,1.11-2.7,1.11-.39,0-.72-.05-.99-.14v-1.37c.27,.09,.59,.14,.96,.14,.73,0,1.27-.24,1.62-.72,.35-.48,.59-1.38,.7-2.7l.99-11.87h10.91v16.38h-1.44v-15.01h-8.17Z"></path> <path d="M1233.61,372.54h-2.97l-4.99,7.15h-1.61l5.2-7.25c-2.92-.41-4.38-1.9-4.38-4.48,0-3.1,1.97-4.65,5.92-4.65h4.27v16.38h-1.44v-7.15Zm-2.77-1.3h2.77v-6.63h-2.94c-1.55,0-2.67,.29-3.35,.85-.68,.57-1.03,1.4-1.03,2.5,0,2.19,1.52,3.28,4.55,3.28Z"></path> <path d="M1240.86,363.31v7.15h2.77c.23-2.26,1.16-4.1,2.8-5.54,1.64-1.44,3.6-2.15,5.88-2.15,2.51,0,4.59,.83,6.26,2.5,1.66,1.66,2.5,3.74,2.5,6.22s-.84,4.51-2.51,6.22c-1.68,1.71-3.76,2.56-6.24,2.56s-4.46-.81-6.12-2.43c-1.66-1.62-2.54-3.62-2.63-6.02h-2.7v7.86h-1.44v-16.38h1.44Zm4.24,8.17c0,2.12,.72,3.89,2.15,5.3,1.44,1.41,3.12,2.12,5.06,2.12,2.07,0,3.79-.71,5.16-2.12,1.37-1.41,2.05-3.18,2.05-5.3s-.67-3.79-2.02-5.21c-1.35-1.42-3.08-2.14-5.2-2.14s-3.82,.69-5.18,2.07c-1.36,1.38-2.03,3.14-2.03,5.28Z"></path> <path d="M1273.38,363.31v1.37h-4.92v15.01h-1.44v-15.01h-4.92v-1.37h11.28Z"></path> <path d="M703.98,404.34v16.38h-1.44v-7.86h-10.7v7.86h-1.44v-16.38h1.44v7.15h10.7v-7.15h1.44Z"></path> <path d="M707.22,412.51c0-2.51,.84-4.59,2.53-6.24,1.69-1.65,3.76-2.48,6.22-2.48s4.59,.83,6.26,2.5c1.66,1.66,2.5,3.74,2.5,6.22s-.84,4.51-2.51,6.22c-1.68,1.71-3.76,2.56-6.24,2.56s-4.54-.84-6.22-2.53-2.53-3.77-2.53-6.26Zm1.54,0c0,2.12,.72,3.89,2.15,5.3,1.44,1.41,3.12,2.12,5.06,2.12,2.07,0,3.79-.71,5.16-2.12,1.37-1.41,2.05-3.18,2.05-5.3s-.67-3.79-2.02-5.21c-1.35-1.42-3.08-2.14-5.2-2.14s-3.82,.69-5.18,2.07c-1.36,1.38-2.03,3.14-2.03,5.28Z"></path> <path d="M727.98,420.72v-16.38h5.95c1.64,0,2.91,.35,3.8,1.06,.89,.71,1.33,1.65,1.33,2.84,0,1.87-.84,3.07-2.53,3.59,1.21,.25,2.14,.75,2.79,1.49,.65,.74,.97,1.64,.97,2.68,0,3.15-2.15,4.72-6.46,4.72h-5.85Zm5.95-15.08h-4.51v5.78h4.04c2.78,0,4.17-1.05,4.17-3.15,0-1.75-1.23-2.63-3.69-2.63Zm-.17,7.01h-4.34v6.77h4.51c1.78,0,3.04-.29,3.8-.87,.75-.58,1.13-1.43,1.13-2.55,0-2.23-1.7-3.35-5.09-3.35Z"></path> <path d="M755.85,404.34l-9.4,24.41h-1.37l3.15-8.1-6.7-16.31h1.47l4,9.81c.84,2.12,1.46,3.72,1.85,4.79h.14c.91-2.58,1.49-4.17,1.74-4.79l3.76-9.81h1.37Z"></path> <path d="M759.37,404.34v7.15h2.77c.23-2.26,1.16-4.1,2.8-5.54,1.64-1.44,3.6-2.15,5.88-2.15,2.51,0,4.59,.83,6.26,2.5,1.66,1.66,2.5,3.74,2.5,6.22s-.84,4.51-2.51,6.22c-1.68,1.71-3.76,2.56-6.24,2.56s-4.46-.81-6.12-2.43c-1.66-1.62-2.54-3.62-2.63-6.02h-2.7v7.86h-1.44v-16.38h1.44Zm4.24,8.17c0,2.12,.72,3.89,2.15,5.3,1.44,1.41,3.12,2.12,5.06,2.12,2.07,0,3.79-.71,5.16-2.12,1.37-1.41,2.05-3.18,2.05-5.3s-.67-3.79-2.02-5.21c-1.35-1.42-3.08-2.14-5.2-2.14s-3.82,.69-5.18,2.07c-1.36,1.38-2.03,3.14-2.03,5.28Z"></path> <path d="M791.03,408.37h-1.61c1.34-3.05,3.78-4.58,7.32-4.58,2.42,0,4.47,.8,6.16,2.41,1.69,1.61,2.53,3.74,2.53,6.41,0,2.46-.79,4.53-2.36,6.19-1.57,1.66-3.66,2.5-6.26,2.5-2.01,0-3.62-.46-4.84-1.38-1.22-.92-2.07-2.05-2.55-3.37h1.64c.46,1.07,1.17,1.92,2.15,2.53,.98,.62,2.17,.92,3.56,.92,1.92,0,3.56-.62,4.94-1.86,1.38-1.24,2.1-3,2.17-5.28h-9.47v-1.37h9.4c-.25-1.89-1.03-3.43-2.33-4.62-1.3-1.18-2.89-1.78-4.79-1.78-1.41,0-2.6,.3-3.56,.91-.96,.6-1.66,1.4-2.12,2.38Z"></path> <path d="M808.88,420.72v-16.38h1.44v7.52l8.21-7.52h1.91l-8.41,7.62,8.55,8.75h-1.98l-8.28-8.62v8.62h-1.44Z"></path> <path d="M830.15,403.79c2,0,3.62,.46,4.84,1.38,1.22,.92,2.07,2.05,2.55,3.37h-1.64c-.46-1.07-1.17-1.92-2.15-2.53-.98-.62-2.17-.92-3.56-.92-1.96,0-3.64,.65-5.03,1.95-1.39,1.3-2.09,3.12-2.09,5.47,0,2.17,.68,3.96,2.03,5.37s3.07,2.12,5.15,2.12c1.53,0,2.79-.35,3.79-1.06,1-.71,1.71-1.62,2.12-2.74h1.61c-.55,1.48-1.45,2.7-2.7,3.66-1.25,.96-2.87,1.44-4.86,1.44-2.42,0-4.47-.8-6.16-2.41-1.69-1.61-2.53-3.74-2.53-6.41,0-2.46,.79-4.53,2.36-6.19,1.57-1.66,3.66-2.5,6.26-2.5Z"></path> <path d="M840.88,420.72v-16.38h1.44v7.52l8.21-7.52h1.91l-8.41,7.62,8.55,8.75h-1.98l-8.28-8.62v8.62h-1.44Z"></path> <path d="M859.14,405.7l-.82,10.19c-.16,1.92-.51,3.24-1.06,3.98-.55,.74-1.45,1.11-2.7,1.11-.39,0-.72-.05-.99-.14v-1.37c.27,.09,.59,.14,.96,.14,.73,0,1.27-.24,1.62-.72,.35-.48,.59-1.38,.7-2.7l.99-11.87h10.91v16.38h-1.44v-15.01h-8.17Z"></path> <path d="M874.56,404.34v7.15h2.77c.23-2.26,1.16-4.1,2.8-5.54,1.64-1.44,3.6-2.15,5.88-2.15,2.51,0,4.59,.83,6.26,2.5,1.66,1.66,2.5,3.74,2.5,6.22s-.84,4.51-2.51,6.22c-1.68,1.71-3.76,2.56-6.24,2.56s-4.46-.81-6.12-2.43c-1.66-1.62-2.54-3.62-2.63-6.02h-2.7v7.86h-1.44v-16.38h1.44Zm4.24,8.17c0,2.12,.72,3.89,2.15,5.3,1.44,1.41,3.12,2.12,5.06,2.12,2.07,0,3.79-.71,5.16-2.12,1.37-1.41,2.05-3.18,2.05-5.3s-.67-3.79-2.02-5.21c-1.35-1.42-3.08-2.14-5.2-2.14s-3.82,.69-5.18,2.07c-1.36,1.38-2.03,3.14-2.03,5.28Z"></path> <path d="M897.26,416.75h1.44c.46,2.17,2.05,3.25,4.79,3.25,1.55,0,2.72-.37,3.5-1.11,.79-.74,1.18-1.65,1.18-2.72,0-1-.39-1.84-1.18-2.51s-2.03-1.01-3.74-1.01h-1.54v-1.23h1.27c1.73,0,2.96-.27,3.68-.8,.72-.54,1.08-1.3,1.08-2.31s-.38-1.82-1.15-2.38c-.76-.56-1.77-.84-3.03-.84-1.19,0-2.15,.25-2.91,.75-.75,.5-1.21,1.25-1.37,2.26h-1.4c.11-1.25,.69-2.29,1.73-3.09,1.04-.81,2.35-1.21,3.95-1.21s2.96,.42,4.02,1.25c1.06,.83,1.59,1.91,1.59,3.23,0,1.94-1.03,3.19-3.08,3.76,2.35,.68,3.52,2.11,3.52,4.27,0,1.3-.54,2.46-1.62,3.47s-2.57,1.52-4.46,1.52c-1.76,0-3.17-.39-4.26-1.18-1.08-.79-1.75-1.91-2-3.37Z"></path> <path d="M913.09,420.72v-16.38h1.44v9.44c0,1.98-.03,3.65-.1,4.99h.07c.34-.71,1.09-1.78,2.26-3.21l8.72-11.22h1.2v16.38h-1.44v-9.23c0-2.01,.03-3.67,.1-4.99h-.07c-.25,.46-1.03,1.53-2.33,3.21l-8.65,11.01h-1.2Z"></path> <path d="M931.05,420.72v-16.38h5.95c1.64,0,2.91,.35,3.8,1.06,.89,.71,1.33,1.65,1.33,2.84,0,1.87-.84,3.07-2.53,3.59,1.21,.25,2.14,.75,2.79,1.49,.65,.74,.97,1.64,.97,2.68,0,3.15-2.15,4.72-6.46,4.72h-5.85Zm5.95-15.08h-4.51v5.78h4.04c2.78,0,4.17-1.05,4.17-3.15,0-1.75-1.23-2.63-3.69-2.63Zm-.17,7.01h-4.34v6.77h4.51c1.78,0,3.04-.29,3.8-.87,.75-.58,1.13-1.43,1.13-2.55,0-2.23-1.7-3.35-5.09-3.35Z"></path> <path d="M960.49,404.34v16.38h-1.44v-7.86h-10.7v7.86h-1.44v-16.38h1.44v7.15h10.7v-7.15h1.44Z"></path> <path d="M976.86,404.34l-9.4,24.41h-1.37l3.15-8.1-6.7-16.31h1.47l4,9.81c.84,2.12,1.46,3.72,1.85,4.79h.14c.91-2.58,1.49-4.17,1.74-4.79l3.76-9.81h1.37Z"></path> <path d="M980.38,404.34v7.15h2.77c.23-2.26,1.16-4.1,2.8-5.54,1.64-1.44,3.6-2.15,5.88-2.15,2.51,0,4.59,.83,6.26,2.5,1.66,1.66,2.5,3.74,2.5,6.22s-.84,4.51-2.51,6.22c-1.68,1.71-3.76,2.56-6.24,2.56s-4.46-.81-6.12-2.43c-1.66-1.62-2.54-3.62-2.63-6.02h-2.7v7.86h-1.44v-16.38h1.44Zm4.24,8.17c0,2.12,.72,3.89,2.15,5.3,1.44,1.41,3.12,2.12,5.06,2.12,2.07,0,3.79-.71,5.16-2.12,1.37-1.41,2.05-3.18,2.05-5.3s-.67-3.79-2.02-5.21c-1.35-1.42-3.08-2.14-5.2-2.14s-3.82,.69-5.18,2.07c-1.36,1.38-2.03,3.14-2.03,5.28Z"></path> <path d="M1024.9,404.34v16.38h-1.44v-15.01h-10.7v15.01h-1.44v-16.38h13.57Z"></path> <path d="M1029.28,428.75v-24.41h1.44v3.42h.07c1.6-2.64,4.05-3.97,7.35-3.97,2.28,0,4.23,.82,5.86,2.45s2.44,3.74,2.44,6.34-.81,4.62-2.43,6.26c-1.62,1.64-3.65,2.46-6.09,2.46-3.17,0-5.54-1.29-7.11-3.86h-.1v11.32h-1.44Zm13.75-10.99c1.25-1.45,1.88-3.17,1.88-5.18s-.63-3.74-1.88-5.21c-1.25-1.47-3.02-2.21-5.3-2.21-1.94,0-3.61,.69-5.01,2.07-1.4,1.38-2.1,3.13-2.1,5.25s.68,4.01,2.04,5.38c1.36,1.38,3.03,2.07,5.01,2.07,2.33,0,4.11-.72,5.37-2.17Z"></path> <path d="M1048.56,412.51c0-2.51,.84-4.59,2.53-6.24,1.69-1.65,3.76-2.48,6.22-2.48s4.59,.83,6.26,2.5c1.66,1.66,2.5,3.74,2.5,6.22s-.84,4.51-2.51,6.22c-1.68,1.71-3.76,2.56-6.24,2.56s-4.54-.84-6.22-2.53-2.53-3.77-2.53-6.26Zm1.54,0c0,2.12,.72,3.89,2.15,5.3,1.44,1.41,3.12,2.12,5.06,2.12,2.07,0,3.79-.71,5.16-2.12,1.37-1.41,2.05-3.18,2.05-5.3s-.67-3.79-2.02-5.21c-1.35-1.42-3.08-2.14-5.2-2.14s-3.82,.69-5.18,2.07c-1.36,1.38-2.03,3.14-2.03,5.28Z"></path> <path d="M1079.92,404.34v1.37h-9.16v15.01h-1.44v-16.38h10.6Z"></path> <path d="M1082.58,428.75v-24.41h1.44v3.42h.07c1.6-2.64,4.05-3.97,7.35-3.97,2.28,0,4.23,.82,5.86,2.45s2.44,3.74,2.44,6.34-.81,4.62-2.43,6.26c-1.62,1.64-3.65,2.46-6.09,2.46-3.17,0-5.54-1.29-7.11-3.86h-.1v11.32h-1.44Zm13.75-10.99c1.25-1.45,1.88-3.17,1.88-5.18s-.63-3.74-1.88-5.21c-1.25-1.47-3.02-2.21-5.3-2.21-1.94,0-3.61,.69-5.01,2.07-1.4,1.38-2.1,3.13-2.1,5.25s.68,4.01,2.04,5.38c1.36,1.38,3.03,2.07,5.01,2.07,2.33,0,4.11-.72,5.37-2.17Z"></path> <path d="M1119.03,404.34v16.38h-1.44v-3.38h-.07c-1.66,2.64-4.11,3.97-7.35,3.97-2.28,0-4.24-.81-5.86-2.44-1.63-1.63-2.45-3.74-2.45-6.34s.81-4.62,2.43-6.26c1.62-1.64,3.65-2.46,6.09-2.46,1.66,0,3.11,.37,4.33,1.11,1.22,.74,2.15,1.66,2.79,2.75h.1v-3.32h1.44Zm-13.75,2.99c-1.25,1.45-1.88,3.17-1.88,5.18s.63,3.74,1.88,5.21c1.25,1.47,3.02,2.21,5.3,2.21,1.92,0,3.58-.69,4.99-2.07,1.41-1.38,2.12-3.13,2.12-5.25s-.68-4.01-2.04-5.39c-1.36-1.38-3.03-2.07-5.01-2.07-2.33,0-4.12,.72-5.37,2.17Z"></path> <path d="M1139.07,404.34l3.25,16.38h-1.44l-1.3-7.01c-.73-3.99-1.16-6.41-1.3-7.25h-.1c-.75,2.37-1.61,4.78-2.56,7.21l-2.77,7.04h-1.26l-2.97-7.66c-.98-2.53-1.77-4.73-2.36-6.6h-.1c-.18,1.46-.56,3.65-1.13,6.57l-1.47,7.69h-1.44l3.25-16.38h1.3l3.62,9.47c1,2.64,1.63,4.37,1.88,5.16h.1c.18-.57,.54-1.55,1.08-2.94,.54-1.39,.81-2.13,.84-2.22l3.59-9.47h1.3Z"></path> <path d="M1161.05,404.34l3.25,16.38h-1.44l-1.3-7.01c-.73-3.99-1.16-6.41-1.3-7.25h-.1c-.75,2.37-1.61,4.78-2.56,7.21l-2.77,7.04h-1.26l-2.97-7.66c-.98-2.53-1.77-4.73-2.36-6.6h-.1c-.18,1.46-.56,3.65-1.13,6.57l-1.47,7.69h-1.44l3.25-16.38h1.3l3.62,9.47c1,2.64,1.63,4.37,1.88,5.16h.1c.18-.57,.54-1.55,1.08-2.94,.54-1.39,.81-2.13,.84-2.22l3.59-9.47h1.3Z"></path> <path d="M1179.38,404.34l-9.4,24.41h-1.37l3.15-8.1-6.7-16.31h1.47l4,9.81c.84,2.12,1.46,3.72,1.85,4.79h.14c.91-2.58,1.49-4.17,1.74-4.79l3.76-9.81h1.37Z"></path> <path d="M690.4,461.75v-16.38h5.95c1.64,0,2.91,.35,3.8,1.06,.89,.71,1.33,1.65,1.33,2.84,0,1.87-.84,3.07-2.53,3.59,1.21,.25,2.14,.75,2.79,1.49,.65,.74,.97,1.64,.97,2.68,0,3.15-2.15,4.72-6.46,4.72h-5.85Zm5.95-15.08h-4.51v5.78h4.04c2.78,0,4.17-1.05,4.17-3.15,0-1.75-1.23-2.63-3.69-2.63Zm-.17,7.01h-4.34v6.77h4.51c1.78,0,3.04-.29,3.8-.87,.75-.58,1.13-1.43,1.13-2.55,0-2.23-1.7-3.35-5.09-3.35Z"></path> <path d="M713.76,469.78v-24.41h1.44v3.42h.07c1.6-2.64,4.05-3.97,7.35-3.97,2.28,0,4.23,.82,5.86,2.45s2.44,3.74,2.44,6.34-.81,4.62-2.43,6.26c-1.62,1.64-3.65,2.46-6.09,2.46-3.17,0-5.54-1.29-7.11-3.86h-.1v11.32h-1.44Zm13.75-10.99c1.25-1.45,1.88-3.17,1.88-5.18s-.63-3.74-1.88-5.21c-1.25-1.47-3.02-2.21-5.3-2.21-1.94,0-3.61,.69-5.01,2.07-1.4,1.38-2.1,3.13-2.1,5.25s.68,4.01,2.04,5.38c1.36,1.38,3.03,2.07,5.01,2.07,2.33,0,4.11-.72,5.37-2.17Z"></path> <path d="M750.2,445.37v16.38h-1.44v-3.38h-.07c-1.66,2.64-4.11,3.97-7.35,3.97-2.28,0-4.24-.81-5.86-2.44-1.63-1.63-2.45-3.74-2.45-6.34s.81-4.62,2.43-6.26c1.62-1.64,3.65-2.46,6.09-2.46,1.66,0,3.11,.37,4.33,1.11,1.22,.74,2.15,1.66,2.79,2.75h.1v-3.32h1.44Zm-13.75,2.99c-1.25,1.45-1.88,3.17-1.88,5.18s.63,3.74,1.88,5.21c1.25,1.47,3.02,2.21,5.3,2.21,1.92,0,3.58-.69,4.99-2.07,1.41-1.38,2.12-3.13,2.12-5.25s-.68-4.01-2.04-5.39c-1.36-1.38-3.03-2.07-5.01-2.07-2.33,0-4.12,.72-5.37,2.17Z"></path> <path d="M770.24,445.37l3.25,16.38h-1.44l-1.3-7.01c-.73-3.99-1.16-6.41-1.3-7.25h-.1c-.75,2.37-1.61,4.78-2.56,7.21l-2.77,7.04h-1.26l-2.97-7.66c-.98-2.53-1.77-4.73-2.36-6.6h-.1c-.18,1.46-.56,3.65-1.13,6.57l-1.47,7.69h-1.44l3.25-16.38h1.3l3.62,9.47c1,2.64,1.63,4.37,1.88,5.16h.1c.18-.57,.54-1.55,1.08-2.94,.54-1.39,.81-2.13,.84-2.22l3.59-9.47h1.3Z"></path> <path d="M776.57,461.75v-16.38h1.44v7.52l8.21-7.52h1.91l-8.41,7.62,8.55,8.75h-1.98l-8.28-8.62v8.62h-1.44Z"></path> <path d="M806.38,445.37v16.38h-1.44v-3.38h-.07c-1.66,2.64-4.11,3.97-7.35,3.97-2.28,0-4.24-.81-5.86-2.44-1.63-1.63-2.45-3.74-2.45-6.34s.81-4.62,2.43-6.26c1.62-1.64,3.65-2.46,6.09-2.46,1.66,0,3.11,.37,4.33,1.11,1.22,.74,2.15,1.66,2.79,2.75h.1v-3.32h1.44Zm-13.75,2.99c-1.25,1.45-1.88,3.17-1.88,5.18s.63,3.74,1.88,5.21c1.25,1.47,3.02,2.21,5.3,2.21,1.92,0,3.58-.69,4.99-2.07,1.41-1.38,2.12-3.13,2.12-5.25s-.68-4.01-2.04-5.39c-1.36-1.38-3.03-2.07-5.01-2.07-2.33,0-4.12,.72-5.37,2.17Z"></path> <path d="M808.91,461.75l6.33-8.45-5.95-7.93h1.74l4.07,5.54c.59,.84,.9,1.3,.92,1.37h.1c.14-.25,.49-.74,1.06-1.47l3.9-5.44h1.71l-5.95,7.9,6.57,8.48h-1.74l-4.48-5.81c-.07-.09-.26-.35-.56-.77-.31-.42-.5-.69-.56-.8h-.07c-.07,.11-.27,.41-.62,.87-.34,.47-.55,.75-.62,.84l-4.17,5.68h-1.68Z"></path> <path d="M833.77,461.75v-3.15l7.21-8.04c1.09-1.23,1.93-2.34,2.51-3.32,.58-.98,.87-1.96,.87-2.94,0-.91-.29-1.67-.87-2.27-.58-.6-1.37-.91-2.38-.91s-1.78,.34-2.39,1.03c-.62,.68-.92,1.58-.92,2.7h-4.04c.04-2.1,.73-3.82,2.05-5.16,1.32-1.34,3.12-2.02,5.4-2.02s3.99,.61,5.28,1.83,1.93,2.75,1.93,4.6c0,1.46-.38,2.84-1.15,4.15-.76,1.31-1.98,2.87-3.64,4.67l-4.92,5.3h10.09v3.52h-15.04Z"></path> <path d="M852.92,461.75v-16.38h3.79v2.05h.07c1.21-1.73,2.87-2.6,4.99-2.6,1.82,0,3.34,.63,4.55,1.88,1.21,1.25,1.81,3.12,1.81,5.61v9.44h-3.83v-9.23c0-1.39-.31-2.46-.92-3.2s-1.48-1.11-2.6-1.11c-1.23,0-2.21,.42-2.94,1.26-.73,.84-1.09,2.04-1.09,3.59v8.68h-3.83Z"></path> <path d="M888.54,437.13v24.62h-3.73v-1.95h-.1c-1.46,1.69-3.35,2.53-5.68,2.53-2.03,0-3.83-.78-5.42-2.34-1.58-1.56-2.38-3.71-2.38-6.45,0-2.53,.78-4.62,2.33-6.26,1.55-1.64,3.44-2.46,5.68-2.46s4.02,.87,5.44,2.6h.1v-10.29h3.76Zm-13.37,16.41c0,1.48,.43,2.76,1.28,3.83,.85,1.07,2.07,1.61,3.64,1.61,1.32,0,2.47-.51,3.44-1.52,.97-1.01,1.45-2.29,1.45-3.81,0-1.64-.47-2.97-1.4-4-.93-1.03-2.09-1.54-3.45-1.54-1.55,0-2.76,.54-3.64,1.62-.88,1.08-1.32,2.35-1.32,3.81Z"></path> <path d="M901.74,461.75v-23.32h4.03v23.32h-4.03Z"></path> <path d="M910.43,461.75v-16.38h3.79v2.05h.07c1.21-1.73,2.87-2.6,4.99-2.6,1.82,0,3.34,.63,4.55,1.88,1.21,1.25,1.81,3.12,1.81,5.61v9.44h-3.83v-9.23c0-1.39-.31-2.46-.92-3.2s-1.48-1.11-2.6-1.11c-1.23,0-2.21,.42-2.94,1.26-.73,.84-1.09,2.04-1.09,3.59v8.68h-3.83Z"></path> <path d="M933.71,445.37v17.92c0,2.37-.52,4.14-1.56,5.3-1.04,1.16-2.49,1.74-4.36,1.74-1.07,0-2.11-.16-3.11-.48v-3.21c.89,.27,1.71,.41,2.46,.41,1.82,0,2.74-1.21,2.74-3.62v-18.05h3.83Zm-4.03-3.62v-3.9h4.24v3.9h-4.24Z"></path> <path d="M945.34,444.82c2.64,.02,4.68,.88,6.1,2.58s2.14,3.7,2.14,6c0,.52-.02,.9-.07,1.13h-12.65c0,1.28,.48,2.39,1.45,3.35,.97,.96,2.11,1.44,3.44,1.44,1.53,0,2.75-.62,3.66-1.85h3.93c-.62,1.41-1.56,2.58-2.82,3.49-1.26,.91-2.85,1.37-4.77,1.37-2.53,0-4.62-.84-6.26-2.51-1.64-1.68-2.46-3.81-2.46-6.41,0-2.39,.76-4.42,2.27-6.09,1.52-1.66,3.53-2.5,6.04-2.5Zm0,2.87c-1.25,0-2.28,.4-3.08,1.2s-1.25,1.76-1.37,2.87h8.86c-.11-1.14-.58-2.1-1.38-2.89-.81-.79-1.82-1.18-3.03-1.18Z"></path> <path d="M964.59,444.82c2.14,0,3.86,.56,5.16,1.68,1.3,1.12,2.1,2.38,2.39,3.8h-3.93c-.59-1.48-1.81-2.22-3.66-2.22-1.41,0-2.56,.49-3.44,1.47-.88,.98-1.32,2.31-1.32,4,0,1.57,.45,2.88,1.35,3.93,.9,1.05,2.08,1.57,3.54,1.57,1.8,0,3.05-.82,3.76-2.46h3.97c-.5,1.66-1.4,3.04-2.68,4.12s-2.99,1.62-5.11,1.62c-2.51,0-4.59-.81-6.26-2.44s-2.5-3.76-2.5-6.38c0-2.46,.8-4.52,2.39-6.19,1.6-1.66,3.7-2.5,6.33-2.5Z"></path> <path d="M973.82,448.58v-3.21h2.05v-5.23h3.83v5.23h4.07v3.21h-4.07v7.32c0,1.07,.17,1.81,.51,2.22,.34,.41,.92,.62,1.74,.62,.55,0,1.21-.09,1.98-.27v3.11c-.89,.25-1.86,.38-2.91,.38-1.92,0-3.25-.51-4.02-1.52-.76-1.01-1.15-2.44-1.15-4.29v-7.56h-2.05Z"></path> <path d="M986.78,441.74v-3.9h4.24v3.9h-4.24Zm.21,20v-16.38h3.83v16.38h-3.83Z"></path> <path d="M994.13,453.54c0-2.51,.84-4.59,2.51-6.24,1.68-1.65,3.75-2.48,6.24-2.48s4.65,.83,6.29,2.48c1.64,1.65,2.46,3.73,2.46,6.24s-.83,4.51-2.5,6.22c-1.66,1.71-3.75,2.56-6.26,2.56s-4.56-.84-6.24-2.53c-1.68-1.69-2.51-3.77-2.51-6.26Zm5.23-3.83c-.89,1-1.33,2.28-1.33,3.83s.47,2.83,1.42,3.85c.95,1.01,2.09,1.52,3.44,1.52,1.44,0,2.61-.51,3.52-1.52,.91-1.01,1.37-2.3,1.37-3.85s-.44-2.77-1.33-3.8c-.89-1.03-2.07-1.54-3.56-1.54s-2.63,.5-3.52,1.5Z"></path> <path d="M1014.99,461.75v-16.38h3.79v2.05h.07c1.21-1.73,2.87-2.6,4.99-2.6,1.82,0,3.34,.63,4.55,1.88,1.21,1.25,1.81,3.12,1.81,5.61v9.44h-3.83v-9.23c0-1.39-.31-2.46-.92-3.2s-1.48-1.11-2.6-1.11c-1.23,0-2.21,.42-2.94,1.26-.73,.84-1.09,2.04-1.09,3.59v8.68h-3.83Z"></path> <path d="M1046.92,461.75v-19.76h-5.81v-3.56h15.66v3.56h-5.81v19.76h-4.04Z"></path> <path d="M1055.71,453.54c0-2.51,.84-4.59,2.51-6.24,1.68-1.65,3.75-2.48,6.24-2.48s4.65,.83,6.29,2.48c1.64,1.65,2.46,3.73,2.46,6.24s-.83,4.51-2.5,6.22c-1.66,1.71-3.75,2.56-6.26,2.56s-4.56-.84-6.24-2.53c-1.68-1.69-2.51-3.77-2.51-6.26Zm5.23-3.83c-.89,1-1.33,2.28-1.33,3.83s.47,2.83,1.42,3.85c.95,1.01,2.09,1.52,3.44,1.52,1.44,0,2.61-.51,3.52-1.52,.91-1.01,1.37-2.3,1.37-3.85s-.44-2.77-1.33-3.8c-.89-1.03-2.07-1.54-3.56-1.54s-2.63,.5-3.52,1.5Z"></path> <path d="M1091.2,445.37v16.38h-3.8v-2.02h-.1c-1.23,1.71-2.85,2.56-4.86,2.56-.75,0-1.46-.12-2.14-.38-.67-.25-1.32-.64-1.93-1.16-.62-.52-1.11-1.28-1.47-2.26-.37-.98-.55-2.13-.55-3.45v-9.68h3.83v9.23c0,1.37,.3,2.43,.91,3.18,.6,.75,1.42,1.13,2.45,1.13,1.18,0,2.12-.42,2.8-1.25,.68-.83,1.03-2.02,1.03-3.57v-8.72h3.83Z"></path> <path d="M1105.49,444.96v3.56c-.8-.11-1.44-.17-1.92-.17-1.32,0-2.34,.43-3.06,1.3-.72,.87-1.08,2.14-1.08,3.83v8.27h-3.83v-16.38h3.76v2.33h.1c.41-.78,1.02-1.44,1.83-2,.81-.56,1.73-.84,2.75-.84,.55,0,1.03,.03,1.44,.1Z"></path> </g> <g style="opacity:.4;"> <g style="opacity:.5;"> <g style="opacity:.5;"> <g> <polygon points="1550.88 476.86 1549.51 476.84 1549.1 526.41 1506.3 550.64 1463.93 525.69 1464.35 476.12 1462.98 476.11 1462.55 526.47 1506.29 552.22 1506.64 552.02 1550.46 527.21 1550.46 526.82 1550.88 476.86" style="fill:url(#linear-gradient-44);"></polygon> <polygon points="1575.83 284.9 1508.16 284.32 1507.96 284.66 1473.62 342.99 1507.16 402.22 1574.84 402.8 1574.85 401.43 1507.96 400.86 1475.21 343 1508.94 285.7 1575.82 286.26 1575.83 284.9" style="fill:url(#linear-gradient-45);"></polygon> <polygon points="1643.97 362.29 1597.72 361.9 1574.05 402.11 1597.04 442.7 1643.29 443.09 1643.3 441.72 1597.84 441.34 1575.63 402.12 1598.5 363.28 1643.96 363.66 1643.97 362.29" style="fill:url(#linear-gradient-46);"></polygon> <polygon points="1508.25 401.55 1506.88 401.54 1506.45 451.89 1549.85 477.44 1550.55 476.26 1507.83 451.11 1508.25 401.55" style="fill:url(#linear-gradient-47);"></polygon> </g> <g> <path d="M1573.97,283.91c-.92,1.03-.83,2.6,.19,3.52,1.03,.92,2.6,.83,3.53-.19s.83-2.6-.19-3.52-2.6-.83-3.52,.19Z" style="fill:url(#linear-gradient-48);"></path> <path d="M1500.9,445.91c-3.09,3.45-2.8,8.74,.65,11.84,3.45,3.09,8.74,2.8,11.83-.65,3.09-3.45,2.8-8.74-.65-11.83-3.45-3.09-8.75-2.8-11.84,.65Z" style="fill:url(#linear-gradient-49);"></path> <path d="M1502.31,279.41c-3.09,3.45-2.8,8.75,.65,11.84,3.45,3.09,8.75,2.8,11.84-.65s2.8-8.75-.65-11.84c-3.45-3.09-8.75-2.8-11.84,.65Z" style="fill:url(#linear-gradient-50);"></path> <path d="M1640.34,359.73c-1.79,2-1.63,5.08,.38,6.88,2,1.79,5.08,1.62,6.87-.38,1.8-2,1.63-5.08-.37-6.88-2.01-1.8-5.09-1.63-6.88,.37Z" style="fill:url(#linear-gradient-51);"></path> <path d="M1548.34,475.19c-.92,1.03-.83,2.6,.19,3.52s2.6,.83,3.52-.19,.84-2.61-.19-3.53c-1.03-.92-2.61-.84-3.53,.19Z" style="fill:url(#linear-gradient-52);"></path> <path d="M1641.43,440.74c-.92,1.02-.83,2.6,.2,3.52s2.6,.83,3.52-.19c.92-1.03,.83-2.61-.19-3.53s-2.61-.84-3.53,.19Z" style="fill:url(#linear-gradient-53);"></path> <path d="M1596.25,360.92c-.92,1.03-.83,2.6,.19,3.53s2.6,.83,3.52-.19,.83-2.6-.19-3.52c-1.03-.92-2.6-.84-3.53,.19Z" style="fill:url(#linear-gradient-54);"></path> <path d="M1460.04,472.87c-1.79,2-1.63,5.08,.38,6.88,2,1.79,5.08,1.62,6.88-.38,1.79-2,1.63-5.08-.37-6.87-2.01-1.8-5.09-1.63-6.88,.37Z" style="fill:url(#linear-gradient-55);"></path> <path d="M1571.22,398.86c-1.79,2-1.63,5.08,.38,6.88,2,1.79,5.08,1.62,6.87-.38,1.79-2,1.63-5.08-.37-6.87-2.01-1.8-5.08-1.63-6.88,.37Z" style="fill:url(#linear-gradient-56);"></path> <path d="M1472.55,341.33c-.92,1.03-.83,2.6,.2,3.53s2.6,.83,3.52-.19,.83-2.61-.19-3.52-2.61-.84-3.53,.19Z" style="fill:url(#linear-gradient-57);"></path> <path d="M1505.7,399.88c-.92,1.03-.83,2.6,.19,3.53s2.6,.83,3.52-.19c.92-1.03,.83-2.6-.19-3.52s-2.6-.84-3.53,.19Z" style="fill:url(#linear-gradient-58);"></path> <path d="M1593.81,438.77c-1.79,2-1.63,5.08,.38,6.88,2,1.79,5.08,1.62,6.87-.38,1.79-2,1.62-5.08-.38-6.87-2-1.8-5.08-1.63-6.88,.37Z" style="fill:url(#linear-gradient-59);"></path> </g> </g> <g style="opacity:.5;"> <g> <rect x="1885.56" y="493.23" width="1.37" height="22.18" transform="translate(896.72 2187.5) rotate(-74.52)" style="fill:url(#linear-gradient-60);"></rect> <polygon points="1839.64 363.31 1816.08 386.48 1824.46 418.84 1856.29 427.66 1856.66 426.34 1825.59 417.73 1817.61 386.9 1840.6 364.29 1839.64 363.31" style="fill:url(#linear-gradient-61);"></polygon> <polygon points="1903.44 403.33 1902.22 403.94 1915.52 430.35 1899.52 454.75 1870.4 453.1 1857.09 426.69 1855.87 427.31 1869.53 454.42 1900.24 456.16 1917.1 430.44 1903.44 403.33" style="fill:url(#linear-gradient-62);"></polygon> <polygon points="1900.49 455.15 1899.27 455.76 1912.58 482.17 1896.36 506.9 1897.5 507.65 1914.15 482.26 1900.49 455.15" style="fill:url(#linear-gradient-63);"></polygon> <polygon points="1831.93 461.3 1830.56 461.29 1829.93 535.75 1765.47 572.24 1701.64 534.66 1702.28 460.21 1700.91 460.19 1700.27 535.44 1700.61 535.64 1765.46 573.82 1765.8 573.62 1831.29 536.55 1831.29 536.16 1831.93 461.3" style="fill:url(#linear-gradient-64);"></polygon> <polygon points="1746.18 385.63 1744.8 385.62 1744.39 435.18 1701.6 459.41 1659.22 434.46 1659.64 384.9 1658.27 384.89 1657.84 435.24 1701.59 460.99 1701.93 460.8 1745.75 435.99 1745.75 435.59 1746.18 385.63" style="fill:url(#linear-gradient-65);"></polygon> <polygon points="1790.07 311.05 1788.71 311.04 1788.29 360.61 1745.5 384.84 1703.12 359.89 1703.54 310.32 1702.17 310.31 1701.75 360.66 1745.48 386.41 1745.83 386.22 1789.65 361.41 1789.65 361.01 1790.07 311.05" style="fill:url(#linear-gradient-66);"></polygon> <polygon points="1815.03 119.09 1747.36 118.52 1747.15 118.86 1712.82 177.19 1746.36 236.42 1814.03 237 1814.04 235.63 1747.16 235.06 1714.4 177.2 1748.13 119.89 1815.02 120.46 1815.03 119.09" style="fill:url(#linear-gradient-67);"></polygon> <polygon points="1883.16 196.49 1836.91 196.1 1813.24 236.3 1836.23 276.9 1882.48 277.29 1882.49 275.92 1837.03 275.54 1814.82 236.32 1837.69 197.47 1883.15 197.86 1883.16 196.49" style="fill:url(#linear-gradient-68);"></polygon> <polygon points="1747.44 235.74 1746.07 235.73 1745.65 286.09 1789.04 311.64 1789.74 310.46 1747.02 285.31 1747.44 235.74" style="fill:url(#linear-gradient-69);"></polygon> <polygon points="1875.22 500.76 1853.13 513.27 1831.25 500.39 1830.56 501.57 1853.12 514.85 1875.89 501.95 1875.22 500.76" style="fill:url(#linear-gradient-70);"></polygon> <polygon points="1831.25 500.39 1808.69 487.11 1785.92 500 1786.59 501.19 1808.68 488.69 1830.56 501.57 1831.25 500.39" style="fill:url(#linear-gradient-71);"></polygon> </g> <g> <path d="M1869.31,495.76c-3.09,3.45-2.8,8.74,.65,11.84,3.45,3.09,8.74,2.8,11.83-.65,3.09-3.45,2.8-8.75-.65-11.84-3.45-3.09-8.75-2.8-11.84,.65Z" style="fill:url(#linear-gradient-72);"></path> <path d="M1818.78,412.69c-3.09,3.45-2.8,8.75,.65,11.84,3.45,3.09,8.75,2.8,11.84-.65,3.09-3.45,2.8-8.75-.65-11.83-3.45-3.09-8.75-2.8-11.84,.65Z" style="fill:url(#linear-gradient-73);"></path> <path d="M1739.25,380.03c-3.09,3.45-2.8,8.75,.65,11.84,3.45,3.09,8.75,2.8,11.84-.65,3.09-3.45,2.8-8.75-.65-11.84-3.45-3.09-8.75-2.8-11.84,.65Z" style="fill:url(#linear-gradient-74);"></path> <path d="M1697.96,456.95c-1.79,2-1.63,5.08,.38,6.88s5.08,1.62,6.87-.38c1.8-2,1.63-5.08-.37-6.88-2.01-1.8-5.08-1.63-6.88,.37Z" style="fill:url(#linear-gradient-75);"></path> <path d="M1829.04,499.31c-.92,1.03-.84,2.6,.19,3.52s2.6,.83,3.52-.19,.83-2.61-.19-3.53-2.61-.83-3.53,.19Z" style="fill:url(#linear-gradient-76);"></path> <path d="M1897.8,454.03c-.92,1.03-.83,2.6,.19,3.53,1.02,.92,2.61,.83,3.53-.19,.92-1.03,.83-2.61-.19-3.53-1.03-.92-2.61-.83-3.53,.19Z" style="fill:url(#linear-gradient-77);"></path> <path d="M1866.34,450.51c-1.8,2-1.63,5.08,.38,6.87,2,1.8,5.08,1.63,6.88-.37,1.79-2,1.63-5.08-.38-6.88s-5.08-1.63-6.88,.38Z" style="fill:url(#linear-gradient-78);"></path> <path d="M1895.49,505.98c-.71,.8-.65,2.02,.15,2.74s2.03,.65,2.74-.15c.72-.8,.65-2.03-.15-2.74s-2.02-.65-2.74,.15Z" style="fill:url(#linear-gradient-79);"></path> <path d="M1784.81,499.3c-.72,.8-.65,2.02,.15,2.74s2.02,.65,2.74-.15c.72-.8,.65-2.02-.15-2.74-.8-.71-2.02-.65-2.74,.15Z" style="fill:url(#linear-gradient-80);"></path> <path d="M1807.24,486.6c-.71,.8-.65,2.02,.15,2.74,.8,.72,2.03,.65,2.74-.15,.72-.8,.65-2.02-.15-2.74-.8-.72-2.02-.65-2.74,.15Z" style="fill:url(#linear-gradient-81);"></path> <path d="M1827.61,458.05c-1.8,2-1.63,5.08,.37,6.88s5.08,1.63,6.88-.38c1.79-2,1.63-5.08-.38-6.88-2-1.8-5.08-1.63-6.88,.38Z" style="fill:url(#linear-gradient-82);"></path> <path d="M1851.98,513.03c-.57,.63-.52,1.6,.12,2.17s1.6,.51,2.17-.12,.51-1.61-.12-2.17-1.61-.51-2.17,.12Z" style="fill:url(#linear-gradient-83);"></path> <path d="M1838.59,362.43c-.92,1.03-.84,2.6,.19,3.53,1.02,.92,2.6,.83,3.52-.19,.92-1.03,.84-2.61-.19-3.52-1.03-.92-2.61-.83-3.53,.19Z" style="fill:url(#linear-gradient-84);"></path> <path d="M1813.16,118.11c-.92,1.03-.83,2.6,.19,3.52,1.03,.92,2.6,.83,3.53-.19,.92-1.03,.83-2.6-.19-3.52s-2.6-.83-3.52,.19Z" style="fill:url(#linear-gradient-85);"></path> <path d="M1855.16,425.81c-.65,.73-.59,1.85,.14,2.51s1.84,.59,2.5-.14c.65-.73,.59-1.85-.13-2.5-.73-.66-1.85-.6-2.51,.13Z" style="fill:url(#linear-gradient-86);"></path> <path d="M1815.53,385.5c-.65,.73-.59,1.85,.14,2.5,.73,.65,1.85,.59,2.5-.14,.65-.73,.59-1.85-.14-2.5-.73-.65-1.85-.59-2.5,.13Z" style="fill:url(#linear-gradient-87);"></path> <path d="M1743.2,433.92c-.92,1.02-.83,2.6,.2,3.53,1.02,.92,2.6,.83,3.52-.19,.92-1.03,.83-2.61-.19-3.53s-2.61-.84-3.53,.19Z" style="fill:url(#linear-gradient-88);"></path> <path d="M1656.67,433.18c-.92,1.03-.84,2.6,.19,3.53s2.61,.83,3.53-.19,.83-2.61-.19-3.53-2.61-.84-3.53,.19Z" style="fill:url(#linear-gradient-89);"></path> <path d="M1740.09,280.1c-3.09,3.45-2.8,8.74,.65,11.84,3.45,3.09,8.74,2.8,11.83-.65,3.09-3.45,2.8-8.74-.65-11.83-3.45-3.09-8.75-2.8-11.84,.65Z" style="fill:url(#linear-gradient-90);"></path> <path d="M1741.5,113.61c-3.09,3.45-2.8,8.75,.65,11.84,3.45,3.09,8.75,2.8,11.84-.65,3.09-3.45,2.8-8.75-.65-11.84-3.45-3.09-8.75-2.8-11.84,.65Z" style="fill:url(#linear-gradient-91);"></path> <path d="M1785.34,357.76c-1.79,2-1.63,5.08,.38,6.88s5.08,1.62,6.87-.38c1.79-2,1.63-5.08-.37-6.87-2.01-1.8-5.09-1.63-6.88,.37Z" style="fill:url(#linear-gradient-92);"></path> <path d="M1879.53,193.92c-1.79,2-1.63,5.08,.38,6.88,2,1.79,5.08,1.62,6.87-.38,1.8-2,1.63-5.08-.37-6.88-2.01-1.8-5.09-1.63-6.88,.37Z" style="fill:url(#linear-gradient-93);"></path> <path d="M1787.53,309.38c-.92,1.03-.83,2.6,.19,3.52s2.6,.83,3.52-.19c.92-1.03,.84-2.61-.19-3.53-1.03-.92-2.61-.84-3.53,.19Z" style="fill:url(#linear-gradient-94);"></path> <path d="M1880.62,274.94c-.92,1.02-.83,2.6,.2,3.52s2.6,.83,3.52-.19,.83-2.61-.19-3.53-2.61-.84-3.53,.19Z" style="fill:url(#linear-gradient-95);"></path> <path d="M1835.44,195.12c-.92,1.03-.83,2.6,.19,3.53s2.6,.83,3.52-.19c.92-1.03,.83-2.6-.19-3.52-1.03-.92-2.6-.84-3.53,.19Z" style="fill:url(#linear-gradient-96);"></path> <path d="M1700.57,358.61c-.92,1.03-.84,2.6,.19,3.52,1.02,.92,2.6,.83,3.52-.19s.83-2.61-.19-3.53-2.61-.83-3.53,.19Z" style="fill:url(#linear-gradient-97);"></path> <path d="M1699.23,307.06c-1.79,2-1.63,5.08,.38,6.88,2,1.79,5.08,1.62,6.88-.38,1.79-2,1.63-5.08-.37-6.87-2.01-1.8-5.09-1.63-6.88,.37Z" style="fill:url(#linear-gradient-98);"></path> <path d="M1655.33,381.64c-1.79,2-1.63,5.08,.38,6.88,2,1.8,5.08,1.62,6.87-.38,1.8-2,1.63-5.08-.38-6.87-2.01-1.8-5.08-1.63-6.88,.37Z" style="fill:url(#linear-gradient-99);"></path> <path d="M1810.41,233.06c-1.79,2-1.63,5.08,.38,6.88,2,1.79,5.08,1.62,6.87-.38,1.79-2,1.63-5.08-.37-6.87-2.01-1.8-5.08-1.63-6.88,.37Z" style="fill:url(#linear-gradient-100);"></path> <path d="M1711.74,175.52c-.92,1.03-.83,2.6,.2,3.53,1.02,.92,2.6,.83,3.52-.19,.92-1.03,.83-2.61-.19-3.52s-2.61-.84-3.53,.19Z" style="fill:url(#linear-gradient-101);"></path> <path d="M1744.9,234.07c-.92,1.03-.83,2.6,.19,3.53,1.02,.92,2.6,.83,3.52-.19,.92-1.03,.83-2.6-.19-3.52-1.03-.92-2.6-.84-3.53,.19Z" style="fill:url(#linear-gradient-102);"></path> <path d="M1833,272.97c-1.79,2-1.63,5.08,.38,6.88s5.08,1.62,6.87-.38,1.62-5.08-.38-6.87-5.08-1.63-6.88,.37Z" style="fill:url(#linear-gradient-103);"></path> </g> </g> </g> <g> <g> <g> <polygon points="1550.88 476.86 1549.51 476.84 1549.1 526.41 1506.3 550.64 1463.93 525.69 1464.35 476.12 1462.98 476.11 1462.55 526.47 1506.29 552.22 1506.64 552.02 1550.46 527.21 1550.46 526.82 1550.88 476.86" style="fill:url(#linear-gradient-104);"></polygon> <polygon points="1575.83 284.9 1508.16 284.32 1507.96 284.66 1473.62 342.99 1507.16 402.22 1574.84 402.8 1574.85 401.43 1507.96 400.86 1475.21 343 1508.94 285.7 1575.82 286.26 1575.83 284.9" style="fill:url(#linear-gradient-104);"></polygon> <polygon points="1643.97 362.29 1597.72 361.9 1574.05 402.11 1597.04 442.7 1643.29 443.09 1643.3 441.72 1597.84 441.34 1575.63 402.12 1598.5 363.28 1643.96 363.66 1643.97 362.29" style="fill:url(#linear-gradient-104);"></polygon> <polygon points="1508.25 401.55 1506.88 401.54 1506.45 451.89 1549.85 477.44 1550.55 476.26 1507.83 451.11 1508.25 401.55" style="fill:url(#linear-gradient-104);"></polygon> </g> <g> <path d="M1573.97,283.91c-.92,1.03-.83,2.6,.19,3.52,1.03,.92,2.6,.83,3.53-.19s.83-2.6-.19-3.52-2.6-.83-3.52,.19Z" style="fill:url(#linear-gradient-104);"></path> <path d="M1500.9,445.91c-3.09,3.45-2.8,8.74,.65,11.84,3.45,3.09,8.74,2.8,11.83-.65,3.09-3.45,2.8-8.74-.65-11.83-3.45-3.09-8.75-2.8-11.84,.65Z" style="fill:url(#linear-gradient-104);"></path> <path d="M1502.31,279.41c-3.09,3.45-2.8,8.75,.65,11.84,3.45,3.09,8.75,2.8,11.84-.65s2.8-8.75-.65-11.84c-3.45-3.09-8.75-2.8-11.84,.65Z" style="fill:url(#linear-gradient-104);"></path> <path d="M1640.34,359.73c-1.79,2-1.63,5.08,.38,6.88,2,1.79,5.08,1.62,6.87-.38,1.8-2,1.63-5.08-.37-6.88-2.01-1.8-5.09-1.63-6.88,.37Z" style="fill:url(#linear-gradient-104);"></path> <path d="M1548.34,475.19c-.92,1.03-.83,2.6,.19,3.52s2.6,.83,3.52-.19,.84-2.61-.19-3.53c-1.03-.92-2.61-.84-3.53,.19Z" style="fill:url(#linear-gradient-104);"></path> <path d="M1641.43,440.74c-.92,1.02-.83,2.6,.2,3.52s2.6,.83,3.52-.19c.92-1.03,.83-2.61-.19-3.53s-2.61-.84-3.53,.19Z" style="fill:url(#linear-gradient-104);"></path> <path d="M1596.25,360.92c-.92,1.03-.83,2.6,.19,3.53s2.6,.83,3.52-.19,.83-2.6-.19-3.52c-1.03-.92-2.6-.84-3.53,.19Z" style="fill:url(#linear-gradient-104);"></path> <path d="M1460.04,472.87c-1.79,2-1.63,5.08,.38,6.88,2,1.79,5.08,1.62,6.88-.38,1.79-2,1.63-5.08-.37-6.87-2.01-1.8-5.09-1.63-6.88,.37Z" style="fill:url(#linear-gradient-104);"></path> <path d="M1571.22,398.86c-1.79,2-1.63,5.08,.38,6.88,2,1.79,5.08,1.62,6.87-.38,1.79-2,1.63-5.08-.37-6.87-2.01-1.8-5.08-1.63-6.88,.37Z" style="fill:url(#linear-gradient-104);"></path> <path d="M1472.55,341.33c-.92,1.03-.83,2.6,.2,3.53s2.6,.83,3.52-.19,.83-2.61-.19-3.52-2.61-.84-3.53,.19Z" style="fill:url(#linear-gradient-104);"></path> <path d="M1505.7,399.88c-.92,1.03-.83,2.6,.19,3.53s2.6,.83,3.52-.19c.92-1.03,.83-2.6-.19-3.52s-2.6-.84-3.53,.19Z" style="fill:url(#linear-gradient-104);"></path> <path d="M1593.81,438.77c-1.79,2-1.63,5.08,.38,6.88,2,1.79,5.08,1.62,6.87-.38,1.79-2,1.62-5.08-.38-6.87-2-1.8-5.08-1.63-6.88,.37Z" style="fill:url(#linear-gradient-104);"></path> </g> </g> <g> <g> <rect x="1885.56" y="493.23" width="1.37" height="22.18" transform="translate(896.72 2187.5) rotate(-74.52)" style="fill:url(#linear-gradient-105);"></rect> <polygon points="1839.64 363.31 1816.08 386.48 1824.46 418.84 1856.29 427.66 1856.66 426.34 1825.59 417.73 1817.61 386.9 1840.6 364.29 1839.64 363.31" style="fill:url(#linear-gradient-104);"></polygon> <polygon points="1903.44 403.33 1902.22 403.94 1915.52 430.35 1899.52 454.75 1870.4 453.1 1857.09 426.69 1855.87 427.31 1869.53 454.42 1900.24 456.16 1917.1 430.44 1903.44 403.33" style="fill:url(#linear-gradient-104);"></polygon> <polygon points="1900.49 455.15 1899.27 455.76 1912.58 482.17 1896.36 506.9 1897.5 507.65 1914.15 482.26 1900.49 455.15" style="fill:url(#linear-gradient-104);"></polygon> <polygon points="1831.93 461.3 1830.56 461.29 1829.93 535.75 1765.47 572.24 1701.64 534.66 1702.28 460.21 1700.91 460.19 1700.27 535.44 1700.61 535.64 1765.46 573.82 1765.8 573.62 1831.29 536.55 1831.29 536.16 1831.93 461.3" style="fill:url(#linear-gradient-104);"></polygon> <polygon points="1746.18 385.63 1744.8 385.62 1744.39 435.18 1701.6 459.41 1659.22 434.46 1659.64 384.9 1658.27 384.89 1657.84 435.24 1701.59 460.99 1701.93 460.8 1745.75 435.99 1745.75 435.59 1746.18 385.63" style="fill:url(#linear-gradient-104);"></polygon> <polygon points="1790.07 311.05 1788.71 311.04 1788.29 360.61 1745.5 384.84 1703.12 359.89 1703.54 310.32 1702.17 310.31 1701.75 360.66 1745.48 386.41 1745.83 386.22 1789.65 361.41 1789.65 361.01 1790.07 311.05" style="fill:url(#linear-gradient-104);"></polygon> <polygon points="1815.03 119.09 1747.36 118.52 1747.15 118.86 1712.82 177.19 1746.36 236.42 1814.03 237 1814.04 235.63 1747.16 235.06 1714.4 177.2 1748.13 119.89 1815.02 120.46 1815.03 119.09" style="fill:url(#linear-gradient-104);"></polygon> <polygon points="1883.16 196.49 1836.91 196.1 1813.24 236.3 1836.23 276.9 1882.48 277.29 1882.49 275.92 1837.03 275.54 1814.82 236.32 1837.69 197.47 1883.15 197.86 1883.16 196.49" style="fill:url(#linear-gradient-104);"></polygon> <polygon points="1747.44 235.74 1746.07 235.73 1745.65 286.09 1789.04 311.64 1789.74 310.46 1747.02 285.31 1747.44 235.74" style="fill:url(#linear-gradient-104);"></polygon> <polygon points="1875.22 500.76 1853.13 513.27 1831.25 500.39 1830.56 501.57 1853.12 514.85 1875.89 501.95 1875.22 500.76" style="fill:url(#linear-gradient-104);"></polygon> <polygon points="1831.25 500.39 1808.69 487.11 1785.92 500 1786.59 501.19 1808.68 488.69 1830.56 501.57 1831.25 500.39" style="fill:url(#linear-gradient-104);"></polygon> </g> <g> <path d="M1869.31,495.76c-3.09,3.45-2.8,8.74,.65,11.84,3.45,3.09,8.74,2.8,11.83-.65,3.09-3.45,2.8-8.75-.65-11.84-3.45-3.09-8.75-2.8-11.84,.65Z" style="fill:url(#linear-gradient-104);"></path> <path d="M1818.78,412.69c-3.09,3.45-2.8,8.75,.65,11.84,3.45,3.09,8.75,2.8,11.84-.65,3.09-3.45,2.8-8.75-.65-11.83-3.45-3.09-8.75-2.8-11.84,.65Z" style="fill:url(#linear-gradient-104);"></path> <path d="M1739.25,380.03c-3.09,3.45-2.8,8.75,.65,11.84,3.45,3.09,8.75,2.8,11.84-.65,3.09-3.45,2.8-8.75-.65-11.84-3.45-3.09-8.75-2.8-11.84,.65Z" style="fill:url(#linear-gradient-104);"></path> <path d="M1697.96,456.95c-1.79,2-1.63,5.08,.38,6.88s5.08,1.62,6.87-.38c1.8-2,1.63-5.08-.37-6.88-2.01-1.8-5.08-1.63-6.88,.37Z" style="fill:url(#linear-gradient-104);"></path> <path d="M1829.04,499.31c-.92,1.03-.84,2.6,.19,3.52s2.6,.83,3.52-.19,.83-2.61-.19-3.53-2.61-.83-3.53,.19Z" style="fill:url(#linear-gradient-104);"></path> <path d="M1897.8,454.03c-.92,1.03-.83,2.6,.19,3.53,1.02,.92,2.61,.83,3.53-.19,.92-1.03,.83-2.61-.19-3.53-1.03-.92-2.61-.83-3.53,.19Z" style="fill:url(#linear-gradient-104);"></path> <path d="M1866.34,450.51c-1.8,2-1.63,5.08,.38,6.87,2,1.8,5.08,1.63,6.88-.37,1.79-2,1.63-5.08-.38-6.88s-5.08-1.63-6.88,.38Z" style="fill:url(#linear-gradient-104);"></path> <path d="M1895.49,505.98c-.71,.8-.65,2.02,.15,2.74s2.03,.65,2.74-.15c.72-.8,.65-2.03-.15-2.74s-2.02-.65-2.74,.15Z" style="fill:url(#linear-gradient-104);"></path> <path d="M1784.81,499.3c-.72,.8-.65,2.02,.15,2.74s2.02,.65,2.74-.15c.72-.8,.65-2.02-.15-2.74-.8-.71-2.02-.65-2.74,.15Z" style="fill:url(#linear-gradient-104);"></path> <path d="M1807.24,486.6c-.71,.8-.65,2.02,.15,2.74,.8,.72,2.03,.65,2.74-.15,.72-.8,.65-2.02-.15-2.74-.8-.72-2.02-.65-2.74,.15Z" style="fill:url(#linear-gradient-104);"></path> <path d="M1827.61,458.05c-1.8,2-1.63,5.08,.37,6.88s5.08,1.63,6.88-.38c1.79-2,1.63-5.08-.38-6.88-2-1.8-5.08-1.63-6.88,.38Z" style="fill:url(#linear-gradient-104);"></path> <path d="M1851.98,513.03c-.57,.63-.52,1.6,.12,2.17s1.6,.51,2.17-.12,.51-1.61-.12-2.17-1.61-.51-2.17,.12Z" style="fill:url(#linear-gradient-104);"></path> <path d="M1838.59,362.43c-.92,1.03-.84,2.6,.19,3.53,1.02,.92,2.6,.83,3.52-.19,.92-1.03,.84-2.61-.19-3.52-1.03-.92-2.61-.83-3.53,.19Z" style="fill:url(#linear-gradient-104);"></path> <path d="M1813.16,118.11c-.92,1.03-.83,2.6,.19,3.52,1.03,.92,2.6,.83,3.53-.19,.92-1.03,.83-2.6-.19-3.52s-2.6-.83-3.52,.19Z" style="fill:url(#linear-gradient-104);"></path> <path d="M1855.16,425.81c-.65,.73-.59,1.85,.14,2.51s1.84,.59,2.5-.14c.65-.73,.59-1.85-.13-2.5-.73-.66-1.85-.6-2.51,.13Z" style="fill:url(#linear-gradient-104);"></path> <path d="M1815.53,385.5c-.65,.73-.59,1.85,.14,2.5,.73,.65,1.85,.59,2.5-.14,.65-.73,.59-1.85-.14-2.5-.73-.65-1.85-.59-2.5,.13Z" style="fill:url(#linear-gradient-104);"></path> <path d="M1743.2,433.92c-.92,1.02-.83,2.6,.2,3.53,1.02,.92,2.6,.83,3.52-.19,.92-1.03,.83-2.61-.19-3.53s-2.61-.84-3.53,.19Z" style="fill:url(#linear-gradient-104);"></path> <path d="M1656.67,433.18c-.92,1.03-.84,2.6,.19,3.53s2.61,.83,3.53-.19,.83-2.61-.19-3.53-2.61-.84-3.53,.19Z" style="fill:url(#linear-gradient-104);"></path> <path d="M1740.09,280.1c-3.09,3.45-2.8,8.74,.65,11.84,3.45,3.09,8.74,2.8,11.83-.65,3.09-3.45,2.8-8.74-.65-11.83-3.45-3.09-8.75-2.8-11.84,.65Z" style="fill:url(#linear-gradient-104);"></path> <path d="M1741.5,113.61c-3.09,3.45-2.8,8.75,.65,11.84,3.45,3.09,8.75,2.8,11.84-.65,3.09-3.45,2.8-8.75-.65-11.84-3.45-3.09-8.75-2.8-11.84,.65Z" style="fill:url(#linear-gradient-104);"></path> <path d="M1785.34,357.76c-1.79,2-1.63,5.08,.38,6.88s5.08,1.62,6.87-.38c1.79-2,1.63-5.08-.37-6.87-2.01-1.8-5.09-1.63-6.88,.37Z" style="fill:url(#linear-gradient-104);"></path> <path d="M1879.53,193.92c-1.79,2-1.63,5.08,.38,6.88,2,1.79,5.08,1.62,6.87-.38,1.8-2,1.63-5.08-.37-6.88-2.01-1.8-5.09-1.63-6.88,.37Z" style="fill:url(#linear-gradient-104);"></path> <path d="M1787.53,309.38c-.92,1.03-.83,2.6,.19,3.52s2.6,.83,3.52-.19c.92-1.03,.84-2.61-.19-3.53-1.03-.92-2.61-.84-3.53,.19Z" style="fill:url(#linear-gradient-104);"></path> <path d="M1880.62,274.94c-.92,1.02-.83,2.6,.2,3.52s2.6,.83,3.52-.19,.83-2.61-.19-3.53-2.61-.84-3.53,.19Z" style="fill:url(#linear-gradient-104);"></path> <path d="M1835.44,195.12c-.92,1.03-.83,2.6,.19,3.53s2.6,.83,3.52-.19c.92-1.03,.83-2.6-.19-3.52-1.03-.92-2.6-.84-3.53,.19Z" style="fill:url(#linear-gradient-104);"></path> <path d="M1700.57,358.61c-.92,1.03-.84,2.6,.19,3.52,1.02,.92,2.6,.83,3.52-.19s.83-2.61-.19-3.53-2.61-.83-3.53,.19Z" style="fill:url(#linear-gradient-104);"></path> <path d="M1699.23,307.06c-1.79,2-1.63,5.08,.38,6.88,2,1.79,5.08,1.62,6.88-.38,1.79-2,1.63-5.08-.37-6.87-2.01-1.8-5.09-1.63-6.88,.37Z" style="fill:url(#linear-gradient-104);"></path> <path d="M1655.33,381.64c-1.79,2-1.63,5.08,.38,6.88,2,1.8,5.08,1.62,6.87-.38,1.8-2,1.63-5.08-.38-6.87-2.01-1.8-5.08-1.63-6.88,.37Z" style="fill:url(#linear-gradient-104);"></path> <path d="M1810.41,233.06c-1.79,2-1.63,5.08,.38,6.88,2,1.79,5.08,1.62,6.87-.38,1.79-2,1.63-5.08-.37-6.87-2.01-1.8-5.08-1.63-6.88,.37Z" style="fill:url(#linear-gradient-104);"></path> <path d="M1711.74,175.52c-.92,1.03-.83,2.6,.2,3.53,1.02,.92,2.6,.83,3.52-.19,.92-1.03,.83-2.61-.19-3.52s-2.61-.84-3.53,.19Z" style="fill:url(#linear-gradient-104);"></path> <path d="M1744.9,234.07c-.92,1.03-.83,2.6,.19,3.53,1.02,.92,2.6,.83,3.52-.19,.92-1.03,.83-2.6-.19-3.52-1.03-.92-2.6-.84-3.53,.19Z" style="fill:url(#linear-gradient-104);"></path> <path d="M1833,272.97c-1.79,2-1.63,5.08,.38,6.88s5.08,1.62,6.87-.38,1.62-5.08-.38-6.87-5.08-1.63-6.88,.37Z" style="fill:url(#linear-gradient-104);"></path> </g> </g> </g> </g> </svg> 