<?xml version="1.0" encoding="UTF-8"?> <svg xmlns="http://www.w3.org/2000/svg" width="260" height="62" viewBox="0 0 260 62" fill="none"><path d="M255.108 45.248H259.524V46.464H243.908V45.248H248.324V17.92H243.908V16.768H259.524V17.92H255.108V45.248ZM226.372 29.184H229.7C234.137 29.184 237.508 29.9733 239.812 31.552C242.116 33.1307 243.268 35.264 243.268 37.952C243.268 39.872 242.436 41.7707 240.772 43.648C239.151 45.5253 236.164 46.464 231.812 46.464H215.172V45.248H219.524V17.92H215.172V16.768H230.788V17.92H226.372V29.184ZM226.372 45.248H229.124C231.855 45.248 233.583 44.8427 234.308 44.032C235.076 43.2213 235.46 42.112 235.46 40.704C235.46 39.8507 235.481 39.0187 235.524 38.208C235.567 37.3547 235.545 36.5227 235.46 35.712C235.46 34.2613 235.097 33.0027 234.372 31.936C233.689 30.8693 232.153 30.336 229.764 30.336H226.372V45.248Z" fill="#E34B97"></path><path d="M191.243 16.384V20.608C192.693 17.536 195.019 16 198.219 16C200.48 16 202.677 16.6187 204.811 17.856C206.944 19.0933 208.715 20.8853 210.123 23.232C211.531 25.5787 212.235 28.3947 212.235 31.68C212.235 35.7333 210.827 39.3387 208.011 42.496C205.195 45.6533 201.76 47.232 197.707 47.232C194.848 47.232 192.693 46.1227 191.243 43.904V60.16H195.659V61.312H180.043V60.16H184.395V17.92H180.043V16.768H186.891C188.384 16.768 189.835 16.64 191.243 16.384ZM204.427 35.648V26.368C204.427 22.9973 203.829 20.6507 202.635 19.328C201.44 17.9627 199.947 17.28 198.155 17.28C196.235 17.28 194.592 18.0267 193.227 19.52C191.904 21.0133 191.243 22.7413 191.243 24.704V40.256C191.243 41.7493 191.925 43.1147 193.291 44.352C194.699 45.5467 196.235 46.144 197.899 46.144C199.605 46.144 201.12 45.376 202.443 43.84C203.765 42.304 204.427 39.5733 204.427 35.648Z" fill="#E34B97"></path><path d="M176.045 38.144L177.261 38.912C175.426 41.728 173.527 43.8187 171.565 45.184C169.645 46.5493 167.319 47.232 164.589 47.232C160.194 47.232 156.589 45.76 153.773 42.816C150.999 39.872 149.613 36.1387 149.613 31.616C149.613 27.1787 151.021 23.4667 153.837 20.48C156.653 17.4933 159.917 16 163.629 16C165.634 16 167.618 16.4267 169.581 17.28C171.543 18.1333 173.186 19.584 174.509 21.632C175.874 23.6373 176.685 26.4107 176.941 29.952H157.421L157.485 34.752C157.613 37.952 158.061 40.5973 158.829 42.688C159.639 44.736 161.474 45.76 164.333 45.76C168.599 45.76 172.503 43.2213 176.045 38.144ZM157.421 28.8H169.709C169.879 25.0453 169.581 22.1653 168.813 20.16C168.087 18.1547 166.487 17.152 164.013 17.152C161.581 17.152 159.874 17.9413 158.893 19.52C157.954 21.056 157.485 22.6987 157.485 24.448L157.421 28.8Z" fill="#E34B97"></path><path d="M124.747 30.144H127.307C129.27 30.144 130.614 29.5893 131.339 28.48C132.107 27.3707 132.683 25.8987 133.067 24.064C133.664 21.0773 134.368 18.9867 135.179 17.792C136.032 16.5973 137.483 16 139.531 16C141.11 16 142.411 16.4693 143.435 17.408C144.459 18.304 144.971 19.456 144.971 20.864C144.971 22.144 144.63 23.1893 143.947 24C143.264 24.8107 142.368 25.216 141.259 25.216C140.32 25.216 139.467 24.9387 138.699 24.384C137.974 23.7867 137.611 23.0613 137.611 22.208C137.611 21.6107 137.675 21.0987 137.803 20.672C137.846 20.544 137.867 20.4373 137.867 20.352C137.91 20.224 137.931 20.1387 137.931 20.096C137.974 20.0533 137.995 19.968 137.995 19.84C137.995 19.1573 137.44 18.816 136.331 18.816C135.648 18.816 135.008 20.6293 134.411 24.256C133.984 26.176 133.515 27.6053 133.003 28.544C132.491 29.44 131.723 30.0373 130.699 30.336V30.528C134.795 30.7413 137.504 31.616 138.827 33.152C140.15 34.688 140.982 36.7787 141.323 39.424C141.494 41.0453 141.707 42.2613 141.963 43.072C142.262 43.8827 142.816 44.288 143.627 44.288C144.139 44.288 144.694 44.096 145.291 43.712C145.888 43.2853 146.272 42.8587 146.443 42.432L147.339 42.88C146.742 44.288 145.76 45.376 144.395 46.144C143.072 46.8693 141.664 47.232 140.171 47.232C138.55 47.232 137.312 46.8053 136.459 45.952C135.606 45.056 135.051 44.0747 134.795 43.008C134.539 41.8987 134.304 40.4907 134.091 38.784C133.664 35.456 132.96 33.3653 131.979 32.512C131.04 31.6587 129.632 31.232 127.755 31.232H126.283L124.747 31.296V45.248H129.163V46.464H113.547V45.248H117.899V17.92H113.547V16.768H129.163V17.92H124.747V30.144Z" fill="#E34B97"></path><path d="M87.6221 40.128L99.5261 20.096V17.92H95.6221V16.768H110.726V17.92H106.31V45.248H110.726V46.464H95.6221V45.248H99.5261V22.464L87.6221 42.496V45.248H91.5261V46.464H76.4221V45.248H80.7741V17.92H76.4221V16.768H91.5261V17.92H87.6221V40.128Z" fill="#E34B97"></path><path d="M50.4971 17.92V45.248H54.4011V46.464H39.2971V45.248H43.6491V17.92H39.2971V16.768H73.6011V17.92H69.1851V45.248H73.6011V46.464H58.4971V45.248H62.4011V17.92H50.4971Z" fill="#E34B97"></path><path d="M34.3321 31.232H36.0601L35.4841 46.464H33.6921C33.4361 44.5867 32.6894 43.648 31.4521 43.648C30.6841 43.648 29.7027 44.032 28.5081 44.8C27.9961 45.056 27.3134 45.376 26.4601 45.76C25.6494 46.144 24.6894 46.4853 23.5801 46.784C22.4707 47.0827 21.1481 47.232 19.6121 47.232C14.6627 47.232 10.3534 45.3547 6.68407 41.6C3.01474 37.8027 0.966741 32.7893 0.540074 26.56C0.454741 25.0667 0.454741 23.5947 0.540074 22.144C1.05207 15.36 3.27074 9.984 7.19607 6.016C11.1641 2.00533 15.7721 0 21.0201 0C23.0681 0 24.6894 0.362666 25.8841 1.088C27.0787 1.81333 28.5507 2.176 30.3001 2.176C31.7081 2.176 32.6467 1.45067 33.1161 0H34.7801L34.9081 14.848H33.3721C32.9027 10.3253 31.7294 6.95467 29.8521 4.736C27.9747 2.47467 25.1801 1.344 21.4681 1.344C19.4201 1.344 17.4787 1.89867 15.6441 3.008C13.8094 4.11733 12.2947 5.99466 11.1001 8.64C9.90541 11.2427 9.30807 14.7413 9.30807 19.136V30.4C9.30807 36.0747 10.5667 40.0853 13.0841 42.432C15.6441 44.736 18.3961 45.888 21.3401 45.888C24.1987 45.888 26.8441 44.7787 29.2761 42.56C31.7081 40.3413 33.3934 36.5653 34.3321 31.232Z" fill="#E34B97"></path></svg> 