<?xml version="1.0" encoding="UTF-8"?> <svg xmlns="http://www.w3.org/2000/svg" id="Layer_2" viewBox="0 0 39.42 52.6"> <g id="Text"> <path d="M.18,1.27C.16,.28,.47,0,1.45,0c7.93,.03,15.86,.03,23.78,0,.83,0,1.39,.31,1.95,.87,3.85,3.79,7.72,7.57,11.62,11.32,.49,.47,.6,.95,.6,1.56,0,17.06,0,29.57,.02,37.6,0,.98-.25,1.26-1.25,1.25-8.2-.04-28.54-.05-36.74,0-1.18,0-1.45-.4-1.4-1.47C-.12,54.33,.33,8.8,.18,1.28h0Zm25.66,.79v7.31c0,2.48,1.24,3.72,3.71,3.72h7.35c-3.77-3.76-7.28-7.26-11.06-11.03ZM10.94,23.64c-.73,0-1.61-.33-1.61,1.06,0,1.28,.7,1.18,1.53,1.18,5.83,0,11.66-.01,17.49,0,.79,0,1.43,.07,1.43-1.11s-.5-1.17-1.36-1.16c-2.94,.04-14.6,0-17.49,.02h0Zm17.65,18.46c.91,.02,1.19-.27,1.19-1.17s-.27-1.18-1.19-1.18c-5.99,.04-11.98,.03-17.97,0-.79,0-1.3,.03-1.29,1.07,.01,.97,.28,1.29,1.28,1.27,2.94-.07,14.92-.06,17.97,0h.01Zm-.13-8.08c.92,.02,1.36-.14,1.33-1.19-.02-.96-.44-1.1-1.27-1.1-5.95,.03-11.9,.03-17.85,0-.91,0-1.35,.13-1.34,1.2,0,1.03,.49,1.08,1.28,1.08,2.95-.03,14.85-.05,17.85,0h0Z" style="fill:#fff;"></path> </g> </svg> 