<?xml version="1.0" encoding="UTF-8"?> <svg xmlns="http://www.w3.org/2000/svg" width="777" height="104" viewBox="0 0 777 104" fill="none"><path d="M762.27 36.2001C762.27 34.0401 763.03 32.2801 764.549 30.9201C766.07 29.5601 767.749 28.8801 769.589 28.8801C771.669 28.8801 773.39 29.6401 774.75 31.1601C776.19 32.6001 776.909 34.2801 776.909 36.2001C776.909 38.0401 776.23 39.7201 774.87 41.2401C773.51 42.7601 771.749 43.5201 769.589 43.5201C767.509 43.5201 765.75 42.8001 764.31 41.3601C762.95 39.8401 762.27 38.1201 762.27 36.2001ZM762.27 80.1201C762.27 78.0401 763.03 76.3201 764.549 74.9601C766.15 73.5201 767.829 72.8001 769.589 72.8001C771.429 72.8001 773.11 73.4801 774.63 74.8401C776.15 76.2001 776.909 77.9601 776.909 80.1201C776.909 82.3601 776.15 84.1601 774.63 85.5201C773.19 86.8001 771.509 87.4401 769.589 87.4401C767.429 87.4401 765.67 86.6801 764.31 85.1601C762.95 83.6401 762.27 81.9601 762.27 80.1201Z" fill="#E34B97"></path><path d="M747.317 30.3201L748.517 51.4401H745.757C743.037 38.2401 736.917 31.9201 727.397 32.4801V83.7201H735.677V86.0001H706.397V83.7201H714.557V32.4801C709.197 32.1601 705.317 33.4801 702.917 36.4401C700.517 39.4001 698.317 44.4001 696.317 51.4401H693.557L694.757 30.3201H747.317Z" fill="#E34B97"></path><path d="M687.26 70.4001L689.54 71.8401C686.1 77.1201 682.54 81.0401 678.86 83.6001C675.26 86.1601 670.9 87.4401 665.78 87.4401C657.54 87.4401 650.78 84.6801 645.5 79.1601C640.3 73.6401 637.7 66.6401 637.7 58.1601C637.7 49.8401 640.34 42.8801 645.62 37.2801C650.9 31.6801 657.02 28.8801 663.98 28.8801C667.74 28.8801 671.46 29.6801 675.14 31.2801C678.82 32.8801 681.9 35.6001 684.38 39.4401C686.94 43.2001 688.46 48.4001 688.94 55.0401H652.34L652.46 64.0401C652.7 70.0401 653.54 75.0001 654.98 78.9201C656.5 82.7601 659.94 84.6801 665.3 84.6801C673.3 84.6801 680.62 79.9201 687.26 70.4001ZM652.34 52.8801H675.38C675.7 45.8401 675.14 40.4401 673.7 36.6801C672.34 32.9201 669.34 31.0401 664.7 31.0401C660.14 31.0401 656.94 32.5201 655.1 35.4801C653.34 38.3601 652.46 41.4401 652.46 44.7201L652.34 52.8801Z" fill="#E34B97"></path><path d="M578.657 103.16H575.777L577.337 83.7201H579.257C582.537 83.7201 584.937 82.6401 586.457 80.4801C588.057 78.3201 589.177 74.2401 589.817 68.2401C590.457 62.2401 590.777 53.2001 590.777 41.1201C590.777 37.8401 590.137 35.6001 588.857 34.4001C587.577 33.1201 584.737 32.4801 580.337 32.4801V30.3201H632.057V32.4801H623.897V83.7201H632.657L633.737 103.16H631.097C630.377 96.8401 628.177 92.4001 624.497 89.8401C620.897 87.2801 615.417 86.0001 608.057 86.0001H597.137C591.297 86.0001 587.097 87.2001 584.537 89.6001C581.977 92.0801 580.017 96.6001 578.657 103.16ZM611.057 83.7201V32.4801H601.577C598.697 32.4801 596.697 32.8801 595.577 33.6801C594.537 34.4801 593.897 35.6401 593.657 37.1601C593.497 38.6801 593.257 42.9201 592.937 49.8801C592.537 62.6001 592.057 70.8801 591.497 74.7201C590.937 78.4801 589.417 81.4801 586.937 83.7201H611.057Z" fill="#E34B97"></path><path d="M531.836 32.4801V55.6401C535.676 55.7201 538.476 55.3601 540.236 54.5601C541.996 53.7601 543.236 52.5601 543.956 50.9601C544.756 49.2801 545.596 46.6001 546.476 42.9201C547.596 38.0401 548.996 34.4801 550.676 32.2401C552.436 30.0001 555.036 28.8801 558.476 28.8801C561.436 28.8801 563.876 29.7601 565.796 31.5201C567.796 33.2001 568.796 35.3601 568.796 38.0001C568.796 40.4001 568.036 42.3601 566.516 43.8801C564.996 45.4001 563.396 46.1601 561.716 46.1601C560.036 46.1601 558.476 45.6401 557.036 44.6001C555.596 43.5601 554.876 42.2001 554.876 40.5201C554.876 39.1601 554.996 38.2001 555.236 37.6401C555.316 37.4001 555.356 37.2001 555.356 37.0401C555.436 36.8001 555.476 36.6401 555.476 36.5601C555.556 36.4801 555.596 36.3201 555.596 36.0801C555.596 35.3601 555.436 34.8401 555.116 34.5201C554.236 33.8001 553.356 33.8001 552.476 34.5201C552.076 34.7601 551.596 35.4001 551.036 36.4401C550.556 37.4001 550.236 38.4801 550.076 39.6801C549.116 44.2401 548.196 47.6801 547.316 50.0001C546.436 52.2401 545.076 54.0401 543.236 55.4001C543.556 55.4801 543.796 55.5601 543.956 55.6401C544.116 55.6401 544.316 55.6801 544.556 55.7601C544.796 55.7601 545.236 55.8401 545.876 56.0001C550.356 57.1201 554.076 58.8801 557.036 61.2801C560.076 63.6801 561.716 67.5201 561.956 72.8001C561.716 74.9601 561.996 77.0401 562.796 79.0401C563.676 80.9601 564.756 81.9201 566.036 81.9201C566.916 81.9201 567.956 81.5201 569.156 80.7201C570.356 79.9201 571.236 79.0801 571.796 78.2001L573.476 79.2801C570.116 84.7201 565.556 87.4401 559.796 87.4401C555.796 87.4401 553.116 86.1201 551.756 83.4801C550.476 80.8401 549.436 76.9201 548.636 71.7201C548.156 67.0001 546.796 63.3601 544.556 60.8001C542.396 58.1601 538.156 57.2001 531.836 57.9201V83.7201H539.996V86.0001H510.716V83.7201H518.996V57.9201C512.436 57.6801 508.156 58.6401 506.156 60.8001C504.156 62.9601 502.796 66.6001 502.076 71.7201C501.756 76.0401 500.836 79.7601 499.316 82.8801C497.876 85.9201 495.076 87.4401 490.916 87.4401C485.316 87.4401 480.756 84.7201 477.236 79.2801L478.796 78.2001C480.636 80.6801 482.596 81.9201 484.676 81.9201C485.476 81.9201 486.196 81.4401 486.836 80.4801C487.556 79.5201 488.076 78.3201 488.396 76.8801C488.716 75.4401 488.836 74.0801 488.756 72.8001C488.996 67.4401 490.636 63.6001 493.676 61.2801C496.716 58.9601 500.436 57.2001 504.836 56.0001C505.476 55.8401 505.916 55.7601 506.156 55.7601C506.396 55.6801 506.596 55.6401 506.756 55.6401C506.996 55.5601 507.236 55.4801 507.476 55.4001C505.636 53.8801 504.316 52.1201 503.516 50.1201C502.796 48.0401 501.836 44.5601 500.636 39.6801C500.636 38.8001 500.316 37.7601 499.676 36.5601C499.116 35.3601 498.636 34.6801 498.236 34.5201C497.356 33.7201 496.516 33.7201 495.716 34.5201C495.316 34.8401 495.116 35.3601 495.116 36.0801C495.116 36.3201 495.276 36.8401 495.596 37.6401C495.756 38.2001 495.836 39.1601 495.836 40.5201C495.836 42.3601 495.076 43.7601 493.556 44.7201C492.036 45.6801 490.436 46.1601 488.756 46.1601C487.076 46.1601 485.516 45.4001 484.076 43.8801C482.636 42.3601 481.916 40.4001 481.916 38.0001C481.916 35.3601 482.876 33.2001 484.796 31.5201C486.796 29.7601 489.276 28.8801 492.236 28.8801C494.636 28.8801 496.556 29.4001 497.996 30.4401C499.516 31.4801 500.636 32.8001 501.356 34.4001C502.156 36.0001 502.836 37.8401 503.396 39.9201C504.036 41.9201 504.676 44.2801 505.316 47.0001C506.436 50.6801 507.836 53.0401 509.516 54.0801C511.196 55.1201 514.356 55.6401 518.996 55.6401V32.4801H510.716V30.3201H539.996V32.4801H531.836Z" fill="#E34B97"></path><path d="M424.916 71.4801L426.956 72.4401C423.276 82.4401 416.756 87.4401 407.396 87.4401C401.716 87.4401 396.676 86.1201 392.276 83.4801C387.956 80.7601 384.596 77.1601 382.196 72.6801C379.876 68.2001 378.716 63.3601 378.716 58.1601C378.716 50.9601 381.196 44.2801 386.156 38.1201C391.196 31.9601 398.276 28.8801 407.396 28.8801C412.916 28.8801 417.476 30.2401 421.076 32.9601C424.756 35.6801 426.596 38.8401 426.596 42.4401C426.596 45.0001 425.876 47.0801 424.436 48.6801C423.076 50.2001 421.316 50.9601 419.156 50.9601C416.756 50.9601 414.796 50.1601 413.276 48.5601C411.756 46.8801 410.996 44.9601 410.996 42.8001C410.996 41.9201 411.276 40.9201 411.836 39.8001C412.236 38.8401 412.836 37.8001 413.636 36.6801C414.436 35.4801 414.836 34.6801 414.836 34.2801C414.836 33.4801 414.236 32.7201 413.036 32.0001C411.916 31.2801 410.156 30.9201 407.756 30.9201C403.516 30.9201 400.036 32.0801 397.316 34.4001C394.676 36.7201 393.356 41.8001 393.356 49.6401V66.0801C393.356 72.2401 394.396 76.9601 396.476 80.2401C398.556 83.4401 402.316 85.0401 407.756 85.0401C411.996 85.0401 415.396 83.9601 417.956 81.8001C420.596 79.6401 422.916 76.2001 424.916 71.4801Z" fill="#E34B97"></path><path d="M374.07 79.0401L375.87 80.7201C372.83 85.2001 368.47 87.4401 362.79 87.4401C357.11 87.4401 353.51 84.6001 351.99 78.9201C345.43 84.6001 339.07 87.4401 332.91 87.4401C328.35 87.4401 324.67 86.1601 321.87 83.6001C319.07 80.9601 317.67 77.4401 317.67 73.0401C317.67 67.2801 320.19 62.7601 325.23 59.4801C330.35 56.1201 337.83 54.4401 347.67 54.4401C349.59 54.4401 351.03 54.4801 351.99 54.5601V39.9201C351.99 37.3601 351.43 35.2801 350.31 33.6801C349.27 32.0001 346.91 31.1601 343.23 31.1601C341.15 31.1601 339.23 31.4401 337.47 32.0001C335.71 32.4801 334.83 33.1601 334.83 34.0401C334.83 35.6401 335.27 37.1201 336.15 38.4801C337.27 40.3201 337.83 41.7601 337.83 42.8001C337.83 44.9601 337.19 46.8801 335.91 48.5601C334.63 50.1601 332.63 50.9601 329.91 50.9601C327.35 50.9601 325.35 50.1201 323.91 48.4401C322.47 46.7601 321.75 44.6001 321.75 41.9601C321.75 37.8801 323.99 34.6801 328.47 32.3601C333.03 30.0401 337.99 28.8801 343.35 28.8801C352.63 28.8801 358.51 30.4001 360.99 33.4401C363.55 36.4801 364.83 40.3201 364.83 44.9601V78.9201C364.83 81.8001 365.83 83.2401 367.83 83.2401C368.79 83.2401 369.91 82.8001 371.19 81.9201C372.47 81.0401 373.43 80.0801 374.07 79.0401ZM351.99 74.8401V56.7201C344.55 56.5601 339.39 57.6001 336.51 59.8401C333.71 62.0001 332.31 66.3601 332.31 72.9201C332.31 78.9201 335.35 81.9201 341.43 81.9201C342.79 81.9201 344.87 81.1201 347.67 79.5201C350.55 77.9201 351.99 76.3601 351.99 74.8401Z" fill="#E34B97"></path><path d="M262.651 83.7201V32.4801H254.491V30.3201H285.091C293.251 30.3201 299.051 31.4401 302.491 33.6801C305.931 35.8401 307.651 38.7201 307.651 42.3201C307.651 45.6801 306.331 48.6801 303.691 51.3201C301.051 53.8801 296.691 55.4401 290.611 56.0001V56.6001C294.611 56.8401 298.131 57.6001 301.171 58.8801C304.291 60.0801 306.651 61.6801 308.251 63.6801C309.851 65.6001 310.651 67.7201 310.651 70.0401C310.651 75.0001 308.571 78.9201 304.411 81.8001C300.331 84.6001 296.051 86.0001 291.571 86.0001H254.491V83.7201H262.651ZM275.491 83.7201H285.331C288.771 83.7201 291.411 82.8801 293.251 81.2001C295.091 79.5201 296.011 75.8401 296.011 70.1601C296.011 61.6801 292.531 57.4401 285.571 57.4401H275.491V83.7201ZM275.491 55.4001H283.771C289.771 55.4001 293.011 52.6001 293.491 47.0001C293.651 46.2801 293.691 45.5601 293.611 44.8401C293.531 44.1201 293.491 43.4001 293.491 42.6801C293.491 39.4001 292.811 36.8801 291.451 35.1201C290.171 33.3601 287.171 32.4801 282.451 32.4801H275.491V55.4001Z" fill="#E34B97"></path><path d="M146.45 58.1601C146.45 50.4801 149.05 43.6801 154.25 37.7601C159.53 31.8401 166.33 28.8801 174.65 28.8801C180.17 28.8801 185.09 30.3201 189.41 33.2001C193.81 36.0001 197.17 39.6801 199.49 44.2401C201.89 48.7201 203.09 53.3601 203.09 58.1601C203.09 62.9601 201.89 67.6401 199.49 72.2001C197.17 76.6801 193.81 80.3601 189.41 83.2401C185.09 86.0401 180.17 87.4401 174.65 87.4401C169.05 87.4401 164.09 86.0401 159.77 83.2401C155.45 80.3601 152.13 76.6801 149.81 72.2001C147.57 67.6401 146.45 62.9601 146.45 58.1601ZM161.21 48.6801C161.13 50.9201 161.09 54.2001 161.09 58.5201C161.09 65.2401 161.45 70.4401 162.17 74.1201C162.97 77.8001 164.33 80.5601 166.25 82.4001C168.25 84.2401 171.13 85.1601 174.89 85.1601C179.61 85.1601 183.05 83.2801 185.21 79.5201C187.37 75.7601 188.45 68.7201 188.45 58.4001C188.45 49.5201 187.61 42.7601 185.93 38.1201C184.25 33.4001 180.57 31.0401 174.89 31.0401C171.21 31.0401 168.05 32.4801 165.41 35.3601C162.85 38.2401 161.45 42.6801 161.21 48.6801Z" fill="#E34B97"></path><path d="M141.457 30.3201L142.657 51.4401H139.897C137.177 38.2401 131.057 31.9201 121.537 32.4801V83.7201H129.817V86.0001H100.537V83.7201H108.697V32.4801C103.337 32.1601 99.4573 33.4801 97.0573 36.4401C94.6573 39.4001 92.4573 44.4001 90.4573 51.4401H87.6973L88.8973 30.3201H141.457Z" fill="#E34B97"></path><path d="M56.3376 40.2801V2.84007H47.2176V0.320068H81.0576V2.84007H70.9776V83.3601H81.0576V86.0001H46.2576V83.3601H56.3376V42.6801C48.8976 45.4801 41.6576 46.8801 34.6176 46.8801C27.2576 46.8801 21.7776 45.7201 18.1776 43.4001C14.5776 41.0001 12.3376 38.5201 11.4576 35.9601C10.5776 33.4001 10.1376 31.0401 10.1376 28.8801V2.84007H0.0576172V0.320068H34.0176V2.84007H24.7776V28.5201C24.7776 32.5201 25.6976 36.0001 27.5376 38.9601C29.3776 41.8401 33.4576 43.2801 39.7776 43.2801C44.8176 43.2801 50.3376 42.2801 56.3376 40.2801Z" fill="#E34B97"></path></svg> 