<?xml version="1.0" encoding="UTF-8"?> <!-- Generator: Adobe Illustrator 26.5.0, SVG Export Plug-In . SVG Version: 6.00 Build 0) --> <svg xmlns="http://www.w3.org/2000/svg" xmlns:xlink="http://www.w3.org/1999/xlink" id="Слой_1" x="0px" y="0px" viewBox="0 0 595.3 297.6" style="enable-background:new 0 0 595.3 297.6;" xml:space="preserve"> <style type="text/css"> .st0{clip-path:url(#SVGID_00000049939401839718453700000010287321897987216056_);fill:#414042;} </style> <g> <g> <defs> <rect id="SVGID_1_" x="-9.4" y="-4.3" width="573.7" height="353.5"></rect> </defs> <clipPath id="SVGID_00000059284565466480674560000010972425678447060911_"> <use xlink:href="#SVGID_1_" style="overflow:visible;"></use> </clipPath> <path style="clip-path:url(#SVGID_00000059284565466480674560000010972425678447060911_);fill:#414042;" d="M117.7,92.7l-0.8,1.4 l-1.3-0.5l0.2-2.1h1.5L117.7,92.7z M170.3,159.5l-1.6,1.7l-0.8-1.7l1.1-1.6L170.3,159.5z M167.5,214l-0.3,0.8l-1,0.7l-1.1-2.1 l-1.1-4.1l-1-1.8v-1.1l-0.3-6.3l-1.9-5.9l-0.6-6.4l-1.2-4.3l-1.4-6.3l-0.4-4.6l-1.5-2.6l-1.3-4.8v-3.9l-1.1-3.2l0.2-6.6l-1.2-2.2 l-0.5-3.5l-0.1-5l0.6-5l1-2.8l-1-3l-0.5-3.2l-0.2-3.7l-2-1.6l-1.7-0.7l-2.1,2.1l-2.3,3.2l-2.1,4l-1.8,4.6l-1.6,5.2l-1.4,4.3 l-1.3,4.4l-1.4,4.3l-1.1,2.4l-1.3,1.3l-1.4,0.8l-2.1-0.9l-1.4-2.3l-2.4-3.7l-1.3-3.4l-1.7-7.7l-0.6-3.5l-1-4.3l-1.6-3.9l-0.9-3.5 l-1.3-2.9l-1.6-0.9l-1.9-0.9l-0.9,2.1l-1.3,3.5l-1.5,4.3l-1.3,9.2l-1,5.2v2l-0.8,7.1l-1.6,8.5l-0.2,4.5l1.4,1.6l0.2,3.4l0.8,2.9 l-1.6,2.6l-1.8,2.6l-3.1,0.5h-3l-3.8,0.2l-2.5-1.1l-1.8-1.3l-0.9-3l0.9-6.6l1.8-3.4l1.4-0.6l0.3-8l2.7-9.5l0.5-3.9l2-3.5l-0.2-2.3 l2.2-3.5v-2.3l4.6-11.1l0.6-2.3l1.4-1.1l0.5-2.9l2.1-2.8l2.7-4l2.4-1.4h2l1.3,1.6l1.4,2.9l0.9,3.7l1.2,4l1.6,5.3l0.8,3.7l1.3,4.3 l0.6,3.4l0.6,4.7l0.5,3.8l1.2,3.7l2,2.6l1.2,0.9l1.3-1.5l0.8-2.6l1.5-3.1l1.7-5.2l2-4.6l1.1-3.5l1.1-2.6l-1.1-1.3l-1-2.6l0.2-3.2 l1.4-3.4l1.6-3.2l0.6-3.1l2.1-3.7l1.6-1.7l2.1-2.8l2.9-1.8l1.7-1.1l2.6,0.6l2.6,0.3l2.6,1.5l2.1,2l1.8,2.4l0.5,3.4l0.2,4l-0.2,3.7 l-0.2,4.6l0.3,8.7v5l1.4,8.8l-0.2,4.3l-0.3,5.8l-0.1,4.7v4.3l-0.5,5.2l-1,2.1l1,4.2v8.5l0.9,1.7l0.2,5.8l0.6,4.7l1,8.6l0.3,3.8 V214z M99.8,189.1l-1.2,1.1l-1.2-0.2l0.2-2.1h1.2L99.8,189.1z M249.1,114.5l-0.2,1.5l-1.2,0.5h-1.1l-2.3-0.9l-2-1h-5.5l-3.7,1.2 l-4.1,0.8l-5.2,2.6l-3.5,0.6h-2.3l-2.2,0.9l-6,0.2h-5l-5.3,0.5l-4.5,0.9l-2.4,0.8l-1.5,2.4l-0.6,2.6l-0.5,4l-0.3,4l-0.8,6.8 l0.2,1.4l-0.7,4.5l0.7,0.5l1.3-0.3l1.9-0.8l2.7-2.4l2.4-0.9h5.2l6.7,0.2l4.3,0.3l0.8,0.6l1.3,1.1h4l1.4,0.9l1.5-0.2l3,1l3.2,0.5 l0.2,0.8l-0.6,0.6l-1.9,1.3H225l-1.4-0.3l-5.3-0.2l-5.9,0.9l-5.5,0.6l-5,0.8l-4.9,0.3l-4,1.5l-3.9-2.7l-0.6,4.3l0.2,3.1l0.3,3.9 l0.9,4.3l1.4,4.7l1.5,4.2l4.5,6.3l2.4,2.8l3.4,2.1l3.4,1.7l4.1,2.1l5,0.6l5.2,0.9l4,1l2.6-0.2l2.3,0.7l6.1,0.9l1.3,1l-0.3,1.1 l-0.5,1.4l-1.8,0.3l-3.8-0.5l-4,0.2l-6.3,0.3l-4.3-0.3l-3.2-1.1l-1.5,0.2l-2.2-0.5l-4.4-1.2l-2.9-0.6l-2.2-2l-2.4-1.6l-2.1-1.7 l-2.2-3.7l-2.4-3.9l-0.5-3.5l0.5-2.4l-1.9-3.5l-0.6-3.8l-1.4-2l-0.3-4.5l-0.8-2.9l0.5-3l-0.9-4.4l0.9-2.9l-1.2-2l0.6-0.9l-0.3-2.3 l0.9-2.6l-0.5-2.6l1.3-2.8l-0.5-3.7v-2.9l1.1-1.9l-0.3-2.8l0.6-1.6l-0.3-2.9l-1.4-1.6l-2.9-2.9l-0.2-1.6l0.2-2.7l0.6-3.5l1.1-2.6 l2.9-1.9l2.6-0.9l2-0.8l3.4,0.9l3.7,1.8l4.8,0.2l6.6-0.2l8.7-0.3h5.1l4,1.1l4.1,0.3l3,0.5l2.8,0.9l2.1,0.6h1.4l3.1,1.7l2.6,1.7 L249.1,114.5z M197.7,195.2l-0.3,1.1l-1.5-0.2v-1.3l1.1-0.8L197.7,195.2z M293,126.9l-0.2,1.8l-2.1,0.5l-1.4-0.2l-1.6-1.5l1.5-1.3 l2.3-0.2L293,126.9z M292.4,123.3l-1.5,2h-2l-2.4-0.9l-2.3-1.1l-2.4-1.7l-0.5-1.5l-2.9-0.6l-1.6-0.6l-3.2,0.5h-2.8l-2.8,0.2 l-3.9,1.4l-2.8,1.6l-4.5,4.2l-0.9,2.3l-1.5,3.2l0.4,3.7l1.2,3.1l1.2,1.9l4.1,2.9l2.4,2l2.8,1.7l2.1,1.9l2.5,1.9l5.2,3.1l2.6,2.3 l1.9,2.1l1.8,1.3l0.4,1.8l2.6,4.1l1.1,2.6l0.6,2.8l1.2,3.1l0.9,2.9l0.2,4.1l-0.6,3.2l-1.8,3.8l-0.9,3l-1.9,2.1l-0.9,2l-2.3,2.3 l-2.1,1.6l-3.4,1.3l-4.5,0.8l-3.2,0.7l-3.6-0.7l-2.5-0.2l-2.3-0.5l-1.7-0.9h-1.2l-0.6-0.8l0.3-1.8l0.6-0.9h1.2v0.9l0.3,0.6 l1.1,0.7l2.3,0.9l5.1,0.3l1.6-0.5l2.5,0.2l3.4-0.9l3-1.3l3.7-2.6l0.6-1.9l1.6-2.6l0.9-2.8l1.1-2l0.2-2.4l0.8-3.5l-0.6-2.3 l-0.6-3.1l-1.6-2.4l-0.8-2.9l-1.4-2.7l-1-2.6l-1.9-1.1l-1.5-1.7l-2.2-1.5l-1.9-2l-3.5-1.6l-2.1-2.1l-2.3-0.5l-2.3-2l-2.9-2 l-1.5-1.3l-2.9-0.8l-2.7-2.4l-2.4-2.8l-1.4-2.9l-1.5-3.1v-6.1l1.3-3.4l1.6-3.2l1.8-2.8l2-2.2l1.9-1.8l2.4-2l2.9-1.4l2.5-0.9 l3.7-0.2l3.5-0.3l3.5-0.9l3.1-1.5l3.2-0.9l1.5-1.1l3.1,0.5l1.7,1.6l1,2.9l1.3,1.6l1.6,1.7l1,2.5l0.3,2.4L292.4,123.3z M376.8,162.2l-0.2,0.6l-0.6,0.3h-0.5v-0.5l0.2-0.6l0.3-0.2L376.8,162.2z M378.1,208.5l-0.6,0.8l-1.3,0.5l-0.5-0.8l-0.9-1.2 l-1.1-2.2l-1.6-2.1l-2.3-4l-1.6-3.8l-0.6-2.7l-1.1-1.5l-2-5.6l-1.6-2l-1.2-2.9l-1.8-2.9l-1.4-1.2l-3.4-3.7l-0.7-2.1l-2.7-1.9 l-3.4-0.6l-3.6,0.5l-3.7,0.6l-2.7,1.1l-2.9,2.6l-2.8,1.4l-0.6,1.3l-2.1,1.6l-4.5,2.6l-0.9,0.9l-0.6,3.5v2.3l-1.1,1.2v2.8l-0.5,2.9 l0.5,4.7l-0.5,3.2l-0.9,3.4l-1.5,2.7l-1.7,2.1l-2.9,2.6l-2.7,0.5l-2.6,0.3l-0.8-0.6h-1.5l-1.1-1.3l-0.8-0.6v-1.6l-0.8-1.2v-3.2 l0.8-2.1l-0.2-1.8l0.5-1.1l0.9-0.5v-1.5l1.5-0.8l0.6-1.4l1-1.9l1.3-0.6l1.3-2.9l0.5-3.2l0.8-0.5l-0.3-2.1l0.6-3.2v-2l-1.4-3.1 l-0.9-2.7l-0.3-3.1l-0.2-2.1l0.5-0.6l-0.3-1.1v-0.6l2.4-2.9v-0.9l1.3-1.5l1.7-2.7l2.1-3.1l0.5-2.2l0.2-1.6l-0.2-1.3l0.8-4l0.6-3.9 l1.3-4.9l0.3-2.7l0.6-1.2l-0.2-4.2L323,125l0.3-3.5l1.3-2.9l1.2-2.3l1.4-1.1l0.5-2.1l1-1.4l0.5-1.3l-0.5-0.9l0.3-2.1l-1.2-2.5 l0.3-2.6l-0.9-1.2l0.5-2h1l1.7-1.3l0.9-0.1l0.7-1.3l2.5-0.3l2.1,0.9l1.8,2.8l0.8,0.5l1.2,2.4l1.5,2.9l0.6,2.7l1.4,3.1l1.8,2.4 l0.2,1.3l1.3,1.4l0.8,1.6l1.5,2.1l-0.2,2l1.4,2.9l0.2,1.3l0.9,1.6l0.8,2.8l1.3,2.3l0.5,3.8l0.7,2.8l0.9,3.8v1.4l0.8,2.1l1.1,3.7 l1,3.4l0.3,2.8l0.8,2l2.1,1.4l2.5,0.8l3.1-0.2h2.9l2.9,0.6l0.5,0.8l0.6,0.8l-0.6,0.5l-0.5,0.8l-1.3,1.3l-1.6,0.2l-0.6,0.8 l-2.4,0.5l-2.7,1.2l-1.1,1v1.9l0.5,2.3l1,2.3l1.3,2.2l1.1,3.2l0.8,2l1,3l1.1,2.7l1.6,3.4l1.1,2.8l0.6,4.4l0.8,0.5l1,2.3l1.1,2.2 v1.3l0.8,0.8L378.1,208.5z M378.3,214.3c-0.1,0.1-0.3,0.2-0.8,0.3l-0.5-0.2l-0.2-0.5l0.5-0.5l0.8,0.2L378.3,214.3z M315.2,155.2 L315,156l-0.7,0.5l-0.9-0.6V155l0.8-0.9l0.8-0.3l0.2,0.5V155.2z M305.2,194.7l-0.7,0.3l-0.7-0.3v-0.8l0.5-0.3l0.8,0.2l0.2,0.5 V194.7z M308.1,215.6l-0.2,0.6l-1.1-0.2l-0.5-1.1l0.8-0.2h1V215.6z M348.8,157.7l-0.7-1.7l-1.6-2.9l-0.3-2.7l-0.8-1.3l-0.6-1.7 l-0.9-1.6l0.2-4.2l-2-2.7l0.6-1.2l-0.8-1.9l-1-5.6l-1.2-2.6l-0.2-2.1l-1.8-2.3l-0.6-1.3l-1.6-3.4l-3.2,3.2l0.3,2l-1.2,1.8v1.9 l-0.3,1l-0.6,3.2l-0.3,2.8v0.9l-0.8,1.1v2.3l-0.3,4.5v2.1l-0.9,1.9l0.6,2l-0.9,2.4l1.3,1.9l3.7,1.6l3.9,1.4l3.2,1.8l1.8,1.3 l3.1,0.6l2.1-0.5l0.6-0.5L348.8,157.7z M341.2,158l-1,0.2l-0.8-0.5l0.2-0.6h0.8l0.5-0.3l0.3,0.5V158z M456.5,213.6l-0.5,0.3h-1.2 l-1.3-0.6l-1.7-1l-4.1-3.1l-2.9-2.6l-3.1-3.9l-2.4-3.2l-2-3.4l-2.4-2.6l-3.4-4.2l-3.8-3.7l-3.5-3.2l-2.7-3.5l-4-4.7l-2.9-4.3 l-3.1-3.9l-2.9-3.5l-3.4-2.9l-3.7-2.1h-3.5L398,160l-1.1,3.7l-1,5.8l-0.1,3.5l-0.9,3l-1.1,8.2l-0.3,4.7v2.9l-0.5,6.6v1.6l0.8,1.3 l1.3,1.5l0.7,2.1l-0.4,1.2l-0.8,1.1l-1.4,0.6l-1.5-0.3l-1.1-0.9l-0.8-1.3l-1.9-3.2l-0.3-3.9v-4.8l0.3-7.6l0.8-3l0.4-2v-3.9 l0.5-2.3l0.5-2.3l0.1-2.6l0.8-3.4l0.3-3.7l0.8-4l0.2-4.2l0.8-2.7l0.2-3.1v-3.7l0.5-3.8l0.2-4l1.6-8.3l0.6-3.1v-3.1l0.2-4.3 l1.1-2.9l0.9-2.8l-0.6-2.8l0.6-2.9l-1.3-3.1l0.5-2.5l1.3-2.3l3.4-0.3l3.4-2.3l3.2-0.5l4.5-0.2l4.8,0.2l5.3,0.5l2.6,1.1l2.2,0.9 l2.3,1.7l2.6,2.4l1.6,2.9l1.6,3.1l1.4,4v2.6l1.4,3l-0.2,3.5l0.4,1.7l-0.4,3.5l-0.7,3.1l-0.5,3.5l-0.2,3.2l-0.6,2.7l-1.5,3.4 l-2.2,2.8l-2.3,1.6l-2.4,1.9l-2.4,1.3l-2.3,1.5v3l0.8,2.4l0.9,2.4l0.6,2.3l2.2,5.4l3.4,5.7l1.5,2.6l1.4,3.2l2.3,4.1l1.3,2.6l2.1,3 l1.1,3.4l1.3,3.1l2,3.2l1.6,2.7l2.5,3.1l3.1,2.9l2.1,2.3l1.6,2l0.7,1L456.5,213.6z M404.3,170.7l-0.2,1.1l-1.3-0.4l-0.2-0.8 l1.3-1.1L404.3,170.7z M424.7,123.8l-1.1-3.4l0.8-3.4l-0.8-1.4v-6l-1.7-2.4l-3.2-0.9l-2.7-1.1l-1.3,0.6l-1.1-0.1l-5,1.7l-0.9,1.5 l-0.6,1.9l-0.6,2.6l-0.6,3.4v2.9L404,128l-1.6,4.1l-1,3.4l-0.3,3.9l0.3,1.9l-0.3,2.6l1.7,1.3l2.3,0.6l2.1-1.2l3.9-0.9l5-0.9 l2.7-1.8l2.9-2.4l1-2.4l-0.6-1.5l0.6-1.6v-2.9l0.2-2.8L424.7,123.8z M423.3,119.4l-1.3,0.8l-0.8-1.1l0.8-1.3l1.3,0.5V119.4z M529.4,108.5l-1.5,0.6l-1.1-0.3l-3.2-0.5l-4.5-0.6H514l-6.3,0.4l-6.7,0.9l-6,0.2l-5.4,1.1l-4.3,0.8l-4.7,1.5l-3.5,0.9l-3.4,0.8 l-1.1,1.3l-2.1,1.3l-2.8,1.5l-3.2,0.9l-4.3,0.6l-4.3,0.2L452,119l-2.3-1.5l-2.3-1.5l-2-1.8l-0.3-2.2l0.3-2.6l1.4-1.9l1.3-1.3 l2.1-0.6l3.2-1.7l3.1-0.8l4.9-0.5h5.2l6.7,0.5h6.7l7.2-0.5l5.9-0.2l2.6-0.5l3.4,0.3l3.7-0.6l4,0.8l3.7-0.2l3.4,0.3l6.4,0.8h3.1 l5.2,2.5l0.8,1.4V108.5z M468.4,91.6l-1,1.3l-1.2-1.3l0.8-1.6l1.5,0.5V91.6z M488.1,121.6l-0.9,1.4l-0.6,3.2v2.9l-0.5,3.7v3.2 l-0.3,2.6l-0.6,2.2l0.6,1.8l-1.1,2l-0.2,2.8v2.4l-0.7,3.1l-0.3,3.5l-0.3,2.7l0.3,3.2l-0.6,3.7l-0.2,3.5v2.9l0.2,3.7l0.3,4 l-0.3,3.9v4.1l-0.4,3.6l0.3,3.4v3.7l0.2,3.4l-0.2,3.4l-1.1,1.1l-0.3-0.8l-0.4-1.5l0.4-2.5l0.2-3.1l-0.7-1.8l0.2-3l-0.5-1.7 l-0.5-2.4v-8l-0.6-2.6v-2.9l-0.3-3.1v-3.7l-0.3-3.1v-3.2l0.3-3.2v-4.3l-0.3-4.4v-6.9l-0.1-2.5l0.6-2.4v-3.1l-0.2-3.9l-1.3-3.7 l-0.8-3.3l-1.3-2.6l-0.3-2.6v-2.2l1.1-1.8l2-2l2.5-0.3l2,0.7l2.3,1.9l1.7,2.1L488.1,121.6z"></path> </g> </g> </svg> 