<?xml version="1.0" encoding="UTF-8"?> <svg xmlns="http://www.w3.org/2000/svg" id="Text" viewBox="0 0 1080 1080"> <g> <path d="M614.38,950.77c0,.24-.95,.4-1.24,.4-.39,0-1.63-.16-1.63-.4,0-10.72-10.67-16.28-19.63-16.28-6.57,0-12.2,2.94-12.2,8.89,0,12.79,40.59,6.75,40.59,30.41,0,12.87-14.77,19.14-28.2,19.14-7.91,0-15.73-3.58-17.54-3.58-1.9,0-2.86,1.83-2.86,2.7,0,.55-.57,.95-1.43,.95-1.43,0-1.62-.32-1.62-.95,0-1.51-.67-13.02-.67-18.11,0-.32,1.05-.56,1.62-.56,.67,0,1.82,.24,1.82,.64,.1,11.2,11.91,16.67,22.3,16.67,8.2,0,15.53-3.41,15.53-10.16,0-12.07-39.73-8.89-39.73-29.54,0-13.74,9.62-18.74,22.87-18.74,10.39,0,12.67,3.89,16.01,3.89,1.91,0,2.29-2.3,2.38-3.49,0-.32,.95-.48,1.43-.48,.76,0,1.34,.32,1.34,.95,0,1.51,.48,12.55,.86,17.63" style="fill:#380063;"></path> <g> <path d="M438.79,944.09v-8.79h1.79v7.2h2.48v-7.2h1.79v7.2h2.48v-7.2h1.79v8.79h-10.33Z" style="fill:#58595b;"></path> <path d="M457.6,944.09l-3.58-4.05v4.05h-1.84v-8.79h1.84v3.98l3.55-3.98h2.26l-3.98,4.26,4.11,4.54h-2.35Z" style="fill:#58595b;"></path> <path d="M461.4,939.69c0-1.27,.45-2.37,1.34-3.29,.89-.92,2.01-1.39,3.34-1.39,.94,0,1.76,.22,2.48,.66,.72,.44,1.26,1.02,1.62,1.72,.36,.71,.54,1.47,.54,2.3,0,1.3-.45,2.4-1.34,3.31-.89,.91-2,1.37-3.32,1.37-.62,0-1.19-.09-1.71-.28-.52-.18-.97-.43-1.32-.74-.36-.31-.66-.67-.91-1.08-.25-.41-.43-.83-.55-1.26-.12-.43-.17-.87-.17-1.32Zm2.68-2.16c-.53,.58-.8,1.3-.8,2.16s.26,1.58,.79,2.16c.53,.58,1.19,.87,1.98,.87s1.45-.29,1.99-.87c.53-.58,.8-1.3,.8-2.16s-.26-1.58-.77-2.16-1.18-.87-2.01-.87-1.45,.29-1.99,.87Z" style="fill:#58595b;"></path> <path d="M475.96,936.89l-.39,4.84c-.07,.88-.27,1.5-.61,1.88s-.87,.57-1.61,.57c-.31,0-.58-.04-.81-.12v-1.53c.12,.05,.29,.08,.5,.08,.24,0,.42-.06,.54-.19,.12-.12,.19-.35,.21-.69l.5-6.43h6.27v8.79h-1.78v-7.2h-2.82Z" style="fill:#58595b;"></path> <path d="M482.83,944.09l3.42-8.79h1.73l3.24,8.79h-1.9l-.68-2h-3.25l-.7,2h-1.86Zm3.73-5.4l-.74,2.09h2.36l-.72-2.1c-.17-.5-.31-.95-.41-1.34h-.06c-.11,.45-.25,.9-.43,1.35Z" style="fill:#58595b;"></path> <path d="M438.79,949.8h1.79v4.51c0,.62-.01,1.15-.04,1.59h.04c.18-.4,.62-1.17,1.33-2.32l2.31-3.78h1.69v8.79h-1.78v-4.37c0-.28,.01-.84,.04-1.66h-.04c-.15,.29-.66,1.16-1.53,2.59l-2.11,3.44h-1.69v-8.79Z" style="fill:#58595b;"></path> <path d="M454.18,958.6v-3.74h-3.52v3.74h-1.84v-8.79h1.84v3.46h3.52v-3.46h1.84v8.79h-1.84Z" style="fill:#58595b;"></path> <path d="M460.24,951.4h-2.09v-1.6h3.93v3.46h1.13c.96,0,1.72,.23,2.26,.7,.55,.47,.82,1.12,.82,1.94s-.29,1.48-.86,1.97c-.57,.49-1.32,.73-2.24,.73h-2.97v-7.2Zm4.2,4.5c0-.39-.13-.69-.39-.92-.26-.22-.62-.34-1.08-.34h-.89v2.55h.95c.45,0,.79-.11,1.04-.34,.25-.23,.37-.55,.37-.96Z" style="fill:#58595b;"></path> <path d="M473.96,949.8v1.6h-3.4v1.9h3.29v1.52h-3.29v2.18h3.55v1.6h-5.39v-8.79h5.25Z" style="fill:#58595b;"></path> <path d="M482.29,958.6l-3.58-4.05v4.05h-1.84v-8.79h1.84v3.98l3.55-3.98h2.26l-3.98,4.26,4.11,4.54h-2.35Z" style="fill:#58595b;"></path> <path d="M492.77,958.6h-6.38v-8.79h1.84v7.2h3.29v-7.2h1.84v7.2h1.25v3.86h-1.84v-2.26Z" style="fill:#58595b;"></path> <path d="M497.02,949.8h1.79v4.51c0,.62-.01,1.15-.04,1.59h.04c.18-.4,.62-1.17,1.33-2.32l2.31-3.78h1.69v8.79h-1.78v-4.37c0-.28,.01-.84,.04-1.66h-.04c-.15,.29-.66,1.16-1.53,2.59l-2.11,3.44h-1.69v-8.79Z" style="fill:#58595b;"></path> <path d="M506.58,954.2c0-1.27,.45-2.37,1.34-3.29,.89-.92,2.01-1.39,3.34-1.39,.94,0,1.76,.22,2.48,.66,.72,.44,1.26,1.02,1.62,1.72,.36,.71,.54,1.47,.54,2.3,0,1.3-.45,2.4-1.34,3.31-.89,.91-2,1.37-3.32,1.37-.62,0-1.19-.09-1.71-.28-.52-.18-.97-.43-1.32-.74-.36-.31-.66-.67-.91-1.08-.25-.41-.43-.83-.55-1.26-.12-.43-.17-.87-.17-1.32Zm2.68-2.16c-.53,.58-.8,1.3-.8,2.16s.26,1.58,.79,2.16c.53,.58,1.19,.87,1.98,.87s1.45-.29,1.99-.87c.53-.58,.8-1.3,.8-2.16s-.26-1.58-.77-2.16-1.18-.87-2.01-.87-1.45,.29-1.99,.87Z" style="fill:#58595b;"></path> <path d="M523.71,958.6v-3.74h-3.52v3.74h-1.84v-8.79h1.84v3.46h3.52v-3.46h1.84v8.79h-1.84Z" style="fill:#58595b;"></path> <path d="M533.82,958.6v-3.74h-3.52v3.74h-1.84v-8.79h1.84v3.46h3.52v-3.46h1.84v8.79h-1.84Z" style="fill:#58595b;"></path> <path d="M538.11,954.2c0-1.27,.45-2.37,1.34-3.29,.89-.92,2.01-1.39,3.34-1.39,.94,0,1.76,.22,2.48,.66,.72,.44,1.26,1.02,1.62,1.72,.36,.71,.54,1.47,.54,2.3,0,1.3-.45,2.4-1.34,3.31-.89,.91-2,1.37-3.32,1.37-.62,0-1.19-.09-1.71-.28-.52-.18-.97-.43-1.32-.74-.36-.31-.66-.67-.91-1.08-.25-.41-.43-.83-.55-1.26-.12-.43-.17-.87-.17-1.32Zm2.68-2.16c-.53,.58-.8,1.3-.8,2.16s.26,1.58,.79,2.16c.53,.58,1.19,.87,1.98,.87s1.45-.29,1.99-.87c.53-.58,.8-1.3,.8-2.16s-.26-1.58-.77-2.16-1.18-.87-2.01-.87-1.45,.29-1.99,.87Z" style="fill:#58595b;"></path> <path d="M549.87,949.8h1.79v4.51c0,.62-.01,1.15-.04,1.59h.04c.18-.4,.62-1.17,1.33-2.32l2.31-3.78h1.69v8.79h-1.78v-4.37c0-.28,.01-.84,.04-1.66h-.04c-.15,.29-.66,1.16-1.53,2.59l-2.11,3.44h-1.69v-8.79Zm4.51-2.7h1.16c-.03,.57-.25,1.02-.65,1.35-.4,.34-.9,.5-1.5,.5-.66,0-1.18-.17-1.55-.51-.37-.34-.57-.79-.6-1.35h1.15c.02,.21,.12,.37,.3,.5,.18,.12,.42,.19,.71,.19s.54-.06,.71-.19c.17-.12,.27-.29,.28-.5Z" style="fill:#58595b;"></path> <path d="M444.22,973.1l-3.58-4.05v4.05h-1.84v-8.79h1.84v3.98l3.55-3.98h2.26l-3.98,4.26,4.11,4.54h-2.35Z" style="fill:#58595b;"></path> <path d="M448.03,968.71c0-1.27,.45-2.37,1.34-3.29,.89-.92,2.01-1.39,3.34-1.39,.94,0,1.76,.22,2.48,.66,.72,.44,1.26,1.02,1.62,1.72,.36,.71,.54,1.47,.54,2.3,0,1.3-.45,2.4-1.34,3.31-.89,.91-2,1.37-3.32,1.37-.62,0-1.19-.09-1.71-.28-.52-.18-.97-.43-1.32-.74-.36-.31-.66-.67-.91-1.08-.25-.41-.43-.83-.55-1.26-.12-.43-.17-.87-.17-1.32Zm2.68-2.16c-.53,.58-.8,1.3-.8,2.16s.26,1.58,.79,2.16c.53,.58,1.19,.87,1.98,.87s1.45-.29,1.99-.87c.53-.58,.8-1.3,.8-2.16s-.26-1.58-.77-2.16c-.51-.58-1.18-.87-2.01-.87s-1.45,.29-1.99,.87Z" style="fill:#58595b;"></path> <path d="M464.06,964.03c1.14,0,2.08,.31,2.82,.93,.74,.62,1.19,1.34,1.37,2.16h-1.99c-.12-.43-.38-.79-.77-1.08-.4-.29-.88-.44-1.44-.44-.78,0-1.42,.29-1.92,.86-.5,.58-.75,1.32-.75,2.23s.25,1.61,.75,2.21,1.15,.91,1.94,.91c.6,0,1.09-.16,1.48-.48,.38-.32,.65-.71,.81-1.19h2.05c-.3,.96-.82,1.74-1.56,2.34-.74,.6-1.68,.9-2.82,.9-1.34,0-2.43-.44-3.27-1.33-.84-.89-1.26-2.01-1.26-3.37s.43-2.45,1.29-3.33c.86-.88,1.95-1.32,3.28-1.32Z" style="fill:#58595b;"></path> <path d="M479.3,964.31l1.08,8.79h-1.78l-.43-4.32c-.07-.65-.13-1.3-.18-1.93h-.08s-.07,.28-.21,.8c-.14,.52-.25,.91-.32,1.15l-1.28,4.31h-1.29l-1.3-4.37c-.26-.84-.43-1.47-.5-1.88h-.1c-.02,.39-.06,1.01-.14,1.86l-.45,4.4h-1.66l1.04-8.79h2.04l1.29,4.15c.21,.66,.36,1.2,.46,1.61h.05c.08-.3,.23-.84,.46-1.61l1.26-4.15h2.02Z" style="fill:#58595b;"></path> <path d="M488.23,964.31v1.6h-3.4v1.9h3.29v1.52h-3.29v2.18h3.55v1.6h-5.39v-8.79h5.25Z" style="fill:#58595b;"></path> <path d="M492.61,973.1v-7.2h-2.09v-1.6h6.05v1.6h-2.1v7.2h-1.86Z" style="fill:#58595b;"></path> <path d="M498.38,968.71c0-1.27,.45-2.37,1.34-3.29,.89-.92,2.01-1.39,3.34-1.39,.94,0,1.76,.22,2.48,.66,.72,.44,1.26,1.02,1.62,1.72,.36,.71,.54,1.47,.54,2.3,0,1.3-.45,2.4-1.34,3.31-.89,.91-2,1.37-3.32,1.37-.62,0-1.19-.09-1.71-.28-.52-.18-.97-.43-1.32-.74-.36-.31-.66-.67-.91-1.08-.25-.41-.43-.83-.55-1.26-.12-.43-.17-.87-.17-1.32Zm2.68-2.16c-.53,.58-.8,1.3-.8,2.16s.26,1.58,.79,2.16c.53,.58,1.19,.87,1.98,.87s1.45-.29,1.99-.87c.53-.58,.8-1.3,.8-2.16s-.26-1.58-.77-2.16-1.18-.87-2.01-.87-1.45,.29-1.99,.87Z" style="fill:#58595b;"></path> <path d="M512.94,965.91l-.39,4.84c-.07,.88-.27,1.5-.61,1.88s-.87,.57-1.61,.57c-.31,0-.58-.04-.81-.12v-1.53c.12,.05,.29,.08,.5,.08,.24,0,.42-.06,.54-.19,.12-.12,.19-.35,.21-.69l.5-6.43h6.27v8.79h-1.78v-7.2h-2.82Z" style="fill:#58595b;"></path> <path d="M520.15,968.71c0-1.27,.45-2.37,1.34-3.29,.89-.92,2.01-1.39,3.34-1.39,.94,0,1.76,.22,2.48,.66,.72,.44,1.26,1.02,1.62,1.72,.36,.71,.54,1.47,.54,2.3,0,1.3-.45,2.4-1.34,3.31-.89,.91-2,1.37-3.32,1.37-.62,0-1.19-.09-1.71-.28-.52-.18-.97-.43-1.32-.74-.36-.31-.66-.67-.91-1.08-.25-.41-.43-.83-.55-1.26-.12-.43-.17-.87-.17-1.32Zm2.68-2.16c-.53,.58-.8,1.3-.8,2.16s.26,1.58,.79,2.16c.53,.58,1.19,.87,1.98,.87s1.45-.29,1.99-.87c.53-.58,.8-1.3,.8-2.16s-.26-1.58-.77-2.16-1.18-.87-2.01-.87-1.45,.29-1.99,.87Z" style="fill:#58595b;"></path> <path d="M532.06,973.1v-8.79h5.39v1.6h-3.61v7.2h-1.78Z" style="fill:#58595b;"></path> <path d="M539.72,964.31h1.79v4.51c0,.62-.01,1.15-.04,1.59h.04c.18-.4,.62-1.17,1.33-2.32l2.31-3.78h1.69v8.79h-1.78v-4.37c0-.28,.01-.84,.04-1.66h-.04c-.15,.29-.66,1.16-1.53,2.59l-2.11,3.44h-1.69v-8.79Z" style="fill:#58595b;"></path> <path d="M549.9,964.31h1.79v4.51c0,.62-.01,1.15-.04,1.59h.04c.18-.4,.62-1.17,1.33-2.32l2.31-3.78h1.69v8.79h-1.78v-4.37c0-.28,.01-.84,.04-1.66h-.04c-.15,.29-.66,1.16-1.53,2.59l-2.11,3.44h-1.69v-8.79Z" style="fill:#58595b;"></path> </g> <g> <path d="M438.39,982.33s0-.06,.02-.09c.01-.03,.03-.04,.05-.04h2.14c.06,0,.1,.04,.1,.12v2.99c.24-.22,.48-.37,.7-.45,.23-.08,.46-.12,.72-.12,.28,0,.54,.05,.78,.16,.24,.1,.45,.25,.62,.42,.17,.18,.32,.39,.45,.62,.12,.24,.22,.49,.28,.75,.06,.27,.09,.54,.09,.82,0,.24-.03,.48-.09,.72s-.15,.48-.28,.71c-.13,.23-.27,.43-.45,.61-.17,.18-.38,.33-.62,.43s-.5,.16-.78,.16c-.32,0-.59-.06-.83-.18s-.47-.29-.7-.52c-.87,.46-1.32,.69-1.36,.69h-.3v-7.69h-.47s-.06-.04-.06-.12Zm2.31,6.21c0,.39,.09,.69,.26,.9,.17,.22,.38,.32,.62,.32,.26,0,.49-.11,.69-.32,.2-.21,.29-.51,.29-.9v-2.23c0-.37-.1-.67-.29-.88-.2-.21-.43-.32-.69-.32-.24,0-.44,.11-.62,.32-.17,.21-.26,.51-.26,.88v2.22Z" style="fill:#380063;"></path> <path d="M445.2,984.96s0-.06,.02-.09c.01-.03,.03-.04,.06-.04h2.12s.05,.01,.07,.03,.03,.05,.03,.08v3.82c0,.31,.09,.56,.26,.74,.17,.18,.38,.27,.62,.27s.45-.09,.62-.27c.18-.18,.26-.42,.26-.74v-3.93h1.66c.07,0,.11,.04,.11,.12v5.43c0,.31-.05,.59-.16,.84-.11,.25-.25,.46-.43,.62-.18,.17-.39,.3-.63,.42-.24,.11-.5,.19-.76,.24-.26,.05-.54,.07-.82,.07-.43,0-.84-.06-1.23-.17s-.7-.28-.94-.48c-.24-.21-.36-.44-.36-.69,0-.28,.09-.49,.26-.65,.18-.15,.38-.23,.62-.23s.45,.08,.62,.24,.26,.38,.26,.66c0,.2-.07,.37-.19,.52s-.31,.24-.55,.27v.04c.16,.07,.36,.14,.61,.19,.24,.05,.48,.08,.71,.08,.18,0,.33-.01,.46-.04,.13-.03,.26-.07,.38-.13,.12-.06,.21-.16,.28-.29,.06-.13,.1-.29,.1-.48v-1.73c-.42,.33-.89,.5-1.44,.5-.27,0-.52-.04-.78-.13-.25-.09-.48-.21-.67-.38-.2-.16-.36-.37-.48-.62-.12-.25-.18-.52-.18-.82v-3.12h-.45c-.05,0-.08-.04-.08-.12Z" style="fill:#380063;"></path> <path d="M454.81,987.42c0-.35,.05-.68,.14-1,.09-.32,.23-.6,.41-.85,.18-.25,.41-.45,.7-.6s.61-.23,.97-.23c.25,0,.49,.04,.72,.12,.23,.08,.46,.23,.7,.45v-3.02s0-.06,.02-.07,.04-.02,.08-.02h2.12s.04,.01,.05,.04c.02,.03,.02,.05,.02,.09,0,.03,0,.06-.02,.08-.01,.03-.03,.04-.05,.04h-.47v6.55c0,.18,.04,.32,.11,.43s.16,.15,.27,.15,.19-.05,.26-.16c.07-.1,.11-.25,.11-.43,0-.03,.01-.05,.04-.06,.03-.02,.06-.03,.09-.03s.06,0,.08,.02c.02,.02,.04,.04,.04,.07,0,.35-.13,.64-.4,.84s-.59,.31-.95,.31c-.29,0-.56-.07-.79-.21-.24-.14-.41-.36-.53-.67-.46,.58-.99,.87-1.61,.87-.28,0-.54-.07-.8-.2-.26-.14-.49-.32-.68-.56s-.35-.53-.47-.87-.18-.7-.18-1.09Zm1.77,.92c0,.42,.1,.74,.29,.98,.2,.23,.42,.35,.69,.35,.24,0,.45-.12,.63-.36,.18-.24,.27-.56,.27-.98v-2.01c0-.38-.09-.67-.26-.88-.18-.21-.38-.32-.62-.32-.26,0-.5,.11-.69,.32-.2,.21-.3,.51-.3,.88v2.02Z" style="fill:#380063;"></path> <path d="M461.79,984.96s0-.06,.02-.09c.01-.03,.03-.04,.06-.04h2.15c.05,0,.08,.03,.08,.08v.4h.1c.16-.18,.36-.32,.59-.43,.23-.1,.47-.15,.71-.15,.4,0,.72,.13,.96,.38,.24,.25,.35,.53,.35,.85,0,.25-.08,.45-.23,.62-.15,.17-.37,.25-.66,.25-.27,0-.48-.09-.64-.26-.16-.18-.24-.38-.24-.61,0-.21,.07-.39,.21-.54,.14-.15,.35-.23,.62-.24-.14-.14-.31-.21-.52-.21-.18,0-.38,.07-.61,.2-.23,.14-.41,.31-.54,.52v4.35h-1.77v-4.97h-.56c-.05,0-.08-.04-.08-.12Z" style="fill:#380063;"></path> <path d="M467.96,989.16c0-.28,.1-.52,.29-.72,.19-.2,.42-.3,.69-.3s.51,.1,.7,.29c.19,.2,.29,.43,.29,.72,0,.27-.1,.5-.3,.69-.2,.2-.43,.3-.69,.3s-.49-.1-.68-.3c-.2-.2-.29-.43-.29-.69Z" style="fill:#380063;"></path> <path d="M474.11,986.43c0-.49,.07-.94,.2-1.35,.13-.41,.32-.76,.54-1.06,.23-.29,.5-.54,.8-.75,.31-.21,.63-.36,.97-.46,.34-.1,.7-.15,1.06-.15s.72,.05,1.07,.15c.35,.1,.67,.25,.98,.46,.31,.2,.58,.45,.81,.75,.23,.29,.42,.65,.55,1.06,.13,.41,.2,.86,.2,1.34s-.07,.92-.2,1.33c-.13,.41-.32,.76-.55,1.05-.23,.29-.5,.53-.81,.74-.31,.2-.64,.35-.98,.45-.35,.1-.7,.15-1.07,.15s-.72-.05-1.07-.14c-.35-.1-.67-.25-.98-.45-.31-.2-.57-.45-.8-.74-.23-.29-.41-.64-.54-1.05-.13-.41-.2-.86-.2-1.34Zm2.06,.42c0,.43,.01,.8,.04,1.11,.03,.31,.07,.59,.14,.84,.07,.26,.16,.46,.28,.61,.12,.15,.26,.27,.44,.35,.18,.08,.39,.12,.64,.12s.47-.04,.65-.13c.18-.08,.32-.2,.44-.35,.11-.15,.2-.36,.27-.61s.11-.54,.13-.84c.02-.3,.04-.67,.04-1.11v-.87c0-.36,0-.67-.03-.94-.02-.27-.05-.52-.09-.76s-.1-.44-.17-.6c-.07-.16-.17-.3-.28-.42-.11-.12-.25-.21-.41-.26-.16-.05-.34-.08-.55-.08-.25,0-.46,.04-.64,.13-.18,.08-.33,.2-.44,.36-.12,.16-.21,.36-.28,.62-.07,.26-.11,.54-.14,.85-.03,.31-.04,.68-.04,1.11v.87Z" style="fill:#380063;"></path> <path d="M482.32,982.33s0-.06,.02-.09c.01-.03,.03-.04,.06-.04h2.17c.11,0,.16,.04,.16,.11v6.66c0,.19,.04,.33,.11,.43,.07,.1,.16,.16,.27,.16s.2-.05,.28-.16c.08-.1,.12-.25,.12-.43,0-.03,.01-.05,.04-.07,.03-.02,.06-.03,.09-.03s.06,0,.08,.02c.02,.02,.04,.04,.04,.07,0,.37-.14,.66-.42,.87-.28,.21-.6,.31-.98,.31s-.7-.1-.98-.31c-.28-.21-.42-.5-.42-.87v-6.52h-.56c-.05,0-.08-.04-.08-.12Z" style="fill:#380063;"></path> <path d="M486.23,989.1c0-.15,.03-.3,.09-.46,.06-.16,.16-.32,.31-.48,.15-.17,.34-.3,.56-.4-.52-.28-.77-.72-.77-1.35,0-.52,.2-.94,.6-1.23,.4-.3,1.01-.45,1.82-.45,.36,0,.71,.04,1.03,.11,0-.25,.04-.49,.1-.72s.15-.39,.28-.49c.14-.12,.32-.19,.55-.19s.4,.06,.56,.18c.15,.12,.23,.29,.23,.51s-.07,.39-.2,.51-.29,.19-.48,.19-.36-.06-.5-.19c-.14-.12-.21-.3-.21-.51v-.03s0,.01-.01,.04c0,.03-.01,.04-.01,.04-.02,.11-.03,.35-.03,.72,.38,.12,.67,.32,.86,.57s.28,.57,.28,.93c0,.52-.2,.93-.6,1.23-.4,.29-1.01,.44-1.83,.44-.55,0-1.01-.07-1.37-.2-.16,.06-.27,.15-.33,.26-.07,.11-.1,.22-.1,.31,0,.13,.05,.23,.16,.28s.26,.08,.46,.08c.17,0,.49-.02,.96-.07,.47-.05,.84-.07,1.09-.07,.58,0,1.06,.17,1.42,.5,.37,.34,.55,.75,.55,1.25,0,.25-.05,.48-.16,.68s-.26,.39-.48,.55c-.21,.16-.49,.28-.85,.37-.35,.09-.77,.13-1.24,.13-.23,0-.46-.02-.7-.05-.24-.03-.47-.08-.71-.15-.24-.07-.45-.16-.63-.26-.18-.11-.33-.24-.45-.4-.12-.16-.17-.34-.17-.54,0-.23,.05-.39,.16-.49,.1-.1,.24-.14,.4-.14-.41-.25-.62-.59-.62-1.03Zm.56,1.68c0,.21,.06,.39,.17,.54s.27,.27,.47,.35c.2,.08,.42,.14,.65,.18,.24,.04,.5,.06,.78,.06,.34,0,.66-.03,.95-.09,.3-.06,.54-.16,.74-.29,.2-.13,.29-.29,.29-.47s-.06-.32-.19-.45c-.13-.13-.28-.19-.47-.19-.2,0-.46,.01-.77,.03-.31,.02-.58,.03-.79,.03-.61,0-1.12-.09-1.53-.26-.19,.16-.29,.34-.29,.54Zm1.4-4.16c0,.42,.05,.73,.14,.92,.09,.19,.26,.29,.51,.29s.42-.1,.52-.29c.09-.19,.14-.5,.14-.92v-.43c0-.43-.05-.73-.14-.93-.09-.19-.27-.29-.52-.29s-.41,.1-.51,.29c-.09,.2-.14,.5-.14,.93v.43Z" style="fill:#380063;"></path> <path d="M492.75,987.42c0-.35,.05-.68,.14-1,.09-.32,.23-.6,.41-.85,.18-.25,.41-.45,.69-.6s.6-.23,.96-.23c.26,0,.5,.04,.73,.12,.23,.08,.47,.23,.72,.45v-.48h1.63c.1,0,.14,.05,.14,.13v4.03c0,.16,.04,.29,.12,.38,.08,.09,.17,.14,.27,.14s.2-.05,.27-.14c.08-.09,.11-.22,.11-.39,0-.03,.01-.05,.04-.06,.03-.02,.06-.03,.09-.03s.06,0,.08,.02c.02,.02,.03,.04,.03,.07,0,.32-.14,.59-.41,.82-.27,.23-.59,.34-.96,.34-.29,0-.55-.07-.79-.22-.24-.15-.42-.36-.53-.65-.46,.58-1,.87-1.63,.87-.27,0-.54-.07-.8-.2-.26-.14-.48-.32-.68-.56s-.35-.53-.47-.87c-.12-.34-.17-.7-.17-1.09Zm1.77,.92c0,.42,.09,.74,.28,.98,.18,.23,.4,.35,.65,.35s.48-.12,.67-.36c.19-.24,.28-.56,.28-.98v-2.01c0-.38-.09-.67-.28-.88-.19-.21-.41-.32-.66-.32s-.47,.11-.66,.32c-.19,.21-.28,.51-.28,.88v2.02Z" style="fill:#380063;"></path> <path d="M502.54,987.79s.02-.03,.06-.04c.04-.01,.08-.02,.11-.02,.04,0,.08,0,.12,.02s.07,.03,.07,.05c0,.27,.05,.51,.14,.74,.09,.23,.21,.42,.36,.57,.15,.16,.33,.29,.53,.4,.2,.11,.4,.19,.62,.25s.43,.08,.65,.08c.45,0,.83-.11,1.14-.33s.46-.53,.46-.92c0-.16-.05-.3-.14-.43-.09-.13-.22-.24-.38-.33-.16-.09-.34-.18-.54-.27-.2-.09-.42-.17-.65-.26-.23-.09-.45-.18-.68-.27-.23-.09-.44-.21-.65-.33s-.39-.27-.54-.43c-.16-.16-.28-.35-.38-.57-.09-.22-.14-.47-.14-.74,0-.41,.06-.77,.17-1.08,.12-.31,.28-.55,.5-.73s.46-.31,.74-.4,.6-.13,.95-.13c.24,0,.46,.03,.66,.08,.2,.05,.34,.11,.44,.18,.1,.07,.2,.12,.3,.17s.18,.07,.25,.07c.14,0,.23-.15,.24-.45,0-.04,.05-.06,.15-.06,.09,0,.13,.04,.13,.12,0,.46,.03,1.19,.09,2.19,0,.01-.02,.02-.05,.03s-.06,.01-.08,.01c-.03,0-.06,0-.1-.01s-.06-.02-.06-.03c0-.25-.04-.49-.12-.71-.08-.22-.19-.41-.32-.56-.13-.15-.29-.29-.47-.4-.18-.11-.36-.19-.55-.25-.19-.05-.38-.08-.57-.08-.36,0-.66,.1-.9,.29-.24,.19-.36,.46-.36,.81,0,.17,.05,.31,.14,.44,.1,.13,.23,.24,.39,.33s.35,.17,.56,.25c.21,.08,.43,.15,.66,.23,.23,.08,.46,.16,.69,.25,.23,.09,.45,.2,.66,.33,.21,.13,.4,.28,.56,.45s.29,.37,.39,.62c.1,.25,.14,.53,.14,.84s-.06,.59-.17,.86c-.11,.26-.27,.49-.46,.67-.19,.18-.41,.34-.66,.47-.25,.13-.51,.23-.79,.29s-.55,.09-.84,.09c-.24,0-.49-.04-.77-.12-.27-.08-.51-.15-.7-.23-.19-.08-.31-.12-.35-.12-.09,0-.16,.04-.22,.12-.05,.08-.08,.16-.08,.23,0,.04-.01,.07-.04,.09-.03,.02-.06,.04-.1,.04-.07,0-.12-.01-.14-.03s-.03-.05-.03-.1c0-.03-.01-.34-.04-.95-.02-.61-.04-1.04-.04-1.29Z" style="fill:#380063;"></path> <path d="M508.87,987.43c0-.43,.07-.81,.22-1.16,.15-.35,.34-.63,.59-.85,.24-.22,.52-.39,.82-.51,.3-.12,.61-.18,.94-.18,.34,0,.67,.06,.99,.18s.6,.29,.86,.51c.26,.22,.47,.52,.63,.88s.24,.77,.24,1.22c-.01,.04-.04,.07-.07,.07h-3.43c0,.84,.09,1.43,.27,1.78,.18,.35,.47,.53,.87,.53,.31,0,.61-.05,.89-.15,.28-.1,.52-.26,.73-.47,.2-.21,.33-.46,.37-.74,0-.02,.01-.04,.04-.06,.03-.02,.05-.02,.08-.02,.03,0,.06,0,.09,.02,.03,.02,.04,.04,.04,.06-.03,.45-.27,.83-.71,1.14-.44,.31-.96,.47-1.55,.47-.29,0-.58-.04-.86-.12-.28-.08-.54-.21-.79-.37-.24-.16-.46-.35-.64-.57-.18-.22-.33-.47-.43-.75s-.16-.59-.16-.9Zm1.77-.09h1.74v-1.18c0-.37-.09-.67-.26-.88-.17-.21-.37-.31-.61-.31s-.44,.1-.61,.31c-.17,.21-.26,.5-.26,.88v1.18Z" style="fill:#380063;"></path> <path d="M514.98,982.33s0-.06,.02-.09c.01-.03,.03-.04,.06-.04h2.17c.11,0,.16,.04,.16,.11v6.66c0,.19,.04,.33,.11,.43,.07,.1,.16,.16,.27,.16s.2-.05,.28-.16c.08-.1,.12-.25,.12-.43,0-.03,.01-.05,.04-.07,.03-.02,.06-.03,.09-.03s.06,0,.08,.02c.02,.02,.04,.04,.04,.07,0,.37-.14,.66-.42,.87-.28,.21-.6,.31-.98,.31s-.7-.1-.98-.31c-.28-.21-.42-.5-.42-.87v-6.52h-.56c-.05,0-.08-.04-.08-.12Z" style="fill:#380063;"></path> <path d="M518.98,984.96s0-.06,.02-.09c.01-.03,.03-.04,.06-.04h2.12s.05,.01,.07,.03,.03,.05,.03,.08v3.82c0,.31,.09,.56,.26,.74,.17,.18,.38,.27,.62,.27s.45-.09,.62-.27c.18-.18,.26-.42,.26-.74v-3.93h1.66c.07,0,.11,.04,.11,.12v5.43c0,.31-.05,.59-.16,.84-.11,.25-.25,.46-.43,.62-.18,.17-.39,.3-.63,.42-.24,.11-.5,.19-.76,.24-.26,.05-.54,.07-.82,.07-.43,0-.84-.06-1.23-.17s-.7-.28-.94-.48c-.24-.21-.36-.44-.36-.69,0-.28,.09-.49,.26-.65,.18-.15,.38-.23,.62-.23s.45,.08,.62,.24,.26,.38,.26,.66c0,.2-.07,.37-.19,.52s-.31,.24-.55,.27v.04c.16,.07,.36,.14,.61,.19,.24,.05,.48,.08,.71,.08,.18,0,.33-.01,.46-.04,.13-.03,.26-.07,.38-.13,.12-.06,.21-.16,.28-.29,.06-.13,.1-.29,.1-.48v-1.73c-.42,.33-.89,.5-1.44,.5-.27,0-.52-.04-.78-.13-.25-.09-.48-.21-.67-.38-.2-.16-.36-.37-.48-.62-.12-.25-.18-.52-.18-.82v-3.12h-.45c-.05,0-.08-.04-.08-.12Z" style="fill:#380063;"></path> <path d="M525.99,987.42c0-.35,.05-.68,.14-1,.09-.32,.23-.6,.41-.85,.18-.25,.41-.45,.69-.6s.6-.23,.96-.23c.26,0,.5,.04,.73,.12,.23,.08,.47,.23,.72,.45v-.48h1.63c.1,0,.14,.05,.14,.13v4.03c0,.16,.04,.29,.12,.38,.08,.09,.17,.14,.27,.14s.2-.05,.27-.14c.08-.09,.11-.22,.11-.39,0-.03,.01-.05,.04-.06,.03-.02,.06-.03,.09-.03s.06,0,.08,.02c.02,.02,.03,.04,.03,.07,0,.32-.14,.59-.41,.82-.27,.23-.59,.34-.96,.34-.29,0-.55-.07-.79-.22-.24-.15-.42-.36-.53-.65-.46,.58-1,.87-1.63,.87-.27,0-.54-.07-.8-.2-.26-.14-.48-.32-.68-.56s-.35-.53-.47-.87c-.12-.34-.17-.7-.17-1.09Zm1.77,.92c0,.42,.09,.74,.28,.98,.18,.23,.4,.35,.65,.35s.48-.12,.67-.36c.19-.24,.28-.56,.28-.98v-2.01c0-.38-.09-.67-.28-.88-.19-.21-.41-.32-.66-.32s-.47,.11-.66,.32c-.19,.21-.28,.51-.28,.88v2.02Z" style="fill:#380063;"></path> <path d="M533.07,984.96s0-.06,.02-.09c.01-.03,.03-.04,.06-.04h2.13s.05,.01,.07,.04c.02,.02,.03,.05,.03,.08v.36h.09c.41-.39,.91-.58,1.5-.58,.19,0,.37,.02,.54,.06,.18,.04,.35,.1,.52,.19,.17,.09,.31,.2,.44,.34,.13,.13,.23,.31,.3,.51,.08,.21,.12,.44,.12,.7v2.44c0,.19,.04,.33,.11,.43,.07,.1,.16,.16,.27,.16s.2-.05,.27-.16c.08-.1,.12-.25,.12-.43,0-.03,.01-.05,.04-.07,.03-.02,.06-.03,.09-.03s.06,0,.08,.02c.02,.02,.03,.04,.03,.07,0,.37-.14,.66-.41,.87-.28,.21-.6,.31-.98,.31s-.71-.1-.98-.31c-.28-.21-.41-.5-.41-.87v-3.2c0-.22-.05-.4-.16-.52-.11-.12-.25-.18-.43-.18-.35,0-.7,.18-1.05,.55v4.42h-1.77v-4.97h-.56c-.05,0-.08-.04-.08-.12Z" style="fill:#380063;"></path> <path d="M540.48,984.96s0-.06,.02-.09c.01-.03,.03-.04,.06-.04h2.2c.09,0,.13,.04,.13,.12v4.02c0,.19,.04,.33,.11,.43,.07,.1,.16,.16,.27,.16s.2-.05,.27-.16c.08-.1,.12-.25,.12-.43,0-.03,.01-.05,.04-.07,.03-.02,.06-.03,.09-.03s.06,0,.08,.02c.02,.02,.04,.04,.04,.07,0,.37-.14,.66-.41,.87-.28,.21-.6,.31-.98,.31s-.71-.1-.99-.31c-.28-.21-.42-.5-.42-.87v-3.89h-.55c-.05,0-.08-.04-.08-.12Zm.64-1.87c0-.24,.09-.45,.26-.62s.38-.26,.62-.26,.46,.09,.63,.26,.26,.38,.26,.62-.09,.44-.26,.61c-.18,.17-.39,.26-.63,.26s-.44-.09-.62-.26c-.18-.17-.26-.38-.26-.61Z" style="fill:#380063;"></path> <path d="M544.46,984.96s0-.06,.02-.09c.01-.03,.03-.04,.06-.04h2.13s.05,.01,.07,.04c.02,.02,.03,.05,.03,.08v.36h.09c.41-.39,.91-.58,1.5-.58,.19,0,.37,.02,.54,.06,.18,.04,.35,.1,.52,.19,.17,.09,.31,.2,.44,.34,.13,.13,.23,.31,.3,.51,.08,.21,.12,.44,.12,.7v2.44c0,.19,.04,.33,.11,.43,.07,.1,.16,.16,.27,.16s.2-.05,.27-.16c.08-.1,.12-.25,.12-.43,0-.03,.01-.05,.04-.07,.03-.02,.06-.03,.09-.03s.06,0,.08,.02c.02,.02,.03,.04,.03,.07,0,.37-.14,.66-.41,.87-.28,.21-.6,.31-.98,.31s-.71-.1-.98-.31c-.28-.21-.41-.5-.41-.87v-3.2c0-.22-.05-.4-.16-.52-.11-.12-.25-.18-.43-.18-.35,0-.7,.18-1.05,.55v4.42h-1.77v-4.97h-.56c-.05,0-.08-.04-.08-.12Z" style="fill:#380063;"></path> <path d="M551.98,987.42c0-.35,.05-.68,.14-1,.09-.32,.23-.6,.41-.85,.18-.25,.41-.45,.69-.6s.6-.23,.96-.23c.26,0,.5,.04,.73,.12,.23,.08,.47,.23,.72,.45v-.48h1.63c.1,0,.14,.05,.14,.13v4.03c0,.16,.04,.29,.12,.38,.08,.09,.17,.14,.27,.14s.2-.05,.27-.14c.08-.09,.11-.22,.11-.39,0-.03,.01-.05,.04-.06,.03-.02,.06-.03,.09-.03s.06,0,.08,.02c.02,.02,.03,.04,.03,.07,0,.32-.14,.59-.41,.82-.27,.23-.59,.34-.96,.34-.29,0-.55-.07-.79-.22-.24-.15-.42-.36-.53-.65-.46,.58-1,.87-1.63,.87-.27,0-.54-.07-.8-.2-.26-.14-.48-.32-.68-.56s-.35-.53-.47-.87c-.12-.34-.17-.7-.17-1.09Zm1.77,.92c0,.42,.09,.74,.28,.98,.18,.23,.4,.35,.65,.35s.48-.12,.67-.36c.19-.24,.28-.56,.28-.98v-2.01c0-.38-.09-.67-.28-.88-.19-.21-.41-.32-.66-.32s-.47,.11-.66,.32c-.19,.21-.28,.51-.28,.88v2.02Z" style="fill:#380063;"></path> </g> <g> <path d="M628.44,962.64l-2.92-.12c-.04,1.24,.01,2.47,.13,3.67l2.91-.34c-.11-1.06-.15-2.13-.12-3.21Z" style="fill:#00f917;"></path> <path d="M636.38,944.72l-1.99-2.15c-.89,.85-1.72,1.74-2.5,2.69l2.3,1.81c.68-.83,1.41-1.61,2.19-2.35Z" style="fill:#00f917;"></path> <path d="M628.85,958.64l-2.87-.57c-.22,1.19-.36,2.41-.42,3.64l2.92,.12c.06-1.08,.18-2.15,.38-3.19Z" style="fill:#00f917;"></path> <path d="M629.88,954.76l-2.75-1.02c-.4,1.14-.73,2.33-.98,3.54l2.87,.58c.23-1.06,.52-2.09,.87-3.1Z" style="fill:#00f917;"></path> <path d="M631.5,951.09l-2.55-1.44c-.58,1.07-1.09,2.19-1.54,3.34l2.75,1.01c.39-1,.84-1.98,1.34-2.91Z" style="fill:#00f917;"></path> <path d="M633.69,947.71l-2.3-1.81c-.74,.97-1.43,1.99-2.05,3.05l2.55,1.43c.54-.93,1.15-1.82,1.79-2.67Z" style="fill:#00f917;"></path> <path d="M675.12,948.7l2.44-1.62c-.7-1.01-1.46-1.97-2.28-2.88l-2.15,1.98c.71,.8,1.38,1.64,1.99,2.52Z" style="fill:#00f917;"></path> <path d="M677.14,952.18l2.66-1.22c-.53-1.11-1.13-2.18-1.8-3.2l-2.44,1.63c.58,.9,1.11,1.83,1.58,2.8Z" style="fill:#00f917;"></path> <path d="M678.59,955.93l2.82-.8c-.35-1.18-.77-2.33-1.27-3.45l-2.65,1.23c.43,.97,.8,1.98,1.11,3.02Z" style="fill:#00f917;"></path> <path d="M679.43,959.86l2.91-.34c-.16-1.22-.39-2.43-.71-3.61l-2.82,.79c.27,1.03,.48,2.08,.62,3.16Z" style="fill:#00f917;"></path> <path d="M672.58,945.59l2.15-1.99c-.85-.89-1.74-1.73-2.69-2.5l-1.81,2.3c.83,.68,1.62,1.41,2.35,2.19Z" style="fill:#00f917;"></path> <path d="M669.59,942.9l1.82-2.3c-.98-.75-1.99-1.43-3.06-2.05l-1.43,2.55c.93,.54,1.82,1.14,2.67,1.79Z" style="fill:#00f917;"></path> <path d="M655.47,937.69c1.08,.06,2.15,.19,3.19,.38l.57-2.87c-1.19-.22-2.41-.36-3.65-.43l-.12,2.93Z" style="fill:#00f917;"></path> <path d="M663.56,936.34c-1.14-.41-2.33-.73-3.54-.99l-.57,2.87c1.05,.23,2.09,.52,3.09,.87l1.02-2.75Z" style="fill:#00f917;"></path> <path d="M666.22,940.72l1.43-2.55c-1.07-.58-2.18-1.1-3.34-1.54l-1.02,2.75c1.01,.39,1.98,.84,2.92,1.35Z" style="fill:#00f917;"></path> <path d="M674.4,978.8l2.3,1.82c.74-.98,1.43-1.99,2.04-3.06l-2.55-1.43c-.55,.93-1.14,1.81-1.79,2.67Z" style="fill:#00f917;"></path> <path d="M671.72,981.79l1.98,2.15c.89-.85,1.73-1.74,2.5-2.69l-2.3-1.81c-.68,.83-1.42,1.61-2.18,2.35Z" style="fill:#00f917;"></path> <path d="M668.6,984.34l1.63,2.43c1.01-.69,1.97-1.46,2.88-2.28l-1.98-2.15c-.8,.71-1.64,1.38-2.52,2Z" style="fill:#00f917;"></path> <path d="M665.12,986.36l1.22,2.66c1.11-.53,2.17-1.13,3.21-1.8l-1.63-2.44c-.9,.58-1.83,1.11-2.8,1.58Z" style="fill:#00f917;"></path> <path d="M679.24,967.87l2.87,.57c.22-1.19,.36-2.41,.43-3.64l-2.93-.12c-.06,1.08-.18,2.15-.37,3.19Z" style="fill:#00f917;"></path> <path d="M661.37,987.8l.79,2.82c1.19-.36,2.33-.78,3.45-1.27l-1.23-2.66c-.98,.43-1.98,.8-3.02,1.11Z" style="fill:#00f917;"></path> <path d="M679.65,963.87l2.92,.12c.03-1.24-.02-2.47-.14-3.67l-2.9,.34c.11,1.05,.14,2.13,.12,3.21Z" style="fill:#00f917;"></path> <path d="M676.58,975.43l2.55,1.43c.58-1.07,1.1-2.18,1.54-3.34l-2.75-1.01c-.39,1.01-.84,1.98-1.35,2.92Z" style="fill:#00f917;"></path> <path d="M628.66,966.66l-2.9,.34c.16,1.23,.39,2.43,.7,3.61l2.82-.8c-.27-1.03-.48-2.08-.62-3.15Z" style="fill:#00f917;"></path> <path d="M678.21,971.75l2.75,1.01c.41-1.14,.73-2.32,.99-3.53l-2.87-.57c-.22,1.05-.51,2.09-.87,3.09Z" style="fill:#00f917;"></path> <path d="M657.45,988.64l.34,2.91c1.23-.16,2.43-.4,3.61-.71l-.79-2.82c-1.03,.27-2.08,.48-3.15,.62Z" style="fill:#00f917;"></path> <path d="M632.97,977.82l-2.44,1.62c.7,1.01,1.46,1.97,2.27,2.88l2.15-1.99c-.71-.8-1.38-1.64-1.99-2.51Z" style="fill:#00f917;"></path> <path d="M629.51,970.58l-2.82,.8c.35,1.18,.77,2.33,1.27,3.45l2.66-1.22c-.44-.98-.8-1.98-1.11-3.02Z" style="fill:#00f917;"></path> <path d="M630.95,974.33l-2.66,1.22c.53,1.11,1.13,2.18,1.8,3.21l2.44-1.63c-.58-.9-1.1-1.83-1.57-2.8Z" style="fill:#00f917;"></path> <path d="M653.43,988.86l-.12,2.93c1.24,.03,2.47-.01,3.67-.14l-.34-2.91c-1.05,.11-2.13,.15-3.21,.12Z" style="fill:#00f917;"></path> </g> <path d="M650.93,993.74l-.41,3.48c1.47,.16,2.94,.22,4.39,.18l-.14-3.5c-1.27,.03-2.55-.02-3.84-.16Z" style="fill:#380063;"></path> <path d="M630.29,982.6l-2.75,2.17c.92,1.13,1.91,2.22,2.98,3.23l2.38-2.57c-.93-.89-1.79-1.84-2.6-2.83Z" style="fill:#380063;"></path> <path d="M646.2,992.88l-.95,3.37c1.4,.37,2.83,.66,4.31,.85l.41-3.48c-1.29-.16-2.54-.42-3.77-.74Z" style="fill:#380063;"></path> <path d="M641.66,991.3l-1.47,3.19c1.33,.59,2.71,1.09,4.13,1.51l.95-3.37c-1.24-.37-2.45-.81-3.61-1.33Z" style="fill:#380063;"></path> <path d="M637.43,989.01l-1.95,2.91c1.22,.8,2.51,1.51,3.84,2.16l1.47-3.19c-1.16-.55-2.28-1.18-3.35-1.87Z" style="fill:#380063;"></path> <path d="M633.61,986.08l-2.38,2.58c1.09,.97,2.24,1.89,3.45,2.72l1.95-2.91c-1.06-.73-2.06-1.53-3.02-2.39Z" style="fill:#380063;"></path> <path d="M638.67,936.75l-1.71-3.06c-1.27,.74-2.49,1.55-3.65,2.45l2.17,2.75c1.02-.77,2.08-1.5,3.19-2.14Z" style="fill:#380063;"></path> <path d="M643.01,934.67l-1.21-3.28c-1.37,.53-2.7,1.15-3.99,1.84l1.71,3.06c1.12-.61,2.29-1.15,3.49-1.62Z" style="fill:#380063;"></path> <path d="M647.62,933.29l-.68-3.44c-1.44,.31-2.86,.71-4.23,1.19l1.21,3.29c1.2-.43,2.44-.77,3.7-1.04Z" style="fill:#380063;"></path> <path d="M652.39,932.66l-.14-3.5c-1.48,.07-2.94,.24-4.37,.5l.68,3.44c1.25-.23,2.53-.37,3.82-.44Z" style="fill:#380063;"></path> <path d="M634.72,939.49l-2.17-2.76c-1.14,.92-2.22,1.91-3.23,2.98l2.57,2.38c.89-.93,1.84-1.79,2.83-2.6Z" style="fill:#380063;"></path> <path d="M631.24,942.81l-2.57-2.38c-.98,1.09-1.89,2.24-2.73,3.45l2.91,1.94c.73-1.06,1.53-2.06,2.39-3.02Z" style="fill:#380063;"></path> <path d="M623.69,959.17c.17-1.29,.42-2.55,.75-3.77l-3.37-.95c-.37,1.4-.66,2.84-.85,4.31l3.48,.41Z" style="fill:#380063;"></path> <path d="M622.84,949.39c-.59,1.33-1.1,2.71-1.51,4.13l3.37,.95c.37-1.24,.8-2.45,1.32-3.61l-3.18-1.47Z" style="fill:#380063;"></path> <path d="M628.31,946.63l-2.91-1.95c-.79,1.22-1.51,2.5-2.15,3.84l3.18,1.47c.56-1.17,1.18-2.29,1.88-3.36Z" style="fill:#380063;"></path> <path d="M674.51,940.44l2.38-2.57c-1.09-.98-2.23-1.89-3.45-2.73l-1.94,2.91c1.05,.74,2.06,1.53,3.01,2.39Z" style="fill:#380063;"></path> <path d="M677.83,943.92l2.76-2.17c-.93-1.14-1.92-2.22-2.98-3.23l-2.38,2.57c.92,.89,1.79,1.84,2.6,2.83Z" style="fill:#380063;"></path> <path d="M680.57,947.87l3.05-1.71c-.73-1.27-1.56-2.49-2.44-3.65l-2.75,2.17c.77,1.02,1.49,2.08,2.14,3.19Z" style="fill:#380063;"></path> <path d="M682.65,952.21l3.28-1.21c-.53-1.37-1.15-2.7-1.84-3.99l-3.06,1.71c.61,1.12,1.15,2.28,1.62,3.49Z" style="fill:#380063;"></path> <path d="M661.92,933.64l.96-3.37c-1.4-.37-2.84-.65-4.31-.86l-.41,3.48c1.28,.17,2.55,.42,3.77,.74Z" style="fill:#380063;"></path> <path d="M684.03,956.82l3.44-.69c-.31-1.44-.71-2.86-1.19-4.23l-3.28,1.21c.42,1.2,.77,2.44,1.04,3.7Z" style="fill:#380063;"></path> <path d="M657.19,932.78l.41-3.48c-1.48-.15-2.94-.21-4.39-.18l.14,3.5c1.27-.03,2.55,.03,3.84,.16Z" style="fill:#380063;"></path> <path d="M627.53,978.59l-3.06,1.71c.73,1.29,1.55,2.51,2.42,3.66l2.76-2.16c-.77-1.01-1.48-2.08-2.12-3.21Z" style="fill:#380063;"></path> <path d="M670.69,937.51l1.95-2.91c-1.22-.8-2.5-1.51-3.84-2.15l-1.47,3.18c1.16,.56,2.28,1.18,3.36,1.88Z" style="fill:#380063;"></path> <path d="M655.74,993.87l.14,3.5c1.47-.08,2.94-.24,4.37-.5l-.69-3.44c-1.25,.22-2.53,.37-3.82,.44Z" style="fill:#380063;"></path> <path d="M666.46,935.22l1.46-3.18c-1.32-.59-2.7-1.1-4.12-1.51l-.95,3.37c1.23,.37,2.44,.8,3.6,1.32Z" style="fill:#380063;"></path> <path d="M684.66,961.59l3.5-.14c-.07-1.48-.24-2.94-.51-4.37l-3.43,.69c.22,1.25,.37,2.53,.44,3.82Z" style="fill:#380063;"></path> <path d="M660.5,993.22l.68,3.44c1.44-.31,2.85-.7,4.23-1.19l-1.2-3.29c-1.21,.43-2.44,.77-3.71,1.04Z" style="fill:#380063;"></path> <path d="M665.11,991.85l1.21,3.29c1.38-.53,2.71-1.15,4-1.84l-1.71-3.06c-1.13,.61-2.29,1.15-3.49,1.61Z" style="fill:#380063;"></path> <path d="M684.54,966.4l3.48,.41c.15-1.48,.21-2.94,.18-4.39l-3.5,.14c.03,1.27-.03,2.55-.16,3.84Z" style="fill:#380063;"></path> <g> <path d="M643.56,944.76l-1.16-2.14c-.9,.51-1.76,1.06-2.56,1.66l1.49,1.93c.7-.53,1.45-1.02,2.23-1.45Z" style="fill:#a600f1;"></path> <path d="M659.71,942.77l.68-2.33c-.98-.27-1.97-.49-2.98-.63l-.32,2.41c.88,.13,1.76,.32,2.62,.55Z" style="fill:#a600f1;"></path> <path d="M646.58,943.35l-.82-2.29c-.94,.35-1.87,.77-2.78,1.25l1.17,2.13c.8-.42,1.61-.78,2.43-1.09Z" style="fill:#a600f1;"></path> <path d="M649.78,942.42l-.45-2.39c-.99,.2-1.97,.47-2.94,.8l.82,2.29c.85-.29,1.71-.53,2.57-.7Z" style="fill:#a600f1;"></path> <path d="M653.1,942.01l-.07-2.43c-1.01,.04-2.02,.16-3.03,.33l.45,2.39c.88-.15,1.76-.25,2.65-.29Z" style="fill:#a600f1;"></path> <path d="M656.43,942.13l.31-2.41c-1.01-.11-2.02-.17-3.04-.16l.07,2.43c.89-.01,1.78,.04,2.66,.14Z" style="fill:#a600f1;"></path> <path d="M673.39,972.07l2.2,1.04c.43-.93,.78-1.88,1.08-2.85l-2.33-.69c-.26,.85-.58,1.68-.95,2.49Z" style="fill:#a600f1;"></path> <path d="M671.77,974.99l2,1.37c.57-.85,1.07-1.73,1.52-2.64l-2.2-1.04c-.39,.79-.83,1.56-1.32,2.32Z" style="fill:#a600f1;"></path> <path d="M669.72,977.61l1.77,1.67c.68-.75,1.33-1.55,1.91-2.37l-2-1.37c-.51,.72-1.07,1.42-1.68,2.07Z" style="fill:#a600f1;"></path> <path d="M667.28,979.89l1.49,1.93c.81-.64,1.57-1.32,2.27-2.04l-1.77-1.67c-.61,.63-1.28,1.23-1.98,1.78Z" style="fill:#a600f1;"></path> <path d="M674.52,968.93l2.33,.69c.27-.98,.49-1.98,.63-2.98l-2.41-.31c-.14,.88-.32,1.75-.56,2.6Z" style="fill:#a600f1;"></path> <path d="M675.16,965.65l2.41,.31c.11-1.01,.16-2.02,.15-3.05l-2.43,.07c.01,.89-.04,1.79-.14,2.66Z" style="fill:#a600f1;"></path> <path d="M672.85,953.37c.42,.8,.79,1.61,1.1,2.44l2.29-.82c-.35-.94-.77-1.87-1.25-2.78l-2.13,1.16Z" style="fill:#a600f1;"></path> <path d="M677.26,958.56c-.19-.99-.47-1.97-.8-2.94l-2.29,.81c.29,.85,.53,1.71,.7,2.58l2.39-.45Z" style="fill:#a600f1;"></path> <path d="M675.28,962.32l2.43-.07c-.04-1.01-.15-2.02-.33-3.03l-2.39,.45c.15,.88,.25,1.77,.28,2.65Z" style="fill:#a600f1;"></path> <path d="M651.64,984.38l-.31,2.41c1,.11,2.02,.17,3.04,.15l-.07-2.43c-.9,0-1.78-.04-2.66-.14Z" style="fill:#a600f1;"></path> <path d="M648.37,983.74l-.69,2.33c.98,.27,1.98,.49,2.99,.63l.31-2.41c-.88-.13-1.75-.32-2.61-.55Z" style="fill:#a600f1;"></path> <path d="M645.22,982.61l-1.04,2.19c.92,.42,1.88,.78,2.85,1.08l.69-2.33c-.85-.27-1.69-.58-2.5-.94Z" style="fill:#a600f1;"></path> <path d="M642.3,980.99l-1.37,2c.85,.57,1.74,1.07,2.65,1.52l1.05-2.2c-.79-.39-1.57-.83-2.32-1.32Z" style="fill:#a600f1;"></path> <path d="M661.49,983.17l.81,2.29c.95-.35,1.87-.77,2.78-1.24l-1.16-2.14c-.8,.42-1.61,.78-2.43,1.09Z" style="fill:#a600f1;"></path> <path d="M639.68,978.94l-1.67,1.77c.75,.69,1.54,1.33,2.37,1.91l1.37-2c-.72-.51-1.41-1.07-2.07-1.68Z" style="fill:#a600f1;"></path> <path d="M664.51,981.75l1.17,2.14c.9-.51,1.75-1.07,2.55-1.66l-1.48-1.92c-.71,.53-1.45,1.01-2.24,1.45Z" style="fill:#a600f1;"></path> <path d="M654.97,984.5l.07,2.42c1.01-.04,2.02-.15,3.03-.32l-.45-2.39c-.89,.15-1.77,.25-2.65,.29Z" style="fill:#a600f1;"></path> <path d="M640.8,946.62l-1.49-1.92c-.81,.64-1.57,1.32-2.27,2.04l1.77,1.67c.62-.63,1.28-1.22,1.99-1.79Z" style="fill:#a600f1;"></path> <path d="M658.29,984.1l.44,2.39c.99-.2,1.97-.47,2.94-.8l-.82-2.29c-.85,.29-1.71,.53-2.57,.7Z" style="fill:#a600f1;"></path> <path d="M637.4,976.5l-1.93,1.48c.64,.81,1.32,1.56,2.04,2.27l1.67-1.77c-.63-.62-1.23-1.28-1.78-1.98Z" style="fill:#a600f1;"></path> <path d="M634.68,954.45l-2.2-1.05c-.43,.93-.78,1.88-1.08,2.85l2.33,.69c.27-.85,.58-1.69,.95-2.49Z" style="fill:#a600f1;"></path> <path d="M638.35,948.9l-1.77-1.67c-.69,.75-1.33,1.55-1.91,2.37l2,1.37c.51-.72,1.07-1.41,1.68-2.07Z" style="fill:#a600f1;"></path> <path d="M636.3,951.53l-2-1.38c-.57,.86-1.07,1.73-1.52,2.65l2.2,1.04c.39-.8,.84-1.57,1.33-2.31Z" style="fill:#a600f1;"></path> <path d="M635.54,973.73l-2.14,1.17c.51,.9,1.06,1.75,1.67,2.56l1.93-1.48c-.52-.7-1.01-1.46-1.46-2.24Z" style="fill:#a600f1;"></path> </g> </g> <g> <path d="M418.19,657.49l-.66,6.24c.68-.17,1.49-.25,2.44-.25,3.72,0,6.7,1.03,8.93,3.1,2.23,2.06,3.35,4.85,3.35,8.37,0,3.25-1.12,6.07-3.35,8.47-2.23,2.4-5.19,3.6-8.88,3.6s-6.5-.99-8.55-2.97c-2.05-1.98-3.17-4.44-3.37-7.38h7.31c.17,1.22,.64,2.2,1.42,2.94,.78,.74,1.88,1.12,3.3,1.12,1.32,0,2.44-.49,3.35-1.47,.91-.98,1.37-2.27,1.37-3.86,0-1.83-.59-3.26-1.78-4.29-1.18-1.03-2.89-1.55-5.12-1.55s-4.82,.3-7.76,.91l1.78-19.18h17.91v6.19h-11.67Z" style="fill:#a600f1;"></path> <path d="M451.98,694.78v-15.17h1.32c3.21,0,5-2.84,5.38-8.52l1.47-19.79h24.61v28.31h4.87v15.17h-7.26v-8.88h-23.14v8.88h-7.25Zm25.52-15.17v-22.02h-10.76l-.96,13.5c-.3,4.06-1.2,6.9-2.69,8.52h14.41Z" style="fill:#a600f1;"></path> <path d="M516.97,651.3v6.29h-13.39v7.46h12.94v5.99h-12.94v8.57h13.95v6.29h-21.21v-34.6h20.65Z" style="fill:#a600f1;"></path> <path d="M547,685.9l-14.1-15.93v15.93h-7.25v-34.6h7.25v15.68l13.95-15.68h8.88l-15.68,16.74,16.18,17.86h-9.23Z" style="fill:#a600f1;"></path> <path d="M557.3,685.9l13.44-34.6h6.8l12.74,34.6h-7.46l-2.69-7.86h-12.79l-2.74,7.86h-7.31Zm14.66-21.26l-2.89,8.22h9.29l-2.84-8.27c-.68-1.96-1.22-3.72-1.62-5.28h-.25c-.44,1.76-1,3.53-1.67,5.33Z" style="fill:#a600f1;"></path> <path d="M595.15,651.3h20.4v6.29h-13.14v7.31h4.46c3.79,0,6.76,.93,8.9,2.79,2.15,1.86,3.22,4.4,3.22,7.61s-1.13,5.83-3.4,7.74c-2.27,1.91-5.21,2.87-8.83,2.87h-11.62v-34.6Zm16.49,24c0-1.52-.51-2.72-1.52-3.6-1.01-.88-2.44-1.32-4.26-1.32h-3.45v10.05h3.75c1.76,0,3.11-.45,4.06-1.34,.95-.9,1.42-2.16,1.42-3.78Z" style="fill:#a600f1;"></path> <path d="M625.85,685.9v-34.6h11.06c3.89,0,7.04,.94,9.46,2.82,2.42,1.88,3.63,4.64,3.63,8.3s-1.12,6.32-3.35,8.3c-2.23,1.98-5.56,2.97-10,2.97h-3.55v12.23h-7.25Zm16.84-23.39c0-1.56-.49-2.84-1.47-3.86-.98-1.01-2.47-1.52-4.46-1.52h-3.65v10.71h3.5c4.06,0,6.09-1.78,6.09-5.33Z" style="fill:#a600f1;"></path> <path d="M652.03,685.9l10.71-14.61c-2.06-.57-3.75-1.69-5.07-3.35-1.32-1.66-1.98-3.69-1.98-6.09,0-3.11,1.06-5.65,3.17-7.61,2.11-1.96,5.44-2.94,9.97-2.94h10.76v34.6h-7.25v-13.6h-2.28l-9.39,13.6h-8.62Zm11.11-23.74c0,1.45,.47,2.62,1.42,3.5,.95,.88,2.23,1.32,3.86,1.32h3.91v-9.84h-3.86c-1.72,0-3.04,.44-3.96,1.32-.91,.88-1.37,2.11-1.37,3.7Z" style="fill:#a600f1;"></path> </g> <g> <polygon points="119.59 935.45 119.59 970.04 109.91 970.04 109.91 945.97 103.17 970.04 97.57 970.04 90.65 946.37 90.65 970.04 87.27 970.04 87.27 935.45 97.46 935.45 103.4 956.33 109.31 935.45 119.59 935.45" style="fill:#231f20; fill-rule:evenodd;"></polygon> <polygon points="147.75 935.42 147.75 938.89 135.36 938.89 135.36 949.35 145.77 949.35 145.77 952.82 135.36 952.82 135.36 966.54 149.86 966.54 149.86 970.01 125.33 970.01 125.33 935.42 147.75 935.42" style="fill:#231f20; fill-rule:evenodd;"></polygon> <path d="M185.55,936.6l-6.09,1.13c.26-1.22,.4-2.22,.4-3.05,0-5.25-3.19-7.87-9.56-7.87-5.03,0-7.55,1.81-7.55,5.42,0,2.72,2.81,5.05,8.44,6.99,10.86,3.73,16.28,9.24,16.28,16.54,0,4.28-1.53,7.72-4.56,10.32-3.05,2.59-7.1,3.89-12.16,3.89-11.19,0-16.78-4.34-16.78-13,0-.71,.06-1.58,.17-2.62l6.32-1.39c-.49,1.92-.72,3.59-.72,5,0,5.6,3.21,8.41,9.63,8.41,5.14,0,7.72-2.02,7.72-6.06,0-3.01-3.07-5.64-9.23-7.91-8.89-3.26-13.34-8.48-13.34-15.66,0-4.06,1.48-7.33,4.45-9.81,2.97-2.49,6.87-3.73,11.7-3.73,9.93,0,14.89,4.46,14.89,13.4" style="fill:#ec1c24; fill-rule:evenodd;"></path> <path d="M211.2,923.24c13.15,0,19.72,7.78,19.72,23.36s-6.7,23.36-20.09,23.36-20.1-7.97-20.1-23.9,6.82-22.83,20.46-22.83m-.36,3.6c-2.47,0-4.15,1.37-5.02,4.09-.87,2.72-1.31,7.94-1.31,15.67s.44,12.95,1.31,15.67c.87,2.72,2.54,4.09,5.02,4.09s4.14-1.37,5-4.09c.87-2.72,1.31-7.94,1.31-15.67s-.44-12.92-1.31-15.66c-.87-2.73-2.54-4.1-5-4.1" style="fill:#ec1c24; fill-rule:evenodd;"></path> <path d="M234.69,970.07v-34.59h14.92c8.47,0,12.7,3.39,12.7,10.16s-4.71,10.26-14.12,10.26h-3.47v14.17h-10.03Zm10.03-17.36h2.26c3.64,0,5.47-2.41,5.47-7.25,0-4.52-1.82-6.79-5.47-6.79h-2.26v14.04Z" style="fill:#231f20; fill-rule:evenodd;"></path> <path d="M265.49,970.02v-34.59h14.88c3.87,0,6.95,.81,9.27,2.45,2.31,1.63,3.47,3.81,3.47,6.55,0,4.19-2.48,6.92-7.45,8.18,2.55,.95,4.2,1.99,4.96,3.12,.75,1.12,1.26,3.32,1.53,6.58,.32,3.89,.97,6.45,1.95,7.71h-10.89c-.69-1.61-1.04-3.61-1.04-6l-.05-2.06-.05-2.59c0-3.99-1.61-5.98-4.82-5.98h-1.72v16.62h-10.03Zm10.03-19.49h2.02c3.8,0,5.7-1.99,5.7-5.96s-1.9-5.95-5.7-5.95h-2.02v11.91Z" style="fill:#231f20; fill-rule:evenodd;"></path> <path d="M311.8,934.24c10.07,0,15.1,5.96,15.1,17.89s-5.13,17.89-15.38,17.89-15.39-6.1-15.39-18.29,5.23-17.48,15.67-17.48m-.28,2.76c-1.89,0-3.18,1.05-3.84,3.13-.67,2.08-1,6.08-1,12s.34,9.91,1,12c.67,2.09,1.95,3.13,3.84,3.13s3.16-1.05,3.83-3.13c.67-2.08,1-6.08,1-12s-.34-9.9-1-11.99c-.67-2.09-1.95-3.14-3.83-3.14" style="fill:#231f20; fill-rule:evenodd;"></path> <polygon points="352.97 935.48 352.97 938.95 340.43 938.95 340.43 950.48 351.07 950.48 351.07 953.95 340.43 953.95 340.43 970.07 330.4 970.07 330.4 935.48 352.97 935.48" style="fill:#231f20; fill-rule:evenodd;"></polygon> <polygon points="379.36 935.48 379.36 938.95 366.82 938.95 366.82 950.48 377.46 950.48 377.46 953.95 366.82 953.95 366.82 970.07 356.78 970.07 356.78 935.48 379.36 935.48" style="fill:#231f20; fill-rule:evenodd;"></polygon> <rect x="126.5" y="975.37" width="215.32" height="1.22" style="fill:#ec1c24;"></rect> <g> <path d="M133,986.51l1.22,.37v.33c0,2.03-1.1,3.04-3.32,3.04-2.63,0-3.95-1.33-3.95-4,0-1.34,.38-2.4,1.15-3.2,.77-.8,1.79-1.19,3.08-1.19,1.86,0,2.78,.84,2.78,2.52l-1.36,.66,.02-.76c0-1.14-.38-1.71-1.15-1.71-1.01,0-1.52,1.12-1.52,3.36,0,1.38,.11,2.33,.32,2.85,.22,.52,.62,.77,1.21,.77,1.07,0,1.61-.7,1.61-2.09,0-.2-.03-.51-.1-.95Z" style="fill:#231f20;"></path> <path d="M138.97,981.88c2.64,0,3.96,1.4,3.96,4.19s-1.32,4.19-3.96,4.19-3.97-1.4-3.97-4.19,1.32-4.19,3.97-4.19Zm0,.71c-.64,0-.96,1.16-.96,3.48s.32,3.48,.96,3.48,.97-1.16,.97-3.48-.32-3.48-.97-3.48Z" style="fill:#231f20;"></path> <path d="M150.53,984.14l-1.4,.25c0-1.19-.56-1.79-1.67-1.79-.68,0-1.02,.28-1.02,.84,0,.41,.59,.86,1.76,1.33,1.8,.73,2.7,1.67,2.7,2.8,0,1.8-1.14,2.7-3.43,2.7-2.42,0-3.63-.9-3.63-2.7l1.49-.3c-.02,.17-.03,.34-.03,.49,0,.47,.19,.87,.58,1.21,.39,.34,.85,.52,1.38,.52,.7,0,1.05-.3,1.05-.89,0-.4-.56-.84-1.69-1.32-1.7-.73-2.55-1.66-2.55-2.81,0-.76,.32-1.38,.98-1.86,.65-.48,1.49-.73,2.51-.73,1.81,0,2.81,.75,2.99,2.25Z" style="fill:#231f20;"></path> <path d="M163.87,990.07h-2.89v-6c0-.52-.15-.78-.46-.78-.71,0-1.06,.75-1.06,2.26v4.53h-2.89v-5.88c0-.6-.14-.9-.41-.9-.72,0-1.08,.75-1.08,2.25v4.52h-2.89v-8.02c.98,0,1.94-.07,2.89-.2v1.38c.68-.91,1.52-1.37,2.52-1.37,.84,0,1.46,.43,1.86,1.29,.64-.87,1.45-1.31,2.42-1.31,1.33,0,2,.67,2,2.02v6.2Z" style="fill:#231f20;"></path> <path d="M171.35,987.15l1.17,.34c-.12,1.84-1.21,2.77-3.27,2.77-2.66,0-4-1.33-4-3.99,0-1.29,.35-2.35,1.06-3.17,.71-.82,1.62-1.24,2.72-1.24,2.31,0,3.46,1.49,3.46,4.47h-4.22c0,2.09,.53,3.14,1.59,3.14,.99,0,1.49-.59,1.49-1.78,0-.16,0-.34-.02-.55Zm-3.08-1.71h1.73c0-1.86-.28-2.79-.84-2.79-.51,0-.79,.69-.86,2.07l-.03,.72Z" style="fill:#231f20;"></path> <path d="M178.19,982.11v.9h-1.28v5.65c0,.35,.11,.53,.34,.53,.16,0,.26-.12,.29-.36l.82,.08c-.23,.84-.95,1.25-2.17,1.25-1.45,0-2.18-.62-2.18-1.86v-5.3h-.97v-.9h.97v-1.41c1-.28,1.96-.67,2.89-1.19v2.6h1.28Z" style="fill:#231f20;"></path> <path d="M182.84,981.88c2.64,0,3.96,1.4,3.96,4.19s-1.32,4.19-3.96,4.19-3.97-1.4-3.97-4.19,1.32-4.19,3.97-4.19Zm0,.71c-.64,0-.96,1.16-.96,3.48s.32,3.48,.96,3.48,.97-1.16,.97-3.48-.32-3.48-.97-3.48Z" style="fill:#231f20;"></path> <path d="M191.03,979.09v10.98h-2.89v-10.82c.8,0,1.76-.05,2.89-.16Z" style="fill:#231f20;"></path> <path d="M196.34,981.88c2.64,0,3.96,1.4,3.96,4.19s-1.32,4.19-3.96,4.19-3.97-1.4-3.97-4.19,1.32-4.19,3.97-4.19Zm0,.71c-.64,0-.96,1.16-.96,3.48s.32,3.48,.96,3.48,.97-1.16,.97-3.48-.32-3.48-.97-3.48Z" style="fill:#231f20;"></path> <path d="M206.87,982.16c1.35,.58,2.02,1.41,2.02,2.51,0,.72-.34,1.34-1.01,1.86-.68,.51-1.49,.77-2.45,.77-.37,0-.87-.05-1.5-.14-.37,.21-.55,.42-.55,.63,0,.29,.22,.44,.67,.44,.11,0,.35-.01,.7-.03,.89-.06,1.54-.09,1.95-.09,1.92,0,2.89,.73,2.89,2.19,0,1.77-1.59,2.65-4.78,2.65-2.37,0-3.56-.5-3.56-1.5,0-.58,.48-.97,1.44-1.17-1.03-.27-1.54-.72-1.54-1.34,0-.78,.61-1.46,1.83-2.05-1.07-.43-1.61-1.17-1.61-2.21,0-.79,.33-1.46,.98-1.99,.65-.54,1.46-.8,2.42-.8,.33,0,.76,.03,1.29,.1-.03-.18-.04-.33-.04-.44,0-1.05,.55-1.57,1.64-1.57,.87,0,1.31,.37,1.31,1.1,0,.56-.26,.84-.79,.84-.17,0-.38-.06-.62-.17-.15-.07-.26-.11-.33-.12-.25-.02-.37,.17-.37,.55Zm-1.86,8.44c-1.35,0-2.02,.26-2.02,.78s.65,.78,1.96,.78c1.52,0,2.28-.29,2.28-.87,0-.46-.74-.69-2.21-.69Zm.08-7.94c-.54,0-.81,.67-.81,2.01,0,1.23,.28,1.85,.84,1.85,.51,0,.77-.55,.77-1.64,0-1.48-.27-2.22-.8-2.22Z" style="fill:#231f20;"></path> <path d="M217.2,982.08l-3.66,9.02c-.5,1.24-1.18,1.86-2.03,1.86s-1.38-.35-1.68-1.05l1-.72c.08,.61,.3,.91,.67,.91,.42,0,.76-.35,1.02-1.05l.21-.57-3.22-8.39h3.18l1.61,4.7,1.83-4.7h1.07Z" style="fill:#231f20;"></path> <path d="M222.92,990.07v-10.82c.47,0,1.44-.06,2.89-.17v3.85c.54-.7,1.14-1.05,1.8-1.05,1.89,0,2.84,1.31,2.84,3.93,0,2.96-1.12,4.44-3.38,4.44-1.06,0-1.97-.5-2.72-1.5l-.72,1.32h-.72Zm3.8-7.03c-.64,0-.96,.92-.96,2.78,0,2.18,.31,3.27,.94,3.27,.54,0,.82-.57,.82-1.7l.05-1.96-.06-1.1c-.08-.85-.35-1.28-.78-1.28Z" style="fill:#231f20;"></path> <path d="M238.52,982.08l-3.66,9.02c-.5,1.24-1.18,1.86-2.03,1.86s-1.38-.35-1.68-1.05l1-.72c.08,.61,.3,.91,.67,.91,.42,0,.76-.35,1.01-1.05l.22-.57-3.22-8.39h3.18l1.61,4.7,1.83-4.7h1.07Z" style="fill:#231f20;"></path> <path d="M244.4,990.07v-10.82h4.49c3.19,0,4.78,1.81,4.78,5.42s-1.65,5.4-4.96,5.4h-4.31Zm3.14-.9h.82c.76,0,1.28-.33,1.57-.98,.29-.65,.44-1.83,.44-3.54s-.14-2.89-.43-3.54c-.29-.65-.81-.98-1.57-.98h-.82v9.03Z" style="fill:#231f20;"></path> <path d="M260.8,984.98h-1.98c.07-.31,.13-.54,.18-.69,.07-.22,.11-.41,.11-.59,0-.34-.12-.51-.36-.51-.19,0-.36,.22-.53,.67-.17,.45-.25,.92-.25,1.42v4.79h-2.89v-7.99h.56c.67,0,1.44-.06,2.33-.21v1.32c.47-.88,1.05-1.32,1.73-1.32,.93,0,1.39,.51,1.39,1.54,0,.27-.04,.58-.13,.93-.03,.14-.08,.36-.15,.64Z" style="fill:#231f20;"></path> <path d="M263.64,987.43c.93,0,1.39,.47,1.39,1.4s-.47,1.4-1.39,1.4-1.4-.46-1.4-1.4,.47-1.4,1.4-1.4Z" style="fill:#231f20;"></path> <path d="M279.09,982.28l-1.46,.27c.06-.29,.1-.53,.1-.73,0-1.26-.76-1.89-2.29-1.89-1.2,0-1.81,.43-1.81,1.3,0,.65,.67,1.21,2.02,1.67,2.6,.89,3.9,2.21,3.9,3.96,0,1.03-.37,1.85-1.09,2.47-.73,.62-1.7,.93-2.91,.93-2.68,0-4.02-1.04-4.02-3.12,0-.17,.01-.38,.04-.63l1.52-.33c-.12,.46-.17,.86-.17,1.2,0,1.34,.77,2.01,2.31,2.01,1.23,0,1.85-.48,1.85-1.45,0-.72-.74-1.35-2.21-1.9-2.13-.78-3.19-2.03-3.19-3.75,0-.97,.35-1.76,1.07-2.35,.71-.59,1.64-.89,2.8-.89,2.38,0,3.57,1.07,3.57,3.21Z" style="fill:#231f20;"></path> <path d="M286.65,987.15l1.17,.34c-.12,1.84-1.21,2.77-3.27,2.77-2.66,0-4-1.33-4-3.99,0-1.29,.35-2.35,1.06-3.17,.71-.82,1.61-1.24,2.72-1.24,2.31,0,3.46,1.49,3.46,4.47h-4.22c0,2.09,.53,3.14,1.59,3.14,.99,0,1.49-.59,1.49-1.78,0-.16,0-.34-.02-.55Zm-3.08-1.71h1.73c0-1.86-.28-2.79-.84-2.79-.51,0-.79,.69-.86,2.07l-.03,.72Z" style="fill:#231f20;"></path> <path d="M292.04,979.09v10.98h-2.89v-10.82c.8,0,1.76-.05,2.89-.16Z" style="fill:#231f20;"></path> <path d="M300.47,982.08l-3.66,9.02c-.5,1.24-1.18,1.86-2.03,1.86s-1.38-.35-1.68-1.05l1-.72c.08,.61,.3,.91,.67,.91,.42,0,.76-.35,1.02-1.05l.21-.57-3.22-8.39h3.18l1.61,4.7,1.83-4.7h1.07Z" style="fill:#231f20;"></path> <path d="M309.28,989.79c-.71,.28-1.4,.41-2.07,.41-.99,0-1.61-.31-1.84-.93-.48,.64-1.17,.97-2.08,.97-1.69,0-2.53-.78-2.53-2.35,0-1.19,.77-2.02,2.32-2.51,1.42-.44,2.12-.98,2.12-1.6,0-.82-.41-1.23-1.22-1.23-.94,0-1.41,.4-1.41,1.19,0,.25,.07,.58,.22,.98l-1.43-.28c-.04-.25-.06-.48-.06-.7,0-1.27,1.16-1.9,3.47-1.9s3.3,.59,3.3,1.78v4.85c0,.5,.16,.75,.48,.75,.1,0,.25-.06,.44-.17l.28,.73Zm-4.1-4.52c-.18,.21-.39,.38-.63,.52-.6,.35-.9,.94-.9,1.76,0,1.06,.2,1.59,.62,1.59,.6,0,.9-.52,.9-1.57v-2.29Z" style="fill:#231f20;"></path> <path d="M317.49,990.07h-2.89v-5.87c0-.6-.17-.9-.5-.9s-.63,.24-.88,.71c-.25,.47-.37,1.03-.37,1.68v4.38h-2.89v-8.01c.99,0,1.96-.07,2.89-.2v1.5c.72-.99,1.6-1.49,2.63-1.49,1.34,0,2.01,.68,2.01,2.05v6.15Z" style="fill:#231f20;"></path> <path d="M319.28,990.07v-7.98c.9,0,1.87-.07,2.89-.21v8.2h-2.89Zm1.47-11.09c.9,0,1.35,.35,1.35,1.05s-.45,1.05-1.35,1.05-1.35-.35-1.35-1.05,.45-1.05,1.35-1.05Z" style="fill:#231f20;"></path> <path d="M331.49,990.07h-2.89v-5.87c0-.6-.17-.9-.5-.9s-.63,.24-.88,.71c-.25,.47-.37,1.03-.37,1.68v4.38h-2.89v-8.01c.99,0,1.96-.07,2.89-.2v1.5c.72-.99,1.6-1.49,2.63-1.49,1.34,0,2.01,.68,2.01,2.05v6.15Z" style="fill:#231f20;"></path> <path d="M341.31,989.79c-.71,.28-1.4,.41-2.07,.41-.99,0-1.61-.31-1.84-.93-.48,.64-1.17,.97-2.08,.97-1.69,0-2.53-.78-2.53-2.35,0-1.19,.77-2.02,2.32-2.51,1.42-.44,2.12-.98,2.12-1.6,0-.82-.41-1.23-1.22-1.23-.94,0-1.41,.4-1.41,1.19,0,.25,.07,.58,.22,.98l-1.44-.28c-.04-.25-.05-.48-.05-.7,0-1.27,1.16-1.9,3.47-1.9s3.3,.59,3.3,1.78v4.85c0,.5,.16,.75,.48,.75,.1,0,.25-.06,.45-.17l.28,.73Zm-4.1-4.52c-.18,.21-.39,.38-.63,.52-.6,.35-.9,.94-.9,1.76,0,1.06,.2,1.59,.62,1.59,.6,0,.9-.52,.9-1.57v-2.29Z" style="fill:#231f20;"></path> </g> </g> <rect x="405.37" y="700.98" width="280.01" height="34.41" style="fill:#a600f1;"></rect> <g> <path d="M515.95,726.89v-1.96l5.64-6.26c.88-.98,1.53-1.86,1.97-2.64s.66-1.59,.66-2.44-.26-1.54-.79-2.1c-.52-.56-1.25-.84-2.18-.84-.84,0-1.55,.28-2.11,.84-.57,.56-.85,1.31-.85,2.25h-2.24c.05-1.46,.58-2.66,1.57-3.6,1-.94,2.22-1.4,3.69-1.4,1.63,0,2.89,.45,3.79,1.35,.89,.9,1.34,2,1.34,3.29,0,1.13-.28,2.19-.83,3.16-.55,.97-1.38,2.07-2.5,3.31l-4.61,5.08h8.25v1.96h-10.8Z" style="fill:#fff;"></path> <path d="M530.54,718c0-1.62,.18-3.04,.55-4.28,.37-1.24,.87-2.2,1.49-2.9,.63-.7,1.3-1.22,2.02-1.56,.72-.34,1.49-.52,2.29-.52s1.53,.15,2.23,.46c.7,.31,1.36,.8,1.98,1.47,.63,.67,1.12,1.62,1.5,2.86,.37,1.24,.55,2.69,.55,4.36,0,1.49-.14,2.82-.42,3.98-.28,1.16-.64,2.08-1.07,2.76-.43,.68-.94,1.24-1.52,1.69s-1.14,.75-1.66,.9c-.52,.15-1.06,.23-1.61,.23-.79,0-1.54-.15-2.24-.46-.7-.31-1.37-.8-2.01-1.48-.64-.68-1.14-1.66-1.52-2.95-.38-1.29-.57-2.81-.57-4.56Zm10.44,0c0-2.44-.36-4.27-1.07-5.5-.71-1.23-1.73-1.84-3.05-1.84-1.2,0-2.19,.59-2.95,1.77-.76,1.18-1.15,3.01-1.15,5.5,0,5.09,1.39,7.63,4.17,7.63,1.17,0,2.13-.61,2.9-1.83s1.15-3.13,1.15-5.72Z" style="fill:#fff;"></path> <path d="M547.5,726.89v-1.96l5.64-6.26c.88-.98,1.53-1.86,1.97-2.64s.66-1.59,.66-2.44-.26-1.54-.79-2.1c-.52-.56-1.25-.84-2.18-.84-.84,0-1.55,.28-2.11,.84-.57,.56-.85,1.31-.85,2.25h-2.24c.05-1.46,.58-2.66,1.57-3.6,1-.94,2.22-1.4,3.69-1.4,1.63,0,2.89,.45,3.79,1.35,.89,.9,1.34,2,1.34,3.29,0,1.13-.28,2.19-.83,3.16-.55,.97-1.38,2.07-2.5,3.31l-4.61,5.08h8.25v1.96h-10.8Z" style="fill:#fff;"></path> <path d="M565.77,713.16h-2.19c.12-1.17,.62-2.19,1.51-3.08,.88-.88,2.12-1.33,3.7-1.33,1.5,0,2.7,.43,3.62,1.28s1.38,1.92,1.38,3.21c0,1.01-.31,1.87-.94,2.56-.63,.7-1.41,1.17-2.33,1.43v.05c1.13,.17,2.07,.67,2.81,1.48,.74,.82,1.11,1.89,1.11,3.23,0,1.53-.49,2.82-1.48,3.87s-2.38,1.57-4.19,1.57c-1.68,0-3.02-.46-4-1.37s-1.54-2.06-1.68-3.45h2.27c.15,.88,.54,1.58,1.15,2.11,.61,.53,1.41,.8,2.38,.8s1.78-.33,2.41-1,.94-1.5,.94-2.47c0-1.03-.33-1.89-.99-2.58-.66-.69-1.68-1.04-3.05-1.06h-.98v-1.96h.85c1.05,0,1.89-.27,2.54-.82,.64-.55,.97-1.31,.97-2.29,0-.72-.24-1.35-.71-1.88-.47-.53-1.17-.8-2.1-.8s-1.66,.25-2.15,.73c-.49,.49-.77,1.08-.84,1.77Z" style="fill:#fff;"></path> </g> <g> <path d="M104.85,299.71v-34.87h-14.9v34.87h-11.34v-44.95h37.57v44.95h-11.34Z" style="fill:#a600f1;"></path> <path d="M123.38,299.71v-44.95h15.16c5.1,0,9.27,1.26,12.52,3.79,3.25,2.53,4.88,6.21,4.88,11.04s-1.48,8.37-4.45,11.01c-2.97,2.64-7.35,3.95-13.15,3.95h-3.16v15.16h-11.8Zm20.7-29.99c0-1.62-.49-3-1.48-4.12-.99-1.12-2.54-1.68-4.65-1.68h-2.77v11.47h2.64c4.17,0,6.26-1.89,6.26-5.67Z" style="fill:#a600f1;"></path> <path d="M188.37,254.76v10.08h-16.41v6.99h15.82v9.43h-15.82v8.37h17.07v10.08h-28.87v-44.95h28.21Z" style="fill:#a600f1;"></path> <path d="M192.91,311.25v-21.62h2.04c1.71,0,3.08-.68,4.09-2.04,1.01-1.36,1.65-3.76,1.91-7.18l1.91-25.64h34.01v34.87h6.92v21.62h-11.8v-11.54h-27.29v11.54h-11.8Zm32.17-21.62v-24.78h-11.54l-1.19,15.56c-.35,4.44-1.25,7.51-2.7,9.23h15.42Z" style="fill:#a600f1;"></path> <path d="M274.52,299.71v-18.13h-13.97v18.13h-11.8v-44.95h11.8v16.74h13.97v-16.74h11.8v44.95h-11.8Z" style="fill:#a600f1;"></path> <path d="M291.26,277.23c0-6.55,2.28-12.17,6.86-16.87,4.57-4.7,10.28-7.05,17.14-7.05s12.84,2.35,17.17,7.05c4.33,4.7,6.49,10.33,6.49,16.87s-2.27,12.23-6.82,16.91c-4.55,4.68-10.21,7.02-16.97,7.02-3.96,0-7.5-.71-10.65-2.14-3.14-1.43-5.65-3.32-7.51-5.67-1.87-2.35-3.29-4.91-4.25-7.68-.97-2.77-1.45-5.58-1.45-8.44Zm15.42-9.49c-2.29,2.55-3.43,5.71-3.43,9.49s1.13,6.94,3.4,9.49c2.26,2.55,5.06,3.82,8.4,3.82s6.21-1.27,8.47-3.82c2.26-2.55,3.39-5.71,3.39-9.49s-1.08-6.94-3.23-9.49c-2.15-2.55-4.99-3.82-8.5-3.82s-6.22,1.27-8.5,3.82Z" style="fill:#a600f1;"></path> <path d="M343.86,299.71v-44.95h13.91c4.92,0,8.83,.93,11.73,2.8,2.9,1.87,4.35,4.69,4.35,8.47,0,2.37-.8,4.41-2.41,6.1-1.6,1.69-3.62,2.78-6.03,3.26v.13c3.25,.53,5.79,1.82,7.61,3.89,1.82,2.07,2.74,4.42,2.74,7.05,0,4.04-1.51,7.26-4.52,9.66-3.01,2.4-6.89,3.59-11.63,3.59h-15.75Zm18.46-32.5c0-1.27-.44-2.3-1.32-3.07-.88-.77-2.2-1.15-3.96-1.15h-2.24v8.96h2.57c1.8,0,3.08-.4,3.82-1.19,.75-.79,1.12-1.98,1.12-3.56Zm1.65,18.26c0-1.58-.55-2.89-1.65-3.92-1.1-1.03-2.59-1.55-4.48-1.55h-3.03v11.27h3.03c1.93,0,3.44-.49,4.51-1.48,1.08-.99,1.62-2.43,1.62-4.32Z" style="fill:#a600f1;"></path> <path d="M378.4,277.23c0-6.55,2.28-12.17,6.86-16.87,4.57-4.7,10.28-7.05,17.14-7.05s12.84,2.35,17.17,7.05c4.33,4.7,6.49,10.33,6.49,16.87s-2.27,12.23-6.82,16.91c-4.55,4.68-10.21,7.02-16.97,7.02-3.96,0-7.5-.71-10.65-2.14-3.14-1.43-5.65-3.32-7.51-5.67-1.87-2.35-3.29-4.91-4.25-7.68-.97-2.77-1.45-5.58-1.45-8.44Zm15.42-9.49c-2.29,2.55-3.43,5.71-3.43,9.49s1.13,6.94,3.4,9.49c2.26,2.55,5.06,3.82,8.4,3.82s6.21-1.27,8.47-3.82c2.26-2.55,3.39-5.71,3.39-9.49s-1.08-6.94-3.23-9.49c-2.15-2.55-4.99-3.82-8.5-3.82s-6.22,1.27-8.5,3.82Z" style="fill:#a600f1;"></path> <path d="M430.93,299.71v-44.95h28.87v10.08h-17.53v34.87h-11.34Z" style="fill:#a600f1;"></path> <path d="M460.07,277.23c0-6.55,2.28-12.17,6.86-16.87,4.57-4.7,10.28-7.05,17.14-7.05s12.84,2.35,17.17,7.05c4.33,4.7,6.49,10.33,6.49,16.87s-2.27,12.23-6.82,16.91c-4.55,4.68-10.21,7.02-16.97,7.02-3.96,0-7.5-.71-10.65-2.14-3.14-1.43-5.65-3.32-7.51-5.67-1.87-2.35-3.29-4.91-4.25-7.68-.97-2.77-1.45-5.58-1.45-8.44Zm15.42-9.49c-2.29,2.55-3.43,5.71-3.43,9.49s1.13,6.94,3.4,9.49c2.26,2.55,5.06,3.82,8.4,3.82s6.21-1.27,8.47-3.82c2.26-2.55,3.39-5.71,3.39-9.49s-1.08-6.94-3.23-9.49c-2.15-2.55-4.99-3.82-8.5-3.82s-6.22,1.27-8.5,3.82Z" style="fill:#a600f1;"></path> <path d="M508.38,311.25v-21.62h2.04c1.71,0,3.08-.68,4.09-2.04,1.01-1.36,1.65-3.76,1.91-7.18l1.91-25.64h34.01v34.87h6.92v21.62h-11.8v-11.54h-27.29v11.54h-11.8Zm32.17-21.62v-24.78h-11.54l-1.19,15.56c-.35,4.44-1.25,7.51-2.7,9.23h15.42Z" style="fill:#a600f1;"></path> <path d="M589.99,299.71v-18.13h-13.97v18.13h-11.8v-44.95h11.8v16.74h13.97v-16.74h11.8v44.95h-11.8Z" style="fill:#a600f1;"></path> <path d="M609.03,254.76h11.34v20.76c0,2.86-.07,5.27-.2,7.25h.2c1.1-2.59,2.83-5.95,5.21-10.08l10.22-17.93h10.81v44.95h-11.34v-19.58c0-.26,.09-2.94,.26-8.04h-.26c-.83,1.85-3.1,5.98-6.79,12.39l-8.7,15.23h-10.74v-44.95Z" style="fill:#a600f1;"></path> <path d="M653.86,254.76h11.34v20.76c0,2.86-.07,5.27-.2,7.25h.2c1.1-2.59,2.83-5.95,5.21-10.08l10.22-17.93h10.81v44.95h-11.34v-19.58c0-.26,.09-2.94,.26-8.04h-.26c-.83,1.85-3.1,5.98-6.79,12.39l-8.7,15.23h-10.74v-44.95Zm23.07-14.3h6.86c-.18,3.12-1.34,5.57-3.49,7.35-2.15,1.78-4.81,2.67-7.98,2.67-3.47,0-6.21-.89-8.21-2.67-2-1.78-3.09-4.23-3.26-7.35h6.86c.09,.97,.55,1.73,1.38,2.27,.83,.55,1.91,.82,3.23,.82s2.46-.27,3.29-.82c.83-.55,1.27-1.31,1.32-2.27Z" style="fill:#a600f1;"></path> </g> <g> <path d="M100.38,540.53v-12.96h-17.42v12.96h-1.75v-26.45h1.75v11.95h17.42v-11.95h1.75v26.45h-1.75Z" style="fill:#380063;"></path> <path d="M106.78,527.3c0-3.88,1.34-7.19,4.01-9.95,2.68-2.75,6.02-4.13,10.03-4.13s7.57,1.38,10.14,4.13c2.57,2.75,3.86,6.07,3.86,9.95s-1.34,7.26-4.03,9.99c-2.69,2.73-6.01,4.09-9.97,4.09-2.3,0-4.38-.42-6.23-1.26-1.85-.84-3.33-1.95-4.44-3.34-1.11-1.38-1.95-2.88-2.52-4.5-.57-1.62-.85-3.28-.85-4.98Zm1.86,0c0,3.59,1.16,6.58,3.49,8.96,2.33,2.38,5.21,3.57,8.65,3.57s6.33-1.19,8.67-3.57c2.34-2.38,3.51-5.37,3.51-8.96s-1.14-6.58-3.41-8.96c-2.28-2.38-5.2-3.57-8.77-3.57s-6.32,1.18-8.65,3.55c-2.33,2.37-3.49,5.36-3.49,8.98Z" style="fill:#380063;"></path> <path d="M139.29,540.53v-26.45h6.36c2.53,0,4.52,.54,5.95,1.63,1.43,1.09,2.15,2.7,2.15,4.85,0,2.84-1.42,4.81-4.27,5.9v.08c1.99,.23,3.52,.97,4.6,2.21,1.07,1.24,1.61,2.74,1.61,4.5,0,2.38-.82,4.19-2.46,5.43-1.64,1.24-3.76,1.86-6.34,1.86h-7.6Zm12.61-19.82c0-1.63-.45-2.88-1.36-3.76-.91-.88-2.43-1.32-4.58-1.32h-4.89v10.4h4.54c1.96,0,3.5-.47,4.62-1.42,1.11-.94,1.67-2.24,1.67-3.9Zm1.94,12.64c0-1.81-.61-3.23-1.82-4.25-1.22-1.02-2.92-1.53-5.12-1.53h-5.82v11.4h6.4c2.09,0,3.68-.51,4.75-1.53s1.61-2.39,1.61-4.09Z" style="fill:#380063;"></path> <path d="M158.95,527.3c0-3.88,1.34-7.19,4.01-9.95,2.68-2.75,6.02-4.13,10.03-4.13s7.57,1.38,10.14,4.13c2.57,2.75,3.86,6.07,3.86,9.95s-1.34,7.26-4.03,9.99c-2.69,2.73-6.01,4.09-9.97,4.09-2.3,0-4.38-.42-6.23-1.26-1.85-.84-3.33-1.95-4.44-3.34-1.11-1.38-1.95-2.88-2.52-4.5-.57-1.62-.85-3.28-.85-4.98Zm1.86,0c0,3.59,1.16,6.58,3.49,8.96,2.33,2.38,5.21,3.57,8.65,3.57s6.33-1.19,8.67-3.57c2.34-2.38,3.51-5.37,3.51-8.96s-1.14-6.58-3.41-8.96c-2.28-2.38-5.2-3.57-8.77-3.57s-6.32,1.18-8.65,3.55c-2.33,2.37-3.49,5.36-3.49,8.98Z" style="fill:#380063;"></path> <path d="M191.45,540.53v-26.45h14.58v1.55h-12.84v24.9h-1.75Z" style="fill:#380063;"></path> <path d="M206.39,527.3c0-3.88,1.34-7.19,4.01-9.95,2.68-2.75,6.02-4.13,10.03-4.13s7.57,1.38,10.14,4.13c2.57,2.75,3.86,6.07,3.86,9.95s-1.34,7.26-4.03,9.99c-2.69,2.73-6.01,4.09-9.97,4.09-2.3,0-4.38-.42-6.23-1.26-1.85-.84-3.33-1.95-4.44-3.34-1.11-1.38-1.95-2.88-2.52-4.5-.57-1.62-.85-3.28-.85-4.98Zm1.86,0c0,3.59,1.16,6.58,3.49,8.96,2.33,2.38,5.21,3.57,8.65,3.57s6.33-1.19,8.67-3.57c2.34-2.38,3.51-5.37,3.51-8.96s-1.14-6.58-3.41-8.96c-2.28-2.38-5.2-3.57-8.77-3.57s-6.32,1.18-8.65,3.55c-2.33,2.37-3.49,5.36-3.49,8.98Z" style="fill:#380063;"></path> <path d="M257.51,514.08v24.9h3.1v8.34h-1.75v-6.79h-21.68v6.79h-1.75v-8.34h.27c1.34,0,2.5-.59,3.45-1.77,.96-1.18,1.53-3.06,1.71-5.64l1.24-17.49h15.4Zm-1.75,24.9v-23.35h-12.02l-1.12,15.94c-.23,3.57-1.24,6.04-3.03,7.41h16.17Z" style="fill:#380063;"></path> <path d="M284.11,540.53v-12.96h-17.42v12.96h-1.75v-26.45h1.75v11.95h17.42v-11.95h1.75v26.45h-1.75Z" style="fill:#380063;"></path> <path d="M310.68,516.64h-.12c-.21,.28-.73,1.03-1.57,2.25-.84,1.22-1.67,2.41-2.48,3.59-.81,1.18-1.52,2.18-2.11,3.01l-10.78,15.05h-1.51v-26.45h1.75v18.04c0,1.27-.03,3.14-.08,5.62h.16c.7-.98,1.76-2.51,3.2-4.58,1.43-2.07,2.5-3.58,3.2-4.54l10.43-14.54h1.59v26.45h-1.75v-17.49c0-2.84,.03-4.98,.08-6.4Z" style="fill:#380063;"></path> <path d="M332.91,514.08v1.55h-12.76v10.4h12.33v1.55h-12.33v11.4h13.19v1.55h-14.93v-26.45h14.51Z" style="fill:#380063;"></path> <path d="M365.22,540.53v-24.9h-15.48v24.9h-1.75v-26.45h18.97v26.45h-1.75Z" style="fill:#380063;"></path> <path d="M372.82,540.53v-26.45h7.1c3.05,0,5.43,.65,7.14,1.96,1.71,1.31,2.56,3.3,2.56,5.99s-.79,4.64-2.39,5.99c-1.59,1.36-4.12,2.04-7.58,2.04h-5.08v10.47h-1.75Zm14.93-18.42c0-2.02-.64-3.6-1.92-4.75-1.28-1.15-3.2-1.73-5.76-1.73h-5.51v12.88h5.86c4.89,0,7.33-2.13,7.33-6.4Z" style="fill:#380063;"></path> <path d="M408.46,514.08v1.55h-12.76v10.4h12.33v1.55h-12.33v11.4h13.19v1.55h-14.93v-26.45h14.51Z" style="fill:#380063;"></path> <path d="M413.23,533.82h1.78c.16,1.86,.81,3.32,1.98,4.38,1.16,1.06,2.65,1.59,4.46,1.59,2.12,0,3.77-.58,4.95-1.73,1.18-1.15,1.76-2.73,1.76-4.75,0-1.89-.58-3.38-1.75-4.48-1.16-1.1-2.92-1.65-5.28-1.65h-2.56v-1.55h2.33c1.96,0,3.5-.49,4.62-1.47,1.11-.98,1.67-2.34,1.67-4.07,0-1.53-.51-2.79-1.53-3.78-1.02-1-2.33-1.49-3.94-1.49s-2.88,.39-3.84,1.18c-.96,.79-1.53,1.87-1.71,3.24h-1.78c.18-1.68,.91-3.1,2.17-4.25,1.27-1.15,3.01-1.73,5.24-1.73,2.09,0,3.81,.65,5.14,1.96,1.33,1.31,2,2.93,2,4.87,0,1.53-.39,2.81-1.16,3.86s-1.77,1.82-2.99,2.31v.08c1.58,.36,2.84,1.19,3.8,2.48,.96,1.29,1.44,2.83,1.44,4.62,0,2.12-.7,3.97-2.09,5.55-1.4,1.58-3.53,2.37-6.4,2.37-2.38,0-4.3-.69-5.78-2.06-1.47-1.37-2.31-3.19-2.52-5.47Z" style="fill:#380063;"></path> <path d="M449.65,514.08v1.55h-12.76v10.4h12.33v1.55h-12.33v11.4h13.19v1.55h-14.93v-26.45h14.51Z" style="fill:#380063;"></path> <path d="M474.9,540.53v-12.96h-17.42v12.96h-1.75v-26.45h1.75v11.95h17.42v-11.95h1.75v26.45h-1.75Z" style="fill:#380063;"></path> <path d="M488.05,540.53v-24.9h-7.68v-1.55h17.11v1.55h-7.68v24.9h-1.75Z" style="fill:#380063;"></path> <path d="M500.81,540.53v-26.45h1.75v11.95h5.51c2.79,0,4.98,.6,6.57,1.8,1.59,1.2,2.39,3.02,2.39,5.45,0,4.84-2.9,7.25-8.69,7.25h-7.52Zm14.35-7.21c0-1.78-.6-3.19-1.78-4.21-1.19-1.02-2.96-1.53-5.31-1.53h-5.51v11.4h5.86c4.5,0,6.75-1.89,6.75-5.66Zm4.96,7.21v-26.45h1.75v26.45h-1.75Z" style="fill:#380063;"></path> <path d="M528.12,540.53v-2.91h2.75v1.44c0,2.51-.5,4.75-1.51,6.71h-1.32c.83-1.63,1.28-3.37,1.36-5.24h-1.28Z" style="fill:#380063;"></path> <path d="M555.5,541.11v-3.03c-3.34-.08-6-1.11-7.99-3.08-1.99-1.98-2.99-4.54-2.99-7.7,0-2.92,1.03-5.44,3.1-7.54,2.07-2.11,4.69-3.21,7.87-3.32v-2.95h1.75v2.95c3.28,.13,5.93,1.25,7.95,3.36,2.02,2.11,3.03,4.61,3.03,7.5s-1.03,5.49-3.08,7.54-4.69,3.14-7.89,3.24v3.03h-1.75Zm-9.12-13.81c0,2.87,.81,5.11,2.44,6.71,1.63,1.6,3.85,2.44,6.67,2.52v-18.54c-2.66,.08-4.85,.98-6.55,2.71-1.71,1.73-2.56,3.93-2.56,6.59Zm19.98,0c0-2.61-.85-4.79-2.54-6.54-1.69-1.75-3.88-2.67-6.57-2.77v18.54c2.71-.1,4.91-1.02,6.59-2.75,1.68-1.73,2.52-3.89,2.52-6.48Z" style="fill:#380063;"></path> <path d="M589.09,514.08l-9.08,21.88c-.72,1.73-1.44,2.98-2.13,3.74-.7,.76-1.64,1.14-2.83,1.14-.65,0-1.31-.1-1.98-.31v-1.51c.65,.18,1.27,.27,1.86,.27,.7,0,1.29-.26,1.78-.78,.49-.52,1.05-1.49,1.67-2.91l1.36-3.14-9.97-18.38h1.82l7.56,14.08c.49,.91,.92,1.77,1.28,2.6h.16c.28-.83,.68-1.87,1.2-3.14l5.51-13.54h1.78Z" style="fill:#380063;"></path> <path d="M591.81,540.53v-26.45h7.1c3.05,0,5.43,.65,7.14,1.96,1.71,1.31,2.56,3.3,2.56,5.99s-.79,4.64-2.39,5.99c-1.59,1.36-4.12,2.04-7.58,2.04h-5.08v10.47h-1.75Zm14.93-18.42c0-2.02-.64-3.6-1.92-4.75-1.28-1.15-3.2-1.73-5.76-1.73h-5.51v12.88h5.86c4.89,0,7.33-2.13,7.33-6.4Z" style="fill:#380063;"></path> <path d="M640.79,540.53h-27.66v-26.45h1.75v24.9h11.21v-24.9h1.75v24.9h11.21v-24.9h1.75v26.45Z" style="fill:#380063;"></path> <path d="M661.35,514.08v1.55h-12.76v10.4h12.33v1.55h-12.33v11.4h13.19v1.55h-14.93v-26.45h14.51Z" style="fill:#380063;"></path> <path d="M672.6,540.53v-24.9h-7.68v-1.55h17.11v1.55h-7.68v24.9h-1.75Z" style="fill:#380063;"></path> <path d="M99.8,563.18h-.12c-.21,.28-.73,1.03-1.57,2.25-.84,1.22-1.67,2.41-2.48,3.59-.81,1.18-1.52,2.18-2.11,3.01l-10.78,15.05h-1.51v-26.45h1.75v18.04c0,1.27-.03,3.14-.08,5.62h.16c.7-.98,1.76-2.51,3.2-4.58,1.43-2.07,2.5-3.58,3.2-4.54l10.43-14.54h1.59v26.45h-1.75v-17.49c0-2.84,.03-4.98,.08-6.4Z" style="fill:#380063;"></path> <path d="M116.32,587.08v-26.45h7.1c3.05,0,5.43,.65,7.14,1.96,1.71,1.31,2.56,3.3,2.56,5.99s-.79,4.64-2.39,5.99c-1.59,1.36-4.12,2.04-7.58,2.04h-5.08v10.47h-1.75Zm14.93-18.42c0-2.02-.64-3.6-1.92-4.75-1.28-1.15-3.2-1.73-5.76-1.73h-5.51v12.88h5.86c4.89,0,7.33-2.13,7.33-6.4Z" style="fill:#380063;"></path> <path d="M136.07,573.85c0-3.88,1.34-7.19,4.01-9.95,2.68-2.75,6.02-4.13,10.03-4.13s7.57,1.38,10.14,4.13c2.57,2.75,3.86,6.07,3.86,9.95s-1.34,7.26-4.03,9.99c-2.69,2.73-6.01,4.09-9.97,4.09-2.3,0-4.38-.42-6.23-1.26-1.85-.84-3.33-1.95-4.44-3.34-1.11-1.38-1.95-2.88-2.52-4.5-.57-1.62-.85-3.28-.85-4.98Zm1.86,0c0,3.59,1.16,6.58,3.49,8.96,2.33,2.38,5.21,3.57,8.65,3.57s6.33-1.19,8.67-3.57c2.34-2.38,3.51-5.37,3.51-8.96s-1.14-6.58-3.41-8.96c-2.28-2.38-5.2-3.57-8.77-3.57s-6.32,1.18-8.65,3.55c-2.33,2.37-3.49,5.36-3.49,8.98Z" style="fill:#380063;"></path> <path d="M167.44,580.37h1.78c.16,1.86,.81,3.32,1.98,4.38,1.16,1.06,2.65,1.59,4.46,1.59,2.12,0,3.77-.58,4.95-1.73,1.18-1.15,1.76-2.73,1.76-4.75,0-1.89-.58-3.38-1.75-4.48-1.16-1.1-2.92-1.65-5.28-1.65h-2.56v-1.55h2.33c1.96,0,3.5-.49,4.62-1.47,1.11-.98,1.67-2.34,1.67-4.07,0-1.53-.51-2.79-1.53-3.78-1.02-1-2.33-1.49-3.94-1.49s-2.88,.39-3.84,1.18c-.96,.79-1.53,1.87-1.71,3.24h-1.78c.18-1.68,.91-3.1,2.17-4.25,1.27-1.15,3.01-1.73,5.24-1.73,2.09,0,3.81,.65,5.14,1.96,1.33,1.31,2,2.93,2,4.87,0,1.53-.39,2.81-1.16,3.86s-1.77,1.82-2.99,2.31v.08c1.58,.36,2.84,1.19,3.8,2.48,.96,1.29,1.44,2.83,1.44,4.62,0,2.12-.7,3.97-2.09,5.55-1.4,1.58-3.53,2.37-6.4,2.37-2.38,0-4.3-.69-5.78-2.06-1.47-1.37-2.31-3.19-2.52-5.47Z" style="fill:#380063;"></path> <path d="M189.17,587.08v-26.45h1.75v11.95h5.51c2.79,0,4.98,.6,6.57,1.8,1.59,1.2,2.39,3.02,2.39,5.45,0,4.84-2.9,7.25-8.69,7.25h-7.52Zm14.35-7.21c0-1.78-.6-3.19-1.78-4.21-1.19-1.02-2.96-1.53-5.31-1.53h-5.51v11.4h5.86c4.5,0,6.75-1.89,6.75-5.66Zm4.96,7.21v-26.45h1.75v26.45h-1.75Z" style="fill:#380063;"></path> <path d="M216.28,587.08v-26.45h14.58v1.55h-12.84v24.9h-1.75Z" style="fill:#380063;"></path> <path d="M234.54,587.08v-26.45h7.1c3.05,0,5.43,.65,7.14,1.96,1.71,1.31,2.56,3.3,2.56,5.99s-.79,4.64-2.39,5.99c-1.59,1.36-4.12,2.04-7.58,2.04h-5.08v10.47h-1.75Zm14.93-18.42c0-2.02-.64-3.6-1.92-4.75-1.28-1.15-3.2-1.73-5.76-1.73h-5.51v12.88h5.86c4.89,0,7.33-2.13,7.33-6.4Z" style="fill:#380063;"></path> <path d="M255.49,587.08v-26.45h1.75v11.95h5.51c2.79,0,4.98,.6,6.57,1.8,1.59,1.2,2.39,3.02,2.39,5.45,0,4.84-2.9,7.25-8.69,7.25h-7.52Zm14.35-7.21c0-1.78-.6-3.19-1.78-4.21-1.19-1.02-2.96-1.53-5.31-1.53h-5.51v11.4h5.86c4.5,0,6.75-1.89,6.75-5.66Zm4.96,7.21v-26.45h1.75v26.45h-1.75Z" style="fill:#380063;"></path> <path d="M310.45,587.08h-27.66v-26.45h1.75v24.9h11.21v-24.9h1.75v24.9h11.21v-24.9h1.75v26.45Z" style="fill:#380063;"></path> <path d="M342.92,587.08v-24.9h-15.48v24.9h-1.75v-26.45h18.97v26.45h-1.75Z" style="fill:#380063;"></path> <path d="M350.52,587.08v-26.45h7.1c3.05,0,5.43,.65,7.14,1.96,1.71,1.31,2.56,3.3,2.56,5.99s-.79,4.64-2.39,5.99c-1.59,1.36-4.12,2.04-7.58,2.04h-5.08v10.47h-1.75Zm14.93-18.42c0-2.02-.64-3.6-1.92-4.75-1.28-1.15-3.2-1.73-5.76-1.73h-5.51v12.88h5.86c4.89,0,7.33-2.13,7.33-6.4Z" style="fill:#380063;"></path> <path d="M390.43,563.18h-.12c-.21,.28-.73,1.03-1.57,2.25-.84,1.22-1.67,2.41-2.48,3.59-.81,1.18-1.52,2.18-2.11,3.01l-10.78,15.05h-1.51v-26.45h1.75v18.04c0,1.27-.03,3.14-.08,5.62h.16c.7-.98,1.76-2.51,3.2-4.58,1.43-2.07,2.5-3.58,3.2-4.54l10.43-14.54h1.59v26.45h-1.75v-17.49c0-2.84,.03-4.98,.08-6.4Z" style="fill:#380063;"></path> <path d="M397.02,580.37h1.78c.16,1.86,.81,3.32,1.98,4.38,1.16,1.06,2.65,1.59,4.46,1.59,2.12,0,3.77-.58,4.95-1.73,1.18-1.15,1.76-2.73,1.76-4.75,0-1.89-.58-3.38-1.75-4.48-1.16-1.1-2.92-1.65-5.28-1.65h-2.56v-1.55h2.33c1.96,0,3.5-.49,4.62-1.47,1.11-.98,1.67-2.34,1.67-4.07,0-1.53-.51-2.79-1.53-3.78-1.02-1-2.33-1.49-3.94-1.49s-2.88,.39-3.84,1.18c-.96,.79-1.53,1.87-1.71,3.24h-1.78c.18-1.68,.91-3.1,2.17-4.25,1.27-1.15,3.01-1.73,5.24-1.73,2.09,0,3.81,.65,5.14,1.96,1.33,1.31,2,2.93,2,4.87,0,1.53-.39,2.81-1.16,3.86s-1.77,1.82-2.99,2.31v.08c1.58,.36,2.84,1.19,3.8,2.48,.96,1.29,1.44,2.83,1.44,4.62,0,2.12-.7,3.97-2.09,5.55-1.4,1.58-3.53,2.37-6.4,2.37-2.38,0-4.3-.69-5.78-2.06-1.47-1.37-2.31-3.19-2.52-5.47Z" style="fill:#380063;"></path> <path d="M417.54,573.85c0-3.88,1.34-7.19,4.01-9.95,2.68-2.75,6.02-4.13,10.03-4.13s7.57,1.38,10.14,4.13c2.57,2.75,3.86,6.07,3.86,9.95s-1.34,7.26-4.03,9.99c-2.69,2.73-6.01,4.09-9.97,4.09-2.3,0-4.38-.42-6.23-1.26-1.85-.84-3.33-1.95-4.44-3.34-1.11-1.38-1.95-2.88-2.52-4.5-.57-1.62-.85-3.28-.85-4.98Zm1.86,0c0,3.59,1.16,6.58,3.49,8.96,2.33,2.38,5.21,3.57,8.65,3.57s6.33-1.19,8.67-3.57c2.34-2.38,3.51-5.37,3.51-8.96s-1.14-6.58-3.41-8.96c-2.28-2.38-5.2-3.57-8.77-3.57s-6.32,1.18-8.65,3.55c-2.33,2.37-3.49,5.36-3.49,8.98Z" style="fill:#380063;"></path> <path d="M450.04,587.08v-26.45h6.36c2.53,0,4.52,.54,5.95,1.63,1.43,1.09,2.15,2.7,2.15,4.85,0,2.84-1.42,4.81-4.27,5.9v.08c1.99,.23,3.52,.97,4.6,2.21,1.07,1.24,1.61,2.74,1.61,4.5,0,2.38-.82,4.19-2.46,5.43-1.64,1.24-3.76,1.86-6.34,1.86h-7.6Zm12.61-19.82c0-1.63-.45-2.88-1.36-3.76-.91-.88-2.43-1.32-4.58-1.32h-4.89v10.4h4.54c1.96,0,3.5-.47,4.62-1.42,1.11-.94,1.67-2.24,1.67-3.9Zm1.94,12.64c0-1.81-.61-3.23-1.82-4.25-1.22-1.02-2.92-1.53-5.12-1.53h-5.82v11.4h6.4c2.09,0,3.68-.51,4.75-1.53s1.61-2.39,1.61-4.09Z" style="fill:#380063;"></path> </g> <g> <path d="M79.93,441.05v-27.94h5.56c4.66,0,8.36-1.85,11.11-5.56,2.75-3.7,4.48-10.21,5.2-19.53l5.2-69.71h92.47v94.8h18.82v27.94H79.93Zm87.45-27.94v-67.38h-31.36l-3.23,42.29c-.96,12.07-3.4,20.43-7.35,25.09h41.93Z" style="fill:#380063;"></path> <path d="M310.02,318.31v27.42h-44.62v19h43.01v25.63h-43.01v22.76h46.41v27.42h-78.49v-122.21h76.7Z" style="fill:#380063;"></path> <path d="M401.41,440.53v-49.28h-37.99v49.28h-32.08v-122.21h32.08v45.52h37.99v-45.52h32.08v122.21h-32.08Z" style="fill:#380063;"></path> <path d="M454.99,440.53v-122.21h32.08v45.52h13.08c14.22,0,25.12,3.44,32.7,10.3,7.59,6.87,11.38,16.1,11.38,27.69s-4.09,21.09-12.27,28.13c-8.18,7.05-18.97,10.57-32.34,10.57h-44.62Zm56.99-38.71c0-4.66-1.5-8.33-4.48-11.02-2.99-2.69-7.05-4.03-12.19-4.03h-8.24v30.82h8.24c5.26,0,9.35-1.34,12.27-4.03,2.93-2.69,4.39-6.6,4.39-11.74Z" style="fill:#380063;"></path> <g> <path d="M191.88,468.1c0-5.46,1.9-10.14,5.69-14.06,3.79-3.92,8.52-5.88,14.2-5.88s10.72,1.96,14.36,5.88c3.64,3.92,5.46,8.61,5.46,14.06s-1.9,10.24-5.71,14.12c-3.81,3.88-8.51,5.82-14.12,5.82-3.26,0-6.2-.6-8.82-1.78s-4.72-2.76-6.29-4.72c-1.57-1.96-2.76-4.08-3.57-6.37-.81-2.29-1.21-4.64-1.21-7.06Zm4.72,0c0,4.54,1.45,8.32,4.34,11.34,2.89,3.02,6.48,4.53,10.77,4.53s7.88-1.51,10.79-4.53c2.91-3.02,4.37-6.8,4.37-11.34s-1.41-8.32-4.23-11.34c-2.82-3.02-6.46-4.53-10.93-4.53s-7.87,1.5-10.77,4.5c-2.89,3-4.34,6.79-4.34,11.37Z" style="fill:#380063;"></path> <path d="M242.09,486.83v-33.29h-9.83v-4.17h24.22v4.17h-9.83v33.29h-4.56Z" style="fill:#380063;"></path> <path d="M283.89,486.83l-18.57-18.9v18.9h-4.56v-37.46h4.56v18.18l18.07-18.18h5.93l-18.51,18.18,19.28,19.28h-6.21Z" style="fill:#380063;"></path> <path d="M293,486.83v-37.46h10.88c4.17,0,7.51,.97,10,2.91,2.49,1.94,3.73,4.82,3.73,8.62s-1.15,6.56-3.46,8.6c-2.31,2.03-5.86,3.05-10.66,3.05h-5.93v14.28h-4.56Zm19.94-25.82c0-2.31-.71-4.13-2.14-5.47-1.43-1.34-3.61-2-6.54-2h-6.7v14.89h6.54c5.9,0,8.84-2.47,8.84-7.42Z" style="fill:#380063;"></path> <path d="M322.12,486.83v-37.46h4.56v15.98h6.21c3.63,0,6.61,.93,8.95,2.77,2.34,1.85,3.52,4.48,3.52,7.88s-1.17,6.06-3.52,7.96c-2.34,1.91-5.33,2.86-8.95,2.86h-10.77Zm18.51-10.82c0-2.05-.71-3.64-2.11-4.78-1.41-1.13-3.43-1.7-6.07-1.7h-5.77v13.13h6.54c2.45,0,4.3-.6,5.55-1.81,1.25-1.21,1.87-2.82,1.87-4.83Zm9.89,10.82v-37.46h4.56v37.46h-4.56Z" style="fill:#380063;"></path> <path d="M369.19,486.83v-33.29h-9.83v-4.17h24.22v4.17h-9.83v33.29h-4.56Z" style="fill:#380063;"></path> <path d="M387.86,486.83v-37.46h4.56v15.98h6.21c3.63,0,6.61,.93,8.95,2.77s3.52,4.48,3.52,7.88-1.17,6.06-3.52,7.96c-2.34,1.91-5.33,2.86-8.95,2.86h-10.77Zm18.51-10.82c0-2.05-.71-3.64-2.11-4.78-1.41-1.13-3.43-1.7-6.07-1.7h-5.77v13.13h6.54c2.45,0,4.3-.6,5.55-1.81,1.25-1.21,1.87-2.82,1.87-4.83Zm9.89,10.82v-37.46h4.56v37.46h-4.56Z" style="fill:#380063;"></path> <path d="M430.65,449.37l6.65,10.27c.91,1.39,1.79,2.82,2.64,4.29h.16c.77-1.39,1.65-2.86,2.64-4.39l6.54-10.16h5l-11.97,17.91,12.52,19.56h-5.33l-6.7-10.77c-.33-.55-.84-1.38-1.54-2.5-.7-1.12-1.21-1.95-1.54-2.5h-.11l-3.13,5.11-6.59,10.66h-5.05l12.47-19.33-12.03-18.13h5.38Z" style="fill:#380063;"></path> <path d="M482.23,496.44v-13.79h.93c1.76,0,3.34-.9,4.75-2.69,1.41-1.79,2.26-4.82,2.55-9.06l1.54-21.53h23.73v33.29h4.56v13.79h-4.56v-9.61h-28.95v9.61h-4.56Zm28.95-13.79v-29.11h-14.94l-1.21,17.36c-.37,5.53-1.7,9.45-4.01,11.76h20.16Z" style="fill:#380063;"></path> <path d="M525.46,486.83v-37.46h8.29c3.84,0,6.85,.86,9.01,2.58s3.24,4.05,3.24,6.98c0,3.84-2.03,6.5-6.1,7.96v.11c2.82,.29,4.99,1.32,6.51,3.08,1.52,1.76,2.28,3.9,2.28,6.43,0,3.37-1.16,5.93-3.49,7.69-2.33,1.76-5.32,2.64-8.98,2.64h-10.77Zm15.87-27.52c0-1.94-.7-3.39-2.09-4.34-1.39-.95-3.22-1.43-5.49-1.43h-3.73v11.81h4.06c2.23,0,4-.56,5.3-1.68,1.3-1.12,1.95-2.57,1.95-4.37Zm2.64,16.86c0-2.09-.71-3.72-2.14-4.89s-3.44-1.76-6.04-1.76h-5.77v13.13h6.54c2.45,0,4.3-.59,5.55-1.76,1.24-1.17,1.87-2.75,1.87-4.72Z" style="fill:#380063;"></path> <path d="M575.11,449.37v4.17h-15.98v11.81h15.38v4.17h-15.38v13.13h16.59v4.17h-21.15v-37.46h20.54Z" style="fill:#380063;"></path> <path d="M582.75,486.83v-37.46h10.88c4.17,0,7.51,.97,10,2.91,2.49,1.94,3.73,4.82,3.73,8.62s-1.15,6.56-3.46,8.6c-2.31,2.03-5.86,3.05-10.66,3.05h-5.93v14.28h-4.56Zm19.94-25.82c0-2.31-.71-4.13-2.14-5.47-1.43-1.34-3.61-2-6.54-2h-6.7v14.89h6.54c5.9,0,8.84-2.47,8.84-7.42Z" style="fill:#380063;"></path> <path d="M632.4,449.37v4.17h-15.98v11.81h15.38v4.17h-15.38v13.13h16.59v4.17h-21.15v-37.46h20.54Z" style="fill:#380063;"></path> <path d="M640.04,449.37h4.56v22.36c0,3.88-.04,6.54-.11,7.96h.11c.66-1.21,3.3-5.31,7.91-12.3l11.92-18.02h4.28v37.46h-4.56v-22.41c0-2.53,.04-5.14,.11-7.86h-.11c-.62,1.17-3.26,5.26-7.91,12.25l-11.92,18.02h-4.28v-37.46Zm19.23-10.82h3.63c-.11,2.12-.94,3.86-2.5,5.22-1.56,1.35-3.58,2.03-6.07,2.03-2.67,0-4.75-.69-6.23-2.06-1.48-1.37-2.26-3.1-2.33-5.19h3.63c.07,1.1,.54,1.97,1.4,2.61,.86,.64,2.04,.96,3.54,.96s2.73-.34,3.57-1.02c.84-.68,1.3-1.53,1.37-2.55Z" style="fill:#380063;"></path> </g> </g> </svg> 