<?xml version="1.0" encoding="UTF-8"?> <!-- Generator: Adobe Illustrator 25.4.1, SVG Export Plug-In . SVG Version: 6.00 Build 0) --> <svg xmlns="http://www.w3.org/2000/svg" xmlns:xlink="http://www.w3.org/1999/xlink" x="0px" y="0px" viewBox="0 0 48 48" style="enable-background:new 0 0 48 48;" xml:space="preserve"> <style type="text/css"> .st0{fill-rule:evenodd;clip-rule:evenodd;fill:#FFFFFF;} .st1{fill:#FFFFFF;} </style> <g xmlns:sketch="http://www.bohemiancoding.com/sketch/ns" id="Layer_1"> <desc>Created with Sketch.</desc> <path id="Shape" sketch:type="MSShapeGroup" class="st0" d="M24,0C10.8,0,0,10.8,0,24c0,13.2,10.8,24,24,24s24-10.8,24-24 C48,10.8,37.2,0,24,0L24,0z M24,1c12.7,0,23,10.3,23,23c0,12.7-10.3,23-23,23S1,36.7,1,24C1,11.3,11.3,1,24,1L24,1z"></path> </g> <g id="Layer_2"> <path class="st1" d="M37.4,19.4L24.2,15c-0.2,0-0.3,0-0.5,0l-13.2,4.4c-0.3,0.1-0.5,0.4-0.5,0.7s0.2,0.6,0.5,0.7l3.9,1.3V26 c0,0.2,0.1,0.4,0.2,0.5c0.1,0.1,3.2,3.1,9.3,3.1c2.2,0,4.3-0.4,6.1-1.2c0.4-0.2,0.5-0.6,0.4-1c-0.2-0.4-0.6-0.5-1-0.4 c-1.7,0.7-3.6,1.1-5.6,1.1c-2.8,0-4.9-0.7-6.2-1.4c-0.9-0.5-1.6-0.9-1.9-1.2v-3l7.8,2.6c0.1,0,0.2,0,0.2,0c0.1,0,0.2,0,0.2,0 l7.8-2.6v1.3c-0.9,0.3-1.5,1.1-1.5,2.1c0,0.9,0.5,1.7,1.3,2l-1.3,5.1c-0.1,0.2,0,0.5,0.1,0.6c0.1,0.2,0.4,0.3,0.6,0.3h2.9 c0.2,0,0.4-0.1,0.6-0.3c0.1-0.2,0.2-0.4,0.1-0.6L33.7,28c0.8-0.3,1.3-1.1,1.3-2c0-1-0.6-1.8-1.5-2.1v-1.8l3.9-1.3 c0.3-0.1,0.5-0.4,0.5-0.7C37.9,19.8,37.7,19.5,37.4,19.4L37.4,19.4z M32.8,25.2c0.4,0,0.7,0.3,0.7,0.7c0,0.4-0.3,0.7-0.7,0.7 c-0.4,0-0.7-0.3-0.7-0.7C32,25.6,32.4,25.2,32.8,25.2z M32.3,32.5l0.5-2.1l0.5,2.1H32.3L32.3,32.5z M32.7,20.8l-8.6-1.4 c-0.4-0.1-0.8,0.2-0.8,0.6c-0.1,0.4,0.2,0.8,0.6,0.8l5.9,1L24,23.7l-10.9-3.6L24,16.5l10.9,3.6L32.7,20.8L32.7,20.8z"></path> </g> </svg> 