<?xml version="1.0" encoding="UTF-8"?> <svg xmlns="http://www.w3.org/2000/svg" xmlns:xlink="http://www.w3.org/1999/xlink" viewBox="0 0 1600.53 187"> <defs> <linearGradient id="linear-gradient" x1="334.51" y1="851.7" x2="348.16" y2="838.05" gradientTransform="translate(648.06 469.21) rotate(-90)" gradientUnits="userSpaceOnUse"> <stop offset="0" stop-color="#66dac7"></stop> <stop offset="1" stop-color="#00c2a2"></stop> </linearGradient> <linearGradient id="linear-gradient-2" x1="836.29" y1="-1003.77" x2="849.94" y2="-1017.42" gradientTransform="translate(523.24 -701.58) rotate(90)" gradientUnits="userSpaceOnUse"> <stop offset="0" stop-color="#66baac"></stop> <stop offset="1" stop-color="#008c75"></stop> </linearGradient> <linearGradient id="linear-gradient-3" x1="1527" y1="107.43" x2="1540.66" y2="93.78" gradientTransform="matrix(1, 0, 0, 1, 0, 0)" xlink:href="#linear-gradient"></linearGradient> <linearGradient id="linear-gradient-4" x1="1286.43" y1="441.27" x2="1300.08" y2="427.62" gradientTransform="translate(121.91 226.33) rotate(-24.7)" xlink:href="#linear-gradient"></linearGradient> <linearGradient id="linear-gradient-5" x1="1554.31" y1="134.71" x2="1567.96" y2="121.06" gradientUnits="userSpaceOnUse"> <stop offset="0" stop-color="#66a699"></stop> <stop offset="1" stop-color="#006b55"></stop> </linearGradient> <linearGradient id="linear-gradient-6" x1="3289.45" y1="1022.45" x2="3303.1" y2="1008.8" gradientTransform="translate(-1799.7 1309.05) rotate(-37.31)" xlink:href="#linear-gradient-5"></linearGradient> <linearGradient id="linear-gradient-7" x1="914.55" y1="-1032.08" x2="928.2" y2="-1045.73" gradientTransform="translate(522.23 -807.12) rotate(90)" xlink:href="#linear-gradient-2"></linearGradient> <linearGradient id="linear-gradient-8" x1="1833.21" y1="-3106.08" x2="1846.86" y2="-3119.73" gradientTransform="translate(-2145.95 -518.2) rotate(68.87)" xlink:href="#linear-gradient-2"></linearGradient> <linearGradient id="linear-gradient-9" x1="1010.26" y1="-284.46" x2="1023.92" y2="-298.12" gradientTransform="translate(1692.33 -982.7) rotate(115.59)" xlink:href="#linear-gradient-2"></linearGradient> <linearGradient id="linear-gradient-10" x1="1554.31" y1="80.3" x2="1567.96" y2="66.65" gradientUnits="userSpaceOnUse"> <stop offset="0" stop-color="#ff66bf"></stop> <stop offset="1" stop-color="#ff0095"></stop> </linearGradient> </defs> <g style="isolation:isolate;"> <g id="Layer_2"> <g id="fon_photo"> <rect width="1600.53" height="187" style="fill:#006b55;"></rect> </g> <g id="cubes_"> <g> <g> <g> <rect x="1486.1" y="121.06" width="27.3" height="27.3" transform="translate(1365.05 1634.46) rotate(-90)" style="fill:#00c2a2; mix-blend-mode:screen;"></rect> <rect x="1486.1" y="121.06" width="27.3" height="27.3" transform="translate(1365.05 1634.46) rotate(-90)" style="fill:#00c2a2; mix-blend-mode:screen;"></rect> <polygon points="1486.1 148.36 1486.1 121.06 1513.41 121.06 1486.1 148.36" style="fill:url(#linear-gradient); mix-blend-mode:screen;"></polygon> </g> <g> <rect x="1513.35" y="121.06" width="27.3" height="27.3" transform="translate(1661.71 -1392.3) rotate(90)" style="fill:#008c75; mix-blend-mode:screen;"></rect> <rect x="1513.35" y="121.06" width="27.3" height="27.3" transform="translate(1661.71 -1392.3) rotate(90)" style="fill:#008c75; mix-blend-mode:screen;"></rect> <polygon points="1540.66 121.06 1540.66 148.36 1513.35 148.36 1540.66 121.06" style="fill:url(#linear-gradient-2); mix-blend-mode:screen;"></polygon> </g> <g> <rect x="1513.35" y="93.78" width="27.3" height="27.3" style="fill:#00c2a2; mix-blend-mode:screen;"></rect> <rect x="1513.35" y="93.78" width="27.3" height="27.3" style="fill:#00c2a2; mix-blend-mode:screen;"></rect> <polygon points="1513.35 93.78 1540.66 93.78 1540.66 121.09 1513.35 93.78" style="fill:url(#linear-gradient-3); mix-blend-mode:screen;"></polygon> </g> <g> <rect x="1461.39" y="76.09" width="27.3" height="27.3" transform="translate(97.43 624.52) rotate(-24.7)" style="fill:#00c2a2; mix-blend-mode:screen;"></rect> <rect x="1461.39" y="76.09" width="27.3" height="27.3" transform="translate(97.43 624.52) rotate(-24.7)" style="fill:#00c2a2; mix-blend-mode:screen;"></rect> <polygon points="1456.93 83.04 1481.74 71.63 1493.15 96.44 1456.93 83.04" style="fill:url(#linear-gradient-4); mix-blend-mode:screen;"></polygon> </g> <g> <rect x="1540.66" y="121.06" width="27.3" height="27.3" style="fill:#006b55; mix-blend-mode:screen;"></rect> <rect x="1540.66" y="121.06" width="27.3" height="27.3" style="fill:#006b55; mix-blend-mode:screen;"></rect> <polygon points="1540.66 121.06 1567.96 121.06 1567.96 148.36 1540.66 121.06" style="fill:url(#linear-gradient-5); mix-blend-mode:screen;"></polygon> </g> <g> <rect x="1422.68" y="114.71" width="27.3" height="27.3" transform="translate(216.14 896.9) rotate(-37.31)" style="fill:#006b55; mix-blend-mode:screen;"></rect> <rect x="1422.68" y="114.71" width="27.3" height="27.3" transform="translate(216.14 896.9) rotate(-37.31)" style="fill:#006b55; mix-blend-mode:screen;"></rect> <polygon points="1417.19 125.78 1438.91 109.23 1455.46 130.94 1417.19 125.78" style="fill:url(#linear-gradient-6); mix-blend-mode:screen;"></polygon> </g> <g> <rect x="1540.66" y="93.78" width="27.3" height="27.3" transform="translate(1661.74 -1446.87) rotate(90)" style="fill:#008c75; mix-blend-mode:screen;"></rect> <rect x="1540.66" y="93.78" width="27.3" height="27.3" transform="translate(1661.74 -1446.87) rotate(90)" style="fill:#008c75; mix-blend-mode:screen;"></rect> <polygon points="1567.96 93.78 1567.96 121.09 1540.66 121.09 1567.96 93.78" style="fill:url(#linear-gradient-7); mix-blend-mode:screen;"></polygon> </g> <g> <rect x="1398.49" y="58.37" width="27.3" height="27.3" transform="translate(970.25 -1271.13) rotate(68.87)" style="fill:#008c75; mix-blend-mode:screen;"></rect> <rect x="1398.49" y="58.37" width="27.3" height="27.3" transform="translate(970.25 -1271.13) rotate(68.87)" style="fill:#008c75; mix-blend-mode:screen;"></rect> <polygon points="1419.96 54.37 1429.8 79.84 1404.33 89.68 1419.96 54.37" style="fill:url(#linear-gradient-8); mix-blend-mode:screen;"></polygon> </g> <g> <rect x="1498.81" y="37.67" width="27.3" height="27.3" transform="translate(2212.1 -1290.57) rotate(115.59)" style="fill:#008c75; mix-blend-mode:screen;"></rect> <rect x="1498.81" y="37.67" width="27.3" height="27.3" transform="translate(2212.1 -1290.57) rotate(115.59)" style="fill:#008c75; mix-blend-mode:screen;"></rect> <polygon points="1530.67 44.9 1518.87 69.53 1494.25 57.73 1530.67 44.9" style="fill:url(#linear-gradient-9); mix-blend-mode:screen;"></polygon> </g> </g> <g> <rect x="1540.66" y="66.65" width="27.3" height="27.3" style="fill:#ff0095;"></rect> <polygon points="1540.66 66.65 1567.96 66.65 1567.96 93.95 1540.66 66.65" style="fill:url(#linear-gradient-10);"></polygon> </g> </g> </g> </g> </g> </svg> 