<?xml version="1.0" encoding="UTF-8"?> <svg xmlns="http://www.w3.org/2000/svg" viewBox="0 0 261.57 41.97"> <defs> <style>.cls-1,.cls-2{fill-rule:evenodd;}.cls-2{fill:red;}</style> </defs> <g id="Layer_2" data-name="Layer 2"> <g id="Layer_1-2" data-name="Layer 1"> <polygon class="cls-1" points="28.94 10.96 28.94 41.93 20.27 41.93 20.27 20.38 14.24 41.93 9.22 41.93 3.02 20.73 3.02 41.93 0 41.93 0 10.96 9.13 10.96 14.43 29.65 19.73 10.96 28.94 10.96"></polygon> <polygon class="cls-1" points="54.16 10.93 54.16 14.03 43.06 14.03 43.06 23.41 52.39 23.41 52.39 26.51 43.06 26.51 43.06 38.8 56.05 38.8 56.05 41.9 34.08 41.9 34.08 10.93 54.16 10.93"></polygon> <path class="cls-2" d="M88,12l-5.46,1a14,14,0,0,0,.36-2.73q0-7.06-8.56-7.06-6.76,0-6.76,4.92c0,2.47,2.46,4.52,7.56,6.26q14.56,5,14.57,14.78a11.55,11.55,0,0,1-4.09,9.24,16.29,16.29,0,0,1-10.89,3.47q-15,0-15-11.64a23.19,23.19,0,0,1,.16-2.35l5.65-1.23a19.39,19.39,0,0,0-.65,4.48c0,5,2.87,7.53,8.62,7.53,4.61,0,6.92-1.82,6.92-5.42q0-4-8.27-7.09-11.94-4.39-12-14a10.86,10.86,0,0,1,4-8.78A15.75,15.75,0,0,1,74.67,0Q88,0,88,12"></path> <path class="cls-2" d="M111,0Q128.64,0,128.64,21t-18,20.93q-18,0-18-21.39Q92.65.05,111,0m-.32,3.23c-2.22,0-3.7,1.23-4.5,3.69S105,14.07,105,21s.38,11.6,1.17,14,2.28,3.7,4.5,3.7,3.69-1.23,4.47-3.7,1.23-7.12,1.23-14S116,9.42,115.13,7s-2.27-3.7-4.47-3.7"></path> <path class="cls-1" d="M132,42V11h13.37q11.35,0,11.36,9.1t-12.65,9.19H141V42Zm9-15.56h2c3.26,0,4.93-2.15,4.93-6.49,0-4.06-1.65-6.08-4.93-6.07h-2Z"></path> <path class="cls-1" d="M159.6,41.92v-31h13.31a14.21,14.21,0,0,1,8.32,2.19,6.83,6.83,0,0,1,3.1,5.87c0,3.69-2.23,6.15-6.68,7.32a9.1,9.1,0,0,1,4.45,2.8A13.82,13.82,0,0,1,183.47,35c.28,3.5.86,5.79,1.75,6.91h-9.76a13.59,13.59,0,0,1-.93-5.39V32.38q0-5.36-4.33-5.35h-1.54V41.92Zm9-17.45h1.81c3.4,0,5.11-1.79,5.11-5.35s-1.71-5.32-5.11-5.32h-1.81Z"></path> <path class="cls-1" d="M201.05,9.87q13.56,0,13.55,16t-13.77,16q-13.77,0-13.78-16.38,0-15.65,14-15.65m-.25,2.46a3.48,3.48,0,0,0-3.45,2.8q-.88,2.8-.88,10.75t.88,10.74a3.51,3.51,0,0,0,6.88,0q.9-2.79.9-10.74t-.9-10.74a3.46,3.46,0,0,0-3.43-2.81"></path> <polygon class="cls-1" points="237.94 10.98 237.94 14.08 226.71 14.08 226.71 24.42 236.24 24.42 236.24 27.52 226.71 27.52 226.71 41.95 217.72 41.95 217.72 10.98 237.94 10.98"></polygon> <polygon class="cls-1" points="261.57 10.98 261.57 14.08 250.34 14.08 250.34 24.42 259.86 24.42 259.86 27.52 250.34 27.52 250.34 41.95 241.35 41.95 241.35 10.98 261.57 10.98"></polygon> </g> </g> </svg> 