<?xml version="1.0" encoding="UTF-8"?> <svg xmlns="http://www.w3.org/2000/svg" xmlns:xlink="http://www.w3.org/1999/xlink" viewBox="0 0 109.16 81.84"> <defs> <linearGradient id="linear-gradient" x1="-3501.89" y1="1726.45" x2="-3488.23" y2="1712.8" gradientTransform="translate(-1685.49 -3433.7) rotate(-90)" gradientUnits="userSpaceOnUse"> <stop offset="0" stop-color="#66dac7"></stop> <stop offset="1" stop-color="#00c2a2"></stop> </linearGradient> <linearGradient id="linear-gradient-2" x1="-1563.78" y1="-3447.88" x2="-1550.13" y2="-3461.53" gradientTransform="translate(-3379.67 1631.97) rotate(90)" gradientUnits="userSpaceOnUse"> <stop offset="0" stop-color="#66baac"></stop> <stop offset="1" stop-color="#008c75"></stop> </linearGradient> <linearGradient id="linear-gradient-3" x1="68.2" y1="40.92" x2="81.86" y2="27.27" gradientTransform="matrix(1, 0, 0, 1, 0, 0)" xlink:href="#linear-gradient"></linearGradient> <linearGradient id="linear-gradient-4" x1="40.96" y1="40.92" x2="54.61" y2="27.27" gradientTransform="matrix(1, 0, 0, 1, 0, 0)" xlink:href="#linear-gradient"></linearGradient> <linearGradient id="linear-gradient-5" x1="95.51" y1="68.19" x2="109.16" y2="54.54" gradientUnits="userSpaceOnUse"> <stop offset="0" stop-color="#66a699"></stop> <stop offset="1" stop-color="#006b55"></stop> </linearGradient> <linearGradient id="linear-gradient-6" x1="13.65" y1="68.19" x2="27.3" y2="54.54" xlink:href="#linear-gradient-5"></linearGradient> <linearGradient id="linear-gradient-7" x1="-1485.52" y1="-3476.19" x2="-1471.87" y2="-3489.84" gradientTransform="translate(-3380.68 1526.44) rotate(90)" xlink:href="#linear-gradient-2"></linearGradient> <linearGradient id="linear-gradient-8" x1="-1485.52" y1="-3394.33" x2="-1471.87" y2="-3407.99" gradientTransform="translate(-3380.68 1526.44) rotate(90)" xlink:href="#linear-gradient-2"></linearGradient> <linearGradient id="linear-gradient-9" x1="-1512.78" y1="-3448.88" x2="-1499.13" y2="-3462.54" gradientTransform="translate(-3380.68 1526.44) rotate(90)" xlink:href="#linear-gradient-2"></linearGradient> <linearGradient id="linear-gradient-10" x1="95.51" y1="13.78" x2="109.16" y2=".13" gradientUnits="userSpaceOnUse"> <stop offset="0" stop-color="#ff66bf"></stop> <stop offset="1" stop-color="#ff0095"></stop> </linearGradient> </defs> <g style="isolation:isolate;"> <g id="Layer_2"> <g id="cubes_"> <g> <g> <rect x="27.3" y="54.54" width="27.3" height="27.3" transform="translate(-27.24 109.15) rotate(-90)" style="fill:#00c2a2; mix-blend-mode:screen;"></rect> <rect x="27.3" y="54.54" width="27.3" height="27.3" transform="translate(-27.24 109.15) rotate(-90)" style="fill:#00c2a2; mix-blend-mode:screen;"></rect> <polygon points="27.3 81.84 27.3 54.54 54.61 54.54 27.3 81.84" style="fill:url(#linear-gradient); mix-blend-mode:screen;"></polygon> </g> <g> <rect x="54.55" y="54.54" width="27.3" height="27.3" transform="translate(136.39 -.01) rotate(90)" style="fill:#008c75; mix-blend-mode:screen;"></rect> <rect x="54.55" y="54.54" width="27.3" height="27.3" transform="translate(136.39 -.01) rotate(90)" style="fill:#008c75; mix-blend-mode:screen;"></rect> <polygon points="81.86 54.54 81.86 81.84 54.55 81.84 81.86 54.54" style="fill:url(#linear-gradient-2); mix-blend-mode:screen;"></polygon> </g> <g> <rect x="54.55" y="27.27" width="27.3" height="27.3" style="fill:#00c2a2; mix-blend-mode:screen;"></rect> <rect x="54.55" y="27.27" width="27.3" height="27.3" style="fill:#00c2a2; mix-blend-mode:screen;"></rect> <polygon points="54.55 27.27 81.86 27.27 81.86 54.57 54.55 27.27" style="fill:url(#linear-gradient-3); mix-blend-mode:screen;"></polygon> </g> <g> <rect x="27.3" y="27.27" width="27.3" height="27.3" style="fill:#00c2a2; mix-blend-mode:screen;"></rect> <rect x="27.3" y="27.27" width="27.3" height="27.3" style="fill:#00c2a2; mix-blend-mode:screen;"></rect> <polygon points="27.3 27.27 54.61 27.27 54.61 54.57 27.3 27.27" style="fill:url(#linear-gradient-4); mix-blend-mode:screen;"></polygon> </g> <g> <rect x="81.86" y="54.54" width="27.3" height="27.3" style="fill:#006b55; mix-blend-mode:screen;"></rect> <rect x="81.86" y="54.54" width="27.3" height="27.3" style="fill:#006b55; mix-blend-mode:screen;"></rect> <polygon points="81.86 54.54 109.16 54.54 109.16 81.84 81.86 54.54" style="fill:url(#linear-gradient-5); mix-blend-mode:screen;"></polygon> </g> <g> <rect x="0" y="54.54" width="27.3" height="27.3" style="fill:#006b55; mix-blend-mode:screen;"></rect> <rect x="0" y="54.54" width="27.3" height="27.3" style="fill:#006b55; mix-blend-mode:screen;"></rect> <polygon points="0 54.54 27.3 54.54 27.3 81.84 0 54.54" style="fill:url(#linear-gradient-6); mix-blend-mode:screen;"></polygon> </g> <g> <rect x="81.86" y="27.27" width="27.3" height="27.3" transform="translate(136.42 -54.59) rotate(90)" style="fill:#008c75; mix-blend-mode:screen;"></rect> <rect x="81.86" y="27.27" width="27.3" height="27.3" transform="translate(136.42 -54.59) rotate(90)" style="fill:#008c75; mix-blend-mode:screen;"></rect> <polygon points="109.16 27.27 109.16 54.57 81.86 54.57 109.16 27.27" style="fill:url(#linear-gradient-7); mix-blend-mode:screen;"></polygon> </g> <g> <rect x="0" y="27.27" width="27.3" height="27.3" transform="translate(54.57 27.27) rotate(90)" style="fill:#008c75; mix-blend-mode:screen;"></rect> <rect x="0" y="27.27" width="27.3" height="27.3" transform="translate(54.57 27.27) rotate(90)" style="fill:#008c75; mix-blend-mode:screen;"></rect> <polygon points="27.3 27.27 27.3 54.57 0 54.57 27.3 27.27" style="fill:url(#linear-gradient-8); mix-blend-mode:screen;"></polygon> </g> <g> <rect x="54.55" y="0" width="27.3" height="27.3" transform="translate(81.86 -54.55) rotate(90)" style="fill:#008c75; mix-blend-mode:screen;"></rect> <rect x="54.55" y="0" width="27.3" height="27.3" transform="translate(81.86 -54.55) rotate(90)" style="fill:#008c75; mix-blend-mode:screen;"></rect> <polygon points="81.86 0 81.86 27.3 54.55 27.3 81.86 0" style="fill:url(#linear-gradient-9); mix-blend-mode:screen;"></polygon> </g> <g> <rect x="81.86" y=".13" width="27.3" height="27.3" style="fill:#ff0095;"></rect> <polygon points="81.86 .13 109.16 .13 109.16 27.43 81.86 .13" style="fill:url(#linear-gradient-10);"></polygon> </g> </g> </g> </g> </g> </svg> 