<?xml version="1.0" encoding="UTF-8"?> <!-- Generator: Adobe Illustrator 25.4.1, SVG Export Plug-In . SVG Version: 6.00 Build 0) --> <svg xmlns="http://www.w3.org/2000/svg" xmlns:xlink="http://www.w3.org/1999/xlink" id="Layer_1" x="0px" y="0px" viewBox="0 0 93.6 89.1" style="enable-background:new 0 0 93.6 89.1;" xml:space="preserve"> <style type="text/css"> .st0{fill:#6E00BD;} </style> <g id="Layer_2_00000157999460015714742650000018445945307923372477_"> <g id="Layer_1-2"> <path class="st0" d="M84.9,74.3H53.1v-4.7h31.7c2.2,0,4-1.8,4-4V12.7c0-2.2-1.8-4-4-4H21.4c-2.2,0-4,1.8-4,4V36h-4.7V12.7 c0-4.8,3.9-8.7,8.7-8.7c0,0,0,0,0,0h63.5c4.8,0,8.7,3.9,8.7,8.7v52.9C93.6,70.4,89.7,74.3,84.9,74.3z"></path> <path class="st0" d="M93.6,23.5H12.7V11c0-3.9,3.1-7,7-7l0,0h66.8c3.9,0,7,3.1,7,7L93.6,23.5z M17.4,18.8h71.5V11 c0-1.3-1-2.3-2.3-2.3c0,0,0,0,0,0H19.7c-1.3,0-2.3,1-2.3,2.3c0,0,0,0,0,0V18.8z"></path> <rect x="25.4" class="st0" width="4.7" height="12.7"></rect> <rect x="38.1" class="st0" width="4.7" height="12.7"></rect> <rect x="50.8" class="st0" width="4.7" height="12.7"></rect> <rect x="63.5" class="st0" width="4.7" height="12.7"></rect> <rect x="76.2" class="st0" width="4.7" height="12.7"></rect> <path class="st0" d="M25.6,89.1C11.5,89.1,0,77.6,0,63.5s11.5-25.6,25.6-25.6s25.6,11.5,25.6,25.6c0,0,0,0,0,0 C51.2,77.6,39.8,89.1,25.6,89.1z M25.6,42.5c-11.6,0-20.9,9.4-20.9,20.9s9.4,20.9,20.9,20.9s20.9-9.4,20.9-20.9 C46.5,51.9,37.2,42.6,25.6,42.5z"></path> <polygon class="st0" points="38.3,65.8 23.3,65.8 23.3,48.7 28,48.7 28,61.2 38.3,61.2 "></polygon> </g> </g> </svg> 