<?xml version="1.0" encoding="UTF-8"?> <svg xmlns="http://www.w3.org/2000/svg" viewBox="0 0 441.63 245.52"> <defs> <style>.cls-1{fill:#7dc49c;}.cls-2{fill:#fff;}</style> </defs> <g id="Layer_2" data-name="Layer 2"> <g id="Layer_1-2" data-name="Layer 1"> <path class="cls-1" d="M24.34,6.15l3.72,23.3h-1.5l-2.15-13.6c-.12-.73-.29-1.84-.53-3.35s-.42-2.63-.53-3.38h-.1c-.89,2.69-1.66,4.92-2.29,6.7L16.11,29.45H14.74l-5-14.25c-.5-1.46-1.16-3.48-2-6.08H7.63c-.13,1.28-.42,3.29-.85,6.05L4.56,29.45H3.09L6.78,6.15H8.15l5.7,16.23c.41,1.11.93,2.72,1.57,4.81h.1c.57-1.84,1.11-3.45,1.61-4.81L23,6.15Z"></path> <path class="cls-1" d="M37.32,17.8A12.09,12.09,0,0,1,40.86,9,11.78,11.78,0,0,1,49.69,5.4,11.64,11.64,0,0,1,58.62,9,12.34,12.34,0,0,1,62,17.8a12.11,12.11,0,0,1-3.55,8.8,11.86,11.86,0,0,1-8.78,3.6,13.13,13.13,0,0,1-5.49-1.11,10.52,10.52,0,0,1-3.91-2.94,13.4,13.4,0,0,1-2.22-4A13.15,13.15,0,0,1,37.32,17.8Zm1.64,0A10.84,10.84,0,0,0,42,25.69a10.84,10.84,0,0,0,15.26,0,10.81,10.81,0,0,0,3.09-7.89,10.92,10.92,0,0,0-3-7.89,10.18,10.18,0,0,0-7.72-3.15A10.28,10.28,0,0,0,42,9.89,10.8,10.8,0,0,0,39,17.8Z"></path> <path class="cls-1" d="M72.17,29.45V6.15h6.25A10.13,10.13,0,0,1,84.7,7.87,6.21,6.21,0,0,1,87,13.15a6.56,6.56,0,0,1-2.1,5.28c-1.4,1.2-3.63,1.79-6.68,1.79H73.7v9.23ZM85.32,13.22A5.34,5.34,0,0,0,83.63,9a7.36,7.36,0,0,0-5.08-1.52H73.7V18.86h5.16Q85.33,18.86,85.32,13.22Z"></path> <path class="cls-1" d="M108,5.4a11.55,11.55,0,0,1,6.81,1.89,11.32,11.32,0,0,1,4,4.84H117a8.35,8.35,0,0,0-3.44-3.91,10.52,10.52,0,0,0-5.62-1.46,10.2,10.2,0,0,0-7.27,2.93,10.59,10.59,0,0,0-3.08,8.07,11.16,11.16,0,0,0,2.94,7.93,9.9,9.9,0,0,0,7.58,3.14,10,10,0,0,0,5.62-1.53A9.62,9.62,0,0,0,117.26,23H119q-3.14,7.17-11,7.17a11.42,11.42,0,0,1-8.68-3.52,12.48,12.48,0,0,1-3.35-8.95,12,12,0,0,1,3.5-8.81A11.58,11.58,0,0,1,108,5.4Z"></path> <path class="cls-1" d="M131.47,29.45h-1.54V6.15h1.54V16.71L143.29,6.15h2.08L133.25,16.88l12.4,12.57h-2l-12.2-12.37Z"></path> <path class="cls-1" d="M152.86,17.8A12.08,12.08,0,0,1,156.39,9a11.8,11.8,0,0,1,8.83-3.64A11.66,11.66,0,0,1,174.16,9a12.38,12.38,0,0,1,3.4,8.76A12.08,12.08,0,0,1,174,26.6a11.84,11.84,0,0,1-8.78,3.6,13.12,13.12,0,0,1-5.48-1.11,10.44,10.44,0,0,1-3.91-2.94,13.4,13.4,0,0,1-2.22-4A13.15,13.15,0,0,1,152.86,17.8Zm1.64,0a10.84,10.84,0,0,0,3.07,7.89,10.83,10.83,0,0,0,15.25,0,10.82,10.82,0,0,0,3.1-7.89,11,11,0,0,0-3-7.89,10.94,10.94,0,0,0-15.34,0A10.8,10.8,0,0,0,154.5,17.8Z"></path> <path class="cls-1" d="M204.41,8.4h-.11c-.18.25-.64.91-1.38,2l-2.19,3.16q-1.06,1.54-1.86,2.64l-9.49,13.26H188V6.15h1.54V22c0,1.12,0,2.77-.07,5h.14l2.82-4c1.26-1.82,2.2-3.16,2.82-4l9.18-12.81h1.41v23.3h-1.54V14C204.34,11.54,204.36,9.66,204.41,8.4Zm-4-8.4h1.43a4.12,4.12,0,0,1-1.43,2.9A5.05,5.05,0,0,1,197,4a5,5,0,0,1-3.45-1.13A4.09,4.09,0,0,1,192.07,0h1.44a2.63,2.63,0,0,0,1,1.88,3.64,3.64,0,0,0,2.49.78,3.64,3.64,0,0,0,2.49-.78A2.7,2.7,0,0,0,200.41,0Z"></path> <path class="cls-1" d="M233.62,29.45h-1.54V6.15h1.54V16.71L245.44,6.15h2.08L235.39,16.88l12.4,12.57h-2L233.62,17.08Z"></path> <path class="cls-1" d="M255,17.8A12.09,12.09,0,0,1,258.54,9a11.78,11.78,0,0,1,8.83-3.64A11.64,11.64,0,0,1,276.3,9a12.34,12.34,0,0,1,3.4,8.76,12.07,12.07,0,0,1-3.55,8.8,11.86,11.86,0,0,1-8.78,3.6,13.13,13.13,0,0,1-5.49-1.11A10.52,10.52,0,0,1,258,26.15a13.4,13.4,0,0,1-2.22-4A13.15,13.15,0,0,1,255,17.8Zm1.64,0a10.84,10.84,0,0,0,3.08,7.89,10.83,10.83,0,0,0,15.25,0,10.81,10.81,0,0,0,3.09-7.89,10.92,10.92,0,0,0-3-7.89,10.93,10.93,0,0,0-15.33,0A10.81,10.81,0,0,0,256.64,17.8Z"></path> <path class="cls-1" d="M293.54,7.52l-1.4,17.79A5.63,5.63,0,0,1,291,28.7a3.47,3.47,0,0,1-2.6.95,3.25,3.25,0,0,1-1.26-.24V28.08a2.84,2.84,0,0,0,1.33.21,1.75,1.75,0,0,0,1.47-.67,4.52,4.52,0,0,0,.65-2.31l1.5-19.16h14.59v23.3h-1.54V7.52Z"></path> <path class="cls-1" d="M322.61,7.52l-1.4,17.79a5.63,5.63,0,0,1-1.13,3.39,3.47,3.47,0,0,1-2.6.95,3.29,3.29,0,0,1-1.26-.24V28.08a2.84,2.84,0,0,0,1.33.21,1.75,1.75,0,0,0,1.47-.67,4.52,4.52,0,0,0,.65-2.31l1.5-19.16h14.59v23.3h-1.54V7.52Z"></path> <path class="cls-1" d="M345.36,29.45l9.87-23.3h1.5l9.88,23.3H365l-2.8-6.63H349.7l-2.77,6.63Zm8.2-15.68-3.28,7.68h11.34l-3.38-7.92q-1-2.32-2.22-5.57h-.14c-.11.32-.35.91-.7,1.78s-.67,1.65-.94,2.35S353.74,13.36,353.56,13.77Z"></path> <path class="cls-1" d="M376,29.45V6.15h12.84V7.52H377.57V29.45Z"></path> <path class="cls-1" d="M411.46,6.15V7.52H400.22v9.15h10.87V18H400.22v10h11.62v1.37H398.69V6.15Z"></path> <path class="cls-1" d="M440.09,29.45V18H424.75V29.45h-1.54V6.15h1.54V16.67h15.34V6.15h1.54v23.3Z"></path> <path class="cls-1" d="M4.05,228.34,8,221.64l1,.48-3.25,6.22L9,234.55,8,235Zm5.46,0,3.93-6.7,1,.48-3.24,6.22,3.24,6.21-1,.48Z"></path> <path class="cls-1" d="M25.53,217.61v9.15h4.86a9.43,9.43,0,0,1,5.79,1.59,5.64,5.64,0,0,1,2.1,4.8q0,6.39-7.66,6.39H24v-23.3H36.5v1.37Zm11.11,15.58a4.65,4.65,0,0,0-1.57-3.71,7,7,0,0,0-4.68-1.35H25.53v10h5.16Q36.64,238.17,36.64,233.19Z"></path> <path class="cls-1" d="M59.56,216.24v1.37H48.32v9.15H59.18v1.37H48.32v10H59.94v1.37H46.78v-23.3Z"></path> <path class="cls-1" d="M73.63,217.61l-1.4,17.8a5.56,5.56,0,0,1-1.12,3.38,3.46,3.46,0,0,1-2.6,1,3.22,3.22,0,0,1-1.26-.24v-1.34a2.81,2.81,0,0,0,1.33.21,1.73,1.73,0,0,0,1.47-.67,4.61,4.61,0,0,0,.65-2.3l1.5-19.17H86.79v23.3H85.25V217.61Z"></path> <path class="cls-1" d="M95.57,227.89a12.1,12.1,0,0,1,3.53-8.76,11.8,11.8,0,0,1,8.83-3.64,11.66,11.66,0,0,1,8.94,3.64,12.4,12.4,0,0,1,3.4,8.76,12.06,12.06,0,0,1-3.56,8.8,11.84,11.84,0,0,1-8.78,3.6,13.12,13.12,0,0,1-5.48-1.11,10.44,10.44,0,0,1-3.91-2.94,13.22,13.22,0,0,1-3-8.35Zm1.64,0a10.8,10.8,0,0,0,3.07,7.89,10.8,10.8,0,0,0,15.25,0,10.79,10.79,0,0,0,3.1-7.89,11,11,0,0,0-3-7.89,11,11,0,0,0-15.34,0A10.82,10.82,0,0,0,97.21,227.89Z"></path> <path class="cls-1" d="M130.58,239.54H129v-23.3h1.54V226.8l11.82-10.56h2.09L132.36,227l12.4,12.57h-2l-12.2-12.37Z"></path> <path class="cls-1" d="M185.21,216.24l3.72,23.3h-1.5l-2.16-13.6c-.11-.72-.29-1.84-.52-3.34s-.42-2.63-.53-3.39h-.11c-.88,2.69-1.65,4.92-2.29,6.7L177,239.54h-1.36l-5-14.25q-.76-2.17-2-6.08h-.1q-.21,1.92-.85,6l-2.22,14.28H164l3.69-23.3H169l5.71,16.23q.61,1.67,1.57,4.82h.1c.57-1.85,1.11-3.45,1.61-4.82l5.84-16.23Z"></path> <path class="cls-1" d="M196.48,227.89a12.11,12.11,0,0,1,3.54-8.76,11.78,11.78,0,0,1,8.83-3.64,11.64,11.64,0,0,1,8.93,3.64,12.36,12.36,0,0,1,3.4,8.76,12.09,12.09,0,0,1-3.55,8.8,11.86,11.86,0,0,1-8.78,3.6,13.13,13.13,0,0,1-5.49-1.11,10.44,10.44,0,0,1-3.91-2.94,13.22,13.22,0,0,1-3-8.35Zm1.64,0a10.8,10.8,0,0,0,3.07,7.89,10.82,10.82,0,0,0,15.26,0,10.78,10.78,0,0,0,3.09-7.89,11,11,0,0,0-3-7.89,11,11,0,0,0-15.34,0A10.82,10.82,0,0,0,198.12,227.89Z"></path> <path class="cls-1" d="M233.31,217.61l-1.4,17.8a5.62,5.62,0,0,1-1.13,3.38,3.44,3.44,0,0,1-2.6,1,3.29,3.29,0,0,1-1.26-.24v-1.34a2.84,2.84,0,0,0,1.33.21,1.73,1.73,0,0,0,1.47-.67,4.51,4.51,0,0,0,.65-2.3l1.5-19.17h14.59v23.3h-1.54V217.61Z"></path> <path class="cls-1" d="M255.24,227.89a12.14,12.14,0,0,1,3.53-8.76,11.8,11.8,0,0,1,8.83-3.64,11.66,11.66,0,0,1,8.94,3.64,12.4,12.4,0,0,1,3.4,8.76,12.06,12.06,0,0,1-3.56,8.8,11.83,11.83,0,0,1-8.78,3.6,13.12,13.12,0,0,1-5.48-1.11,10.44,10.44,0,0,1-3.91-2.94,13.22,13.22,0,0,1-3-8.35Zm1.64,0a10.8,10.8,0,0,0,3.07,7.89,10.82,10.82,0,0,0,15.26,0,10.78,10.78,0,0,0,3.09-7.89,11,11,0,0,0-3-7.89A11,11,0,0,0,260,220,10.82,10.82,0,0,0,256.88,227.89Z"></path> <path class="cls-1" d="M304.94,216.24v21.93h2.74v7.35h-1.54v-6H287v6h-1.53v-7.35h.24a3.8,3.8,0,0,0,3-1.55,8.92,8.92,0,0,0,1.5-5l1.09-15.41Zm-1.53,21.93V217.61H292.82l-1,14c-.21,3.14-1.1,5.32-2.67,6.52Z"></path> <path class="cls-1" d="M314.78,227.89a12.11,12.11,0,0,1,3.54-8.76,11.8,11.8,0,0,1,8.83-3.64,11.62,11.62,0,0,1,8.93,3.64,12.36,12.36,0,0,1,3.4,8.76,12.05,12.05,0,0,1-3.55,8.8,11.86,11.86,0,0,1-8.78,3.6,13.05,13.05,0,0,1-5.48-1.11,10.47,10.47,0,0,1-3.92-2.94,13.5,13.5,0,0,1-2.22-4A13.15,13.15,0,0,1,314.78,227.89Zm1.64,0a10.81,10.81,0,0,0,3.08,7.89,10.8,10.8,0,0,0,15.25,0,10.78,10.78,0,0,0,3.09-7.89,11,11,0,0,0-3-7.89,11,11,0,0,0-15.34,0A10.83,10.83,0,0,0,316.42,227.89Z"></path> <path class="cls-1" d="M358.89,215.49a11.49,11.49,0,0,1,6.81,1.9,11.3,11.3,0,0,1,3.95,4.83H367.9a8.38,8.38,0,0,0-3.43-3.91,10.54,10.54,0,0,0-5.62-1.45,10.21,10.21,0,0,0-7.28,2.92,10.61,10.61,0,0,0-3.07,8.08,11.12,11.12,0,0,0,2.94,7.92,9.89,9.89,0,0,0,7.58,3.15,10,10,0,0,0,5.62-1.54,9.62,9.62,0,0,0,3.54-4.27h1.74q-3.15,7.17-11,7.17a11.42,11.42,0,0,1-8.68-3.52,12.46,12.46,0,0,1-3.35-9,12,12,0,0,1,3.5-8.81A11.58,11.58,0,0,1,358.89,215.49Z"></path> <path class="cls-1" d="M383.45,239.54V217.61h-6.77v-1.37h15.07v1.37H385v21.93Z"></path> <path class="cls-1" d="M416.07,218.5H416l-1.38,2-2.19,3.16c-.72,1-1.34,1.92-1.86,2.65L401,239.54h-1.33v-23.3h1.54v15.89c0,1.11,0,2.76-.07,5h.14c.61-.86,1.55-2.21,2.81-4s2.21-3.15,2.82-4l9.19-12.81h1.4v23.3H416V224.13C416,221.63,416,219.75,416.07,218.5Z"></path> <path class="cls-1" d="M432.37,228.34,428.44,235l-1-.48,3.24-6.21-3.24-6.22,1-.48Zm5.46,0L433.91,235l-1-.48,3.24-6.21-3.24-6.22,1-.48Z"></path> <path class="cls-2" d="M39.73,63.07q13.65,0,22.52,6.27a37.3,37.3,0,0,1,13,16H69.53A27.74,27.74,0,0,0,58.18,72.39a34.87,34.87,0,0,0-18.56-4.8,33.73,33.73,0,0,0-24,9.65Q5.41,86.89,5.42,103.93q0,15.81,9.7,26.19T40.18,140.5q10.83,0,18.57-5.08a31.59,31.59,0,0,0,11.68-14.11h5.76Q65.8,145,39.73,145q-17.61,0-28.67-11.63T0,103.82Q0,86.33,11.57,74.7A38.23,38.23,0,0,1,39.73,63.07Z"></path> <path class="cls-2" d="M84.88,115.45q0-12.42,8.35-20.6a28.2,28.2,0,0,1,20.54-8.19q12.42,0,20.66,8.24a27.9,27.9,0,0,1,8.23,20.55A28.27,28.27,0,0,1,134.37,136a27.69,27.69,0,0,1-20.6,8.46,28.52,28.52,0,0,1-28.89-29Zm5.08,0a23.55,23.55,0,0,0,7.11,17.49,23,23,0,0,0,16.7,7,22.69,22.69,0,0,0,17-7,24.15,24.15,0,0,0,6.78-17.49,24.16,24.16,0,0,0-6.66-17.22q-6.66-7-17.16-7T96.67,98Q89.95,104.84,90,115.45Z"></path> <path class="cls-2" d="M154.29,142.53V61.15H159v81.38Z"></path> <path class="cls-2" d="M175.28,142.53V61.15H180v81.38Z"></path> <path class="cls-2" d="M248.31,88.47v54.06h-4.75V131.36h-.22q-8.24,13.09-24.27,13.09a26.38,26.38,0,0,1-19.35-8.07q-8.07-8.07-8.07-20.93,0-12.54,8-20.66A29.17,29.17,0,0,1,234,90.33a26.1,26.1,0,0,1,9.2,9.09h.33v-11Zm-45.38,9.88a25.21,25.21,0,0,0-6.2,17.1,25.67,25.67,0,0,0,6.2,17.21q6.21,7.28,17.5,7.28a22.84,22.84,0,0,0,16.48-6.83q7-6.83,7-17.33,0-10.94-6.71-17.77a22.3,22.3,0,0,0-16.54-6.83Q209.15,91.18,202.93,98.35Z"></path> <path class="cls-2" d="M315.69,88.47v52q0,15-6.89,23t-20.65,8q-11.07,0-18.06-5.42t-8.92-15.23h5q3.5,16.37,22.34,16.36,10.84,0,16.65-6.66T311,141.74V132h-.12q-8.91,12.41-24,12.41a26.86,26.86,0,0,1-19.64-8.07Q259,128.31,259,115.45q0-12.42,8-20.6a26.51,26.51,0,0,1,19.81-8.19,28.85,28.85,0,0,1,14.45,3.45A26.81,26.81,0,0,1,310.83,99H311V88.47Zm-45.38,9.88a25.21,25.21,0,0,0-6.2,17.1,25.67,25.67,0,0,0,6.2,17.21q6.21,7.28,17.5,7.28a22.84,22.84,0,0,0,16.48-6.83q7-6.83,7-17.33,0-10.94-6.71-17.77A22.3,22.3,0,0,0,288,91.18Q276.53,91.18,270.31,98.35Z"></path> <path class="cls-2" d="M353.16,86.66q12.18.12,19.52,8.58A29.84,29.84,0,0,1,380,115.45v.79H331.49a24.32,24.32,0,0,0,6.94,17.21,21.75,21.75,0,0,0,16.08,6.83,20.88,20.88,0,0,0,10.95-2.6,24.78,24.78,0,0,0,7.67-7.67H379q-8.36,14.55-24.26,14.56-12.32,0-20.32-8.36t-8-20.76q0-12.32,7.62-20.55A24.94,24.94,0,0,1,353.16,86.66Zm0,4.52a19.66,19.66,0,0,0-15,6.26,23.34,23.34,0,0,0-6.44,14.84h43.12a26.12,26.12,0,0,0-6.72-14.84Q362.41,91.19,353.16,91.18Z"></path> <path class="cls-2" d="M390.74,142.53V88.47h4.74v10h.23a23.44,23.44,0,0,1,8.18-8.46,22,22,0,0,1,12-3.39,22.82,22.82,0,0,1,15.86,5.87q6.48,5.88,6.49,18.17v31.83h-4.74V111.27q0-9.7-4.74-14.9t-13.1-5.19q-9.14,0-14.67,5.92t-5.53,16.54v28.89Z"></path> <path class="cls-1" d="M352.53,163.93v6h-9.82v5h9.43v5.64h-9.43v10.25h-7.1V163.93Z"></path> <path class="cls-1" d="M364.8,190.82V163.93h7.06v26.89Z"></path> <path class="cls-1" d="M403.13,171.85H396.7a3.48,3.48,0,0,0-.71-2.3,2.41,2.41,0,0,0-2-.85,2.27,2.27,0,0,0-1.58.57,2,2,0,0,0-.63,1.56,2.16,2.16,0,0,0,1,1.85,14.41,14.41,0,0,0,3.34,1.5q7.33,2.56,7.33,9a8.44,8.44,0,0,1-2.42,5.94q-2.43,2.58-7.12,2.58a9.63,9.63,0,0,1-7-2.56,9.31,9.31,0,0,1-2.62-7h6.74q0,3.9,3,3.9a2.65,2.65,0,0,0,1.87-.67,2.33,2.33,0,0,0,.73-1.81,2.6,2.6,0,0,0-1-2.11,11.05,11.05,0,0,0-3.33-1.64q-7.33-2.52-7.33-8.83a7.08,7.08,0,0,1,2.6-5.8,9.81,9.81,0,0,1,6.43-2.13,9.08,9.08,0,0,1,6.58,2.35A8.5,8.5,0,0,1,403.13,171.85Z"></path> <path class="cls-1" d="M431.48,190.82V180h-8.36v10.84h-7.06V163.93h7.06v10h8.36v-10h7.06v26.89Z"></path> </g> </g> </svg> 