<?xml version="1.0" encoding="UTF-8"?> <svg xmlns="http://www.w3.org/2000/svg" viewBox="0 0 267.58 42.94"> <defs> <style>.cls-1{fill:#fff;fill-rule:evenodd;}</style> </defs> <g id="Layer_2" data-name="Layer 2"> <g id="Layer_4" data-name="Layer 4"> <polygon class="cls-1" points="29.6 11.22 29.6 42.91 20.74 42.91 20.74 20.86 14.56 42.91 9.43 42.91 3.09 21.23 3.09 42.91 0 42.91 0 11.22 9.34 11.22 14.77 30.35 20.18 11.22 29.6 11.22"></polygon> <polygon class="cls-1" points="55.41 11.2 55.41 14.37 44.05 14.37 44.05 23.96 53.59 23.96 53.59 27.14 44.05 27.14 44.05 39.71 57.33 39.71 57.33 42.88 34.86 42.88 34.86 11.2 55.41 11.2"></polygon> <path class="cls-1" d="M90,12.27l-5.58,1a13.72,13.72,0,0,0,.36-2.79q0-7.23-8.75-7.22-6.91,0-6.92,5,0,3.73,7.73,6.41Q91.79,19.8,91.79,29.83a11.83,11.83,0,0,1-4.18,9.45c-2.8,2.37-6.5,3.56-11.14,3.56q-15.37,0-15.37-11.92a21.44,21.44,0,0,1,.16-2.4L67,27.25a19.3,19.3,0,0,0-.66,4.59q0,7.69,8.82,7.7c4.71,0,7.07-1.86,7.07-5.55q0-4.13-8.46-7.25Q61.6,22.26,61.59,12.4a11.07,11.07,0,0,1,4.08-9Q69.75,0,76.39,0,90,0,90,12.27"></path> <path class="cls-1" d="M113.53,0q18.06,0,18.07,21.4T113.2,42.85Q94.78,42.85,94.78,21,94.78,0,113.53,0m-.33,3.3q-3.4,0-4.6,3.75t-1.2,14.35q0,10.62,1.2,14.36c.8,2.49,2.33,3.75,4.6,3.75s3.78-1.26,4.58-3.75,1.2-7.28,1.2-14.36-.4-11.84-1.2-14.34-2.33-3.76-4.58-3.76"></path> <path class="cls-1" d="M135,42.94V11.25h13.67q11.64,0,11.63,9.32T147.41,30h-3.18v13ZM144.23,27h2.07q5,0,5-6.64,0-6.22-5-6.22h-2.07Z"></path> <path class="cls-1" d="M163.26,42.89V11.21h13.63a14.48,14.48,0,0,1,8.5,2.24,7,7,0,0,1,3.17,6c0,3.83-2.27,6.34-6.82,7.49q3.51,1.3,4.54,2.86c.69,1,1.16,3.05,1.4,6,.3,3.57.89,5.91,1.79,7.06h-10a14,14,0,0,1-1-5.5l0-1.88-.05-2.37q0-5.48-4.41-5.48h-1.58V42.89ZM172.45,25h1.86q5.22,0,5.22-5.46c0-3.64-1.74-5.45-5.22-5.45h-1.86Z"></path> <path class="cls-1" d="M205.69,10.12q13.83,0,13.83,16.38T205.43,42.89q-14.1,0-14.1-16.76,0-16,14.36-16m-.26,2.52c-1.73,0-2.91,1-3.52,2.87s-.92,5.57-.92,11,.31,9.08.92,11,1.79,2.87,3.52,2.87,2.9-1,3.51-2.87.92-5.57.92-11-.31-9.06-.92-11-1.78-2.88-3.51-2.88"></path> <polygon class="cls-1" points="243.4 11.25 243.4 14.43 231.91 14.43 231.91 24.99 241.66 24.99 241.66 28.17 231.91 28.17 231.91 42.94 222.72 42.94 222.72 11.25 243.4 11.25"></polygon> <polygon class="cls-1" points="267.58 11.25 267.58 14.43 256.09 14.43 256.09 24.99 265.83 24.99 265.83 28.17 256.09 28.17 256.09 42.94 246.89 42.94 246.89 11.25 267.58 11.25"></polygon> </g> </g> </svg> 