<?xml version="1.0" encoding="UTF-8"?> <svg xmlns="http://www.w3.org/2000/svg" xmlns:xlink="http://www.w3.org/1999/xlink" viewBox="0 0 861.65 458.63"> <defs> <style>.cls-1{opacity:0.2;}.cls-2{fill:#fff;}.cls-3{fill:url(#linear-gradient);}.cls-4{fill:url(#linear-gradient-2);}.cls-5{fill:url(#linear-gradient-3);}.cls-6{fill:url(#linear-gradient-4);}.cls-7{fill:url(#linear-gradient-5);}.cls-8{fill:url(#linear-gradient-6);}.cls-9{fill:url(#linear-gradient-7);}.cls-10{fill:url(#linear-gradient-8);}.cls-11{fill:url(#linear-gradient-9);}.cls-12{fill:url(#linear-gradient-10);}.cls-13{fill:url(#linear-gradient-11);}.cls-14{fill:url(#linear-gradient-12);}.cls-15{fill:url(#linear-gradient-13);}.cls-16{fill:url(#linear-gradient-14);}.cls-17{fill:url(#linear-gradient-15);}.cls-18{fill:url(#linear-gradient-16);}.cls-19{fill:url(#linear-gradient-17);}.cls-20{fill:url(#linear-gradient-18);}.cls-21{fill:url(#linear-gradient-19);}.cls-22{fill:url(#linear-gradient-20);}.cls-23{fill:url(#linear-gradient-21);}.cls-24{fill:url(#linear-gradient-22);}.cls-25{fill:url(#linear-gradient-23);}.cls-26{fill:url(#linear-gradient-24);}.cls-27{fill:url(#linear-gradient-25);}.cls-28{fill:url(#linear-gradient-26);}.cls-29{fill:url(#linear-gradient-27);}.cls-30{fill:url(#linear-gradient-28);}.cls-31{fill:url(#linear-gradient-29);}.cls-32{fill:url(#linear-gradient-30);}.cls-33{fill:url(#linear-gradient-31);}.cls-34{fill:url(#linear-gradient-32);}.cls-35{fill:url(#linear-gradient-33);}.cls-36{fill:url(#linear-gradient-34);}.cls-37{fill:url(#linear-gradient-35);}.cls-38{fill:url(#linear-gradient-36);}.cls-39{fill:url(#linear-gradient-37);}.cls-40{fill:url(#linear-gradient-38);}.cls-41{fill:url(#linear-gradient-39);}.cls-42{fill:url(#linear-gradient-40);}.cls-43{fill:url(#linear-gradient-41);}.cls-44{fill:url(#linear-gradient-42);}.cls-45{fill:url(#linear-gradient-43);}.cls-46{fill:url(#linear-gradient-44);}.cls-47{fill:url(#linear-gradient-45);}.cls-48{fill:url(#linear-gradient-46);}.cls-49{fill:url(#linear-gradient-47);}.cls-50{fill:url(#linear-gradient-48);}.cls-51{fill:url(#linear-gradient-49);}.cls-52{fill:url(#linear-gradient-50);}.cls-53{fill:url(#linear-gradient-51);}.cls-54{fill:url(#linear-gradient-52);}.cls-55{fill:url(#linear-gradient-53);}.cls-56{fill:url(#linear-gradient-54);}.cls-57{fill:url(#linear-gradient-55);}.cls-58{fill:url(#linear-gradient-56);}.cls-59{fill:url(#linear-gradient-57);}.cls-60{fill:url(#linear-gradient-58);}.cls-61{fill:url(#linear-gradient-59);}.cls-62{fill:url(#linear-gradient-60);}.cls-63{fill:url(#linear-gradient-61);}.cls-64{fill:url(#linear-gradient-62);}.cls-65{fill:url(#linear-gradient-63);}.cls-66{fill:url(#linear-gradient-64);}.cls-67{fill:url(#linear-gradient-65);}.cls-68{fill:url(#linear-gradient-66);}.cls-69{fill:#231f20;}</style> <linearGradient id="linear-gradient" x1="187.78" y1="260.27" x2="237.52" y2="260.27" gradientUnits="userSpaceOnUse"> <stop offset="0" stop-color="#fbbea7"></stop> <stop offset="0.09" stop-color="#f9a190"></stop> <stop offset="0.23" stop-color="#f5796f"></stop> <stop offset="0.37" stop-color="#f25754"></stop> <stop offset="0.52" stop-color="#f03d3f"></stop> <stop offset="0.67" stop-color="#ee2b30"></stop> <stop offset="0.83" stop-color="#ed2027"></stop> <stop offset="1" stop-color="#ed1c24"></stop> </linearGradient> <linearGradient id="linear-gradient-2" x1="250.31" y1="448.1" x2="252.13" y2="448.1" gradientUnits="userSpaceOnUse"> <stop offset="0" stop-color="#c6d1d7"></stop> <stop offset="1" stop-color="#647883"></stop> </linearGradient> <linearGradient id="linear-gradient-3" x1="12.75" y1="180.53" x2="144.38" y2="180.53" xlink:href="#linear-gradient"></linearGradient> <linearGradient id="linear-gradient-4" x1="1.22" y1="393.9" x2="56" y2="393.9" gradientUnits="userSpaceOnUse"> <stop offset="0.25" stop-color="#f176a4"></stop> <stop offset="0.51" stop-color="#ee3588"></stop> <stop offset="1" stop-color="#ed0180"></stop> </linearGradient> <linearGradient id="linear-gradient-5" x1="1.22" y1="93.61" x2="174.32" y2="93.61" gradientUnits="userSpaceOnUse"> <stop offset="0" stop-color="#f04e23"></stop> <stop offset="0.99" stop-color="#98080c"></stop> </linearGradient> <linearGradient id="linear-gradient-6" x1="137.27" y1="118.23" x2="237.52" y2="118.23" xlink:href="#linear-gradient-2"></linearGradient> <linearGradient id="linear-gradient-7" x1="10.27" y1="424.56" x2="98.33" y2="424.56" xlink:href="#linear-gradient"></linearGradient> <linearGradient id="linear-gradient-8" x1="283.23" y1="317.58" x2="430.44" y2="317.58" xlink:href="#linear-gradient-4"></linearGradient> <linearGradient id="linear-gradient-9" x1="237.52" y1="249.89" x2="252.13" y2="249.89" xlink:href="#linear-gradient-5"></linearGradient> <linearGradient id="linear-gradient-10" x1="388.71" y1="40.62" x2="393.76" y2="40.62" xlink:href="#linear-gradient-2"></linearGradient> <linearGradient id="linear-gradient-11" x1="384.79" y1="100.1" x2="464.38" y2="100.1" xlink:href="#linear-gradient-5"></linearGradient> <linearGradient id="linear-gradient-12" x1="237.52" y1="367.33" x2="301.55" y2="367.33" gradientUnits="userSpaceOnUse"> <stop offset="0" stop-color="#fdd0af"></stop> <stop offset="1" stop-color="#f37021"></stop> </linearGradient> <linearGradient id="linear-gradient-13" x1="258.66" y1="96.7" x2="350.8" y2="96.7" xlink:href="#linear-gradient-5"></linearGradient> <linearGradient id="linear-gradient-14" x1="290.5" y1="198.27" x2="342.86" y2="198.27" xlink:href="#linear-gradient-12"></linearGradient> <linearGradient id="linear-gradient-15" x1="326.95" y1="26.15" x2="388.71" y2="26.15" xlink:href="#linear-gradient-12"></linearGradient> <linearGradient id="linear-gradient-16" x1="347.9" y1="19.64" x2="389.35" y2="19.64" xlink:href="#linear-gradient-5"></linearGradient> <linearGradient id="linear-gradient-17" x1="350.27" y1="418.92" x2="391.33" y2="418.92" xlink:href="#linear-gradient-5"></linearGradient> <linearGradient id="linear-gradient-18" x1="203.53" y1="30.77" x2="237.52" y2="30.77" xlink:href="#linear-gradient"></linearGradient> <linearGradient id="linear-gradient-19" x1="237.52" y1="61.92" x2="262.81" y2="61.92" xlink:href="#linear-gradient-12"></linearGradient> <linearGradient id="linear-gradient-20" x1="389.35" y1="60.63" x2="472.48" y2="60.63" xlink:href="#linear-gradient-2"></linearGradient> <linearGradient id="linear-gradient-21" x1="393.76" y1="96.73" x2="472.11" y2="96.73" xlink:href="#linear-gradient"></linearGradient> <linearGradient id="linear-gradient-22" x1="342.86" y1="161.71" x2="412.42" y2="161.71" xlink:href="#linear-gradient-4"></linearGradient> <linearGradient id="linear-gradient-23" x1="188.4" y1="371.3" x2="237.52" y2="371.3" xlink:href="#linear-gradient-4"></linearGradient> <linearGradient id="linear-gradient-24" x1="44.76" y1="381.47" x2="63.49" y2="381.47" xlink:href="#linear-gradient-5"></linearGradient> <linearGradient id="linear-gradient-25" x1="7.99" y1="291.19" x2="171.05" y2="291.19" xlink:href="#linear-gradient-4"></linearGradient> <linearGradient id="linear-gradient-26" x1="327.6" y1="201.89" x2="427.65" y2="201.89" xlink:href="#linear-gradient"></linearGradient> <linearGradient id="linear-gradient-27" x1="343.02" y1="442.79" x2="391.33" y2="442.79" xlink:href="#linear-gradient-12"></linearGradient> <linearGradient id="linear-gradient-28" x1="237.52" y1="17.39" x2="263.24" y2="17.39" xlink:href="#linear-gradient-4"></linearGradient> <linearGradient id="linear-gradient-29" x1="56" y1="396.27" x2="174.61" y2="396.27" xlink:href="#linear-gradient-12"></linearGradient> <linearGradient id="linear-gradient-30" x1="327.6" y1="446.64" x2="350.27" y2="446.64" xlink:href="#linear-gradient-4"></linearGradient> <linearGradient id="linear-gradient-31" x1="427.65" y1="185.84" x2="446.43" y2="185.84" xlink:href="#linear-gradient-12"></linearGradient> <linearGradient id="linear-gradient-32" x1="364.42" y1="18.66" x2="400.33" y2="18.66" xlink:href="#linear-gradient-4"></linearGradient> <linearGradient id="linear-gradient-33" x1="412.42" y1="169.26" x2="464.14" y2="169.26" xlink:href="#linear-gradient-4"></linearGradient> <linearGradient id="linear-gradient-34" x1="487.73" y1="149.14" x2="504.52" y2="149.14" xlink:href="#linear-gradient-4"></linearGradient> <linearGradient id="linear-gradient-35" x1="500.09" y1="142.52" x2="519.65" y2="142.52" xlink:href="#linear-gradient-2"></linearGradient> <linearGradient id="linear-gradient-36" x1="620.9" y1="186.1" x2="658.67" y2="186.1" xlink:href="#linear-gradient-5"></linearGradient> <linearGradient id="linear-gradient-37" x1="602.42" y1="320.29" x2="660.15" y2="320.29" xlink:href="#linear-gradient-2"></linearGradient> <linearGradient id="linear-gradient-38" x1="441.6" y1="432.03" x2="573.84" y2="432.03" xlink:href="#linear-gradient-2"></linearGradient> <linearGradient id="linear-gradient-39" x1="625.71" y1="396.36" x2="647.4" y2="396.36" xlink:href="#linear-gradient-2"></linearGradient> <linearGradient id="linear-gradient-40" x1="547.94" y1="424.14" x2="597.4" y2="424.14" xlink:href="#linear-gradient-12"></linearGradient> <linearGradient id="linear-gradient-41" x1="597.4" y1="376.07" x2="625.71" y2="376.07" xlink:href="#linear-gradient-4"></linearGradient> <linearGradient id="linear-gradient-42" x1="504.52" y1="157.08" x2="540.67" y2="157.08" xlink:href="#linear-gradient-5"></linearGradient> <linearGradient id="linear-gradient-43" x1="546.57" y1="150.45" x2="611.16" y2="150.45" xlink:href="#linear-gradient-12"></linearGradient> <linearGradient id="linear-gradient-44" x1="591.33" y1="417.79" x2="635.82" y2="417.79" xlink:href="#linear-gradient-5"></linearGradient> <linearGradient id="linear-gradient-45" x1="578.58" y1="175.65" x2="626.42" y2="175.65" xlink:href="#linear-gradient"></linearGradient> <linearGradient id="linear-gradient-46" x1="410.17" y1="364.35" x2="547.94" y2="364.35" xlink:href="#linear-gradient-5"></linearGradient> <linearGradient id="linear-gradient-47" x1="450.01" y1="234.53" x2="525.67" y2="234.53" xlink:href="#linear-gradient-5"></linearGradient> <linearGradient id="linear-gradient-48" x1="487.73" y1="193.92" x2="559.4" y2="193.92" xlink:href="#linear-gradient-2"></linearGradient> <linearGradient id="linear-gradient-49" x1="487.73" y1="138.1" x2="500.09" y2="138.1" xlink:href="#linear-gradient-12"></linearGradient> <linearGradient id="linear-gradient-50" x1="519.65" y1="107.22" x2="634.41" y2="107.22" xlink:href="#linear-gradient-5"></linearGradient> <linearGradient id="linear-gradient-51" x1="487.73" y1="74.52" x2="634.71" y2="74.52" xlink:href="#linear-gradient"></linearGradient> <linearGradient id="linear-gradient-52" x1="507.1" y1="251.86" x2="536.69" y2="251.86" xlink:href="#linear-gradient-2"></linearGradient> <linearGradient id="linear-gradient-53" x1="566.31" y1="226.85" x2="618.02" y2="226.85" xlink:href="#linear-gradient-4"></linearGradient> <linearGradient id="linear-gradient-54" x1="544.88" y1="374.59" x2="602.42" y2="374.59" xlink:href="#linear-gradient"></linearGradient> <linearGradient id="linear-gradient-55" x1="525.67" y1="279.25" x2="615.7" y2="279.25" xlink:href="#linear-gradient"></linearGradient> <linearGradient id="linear-gradient-56" x1="402.74" y1="301.25" x2="480.95" y2="301.25" xlink:href="#linear-gradient-12"></linearGradient> <linearGradient id="linear-gradient-57" x1="615.7" y1="257.71" x2="652.85" y2="257.71" xlink:href="#linear-gradient"></linearGradient> <linearGradient id="linear-gradient-58" x1="671.19" y1="341.76" x2="743.93" y2="341.76" xlink:href="#linear-gradient-5"></linearGradient> <linearGradient id="linear-gradient-59" x1="742.63" y1="368.79" x2="744.19" y2="368.79" xlink:href="#linear-gradient-2"></linearGradient> <linearGradient id="linear-gradient-60" x1="743.93" y1="362.52" x2="810.85" y2="362.52" xlink:href="#linear-gradient-12"></linearGradient> <linearGradient id="linear-gradient-61" x1="671.19" y1="410.58" x2="734.92" y2="410.58" xlink:href="#linear-gradient"></linearGradient> <linearGradient id="linear-gradient-62" x1="671.19" y1="226.48" x2="861.65" y2="226.48" xlink:href="#linear-gradient"></linearGradient> <linearGradient id="linear-gradient-63" x1="671.19" y1="56.53" x2="852.18" y2="56.53" xlink:href="#linear-gradient-4"></linearGradient> <linearGradient id="linear-gradient-64" x1="671.19" y1="31.27" x2="724.13" y2="31.27" xlink:href="#linear-gradient-5"></linearGradient> <linearGradient id="linear-gradient-65" x1="701.31" y1="26.56" x2="724.13" y2="26.56" xlink:href="#linear-gradient-4"></linearGradient> <linearGradient id="linear-gradient-66" x1="671.19" y1="56.93" x2="701.31" y2="56.93" xlink:href="#linear-gradient-2"></linearGradient> </defs> <g id="Layer_2" data-name="Layer 2"> <g id="Layer_1-2" data-name="Layer 1"> <g id="Color_2" data-name="Color 2"> <g class="cls-1"> <path class="cls-2" d="M441.87,183.21c1.59-1.64,3.09-3.31,4.56-5a105.34,105.34,0,0,0,17.71-28.14l.24-.54a105.71,105.71,0,0,0,7.73-33c.23-3,.37-6.1.37-9.23q0-44.05-29.12-75.71a94.2,94.2,0,0,0-43-27,118.45,118.45,0,0,0-34-4.68c-.63,0-1.25,0-1.89,0A121.26,121.26,0,0,0,347.9,1.38,104.72,104.72,0,0,0,327,6.79a101.85,101.85,0,0,0-37.53,24.85q-30.75,31.65-30.76,75.71a114.07,114.07,0,0,0,6.51,37.86,117.45,117.45,0,0,0,19.07,34.45,78.74,78.74,0,0,0,6.26,6.94A93.37,93.37,0,0,0,318,205.09a100.82,100.82,0,0,0,9.64,3.76v89.57H252.13V208H215.68l1.41-6,20.43-86.56L262.81,8.36l.43-1.85H213L203.53,55,194,103.8q-3.84,18.93-5.91,37.56H187q-5.32-31.94-6.81-37.85L174.32,78,158,6.51H108.28L89.06,101.44q-6.51,32.24-7.69,39.92H80.19q-3.56-23.07-6.51-37.26L53,6.51H1.22l42.66,174.2,6.62,27a81.49,81.49,0,0,0-19,11.64A61.45,61.45,0,0,0,12.75,245,73,73,0,0,0,8,271.71q0,57,66.22,79.76c13.09,4.58,22.57,9.11,28.54,13.59.53.39,1.07.79,1.55,1.18A23.68,23.68,0,0,1,113,385.29q0,10.33-6.59,16.38t-16.91,6.05c-14.21,0-22.86-7.13-26-21.32a64.58,64.58,0,0,1-1.38-13.93H1.22q0,24.63,9,42.87A73.79,73.79,0,0,0,24.9,435.49q23.67,23.14,63.55,23.14c3.4,0,6.68-.12,9.88-.35q35.11-2.46,54.38-23,21.9-23.31,21.9-53.58c0-18.49-5.1-34.3-15.19-47.48q-16.53-21.58-51-33.69Q87.74,293.44,78.31,287t-9.44-16.74q0-8.9,5.7-14.06a20.39,20.39,0,0,1,14.24-5.16q11.39,0,17.8,7.65T113,279.55h58q0-37-22.07-58.21c-1.48-1.42-3-2.74-4.6-4q-14.64-11.77-35.16-15.44L126,116.06l.31-1.61q2.66-12.42,5.62-42h1.18a343.78,343.78,0,0,0,4.15,34.73c.47,2.72.94,5.44,1.47,8.15l20.11,92.86H188.4V450.8h63.73V352.89H327.6V450.8h63.73V211.93a98.69,98.69,0,0,0,39.11-18.47A109.26,109.26,0,0,0,441.87,183.21Zm-114-118.44a49.81,49.81,0,0,1,22.93-15,54.45,54.45,0,0,1,34,1.1,46.69,46.69,0,0,1,19.38,13.86q14.49,17.15,14.49,42.58c0,16-4.55,29.42-13.52,40.47-.58.71-1.11,1.43-1.71,2.12q-15.24,17.15-38,17.15a49,49,0,0,1-37.7-17.15q-15.24-17.15-15.23-42.59T327.87,64.77Z"></path> <path class="cls-2" d="M625.08,238.25c-2.28-2.47-4.64-4.8-7.06-7A113.39,113.39,0,0,0,566.31,204c-2.27-.54-4.56-1-6.91-1.46a146.91,146.91,0,0,0-18.73-2.11V131.9H546l.57.85,32,47.74,18.58,27.71h61.51L626.42,164,611.16,143.1l-14-19.19a60.79,60.79,0,0,0,8.11-3.5,55.71,55.71,0,0,0,19.1-16.31Q633,92.46,634.41,76c.18-2.12.3-4.28.3-6.52q0-63-81.32-63H487.73V207.3A119.73,119.73,0,0,0,450,228.77a133.36,133.36,0,0,0-10.24,9.48q-37,38.1-37,91.14a137.15,137.15,0,0,0,7.43,44.35c.14.41.26.82.4,1.22a141,141,0,0,0,23,41.48,95.54,95.54,0,0,0,8.07,8.92,113.14,113.14,0,0,0,32.52,21.7q25.45,11.56,57.5,11.57a133.87,133.87,0,0,0,42.22-6.5,117.1,117.1,0,0,0,17.49-7.39,125.1,125.1,0,0,0,32-24A139.46,139.46,0,0,0,635.82,406a125.31,125.31,0,0,0,11.58-19.19q12.72-26,12.75-57.38a137.42,137.42,0,0,0-7.3-45.19A130.14,130.14,0,0,0,625.08,238.25ZM540.67,47.61h14.49q12.14,0,18.78,6.51t6.66,18q0,11.24-7,17.45t-18.19,6.21H540.67ZM481,284.58a72.52,72.52,0,0,1,5.1-6.45,61.63,61.63,0,0,1,21.05-15.61,60.78,60.78,0,0,1,24.87-5c1.62,0,3.16.12,4.72.22,16.81,1.07,30.57,7.84,41.22,20.44q17.43,20.64,17.44,51.26a91.51,91.51,0,0,1-1.11,14.38A71.18,71.18,0,0,1,577,380.66q-13.57,15.29-32.13,19.24a64.77,64.77,0,0,1-13.62,1.41q-27.06,0-45.39-20.65t-18.33-51.27a83.15,83.15,0,0,1,4-26.06A69.63,69.63,0,0,1,481,284.58Z"></path> <path class="cls-2" d="M820.72,228.46Q794.38,208,753.08,208h-29V136l7.1-7.39L795.7,208.2h65.95L767,94.64l10-10.35L852.18,6.51H786.83l-62.7,66.83V6.51H671.19V450.8h63.73V368.91H752q36.3,0,58.84-12.79A70,70,0,0,0,823,347.55q24-21.36,24-59.46Q847.07,248.94,820.72,228.46Zm-85.8,29h15q17.1,0,25.1,9.08t8,22.26q0,30.62-33.82,30.62H734.92Z"></path> </g> <polygon class="cls-3" points="237.52 207.99 215.68 207.99 217.09 202.03 187.78 208.2 188.4 208.2 188.4 318.5 237.52 291.79 237.52 207.99"></polygon> <polygon class="cls-4" points="252.13 445.39 250.31 450.8 252.13 450.8 252.13 445.39"></polygon> <path class="cls-5" d="M31.49,219.38A61.45,61.45,0,0,0,12.75,245l131.63-27.68q-14.64-11.77-35.16-15.44L126,116.06,43.88,180.71l6.62,27A81.49,81.49,0,0,0,31.49,219.38Z"></path> <path class="cls-6" d="M44.76,372.47H1.22q0,24.63,9,42.87L56,390.48Z"></path> <path class="cls-7" d="M126.32,114.45q2.66-12.42,5.62-42h1.18a343.78,343.78,0,0,0,4.15,34.73l37-29.17L158,6.51H108.28L89.06,101.44q-6.51,32.24-7.69,39.92H80.19q-3.56-23.07-6.51-37.26L53,6.51H1.22l42.66,174.2L126,116.06Z"></path> <path class="cls-8" d="M138.74,115.34l20.11,92.86h28.93L217.09,202l20.43-86.56V28.27L203.53,55,194,103.8q-3.84,18.93-5.91,37.56H187q-5.32-31.94-6.81-37.85L174.32,78l-37,29.17C137.74,109.91,138.21,112.63,138.74,115.34Z"></path> <path class="cls-9" d="M10.27,415.34A73.79,73.79,0,0,0,24.9,435.49q23.67,23.14,63.55,23.14c3.4,0,6.68-.12,9.88-.35L56,390.48Z"></path> <path class="cls-10" d="M430.44,193.46l-2.79-5-100,54.39v55.6H301.55l-18.32,54.47H327.6v93.84l22.67-4.25,41.06-47.12V211.93A98.69,98.69,0,0,0,430.44,193.46Z"></path> <polygon class="cls-11" points="237.52 207.99 237.52 291.79 252.13 283.85 252.13 207.99 237.52 207.99"></polygon> <polygon class="cls-12" points="393.75 43.91 389.35 37.33 388.71 39.23 393.75 43.91"></polygon> <path class="cls-13" d="M384.79,50.91a46.69,46.69,0,0,1,19.38,13.86q14.49,17.15,14.49,42.58c0,16-4.55,29.42-13.52,40.47L412.42,161l51.72-10.88.24-.54L393.76,43.91l-5.05-4.68Z"></path> <polygon class="cls-14" points="252.13 445.39 252.13 352.89 283.23 352.89 301.55 298.42 252.13 298.42 252.13 283.85 237.52 291.79 237.52 450.8 250.31 450.8 252.13 445.39"></polygon> <path class="cls-15" d="M346.88,163.63a50.32,50.32,0,0,1-19.16-13.69q-15.24-17.15-15.23-42.59t15.38-42.58a49.81,49.81,0,0,1,22.93-15L327,6.79a101.85,101.85,0,0,0-37.53,24.85q-30.75,31.65-30.76,75.71a114.07,114.07,0,0,0,6.51,37.86,117.45,117.45,0,0,0,19.07,34.45,78.74,78.74,0,0,0,6.26,6.94l52.36-11Z"></path> <path class="cls-16" d="M318,205.09a100.82,100.82,0,0,0,9.64,3.76V221l15.26-45.36-52.36,11A93.37,93.37,0,0,0,318,205.09Z"></path> <path class="cls-17" d="M366,47.61a52.69,52.69,0,0,1,18.77,3.3l3.92-11.68L347.9,1.38A104.72,104.72,0,0,0,327,6.79l23.85,43A52.33,52.33,0,0,1,366,47.61Z"></path> <path class="cls-18" d="M389.35,37.33,364.42,0A121.26,121.26,0,0,0,347.9,1.38l40.81,37.85Z"></path> <polygon class="cls-19" points="350.27 442.48 391.33 434.78 391.33 395.36 350.27 442.48"></polygon> <polygon class="cls-20" points="237.52 6.51 212.97 6.51 203.53 55.02 237.52 28.27 237.52 6.51"></polygon> <polygon class="cls-21" points="237.52 28.27 237.52 115.48 262.81 8.36 237.52 28.27"></polygon> <path class="cls-22" d="M393.76,43.91l78.35,72.67c.23-3,.37-6.1.37-9.23q0-44.05-29.12-75.71a94.2,94.2,0,0,0-43-27l-11,32.65Z"></path> <path class="cls-23" d="M464.38,149.54a105.71,105.71,0,0,0,7.73-33L393.76,43.91Z"></path> <path class="cls-24" d="M405.14,147.82c-.58.71-1.11,1.43-1.71,2.12q-15.24,17.15-38,17.15a49.92,49.92,0,0,1-18.54-3.46l-4,12L412.42,161Z"></path> <polygon class="cls-25" points="188.4 318.5 188.4 450.8 237.52 450.8 237.52 291.79 188.4 318.5"></polygon> <path class="cls-26" d="M63.49,386.4a64.58,64.58,0,0,1-1.38-13.93H44.76l11.24,18Z"></path> <path class="cls-27" d="M108.39,300.56Q87.74,293.44,78.31,287t-9.44-16.74q0-8.9,5.7-14.06a20.39,20.39,0,0,1,14.24-5.16q11.39,0,17.8,7.65T113,279.55h58q0-37-22.07-58.21c-1.48-1.42-3-2.74-4.6-4L12.75,245A73,73,0,0,0,8,271.71q0,57,66.22,79.76c13.09,4.58,22.57,9.11,28.54,13.59l56.67-30.81Q142.89,312.67,108.39,300.56Z"></path> <polygon class="cls-28" points="342.86 175.59 327.6 220.95 327.6 242.82 427.65 188.43 412.42 160.96 342.86 175.59"></polygon> <polygon class="cls-29" points="343.02 450.8 391.33 450.8 391.33 434.78 350.27 442.48 343.02 450.8"></polygon> <polygon class="cls-30" points="262.81 8.36 263.24 6.51 237.52 6.51 237.52 28.27 262.81 8.36"></polygon> <path class="cls-31" d="M174.61,381.73c0-18.49-5.1-34.3-15.19-47.48l-56.67,30.81c.53.39,1.07.79,1.55,1.18A23.68,23.68,0,0,1,113,385.29q0,10.33-6.59,16.38t-16.91,6.05c-14.21,0-22.86-7.13-26-21.32L56,390.48l42.33,67.8q35.11-2.46,54.38-23Q174.61,412,174.61,381.73Z"></path> <polygon class="cls-32" points="327.6 446.73 327.6 450.8 343.02 450.8 350.27 442.48 327.6 446.73"></polygon> <path class="cls-33" d="M446.43,178.22l-18.78,10.21,2.79,5a109.26,109.26,0,0,0,11.43-10.25C443.46,181.57,445,179.9,446.43,178.22Z"></path> <path class="cls-34" d="M364.42,0l24.93,37.29,11-32.65a118.45,118.45,0,0,0-34-4.68C365.68,0,365.06,0,364.42,0Z"></path> <path class="cls-35" d="M464.14,150.08,412.42,161l15.23,27.47,18.78-10.21A105.34,105.34,0,0,0,464.14,150.08Z"></path> <polygon class="cls-36" points="504.52 146.64 500.09 142.53 487.74 145.12 487.74 155.76 504.52 146.64"></polygon> <polygon class="cls-37" points="519.65 138.41 500.09 142.53 504.52 146.64 519.65 138.41"></polygon> <polygon class="cls-38" points="658.67 208.2 626.42 164.01 620.9 208.2 658.67 208.2"></polygon> <path class="cls-39" d="M652.85,284.2,615.7,249.75,602.42,356l23.29,34.84,21.69-4.07q12.72-26,12.75-57.38A137.42,137.42,0,0,0,652.85,284.2Z"></path> <path class="cls-40" d="M474.12,447.06q25.45,11.56,57.5,11.57a133.87,133.87,0,0,0,42.22-6.5l-25.9-46.71L441.6,425.36A113.14,113.14,0,0,0,474.12,447.06Z"></path> <path class="cls-41" d="M635.82,406a125.31,125.31,0,0,0,11.58-19.19l-21.69,4.07Z"></path> <path class="cls-42" d="M547.94,405.42l25.9,46.71a117.1,117.1,0,0,0,17.49-7.39l6.07-48.6Z"></path> <polygon class="cls-43" points="625.71 390.84 602.42 356 597.4 396.14 625.71 390.84"></polygon> <polygon class="cls-44" points="540.67 180.17 540.67 133.99 519.65 138.41 504.52 146.64 540.67 180.17"></polygon> <path class="cls-45" d="M611.16,143.1l-14-19.19a60.79,60.79,0,0,0,8.11-3.5l-58.7,12.34,32,47.74Z"></path> <path class="cls-46" d="M597.4,396.14l-6.07,48.6a125.1,125.1,0,0,0,32-24A139.46,139.46,0,0,0,635.82,406l-10.11-15.12Z"></path> <polygon class="cls-47" points="578.58 180.49 597.16 208.2 620.9 208.2 626.42 164.01 611.16 143.1 578.58 180.49"></polygon> <path class="cls-48" d="M531.26,401.31q-27.06,0-45.39-20.65t-18.33-51.27a83.15,83.15,0,0,1,4-26.06l-61.36,70.41c.14.41.26.82.4,1.22a141,141,0,0,0,23,41.48,95.54,95.54,0,0,0,8.07,8.92l106.34-19.94-3.06-5.52A64.77,64.77,0,0,1,531.26,401.31Z"></path> <path class="cls-49" d="M487.73,207.3A119.73,119.73,0,0,0,450,228.77L481,284.58a72.52,72.52,0,0,1,5.1-6.45,61.63,61.63,0,0,1,21.05-15.61l18.57-21.31-37.94-56.74Z"></path> <path class="cls-50" d="M540.67,180.17l-36.15-33.53-16.79,9.12v28.71l37.94,56.74,33.73-38.72a146.91,146.91,0,0,0-18.73-2.11Z"></path> <polygon class="cls-51" points="500.09 142.53 487.74 131.07 487.74 145.12 500.09 142.53"></polygon> <path class="cls-52" d="M540.67,134V131.9H546l.57.85,58.7-12.34a55.71,55.71,0,0,0,19.1-16.31Q633,92.46,634.41,76L519.65,138.41Z"></path> <path class="cls-53" d="M519.65,138.41,634.41,76c.18-2.12.3-4.28.3-6.52q0-63-81.32-63H487.73V131.07l12.36,11.46Zm21-90.8h14.49q12.14,0,18.78,6.51t6.66,18q0,11.24-7,17.45t-18.19,6.21H540.67Z"></path> <path class="cls-54" d="M532,257.47c1.62,0,3.16.12,4.72.22l-11-16.48L507.1,262.52A60.78,60.78,0,0,1,532,257.47Z"></path> <path class="cls-55" d="M566.31,204l49.39,45.8L618,231.22A113.39,113.39,0,0,0,566.31,204Z"></path> <path class="cls-56" d="M577,380.66q-13.57,15.29-32.13,19.24l3.06,5.52,49.46-9.28,5-40.14-8.18-12.23A71.18,71.18,0,0,1,577,380.66Z"></path> <path class="cls-57" d="M559.4,202.49l-33.73,38.72,11,16.48c16.81,1.07,30.57,7.84,41.22,20.44q17.43,20.64,17.44,51.26a91.51,91.51,0,0,1-1.11,14.38L602.42,356,615.7,249.75,566.31,204C564,203.41,561.75,202.91,559.4,202.49Z"></path> <path class="cls-58" d="M450,228.77a133.36,133.36,0,0,0-10.24,9.48q-37,38.1-37,91.14a137.15,137.15,0,0,0,7.43,44.35l61.36-70.41A69.63,69.63,0,0,1,481,284.58Z"></path> <path class="cls-59" d="M618,231.22l-2.32,18.53,37.15,34.45a130.14,130.14,0,0,0-27.77-45.95C622.8,235.78,620.44,233.45,618,231.22Z"></path> <polygon class="cls-60" points="671.19 301.21 671.19 382.31 734.92 370.36 734.92 368.91 742.63 368.91 743.93 368.67 671.19 301.21"></polygon> <polygon class="cls-61" points="742.63 368.91 744.19 368.91 743.93 368.67 742.63 368.91"></polygon> <path class="cls-62" d="M810.85,356.12l-66.92,12.55.26.24H752Q788.31,368.91,810.85,356.12Z"></path> <polygon class="cls-63" points="671.19 450.8 734.92 450.8 734.92 370.36 671.19 382.31 671.19 450.8"></polygon> <path class="cls-64" d="M847.07,288.09q0-39.15-26.35-59.63T753.08,208h-29V136l7.1-7.39L795.7,208.2h65.95L767,94.64l10-10.35L671.19,106.55V301.21l72.74,67.46,66.92-12.55A70,70,0,0,0,823,347.55Q847.07,326.19,847.07,288.09Zm-97.91,31.34H734.92v-62h15q17.1,0,25.1,9.08t8,22.26Q783,319.43,749.16,319.43Z"></path> <polygon class="cls-65" points="671.19 74.21 671.19 106.55 777 84.3 852.18 6.51 786.83 6.51 724.13 73.34 724.13 27.25 701.31 39.65 671.19 74.21"></polygon> <polygon class="cls-66" points="724.13 13.46 724.13 6.51 671.19 6.51 671.19 56.03 701.31 39.65 724.13 13.46"></polygon> <polygon class="cls-67" points="724.13 27.25 724.13 13.46 701.31 39.65 724.13 27.25"></polygon> <polygon class="cls-68" points="701.31 39.65 671.19 56.03 671.19 74.21 701.31 39.65"></polygon> <path class="cls-69" d="M42.31,237.63l-5.4-24.93a92.36,92.36,0,0,1-1.51-11.51h-.31q-.8,7.94-1.51,11.27l-4.92,25.17H13.26L0,183.49H13.89l5.56,26.19q.8,3.81,1.74,10h.32q.31-2.07,2.07-10.72l5.16-25.48H42.07l6,26q.4,1.59,1.83,10.17h.32q.55-5,1.58-10.09l5.09-26.11H70.33L57.55,237.63Z"></path> <path class="cls-69" d="M130.18,210.56a28.1,28.1,0,0,1,8.26-20.32,27.56,27.56,0,0,1,20.63-8.5q12.87,0,20.68,8.5a29,29,0,0,1,7.82,20.32,28.19,28.19,0,0,1-8.21,20.36,27.38,27.38,0,0,1-20.44,8.45,30.61,30.61,0,0,1-12.82-2.58,23.91,23.91,0,0,1-9-6.82,31.51,31.51,0,0,1-5.12-9.25A30.5,30.5,0,0,1,130.18,210.56Zm18.58-11.43a17.95,17.95,0,0,0,0,22.86A13.52,13.52,0,0,0,169,222a16.61,16.61,0,0,0,4.08-11.43,17.11,17.11,0,0,0-3.88-11.43A12.77,12.77,0,0,0,159,194.52,13.19,13.19,0,0,0,148.76,199.13Z"></path> <path class="cls-69" d="M281.56,215l16.51,22.63H281.56l-13.74-20.48h-1.43v20.48h-14.2V183.49h17.62q21.82,0,21.83,16.91A14.66,14.66,0,0,1,281.56,215Zm-4.45-13.89a6.46,6.46,0,0,0-1.79-4.84,6.92,6.92,0,0,0-5-1.75h-3.89v12.94h4a7,7,0,0,0,4.88-1.67A5.93,5.93,0,0,0,277.11,201.11Z"></path> <path class="cls-69" d="M391.73,237.63l-17.3-21.36-1.91,2v19.37H358.31V183.49h14.21v17.94l16.83-17.94h17.54L384,207.14l25.4,30.49Z"></path> <path class="cls-69" d="M503.82,199.44H490.88a7,7,0,0,0-1.43-4.64,4.89,4.89,0,0,0-4-1.71,4.6,4.6,0,0,0-3.18,1.15,4.06,4.06,0,0,0-1.27,3.14,4.31,4.31,0,0,0,2.11,3.73,30.27,30.27,0,0,0,6.7,3q14.78,5.16,14.77,18.1a17,17,0,0,1-4.88,11.94q-4.89,5.21-14.33,5.2-8.89,0-14.17-5.16T466,220.16h13.58q0,7.86,6.11,7.86a5.36,5.36,0,0,0,3.77-1.35,4.7,4.7,0,0,0,1.47-3.65,5.28,5.28,0,0,0-1.95-4.25,22.73,22.73,0,0,0-6.71-3.29q-14.76-5.08-14.76-17.78A14.29,14.29,0,0,1,472.7,186a19.74,19.74,0,0,1,12.94-4.29q8.33,0,13.25,4.73T503.82,199.44Z"></path> <path class="cls-69" d="M601.37,237.63V215.8H584.54v21.83H570.33V183.49h14.21v20.16h16.83V183.49h14.21v54.14Z"></path> <path class="cls-69" d="M680.27,210.56a28.1,28.1,0,0,1,8.26-20.32,27.56,27.56,0,0,1,20.64-8.5q12.86,0,20.68,8.5a29,29,0,0,1,7.81,20.32,28.15,28.15,0,0,1-8.21,20.36A27.37,27.37,0,0,1,709,239.37a30.64,30.64,0,0,1-12.82-2.58,24,24,0,0,1-9.05-6.82,31.51,31.51,0,0,1-5.12-9.25A30.75,30.75,0,0,1,680.27,210.56Zm18.58-11.43a17.95,17.95,0,0,0,0,22.86,13.52,13.52,0,0,0,20.32,0,16.62,16.62,0,0,0,4.09-11.43,17.12,17.12,0,0,0-3.89-11.43,12.77,12.77,0,0,0-10.24-4.61A13.19,13.19,0,0,0,698.85,199.13Z"></path> <path class="cls-69" d="M802.28,237.63V183.49h18.26q9.19,0,15.08,4.56t5.87,13.3q0,8.49-5.36,13.26t-15.83,4.76h-3.81v18.26Zm24.92-36.12a7.23,7.23,0,0,0-1.78-5q-1.78-2-5.6-2h-3.33v13.81h3.17Q827.21,208.33,827.2,201.51Z"></path> </g> </g> </g> </svg> 