<?xml version="1.0" encoding="UTF-8"?> <svg xmlns="http://www.w3.org/2000/svg" xmlns:xlink="http://www.w3.org/1999/xlink" viewBox="0 0 1752.53 559.06"> <defs> <linearGradient id="linear-gradient" x1="7711.48" y1="7366.15" x2="7722.41" y2="7355.22" gradientTransform="translate(-7101.17 7861.77) rotate(-90)" gradientUnits="userSpaceOnUse"> <stop offset="0" stop-color="#ff66bf"></stop> <stop offset="1" stop-color="#ff0095"></stop> </linearGradient> <linearGradient id="linear-gradient-2" x1="744.46" y1="15009.04" x2="755.38" y2="14998.11" gradientTransform="translate(1188.22 15159.33) rotate(-180)" xlink:href="#linear-gradient"></linearGradient> <linearGradient id="linear-gradient-3" x1="-6980.01" y1="8024.47" x2="-6969.09" y2="8013.55" gradientTransform="translate(8746.14 7130.29) rotate(90)" xlink:href="#linear-gradient"></linearGradient> <linearGradient id="linear-gradient-4" x1="7451.12" y1="7425.82" x2="7462.04" y2="7414.89" gradientTransform="translate(-6525.17 7601.41) rotate(-90)" xlink:href="#linear-gradient"></linearGradient> <linearGradient id="linear-gradient-5" x1="7673.79" y1="8552.83" x2="7687.44" y2="8539.18" gradientTransform="translate(-7051.62 8171.92) rotate(-90)" gradientUnits="userSpaceOnUse"> <stop offset="0" stop-color="#66dac7"></stop> <stop offset="1" stop-color="#00c2a2"></stop> </linearGradient> <linearGradient id="linear-gradient-6" x1="-6499.95" y1="6697.17" x2="-6486.3" y2="6683.52" gradientTransform="translate(8225.95 6998.1) rotate(90)" gradientUnits="userSpaceOnUse"> <stop offset="0" stop-color="#66baac"></stop> <stop offset="1" stop-color="#008c75"></stop> </linearGradient> <linearGradient id="linear-gradient-7" x1="1528.52" y1="470.84" x2="1542.18" y2="457.19" gradientTransform="matrix(1, 0, 0, 1, 0, 0)" xlink:href="#linear-gradient-5"></linearGradient> <linearGradient id="linear-gradient-8" x1="1464.85" y1="444.62" x2="1478.5" y2="430.97" gradientTransform="matrix(1, 0, 0, 1, 0, 0)" xlink:href="#linear-gradient-5"></linearGradient> <linearGradient id="linear-gradient-9" x1="1555.83" y1="497.88" x2="1569.48" y2="484.23" gradientUnits="userSpaceOnUse"> <stop offset="0" stop-color="#66a699"></stop> <stop offset="1" stop-color="#006b55"></stop> </linearGradient> <linearGradient id="linear-gradient-10" x1="1433.73" y1="494.89" x2="1447.38" y2="481.24" xlink:href="#linear-gradient-9"></linearGradient> <linearGradient id="linear-gradient-11" x1="-6421.72" y1="6669.12" x2="-6408.07" y2="6655.47" gradientTransform="translate(8224.95 6892.56) rotate(90)" xlink:href="#linear-gradient-6"></linearGradient> <linearGradient id="linear-gradient-12" x1="-6484.65" y1="6714.07" x2="-6470.99" y2="6700.42" gradientTransform="translate(8224.95 6892.56) rotate(90)" xlink:href="#linear-gradient-6"></linearGradient> <linearGradient id="linear-gradient-13" x1="1555.83" y1="443.54" x2="1569.48" y2="429.88" gradientTransform="matrix(1, 0, 0, 1, 0, 0)" xlink:href="#linear-gradient"></linearGradient> </defs> <g style="isolation:isolate;"> <g id="Layer_2"> <g id="fon_photo"> <rect y="357.52" width="1752.53" height="201.54" style="fill:#006b55; opacity:.9;"></rect> <g> <g> <rect x="588.48" y="2.29" width="104.86" height="35.73" style="fill:#ff0095;"></rect> <rect x="499.27" y="125.48" width="194.08" height="35.73" style="fill:#fff;"></rect> <rect x="543.87" y="63.89" width="149.48" height="35.73" style="fill:#fff;"></rect> </g> <g> <path d="M119.13,198.23h-4.02c-.06-.75-.31-1.36-.76-1.81-.45-.46-1.04-.68-1.77-.68-.67,0-1.23,.2-1.67,.59-.44,.4-.65,.92-.65,1.58,0,.71,.29,1.28,.86,1.71,.57,.43,1.46,.83,2.65,1.21,3.83,1.25,5.74,3.5,5.74,6.75,0,1.65-.59,3.11-1.78,4.39-1.19,1.28-2.9,1.92-5.12,1.92-2.04,0-3.7-.58-4.98-1.73-1.28-1.15-2-2.77-2.16-4.85h4.19c.24,2.08,1.24,3.12,3,3.12,.81,0,1.46-.25,1.95-.76,.49-.51,.73-1.13,.73-1.86,0-.83-.28-1.51-.85-2.04-.56-.53-1.5-1-2.81-1.41-3.69-1.23-5.53-3.36-5.53-6.4,0-1.69,.61-3.05,1.84-4.1,1.23-1.05,2.77-1.58,4.61-1.58s3.47,.54,4.64,1.62c1.17,1.08,1.79,2.52,1.87,4.33Z" style="fill:#fff;"></path> <path d="M137.31,192.28c2.64,0,4.81,.72,6.51,2.16,1.71,1.44,2.76,3.1,3.15,4.98h-4.58c-.28-.99-.87-1.82-1.78-2.5-.91-.67-2.02-1.01-3.33-1.01-1.81,0-3.28,.66-4.43,1.99-1.15,1.33-1.73,3.04-1.73,5.15s.58,3.7,1.74,5.1,2.65,2.1,4.48,2.1c1.39,0,2.52-.37,3.41-1.1,.88-.73,1.5-1.65,1.86-2.74h4.73c-.69,2.22-1.89,4.02-3.6,5.4-1.71,1.38-3.88,2.07-6.51,2.07-3.09,0-5.61-1.03-7.54-3.08-1.93-2.05-2.9-4.65-2.9-7.78s.99-5.66,2.98-7.69c1.98-2.03,4.5-3.05,7.56-3.05Z" style="fill:#fff;"></path> <path d="M155.34,213.22v-20.29h4.25v20.29h-4.25Z" style="fill:#fff;"></path> <path d="M180.47,192.93v3.69h-7.85v4.37h7.59v3.51h-7.59v5.03h8.18v3.69h-12.43v-20.29h12.11Z" style="fill:#fff;"></path> <path d="M192.97,199.3h-.12c.08,2.54,.12,3.82,.12,3.84v10.08h-3.66v-20.29h3.66l5.65,8.72c1.11,1.71,2.16,3.49,3.15,5.35h.09c-.06-2.02-.09-3.24-.09-3.66v-10.41h3.66v20.29h-3.66l-5.18-7.94c-1.33-2.08-2.54-4.08-3.63-5.98Z" style="fill:#fff;"></path> <path d="M223.72,192.28c2.64,0,4.81,.72,6.51,2.16,1.71,1.44,2.76,3.1,3.15,4.98h-4.58c-.28-.99-.87-1.82-1.78-2.5-.91-.67-2.02-1.01-3.33-1.01-1.81,0-3.28,.66-4.43,1.99-1.15,1.33-1.73,3.04-1.73,5.15s.58,3.7,1.74,5.1,2.65,2.1,4.48,2.1c1.39,0,2.52-.37,3.41-1.1,.88-.73,1.5-1.65,1.86-2.74h4.73c-.69,2.22-1.89,4.02-3.6,5.4-1.71,1.38-3.88,2.07-6.51,2.07-3.09,0-5.61-1.03-7.54-3.08-1.93-2.05-2.9-4.65-2.9-7.78s.99-5.66,2.98-7.69c1.98-2.03,4.5-3.05,7.56-3.05Z" style="fill:#fff;"></path> <path d="M253.86,192.93v3.69h-7.85v4.37h7.59v3.51h-7.59v5.03h8.18v3.69h-12.43v-20.29h12.11Z" style="fill:#fff;"></path> </g> <g> <path d="M285.56,213.22v-16.6h-4.82v-3.69h13.95v3.69h-4.85v16.6h-4.28Z" style="fill:#fff;"></path> <path d="M311.59,204.65l6.28,8.57h-5.06l-5.5-7.97h-1.34v7.97h-4.25v-20.29h6.31c2.68,0,4.63,.58,5.86,1.73,1.23,1.15,1.84,2.64,1.84,4.46,0,1.41-.39,2.6-1.16,3.57s-1.77,1.63-2.98,1.96Zm-.24-5.35c0-.93-.27-1.66-.8-2.17-.54-.52-1.31-.77-2.32-.77h-2.26v5.77h2.29c.95,0,1.71-.26,2.26-.77,.56-.52,.83-1.2,.83-2.05Z" style="fill:#fff;"></path> <path d="M336.34,192.93v3.69h-7.85v4.37h7.59v3.51h-7.59v5.03h8.18v3.69h-12.43v-20.29h12.11Z" style="fill:#fff;"></path> <path d="M343.18,213.22l7.88-20.29h3.99l7.47,20.29h-4.37l-1.58-4.61h-7.5l-1.61,4.61h-4.28Zm8.6-12.46l-1.7,4.82h5.44l-1.67-4.85c-.4-1.15-.71-2.18-.95-3.09h-.15c-.26,1.03-.58,2.07-.98,3.12Z" style="fill:#fff;"></path> <path d="M371.02,213.22v-16.6h-4.82v-3.69h13.95v3.69h-4.85v16.6h-4.28Z" style="fill:#fff;"></path> <path d="M405.5,192.93l2.5,20.29h-4.1l-.98-9.97c-.16-1.51-.3-2.99-.42-4.46h-.18s-.16,.63-.49,1.84c-.33,1.21-.57,2.09-.73,2.65l-2.94,9.94h-2.97l-3-10.08c-.6-1.94-.98-3.39-1.16-4.34h-.24c-.04,.89-.15,2.32-.33,4.28l-1.04,10.14h-3.84l2.41-20.29h4.7l2.98,9.58c.48,1.53,.83,2.77,1.07,3.72h.12c.18-.69,.54-1.93,1.07-3.72l2.92-9.58h4.67Z" style="fill:#fff;"></path> <path d="M427.9,192.93v3.69h-7.85v4.37h7.59v3.51h-7.59v5.03h8.18v3.69h-12.43v-20.29h12.11Z" style="fill:#fff;"></path> <path d="M440.39,199.3h-.12c.08,2.54,.12,3.82,.12,3.84v10.08h-3.66v-20.29h3.66l5.65,8.72c1.11,1.71,2.16,3.49,3.15,5.35h.09c-.06-2.02-.09-3.24-.09-3.66v-10.41h3.66v20.29h-3.66l-5.18-7.94c-1.33-2.08-2.54-4.08-3.63-5.98Z" style="fill:#fff;"></path> <path d="M464.69,213.22v-16.6h-4.82v-3.69h13.95v3.69h-4.85v16.6h-4.28Z" style="fill:#fff;"></path> </g> <g> <path d="M533.65,192.93v3.69h-7.85v4.37h7.59v3.51h-7.59v5.03h8.18v3.69h-12.43v-20.29h12.11Z" style="fill:#fff;"></path> <path d="M542.48,192.93h6.96c3.51,0,6.25,.96,8.21,2.89,1.96,1.92,2.95,4.34,2.95,7.26s-1.01,5.29-3.02,7.23c-2.01,1.94-4.74,2.92-8.2,2.92h-6.9v-20.29Zm4.25,16.54h2.56c2.28,0,4.01-.6,5.19-1.8,1.18-1.2,1.77-2.73,1.77-4.6s-.6-3.5-1.8-4.66-2.92-1.74-5.16-1.74h-2.56v12.79Z" style="fill:#fff;"></path> <path d="M575.8,213.87c-2.32,0-4.19-.69-5.61-2.08s-2.13-3.59-2.13-6.6v-12.26h4.25v12.58c0,1.49,.3,2.65,.91,3.48s1.45,1.25,2.54,1.25c2.34,0,3.51-1.58,3.51-4.73v-12.58h4.22v12.2c0,2.99-.69,5.2-2.07,6.62-1.38,1.42-3.26,2.13-5.64,2.13Z" style="fill:#fff;"></path> <path d="M601.5,192.28c2.64,0,4.81,.72,6.51,2.16,1.71,1.44,2.76,3.1,3.15,4.98h-4.58c-.28-.99-.87-1.82-1.78-2.5-.91-.67-2.02-1.01-3.33-1.01-1.81,0-3.28,.66-4.43,1.99-1.15,1.33-1.73,3.04-1.73,5.15s.58,3.7,1.74,5.1,2.65,2.1,4.48,2.1c1.39,0,2.52-.37,3.41-1.1,.88-.73,1.5-1.65,1.86-2.74h4.73c-.69,2.22-1.89,4.02-3.6,5.4-1.71,1.38-3.88,2.07-6.51,2.07-3.09,0-5.61-1.03-7.54-3.08-1.93-2.05-2.9-4.65-2.9-7.78s.99-5.66,2.98-7.69c1.98-2.03,4.5-3.05,7.56-3.05Z" style="fill:#fff;"></path> <path d="M616.94,213.22l7.88-20.29h3.99l7.47,20.29h-4.37l-1.58-4.61h-7.5l-1.61,4.61h-4.28Zm8.6-12.46l-1.7,4.82h5.44l-1.67-4.85c-.4-1.15-.71-2.18-.95-3.09h-.15c-.26,1.03-.58,2.07-.98,3.12Z" style="fill:#fff;"></path> <path d="M644.78,213.22v-16.6h-4.82v-3.69h13.95v3.69h-4.85v16.6h-4.28Z" style="fill:#fff;"></path> <path d="M660.93,213.22v-20.29h4.25v20.29h-4.25Z" style="fill:#fff;"></path> <path d="M672.92,203.08c0-2.94,1.03-5.47,3.09-7.6,2.06-2.13,4.63-3.2,7.7-3.2,2.16,0,4.07,.51,5.73,1.53s2.9,2.35,3.73,3.97,1.25,3.39,1.25,5.29c0,2.99-1.03,5.54-3.08,7.65-2.05,2.1-4.61,3.15-7.66,3.15-1.43,0-2.75-.21-3.96-.64-1.21-.43-2.23-1-3.05-1.71-.82-.71-1.52-1.54-2.1-2.48-.58-.94-1-1.91-1.26-2.92-.27-1-.4-2.02-.4-3.05Zm6.19-4.98c-1.23,1.34-1.84,3-1.84,4.98s.61,3.64,1.83,4.98c1.22,1.34,2.74,2.01,4.57,2.01s3.35-.67,4.58-2.01c1.23-1.34,1.84-3,1.84-4.98s-.59-3.64-1.77-4.98c-1.18-1.34-2.72-2.01-4.63-2.01s-3.35,.67-4.58,2.01Z" style="fill:#fff;"></path> <path d="M705.85,199.3h-.12c.08,2.54,.12,3.82,.12,3.84v10.08h-3.66v-20.29h3.66l5.65,8.72c1.11,1.71,2.16,3.49,3.15,5.35h.09c-.06-2.02-.09-3.24-.09-3.66v-10.41h3.66v20.29h-3.66l-5.18-7.94c-1.33-2.08-2.54-4.08-3.63-5.98Z" style="fill:#fff;"></path> </g> <g> <path d="M770.38,213.22v-20.29h6.48c2.28,0,4.13,.55,5.55,1.65,1.42,1.1,2.13,2.72,2.13,4.86s-.65,3.7-1.96,4.86c-1.31,1.16-3.26,1.74-5.86,1.74h-2.08v7.17h-4.25Zm9.88-13.71c0-.91-.29-1.67-.86-2.26-.58-.59-1.45-.89-2.62-.89h-2.14v6.28h2.05c2.38,0,3.57-1.04,3.57-3.12Z" style="fill:#fff;"></path> <path d="M798.22,204.65l6.28,8.57h-5.06l-5.5-7.97h-1.34v7.97h-4.25v-20.29h6.31c2.68,0,4.63,.58,5.86,1.73,1.23,1.15,1.84,2.64,1.84,4.46,0,1.41-.39,2.6-1.16,3.57s-1.77,1.63-2.98,1.96Zm-.24-5.35c0-.93-.27-1.66-.8-2.17-.54-.52-1.31-.77-2.32-.77h-2.26v5.77h2.29c.95,0,1.71-.26,2.26-.77,.56-.52,.83-1.2,.83-2.05Z" style="fill:#fff;"></path> <path d="M806.13,213.22l7.88-20.29h3.99l7.47,20.29h-4.37l-1.58-4.61h-7.5l-1.61,4.61h-4.28Zm8.6-12.46l-1.7,4.82h5.44l-1.67-4.85c-.4-1.15-.71-2.18-.95-3.09h-.15c-.26,1.03-.58,2.07-.98,3.12Z" style="fill:#fff;"></path> <path d="M837.72,192.28c2.64,0,4.81,.72,6.51,2.16,1.71,1.44,2.76,3.1,3.15,4.98h-4.58c-.28-.99-.87-1.82-1.78-2.5-.91-.67-2.02-1.01-3.33-1.01-1.81,0-3.28,.66-4.43,1.99-1.15,1.33-1.73,3.04-1.73,5.15s.58,3.7,1.74,5.1,2.65,2.1,4.48,2.1c1.39,0,2.52-.37,3.41-1.1,.88-.73,1.5-1.65,1.86-2.74h4.73c-.69,2.22-1.89,4.02-3.6,5.4-1.71,1.38-3.88,2.07-6.51,2.07-3.09,0-5.61-1.03-7.54-3.08-1.93-2.05-2.9-4.65-2.9-7.78s.99-5.66,2.98-7.69c1.98-2.03,4.5-3.05,7.56-3.05Z" style="fill:#fff;"></path> <path d="M854.74,213.22v-16.6h-4.82v-3.69h13.95v3.69h-4.85v16.6h-4.28Z" style="fill:#fff;"></path> <path d="M867.32,213.22v-20.29h4.25v20.29h-4.25Z" style="fill:#fff;"></path> <path d="M886.27,192.28c2.64,0,4.81,.72,6.51,2.16,1.71,1.44,2.76,3.1,3.15,4.98h-4.58c-.28-.99-.87-1.82-1.78-2.5-.91-.67-2.02-1.01-3.33-1.01-1.81,0-3.28,.66-4.43,1.99-1.15,1.33-1.73,3.04-1.73,5.15s.58,3.7,1.74,5.1,2.65,2.1,4.48,2.1c1.39,0,2.52-.37,3.41-1.1,.88-.73,1.5-1.65,1.86-2.74h4.73c-.69,2.22-1.89,4.02-3.6,5.4-1.71,1.38-3.88,2.07-6.51,2.07-3.09,0-5.61-1.03-7.54-3.08-1.93-2.05-2.9-4.65-2.9-7.78s.99-5.66,2.98-7.69c1.98-2.03,4.5-3.05,7.56-3.05Z" style="fill:#fff;"></path> <path d="M912.83,192.93v3.69h-7.85v4.37h7.59v3.51h-7.59v5.03h8.18v3.69h-12.43v-20.29h12.11Z" style="fill:#fff;"></path> </g> <g> <rect x="254.06" y="139.36" width="21.85" height="21.85" transform="translate(114.69 415.27) rotate(-90)" style="fill:#ff0095;"></rect> <polygon points="254.06 161.21 254.06 139.36 275.91 139.36 254.06 161.21" style="fill:url(#linear-gradient);"></polygon> </g> <g> <rect x="432.83" y="139.36" width="21.85" height="21.85" transform="translate(887.52 300.58) rotate(-180)" style="fill:#ff0095;"></rect> <polygon points="454.68 161.21 432.83 161.21 432.83 139.36 454.68 161.21" style="fill:url(#linear-gradient-2);"></polygon> </g> <g> <rect x="710.74" y="139.36" width="21.85" height="21.85" transform="translate(871.95 -571.37) rotate(90)" style="fill:#ff0095;"></rect> <polygon points="732.59 139.36 732.59 161.21 710.74 161.21 732.59 139.36" style="fill:url(#linear-gradient-3);"></polygon> </g> <g> <rect x="889.71" y="139.36" width="21.85" height="21.85" transform="translate(750.35 1050.93) rotate(-90)" style="fill:#ff0095;"></rect> <polygon points="889.71 161.21 889.71 139.36 911.56 139.36 889.71 161.21" style="fill:url(#linear-gradient-4);"></polygon> </g> <path d="M244.73,114.35c0,14.16-5.84,25.77-17.52,34.82-12.39,9.56-29.02,14.33-49.9,14.33s-38.68-4.25-50.43-12.74c-11.47-8.35-17.2-20.07-17.2-35.14v-4.57h41.3c0,11.61,1.98,19.61,5.95,24,3.75,4.03,10.33,6.05,19.75,6.05,18.4,0,27.6-8.35,27.6-25.06,0-8.07-1.88-13.55-5.63-16.46-3.96-3.04-13.56-6.12-28.77-9.24-21.23-4.39-36.35-10.05-45.34-16.99-8.78-6.72-13.17-15.82-13.17-27.29,0-12.88,5.87-23.64,17.62-32.28C141.53,4.6,158.2,0,179.01,0c18.26,0,33.05,4.07,44.38,12.21,10.76,7.72,16.14,17.27,16.14,28.67v4.57h-40.03c-.28-8.99-2.19-15.15-5.73-18.47-3.26-3.11-8.81-4.67-16.67-4.67-16.42,0-24.63,5.95-24.63,17.84,0,8.35,1.77,13.98,5.31,16.88,3.82,3.26,13.52,6.94,29.09,11.04,21.3,5.59,36.03,11.47,44.17,17.62,9.13,6.87,13.7,16.42,13.7,28.67Z" style="fill:#fff;"></path> <path d="M449,25.7h-48.41V161.21h-40.51V25.7h-48.2V2.29h137.12V25.7Z" style="fill:#fff;"></path> <path d="M902,48.46c0,14.75-5.49,26.58-16.46,35.48-11.54,9.48-27.5,14.21-47.88,14.21-4.92,0-11.26-.5-19.02-1.5v64.55h-40.72V2.29h55.79c22.87,0,40.33,4.67,52.37,14,10.62,8.19,15.92,18.92,15.92,32.17Zm-41.36,.43c0-8.76-2.07-14.96-6.2-18.6-4.13-3.63-10.9-5.45-20.31-5.45h-15.5v48.84c5.84,1.28,12.25,1.92,19.24,1.92,8.19,0,13.89-1.67,17.1-5.02,3.78-3.92,5.66-11.15,5.66-21.7Z" style="fill:#fff;"></path> </g> </g> <g id="cubes_"> <g> <rect x="1487.57" y="484.49" width="27.3" height="27.3" transform="translate(1003.07 1999.36) rotate(-90)" style="fill:#00c2a2; mix-blend-mode:screen;"></rect> <rect x="1515.39" y="484.23" width="27.3" height="27.3" transform="translate(2026.93 -1031.16) rotate(90)" style="fill:#008c75; mix-blend-mode:screen;"></rect> <rect x="1514.87" y="457.19" width="27.3" height="27.3" style="fill:#00c2a2; mix-blend-mode:screen;"></rect> <rect x="1451.2" y="430.97" width="27.3" height="27.3" style="fill:#00c2a2; mix-blend-mode:screen;"></rect> <rect x="1542.18" y="484.49" width="27.3" height="27.3" style="fill:#006b55; mix-blend-mode:screen;"></rect> <rect x="1420.08" y="481.5" width="27.3" height="27.3" style="fill:#006b55; mix-blend-mode:screen;"></rect> <rect x="1542.18" y="457.19" width="27.3" height="27.3" transform="translate(2026.67 -1084.99) rotate(90)" style="fill:#008c75; mix-blend-mode:screen;"></rect> <rect x="1497.23" y="394.26" width="27.3" height="27.3" transform="translate(1918.8 -1102.97) rotate(90)" style="fill:#008c75; mix-blend-mode:screen;"></rect> <rect x="1487.57" y="484.49" width="27.3" height="27.3" transform="translate(1003.07 1999.36) rotate(-90)" style="fill:#00c2a2; mix-blend-mode:screen;"></rect> <rect x="1514.87" y="484.49" width="27.3" height="27.3" transform="translate(2026.67 -1030.38) rotate(90)" style="fill:#008c75; mix-blend-mode:screen;"></rect> <rect x="1514.87" y="457.19" width="27.3" height="27.3" style="fill:#00c2a2; mix-blend-mode:screen;"></rect> <rect x="1451.2" y="430.97" width="27.3" height="27.3" style="fill:#00c2a2; mix-blend-mode:screen;"></rect> <rect x="1542.18" y="484.23" width="27.3" height="27.3" style="fill:#006b55; mix-blend-mode:screen;"></rect> <rect x="1420.08" y="481.24" width="27.3" height="27.3" style="fill:#006b55; mix-blend-mode:screen;"></rect> <rect x="1542.18" y="457.19" width="27.3" height="27.3" transform="translate(2026.67 -1084.99) rotate(90)" style="fill:#008c75; mix-blend-mode:screen;"></rect> <rect x="1497.23" y="394.26" width="27.3" height="27.3" transform="translate(1918.8 -1102.97) rotate(90)" style="fill:#008c75; mix-blend-mode:screen;"></rect> <polygon points="1487.57 511.8 1487.57 484.49 1514.87 484.49 1487.57 511.8" style="fill:url(#linear-gradient-5); mix-blend-mode:screen;"></polygon> <polygon points="1542.43 484.49 1542.43 511.8 1515.13 511.8 1542.43 484.49" style="fill:url(#linear-gradient-6); mix-blend-mode:screen;"></polygon> <polygon points="1514.87 457.19 1542.18 457.19 1542.18 484.49 1514.87 457.19" style="fill:url(#linear-gradient-7); mix-blend-mode:screen;"></polygon> <polygon points="1451.2 430.97 1478.5 430.97 1478.5 458.27 1451.2 430.97" style="fill:url(#linear-gradient-8); mix-blend-mode:screen;"></polygon> <polygon points="1542.18 484.23 1569.48 484.23 1569.48 511.54 1542.18 484.23" style="fill:url(#linear-gradient-9); mix-blend-mode:screen;"></polygon> <polygon points="1420.08 481.24 1447.38 481.24 1447.38 508.54 1420.08 481.24" style="fill:url(#linear-gradient-10); mix-blend-mode:screen;"></polygon> <polygon points="1569.48 457.19 1569.48 484.49 1542.18 484.49 1569.48 457.19" style="fill:url(#linear-gradient-11); mix-blend-mode:screen;"></polygon> <polygon points="1524.53 394.26 1524.53 421.57 1497.23 421.57 1524.53 394.26" style="fill:url(#linear-gradient-12); mix-blend-mode:screen;"></polygon> <g> <rect x="1542.18" y="429.88" width="27.3" height="27.3" style="fill:#ff0095;"></rect> <polygon points="1542.18 429.88 1569.48 429.88 1569.48 457.19 1542.18 429.88" style="fill:url(#linear-gradient-13);"></polygon> </g> </g> </g> </g> </g> </svg> 