<?xml version="1.0" encoding="UTF-8"?> <svg xmlns="http://www.w3.org/2000/svg" xmlns:xlink="http://www.w3.org/1999/xlink" viewBox="0 0 133.35 91.81"> <defs> <linearGradient id="linear-gradient" x1="-2829.36" y1="2384.65" x2="-2815.71" y2="2371" gradientTransform="translate(-2319.5 -2752.52) rotate(-90)" gradientUnits="userSpaceOnUse"> <stop offset="0" stop-color="#66dac7"></stop> <stop offset="1" stop-color="#00c2a2"></stop> </linearGradient> <linearGradient id="linear-gradient-2" x1="-2189.13" y1="-2790.89" x2="-2175.48" y2="-2804.54" gradientTransform="translate(-2698.5 2265.98) rotate(90)" gradientUnits="userSpaceOnUse"> <stop offset="0" stop-color="#66baac"></stop> <stop offset="1" stop-color="#008c75"></stop> </linearGradient> <linearGradient id="linear-gradient-3" x1="92.39" y1="49.57" x2="106.04" y2="35.92" gradientTransform="matrix(1, 0, 0, 1, 0, 0)" xlink:href="#linear-gradient"></linearGradient> <linearGradient id="linear-gradient-4" x1="-194.06" y1="-51.04" x2="-180.41" y2="-64.69" gradientTransform="translate(249.43 107.96) rotate(3.57)" xlink:href="#linear-gradient"></linearGradient> <linearGradient id="linear-gradient-5" x1="119.7" y1="76.85" x2="133.35" y2="63.2" gradientUnits="userSpaceOnUse"> <stop offset="0" stop-color="#66a699"></stop> <stop offset="1" stop-color="#006b55"></stop> </linearGradient> <linearGradient id="linear-gradient-6" x1="-510.29" y1="-105.92" x2="-496.64" y2="-119.58" gradientTransform="translate(520.83 248.19) rotate(7.51)" xlink:href="#linear-gradient-5"></linearGradient> <linearGradient id="linear-gradient-7" x1="-2110.88" y1="-2819.2" x2="-2097.22" y2="-2832.85" gradientTransform="translate(-2699.5 2160.45) rotate(90)" xlink:href="#linear-gradient-2"></linearGradient> <linearGradient id="linear-gradient-8" x1="1889.68" y1="-5397.45" x2="1903.33" y2="-5411.1" gradientTransform="translate(-3799.86 4293.84) rotate(22.59)" xlink:href="#linear-gradient-2"></linearGradient> <linearGradient id="linear-gradient-9" x1="-2017.73" y1="-3066.92" x2="-2004.07" y2="-3080.57" gradientTransform="translate(-2829.02 2244.28) rotate(85.94)" xlink:href="#linear-gradient-2"></linearGradient> <linearGradient id="linear-gradient-10" x1="119.7" y1="22.44" x2="133.35" y2="8.79" gradientUnits="userSpaceOnUse"> <stop offset="0" stop-color="#ff66bf"></stop> <stop offset="1" stop-color="#ff0095"></stop> </linearGradient> </defs> <g style="isolation:isolate;"> <g id="Layer_2"> <g id="cubes_"> <g> <g> <g> <rect x="51.49" y="63.2" width="27.3" height="27.3" transform="translate(-11.7 141.99) rotate(-90)" style="fill:#00c2a2; mix-blend-mode:screen;"></rect> <rect x="51.49" y="63.2" width="27.3" height="27.3" transform="translate(-11.7 141.99) rotate(-90)" style="fill:#00c2a2; mix-blend-mode:screen;"></rect> <polygon points="51.49 90.5 51.49 63.2 78.8 63.2 51.49 90.5" style="fill:url(#linear-gradient); mix-blend-mode:screen;"></polygon> </g> <g> <rect x="78.74" y="63.2" width="27.3" height="27.3" transform="translate(169.24 -15.54) rotate(90)" style="fill:#008c75; mix-blend-mode:screen;"></rect> <rect x="78.74" y="63.2" width="27.3" height="27.3" transform="translate(169.24 -15.54) rotate(90)" style="fill:#008c75; mix-blend-mode:screen;"></rect> <polygon points="106.04 63.2 106.04 90.5 78.74 90.5 106.04 63.2" style="fill:url(#linear-gradient-2); mix-blend-mode:screen;"></polygon> </g> <g> <rect x="78.74" y="35.92" width="27.3" height="27.3" style="fill:#00c2a2; mix-blend-mode:screen;"></rect> <rect x="78.74" y="35.92" width="27.3" height="27.3" style="fill:#00c2a2; mix-blend-mode:screen;"></rect> <polygon points="78.74 35.92 106.04 35.92 106.04 63.23 78.74 35.92" style="fill:url(#linear-gradient-3); mix-blend-mode:screen;"></polygon> </g> <g> <rect x="45.26" y="31.3" width="27.3" height="27.3" transform="translate(2.91 -3.58) rotate(3.57)" style="fill:#00c2a2; mix-blend-mode:screen;"></rect> <rect x="45.26" y="31.3" width="27.3" height="27.3" transform="translate(2.91 -3.58) rotate(3.57)" style="fill:#00c2a2; mix-blend-mode:screen;"></rect> <polygon points="46.14 30.48 73.39 32.18 71.69 59.43 46.14 30.48" style="fill:url(#linear-gradient-4); mix-blend-mode:screen;"></polygon> </g> <g> <rect x="106.04" y="63.2" width="27.3" height="27.3" style="fill:#006b55; mix-blend-mode:screen;"></rect> <rect x="106.04" y="63.2" width="27.3" height="27.3" style="fill:#006b55; mix-blend-mode:screen;"></rect> <polygon points="106.04 63.2 133.35 63.2 133.35 90.5 106.04 63.2" style="fill:url(#linear-gradient-5); mix-blend-mode:screen;"></polygon> </g> <g> <rect x="15.1" y="62.83" width="27.3" height="27.3" transform="translate(10.24 -3.1) rotate(7.51)" style="fill:#006b55; mix-blend-mode:screen;"></rect> <rect x="15.1" y="62.83" width="27.3" height="27.3" transform="translate(10.24 -3.1) rotate(7.51)" style="fill:#006b55; mix-blend-mode:screen;"></rect> <polygon points="17 61.17 44.07 64.74 40.51 91.81 17 61.17" style="fill:url(#linear-gradient-6); mix-blend-mode:screen;"></polygon> </g> <g> <rect x="106.04" y="35.92" width="27.3" height="27.3" transform="translate(169.27 -70.12) rotate(90)" style="fill:#008c75; mix-blend-mode:screen;"></rect> <rect x="106.04" y="35.92" width="27.3" height="27.3" transform="translate(169.27 -70.12) rotate(90)" style="fill:#008c75; mix-blend-mode:screen;"></rect> <polygon points="133.35 35.92 133.35 63.23 106.04 63.23 133.35 35.92" style="fill:url(#linear-gradient-7); mix-blend-mode:screen;"></polygon> </g> <g> <rect x="4.2" y="22.44" width="27.3" height="27.3" transform="translate(15.23 -4.09) rotate(22.59)" style="fill:#008c75; mix-blend-mode:screen;"></rect> <rect x="4.2" y="22.44" width="27.3" height="27.3" transform="translate(15.23 -4.09) rotate(22.59)" style="fill:#008c75; mix-blend-mode:screen;"></rect> <polygon points="10.49 18.24 35.7 28.73 25.21 53.94 10.49 18.24" style="fill:url(#linear-gradient-8); mix-blend-mode:screen;"></polygon> </g> <g> <rect x="73.77" y=".93" width="27.3" height="27.3" transform="translate(95.79 -73.65) rotate(85.94)" style="fill:#008c75; mix-blend-mode:screen;"></rect> <rect x="73.77" y=".93" width="27.3" height="27.3" transform="translate(95.79 -73.65) rotate(85.94)" style="fill:#008c75; mix-blend-mode:screen;"></rect> <polygon points="100.08 0 102.01 27.24 74.77 29.17 100.08 0" style="fill:url(#linear-gradient-9); mix-blend-mode:screen;"></polygon> </g> </g> <g> <rect x="106.04" y="8.79" width="27.3" height="27.3" style="fill:#ff0095;"></rect> <polygon points="106.04 8.79 133.35 8.79 133.35 36.09 106.04 8.79" style="fill:url(#linear-gradient-10);"></polygon> </g> </g> </g> </g> </g> </svg> 