<?xml version="1.0" encoding="UTF-8"?> <!-- Generator: Adobe Illustrator 25.4.1, SVG Export Plug-In . SVG Version: 6.00 Build 0) --> <svg xmlns="http://www.w3.org/2000/svg" xmlns:xlink="http://www.w3.org/1999/xlink" id="Layer_1" x="0px" y="0px" viewBox="0 0 335 180.9" style="enable-background:new 0 0 335 180.9;" xml:space="preserve"> <style type="text/css"> .st0{display:none;} .st1{display:inline;fill-rule:evenodd;clip-rule:evenodd;} .st2{fill-rule:evenodd;clip-rule:evenodd;fill:#FFFFFF;} </style> <g id="Layer_3" class="st0"> <rect x="-134" y="0" class="st1" width="595.3" height="590.8"></rect> </g> <path class="st2" d="M41.2,18.7c-8.9,4.4-15.4,17.9-19.6,40.5C20.2,67,20,70.6,20,90.2s0.2,23.2,1.6,31c4,22,10,35.1,18.5,40 c4.7,2.7,8.6,2.6,20.2-0.8c23.3-6.9,46.9-18.4,73.3-35.4l4.2-2.7l-1.9-2.5c-2.3-3.1-4-8.3-4-12.7c0-2.8-0.2-3.2-1.3-2.9 c-3.1,1-32.3,7-32.5,6.8c-0.1-0.2,7.4-3.6,16.8-7.5l17.1-7.2l-0.2-6.7l-0.3-6.6l-22.4-9.9c-12.3-5.4-22.7-10-22.9-10.3 s0.1-0.3,0.8-0.1c2.1,0.7,43.4,11.6,44.2,11.6c0.4,0,0.7-0.9,0.7-2.1c0-3.2,1.5-7.7,3.7-10.9l2-2.9l-4.9-3 c-25.6-15.8-48.3-26.8-69.9-34C49.8,17.2,45.5,16.6,41.2,18.7L41.2,18.7z"></path> <path class="st2" d="M271.8,21.5c-21.6,7.2-44.2,18.2-69.7,34l-4.9,3l2,2.9c2.2,3.2,3.7,7.6,3.7,10.9c0,1.2,0.3,2.1,0.7,2.1 c0.7,0,42-10.9,44.2-11.6c0.7-0.2,1-0.2,0.8,0c-0.2,0.3-10.5,4.9-22.9,10.3L203.2,83l-0.2,6.7l-0.2,6.7l17.1,7.2 c9.4,3.9,16.9,7.3,16.8,7.5c-0.2,0.2-29.4-5.8-32.4-6.8c-1.1-0.4-1.3,0.1-1.3,2.9c0,4.4-1.7,9.6-4,12.7l-1.9,2.5l4.2,2.7 c26.4,17.1,50.1,28.5,73.3,35.5c11.5,3.4,15.4,3.6,20.2,0.8c8.4-4.9,14.5-18,18.5-40c1.4-7.8,1.6-11.4,1.6-31s-0.2-23.2-1.6-31 c-4.1-22.6-10.8-36.3-19.6-40.5C289,16.6,284.6,17.2,271.8,21.5L271.8,21.5z"></path> <path class="st2" d="M160,56.7c-5.2,0.9-12.3,4.2-15.2,7.2c-4.6,4.5-4.7,5.5-4.7,26.5c0,18.4,0.1,19.3,1.7,22.4 c1.9,3.9,6.3,7.4,12.1,9.7c3.7,1.5,5.6,1.8,13.5,1.8s9.8-0.3,13.5-1.8c5.8-2.3,10.2-5.8,12.2-9.7c1.5-3.1,1.6-4,1.6-22.4 c0-21-0.1-22-4.7-26.5c-3.1-3.1-10.1-6.3-16-7.2C168.5,55.8,165.8,55.8,160,56.7L160,56.7z"></path> </svg> 