<?xml version="1.0" encoding="UTF-8"?> <!-- Generator: Adobe Illustrator 26.5.0, SVG Export Plug-In . SVG Version: 6.00 Build 0) --> <svg xmlns="http://www.w3.org/2000/svg" xmlns:xlink="http://www.w3.org/1999/xlink" id="Text" x="0px" y="0px" viewBox="0 0 1900 322.1" style="enable-background:new 0 0 1900 322.1;" xml:space="preserve"> <style type="text/css"> .st0{fill:#3C415A;} .st1{fill:#FF8000;} </style> <g> <path class="st0" d="M316.4,66.9L302,100.7c-1.1,2.7-2.3,4.6-3.4,5.8c-1.1,1.2-2.6,1.8-4.5,1.8c-1,0-2.1-0.2-3.1-0.5v-2.3 c1,0.3,2,0.4,3,0.4c1.1,0,2.1-0.4,2.8-1.2c0.8-0.8,1.7-2.3,2.7-4.5l2.2-4.8l-15.9-28.4h2.9l12,21.7c0.8,1.4,1.5,2.7,2,4h0.2 c0.5-1.3,1.1-2.9,1.9-4.8l8.8-20.9H316.4L316.4,66.9z"></path> <path class="st0" d="M320.3,107.7V66.9h10.1c4,0,7.2,0.8,9.5,2.5s3.4,4.2,3.4,7.5c0,4.4-2.3,7.4-6.8,9.1v0.1 c3.2,0.4,5.6,1.5,7.3,3.4s2.6,4.2,2.6,6.9c0,3.7-1.3,6.5-3.9,8.4c-2.6,1.9-6,2.9-10.1,2.9L320.3,107.7L320.3,107.7z M340.3,77.1 c0-2.5-0.7-4.4-2.2-5.8s-3.9-2-7.3-2h-7.8v16.1h7.2c3.1,0,5.6-0.7,7.4-2.2C339.4,81.7,340.3,79.7,340.3,77.1L340.3,77.1z M343.4,96.6c0-2.8-1-5-2.9-6.6c-1.9-1.6-4.6-2.4-8.1-2.4h-9.3v17.6h10.2c3.3,0,5.9-0.8,7.6-2.4S343.4,99.3,343.4,96.6L343.4,96.6z "></path> <path class="st0" d="M348.9,107.7l17.8-40.8h2.7l17.8,40.8h-2.9l-5.1-11.6h-22.6l-5,11.6H348.9z M363.7,80.2l-5.9,13.5h20.5 l-6.1-13.9c-1.2-2.7-2.6-6-4-9.8h-0.2c-0.2,0.6-0.6,1.6-1.3,3.1c-0.6,1.5-1.2,2.9-1.7,4.1C364.4,78.5,364,79.5,363.7,80.2 L363.7,80.2z"></path> <path class="st0" d="M393.8,66.9l19,18.4V66.9h2.8v18.4l19-18.4h3.6l-19.3,18.8l19.8,22h-3.5l-19.6-21.6v21.6h-2.8V86.1l-19.6,21.6 h-3.5l19.8-22l-19.3-18.8H393.8z"></path> <path class="st0" d="M441,107.7l17.8-40.8h2.7l17.8,40.8h-2.9l-5.1-11.6h-22.6l-5,11.6H441z M455.8,80.2l-5.9,13.5h20.5l-6.1-13.9 c-1.2-2.7-2.6-6-4-9.8H460c-0.2,0.6-0.6,1.6-1.3,3.1c-0.6,1.5-1.2,2.9-1.7,4.1C456.6,78.5,456.2,79.5,455.8,80.2L455.8,80.2z"></path> <path class="st0" d="M507.2,66.9v2.4h-20.3v16h19.6v2.4h-19.6v17.6h21v2.4h-23.8V66.9L507.2,66.9L507.2,66.9z"></path> <path class="st0" d="M552.3,66.9l6.7,40.8h-2.7l-3.9-23.8c-0.2-1.3-0.5-3.2-1-5.9c-0.4-2.6-0.8-4.6-1-5.9h-0.2 c-1.6,4.7-3,8.6-4.1,11.7l-8.8,23.9h-2.5l-9.1-25c-0.9-2.6-2.1-6.1-3.6-10.7h-0.2c-0.2,2.2-0.8,5.8-1.5,10.6l-4,25h-2.7l6.7-40.8 h2.5l10.3,28.5c0.7,2,1.7,4.8,2.8,8.4h0.2c1-3.2,2-6.1,2.9-8.4l10.6-28.4H552.3L552.3,66.9z"></path> <path class="st0" d="M565.3,107.7V66.9h2.8v18.4h8.8c4.5,0,7.9,0.9,10.5,2.8s3.8,4.7,3.8,8.4c0,7.5-4.6,11.2-13.8,11.2L565.3,107.7 L565.3,107.7z M588.1,96.6c0-2.8-1-4.9-2.8-6.5s-4.7-2.4-8.5-2.4h-8.8v17.6h9.3C584.5,105.3,588.1,102.4,588.1,96.6L588.1,96.6z M596,107.7V66.9h2.8v40.8H596z"></path> <path class="st0" d="M630.7,66.9v2.4h-20.3v16h19.6v2.4h-19.6v17.6h21v2.4h-23.8V66.9L630.7,66.9L630.7,66.9z"></path> <path class="st0" d="M167.3,138.7v38.5h4.9v12.9h-2.8v-10.5H135v10.5h-2.8v-12.9h0.4c2.1,0,4-0.9,5.5-2.7c1.5-1.8,2.4-4.7,2.7-8.7 l2-27L167.3,138.7L167.3,138.7z M164.6,177.2v-36.1h-19.1l-1.8,24.6c-0.4,5.5-2,9.3-4.8,11.4H164.6z"></path> <path class="st0" d="M208,142.7h-0.2c-0.3,0.4-1.2,1.6-2.5,3.5s-2.6,3.7-3.9,5.5c-1.3,1.8-2.4,3.4-3.4,4.6l-17.2,23.2h-2.4v-40.8 h2.8v27.9c0,2,0,4.9-0.1,8.7h0.2c1.1-1.5,2.8-3.9,5.1-7.1c2.3-3.2,4-5.5,5.1-7l16.6-22.5h2.5v40.9h-2.8v-27 C207.9,148.2,207.9,144.9,208,142.7L208,142.7z"></path> <path class="st0" d="M238.9,137.4c5,0,9.1,1.1,12.3,3.3c3.2,2.2,5.6,5,7.1,8.5h-3.1c-1.3-2.9-3.3-5.2-6.2-6.9 c-2.9-1.7-6.2-2.6-10.2-2.6c-5.1,0-9.4,1.7-13.1,5.1c-3.7,3.4-5.6,8.1-5.6,14.2c0,5.6,1.8,10.2,5.3,13.9c3.5,3.7,8.1,5.5,13.7,5.5 c3.9,0,7.3-0.9,10.2-2.7s4.9-4.3,6.4-7.5h3.2c-3.8,8.4-10.4,12.6-19.9,12.6c-6.4,0-11.6-2.1-15.7-6.2s-6.1-9.3-6.1-15.7 s2.1-11.3,6.3-15.5C227.8,139.5,232.9,137.4,238.9,137.4L238.9,137.4z"></path> <path class="st0" d="M274.1,179.6v-38.5h-12.2v-2.4h27.2v2.4h-12.2v38.5H274.1L274.1,179.6z"></path> <path class="st0" d="M293.6,179.6v-40.9h11.3c4.9,0,8.6,1,11.4,3c2.7,2,4.1,5.1,4.1,9.2s-1.3,7.2-3.8,9.3s-6.5,3.1-12.1,3.1h-8.1 v16.2L293.6,179.6L293.6,179.6z M317.4,151.1c0-3.1-1-5.6-3.1-7.3s-5.1-2.7-9.2-2.7h-8.8V161h9.3 C313.5,161,317.4,157.7,317.4,151.1L317.4,151.1z"></path> <path class="st0" d="M356.3,142.7h-0.2c-0.3,0.4-1.2,1.6-2.5,3.5s-2.6,3.7-4,5.5c-1.3,1.8-2.4,3.4-3.4,4.6l-17.2,23.2h-2.4v-40.8 h2.8v27.9c0,2,0,4.9-0.1,8.7h0.2c1.1-1.5,2.8-3.9,5.1-7.1c2.3-3.2,4-5.5,5.1-7l16.6-22.5h2.5v40.9h-2.8v-27 C356.2,148.2,356.2,144.9,356.3,142.7L356.3,142.7z"></path> <path class="st0" d="M370.3,141.1v16.1h8.8c4.5,0,7.9,0.9,10.5,2.8s3.8,4.7,3.8,8.4c0,7.5-4.6,11.2-13.8,11.2h-12v-40.8h22.6v2.4 L370.3,141.1L370.3,141.1z M390.3,168.5c0-2.8-1-4.9-2.8-6.5c-1.9-1.6-4.7-2.4-8.5-2.4h-8.8v17.6h9.3 C386.7,177.2,390.3,174.3,390.3,168.5L390.3,168.5z"></path> <path class="st0" d="M399.1,179.6v-40.9h2.8v18.4h8.8c4.5,0,7.9,0.9,10.5,2.8s3.8,4.7,3.8,8.4c0,7.5-4.6,11.2-13.8,11.2 L399.1,179.6L399.1,179.6z M421.9,168.4c0-2.8-1-4.9-2.8-6.5c-1.9-1.6-4.7-2.4-8.5-2.4h-8.8v17.6h9.3 C418.4,177.2,421.9,174.3,421.9,168.4L421.9,168.4z"></path> <path class="st0" d="M434.1,138.7v18.4h7c0.5-5.6,2.8-10.2,7-14.1c4.2-3.8,9.3-5.7,15.3-5.7c6.7,0,12,2.1,16.1,6.4 s6.1,9.4,6.1,15.4s-2.1,11.2-6.4,15.4c-4.3,4.2-9.6,6.3-15.9,6.3c-3.6,0-6.9-0.6-9.8-1.9c-2.9-1.3-5.3-2.9-7-5s-3.1-4.4-4-6.8 c-1-2.5-1.4-5-1.5-7.6h-7v20h-2.8v-40.9L434.1,138.7L434.1,138.7z M444,159.2c0,5.6,1.9,10.2,5.6,13.8s8.3,5.5,13.8,5.5 s10.1-1.8,13.8-5.5c3.7-3.7,5.6-8.3,5.6-13.8s-1.8-10.2-5.4-13.8c-3.6-3.7-8.3-5.5-14-5.5s-10.1,1.8-13.8,5.5 C445.9,149,444,153.6,444,159.2L444,159.2z"></path> <path class="st0" d="M498.4,179.6v-38.5h-12.2v-2.4h27.2v2.4h-12.2v38.5H498.4L498.4,179.6z"></path> <path class="st0" d="M513.8,159.2c0-6,2.1-11.1,6.4-15.4c4.3-4.2,9.6-6.4,16-6.4s12,2.1,16.1,6.4s6.1,9.4,6.1,15.4 s-2.1,11.2-6.4,15.4c-4.3,4.2-9.6,6.3-15.9,6.3c-3.7,0-7-0.6-9.9-1.9s-5.3-3-7.1-5.1s-3.1-4.4-4-6.9 C514.3,164.4,513.8,161.8,513.8,159.2L513.8,159.2z M516.8,159.2c0,5.6,1.8,10.2,5.6,13.8c3.7,3.7,8.3,5.5,13.8,5.5 s10.1-1.8,13.8-5.5c3.7-3.7,5.6-8.3,5.6-13.8s-1.8-10.2-5.4-13.8c-3.6-3.7-8.3-5.5-14-5.5s-10.1,1.8-13.8,5.5 S516.8,153.6,516.8,159.2L516.8,159.2z"></path> <path class="st0" d="M564.4,179.6v-40.9h11.3c4.9,0,8.6,1,11.4,3c2.7,2,4.1,5.1,4.1,9.2s-1.3,7.2-3.8,9.3s-6.5,3.1-12.1,3.1h-8.1 v16.2L564.4,179.6L564.4,179.6z M588.2,151.1c0-3.1-1-5.6-3.1-7.3s-5.1-2.7-9.2-2.7h-8.8V161h9.3 C584.3,161,588.2,157.7,588.2,151.1L588.2,151.1z"></path> <path class="st0" d="M597,179.6v-40.9h2.8v18.4h8.8c4.5,0,7.9,0.9,10.5,2.8s3.8,4.7,3.8,8.4c0,7.5-4.6,11.2-13.8,11.2L597,179.6 L597,179.6z M619.8,168.4c0-2.8-1-4.9-2.8-6.5s-4.7-2.4-8.5-2.4h-8.8v17.6h9.3C616.2,177.2,619.8,174.3,619.8,168.4L619.8,168.4z M627.7,179.6v-40.9h2.8v40.9H627.7z"></path> <path class="st0" d="M313.8,214.6h-0.2c-0.3,0.4-1.2,1.6-2.5,3.5s-2.6,3.7-4,5.5c-1.3,1.8-2.4,3.4-3.4,4.6l-17.2,23.2h-2.4v-40.9 h2.8v27.9c0,2,0,4.9-0.1,8.7h0.2c1.1-1.5,2.8-3.9,5.1-7.1c2.3-3.2,4-5.5,5.1-7l16.6-22.5h2.5v40.9h-2.8v-27 C313.7,220.1,313.7,216.8,313.8,214.6L313.8,214.6z"></path> <path class="st0" d="M366.5,251.5V213h-24.6v38.5h-2.8v-40.9h30.2v40.9L366.5,251.5L366.5,251.5z"></path> <path class="st0" d="M374.3,251.5l17.8-40.8h2.7l17.8,40.9h-2.9l-5.1-11.6h-22.6l-5,11.6L374.3,251.5L374.3,251.5z M389.1,224 l-5.9,13.5h20.5l-6.1-13.9c-1.2-2.7-2.6-6-4-9.8h-0.2c-0.2,0.6-0.6,1.6-1.3,3.1c-0.6,1.5-1.2,2.9-1.7,4.1 C389.8,222.3,389.4,223.3,389.1,224L389.1,224z"></path> <path class="st0" d="M417.1,251.5v-40.8h11.3c4.9,0,8.6,1,11.4,3c2.7,2,4.1,5.1,4.1,9.2s-1.3,7.2-3.8,9.3s-6.5,3.1-12.1,3.1h-8.1 v16.2L417.1,251.5L417.1,251.5z M440.8,223c0-3.1-1-5.6-3.1-7.3s-5.1-2.7-9.2-2.7h-8.8v19.9h9.3C436.9,232.9,440.8,229.6,440.8,223 L440.8,223z"></path> <path class="st0" d="M457.3,251.5V213h-12.2v-2.4h27.2v2.4h-12.2v38.5L457.3,251.5L457.3,251.5z"></path> <path class="st0" d="M507.9,251.5v-20h-27.7v20h-2.8v-40.8h2.8v18.4h27.7v-18.4h2.8v40.9L507.9,251.5L507.9,251.5z"></path> <path class="st0" d="M542.6,210.6v2.4h-20.3v16.1H542v2.4h-19.6v17.6h21v2.4h-23.8v-40.9L542.6,210.6L542.6,210.6z"></path> <path class="st0" d="M550.9,251.5v-40.8h11.3c4.9,0,8.6,1,11.4,3c2.7,2,4.1,5.1,4.1,9.2s-1.3,7.2-3.8,9.3s-6.5,3.1-12.1,3.1h-8.1 v16.2L550.9,251.5L550.9,251.5z M574.7,223c0-3.1-1-5.6-3.1-7.3s-5.1-2.7-9.2-2.7h-8.8v19.9h9.3C570.8,232.9,574.7,229.6,574.7,223 L574.7,223z"></path> <path class="st0" d="M583.5,251.5v-40.8h2.8v18.4h8.8c4.5,0,7.9,0.9,10.5,2.8s3.8,4.7,3.8,8.4c0,7.5-4.6,11.2-13.8,11.2 L583.5,251.5L583.5,251.5z M606.3,240.3c0-2.8-1-4.9-2.8-6.5s-4.7-2.4-8.5-2.4h-8.8v17.6h9.3C602.7,249.1,606.3,246.2,606.3,240.3 L606.3,240.3z M614.2,251.5v-40.8h2.8v40.9L614.2,251.5L614.2,251.5z"></path> <path class="st0" d="M626.2,251.5V247h4.1v4.5H626.2z M627,210.6h2.7l-0.4,29.5h-1.8L627,210.6L627,210.6z"></path> </g> <g> <path class="st1" d="M852.5,116.3c0-2.9,1-5.4,2.9-7.3c2-1.9,4.4-2.9,7.3-2.9s5.4,1,7.3,2.9s2.9,4.4,2.9,7.3s-1,5.3-2.9,7.3 s-4.4,3-7.3,3s-5.3-1-7.3-3C853.5,121.7,852.5,119.2,852.5,116.3z M855.8,116.3c0,2.1,0.7,3.9,2.1,5.3c1.4,1.4,3,2.1,4.9,2.1 c2,0,3.7-0.7,5-2.1c1.3-1.4,2-3.2,2-5.3s-0.7-3.8-1.9-5.2c-1.3-1.4-3-2.1-5-2.1s-3.7,0.7-5,2.1S855.8,114.2,855.8,116.3 L855.8,116.3z"></path> <path class="st1" d="M886,106.1c2.5,0,4.4,0.6,5.9,1.7c1.5,1.2,2.4,2.4,2.8,3.8h-3.5c-0.9-1.9-2.6-2.8-5.1-2.8 c-1.9,0-3.5,0.7-4.8,1.9c-1.3,1.3-2,3.1-2,5.5c0,2.2,0.7,3.9,2,5.4c1.3,1.4,3,2.1,5,2.1c2.5,0,4.2-1.1,5.2-3.2h3.5 c-0.6,1.7-1.6,3.1-3,4.2s-3.3,1.7-5.7,1.7c-3,0-5.5-1-7.4-2.9c-1.9-1.9-2.9-4.4-2.9-7.4s0.9-5.3,2.8-7.2S883,106.1,886,106.1 L886,106.1z"></path> <path class="st1" d="M910.7,106.7v2.8h-5.4v16.3h-3.2v-16.3h-5.5v-2.8L910.7,106.7L910.7,106.7z"></path> <path class="st1" d="M932,106.7v19.2h-3.2v-2.6h-0.1c-1.8,2.2-4.1,3.2-7,3.2c-2.7,0-5-0.9-7-2.9s-2.9-4.4-2.9-7.4s1-5.4,2.9-7.3 s4.3-2.9,7.2-2.9c2.6,0,4.9,1.1,6.8,3.4h0v-2.8L932,106.7L932,106.7z M917,111.1c-1.2,1.5-1.8,3.2-1.8,5.2s0.6,3.8,1.8,5.2 c1.2,1.5,3,2.2,5.2,2.2c1.9,0,3.5-0.7,4.9-2.1s2.1-3.2,2.1-5.3c0-2.2-0.7-4.1-2-5.5s-2.9-2.1-4.9-2.1 C920,108.9,918.3,109.6,917,111.1z"></path> <path class="st1" d="M937.5,125.9v-19.2h7.2c2,0,3.5,0.4,4.7,1.3c1.1,0.8,1.7,2,1.7,3.6c0,0.8-0.2,1.6-0.7,2.3 c-0.5,0.7-1.3,1.2-2.3,1.5c1.6,0.3,2.7,0.9,3.5,1.7c0.7,0.9,1.1,1.9,1.1,3c0,1.7-0.6,3.1-1.9,4.2c-1.2,1-3,1.6-5.2,1.6L937.5,125.9 L937.5,125.9z M944.6,109.4h-4v5.2h3.6c2.6,0,3.8-0.9,3.8-2.7C948,110.2,946.9,109.4,944.6,109.4L944.6,109.4z M945.3,117.2h-4.8 v6.1h5.2c1.2,0,2.1-0.3,2.7-0.9s0.9-1.3,0.9-2.2C949.5,118.2,948.1,117.2,945.3,117.2L945.3,117.2z"></path> <path class="st1" d="M960.2,114.6h3.6c2,0,3.6,0.5,4.8,1.5c1.1,1,1.7,2.4,1.7,4.1s-0.6,3.1-1.7,4.2c-1.1,1-2.7,1.6-4.7,1.6h-6.9 v-19.2h3.2C960.2,106.7,960.2,114.6,960.2,114.6z M963.8,117.2h-3.6v6.1h3.6c1.1,0,1.9-0.3,2.5-0.9s0.8-1.3,0.8-2.2 C967.2,118.2,966.1,117.2,963.8,117.2L963.8,117.2z"></path> <path class="st1" d="M984.7,106.7v2.8h-5.4v16.3h-3.2v-16.3h-5.5v-2.8L984.7,106.7L984.7,106.7z"></path> <path class="st1" d="M995.4,106.1c1.7,0,3.1,0.3,4.4,1c1.3,0.6,2.3,1.5,3,2.5c0.7,1,1.2,2.1,1.6,3.2c0.3,1.1,0.5,2.2,0.5,3.3 c0,0.5,0,0.9-0.1,1.2h-15.7c0,1.7,0.7,3.3,2,4.6c1.4,1.3,3,2,4.8,2c2,0,3.6-0.8,4.9-2.3h3.7c-0.8,1.4-1.8,2.6-3.3,3.6 c-1.4,1-3.2,1.5-5.2,1.5c-3,0-5.5-1-7.3-3s-2.8-4.5-2.8-7.5c0-2.8,0.9-5.1,2.6-7.1C990.3,107.1,992.6,106.1,995.4,106.1 L995.4,106.1z M995.4,108.8c-1.7,0-3.2,0.6-4.3,1.7c-1.1,1.1-1.8,2.5-1.9,4h12.4c-0.2-1.6-0.8-2.9-1.9-4.1 C998.5,109.4,997.1,108.8,995.4,108.8L995.4,108.8z"></path> <path class="st1" d="M1017.5,121.2h3.4c0.5,1.8,1.9,2.7,4.2,2.7c1.5,0,2.6-0.3,3.4-0.9c0.8-0.6,1.2-1.4,1.2-2.4s-0.4-1.8-1.2-2.4 c-0.8-0.6-1.7-0.9-2.7-0.9h-2.8v-2.6h2.8c1,0,1.8-0.3,2.5-0.8c0.6-0.6,0.9-1.3,0.9-2.1c0-0.8-0.3-1.4-1-2c-0.7-0.6-1.6-0.8-2.8-0.8 c-1,0-1.8,0.2-2.5,0.7c-0.7,0.4-1.2,1.1-1.4,1.8h-3.3c0.3-1.6,1.1-2.9,2.4-3.8c1.3-0.9,2.9-1.4,4.7-1.4c2,0,3.7,0.5,5,1.5 s1.9,2.2,1.9,3.8c0,2.3-1.1,3.8-3.3,4.5c1.2,0.3,2.1,0.9,2.8,1.8s1,1.8,1,2.9c0,1.8-0.7,3.3-2,4.4c-1.3,1.1-3.2,1.7-5.7,1.7 c-2,0-3.6-0.5-5-1.4S1017.8,122.9,1017.5,121.2L1017.5,121.2z"></path> <path class="st1" d="M1056,106.7v19.2h-3.2v-2.6h-0.1c-1.8,2.2-4.1,3.2-7,3.2c-2.7,0-5-0.9-6.9-2.9s-2.9-4.4-2.9-7.4 s0.9-5.4,2.9-7.3s4.3-2.9,7.2-2.9c2.6,0,4.9,1.1,6.8,3.4h0v-2.8L1056,106.7L1056,106.7z M1041.1,111.1c-1.2,1.5-1.8,3.2-1.8,5.2 s0.6,3.8,1.8,5.2s2.9,2.2,5.2,2.2c1.9,0,3.5-0.7,4.9-2.1s2.1-3.2,2.1-5.3c0-2.2-0.7-4.1-2-5.5s-2.9-2.1-4.9-2.1 C1044,108.9,1042.3,109.6,1041.1,111.1L1041.1,111.1z"></path> <path class="st1" d="M1070.3,118h-2.2l-5.4,7.9h-3.4l5.6-8.1c-1.4-0.3-2.4-1-3.2-1.9c-0.8-0.9-1.1-2.1-1.1-3.5 c0-1.7,0.6-3.1,1.6-4.1s2.6-1.5,4.6-1.5h6.7v19.2h-3.2L1070.3,118L1070.3,118z M1067,115.4h3.3v-6h-3.3c-1.1,0-1.9,0.3-2.4,0.9 s-0.8,1.3-0.8,2.1C1063.8,114.4,1064.9,115.4,1067,115.4L1067,115.4z"></path> <path class="st1" d="M1079,125.9v-19.2h7.2c2,0,3.5,0.4,4.7,1.3c1.1,0.8,1.7,2,1.7,3.6c0,0.8-0.2,1.6-0.7,2.3 c-0.5,0.7-1.3,1.2-2.3,1.5c1.6,0.3,2.7,0.9,3.5,1.7c0.7,0.9,1.1,1.9,1.1,3c0,1.7-0.6,3.1-1.9,4.2c-1.2,1-3,1.6-5.2,1.6L1079,125.9 L1079,125.9z M1086.1,109.4h-4v5.2h3.6c2.6,0,3.8-0.9,3.8-2.7C1089.5,110.2,1088.3,109.4,1086.1,109.4L1086.1,109.4z M1086.8,117.2 h-4.8v6.1h5.2c1.2,0,2.1-0.3,2.7-0.9s0.9-1.3,0.9-2.2C1091,118.2,1089.6,117.2,1086.8,117.2L1086.8,117.2z"></path> <path class="st1" d="M1098.6,125.9v-19.2h3.2v8.8l8.9-8.8h3.9l-9.1,9l9.4,10.2h-4.1l-9-9.9v9.9L1098.6,125.9L1098.6,125.9z"></path> <path class="st1" d="M1132.2,106.7l-10.6,28.6h-3l3.5-9.4l-7.1-19.2h3.2l4.1,11.2c0.7,1.7,1.1,3,1.3,4h0.1c0.7-2.2,1.2-3.6,1.3-4 l4-11.2L1132.2,106.7L1132.2,106.7z"></path> <path class="st1" d="M870.7,154.8V174h-3.2v-8.7H857v8.7h-3.2v-19.2h3.2v7.9h10.5v-7.9H870.7z"></path> <path class="st1" d="M895,154.8V174h-3.2v-2.6h-0.1c-1.8,2.2-4.1,3.2-7,3.2c-2.7,0-5-0.9-7-2.9s-2.9-4.4-2.9-7.4s1-5.4,2.9-7.3 s4.3-2.9,7.2-2.9c2.6,0,4.9,1.1,6.8,3.4h0v-2.8L895,154.8L895,154.8z M880,159.2c-1.2,1.5-1.8,3.2-1.8,5.2s0.6,3.8,1.8,5.2 c1.2,1.5,3,2.2,5.2,2.2c1.9,0,3.5-0.7,4.9-2.1c1.4-1.4,2.1-3.2,2.1-5.3c0-2.2-0.7-4.1-2-5.5s-2.9-2.1-4.9-2.1 C883,156.9,881.2,157.7,880,159.2L880,159.2z"></path> <path class="st1" d="M909.2,164.4c0-2.9,1-5.4,2.9-7.3s4.4-2.9,7.3-2.9s5.4,1,7.3,2.9s2.9,4.4,2.9,7.3s-1,5.3-2.9,7.3s-4.4,3-7.3,3 s-5.3-1-7.3-3C910.2,169.7,909.2,167.3,909.2,164.4L909.2,164.4z M912.5,164.4c0,2.1,0.7,3.9,2.1,5.3c1.4,1.4,3,2.1,4.9,2.1 c2,0,3.7-0.7,5-2.1c1.3-1.4,2-3.2,2-5.3s-0.7-3.8-1.9-5.2c-1.3-1.4-3-2.1-5-2.1s-3.7,0.7-5,2.1S912.5,162.2,912.5,164.4 L912.5,164.4z"></path> <path class="st1" d="M944.6,149.8c-5,0.9-7.8,3.5-8.5,7.9h0.1c0.7-1,1.7-1.8,3-2.5c1.3-0.7,2.7-1,4-1c2.9,0,5.3,1,7.2,2.9 c1.8,1.9,2.8,4.4,2.8,7.3s-1,5.3-2.9,7.3s-4.4,3-7.3,3s-5.4-1-7.3-3.1c-1.9-2.1-2.8-5-2.8-8.8c0-2.8,0.3-5.2,0.9-7.2 c0.6-2,1.5-3.6,2.6-4.8s2.4-2.1,3.7-2.7s2.8-1.1,4.6-1.4c2-0.4,3.6-1,5-1.9l1.4,2.7C949,148.7,946.9,149.4,944.6,149.8L944.6,149.8 z M936,164.4c0,2.1,0.7,3.9,2.1,5.3c1.4,1.4,3,2.1,4.9,2.1c2,0,3.7-0.7,5-2.1c1.3-1.4,2-3.2,2-5.3s-0.6-3.8-1.9-5.2s-2.9-2.1-5-2.1 s-3.7,0.7-5.1,2.1S936,162.2,936,164.4L936,164.4z"></path> <path class="st1" d="M971.9,154.8l-10.6,28.6h-3l3.5-9.4l-7-19.2h3.2l4,11.2c0.7,1.7,1.1,3,1.3,4h0.1c0.7-2.2,1.2-3.6,1.3-4l4-11.2 L971.9,154.8L971.9,154.8z"></path> <path class="st1" d="M989.9,154.8V174h-3.2v-9.6h-0.1c-1.4,2-3.2,3-5.5,3c-1.8,0-3.5-0.7-4.8-2s-2-3.5-2-6.4v-4.3h3.2v4.1 c0,1.8,0.4,3.2,1.2,4.2c0.8,1,1.8,1.5,3.1,1.5c1.5,0,2.7-0.6,3.6-1.6c0.9-1.1,1.3-2.7,1.3-4.8v-3.4L989.9,154.8L989.9,154.8z"></path> <path class="st1" d="M1003.6,154.2c1.7,0,3.1,0.3,4.4,1c1.3,0.6,2.3,1.5,3,2.5c0.7,1,1.2,2.1,1.6,3.2c0.3,1.1,0.5,2.2,0.5,3.3 c0,0.5,0,0.9-0.1,1.2h-15.7c0,1.7,0.7,3.3,2,4.6c1.4,1.3,3,2,4.8,2c2,0,3.6-0.8,4.9-2.3h3.7c-0.8,1.4-1.8,2.6-3.3,3.6 c-1.4,1-3.2,1.5-5.2,1.5c-3,0-5.5-1-7.3-3s-2.8-4.5-2.8-7.5c0-2.8,0.9-5.1,2.6-7.1S1000.8,154.1,1003.6,154.2L1003.6,154.2z M1003.6,156.9c-1.7,0-3.2,0.6-4.3,1.7c-1.1,1.1-1.8,2.5-1.9,4h12.4c-0.2-1.6-0.8-2.9-1.9-4.1 C1006.7,157.5,1005.3,156.9,1003.6,156.9L1003.6,156.9z"></path> <path class="st1" d="M1034.2,154.8V174h-3.2v-8.7h-10.5v8.7h-3.2v-19.2h3.2v7.9h10.5v-7.9H1034.2z"></path> <path class="st1" d="M1039.7,174v-19.2h3.2v8.7c0,2.4,0,4.3-0.1,5.9h0.1c0.4-0.8,1.3-2,2.7-3.8l8.2-10.8h2.8V174h-3.2v-8.7 c0-2.4,0-4.3,0.1-5.9h-0.1c-0.4,0.8-1.3,2-2.7,3.8l-8.2,10.8H1039.7L1039.7,174z"></path> <path class="st1" d="M1070.3,154.2c1.7,0,3.1,0.3,4.4,1c1.3,0.6,2.3,1.5,3,2.5c0.7,1,1.2,2.1,1.6,3.2c0.3,1.1,0.5,2.2,0.5,3.3 c0,0.5,0,0.9-0.1,1.2H1064c0,1.7,0.7,3.3,2,4.6c1.4,1.3,2.9,2,4.8,2c2,0,3.6-0.8,4.9-2.3h3.7c-0.8,1.4-1.8,2.6-3.3,3.6 c-1.4,1-3.2,1.5-5.2,1.5c-3,0-5.5-1-7.3-3s-2.8-4.5-2.8-7.5c0-2.8,0.9-5.1,2.6-7.1S1067.5,154.1,1070.3,154.2L1070.3,154.2z M1070.3,156.9c-1.7,0-3.2,0.6-4.3,1.7c-1.1,1.1-1.8,2.5-1.9,4h12.4c-0.2-1.6-0.8-2.9-1.9-4.1 C1073.4,157.5,1072,156.9,1070.3,156.9z"></path> <path class="st1" d="M853.8,222.1v-19.2h7.2c2,0,3.5,0.4,4.7,1.3s1.7,2,1.7,3.6c0,0.9-0.2,1.6-0.7,2.3c-0.5,0.7-1.3,1.2-2.3,1.5 c1.6,0.3,2.7,0.9,3.5,1.7c0.7,0.9,1.1,1.9,1.1,3c0,1.7-0.6,3.1-1.9,4.2c-1.2,1-3,1.6-5.2,1.6L853.8,222.1L853.8,222.1z M860.9,205.5h-4v5.2h3.6c2.6,0,3.8-0.9,3.8-2.7C864.3,206.4,863.1,205.5,860.9,205.5L860.9,205.5z M861.6,213.4h-4.8v6.1h5.2 c1.2,0,2.1-0.3,2.7-0.9c0.6-0.6,0.9-1.3,0.9-2.2C865.8,214.4,864.4,213.4,861.6,213.4L861.6,213.4z"></path> <path class="st1" d="M892.2,202.9v19.2H889v-2.6h-0.1c-1.8,2.2-4.1,3.2-7,3.2c-2.7,0-5-0.9-7-2.9s-2.9-4.4-2.9-7.4s1-5.4,2.9-7.3 s4.3-2.9,7.2-2.9c2.6,0,4.9,1.1,6.8,3.4h0v-2.8L892.2,202.9L892.2,202.9z M877.2,207.2c-1.2,1.5-1.8,3.2-1.8,5.2s0.6,3.8,1.8,5.2 c1.2,1.5,3,2.2,5.2,2.2c1.9,0,3.5-0.7,4.9-2.1c1.4-1.4,2.1-3.2,2.1-5.3c0-2.2-0.7-4.1-2-5.5s-2.9-2.1-4.9-2.1 C880.2,205,878.4,205.7,877.2,207.2L877.2,207.2z"></path> <path class="st1" d="M925.2,222.1h-27.5v-19.2h3.2v16.3h9v-16.3h3.2v16.3h9v-16.3h3.2L925.2,222.1L925.2,222.1z"></path> <path class="st1" d="M930.7,222.1v-19.2h3.2v8.7c0,2.4,0,4.3-0.1,5.9h0.1c0.4-0.8,1.3-2,2.7-3.8l8.2-10.8h2.8v19.2h-3.2v-8.7 c0-2.4,0-4.3,0.1-5.9h-0.1c-0.4,0.8-1.3,2-2.7,3.8l-8.2,10.8H930.7L930.7,222.1z"></path> <path class="st1" d="M951.3,222.1l7.1-9.9l-6.7-9.3h3.7l3.4,4.8c0.2,0.3,0.5,0.7,0.7,1.1c0.3,0.4,0.5,0.7,0.6,0.9h0.1 c0.1-0.2,0.3-0.5,0.6-0.9s0.5-0.7,0.7-0.9l3.3-4.9h3.7l-6.7,9.2l7.1,9.9h-3.7l-3.7-5.3c-0.2-0.2-0.4-0.6-0.7-1s-0.5-0.8-0.7-1h-0.1 l-1.4,2l-3.6,5.3L951.3,222.1L951.3,222.1z"></path> <path class="st1" d="M982.6,222.1v-19.2h3.2v8.8l8.9-8.8h3.9l-9.1,9l9.4,10.2h-4.1l-9-9.9v9.9L982.6,222.1L982.6,222.1z"></path> <path class="st1" d="M1003.5,216.3l1.1-13.5h14.5v19.2h-3.2v-16.3h-8.3l-1,10.6c-0.2,2.2-0.7,3.7-1.4,4.6s-2,1.4-3.7,1.4 c-0.5,0-1.1-0.1-1.7-0.2v-2.6c0.4,0.1,0.8,0.2,1.4,0.2c0.8,0,1.3-0.3,1.6-0.8C1003.2,218.4,1003.5,217.5,1003.5,216.3L1003.5,216.3 z"></path> <path class="st1" d="M1024.7,222.1v-19.2h3.2v8.7c0,2.4,0,4.3-0.1,5.9h0.1c0.4-0.8,1.3-2,2.7-3.8l8.2-10.8h2.8v19.2h-3.2v-8.7 c0-2.4,0-4.3,0.1-5.9h-0.1c-0.4,0.8-1.3,2-2.7,3.8l-8.2,10.8H1024.7L1024.7,222.1z"></path> <path class="st1" d="M1055.3,202.2c1.7,0,3.1,0.3,4.4,1c1.3,0.6,2.3,1.5,3,2.5c0.7,1,1.2,2.1,1.6,3.2c0.3,1.1,0.5,2.2,0.5,3.3 c0,0.5,0,0.9-0.1,1.2H1049c0,1.7,0.7,3.3,2,4.6c1.4,1.3,2.9,2,4.8,2c2,0,3.6-0.8,4.9-2.3h3.7c-0.8,1.4-1.8,2.6-3.3,3.6 c-1.4,1-3.2,1.5-5.2,1.5c-3,0-5.5-1-7.3-3s-2.8-4.5-2.8-7.5c0-2.8,0.9-5.1,2.6-7.1S1052.4,202.2,1055.3,202.2L1055.3,202.2z M1055.3,205c-1.7,0-3.2,0.6-4.3,1.7c-1.1,1.1-1.8,2.5-1.9,4h12.4c-0.2-1.6-0.8-2.9-1.9-4.1C1058.3,205.5,1056.9,205,1055.3,205z"></path> <path class="st1" d="M1085.8,202.9v19.2h-3.2v-8.7h-10.5v8.7h-3.2v-19.2h3.2v7.9h10.5v-7.9H1085.8z"></path> <path class="st1" d="M1103.1,202.9v2.8h-5.4V222h-3.2v-16.3h-5.5v-2.8H1103.1z"></path> <path class="st1" d="M1104.3,212.4c0-2.9,1-5.4,2.9-7.3s4.4-2.9,7.3-2.9s5.4,1,7.3,2.9s2.9,4.4,2.9,7.3s-1,5.3-2.9,7.3 s-4.4,3-7.3,3s-5.3-1-7.3-3C1105.3,217.8,1104.3,215.3,1104.3,212.4L1104.3,212.4z M1107.6,212.4c0,2.1,0.7,3.9,2.1,5.3 c1.4,1.4,3,2.1,4.9,2.1c2,0,3.7-0.7,5-2.1c1.3-1.4,2-3.2,2-5.3s-0.7-3.8-1.9-5.2c-1.3-1.4-3-2.1-5-2.1s-3.7,0.7-5,2.1 S1107.6,210.3,1107.6,212.4L1107.6,212.4z"></path> <path class="st1" d="M1129,222.1v-19.2h7.2c2,0,3.5,0.4,4.7,1.3s1.7,2,1.7,3.6c0,0.9-0.2,1.6-0.7,2.3c-0.5,0.7-1.3,1.2-2.3,1.5 c1.6,0.3,2.7,0.9,3.5,1.7c0.7,0.9,1.1,1.9,1.1,3c0,1.7-0.6,3.1-1.9,4.2c-1.2,1-3,1.6-5.2,1.6L1129,222.1L1129,222.1z M1136.1,205.5 h-4v5.2h3.6c2.6,0,3.8-0.9,3.8-2.7C1139.5,206.4,1138.3,205.5,1136.1,205.5L1136.1,205.5z M1136.8,213.4h-4.8v6.1h5.2 c1.2,0,2.1-0.3,2.7-0.9c0.6-0.6,0.9-1.3,0.9-2.2C1140.9,214.4,1139.6,213.4,1136.8,213.4L1136.8,213.4z"></path> </g> <g> <rect x="736.8" y="59.3" class="st1" width="1.3" height="198.2"></rect> <rect x="738.2" y="59.3" class="st0" width="2.6" height="198.2"></rect> </g> </svg> 