<?xml version="1.0" encoding="UTF-8"?> <svg xmlns="http://www.w3.org/2000/svg" id="Layer_1" viewBox="0 0 234.31 31.45"> <g> <path d="M19.12,29.97c0,.25-.04,.45-.11,.62-.08,.17-.17,.3-.29,.4-.12,.1-.25,.18-.39,.21-.15,.04-.28,.06-.4,.06h-.51c-.27,0-.52-.04-.75-.1-.23-.07-.45-.19-.66-.36-.21-.17-.42-.4-.64-.69-.21-.29-.45-.66-.71-1.11L5.27,12.38c-.47-.81-.94-1.64-1.41-2.5-.48-.86-.92-1.69-1.35-2.5h-.02c.01,1,.02,2.03,.02,3.08V30.77c0,.08-.02,.16-.06,.23-.04,.07-.11,.13-.21,.17-.1,.04-.22,.07-.38,.1-.16,.02-.36,.04-.6,.04s-.43-.02-.6-.04c-.17-.03-.3-.06-.39-.1-.1-.04-.17-.1-.21-.17-.04-.07-.06-.14-.06-.23V5.86c0-.5,.13-.83,.39-1.02,.26-.19,.51-.28,.76-.28h1.03c.33,0,.6,.03,.82,.08,.22,.06,.42,.15,.6,.28,.18,.13,.35,.32,.52,.56,.17,.24,.36,.54,.57,.91l7.18,12.73c.45,.8,.88,1.56,1.29,2.3,.4,.73,.8,1.45,1.18,2.16,.38,.7,.77,1.4,1.14,2.09,.38,.69,.75,1.38,1.12,2.08h.02c-.02-1.15-.02-2.35-.02-3.6V5.06c0-.08,.02-.16,.06-.23,.04-.07,.11-.13,.21-.17,.1-.05,.22-.08,.38-.1,.16-.02,.36-.03,.61-.03,.22,0,.41,.01,.58,.03,.16,.02,.29,.06,.39,.1,.1,.05,.17,.1,.21,.17,.05,.07,.07,.14,.07,.23V29.97Z" style="fill:#1c75bc;"></path> <path d="M62.24,30.08c0,.18-.02,.34-.04,.47-.03,.14-.07,.26-.14,.35-.06,.1-.13,.17-.22,.22-.08,.05-.17,.07-.27,.07h-12.47c-.25,0-.5-.09-.76-.28-.26-.19-.39-.52-.39-1.02V5.86c0-.5,.13-.83,.39-1.02,.26-.19,.51-.28,.76-.28h12.28c.1,0,.19,.02,.27,.07,.08,.05,.15,.12,.21,.22,.06,.1,.1,.22,.12,.36,.03,.15,.04,.31,.04,.5,0,.18-.01,.34-.04,.48-.03,.14-.07,.25-.12,.34-.06,.09-.12,.16-.21,.21-.08,.05-.17,.07-.27,.07h-10.92v9.36h9.42c.11,0,.21,.02,.29,.07,.08,.05,.15,.11,.2,.2,.06,.09,.1,.21,.13,.35,.03,.15,.04,.31,.04,.5,0,.18-.02,.33-.04,.46-.03,.13-.07,.24-.13,.32-.05,.08-.12,.15-.2,.19-.08,.04-.18,.06-.29,.06h-9.42v10.61h11.11c.09,0,.19,.02,.27,.07,.08,.05,.16,.12,.22,.21,.06,.09,.11,.2,.14,.35,.02,.15,.04,.31,.04,.5Z" style="fill:#1c75bc;"></path> <path d="M113.73,30.73c-.04,.11-.11,.2-.2,.28-.09,.08-.21,.14-.35,.18-.14,.04-.31,.07-.49,.09-.19,.02-.4,.03-.65,.03s-.47-.01-.66-.03c-.19-.02-.36-.05-.5-.09-.15-.04-.26-.1-.35-.18-.09-.07-.16-.17-.2-.28l-6.3-21.87h-.04l-5.76,21.87c-.03,.11-.08,.2-.16,.28-.07,.08-.18,.14-.31,.18-.13,.04-.29,.07-.48,.09-.19,.02-.41,.03-.67,.03-.27,0-.51-.01-.71-.03-.2-.02-.37-.05-.52-.09-.15-.04-.27-.1-.36-.18-.09-.07-.15-.17-.19-.28l-7.55-25.32c-.07-.22-.1-.39-.1-.52s.04-.22,.13-.29c.09-.07,.23-.11,.41-.14,.18-.02,.43-.03,.73-.03s.54,0,.72,.03c.18,.02,.31,.05,.41,.09s.16,.1,.19,.17c.04,.07,.07,.15,.09,.25l6.69,23.35h.02l6.15-23.35c.02-.1,.06-.18,.1-.25,.04-.07,.11-.12,.22-.17,.1-.04,.25-.07,.43-.09,.19-.02,.43-.03,.73-.03,.23,0,.42,0,.57,.03,.14,.02,.26,.05,.35,.09,.09,.04,.16,.1,.21,.17,.05,.07,.08,.15,.11,.25l6.71,23.35h.04l6.52-23.35c.03-.1,.06-.18,.09-.25,.04-.07,.1-.12,.2-.17,.09-.04,.23-.07,.39-.09,.17-.02,.39-.03,.68-.03,.3,0,.54,.01,.72,.04,.18,.03,.31,.08,.4,.15,.09,.07,.14,.16,.15,.29,0,.12-.02,.29-.07,.5l-7.55,25.32Z" style="fill:#1c75bc;"></path> <path d="M161.15,30.03c0,.19-.01,.36-.04,.49-.03,.14-.07,.26-.12,.36-.06,.1-.12,.18-.21,.23-.08,.05-.18,.07-.29,.07h-11.54c-.25,0-.5-.09-.76-.28-.26-.19-.39-.52-.39-1.02V4.98c0-.08,.02-.16,.06-.23,.04-.07,.11-.12,.21-.17,.1-.04,.23-.08,.39-.1,.17-.03,.36-.04,.6-.04s.45,.01,.6,.04c.16,.03,.29,.06,.38,.1,.1,.04,.17,.1,.21,.17,.04,.07,.06,.14,.06,.23V28.9h10.18c.11,0,.21,.02,.29,.07,.08,.05,.15,.12,.21,.21,.05,.09,.1,.21,.12,.35,.03,.15,.04,.31,.04,.5Z" style="fill:#1c75bc;"></path> <path d="M188.51,30.77c0,.08-.02,.16-.06,.23-.04,.07-.11,.13-.2,.17-.09,.04-.21,.07-.37,.1-.16,.02-.36,.04-.61,.04-.23,0-.43-.02-.59-.04-.16-.03-.29-.06-.38-.1-.1-.04-.16-.1-.2-.17-.03-.07-.05-.14-.05-.23V12.16c0-.08,.02-.16,.05-.23,.03-.07,.1-.13,.2-.17,.09-.05,.22-.08,.38-.1,.16-.02,.35-.03,.59-.03,.25,0,.45,.01,.61,.03,.16,.02,.28,.05,.37,.1,.09,.05,.15,.11,.2,.17,.04,.07,.06,.15,.06,.23V30.77Z" style="fill:#1c75bc;"></path> <path d="M234.31,27.57c0,.15,0,.29-.02,.41-.01,.12-.03,.23-.06,.33-.03,.1-.07,.19-.11,.27-.05,.08-.14,.19-.27,.32-.13,.13-.42,.34-.85,.64s-.99,.59-1.66,.87c-.66,.29-1.43,.54-2.29,.74-.86,.21-1.82,.31-2.86,.31-1.67,0-3.19-.29-4.55-.87-1.36-.58-2.51-1.44-3.47-2.56-.95-1.12-1.69-2.51-2.2-4.16-.51-1.64-.77-3.52-.77-5.64s.27-4.11,.82-5.83c.55-1.72,1.32-3.18,2.31-4.38,.99-1.2,2.19-2.12,3.58-2.76,1.39-.64,2.93-.96,4.62-.96,.8,0,1.57,.08,2.31,.23,.75,.15,1.44,.34,2.07,.58,.63,.23,1.2,.5,1.7,.8,.5,.3,.84,.54,1.03,.73,.18,.18,.3,.32,.35,.4,.05,.08,.08,.18,.11,.28,.03,.1,.05,.22,.06,.35,.01,.13,.02,.28,.02,.44,0,.19-.01,.36-.03,.5-.02,.14-.05,.27-.1,.37-.05,.1-.11,.18-.18,.24-.07,.06-.15,.08-.25,.08-.19,0-.46-.14-.81-.42-.35-.28-.81-.59-1.38-.94-.57-.34-1.26-.65-2.09-.94-.82-.28-1.8-.42-2.94-.42-1.25,0-2.39,.25-3.44,.75-1.04,.5-1.94,1.24-2.68,2.21-.75,.97-1.33,2.17-1.75,3.6-.42,1.43-.63,3.06-.63,4.92s.19,3.34,.58,4.71c.38,1.37,.94,2.53,1.67,3.47,.73,.94,1.63,1.66,2.7,2.15,1.07,.49,2.28,.74,3.64,.74,1.11,0,2.08-.14,2.91-.42,.83-.28,1.54-.59,2.13-.94,.59-.34,1.07-.65,1.45-.94,.38-.28,.67-.42,.87-.42,.08,0,.15,.02,.21,.05,.05,.03,.1,.1,.13,.19,.03,.09,.06,.21,.08,.36,.02,.15,.03,.33,.03,.56Z" style="fill:#1c75bc;"></path> </g> <path d="M194.32,1.82c-.51-.7-2.09-.83-3.18-.77-1.07,.06-3.19,.97-3.72,1.25,0-.04,0-.09,0-.13v-.1s0-.05,0-.08c0-.03,.01-.06,.02-.09,.01-.06,.01-.12,0-.18,.02-.08,.03-.17,.05-.26,.07-.3,.15-.54,.25-.74,.11-.23,.26-.4,.41-.5,.09-.05,.17-.08,.24-.06,.08,.02,.16,.08,.2,.16,.05,.09,.05,.22,.02,.31-.03,.08-.11,.12-.17,.08-.03-.02-.06,0-.07,.03-.02,.04,0,.09,.02,.11,.1,.08,.24,.02,.31-.15,.06-.15,.05-.34-.02-.49-.06-.13-.16-.21-.27-.23-.09-.02-.19,0-.29,.07-.17,.1-.33,.29-.46,.55-.11,.21-.19,.47-.26,.79-.04,.16-.06,.33-.09,.5,0,0,0,0,0,0v-.51s0,0,0,0c-.03,.14-.05,.27-.07,.41-.02-.14-.04-.28-.07-.41,0,0,0,0,0,0v.51s0,0,0,0c-.02-.17-.05-.33-.09-.5-.07-.31-.16-.57-.27-.79-.13-.25-.29-.44-.47-.55-.11-.06-.2-.08-.3-.06-.11,.02-.21,.1-.27,.23-.06,.15-.07,.34-.02,.49,.06,.16,.21,.23,.31,.14,.03-.02,.04-.07,.02-.11-.01-.04-.04-.06-.07-.04-.05,.04-.14,0-.17-.08-.04-.08-.03-.21,.01-.3,.04-.09,.11-.15,.19-.17,.08-.02,.16,0,.24,.06,.15,.09,.3,.26,.42,.49,.1,.2,.18,.44,.25,.74,.02,.08,.04,.17,.05,.26-.01,.06-.01,.12,0,.18,0,.03,.02,.06,.02,.09,0,.03,0,.05,0,.08,0,.03,0,.06,0,.1,0,.04-.01,.08-.01,.13-.53-.27-2.66-1.17-3.73-1.22-1.09-.05-2.66,.1-3.17,.8-.19,.19,.06,.25,.09,.34,.02,.1,.23,.5,.32,.53,.09,.03,.31,.46,.42,.57,.11,.11,.35,.18,.42,.42,.08,.23,.28,.27,.36,.51,.08,.24,.35,.19,.42,.52,.07,.33,.32,.19,.35,.4,.02,.21,.35,.21,.41,.19,.05,.11,.22-.16,.24-.05,0,.17,.12,.19,.07,.35-.05,.16-.2,.55-.14,.62,.06,.06,.35,.06,.25,.5-.06,.2,.1,.26,.18,.23,.08-.03,.27,.16,.21,.45-.05,.28,.14,.36,.25,.3,.12-.06,.36,.17,.16,.67-.19,.5-.56,.76-.67,1.16-.12,.41,.25,.57,.43,.33,.18-.24,.14-.58,.28-.83,.14-.24,.41-.81,.57-.74,.16,.08,.35-.34,.44-.33,.1,.01,.27-.08,.38,.02,.11,.1,.37-.43,.34-.71-.04-.29,.16-.1,.25-.56,.07-.37,.68-1.63,.9-2.1,.03,.53,.1,1.23,.15,1.25,.01,0,.02,0,.03-.03,.01,.02,.02,.03,.03,.03,.06-.01,.11-.72,.14-1.25,.23,.47,.84,1.72,.92,2.1,.09,.46,.29,.27,.26,.55-.04,.29,.23,.81,.34,.72,.11-.1,.29,0,.39-.02,.09-.01,.28,.41,.44,.32,.16-.08,.43,.49,.58,.73,.14,.24,.1,.59,.29,.83,.19,.24,.55,.07,.43-.34-.12-.4-.49-.66-.69-1.16-.19-.5,.04-.73,.16-.67,.12,.06,.31-.02,.25-.3-.05-.28,.13-.48,.21-.44,.07,.03,.23-.03,.17-.23-.1-.45,.18-.44,.25-.51,.06-.07-.1-.46-.15-.61-.05-.16,.07-.18,.07-.35,.02-.11,.19,.16,.24,.04,.06,.02,.39,.02,.41-.19,.02-.21,.27-.07,.34-.4,.07-.33,.34-.29,.41-.53,.08-.23,.27-.27,.35-.51,.08-.24,.31-.31,.42-.42,.11-.12,.32-.54,.41-.58,.09-.03,.29-.44,.31-.53,.02-.09,.27-.16,.08-.35Z" style="fill:#1c75bc;"></path> </svg> 