<?xml version="1.0" encoding="UTF-8"?> <svg xmlns="http://www.w3.org/2000/svg" xmlns:xlink="http://www.w3.org/1999/xlink" viewBox="0 0 1899.99 1066.94"> <defs> <linearGradient id="linear-gradient" x1="2744.43" y1="3159.56" x2="2758.09" y2="3145.91" gradientTransform="translate(-1555.43 2970.67) rotate(-90)" gradientUnits="userSpaceOnUse"> <stop offset="0" stop-color="#66dac7"></stop> <stop offset="1" stop-color="#00c2a2"></stop> </linearGradient> <linearGradient id="linear-gradient-2" x1="-1275.67" y1="1375.08" x2="-1262.01" y2="1361.42" gradientTransform="translate(3024.69 1501.9) rotate(90)" gradientUnits="userSpaceOnUse"> <stop offset="0" stop-color="#66baac"></stop> <stop offset="1" stop-color="#008c75"></stop> </linearGradient> <linearGradient id="linear-gradient-3" x1="1675.99" y1="197.78" x2="1689.64" y2="184.13" gradientTransform="matrix(1, 0, 0, 1, 0, 0)" xlink:href="#linear-gradient"></linearGradient> <linearGradient id="linear-gradient-4" x1="1800.04" y1="610.21" x2="1813.69" y2="596.56" gradientTransform="translate(-224.54 -437.61)" xlink:href="#linear-gradient"></linearGradient> <linearGradient id="linear-gradient-5" x1="1703.29" y1="225.05" x2="1716.95" y2="211.4" gradientUnits="userSpaceOnUse"> <stop offset="0" stop-color="#66a699"></stop> <stop offset="1" stop-color="#006b55"></stop> </linearGradient> <linearGradient id="linear-gradient-6" x1="4405.35" y1="1340.91" x2="4419" y2="1327.26" gradientTransform="translate(-3106.83 508.05) rotate(-20.61)" xlink:href="#linear-gradient-5"></linearGradient> <linearGradient id="linear-gradient-7" x1="-1198.59" y1="1320.4" x2="-1184.94" y2="1306.74" gradientTransform="translate(3023.69 1396.37) rotate(90)" xlink:href="#linear-gradient-2"></linearGradient> <linearGradient id="linear-gradient-8" x1="-241.37" y1="-941.3" x2="-227.72" y2="-954.95" gradientTransform="translate(535.43 293.6) rotate(94.94)" xlink:href="#linear-gradient-2"></linearGradient> <linearGradient id="linear-gradient-9" x1="-1011.69" y1="2537.98" x2="-998.03" y2="2524.33" gradientTransform="translate(4154.3 1145.05) rotate(90)" xlink:href="#linear-gradient-2"></linearGradient> <linearGradient id="linear-gradient-10" x1="1641.31" y1="170.49" x2="1654.96" y2="156.84" gradientUnits="userSpaceOnUse"> <stop offset="0" stop-color="#ff66bf"></stop> <stop offset="1" stop-color="#ff0095"></stop> </linearGradient> </defs> <g style="isolation:isolate;"> <g id="Layer_2"> <g id="fon_photo"> <rect width="840.17" height="592.73" style="fill:#00c2a2;"></rect> <text></text> <rect x="671.7" y="184.94" width="1228.29" height="882" style="fill:#006b55;"></rect> </g> <g id="cubes_"> <g> <g> <rect x="1590.48" y="212.59" width="27.3" height="27.3" transform="translate(1377.9 1830.37) rotate(-90)" style="fill:#00c2a2; mix-blend-mode:screen;"></rect> <rect x="1590.48" y="212.59" width="27.3" height="27.3" transform="translate(1377.9 1830.37) rotate(-90)" style="fill:#00c2a2; mix-blend-mode:screen;"></rect> <polygon points="1590.48 239.89 1590.48 212.59 1617.79 212.59 1590.48 239.89" style="fill:url(#linear-gradient); mix-blend-mode:screen;"></polygon> </g> <g> <rect x="1635.96" y="212.59" width="27.3" height="27.3" transform="translate(1875.85 -1423.38) rotate(90)" style="fill:#008c75; mix-blend-mode:screen;"></rect> <rect x="1635.96" y="212.59" width="27.3" height="27.3" transform="translate(1875.85 -1423.38) rotate(90)" style="fill:#008c75; mix-blend-mode:screen;"></rect> <polygon points="1663.27 212.59 1663.27 239.89 1635.96 239.89 1663.27 212.59" style="fill:url(#linear-gradient-2); mix-blend-mode:screen;"></polygon> </g> <g> <rect x="1662.34" y="184.13" width="27.3" height="27.3" style="fill:#00c2a2; mix-blend-mode:screen;"></rect> <rect x="1662.34" y="184.13" width="27.3" height="27.3" style="fill:#00c2a2; mix-blend-mode:screen;"></rect> <polygon points="1662.34 184.13 1689.64 184.13 1689.64 211.43 1662.34 184.13" style="fill:url(#linear-gradient-3); mix-blend-mode:screen;"></polygon> </g> <g> <rect x="1561.85" y="158.95" width="27.3" height="27.3" style="fill:#00c2a2; mix-blend-mode:screen;"></rect> <rect x="1561.85" y="158.95" width="27.3" height="27.3" style="fill:#00c2a2; mix-blend-mode:screen;"></rect> <polygon points="1561.85 158.95 1589.15 158.95 1589.15 186.26 1561.85 158.95" style="fill:url(#linear-gradient-4); mix-blend-mode:screen;"></polygon> </g> <g> <rect x="1689.64" y="211.4" width="27.3" height="27.3" style="fill:#006b55; mix-blend-mode:screen;"></rect> <rect x="1689.64" y="211.4" width="27.3" height="27.3" style="fill:#006b55; mix-blend-mode:screen;"></rect> <polygon points="1689.64 211.4 1716.95 211.4 1716.95 238.7 1689.64 211.4" style="fill:url(#linear-gradient-5); mix-blend-mode:screen;"></polygon> </g> <g> <rect x="1474.91" y="198.53" width="27.3" height="27.3" transform="translate(20.6 537.64) rotate(-20.61)" style="fill:#006b55; mix-blend-mode:screen;"></rect> <rect x="1474.91" y="198.53" width="27.3" height="27.3" transform="translate(20.6 537.64) rotate(-20.61)" style="fill:#006b55; mix-blend-mode:screen;"></rect> <polygon points="1470.98 204.21 1496.54 194.6 1506.15 220.16 1470.98 204.21" style="fill:url(#linear-gradient-6); mix-blend-mode:screen;"></polygon> </g> <g> <rect x="1689.64" y="184.13" width="27.3" height="27.3" transform="translate(1901.07 -1505.52) rotate(90)" style="fill:#008c75; mix-blend-mode:screen;"></rect> <rect x="1689.64" y="184.13" width="27.3" height="27.3" transform="translate(1901.07 -1505.52) rotate(90)" style="fill:#008c75; mix-blend-mode:screen;"></rect> <polygon points="1716.95 184.13 1716.95 211.43 1689.64 211.43 1716.95 184.13" style="fill:url(#linear-gradient-7); mix-blend-mode:screen;"></polygon> </g> <g> <rect x="1480.38" y="120.61" width="27.3" height="27.3" transform="translate(1756.55 -1342.64) rotate(94.94)" style="fill:#008c75; mix-blend-mode:screen;"></rect> <rect x="1480.38" y="120.61" width="27.3" height="27.3" transform="translate(1756.55 -1342.64) rotate(94.94)" style="fill:#008c75; mix-blend-mode:screen;"></rect> <polygon points="1508.81 121.83 1506.45 149.04 1479.25 146.68 1508.81 121.83" style="fill:url(#linear-gradient-8); mix-blend-mode:screen;"></polygon> </g> <g> <rect x="1602.67" y="119.71" width="27.3" height="27.3" transform="translate(1749.69 -1482.96) rotate(90)" style="fill:#008c75; mix-blend-mode:screen;"></rect> <rect x="1602.67" y="119.71" width="27.3" height="27.3" transform="translate(1749.69 -1482.96) rotate(90)" style="fill:#008c75; mix-blend-mode:screen;"></rect> <polygon points="1629.97 119.71 1629.97 147.02 1602.67 147.02 1629.97 119.71" style="fill:url(#linear-gradient-9); mix-blend-mode:screen;"></polygon> </g> <g> <rect x="1627.66" y="156.84" width="27.3" height="27.3" style="fill:#ff0095;"></rect> <polygon points="1627.66 156.84 1654.96 156.84 1654.96 184.14 1627.66 156.84" style="fill:url(#linear-gradient-10);"></polygon> </g> </g> </g> </g> </g> </svg> 