<?xml version="1.0" encoding="UTF-8"?> <svg xmlns="http://www.w3.org/2000/svg" xmlns:xlink="http://www.w3.org/1999/xlink" viewBox="0 0 1080 295.06"> <defs> <linearGradient id="linear-gradient" x1="7441.56" y1="7961.79" x2="7455.21" y2="7948.13" gradientTransform="translate(-7073.45 7668.68) rotate(-90)" gradientUnits="userSpaceOnUse"> <stop offset="0" stop-color="#66dac7"></stop> <stop offset="1" stop-color="#00c2a2"></stop> </linearGradient> <linearGradient id="linear-gradient-2" x1="-6792.79" y1="6806.82" x2="-6779.14" y2="6793.17" gradientTransform="translate(7722.71 7019.93) rotate(90)" gradientUnits="userSpaceOnUse"> <stop offset="0" stop-color="#66baac"></stop> <stop offset="1" stop-color="#008c75"></stop> </linearGradient> <linearGradient id="linear-gradient-3" x1="915.64" y1="199.83" x2="929.29" y2="186.18" gradientTransform="matrix(1, 0, 0, 1, 0, 0)" xlink:href="#linear-gradient"></linearGradient> <linearGradient id="linear-gradient-4" x1="851.97" y1="173.62" x2="865.62" y2="159.96" gradientTransform="matrix(1, 0, 0, 1, 0, 0)" xlink:href="#linear-gradient"></linearGradient> <linearGradient id="linear-gradient-5" x1="942.94" y1="226.88" x2="956.6" y2="213.23" gradientUnits="userSpaceOnUse"> <stop offset="0" stop-color="#66a699"></stop> <stop offset="1" stop-color="#006b55"></stop> </linearGradient> <linearGradient id="linear-gradient-6" x1="820.84" y1="223.88" x2="834.5" y2="210.23" xlink:href="#linear-gradient-5"></linearGradient> <linearGradient id="linear-gradient-7" x1="-6714.56" y1="6778.77" x2="-6700.91" y2="6765.12" gradientTransform="translate(7721.72 6914.4) rotate(90)" xlink:href="#linear-gradient-2"></linearGradient> <linearGradient id="linear-gradient-8" x1="-6777.49" y1="6823.72" x2="-6763.83" y2="6810.07" gradientTransform="translate(7721.72 6914.4) rotate(90)" xlink:href="#linear-gradient-2"></linearGradient> <linearGradient id="linear-gradient-9" x1="942.94" y1="172.53" x2="956.6" y2="158.88" gradientUnits="userSpaceOnUse"> <stop offset="0" stop-color="#ff66bf"></stop> <stop offset="1" stop-color="#ff0095"></stop> </linearGradient> </defs> <g style="isolation:isolate;"> <g id="Layer_2"> <g id="fon_photo"> <rect y="0" width="1080" height="295.06" style="fill:#006b55; opacity:.9;"></rect> </g> <g id="cubes_"> <g> <rect x="874.68" y="213.49" width="27.3" height="27.3" transform="translate(661.2 1115.47) rotate(-90)" style="fill:#00c2a2; mix-blend-mode:screen;"></rect> <rect x="902.51" y="213.23" width="27.3" height="27.3" transform="translate(1143.04 -689.28) rotate(90)" style="fill:#008c75; mix-blend-mode:screen;"></rect> <rect x="901.99" y="186.18" width="27.3" height="27.3" style="fill:#00c2a2; mix-blend-mode:screen;"></rect> <rect x="838.32" y="159.96" width="27.3" height="27.3" style="fill:#00c2a2; mix-blend-mode:screen;"></rect> <rect x="929.29" y="213.49" width="27.3" height="27.3" style="fill:#006b55; mix-blend-mode:screen;"></rect> <rect x="807.19" y="210.49" width="27.3" height="27.3" style="fill:#006b55; mix-blend-mode:screen;"></rect> <rect x="929.29" y="186.18" width="27.3" height="27.3" transform="translate(1142.78 -743.11) rotate(90)" style="fill:#008c75; mix-blend-mode:screen;"></rect> <rect x="884.35" y="123.26" width="27.3" height="27.3" transform="translate(1034.91 -761.09) rotate(90)" style="fill:#008c75; mix-blend-mode:screen;"></rect> <rect x="874.68" y="213.49" width="27.3" height="27.3" transform="translate(661.2 1115.47) rotate(-90)" style="fill:#00c2a2; mix-blend-mode:screen;"></rect> <rect x="901.99" y="213.49" width="27.3" height="27.3" transform="translate(1142.78 -688.5) rotate(90)" style="fill:#008c75; mix-blend-mode:screen;"></rect> <rect x="901.99" y="186.18" width="27.3" height="27.3" style="fill:#00c2a2; mix-blend-mode:screen;"></rect> <rect x="838.32" y="159.96" width="27.3" height="27.3" style="fill:#00c2a2; mix-blend-mode:screen;"></rect> <rect x="929.29" y="213.23" width="27.3" height="27.3" style="fill:#006b55; mix-blend-mode:screen;"></rect> <rect x="807.19" y="210.23" width="27.3" height="27.3" style="fill:#006b55; mix-blend-mode:screen;"></rect> <rect x="929.29" y="186.18" width="27.3" height="27.3" transform="translate(1142.78 -743.11) rotate(90)" style="fill:#008c75; mix-blend-mode:screen;"></rect> <rect x="884.35" y="123.26" width="27.3" height="27.3" transform="translate(1034.91 -761.09) rotate(90)" style="fill:#008c75; mix-blend-mode:screen;"></rect> <polygon points="874.68 240.79 874.68 213.49 901.99 213.49 874.68 240.79" style="fill:url(#linear-gradient); mix-blend-mode:screen;"></polygon> <polygon points="929.55 213.49 929.55 240.79 902.25 240.79 929.55 213.49" style="fill:url(#linear-gradient-2); mix-blend-mode:screen;"></polygon> <polygon points="901.99 186.18 929.29 186.18 929.29 213.49 901.99 186.18" style="fill:url(#linear-gradient-3); mix-blend-mode:screen;"></polygon> <polygon points="838.32 159.96 865.62 159.96 865.62 187.27 838.32 159.96" style="fill:url(#linear-gradient-4); mix-blend-mode:screen;"></polygon> <polygon points="929.29 213.23 956.6 213.23 956.6 240.53 929.29 213.23" style="fill:url(#linear-gradient-5); mix-blend-mode:screen;"></polygon> <polygon points="807.19 210.23 834.5 210.23 834.5 237.53 807.19 210.23" style="fill:url(#linear-gradient-6); mix-blend-mode:screen;"></polygon> <polygon points="956.6 186.18 956.6 213.49 929.29 213.49 956.6 186.18" style="fill:url(#linear-gradient-7); mix-blend-mode:screen;"></polygon> <polygon points="911.65 123.26 911.65 150.56 884.35 150.56 911.65 123.26" style="fill:url(#linear-gradient-8); mix-blend-mode:screen;"></polygon> <g> <rect x="929.29" y="158.88" width="27.3" height="27.3" style="fill:#ff0095;"></rect> <polygon points="929.29 158.88 956.6 158.88 956.6 186.18 929.29 158.88" style="fill:url(#linear-gradient-9);"></polygon> </g> </g> </g> </g> </g> </svg> 