<?xml version="1.0" encoding="UTF-8"?> <svg xmlns="http://www.w3.org/2000/svg" viewBox="0 0 84.6 13.58"> <defs> <style>.cls-1{fill:#1b1c20;}.cls-1,.cls-2{fill-rule:evenodd;}.cls-2{fill:#e60004;}</style> </defs> <g id="Layer_2" data-name="Layer 2"> <g id="Layer_1-2" data-name="Layer 1"> <polygon class="cls-1" points="9.36 3.55 9.36 13.57 6.56 13.57 6.56 6.59 4.61 13.57 2.98 13.57 0.98 6.71 0.98 13.57 0 13.57 0 3.55 2.95 3.55 4.67 9.6 6.38 3.55 9.36 3.55"></polygon> <polygon class="cls-1" points="17.52 3.54 17.52 4.54 13.93 4.54 13.93 7.58 16.94 7.58 16.94 8.58 13.93 8.58 13.93 12.55 18.13 12.55 18.13 13.56 11.02 13.56 11.02 3.54 17.52 3.54"></polygon> <path class="cls-2" d="M28.46,3.88l-1.76.33a4.21,4.21,0,0,0,.12-.89C26.82,1.8,25.89,1,24.05,1c-1.46,0-2.19.53-2.19,1.57,0,.79.82,1.47,2.45,2Q29,6.26,29,9.43a3.74,3.74,0,0,1-1.32,3,5.25,5.25,0,0,1-3.52,1.12q-4.86,0-4.86-3.76c0-.21,0-.46.05-.76l1.83-.4A6,6,0,0,0,21,10.07q0,2.43,2.79,2.43c1.48,0,2.23-.59,2.23-1.75,0-.87-.89-1.64-2.67-2.29Q19.47,7,19.47,3.92a3.53,3.53,0,0,1,1.29-2.84A5.11,5.11,0,0,1,24.15,0C27,0,28.46,1.29,28.46,3.88"></path> <path class="cls-2" d="M35.89,0q5.72,0,5.72,6.77t-5.82,6.77Q30,13.55,30,6.63,30,0,35.89,0m-.1,1.05a1.45,1.45,0,0,0-1.45,1.18A17.29,17.29,0,0,0,34,6.78a17.29,17.29,0,0,0,.38,4.54,1.48,1.48,0,0,0,2.9,0,17.75,17.75,0,0,0,.38-4.54,17.85,17.85,0,0,0-.38-4.54,1.46,1.46,0,0,0-1.45-1.18"></path> <path class="cls-1" d="M42.7,13.58v-10H47q3.67,0,3.68,2.94c0,2-1.37,3-4.09,3h-1v4.11Zm2.9-5h.66c1.05,0,1.58-.7,1.58-2.1s-.53-2-1.58-2H45.6Z"></path> <path class="cls-1" d="M51.62,13.56v-10h4.31a4.57,4.57,0,0,1,2.68.71,2.22,2.22,0,0,1,1,1.9q0,1.81-2.16,2.37a2.91,2.91,0,0,1,1.44.9,4.52,4.52,0,0,1,.44,1.91,4.57,4.57,0,0,0,.56,2.23H56.75a4.38,4.38,0,0,1-.3-1.74l0-.59v-.75c0-1.16-.47-1.73-1.4-1.73h-.49v4.81Zm2.91-5.64h.58c1.1,0,1.65-.58,1.65-1.73s-.55-1.72-1.65-1.72h-.58Z"></path> <path class="cls-1" d="M65,3.2c2.92,0,4.38,1.72,4.38,5.18S67.92,13.56,65,13.56s-4.46-1.77-4.46-5.3C60.49,4.89,62,3.2,65,3.2M65,4a1.11,1.11,0,0,0-1.11.9,13.76,13.76,0,0,0-.29,3.48,13.61,13.61,0,0,0,.29,3.47,1.13,1.13,0,0,0,2.22,0,13.61,13.61,0,0,0,.29-3.47,13.61,13.61,0,0,0-.29-3.47A1.11,1.11,0,0,0,65,4"></path> <polygon class="cls-1" points="76.96 3.56 76.96 4.56 73.33 4.56 73.33 7.9 76.41 7.9 76.41 8.91 73.33 8.91 73.33 13.58 70.42 13.58 70.42 3.56 76.96 3.56"></polygon> <polygon class="cls-1" points="84.6 3.56 84.6 4.56 80.97 4.56 80.97 7.9 84.05 7.9 84.05 8.91 80.97 8.91 80.97 13.58 78.06 13.58 78.06 3.56 84.6 3.56"></polygon> </g> </g> </svg> 