<?xml version="1.0" encoding="UTF-8"?> <!-- Generator: Adobe Illustrator 26.5.0, SVG Export Plug-In . SVG Version: 6.00 Build 0) --> <svg xmlns="http://www.w3.org/2000/svg" xmlns:xlink="http://www.w3.org/1999/xlink" id="Text" x="0px" y="0px" viewBox="0 0 1076.6 504" style="enable-background:new 0 0 1076.6 504;" xml:space="preserve"> <style type="text/css"> .st0{fill:#3C415A;} .st1{fill:#FF8000;} </style> <g> <path class="st0" d="M163.2,86.4l-12,28c-0.9,2.2-1.9,3.8-2.8,4.8c-0.9,1-2.2,1.5-3.7,1.5c-0.9,0-1.7-0.1-2.6-0.4v-1.9 c0.9,0.2,1.7,0.3,2.4,0.3c0.9,0,1.7-0.3,2.4-1c0.6-0.7,1.4-1.9,2.2-3.7l1.8-4l-13.1-23.5h2.4l10,18c0.6,1.2,1.2,2.3,1.7,3.3h0.2 c0.4-1.1,0.9-2.4,1.6-4l7.3-17.3H163.2L163.2,86.4z"></path> <path class="st0" d="M166.4,120.2V86.4h8.4c3.3,0,5.9,0.7,7.8,2.1s2.8,3.5,2.8,6.2c0,3.6-1.9,6.2-5.6,7.5v0.1 c2.6,0.3,4.6,1.2,6.1,2.8c1.4,1.6,2.1,3.5,2.1,5.8c0,3-1.1,5.4-3.2,6.9s-4.9,2.4-8.4,2.4H166.4L166.4,120.2z M183,94.9 c0-2.1-0.6-3.7-1.8-4.8c-1.2-1.1-3.2-1.7-6-1.7h-6.4v13.3h6c2.6,0,4.6-0.6,6.1-1.8S183,97,183,94.9z M185.5,111 c0-2.3-0.8-4.1-2.4-5.4c-1.6-1.3-3.9-2-6.8-2h-7.7v14.6h8.4c2.8,0,4.9-0.7,6.3-2C184.8,115,185.5,113.2,185.5,111L185.5,111z"></path> <path class="st0" d="M190,120.2l14.8-33.8h2.2l14.8,33.8h-2.4l-4.2-9.6h-18.7l-4.1,9.6H190L190,120.2z M202.3,97.4l-4.9,11.2h17 l-5.1-11.5c-1-2.2-2.1-4.9-3.3-8.1h-0.2c-0.2,0.5-0.5,1.3-1.1,2.6s-1,2.4-1.4,3.4C202.9,96.1,202.5,96.9,202.3,97.4L202.3,97.4z"></path> <path class="st0" d="M227.2,86.4l15.7,15.3V86.4h2.3v15.3l15.7-15.3h3l-16,15.6l16.4,18.2h-2.9l-16.2-17.9v17.9h-2.3v-17.9 l-16.2,17.9h-2.9l16.4-18.2l-16-15.6H227.2L227.2,86.4z"></path> <path class="st0" d="M266.3,120.2l14.8-33.8h2.2l14.8,33.8h-2.4l-4.2-9.6h-18.7l-4.1,9.6H266.3L266.3,120.2z M278.6,97.4l-4.9,11.2 h17l-5.1-11.5c-1-2.2-2.1-4.9-3.3-8.1h-0.2c-0.2,0.5-0.5,1.3-1,2.6s-1,2.4-1.4,3.4C279.2,96.1,278.9,96.9,278.6,97.4L278.6,97.4z"></path> <path class="st0" d="M321.1,86.4v2h-16.8v13.3h16.2v2h-16.2v14.6h17.4v2H302V86.4L321.1,86.4L321.1,86.4z"></path> <path class="st0" d="M358.4,86.4l5.6,33.8h-2.2l-3.2-19.7c-0.2-1.1-0.4-2.7-0.8-4.9c-0.4-2.2-0.6-3.8-0.8-4.9h-0.1 c-1.3,3.9-2.5,7.1-3.4,9.7l-7.3,19.8h-2l-7.5-20.7c-0.8-2.1-1.7-5.1-3-8.8h-0.1c-0.2,1.8-0.6,4.8-1.3,8.8l-3.3,20.7h-2.2l5.5-33.8 h2l8.5,23.5c0.6,1.6,1.4,3.9,2.4,7h0.1c0.9-2.7,1.6-5,2.4-7l8.7-23.6L358.4,86.4L358.4,86.4z"></path> <path class="st0" d="M369.2,120.2V86.4h2.3v15.3h7.3c3.7,0,6.6,0.8,8.7,2.3s3.1,3.9,3.1,7c0,6.2-3.8,9.3-11.5,9.3 C379.1,120.2,369.2,120.2,369.2,120.2z M388.1,111c0-2.3-0.8-4.1-2.4-5.4s-3.9-2-7-2h-7.3v14.6h7.7 C385.1,118.2,388.1,115.8,388.1,111z M394.7,120.2V86.4h2.3v33.8H394.7z"></path> <path class="st0" d="M423.4,86.4v2h-16.8v13.3h16.2v2h-16.2v14.6h17.4v2h-19.7V86.4L423.4,86.4L423.4,86.4z"></path> <path class="st0" d="M468.2,86.4v31.8h4.1v10.7H470v-8.7h-28.6v8.7h-2.3v-10.7h0.4c1.8,0,3.3-0.8,4.5-2.3s2-3.9,2.2-7.2l1.6-22.4 H468.2z M465.9,118.2V88.4h-15.8l-1.5,20.4c-0.3,4.6-1.6,7.7-4,9.5H465.9z"></path> <path class="st0" d="M501.9,89.7h-0.1c-0.3,0.4-1,1.3-2.1,2.9c-1.1,1.6-2.2,3.1-3.3,4.6c-1.1,1.5-2,2.8-2.8,3.8l-14.2,19.2h-2V86.4 h2.3v23.1c0,1.6,0,4-0.1,7.2h0.2c0.9-1.3,2.3-3.2,4.2-5.8s3.3-4.6,4.2-5.8L502,86.4h2.1v33.8h-2.3V97.9 C501.8,94.2,501.8,91.5,501.9,89.7L501.9,89.7z"></path> <path class="st0" d="M527.5,85.3c4.1,0,7.5,0.9,10.2,2.8c2.7,1.8,4.6,4.2,5.9,7H541c-1.1-2.4-2.8-4.3-5.1-5.7s-5.2-2.1-8.4-2.1 c-4.2,0-7.8,1.4-10.9,4.2c-3.1,2.8-4.6,6.7-4.6,11.7c0,4.6,1.5,8.5,4.4,11.5s6.7,4.6,11.3,4.6c3.3,0,6.1-0.7,8.4-2.2 c2.3-1.5,4.1-3.6,5.3-6.2h2.6c-3.1,6.9-8.6,10.4-16.5,10.4c-5.3,0-9.6-1.7-13-5.1c-3.3-3.4-5-7.7-5-13s1.8-9.4,5.2-12.8 S522.5,85.3,527.5,85.3L527.5,85.3z"></path> <path class="st0" d="M556.6,120.2V88.4h-10.1v-2H569v2h-10.1v31.8H556.6z"></path> <path class="st0" d="M572.7,120.2V86.4h9.3c4,0,7.2,0.8,9.4,2.5c2.2,1.7,3.4,4.2,3.4,7.7s-1,5.9-3.1,7.7c-2.1,1.7-5.4,2.6-10,2.6 H575v13.4L572.7,120.2L572.7,120.2z M592.4,96.7c0-2.6-0.8-4.6-2.5-6.1s-4.2-2.2-7.6-2.2H575v16.5h7.7 C589.2,104.8,592.4,102.1,592.4,96.7L592.4,96.7z"></path> <path class="st0" d="M624.7,89.7h-0.2c-0.3,0.4-1,1.3-2.1,2.9c-1.1,1.6-2.2,3.1-3.3,4.6c-1.1,1.5-2,2.8-2.8,3.8l-14.2,19.2h-2V86.4 h2.3v23.1c0,1.6,0,4-0.1,7.2h0.2c0.9-1.3,2.3-3.2,4.2-5.8s3.3-4.6,4.2-5.8l13.8-18.6h2.1v33.8h-2.3V97.9 C624.6,94.2,624.6,91.5,624.7,89.7L624.7,89.7z"></path> <path class="st0" d="M636.2,88.4v13.3h7.3c3.7,0,6.6,0.8,8.7,2.3c2.1,1.5,3.1,3.9,3.1,7c0,6.2-3.8,9.3-11.5,9.3h-9.9V86.4h18.7v2 C652.6,88.4,636.2,88.4,636.2,88.4z M652.8,111c0-2.3-0.8-4.1-2.3-5.4c-1.6-1.3-3.9-2-7-2h-7.3v14.6h7.7 C649.9,118.2,652.8,115.8,652.8,111z"></path> <path class="st0" d="M660.1,120.2V86.4h2.3v15.3h7.3c3.7,0,6.6,0.8,8.7,2.3c2.1,1.5,3.1,3.9,3.1,7c0,6.2-3.8,9.3-11.5,9.3 C670,120.2,660.1,120.2,660.1,120.2z M679,111c0-2.3-0.8-4.1-2.3-5.4c-1.6-1.3-3.9-2-7-2h-7.3v14.6h7.7 C676,118.2,679,115.8,679,111z"></path> <path class="st0" d="M689,86.4v15.3h5.8c0.4-4.6,2.3-8.5,5.8-11.6c3.5-3.2,7.7-4.7,12.7-4.7c5.5,0,10,1.8,13.4,5.3 s5.1,7.8,5.1,12.7s-1.8,9.3-5.3,12.8c-3.5,3.5-7.9,5.2-13.1,5.2c-3,0-5.7-0.5-8.1-1.6s-4.3-2.4-5.8-4.1s-2.6-3.6-3.3-5.7 c-0.8-2.1-1.2-4.2-1.2-6.3H689v16.6h-2.3V86.4L689,86.4L689,86.4z M697.3,103.3c0,4.6,1.5,8.4,4.6,11.4s6.9,4.6,11.4,4.6 s8.3-1.5,11.4-4.6s4.6-6.9,4.6-11.4s-1.5-8.4-4.5-11.4c-3-3-6.8-4.6-11.5-4.6s-8.3,1.5-11.4,4.5C698.8,94.9,697.3,98.7,697.3,103.3 L697.3,103.3z"></path> <path class="st0" d="M742.2,120.2V88.4h-10.1v-2h22.5v2h-10.1v31.8H742.2z"></path> <path class="st0" d="M755,103.3c0-5,1.8-9.2,5.3-12.7s7.9-5.3,13.2-5.3s10,1.8,13.4,5.3s5.1,7.8,5.1,12.7s-1.8,9.3-5.3,12.8 c-3.5,3.5-7.9,5.2-13.1,5.2c-3,0-5.8-0.5-8.2-1.6c-2.4-1.1-4.4-2.5-5.8-4.3c-1.5-1.8-2.6-3.7-3.3-5.8 C755.4,107.6,755,105.5,755,103.3L755,103.3z M757.5,103.3c0,4.6,1.5,8.4,4.6,11.4c3.1,3,6.9,4.6,11.4,4.6s8.3-1.5,11.4-4.6 c3.1-3,4.6-6.9,4.6-11.4s-1.5-8.4-4.5-11.4c-3-3-6.8-4.6-11.5-4.6s-8.3,1.5-11.4,4.5C759,94.9,757.5,98.7,757.5,103.3L757.5,103.3z "></path> <path class="st0" d="M796.9,120.2V86.4h9.3c4,0,7.2,0.8,9.4,2.5c2.2,1.7,3.4,4.2,3.4,7.7s-1,5.9-3.1,7.7c-2.1,1.7-5.4,2.6-10,2.6 h-6.7v13.4L796.9,120.2L796.9,120.2z M816.6,96.7c0-2.6-0.8-4.6-2.5-6.1s-4.2-2.2-7.6-2.2h-7.3v16.5h7.7 C813.4,104.8,816.6,102.1,816.6,96.7L816.6,96.7z"></path> <path class="st0" d="M823.9,120.2V86.4h2.3v15.3h7.3c3.7,0,6.6,0.8,8.7,2.3c2.1,1.5,3.1,3.9,3.1,7c0,6.2-3.8,9.3-11.5,9.3 C833.8,120.2,823.9,120.2,823.9,120.2z M842.8,111c0-2.3-0.8-4.1-2.3-5.4c-1.6-1.3-3.9-2-7-2h-7.3v14.6h7.7 C839.8,118.2,842.8,115.8,842.8,111z M849.3,120.2V86.4h2.3v33.8H849.3z"></path> <path class="st0" d="M165.6,149.2h-0.1c-0.3,0.4-1,1.3-2.1,2.9c-1.1,1.6-2.2,3.1-3.3,4.6c-1.1,1.5-2,2.8-2.8,3.8l-14.2,19.2h-2 v-33.8h2.3V169c0,1.6,0,4-0.1,7.2h0.2c0.9-1.3,2.3-3.2,4.2-5.9s3.3-4.6,4.2-5.8l13.8-18.6h2.1v33.8h-2.3v-22.4 C165.5,153.7,165.5,151,165.6,149.2L165.6,149.2z"></path> <path class="st0" d="M209.2,179.7v-31.8h-20.4v31.8h-2.3v-33.8h25v33.8L209.2,179.7L209.2,179.7z"></path> <path class="st0" d="M215.6,179.7l14.8-33.8h2.2l14.8,33.8H245l-4.2-9.6h-18.7l-4.1,9.6L215.6,179.7L215.6,179.7z M227.9,157 l-4.9,11.2h17l-5.1-11.5c-1-2.2-2.1-4.9-3.3-8.1h-0.2c-0.2,0.5-0.5,1.3-1.1,2.6s-1,2.4-1.4,3.4C228.5,155.6,228.1,156.4,227.9,157 L227.9,157z"></path> <path class="st0" d="M251.1,179.7v-33.8h9.3c4,0,7.2,0.8,9.4,2.5c2.2,1.7,3.4,4.2,3.4,7.7s-1,5.9-3.1,7.7c-2.1,1.7-5.4,2.6-10,2.6 h-6.7v13.4L251.1,179.7L251.1,179.7z M270.7,156.2c0-2.6-0.8-4.6-2.5-6.1s-4.2-2.2-7.6-2.2h-7.3v16.5h7.7 C267.5,164.3,270.7,161.6,270.7,156.2z"></path> <path class="st0" d="M284.4,179.7v-31.8h-10.1v-2h22.5v2h-10.1v31.8H284.4L284.4,179.7z"></path> <path class="st0" d="M326.3,179.7v-16.6h-23v16.6H301v-33.8h2.3v15.3h23v-15.3h2.3v33.8L326.3,179.7L326.3,179.7z"></path> <path class="st0" d="M355,145.9v2h-16.8v13.3h16.2v2h-16.2v14.6h17.4v2h-19.7v-33.8L355,145.9L355,145.9z"></path> <path class="st0" d="M361.8,179.7v-33.8h9.4c4,0,7.2,0.8,9.4,2.5c2.2,1.7,3.4,4.2,3.4,7.7s-1,5.9-3.1,7.7c-2.1,1.7-5.4,2.6-10,2.6 h-6.7v13.4L361.8,179.7L361.8,179.7z M381.5,156.2c0-2.6-0.8-4.6-2.5-6.1s-4.2-2.2-7.6-2.2h-7.3v16.5h7.7 C378.3,164.3,381.5,161.6,381.5,156.2z"></path> <path class="st0" d="M388.8,179.7v-33.8h2.3v15.3h7.3c3.7,0,6.6,0.8,8.7,2.3s3.1,3.9,3.1,7c0,6.2-3.8,9.3-11.5,9.3L388.8,179.7 L388.8,179.7z M407.7,170.5c0-2.3-0.8-4.1-2.4-5.4s-3.9-2-7-2h-7.3v14.6h7.7C404.7,177.7,407.7,175.3,407.7,170.5L407.7,170.5z M414.2,179.7v-33.8h2.3v33.8L414.2,179.7L414.2,179.7z"></path> <path class="st0" d="M424.2,179.7V176h3.4v3.7H424.2z M424.8,145.9h2.2l-0.4,24.4h-1.5L424.8,145.9L424.8,145.9z"></path> </g> <g> <path class="st1" d="M138.5,228.9c0-2.5,0.8-4.6,2.5-6.2s3.8-2.5,6.2-2.5s4.6,0.8,6.3,2.5c1.6,1.7,2.5,3.7,2.5,6.2 s-0.8,4.5-2.5,6.2c-1.7,1.7-3.8,2.6-6.2,2.6s-4.6-0.8-6.2-2.5S138.5,231.4,138.5,228.9L138.5,228.9z M141.3,228.9 c0,1.8,0.6,3.3,1.8,4.5c1.2,1.2,2.6,1.8,4.2,1.8c1.7,0,3.1-0.6,4.2-1.8c1.1-1.2,1.7-2.7,1.7-4.5s-0.6-3.3-1.7-4.5 c-1.1-1.2-2.5-1.8-4.3-1.8s-3.1,0.6-4.3,1.8C141.9,225.6,141.3,227.1,141.3,228.9L141.3,228.9z"></path> <path class="st1" d="M167.1,220.2c2.1,0,3.8,0.5,5,1.5s2,2.1,2.4,3.3h-3c-0.8-1.6-2.2-2.4-4.4-2.4c-1.6,0-3,0.6-4.1,1.7 c-1.1,1.1-1.7,2.7-1.7,4.7c0,1.8,0.6,3.4,1.7,4.6s2.6,1.8,4.3,1.8c2.1,0,3.6-0.9,4.4-2.7h3c-0.5,1.4-1.4,2.6-2.6,3.6 s-2.9,1.5-4.9,1.5c-2.6,0-4.6-0.8-6.3-2.5c-1.6-1.6-2.5-3.8-2.5-6.3s0.8-4.5,2.4-6.2C162.4,221.1,164.5,220.2,167.1,220.2 L167.1,220.2z"></path> <path class="st1" d="M188.1,220.8v2.4h-4.6v13.9h-2.7v-13.9h-4.7v-2.4H188.1L188.1,220.8z"></path> <path class="st1" d="M206.3,220.8v16.4h-2.7v-2.2h-0.1c-1.5,1.8-3.5,2.8-6,2.8c-2.3,0-4.3-0.8-5.9-2.4s-2.5-3.7-2.5-6.3 s0.8-4.6,2.4-6.2s3.7-2.5,6.1-2.5c2.2,0,4.2,1,5.8,2.9h0v-2.4L206.3,220.8L206.3,220.8z M193.5,224.5c-1.1,1.3-1.6,2.8-1.6,4.5 s0.5,3.2,1.6,4.5c1.1,1.3,2.5,1.9,4.4,1.9c1.6,0,3-0.6,4.1-1.8s1.8-2.7,1.8-4.5c0-1.9-0.6-3.5-1.7-4.7s-2.5-1.8-4.1-1.8 C196.1,222.6,194.6,223.2,193.5,224.5L193.5,224.5z"></path> <path class="st1" d="M211,237.1v-16.4h6.2c1.7,0,3,0.4,4,1.1s1.4,1.7,1.4,3.1c0,0.7-0.2,1.4-0.6,2s-1.1,1-2,1.3 c1.3,0.2,2.3,0.7,2.9,1.5s0.9,1.6,0.9,2.6c0,1.5-0.5,2.7-1.6,3.6s-2.5,1.3-4.4,1.3H211L211,237.1z M217,223h-3.4v4.4h3 c2.2,0,3.3-0.8,3.3-2.3C219.9,223.8,219,223,217,223L217,223z M217.7,229.7h-4.1v5.2h4.5c1,0,1.8-0.2,2.3-0.8s0.8-1.1,0.8-1.8 C221.2,230.6,220,229.7,217.7,229.7L217.7,229.7z"></path> <path class="st1" d="M230.4,227.5h3.1c1.7,0,3.1,0.4,4.1,1.3s1.4,2,1.4,3.5s-0.5,2.7-1.4,3.6c-1,0.9-2.3,1.3-4,1.3h-5.9v-16.4h2.7 L230.4,227.5L230.4,227.5z M233.5,229.7h-3.1v5.2h3.1c0.9,0,1.6-0.2,2.1-0.8s0.7-1.1,0.7-1.8C236.3,230.6,235.3,229.7,233.5,229.7 L233.5,229.7z"></path> <path class="st1" d="M251.2,220.8v2.4h-4.6v13.9h-2.7v-13.9h-4.7v-2.4H251.2L251.2,220.8z"></path> <path class="st1" d="M260.4,220.2c1.4,0,2.7,0.3,3.8,0.8c1.1,0.6,1.9,1.2,2.5,2.1s1,1.8,1.4,2.7c0.3,0.9,0.4,1.9,0.4,2.9 c0,0.4,0,0.8-0.1,1H255c0,1.5,0.6,2.8,1.7,3.9c1.2,1.1,2.5,1.7,4.1,1.7c1.7,0,3.1-0.7,4.2-2h3.1c-0.6,1.2-1.6,2.2-2.8,3.1 s-2.7,1.3-4.5,1.3c-2.6,0-4.7-0.9-6.3-2.6c-1.6-1.7-2.4-3.9-2.4-6.4c0-2.3,0.8-4.4,2.2-6C256,221.1,257.9,220.2,260.4,220.2 L260.4,220.2z M260.4,222.6c-1.5,0-2.7,0.5-3.6,1.4s-1.5,2.1-1.6,3.4h10.6c-0.1-1.3-0.7-2.5-1.7-3.4S261.8,222.6,260.4,222.6z"></path> <path class="st1" d="M279.2,233.1h2.9c0.4,1.6,1.6,2.3,3.5,2.3c1.2,0,2.2-0.3,2.9-0.8s1-1.2,1-2.1s-0.3-1.6-1-2.1s-1.4-0.8-2.3-0.8 h-2.4v-2.2h2.4c0.9,0,1.6-0.2,2.1-0.7s0.8-1.1,0.8-1.8c0-0.7-0.3-1.2-0.9-1.7c-0.6-0.5-1.4-0.7-2.4-0.7c-0.8,0-1.5,0.2-2.1,0.6 s-1,0.9-1.2,1.6h-2.8c0.3-1.4,1-2.5,2.1-3.3c1.1-0.8,2.5-1.2,4-1.2c1.7,0,3.1,0.4,4.2,1.2s1.7,1.9,1.7,3.2c0,2-0.9,3.3-2.8,3.8 c1,0.3,1.8,0.8,2.4,1.5s0.9,1.5,0.9,2.5c0,1.6-0.6,2.8-1.7,3.8c-1.1,1-2.8,1.4-4.9,1.4c-1.7,0-3.1-0.4-4.2-1.2 C280.2,235.7,279.5,234.5,279.2,233.1L279.2,233.1z"></path> <path class="st1" d="M312,220.8v16.4h-2.7v-2.2h-0.1c-1.5,1.8-3.5,2.8-6,2.8c-2.3,0-4.3-0.8-5.9-2.4c-1.6-1.6-2.5-3.7-2.5-6.3 s0.8-4.6,2.4-6.2s3.7-2.5,6.1-2.5c2.2,0,4.2,1,5.8,2.9h0v-2.4L312,220.8L312,220.8z M299.3,224.5c-1,1.3-1.6,2.8-1.6,4.5 s0.5,3.2,1.6,4.5c1,1.3,2.5,1.9,4.4,1.9c1.6,0,3-0.6,4.1-1.8s1.8-2.7,1.8-4.5c0-1.9-0.6-3.5-1.7-4.7s-2.5-1.8-4.1-1.8 C301.8,222.6,300.3,223.2,299.3,224.5L299.3,224.5z"></path> <path class="st1" d="M324.2,230.4h-1.9l-4.6,6.7h-2.9l4.8-6.9c-1.2-0.3-2.1-0.8-2.7-1.6c-0.6-0.8-1-1.8-1-3c0-1.5,0.5-2.6,1.4-3.5 s2.2-1.3,3.9-1.3h5.7v16.4h-2.7L324.2,230.4L324.2,230.4z M321.4,228.1h2.8V223h-2.8c-0.9,0-1.6,0.2-2,0.7 c-0.5,0.5-0.7,1.1-0.7,1.8C318.7,227.3,319.6,228.1,321.4,228.1L321.4,228.1z"></path> <path class="st1" d="M331.6,237.1v-16.4h6.2c1.7,0,3,0.4,4,1.1s1.4,1.7,1.4,3.1c0,0.7-0.2,1.4-0.6,2s-1.1,1-2,1.3 c1.3,0.2,2.3,0.7,3,1.5s0.9,1.6,0.9,2.6c0,1.5-0.5,2.7-1.6,3.6s-2.5,1.3-4.4,1.3H331.6L331.6,237.1z M337.6,223h-3.4v4.4h3 c2.2,0,3.3-0.8,3.3-2.3C340.5,223.8,339.6,223,337.6,223L337.6,223z M338.3,229.7h-4.1v5.2h4.5c1,0,1.8-0.2,2.3-0.8 c0.5-0.5,0.8-1.1,0.8-1.8C341.8,230.6,340.6,229.7,338.3,229.7L338.3,229.7z"></path> <path class="st1" d="M348.3,237.1v-16.4h2.7v7.5l7.6-7.5h3.3l-7.8,7.6l8,8.7h-3.5l-7.7-8.4v8.4H348.3L348.3,237.1z"></path> <path class="st1" d="M377,220.8l-9,24.4h-2.6l3-8l-6-16.4h2.8l3.5,9.5c0.6,1.4,0.9,2.6,1.1,3.4h0.1c0.6-1.9,1-3.1,1.1-3.4l3.4-9.5 H377L377,220.8z"></path> <path class="st1" d="M402.4,220.8v16.4h-2.7v-7.4h-9v7.4H388v-16.4h2.7v6.7h9v-6.7H402.4z"></path> <path class="st1" d="M423.1,220.8v16.4h-2.7v-2.2h-0.1c-1.5,1.8-3.5,2.8-6,2.8c-2.3,0-4.3-0.8-5.9-2.4c-1.6-1.6-2.5-3.7-2.5-6.3 s0.8-4.6,2.4-6.2s3.7-2.5,6.1-2.5c2.2,0,4.2,1,5.8,2.9h0v-2.4L423.1,220.8L423.1,220.8z M410.3,224.5c-1,1.3-1.6,2.8-1.6,4.5 s0.5,3.2,1.6,4.5c1,1.3,2.5,1.9,4.4,1.9c1.6,0,3-0.6,4.1-1.8s1.8-2.7,1.8-4.5c0-1.9-0.6-3.5-1.7-4.7s-2.5-1.8-4.1-1.8 C412.9,222.6,411.4,223.2,410.3,224.5L410.3,224.5z"></path> <path class="st1" d="M435.2,228.9c0-2.5,0.8-4.6,2.5-6.2s3.8-2.5,6.2-2.5s4.6,0.8,6.3,2.5s2.5,3.7,2.5,6.2s-0.8,4.5-2.5,6.2 c-1.7,1.7-3.8,2.6-6.2,2.6s-4.6-0.8-6.2-2.5S435.2,231.4,435.2,228.9L435.2,228.9z M438,228.9c0,1.8,0.6,3.3,1.8,4.5 c1.2,1.2,2.6,1.8,4.2,1.8c1.7,0,3.1-0.6,4.2-1.8c1.1-1.2,1.7-2.7,1.7-4.5s-0.5-3.3-1.7-4.5c-1.1-1.2-2.5-1.8-4.3-1.8 s-3.1,0.6-4.3,1.8C438.5,225.6,438,227.1,438,228.9L438,228.9z"></path> <path class="st1" d="M465.4,216.5c-4.2,0.8-6.7,3-7.3,6.7h0.1c0.6-0.8,1.5-1.6,2.6-2.1c1.1-0.6,2.3-0.9,3.5-0.9 c2.5,0,4.5,0.8,6.1,2.5c1.6,1.6,2.4,3.7,2.4,6.2s-0.8,4.5-2.5,6.2c-1.7,1.7-3.8,2.6-6.2,2.6s-4.6-0.9-6.2-2.6s-2.4-4.3-2.4-7.5 c0-2.4,0.3-4.4,0.8-6.2c0.5-1.7,1.2-3.1,2.2-4.1s2-1.8,3.1-2.3c1.1-0.5,2.4-0.9,3.9-1.2c1.7-0.3,3.1-0.8,4.2-1.6l1.2,2.3 C469.1,215.5,467.3,216.2,465.4,216.5L465.4,216.5z M458.1,228.9c0,1.8,0.6,3.3,1.8,4.5c1.2,1.2,2.6,1.8,4.2,1.8 c1.7,0,3.1-0.6,4.2-1.8c1.1-1.2,1.7-2.7,1.7-4.5s-0.5-3.3-1.6-4.5c-1.1-1.2-2.5-1.8-4.2-1.8s-3.2,0.6-4.3,1.8 S458.1,227.1,458.1,228.9L458.1,228.9z"></path> <path class="st1" d="M488.6,220.8l-9,24.4H477l3-8l-6-16.4h2.8l3.5,9.5c0.6,1.4,0.9,2.6,1.1,3.4h0.1c0.6-1.9,1-3.1,1.1-3.4l3.4-9.5 H488.6L488.6,220.8z"></path> <path class="st1" d="M503.9,220.8v16.4h-2.7V229h-0.1c-1.2,1.7-2.7,2.6-4.6,2.6c-1.6,0-2.9-0.6-4.1-1.7s-1.7-2.9-1.7-5.4v-3.6h2.7 v3.4c0,1.6,0.3,2.8,1,3.6s1.5,1.3,2.7,1.3c1.3,0,2.3-0.5,3.1-1.4s1.1-2.3,1.1-4.1v-2.9L503.9,220.8L503.9,220.8z"></path> <path class="st1" d="M515.7,220.2c1.4,0,2.7,0.3,3.8,0.8c1.1,0.6,1.9,1.2,2.5,2.1s1,1.8,1.3,2.7c0.3,0.9,0.4,1.9,0.4,2.9 c0,0.4,0,0.8-0.1,1h-13.4c0,1.5,0.6,2.8,1.7,3.9c1.2,1.1,2.5,1.7,4.1,1.7c1.7,0,3.1-0.7,4.2-2h3.1c-0.6,1.2-1.6,2.2-2.8,3.1 s-2.7,1.3-4.5,1.3c-2.6,0-4.7-0.9-6.3-2.6c-1.6-1.7-2.4-3.9-2.4-6.4c0-2.3,0.8-4.4,2.2-6C511.3,221.1,513.2,220.2,515.7,220.2 L515.7,220.2z M515.7,222.6c-1.5,0-2.7,0.5-3.7,1.4s-1.5,2.1-1.6,3.4h10.5c-0.1-1.3-0.7-2.5-1.7-3.4S517.1,222.6,515.7,222.6z"></path> <path class="st1" d="M541.7,220.8v16.4H539v-7.4h-9v7.4h-2.7v-16.4h2.7v6.7h9v-6.7H541.7z"></path> <path class="st1" d="M546.4,237.1v-16.4h2.7v7.4c0,2,0,3.7-0.1,5h0.1c0.3-0.6,1.1-1.7,2.3-3.2l7-9.2h2.4v16.4h-2.7v-7.4 c0-2,0-3.7,0.1-5h-0.1c-0.3,0.6-1.1,1.7-2.3,3.2l-7,9.2H546.4z"></path> <path class="st1" d="M572.5,220.2c1.4,0,2.7,0.3,3.8,0.8c1.1,0.6,1.9,1.2,2.5,2.1s1,1.8,1.3,2.7c0.3,0.9,0.4,1.9,0.4,2.9 c0,0.4,0,0.8-0.1,1h-13.3c0,1.5,0.6,2.8,1.7,3.9s2.5,1.7,4.1,1.7c1.7,0,3.1-0.7,4.2-2h3.1c-0.6,1.2-1.6,2.2-2.8,3.1 s-2.7,1.3-4.5,1.3c-2.6,0-4.7-0.9-6.3-2.6c-1.6-1.7-2.4-3.9-2.4-6.4c0-2.3,0.8-4.4,2.2-6C568.1,221.1,570.1,220.2,572.5,220.2 L572.5,220.2z M572.5,222.6c-1.5,0-2.7,0.5-3.7,1.4s-1.5,2.1-1.6,3.4h10.5c-0.1-1.3-0.7-2.5-1.7-3.4S573.9,222.6,572.5,222.6z"></path> <path class="st1" d="M139.6,278.1v-16.4h6.2c1.7,0,3,0.4,4,1.1s1.4,1.7,1.4,3.1c0,0.7-0.2,1.4-0.6,2s-1.1,1-2,1.3 c1.3,0.2,2.3,0.7,2.9,1.5s0.9,1.6,0.9,2.6c0,1.5-0.5,2.7-1.6,3.5s-2.5,1.3-4.4,1.3L139.6,278.1L139.6,278.1z M145.7,264h-3.4v4.4h3 c2.2,0,3.3-0.8,3.3-2.3C148.6,264.7,147.6,264,145.7,264z M146.3,270.7h-4.1v5.2h4.5c1,0,1.8-0.2,2.3-0.8s0.8-1.1,0.8-1.8 C149.8,271.6,148.7,270.7,146.3,270.7L146.3,270.7z"></path> <path class="st1" d="M172.3,261.8v16.4h-2.7v-2.2h-0.1c-1.5,1.8-3.5,2.8-6,2.8c-2.3,0-4.3-0.8-5.9-2.4s-2.5-3.7-2.5-6.3 s0.8-4.6,2.4-6.2s3.7-2.5,6.1-2.5c2.2,0,4.2,1,5.8,2.9h0v-2.4H172.3L172.3,261.8z M159.6,265.5c-1.1,1.3-1.6,2.8-1.6,4.5 s0.5,3.2,1.6,4.5c1.1,1.3,2.5,1.9,4.4,1.9c1.6,0,3-0.6,4.1-1.8s1.8-2.7,1.8-4.5c0-1.9-0.6-3.5-1.7-4.7s-2.5-1.8-4.1-1.8 C162.1,263.6,160.6,264.2,159.6,265.5L159.6,265.5z"></path> <path class="st1" d="M200.5,278.1H177v-16.4h2.7v13.9h7.7v-13.9h2.7v13.9h7.7v-13.9h2.7L200.5,278.1L200.5,278.1z"></path> <path class="st1" d="M205.2,278.1v-16.4h2.7v7.4c0,2,0,3.7-0.1,5h0.1c0.3-0.6,1.1-1.7,2.3-3.2l7-9.2h2.4v16.4h-2.7v-7.4 c0-2,0-3.7,0.1-5h-0.1c-0.3,0.6-1.1,1.7-2.3,3.2l-7,9.2H205.2z"></path> <path class="st1" d="M222.7,278.1l6-8.4l-5.7-8h3.1l2.9,4.1c0.2,0.3,0.4,0.6,0.6,1c0.2,0.4,0.4,0.6,0.5,0.8h0.1 c0.1-0.2,0.3-0.5,0.6-0.8c0.2-0.4,0.4-0.6,0.6-0.8l2.8-4.2h3.1l-5.7,7.9l6.1,8.5h-3.2l-3.2-4.5c-0.1-0.2-0.3-0.5-0.6-0.9 c-0.3-0.4-0.5-0.7-0.6-0.9h-0.1l-1.2,1.7l-3.1,4.5L222.7,278.1L222.7,278.1z"></path> <path class="st1" d="M249.4,278.1v-16.4h2.7v7.5l7.6-7.5h3.3l-7.8,7.6l8,8.7h-3.5l-7.7-8.4v8.4H249.4L249.4,278.1z"></path> <path class="st1" d="M267.3,273.2l1-11.5h12.3v16.4h-2.7v-13.9h-7.1l-0.8,9c-0.2,1.8-0.6,3.1-1.2,3.9c-0.6,0.8-1.7,1.2-3.1,1.2 c-0.5,0-0.9-0.1-1.4-0.2V276c0.3,0.1,0.7,0.1,1.2,0.1c0.6,0,1.1-0.2,1.4-0.7C267,275,267.2,274.2,267.3,273.2L267.3,273.2z"></path> <path class="st1" d="M285.3,278.1v-16.4h2.7v7.4c0,2,0,3.7-0.1,5h0.1c0.3-0.6,1.1-1.7,2.3-3.2l7-9.2h2.4v16.4H297v-7.4 c0-2,0-3.7,0.1-5H297c-0.3,0.6-1.1,1.7-2.3,3.2l-7,9.2H285.3z"></path> <path class="st1" d="M311.4,261.2c1.4,0,2.7,0.3,3.8,0.8c1.1,0.5,1.9,1.2,2.5,2.1s1,1.8,1.4,2.7c0.3,1,0.4,1.9,0.4,2.9 c0,0.4,0,0.8-0.1,1h-13.4c0,1.5,0.6,2.8,1.7,3.9s2.5,1.7,4.1,1.7c1.7,0,3.1-0.7,4.2-2h3.1c-0.6,1.2-1.6,2.2-2.8,3.1 s-2.7,1.3-4.5,1.3c-2.6,0-4.7-0.9-6.3-2.6c-1.6-1.7-2.4-3.9-2.4-6.4c0-2.3,0.8-4.4,2.2-6S309,261.2,311.4,261.2L311.4,261.2z M311.4,263.6c-1.5,0-2.7,0.5-3.6,1.5s-1.5,2.1-1.6,3.4h10.5c-0.1-1.3-0.7-2.5-1.7-3.5S312.8,263.6,311.4,263.6L311.4,263.6z"></path> <path class="st1" d="M337.4,261.8v16.4h-2.7v-7.4h-9v7.4H323v-16.4h2.7v6.7h9v-6.7H337.4z"></path> <path class="st1" d="M352.1,261.8v2.4h-4.6v13.9h-2.7v-13.9h-4.7v-2.4H352.1z"></path> <path class="st1" d="M353.2,269.9c0-2.5,0.8-4.6,2.5-6.2c1.7-1.6,3.8-2.5,6.2-2.5s4.6,0.8,6.3,2.5s2.5,3.7,2.5,6.2 s-0.8,4.5-2.5,6.2c-1.7,1.7-3.8,2.6-6.2,2.6s-4.6-0.8-6.2-2.5S353.2,272.4,353.2,269.9L353.2,269.9z M356,269.9 c0,1.8,0.6,3.3,1.8,4.5c1.2,1.2,2.6,1.8,4.2,1.8c1.7,0,3.1-0.6,4.2-1.8s1.7-2.7,1.7-4.5s-0.5-3.3-1.7-4.5c-1.1-1.2-2.5-1.8-4.3-1.8 s-3.1,0.6-4.3,1.8C356.5,266.6,356,268.1,356,269.9L356,269.9z"></path> <path class="st1" d="M374.2,278.1v-16.4h6.2c1.7,0,3,0.4,4,1.1s1.4,1.7,1.4,3.1c0,0.7-0.2,1.4-0.6,2s-1.1,1-2,1.3 c1.3,0.2,2.3,0.7,3,1.5s0.9,1.6,0.9,2.6c0,1.5-0.5,2.7-1.6,3.5s-2.5,1.3-4.4,1.3L374.2,278.1L374.2,278.1z M380.3,264h-3.4v4.4h3 c2.2,0,3.3-0.8,3.3-2.3C383.2,264.7,382.2,264,380.3,264z M380.9,270.7h-4.1v5.2h4.5c1,0,1.8-0.2,2.3-0.8c0.5-0.5,0.8-1.1,0.8-1.8 C384.4,271.6,383.3,270.7,380.9,270.7L380.9,270.7z"></path> </g> </svg> 