<?xml version="1.0" encoding="UTF-8"?> <!-- Generator: Adobe Illustrator 25.4.1, SVG Export Plug-In . SVG Version: 6.00 Build 0) --> <svg xmlns="http://www.w3.org/2000/svg" xmlns:xlink="http://www.w3.org/1999/xlink" id="Layer_1" x="0px" y="0px" viewBox="0 0 939.6 228.8" style="enable-background:new 0 0 939.6 228.8;" xml:space="preserve"> <style type="text/css"> .st0{fill-rule:evenodd;clip-rule:evenodd;fill:#FFFFFF;} .st1{fill-rule:evenodd;clip-rule:evenodd;fill:#ED1C24;} .st2{fill:#FFFFFF;} </style> <polygon class="st0" points="108.5,46.3 108.5,156.1 77.8,156.1 77.8,79.7 56.4,156.1 38.6,156.1 16.6,81 16.6,156.1 5.9,156.1 5.9,46.3 38.2,46.3 57.1,112.5 75.8,46.3 "></polygon> <polygon class="st0" points="197.9,46.2 197.9,57.2 158.5,57.2 158.5,90.4 191.6,90.4 191.6,101.4 158.5,101.4 158.5,145 204.6,145 204.6,156 126.7,156 126.7,46.2 "></polygon> <path class="st1" d="M317.8,49.9l-19.3,3.6c0.8-3.9,1.3-7.1,1.3-9.7c0-16.7-10.1-25-30.3-25c-16,0-24,5.7-24,17.2 c0,8.6,8.9,16,26.8,22.2C306.8,70,324,87.5,324,110.7c0,13.6-4.8,24.5-14.5,32.7s-22.5,12.3-38.6,12.3c-35.5,0-53.3-13.8-53.3-41.3 c0-2.3,0.2-5,0.5-8.3l20-4.4c-1.5,6.1-2.3,11.4-2.3,15.9c0,17.8,10.2,26.7,30.6,26.7c16.3,0,24.5-6.4,24.5-19.2 c0-9.5-9.8-17.9-29.3-25.1c-28.2-10.4-42.4-26.9-42.4-49.7c0-12.9,4.7-23.3,14.1-31.1c9.4-7.9,21.8-11.8,37.1-11.8 C302.1,7.4,317.8,21.5,317.8,49.9"></path> <path class="st1" d="M399.3,7.5c41.7,0,62.6,24.7,62.6,74.2s-21.3,74.2-63.8,74.2s-63.8-25.3-63.8-75.9 C334.3,31.7,356,7.5,399.3,7.5 M398.1,19c-7.9,0-13.2,4.3-15.9,13S378,57.2,378,81.7s1.4,41.1,4.2,49.7c2.8,8.7,8.1,13,15.9,13 s13.1-4.3,15.9-13c2.8-8.6,4.2-25.2,4.2-49.7s-1.4-41-4.2-49.7C411.3,23.3,406,19,398.1,19"></path> <path class="st0" d="M473.8,156.2V46.4h47.4c26.9,0,40.3,10.8,40.3,32.3c0,21.7-14.9,32.6-44.8,32.6h-11v45L473.8,156.2L473.8,156.2 z M505.7,101.1h7.2c11.6,0,17.3-7.7,17.3-23c0-14.4-5.8-21.5-17.3-21.5h-7.2V101.1z"></path> <path class="st0" d="M571.6,156V46.2h47.2c12.3,0,22.1,2.6,29.4,7.8c7.3,5.2,11,12.1,11,20.8c0,13.3-7.9,22-23.6,26 c8.1,3,13.3,6.3,15.7,9.9c2.4,3.6,4,10.5,4.9,20.9c1,12.4,3.1,20.5,6.2,24.5h-34.6c-2.2-5.1-3.3-11.5-3.3-19.1l-0.2-6.5l-0.2-8.2 c0-12.7-5.1-19-15.3-19h-5.5V156H571.6z M603.5,94.2h6.4c12.1,0,18.1-6.3,18.1-18.9s-6-18.9-18.1-18.9h-6.4V94.2z"></path> <path class="st0" d="M718.6,42.4c32,0,47.9,18.9,47.9,56.8S750.3,156,717.7,156s-48.8-19.3-48.8-58.1 C668.9,60.9,685.5,42.4,718.6,42.4 M717.7,51.2c-6,0-10.1,3.3-12.2,9.9c-2.1,6.6-3.2,19.3-3.2,38.1c0,18.8,1.1,31.5,3.2,38.1 s6.2,9.9,12.2,9.9s10-3.3,12.2-9.9c2.1-6.6,3.2-19.3,3.2-38.1c0-18.7-1.1-31.4-3.2-38.1C727.8,54.5,723.7,51.2,717.7,51.2"></path> <polygon class="st0" points="849.3,46.4 849.3,57.4 809.5,57.4 809.5,94 843.3,94 843.3,105 809.5,105 809.5,156.2 777.6,156.2 777.6,46.4 "></polygon> <polygon class="st0" points="933.1,46.4 933.1,57.4 893.2,57.4 893.2,94 927,94 927,105 893.2,105 893.2,156.2 861.4,156.2 861.4,46.4 "></polygon> <rect x="130.4" y="173" class="st1" width="683.5" height="3.9"></rect> <g> <path class="st2" d="M151,208.3l3.9,1.2v1c0,6.4-3.5,9.7-10.6,9.7c-8.4,0-12.5-4.2-12.5-12.7c0-4.2,1.2-7.6,3.6-10.2 c2.4-2.5,5.7-3.8,9.8-3.8c5.9,0,8.8,2.7,8.8,8l-4.3,2.1l0.1-2.4c0-3.6-1.2-5.4-3.6-5.4c-3.2,0-4.8,3.6-4.8,10.7c0,4.4,0.3,7.4,1,9 s2,2.5,3.8,2.5c3.4,0,5.1-2.2,5.1-6.6C151.3,210.8,151.2,209.7,151,208.3z"></path> <path class="st2" d="M170,193.7c8.4,0,12.6,4.4,12.6,13.3s-4.2,13.3-12.6,13.3c-8.4,0-12.6-4.4-12.6-13.3S161.6,193.7,170,193.7z M170,195.9c-2,0-3.1,3.7-3.1,11s1,11,3.1,11s3.1-3.7,3.1-11S172,195.9,170,195.9z"></path> <path class="st2" d="M206.7,200.8l-4.5,0.8c0-3.8-1.8-5.7-5.3-5.7c-2.2,0-3.2,0.9-3.2,2.7c0,1.3,1.9,2.7,5.6,4.2 c5.7,2.3,8.6,5.3,8.6,8.9c0,5.7-3.6,8.6-10.9,8.6c-7.7,0-11.5-2.9-11.5-8.6l4.7-1c-0.1,0.5-0.1,1.1-0.1,1.6c0,1.5,0.6,2.8,1.9,3.8 c1.2,1.1,2.7,1.6,4.4,1.6c2.2,0,3.3-0.9,3.3-2.8c0-1.3-1.8-2.7-5.4-4.2c-5.4-2.3-8.1-5.3-8.1-8.9c0-2.4,1-4.4,3.1-5.9 s4.7-2.3,8-2.3C203,193.7,206.1,196.1,206.7,200.8z"></path> <path class="st2" d="M249.1,219.7h-9.2v-19c0-1.7-0.5-2.5-1.5-2.5c-2.2,0-3.4,2.4-3.4,7.2v14.4h-9.2V201c0-1.9-0.4-2.8-1.3-2.8 c-2.3,0-3.4,2.4-3.4,7.2v14.3h-9.2v-25.4c3.1,0,6.2-0.2,9.2-0.6v4.4c2.2-2.9,4.8-4.3,8-4.3c2.6,0,4.6,1.4,5.9,4.1 c2-2.8,4.6-4.2,7.7-4.2c4.2,0,6.3,2.1,6.3,6.4L249.1,219.7L249.1,219.7z"></path> <path class="st2" d="M272.8,210.4l3.7,1.1c-0.4,5.9-3.8,8.8-10.4,8.8c-8.5,0-12.7-4.2-12.7-12.7c0-4.1,1.1-7.5,3.4-10.1 s5.1-3.9,8.6-3.9c7.3,0,11,4.7,11,14.2H263c0,6.6,1.7,10,5.1,10c3.2,0,4.7-1.9,4.7-5.6C272.8,211.6,272.8,211,272.8,210.4z M263,205h5.5c0-5.9-0.9-8.9-2.7-8.9c-1.6,0-2.5,2.2-2.7,6.6L263,205z"></path> <path class="st2" d="M294.5,194.4v2.8h-4.1v17.9c0,1.1,0.4,1.7,1.1,1.7c0.5,0,0.8-0.4,0.9-1.1l2.6,0.2c-0.7,2.7-3,4-6.9,4 c-4.6,0-6.9-2-6.9-5.9v-16.8h-3v-2.8h3.1v-4.5c3.2-0.9,6.2-2.1,9.2-3.8v8.2L294.5,194.4L294.5,194.4z"></path> <path class="st2" d="M309.2,193.7c8.4,0,12.6,4.4,12.6,13.3s-4.2,13.3-12.6,13.3s-12.6-4.4-12.6-13.3 C296.7,198.1,300.8,193.7,309.2,193.7z M309.2,195.9c-2,0-3,3.7-3,11s1,11,3,11s3.1-3.7,3.1-11S311.3,195.9,309.2,195.9z"></path> <path class="st2" d="M335.2,184.8v34.9H326v-34.3C328.6,185.3,331.7,185.2,335.2,184.8z"></path> <path class="st2" d="M352.1,193.7c8.4,0,12.6,4.4,12.6,13.3s-4.2,13.3-12.6,13.3s-12.6-4.4-12.6-13.3 C339.5,198.1,343.7,193.7,352.1,193.7z M352.1,195.9c-2,0-3,3.7-3,11s1,11,3,11s3.1-3.7,3.1-11 C355.2,199.6,354.1,195.9,352.1,195.9z"></path> <path class="st2" d="M385.5,194.6c4.3,1.8,6.4,4.5,6.4,8c0,2.3-1.1,4.3-3.2,5.9s-4.7,2.4-7.8,2.4c-1.2,0-2.8-0.2-4.8-0.5 c-1.2,0.7-1.7,1.3-1.7,2c0,0.9,0.7,1.4,2.1,1.4c0.4,0,1.1,0,2.2-0.1c2.8-0.2,4.9-0.3,6.2-0.3c6.1,0,9.2,2.3,9.2,7 c0,5.6-5.1,8.4-15.2,8.4c-7.5,0-11.3-1.6-11.3-4.8c0-1.8,1.5-3.1,4.6-3.7c-3.3-0.9-4.9-2.3-4.9-4.2c0-2.5,1.9-4.6,5.8-6.5 c-3.4-1.4-5.1-3.7-5.1-7c0-2.5,1-4.6,3.1-6.3s4.6-2.5,7.7-2.5c1,0,2.4,0.1,4.1,0.3c-0.1-0.6-0.1-1-0.1-1.4c0-3.3,1.7-5,5.2-5 c2.8,0,4.1,1.2,4.1,3.5c0,1.8-0.8,2.7-2.5,2.7c-0.5,0-1.2-0.2-2-0.5c-0.5-0.2-0.8-0.4-1-0.4C385.9,192.8,385.5,193.3,385.5,194.6z M379.6,221.3c-4.3,0-6.4,0.8-6.4,2.5s2.1,2.5,6.2,2.5c4.8,0,7.2-0.9,7.2-2.8C386.6,222.1,384.3,221.3,379.6,221.3z M379.8,196.1 c-1.7,0-2.6,2.1-2.6,6.4c0,3.9,0.9,5.9,2.7,5.9c1.6,0,2.4-1.7,2.4-5.2C382.4,198.5,381.6,196.1,379.8,196.1z"></path> <path class="st2" d="M418.3,194.3L406.7,223c-1.6,3.9-3.7,5.9-6.4,5.9c-2.6,0-4.4-1.1-5.3-3.3l3.2-2.3c0.2,1.9,1,2.9,2.1,2.9 c1.3,0,2.4-1.1,3.2-3.3l0.7-1.8L394,194.5h10.1l5.1,14.9l5.8-14.9L418.3,194.3L418.3,194.3z"></path> <path class="st2" d="M436.5,219.7v-34.3c1.5,0,4.6-0.2,9.2-0.5V197c1.7-2.2,3.6-3.3,5.7-3.3c6,0,9,4.2,9,12.5 c0,9.4-3.6,14.1-10.7,14.1c-3.4,0-6.2-1.6-8.6-4.8l-2.3,4.2H436.5L436.5,219.7z M448.5,197.3c-2,0-3,2.9-3,8.8c0,6.9,1,10.4,3,10.4 c1.7,0,2.6-1.8,2.6-5.4l0.2-6.2l-0.2-3.5C450.7,198.7,449.9,197.3,448.5,197.3z"></path> <path class="st2" d="M486,194.3L474.4,223c-1.6,3.9-3.7,5.9-6.4,5.9c-2.6,0-4.4-1.1-5.3-3.3l3.2-2.3c0.2,1.9,1,2.9,2.1,2.9 c1.3,0,2.4-1.1,3.2-3.3l0.7-1.8l-10.2-26.6h10.1l5.1,14.9l5.8-14.9L486,194.3L486,194.3z"></path> <path class="st2" d="M504.7,219.7v-34.3h14.2c10.1,0,15.2,5.7,15.2,17.2c0,11.4-5.2,17.1-15.7,17.1H504.7L504.7,219.7z M514.6,216.8h2.6c2.4,0,4.1-1,5-3.1s1.4-5.8,1.4-11.2s-0.5-9.2-1.4-11.2c-0.9-2.1-2.6-3.1-5-3.1h-2.6V216.8z"></path> <path class="st2" d="M556.7,203.5h-6.3c0.2-1,0.4-1.7,0.6-2.2c0.2-0.7,0.3-1.3,0.3-1.9c0-1.1-0.4-1.6-1.2-1.6 c-0.6,0-1.2,0.7-1.7,2.1s-0.8,2.9-0.8,4.5v15.2h-9.2v-25.4h1.8c2.1,0,4.6-0.2,7.4-0.7v4.2c1.5-2.8,3.3-4.2,5.5-4.2 c3,0,4.4,1.6,4.4,4.9c0,0.8-0.1,1.8-0.4,2.9C557.1,201.9,556.9,202.6,556.7,203.5z"></path> <path class="st2" d="M565.7,211.3c3,0,4.4,1.5,4.4,4.4s-1.5,4.4-4.4,4.4s-4.4-1.5-4.4-4.4S562.8,211.3,565.7,211.3z"></path> <path class="st2" d="M614.8,194.9l-4.6,0.8c0.2-0.9,0.3-1.7,0.3-2.3c0-4-2.4-6-7.3-6c-3.8,0-5.7,1.4-5.7,4.1c0,2.1,2.1,3.8,6.4,5.3 c8.2,2.8,12.4,7,12.4,12.6c0,3.3-1.2,5.9-3.5,7.8c-2.3,2-5.4,3-9.2,3c-8.5,0-12.8-3.3-12.8-9.9c0-0.5,0-1.2,0.1-2l4.8-1.1 c-0.4,1.5-0.5,2.7-0.5,3.8c0,4.3,2.4,6.4,7.3,6.4c3.9,0,5.9-1.5,5.9-4.6c0-2.3-2.3-4.3-7-6c-6.8-2.5-10.1-6.5-10.1-11.9 c0-3.1,1.1-5.6,3.4-7.5c2.2-1.9,5.2-2.8,8.9-2.8C611,184.7,614.8,188.1,614.8,194.9z"></path> <path class="st2" d="M638.8,210.4l3.7,1.1c-0.4,5.9-3.8,8.8-10.4,8.8c-8.5,0-12.7-4.2-12.7-12.7c0-4.1,1.1-7.5,3.4-10.1 c2.2-2.6,5.1-3.9,8.6-3.9c7.3,0,11,4.7,11,14.2H629c0,6.6,1.7,10,5.1,10c3.2,0,4.7-1.9,4.7-5.6C638.8,211.6,638.8,211,638.8,210.4z M629,205h5.5c0-5.9-0.9-8.9-2.7-8.9c-1.6,0-2.5,2.2-2.7,6.6L629,205z"></path> <path class="st2" d="M655.9,184.8v34.9h-9.2v-34.3C649.2,185.3,652.3,185.2,655.9,184.8z"></path> <path class="st2" d="M682.7,194.3L671,223c-1.6,3.9-3.7,5.9-6.4,5.9c-2.6,0-4.4-1.1-5.3-3.3l3.2-2.3c0.2,1.9,1,2.9,2.1,2.9 c1.3,0,2.4-1.1,3.2-3.3l0.7-1.8l-10.3-26.8h10.1l5.1,14.9l5.8-14.9H682.7L682.7,194.3z"></path> <path class="st2" d="M710.6,218.8c-2.2,0.9-4.4,1.3-6.6,1.3c-3.2,0-5.1-1-5.8-2.9c-1.5,2-3.7,3.1-6.6,3.1c-5.3,0-8-2.5-8-7.5 c0-3.8,2.5-6.4,7.3-8c4.5-1.4,6.7-3.1,6.7-5.1c0-2.6-1.3-3.9-3.9-3.9c-3,0-4.5,1.3-4.5,3.8c0,0.8,0.2,1.8,0.7,3.1l-4.5-0.9 c-0.1-0.8-0.2-1.5-0.2-2.2c0-4,3.7-6,11-6c7,0,10.5,1.9,10.5,5.6v15.4c0,1.6,0.5,2.4,1.5,2.4c0.3,0,0.8-0.2,1.4-0.5L710.6,218.8z M697.6,204.4c-0.6,0.7-1.2,1.2-2,1.6c-1.9,1.1-2.8,3-2.8,5.6c0,3.4,0.7,5,2,5c1.9,0,2.9-1.7,2.9-5v-7.2H697.6z"></path> <path class="st2" d="M736.7,219.7h-9.2V201c0-1.9-0.5-2.8-1.6-2.8s-2,0.8-2.8,2.2c-0.8,1.5-1.2,3.3-1.2,5.3v13.9h-9.2v-25.4 c3.2,0,6.2-0.2,9.2-0.6v4.8c2.3-3.2,5.1-4.7,8.4-4.7c4.3,0,6.4,2.2,6.4,6.5L736.7,219.7L736.7,219.7z"></path> <path class="st2" d="M742.4,219.7v-25.3c2.9,0,5.9-0.2,9.2-0.7v26H742.4z M747,184.5c2.8,0,4.3,1.1,4.3,3.3s-1.4,3.3-4.3,3.3 c-2.8,0-4.3-1.1-4.3-3.3S744.2,184.5,747,184.5z"></path> <path class="st2" d="M781.1,219.7h-9.2V201c0-1.9-0.5-2.8-1.6-2.8s-2,0.8-2.8,2.2c-0.8,1.5-1.2,3.3-1.2,5.3v13.9h-9.1v-25.4 c3.2,0,6.2-0.2,9.2-0.6v4.8c2.3-3.2,5.1-4.7,8.3-4.7c4.3,0,6.4,2.2,6.4,6.5V219.7z"></path> <path class="st2" d="M812.3,218.8c-2.2,0.9-4.4,1.3-6.6,1.3c-3.2,0-5.1-1-5.8-2.9c-1.5,2-3.7,3.1-6.6,3.1c-5.3,0-8-2.5-8-7.5 c0-3.8,2.5-6.4,7.3-8c4.5-1.4,6.7-3.1,6.7-5.1c0-2.6-1.3-3.9-3.9-3.9c-3,0-4.5,1.3-4.5,3.8c0,0.8,0.2,1.8,0.7,3.1l-4.6-0.9 c-0.1-0.8-0.2-1.5-0.2-2.2c0-4,3.7-6,11-6c7,0,10.5,1.9,10.5,5.6v15.4c0,1.6,0.5,2.4,1.5,2.4c0.3,0,0.8-0.2,1.4-0.5L812.3,218.8z M799.3,204.4c-0.6,0.7-1.2,1.2-2,1.6c-1.9,1.1-2.8,3-2.8,5.6c0,3.4,0.7,5,2,5c1.9,0,2.9-1.7,2.9-5v-7.2H799.3z"></path> </g> </svg> 