<?xml version="1.0" encoding="UTF-8"?> <!-- Generator: Adobe Illustrator 26.5.0, SVG Export Plug-In . SVG Version: 6.00 Build 0) --> <svg xmlns="http://www.w3.org/2000/svg" xmlns:xlink="http://www.w3.org/1999/xlink" id="Слой_1" x="0px" y="0px" viewBox="0 0 595.3 297.6" style="enable-background:new 0 0 595.3 297.6;" xml:space="preserve"> <style type="text/css"> .st0{fill:#58595B;} .st1{fill-rule:evenodd;clip-rule:evenodd;fill:#F04E23;} </style> <g> <polygon class="st0" points="203.2,261.8 304.7,143 306.2,144.3 204.7,263.1 "></polygon> <path class="st0" d="M426.1,121.3c-9.5,11.1-18.9,22.1-28.4,33.2c-9.4,11-18.9,22.1-28.3,33.1c-0.8-0.7-1.6-1.3-2.4-2 c2.3-2.7,4.6-5.3,6.8-8c-10.4-8.9-20.8-17.8-31.2-26.7c-10.4-8.8-20.8-17.8-31.2-26.7c-2.3,2.7-4.5,5.3-6.8,8 c-0.8-0.7-1.6-1.3-2.3-2c6.5-7.6,13.1-15.3,19.6-23c6.5-7.6,13.1-15.3,19.7-23c0.8,0.7,1.6,1.3,2.4,2c-2.5,2.9-5,5.8-7.5,8.7 c10.4,8.9,20.8,17.8,31.2,26.7c10.4,8.9,20.8,17.8,31.2,26.7c5.3-7.7,8.1-16.1,8.2-24.9c0.1-8.8-2.6-16-8.1-21.3 c0.6-0.8,1.3-1.6,2-2.4C409.3,107,417.7,114.2,426.1,121.3L426.1,121.3z M378.1,39c2.4-2.8,5-4.4,7.7-4.8c2.8-0.4,5.3,0.4,7.7,2.5 c2.5,2.1,3.5,5.4,3.1,9.8c-0.5,4.4-2.2,8.5-5.4,12.1c-2.3,2.7-4.9,4.3-7.6,4.9c-2.8,0.6-5.2-0.1-7.4-2c-2.7-2.3-3.9-5.7-3.6-10.1 C373.1,46.9,374.9,42.8,378.1,39L378.1,39z M460.3,81.3c-10.3,12.1-20.7,24.2-31,36.2c-0.7-0.6-1.4-1.2-2.1-1.7 c2-2.3,3.9-4.6,5.8-6.8c-12.5-10.7-25-21.4-37.5-32.1c-1.9,2.3-3.9,4.5-5.8,6.8c-0.7-0.5-1.3-1.1-2-1.7c4.8-5.7,9.7-11.3,14.5-16.9 c3.6-4.3,6.8-8.8,9.4-13.8c13.6,11.7,27.3,23.3,40.9,35c1.9-2.2,3.8-4.5,5.7-6.6C458.9,80.2,459.6,80.8,460.3,81.3L460.3,81.3z"></path> <polygon class="st0" points="304.3,144.2 352.4,185.8 351.2,187.3 303,145.7 "></polygon> <polygon class="st1" points="298.3,143.1 308.4,141.8 309.8,151.8 299.7,153.3 "></polygon> <path class="st0" d="M134.9,222.9l30.8-37.2c6.6-8,14-11.6,22.2-10.9c8.2,0.7,15.1,3.5,20.8,8.1c6,5,10.2,11.6,12.4,19.7 c2.2,8.2,0.6,15.5-4.8,22.2l-32.2,38.8l-1.7-1.4l4.7-5.7l-45.7-37.8l-4.7,5.7L134.9,222.9z M205.4,220.1l-31.7-26.3 c-2.9-2.4-5-3.7-6.3-3.9c-1.3-0.2-3.1,1-5.2,3.6l-3.1,3.8l45.7,37.8l2.6-3.1c2-2.4,2.9-4.4,2.7-6 C209.8,224.4,208.3,222.4,205.4,220.1L205.4,220.1z M278.1,149.9l-40.5,49l-1.7-1.4l4.6-5.6l-45.7-37.8l-4.6,5.6l-1.7-1.4 l39.2-47.4l15.4,12.8l-1.3,1.7c-3.6-2.7-8-3.8-13.3-3.2c-5.2,0.5-10.3,3.8-15.2,9.8l-0.7,0.9l21.3,17.6l1.3-1.5 c1.9-2.2,2.6-4.9,2.3-8.2c-0.3-3.2-2.5-6.5-6.7-10l1.3-1.6l24.5,20.2l-1.3,1.6c-3.5-2.9-7-4.3-10.4-4.3c-3.4,0-6,1.3-8,3.6 l-1.3,1.5l22.7,18.7c4.3-5.2,6.6-10.9,6.8-17.1c0.1-6.2-2-11.8-6.3-16.9l1.3-1.6L278.1,149.9z M325.5,75.8 c5.2,6.2,5.3,12.3,0.2,18.4c-2.2,2.7-4.4,4.7-6.5,6c-2.1,1.3-4.2,2-6.5,2.1c-2.2,0.1-4.5-0.4-6.8-1.5c-2.3-1.1-6.7-4.3-13.2-9.8 c-1.9-1.6-3.5-2.3-4.7-2.1c-1.2,0.1-2.7,1.2-4.3,3.2c-1,1.2-1.7,2.1-2.2,2.8l23.3,19.3l4.1-5l1.7,1.4L284,142.8l-1.7-1.4l4.7-5.8 l-45.7-37.8l-4.7,5.8l-1.7-1.4l33.7-40.8c5.3-6.5,9.9-9.7,13.8-9.7c3.9,0,7.4,1.3,10.5,3.9c2.8,2.4,4.6,5.1,5.4,8.3 c0.9,3.2,0.6,6.4-0.7,9.9c4-2.4,7.2-3.4,9.5-3.2c2.3,0.3,4.8,1.5,7.5,3.8l7.3,6.4c1.4,1.2,2.4,1.4,2.9,0.8c0.2-0.3,0.3-0.9,0.1-1.8 c-0.2-0.9-0.6-1.7-1.3-2.5L325.5,75.8z M281,81.3l-10.3-8.6c-2.1-1.7-3.7-2.5-5-2.3c-1.3,0.2-2.8,1.3-4.6,3.5l-2.1,2.5l20.7,17.1 l1.1-1.3c2.1-2.5,3.2-4.6,3.1-6.2C284,84.5,283,82.9,281,81.3L281,81.3z"></path> </g> </svg> 