<?xml version="1.0" encoding="UTF-8"?> <!-- Generator: Adobe Illustrator 25.4.1, SVG Export Plug-In . SVG Version: 6.00 Build 0) --> <svg xmlns="http://www.w3.org/2000/svg" xmlns:xlink="http://www.w3.org/1999/xlink" id="Layer_1" x="0px" y="0px" viewBox="0 0 104.3 104.2" style="enable-background:new 0 0 104.3 104.2;" xml:space="preserve"> <style type="text/css"> .st0{fill:#FDFDFD;} .st1{fill:#6E00BD;} </style> <g id="Layer_2_00000165919560242567339530000015776763302049537175_"> <g id="Layer_3"> <ellipse transform="matrix(0.9891 -0.1469 0.1469 0.9891 -7.0894 8.2292)" class="st0" cx="52.2" cy="52.1" rx="47.8" ry="47.8"></ellipse> <path class="st1" d="M52.2,0C23.4,0,0,23.3,0,52.1C0,65.9,5.5,79.2,15.3,89c20.3,20.4,53.3,20.4,73.7,0.1 c9.8-9.8,15.3-23.1,15.3-36.9C104.3,23.4,81,0,52.3,0C52.2,0,52.2,0,52.2,0z M52.2,95.5c-24,0-43.4-19.5-43.4-43.4 S28.2,8.7,52.2,8.7c24,0,43.4,19.5,43.4,43.4C95.6,76.1,76.1,95.5,52.2,95.5L52.2,95.5z"></path> <path class="st1" d="M52.2,19.8L52.2,19.8c-6.4,0.1-11.5,5.3-11.4,11.6c0,0,0,0,0,0v20c0,6.4,5.1,11.5,11.4,11.6l0,0 c6.4-0.1,11.5-5.3,11.4-11.6c0,0,0,0,0,0v-20C63.6,25,58.5,19.8,52.2,19.8z"></path> <path class="st1" d="M72.4,50.4h-3c-0.7,0-1.2,0.6-1.2,1.2c0,0,0,0,0,0l0,0c0,8.9-7.2,16-16,16s-16-7.2-16-16l0,0 c0-0.7-0.5-1.2-1.2-1.2c0,0,0,0,0,0h-3c-0.7,0-1.2,0.6-1.2,1.2c0,0,0,0,0,0l0,0c-0.1,10.9,7.9,20.1,18.7,21.7v5.5H38.9 c-1.7,0-3.1,1.4-3.1,3.1c0,0,0,0,0,0v2.4h32.7V82c0-1.7-1.4-3.1-3.1-3.2c0,0,0,0,0,0H54.9v-5.5c10.8-1.5,18.8-10.8,18.7-21.7l0,0 C73.6,51,73.1,50.5,72.4,50.4C72.4,50.4,72.4,50.4,72.4,50.4z"></path> </g> </g> </svg> 