<?xml version="1.0" encoding="UTF-8"?> <!-- Generator: Adobe Illustrator 25.4.1, SVG Export Plug-In . SVG Version: 6.00 Build 0) --> <svg xmlns="http://www.w3.org/2000/svg" xmlns:xlink="http://www.w3.org/1999/xlink" id="Layer_1" x="0px" y="0px" viewBox="0 0 158 130.6" style="enable-background:new 0 0 158 130.6;" xml:space="preserve"> <style type="text/css"> .st0{fill:#A600F1;} .st1{fill:#FFFFFF;} .st2{fill:#00F917;} .st3{fill:#A69FF1;} </style> <path class="st0" d="M70.6,24.5c0,0.3-1.1,0.5-1.4,0.5s-1.8-0.2-1.8-0.5c0-12.1-12.1-18.4-22.2-18.4c-7.4,0-13.8,3.3-13.8,10 c0,14.4,45.8,7.6,45.8,34.4c0,14.6-16.7,21.7-31.9,21.7c-8.9,0-17.8-4-19.8-4c-1.7,0.1-3.1,1.3-3.2,3c0,0.6-0.6,1.1-1.6,1.1 c-1.6,0-1.8-0.4-1.8-1.1c0-1.7-0.8-14.7-0.8-20.5c0-0.4,1.2-0.6,1.8-0.6s2,0.3,2,0.7C22,63.4,35.4,69.6,47.1,69.6 c9.3,0,17.5-3.8,17.5-11.5c0-13.6-44.9-10-44.9-33.4C19.9,9.2,30.8,3.6,45.8,3.6c11.7,0,14.3,4.4,18,4.4c2.2,0,2.6-2.6,2.7-4 c0-0.4,1.1-0.5,1.6-0.5c0.9,0,1.5,0.4,1.5,1.1C69.7,6.2,70.2,18.7,70.6,24.5"></path> <path class="st1" d="M24.2,93.5v-8.7h2v8.7H29v-8.7h2v10.5H19.4V84.8h2v8.7H24.2z"></path> <path class="st1" d="M35,84.8h2v3.6l2.8-3.6h2.4l-3.7,4.7l4,5.8h-2.4L37,90.6v4.7h-2V84.8z"></path> <path class="st1" d="M50.4,84.6c1.4,0,2.8,0.6,3.8,1.6c2.1,2.2,2.1,5.6,0,7.8c-1,1-2.4,1.6-3.8,1.6c-1.5,0-2.9-0.5-3.9-1.6 c-1.7-1.8-2.1-4.5-0.8-6.6C46.6,85.6,48.4,84.5,50.4,84.6L50.4,84.6z M50.4,86.5c-0.9,0-1.8,0.3-2.4,1c-0.7,0.7-1,1.6-1,2.6 c0,1.1,0.4,2.1,1.2,2.8c0.6,0.5,1.4,0.8,2.2,0.8c0.9,0,1.8-0.3,2.4-1c1.3-1.4,1.3-3.6,0-5C52.2,86.9,51.3,86.5,50.4,86.5L50.4,86.5z "></path> <path class="st1" d="M65.9,95.3L63,87.6l-3,7.7h-2.1l4-10.5h2l4,10.5L65.9,95.3z"></path> <path class="st1" d="M73.9,84.8h2l4,10.5h-2l-0.8-2.1h-4.2l-0.8,2.2H70L73.9,84.8z M74.9,87.6l-1.4,3.6h2.8L74.9,87.6z"></path> <path class="st1" d="M27,102.3v10.5h-2v-6.6l-3.9,6.6h-1.7v-10.5h2v6.8l4-6.8H27z"></path> <path class="st1" d="M30.9,102.3h2v3.9h3.5v-3.9h2v10.5h-2v-4.6h-3.5v4.6h-2L30.9,102.3z"></path> <path class="st1" d="M43.5,112.8v-8.6h-2.4v-1.9h4.3v3.9h0.5c0.7,0,1.4,0.1,2.1,0.3c0.6,0.2,1.1,0.6,1.4,1.1 c0.4,0.6,0.6,1.3,0.6,1.9c0,0.7-0.2,1.3-0.5,1.8s-0.7,0.8-1.2,1.1c-0.6,0.2-1.2,0.3-1.8,0.3L43.5,112.8z M45.5,108v2.8H46 c0.5,0,1.1-0.1,1.6-0.3c0.3-0.2,0.5-0.6,0.5-1.1c0-1-0.7-1.5-2.2-1.5L45.5,108z"></path> <path class="st1" d="M53.2,102.3h5.7v1.9h-3.7v1.9h3.7v1.9h-3.7v2.8h3.7v1.9h-5.7V102.3z"></path> <path class="st1" d="M62.3,102.3h2v3.6l2.8-3.6h2.4l-3.6,4.7l4,5.8h-2.3l-3.2-4.7v4.7h-2L62.3,102.3z"></path> <path class="st1" d="M72.7,112.8v-10.5h2v8.7h3.5v-8.7h2v8.7h2.2v3.4h-1.9v-1.6H72.7z"></path> <path class="st1" d="M92.7,102.3v10.5h-2v-6.6l-3.9,6.6h-1.7v-10.5h2v6.8l4-6.8H92.7z"></path> <path class="st1" d="M101.5,102c1.4,0,2.8,0.6,3.8,1.6c2.1,2.2,2.1,5.6,0,7.8c-1,1-2.4,1.6-3.8,1.6c-1.5,0-2.9-0.5-3.9-1.6 c-1-1-1.6-2.4-1.6-3.9c0-1,0.2-1.9,0.7-2.8C97.7,103,99.5,102,101.5,102L101.5,102z M101.5,103.9c-0.9,0-1.8,0.3-2.4,1 c-0.7,0.7-1,1.6-1,2.6c0,1.1,0.4,2.1,1.2,2.8c0.6,0.5,1.4,0.8,2.2,0.8c0.9,0,1.8-0.3,2.4-1c0.7-0.7,1-1.6,1-2.5s-0.3-1.9-1-2.5 C103.3,104.3,102.4,104,101.5,103.9L101.5,103.9z"></path> <path class="st1" d="M110.3,102.3h2v3.9h3.5v-3.9h2v10.5h-2v-4.6h-3.5v4.6h-2V102.3z"></path> <path class="st1" d="M121.6,102.3h2v3.9h3.5v-3.9h2v10.5h-2v-4.6h-3.5v4.6h-2C121.6,112.8,121.6,102.3,121.6,102.3z"></path> <path class="st1" d="M137.9,102c1.4,0,2.8,0.6,3.8,1.6c2.1,2.2,2.1,5.6,0,7.8c-1,1-2.3,1.6-3.8,1.6s-2.9-0.5-3.9-1.6 c-1-1-1.6-2.4-1.6-3.9c0-1,0.2-1.9,0.7-2.8C134.2,103.1,136,102,137.9,102L137.9,102z M137.9,103.9c-0.9,0-1.8,0.3-2.4,1 c-0.7,0.7-1,1.6-1,2.6c0,1.1,0.4,2.1,1.2,2.8c0.6,0.5,1.4,0.8,2.2,0.8c0.9,0,1.8-0.3,2.4-1c0.7-0.7,1-1.6,1-2.5s-0.3-1.9-1-2.5 C139.7,104.3,138.8,104,137.9,103.9L137.9,103.9z"></path> <path class="st1" d="M154.3,102.3v10.5h-2v-6.6l-3.9,6.6h-1.7v-10.5h2v6.8l3.9-6.8H154.3z M147.6,99.5h1.6c0.1,0.2,0.3,0.3,0.5,0.4 c0.3,0.1,0.5,0.1,0.8,0.1s0.6,0,0.9-0.2c0.2-0.1,0.3-0.2,0.4-0.4h1.6c-0.1,0.6-0.4,1.1-0.9,1.4c-0.6,0.4-1.3,0.6-2,0.6 c-0.5,0-1-0.1-1.5-0.2c-0.4-0.1-0.7-0.4-1-0.7C147.9,100.2,147.7,99.9,147.6,99.5z"></path> <path class="st1" d="M19.4,119.8h2v3.6l2.8-3.6h2.4l-3.7,4.7l4,5.8h-2.3l-3.2-4.6v4.6h-2L19.4,119.8z"></path> <path class="st1" d="M34.8,119.5c1.4,0,2.8,0.6,3.8,1.6s1.6,2.4,1.6,3.9s-0.5,2.9-1.6,3.9c-2.1,2.1-5.6,2.1-7.7,0 c-2.1-2.2-2.1-5.6,0-7.8C32,120.1,33.4,119.5,34.8,119.5L34.8,119.5z M34.8,121.4c-0.9,0-1.8,0.3-2.4,1c-0.7,0.7-1,1.6-1,2.6 c0,1.1,0.4,2.1,1.2,2.8c0.6,0.5,1.4,0.8,2.2,0.8c0.9,0,1.8-0.3,2.4-1c1.3-1.4,1.3-3.6,0-5C36.7,121.9,35.8,121.4,34.8,121.4 L34.8,121.4z"></path> <path class="st1" d="M53.2,121.6l-1.4,1.3c-0.8-0.9-2-1.5-3.2-1.5c-1.9,0-3.5,1.5-3.6,3.5v0.1c0,0.6,0.2,1.3,0.5,1.9 c0.3,0.5,0.7,1,1.3,1.3c0.6,0.3,1.2,0.5,1.8,0.5c0.5,0,1.1-0.1,1.6-0.3c0.6-0.3,1.1-0.7,1.6-1.2l1.4,1.4c-0.6,0.7-1.4,1.2-2.2,1.6 c-0.7,0.3-1.5,0.4-2.3,0.4c-3.1,0-5.6-2.5-5.5-5.6c0-0.9,0.2-1.9,0.7-2.7s1.2-1.5,2-1.9c0.9-0.5,1.8-0.7,2.8-0.7 c0.9,0,1.7,0.2,2.5,0.5C51.9,120.4,52.6,120.9,53.2,121.6z"></path> <path class="st1" d="M57.4,119.8h1.9l2.4,7.3l2.5-7.3h1.9l1.8,10.5H66l-1.1-6.6l-2.2,6.6H61l-2.2-6.6l-1.2,6.6h-1.9L57.4,119.8z"></path> <path class="st1" d="M71,119.8h5.7v1.9H73v1.9h3.7v1.9H73v2.8h3.7v1.9H71V119.8z"></path> <path class="st1" d="M79,119.8h5.8v2h-1.9v8.5h-2v-8.5H79V119.8z"></path> <path class="st1" d="M92.5,119.5c1.4,0,2.8,0.6,3.8,1.6s1.6,2.4,1.6,3.9s-0.5,2.9-1.6,3.9c-2.1,2.1-5.6,2.1-7.7,0 c-1.7-1.8-2.1-4.5-0.8-6.6c0.5-0.8,1.2-1.5,2-2C90.6,119.8,91.6,119.5,92.5,119.5z M92.5,121.4c-0.9,0-1.8,0.3-2.4,1 c-0.7,0.7-1,1.6-1,2.6c0,1.1,0.4,2.1,1.2,2.8c0.6,0.5,1.4,0.8,2.2,0.8c0.9,0,1.8-0.3,2.4-1c1.3-1.4,1.3-3.6,0-5 C94.3,121.9,93.4,121.5,92.5,121.4L92.5,121.4z"></path> <path class="st1" d="M108.1,130.2l-2.9-7.7l-3,7.7h-2.1l4-10.5h2l4,10.5H108.1z"></path> <path class="st1" d="M117.8,119.5c1.4,0,2.8,0.6,3.8,1.6c2.1,2.2,2.1,5.6,0,7.8c-1,1-2.4,1.6-3.8,1.6c-1.5,0-2.9-0.5-3.9-1.6 c-1-1-1.6-2.4-1.6-3.9c0-1,0.2-1.9,0.7-2.8C114,120.6,115.8,119.5,117.8,119.5L117.8,119.5z M117.8,121.4c-0.9,0-1.8,0.3-2.4,1 c-0.7,0.7-1,1.6-1,2.6c0,1.1,0.4,2.1,1.2,2.8c0.6,0.5,1.4,0.8,2.2,0.8c0.9,0,1.8-0.3,2.4-1c0.7-0.7,1-1.6,1-2.5s-0.3-1.9-1-2.5 C119.6,121.8,118.7,121.4,117.8,121.4L117.8,121.4z"></path> <path class="st1" d="M126.5,119.8h5.2v1.9h-3.2v8.5h-2V119.8z"></path> <path class="st1" d="M142.4,119.8v10.5h-2v-6.6l-3.9,6.6h-1.7v-10.5h2v6.8l3.9-6.8H142.4z"></path> <path class="st1" d="M153.8,119.8v10.5h-2v-6.6l-3.9,6.6h-1.7v-10.5h2v6.8l4-6.8H153.8z"></path> <path class="st2" d="M86.5,37.9l-3.3-0.1c0,1.4,0,2.8,0.2,4.1l3.3-0.4C86.5,40.3,86.5,39.1,86.5,37.9z"></path> <path class="st2" d="M95.5,17.6l-2.2-2.4c-1,0.9-2,1.9-2.8,3l2.6,2.1C93.8,19.4,94.6,18.5,95.5,17.6z"></path> <path class="st2" d="M87,33.4l-3.2-0.6c-0.3,1.4-0.4,2.7-0.5,4.1l3.3,0.1C86.6,35.8,86.8,34.5,87,33.4z"></path> <path class="st2" d="M88.1,29L85,27.8c-0.5,1.3-0.8,2.6-1.1,4l3.2,0.7C87.4,31.3,87.7,30.1,88.1,29z"></path> <path class="st2" d="M90,24.8l-2.9-1.6c-0.7,1.2-1.2,2.5-1.7,3.8l3.1,1.1C88.9,27,89.4,25.9,90,24.8z"></path> <path class="st2" d="M92.4,21l-2.6-2c-0.8,1.1-1.6,2.3-2.3,3.5l2.9,1.5C91,23,91.7,22,92.4,21z"></path> <path class="st2" d="M139.2,22.1l2.8-1.8c-0.8-1.2-1.6-2.3-2.6-3.3l-2.4,2.3C137.8,20.2,138.6,21.1,139.2,22.1z"></path> <path class="st2" d="M141.5,26.1l3-1.4c-0.6-1.2-1.3-2.5-2-3.6l-2.8,1.8C140.4,23.9,141,25,141.5,26.1z"></path> <path class="st2" d="M143.2,30.3l3.2-0.9c-0.4-1.3-0.9-2.6-1.4-3.9l-3,1.4C142.4,28,142.8,29.1,143.2,30.3z"></path> <path class="st2" d="M144.1,34.7l3.3-0.4c-0.2-1.4-0.4-2.7-0.8-4.1l-3.2,0.9C143.7,32.3,144,33.5,144.1,34.7z"></path> <path class="st2" d="M136.4,18.6l2.4-2.2c-0.9-1-1.9-2-3-2.8l-2,2.6C134.7,16.9,135.6,17.7,136.4,18.6z"></path> <path class="st2" d="M133,15.6l2.1-2.6c-1.1-0.8-2.3-1.6-3.4-2.3l-1.6,2.9C131,14.2,132,14.8,133,15.6z"></path> <path class="st2" d="M117,9.7c1.2,0.1,2.4,0.2,3.6,0.4l0.7-3.2c-1.4-0.2-2.7-0.4-4.1-0.5L117,9.7z"></path> <path class="st2" d="M126.2,8.2c-1.3-0.5-2.6-0.8-4-1.1l-0.6,3.2c1.2,0.3,2.3,0.6,3.5,1L126.2,8.2z"></path> <path class="st2" d="M129.2,13.1l1.6-2.9c-1.2-0.7-2.5-1.3-3.8-1.8l-1.2,3.1C127,12,128.1,12.5,129.2,13.1z"></path> <path class="st2" d="M138.4,56.1l2.6,2c0.8-1.1,1.6-2.3,2.3-3.5l-2.9-1.6C139.8,54.1,139.2,55.2,138.4,56.1z"></path> <path class="st2" d="M135.4,59.5l2.2,2.4c1-0.9,1.9-1.9,2.8-3l-2.6-2C137.1,57.8,136.3,58.7,135.4,59.5z"></path> <path class="st2" d="M131.9,62.4l1.8,2.8c1.2-0.8,2.2-1.6,3.3-2.6l-2.2-2.4C133.8,60.9,132.9,61.7,131.9,62.4z"></path> <path class="st2" d="M128,64.7l1.4,3c1.2-0.6,2.5-1.3,3.6-2l-1.8-2.8C130.1,63.6,129.1,64.1,128,64.7z"></path> <path class="st2" d="M143.9,43.8l3.2,0.7c0.2-1.4,0.4-2.7,0.5-4.1l-3.3-0.1C144.3,41.4,144.1,42.6,143.9,43.8z"></path> <path class="st2" d="M123.7,66.3l0.9,3.2c1.3-0.4,2.6-0.9,3.9-1.5l-1.4-3C126,65.5,124.9,65.9,123.7,66.3z"></path> <path class="st2" d="M144.4,39.3l3.3,0.1c0-1.4,0-2.8-0.2-4.1l-3.3,0.4C144.3,36.8,144.4,38.1,144.4,39.3z"></path> <path class="st2" d="M140.9,52.3l2.9,1.6c0.7-1.2,1.2-2.5,1.7-3.8l-3.1-1.2C142,50.1,141.5,51.2,140.9,52.3z"></path> <path class="st2" d="M86.8,42.4l-3.3,0.4c0.2,1.4,0.4,2.7,0.8,4.1l3.2-0.9C87.1,44.8,86.9,43.6,86.8,42.4z"></path> <path class="st2" d="M142.7,48.2l3.1,1.1c0.5-1.3,0.8-2.6,1.1-4l-3.2-0.6C143.5,45.9,143.1,47,142.7,48.2z"></path> <path class="st2" d="M119.3,67.2l0.4,3.3c1.4-0.2,2.7-0.4,4.1-0.8l-0.9-3.2C121.7,66.9,120.5,67.1,119.3,67.2z"></path> <path class="st2" d="M91.6,55l-2.8,1.8c0.8,1.1,1.6,2.2,2.6,3.3l2.4-2.2C93.1,56.9,92.3,56,91.6,55z"></path> <path class="st2" d="M87.7,46.8l-3.2,0.9c0.4,1.3,0.9,2.6,1.5,3.9l3-1.4C88.5,49.2,88.1,48,87.7,46.8z"></path> <path class="st2" d="M89.3,51.1l-3,1.4c0.6,1.2,1.3,2.5,2,3.6l2.8-1.8C90.5,53.2,89.9,52.2,89.3,51.1z"></path> <path class="st2" d="M114.7,67.5l-0.1,3.3c1.4,0,2.8,0,4.2-0.2l-0.4-3.3C117.2,67.5,116,67.5,114.7,67.5z"></path> <path class="st0" d="M111.9,73l-0.5,3.9c1.7,0.2,3.3,0.2,5,0.2l-0.2-4C114.8,73.2,113.4,73.1,111.9,73z"></path> <path class="st0" d="M88.6,60.4l-3.1,2.5c1,1.3,2.2,2.5,3.4,3.7l2.7-2.9C90.5,62.6,89.5,61.5,88.6,60.4z"></path> <path class="st0" d="M106.6,72l-1.1,3.8c1.6,0.4,3.2,0.8,4.9,1l0.5-3.9C109.4,72.7,108,72.4,106.6,72z"></path> <path class="st0" d="M101.4,70.2l-1.7,3.6c1.5,0.7,3.1,1.2,4.7,1.7l1.1-3.8C104.1,71.3,102.8,70.8,101.4,70.2z"></path> <path class="st0" d="M96.7,67.7L94.5,71c1.4,0.9,2.8,1.7,4.3,2.4l1.7-3.6C99.1,69.2,97.9,68.5,96.7,67.7z"></path> <path class="st0" d="M92.3,64.4l-2.7,2.9c1.2,1.1,2.5,2.1,3.9,3.1l2.2-3.3C94.6,66.2,93.4,65.3,92.3,64.4z"></path> <path class="st0" d="M98.1,8.6l-1.9-3.5C94.7,6,93.3,6.9,92,7.9l2.4,3.1C95.6,10.2,96.8,9.4,98.1,8.6z"></path> <path class="st0" d="M103,6.3l-1.4-3.7c-1.5,0.6-3,1.3-4.5,2.1L99,8.1C100.3,7.4,101.6,6.8,103,6.3z"></path> <path class="st0" d="M108.2,4.7l-0.8-3.9c-1.6,0.3-3.2,0.8-4.8,1.4l1.4,3.7C105.4,5.4,106.8,5,108.2,4.7z"></path> <path class="st0" d="M113.6,4l-0.2-4c-1.7,0.1-3.3,0.3-4.9,0.6l0.8,3.9C110.7,4.2,112.1,4.1,113.6,4z"></path> <path class="st0" d="M93.6,11.7l-2.4-3.1c-1.3,1-2.5,2.2-3.7,3.4l2.9,2.7C91.4,13.6,92.5,12.6,93.6,11.7z"></path> <path class="st0" d="M89.7,15.5l-2.9-2.7c-1.1,1.2-2.1,2.5-3.1,3.9l3.3,2.2C87.8,17.7,88.7,16.5,89.7,15.5z"></path> <path class="st0" d="M81.2,34c0.2-1.5,0.5-2.9,0.8-4.3l-3.8-1.1c-0.4,1.6-0.8,3.2-1,4.9L81.2,34z"></path> <path class="st0" d="M80.2,22.9c-0.7,1.5-1.2,3.1-1.7,4.7l3.8,1.1c0.4-1.4,0.9-2.8,1.5-4.1L80.2,22.9z"></path> <path class="st0" d="M86.4,19.8l-3.3-2.2c-0.9,1.4-1.7,2.8-2.4,4.3l3.6,1.7C84.9,22.3,85.6,21,86.4,19.8z"></path> <path class="st0" d="M138.6,12.8l2.7-2.9c-1.2-1.1-2.5-2.1-3.9-3.1l-2.2,3.3C136.3,10.9,137.5,11.8,138.6,12.8z"></path> <path class="st0" d="M142.3,16.7l3.1-2.4c-1-1.3-2.2-2.5-3.4-3.7l-2.7,2.9C140.4,14.5,141.4,15.6,142.3,16.7z"></path> <path class="st0" d="M145.4,21.2l3.4-1.9c-0.8-1.4-1.8-2.8-2.8-4.1l-3.1,2.4C143.9,18.7,144.7,19.9,145.4,21.2z"></path> <path class="st0" d="M147.8,26.1l3.7-1.4c-0.6-1.5-1.3-3.1-2.1-4.5l-3.5,1.9C146.6,23.4,147.2,24.7,147.8,26.1z"></path> <path class="st0" d="M124.3,5.1l1.1-3.8c-1.6-0.4-3.2-0.8-4.9-1L120,4.2C121.5,4.4,122.9,4.7,124.3,5.1z"></path> <path class="st0" d="M149.3,31.3l3.9-0.8c-0.3-1.6-0.8-3.2-1.4-4.8l-3.7,1.4C148.6,28.5,149,29.9,149.3,31.3z"></path> <path class="st0" d="M119,4.1l0.5-3.9c-1.7-0.2-3.3-0.2-5-0.2l0.2,4C116.1,4,117.5,4,119,4.1z"></path> <path class="st0" d="M85.5,55.9L82,57.8c0.8,1.5,1.8,2.8,2.8,4.2l3.1-2.4C87,58.4,86.2,57.2,85.5,55.9z"></path> <path class="st0" d="M134.2,9.5l2.2-3.3c-1.4-0.9-2.8-1.7-4.3-2.4l-1.7,3.6C131.8,8,133,8.7,134.2,9.5z"></path> <path class="st0" d="M117.3,73.2l0.2,3.9c1.7-0.1,3.3-0.3,4.9-0.6l-0.8-3.9C120.2,72.9,118.8,73.1,117.3,73.2z"></path> <path class="st0" d="M129.5,6.9l1.6-3.6c-1.5-0.7-3.1-1.2-4.7-1.7l-1.1,3.8C126.8,5.8,128.1,6.3,129.5,6.9z"></path> <path class="st0" d="M150,36.7l3.9-0.2c-0.1-1.7-0.3-3.3-0.6-4.9l-3.9,0.8C149.8,33.8,149.9,35.2,150,36.7z"></path> <path class="st0" d="M122.7,72.4l0.8,3.9c1.6-0.3,3.2-0.8,4.8-1.3l-1.4-3.7C125.5,71.8,124.1,72.1,122.7,72.4z"></path> <path class="st0" d="M127.9,70.9l1.4,3.7c1.6-0.6,3.1-1.3,4.5-2.1l-1.9-3.5C130.6,69.7,129.3,70.3,127.9,70.9z"></path> <path class="st0" d="M149.9,42.1l3.9,0.5c0.2-1.7,0.2-3.3,0.2-5l-4,0.2C150.1,39.2,150,40.7,149.9,42.1z"></path> <path class="st3" d="M103.6,17.7l-1.3-2.4c-1,0.6-2,1.2-2.9,1.9l1.7,2.2C101.9,18.7,102.7,18.2,103.6,17.7z"></path> <path class="st3" d="M121.8,15.4l0.8-2.6c-1.1-0.3-2.2-0.5-3.4-0.7l-0.4,2.7C119.9,15,120.9,15.2,121.8,15.4z"></path> <path class="st3" d="M107,16.1l-0.9-2.6c-1.1,0.4-2.1,0.9-3.1,1.4l1.3,2.4C105.1,16.8,106.1,16.4,107,16.1z"></path> <path class="st3" d="M110.6,15l-0.5-2.7c-1.1,0.2-2.2,0.5-3.3,0.9l0.9,2.6C108.7,15.5,109.6,15.2,110.6,15z"></path> <path class="st3" d="M114.4,14.6l-0.1-2.7c-1.1,0-2.3,0.2-3.4,0.4l0.5,2.7C112.4,14.7,113.4,14.6,114.4,14.6z"></path> <path class="st3" d="M118.1,14.7l0.3-2.7c-1.1-0.1-2.3-0.2-3.4-0.2l0.1,2.7C116.1,14.5,117.1,14.6,118.1,14.7z"></path> <path class="st3" d="M137.3,48.5l2.5,1.2c0.5-1,0.9-2.1,1.2-3.2l-2.6-0.8C138.1,46.7,137.7,47.6,137.3,48.5z"></path> <path class="st3" d="M135.5,51.8l2.3,1.5c0.6-1,1.2-2,1.7-3l-2.4-1.2C136.5,50.1,136,51,135.5,51.8z"></path> <path class="st3" d="M133.1,54.8l2,1.9c0.8-0.8,1.5-1.7,2.2-2.7l-2.3-1.5C134.4,53.3,133.8,54.1,133.1,54.8z"></path> <path class="st3" d="M130.4,57.4l1.7,2.2c0.9-0.7,1.8-1.5,2.6-2.3l-2-1.9C131.9,56.1,131.2,56.7,130.4,57.4z"></path> <path class="st3" d="M138.6,45l2.6,0.8c0.3-1.1,0.5-2.2,0.7-3.4l-2.7-0.4C139,43,138.8,44,138.6,45z"></path> <path class="st3" d="M139.3,41.3l2.7,0.3c0.1-1.1,0.2-2.3,0.2-3.4l-2.8,0.1C139.5,39.3,139.4,40.3,139.3,41.3z"></path> <path class="st3" d="M136.7,27.4c0.5,0.9,0.9,1.8,1.2,2.8l2.6-0.9c-0.4-1.1-0.9-2.1-1.4-3.1L136.7,27.4z"></path> <path class="st3" d="M141.7,33.3c-0.2-1.1-0.5-2.2-0.9-3.3l-2.6,0.9c0.3,1,0.6,1.9,0.8,2.9L141.7,33.3z"></path> <path class="st3" d="M139.4,37.5l2.7-0.1c0-1.2-0.2-2.3-0.4-3.4l-2.7,0.5C139.3,35.5,139.4,36.5,139.4,37.5z"></path> <path class="st3" d="M112.7,62.4l-0.3,2.7c1.1,0.1,2.3,0.2,3.4,0.2l-0.1-2.7C114.7,62.6,113.7,62.5,112.7,62.4z"></path> <path class="st3" d="M109,61.7l-0.8,2.6c1.1,0.3,2.2,0.5,3.4,0.7l0.3-2.7C110.9,62.2,110,62,109,61.7z"></path> <path class="st3" d="M105.5,60.4l-1.2,2.5c1,0.5,2.1,0.9,3.2,1.2l0.8-2.6C107.3,61.2,106.4,60.8,105.5,60.4z"></path> <path class="st3" d="M102.2,58.6l-1.6,2.2c1,0.6,2,1.2,3,1.7l1.2-2.5C103.9,59.7,103,59.2,102.2,58.6z"></path> <path class="st3" d="M123.8,61.1l0.9,2.6c1.1-0.4,2.1-0.9,3.2-1.4l-1.3-2.4C125.7,60.3,124.8,60.7,123.8,61.1z"></path> <path class="st3" d="M99.2,56.3l-1.9,2c0.8,0.8,1.7,1.5,2.7,2.1l1.6-2.3C100.7,57.6,99.9,57,99.2,56.3z"></path> <path class="st3" d="M127.3,59.5l1.3,2.4c1-0.6,2-1.2,2.9-1.9l-1.7-2.2C129,58.4,128.1,59,127.3,59.5z"></path> <path class="st3" d="M116.5,62.6l0.1,2.7c1.2,0,2.3-0.2,3.4-0.4l-0.5-2.7C118.5,62.4,117.5,62.5,116.5,62.6z"></path> <path class="st3" d="M100.5,19.8l-1.7-2.2c-0.9,0.7-1.8,1.5-2.6,2.3l2,1.9C98.9,21.1,99.7,20.4,100.5,19.8z"></path> <path class="st3" d="M120.2,62.1l0.5,2.7c1.1-0.2,2.2-0.5,3.3-0.9l-0.9-2.6C122.2,61.6,121.2,61.9,120.2,62.1z"></path> <path class="st3" d="M96.6,53.5l-2.2,1.7c0.7,0.9,1.5,1.8,2.3,2.6l1.9-2C97.9,55.1,97.3,54.3,96.6,53.5z"></path> <path class="st3" d="M93.6,28.6l-2.5-1.2c-0.5,1-0.9,2.1-1.2,3.2l2.6,0.8C92.8,30.5,93.1,29.5,93.6,28.6z"></path> <path class="st3" d="M97.7,22.4l-2-1.9c-0.8,0.9-1.5,1.7-2.2,2.7l2.3,1.5C96.4,23.9,97,23.1,97.7,22.4z"></path> <path class="st3" d="M95.4,25.3l-2.3-1.5c-0.6,1-1.2,2-1.7,3l2.5,1.2C94.3,27,94.8,26.2,95.4,25.3z"></path> <path class="st3" d="M94.5,50.4l-2.4,1.3c0.6,1,1.2,2,1.9,2.9l2.2-1.7C95.6,52.1,95,51.3,94.5,50.4z"></path> </svg> 