<?xml version="1.0" encoding="UTF-8"?> <!-- Generator: Adobe Illustrator 26.5.0, SVG Export Plug-In . SVG Version: 6.00 Build 0) --> <svg xmlns="http://www.w3.org/2000/svg" xmlns:xlink="http://www.w3.org/1999/xlink" id="Слой_1" x="0px" y="0px" viewBox="0 0 595.3 297.6" style="enable-background:new 0 0 595.3 297.6;" xml:space="preserve"> <style type="text/css"> .st0{fill:#C3E67E;} .st1{fill:#93D500;} .st2{fill:#647883;} </style> <g> <path class="st0" d="M307.4,32.4l15.4-18.2l-27,22.4c-42.8,35.1-23.7,83.2-40.1,150.5c2.9-3.2,14-17.1,19.1-46 C280.7,107.7,285,55,307.4,32.4z"></path> <path class="st1" d="M330,5.6l-7.2,8.5l-15.4,18.2C285,55,280.7,107.7,274.8,141.1c-5.1,28.9-16.2,42.8-19.1,46 c-0.4,0.5-0.7,0.8-0.7,0.8l-38.8-90.2c-2.9-6.9-6.3-12.4-10.1-16.4s-7.8-7.1-12-9.1c-4.2-2.1-8.5-3.4-13-4 c-4.4-0.6-8.8-0.9-12.9-0.9c-1.1,0-2.9,0.1-5.4,0.3c-2.5,0.2-4.1,0.3-4.7,0.3v4.8c4.8,0.6,9.1,2.7,12.7,6.3 c3.7,3.6,7.4,9.9,11.4,18.9l57.1,133.4l9.7-0.1l0.1-0.3l0.8-0.9c80.2-89.7,69.6-202.5,79.7-223.6l1.2-1.5L330,5.6z"></path> <path class="st1" d="M449,202.7c-6.6,0-16.7,0.8-16.7,8.9c0,3.9,2.9,5.8,8.6,5.8c9.5,0,12.9-7.7,13.3-14.7H449z M455.1,225.5 c-5.1,4.7-12.8,7.2-19.2,7.2c-14.5,0-23.8-7.3-23.8-20.1c0-18.8,17.7-23,34.9-23h7.2c-1-14.9-21.6-9.1-32.6-3l-4.7-15.7 c9.6-4.4,19.2-6.3,26.8-6.3c21.1,0,30,8.6,30,27.8v23.3c0,4.7-0.1,8.6,0.9,15.7h-18.5C455.2,228.8,455.1,227,455.1,225.5z M391.3,232.6c-6.6,0-13.3-1-18.3-4.4c-2.5-1.6-4.6-3.9-6.2-6.8c-3-5.9-2.3-10.5-2.3-13.5v-6.2v-9.4c0-3.5,0-7.3-0.1-11.5h-10.9 v-15.4h10.9v-12l20.9-6.5v18.5h17.6v15.4h-17.6v27.4c0,6.8,2,7.5,6.8,7.5h1.1c1.1,0,2.5-0.5,7.3-1.8l4.2,16.2 C397.8,232.1,394.8,232.6,391.3,232.6z M318.9,231.2h20.9v-66.3h-20.9V231.2z M329.2,159.4c6.4,0,11.4-4.9,11.4-10.9 c0-5.9-4.9-10.9-11.4-10.9c-6.4,0-11.5,4.9-11.5,10.9S322.8,159.4,329.2,159.4z"></path> <path class="st2" d="M179.9,180.4h-4.8v-2.7c0-1.8-0.5-4.9,2.5-4.9c2,0,2.3,1.9,2.3,3.5v1.4V180.4z M195.4,194v-3.1H180v5.6 c0,1.9,0.1,5.4-2.2,5.4c-2,0-2.7-1.7-2.7-3.2v-1.4v-9.2h20.3v-5.7c0-10.8-4.4-17.2-18.5-17.2c-12.6,0-17.4,6.2-17.4,15.5v12.4 c0,3.3,0.1,6.8,2.1,9.9c3.3,4.7,9.6,6.4,16.3,6.4c7.6,0,12.7-2.6,15.3-7C194.8,200.1,195.4,197.3,195.4,194z M156.7,177.8 c0-3.3,0.3-6.5-1.8-9.1c-1.8-2.4-5-3.5-8.5-3.5c-4.4,0-7.6,1.7-10.1,4.5l-0.9-3.7h-14.8v42.6h15.6v-31v-1.4c0-1.6,0.5-3.5,2.5-3.5 s2.3,1.9,2.3,3.5v1.4v4.9h15.6L156.7,177.8L156.7,177.8z"></path> </g> </svg> 