<?xml version="1.0" encoding="UTF-8"?> <!-- Generator: Adobe Illustrator 26.5.0, SVG Export Plug-In . SVG Version: 6.00 Build 0) --> <svg xmlns="http://www.w3.org/2000/svg" xmlns:xlink="http://www.w3.org/1999/xlink" id="Слой_1" x="0px" y="0px" viewBox="0 0 595.3 297.6" style="enable-background:new 0 0 595.3 297.6;" xml:space="preserve"> <g> <path d="M59.3,135.7c-2.1,0-3.9,0.8-5.4,2.3c-1.5,1.6-2.2,3.4-2.2,5.7c0,2.2,0.7,4.1,2.3,5.7c1.5,1.6,3.3,2.3,5.4,2.3 c2.1,0,4-0.8,5.4-2.3c1.5-1.6,2.2-3.4,2.2-5.7s-0.7-4.1-2.2-5.7C63.3,136.5,61.4,135.7,59.3,135.7 M59.6,125.5 c4.9,0,9.2,1.8,12.7,5.4c3.5,3.6,5.3,7.9,5.3,12.9c0,5.1-1.8,9.4-5.3,13c-3.6,3.5-7.9,5.3-13,5.3c-5.1,0-9.4-1.8-12.9-5.4 c-3.6-3.6-5.4-7.9-5.4-12.9c0-5.1,1.8-9.4,5.4-13C50,127.2,54.4,125.5,59.6,125.5z"></path> <path d="M222.4,178.5v1.2H220v8.8h-1.6v-8.8h-1.7v-1.2h1.7c0-1.6,0.3-2.6,0.9-3.1c0.6-0.5,1.3-0.7,2.2-0.7c0.4,0,0.9,0,1.4,0.1v1.2 c-0.3-0.1-0.7-0.1-1-0.1c-0.7,0-1.2,0.2-1.5,0.5c-0.3,0.3-0.5,0.9-0.5,1.7v0.4H222.4z"></path> <path d="M236.1,187.5L236.1,187.5c0.8,0,1.5-0.3,2-1c0.5-0.7,0.8-1.7,0.8-3.1c0-1.4-0.3-2.4-0.8-3c-0.6-0.6-1.2-0.9-2-0.9 c-0.8,0-1.4,0.3-2,0.9c-0.5,0.6-0.8,1.6-0.8,3c0,1.4,0.3,2.5,0.8,3.1C234.7,187.2,235.3,187.5,236.1,187.5 M236,188.8 c-1.4,0-2.4-0.5-3.2-1.5c-0.8-1-1.2-2.3-1.2-3.8c0-1.6,0.4-2.9,1.3-3.8c0.9-1,1.9-1.4,3.2-1.4c1.4,0,2.5,0.5,3.3,1.5 c0.8,1,1.2,2.3,1.2,3.8c0,1.6-0.4,2.8-1.3,3.8C238.5,188.3,237.4,188.8,236,188.8z"></path> <path d="M253.1,188.5h-1.6v-10h1.4v2.3c0.5-1.1,1-1.8,1.5-2.1c0.5-0.3,1-0.5,1.5-0.5c0.2,0,0.4,0,0.6,0v1.5h-0.3 c-0.9,0-1.6,0.3-2.1,1c-0.6,0.6-0.9,1.5-0.9,2.5V188.5z"></path> <path d="M286.9,182.4L286.9,182.4c0-0.9-0.3-1.6-0.8-2.1c-0.5-0.5-1.2-0.8-1.9-0.8c-0.8,0-1.4,0.3-1.9,1c-0.5,0.7-0.7,1.7-0.7,2.9 c0,1.3,0.2,2.4,0.7,3.1c0.5,0.7,1.1,1.1,1.9,1.1c0.7,0,1.4-0.3,1.9-0.9c0.6-0.6,0.8-1.3,0.8-2.1V182.4z M288.5,175v13.5h-1.4v-1.7 c-0.7,1.3-1.8,2-3.2,2c-1.2,0-2.1-0.5-2.9-1.5c-0.8-1-1.1-2.2-1.1-3.7c0-1.5,0.4-2.8,1.1-3.8c0.7-1,1.7-1.5,3-1.5 c1.2,0,2.2,0.5,2.9,1.6V175H288.5z"></path> <path d="M304.1,187.5L304.1,187.5c0.8,0,1.5-0.3,2-1c0.5-0.7,0.8-1.7,0.8-3.1c0-1.4-0.3-2.4-0.8-3c-0.6-0.6-1.2-0.9-2-0.9 c-0.8,0-1.4,0.3-2,0.9c-0.5,0.6-0.8,1.6-0.8,3c0,1.4,0.3,2.5,0.8,3.1C302.7,187.2,303.4,187.5,304.1,187.5 M304,188.8 c-1.4,0-2.4-0.5-3.2-1.5c-0.8-1-1.2-2.3-1.2-3.8c0-1.6,0.4-2.9,1.3-3.8c0.9-1,1.9-1.4,3.2-1.4c1.4,0,2.5,0.5,3.3,1.5 c0.8,1,1.2,2.3,1.2,3.8c0,1.6-0.4,2.8-1.3,3.8C306.5,188.3,305.4,188.8,304,188.8z"></path> <path d="M325.8,185l1.4,0.2c-0.2,1.1-0.6,2-1.3,2.6c-0.7,0.6-1.5,0.9-2.5,0.9c-1.4,0-2.4-0.5-3.2-1.5c-0.7-1-1.1-2.3-1.1-3.7 c0-1.5,0.4-2.8,1.1-3.8c0.8-1,1.8-1.5,3.1-1.5c1.1,0,2,0.3,2.6,1c0.7,0.7,1.1,1.5,1.2,2.5l-1.4,0.3c-0.3-1.7-1.1-2.5-2.4-2.5 c-0.9,0-1.5,0.4-2,1.1c-0.5,0.7-0.7,1.7-0.7,2.8c0,1.3,0.2,2.3,0.7,3c0.5,0.7,1.1,1.1,1.9,1.1C324.6,187.5,325.4,186.7,325.8,185"></path> <path d="M342.4,187.5v1.2c-0.5,0.1-1,0.1-1.4,0.1c-1.9,0-2.9-1-2.9-3v-6h-1.8v-1.2h1.8l0.1-2.5l1.4-0.1v2.7h2.2v1.2h-2.2v6.3 c0,1,0.5,1.5,1.6,1.5C341.5,187.6,341.9,187.5,342.4,187.5"></path> <path d="M355.7,187.5L355.7,187.5c0.8,0,1.5-0.3,2-1c0.5-0.7,0.8-1.7,0.8-3.1c0-1.4-0.3-2.4-0.8-3c-0.6-0.6-1.2-0.9-2-0.9 c-0.8,0-1.4,0.3-2,0.9c-0.5,0.6-0.8,1.6-0.8,3c0,1.4,0.3,2.5,0.8,3.1C354.2,187.2,354.9,187.5,355.7,187.5 M355.6,188.8 c-1.4,0-2.4-0.5-3.2-1.5c-0.8-1-1.2-2.3-1.2-3.8c0-1.6,0.4-2.9,1.3-3.8c0.9-1,1.9-1.4,3.2-1.4c1.4,0,2.5,0.5,3.3,1.5 c0.8,1,1.2,2.3,1.2,3.8c0,1.6-0.4,2.8-1.3,3.8C358,188.3,356.9,188.8,355.6,188.8z"></path> <path d="M372.9,188.5h-1.6v-10h1.4v2.3c0.5-1.1,1-1.8,1.5-2.1c0.5-0.3,1-0.5,1.5-0.5c0.2,0,0.4,0,0.6,0v1.5H376 c-0.9,0-1.6,0.3-2.1,1c-0.6,0.6-0.9,1.5-0.9,2.5V188.5z"></path> <path d="M385.4,185.9l1.5-0.3c0.3,1.3,1.4,1.9,3.1,1.9c0.6,0,1.2-0.1,1.6-0.4c0.5-0.3,0.7-0.7,0.7-1.2c0-0.8-0.6-1.3-1.7-1.5 l-2.1-0.4c-0.8-0.2-1.5-0.5-2-0.9c-0.5-0.5-0.7-1.1-0.7-1.8c0-0.8,0.3-1.5,1-2.1c0.7-0.6,1.6-0.8,2.7-0.8c2.2,0,3.5,0.8,4,2.5 l-1.4,0.3c-0.4-1-1.3-1.6-2.5-1.6c-0.6,0-1.2,0.1-1.6,0.4c-0.4,0.3-0.6,0.6-0.6,1.1c0,0.7,0.5,1.2,1.6,1.4l2,0.4 c2,0.4,3.1,1.4,3.1,3c0,0.9-0.4,1.7-1.1,2.2c-0.8,0.6-1.8,0.8-3,0.8C387.4,188.8,385.9,187.8,385.4,185.9"></path> <path d="M93.6,149.8v-9.1c2.1,0,3.1-0.8,3.1-2.4c0-1.5-0.8-2.2-2.4-2.2c-1.6,0-2.4,1-2.4,3v22.7H81.6v-21.7c0-2.2,0.2-4.1,0.7-5.5 c0.4-1.4,1.2-2.8,2.3-4c1.2-1.4,2.8-2.5,4.6-3.3c1.8-0.8,3.7-1.2,5.7-1.2c3.5,0,6.5,1.2,8.9,3.6c2.4,2.4,3.6,5.3,3.6,8.9 c0,3.4-1.1,6.2-3.2,8.3c-2,2-4.9,2.9-8.9,2.9L93.6,149.8z"></path> <polygon points="126.8,137 126.8,161.8 116.4,161.8 116.4,137 108.5,137 108.5,127 134.7,127 134.7,137 "></polygon> <rect x="138.5" y="126.8" width="10.3" height="34.8"></rect> <path d="M154.8,161.2v-25.1c0-3.1,0.9-5.6,2.8-7.6c1.9-2,4.3-3,7.3-3c3.6,0,6.3,1.6,8.2,4.9c1.2-1.8,2.4-3,3.8-3.8 c1.3-0.8,3-1.1,5-1.1c3.1,0,5.5,1,7.2,3c1.7,2,2.5,4.8,2.5,8.5v24.2h-10.3v-22.7c0-1.1-0.1-1.9-0.3-2.2c-0.2-0.4-0.5-0.5-1.1-0.5 c-1,0-1.5,0.9-1.5,2.6v22.8h-10.3v-22.7c0-1.1-0.1-1.8-0.3-2.2c-0.2-0.4-0.6-0.6-1.1-0.6c-1,0-1.5,0.9-1.5,2.8v22.7H154.8z"></path> <path d="M210.6,144.7v9.2h-3v8.3h-10.4V140c0-4.3,1.2-7.6,3.5-10c2.3-2.4,5.6-3.6,9.9-3.6c4.1,0,7.1,1.1,9.1,3.2 c2,2.2,2.9,5.5,2.9,10v22.5h-10.3v-21.8c0-1.4-0.2-2.3-0.5-2.8c-0.3-0.5-0.9-0.8-1.7-0.8c-1.6,0-2.4,1.2-2.4,3.6v4.3H210.6z"></path> <path d="M241.4,161.8v-25.1c0-3.1,0.9-5.6,2.8-7.6c1.9-2,4.3-3,7.3-3c3.6,0,6.3,1.6,8.2,4.9c1.2-1.8,2.4-3,3.8-3.8 c1.3-0.8,3-1.1,5-1.1c3.1,0,5.5,1,7.2,3c1.7,2,2.5,4.8,2.5,8.5v24.2h-10.3v-22.7c0-1.1-0.1-1.9-0.3-2.2c-0.2-0.4-0.5-0.5-1.1-0.5 c-1,0-1.5,0.9-1.5,2.6v22.8h-10.4v-22.7c0-1.1-0.1-1.8-0.3-2.2c-0.2-0.4-0.6-0.6-1.1-0.6c-1,0-1.5,0.9-1.5,2.8v22.7H241.4z"></path> <path d="M303.1,140.4v7.8h-6.8c-0.9,0-1.6,0.1-2,0.4c-0.4,0.3-0.6,0.7-0.6,1.4c0,0.7,0.2,1.2,0.6,1.4c0.4,0.2,1.2,0.3,2.4,0.3h7 v9.9h-8.1c-3.8,0-6.7-0.9-8.8-2.7c-2-1.8-3-4.5-3-7.9v-13.6c0-3.3,1-5.9,2.9-7.8c1.9-1.8,4.6-2.7,8.1-2.7h9v10h-6.6 c-1.8,0-2.7,0.6-2.7,1.7c0,0.7,0.2,1.1,0.6,1.4c0.4,0.3,1.2,0.4,2.3,0.4H303.1z"></path> <path d="M326.1,125.9v9.9c-0.7-0.3-1.3-0.4-1.7-0.4c-0.8,0-1.5,0.3-2,0.9c-0.6,0.6-0.8,1.3-0.8,2.1c0,0.7,0.3,1.6,0.9,2.7l0.8,1.4 c1.4,2.5,2.1,4.9,2.1,7.2c0,3.4-1.2,6.2-3.6,8.6c-2.4,2.3-5.3,3.5-8.8,3.5c-1.7,0-3.3-0.4-4.9-1.1v-10.1c1,0.6,1.9,0.9,2.6,0.9 c0.9,0,1.7-0.3,2.3-0.8c0.6-0.5,0.9-1.2,0.9-2c0-0.5-0.5-1.6-1.5-3.3c-1.5-2.7-2.3-5.4-2.3-8.2c0-3.3,1.2-6.1,3.5-8.5 c2.3-2.4,5.1-3.6,8.4-3.6C323.3,125.2,324.7,125.4,326.1,125.9"></path> <path d="M347.5,135.4c-2.1,0-3.9,0.8-5.4,2.4c-1.5,1.6-2.2,3.4-2.2,5.7c0,2.2,0.7,4.1,2.3,5.7c1.5,1.6,3.3,2.4,5.4,2.4 c2.1,0,4-0.8,5.4-2.3c1.5-1.6,2.2-3.4,2.2-5.7s-0.7-4.1-2.2-5.7C351.5,136.1,349.7,135.4,347.5,135.4 M347.8,125.1 c4.9,0,9.2,1.8,12.7,5.4c3.5,3.6,5.3,7.9,5.3,12.9c0,5.1-1.8,9.4-5.3,13c-3.5,3.6-7.9,5.3-13,5.3c-5.1,0-9.4-1.8-12.9-5.4 c-3.6-3.6-5.4-7.9-5.4-12.9c0-5.1,1.8-9.4,5.4-13C338.2,126.9,342.6,125.1,347.8,125.1z"></path> <polygon points="385.5,137 385.5,161.8 375.2,161.8 375.2,137 367.2,137 367.2,127 393.4,127 393.4,137 "></polygon> <path d="M422.8,127v34.8h-10.3V127H422.8z M410.7,139.5v9.2h-2.9v13.2h-10.3V127h10.3v12.4H410.7z"></path> <path d="M448.6,140.6v7.8h-6.8c-0.9,0-1.6,0.1-2,0.4c-0.4,0.3-0.6,0.7-0.6,1.4c0,0.7,0.2,1.2,0.6,1.4c0.4,0.2,1.2,0.3,2.4,0.3h7 v9.9h-8.1c-3.8,0-6.7-0.9-8.8-2.7c-2-1.8-3-4.5-3-7.9v-13.6c0-3.3,1-5.9,2.9-7.8c1.9-1.8,4.6-2.7,8.1-2.7h9v10h-6.6 c-1.8,0-2.7,0.6-2.7,1.7c0,0.7,0.2,1.1,0.6,1.4c0.4,0.3,1.2,0.4,2.3,0.4H448.6z"></path> <path d="M465.2,136.4v25.5h-10.3V127h13.3c4,0,7.2,1,9.4,3c2.5,2.2,3.7,5.1,3.7,8.5c0,3.5-1.5,6.5-4.6,8.9l6,14.4h-10.9l-5-11.2 v-8.9h0.8c2.2,0,3.3-0.9,3.3-2.8c0-1.6-1.3-2.5-3.8-2.5H465.2z"></path> <path d="M498.7,144.4v9.2h-3v8.3h-10.3v-22.1c0-4.3,1.2-7.6,3.5-10c2.3-2.4,5.6-3.6,9.9-3.6c4.1,0,7.1,1.1,9.1,3.2 c2,2.1,2.9,5.5,2.9,10v22.5h-10.3V140c0-1.4-0.2-2.3-0.5-2.8c-0.3-0.5-0.9-0.8-1.7-0.8c-1.6,0-2.4,1.2-2.4,3.6v4.3H498.7z"></path> <path d="M528.7,149.8v-9.1c2.1,0,3.1-0.8,3.1-2.4c0-1.5-0.8-2.2-2.4-2.2c-1.6,0-2.4,1-2.4,3v22.7h-10.3v-21.7 c0-2.2,0.2-4.1,0.7-5.5c0.4-1.4,1.2-2.8,2.3-4c1.2-1.4,2.8-2.5,4.6-3.3c1.8-0.8,3.7-1.2,5.7-1.2c3.5,0,6.5,1.2,8.9,3.6 c2.4,2.4,3.6,5.3,3.6,8.9c0,3.4-1.1,6.2-3.2,8.3c-2,2-4.9,2.9-8.9,2.9L528.7,149.8z"></path> <polygon points="571,127 561.2,142.5 561.2,161.8 550.8,161.8 550.8,142.5 540.9,127 551.4,127 555.9,134.2 560.7,127 "></polygon> </g> </svg> 