<?xml version="1.0" encoding="UTF-8"?> <!-- Generator: Adobe Illustrator 26.5.0, SVG Export Plug-In . SVG Version: 6.00 Build 0) --> <svg xmlns="http://www.w3.org/2000/svg" xmlns:xlink="http://www.w3.org/1999/xlink" id="Layer_1" x="0px" y="0px" viewBox="0 0 936 153.3" style="enable-background:new 0 0 936 153.3;" xml:space="preserve"> <style type="text/css"> .st0{fill-rule:evenodd;clip-rule:evenodd;} .st1{fill-rule:evenodd;clip-rule:evenodd;fill:#ED1C24;} </style> <polygon class="st0" points="107.3,43.3 107.3,153.1 76.6,153.1 76.6,76.7 55.2,153.1 37.4,153.1 15.4,78 15.4,153.1 4.7,153.1 4.7,43.3 37,43.3 55.9,109.5 74.6,43.3 "></polygon> <polygon class="st0" points="196.7,43.2 196.7,54.2 157.3,54.2 157.3,87.4 190.4,87.4 190.4,98.4 157.3,98.4 157.3,142 203.4,142 203.4,153 125.5,153 125.5,43.2 "></polygon> <path class="st1" d="M316.6,46.9l-19.3,3.6c0.8-3.9,1.3-7.1,1.3-9.7c0-16.7-10.1-25-30.3-25c-16,0-24,5.7-24,17.2 c0,8.6,8.9,16,26.8,22.2c34.5,11.8,51.7,29.3,51.7,52.5c0,13.6-4.8,24.5-14.5,32.7s-22.5,12.3-38.6,12.3 c-35.5,0-53.3-13.8-53.3-41.3c0-2.3,0.2-5,0.5-8.3l20-4.4c-1.5,6.1-2.3,11.4-2.3,15.9c0,17.8,10.2,26.7,30.6,26.7 c16.3,0,24.5-6.4,24.5-19.2c0-9.5-9.8-17.9-29.3-25.1C232.2,86.6,218,70.1,218,47.3c0-12.9,4.7-23.3,14.1-31.1 c9.4-7.9,21.8-11.8,37.1-11.8C300.9,4.4,316.6,18.5,316.6,46.9"></path> <path class="st1" d="M398.1,4.5c41.7,0,62.6,24.7,62.6,74.2s-21.3,74.2-63.8,74.2s-63.8-25.3-63.8-75.9 C333.1,28.7,354.8,4.5,398.1,4.5 M396.9,16c-7.9,0-13.2,4.3-15.9,13s-4.2,25.2-4.2,49.7s1.4,41.1,4.2,49.7c2.8,8.7,8.1,13,15.9,13 s13.1-4.3,15.9-13c2.8-8.6,4.2-25.2,4.2-49.7s-1.4-41-4.2-49.7C410.1,20.3,404.8,16,396.9,16"></path> <path class="st0" d="M472.6,153.2V43.4H520c26.9,0,40.3,10.8,40.3,32.3c0,21.7-14.9,32.6-44.8,32.6h-11v45L472.6,153.2L472.6,153.2z M504.5,98.1h7.2c11.6,0,17.3-7.7,17.3-23c0-14.4-5.8-21.5-17.3-21.5h-7.2V98.1z"></path> <path class="st0" d="M570.4,153V43.2h47.2c12.3,0,22.1,2.6,29.4,7.8c7.3,5.2,11,12.1,11,20.8c0,13.3-7.9,22-23.6,26 c8.1,3,13.3,6.3,15.7,9.9s4,10.5,4.9,20.9c1,12.4,3.1,20.5,6.2,24.5h-34.6c-2.2-5.1-3.3-11.5-3.3-19.1l-0.2-6.5l-0.2-8.2 c0-12.7-5.1-19-15.3-19h-5.5V153H570.4z M602.3,91.2h6.4c12.1,0,18.1-6.3,18.1-18.9s-6-18.9-18.1-18.9h-6.4V91.2z"></path> <path class="st0" d="M717.4,39.4c32,0,47.9,18.9,47.9,56.8S749.1,153,716.5,153s-48.8-19.3-48.8-58.1 C667.7,57.9,684.3,39.4,717.4,39.4 M716.5,48.2c-6,0-10.1,3.3-12.2,9.9c-2.1,6.6-3.2,19.3-3.2,38.1s1.1,31.5,3.2,38.1 s6.2,9.9,12.2,9.9s10-3.3,12.2-9.9c2.1-6.6,3.2-19.3,3.2-38.1c0-18.7-1.1-31.4-3.2-38.1C726.6,51.5,722.5,48.2,716.5,48.2"></path> <polygon class="st0" points="848.1,43.4 848.1,54.4 808.3,54.4 808.3,91 842.1,91 842.1,102 808.3,102 808.3,153.2 776.4,153.2 776.4,43.4 "></polygon> <polygon class="st0" points="931.9,43.4 931.9,54.4 892,54.4 892,91 925.8,91 925.8,102 892,102 892,153.2 860.2,153.2 860.2,43.4 "></polygon> </svg> 