<?xml version="1.0" encoding="UTF-8"?> <svg xmlns="http://www.w3.org/2000/svg" xmlns:xlink="http://www.w3.org/1999/xlink" id="Layer_1" viewBox="0 0 1080 1080"> <defs> <linearGradient id="linear-gradient" x1="540" y1="1080" x2="540" y2="0" gradientUnits="userSpaceOnUse"> <stop offset="0" stop-color="#fff"></stop> <stop offset=".3" stop-color="#fbfbfc"></stop> <stop offset=".58" stop-color="#f0f2f3"></stop> <stop offset=".84" stop-color="#dde3e4"></stop> <stop offset="1" stop-color="#cfd7d9"></stop> </linearGradient> <clipPath id="clippath"> <rect width="1080" height="1080" style="fill:none;"></rect> </clipPath> <linearGradient id="linear-gradient-2" x1="1051.55" y1="74.6" x2="1051.55" y2="19.91" gradientUnits="userSpaceOnUse"> <stop offset="0" stop-color="#f2f2f2"></stop> <stop offset="1" stop-color="#fff"></stop> </linearGradient> <linearGradient id="linear-gradient-3" x1="1039.44" y1="186.93" x2="1039.44" y2="125.9" xlink:href="#linear-gradient-2"></linearGradient> <linearGradient id="linear-gradient-4" x1="934.17" y1="286.2" x2="934.17" y2="225.16" xlink:href="#linear-gradient-2"></linearGradient> <linearGradient id="linear-gradient-5" x1="986.37" y1="225.18" x2="986.37" y2="164.82" xlink:href="#linear-gradient-2"></linearGradient> <linearGradient id="linear-gradient-6" x1="986.36" y1="75.14" x2="986.36" y2="3.93" xlink:href="#linear-gradient-2"></linearGradient> <linearGradient id="linear-gradient-7" x1="1091.64" y1="126.66" x2="1091.64" y2="105.31" gradientTransform="translate(199.57 -523.82) rotate(29.58)" xlink:href="#linear-gradient-2"></linearGradient> <linearGradient id="linear-gradient-8" x1="1086.92" y1="31.47" x2="1086.92" y2="10.08" xlink:href="#linear-gradient-2"></linearGradient> <linearGradient id="linear-gradient-9" x1="969.39" y1="196.08" x2="969.39" y2="174.69" xlink:href="#linear-gradient-2"></linearGradient> <linearGradient id="linear-gradient-10" x1="1038.93" y1="191.23" x2="1038.93" y2="180.62" xlink:href="#linear-gradient-2"></linearGradient> <linearGradient id="linear-gradient-11" x1="968.6" y1="270.65" x2="968.6" y2="260.05" xlink:href="#linear-gradient-2"></linearGradient> <linearGradient id="linear-gradient-12" x1="1073.87" y1="170.05" x2="1073.87" y2="162.12" xlink:href="#linear-gradient-2"></linearGradient> <linearGradient id="linear-gradient-13" x1="1016.88" y1="80.47" x2="1016.88" y2="68.04" xlink:href="#linear-gradient-2"></linearGradient> <linearGradient id="linear-gradient-14" x1="933.66" y1="288.45" x2="933.66" y2="281.92" xlink:href="#linear-gradient-2"></linearGradient> <linearGradient id="linear-gradient-15" x1="899.01" y1="267.23" x2="899.01" y2="262.45" xlink:href="#linear-gradient-2"></linearGradient> <linearGradient id="linear-gradient-16" x1="976.69" y1="77.93" x2="976.69" y2="70" xlink:href="#linear-gradient-2"></linearGradient> <linearGradient id="linear-gradient-17" x1="977.2" y1="6.85" x2="977.2" y2="1.89" xlink:href="#linear-gradient-2"></linearGradient> <linearGradient id="linear-gradient-18" x1="632.28" y1="69.85" x2="632.28" y2="8.82" xlink:href="#linear-gradient-2"></linearGradient> <linearGradient id="linear-gradient-19" x1="684.48" y1="8.83" x2="684.48" y2="-51.52" xlink:href="#linear-gradient-2"></linearGradient> <linearGradient id="linear-gradient-20" x1="666.72" y1="54.31" x2="666.72" y2="43.7" xlink:href="#linear-gradient-2"></linearGradient> <linearGradient id="linear-gradient-21" x1="631.77" y1="72.11" x2="631.77" y2="65.58" xlink:href="#linear-gradient-2"></linearGradient> <linearGradient id="linear-gradient-22" x1="597.12" y1="50.89" x2="597.12" y2="46.1" xlink:href="#linear-gradient-2"></linearGradient> <linearGradient id="linear-gradient-23" x1="1093.7" y1="288.45" x2="1093.7" y2="-1200.03" gradientUnits="userSpaceOnUse"> <stop offset=".3" stop-color="#fff"></stop> <stop offset=".73" stop-color="#cfd7d9"></stop> </linearGradient> <linearGradient id="linear-gradient-24" gradientTransform="translate(199.57 -523.82) rotate(29.58)" xlink:href="#linear-gradient-23"></linearGradient> <linearGradient id="linear-gradient-25" x1="867.14" y1="2066.25" x2="867.14" y2="1940.85" gradientTransform="translate(-1050.14 1516.8) rotate(-90)" gradientUnits="userSpaceOnUse"> <stop offset="0" stop-color="#f2f2f2"></stop> <stop offset="1" stop-color="gray"></stop> </linearGradient> <linearGradient id="linear-gradient-26" x1="776.88" y1="2107.63" x2="776.88" y2="2021.69" xlink:href="#linear-gradient-25"></linearGradient> <linearGradient id="linear-gradient-27" x1="861.29" y1="2145.21" x2="861.29" y2="2065.52" xlink:href="#linear-gradient-25"></linearGradient> <linearGradient id="linear-gradient-28" x1="813.94" y1="1944.22" x2="813.94" y2="1938.94" xlink:href="#linear-gradient-25"></linearGradient> <linearGradient id="linear-gradient-29" x1="883.93" y1="2127.32" x2="883.93" y2="2109.56" xlink:href="#linear-gradient-25"></linearGradient> <linearGradient id="linear-gradient-30" x1="885.2" y1="1950.97" x2="885.2" y2="1933.21" xlink:href="#linear-gradient-25"></linearGradient> <linearGradient id="linear-gradient-31" x1="740.5" y1="2027.58" x2="740.5" y2="2017.26" xlink:href="#linear-gradient-25"></linearGradient> <linearGradient id="linear-gradient-32" x1="739.89" y1="2109.19" x2="739.89" y2="2103.91" xlink:href="#linear-gradient-25"></linearGradient> <linearGradient id="linear-gradient-33" x1="789.06" y1="2025.41" x2="789.06" y2="2020.12" xlink:href="#linear-gradient-25"></linearGradient> <linearGradient id="linear-gradient-34" x1="813.05" y1="2070.17" x2="813.05" y2="2059.85" xlink:href="#linear-gradient-25"></linearGradient> <linearGradient id="linear-gradient-35" x1="920.4" y1="2006.71" x2="920.4" y2="2001.43" xlink:href="#linear-gradient-25"></linearGradient> <linearGradient id="linear-gradient-36" x1="884.31" y1="2068.17" x2="884.31" y2="2062.88" xlink:href="#linear-gradient-25"></linearGradient> <linearGradient id="linear-gradient-37" x1="788.46" y1="2112.06" x2="788.46" y2="2101.75" xlink:href="#linear-gradient-25"></linearGradient> <linearGradient id="linear-gradient-38" x1="536" y1="2087.39" x2="536" y2="2019.52" xlink:href="#linear-gradient-25"></linearGradient> <linearGradient id="linear-gradient-39" x1="429.68" y1="2186.06" x2="429.68" y2="2088.66" xlink:href="#linear-gradient-25"></linearGradient> <linearGradient id="linear-gradient-40" x1="482.56" y1="2116.85" x2="482.56" y2="2060.84" xlink:href="#linear-gradient-25"></linearGradient> <linearGradient id="linear-gradient-41" x1="461.58" y1="2171.43" x2="461.58" y2="2115.77" xlink:href="#linear-gradient-25"></linearGradient> <linearGradient id="linear-gradient-42" x1="608.9" y1="2243.7" x2="608.9" y2="2123.43" xlink:href="#linear-gradient-25"></linearGradient> <linearGradient id="linear-gradient-43" x1="678.23" y1="2125.26" x2="678.23" y2="2044.71" xlink:href="#linear-gradient-25"></linearGradient> <linearGradient id="linear-gradient-44" x1="632.98" y1="2045.55" x2="632.98" y2="1965" xlink:href="#linear-gradient-25"></linearGradient> <linearGradient id="linear-gradient-45" x1="616.57" y1="1886.68" x2="616.57" y2="1761.28" xlink:href="#linear-gradient-25"></linearGradient> <linearGradient id="linear-gradient-46" x1="526.32" y1="1928.06" x2="526.32" y2="1842.12" xlink:href="#linear-gradient-25"></linearGradient> <linearGradient id="linear-gradient-47" x1="610.73" y1="1965.64" x2="610.73" y2="1885.95" xlink:href="#linear-gradient-25"></linearGradient> <linearGradient id="linear-gradient-48" x1="547.82" y1="2086.86" x2="547.82" y2="2069.11" xlink:href="#linear-gradient-25"></linearGradient> <linearGradient id="linear-gradient-49" x1="632.59" y1="2053.6" x2="632.59" y2="2035.84" xlink:href="#linear-gradient-25"></linearGradient> <linearGradient id="linear-gradient-50" x1="677.85" y1="2129.58" x2="677.85" y2="2119.27" xlink:href="#linear-gradient-25"></linearGradient> <linearGradient id="linear-gradient-51" x1="468.15" y1="2119.02" x2="468.15" y2="2113.73" xlink:href="#linear-gradient-25"></linearGradient> <linearGradient id="linear-gradient-52" x1="499.64" y1="2119.96" x2="499.64" y2="2109.65" xlink:href="#linear-gradient-25"></linearGradient> <linearGradient id="linear-gradient-53" x1="450.94" y1="2091.35" x2="450.94" y2="2087.24" xlink:href="#linear-gradient-25"></linearGradient> <linearGradient id="linear-gradient-54" x1="465.67" y1="2062.51" x2="465.67" y2="2059.84" xlink:href="#linear-gradient-25"></linearGradient> <linearGradient id="linear-gradient-55" x1="540.52" y1="2128.6" x2="540.52" y2="2118.28" xlink:href="#linear-gradient-25"></linearGradient> <linearGradient id="linear-gradient-56" x1="532.39" y1="2022.98" x2="532.39" y2="2017.69" xlink:href="#linear-gradient-25"></linearGradient> <linearGradient id="linear-gradient-57" x1="563.37" y1="1764.65" x2="563.37" y2="1759.37" xlink:href="#linear-gradient-25"></linearGradient> <linearGradient id="linear-gradient-58" x1="514.37" y1="2088.56" x2="514.37" y2="2084.81" xlink:href="#linear-gradient-25"></linearGradient> <linearGradient id="linear-gradient-59" x1="557.01" y1="2046.53" x2="557.01" y2="2042.78" xlink:href="#linear-gradient-25"></linearGradient> <linearGradient id="linear-gradient-60" x1="632.22" y1="2100.28" x2="632.22" y2="2094.99" xlink:href="#linear-gradient-25"></linearGradient> <linearGradient id="linear-gradient-61" x1="723.87" y1="2100.94" x2="723.87" y2="2095.65" xlink:href="#linear-gradient-25"></linearGradient> <linearGradient id="linear-gradient-62" x1="633.36" y1="1947.75" x2="633.36" y2="1929.99" xlink:href="#linear-gradient-25"></linearGradient> <linearGradient id="linear-gradient-63" x1="634.64" y1="1771.4" x2="634.64" y2="1753.64" xlink:href="#linear-gradient-25"></linearGradient> <linearGradient id="linear-gradient-64" x1="586.96" y1="2023.08" x2="586.96" y2="2012.76" xlink:href="#linear-gradient-25"></linearGradient> <linearGradient id="linear-gradient-65" x1="489.93" y1="1848.01" x2="489.93" y2="1837.69" xlink:href="#linear-gradient-25"></linearGradient> <linearGradient id="linear-gradient-66" x1="587.34" y1="1967.65" x2="587.34" y2="1962.36" xlink:href="#linear-gradient-25"></linearGradient> <linearGradient id="linear-gradient-67" x1="489.32" y1="1929.62" x2="489.32" y2="1924.34" xlink:href="#linear-gradient-25"></linearGradient> <linearGradient id="linear-gradient-68" x1="538.5" y1="1845.84" x2="538.5" y2="1840.55" xlink:href="#linear-gradient-25"></linearGradient> <linearGradient id="linear-gradient-69" x1="678.62" y1="2021.23" x2="678.62" y2="2015.94" xlink:href="#linear-gradient-25"></linearGradient> <linearGradient id="linear-gradient-70" x1="679" y1="1970.83" x2="679" y2="1960.51" xlink:href="#linear-gradient-25"></linearGradient> <linearGradient id="linear-gradient-71" x1="724.26" y1="2050.53" x2="724.26" y2="2040.22" xlink:href="#linear-gradient-25"></linearGradient> <linearGradient id="linear-gradient-72" x1="562.48" y1="1890.6" x2="562.48" y2="1880.28" xlink:href="#linear-gradient-25"></linearGradient> <linearGradient id="linear-gradient-73" x1="669.83" y1="1827.14" x2="669.83" y2="1821.85" xlink:href="#linear-gradient-25"></linearGradient> <linearGradient id="linear-gradient-74" x1="633.75" y1="1888.6" x2="633.75" y2="1883.31" xlink:href="#linear-gradient-25"></linearGradient> <linearGradient id="linear-gradient-75" x1="537.89" y1="1932.49" x2="537.89" y2="1922.18" xlink:href="#linear-gradient-25"></linearGradient> <linearGradient id="linear-gradient-76" x1="151.68" y1="2371.37" x2="979.98" y2="2371.37" gradientTransform="translate(-1050.14 1516.8) rotate(-90)" gradientUnits="userSpaceOnUse"> <stop offset=".3" stop-color="#fff"></stop> <stop offset=".73" stop-color="#cfd7d9"></stop> </linearGradient> <linearGradient id="linear-gradient-77" x1="126.9" y1="188.13" x2="284.73" y2="53.01" gradientUnits="userSpaceOnUse"> <stop offset="0" stop-color="#b40000"></stop> <stop offset="1" stop-color="red"></stop> </linearGradient> </defs> <rect width="1080" height="1080" style="fill:url(#linear-gradient);"></rect> <g style="clip-path:url(#clippath);"> <g> <g style="opacity:.7;"> <g style="opacity:.5;"> <g style="opacity:.5;"> <g> <polygon points="1035.84 26.5 1086.81 19.91 1087.03 21.64 1037.07 28.1 1017.68 74.6 1016.08 73.92 1035.84 26.5" style="fill:url(#linear-gradient-2);"></polygon> <polygon points="1004.72 164.83 1038.93 184.92 1073 165.58 1073.29 125.9 1075.04 125.91 1074.74 166.6 1038.92 186.93 1003.83 166.34 1004.72 164.83" style="fill:url(#linear-gradient-3);"></polygon> <polygon points="899.45 264.09 933.67 284.18 967.73 264.84 968.02 225.16 969.77 225.17 969.47 265.86 933.65 286.2 898.57 265.59 899.45 264.09" style="fill:url(#linear-gradient-4);"></polygon> <polygon points="968.52 184.87 1003.84 164.82 1004.71 166.34 970.25 185.9 969.77 225.18 968.03 225.16 968.52 184.87" style="fill:url(#linear-gradient-5);"></polygon> <polygon points="976.45 3.93 977.96 4.81 957.86 39.03 977.2 73.09 1016.88 73.39 1016.87 75.14 976.18 74.83 955.84 39.01 976.45 3.93" style="fill:url(#linear-gradient-6);"></polygon> <rect x="1071.55" y="115.11" width="40.18" height="1.75" transform="translate(85.05 554.06) rotate(-29.58)" style="fill:url(#linear-gradient-7);"></rect> </g> <g> <path d="M1094.99,13.76c3.87,4.46,3.4,11.22-1.07,15.1-4.46,3.87-11.21,3.39-15.09-1.07-3.87-4.46-3.4-11.22,1.06-15.09,4.46-3.88,11.22-3.4,15.1,1.06Z" style="fill:url(#linear-gradient-8);"></path> <path d="M977.46,178.37c3.87,4.46,3.4,11.21-1.06,15.09-4.46,3.87-11.22,3.4-15.09-1.06-3.87-4.46-3.39-11.22,1.06-15.09,4.46-3.88,11.22-3.4,15.09,1.06Z" style="fill:url(#linear-gradient-9);"></path> <path d="M1042.93,182.45c1.92,2.21,1.68,5.56-.53,7.48-2.21,1.92-5.56,1.68-7.48-.53s-1.68-5.56,.52-7.48,5.57-1.69,7.49,.52Z" style="fill:url(#linear-gradient-10);"></path> <path d="M972.61,261.87c1.92,2.21,1.68,5.56-.52,7.48-2.21,1.92-5.57,1.69-7.49-.52-1.92-2.21-1.68-5.57,.53-7.49,2.21-1.92,5.56-1.68,7.48,.53Z" style="fill:url(#linear-gradient-11);"></path> <path d="M1076.86,163.49c1.44,1.65,1.26,4.15-.39,5.59-1.66,1.44-4.16,1.26-5.59-.39-1.43-1.65-1.26-4.15,.4-5.59,1.65-1.43,4.15-1.25,5.58,.4Z" style="fill:url(#linear-gradient-12);"></path> <path d="M1021.57,70.19c2.25,2.59,1.98,6.51-.61,8.76-2.59,2.25-6.52,1.98-8.77-.61-2.25-2.59-1.97-6.52,.62-8.77,2.59-2.25,6.51-1.97,8.76,.62Z" style="fill:url(#linear-gradient-13);"></path> <path d="M936.13,283.04c1.18,1.36,1.04,3.43-.33,4.61s-3.43,1.03-4.61-.33c-1.18-1.36-1.04-3.43,.32-4.61,1.36-1.18,3.43-1.04,4.61,.32Z" style="fill:url(#linear-gradient-14);"></path> <path d="M900.82,263.27c.87,1,.76,2.51-.24,3.38s-2.51,.76-3.38-.24c-.87-1-.76-2.51,.24-3.38,1-.87,2.51-.76,3.38,.24Z" style="fill:url(#linear-gradient-15);"></path> <path d="M979.68,71.36c1.44,1.65,1.26,4.16-.4,5.59-1.65,1.43-4.15,1.26-5.59-.4s-1.26-4.15,.39-5.59c1.65-1.44,4.16-1.26,5.59,.39Z" style="fill:url(#linear-gradient-16);"></path> <path d="M979.07,2.75c.9,1.03,.79,2.6-.24,3.5-1.03,.9-2.6,.78-3.49-.25-.9-1.03-.79-2.59,.24-3.49,1.03-.9,2.6-.79,3.49,.24Z" style="fill:url(#linear-gradient-17);"></path> </g> </g> <g style="opacity:.5;"> <g> <polygon points="597.56 47.74 631.78 67.83 665.85 48.5 666.14 8.82 667.89 8.83 667.58 49.52 631.77 69.85 596.68 49.25 597.56 47.74" style="fill:url(#linear-gradient-18);"></polygon> <polygon points="666.64 -31.47 701.96 -51.52 702.82 -50.01 668.37 -30.45 667.89 8.83 666.14 8.81 666.64 -31.47" style="fill:url(#linear-gradient-19);"></polygon> </g> <g> <path d="M670.72,45.53c1.92,2.21,1.68,5.56-.52,7.48-2.21,1.92-5.57,1.69-7.49-.52-1.92-2.21-1.68-5.57,.53-7.49s5.56-1.68,7.48,.53Z" style="fill:url(#linear-gradient-20);"></path> <path d="M634.24,66.7c1.18,1.36,1.04,3.43-.33,4.61-1.36,1.18-3.43,1.03-4.61-.33s-1.04-3.43,.32-4.61,3.43-1.04,4.61,.32Z" style="fill:url(#linear-gradient-21);"></path> <path d="M598.93,46.92c.87,1,.76,2.51-.24,3.38-1,.87-2.51,.76-3.38-.24-.87-1-.76-2.51,.24-3.38,1-.87,2.51-.76,3.38,.24Z" style="fill:url(#linear-gradient-22);"></path> </g> </g> </g> <g> <g> <g> <polygon points="1035.84 26.5 1086.81 19.91 1087.03 21.64 1037.07 28.1 1017.68 74.6 1016.08 73.92 1035.84 26.5" style="fill:url(#linear-gradient-23);"></polygon> <polygon points="1004.72 164.83 1038.93 184.92 1073 165.58 1073.29 125.9 1075.04 125.91 1074.74 166.6 1038.92 186.93 1003.83 166.34 1004.72 164.83" style="fill:url(#linear-gradient-23);"></polygon> <polygon points="899.45 264.09 933.67 284.18 967.73 264.84 968.02 225.16 969.77 225.17 969.47 265.86 933.65 286.2 898.57 265.59 899.45 264.09" style="fill:url(#linear-gradient-23);"></polygon> <polygon points="968.52 184.87 1003.84 164.82 1004.71 166.34 970.25 185.9 969.77 225.18 968.03 225.16 968.52 184.87" style="fill:url(#linear-gradient-23);"></polygon> <polygon points="976.45 3.93 977.96 4.81 957.86 39.03 977.2 73.09 1016.88 73.39 1016.87 75.14 976.18 74.83 955.84 39.01 976.45 3.93" style="fill:url(#linear-gradient-23);"></polygon> <rect x="1071.55" y="115.11" width="40.18" height="1.75" transform="translate(85.05 554.06) rotate(-29.58)" style="fill:url(#linear-gradient-24);"></rect> </g> <g> <path d="M1094.99,13.76c3.87,4.46,3.4,11.22-1.07,15.1-4.46,3.87-11.21,3.39-15.09-1.07-3.87-4.46-3.4-11.22,1.06-15.09,4.46-3.88,11.22-3.4,15.1,1.06Z" style="fill:url(#linear-gradient-23);"></path> <path d="M977.46,178.37c3.87,4.46,3.4,11.21-1.06,15.09-4.46,3.87-11.22,3.4-15.09-1.06-3.87-4.46-3.39-11.22,1.06-15.09,4.46-3.88,11.22-3.4,15.09,1.06Z" style="fill:url(#linear-gradient-23);"></path> <path d="M1042.93,182.45c1.92,2.21,1.68,5.56-.53,7.48-2.21,1.92-5.56,1.68-7.48-.53s-1.68-5.56,.52-7.48,5.57-1.69,7.49,.52Z" style="fill:url(#linear-gradient-23);"></path> <path d="M972.61,261.87c1.92,2.21,1.68,5.56-.52,7.48-2.21,1.92-5.57,1.69-7.49-.52-1.92-2.21-1.68-5.57,.53-7.49,2.21-1.92,5.56-1.68,7.48,.53Z" style="fill:url(#linear-gradient-23);"></path> <path d="M1076.86,163.49c1.44,1.65,1.26,4.15-.39,5.59-1.66,1.44-4.16,1.26-5.59-.39-1.43-1.65-1.26-4.15,.4-5.59,1.65-1.43,4.15-1.25,5.58,.4Z" style="fill:url(#linear-gradient-23);"></path> <path d="M1021.57,70.19c2.25,2.59,1.98,6.51-.61,8.76-2.59,2.25-6.52,1.98-8.77-.61-2.25-2.59-1.97-6.52,.62-8.77,2.59-2.25,6.51-1.97,8.76,.62Z" style="fill:url(#linear-gradient-23);"></path> <path d="M936.13,283.04c1.18,1.36,1.04,3.43-.33,4.61s-3.43,1.03-4.61-.33c-1.18-1.36-1.04-3.43,.32-4.61,1.36-1.18,3.43-1.04,4.61,.32Z" style="fill:url(#linear-gradient-23);"></path> <path d="M900.82,263.27c.87,1,.76,2.51-.24,3.38s-2.51,.76-3.38-.24c-.87-1-.76-2.51,.24-3.38,1-.87,2.51-.76,3.38,.24Z" style="fill:url(#linear-gradient-23);"></path> <path d="M979.68,71.36c1.44,1.65,1.26,4.16-.4,5.59-1.65,1.43-4.15,1.26-5.59-.4s-1.26-4.15,.39-5.59c1.65-1.44,4.16-1.26,5.59,.39Z" style="fill:url(#linear-gradient-23);"></path> <path d="M979.07,2.75c.9,1.03,.79,2.6-.24,3.5-1.03,.9-2.6,.78-3.49-.25-.9-1.03-.79-2.59,.24-3.49,1.03-.9,2.6-.79,3.49,.24Z" style="fill:url(#linear-gradient-23);"></path> </g> </g> <g> <g> <polygon points="597.56 47.74 631.78 67.83 665.85 48.5 666.14 8.82 667.89 8.83 667.58 49.52 631.77 69.85 596.68 49.25 597.56 47.74" style="fill:url(#linear-gradient-23);"></polygon> <polygon points="666.64 -31.47 701.96 -51.52 702.82 -50.01 668.37 -30.45 667.89 8.83 666.14 8.81 666.64 -31.47" style="fill:url(#linear-gradient-23);"></polygon> </g> <g> <path d="M670.72,45.53c1.92,2.21,1.68,5.56-.52,7.48-2.21,1.92-5.57,1.69-7.49-.52-1.92-2.21-1.68-5.57,.53-7.49s5.56-1.68,7.48,.53Z" style="fill:url(#linear-gradient-23);"></path> <path d="M634.24,66.7c1.18,1.36,1.04,3.43-.33,4.61-1.36,1.18-3.43,1.03-4.61-.33s-1.04-3.43,.32-4.61,3.43-1.04,4.61,.32Z" style="fill:url(#linear-gradient-23);"></path> <path d="M598.93,46.92c.87,1,.76,2.51-.24,3.38-1,.87-2.51,.76-3.38-.24-.87-1-.76-2.51,.24-3.38,1-.87,2.51-.76,3.38,.24Z" style="fill:url(#linear-gradient-23);"></path> </g> </g> </g> </g> <g style="opacity:.4;"> <g style="opacity:.5;"> <g style="opacity:.5;"> <g> <polygon points="890.71 702.85 891.22 631.17 891.59 630.96 953.93 595.56 1016.11 632.07 1015.59 703.75 1014.15 703.74 1014.65 632.9 953.92 597.24 892.67 632.02 892.16 702.86 890.71 702.85" style="fill:url(#linear-gradient-25);"></polygon> <polygon points="971.55 776.29 971.9 727.31 1014.87 702.91 1057.49 727.92 1057.13 776.92 1055.68 776.91 1056.03 728.75 1014.86 704.58 973.34 728.15 973 776.31 971.55 776.29" style="fill:url(#linear-gradient-26);"></polygon> <polygon points="1015.38 633.21 1015.39 631.76 1068.72 632.14 1095.06 678.53 1093.8 679.24 1067.87 633.59 1015.38 633.21" style="fill:url(#linear-gradient-27);"></polygon> </g> <g> <path d="M889.7,700.86c1.1-.96,2.77-.84,3.73,.26,.96,1.1,.84,2.77-.26,3.73s-2.77,.84-3.73-.26-.84-2.77,.26-3.73Z" style="fill:url(#linear-gradient-28);"></path> <path d="M1062.48,626.16c3.7-3.22,9.31-2.82,12.52,.88,3.21,3.7,2.82,9.31-.88,12.52-3.7,3.21-9.31,2.82-12.52-.88-3.22-3.7-2.82-9.31,.88-12.52Z" style="fill:url(#linear-gradient-29);"></path> <path d="M886.12,624.89c3.7-3.22,9.31-2.82,12.53,.88,3.21,3.7,2.82,9.31-.88,12.53-3.7,3.21-9.31,2.82-12.53-.88-3.22-3.71-2.82-9.31,.88-12.52Z" style="fill:url(#linear-gradient-30);"></path> <path d="M968.89,772.4c2.15-1.87,5.41-1.64,7.28,.52,1.87,2.15,1.64,5.4-.51,7.27s-5.41,1.64-7.28-.51c-1.87-2.15-1.64-5.41,.51-7.28Z" style="fill:url(#linear-gradient-31);"></path> <path d="M1054.67,774.91c1.1-.95,2.77-.84,3.73,.27,.95,1.1,.84,2.77-.26,3.73-1.11,.96-2.78,.84-3.73-.26s-.84-2.77,.26-3.73Z" style="fill:url(#linear-gradient-32);"></path> <path d="M970.89,725.73c1.1-.96,2.77-.84,3.73,.26s.84,2.77-.26,3.73-2.77,.84-3.73-.26-.84-2.77,.26-3.73Z" style="fill:url(#linear-gradient-33);"></path> <path d="M1011.49,699.85c2.15-1.87,5.41-1.64,7.28,.51,1.87,2.15,1.64,5.41-.51,7.27-2.15,1.87-5.41,1.64-7.27-.51-1.87-2.15-1.64-5.41,.51-7.28Z" style="fill:url(#linear-gradient-34);"></path> <path d="M952.19,594.4c1.1-.96,2.77-.84,3.73,.27s.84,2.77-.26,3.73-2.77,.84-3.73-.26-.84-2.78,.26-3.73Z" style="fill:url(#linear-gradient-35);"></path> <path d="M1013.65,630.49c1.1-.96,2.77-.84,3.73,.26,.96,1.1,.84,2.77-.26,3.73-1.1,.96-2.77,.84-3.73-.26s-.84-2.77,.26-3.73Z" style="fill:url(#linear-gradient-36);"></path> <path d="M1053.38,724.44c2.15-1.87,5.41-1.64,7.28,.51,1.87,2.15,1.64,5.41-.51,7.27-2.15,1.87-5.41,1.64-7.27-.51-1.87-2.15-1.64-5.41,.51-7.27Z" style="fill:url(#linear-gradient-37);"></path> </g> </g> <g style="opacity:.5;"> <g> <polygon points="969.38 983.54 994.3 958.98 1028.43 968.39 1037.25 1002.25 1035.84 1002.61 1027.24 969.56 994.72 960.6 970.39 984.57 969.38 983.54" style="fill:url(#linear-gradient-38);"></polygon> <polygon points="1062.47 1108.39 1038.52 1066.21 1039.78 1065.5 1063.31 1106.94 1110.54 1107.28 1134.67 1066.19 1135.92 1066.92 1111.37 1108.74 1110.95 1108.74 1062.47 1108.39" style="fill:url(#linear-gradient-39);"></polygon> <polygon points="1010.7 1051.77 1011.37 1050.49 1039.11 1065.02 1065.22 1048.48 1063.96 1017.6 1036.21 1003.07 1036.88 1001.79 1065.37 1016.71 1066.7 1049.26 1039.18 1066.69 1010.7 1051.77" style="fill:url(#linear-gradient-40);"></polygon> <polygon points="1065.63 1049.51 1066.3 1048.23 1094.05 1062.76 1120.51 1046 1121.29 1047.22 1094.11 1064.43 1065.63 1049.51" style="fill:url(#linear-gradient-41);"></polygon> <polygon points="1073.29 977 1073.3 975.55 1152.16 976.12 1191.88 908.46 1153.14 840.24 1074.28 839.67 1074.29 838.22 1153.99 838.8 1154.2 839.16 1193.55 908.47 1193.34 908.83 1152.99 977.57 1152.57 977.57 1073.29 977" style="fill:url(#linear-gradient-42);"></polygon> <polygon points="994.57 884.93 994.58 883.47 1047.08 883.86 1073.45 838.94 1047.73 793.64 995.23 793.27 995.24 791.82 1048.57 792.2 1075.12 838.95 1074.91 839.31 1047.9 885.31 1047.49 885.31 994.57 884.93" style="fill:url(#linear-gradient-43);"></polygon> <polygon points="914.86 930.18 914.86 928.73 967.37 929.11 993.74 884.19 968.02 838.9 915.52 838.52 915.53 837.07 968.86 837.46 995.41 884.21 995.2 884.57 968.19 930.56 967.78 930.56 914.86 930.18" style="fill:url(#linear-gradient-44);"></polygon> <polygon points="711.14 953.42 711.65 881.74 712.02 881.53 774.36 846.13 836.54 882.64 836.02 954.32 834.58 954.31 835.08 883.46 774.35 847.81 713.1 882.58 712.59 953.43 711.14 953.42" style="fill:url(#linear-gradient-45);"></polygon> <polygon points="791.98 1026.86 792.33 977.88 835.3 953.48 877.92 978.49 877.56 1027.48 876.11 1027.48 876.46 979.32 835.29 955.15 793.77 978.72 793.43 1026.88 791.98 1026.86" style="fill:url(#linear-gradient-46);"></polygon> <polygon points="835.81 883.78 835.82 882.33 889.15 882.71 915.49 929.1 914.23 929.81 888.3 884.15 835.81 883.78" style="fill:url(#linear-gradient-47);"></polygon> </g> <g> <path d="M1022.02,962.27c3.7-3.21,9.31-2.82,12.53,.88,3.21,3.7,2.82,9.31-.88,12.52-3.7,3.21-9.31,2.82-12.52-.88-3.22-3.7-2.82-9.31,.88-12.52Z" style="fill:url(#linear-gradient-48);"></path> <path d="M988.75,877.5c3.7-3.21,9.31-2.82,12.53,.88,3.22,3.7,2.82,9.31-.88,12.53-3.7,3.21-9.31,2.82-12.53-.88-3.21-3.7-2.82-9.31,.88-12.52Z" style="fill:url(#linear-gradient-49);"></path> <path d="M1070.9,835.05c2.15-1.87,5.41-1.64,7.28,.52s1.64,5.41-.51,7.27c-2.15,1.87-5.41,1.64-7.28-.51-1.87-2.15-1.64-5.41,.51-7.28Z" style="fill:url(#linear-gradient-50);"></path> <path d="M1064.49,1046.65c1.1-.96,2.77-.84,3.73,.26s.84,2.77-.26,3.73c-1.1,.96-2.78,.84-3.73-.26s-.84-2.77,.26-3.73Z" style="fill:url(#linear-gradient-51);"></path> <path d="M1061.28,1013.26c2.15-1.87,5.41-1.64,7.27,.51s1.64,5.41-.51,7.28c-2.15,1.87-5.41,1.64-7.28-.51-1.87-2.15-1.64-5.41,.51-7.28Z" style="fill:url(#linear-gradient-52);"></path> <path d="M1037.8,1064.31c.86-.74,2.15-.66,2.9,.2s.65,2.15-.2,2.9c-.86,.74-2.15,.65-2.9-.2-.75-.86-.65-2.15,.21-2.9Z" style="fill:url(#linear-gradient-53);"></path> <path d="M1010.16,1050.12c.56-.48,1.4-.42,1.88,.13s.42,1.4-.13,1.88c-.56,.48-1.4,.42-1.88-.13-.48-.56-.43-1.4,.13-1.88Z" style="fill:url(#linear-gradient-54);"></path> <path d="M1069.91,972.38c2.15-1.87,5.41-1.64,7.28,.51,1.87,2.15,1.64,5.41-.51,7.28-2.15,1.87-5.41,1.64-7.28-.51-1.87-2.15-1.64-5.41,.51-7.28Z" style="fill:url(#linear-gradient-55);"></path> <path d="M968.46,982.41c1.1-.96,2.77-.84,3.73,.26s.84,2.77-.26,3.73c-1.1,.96-2.77,.84-3.73-.26s-.84-2.77,.26-3.73Z" style="fill:url(#linear-gradient-56);"></path> <path d="M710.13,951.43c1.1-.96,2.77-.84,3.73,.26s.84,2.77-.26,3.73c-1.1,.96-2.77,.84-3.73-.26s-.84-2.77,.26-3.73Z" style="fill:url(#linear-gradient-57);"></path> <path d="M1035.31,1001.01c.78-.68,1.97-.59,2.65,.19s.59,1.96-.19,2.64c-.78,.68-1.97,.59-2.64-.18s-.6-1.97,.18-2.65Z" style="fill:url(#linear-gradient-58);"></path> <path d="M993.28,958.37c.78-.68,1.97-.6,2.65,.19,.68,.78,.6,1.97-.19,2.65-.78,.68-1.97,.59-2.64-.19-.68-.78-.6-1.97,.18-2.64Z" style="fill:url(#linear-gradient-59);"></path> <path d="M1045.76,882.58c1.1-.96,2.77-.84,3.73,.27s.84,2.77-.26,3.73c-1.1,.96-2.78,.84-3.73-.26s-.84-2.77,.26-3.73Z" style="fill:url(#linear-gradient-60);"></path> <path d="M1046.42,790.93c1.1-.96,2.77-.84,3.73,.26s.84,2.77-.26,3.73c-1.1,.96-2.77,.84-3.73-.26s-.84-2.78,.26-3.73Z" style="fill:url(#linear-gradient-61);"></path> <path d="M882.91,876.73c3.7-3.22,9.31-2.82,12.52,.88,3.21,3.7,2.82,9.31-.88,12.52-3.7,3.21-9.31,2.82-12.52-.88-3.22-3.7-2.82-9.31,.88-12.52Z" style="fill:url(#linear-gradient-62);"></path> <path d="M706.55,875.46c3.7-3.22,9.31-2.82,12.53,.88,3.21,3.7,2.82,9.31-.88,12.53-3.7,3.21-9.31,2.82-12.53-.88-3.22-3.71-2.82-9.31,.88-12.52Z" style="fill:url(#linear-gradient-63);"></path> <path d="M964.4,925.94c2.15-1.87,5.41-1.64,7.28,.51,1.87,2.15,1.63,5.41-.52,7.27-2.15,1.87-5.41,1.64-7.27-.51s-1.64-5.41,.51-7.28Z" style="fill:url(#linear-gradient-64);"></path> <path d="M789.32,1022.97c2.15-1.87,5.41-1.64,7.28,.52s1.64,5.4-.51,7.27c-2.15,1.87-5.41,1.64-7.28-.51-1.87-2.15-1.64-5.41,.51-7.28Z" style="fill:url(#linear-gradient-65);"></path> <path d="M913.13,927.46c1.1-.96,2.77-.84,3.73,.26,.96,1.1,.84,2.77-.26,3.73-1.1,.96-2.77,.84-3.73-.26-.96-1.11-.84-2.77,.26-3.73Z" style="fill:url(#linear-gradient-66);"></path> <path d="M875.1,1025.48c1.1-.95,2.77-.84,3.73,.27,.95,1.1,.84,2.77-.26,3.73-1.11,.96-2.78,.84-3.73-.26-.96-1.11-.84-2.77,.26-3.73Z" style="fill:url(#linear-gradient-67);"></path> <path d="M791.32,976.3c1.1-.96,2.77-.84,3.73,.26,.96,1.1,.84,2.77-.26,3.73s-2.77,.84-3.73-.26c-.96-1.1-.84-2.77,.26-3.73Z" style="fill:url(#linear-gradient-68);"></path> <path d="M966.71,836.18c1.1-.96,2.77-.84,3.73,.26,.96,1.1,.84,2.77-.26,3.73s-2.78,.84-3.73-.26-.84-2.77,.26-3.73Z" style="fill:url(#linear-gradient-69);"></path> <path d="M912.14,833.9c2.15-1.87,5.41-1.64,7.28,.51,1.87,2.15,1.63,5.41-.52,7.27s-5.41,1.64-7.27-.51c-1.87-2.16-1.64-5.41,.51-7.28Z" style="fill:url(#linear-gradient-70);"></path> <path d="M991.85,788.65c2.15-1.87,5.41-1.64,7.28,.51,1.87,2.15,1.64,5.41-.51,7.27s-5.41,1.64-7.27-.51c-1.87-2.15-1.64-5.41,.51-7.28Z" style="fill:url(#linear-gradient-71);"></path> <path d="M831.92,950.42c2.15-1.87,5.41-1.64,7.28,.51,1.87,2.15,1.64,5.41-.51,7.27-2.15,1.87-5.41,1.64-7.27-.51-1.87-2.15-1.64-5.41,.51-7.28Z" style="fill:url(#linear-gradient-72);"></path> <path d="M772.62,844.97c1.1-.96,2.77-.84,3.73,.27,.95,1.1,.84,2.77-.26,3.73-1.1,.96-2.77,.84-3.73-.26s-.84-2.78,.26-3.73Z" style="fill:url(#linear-gradient-73);"></path> <path d="M834.08,881.05c1.1-.96,2.77-.84,3.73,.26s.84,2.77-.26,3.73c-1.1,.96-2.77,.84-3.73-.26s-.84-2.77,.26-3.73Z" style="fill:url(#linear-gradient-74);"></path> <path d="M873.81,975.01c2.15-1.87,5.41-1.64,7.28,.51,1.87,2.15,1.64,5.41-.51,7.27s-5.41,1.64-7.27-.51c-1.87-2.15-1.64-5.41,.51-7.27Z" style="fill:url(#linear-gradient-75);"></path> </g> </g> </g> <g> <g> <g> <polygon points="890.71 702.85 891.22 631.17 891.59 630.96 953.93 595.56 1016.11 632.07 1015.59 703.75 1014.15 703.74 1014.65 632.9 953.92 597.24 892.67 632.02 892.16 702.86 890.71 702.85" style="fill:url(#linear-gradient-76);"></polygon> <polygon points="971.55 776.29 971.9 727.31 1014.87 702.91 1057.49 727.92 1057.13 776.92 1055.68 776.91 1056.03 728.75 1014.86 704.58 973.34 728.15 973 776.31 971.55 776.29" style="fill:url(#linear-gradient-76);"></polygon> <polygon points="1015.38 633.21 1015.39 631.76 1068.72 632.14 1095.06 678.53 1093.8 679.24 1067.87 633.59 1015.38 633.21" style="fill:url(#linear-gradient-76);"></polygon> </g> <g> <path d="M889.7,700.86c1.1-.96,2.77-.84,3.73,.26,.96,1.1,.84,2.77-.26,3.73s-2.77,.84-3.73-.26-.84-2.77,.26-3.73Z" style="fill:url(#linear-gradient-76);"></path> <path d="M1062.48,626.16c3.7-3.22,9.31-2.82,12.52,.88,3.21,3.7,2.82,9.31-.88,12.52-3.7,3.21-9.31,2.82-12.52-.88-3.22-3.7-2.82-9.31,.88-12.52Z" style="fill:url(#linear-gradient-76);"></path> <path d="M886.12,624.89c3.7-3.22,9.31-2.82,12.53,.88,3.21,3.7,2.82,9.31-.88,12.53-3.7,3.21-9.31,2.82-12.53-.88-3.22-3.71-2.82-9.31,.88-12.52Z" style="fill:url(#linear-gradient-76);"></path> <path d="M968.89,772.4c2.15-1.87,5.41-1.64,7.28,.52,1.87,2.15,1.64,5.4-.51,7.27s-5.41,1.64-7.28-.51c-1.87-2.15-1.64-5.41,.51-7.28Z" style="fill:url(#linear-gradient-76);"></path> <path d="M1054.67,774.91c1.1-.95,2.77-.84,3.73,.27,.95,1.1,.84,2.77-.26,3.73-1.11,.96-2.78,.84-3.73-.26s-.84-2.77,.26-3.73Z" style="fill:url(#linear-gradient-76);"></path> <path d="M970.89,725.73c1.1-.96,2.77-.84,3.73,.26s.84,2.77-.26,3.73-2.77,.84-3.73-.26-.84-2.77,.26-3.73Z" style="fill:url(#linear-gradient-76);"></path> <path d="M1011.49,699.85c2.15-1.87,5.41-1.64,7.28,.51,1.87,2.15,1.64,5.41-.51,7.27-2.15,1.87-5.41,1.64-7.27-.51-1.87-2.15-1.64-5.41,.51-7.28Z" style="fill:url(#linear-gradient-76);"></path> <path d="M952.19,594.4c1.1-.96,2.77-.84,3.73,.27s.84,2.77-.26,3.73-2.77,.84-3.73-.26-.84-2.78,.26-3.73Z" style="fill:url(#linear-gradient-76);"></path> <path d="M1013.65,630.49c1.1-.96,2.77-.84,3.73,.26,.96,1.1,.84,2.77-.26,3.73-1.1,.96-2.77,.84-3.73-.26s-.84-2.77,.26-3.73Z" style="fill:url(#linear-gradient-76);"></path> <path d="M1053.38,724.44c2.15-1.87,5.41-1.64,7.28,.51,1.87,2.15,1.64,5.41-.51,7.27-2.15,1.87-5.41,1.64-7.27-.51-1.87-2.15-1.64-5.41,.51-7.27Z" style="fill:url(#linear-gradient-76);"></path> </g> </g> <g> <g> <polygon points="969.38 983.54 994.3 958.98 1028.43 968.39 1037.25 1002.25 1035.84 1002.61 1027.24 969.56 994.72 960.6 970.39 984.57 969.38 983.54" style="fill:url(#linear-gradient-76);"></polygon> <polygon points="1062.47 1108.39 1038.52 1066.21 1039.78 1065.5 1063.31 1106.94 1110.54 1107.28 1134.67 1066.19 1135.92 1066.92 1111.37 1108.74 1110.95 1108.74 1062.47 1108.39" style="fill:url(#linear-gradient-76);"></polygon> <polygon points="1010.7 1051.77 1011.37 1050.49 1039.11 1065.02 1065.22 1048.48 1063.96 1017.6 1036.21 1003.07 1036.88 1001.79 1065.37 1016.71 1066.7 1049.26 1039.18 1066.69 1010.7 1051.77" style="fill:url(#linear-gradient-76);"></polygon> <polygon points="1065.63 1049.51 1066.3 1048.23 1094.05 1062.76 1120.51 1046 1121.29 1047.22 1094.11 1064.43 1065.63 1049.51" style="fill:url(#linear-gradient-76);"></polygon> <polygon points="1073.29 977 1073.3 975.55 1152.16 976.12 1191.88 908.46 1153.14 840.24 1074.28 839.67 1074.29 838.22 1153.99 838.8 1154.2 839.16 1193.55 908.47 1193.34 908.83 1152.99 977.57 1152.57 977.57 1073.29 977" style="fill:url(#linear-gradient-76);"></polygon> <polygon points="994.57 884.93 994.58 883.47 1047.08 883.86 1073.45 838.94 1047.73 793.64 995.23 793.27 995.24 791.82 1048.57 792.2 1075.12 838.95 1074.91 839.31 1047.9 885.31 1047.49 885.31 994.57 884.93" style="fill:url(#linear-gradient-76);"></polygon> <polygon points="914.86 930.18 914.86 928.73 967.37 929.11 993.74 884.19 968.02 838.9 915.52 838.52 915.53 837.07 968.86 837.46 995.41 884.21 995.2 884.57 968.19 930.56 967.78 930.56 914.86 930.18" style="fill:url(#linear-gradient-76);"></polygon> <polygon points="711.14 953.42 711.65 881.74 712.02 881.53 774.36 846.13 836.54 882.64 836.02 954.32 834.58 954.31 835.08 883.46 774.35 847.81 713.1 882.58 712.59 953.43 711.14 953.42" style="fill:url(#linear-gradient-76);"></polygon> <polygon points="791.98 1026.86 792.33 977.88 835.3 953.48 877.92 978.49 877.56 1027.48 876.11 1027.48 876.46 979.32 835.29 955.15 793.77 978.72 793.43 1026.88 791.98 1026.86" style="fill:url(#linear-gradient-76);"></polygon> <polygon points="835.81 883.78 835.82 882.33 889.15 882.71 915.49 929.1 914.23 929.81 888.3 884.15 835.81 883.78" style="fill:url(#linear-gradient-76);"></polygon> </g> <g> <path d="M1022.02,962.27c3.7-3.21,9.31-2.82,12.53,.88,3.21,3.7,2.82,9.31-.88,12.52-3.7,3.21-9.31,2.82-12.52-.88-3.22-3.7-2.82-9.31,.88-12.52Z" style="fill:url(#linear-gradient-76);"></path> <path d="M988.75,877.5c3.7-3.21,9.31-2.82,12.53,.88,3.22,3.7,2.82,9.31-.88,12.53-3.7,3.21-9.31,2.82-12.53-.88-3.21-3.7-2.82-9.31,.88-12.52Z" style="fill:url(#linear-gradient-76);"></path> <path d="M1070.9,835.05c2.15-1.87,5.41-1.64,7.28,.52s1.64,5.41-.51,7.27c-2.15,1.87-5.41,1.64-7.28-.51-1.87-2.15-1.64-5.41,.51-7.28Z" style="fill:url(#linear-gradient-76);"></path> <path d="M1064.49,1046.65c1.1-.96,2.77-.84,3.73,.26s.84,2.77-.26,3.73c-1.1,.96-2.78,.84-3.73-.26s-.84-2.77,.26-3.73Z" style="fill:url(#linear-gradient-76);"></path> <path d="M1061.28,1013.26c2.15-1.87,5.41-1.64,7.27,.51s1.64,5.41-.51,7.28c-2.15,1.87-5.41,1.64-7.28-.51-1.87-2.15-1.64-5.41,.51-7.28Z" style="fill:url(#linear-gradient-76);"></path> <path d="M1037.8,1064.31c.86-.74,2.15-.66,2.9,.2s.65,2.15-.2,2.9c-.86,.74-2.15,.65-2.9-.2-.75-.86-.65-2.15,.21-2.9Z" style="fill:url(#linear-gradient-76);"></path> <path d="M1010.16,1050.12c.56-.48,1.4-.42,1.88,.13s.42,1.4-.13,1.88c-.56,.48-1.4,.42-1.88-.13-.48-.56-.43-1.4,.13-1.88Z" style="fill:url(#linear-gradient-76);"></path> <path d="M1069.91,972.38c2.15-1.87,5.41-1.64,7.28,.51,1.87,2.15,1.64,5.41-.51,7.28-2.15,1.87-5.41,1.64-7.28-.51-1.87-2.15-1.64-5.41,.51-7.28Z" style="fill:url(#linear-gradient-76);"></path> <path d="M968.46,982.41c1.1-.96,2.77-.84,3.73,.26s.84,2.77-.26,3.73c-1.1,.96-2.77,.84-3.73-.26s-.84-2.77,.26-3.73Z" style="fill:url(#linear-gradient-76);"></path> <path d="M710.13,951.43c1.1-.96,2.77-.84,3.73,.26s.84,2.77-.26,3.73c-1.1,.96-2.77,.84-3.73-.26s-.84-2.77,.26-3.73Z" style="fill:url(#linear-gradient-76);"></path> <path d="M1035.31,1001.01c.78-.68,1.97-.59,2.65,.19s.59,1.96-.19,2.64c-.78,.68-1.97,.59-2.64-.18s-.6-1.97,.18-2.65Z" style="fill:url(#linear-gradient-76);"></path> <path d="M993.28,958.37c.78-.68,1.97-.6,2.65,.19,.68,.78,.6,1.97-.19,2.65-.78,.68-1.97,.59-2.64-.19-.68-.78-.6-1.97,.18-2.64Z" style="fill:url(#linear-gradient-76);"></path> <path d="M1045.76,882.58c1.1-.96,2.77-.84,3.73,.27s.84,2.77-.26,3.73c-1.1,.96-2.78,.84-3.73-.26s-.84-2.77,.26-3.73Z" style="fill:url(#linear-gradient-76);"></path> <path d="M1046.42,790.93c1.1-.96,2.77-.84,3.73,.26s.84,2.77-.26,3.73c-1.1,.96-2.77,.84-3.73-.26s-.84-2.78,.26-3.73Z" style="fill:url(#linear-gradient-76);"></path> <path d="M882.91,876.73c3.7-3.22,9.31-2.82,12.52,.88,3.21,3.7,2.82,9.31-.88,12.52-3.7,3.21-9.31,2.82-12.52-.88-3.22-3.7-2.82-9.31,.88-12.52Z" style="fill:url(#linear-gradient-76);"></path> <path d="M706.55,875.46c3.7-3.22,9.31-2.82,12.53,.88,3.21,3.7,2.82,9.31-.88,12.53-3.7,3.21-9.31,2.82-12.53-.88-3.22-3.71-2.82-9.31,.88-12.52Z" style="fill:url(#linear-gradient-76);"></path> <path d="M964.4,925.94c2.15-1.87,5.41-1.64,7.28,.51,1.87,2.15,1.63,5.41-.52,7.27-2.15,1.87-5.41,1.64-7.27-.51s-1.64-5.41,.51-7.28Z" style="fill:url(#linear-gradient-76);"></path> <path d="M789.32,1022.97c2.15-1.87,5.41-1.64,7.28,.52s1.64,5.4-.51,7.27c-2.15,1.87-5.41,1.64-7.28-.51-1.87-2.15-1.64-5.41,.51-7.28Z" style="fill:url(#linear-gradient-76);"></path> <path d="M913.13,927.46c1.1-.96,2.77-.84,3.73,.26,.96,1.1,.84,2.77-.26,3.73-1.1,.96-2.77,.84-3.73-.26-.96-1.11-.84-2.77,.26-3.73Z" style="fill:url(#linear-gradient-76);"></path> <path d="M875.1,1025.48c1.1-.95,2.77-.84,3.73,.27,.95,1.1,.84,2.77-.26,3.73-1.11,.96-2.78,.84-3.73-.26-.96-1.11-.84-2.77,.26-3.73Z" style="fill:url(#linear-gradient-76);"></path> <path d="M791.32,976.3c1.1-.96,2.77-.84,3.73,.26,.96,1.1,.84,2.77-.26,3.73s-2.77,.84-3.73-.26c-.96-1.1-.84-2.77,.26-3.73Z" style="fill:url(#linear-gradient-76);"></path> <path d="M966.71,836.18c1.1-.96,2.77-.84,3.73,.26,.96,1.1,.84,2.77-.26,3.73s-2.78,.84-3.73-.26-.84-2.77,.26-3.73Z" style="fill:url(#linear-gradient-76);"></path> <path d="M912.14,833.9c2.15-1.87,5.41-1.64,7.28,.51,1.87,2.15,1.63,5.41-.52,7.27s-5.41,1.64-7.27-.51c-1.87-2.16-1.64-5.41,.51-7.28Z" style="fill:url(#linear-gradient-76);"></path> <path d="M991.85,788.65c2.15-1.87,5.41-1.64,7.28,.51,1.87,2.15,1.64,5.41-.51,7.27s-5.41,1.64-7.27-.51c-1.87-2.15-1.64-5.41,.51-7.28Z" style="fill:url(#linear-gradient-76);"></path> <path d="M831.92,950.42c2.15-1.87,5.41-1.64,7.28,.51,1.87,2.15,1.64,5.41-.51,7.27-2.15,1.87-5.41,1.64-7.27-.51-1.87-2.15-1.64-5.41,.51-7.28Z" style="fill:url(#linear-gradient-76);"></path> <path d="M772.62,844.97c1.1-.96,2.77-.84,3.73,.27,.95,1.1,.84,2.77-.26,3.73-1.1,.96-2.77,.84-3.73-.26s-.84-2.78,.26-3.73Z" style="fill:url(#linear-gradient-76);"></path> <path d="M834.08,881.05c1.1-.96,2.77-.84,3.73,.26s.84,2.77-.26,3.73c-1.1,.96-2.77,.84-3.73-.26s-.84-2.77,.26-3.73Z" style="fill:url(#linear-gradient-76);"></path> <path d="M873.81,975.01c2.15-1.87,5.41-1.64,7.28,.51,1.87,2.15,1.64,5.41-.51,7.27s-5.41,1.64-7.27-.51c-1.87-2.15-1.64-5.41,.51-7.27Z" style="fill:url(#linear-gradient-76);"></path> </g> </g> </g> </g> </g> </g> <g> <path d="M28,768.7v-17.38h-5.36v-1.08h11.94v1.08h-5.36v17.38h-1.22Z" style="fill:#fff;"></path> <path d="M37.91,768.7v-18.47h4.96c2.13,0,3.79,.46,4.98,1.37,1.19,.91,1.79,2.31,1.79,4.18s-.56,3.24-1.67,4.18c-1.11,.95-2.88,1.42-5.29,1.42h-3.55v7.31h-1.22Zm10.43-12.86c0-1.41-.45-2.51-1.34-3.32-.89-.8-2.23-1.21-4.02-1.21h-3.84v8.99h4.09c3.41,0,5.12-1.49,5.12-4.47Z" style="fill:#fff;"></path> <path d="M66.78,752.02h-.08c-.14,.2-.51,.72-1.1,1.57s-1.16,1.68-1.73,2.5c-.57,.82-1.06,1.52-1.48,2.1l-7.53,10.51h-1.06v-18.47h1.22v12.59c0,.88-.02,2.19-.05,3.93h.11c.49-.69,1.23-1.75,2.23-3.2s1.75-2.5,2.23-3.17l7.28-10.15h1.11v18.47h-1.22v-12.21c0-1.99,.02-3.48,.05-4.47Z" style="fill:#fff;"></path> <path d="M71.49,768.7l7.83-18.47h1.19l7.83,18.47h-1.27l-2.22-5.25h-9.91l-2.19,5.25h-1.25Zm6.5-12.43l-2.6,6.09h8.99l-2.68-6.28c-.54-1.23-1.13-2.7-1.76-4.41h-.11c-.09,.25-.28,.72-.55,1.41-.28,.69-.53,1.31-.75,1.87-.22,.56-.4,1-.54,1.33Z" style="fill:#fff;"></path> <path d="M106.23,750.23v17.38h2.17v5.82h-1.22v-4.74h-15.14v4.74h-1.22v-5.82h.19c.94,0,1.74-.41,2.41-1.23,.67-.82,1.07-2.13,1.19-3.94l.87-12.21h10.75Zm-1.22,17.38v-16.3h-8.39l-.79,11.13c-.16,2.49-.87,4.21-2.11,5.17h11.29Z" style="fill:#fff;"></path> <path d="M111.02,768.7l7.83-18.47h1.19l7.83,18.47h-1.27l-2.22-5.25h-9.91l-2.19,5.25h-1.25Zm6.5-12.43l-2.6,6.09h8.99l-2.68-6.28c-.54-1.23-1.13-2.7-1.76-4.41h-.11c-.09,.25-.28,.72-.55,1.41-.28,.69-.53,1.31-.75,1.87-.22,.56-.4,1-.54,1.33Z" style="fill:#fff;"></path> <path d="M151.53,752.02h-.08c-.14,.2-.51,.72-1.1,1.57s-1.16,1.68-1.73,2.5c-.57,.82-1.06,1.52-1.48,2.1l-7.53,10.51h-1.06v-18.47h1.22v12.59c0,.88-.02,2.19-.05,3.93h.11c.49-.69,1.23-1.75,2.23-3.2s1.75-2.5,2.23-3.17l7.28-10.15h1.11v18.47h-1.22v-12.21c0-1.99,.02-3.48,.05-4.47Z" style="fill:#fff;"></path> <path d="M171.43,768.7v-9.04h-12.16v9.04h-1.22v-18.47h1.22v8.34h12.16v-8.34h1.22v18.47h-1.22Z" style="fill:#fff;"></path> <path d="M182.83,750.23v8.34h3.85c1.95,0,3.48,.42,4.59,1.26,1.11,.84,1.67,2.11,1.67,3.8,0,3.38-2.02,5.06-6.07,5.06h-5.25v-17.38h-5.36v-1.08h6.58Zm8.8,13.43c0-1.25-.42-2.22-1.25-2.94-.83-.71-2.07-1.07-3.71-1.07h-3.85v7.96h4.09c3.14,0,4.71-1.32,4.71-3.95Z" style="fill:#fff;"></path> <path d="M207.1,750.23v1.08h-8.91v7.26h8.61v1.08h-8.61v7.96h9.21v1.08h-10.43v-18.47h10.13Z" style="fill:#fff;"></path> <path d="M213.57,768.7h-1.22v-18.47h1.22v8.37l9.37-8.37h1.65l-9.61,8.5,9.83,9.96h-1.57l-9.67-9.8v9.8Z" style="fill:#fff;"></path> <path d="M242.48,768.7h-14.19v-18.47h1.22v17.38h10.8v-17.38h1.22v17.38h2.17v5.82h-1.22v-4.74Z" style="fill:#fff;"></path> <path d="M260.57,752.02h-.08c-.14,.2-.51,.72-1.1,1.57s-1.16,1.68-1.73,2.5-1.06,1.52-1.48,2.1l-7.53,10.51h-1.06v-18.47h1.22v12.59c0,.88-.02,2.19-.05,3.93h.11c.49-.69,1.23-1.75,2.23-3.2s1.75-2.5,2.23-3.17l7.28-10.15h1.11v18.47h-1.22v-12.21c0-1.99,.02-3.48,.05-4.47Z" style="fill:#fff;"></path> <path d="M265.99,759.47c0-2.71,.93-5.02,2.8-6.95,1.87-1.92,4.2-2.88,7-2.88s5.28,.96,7.08,2.88c1.8,1.92,2.69,4.24,2.69,6.95s-.94,5.07-2.82,6.97c-1.88,1.9-4.2,2.86-6.96,2.86-1.61,0-3.06-.29-4.35-.88-1.29-.59-2.32-1.36-3.1-2.33-.78-.96-1.36-2.01-1.76-3.14-.4-1.13-.6-2.29-.6-3.48Zm1.3,0c0,2.51,.81,4.59,2.44,6.25,1.62,1.66,3.64,2.49,6.04,2.49s4.42-.83,6.05-2.49,2.45-3.75,2.45-6.25-.79-4.59-2.38-6.25-3.63-2.49-6.12-2.49-4.41,.83-6.04,2.48c-1.62,1.65-2.44,3.74-2.44,6.27Z" style="fill:#fff;"></path> <path d="M303.19,768.7v-9.04h-12.16v9.04h-1.22v-18.47h1.22v8.34h12.16v-8.34h1.22v18.47h-1.22Z" style="fill:#fff;"></path> <path d="M323.15,768.7v-9.04h-12.16v9.04h-1.22v-18.47h1.22v8.34h12.16v-8.34h1.22v18.47h-1.22Z" style="fill:#fff;"></path> <path d="M328.62,759.47c0-2.71,.93-5.02,2.8-6.95,1.87-1.92,4.2-2.88,7-2.88s5.28,.96,7.08,2.88c1.8,1.92,2.69,4.24,2.69,6.95s-.94,5.07-2.82,6.97c-1.88,1.9-4.2,2.86-6.96,2.86-1.61,0-3.06-.29-4.35-.88-1.29-.59-2.32-1.36-3.1-2.33-.78-.96-1.36-2.01-1.76-3.14-.4-1.13-.6-2.29-.6-3.48Zm1.3,0c0,2.51,.81,4.59,2.44,6.25,1.62,1.66,3.64,2.49,6.04,2.49s4.42-.83,6.05-2.49,2.45-3.75,2.45-6.25-.79-4.59-2.38-6.25-3.63-2.49-6.12-2.49-4.41,.83-6.04,2.48c-1.62,1.65-2.44,3.74-2.44,6.27Z" style="fill:#fff;"></path> <path d="M352.31,768.7v-18.47h10.18v1.08h-8.96v17.38h-1.22Z" style="fill:#fff;"></path> <path d="M363.74,759.47c0-2.71,.93-5.02,2.8-6.95,1.87-1.92,4.2-2.88,7-2.88s5.28,.96,7.08,2.88c1.8,1.92,2.69,4.24,2.69,6.95s-.94,5.07-2.82,6.97c-1.88,1.9-4.2,2.86-6.96,2.86-1.61,0-3.06-.29-4.35-.88-1.29-.59-2.32-1.36-3.1-2.33-.78-.96-1.36-2.01-1.76-3.14-.4-1.13-.6-2.29-.6-3.48Zm1.3,0c0,2.51,.81,4.59,2.44,6.25,1.62,1.66,3.64,2.49,6.04,2.49s4.42-.83,6.05-2.49,2.45-3.75,2.45-6.25-.79-4.59-2.38-6.25-3.63-2.49-6.12-2.49-4.41,.83-6.04,2.48c-1.62,1.65-2.44,3.74-2.44,6.27Z" style="fill:#fff;"></path> <path d="M398.05,751.32l-1.11,14.11c-.11,1.28-.41,2.18-.89,2.68-.49,.51-1.17,.76-2.06,.76-.36,0-.7-.06-1-.19v-1.06c.18,.11,.53,.16,1.06,.16s.89-.18,1.16-.53c.27-.35,.44-.96,.51-1.83l1.19-15.19h11.56v18.47h-1.22v-17.38h-9.21Z" style="fill:#fff;"></path> <path d="M426.8,752.02h-.08c-.14,.2-.51,.72-1.1,1.57s-1.16,1.68-1.73,2.5-1.06,1.52-1.48,2.1l-7.53,10.51h-1.06v-18.47h1.22v12.59c0,.88-.02,2.19-.05,3.93h.11c.49-.69,1.23-1.75,2.23-3.2s1.75-2.5,2.23-3.17l7.28-10.15h1.11v18.47h-1.22v-12.21c0-1.99,.02-3.48,.05-4.47Z" style="fill:#fff;"></path> <path d="M439.88,769.11v-2.11c-2.33-.05-4.19-.77-5.58-2.15-1.39-1.38-2.08-3.17-2.08-5.38,0-2.04,.72-3.79,2.17-5.27s3.28-2.24,5.5-2.32v-2.06h1.22v2.06c2.29,.09,4.14,.87,5.55,2.34,1.41,1.47,2.11,3.22,2.11,5.24s-.72,3.83-2.15,5.27-3.27,2.19-5.51,2.26v2.11h-1.22Zm-6.36-9.64c0,2,.57,3.57,1.71,4.68,1.14,1.12,2.69,1.71,4.66,1.76v-12.94c-1.86,.05-3.38,.69-4.58,1.9-1.19,1.21-1.79,2.74-1.79,4.6Zm13.95,0c0-1.82-.59-3.34-1.77-4.56-1.18-1.22-2.71-1.86-4.59-1.94v12.94c1.9-.07,3.43-.71,4.6-1.92,1.17-1.21,1.76-2.72,1.76-4.52Z" style="fill:#fff;"></path> <path d="M455.13,768.7v-17.38h-5.36v-1.08h11.94v1.08h-5.36v17.38h-1.22Z" style="fill:#fff;"></path> <path d="M478.28,752.02h-.08c-.14,.2-.51,.72-1.1,1.57s-1.16,1.68-1.73,2.5-1.06,1.52-1.48,2.1l-7.53,10.51h-1.06v-18.47h1.22v12.59c0,.88-.02,2.19-.05,3.93h.11c.49-.69,1.23-1.75,2.23-3.2s1.75-2.5,2.23-3.17l7.28-10.15h1.11v18.47h-1.22v-12.21c0-1.99,.02-3.48,.05-4.47Z" style="fill:#fff;"></path> <path d="M498.18,768.7v-9.04h-12.16v9.04h-1.22v-18.47h1.22v8.34h12.16v-8.34h1.22v18.47h-1.22Z" style="fill:#fff;"></path> <path d="M504.63,768.7v-18.47h10.18v1.08h-8.96v17.38h-1.22Z" style="fill:#fff;"></path> <path d="M513.99,768.7l7.83-18.47h1.19l7.83,18.47h-1.27l-2.22-5.25h-9.91l-2.19,5.25h-1.25Zm6.5-12.43l-2.6,6.09h8.99l-2.68-6.28c-.54-1.23-1.13-2.7-1.76-4.41h-.11c-.09,.25-.28,.72-.56,1.41-.28,.69-.53,1.31-.74,1.87s-.4,1-.54,1.33Z" style="fill:#fff;"></path> <path d="M534.93,758.22v-2.03h1.92v2.03h-1.92Zm0,10.48v-2.03h1.92v2.03h-1.92Z" style="fill:#fff;"></path> <path d="M24.18,792.31l3.11-5.31,.79,.38-2.57,4.93,2.57,4.93-.79,.38-3.11-5.31Zm4.33,0l3.11-5.31,.79,.38-2.57,4.93,2.57,4.93-.79,.38-3.11-5.31Z" style="fill:#fff;"></path> <path d="M37.29,801.19v-18.47h4.96c2.13,0,3.79,.46,4.98,1.37,1.19,.91,1.79,2.31,1.79,4.18s-.56,3.24-1.67,4.18c-1.11,.95-2.88,1.42-5.29,1.42h-3.55v7.31h-1.22Zm10.43-12.86c0-1.41-.45-2.51-1.34-3.32-.89-.8-2.23-1.21-4.02-1.21h-3.84v8.99h4.09c3.41,0,5.12-1.49,5.12-4.47Z" style="fill:#fff;"></path> <path d="M63.18,782.73v1.08h-8.91v7.26h8.61v1.08h-8.61v7.96h9.21v1.08h-10.42v-18.47h10.13Z" style="fill:#fff;"></path> <path d="M68.29,801.19v-18.47h10.18v1.08h-8.96v17.38h-1.22Z" style="fill:#fff;"></path> <path d="M92.31,782.73v1.08h-8.91v7.26h8.61v1.08h-8.61v7.96h9.21v1.08h-10.43v-18.47h10.13Z" style="fill:#fff;"></path> <path d="M110.94,801.19v-9.04h-12.16v9.04h-1.22v-18.47h1.22v8.34h12.16v-8.34h1.22v18.47h-1.22Z" style="fill:#fff;"></path> <path d="M127.51,782.73v1.08h-8.91v7.26h8.61v1.08h-8.61v7.96h9.21v1.08h-10.43v-18.47h10.13Z" style="fill:#fff;"></path> <path d="M132.49,801.19v-18.47h4.96c2.13,0,3.79,.46,4.98,1.37,1.19,.91,1.79,2.31,1.79,4.18s-.56,3.24-1.67,4.18c-1.11,.95-2.88,1.42-5.29,1.42h-3.55v7.31h-1.22Zm10.43-12.86c0-1.41-.45-2.51-1.34-3.32-.89-.8-2.23-1.21-4.02-1.21h-3.84v8.99h4.09c3.41,0,5.12-1.49,5.12-4.47Z" style="fill:#fff;"></path> <path d="M144.27,801.19l7.83-18.47h1.19l7.83,18.47h-1.27l-2.22-5.25h-9.91l-2.19,5.25h-1.25Zm6.5-12.43l-2.6,6.09h8.99l-2.68-6.28c-.54-1.23-1.13-2.7-1.76-4.41h-.11c-.09,.25-.28,.72-.56,1.41-.28,.69-.53,1.31-.74,1.87s-.4,1-.54,1.33Z" style="fill:#fff;"></path> <path d="M178.04,801.19v-9.04h-12.16v9.04h-1.22v-18.47h1.22v8.34h12.16v-8.34h1.22v18.47h-1.22Z" style="fill:#fff;"></path> <path d="M188.22,801.19v-17.38h-5.36v-1.08h11.94v1.08h-5.36v17.38h-1.22Z" style="fill:#fff;"></path> <path d="M198.13,801.19v-18.47h1.22v8.34h3.84c1.95,0,3.48,.42,4.59,1.26,1.11,.84,1.67,2.11,1.67,3.8,0,3.38-2.02,5.06-6.07,5.06h-5.25Zm10.02-5.04c0-1.25-.42-2.22-1.25-2.94-.83-.71-2.07-1.07-3.71-1.07h-3.84v7.96h4.09c3.14,0,4.71-1.32,4.71-3.95Zm3.47,5.04v-18.47h1.22v18.47h-1.22Z" style="fill:#fff;"></path> <path d="M234.17,791.88h-8.72v-1.08h8.72v1.08Z" style="fill:#fff;"></path> <path d="M247.55,783.81v7.26h3.85c1.95,0,3.48,.42,4.59,1.26,1.11,.84,1.67,2.11,1.67,3.8,0,3.38-2.02,5.06-6.07,5.06h-5.25v-18.47h9.91v1.08h-8.69Zm8.8,12.35c0-1.25-.42-2.22-1.25-2.94-.83-.71-2.07-1.07-3.71-1.07h-3.85v7.96h4.09c3.14,0,4.71-1.32,4.71-3.95Z" style="fill:#fff;"></path> <path d="M274.79,784.51h-.08c-.14,.2-.51,.72-1.1,1.57s-1.16,1.68-1.73,2.5-1.06,1.52-1.48,2.1l-7.53,10.51h-1.06v-18.47h1.22v12.59c0,.88-.02,2.19-.05,3.93h.11c.49-.69,1.23-1.75,2.23-3.2s1.75-2.5,2.23-3.17l7.28-10.15h1.11v18.47h-1.22v-12.21c0-1.99,.02-3.48,.05-4.47Z" style="fill:#fff;"></path> <path d="M280.21,791.96c0-2.71,.93-5.02,2.8-6.95,1.87-1.92,4.2-2.88,7-2.88s5.28,.96,7.08,2.88c1.8,1.92,2.69,4.24,2.69,6.95s-.94,5.07-2.82,6.97c-1.88,1.9-4.2,2.86-6.96,2.86-1.61,0-3.06-.29-4.35-.88-1.29-.59-2.32-1.36-3.1-2.33-.78-.96-1.36-2.01-1.76-3.14-.4-1.13-.6-2.29-.6-3.48Zm1.3,0c0,2.51,.81,4.59,2.44,6.25,1.62,1.66,3.64,2.49,6.04,2.49s4.42-.83,6.05-2.49,2.45-3.75,2.45-6.25-.79-4.59-2.38-6.25-3.63-2.49-6.12-2.49-4.41,.83-6.04,2.48c-1.62,1.65-2.44,3.74-2.44,6.27Z" style="fill:#fff;"></path> <path d="M317.41,801.19v-9.04h-12.16v9.04h-1.22v-18.47h1.22v8.34h12.16v-8.34h1.22v18.47h-1.22Z" style="fill:#fff;"></path> <path d="M336.96,784.51h-.08c-.14,.2-.51,.72-1.1,1.57s-1.16,1.68-1.73,2.5-1.06,1.52-1.48,2.1l-7.53,10.51h-1.06v-18.47h1.22v12.59c0,.88-.02,2.19-.05,3.93h.11c.49-.69,1.23-1.75,2.23-3.2s1.75-2.5,2.23-3.17l7.28-10.15h1.11v18.47h-1.22v-12.21c0-1.99,.02-3.48,.05-4.47Z" style="fill:#fff;"></path> <path d="M347.09,801.19v-17.38h-5.36v-1.08h11.94v1.08h-5.36v17.38h-1.22Z" style="fill:#fff;"></path> <path d="M370.24,784.51h-.08c-.14,.2-.51,.72-1.1,1.57s-1.16,1.68-1.73,2.5-1.06,1.52-1.48,2.1l-7.53,10.51h-1.06v-18.47h1.22v12.59c0,.88-.02,2.19-.05,3.93h.11c.49-.69,1.23-1.75,2.23-3.2s1.75-2.5,2.23-3.17l7.28-10.15h1.11v18.47h-1.22v-12.21c0-1.99,.02-3.48,.05-4.47Z" style="fill:#fff;"></path> <path d="M392.74,791.88h-8.72v-1.08h8.72v1.08Z" style="fill:#fff;"></path> <path d="M421.04,782.73l2.95,18.47h-1.19l-1.71-10.78c-.09-.58-.23-1.46-.42-2.65s-.33-2.08-.42-2.68h-.08c-.7,2.13-1.31,3.9-1.81,5.31l-3.84,10.8h-1.08l-3.98-11.29c-.4-1.15-.92-2.76-1.57-4.82h-.08c-.11,1.01-.33,2.61-.68,4.79l-1.76,11.32h-1.16l2.92-18.47h1.08l4.52,12.86c.33,.88,.74,2.16,1.25,3.82h.08c.45-1.46,.88-2.74,1.27-3.82l4.63-12.86h1.08Z" style="fill:#fff;"></path> <path d="M438.37,782.73v1.08h-8.91v7.26h8.61v1.08h-8.61v7.96h9.21v1.08h-10.42v-18.47h10.13Z" style="fill:#fff;"></path> <path d="M442.7,796.51h1.25c.11,1.3,.57,2.32,1.38,3.06,.81,.74,1.85,1.11,3.11,1.11,1.48,0,2.63-.4,3.45-1.21,.82-.8,1.23-1.91,1.23-3.32,0-1.32-.41-2.36-1.22-3.13-.81-.77-2.04-1.15-3.68-1.15h-1.79v-1.08h1.62c1.37,0,2.45-.34,3.22-1.03,.78-.69,1.16-1.63,1.16-2.84,0-1.06-.36-1.94-1.07-2.64-.71-.69-1.63-1.04-2.75-1.04s-2.01,.28-2.68,.83-1.06,1.3-1.19,2.26h-1.25c.13-1.17,.63-2.16,1.52-2.96,.88-.8,2.1-1.21,3.66-1.21,1.46,0,2.66,.46,3.59,1.37,.93,.91,1.39,2.04,1.39,3.4,0,1.07-.27,1.96-.81,2.69-.54,.73-1.24,1.27-2.08,1.61v.05c1.1,.25,1.99,.83,2.65,1.73,.67,.9,1,1.98,1,3.22,0,1.48-.49,2.77-1.46,3.87s-2.46,1.65-4.47,1.65c-1.66,0-3.01-.48-4.04-1.43-1.03-.96-1.62-2.23-1.76-3.82Z" style="fill:#fff;"></path> <path d="M458.03,791.96c0-2.71,.93-5.02,2.8-6.95,1.87-1.92,4.2-2.88,7-2.88s5.28,.96,7.08,2.88c1.8,1.92,2.69,4.24,2.69,6.95s-.94,5.07-2.82,6.97c-1.88,1.9-4.2,2.86-6.96,2.86-1.61,0-3.06-.29-4.35-.88-1.29-.59-2.32-1.36-3.1-2.33-.78-.96-1.36-2.01-1.76-3.14-.4-1.13-.6-2.29-.6-3.48Zm1.3,0c0,2.51,.81,4.59,2.44,6.25,1.62,1.66,3.64,2.49,6.04,2.49s4.42-.83,6.05-2.49,2.45-3.75,2.45-6.25-.79-4.59-2.38-6.25-3.63-2.49-6.12-2.49-4.41,.83-6.04,2.48c-1.62,1.65-2.44,3.74-2.44,6.27Z" style="fill:#fff;"></path> <path d="M490.55,791.88h-8.72v-1.08h8.72v1.08Z" style="fill:#fff;"></path> <path d="M499.29,801.19v-17.38h-5.36v-1.08h11.94v1.08h-5.36v17.38h-1.22Z" style="fill:#fff;"></path> <path d="M519.47,782.73v1.08h-8.91v7.26h8.61v1.08h-8.61v7.96h9.21v1.08h-10.42v-18.47h10.13Z" style="fill:#fff;"></path> <path d="M537.69,784.51h-.08c-.14,.2-.51,.72-1.1,1.57s-1.16,1.68-1.73,2.5-1.06,1.52-1.48,2.1l-7.53,10.51h-1.06v-18.47h1.22v12.59c0,.88-.02,2.19-.05,3.93h.11c.49-.69,1.23-1.75,2.23-3.2s1.75-2.5,2.23-3.17l7.28-10.15h1.11v18.47h-1.22v-12.21c0-1.99,.02-3.48,.05-4.47Zm-3.17-6.66h1.14c-.07,.94-.45,1.71-1.14,2.3-.69,.6-1.6,.89-2.73,.89s-2.05-.3-2.74-.89c-.69-.6-1.07-1.36-1.14-2.3h1.14c.04,.58,.29,1.07,.76,1.49,.47,.42,1.13,.62,1.98,.62s1.51-.21,1.98-.62c.47-.42,.72-.91,.76-1.49Z" style="fill:#fff;"></path> <path d="M556.24,801.19v-17.38h-10.8v17.38h-1.22v-18.47h13.24v18.47h-1.22Z" style="fill:#fff;"></path> <path d="M575.79,784.51h-.08c-.14,.2-.51,.72-1.1,1.57s-1.16,1.68-1.73,2.5-1.06,1.52-1.48,2.1l-7.53,10.51h-1.06v-18.47h1.22v12.59c0,.88-.02,2.19-.05,3.93h.11c.49-.69,1.23-1.75,2.23-3.2s1.75-2.5,2.23-3.17l7.28-10.15h1.11v18.47h-1.22v-12.21c0-1.99,.02-3.48,.05-4.47Z" style="fill:#fff;"></path> <path d="M582.04,801.19v-18.47h4.96c2.13,0,3.79,.46,4.98,1.37s1.79,2.31,1.79,4.18-.56,3.24-1.67,4.18c-1.11,.95-2.88,1.42-5.29,1.42h-3.55v7.31h-1.22Zm10.42-12.86c0-1.41-.45-2.51-1.34-3.32-.89-.8-2.23-1.21-4.02-1.21h-3.85v8.99h4.09c3.41,0,5.12-1.49,5.12-4.47Z" style="fill:#fff;"></path> <path d="M596.83,791.96c0-2.71,.93-5.02,2.8-6.95,1.87-1.92,4.2-2.88,7-2.88s5.28,.96,7.08,2.88c1.8,1.92,2.69,4.24,2.69,6.95s-.94,5.07-2.82,6.97c-1.88,1.9-4.2,2.86-6.96,2.86-1.61,0-3.06-.29-4.35-.88-1.29-.59-2.32-1.36-3.1-2.33-.78-.96-1.36-2.01-1.76-3.14-.4-1.13-.6-2.29-.6-3.48Zm1.3,0c0,2.51,.81,4.59,2.44,6.25,1.62,1.66,3.64,2.49,6.04,2.49s4.42-.83,6.05-2.49,2.45-3.75,2.45-6.25-.79-4.59-2.38-6.25-3.63-2.49-6.12-2.49-4.41,.83-6.04,2.48c-1.62,1.65-2.44,3.74-2.44,6.27Z" style="fill:#fff;"></path> <path d="M620.52,801.19v-18.47h4.44c1.77,0,3.15,.38,4.16,1.14s1.5,1.89,1.5,3.38c0,1.99-.99,3.36-2.98,4.12v.05c1.39,.16,2.46,.68,3.21,1.54,.75,.87,1.12,1.91,1.12,3.14,0,1.66-.57,2.92-1.72,3.79s-2.62,1.3-4.43,1.3h-5.31Zm8.8-13.84c0-1.14-.32-2.01-.95-2.63-.63-.61-1.7-.92-3.2-.92h-3.41v7.26h3.17c1.37,0,2.45-.33,3.22-.99,.78-.66,1.16-1.57,1.16-2.72Zm1.35,8.83c0-1.26-.42-2.25-1.27-2.96-.85-.71-2.04-1.07-3.57-1.07h-4.06v7.96h4.47c1.46,0,2.57-.36,3.32-1.07s1.12-1.67,1.12-2.86Z" style="fill:#fff;"></path> <path d="M634.41,801.19l7.83-18.47h1.19l7.83,18.47h-1.27l-2.22-5.25h-9.91l-2.19,5.25h-1.25Zm6.5-12.43l-2.6,6.09h8.99l-2.68-6.28c-.54-1.23-1.13-2.7-1.76-4.41h-.11c-.09,.25-.28,.72-.56,1.41-.28,.69-.53,1.31-.74,1.87s-.4,1-.54,1.33Z" style="fill:#fff;"></path> <path d="M668.18,801.19v-9.04h-12.16v9.04h-1.22v-18.47h1.22v8.34h12.16v-8.34h1.22v18.47h-1.22Z" style="fill:#fff;"></path> <path d="M687.73,784.51h-.08c-.14,.2-.51,.72-1.1,1.57s-1.16,1.68-1.73,2.5-1.06,1.52-1.48,2.1l-7.53,10.51h-1.06v-18.47h1.22v12.59c0,.88-.02,2.19-.05,3.93h.11c.49-.69,1.23-1.75,2.23-3.2s1.75-2.5,2.23-3.17l7.28-10.15h1.11v18.47h-1.22v-12.21c0-1.99,.02-3.48,.05-4.47Z" style="fill:#fff;"></path> <path d="M704.24,782.73v1.08h-8.91v7.26h8.61v1.08h-8.61v7.96h9.21v1.08h-10.42v-18.47h10.13Z" style="fill:#fff;"></path> <path d="M713.18,792.31l-3.11,5.31-.79-.38,2.57-4.93-2.57-4.93,.79-.38,3.11,5.31Zm4.33,0l-3.11,5.31-.79-.38,2.57-4.93-2.57-4.93,.79-.38,3.11,5.31Z" style="fill:#fff;"></path> </g> <g> <path d="M70.17,1020.98v-32h-4.95v-2.1h7.2v34.1h-2.25Z"></path> <path d="M109.36,986.88v1.9l-16.45,32.2h-2.4l16.4-32h-18.25v-2.1h20.7Z"></path> <path d="M124.56,1008.98c0-3.67,1.23-6.71,3.7-9.12,2.47-2.42,5.5-3.62,9.1-3.62s6.72,1.22,9.15,3.65c2.43,2.43,3.65,5.47,3.65,9.1s-1.23,6.6-3.68,9.1c-2.45,2.5-5.49,3.75-9.12,3.75s-6.63-1.23-9.1-3.7-3.7-5.52-3.7-9.15Zm2.25,0c0,3.1,1.05,5.68,3.15,7.75,2.1,2.07,4.57,3.1,7.4,3.1,3.03,0,5.55-1.03,7.55-3.1,2-2.07,3-4.65,3-7.75s-.98-5.54-2.95-7.62c-1.97-2.08-4.5-3.12-7.6-3.12s-5.59,1.01-7.57,3.03c-1.98,2.02-2.98,4.59-2.98,7.72Z"></path> <path d="M154.91,1020.98v-23.95h2.1v11l12-11h2.8l-12.3,11.15,12.5,12.8h-2.9l-12.1-12.6v12.6h-2.1Z"></path> <path d="M189.91,997.03v2h-7.2v21.95h-2.1v-21.95h-7.2v-2h16.5Z"></path> <path d="M204.81,1010.53h-4.35l-7.3,10.45h-2.35l7.6-10.6c-4.27-.6-6.4-2.78-6.4-6.55,0-4.53,2.88-6.8,8.65-6.8h6.25v23.95h-2.1v-10.45Zm-4.05-1.9h4.05v-9.7h-4.3c-2.27,0-3.9,.42-4.9,1.25s-1.5,2.05-1.5,3.65c0,3.2,2.22,4.8,6.65,4.8Z"></path> <path d="M234.51,986.43c-1.9,1.23-4.47,2.15-7.7,2.75-7.13,1.33-11.25,5.6-12.35,12.8h.1c2.3-3.83,5.88-5.75,10.75-5.75,3.33,0,6.19,1.19,8.58,3.58,2.38,2.38,3.57,5.47,3.57,9.27s-1.18,6.79-3.55,9.18c-2.37,2.38-5.48,3.57-9.35,3.57-3.63,0-6.61-1.24-8.92-3.72-2.32-2.48-3.48-6.06-3.48-10.72,0-3.3,.36-6.19,1.08-8.68,.72-2.48,1.75-4.5,3.1-6.05,1.35-1.55,2.88-2.77,4.6-3.65,1.72-.88,3.69-1.51,5.92-1.88,2.57-.43,4.73-1.27,6.5-2.5l1.15,1.8Zm-2.05,30.22c1.83-2.12,2.75-4.64,2.75-7.58s-.92-5.47-2.75-7.62c-1.83-2.15-4.42-3.22-7.75-3.22-2.8,0-5.22,.97-7.25,2.92s-3.05,4.34-3.05,7.17c0,3.53,.97,6.33,2.9,8.4,1.93,2.07,4.37,3.1,7.3,3.1,3.4,0,6.02-1.06,7.85-3.17Z"></path> <path d="M242.71,1032.73v-35.7h2.1v5h.1c2.33-3.87,5.92-5.8,10.75-5.8,3.33,0,6.19,1.19,8.57,3.58,2.38,2.38,3.58,5.47,3.58,9.27s-1.18,6.75-3.55,9.15c-2.37,2.4-5.33,3.6-8.9,3.6-4.63,0-8.1-1.88-10.4-5.65h-.15v16.55h-2.1Zm20.1-16.08c1.83-2.12,2.75-4.64,2.75-7.58s-.92-5.47-2.75-7.62c-1.83-2.15-4.42-3.22-7.75-3.22-2.83,0-5.27,1.01-7.33,3.03-2.05,2.02-3.07,4.57-3.07,7.67s.99,5.86,2.97,7.88c1.98,2.02,4.42,3.02,7.33,3.02,3.4,0,6.02-1.06,7.85-3.17Z"></path> <path d="M284.06,1010.53h-4.35l-7.3,10.45h-2.35l7.6-10.6c-4.27-.6-6.4-2.78-6.4-6.55,0-4.53,2.88-6.8,8.65-6.8h6.25v23.95h-2.1v-10.45Zm-4.05-1.9h4.05v-9.7h-4.3c-2.27,0-3.9,.42-4.9,1.25s-1.5,2.05-1.5,3.65c0,3.2,2.22,4.8,6.65,4.8Z"></path> <path d="M304.16,1020.98v-2.1l11.85-13c2.1-2.27,3.63-4.18,4.6-5.73s1.45-3.21,1.45-4.97c0-2.2-.66-3.96-1.97-5.28-1.32-1.32-3.19-1.97-5.62-1.97-2.17,0-3.93,.66-5.28,1.97-1.35,1.32-2.12,3.17-2.33,5.58h-2.45c.27-2.9,1.33-5.24,3.18-7.03,1.85-1.78,4.17-2.67,6.97-2.67,3.17,0,5.62,.88,7.35,2.62s2.6,3.88,2.6,6.38c0,2.13-.56,4.1-1.67,5.9-1.12,1.8-2.86,3.97-5.23,6.5l-10.85,11.7h18.35v2.1h-20.95Z"></path> <path d="M329.31,1003.33c0-3.07,.36-5.77,1.08-8.12,.72-2.35,1.68-4.18,2.9-5.5,1.22-1.32,2.53-2.3,3.95-2.95,1.42-.65,2.92-.98,4.53-.98,1.5,0,2.92,.3,4.25,.9,1.33,.6,2.61,1.54,3.83,2.83,1.22,1.28,2.18,3.13,2.9,5.55s1.08,5.24,1.08,8.47c0,2.9-.28,5.48-.83,7.75-.55,2.27-1.25,4.07-2.1,5.4-.85,1.33-1.84,2.42-2.98,3.27-1.13,.85-2.22,1.43-3.25,1.75s-2.08,.48-3.15,.48c-1.53,0-2.98-.31-4.33-.92-1.35-.62-2.64-1.6-3.88-2.95-1.23-1.35-2.21-3.31-2.92-5.88-.72-2.57-1.08-5.6-1.08-9.1Zm22.15,.4c0-5.23-.87-9.2-2.6-11.9-1.73-2.7-4.18-4.05-7.35-4.05-2.87,0-5.22,1.26-7.05,3.78-1.83,2.52-2.75,6.39-2.75,11.62,0,5.8,.88,10.08,2.62,12.85,1.75,2.77,4.17,4.15,7.27,4.15,2.8,0,5.14-1.34,7.03-4.03,1.88-2.68,2.83-6.83,2.83-12.42Z"></path> <path d="M359.16,1020.98v-2.1l11.85-13c2.1-2.27,3.63-4.18,4.6-5.73s1.45-3.21,1.45-4.97c0-2.2-.66-3.96-1.97-5.28-1.32-1.32-3.19-1.97-5.62-1.97-2.17,0-3.93,.66-5.28,1.97-1.35,1.32-2.12,3.17-2.33,5.58h-2.45c.27-2.9,1.33-5.24,3.18-7.03,1.85-1.78,4.17-2.67,6.97-2.67,3.17,0,5.62,.88,7.35,2.62s2.6,3.88,2.6,6.38c0,2.13-.56,4.1-1.67,5.9-1.12,1.8-2.86,3.97-5.23,6.5l-10.85,11.7h18.35v2.1h-20.95Z"></path> <path d="M388.71,994.33h-2.35c.27-2.27,1.28-4.26,3.05-5.97s4.12-2.58,7.05-2.58,5.24,.83,7.02,2.48c1.78,1.65,2.67,3.72,2.67,6.22,0,1.9-.65,3.55-1.95,4.95-1.3,1.4-2.93,2.33-4.9,2.8v.1c2.27,.37,4.18,1.36,5.75,2.98,1.57,1.62,2.35,3.72,2.35,6.33,0,2.9-.96,5.36-2.88,7.38-1.92,2.02-4.62,3.02-8.12,3.02-3.13,0-5.63-.86-7.5-2.58-1.87-1.72-3.03-3.97-3.5-6.77h2.5c.97,4.8,3.88,7.2,8.75,7.2,2.67,0,4.74-.79,6.23-2.38,1.48-1.58,2.22-3.56,2.22-5.93s-.81-4.22-2.42-5.75c-1.62-1.53-4.04-2.3-7.28-2.3h-2v-2.1h1.35c2.57,0,4.72-.62,6.45-1.88,1.73-1.25,2.6-2.88,2.6-4.88s-.62-3.67-1.88-4.9c-1.25-1.23-3.09-1.85-5.53-1.85s-4.13,.62-5.4,1.88c-1.27,1.25-2.03,2.76-2.3,4.52Z"></path> </g> <g> <path d="M535.52,986.88l5.45,34.1h-2.2l-3.15-19.9c-.17-1.07-.42-2.7-.77-4.9-.35-2.2-.61-3.85-.78-4.95h-.15c-1.3,3.93-2.42,7.2-3.35,9.8l-7.1,19.95h-2l-7.35-20.85c-.73-2.13-1.7-5.1-2.9-8.9h-.15c-.2,1.87-.62,4.82-1.25,8.85l-3.25,20.9h-2.15l5.4-34.1h2l8.35,23.75c.6,1.63,1.37,3.98,2.3,7.05h.15c.83-2.7,1.62-5.05,2.35-7.05l8.55-23.75h2Z"></path> <path d="M544.52,1003.93c0-5,1.72-9.28,5.17-12.83s7.76-5.33,12.92-5.33,9.76,1.78,13.08,5.33c3.32,3.55,4.97,7.83,4.97,12.83s-1.73,9.36-5.2,12.88-7.75,5.27-12.85,5.27c-2.97,0-5.64-.54-8.03-1.62-2.38-1.08-4.29-2.52-5.72-4.3-1.43-1.78-2.52-3.72-3.25-5.8-.73-2.08-1.1-4.22-1.1-6.42Zm2.4,0c0,4.63,1.5,8.48,4.5,11.55,3,3.07,6.72,4.6,11.15,4.6s8.16-1.53,11.17-4.6c3.02-3.07,4.53-6.92,4.53-11.55s-1.47-8.48-4.4-11.55c-2.93-3.07-6.7-4.6-11.3-4.6s-8.15,1.53-11.15,4.58-4.5,6.91-4.5,11.58Z"></path> <path d="M601.57,985.78c4.03,0,7.36,.92,9.97,2.78,2.62,1.85,4.54,4.21,5.78,7.08h-2.55c-1.03-2.4-2.71-4.31-5.03-5.73-2.32-1.42-5.06-2.12-8.22-2.12-4.1,0-7.65,1.42-10.65,4.28-3,2.85-4.5,6.79-4.5,11.83,0,4.67,1.43,8.53,4.3,11.6,2.87,3.07,6.57,4.6,11.1,4.6,3.2,0,5.94-.75,8.22-2.25s4.01-3.58,5.17-6.25h2.55c-3.07,7-8.45,10.5-16.15,10.5-5.2,0-9.43-1.72-12.7-5.15-3.27-3.43-4.9-7.8-4.9-13.1s1.71-9.47,5.12-12.9c3.42-3.43,7.57-5.15,12.47-5.15Z"></path> <path d="M625.97,1020.98h-2.25v-34.1h2.25v15.45l17.3-15.45h3.05l-17.75,15.7,18.15,18.4h-2.9l-17.85-18.1v18.1Z"></path> <path d="M650.42,1020.98v-34.1h8.2c3.27,0,5.82,.7,7.67,2.1,1.85,1.4,2.77,3.48,2.77,6.25,0,3.67-1.83,6.2-5.5,7.6v.1c2.57,.3,4.54,1.25,5.93,2.85,1.38,1.6,2.07,3.53,2.07,5.8,0,3.07-1.06,5.4-3.17,7-2.12,1.6-4.84,2.4-8.17,2.4h-9.8Zm16.25-25.55c0-2.1-.58-3.72-1.75-4.85-1.17-1.13-3.13-1.7-5.9-1.7h-6.3v13.4h5.85c2.53,0,4.52-.61,5.95-1.83,1.43-1.22,2.15-2.89,2.15-5.02Zm2.5,16.3c0-2.33-.78-4.16-2.35-5.47s-3.77-1.98-6.6-1.98h-7.5v14.7h8.25c2.7,0,4.74-.66,6.12-1.97,1.38-1.32,2.08-3.08,2.08-5.28Z"></path> <path d="M673.57,1020.98l14.45-34.1h2.2l14.45,34.1h-2.35l-4.1-9.7h-18.3l-4.05,9.7h-2.3Zm12-22.95l-4.8,11.25h16.6l-4.95-11.6c-1-2.27-2.08-4.98-3.25-8.15h-.2c-.17,.47-.51,1.33-1.03,2.6s-.97,2.42-1.38,3.45c-.4,1.03-.73,1.85-1,2.45Z"></path> </g> <polygon points="442.42 995.34 442.42 1012.66 457.42 1021.32 472.41 1012.66 472.41 995.34 457.42 986.68 442.42 995.34" style="fill:red;"></polygon> <g> <g> <g> <path d="M68.78,700.7v-56.73h3.74v56.73h-3.74Z"></path> <path d="M89.16,649.71h-.25c.11,3.05,.17,7.62,.17,13.72v37.26h-3.33v-56.73h3.41l22.79,31.36c1.55,2.11,3.87,5.32,6.95,9.65,3.08,4.33,5.34,7.49,6.78,9.48h.33c-.11-5.32-.17-9.34-.17-12.06v-38.43h3.33v56.73h-3.24l-23.54-32.44c-3.99-5.43-8.4-11.62-13.23-18.55Z"></path> <path d="M153.04,687.06v-43.09h3.74v42.42c0,10.31-4.27,15.47-12.81,15.47-2.5,0-4.63-.42-6.41-1.25v-3.33c2,.83,4.08,1.25,6.24,1.25,6.16,0,9.23-3.83,9.23-11.48Z"></path> <path d="M199.87,643.97v3.33h-27.37v22.29h26.45v3.33h-26.45v24.46h28.28v3.33h-32.02v-56.73h31.11Z"></path> <path d="M238.96,642.14c6.71,0,12.24,1.54,16.59,4.62,4.35,3.08,7.56,7,9.61,11.77h-4.24c-1.72-3.99-4.51-7.17-8.36-9.52-3.85-2.36-8.42-3.54-13.68-3.54-6.82,0-12.73,2.37-17.72,7.11-4.99,4.74-7.49,11.3-7.49,19.67,0,7.76,2.38,14.2,7.15,19.3,4.77,5.1,10.92,7.65,18.47,7.65,5.32,0,9.88-1.25,13.68-3.74,3.8-2.5,6.67-5.96,8.61-10.4h4.24c-5.1,11.65-14.06,17.47-26.87,17.47-8.65,0-15.69-2.86-21.13-8.57-5.44-5.71-8.15-12.98-8.15-21.79s2.84-15.75,8.53-21.46c5.68-5.71,12.6-8.57,20.75-8.57Z"></path> <path d="M287.54,700.7v-53.4h-16.47v-3.33h36.68v3.33h-16.47v53.4h-3.74Z"></path> <path d="M315.57,700.7v-56.73h3.74v56.73h-3.74Z"></path> <path d="M329.13,672.34c0-8.32,2.87-15.43,8.61-21.34,5.74-5.91,12.91-8.86,21.5-8.86s16.23,2.95,21.75,8.86c5.52,5.91,8.28,13.02,8.28,21.34s-2.88,15.57-8.65,21.42c-5.77,5.85-12.89,8.78-21.38,8.78-4.94,0-9.39-.9-13.35-2.7-3.97-1.8-7.14-4.19-9.52-7.15-2.38-2.97-4.19-6.18-5.41-9.65-1.22-3.46-1.83-7.03-1.83-10.69Zm3.99,0c0,7.71,2.5,14.11,7.49,19.21,4.99,5.1,11.17,7.65,18.55,7.65s13.57-2.55,18.59-7.65c5.02-5.1,7.53-11.51,7.53-19.21s-2.44-14.11-7.32-19.21c-4.88-5.1-11.15-7.65-18.8-7.65s-13.56,2.54-18.55,7.61c-4.99,5.07-7.49,11.49-7.49,19.26Z"></path> <path d="M402.82,649.71h-.25c.11,3.05,.17,7.62,.17,13.72v37.26h-3.33v-56.73h3.41l22.79,31.36c1.55,2.11,3.87,5.32,6.95,9.65,3.08,4.33,5.34,7.49,6.78,9.48h.33c-.11-5.32-.17-9.34-.17-12.06v-38.43h3.33v56.73h-3.24l-23.54-32.44c-3.99-5.43-8.4-11.62-13.23-18.55Z"></path> <path d="M486.92,700.7v-53.4h-16.47v-3.33h36.68v3.33h-16.47v53.4h-3.74Z"></path> <path d="M508.96,672.34c0-8.32,2.87-15.43,8.61-21.34,5.74-5.91,12.91-8.86,21.5-8.86s16.23,2.95,21.75,8.86c5.52,5.91,8.28,13.02,8.28,21.34s-2.88,15.57-8.65,21.42c-5.77,5.85-12.89,8.78-21.38,8.78-4.94,0-9.39-.9-13.35-2.7-3.97-1.8-7.14-4.19-9.52-7.15-2.38-2.97-4.19-6.18-5.41-9.65-1.22-3.46-1.83-7.03-1.83-10.69Zm3.99,0c0,7.71,2.5,14.11,7.49,19.21,4.99,5.1,11.17,7.65,18.55,7.65s13.57-2.55,18.59-7.65c5.02-5.1,7.53-11.51,7.53-19.21s-2.44-14.11-7.32-19.21c-4.88-5.1-11.15-7.65-18.8-7.65s-13.56,2.54-18.55,7.61c-4.99,5.07-7.49,11.49-7.49,19.26Z"></path> <path d="M598.55,702.53c-5.77,0-10.65-1.96-14.64-5.86-3.99-3.91-5.99-10.02-5.99-18.34v-34.35h3.74v35.43c0,5.93,1.5,10.72,4.49,14.35,2.99,3.63,7.12,5.45,12.39,5.45,5.82,0,10.11-1.76,12.85-5.28,2.75-3.52,4.12-8.36,4.12-14.51v-35.43h3.74v34.19c0,8.43-1.91,14.6-5.74,18.51-3.83,3.91-8.82,5.86-14.97,5.86Z"></path> <path d="M651.53,675.42l19.88,25.29h-4.33l-19.71-25.12h-12.39v25.12h-3.83v-56.73h16.97c6.43,0,11.13,1.47,14.1,4.41,2.97,2.94,4.45,6.79,4.45,11.56,0,4.16-1.36,7.64-4.08,10.44-2.72,2.8-6.41,4.48-11.06,5.03Zm11.15-15.47c0-4.05-1.19-7.17-3.58-9.36-2.38-2.19-5.79-3.29-10.23-3.29h-13.89v24.95h13.97c4.33,0,7.69-1.18,10.11-3.54,2.41-2.36,3.62-5.28,3.62-8.78Z"></path> <path d="M117.85,734.16l9.07,56.73h-3.66l-5.24-33.11c-.28-1.77-.71-4.49-1.29-8.15-.58-3.66-1.01-6.4-1.29-8.23h-.25c-2.16,6.54-4.02,11.98-5.57,16.3l-11.81,33.19h-3.33l-12.23-34.69c-1.22-3.55-2.83-8.48-4.82-14.81h-.25c-.33,3.11-1.03,8.01-2.08,14.72l-5.41,34.77h-3.58l8.98-56.73h3.33l13.89,39.51c1,2.72,2.27,6.63,3.83,11.73h.25c1.38-4.49,2.69-8.4,3.91-11.73l14.22-39.51h3.33Z"></path> <path d="M153.62,749.71c5.99,.06,10.79,2.16,14.39,6.32,3.6,4.16,5.41,9.12,5.41,14.89v.58h-35.77c.11,5.1,1.82,9.33,5.12,12.68,3.3,3.36,7.25,5.03,11.85,5.03,3.27,0,5.96-.64,8.07-1.91,2.11-1.27,3.99-3.16,5.66-5.66h4.33c-4.1,7.15-10.06,10.73-17.88,10.73-6.04,0-11.04-2.05-14.97-6.16-3.94-4.1-5.91-9.2-5.91-15.3s1.87-11.09,5.62-15.14c3.74-4.05,8.44-6.07,14.1-6.07Zm0,3.33c-4.49,0-8.18,1.54-11.06,4.62-2.88,3.08-4.46,6.72-4.74,10.94h31.77c-.5-4.21-2.15-7.86-4.95-10.94-2.8-3.08-6.48-4.62-11.02-4.62Z"></path> <path d="M207.44,760.19h-3.41c-.39-2.38-1.46-4.23-3.2-5.53-1.75-1.3-3.81-1.96-6.2-1.96-2.94,0-5.28,.67-7.03,2-1.75,1.33-2.62,3.19-2.62,5.57,0,2.05,.75,3.62,2.25,4.7,1.5,1.08,4.35,2.32,8.57,3.7,4.38,1.44,7.6,3.02,9.65,4.74,2.05,1.72,3.08,4.08,3.08,7.07,0,3.16-1.23,5.92-3.7,8.28-2.47,2.36-5.86,3.54-10.19,3.54s-7.38-1.03-9.82-3.08c-2.44-2.05-3.83-4.93-4.16-8.65h3.49c.61,5.82,4.16,8.73,10.65,8.73,3.16,0,5.66-.86,7.49-2.58,1.83-1.72,2.75-3.66,2.75-5.82,0-2.44-.8-4.3-2.41-5.57-1.61-1.28-4.3-2.5-8.07-3.66-4.55-1.39-7.86-2.9-9.94-4.53-2.08-1.63-3.12-3.95-3.12-6.95s1.21-5.56,3.62-7.53c2.41-1.97,5.5-2.95,9.27-2.95s6.76,.98,9.15,2.95c2.38,1.97,3.69,4.48,3.91,7.53Z"></path> <path d="M215.59,770.92c0-6.1,2.05-11.16,6.16-15.18,4.1-4.02,9.15-6.03,15.14-6.03s11.17,2.02,15.22,6.07c4.05,4.05,6.07,9.1,6.07,15.14s-2.04,10.98-6.11,15.14-9.14,6.24-15.18,6.24-11.04-2.05-15.14-6.16c-4.1-4.1-6.16-9.18-6.16-15.22Zm3.74,0c0,5.16,1.75,9.46,5.24,12.89,3.49,3.44,7.6,5.16,12.31,5.16,5.05,0,9.23-1.72,12.56-5.16,3.33-3.44,4.99-7.74,4.99-12.89s-1.64-9.22-4.91-12.69c-3.27-3.46-7.49-5.2-12.64-5.2s-9.3,1.68-12.6,5.03c-3.3,3.36-4.95,7.64-4.95,12.85Z"></path> <path d="M267.32,810.43v-59.39h3.49v8.32h.17c3.88-6.43,9.84-9.65,17.88-9.65,5.54,0,10.3,1.98,14.26,5.95,3.96,3.96,5.95,9.11,5.95,15.43s-1.97,11.23-5.91,15.22c-3.94,3.99-8.87,5.99-14.81,5.99-7.71,0-13.48-3.13-17.3-9.4h-.25v27.53h-3.49Zm33.44-26.74c3.05-3.52,4.58-7.72,4.58-12.6s-1.53-9.11-4.58-12.68c-3.05-3.58-7.35-5.37-12.89-5.37-4.71,0-8.78,1.68-12.19,5.03-3.41,3.36-5.12,7.61-5.12,12.77s1.65,9.75,4.95,13.1c3.3,3.36,7.36,5.03,12.19,5.03,5.66,0,10.01-1.76,13.06-5.28Z"></path> <path d="M335.7,749.96v3.41c-1.11-.28-2.16-.42-3.16-.42-3.27,0-5.89,1.39-7.86,4.16-1.97,2.77-2.95,6.96-2.95,12.56v21.21h-3.49v-39.84h3.49v6.32h.17c.83-2.22,2.19-4.06,4.08-5.53,1.88-1.47,4.1-2.21,6.65-2.21,1.16,0,2.19,.11,3.08,.33Z"></path> <path d="M338.36,770.92c0-6.1,2.05-11.16,6.16-15.18,4.1-4.02,9.15-6.03,15.14-6.03s11.17,2.02,15.22,6.07c4.05,4.05,6.07,9.1,6.07,15.14s-2.04,10.98-6.11,15.14-9.14,6.24-15.18,6.24-11.04-2.05-15.14-6.16c-4.1-4.1-6.16-9.18-6.16-15.22Zm3.74,0c0,5.16,1.75,9.46,5.24,12.89,3.49,3.44,7.6,5.16,12.31,5.16,5.05,0,9.23-1.72,12.56-5.16,3.33-3.44,4.99-7.74,4.99-12.89s-1.64-9.22-4.91-12.69c-3.27-3.46-7.49-5.2-12.64-5.2s-9.3,1.68-12.6,5.03c-3.3,3.36-4.95,7.64-4.95,12.85Z"></path> <path d="M386.68,753.95v-2.91h7.24v-7.9c0-3.99,.96-7.08,2.87-9.28,1.91-2.19,4.75-3.29,8.53-3.29,1.72,0,3.24,.2,4.58,.58v2.91c-1.28-.39-2.77-.58-4.49-.58-5.32,0-7.99,3.16-7.99,9.48v8.07h17.38v-7.9c0-3.99,.96-7.08,2.87-9.28,1.91-2.19,4.75-3.29,8.53-3.29,1.66,0,3.19,.2,4.57,.58v2.91c-1.28-.39-2.77-.58-4.49-.58-5.32,0-7.99,3.16-7.99,9.48v8.07h10.81v2.91h-10.81v36.93h-3.49v-36.93h-17.38v36.93h-3.49v-36.93h-7.24Z"></path> <path d="M456.8,790.88v-3.49l19.71-21.63c3.49-3.77,6.04-6.95,7.65-9.52,1.61-2.58,2.41-5.34,2.41-8.28,0-3.66-1.09-6.58-3.29-8.78-2.19-2.19-5.31-3.29-9.36-3.29-3.61,0-6.53,1.1-8.78,3.29-2.25,2.19-3.54,5.28-3.87,9.27h-4.08c.44-4.82,2.21-8.72,5.28-11.69,3.08-2.97,6.95-4.45,11.6-4.45,5.27,0,9.34,1.46,12.23,4.37,2.88,2.91,4.33,6.45,4.33,10.61,0,3.55-.93,6.82-2.79,9.82-1.86,3-4.76,6.6-8.69,10.81l-18.05,19.46h30.53v3.49h-34.85Z"></path> <path d="M499.89,761.52c0-5.1,.6-9.61,1.79-13.52,1.19-3.91,2.8-6.96,4.82-9.15,2.02-2.19,4.21-3.83,6.57-4.91,2.36-1.08,4.87-1.62,7.53-1.62,2.5,0,4.85,.5,7.07,1.5,2.22,1,4.34,2.57,6.36,4.7,2.02,2.14,3.63,5.21,4.82,9.23,1.19,4.02,1.79,8.72,1.79,14.1,0,4.83-.46,9.12-1.37,12.89-.92,3.77-2.08,6.77-3.49,8.98-1.41,2.22-3.07,4.03-4.95,5.45-1.89,1.41-3.69,2.38-5.41,2.91-1.72,.53-3.47,.79-5.24,.79-2.55,0-4.95-.51-7.2-1.54-2.25-1.03-4.4-2.66-6.45-4.91-2.05-2.25-3.67-5.5-4.87-9.77-1.19-4.27-1.79-9.32-1.79-15.14Zm36.85,.67c0-8.71-1.44-15.3-4.33-19.8-2.88-4.49-6.96-6.74-12.23-6.74-4.77,0-8.68,2.09-11.73,6.28-3.05,4.19-4.57,10.63-4.57,19.34,0,9.65,1.46,16.78,4.37,21.38,2.91,4.6,6.95,6.9,12.1,6.9,4.66,0,8.55-2.23,11.69-6.7,3.13-4.46,4.7-11.35,4.7-20.67Z"></path> <path d="M550.79,790.88v-3.49l19.71-21.63c3.49-3.77,6.04-6.95,7.65-9.52,1.61-2.58,2.41-5.34,2.41-8.28,0-3.66-1.09-6.58-3.29-8.78-2.19-2.19-5.31-3.29-9.36-3.29-3.61,0-6.53,1.1-8.78,3.29-2.25,2.19-3.54,5.28-3.87,9.27h-4.08c.44-4.82,2.21-8.72,5.28-11.69,3.08-2.97,6.95-4.45,11.6-4.45,5.27,0,9.34,1.46,12.23,4.37,2.88,2.91,4.33,6.45,4.33,10.61,0,3.55-.93,6.82-2.79,9.82-1.86,3-4.76,6.6-8.69,10.81l-18.05,19.46h30.53v3.49h-34.85Z"></path> <path d="M601.2,746.55h-3.91c.44-3.77,2.13-7.08,5.07-9.94,2.94-2.86,6.85-4.28,11.73-4.28s8.72,1.37,11.69,4.12c2.97,2.75,4.45,6.2,4.45,10.36,0,3.16-1.08,5.91-3.24,8.24-2.16,2.33-4.88,3.88-8.15,4.66v.17c3.77,.61,6.96,2.26,9.57,4.95,2.61,2.69,3.91,6.2,3.91,10.52,0,4.82-1.59,8.92-4.78,12.27-3.19,3.35-7.69,5.03-13.52,5.03-5.21,0-9.37-1.43-12.48-4.28s-5.05-6.61-5.82-11.27h4.16c1.61,7.99,6.46,11.98,14.56,11.98,4.44,0,7.89-1.32,10.36-3.95,2.47-2.63,3.7-5.92,3.7-9.86s-1.34-7.01-4.03-9.57c-2.69-2.55-6.72-3.83-12.1-3.83h-3.33v-3.49h2.25c4.27,0,7.85-1.04,10.73-3.12,2.88-2.08,4.33-4.78,4.33-8.11s-1.04-6.1-3.12-8.15c-2.08-2.05-5.14-3.08-9.19-3.08s-6.88,1.04-8.98,3.12c-2.11,2.08-3.38,4.59-3.83,7.53Z"></path> </g> <g> <path d="M138.19,610.62v-27.89h2.45v5.18h.12c.97-1.75,2.38-3.2,4.22-4.37s3.91-1.75,6.2-1.75c3.22,0,5.95,1.01,8.18,3.03,2.23,2.02,3.35,5.14,3.35,9.37v16.42h-2.45v-16.13c0-3.34-.81-5.9-2.45-7.69-1.63-1.79-3.88-2.68-6.75-2.68-3.14,0-5.67,1.02-7.57,3.06-1.9,2.04-2.85,4.88-2.85,8.53v14.91h-2.45Z"></path> <path d="M197.11,568.64v41.98h-2.45v-5.76h-.12c-2.72,4.5-6.89,6.75-12.52,6.75-3.88,0-7.21-1.39-9.99-4.16s-4.16-6.38-4.16-10.8,1.38-7.86,4.13-10.66c2.75-2.79,6.21-4.19,10.36-4.19,5.39,0,9.43,2.19,12.11,6.58h.12l.06-19.74h2.45Zm-23.41,19.19c-2.14,2.47-3.2,5.41-3.2,8.82s1.07,6.38,3.2,8.88c2.13,2.5,5.14,3.76,9.02,3.76,3.26,0,6.09-1.17,8.5-3.52,2.41-2.35,3.61-5.33,3.61-8.94s-1.16-6.82-3.46-9.17c-2.31-2.35-5.15-3.52-8.53-3.52-3.96,0-7.01,1.23-9.14,3.7Z"></path> </g> </g> <path d="M68.07,612.4v-5.49l31-34.01c5.5-5.93,9.5-10.92,12.04-14.98,2.53-4.06,3.79-8.39,3.79-13.02,0-5.76-1.72-10.35-5.17-13.8-3.45-3.44-8.35-5.17-14.72-5.17-5.67,0-10.27,1.72-13.8,5.17-3.53,3.45-5.56,8.31-6.08,14.59h-6.41c.7-7.59,3.47-13.71,8.31-18.38,4.84-4.66,10.92-7,18.25-7,8.28,0,14.69,2.29,19.23,6.87,4.53,4.58,6.8,10.14,6.8,16.68,0,5.58-1.46,10.73-4.38,15.44-2.92,4.71-7.48,10.38-13.67,17.01l-28.39,30.61h48.01v5.49h-54.81Z"></path> </g> <g> <path d="M205.09,41.97c-54.21,0-100.75,19.72-120.93,47.89l4.86,2.81c16.88-27.36,56.69-46.63,102.73-46.61,60.67,.03,109.18,33.56,108.36,74.88-.83,41.32-50.68,74.79-111.35,74.75-25.37-.01-48.61-5.89-67.01-15.74v2.54c22.7,11.18,51.71,17.9,83.33,17.9,72.7,0,131.63-35.46,131.63-79.21s-58.93-79.21-131.63-79.21Z" style="fill:url(#linear-gradient-77);"></path> <polygon points="111.7 170.71 109.27 172.12 108.98 172.28 108.98 175.29 108.98 176.69 104.04 179.54 104.04 183.98 111.7 188.4 119.36 183.98 119.36 181.28 119.36 178.64 119.36 175.13 111.7 170.71" style="fill:#be0000;"></polygon> <polygon points="97.87 156.89 97.87 157.21 94.94 158.9 91.3 161.01 83.4 165.57 83.4 175.3 94.99 182 101.65 178.16 102.84 177.46 104.04 176.77 106.58 175.3 106.58 173.71 106.58 173.67 106.58 172.28 106.58 170.9 106.58 170.07 106.58 161.92 97.87 156.89" style="fill:#e60000;"></polygon> <polygon points="90.05 134.46 83.14 138.45 77.85 141.5 76.74 142.14 66.12 136.01 63.63 137.44 63.63 155.69 79.43 164.81 81 163.9 82.2 163.21 83.4 162.51 89.44 159.03 93.24 156.83 95.23 155.69 95.23 155.36 95.23 153.98 95.23 152.59 95.23 137.44 90.05 134.46" style="fill:#be0000;"></polygon> <polygon points="87.7 94.92 82.68 92.02 76.74 88.59 54.86 101.22 54.86 126.49 66.09 132.97 67.42 133.74 68.74 134.5 76.74 139.12 76.84 139.07 82.34 135.89 87.44 132.95 88.76 132.18 90.08 131.42 98.62 126.49 98.62 101.22 87.7 94.92" style="fill:red;"></polygon> <path d="M126.6,147.44v-5.04l14.52-16.12c2.25-2.52,3.95-4.79,5.07-6.8,1.13-2.01,1.69-4.1,1.69-6.27s-.67-3.97-2.02-5.41c-1.35-1.44-3.22-2.16-5.6-2.16-2.17,0-3.98,.72-5.44,2.16-1.46,1.44-2.19,3.37-2.19,5.8h-5.77c.13-3.76,1.48-6.84,4.05-9.25,2.56-2.41,5.73-3.61,9.48-3.61,4.2,0,7.45,1.16,9.75,3.48,2.3,2.32,3.45,5.14,3.45,8.46,0,2.92-.71,5.63-2.12,8.12-1.42,2.5-3.56,5.34-6.43,8.52l-11.87,13.07h21.22v5.04h-27.79Z" style="fill:red;"></path> <g> <path d="M169.76,147.44v-45.23h5.5v45.23h-5.5Z" style="fill:#b40000;"></path> <path d="M192.98,147.44v-40.19h-11.87v-5.04h29.25v5.04h-11.87v40.19h-5.5Z" style="fill:#b40000;"></path> <path d="M256.25,102.21l4.97,45.23h-5.37l-2.59-26.4c-.4-4.38-.75-8.38-1.06-12h-.2c-.84,2.74-2.12,6.76-3.85,12.07l-8.82,26.33h-4.77l-8.82-27.06c-2.25-6.94-3.47-10.72-3.65-11.34h-.27c-.31,4.47-.64,8.22-.99,11.27l-2.79,27.12h-5.31l5.24-45.23h6.7l9.82,29.11c1.02,2.92,1.83,5.68,2.45,8.29h.27c.53-2.17,1.37-4.93,2.52-8.29l9.88-29.11h6.63Z" style="fill:#b40000;"></path> </g> </g> <g> <path d="M89.25,888.38v-31.75h-19.73v31.75h-2.23v-33.73h24.19v33.73h-2.23Z"></path> <path d="M118.83,854.65v1.98h-16.27v13.26h15.73v1.98h-15.73v14.54h16.82v1.98h-19.04v-33.73h18.5Z"></path> <path d="M127.24,888.38v-33.73h9.05c3.89,0,6.92,.83,9.1,2.5,2.18,1.67,3.26,4.21,3.26,7.64s-1.01,5.91-3.04,7.64c-2.03,1.73-5.25,2.6-9.67,2.6h-6.48v13.35h-2.23Zm19.04-23.49c0-2.57-.82-4.59-2.45-6.06-1.63-1.47-4.08-2.2-7.35-2.2h-7.02v16.42h7.47c6.23,0,9.35-2.72,9.35-8.16Z"></path> <path d="M170.96,853.56c3.99,0,7.28,.92,9.87,2.75,2.59,1.83,4.49,4.16,5.71,7h-2.52c-1.02-2.37-2.68-4.26-4.97-5.66-2.29-1.4-5-2.1-8.14-2.1-4.06,0-7.57,1.41-10.53,4.23-2.97,2.82-4.45,6.72-4.45,11.7,0,4.62,1.42,8.44,4.25,11.47,2.84,3.03,6.5,4.55,10.98,4.55,3.17,0,5.88-.74,8.14-2.23,2.26-1.48,3.96-3.54,5.12-6.18h2.52c-3.03,6.92-8.36,10.39-15.98,10.39-5.14,0-9.33-1.7-12.56-5.09-3.23-3.4-4.85-7.72-4.85-12.96s1.69-9.36,5.07-12.76c3.38-3.4,7.49-5.09,12.34-5.09Z"></path> <path d="M192.62,871.51c0-4.95,1.71-9.17,5.12-12.69,3.41-3.51,7.67-5.27,12.79-5.27s9.65,1.76,12.93,5.27c3.28,3.51,4.92,7.74,4.92,12.69s-1.71,9.26-5.14,12.74c-3.43,3.48-7.67,5.22-12.71,5.22-2.94,0-5.58-.54-7.94-1.61-2.36-1.07-4.25-2.49-5.66-4.25-1.42-1.76-2.49-3.68-3.21-5.74-.73-2.06-1.09-4.18-1.09-6.36Zm2.37,0c0,4.58,1.48,8.39,4.45,11.43,2.97,3.03,6.64,4.55,11.03,4.55s8.07-1.52,11.05-4.55c2.98-3.03,4.48-6.84,4.48-11.43s-1.45-8.39-4.35-11.42c-2.9-3.03-6.63-4.55-11.18-4.55s-8.06,1.51-11.03,4.53c-2.97,3.02-4.45,6.83-4.45,11.45Z"></path> <path d="M259.89,888.38v-16.52h-22.21v16.52h-2.23v-33.73h2.23v15.23h22.21v-15.23h2.23v33.73h-2.23Z"></path> <path d="M267.9,888.38l14.29-33.73h2.18l14.29,33.73h-2.33l-4.06-9.6h-18.1l-4.01,9.6h-2.28Zm11.87-22.7l-4.75,11.13h16.42l-4.9-11.47c-.99-2.24-2.06-4.93-3.21-8.06h-.2c-.17,.46-.5,1.32-1.01,2.57-.51,1.25-.96,2.39-1.36,3.41-.4,1.02-.73,1.83-.99,2.42Z"></path> <path d="M311.52,856.63l-2.03,25.77c-.2,2.34-.74,3.97-1.63,4.9-.89,.92-2.14,1.38-3.76,1.38-.66,0-1.27-.12-1.83-.35v-1.93c.33,.2,.97,.3,1.93,.3s1.63-.32,2.13-.96c.5-.64,.81-1.76,.94-3.34l2.18-27.75h21.12v33.73h-2.23v-31.75h-16.82Z"></path> <path d="M363.36,857.91h-.15c-.26,.36-.93,1.32-2,2.87-1.07,1.55-2.13,3.07-3.17,4.58-1.04,1.5-1.94,2.78-2.7,3.83l-13.75,19.19h-1.93v-33.73h2.23v23c0,1.62-.03,4.01-.1,7.17h.2c.89-1.25,2.25-3.2,4.08-5.84,1.83-2.64,3.19-4.57,4.08-5.79l13.3-18.55h2.03v33.73h-2.23v-22.31c0-3.63,.03-6.35,.1-8.16Z"></path> <path d="M372.9,879.82h2.28c.2,2.37,1.04,4.24,2.52,5.59,1.48,1.35,3.38,2.03,5.69,2.03,2.7,0,4.81-.73,6.31-2.2,1.5-1.47,2.25-3.49,2.25-6.06,0-2.41-.74-4.31-2.23-5.71-1.48-1.4-3.73-2.1-6.73-2.1h-3.26v-1.98h2.97c2.51,0,4.47-.63,5.89-1.88,1.42-1.25,2.13-2.98,2.13-5.19,0-1.95-.65-3.55-1.95-4.82s-2.98-1.9-5.02-1.9-3.68,.5-4.9,1.51c-1.22,1.01-1.95,2.38-2.18,4.13h-2.28c.23-2.14,1.15-3.95,2.77-5.42,1.61-1.47,3.84-2.2,6.68-2.2,2.67,0,4.85,.83,6.55,2.5,1.7,1.67,2.55,3.73,2.55,6.21,0,1.95-.5,3.59-1.48,4.92-.99,1.34-2.26,2.32-3.81,2.94v.1c2.01,.46,3.63,1.52,4.85,3.17,1.22,1.65,1.83,3.61,1.83,5.89,0,2.7-.89,5.06-2.67,7.07s-4.5,3.02-8.16,3.02c-3.03,0-5.49-.87-7.37-2.62-1.88-1.75-2.95-4.07-3.21-6.97Z"></path> <path d="M425.93,857.91h-.15c-.26,.36-.93,1.32-2,2.87-1.07,1.55-2.13,3.07-3.17,4.58-1.04,1.5-1.94,2.78-2.7,3.83l-13.75,19.19h-1.93v-33.73h2.23v23c0,1.62-.03,4.01-.1,7.17h.2c.89-1.25,2.25-3.2,4.08-5.84,1.83-2.64,3.19-4.57,4.08-5.79l13.3-18.55h2.03v33.73h-2.23v-22.31c0-3.63,.03-6.35,.1-8.16Z"></path> <path d="M436.66,888.38v-33.73h9.05c3.89,0,6.92,.83,9.1,2.5,2.18,1.67,3.26,4.21,3.26,7.64s-1.01,5.91-3.04,7.64c-2.03,1.73-5.25,2.6-9.67,2.6h-6.48v13.35h-2.23Zm19.04-23.49c0-2.57-.82-4.59-2.45-6.06-1.63-1.47-4.08-2.2-7.35-2.2h-7.02v16.42h7.47c6.23,0,9.35-2.72,9.35-8.16Z"></path> <path d="M462.97,871.51c0-4.95,1.71-9.17,5.12-12.69,3.41-3.51,7.67-5.27,12.79-5.27s9.65,1.76,12.93,5.27c3.28,3.51,4.92,7.74,4.92,12.69s-1.71,9.26-5.14,12.74c-3.43,3.48-7.67,5.22-12.71,5.22-2.94,0-5.58-.54-7.94-1.61-2.36-1.07-4.25-2.49-5.66-4.25-1.42-1.76-2.49-3.68-3.21-5.74-.73-2.06-1.09-4.18-1.09-6.36Zm2.37,0c0,4.58,1.48,8.39,4.45,11.43,2.97,3.03,6.64,4.55,11.03,4.55s8.07-1.52,11.05-4.55c2.98-3.03,4.48-6.84,4.48-11.43s-1.45-8.39-4.35-11.42c-2.9-3.03-6.63-4.55-11.18-4.55s-8.06,1.51-11.03,4.53c-2.97,3.02-4.45,6.83-4.45,11.45Z"></path> <path d="M505.56,888.38v-33.73h8.11c3.23,0,5.76,.69,7.59,2.08,1.83,1.38,2.75,3.45,2.75,6.18,0,3.63-1.81,6.13-5.44,7.52v.1c2.54,.3,4.49,1.24,5.86,2.82,1.37,1.58,2.05,3.5,2.05,5.74,0,3.03-1.05,5.34-3.14,6.92s-4.79,2.37-8.09,2.37h-9.69Zm16.07-25.27c0-2.08-.58-3.68-1.73-4.8-1.15-1.12-3.1-1.68-5.84-1.68h-6.23v13.26h5.79c2.51,0,4.47-.6,5.89-1.81,1.42-1.2,2.13-2.86,2.13-4.97Zm2.47,16.12c0-2.31-.77-4.11-2.32-5.42-1.55-1.3-3.73-1.95-6.53-1.95h-7.42v14.54h8.16c2.67,0,4.69-.65,6.06-1.95s2.05-3.04,2.05-5.22Z"></path> <path d="M530.23,888.38l14.29-33.73h2.18l14.29,33.73h-2.33l-4.06-9.6h-18.1l-4.01,9.6h-2.28Zm11.87-22.7l-4.75,11.13h16.42l-4.9-11.47c-.99-2.24-2.06-4.93-3.21-8.06h-.2c-.17,.46-.5,1.32-1.01,2.57-.51,1.25-.96,2.39-1.36,3.41-.4,1.02-.73,1.83-.99,2.42Z"></path> <path d="M591.22,888.38v-16.52h-22.21v16.52h-2.23v-33.73h2.23v15.23h22.21v-15.23h2.23v33.73h-2.23Z"></path> <path d="M626.98,888.38v-16.52h-22.21v16.52h-2.23v-33.73h2.23v15.23h22.21v-15.23h2.23v33.73h-2.23Z"></path> <path d="M637.81,888.38v-33.73h2.23v15.23h7.02c3.56,0,6.36,.77,8.38,2.3,2.03,1.53,3.04,3.85,3.04,6.95,0,6.17-3.69,9.25-11.08,9.25h-9.6Zm18.3-9.2c0-2.28-.76-4.06-2.28-5.37-1.52-1.3-3.78-1.95-6.78-1.95h-7.02v14.54h7.47c5.74,0,8.61-2.41,8.61-7.22Zm6.33,9.2v-33.73h2.23v33.73h-2.23Z"></path> <path d="M692.02,854.65v1.98h-16.27v13.26h15.73v1.98h-15.73v14.54h16.82v1.98h-19.04v-33.73h18.5Z"></path> <path d="M735.49,888.38v-31.75h-19.73v31.75h-2.23v-33.73h24.19v33.73h-2.23Z"></path> <path d="M746.32,888.38v-33.73h9.05c3.89,0,6.92,.83,9.1,2.5,2.18,1.67,3.26,4.21,3.26,7.64s-1.01,5.91-3.04,7.64c-2.03,1.73-5.25,2.6-9.67,2.6h-6.48v13.35h-2.23Zm19.04-23.49c0-2.57-.82-4.59-2.45-6.06-1.63-1.47-4.08-2.2-7.35-2.2h-7.02v16.42h7.47c6.23,0,9.35-2.72,9.35-8.16Z"></path> <path d="M772.64,871.51c0-4.95,1.71-9.17,5.12-12.69,3.41-3.51,7.67-5.27,12.79-5.27s9.65,1.76,12.93,5.27c3.28,3.51,4.92,7.74,4.92,12.69s-1.71,9.26-5.14,12.74c-3.43,3.48-7.67,5.22-12.71,5.22-2.94,0-5.58-.54-7.94-1.61-2.36-1.07-4.25-2.49-5.66-4.25-1.42-1.76-2.49-3.68-3.21-5.74-.73-2.06-1.09-4.18-1.09-6.36Zm2.37,0c0,4.58,1.48,8.39,4.45,11.43,2.97,3.03,6.64,4.55,11.03,4.55s8.07-1.52,11.05-4.55c2.98-3.03,4.48-6.84,4.48-11.43s-1.45-8.39-4.35-11.42c-2.9-3.03-6.63-4.55-11.18-4.55s-8.06,1.51-11.03,4.53c-2.97,3.02-4.45,6.83-4.45,11.45Z"></path> <path d="M820.32,888.38v-31.75h-9.79v-1.98h21.81v1.98h-9.79v31.75h-2.23Z"></path> <path d="M834.46,871.51c0-4.95,1.71-9.17,5.12-12.69,3.41-3.51,7.67-5.27,12.79-5.27s9.65,1.76,12.93,5.27c3.28,3.51,4.92,7.74,4.92,12.69s-1.71,9.26-5.14,12.74c-3.43,3.48-7.67,5.22-12.71,5.22-2.94,0-5.58-.54-7.94-1.61-2.36-1.07-4.25-2.49-5.66-4.25-1.42-1.76-2.49-3.68-3.21-5.74-.73-2.06-1.09-4.18-1.09-6.36Zm2.37,0c0,4.58,1.48,8.39,4.45,11.43,2.97,3.03,6.64,4.55,11.03,4.55s8.07-1.52,11.05-4.55c2.98-3.03,4.48-6.84,4.48-11.43s-1.45-8.39-4.35-11.42c-2.9-3.03-6.63-4.55-11.18-4.55s-8.06,1.51-11.03,4.53c-2.97,3.02-4.45,6.83-4.45,11.45Z"></path> <path d="M879.52,888.38h-2.23v-33.73h2.23v15.28l17.11-15.28h3.02l-17.56,15.53,17.95,18.2h-2.87l-17.66-17.9v17.9Z"></path> <path d="M902.37,871.51c0-4.95,1.71-9.17,5.12-12.69,3.41-3.51,7.67-5.27,12.79-5.27s9.65,1.76,12.93,5.27c3.28,3.51,4.92,7.74,4.92,12.69s-1.71,9.26-5.14,12.74c-3.43,3.48-7.67,5.22-12.71,5.22-2.94,0-5.58-.54-7.94-1.61-2.36-1.07-4.25-2.49-5.66-4.25-1.42-1.76-2.49-3.68-3.21-5.74-.73-2.06-1.09-4.18-1.09-6.36Zm2.37,0c0,4.58,1.48,8.39,4.45,11.43,2.97,3.03,6.64,4.55,11.03,4.55s8.07-1.52,11.05-4.55c2.98-3.03,4.48-6.84,4.48-11.43s-1.45-8.39-4.35-11.42c-2.9-3.03-6.63-4.55-11.18-4.55s-8.06,1.51-11.03,4.53c-2.97,3.02-4.45,6.83-4.45,11.45Z"></path> <path d="M950.05,856.63l-2.03,25.77c-.2,2.34-.74,3.97-1.63,4.9-.89,.92-2.14,1.38-3.76,1.38-.66,0-1.27-.12-1.83-.35v-1.93c.33,.2,.97,.3,1.93,.3s1.63-.32,2.13-.96c.5-.64,.81-1.76,.94-3.34l2.18-27.75h21.12v33.73h-2.23v-31.75h-16.82Z"></path> <path d="M977.7,888.38v-33.73h2.23v15.23h7.02c3.56,0,6.36,.77,8.38,2.3,2.03,1.53,3.04,3.85,3.04,6.95,0,6.17-3.69,9.25-11.08,9.25h-9.6Zm18.3-9.2c0-2.28-.76-4.06-2.28-5.37-1.52-1.3-3.78-1.95-6.78-1.95h-7.02v14.54h7.47c5.74,0,8.61-2.41,8.61-7.22Zm6.33,9.2v-33.73h2.23v33.73h-2.23Z"></path> <path d="M82.68,903.05c3.99,0,7.28,.92,9.87,2.75,2.59,1.83,4.49,4.16,5.71,7h-2.52c-1.02-2.37-2.68-4.26-4.97-5.66-2.29-1.4-5-2.1-8.14-2.1-4.06,0-7.57,1.41-10.53,4.23-2.97,2.82-4.45,6.72-4.45,11.7,0,4.62,1.42,8.44,4.25,11.47,2.84,3.03,6.5,4.55,10.98,4.55,3.17,0,5.88-.74,8.14-2.23,2.26-1.48,3.96-3.54,5.12-6.18h2.52c-3.03,6.92-8.36,10.39-15.98,10.39-5.14,0-9.33-1.7-12.56-5.09-3.23-3.4-4.85-7.72-4.85-12.96s1.69-9.36,5.07-12.76c3.38-3.4,7.49-5.09,12.34-5.09Z"></path> <path d="M124.62,904.14v1.98h-16.27v13.26h15.73v1.98h-15.73v14.54h16.82v1.98h-19.04v-33.73h18.5Z"></path> <path d="M133.27,937.87v-33.73h18.6v1.98h-16.37v31.75h-2.23Z"></path> <path d="M186.2,904.14l5.39,33.73h-2.18l-3.12-19.69c-.17-1.05-.42-2.67-.77-4.85-.35-2.18-.6-3.81-.77-4.9h-.15c-1.29,3.89-2.39,7.12-3.31,9.69l-7.02,19.73h-1.98l-7.27-20.62c-.73-2.11-1.68-5.04-2.87-8.8h-.15c-.2,1.85-.61,4.76-1.24,8.75l-3.21,20.67h-2.13l5.34-33.73h1.98l8.26,23.49c.59,1.62,1.35,3.94,2.28,6.97h.15c.82-2.67,1.6-5,2.33-6.97l8.46-23.49h1.98Z"></path> <path d="M217.16,904.14v1.98h-16.27v13.26h15.73v1.98h-15.73v14.54h16.82v1.98h-19.04v-33.73h18.5Z"></path> <path d="M250.49,937.87v-16.52h-22.21v16.52h-2.23v-33.73h2.23v15.23h22.21v-15.23h2.23v33.73h-2.23Z"></path> <path d="M268.4,937.87v-31.75h-9.79v-1.98h21.81v1.98h-9.79v31.75h-2.23Z"></path> <path d="M280.76,937.87l14.29-33.73h2.18l14.29,33.73h-2.33l-4.06-9.6h-18.1l-4.01,9.6h-2.28Zm11.87-22.7l-4.75,11.13h16.42l-4.9-11.47c-.99-2.24-2.06-4.93-3.21-8.06h-.2c-.17,.46-.5,1.32-1.01,2.57-.51,1.25-.96,2.39-1.36,3.41-.4,1.02-.73,1.83-.99,2.42Z"></path> <path d="M316.82,937.87v-33.73h9.05c3.89,0,6.92,.83,9.1,2.5,2.18,1.67,3.26,4.21,3.26,7.64s-1.01,5.91-3.04,7.64c-2.03,1.73-5.25,2.6-9.67,2.6h-6.48v13.35h-2.23Zm19.04-23.49c0-2.57-.82-4.59-2.45-6.06-1.63-1.47-4.08-2.2-7.35-2.2h-7.02v16.42h7.47c6.23,0,9.35-2.72,9.35-8.16Z"></path> <path d="M369.59,937.87v-16.52h-22.21v16.52h-2.23v-33.73h2.23v15.23h22.21v-15.23h2.23v33.73h-2.23Z"></path> <path d="M378.89,921c0-4.95,1.71-9.17,5.12-12.69,3.41-3.51,7.67-5.27,12.79-5.27s9.65,1.76,12.93,5.27c3.28,3.51,4.92,7.74,4.92,12.69s-1.71,9.26-5.14,12.74c-3.43,3.48-7.67,5.22-12.71,5.22-2.94,0-5.58-.54-7.94-1.61-2.36-1.07-4.25-2.49-5.66-4.25-1.42-1.76-2.49-3.68-3.21-5.74-.73-2.06-1.09-4.18-1.09-6.36Zm2.37,0c0,4.58,1.48,8.39,4.45,11.43,2.97,3.03,6.64,4.55,11.03,4.55s8.07-1.52,11.05-4.55c2.98-3.03,4.48-6.84,4.48-11.43s-1.45-8.39-4.35-11.42c-2.9-3.03-6.63-4.55-11.18-4.55s-8.06,1.51-11.03,4.53c-2.97,3.02-4.45,6.83-4.45,11.45Z"></path> <path d="M445.41,907.4h-.15c-.26,.36-.93,1.32-2,2.87-1.07,1.55-2.13,3.07-3.17,4.58-1.04,1.5-1.94,2.78-2.7,3.83l-13.75,19.19h-1.93v-33.73h2.23v23c0,1.62-.03,4.01-.1,7.17h.2c.89-1.25,2.25-3.2,4.08-5.84,1.83-2.64,3.19-4.57,4.08-5.79l13.3-18.55h2.03v33.73h-2.23v-22.31c0-3.63,.03-6.35,.1-8.16Zm-5.79-12.17h2.08c-.13,1.71-.82,3.12-2.08,4.2s-2.92,1.63-5,1.63-3.74-.54-5-1.63-1.95-2.49-2.08-4.2h2.08c.07,1.06,.53,1.96,1.39,2.72,.86,.76,2.06,1.14,3.61,1.14s2.75-.38,3.61-1.14c.86-.76,1.32-1.66,1.38-2.72Z"></path> <path d="M471.48,937.87h-2.23v-33.73h2.23v15.28l17.11-15.28h3.02l-17.56,15.53,17.95,18.2h-2.87l-17.66-17.9v17.9Z"></path> <path d="M494.33,921c0-4.95,1.71-9.17,5.12-12.69,3.41-3.51,7.67-5.27,12.79-5.27s9.65,1.76,12.93,5.27c3.28,3.51,4.92,7.74,4.92,12.69s-1.71,9.26-5.14,12.74c-3.43,3.48-7.67,5.22-12.71,5.22-2.94,0-5.58-.54-7.94-1.61-2.36-1.07-4.25-2.49-5.66-4.25-1.42-1.76-2.49-3.68-3.21-5.74-.73-2.06-1.09-4.18-1.09-6.36Zm2.37,0c0,4.58,1.48,8.39,4.45,11.43,2.97,3.03,6.64,4.55,11.03,4.55s8.07-1.52,11.05-4.55c2.98-3.03,4.48-6.84,4.48-11.43s-1.45-8.39-4.35-11.42c-2.9-3.03-6.63-4.55-11.18-4.55s-8.06,1.51-11.03,4.53c-2.97,3.02-4.45,6.83-4.45,11.45Z"></path> <path d="M536.66,937.87v-33.73h9.05c3.89,0,6.92,.83,9.1,2.5,2.18,1.67,3.26,4.21,3.26,7.64s-1.01,5.91-3.04,7.64c-2.03,1.73-5.25,2.6-9.67,2.6h-6.48v13.35h-2.23Zm19.04-23.49c0-2.57-.82-4.59-2.45-6.06-1.63-1.47-4.08-2.2-7.35-2.2h-7.02v16.42h7.47c6.23,0,9.35-2.72,9.35-8.16Z"></path> <path d="M564.51,937.87v-33.73h9.05c3.89,0,6.92,.83,9.1,2.5,2.18,1.67,3.26,4.21,3.26,7.64s-1.01,5.91-3.04,7.64c-2.03,1.73-5.25,2.6-9.67,2.6h-6.48v13.35h-2.23Zm19.04-23.49c0-2.57-.82-4.59-2.45-6.06-1.63-1.47-4.08-2.2-7.35-2.2h-7.02v16.42h7.47c6.23,0,9.35-2.72,9.35-8.16Z"></path> <path d="M611.1,904.14v1.98h-16.27v13.26h15.73v1.98h-15.73v14.54h16.82v1.98h-19.04v-33.73h18.5Z"></path> <path d="M622.23,937.87h-2.23v-33.73h2.23v15.28l17.11-15.28h3.02l-17.56,15.53,17.95,18.2h-2.87l-17.66-17.9v17.9Z"></path> <path d="M674.36,937.87h-25.92v-33.73h2.23v31.75h19.73v-31.75h2.23v31.75h3.96v10.63h-2.23v-8.66Z"></path> <path d="M706.71,907.4h-.15c-.26,.36-.93,1.32-2,2.87-1.07,1.55-2.13,3.07-3.17,4.58-1.04,1.5-1.94,2.78-2.7,3.83l-13.75,19.19h-1.93v-33.73h2.23v23c0,1.62-.03,4.01-.1,7.17h.2c.89-1.25,2.25-3.2,4.08-5.84,1.83-2.64,3.19-4.57,4.08-5.79l13.3-18.55h2.03v33.73h-2.23v-22.31c0-3.63,.03-6.35,.1-8.16Z"></path> <path d="M741.62,907.4h-.15c-.26,.36-.93,1.32-2,2.87-1.07,1.55-2.13,3.07-3.17,4.58-1.04,1.5-1.94,2.78-2.7,3.83l-13.75,19.19h-1.93v-33.73h2.23v23c0,1.62-.03,4.01-.1,7.17h.2c.89-1.25,2.25-3.2,4.08-5.84,1.83-2.64,3.19-4.57,4.08-5.79l13.3-18.55h2.03v33.73h-2.23v-22.31c0-3.63,.03-6.35,.1-8.16Z"></path> </g> </svg> 