<?xml version="1.0" encoding="UTF-8"?> <svg xmlns="http://www.w3.org/2000/svg" xmlns:xlink="http://www.w3.org/1999/xlink" viewBox="0 0 160.85 101.37"> <defs> <linearGradient id="linear-gradient" x1="-584.04" y1="4610.95" x2="-570.38" y2="4597.3" gradientTransform="translate(-4518.3 -496.32) rotate(-90)" gradientUnits="userSpaceOnUse"> <stop offset="0" stop-color="#66dac7"></stop> <stop offset="1" stop-color="#00c2a2"></stop> </linearGradient> <linearGradient id="linear-gradient-2" x1="-4377.05" y1="-562.19" x2="-4363.4" y2="-575.85" gradientTransform="translate(-442.3 4464.78) rotate(90)" gradientUnits="userSpaceOnUse"> <stop offset="0" stop-color="#66baac"></stop> <stop offset="1" stop-color="#008c75"></stop> </linearGradient> <linearGradient id="linear-gradient-3" x1="119.9" y1="60.45" x2="133.55" y2="46.8" gradientTransform="matrix(1, 0, 0, 1, 0, 0)" xlink:href="#linear-gradient"></linearGradient> <linearGradient id="linear-gradient-4" x1="-2921.65" y1="-72.42" x2="-2908" y2="-86.07" gradientTransform="translate(2504.97 1672.18) rotate(32.4)" xlink:href="#linear-gradient"></linearGradient> <linearGradient id="linear-gradient-5" x1="147.2" y1="87.72" x2="160.85" y2="74.07" gradientUnits="userSpaceOnUse"> <stop offset="0" stop-color="#66a699"></stop> <stop offset="1" stop-color="#006b55"></stop> </linearGradient> <linearGradient id="linear-gradient-6" x1="3264.02" y1="3654.48" x2="3277.67" y2="3640.83" gradientTransform="translate(-4813.22 743.32) rotate(-55.98)" xlink:href="#linear-gradient-5"></linearGradient> <linearGradient id="linear-gradient-7" x1="-4298.79" y1="-590.5" x2="-4285.14" y2="-604.15" gradientTransform="translate(-443.3 4359.24) rotate(90)" xlink:href="#linear-gradient-2"></linearGradient> <linearGradient id="linear-gradient-8" x1="-2626.37" y1="-3337.05" x2="-2612.72" y2="-3350.71" gradientTransform="translate(-2148.22 3686.13) rotate(68.87)" xlink:href="#linear-gradient-2"></linearGradient> <linearGradient id="linear-gradient-9" x1="-4504.96" y1="-41.56" x2="-4491.3" y2="-55.21" gradientTransform="translate(-467.4 4483.07) rotate(96.85)" xlink:href="#linear-gradient-2"></linearGradient> <linearGradient id="linear-gradient-10" x1="147.2" y1="33.31" x2="160.85" y2="19.66" gradientUnits="userSpaceOnUse"> <stop offset="0" stop-color="#ff66bf"></stop> <stop offset="1" stop-color="#ff0095"></stop> </linearGradient> </defs> <g style="isolation:isolate;"> <g id="Layer_2"> <g id="cubes_"> <g> <g> <rect x="79" y="74.07" width="27.3" height="27.3" transform="translate(4.93 180.37) rotate(-90)" style="fill:#00c2a2; mix-blend-mode:screen;"></rect> <rect x="79" y="74.07" width="27.3" height="27.3" transform="translate(4.93 180.37) rotate(-90)" style="fill:#00c2a2; mix-blend-mode:screen;"></rect> <polygon points="79 101.37 79 74.07 106.3 74.07 79 101.37" style="fill:url(#linear-gradient); mix-blend-mode:screen;"></polygon> </g> <g> <rect x="106.24" y="74.07" width="27.3" height="27.3" transform="translate(207.62 -32.17) rotate(90)" style="fill:#008c75; mix-blend-mode:screen;"></rect> <rect x="106.24" y="74.07" width="27.3" height="27.3" transform="translate(207.62 -32.17) rotate(90)" style="fill:#008c75; mix-blend-mode:screen;"></rect> <polygon points="133.55 74.07 133.55 101.37 106.24 101.37 133.55 74.07" style="fill:url(#linear-gradient-2); mix-blend-mode:screen;"></polygon> </g> <g> <rect x="106.24" y="46.8" width="27.3" height="27.3" style="fill:#00c2a2; mix-blend-mode:screen;"></rect> <rect x="106.24" y="46.8" width="27.3" height="27.3" style="fill:#00c2a2; mix-blend-mode:screen;"></rect> <polygon points="106.24 46.8 133.55 46.8 133.55 74.1 106.24 46.8" style="fill:url(#linear-gradient-3); mix-blend-mode:screen;"></polygon> </g> <g> <rect x="63.35" y="31.8" width="27.3" height="27.3" transform="translate(36.34 -34.18) rotate(32.4)" style="fill:#00c2a2; mix-blend-mode:screen;"></rect> <rect x="63.35" y="31.8" width="27.3" height="27.3" transform="translate(36.34 -34.18) rotate(32.4)" style="fill:#00c2a2; mix-blend-mode:screen;"></rect> <polygon points="72.79 26.61 95.84 41.24 81.21 64.3 72.79 26.61" style="fill:url(#linear-gradient-4); mix-blend-mode:screen;"></polygon> </g> <g> <rect x="133.55" y="74.07" width="27.3" height="27.3" style="fill:#006b55; mix-blend-mode:screen;"></rect> <rect x="133.55" y="74.07" width="27.3" height="27.3" style="fill:#006b55; mix-blend-mode:screen;"></rect> <polygon points="133.55 74.07 160.85 74.07 160.85 101.37 133.55 74.07" style="fill:url(#linear-gradient-5); mix-blend-mode:screen;"></polygon> </g> <g> <rect x="28.25" y="68.75" width="27.3" height="27.3" transform="translate(-49.84 71.03) rotate(-55.98)" style="fill:#006b55; mix-blend-mode:screen;"></rect> <rect x="28.25" y="68.75" width="27.3" height="27.3" transform="translate(-49.84 71.03) rotate(-55.98)" style="fill:#006b55; mix-blend-mode:screen;"></rect> <polygon points="22.95 86.08 38.23 63.44 60.86 78.72 22.95 86.08" style="fill:url(#linear-gradient-6); mix-blend-mode:screen;"></polygon> </g> <g> <rect x="133.55" y="46.8" width="27.3" height="27.3" transform="translate(207.65 -86.75) rotate(90)" style="fill:#008c75; mix-blend-mode:screen;"></rect> <rect x="133.55" y="46.8" width="27.3" height="27.3" transform="translate(207.65 -86.75) rotate(90)" style="fill:#008c75; mix-blend-mode:screen;"></rect> <polygon points="160.85 46.8 160.85 74.1 133.55 74.1 160.85 46.8" style="fill:url(#linear-gradient-7); mix-blend-mode:screen;"></polygon> </g> <g> <rect x="4" y="19.7" width="27.3" height="27.3" transform="translate(42.4 4.86) rotate(68.87)" style="fill:#008c75; mix-blend-mode:screen;"></rect> <rect x="4" y="19.7" width="27.3" height="27.3" transform="translate(42.4 4.86) rotate(68.87)" style="fill:#008c75; mix-blend-mode:screen;"></rect> <polygon points="25.47 15.7 35.31 41.17 9.84 51.01 25.47 15.7" style="fill:url(#linear-gradient-8); mix-blend-mode:screen;"></polygon> </g> <g> <rect x="97.18" y="1.53" width="27.3" height="27.3" transform="translate(139.12 -93.05) rotate(96.85)" style="fill:#008c75; mix-blend-mode:screen;"></rect> <rect x="97.18" y="1.53" width="27.3" height="27.3" transform="translate(139.12 -93.05) rotate(96.85)" style="fill:#008c75; mix-blend-mode:screen;"></rect> <polygon points="126.02 3.25 122.76 30.36 95.65 27.11 126.02 3.25" style="fill:url(#linear-gradient-9); mix-blend-mode:screen;"></polygon> </g> <g> <rect x="133.55" y="19.66" width="27.3" height="27.3" style="fill:#ff0095;"></rect> <polygon points="133.55 19.66 160.85 19.66 160.85 46.96 133.55 19.66" style="fill:url(#linear-gradient-10);"></polygon> </g> </g> </g> </g> </g> </svg> 