<?xml version="1.0" encoding="UTF-8"?> <svg xmlns="http://www.w3.org/2000/svg" xmlns:xlink="http://www.w3.org/1999/xlink" viewBox="0 0 1228.29 861.08"> <defs> <linearGradient id="linear-gradient" x1="391.71" y1="81.31" x2="392.21" y2="81.31" gradientUnits="userSpaceOnUse"> <stop offset="0" stop-color="#66dac7"></stop> <stop offset="1" stop-color="#00c2a2"></stop> </linearGradient> <linearGradient id="linear-gradient-2" x1="402.2" y1="88.97" x2="402.7" y2="88.97" gradientTransform="translate(117.23 -356.28) rotate(25.29)" gradientUnits="userSpaceOnUse"> <stop offset="0" stop-color="#66baac"></stop> <stop offset="1" stop-color="#008c75"></stop> </linearGradient> <linearGradient id="linear-gradient-3" x1="532.11" y1="478.12" x2="532.61" y2="478.12" gradientTransform="translate(-189.85 -67.48) rotate(-18.86)" xlink:href="#linear-gradient"></linearGradient> <linearGradient id="linear-gradient-4" x1="236.96" y1="-389.35" x2="237.46" y2="-389.35" gradientTransform="translate(564.89 665.58) rotate(-34.49)" xlink:href="#linear-gradient"></linearGradient> <linearGradient id="linear-gradient-5" x1="506.56" y1="88.78" x2="507.06" y2="88.78" gradientUnits="userSpaceOnUse"> <stop offset="0" stop-color="#66a699"></stop> <stop offset="1" stop-color="#006b55"></stop> </linearGradient> <linearGradient id="linear-gradient-6" x1="321.45" y1="70.32" x2="321.95" y2="70.32" xlink:href="#linear-gradient-5"></linearGradient> <linearGradient id="linear-gradient-7" x1="453.87" y1="42.12" x2="454.37" y2="42.12" gradientTransform="translate(153.62 571.06) rotate(-35.03)" xlink:href="#linear-gradient-2"></linearGradient> <linearGradient id="linear-gradient-8" x1="355.67" y1="31.32" x2="356.17" y2="31.32" gradientTransform="matrix(1, 0, 0, 1, 0, 0)" xlink:href="#linear-gradient-2"></linearGradient> <linearGradient id="linear-gradient-9" x1="307.65" y1="62.42" x2="308.15" y2="62.42" gradientTransform="translate(5.39 169.82) rotate(-13.66)" xlink:href="#linear-gradient-2"></linearGradient> <linearGradient id="linear-gradient-10" x1="42.13" y1="1412.5" x2="42.63" y2="1412.5" gradientTransform="translate(-634.74 516.5) rotate(-90)" gradientUnits="userSpaceOnUse"> <stop offset="0" stop-color="#ff66bf"></stop> <stop offset="1" stop-color="#ff0095"></stop> </linearGradient> </defs> <g style="isolation:isolate;"> <g id="Layer_2"> <g id="fon_photo"> <rect y="65.08" width="1228.29" height="796" style="fill:#006b55;"></rect> <rect x="90.58" y="155.57" width="138.35" height="138.35" style="fill:#00c2a2;"></rect> </g> <g id="cubes_"> <g> <g> <rect x="749.33" y="76.18" width="27.3" height="27.3" transform="translate(216.64 629.94) rotate(-51.39)" style="fill:#00c2a2; mix-blend-mode:screen;"></rect> <rect x="749.33" y="76.18" width="27.3" height="27.3" transform="translate(216.64 629.94) rotate(-51.39)" style="fill:#00c2a2; mix-blend-mode:screen;"></rect> <polygon points="743.8 91.98 760.84 70.64 782.17 87.68 743.8 91.98" style="fill:url(#linear-gradient); mix-blend-mode:screen;"></polygon> </g> <g> <rect x="837.05" y="75.05" width="27.3" height="27.3" transform="translate(1294.35 -642.56) rotate(115.29)" style="fill:#008c75; mix-blend-mode:screen;"></rect> <rect x="837.05" y="75.05" width="27.3" height="27.3" transform="translate(1294.35 -642.56) rotate(115.29)" style="fill:#008c75; mix-blend-mode:screen;"></rect> <polygon points="868.88 82.19 857.22 106.88 832.53 95.22 868.88 82.19" style="fill:url(#linear-gradient-2); mix-blend-mode:screen;"></polygon> </g> <g> <rect x="911.93" y="43.07" width="27.3" height="27.3" transform="translate(31.36 302.25) rotate(-18.86)" style="fill:#00c2a2; mix-blend-mode:screen;"></rect> <rect x="911.93" y="43.07" width="27.3" height="27.3" transform="translate(31.36 302.25) rotate(-18.86)" style="fill:#00c2a2; mix-blend-mode:screen;"></rect> <polygon points="908.25 48.22 934.09 39.39 942.92 65.23 908.25 48.22" style="fill:url(#linear-gradient-3); mix-blend-mode:screen;"></polygon> </g> <g> <rect x="817.54" y="4.65" width="27.3" height="27.3" transform="translate(444.54 754.32) rotate(-63.55)" style="fill:#00c2a2; mix-blend-mode:screen;"></rect> <rect x="817.54" y="4.65" width="27.3" height="27.3" transform="translate(444.54 754.32) rotate(-63.55)" style="fill:#00c2a2; mix-blend-mode:screen;"></rect> <polygon points="812.89 24.45 825.05 0 849.5 12.16 812.89 24.45" style="fill:url(#linear-gradient-4); mix-blend-mode:screen;"></polygon> </g> <g> <rect x="1020.67" y="75.13" width="27.3" height="27.3" style="fill:#006b55; mix-blend-mode:screen;"></rect> <rect x="1020.67" y="75.13" width="27.3" height="27.3" style="fill:#006b55; mix-blend-mode:screen;"></rect> <polygon points="1020.67 75.13 1047.98 75.13 1047.98 102.43 1020.67 75.13" style="fill:url(#linear-gradient-5); mix-blend-mode:screen;"></polygon> </g> <g> <rect x="608.43" y="61.48" width="27.3" height="27.3" transform="translate(13.38 223.82) rotate(-20.61)" style="fill:#006b55; mix-blend-mode:screen;"></rect> <rect x="608.43" y="61.48" width="27.3" height="27.3" transform="translate(13.38 223.82) rotate(-20.61)" style="fill:#006b55; mix-blend-mode:screen;"></rect> <polygon points="604.49 67.16 630.05 57.55 639.66 83.1 604.49 67.16" style="fill:url(#linear-gradient-6); mix-blend-mode:screen;"></polygon> </g> <g> <rect x="967.98" y="28.47" width="27.3" height="27.3" transform="translate(452.7 -785.9) rotate(54.97)" style="fill:#008c75; mix-blend-mode:screen;"></rect> <rect x="967.98" y="28.47" width="27.3" height="27.3" transform="translate(452.7 -785.9) rotate(54.97)" style="fill:#008c75; mix-blend-mode:screen;"></rect> <polygon points="984.98 23.11 1000.65 45.46 978.29 61.14 984.98 23.11" style="fill:url(#linear-gradient-7); mix-blend-mode:screen;"></polygon> </g> <g> <rect x="647.58" y="16.5" width="27.3" height="27.3" transform="translate(748.26 -626.03) rotate(94.94)" style="fill:#008c75; mix-blend-mode:screen;"></rect> <rect x="647.58" y="16.5" width="27.3" height="27.3" transform="translate(748.26 -626.03) rotate(94.94)" style="fill:#008c75; mix-blend-mode:screen;"></rect> <polygon points="676.01 17.72 673.66 44.93 646.46 42.57 676.01 17.72" style="fill:url(#linear-gradient-8); mix-blend-mode:screen;"></polygon> </g> <g> <rect x="698.05" y="48.76" width="27.3" height="27.3" transform="translate(354.32 -556.2) rotate(54.97)" style="fill:#008c75; mix-blend-mode:screen;"></rect> <rect x="698.05" y="48.76" width="27.3" height="27.3" transform="translate(354.32 -556.2) rotate(54.97)" style="fill:#008c75; mix-blend-mode:screen;"></rect> <polygon points="715.04 43.4 730.71 65.76 708.35 81.43 715.04 43.4" style="fill:url(#linear-gradient-9); mix-blend-mode:screen;"></polygon> </g> <g> <rect x="764.11" y="18.46" width="27.3" height="27.3" transform="translate(745.65 809.87) rotate(-90)" style="fill:#ff0095;"></rect> <polygon points="764.11 45.76 764.11 18.46 791.41 18.46 764.11 45.76" style="fill:url(#linear-gradient-10);"></polygon> </g> </g> </g> </g> </g> </svg> 