<?xml version="1.0" encoding="UTF-8"?> <svg xmlns="http://www.w3.org/2000/svg" viewBox="0 0 100 100" fill-rule="evenodd"> <g fill="#ffffff"> <path d="M73.5 7A1.5 1.5 0 0 0 72 8.5V19H40.5a1.5 1.5 0 0 0-1.5 1.5v29.86a13.44 13.44 0 0 1-3.9 9.5L24 71.08a15.37 15.37 0 0 0 0 21.53 15.32 15.32 0 0 0 21.8 0l22.46-22.72A23.23 23.23 0 0 0 75 53.47V8.5A1.5 1.5 0 0 0 73.5 7ZM26.16 90.5A12.37 12.37 0 0 1 24.69 75l17.09 17.08a12.33 12.33 0 0 1-15.62-1.58Zm17.91-.38L26.64 72.7 37.24 62A16.42 16.42 0 0 0 42 50.36V22h30v7H47.5a1.5 1.5 0 0 0 0 3H72v15a16.64 16.64 0 0 0-12.29 27.27Zm22.05-22.34-4.29 4.34A13.63 13.63 0 0 1 72 50v3.48a20.25 20.25 0 0 1-5.88 14.3Z"></path> </g> </svg> 