<?xml version="1.0" encoding="UTF-8"?> <!-- Generator: Adobe Illustrator 26.5.0, SVG Export Plug-In . SVG Version: 6.00 Build 0) --> <svg xmlns="http://www.w3.org/2000/svg" xmlns:xlink="http://www.w3.org/1999/xlink" id="Слой_1" x="0px" y="0px" viewBox="0 0 595.3 297.6" style="enable-background:new 0 0 595.3 297.6;" xml:space="preserve"> <style type="text/css"> .st0{fill:#FBF8CA;} .st1{fill:#FCCFC4;} .st2{fill:#F7D9E3;} .st3{fill:#F9F9E0;} .st4{fill:#FFEFE6;} .st5{fill:#FEF2F1;} .st6{fill:#BFCEEA;} .st7{fill:#E6EAF6;} .st8{fill:#D5EBDB;} .st9{fill:#B9DCA6;} .st10{fill:#DBEDD8;} .st11{fill:#CFB3B9;} .st12{fill:#EBF5EB;} .st13{fill:#E1D2D0;} .st14{fill:#FDD6BC;} .st15{fill:#FEE2D0;} .st16{fill:#F7C486;} .st17{fill:#FEE0C2;} .st18{fill:#879B90;} .st19{fill:#6D6E71;} </style> <g> <rect x="91.1" y="56.1" class="st0" width="2.1" height="195.4"></rect> <rect x="407.9" y="210.9" class="st0" width="2.1" height="40.5"></rect> <rect x="100.3" y="56.1" class="st1" width="5.3" height="195.4"></rect> <rect x="417.1" y="210.9" class="st1" width="5.3" height="40.5"></rect> <rect x="116.1" y="56.1" class="st2" width="8.5" height="195.4"></rect> <rect x="91.1" y="68.8" class="st3" width="2.1" height="139.6"></rect> <rect x="100.3" y="68.8" class="st4" width="5.3" height="139.6"></rect> <rect x="116.1" y="68.8" class="st5" width="8.5" height="139.6"></rect> <rect x="432.9" y="210.9" class="st6" width="8.5" height="40.5"></rect> <rect x="131.5" y="56.1" class="st6" width="4.2" height="195.4"></rect> <rect x="131.5" y="68.7" class="st7" width="4.2" height="139.7"></rect> <rect x="448.4" y="210.9" class="st8" width="4.2" height="40.5"></rect> <rect x="426.3" y="210.9" class="st2" width="3.3" height="40.5"></rect> <rect x="157.2" y="56.1" class="st9" width="8.5" height="195.4"></rect> <rect x="157.2" y="68.7" class="st10" width="8.5" height="139.7"></rect> <rect x="474" y="210.9" class="st11" width="8.5" height="40.5"></rect> <rect x="141.5" y="56.1" class="st8" width="8.5" height="195.4"></rect> <rect x="141.5" y="68.7" class="st12" width="8.5" height="139.7"></rect> <rect x="458.3" y="210.9" class="st9" width="8.5" height="40.5"></rect> <rect x="173.6" y="56.1" class="st11" width="6.4" height="195.4"></rect> <rect x="173.6" y="68.6" class="st13" width="6.4" height="139.8"></rect> <rect x="195.9" y="56.4" class="st14" width="6.4" height="195.4"></rect> <rect x="195.9" y="68.7" class="st15" width="6.4" height="139.7"></rect> <rect x="490.4" y="210.9" class="st16" width="6.4" height="40.5"></rect> <rect x="186.3" y="56.1" class="st16" width="4.2" height="195.4"></rect> <rect x="186.3" y="68.7" class="st17" width="4.2" height="139.7"></rect> <rect x="503.1" y="210.9" class="st14" width="4.2" height="40.5"></rect> <path class="st18" d="M407.1,87.4V56.6h3.4v2.9c0.8-1.1,1.7-2,2.7-2.5c1-0.6,2.3-0.8,3.7-0.8c1.9,0,3.6,0.5,5,1.5 c1.5,1,2.5,2.4,3.3,4.1c0.7,1.8,1.1,3.7,1.1,5.8c0,2.3-0.4,4.3-1.2,6.1c-0.8,1.8-2,3.2-3.6,4.2c-1.5,1-3.2,1.5-4.9,1.5 c-1.3,0-2.4-0.3-3.4-0.8c-1-0.5-1.8-1.2-2.5-2v10.9H407.1z M410.6,67.9c0,2.9,0.6,5,1.7,6.3c1.2,1.4,2.6,2,4.2,2 c1.7,0,3.1-0.7,4.3-2.1c1.2-1.4,1.8-3.6,1.8-6.6c0-2.8-0.6-4.9-1.7-6.4c-1.2-1.4-2.6-2.1-4.2-2.1c-1.6,0-3,0.8-4.2,2.2 C411.2,62.8,410.6,65,410.6,67.9 M446.2,71.7l3.9,0.5c-0.6,2.3-1.7,4-3.4,5.3c-1.7,1.2-3.8,1.9-6.4,1.9c-3.2,0-5.8-1-7.7-3 c-1.9-2-2.9-4.8-2.9-8.4c0-3.7,1-6.6,2.9-8.7c1.9-2.1,4.4-3.1,7.5-3.1c3,0,5.4,1,7.3,3c1.9,2,2.8,4.9,2.8,8.5c0,0.2,0,0.6,0,1 h-16.6c0.1,2.4,0.8,4.3,2.1,5.6c1.2,1.3,2.8,1.9,4.6,1.9c1.4,0,2.6-0.4,3.5-1.1C444.8,74.4,445.6,73.3,446.2,71.7 M433.8,65.6h12.4 c-0.2-1.9-0.6-3.3-1.4-4.2c-1.2-1.5-2.8-2.2-4.7-2.2c-1.7,0-3.2,0.6-4.4,1.7C434.6,62.1,433.9,63.7,433.8,65.6 M454.8,87.4V56.6 h3.4v2.9c0.8-1.1,1.7-2,2.7-2.5c1-0.6,2.3-0.8,3.7-0.8c1.9,0,3.6,0.5,5,1.5c1.5,1,2.5,2.4,3.3,4.1c0.7,1.8,1.1,3.7,1.1,5.8 c0,2.3-0.4,4.3-1.2,6.1c-0.8,1.8-2,3.2-3.6,4.2c-1.5,1-3.2,1.5-4.9,1.5c-1.3,0-2.4-0.3-3.4-0.8c-1-0.5-1.8-1.2-2.5-2v10.9H454.8z M458.3,67.9c0,2.9,0.6,5,1.7,6.3c1.2,1.4,2.6,2,4.2,2c1.7,0,3.1-0.7,4.3-2.1c1.2-1.4,1.8-3.6,1.8-6.6c0-2.8-0.6-4.9-1.7-6.4 c-1.2-1.4-2.6-2.1-4.2-2.1c-1.6,0-3,0.8-4.2,2.2C458.9,62.8,458.3,65,458.3,67.9 M486.9,75.5l0.5,3.3c-1.1,0.2-2,0.3-2.8,0.3 c-1.4,0-2.4-0.2-3.2-0.6c-0.8-0.4-1.3-1-1.6-1.7c-0.3-0.7-0.5-2.2-0.5-4.5V59.5h-2.8v-2.9h2.8v-5.5l3.8-2.3v7.8h3.8v2.9h-3.8v13 c0,1.1,0.1,1.8,0.2,2.1l0.6,0.7c0.3,0.2,0.7,0.3,1.3,0.3C485.7,75.7,486.2,75.6,486.9,75.5 M489.2,67.7c0-4.1,1.1-7.2,3.4-9.1 c1.9-1.6,4.2-2.5,7-2.5c3.1,0,5.6,1,7.5,3c1.9,2,2.9,4.8,2.9,8.3c0,2.9-0.4,5.1-1.3,6.7c-0.9,1.6-2.1,2.9-3.8,3.8 c-1.6,0.9-3.4,1.4-5.4,1.4c-3.1,0-5.6-1-7.6-3C490.2,74.4,489.2,71.5,489.2,67.7 M493.1,67.7c0,2.8,0.6,5,1.9,6.4 c1.2,1.4,2.8,2.1,4.7,2.1c1.9,0,3.4-0.7,4.7-2.1c1.2-1.4,1.9-3.6,1.9-6.5c0-2.7-0.6-4.8-1.9-6.2c-1.3-1.4-2.8-2.1-4.7-2.1 c-1.9,0-3.5,0.7-4.7,2.1C493.7,62.8,493.1,64.9,493.1,67.7"></path> <path class="st19" d="M141.9,186.8l-31.1-82.5h15l17.6,49.4c1.9,5.3,3.7,10.9,5.3,16.6c1.2-4.3,3-9.6,5.2-15.7l18.3-50.3h14.4 l-31.2,82.5H141.9z M198.9,73h14v15.9h-14V73z M198.9,104.3h14v82.5h-14V104.3z M288,156.6l13.7,1.9c-1.5,9.4-5.3,16.7-11.5,22.1 c-6.2,5.3-13.8,8-22.8,8c-11.3,0-20.3-3.7-27.1-11c-6.9-7.4-10.3-17.9-10.3-31.6c0-8.9,1.5-16.7,4.4-23.3c2.9-6.6,7.4-11.7,13.5-15 c6-3.3,12.6-5,19.7-5c8.9,0,16.3,2.3,21.9,6.8c5.7,4.5,9.4,11,10.9,19.3l-13.5,2.1c-1.3-5.5-3.6-9.7-6.9-12.5 c-3.3-2.8-7.3-4.2-11.9-4.2c-7,0-12.8,2.5-17.2,7.6c-4.4,5.1-6.6,13-6.6,23.9c0,11.1,2.1,19.1,6.4,24.1c4.3,5,9.8,7.5,16.6,7.5 c5.5,0,10.1-1.7,13.7-5C284.7,168.8,287.1,163.6,288,156.6 M313.6,73h14v15.9h-14V73z M313.6,104.3h14v82.5h-14V104.3z M348.9,186.8v-82.5h12.6v11.7c6-9,14.8-13.5,26.2-13.5c5,0,9.5,0.9,13.7,2.7c4.2,1.8,7.3,4.1,9.4,7c2.1,2.9,3.5,6.3,4.3,10.3 c0.5,2.6,0.8,7.1,0.8,13.6v50.6h-14v-50.1c0-5.7-0.5-10-1.6-12.8c-1.1-2.8-3-5.1-5.8-6.8c-2.8-1.7-6-2.5-9.7-2.5 c-5.9,0-11,1.9-15.4,5.7c-4.3,3.8-6.5,10.9-6.5,21.5v45H348.9z M432.1,145.6c0-15.2,4.2-26.5,12.7-33.9c7.1-6.1,15.7-9.1,25.9-9.1 c11.3,0,20.6,3.7,27.8,11.1c7.2,7.4,10.8,17.6,10.8,30.7c0,10.6-1.6,18.9-4.8,25c-3.2,6.1-7.8,10.8-13.9,14.1 c-6.1,3.4-12.7,5-19.9,5c-11.5,0-20.9-3.7-28-11.1C435.6,170.1,432.1,159.5,432.1,145.6 M446.4,145.6c0,10.5,2.3,18.4,6.9,23.7 c4.6,5.2,10.4,7.9,17.5,7.9c6.9,0,12.7-2.6,17.3-7.9c4.6-5.3,6.9-13.3,6.9-24.1c0-10.2-2.3-17.9-7-23.1c-4.6-5.2-10.4-7.9-17.3-7.9 c-7,0-12.8,2.6-17.5,7.8C448.7,127.2,446.4,135.1,446.4,145.6"></path> </g> </svg> 