<?xml version="1.0" encoding="UTF-8"?> <!-- Generator: Adobe Illustrator 26.5.0, SVG Export Plug-In . SVG Version: 6.00 Build 0) --> <svg xmlns="http://www.w3.org/2000/svg" xmlns:xlink="http://www.w3.org/1999/xlink" id="Layer_1" x="0px" y="0px" viewBox="0 0 556.7 328" style="enable-background:new 0 0 556.7 328;" xml:space="preserve"> <style type="text/css"> .st0{fill:#A8302D;} .st1{fill:#000201;} </style> <g id="Layer_2_00000087401020670664832880000010286852154877068940_"> <g id="Layer_5"> <path class="st0" d="M6.6,214.6h59.4v18H28.6v22.2h34.9v17.9H28.6v39.1h-22L6.6,214.6z"></path> <path class="st0" d="M104.5,214.6v97.1H82.5v-97.1H104.5z"></path> <path class="st0" d="M123.5,215.9c5.8-1.1,17.4-2,28.4-2c13.4,0,21.6,1.3,28.7,5.5c7.2,3.6,11.7,11,11.7,19 c0,8.6-5.1,16.7-16,20.8v0.3c11.1,3,19.3,11.4,19.3,23.9c0,8.1-3.7,15.7-10.1,20.6c-7.1,5.6-18.9,8.8-38.2,8.8 c-7.9,0.1-15.9-0.4-23.8-1.5L123.5,215.9z M145.3,253h7.2c11.5,0,17.7-4.8,17.7-12s-5.6-11.2-15.6-11.2c-3.1,0-6.3,0.1-9.4,0.6 V253z M145.3,296.1c2.8,0.3,5.7,0.4,8.5,0.3c9.9,0,18.7-3.7,18.7-14c0-9.8-8.8-13.7-19.8-13.7h-7.5V296.1z"></path> <path class="st0" d="M210.5,215.9c9.7-1.4,19.5-2.1,29.2-2c14.4,0,24.5,2.2,31.4,7.6c5.8,4.6,8.9,11.4,8.9,20.3 c0,12.4-8.8,20.9-17.1,23.9v0.4c6.8,2.7,10.5,9.2,13,18.2c3,11,6.1,23.6,7.9,27.4h-22.5c-1.6-2.7-3.9-10.7-6.8-22.6 c-2.6-12.1-6.8-15.4-15.7-15.6h-6.6v38.2h-21.8V215.9z M232.3,257.7h8.6c10.9,0,17.4-5.5,17.4-14c0-8.9-6-13.4-16.1-13.5 c-3.3-0.1-6.7,0.2-9.9,0.7L232.3,257.7z"></path> <path class="st0" d="M384.2,262.1c0,31.8-19.3,51.1-47.7,51.1c-28.8,0-45.7-21.8-45.7-49.4c0-29.1,18.6-50.9,47.2-50.9 C368,213,384.2,235.3,384.2,262.1z M314.1,263.4c0,19,8.9,32.4,23.6,32.4s23.3-14.1,23.3-33c0-17.4-8.4-32.4-23.5-32.4 C322.7,230.4,314.1,244.6,314.1,263.4z"></path> <path class="st1" d="M399.6,209.4h12.7v102.3h-12.7V209.4z"></path> <path class="st1" d="M447.7,222.4c0.1,4.3-3,7.8-8.1,7.8c-4.2,0-7.6-3.3-7.6-7.5c0-0.1,0-0.2,0-0.3c-0.1-4.3,3.3-7.8,7.5-7.9 c0.1,0,0.3,0,0.4,0C444.7,214.4,447.7,217.9,447.7,222.4z M433.6,311.7V242h12.7v69.7H433.6z"></path> <path class="st1" d="M468.6,311.7v-60.1h-9.8V242h9.8v-3.3c0-9.8,2.2-18.7,8.1-24.3c4.6-4.3,10.7-6.6,17-6.5c3.7,0,7.4,0.7,10.8,2 l-1.7,9.8c-2.5-1.1-5.3-1.7-8.1-1.6c-10.8,0-13.5,9.5-13.5,20.2v3.8H498v9.6h-16.9v60.1H468.6z"></path> <path class="st1" d="M526.2,221.9v20h18.2v9.6h-18.2v37.6c0,8.6,2.5,13.5,9.5,13.5c2.5,0,4.9-0.3,7.3-0.9l0.6,9.5 c-3.6,1.3-7.4,1.9-11.2,1.7c-5.9,0-10.7-1.9-13.7-5.3c-3.6-3.7-4.9-9.9-4.9-18.1v-38H503V242h10.8v-16.8L526.2,221.9z"></path> <polygon points="171.9,182.4 282.6,83.7 283.8,85 173,183.7 "></polygon> <path d="M423.8,49.5l-31,27.3c-0.5-0.6-1-1.2-1.5-1.8c1.9-1.7,3.9-3.4,5.8-5.1c-9.5-10.7-18.9-21.4-28.4-32.1l-5.8,5.2 c-0.5-0.6-1-1.1-1.5-1.7c4.8-4.2,9.6-8.5,14.5-12.8c3.6-3.2,6.9-6.8,9.8-10.7l30.9,35l5.7-5C422.7,48.4,423.2,49,423.8,49.5 M358.3,3.2c1.9-1.9,4.5-3.1,7.2-3.2c2.5,0,4.8,1.2,6.4,3.1c1.9,2.1,2.4,5.1,1.5,8.8c-0.9,3.8-3.1,7.2-6.1,9.8 c-1.9,1.9-4.5,3.1-7.2,3.3c-2.3,0.2-4.6-0.8-6.1-2.6c-2.1-2.3-2.7-5.4-1.9-9.2C353,9.3,355.2,5.8,358.3,3.2z M389.5,79.7 c-9.5,8.3-18.9,16.7-28.4,25.1l-28.4,25c-0.6-0.7-1.2-1.3-1.8-2c2.3-2,4.6-4,6.9-6c-7.9-8.9-15.7-17.8-23.6-26.7 s-15.7-17.8-23.6-26.7l-6.8,6c-0.6-0.7-1.2-1.3-1.8-2c6.5-5.8,13.1-11.6,19.6-17.3l19.6-17.3c0.6,0.7,1.2,1.3,1.8,2l-7.5,6.6 c7.9,8.9,15.7,17.8,23.6,26.7c7.9,8.9,15.7,17.8,23.6,26.7c5.3-5.6,8.9-12.7,10-20.4c1.2-7.6-0.3-14-4.4-19.3l2-1.8 C376.8,65.4,383.2,72.6,389.5,79.7z"></path> <polygon points="282.2,84.7 318.5,126.2 317.2,127.3 280.9,85.8 "></polygon> <rect x="277.1" y="83.1" class="st0" width="8.8" height="8.8"></rect> <path d="M269.8,27.8l-7.9-8.6c-1.6-1.7-2.9-2.6-4-2.6s-2.6,0.8-4.4,2.5l-2,1.9l15.7,17.2l1.1-1c2.1-2,3.3-3.6,3.4-4.9 S271.3,29.4,269.8,27.8 M308.6,28.5c3.7,5.9,3,11.2-2.1,15.9c-1.8,1.8-4,3.2-6.2,4.3c-1.8,0.9-3.8,1.2-5.8,1c-2-0.2-3.9-1-5.6-2.1 c-1.8-1.2-5.2-4.5-10.2-10c-1.4-1.6-2.7-2.3-3.8-2.4s-2.5,0.7-4.1,2.2c-1,0.9-1.7,1.6-2.2,2.1l17.7,19.3l4.1-3.8l1.3,1.4L264.9,81 l-1.3-1.4l4.8-4.4l-34.7-38l-4.8,4.4l-1.3-1.4l33.9-31c5.3-4.9,9.7-7.1,13-6.6c3.3,0.5,6.3,2.1,8.6,4.6c2,2.1,3.3,4.8,3.7,7.7 c0.3,2.9-0.4,5.9-1.9,8.4c3.7-1.6,6.6-2.1,8.6-1.6c2.4,0.8,4.4,2.2,6,4.1l5.5,6.4c1.1,1.2,1.8,1.5,2.3,1c0.3-0.4,0.4-1,0.3-1.5 c-0.1-0.8-0.4-1.6-0.8-2.3L308.6,28.5z M259,86.4l-40.7,37.2l-1.3-1.4l4.7-4.3l-34.7-38l-4.6,4.2l-1.3-1.4l39.4-36l11.7,12.8 l-1.4,1.3c-3-2.8-6.9-4.4-11-4.4c-4.6-0.2-9.3,2-14.3,6.6l-0.7,0.7l16.2,17.7l1.3-1.2c1.9-1.7,2.9-4.2,2.9-6.7 c0.1-2.8-1.4-6-4.6-9.4l1.3-1.2l18.6,20.3l-1.3,1.2c-2.7-2.9-5.5-4.6-8.4-5c-2.6-0.4-5.3,0.4-7.3,2.2l-1.3,1.1l17.2,18.8 c4.1-3.6,6.9-8.5,7.9-13.9c0.9-5.3-0.4-10.8-3.4-15.3l1.3-1.2L259,86.4z M188.1,137.9L164,111.5c-2.2-2.4-3.9-3.8-5-4.1 s-2.7,0.5-4.9,2.5l-3.1,2.8l34.7,38l2.5-2.3c2-1.8,3-3.4,3.1-4.9C191.3,142.2,190.2,140.3,188.1,137.9z M127.2,131.9l30.9-28.2 c6.7-6.1,13.5-8.3,20.4-6.7c6.5,1.3,12.4,4.7,16.9,9.5c4.6,5.1,7.5,11.5,8.3,18.4c1.1,6.9-1.5,13.9-6.8,18.4l-32.3,29.5l-1.3-1.4 l4.7-4.3l-34.7-38l-4.7,4.3L127.2,131.9z"></path> </g> </g> </svg> 