<?xml version="1.0" encoding="UTF-8"?> <svg xmlns="http://www.w3.org/2000/svg" width="851" height="1162" viewBox="0 0 851 1162" fill="none"> <path d="M472.371 56.5602H464.091V71.8002H472.371C475.331 71.8002 477.491 71.0802 478.851 69.6402C480.291 68.2002 481.011 66.3602 481.011 64.1202C481.011 59.0802 478.131 56.5602 472.371 56.5602ZM464.091 46.3602H473.571C480.211 46.3602 485.331 47.8802 488.931 50.9202C492.611 53.9602 494.451 58.3602 494.451 64.1202C494.451 69.5602 492.651 73.9202 489.051 77.2002C485.451 80.4002 480.491 82.0002 474.171 82.0002H450.651V24.5202H464.091V46.3602ZM504.411 82.0002V24.5202H517.851V82.0002H504.411Z" fill="white"></path> <path d="M441.585 24.5202V36.1602H425.985V82.0002H412.665V36.1602H396.945V24.5202H441.585Z" fill="white"></path> <path d="M341.198 82.0002V24.5202H354.638V49.9602L378.638 24.5202H394.358L368.678 51.7602L395.078 82.0002H378.758L354.638 53.9202V82.0002H341.198Z" fill="white"></path> <path d="M325.536 24.5202V82.0002H312.456V74.6802H312.096C307.056 80.9202 300.496 84.0402 292.416 84.0402C285.296 84.0402 278.896 81.3202 273.216 75.8802C267.616 70.3602 264.816 62.8002 264.816 53.2002C264.816 44.2402 267.576 36.9202 273.096 31.2402C278.616 25.5602 285.376 22.7202 293.376 22.7202C301.056 22.7202 307.336 25.9202 312.216 32.3202H312.456V24.5202H325.536ZM278.616 53.2002C278.616 58.4002 280.096 62.8802 283.056 66.6402C286.096 70.4002 290.416 72.2802 296.016 72.2802C300.576 72.2802 304.536 70.5202 307.896 67.0002C311.336 63.4002 313.056 58.9202 313.056 53.5602C313.056 47.8802 311.416 43.2402 308.136 39.6402C304.936 36.0402 300.936 34.2402 296.136 34.2402C290.536 34.2402 286.216 36.1202 283.176 39.8802C280.136 43.6402 278.616 48.0802 278.616 53.2002Z" fill="white"></path> <path d="M259.71 24.5202V36.1602H244.11V82.0002H230.79V36.1602H215.07V24.5202H259.71Z" fill="white"></path> <path d="M205.926 24.5202V82.0002H192.486V57.6402H165.966V82.0002H152.526V24.5202H165.966V46.3602H192.486V24.5202H205.926Z" fill="white"></path> <path d="M79.3086 53.2002C79.3086 44.4002 82.2286 37.1202 88.0686 31.3602C93.9886 25.5202 101.309 22.6002 110.029 22.6002C118.989 22.6002 126.349 25.5202 132.109 31.3602C137.869 37.1202 140.749 44.4002 140.749 53.2002C140.749 61.7602 137.829 69.0402 131.989 75.0402C126.149 81.0402 118.829 84.0402 110.029 84.0402C101.309 84.0402 93.9886 81.0802 88.0686 75.1602C82.2286 69.2402 79.3086 61.9202 79.3086 53.2002ZM97.6686 39.7602C94.5486 43.2802 92.9886 47.7602 92.9886 53.2002C92.9886 58.6402 94.6286 63.1602 97.9086 66.7602C101.269 70.2802 105.309 72.0402 110.029 72.0402C115.069 72.0402 119.189 70.2802 122.389 66.7602C125.589 63.1602 127.189 58.6402 127.189 53.2002C127.189 47.9202 125.629 43.4802 122.509 39.8802C119.389 36.2802 115.229 34.4802 110.029 34.4802C104.909 34.4802 100.789 36.2402 97.6686 39.7602Z" fill="white"></path> <path d="M59.0399 82.0002L22.6799 42.8802V82.0002H8.51987V0.160156H22.6799V38.3202L58.3199 0.160156H75.9599L37.4399 39.7602L77.3999 82.0002H59.0399Z" fill="white"></path> <path d="M213.698 813.51V766.386H220.892V770.412H221.09C223.95 767.068 227.58 765.396 231.98 765.396C236.16 765.396 239.724 766.98 242.672 770.148C245.62 773.272 247.094 777.32 247.094 782.292C247.094 787.176 245.576 791.202 242.54 794.37C239.548 797.538 235.896 799.122 231.584 799.122C227.272 799.122 223.796 797.472 221.156 794.172H220.958V813.51H213.698ZM239.504 782.226C239.504 779.366 238.668 776.924 236.996 774.9C235.324 772.876 232.97 771.864 229.934 771.864C227.294 771.864 225.072 772.832 223.268 774.768C221.508 776.704 220.628 779.234 220.628 782.358C220.628 785.35 221.53 787.836 223.334 789.816C225.182 791.752 227.404 792.72 230 792.72C232.992 792.72 235.324 791.686 236.996 789.618C238.668 787.506 239.504 785.042 239.504 782.226Z" fill="white"></path> <path d="M205.084 766.386V798H197.89V793.974H197.692C194.92 797.406 191.312 799.122 186.868 799.122C182.952 799.122 179.432 797.626 176.308 794.634C173.228 791.598 171.688 787.44 171.688 782.16C171.688 777.232 173.206 773.206 176.242 770.082C179.278 766.958 182.996 765.396 187.396 765.396C191.62 765.396 195.074 767.156 197.758 770.676H197.89V766.386H205.084ZM179.278 782.16C179.278 785.02 180.092 787.484 181.72 789.552C183.392 791.62 185.768 792.654 188.848 792.654C191.356 792.654 193.534 791.686 195.382 789.75C197.274 787.77 198.22 785.306 198.22 782.358C198.22 779.234 197.318 776.682 195.514 774.702C193.754 772.722 191.554 771.732 188.914 771.732C185.834 771.732 183.458 772.766 181.786 774.834C180.114 776.902 179.278 779.344 179.278 782.16Z" fill="white"></path> <path d="M140.802 798V766.386H154.068C157.456 766.386 160.074 767.068 161.922 768.432C163.77 769.752 164.694 771.644 164.694 774.108C164.694 775.648 164.254 777.034 163.374 778.266C162.494 779.454 161.174 780.29 159.414 780.774C162.01 781.258 163.902 782.204 165.09 783.612C166.322 785.02 166.938 786.67 166.938 788.562C166.938 791.422 165.904 793.71 163.836 795.426C161.812 797.142 158.974 798 155.322 798H140.802ZM153.936 784.008H147.798V792.852H154.596C156.356 792.852 157.654 792.434 158.49 791.598C159.37 790.762 159.81 789.706 159.81 788.43C159.81 785.482 157.852 784.008 153.936 784.008ZM152.814 771.534H147.798V778.992H152.286C155.85 778.992 157.632 777.694 157.632 775.098C157.632 772.722 156.026 771.534 152.814 771.534Z" fill="white"></path> <path d="M122.197 784.008H117.643V792.39H122.197C123.825 792.39 125.013 791.994 125.761 791.202C126.553 790.41 126.949 789.398 126.949 788.166C126.949 785.394 125.365 784.008 122.197 784.008ZM117.643 778.398H122.857C126.509 778.398 129.325 779.234 131.305 780.906C133.329 782.578 134.341 784.998 134.341 788.166C134.341 791.158 133.351 793.556 131.371 795.36C129.391 797.12 126.663 798 123.187 798H110.251V766.386H117.643V778.398Z" fill="white"></path> <path d="M74.5948 787.638L76.5089 766.386H101.655V798H94.3288V772.788H82.8448L81.3928 788.496C81.0408 792.104 80.1608 794.678 78.7528 796.218C77.3448 797.714 75.1228 798.462 72.0868 798.462C71.2068 798.462 70.1508 798.33 68.9188 798.066V791.994C69.6228 792.17 70.3488 792.258 71.0968 792.258C72.2408 792.258 73.0768 791.884 73.6048 791.136C74.1328 790.388 74.4628 789.222 74.5948 787.638Z" fill="white"></path> <path d="M68.381 766.386L51.023 813.51H43.961L49.769 797.868L38.219 766.386H45.809L51.287 782.094C52.431 785.57 53.135 787.99 53.399 789.354H53.597C54.213 786.89 54.917 784.47 55.709 782.094L61.055 766.386H68.381Z" fill="white"></path> <path d="M9.83383 782.16C9.83383 785.152 10.7358 787.638 12.5398 789.618C14.3878 791.554 16.6318 792.522 19.2718 792.522C22.0438 792.522 24.2878 791.554 26.0038 789.618C27.7638 787.638 28.6438 785.152 28.6438 782.16C28.6438 779.256 27.8078 776.814 26.1358 774.834C24.4638 772.854 22.2198 771.864 19.4038 771.864C16.5878 771.864 14.2778 772.854 12.4738 774.834C10.7138 776.77 9.83383 779.212 9.83383 782.16ZM22.9678 759.456C15.4438 760.6 11.1978 763.988 10.2298 769.62H10.4278C11.4838 768.432 12.8918 767.464 14.6518 766.716C16.4558 765.924 18.3038 765.528 20.1958 765.528C24.9478 765.528 28.7978 767.09 31.7458 770.214C34.6938 773.338 36.1678 777.32 36.1678 782.16C36.1678 786.868 34.5618 790.872 31.3498 794.172C28.1378 797.472 24.1118 799.122 19.2718 799.122C14.2558 799.122 10.2078 797.428 7.12783 794.04C4.04783 790.608 2.50783 785.812 2.50783 779.652C2.50783 776.044 2.81583 772.832 3.43183 770.016C4.09183 767.2 4.97183 764.846 6.07183 762.954C7.17183 761.018 8.53583 759.368 10.1638 758.004C11.8358 756.64 13.5958 755.584 15.4438 754.836C17.3358 754.088 19.4698 753.516 21.8458 753.12C25.1898 752.504 28.0498 751.47 30.4258 750.018L33.3958 756.09C30.2278 757.85 26.7518 758.972 22.9678 759.456Z" fill="white"></path> <path d="M786.815 725V693.386H793.943V705.53C793.943 709.446 793.877 712.68 793.745 715.232H793.877C794.537 714 795.989 711.844 798.233 708.764L809.651 693.386H816.185V725H809.057V712.922C809.057 709.006 809.123 705.75 809.255 703.154H809.123C808.419 704.43 806.967 706.586 804.767 709.622L793.349 725H786.815ZM807.209 677.414H812.489C812.313 680.406 811.213 682.848 809.189 684.74C807.165 686.632 804.679 687.578 801.731 687.578C798.651 687.578 796.121 686.654 794.141 684.806C792.205 682.914 791.171 680.45 791.039 677.414H796.253C796.385 678.866 796.935 680.01 797.903 680.846C798.871 681.682 800.147 682.1 801.731 682.1C803.271 682.1 804.547 681.682 805.559 680.846C806.571 679.966 807.121 678.822 807.209 677.414Z" fill="white"></path> <path d="M748.852 725V693.386H755.98V705.53C755.98 709.446 755.914 712.68 755.782 715.232H755.914C756.574 714 758.026 711.844 760.27 708.764L771.688 693.386H778.222V725H771.094V712.922C771.094 709.006 771.16 705.75 771.292 703.154H771.16C770.456 704.43 769.004 706.586 766.804 709.622L755.386 725H748.852Z" fill="white"></path> <path d="M714.628 725V693.386H722.02V707.378L735.22 693.386H743.866L729.742 708.368L744.262 725H735.286L722.02 709.556V725H714.628Z" fill="white"></path> <path d="M693.186 692.33C697.322 692.33 700.644 693.408 703.152 695.564C705.66 697.72 707.2 700.162 707.772 702.89H700.182C699.038 700.03 696.684 698.6 693.12 698.6C690.392 698.6 688.17 699.546 686.454 701.438C684.782 703.33 683.946 705.904 683.946 709.16C683.946 712.196 684.804 714.726 686.52 716.75C688.28 718.774 690.568 719.786 693.384 719.786C696.86 719.786 699.28 718.202 700.644 715.034H708.3C707.332 718.246 705.594 720.908 703.086 723.02C700.622 725.088 697.344 726.122 693.252 726.122C688.412 726.122 684.386 724.56 681.174 721.436C677.962 718.268 676.356 714.154 676.356 709.094C676.356 704.342 677.896 700.36 680.976 697.148C684.056 693.936 688.126 692.33 693.186 692.33Z" fill="white"></path> <path d="M669.941 693.386V725H662.549V711.602H647.963V725H640.571V693.386H647.963V705.398H662.549V693.386H669.941Z" fill="white"></path> <path d="M618.08 692.33C623.184 692.374 627.1 694.046 629.828 697.346C632.6 700.602 633.986 704.452 633.986 708.896C633.986 709.908 633.942 710.634 633.854 711.074H609.434C609.434 713.538 610.358 715.694 612.206 717.542C614.098 719.39 616.32 720.314 618.872 720.314C621.82 720.314 624.174 719.126 625.934 716.75H633.524C632.336 719.478 630.51 721.722 628.046 723.482C625.626 725.242 622.568 726.122 618.872 726.122C613.988 726.122 609.962 724.516 606.794 721.304C603.626 718.048 602.042 713.912 602.042 708.896C602.042 704.276 603.494 700.36 606.398 697.148C609.346 693.936 613.24 692.33 618.08 692.33ZM618.08 697.874C615.66 697.874 613.68 698.644 612.14 700.184C610.6 701.724 609.72 703.572 609.5 705.728H626.594C626.374 703.528 625.472 701.68 623.888 700.184C622.348 698.644 620.412 697.874 618.08 697.874Z" fill="white"></path> <path d="M599.233 693.386V699.788H590.653V725H583.327V699.788H574.681V693.386H599.233Z" fill="white"></path> <path d="M555.753 692.33C560.857 692.374 564.773 694.046 567.501 697.346C570.273 700.602 571.659 704.452 571.659 708.896C571.659 709.908 571.615 710.634 571.527 711.074H547.107C547.107 713.538 548.031 715.694 549.879 717.542C551.771 719.39 553.993 720.314 556.545 720.314C559.493 720.314 561.847 719.126 563.607 716.75H571.197C570.009 719.478 568.183 721.722 565.719 723.482C563.299 725.242 560.241 726.122 556.545 726.122C551.661 726.122 547.635 724.516 544.467 721.304C541.299 718.048 539.715 713.912 539.715 708.896C539.715 704.276 541.167 700.36 544.071 697.148C547.019 693.936 550.913 692.33 555.753 692.33ZM555.753 697.874C553.333 697.874 551.353 698.644 549.813 700.184C548.273 701.724 547.393 703.572 547.173 705.728H564.267C564.047 703.528 563.145 701.68 561.561 700.184C560.021 698.644 558.085 697.874 555.753 697.874Z" fill="white"></path> <path d="M502.061 740.51V693.386H509.255V697.412H509.453C512.313 694.068 515.943 692.396 520.343 692.396C524.523 692.396 528.087 693.98 531.035 697.148C533.983 700.272 535.457 704.32 535.457 709.292C535.457 714.176 533.939 718.202 530.903 721.37C527.911 724.538 524.259 726.122 519.947 726.122C515.635 726.122 512.159 724.472 509.519 721.172H509.321V740.51H502.061ZM527.867 709.226C527.867 706.366 527.031 703.924 525.359 701.9C523.687 699.876 521.333 698.864 518.297 698.864C515.657 698.864 513.435 699.832 511.631 701.768C509.871 703.704 508.991 706.234 508.991 709.358C508.991 712.35 509.893 714.836 511.697 716.816C513.545 718.752 515.767 719.72 518.363 719.72C521.355 719.72 523.687 718.686 525.359 716.618C527.031 714.506 527.867 712.042 527.867 709.226Z" fill="white"></path> <path d="M472.977 678.536C478.741 678.536 483.427 680.01 487.035 682.958C490.643 685.862 492.997 689.272 494.097 693.188H485.583C484.747 690.9 483.207 689.008 480.963 687.512C478.763 686.016 476.079 685.268 472.911 685.268C468.599 685.268 464.969 686.83 462.021 689.954C459.117 693.078 457.665 697.236 457.665 702.428C457.665 707.268 459.117 711.36 462.021 714.704C464.925 718.048 468.643 719.72 473.175 719.72C476.431 719.72 479.159 718.906 481.359 717.278C483.559 715.65 485.143 713.56 486.111 711.008H494.823C493.107 715.716 490.423 719.478 486.771 722.294C483.119 725.066 478.499 726.452 472.911 726.452C466.047 726.452 460.459 724.186 456.147 719.654C451.835 715.078 449.679 709.314 449.679 702.362C449.679 695.498 451.879 689.822 456.279 685.334C460.723 680.802 466.289 678.536 472.977 678.536Z" fill="white"></path> <path d="M417.81 725V716.09H427.116V720.314C427.116 725.154 425.774 729.686 423.09 733.91H418.536C420.12 731.314 421.11 728.344 421.506 725H417.81Z" fill="white"></path> <path d="M402.321 712.79H399.747L391.893 725H383.775L392.751 712.064C390.683 711.492 389.033 710.436 387.801 708.896C386.613 707.356 386.019 705.464 386.019 703.22C386.019 700.228 387.009 697.852 388.989 696.092C391.013 694.288 393.829 693.386 397.437 693.386H409.713V725H402.321V712.79ZM398.163 707.576H402.321V698.93H398.163C396.579 698.93 395.391 699.348 394.599 700.184C393.807 700.976 393.411 701.988 393.411 703.22C393.411 706.124 394.995 707.576 398.163 707.576Z" fill="white"></path> <path d="M378.527 693.386V725H371.333V720.974H371.135C368.363 724.406 364.755 726.122 360.311 726.122C356.395 726.122 352.875 724.626 349.751 721.634C346.671 718.598 345.131 714.44 345.131 709.16C345.131 704.232 346.649 700.206 349.685 697.082C352.721 693.958 356.439 692.396 360.839 692.396C365.063 692.396 368.517 694.156 371.201 697.676H371.333V693.386H378.527ZM352.721 709.16C352.721 712.02 353.535 714.484 355.163 716.552C356.835 718.62 359.211 719.654 362.291 719.654C364.799 719.654 366.977 718.686 368.825 716.75C370.717 714.77 371.663 712.306 371.663 709.358C371.663 706.234 370.761 703.682 368.957 701.702C367.197 699.722 364.997 698.732 362.357 698.732C359.277 698.732 356.901 699.766 355.229 701.834C353.557 703.902 352.721 706.344 352.721 709.16Z" fill="white"></path> <path d="M313.085 725V693.386H320.477V707.378L333.677 693.386H342.323L328.199 708.368L342.719 725H333.743L320.477 709.556V725H313.085Z" fill="white"></path> <path d="M291.643 692.33C295.779 692.33 299.101 693.408 301.609 695.564C304.117 697.72 305.657 700.162 306.229 702.89H298.639C297.495 700.03 295.141 698.6 291.577 698.6C288.849 698.6 286.627 699.546 284.911 701.438C283.239 703.33 282.403 705.904 282.403 709.16C282.403 712.196 283.261 714.726 284.977 716.75C286.737 718.774 289.025 719.786 291.841 719.786C295.317 719.786 297.737 718.202 299.101 715.034H306.757C305.789 718.246 304.051 720.908 301.543 723.02C299.079 725.088 295.801 726.122 291.709 726.122C286.869 726.122 282.843 724.56 279.631 721.436C276.419 718.268 274.813 714.154 274.813 709.094C274.813 704.342 276.353 700.36 279.433 697.148C282.513 693.936 286.583 692.33 291.643 692.33Z" fill="white"></path> <path d="M243.927 725V693.386H257.193C260.581 693.386 263.199 694.068 265.047 695.432C266.895 696.752 267.819 698.644 267.819 701.108C267.819 702.648 267.379 704.034 266.499 705.266C265.619 706.454 264.299 707.29 262.539 707.774C265.135 708.258 267.027 709.204 268.215 710.612C269.447 712.02 270.063 713.67 270.063 715.562C270.063 718.422 269.029 720.71 266.961 722.426C264.937 724.142 262.099 725 258.447 725H243.927ZM257.061 711.008H250.923V719.852H257.721C259.481 719.852 260.779 719.434 261.615 718.598C262.495 717.762 262.935 716.706 262.935 715.43C262.935 712.482 260.977 711.008 257.061 711.008ZM255.939 698.534H250.923V705.992H255.411C258.975 705.992 260.757 704.694 260.757 702.098C260.757 699.722 259.151 698.534 255.939 698.534Z" fill="white"></path> <path d="M221.435 692.33C226.539 692.374 230.455 694.046 233.183 697.346C235.955 700.602 237.341 704.452 237.341 708.896C237.341 709.908 237.297 710.634 237.209 711.074H212.789C212.789 713.538 213.713 715.694 215.561 717.542C217.453 719.39 219.675 720.314 222.227 720.314C225.175 720.314 227.529 719.126 229.289 716.75H236.879C235.691 719.478 233.865 721.722 231.401 723.482C228.981 725.242 225.923 726.122 222.227 726.122C217.343 726.122 213.317 724.516 210.149 721.304C206.981 718.048 205.397 713.912 205.397 708.896C205.397 704.276 206.849 700.36 209.753 697.148C212.701 693.936 216.595 692.33 221.435 692.33ZM221.435 697.874C219.015 697.874 217.035 698.644 215.495 700.184C213.955 701.724 213.075 703.572 212.855 705.728H229.949C229.729 703.528 228.827 701.68 227.243 700.184C225.703 698.644 223.767 697.874 221.435 697.874Z" fill="white"></path> <path d="M198.982 693.386V725H191.59V711.602H177.004V725H169.612V693.386H177.004V705.398H191.59V693.386H198.982Z" fill="white"></path> <path d="M147.121 692.33C152.225 692.374 156.141 694.046 158.869 697.346C161.641 700.602 163.027 704.452 163.027 708.896C163.027 709.908 162.983 710.634 162.895 711.074H138.475C138.475 713.538 139.399 715.694 141.247 717.542C143.139 719.39 145.361 720.314 147.913 720.314C150.861 720.314 153.215 719.126 154.975 716.75H162.565C161.377 719.478 159.551 721.722 157.087 723.482C154.667 725.242 151.609 726.122 147.913 726.122C143.029 726.122 139.003 724.516 135.835 721.304C132.667 718.048 131.083 713.912 131.083 708.896C131.083 704.276 132.535 700.36 135.439 697.148C138.387 693.936 142.281 692.33 147.121 692.33ZM147.121 697.874C144.701 697.874 142.721 698.644 141.181 700.184C139.641 701.724 138.761 703.572 138.541 705.728H155.635C155.415 703.528 154.513 701.68 152.929 700.184C151.389 698.644 149.453 697.874 147.121 697.874Z" fill="white"></path> <path d="M128.317 693.386V699.788H112.873V725H105.481V693.386H128.317Z" fill="white"></path> <path d="M65.6493 740.51V693.386H72.8433V697.412H73.0413C75.9013 694.068 79.5313 692.396 83.9313 692.396C88.1113 692.396 91.6753 693.98 94.6233 697.148C97.5713 700.272 99.0453 704.32 99.0453 709.292C99.0453 714.176 97.5273 718.202 94.4913 721.37C91.4993 724.538 87.8473 726.122 83.5353 726.122C79.2233 726.122 75.7473 724.472 73.1073 721.172H72.9093V740.51H65.6493ZM91.4553 709.226C91.4553 706.366 90.6193 703.924 88.9473 701.9C87.2753 699.876 84.9213 698.864 81.8853 698.864C79.2453 698.864 77.0233 699.832 75.2193 701.768C73.4593 703.704 72.5793 706.234 72.5793 709.358C72.5793 712.35 73.4813 714.836 75.2853 716.816C77.1333 718.752 79.3553 719.72 81.9513 719.72C84.9433 719.72 87.2753 718.686 88.9473 716.618C90.6193 714.506 91.4553 712.042 91.4553 709.226Z" fill="white"></path> <path d="M61.6134 693.386L44.2554 740.51H37.1934L43.0014 724.868L31.4514 693.386H39.0414L44.5194 709.094C45.6634 712.57 46.3674 714.99 46.6314 716.354H46.8294C47.4454 713.89 48.1494 711.47 48.9414 709.094L54.2874 693.386H61.6134Z" fill="white"></path> <path d="M11.8799 725V686.852H0.659875V679.988H30.8879V686.852H19.6679V725H11.8799Z" fill="white"></path> <path d="M516.23 652V643.09H525.536V647.314C525.536 652.154 524.194 656.686 521.51 660.91H516.956C518.54 658.314 519.53 655.344 519.926 652H516.23Z" fill="white"></path> <path d="M483.07 638.008H478.516V646.39H483.07C484.698 646.39 485.886 645.994 486.634 645.202C487.426 644.41 487.822 643.398 487.822 642.166C487.822 639.394 486.238 638.008 483.07 638.008ZM478.516 632.398H483.73C487.382 632.398 490.198 633.234 492.178 634.906C494.202 636.578 495.214 638.998 495.214 642.166C495.214 645.158 494.224 647.556 492.244 649.36C490.264 651.12 487.536 652 484.06 652H471.124V620.386H478.516V632.398ZM500.692 652V620.386H508.084V652H500.692Z" fill="white"></path> <path d="M427.283 662.23V645.598H428.009C432.321 645.598 434.895 641.11 435.731 632.134L436.853 620.386H461.075V645.598H465.827V662.23H458.567V652H434.543V662.23H427.283ZM453.683 645.598V626.788H443.057L442.463 632.728C442.111 636.38 441.649 639.13 441.077 640.978C440.505 642.826 439.669 644.366 438.569 645.598H453.683Z" fill="white"></path> <path d="M426.547 620.386L409.189 667.51H402.127L407.935 651.868L396.385 620.386H403.975L409.453 636.094C410.597 639.57 411.301 641.99 411.565 643.354H411.763C412.379 640.89 413.083 638.47 413.875 636.094L419.221 620.386H426.547Z" fill="white"></path> <path d="M360.909 667.51V620.386H368.103V624.412H368.301C371.161 621.068 374.791 619.396 379.191 619.396C383.371 619.396 386.935 620.98 389.883 624.148C392.831 627.272 394.305 631.32 394.305 636.292C394.305 641.176 392.787 645.202 389.751 648.37C386.759 651.538 383.107 653.122 378.795 653.122C374.483 653.122 371.007 651.472 368.367 648.172H368.169V667.51H360.909ZM386.715 636.226C386.715 633.366 385.879 630.924 384.207 628.9C382.535 626.876 380.181 625.864 377.145 625.864C374.505 625.864 372.283 626.832 370.479 628.768C368.719 630.704 367.839 633.234 367.839 636.358C367.839 639.35 368.741 641.836 370.545 643.816C372.393 645.752 374.615 646.72 377.211 646.72C380.203 646.72 382.535 645.686 384.207 643.618C385.879 641.506 386.715 639.042 386.715 636.226Z" fill="white"></path> <path d="M352.316 620.386V652H344.924V626.788H330.338V652H322.946V620.386H352.316Z" fill="white"></path> <path d="M283.955 619.33C289.059 619.374 292.975 621.046 295.703 624.346C298.475 627.602 299.861 631.452 299.861 635.896C299.861 636.908 299.817 637.634 299.729 638.074H275.309C275.309 640.538 276.233 642.694 278.081 644.542C279.973 646.39 282.195 647.314 284.747 647.314C287.695 647.314 290.049 646.126 291.809 643.75H299.399C298.211 646.478 296.385 648.722 293.921 650.482C291.501 652.242 288.443 653.122 284.747 653.122C279.863 653.122 275.837 651.516 272.669 648.304C269.501 645.048 267.917 640.912 267.917 635.896C267.917 631.276 269.369 627.36 272.273 624.148C275.221 620.936 279.115 619.33 283.955 619.33ZM283.955 624.874C281.535 624.874 279.555 625.644 278.015 627.184C276.475 628.724 275.595 630.572 275.375 632.728H292.469C292.249 630.528 291.347 628.68 289.763 627.184C288.223 625.644 286.287 624.874 283.955 624.874Z" fill="white"></path> <path d="M236.472 638.008H231.918V646.39H236.472C238.1 646.39 239.288 645.994 240.036 645.202C240.828 644.41 241.224 643.398 241.224 642.166C241.224 639.394 239.64 638.008 236.472 638.008ZM231.918 632.398H237.132C240.784 632.398 243.6 633.234 245.58 634.906C247.604 636.578 248.616 638.998 248.616 642.166C248.616 645.158 247.626 647.556 245.646 649.36C243.666 651.12 240.938 652 237.462 652H224.526V620.386H231.918V632.398ZM254.094 652V620.386H261.486V652H254.094Z" fill="white"></path> <path d="M219.54 620.386V626.788H210.96V652H203.634V626.788H194.988V620.386H219.54Z" fill="white"></path> <path d="M177.11 619.33C181.246 619.33 184.568 620.408 187.076 622.564C189.584 624.72 191.124 627.162 191.696 629.89H184.106C182.962 627.03 180.608 625.6 177.044 625.6C174.316 625.6 172.094 626.546 170.378 628.438C168.706 630.33 167.87 632.904 167.87 636.16C167.87 639.196 168.728 641.726 170.444 643.75C172.204 645.774 174.492 646.786 177.308 646.786C180.784 646.786 183.204 645.202 184.568 642.034H192.224C191.256 645.246 189.518 647.908 187.01 650.02C184.546 652.088 181.268 653.122 177.176 653.122C172.336 653.122 168.31 651.56 165.098 648.436C161.886 645.268 160.28 641.154 160.28 636.094C160.28 631.342 161.82 627.36 164.9 624.148C167.98 620.936 172.05 619.33 177.11 619.33Z" fill="white"></path> <path d="M124.495 652V620.386H131.623V632.53C131.623 636.446 131.557 639.68 131.425 642.232H131.557C132.217 641 133.669 638.844 135.913 635.764L147.331 620.386H153.865V652H146.737V639.922C146.737 636.006 146.803 632.75 146.935 630.154H146.803C146.099 631.43 144.647 633.586 142.447 636.622L131.029 652H124.495Z" fill="white"></path> <path d="M115.583 652H107.795V631.342H107.531C106.475 632.794 104.935 633.96 102.911 634.84C100.931 635.676 98.9294 636.094 96.9054 636.094C92.4174 636.094 88.9414 634.862 86.4774 632.398C84.0574 629.89 82.8474 626.128 82.8474 621.112V606.988H90.6354V620.452C90.6354 626.392 93.4294 629.362 99.0174 629.362C101.701 629.362 103.835 628.57 105.419 626.986C107.003 625.402 107.795 623.18 107.795 620.32V606.988H115.583V652Z" fill="white"></path> <path d="M49.4607 652V643.09H58.7667V652H49.4607Z" fill="white"></path> <path d="M38.2139 620.386L43.8899 652H37.0919L34.5178 636.688C33.9459 632.948 33.6158 630.572 33.5278 629.56H33.3298C32.7138 632.288 32.0538 634.664 31.3498 636.688L25.6738 652H19.9978L14.2558 636.358C13.2438 633.674 12.5618 631.408 12.2098 629.56H12.0118C11.6598 632.288 11.3518 634.532 11.0878 636.292L8.44785 652H1.71585L7.52385 620.386H14.9158L21.1858 637.348C21.7138 638.756 22.2418 640.648 22.7698 643.024H22.9678C23.5838 640.648 24.1338 638.734 24.6178 637.282L30.9538 620.386H38.2139Z" fill="white"></path> <path d="M850.471 547.386V553.788H841.891V579H834.565V553.788H825.919V547.386H850.471Z" fill="white"></path> <path d="M789.213 563.16C789.213 558.32 790.819 554.316 794.031 551.148C797.287 547.936 801.313 546.33 806.109 546.33C811.037 546.33 815.085 547.936 818.253 551.148C821.421 554.316 823.005 558.32 823.005 563.16C823.005 567.868 821.399 571.872 818.187 575.172C814.975 578.472 810.949 580.122 806.109 580.122C801.313 580.122 797.287 578.494 794.031 575.238C790.819 571.982 789.213 567.956 789.213 563.16ZM799.311 555.768C797.595 557.704 796.737 560.168 796.737 563.16C796.737 566.152 797.639 568.638 799.443 570.618C801.291 572.554 803.513 573.522 806.109 573.522C808.881 573.522 811.147 572.554 812.907 570.618C814.667 568.638 815.547 566.152 815.547 563.16C815.547 560.256 814.689 557.814 812.973 555.834C811.257 553.854 808.969 552.864 806.109 552.864C803.293 552.864 801.027 553.832 799.311 555.768Z" fill="white"></path> <path d="M763.183 547.386L768.859 579H762.061L759.487 563.688C758.915 559.948 758.585 557.572 758.497 556.56H758.299C757.683 559.288 757.023 561.664 756.319 563.688L750.643 579H744.967L739.225 563.358C738.213 560.674 737.531 558.408 737.179 556.56H736.981C736.629 559.288 736.321 561.532 736.057 563.292L733.417 579H726.685L732.493 547.386H739.885L746.155 564.348C746.683 565.756 747.211 567.648 747.739 570.024H747.937C748.553 567.648 749.103 565.734 749.587 564.282L755.923 547.386H763.183Z" fill="white"></path> <path d="M688.989 563.16C688.989 558.32 690.595 554.316 693.807 551.148C697.063 547.936 701.089 546.33 705.885 546.33C710.813 546.33 714.861 547.936 718.029 551.148C721.197 554.316 722.781 558.32 722.781 563.16C722.781 567.868 721.175 571.872 717.963 575.172C714.751 578.472 710.725 580.122 705.885 580.122C701.089 580.122 697.063 578.494 693.807 575.238C690.595 571.982 688.989 567.956 688.989 563.16ZM699.087 555.768C697.371 557.704 696.513 560.168 696.513 563.16C696.513 566.152 697.415 568.638 699.219 570.618C701.067 572.554 703.289 573.522 705.885 573.522C708.657 573.522 710.923 572.554 712.683 570.618C714.443 568.638 715.323 566.152 715.323 563.16C715.323 560.256 714.465 557.814 712.749 555.834C711.033 553.854 708.745 552.864 705.885 552.864C703.069 552.864 700.803 553.832 699.087 555.768Z" fill="white"></path> <path d="M656.942 579V547.386H664.334V561.378L677.534 547.386H686.18L672.056 562.368L686.576 579H677.6L664.334 563.556V579H656.942Z" fill="white"></path> <path d="M648.383 579H601.061V547.386H608.453V572.598H621.059V547.386H628.385V572.598H640.991V547.386H648.383V579Z" fill="white"></path> <path d="M578.57 546.33C583.674 546.374 587.59 548.046 590.318 551.346C593.09 554.602 594.476 558.452 594.476 562.896C594.476 563.908 594.432 564.634 594.344 565.074H569.924C569.924 567.538 570.848 569.694 572.696 571.542C574.588 573.39 576.81 574.314 579.362 574.314C582.31 574.314 584.664 573.126 586.424 570.75H594.014C592.826 573.478 591 575.722 588.536 577.482C586.116 579.242 583.058 580.122 579.362 580.122C574.478 580.122 570.452 578.516 567.284 575.304C564.116 572.048 562.532 567.912 562.532 562.896C562.532 558.276 563.984 554.36 566.888 551.148C569.836 547.936 573.73 546.33 578.57 546.33ZM578.57 551.874C576.15 551.874 574.17 552.644 572.63 554.184C571.09 555.724 570.21 557.572 569.99 559.728H587.084C586.864 557.528 585.962 555.68 584.378 554.184C582.838 552.644 580.902 551.874 578.57 551.874Z" fill="white"></path> <path d="M556.117 547.386V579H548.725V553.788H534.139V579H526.747V547.386H556.117Z" fill="white"></path> <path d="M505.26 547.386V553.788H496.68V579H489.354V553.788H480.708V547.386H505.26Z" fill="white"></path> <path d="M480.236 547.386L462.878 594.51H455.816L461.624 578.868L450.074 547.386H457.664L463.142 563.094C464.286 566.57 464.99 568.99 465.254 570.354H465.452C466.068 567.89 466.772 565.47 467.564 563.094L472.91 547.386H480.236Z" fill="white"></path> <path d="M445.838 547.386V579H438.446V565.602H423.86V579H416.468V547.386H423.86V559.398H438.446V547.386H445.838Z" fill="white"></path> <path d="M378.505 579V547.386H385.633V559.53C385.633 563.446 385.567 566.68 385.435 569.232H385.567C386.227 568 387.679 565.844 389.923 562.764L401.341 547.386H407.875V579H400.747V566.922C400.747 563.006 400.813 559.75 400.945 557.154H400.813C400.109 558.43 398.657 560.586 396.457 563.622L385.039 579H378.505Z" fill="white"></path> <path d="M366.796 547.386L372.472 579H365.674L363.1 563.688C362.528 559.948 362.198 557.572 362.11 556.56H361.912C361.296 559.288 360.636 561.664 359.932 563.688L354.256 579H348.58L342.838 563.358C341.826 560.674 341.144 558.408 340.792 556.56H340.594C340.242 559.288 339.934 561.532 339.67 563.292L337.03 579H330.298L336.106 547.386H343.498L349.768 564.348C350.296 565.756 350.824 567.648 351.352 570.024H351.55C352.166 567.648 352.716 565.734 353.2 564.282L359.536 547.386H366.796Z" fill="white"></path> <path d="M289.422 540.786L288.432 550.488C289.752 550.136 291.182 549.96 292.722 549.96C297.562 549.96 301.434 551.302 304.338 553.986C307.242 556.626 308.694 560.212 308.694 564.744C308.694 568.924 307.264 572.598 304.404 575.766C301.588 578.89 297.782 580.452 292.986 580.452C288.41 580.452 284.78 579.22 282.096 576.756C279.412 574.248 277.938 571.146 277.674 567.45H285.66C285.924 569.254 286.672 570.75 287.904 571.938C289.18 573.082 290.94 573.654 293.184 573.654C295.296 573.654 297.078 572.906 298.53 571.41C299.982 569.87 300.708 567.868 300.708 565.404C300.708 562.632 299.872 560.498 298.2 559.002C296.528 557.462 294.086 556.692 290.874 556.692C287.75 556.692 284.252 557.176 280.38 558.144L282.69 533.988H305.592V540.786H289.422Z" fill="white"></path> <path d="M244.947 579V570.09H254.253V579H244.947Z" fill="white"></path> <path d="M211.787 565.008H207.233V573.39H211.787C213.415 573.39 214.603 572.994 215.351 572.202C216.143 571.41 216.539 570.398 216.539 569.166C216.539 566.394 214.955 565.008 211.787 565.008ZM207.233 559.398H212.447C216.099 559.398 218.915 560.234 220.895 561.906C222.919 563.578 223.931 565.998 223.931 569.166C223.931 572.158 222.941 574.556 220.961 576.36C218.981 578.12 216.253 579 212.777 579H199.841V547.386H207.233V559.398ZM229.409 579V547.386H236.801V579H229.409Z" fill="white"></path> <path d="M166.776 579V547.386H180.042C183.43 547.386 186.048 548.068 187.896 549.432C189.744 550.752 190.668 552.644 190.668 555.108C190.668 556.648 190.228 558.034 189.348 559.266C188.468 560.454 187.148 561.29 185.388 561.774C187.984 562.258 189.876 563.204 191.064 564.612C192.296 566.02 192.912 567.67 192.912 569.562C192.912 572.422 191.878 574.71 189.81 576.426C187.786 578.142 184.948 579 181.296 579H166.776ZM179.91 565.008H173.772V573.852H180.57C182.33 573.852 183.628 573.434 184.464 572.598C185.344 571.762 185.784 570.706 185.784 569.43C185.784 566.482 183.826 565.008 179.91 565.008ZM178.788 552.534H173.772V559.992H178.26C181.824 559.992 183.606 558.694 183.606 556.098C183.606 553.722 182 552.534 178.788 552.534Z" fill="white"></path> <path d="M132.552 579V547.386H139.944V561.378L153.144 547.386H161.79L147.666 562.368L162.186 579H153.21L139.944 563.556V579H132.552Z" fill="white"></path> <path d="M111.11 546.33C115.246 546.33 118.568 547.408 121.076 549.564C123.584 551.72 125.124 554.162 125.696 556.89H118.106C116.962 554.03 114.608 552.6 111.044 552.6C108.316 552.6 106.094 553.546 104.378 555.438C102.706 557.33 101.87 559.904 101.87 563.16C101.87 566.196 102.728 568.726 104.444 570.75C106.204 572.774 108.492 573.786 111.308 573.786C114.784 573.786 117.204 572.202 118.568 569.034H126.224C125.256 572.246 123.518 574.908 121.01 577.02C118.546 579.088 115.268 580.122 111.176 580.122C106.336 580.122 102.31 578.56 99.0978 575.436C95.8858 572.268 94.2798 568.154 94.2798 563.094C94.2798 558.342 95.8198 554.36 98.8998 551.148C101.98 547.936 106.05 546.33 111.11 546.33Z" fill="white"></path> <path d="M56.188 563.16C56.188 558.32 57.794 554.316 61.006 551.148C64.262 547.936 68.288 546.33 73.084 546.33C78.012 546.33 82.06 547.936 85.228 551.148C88.396 554.316 89.98 558.32 89.98 563.16C89.98 567.868 88.374 571.872 85.162 575.172C81.95 578.472 77.924 580.122 73.084 580.122C68.288 580.122 64.262 578.494 61.006 575.238C57.794 571.982 56.188 567.956 56.188 563.16ZM66.286 555.768C64.57 557.704 63.712 560.168 63.712 563.16C63.712 566.152 64.614 568.638 66.418 570.618C68.266 572.554 70.488 573.522 73.084 573.522C75.856 573.522 78.122 572.554 79.882 570.618C81.642 568.638 82.522 566.152 82.522 563.16C82.522 560.256 81.664 557.814 79.948 555.834C78.232 553.854 75.944 552.864 73.084 552.864C70.268 552.864 68.002 553.832 66.286 555.768Z" fill="white"></path> <path d="M46.3318 533.988L51.6118 579H44.0878L41.7118 555.174C41.5798 553.898 41.3818 551.83 41.1178 548.97C40.8538 546.11 40.7218 544.592 40.7218 544.416H40.3918C39.2918 548.42 38.2358 552.028 37.2238 555.24L29.7658 579H23.9578L16.4338 554.712C14.8058 549.74 13.7938 546.308 13.3978 544.416H12.9358C12.8038 547.276 12.5398 550.686 12.1438 554.646L9.63584 579H2.50784L7.72184 533.988H16.6318L24.5518 558.474C25.5198 561.51 26.3118 564.26 26.9278 566.724H27.1918C27.5438 565.316 28.3578 562.566 29.6338 558.474L37.4878 533.988H46.3318Z" fill="white"></path> <path d="M656.429 473.33C661.533 473.374 665.449 475.046 668.177 478.346C670.949 481.602 672.335 485.452 672.335 489.896C672.335 490.908 672.291 491.634 672.203 492.074H647.783C647.783 494.538 648.707 496.694 650.555 498.542C652.447 500.39 654.669 501.314 657.221 501.314C660.169 501.314 662.523 500.126 664.283 497.75H671.873C670.685 500.478 668.859 502.722 666.395 504.482C663.975 506.242 660.917 507.122 657.221 507.122C652.337 507.122 648.311 505.516 645.143 502.304C641.975 499.048 640.391 494.912 640.391 489.896C640.391 485.276 641.843 481.36 644.747 478.148C647.695 474.936 651.589 473.33 656.429 473.33ZM656.429 478.874C654.009 478.874 652.029 479.644 650.489 481.184C648.949 482.724 648.069 484.572 647.849 486.728H664.943C664.723 484.528 663.821 482.68 662.237 481.184C660.697 479.644 658.761 478.874 656.429 478.874Z" fill="white"></path> <path d="M602.737 521.51V474.386H609.931V478.412H610.129C612.989 475.068 616.619 473.396 621.019 473.396C625.199 473.396 628.763 474.98 631.711 478.148C634.659 481.272 636.133 485.32 636.133 490.292C636.133 495.176 634.615 499.202 631.579 502.37C628.587 505.538 624.935 507.122 620.623 507.122C616.311 507.122 612.835 505.472 610.195 502.172H609.997V521.51H602.737ZM628.543 490.226C628.543 487.366 627.707 484.924 626.035 482.9C624.363 480.876 622.009 479.864 618.973 479.864C616.333 479.864 614.111 480.832 612.307 482.768C610.547 484.704 609.667 487.234 609.667 490.358C609.667 493.35 610.569 495.836 612.373 497.816C614.221 499.752 616.443 500.72 619.039 500.72C622.031 500.72 624.363 499.686 626.035 497.618C627.707 495.506 628.543 493.042 628.543 490.226Z" fill="white"></path> <path d="M597.75 474.386V480.788H589.17V506H581.844V480.788H573.198V474.386H597.75Z" fill="white"></path> <path d="M568.17 474.386V506H560.778V492.602H546.192V506H538.8V474.386H546.192V486.398H560.778V474.386H568.17Z" fill="white"></path> <path d="M516.308 473.33C521.412 473.374 525.328 475.046 528.056 478.346C530.828 481.602 532.214 485.452 532.214 489.896C532.214 490.908 532.17 491.634 532.082 492.074H507.662C507.662 494.538 508.586 496.694 510.434 498.542C512.326 500.39 514.548 501.314 517.1 501.314C520.048 501.314 522.402 500.126 524.162 497.75H531.752C530.564 500.478 528.738 502.722 526.274 504.482C523.854 506.242 520.796 507.122 517.1 507.122C512.216 507.122 508.19 505.516 505.022 502.304C501.854 499.048 500.27 494.912 500.27 489.896C500.27 485.276 501.722 481.36 504.626 478.148C507.574 474.936 511.468 473.33 516.308 473.33ZM516.308 478.874C513.888 478.874 511.908 479.644 510.368 481.184C508.828 482.724 507.948 484.572 507.728 486.728H524.822C524.602 484.528 523.7 482.68 522.116 481.184C520.576 479.644 518.64 478.874 516.308 478.874Z" fill="white"></path> <path d="M492.437 499.598H497.189V516.23H489.797V506H463.067V474.386H470.459V499.598H485.045V474.386H492.437V499.598Z" fill="white"></path> <path d="M434.858 474.386L440.534 506H433.736L431.162 490.688C430.59 486.948 430.26 484.572 430.172 483.56H429.974C429.358 486.288 428.698 488.664 427.994 490.688L422.318 506H416.642L410.9 490.358C409.888 487.674 409.206 485.408 408.854 483.56H408.656C408.304 486.288 407.996 488.532 407.732 490.292L405.092 506H398.36L404.168 474.386H411.56L417.83 491.348C418.358 492.756 418.886 494.648 419.414 497.024H419.612C420.228 494.648 420.778 492.734 421.262 491.282L427.598 474.386H434.858Z" fill="white"></path> <path d="M360.665 490.16C360.665 485.32 362.271 481.316 365.483 478.148C368.739 474.936 372.765 473.33 377.561 473.33C382.489 473.33 386.537 474.936 389.705 478.148C392.873 481.316 394.457 485.32 394.457 490.16C394.457 494.868 392.851 498.872 389.639 502.172C386.427 505.472 382.401 507.122 377.561 507.122C372.765 507.122 368.739 505.494 365.483 502.238C362.271 498.982 360.665 494.956 360.665 490.16ZM370.763 482.768C369.047 484.704 368.189 487.168 368.189 490.16C368.189 493.152 369.091 495.638 370.895 497.618C372.743 499.554 374.965 500.522 377.561 500.522C380.333 500.522 382.599 499.554 384.359 497.618C386.119 495.638 386.999 493.152 386.999 490.16C386.999 487.256 386.141 484.814 384.425 482.834C382.709 480.854 380.421 479.864 377.561 479.864C374.745 479.864 372.479 480.832 370.763 482.768Z" fill="white"></path> <path d="M328.618 506V474.386H336.01V488.378L349.21 474.386H357.856L343.732 489.368L358.252 506H349.276L336.01 490.556V506H328.618Z" fill="white"></path> <path d="M307.176 473.33C311.312 473.33 314.634 474.408 317.142 476.564C319.65 478.72 321.19 481.162 321.762 483.89H314.172C313.028 481.03 310.674 479.6 307.11 479.6C304.382 479.6 302.16 480.546 300.444 482.438C298.772 484.33 297.936 486.904 297.936 490.16C297.936 493.196 298.794 495.726 300.51 497.75C302.27 499.774 304.558 500.786 307.374 500.786C310.85 500.786 313.27 499.202 314.634 496.034H322.29C321.322 499.246 319.584 501.908 317.076 504.02C314.612 506.088 311.334 507.122 307.242 507.122C302.402 507.122 298.376 505.56 295.164 502.436C291.952 499.268 290.346 495.154 290.346 490.094C290.346 485.342 291.886 481.36 294.966 478.148C298.046 474.936 302.116 473.33 307.176 473.33Z" fill="white"></path> <path d="M270.033 473.33C275.137 473.374 279.053 475.046 281.781 478.346C284.553 481.602 285.939 485.452 285.939 489.896C285.939 490.908 285.895 491.634 285.807 492.074H261.387C261.387 494.538 262.311 496.694 264.159 498.542C266.051 500.39 268.273 501.314 270.825 501.314C273.773 501.314 276.127 500.126 277.887 497.75H285.477C284.289 500.478 282.463 502.722 279.999 504.482C277.579 506.242 274.521 507.122 270.825 507.122C265.941 507.122 261.915 505.516 258.747 502.304C255.579 499.048 253.995 494.912 253.995 489.896C253.995 485.276 255.447 481.36 258.351 478.148C261.299 474.936 265.193 473.33 270.033 473.33ZM270.033 478.874C267.613 478.874 265.633 479.644 264.093 481.184C262.553 482.724 261.673 484.572 261.453 486.728H278.547C278.327 484.528 277.425 482.68 275.841 481.184C274.301 479.644 272.365 478.874 270.033 478.874Z" fill="white"></path> <path d="M247.598 474.386V506H240.206V490.886H240.074C237.962 494.23 234.97 495.902 231.098 495.902C227.754 495.902 225.004 494.736 222.848 492.404C220.692 490.028 219.614 486.486 219.614 481.778V474.386H227.006V481.316C227.006 483.868 227.556 485.848 228.656 487.256C229.756 488.62 231.274 489.302 233.21 489.302C235.366 489.302 237.06 488.532 238.292 486.992C239.568 485.452 240.206 483.23 240.206 480.326V474.386H247.598Z" fill="white"></path> <path d="M182.245 506V474.386H189.373V486.53C189.373 490.446 189.307 493.68 189.175 496.232H189.307C189.967 495 191.419 492.844 193.663 489.764L205.081 474.386H211.615V506H204.487V493.922C204.487 490.006 204.553 486.75 204.685 484.154H204.553C203.849 485.43 202.397 487.586 200.197 490.622L188.779 506H182.245Z" fill="white"></path> <path d="M142.413 521.51V474.386H149.607V478.412H149.805C152.665 475.068 156.295 473.396 160.695 473.396C164.875 473.396 168.439 474.98 171.387 478.148C174.335 481.272 175.809 485.32 175.809 490.292C175.809 495.176 174.291 499.202 171.255 502.37C168.263 505.538 164.611 507.122 160.299 507.122C155.987 507.122 152.511 505.472 149.871 502.172H149.673V521.51H142.413ZM168.219 490.226C168.219 487.366 167.383 484.924 165.711 482.9C164.039 480.876 161.685 479.864 158.649 479.864C156.009 479.864 153.787 480.832 151.983 482.768C150.223 484.704 149.343 487.234 149.343 490.358C149.343 493.35 150.245 495.836 152.049 497.816C153.897 499.752 156.119 500.72 158.715 500.72C161.707 500.72 164.039 499.686 165.711 497.618C167.383 495.506 168.219 493.042 168.219 490.226Z" fill="white"></path> <path d="M102.143 490.16C102.143 485.32 103.749 481.316 106.961 478.148C110.217 474.936 114.243 473.33 119.039 473.33C123.967 473.33 128.015 474.936 131.183 478.148C134.351 481.316 135.935 485.32 135.935 490.16C135.935 494.868 134.329 498.872 131.117 502.172C127.905 505.472 123.879 507.122 119.039 507.122C114.243 507.122 110.217 505.494 106.961 502.238C103.749 498.982 102.143 494.956 102.143 490.16ZM112.241 482.768C110.525 484.704 109.667 487.168 109.667 490.16C109.667 493.152 110.569 495.638 112.373 497.618C114.221 499.554 116.443 500.522 119.039 500.522C121.811 500.522 124.077 499.554 125.837 497.618C127.597 495.638 128.477 493.152 128.477 490.16C128.477 487.256 127.619 484.814 125.903 482.834C124.187 480.854 121.899 479.864 119.039 479.864C116.223 479.864 113.957 480.832 112.241 482.768Z" fill="white"></path> <path d="M99.3345 474.386V480.788H90.7545V506H83.4285V480.788H74.7825V474.386H99.3345Z" fill="white"></path> <path d="M56.9047 473.33C61.0407 473.33 64.3627 474.408 66.8707 476.564C69.3787 478.72 70.9187 481.162 71.4907 483.89H63.9007C62.7567 481.03 60.4027 479.6 56.8387 479.6C54.1107 479.6 51.8887 480.546 50.1727 482.438C48.5007 484.33 47.6647 486.904 47.6647 490.16C47.6647 493.196 48.5227 495.726 50.2387 497.75C51.9987 499.774 54.2867 500.786 57.1027 500.786C60.5787 500.786 62.9987 499.202 64.3627 496.034H72.0187C71.0507 499.246 69.3127 501.908 66.8047 504.02C64.3407 506.088 61.0627 507.122 56.9707 507.122C52.1307 507.122 48.1047 505.56 44.8927 502.436C41.6807 499.268 40.0747 495.154 40.0747 490.094C40.0747 485.342 41.6147 481.36 44.6947 478.148C47.7747 474.936 51.8447 473.33 56.9047 473.33Z" fill="white"></path> <path d="M4.28989 506V474.386H11.4179V486.53C11.4179 490.446 11.3519 493.68 11.2199 496.232H11.3519C12.0119 495 13.4639 492.844 15.7079 489.764L27.1259 474.386H33.6599V506H26.5319V493.922C26.5319 490.006 26.5979 486.75 26.7299 484.154H26.5979C25.8939 485.43 24.4419 487.586 22.2419 490.622L10.8239 506H4.28989Z" fill="white"></path> <path d="M449.596 433V401.386H462.862C466.25 401.386 468.868 402.068 470.716 403.432C472.564 404.752 473.488 406.644 473.488 409.108C473.488 410.648 473.048 412.034 472.168 413.266C471.288 414.454 469.968 415.29 468.208 415.774C470.804 416.258 472.696 417.204 473.884 418.612C475.116 420.02 475.732 421.67 475.732 423.562C475.732 426.422 474.698 428.71 472.63 430.426C470.606 432.142 467.768 433 464.116 433H449.596ZM462.73 419.008H456.592V427.852H463.391C465.151 427.852 466.448 427.434 467.284 426.598C468.164 425.762 468.604 424.706 468.604 423.43C468.604 420.482 466.646 419.008 462.73 419.008ZM461.608 406.534H456.592V413.992H461.08C464.644 413.992 466.426 412.694 466.426 410.098C466.426 407.722 464.82 406.534 461.608 406.534Z" fill="white"></path> <path d="M392.827 417.16C392.827 412.32 394.433 408.316 397.645 405.148C400.901 401.936 404.927 400.33 409.723 400.33C414.651 400.33 418.699 401.936 421.867 405.148C425.035 408.316 426.619 412.32 426.619 417.16C426.619 421.868 425.013 425.872 421.801 429.172C418.589 432.472 414.563 434.122 409.723 434.122C404.927 434.122 400.901 432.494 397.645 429.238C394.433 425.982 392.827 421.956 392.827 417.16ZM402.925 409.768C401.209 411.704 400.351 414.168 400.351 417.16C400.351 420.152 401.253 422.638 403.057 424.618C404.905 426.554 407.127 427.522 409.723 427.522C412.495 427.522 414.761 426.554 416.521 424.618C418.281 422.638 419.161 420.152 419.161 417.16C419.161 414.256 418.303 411.814 416.587 409.834C414.871 407.854 412.583 406.864 409.723 406.864C406.907 406.864 404.641 407.832 402.925 409.768Z" fill="white"></path> <path d="M361.94 433V401.386H375.206C378.594 401.386 381.212 402.068 383.06 403.432C384.908 404.752 385.832 406.644 385.832 409.108C385.832 410.648 385.392 412.034 384.512 413.266C383.632 414.454 382.312 415.29 380.552 415.774C383.148 416.258 385.04 417.204 386.228 418.612C387.46 420.02 388.076 421.67 388.076 423.562C388.076 426.422 387.042 428.71 384.974 430.426C382.95 432.142 380.112 433 376.46 433H361.94ZM375.074 419.008H368.936V427.852H375.734C377.494 427.852 378.792 427.434 379.628 426.598C380.508 425.762 380.948 424.706 380.948 423.43C380.948 420.482 378.99 419.008 375.074 419.008ZM373.952 406.534H368.936V413.992H373.424C376.988 413.992 378.77 412.694 378.77 410.098C378.77 407.722 377.164 406.534 373.952 406.534Z" fill="white"></path> <path d="M356.954 401.386V407.788H348.374V433H341.048V407.788H332.402V401.386H356.954Z" fill="white"></path> <path d="M314.524 400.33C318.66 400.33 321.982 401.408 324.49 403.564C326.998 405.72 328.538 408.162 329.11 410.89H321.52C320.376 408.03 318.022 406.6 314.458 406.6C311.73 406.6 309.508 407.546 307.792 409.438C306.12 411.33 305.284 413.904 305.284 417.16C305.284 420.196 306.142 422.726 307.858 424.75C309.618 426.774 311.906 427.786 314.722 427.786C318.198 427.786 320.618 426.202 321.982 423.034H329.638C328.67 426.246 326.932 428.908 324.424 431.02C321.96 433.088 318.682 434.122 314.59 434.122C309.75 434.122 305.724 432.56 302.512 429.436C299.3 426.268 297.694 422.154 297.694 417.094C297.694 412.342 299.234 408.36 302.314 405.148C305.394 401.936 309.464 400.33 314.524 400.33Z" fill="white"></path> <path d="M291.279 401.386V433H283.887V419.602H269.301V433H261.909V401.386H269.301V413.398H283.887V401.386H291.279Z" fill="white"></path> <path d="M253.295 401.386V433H246.101V428.974H245.903C243.131 432.406 239.523 434.122 235.079 434.122C231.163 434.122 227.643 432.626 224.519 429.634C221.439 426.598 219.899 422.44 219.899 417.16C219.899 412.232 221.417 408.206 224.453 405.082C227.489 401.958 231.207 400.396 235.607 400.396C239.831 400.396 243.285 402.156 245.969 405.676H246.101V401.386H253.295ZM227.489 417.16C227.489 420.02 228.303 422.484 229.931 424.552C231.603 426.62 233.979 427.654 237.059 427.654C239.567 427.654 241.745 426.686 243.593 424.75C245.485 422.77 246.431 420.306 246.431 417.358C246.431 414.234 245.529 411.682 243.725 409.702C241.965 407.722 239.765 406.732 237.125 406.732C234.045 406.732 231.669 407.766 229.997 409.834C228.325 411.902 227.489 414.344 227.489 417.16Z" fill="white"></path> <path d="M182.245 448.51V401.386H189.439V405.412H189.637C192.497 402.068 196.127 400.396 200.527 400.396C204.707 400.396 208.271 401.98 211.219 405.148C214.167 408.272 215.641 412.32 215.641 417.292C215.641 422.176 214.123 426.202 211.087 429.37C208.095 432.538 204.443 434.122 200.131 434.122C195.819 434.122 192.343 432.472 189.703 429.172H189.505V448.51H182.245ZM208.051 417.226C208.051 414.366 207.215 411.924 205.543 409.9C203.871 407.876 201.517 406.864 198.481 406.864C195.841 406.864 193.619 407.832 191.815 409.768C190.055 411.704 189.175 414.234 189.175 417.358C189.175 420.35 190.077 422.836 191.881 424.816C193.729 426.752 195.951 427.72 198.547 427.72C201.539 427.72 203.871 426.686 205.543 424.618C207.215 422.506 208.051 420.042 208.051 417.226Z" fill="white"></path> <path d="M177.258 401.386V407.788H168.678V433H161.352V407.788H152.706V401.386H177.258Z" fill="white"></path> <path d="M134.829 400.33C138.965 400.33 142.287 401.408 144.795 403.564C147.303 405.72 148.843 408.162 149.415 410.89H141.825C140.681 408.03 138.327 406.6 134.763 406.6C132.035 406.6 129.813 407.546 128.097 409.438C126.425 411.33 125.589 413.904 125.589 417.16C125.589 420.196 126.447 422.726 128.163 424.75C129.923 426.774 132.211 427.786 135.027 427.786C138.503 427.786 140.923 426.202 142.287 423.034H149.943C148.975 426.246 147.237 428.908 144.729 431.02C142.265 433.088 138.987 434.122 134.895 434.122C130.055 434.122 126.029 432.56 122.817 429.436C119.605 426.268 117.999 422.154 117.999 417.094C117.999 412.342 119.539 408.36 122.619 405.148C125.699 401.936 129.769 400.33 134.829 400.33Z" fill="white"></path> <path d="M79.9068 417.16C79.9068 412.32 81.5128 408.316 84.7248 405.148C87.9808 401.936 92.0068 400.33 96.8028 400.33C101.731 400.33 105.779 401.936 108.947 405.148C112.115 408.316 113.699 412.32 113.699 417.16C113.699 421.868 112.093 425.872 108.881 429.172C105.669 432.472 101.643 434.122 96.8028 434.122C92.0068 434.122 87.9808 432.494 84.7248 429.238C81.5128 425.982 79.9068 421.956 79.9068 417.16ZM90.0048 409.768C88.2888 411.704 87.4308 414.168 87.4308 417.16C87.4308 420.152 88.3328 422.638 90.1368 424.618C91.9848 426.554 94.2068 427.522 96.8028 427.522C99.5748 427.522 101.841 426.554 103.601 424.618C105.361 422.638 106.241 420.152 106.241 417.16C106.241 414.256 105.383 411.814 103.667 409.834C101.951 407.854 99.6628 406.864 96.8028 406.864C93.9868 406.864 91.7208 407.832 90.0048 409.768Z" fill="white"></path> <path d="M42.2528 448.51V401.386H49.4468V405.412H49.6448C52.5048 402.068 56.1348 400.396 60.5348 400.396C64.7148 400.396 68.2788 401.98 71.2268 405.148C74.1748 408.272 75.6488 412.32 75.6488 417.292C75.6488 422.176 74.1308 426.202 71.0948 429.37C68.1028 432.538 64.4508 434.122 60.1388 434.122C55.8268 434.122 52.3508 432.472 49.7108 429.172H49.5128V448.51H42.2528ZM68.0588 417.226C68.0588 414.366 67.2228 411.924 65.5508 409.9C63.8788 407.876 61.5248 406.864 58.4888 406.864C55.8488 406.864 53.6268 407.832 51.8228 409.768C50.0628 411.704 49.1828 414.234 49.1828 417.358C49.1828 420.35 50.0848 422.836 51.8888 424.816C53.7368 426.752 55.9588 427.72 58.5548 427.72C61.5468 427.72 63.8788 426.686 65.5508 424.618C67.2228 422.506 68.0588 420.042 68.0588 417.226Z" fill="white"></path> <path d="M33.6599 401.386V433H26.2679V407.788H11.6819V433H4.28989V401.386H33.6599Z" fill="white"></path> <path d="M685.946 345.678H664.694V339.474H685.946V345.678Z" fill="white"></path> <path d="M658.981 328.386V334.788H650.401V360H643.075V334.788H634.429V328.386H658.981Z" fill="white"></path> <path d="M602.734 331.554H602.867V312.48H610.127V331.554H610.325C612.261 328.782 615.054 327.396 618.706 327.396C622.27 327.396 625.285 328.892 627.749 331.884C630.213 334.832 631.445 338.968 631.445 344.292C631.445 349.264 630.235 353.312 627.815 356.436C625.439 359.56 622.315 361.122 618.443 361.122C616.683 361.122 615.077 360.748 613.625 360C612.217 359.208 611.117 358.196 610.325 356.964H610.127V375.51H602.867V356.898H602.734C600.446 359.714 597.696 361.122 594.484 361.122C590.568 361.122 587.423 359.56 585.047 356.436C582.715 353.312 581.549 349.22 581.549 344.16C581.549 339.232 582.781 335.206 585.245 332.082C587.709 328.958 590.92 327.396 594.88 327.396C596.508 327.396 598.027 327.814 599.435 328.65C600.843 329.442 601.942 330.41 602.734 331.554ZM588.94 344.16C588.94 347.372 589.578 349.968 590.854 351.948C592.174 353.884 593.957 354.852 596.201 354.852C598.137 354.852 599.787 353.928 601.151 352.08C602.515 350.188 603.197 347.614 603.197 344.358C603.197 340.97 602.536 338.352 601.216 336.504C599.94 334.612 598.247 333.666 596.135 333.666C593.935 333.666 592.174 334.656 590.854 336.636C589.578 338.616 588.94 341.124 588.94 344.16ZM624.052 344.226C624.052 341.278 623.459 338.792 622.271 336.768C621.083 334.7 619.3 333.666 616.924 333.666C614.856 333.666 613.163 334.59 611.843 336.438C610.523 338.242 609.862 340.882 609.862 344.358C609.862 347.482 610.5 350.012 611.776 351.948C613.096 353.884 614.834 354.852 616.99 354.852C619.19 354.852 620.906 353.862 622.138 351.882C623.414 349.902 624.052 347.35 624.052 344.226Z" fill="white"></path> <path d="M543.325 344.16C543.325 339.32 544.931 335.316 548.143 332.148C551.399 328.936 555.425 327.33 560.221 327.33C565.149 327.33 569.197 328.936 572.365 332.148C575.533 335.316 577.117 339.32 577.117 344.16C577.117 348.868 575.511 352.872 572.299 356.172C569.087 359.472 565.061 361.122 560.221 361.122C555.425 361.122 551.399 359.494 548.143 356.238C544.931 352.982 543.325 348.956 543.325 344.16ZM553.423 336.768C551.707 338.704 550.849 341.168 550.849 344.16C550.849 347.152 551.751 349.638 553.555 351.618C555.403 353.554 557.625 354.522 560.221 354.522C562.993 354.522 565.259 353.554 567.019 351.618C568.779 349.638 569.659 347.152 569.659 344.16C569.659 341.256 568.801 338.814 567.085 336.834C565.369 334.854 563.081 333.864 560.221 333.864C557.405 333.864 555.139 334.832 553.423 336.768Z" fill="white"></path> <path d="M509.847 349.638L511.761 328.386H536.907V360H529.581V334.788H518.097L516.645 350.496C516.293 354.104 515.413 356.678 514.005 358.218C512.597 359.714 510.375 360.462 507.339 360.462C506.459 360.462 505.403 360.33 504.171 360.066V353.994C504.875 354.17 505.601 354.258 506.349 354.258C507.493 354.258 508.329 353.884 508.857 353.136C509.385 352.388 509.715 351.222 509.847 349.638Z" fill="white"></path> <path d="M482.338 345.678H461.086V339.474H482.338V345.678Z" fill="white"></path> <path d="M421.369 327.33C426.473 327.374 430.389 329.046 433.117 332.346C435.889 335.602 437.275 339.452 437.275 343.896C437.275 344.908 437.231 345.634 437.143 346.074H412.723C412.723 348.538 413.647 350.694 415.495 352.542C417.387 354.39 419.609 355.314 422.161 355.314C425.109 355.314 427.463 354.126 429.223 351.75H436.813C435.625 354.478 433.799 356.722 431.335 358.482C428.915 360.242 425.857 361.122 422.161 361.122C417.277 361.122 413.251 359.516 410.083 356.304C406.915 353.048 405.331 348.912 405.331 343.896C405.331 339.276 406.783 335.36 409.687 332.148C412.635 328.936 416.529 327.33 421.369 327.33ZM421.369 332.874C418.949 332.874 416.969 333.644 415.429 335.184C413.889 336.724 413.009 338.572 412.789 340.728H429.883C429.663 338.528 428.761 336.68 427.177 335.184C425.637 333.644 423.701 332.874 421.369 332.874Z" fill="white"></path> <path d="M386.067 327.33C390.203 327.33 393.525 328.408 396.033 330.564C398.541 332.72 400.081 335.162 400.653 337.89H393.063C391.919 335.03 389.565 333.6 386.001 333.6C383.273 333.6 381.051 334.546 379.335 336.438C377.663 338.33 376.827 340.904 376.827 344.16C376.827 347.196 377.685 349.726 379.401 351.75C381.161 353.774 383.449 354.786 386.265 354.786C389.741 354.786 392.161 353.202 393.525 350.034H401.181C400.213 353.246 398.475 355.908 395.967 358.02C393.503 360.088 390.225 361.122 386.133 361.122C381.293 361.122 377.267 359.56 374.055 356.436C370.843 353.268 369.237 349.154 369.237 344.094C369.237 339.342 370.777 335.36 373.857 332.148C376.937 328.936 381.007 327.33 386.067 327.33Z" fill="white"></path> <path d="M362.801 328.386V360H355.607V355.974H355.409C352.637 359.406 349.029 361.122 344.585 361.122C340.669 361.122 337.149 359.626 334.025 356.634C330.945 353.598 329.405 349.44 329.405 344.16C329.405 339.232 330.923 335.206 333.959 332.082C336.995 328.958 340.713 327.396 345.113 327.396C349.337 327.396 352.791 329.156 355.475 332.676H355.607V328.386H362.801ZM336.995 344.16C336.995 347.02 337.809 349.484 339.437 351.552C341.109 353.62 343.485 354.654 346.565 354.654C349.073 354.654 351.251 353.686 353.099 351.75C354.991 349.77 355.937 347.306 355.937 344.358C355.937 341.234 355.035 338.682 353.231 336.702C351.471 334.722 349.271 333.732 346.631 333.732C343.551 333.732 341.175 334.766 339.503 336.834C337.831 338.902 336.995 341.344 336.995 344.16Z" fill="white"></path> <path d="M291.817 375.51V328.386H299.011V332.412H299.209C302.069 329.068 305.699 327.396 310.099 327.396C314.279 327.396 317.843 328.98 320.791 332.148C323.739 335.272 325.213 339.32 325.213 344.292C325.213 349.176 323.695 353.202 320.659 356.37C317.667 359.538 314.015 361.122 309.703 361.122C305.391 361.122 301.915 359.472 299.275 356.172H299.077V375.51H291.817ZM317.623 344.226C317.623 341.366 316.787 338.924 315.115 336.9C313.443 334.876 311.089 333.864 308.053 333.864C305.413 333.864 303.191 334.832 301.387 336.768C299.627 338.704 298.747 341.234 298.747 344.358C298.747 347.35 299.649 349.836 301.453 351.816C303.301 353.752 305.523 354.72 308.119 354.72C311.111 354.72 313.443 353.686 315.115 351.618C316.787 349.506 317.623 347.042 317.623 344.226Z" fill="white"></path> <path d="M283.448 325.68H275.792C275.572 323.964 274.89 322.6 273.746 321.588C272.646 320.532 271.194 320.004 269.39 320.004C267.586 320.004 266.112 320.532 264.968 321.588C263.868 322.6 263.318 323.942 263.318 325.614C263.318 327.374 263.978 328.782 265.298 329.838C266.662 330.894 268.686 331.862 271.37 332.742C276.034 334.194 279.356 336.152 281.336 338.616C283.36 341.036 284.372 344.028 284.372 347.592C284.372 351.244 283.074 354.478 280.478 357.294C277.926 360.066 274.296 361.452 269.588 361.452C265.32 361.452 261.8 360.286 259.028 357.954C256.256 355.622 254.584 352.256 254.012 347.856H261.932C262.328 350.1 263.164 351.86 264.44 353.136C265.76 354.368 267.498 354.984 269.654 354.984C271.81 354.984 273.504 354.302 274.736 352.938C276.012 351.574 276.65 349.946 276.65 348.054C276.65 345.942 275.968 344.226 274.604 342.906C273.24 341.586 271.018 340.442 267.938 339.474C259.754 336.834 255.662 332.236 255.662 325.68C255.662 322.16 256.96 319.256 259.556 316.968C262.196 314.68 265.496 313.536 269.456 313.536C273.416 313.536 276.65 314.658 279.158 316.902C281.71 319.146 283.14 322.072 283.448 325.68Z" fill="white"></path> <path d="M198.694 344.16C198.694 339.32 200.3 335.316 203.512 332.148C206.768 328.936 210.794 327.33 215.59 327.33C220.518 327.33 224.566 328.936 227.734 332.148C230.902 335.316 232.486 339.32 232.486 344.16C232.486 348.868 230.88 352.872 227.668 356.172C224.456 359.472 220.43 361.122 215.59 361.122C210.794 361.122 206.768 359.494 203.512 356.238C200.3 352.982 198.694 348.956 198.694 344.16ZM208.792 336.768C207.076 338.704 206.218 341.168 206.218 344.16C206.218 347.152 207.12 349.638 208.924 351.618C210.772 353.554 212.994 354.522 215.59 354.522C218.362 354.522 220.628 353.554 222.388 351.618C224.148 349.638 225.028 347.152 225.028 344.16C225.028 341.256 224.17 338.814 222.454 336.834C220.738 334.854 218.45 333.864 215.59 333.864C212.774 333.864 210.508 334.832 208.792 336.768Z" fill="white"></path> <path d="M196.678 327.594V334.458C195.138 334.238 193.906 334.128 192.982 334.128C190.43 334.128 188.45 334.964 187.042 336.636C185.678 338.308 184.996 340.772 184.996 344.028V360H177.604V328.386H184.864V332.874H185.062C185.854 331.378 187.02 330.102 188.56 329.046C190.144 327.946 191.926 327.396 193.906 327.396C194.962 327.396 195.886 327.462 196.678 327.594Z" fill="white"></path> <path d="M152.195 334.59V328.386H156.155V318.288H163.547V328.386H171.401V334.59H163.547V348.714C163.547 350.782 163.877 352.212 164.537 353.004C165.197 353.796 166.319 354.192 167.903 354.192C168.959 354.192 170.235 354.016 171.731 353.664V359.67C170.015 360.154 168.145 360.396 166.121 360.396C162.425 360.396 159.829 359.428 158.333 357.492C156.881 355.512 156.155 352.74 156.155 349.176V334.59H152.195Z" fill="white"></path> <path d="M129.83 334.59V328.386H133.79V318.288H141.182V328.386H149.036V334.59H141.182V348.714C141.182 350.782 141.512 352.212 142.172 353.004C142.832 353.796 143.954 354.192 145.538 354.192C146.594 354.192 147.87 354.016 149.366 353.664V359.67C147.65 360.154 145.78 360.396 143.756 360.396C140.06 360.396 137.464 359.428 135.968 357.492C134.516 355.512 133.79 352.74 133.79 349.176V334.59H129.83Z" fill="white"></path> <path d="M124.582 328.386V360H117.388V355.974H117.19C114.418 359.406 110.81 361.122 106.366 361.122C102.45 361.122 98.9301 359.626 95.8061 356.634C92.7261 353.598 91.1861 349.44 91.1861 344.16C91.1861 339.232 92.7041 335.206 95.7401 332.082C98.7761 328.958 102.494 327.396 106.894 327.396C111.118 327.396 114.572 329.156 117.256 332.676H117.388V328.386H124.582ZM98.7761 344.16C98.7761 347.02 99.5901 349.484 101.218 351.552C102.89 353.62 105.266 354.654 108.346 354.654C110.854 354.654 113.032 353.686 114.88 351.75C116.772 349.77 117.718 347.306 117.718 344.358C117.718 341.234 116.816 338.682 115.012 336.702C113.252 334.722 111.052 333.732 108.412 333.732C105.332 333.732 102.956 334.766 101.284 336.834C99.6121 338.902 98.7761 341.344 98.7761 344.16Z" fill="white"></path> <path d="M84.8738 328.386V360H77.5478V356.106H77.3498C74.9738 359.406 71.8498 361.056 67.9778 361.056C66.5258 361.056 65.1398 360.814 63.8198 360.33C62.5438 359.846 61.3118 359.098 60.1238 358.086C58.9358 357.074 57.9898 355.622 57.2858 353.73C56.5818 351.838 56.2298 349.616 56.2298 347.064V328.386H63.6218V346.206C63.6218 348.846 64.1938 350.892 65.3378 352.344C66.5258 353.796 68.1098 354.522 70.0898 354.522C72.3778 354.522 74.1818 353.73 75.5018 352.146C76.8218 350.518 77.4818 348.208 77.4818 345.216V328.386H84.8738Z" fill="white"></path> <path d="M42.8999 366.996L36.4979 359.142C33.1979 360.682 29.7439 361.452 26.1359 361.452C22.2199 361.452 18.6779 360.748 15.5099 359.34C12.3859 357.888 9.87788 355.996 7.98588 353.664C6.09388 351.288 4.66388 348.736 3.69588 346.008C2.72788 343.236 2.24388 340.398 2.24388 337.494C2.24388 330.938 4.50988 325.306 9.04188 320.598C13.6179 315.89 19.3379 313.536 26.2019 313.536C33.3299 313.536 39.0719 315.89 43.4279 320.598C47.7839 325.306 49.9619 330.938 49.9619 337.494C49.9619 344.666 47.3879 350.584 42.2399 355.248L48.2459 362.64L42.8999 366.996ZM14.7839 325.416C11.7479 328.628 10.2299 332.654 10.2299 337.494C10.2299 342.334 11.7479 346.382 14.7839 349.638C17.8199 352.85 21.5819 354.456 26.0699 354.456C28.0499 354.456 29.9639 354.082 31.8119 353.334L25.9379 346.074L31.2839 341.718L37.4879 349.44C40.4799 346.228 41.9759 342.246 41.9759 337.494C41.9759 332.654 40.5019 328.628 37.5539 325.416C34.6059 322.16 30.7999 320.532 26.1359 320.532C21.6479 320.532 17.8639 322.16 14.7839 325.416Z" fill="white"></path> <path d="M410.675 225.12H408.803L403.091 234H397.187L403.715 224.592C402.211 224.176 401.011 223.408 400.115 222.288C399.251 221.168 398.819 219.792 398.819 218.16C398.819 215.984 399.539 214.256 400.979 212.976C402.451 211.664 404.499 211.008 407.123 211.008H416.051V234H410.675V225.12ZM407.651 221.328H410.675V215.04H407.651C406.499 215.04 405.635 215.344 405.059 215.952C404.483 216.528 404.195 217.264 404.195 218.16C404.195 220.272 405.347 221.328 407.651 221.328Z" fill="white"></path> <path d="M372.026 234V211.008H377.21V219.84C377.21 222.688 377.162 225.04 377.066 226.896H377.162C377.642 226 378.698 224.432 380.33 222.192L388.634 211.008H393.386V234H388.202V225.216C388.202 222.368 388.25 220 388.346 218.112H388.25C387.738 219.04 386.682 220.608 385.082 222.816L376.778 234H372.026Z" fill="white"></path> <path d="M365.777 211.008V234H360.401V224.256H349.793V234H344.417V211.008H349.793V219.744H360.401V211.008H365.777Z" fill="white"></path> <path d="M328.059 210.24C331.771 210.272 334.619 211.488 336.603 213.888C338.619 216.256 339.627 219.056 339.627 222.288C339.627 223.024 339.595 223.552 339.531 223.872H321.771C321.771 225.664 322.443 227.232 323.787 228.576C325.163 229.92 326.779 230.592 328.635 230.592C330.779 230.592 332.491 229.728 333.771 228H339.291C338.427 229.984 337.099 231.616 335.307 232.896C333.547 234.176 331.323 234.816 328.635 234.816C325.083 234.816 322.155 233.648 319.851 231.312C317.547 228.944 316.395 225.936 316.395 222.288C316.395 218.928 317.451 216.08 319.563 213.744C321.707 211.408 324.539 210.24 328.059 210.24ZM328.059 214.272C326.299 214.272 324.859 214.832 323.739 215.952C322.619 217.072 321.979 218.416 321.819 219.984H334.251C334.091 218.384 333.435 217.04 332.283 215.952C331.163 214.832 329.755 214.272 328.059 214.272Z" fill="white"></path> <path d="M286.095 241.44V229.344H286.623C289.759 229.344 291.631 226.08 292.239 219.552L293.055 211.008H310.671V229.344H314.127V241.44H308.847V234H291.375V241.44H286.095ZM305.295 229.344V215.664H297.567L297.135 219.984C296.879 222.64 296.543 224.64 296.127 225.984C295.711 227.328 295.103 228.448 294.303 229.344H305.295Z" fill="white"></path> <path d="M272.137 210.24C275.849 210.272 278.697 211.488 280.681 213.888C282.697 216.256 283.705 219.056 283.705 222.288C283.705 223.024 283.673 223.552 283.609 223.872H265.849C265.849 225.664 266.521 227.232 267.865 228.576C269.241 229.92 270.857 230.592 272.713 230.592C274.857 230.592 276.569 229.728 277.849 228H283.369C282.505 229.984 281.177 231.616 279.385 232.896C277.625 234.176 275.401 234.816 272.713 234.816C269.161 234.816 266.233 233.648 263.929 231.312C261.625 228.944 260.473 225.936 260.473 222.288C260.473 218.928 261.529 216.08 263.641 213.744C265.785 211.408 268.617 210.24 272.137 210.24ZM272.137 214.272C270.377 214.272 268.937 214.832 267.817 215.952C266.697 217.072 266.057 218.416 265.897 219.984H278.329C278.169 218.384 277.513 217.04 276.361 215.952C275.241 214.832 273.833 214.272 272.137 214.272Z" fill="white"></path> <path d="M238.01 234V211.008H247.658C250.122 211.008 252.026 211.504 253.37 212.496C254.714 213.456 255.386 214.832 255.386 216.624C255.386 217.744 255.066 218.752 254.426 219.648C253.786 220.512 252.826 221.12 251.546 221.472C253.434 221.824 254.81 222.512 255.674 223.536C256.57 224.56 257.018 225.76 257.018 227.136C257.018 229.216 256.266 230.88 254.762 232.128C253.29 233.376 251.226 234 248.57 234H238.01ZM247.562 223.824H243.098V230.256H248.042C249.322 230.256 250.266 229.952 250.874 229.344C251.514 228.736 251.834 227.968 251.834 227.04C251.834 224.896 250.41 223.824 247.562 223.824ZM246.746 214.752H243.098V220.176H246.362C248.954 220.176 250.25 219.232 250.25 217.344C250.25 215.616 249.082 214.752 246.746 214.752Z" fill="white"></path> <path d="M208.723 222.48C208.723 218.96 209.891 216.048 212.227 213.744C214.595 211.408 217.523 210.24 221.011 210.24C224.595 210.24 227.539 211.408 229.843 213.744C232.147 216.048 233.299 218.96 233.299 222.48C233.299 225.904 232.131 228.816 229.795 231.216C227.459 233.616 224.531 234.816 221.011 234.816C217.523 234.816 214.595 233.632 212.227 231.264C209.891 228.896 208.723 225.968 208.723 222.48ZM216.067 217.104C214.819 218.512 214.195 220.304 214.195 222.48C214.195 224.656 214.851 226.464 216.163 227.904C217.507 229.312 219.123 230.016 221.011 230.016C223.027 230.016 224.675 229.312 225.955 227.904C227.235 226.464 227.875 224.656 227.875 222.48C227.875 220.368 227.251 218.592 226.003 217.152C224.755 215.712 223.091 214.992 221.011 214.992C218.963 214.992 217.315 215.696 216.067 217.104Z" fill="white"></path> <path d="M181.339 245.28V211.008H186.571V213.936H186.715C188.795 211.504 191.435 210.288 194.635 210.288C197.675 210.288 200.267 211.44 202.411 213.744C204.555 216.016 205.627 218.96 205.627 222.576C205.627 226.128 204.523 229.056 202.315 231.36C200.139 233.664 197.483 234.816 194.347 234.816C191.211 234.816 188.683 233.616 186.763 231.216H186.619V245.28H181.339ZM200.107 222.528C200.107 220.448 199.499 218.672 198.283 217.2C197.067 215.728 195.355 214.992 193.147 214.992C191.227 214.992 189.611 215.696 188.299 217.104C187.019 218.512 186.379 220.352 186.379 222.624C186.379 224.8 187.035 226.608 188.347 228.048C189.691 229.456 191.307 230.16 193.195 230.16C195.371 230.16 197.067 229.408 198.283 227.904C199.499 226.368 200.107 224.576 200.107 222.528Z" fill="white"></path> <path d="M175.089 211.008V234H169.713V215.664H159.105V234H153.729V211.008H175.089Z" fill="white"></path> <path d="M112.442 222.48C112.442 218.96 113.61 216.048 115.946 213.744C118.314 211.408 121.242 210.24 124.73 210.24C128.314 210.24 131.258 211.408 133.562 213.744C135.866 216.048 137.018 218.96 137.018 222.48C137.018 225.904 135.85 228.816 133.514 231.216C131.178 233.616 128.25 234.816 124.73 234.816C121.242 234.816 118.314 233.632 115.946 231.264C113.61 228.896 112.442 225.968 112.442 222.48ZM119.786 217.104C118.538 218.512 117.914 220.304 117.914 222.48C117.914 224.656 118.57 226.464 119.882 227.904C121.226 229.312 122.842 230.016 124.73 230.016C126.746 230.016 128.394 229.312 129.674 227.904C130.954 226.464 131.594 224.656 131.594 222.48C131.594 220.368 130.97 218.592 129.722 217.152C128.474 215.712 126.81 214.992 124.73 214.992C122.682 214.992 121.034 215.696 119.786 217.104Z" fill="white"></path> <path d="M110.4 211.008V215.664H104.16V234H98.8315V215.664H92.5435V211.008H110.4Z" fill="white"></path> <path d="M79.5415 210.24C82.5495 210.24 84.9655 211.024 86.7895 212.592C88.6135 214.16 89.7335 215.936 90.1495 217.92H84.6295C83.7975 215.84 82.0855 214.8 79.4935 214.8C77.5095 214.8 75.8935 215.488 74.6455 216.864C73.4295 218.24 72.8215 220.112 72.8215 222.48C72.8215 224.688 73.4455 226.528 74.6935 228C75.9735 229.472 77.6375 230.208 79.6855 230.208C82.2135 230.208 83.9735 229.056 84.9655 226.752H90.5335C89.8295 229.088 88.5655 231.024 86.7415 232.56C84.9495 234.064 82.5655 234.816 79.5895 234.816C76.0695 234.816 73.1415 233.68 70.8055 231.408C68.4695 229.104 67.3015 226.112 67.3015 222.432C67.3015 218.976 68.4215 216.08 70.6615 213.744C72.9015 211.408 75.8615 210.24 79.5415 210.24Z" fill="white"></path> <path d="M52.528 210.24C56.24 210.272 59.088 211.488 61.072 213.888C63.088 216.256 64.096 219.056 64.096 222.288C64.096 223.024 64.064 223.552 64 223.872H46.24C46.24 225.664 46.912 227.232 48.256 228.576C49.632 229.92 51.248 230.592 53.104 230.592C55.248 230.592 56.96 229.728 58.24 228H63.76C62.896 229.984 61.568 231.616 59.776 232.896C58.016 234.176 55.792 234.816 53.104 234.816C49.552 234.816 46.624 233.648 44.32 231.312C42.016 228.944 40.864 225.936 40.864 222.288C40.864 218.928 41.92 216.08 44.032 213.744C46.176 211.408 49.008 210.24 52.528 210.24ZM52.528 214.272C50.768 214.272 49.328 214.832 48.208 215.952C47.088 217.072 46.448 218.416 46.288 219.984H58.72C58.56 218.384 57.904 217.04 56.752 215.952C55.632 214.832 54.224 214.272 52.528 214.272Z" fill="white"></path> <path d="M33.6958 201.264L37.5358 234H32.0638L30.3358 216.672C30.2398 215.744 30.0958 214.24 29.9038 212.16C29.7118 210.08 29.6158 208.976 29.6158 208.848H29.3758C28.5758 211.76 27.8078 214.384 27.0718 216.72L21.6478 234H17.4238L11.9518 216.336C10.7678 212.72 10.0318 210.224 9.74384 208.848H9.40784C9.31184 210.928 9.11984 213.408 8.83184 216.288L7.00784 234H1.82384L5.61584 201.264H12.0958L17.8558 219.072C18.5598 221.28 19.1358 223.28 19.5838 225.072H19.7758C20.0318 224.048 20.6238 222.048 21.5518 219.072L27.2638 201.264H33.6958Z" fill="white"></path> <path d="M92.3479 1137.23C92.3479 1133.09 92.8319 1129.44 93.7999 1126.27C94.8119 1123.11 96.1319 1120.64 97.7599 1118.88C99.4319 1117.08 101.214 1115.74 103.106 1114.86C105.042 1113.98 107.066 1113.54 109.178 1113.54C111.202 1113.54 113.116 1113.93 114.92 1114.72C116.768 1115.52 118.506 1116.77 120.134 1118.49C121.762 1120.2 123.06 1122.64 124.028 1125.81C124.996 1128.98 125.48 1132.72 125.48 1137.03C125.48 1140.82 125.106 1144.2 124.358 1147.2C123.61 1150.14 122.664 1152.5 121.52 1154.26C120.376 1155.97 119.034 1157.4 117.494 1158.55C115.998 1159.69 114.546 1160.46 113.138 1160.86C111.774 1161.25 110.388 1161.45 108.98 1161.45C106.912 1161.45 104.954 1161.06 103.106 1160.26C101.302 1159.47 99.5419 1158.22 97.8259 1156.5C96.1539 1154.74 94.8119 1152.21 93.7999 1148.91C92.8319 1145.61 92.3479 1141.72 92.3479 1137.23ZM117.758 1137.23C117.758 1131.6 116.988 1127.35 115.448 1124.49C113.908 1121.63 111.752 1120.2 108.98 1120.2C106.428 1120.2 104.316 1121.59 102.644 1124.36C101.016 1127.09 100.202 1131.31 100.202 1137.03C100.202 1148.87 103.172 1154.79 109.112 1154.79C111.576 1154.79 113.622 1153.38 115.25 1150.56C116.922 1147.7 117.758 1143.26 117.758 1137.23Z" fill="white"></path> <path d="M57.4777 1160V1153.93L71.4037 1138.42C73.5157 1136.04 75.1217 1133.91 76.2217 1132.02C77.3657 1130.12 77.9377 1128.23 77.9377 1126.34C77.9377 1124.58 77.3657 1123.13 76.2217 1121.98C75.1217 1120.8 73.6037 1120.2 71.6677 1120.2C69.7757 1120.2 68.2357 1120.86 67.0477 1122.18C65.8597 1123.5 65.2657 1125.24 65.2657 1127.4H57.4777C57.5657 1123.35 58.8857 1120.03 61.4377 1117.43C63.9897 1114.83 67.4657 1113.54 71.8657 1113.54C76.1777 1113.54 79.5657 1114.72 82.0297 1117.1C84.5377 1119.43 85.7917 1122.38 85.7917 1125.94C85.7917 1128.76 85.0437 1131.44 83.5477 1134C82.0957 1136.5 79.7637 1139.5 76.5517 1142.97L67.0477 1153.2H86.5177V1160H57.4777Z" fill="white"></path> <path d="M18.9419 1127.33C23.0779 1127.33 26.3999 1128.41 28.9079 1130.56C31.4159 1132.72 32.9559 1135.16 33.5279 1137.89H25.9379C24.7939 1135.03 22.4399 1133.6 18.8759 1133.6C16.1479 1133.6 13.9259 1134.55 12.2099 1136.44C10.5379 1138.33 9.70193 1140.9 9.70193 1144.16C9.70193 1147.2 10.5599 1149.73 12.2759 1151.75C14.0359 1153.77 16.3239 1154.79 19.1399 1154.79C22.6159 1154.79 25.0359 1153.2 26.3999 1150.03H34.0559C33.0879 1153.25 31.3499 1155.91 28.8419 1158.02C26.3779 1160.09 23.0999 1161.12 19.0079 1161.12C14.1679 1161.12 10.1419 1159.56 6.92993 1156.44C3.71793 1153.27 2.11193 1149.15 2.11193 1144.09C2.11193 1139.34 3.65193 1135.36 6.73193 1132.15C9.81193 1128.94 13.8819 1127.33 18.9419 1127.33Z" fill="white"></path> <path d="M823.994 1041V1032.09H833.3V1036.31C833.3 1041.15 831.958 1045.69 829.274 1049.91H824.72C826.304 1047.31 827.294 1044.34 827.69 1041H823.994Z" fill="white"></path> <path d="M795.262 1006.94H787.738C787.914 1003.42 789.234 1000.48 791.698 998.1C794.206 995.724 797.594 994.536 801.862 994.536C806.042 994.536 809.386 995.636 811.894 997.836C814.402 1000.04 815.656 1002.83 815.656 1006.22C815.656 1008.73 814.886 1010.88 813.346 1012.69C811.85 1014.45 810.024 1015.63 807.868 1016.25V1016.38C810.684 1016.95 812.928 1018.27 814.6 1020.34C816.316 1022.41 817.174 1025.03 817.174 1028.2C817.174 1032.16 815.81 1035.52 813.082 1038.29C810.398 1041.02 806.614 1042.39 801.73 1042.39C797.022 1042.39 793.37 1041.15 790.774 1038.69C788.178 1036.23 786.748 1032.99 786.484 1028.99H794.074C794.338 1031.1 795.152 1032.79 796.516 1034.07C797.88 1035.35 799.684 1035.98 801.928 1035.98C804.128 1035.98 805.932 1035.24 807.34 1033.74C808.748 1032.2 809.452 1030.29 809.452 1028C809.452 1025.67 808.682 1023.77 807.142 1022.32C805.602 1020.83 803.314 1020.08 800.278 1020.08H797.638V1013.74H800.278C802.566 1013.74 804.392 1013.13 805.756 1011.89C807.12 1010.66 807.802 1008.99 807.802 1006.88C807.802 1005.29 807.274 1003.93 806.218 1002.79C805.206 1001.6 803.71 1001 801.73 1001C799.662 1001 798.1 1001.58 797.044 1002.72C795.988 1003.86 795.394 1005.27 795.262 1006.94Z" fill="white"></path> <path d="M760.392 1041V1002.79H753.99V995.988H767.916V1041H760.392Z" fill="white"></path> <path d="M715.455 1041V1032.09H724.761V1036.31C724.761 1041.15 723.419 1045.69 720.735 1049.91H716.181C717.765 1047.31 718.755 1044.34 719.151 1041H715.455Z" fill="white"></path> <path d="M699.966 1028.79H697.392L689.538 1041H681.42L690.396 1028.06C688.328 1027.49 686.678 1026.44 685.446 1024.9C684.258 1023.36 683.664 1021.46 683.664 1019.22C683.664 1016.23 684.654 1013.85 686.634 1012.09C688.658 1010.29 691.474 1009.39 695.082 1009.39H707.358V1041H699.966V1028.79ZM695.808 1023.58H699.966V1014.93H695.808C694.224 1014.93 693.036 1015.35 692.244 1016.18C691.452 1016.98 691.056 1017.99 691.056 1019.22C691.056 1022.12 692.64 1023.58 695.808 1023.58Z" fill="white"></path> <path d="M676.172 1009.39V1041H668.978V1036.97H668.78C666.008 1040.41 662.4 1042.12 657.956 1042.12C654.04 1042.12 650.52 1040.63 647.396 1037.63C644.316 1034.6 642.776 1030.44 642.776 1025.16C642.776 1020.23 644.294 1016.21 647.33 1013.08C650.366 1009.96 654.084 1008.4 658.484 1008.4C662.708 1008.4 666.162 1010.16 668.846 1013.68H668.978V1009.39H676.172ZM650.366 1025.16C650.366 1028.02 651.18 1030.48 652.808 1032.55C654.48 1034.62 656.856 1035.65 659.936 1035.65C662.444 1035.65 664.622 1034.69 666.47 1032.75C668.362 1030.77 669.308 1028.31 669.308 1025.36C669.308 1022.23 668.406 1019.68 666.602 1017.7C664.842 1015.72 662.642 1014.73 660.002 1014.73C656.922 1014.73 654.546 1015.77 652.874 1017.83C651.202 1019.9 650.366 1022.34 650.366 1025.16Z" fill="white"></path> <path d="M610.729 1041V1009.39H618.121V1023.38L631.321 1009.39H639.967L625.843 1024.37L640.363 1041H631.387L618.121 1025.56V1041H610.729Z" fill="white"></path> <path d="M600.719 1034.6H605.471V1051.23H598.079V1041H571.349V1009.39H578.741V1034.6H593.327V1009.39H600.719V1034.6Z" fill="white"></path> <path d="M533.386 1041V1009.39H540.514V1021.53C540.514 1025.45 540.448 1028.68 540.316 1031.23H540.448C541.108 1030 542.56 1027.84 544.804 1024.76L556.222 1009.39H562.756V1041H555.628V1028.92C555.628 1025.01 555.694 1021.75 555.826 1019.15H555.694C554.99 1020.43 553.538 1022.59 551.338 1025.62L539.92 1041H533.386Z" fill="white"></path> <path d="M524.793 1009.39V1041H517.401V1027.6H502.815V1041H495.423V1009.39H502.815V1021.4H517.401V1009.39H524.793Z" fill="white"></path> <path d="M473.981 1008.33C478.117 1008.33 481.439 1009.41 483.947 1011.56C486.455 1013.72 487.995 1016.16 488.567 1018.89H480.977C479.833 1016.03 477.479 1014.6 473.915 1014.6C471.187 1014.6 468.965 1015.55 467.249 1017.44C465.577 1019.33 464.741 1021.9 464.741 1025.16C464.741 1028.2 465.599 1030.73 467.315 1032.75C469.075 1034.77 471.363 1035.79 474.179 1035.79C477.655 1035.79 480.075 1034.2 481.439 1031.03H489.095C488.127 1034.25 486.389 1036.91 483.881 1039.02C481.417 1041.09 478.139 1042.12 474.047 1042.12C469.207 1042.12 465.181 1040.56 461.969 1037.44C458.757 1034.27 457.151 1030.15 457.151 1025.09C457.151 1020.34 458.691 1016.36 461.771 1013.15C464.851 1009.94 468.921 1008.33 473.981 1008.33Z" fill="white"></path> <path d="M443.378 1028.79H440.804L432.95 1041H424.832L433.808 1028.06C431.74 1027.49 430.09 1026.44 428.858 1024.9C427.67 1023.36 427.076 1021.46 427.076 1019.22C427.076 1016.23 428.066 1013.85 430.046 1012.09C432.07 1010.29 434.886 1009.39 438.494 1009.39H450.77V1041H443.378V1028.79ZM439.22 1023.58H443.378V1014.93H439.22C437.636 1014.93 436.448 1015.35 435.656 1016.18C434.864 1016.98 434.468 1017.99 434.468 1019.22C434.468 1022.12 436.052 1023.58 439.22 1023.58Z" fill="white"></path> <path d="M416.164 995.988L421.444 1041H413.92L411.544 1017.17C411.412 1015.9 411.214 1013.83 410.95 1010.97C410.686 1008.11 410.554 1006.59 410.554 1006.42H410.224C409.124 1010.42 408.068 1014.03 407.056 1017.24L399.598 1041H393.79L386.266 1016.71C384.638 1011.74 383.626 1008.31 383.23 1006.42H382.768C382.636 1009.28 382.372 1012.69 381.976 1016.65L379.468 1041H372.34L377.554 995.988H386.464L394.384 1020.47C395.352 1023.51 396.144 1026.26 396.76 1028.72H397.024C397.376 1027.32 398.19 1024.57 399.466 1020.47L407.32 995.988H416.164Z" fill="white"></path> <path d="M340.273 1041V1032.09H349.579V1041H340.273Z" fill="white"></path> <path d="M305.079 1030.64L306.993 1009.39H332.139V1041H324.813V1015.79H313.329L311.877 1031.5C311.525 1035.1 310.645 1037.68 309.237 1039.22C307.829 1040.71 305.607 1041.46 302.571 1041.46C301.691 1041.46 300.635 1041.33 299.403 1041.07V1034.99C300.107 1035.17 300.833 1035.26 301.581 1035.26C302.725 1035.26 303.561 1034.88 304.089 1034.14C304.617 1033.39 304.947 1032.22 305.079 1030.64Z" fill="white"></path> <path d="M298.866 1009.39L281.508 1056.51H274.445L280.254 1040.87L268.703 1009.39H276.293L281.772 1025.09C282.916 1028.57 283.62 1030.99 283.884 1032.35H284.082C284.698 1029.89 285.402 1027.47 286.194 1025.09L291.539 1009.39H298.866Z" fill="white"></path> <path d="M239.211 1041V1032.09H248.517V1036.31C248.517 1041.15 247.175 1045.69 244.491 1049.91H239.937C241.521 1047.31 242.511 1044.34 242.907 1041H239.211Z" fill="white"></path> <path d="M231.059 1009.39V1041H223.865V1036.97H223.667C220.895 1040.41 217.287 1042.12 212.843 1042.12C208.927 1042.12 205.407 1040.63 202.283 1037.63C199.203 1034.6 197.663 1030.44 197.663 1025.16C197.663 1020.23 199.181 1016.21 202.217 1013.08C205.253 1009.96 208.971 1008.4 213.371 1008.4C217.595 1008.4 221.049 1010.16 223.733 1013.68H223.865V1009.39H231.059ZM205.253 1025.16C205.253 1028.02 206.067 1030.48 207.695 1032.55C209.367 1034.62 211.743 1035.65 214.823 1035.65C217.331 1035.65 219.509 1034.69 221.357 1032.75C223.249 1030.77 224.195 1028.31 224.195 1025.36C224.195 1022.23 223.293 1019.68 221.489 1017.7C219.729 1015.72 217.529 1014.73 214.889 1014.73C211.809 1014.73 209.433 1015.77 207.761 1017.83C206.089 1019.9 205.253 1022.34 205.253 1025.16Z" fill="white"></path> <path d="M166.776 1041V1009.39H180.042C183.43 1009.39 186.048 1010.07 187.896 1011.43C189.744 1012.75 190.668 1014.64 190.668 1017.11C190.668 1018.65 190.228 1020.03 189.348 1021.27C188.468 1022.45 187.148 1023.29 185.388 1023.77C187.984 1024.26 189.876 1025.2 191.064 1026.61C192.296 1028.02 192.912 1029.67 192.912 1031.56C192.912 1034.42 191.878 1036.71 189.81 1038.43C187.786 1040.14 184.948 1041 181.296 1041H166.776ZM179.91 1027.01H173.772V1035.85H180.57C182.33 1035.85 183.628 1035.43 184.464 1034.6C185.344 1033.76 185.784 1032.71 185.784 1031.43C185.784 1028.48 183.826 1027.01 179.91 1027.01ZM178.788 1014.53H173.772V1021.99H178.26C181.824 1021.99 183.606 1020.69 183.606 1018.1C183.606 1015.72 182 1014.53 178.788 1014.53Z" fill="white"></path> <path d="M132.552 1041V1009.39H139.944V1023.38L153.144 1009.39H161.79L147.666 1024.37L162.186 1041H153.21L139.944 1025.56V1041H132.552Z" fill="white"></path> <path d="M111.11 1008.33C115.246 1008.33 118.568 1009.41 121.076 1011.56C123.584 1013.72 125.124 1016.16 125.696 1018.89H118.106C116.962 1016.03 114.608 1014.6 111.044 1014.6C108.316 1014.6 106.094 1015.55 104.378 1017.44C102.706 1019.33 101.87 1021.9 101.87 1025.16C101.87 1028.2 102.728 1030.73 104.444 1032.75C106.204 1034.77 108.492 1035.79 111.308 1035.79C114.784 1035.79 117.204 1034.2 118.568 1031.03H126.224C125.256 1034.25 123.518 1036.91 121.01 1039.02C118.546 1041.09 115.268 1042.12 111.176 1042.12C106.336 1042.12 102.31 1040.56 99.0979 1037.44C95.8859 1034.27 94.2799 1030.15 94.2799 1025.09C94.2799 1020.34 95.8199 1016.36 98.8999 1013.15C101.98 1009.94 106.05 1008.33 111.11 1008.33Z" fill="white"></path> <path d="M56.1881 1025.16C56.1881 1020.32 57.7941 1016.32 61.0061 1013.15C64.2621 1009.94 68.2881 1008.33 73.0841 1008.33C78.0121 1008.33 82.0601 1009.94 85.2281 1013.15C88.3961 1016.32 89.9801 1020.32 89.9801 1025.16C89.9801 1029.87 88.3741 1033.87 85.1621 1037.17C81.9501 1040.47 77.9241 1042.12 73.0841 1042.12C68.2881 1042.12 64.2621 1040.49 61.0061 1037.24C57.7941 1033.98 56.1881 1029.96 56.1881 1025.16ZM66.2861 1017.77C64.5701 1019.7 63.7121 1022.17 63.7121 1025.16C63.7121 1028.15 64.6141 1030.64 66.4181 1032.62C68.2661 1034.55 70.4881 1035.52 73.0841 1035.52C75.8561 1035.52 78.1221 1034.55 79.8821 1032.62C81.6421 1030.64 82.5221 1028.15 82.5221 1025.16C82.5221 1022.26 81.6641 1019.81 79.9481 1017.83C78.2321 1015.85 75.9441 1014.86 73.0841 1014.86C70.2681 1014.86 68.0021 1015.83 66.2861 1017.77Z" fill="white"></path> <path d="M46.3319 995.988L51.6119 1041H44.0879L41.7119 1017.17C41.5799 1015.9 41.3819 1013.83 41.1179 1010.97C40.8539 1008.11 40.7219 1006.59 40.7219 1006.42H40.3919C39.2919 1010.42 38.2359 1014.03 37.2239 1017.24L29.7659 1041H23.9579L16.4339 1016.71C14.8059 1011.74 13.7939 1008.31 13.3979 1006.42H12.9359C12.8039 1009.28 12.5399 1012.69 12.1439 1016.65L9.63593 1041H2.50793L7.72193 995.988H16.6319L24.5519 1020.47C25.5199 1023.51 26.3119 1026.26 26.9279 1028.72H27.1919C27.5439 1027.32 28.3579 1024.57 29.6339 1020.47L37.4879 995.988H46.3319Z" fill="white"></path> <path d="M129.979 891.24C132.987 891.24 135.403 892.024 137.227 893.592C139.051 895.16 140.171 896.936 140.587 898.92H135.067C134.235 896.84 132.523 895.8 129.931 895.8C127.947 895.8 126.331 896.488 125.083 897.864C123.867 899.24 123.259 901.112 123.259 903.48C123.259 905.688 123.883 907.528 125.131 909C126.411 910.472 128.075 911.208 130.123 911.208C132.651 911.208 134.411 910.056 135.403 907.752H140.971C140.267 910.088 139.003 912.024 137.179 913.56C135.387 915.064 133.003 915.816 130.027 915.816C126.507 915.816 123.579 914.68 121.243 912.408C118.907 910.104 117.739 907.112 117.739 903.432C117.739 899.976 118.859 897.08 121.099 894.744C123.339 892.408 126.299 891.24 129.979 891.24Z" fill="white"></path> <path d="M102.966 891.24C106.678 891.272 109.526 892.488 111.51 894.888C113.526 897.256 114.534 900.056 114.534 903.288C114.534 904.024 114.502 904.552 114.438 904.872H96.6776C96.6776 906.664 97.3496 908.232 98.6936 909.576C100.07 910.92 101.686 911.592 103.542 911.592C105.686 911.592 107.398 910.728 108.678 909H114.198C113.334 910.984 112.006 912.616 110.214 913.896C108.454 915.176 106.23 915.816 103.542 915.816C99.9896 915.816 97.0616 914.648 94.7576 912.312C92.4536 909.944 91.3016 906.936 91.3016 903.288C91.3016 899.928 92.3576 897.08 94.4696 894.744C96.6136 892.408 99.4456 891.24 102.966 891.24ZM102.966 895.272C101.206 895.272 99.7656 895.832 98.6456 896.952C97.5256 898.072 96.8856 899.416 96.7256 900.984H109.158C108.998 899.384 108.342 898.04 107.19 896.952C106.07 895.832 104.662 895.272 102.966 895.272Z" fill="white"></path> <path d="M63.9168 926.28V892.008H69.1488V894.936H69.2928C71.3728 892.504 74.0128 891.288 77.2128 891.288C80.2528 891.288 82.8448 892.44 84.9888 894.744C87.1328 897.016 88.2048 899.96 88.2048 903.576C88.2048 907.128 87.1008 910.056 84.8928 912.36C82.7168 914.664 80.0608 915.816 76.9248 915.816C73.7888 915.816 71.2608 914.616 69.3408 912.216H69.1968V926.28H63.9168ZM82.6848 903.528C82.6848 901.448 82.0768 899.672 80.8608 898.2C79.6448 896.728 77.9328 895.992 75.7248 895.992C73.8048 895.992 72.1888 896.696 70.8768 898.104C69.5968 899.512 68.9568 901.352 68.9568 903.624C68.9568 905.8 69.6128 907.608 70.9248 909.048C72.2688 910.456 73.8848 911.16 75.7728 911.16C77.9488 911.16 79.6448 910.408 80.8608 908.904C82.0768 907.368 82.6848 905.576 82.6848 903.528Z" fill="white"></path> <path d="M32.0325 922.44V910.344H32.5605C35.6965 910.344 37.5685 907.08 38.1765 900.552L38.9925 892.008H56.6085V910.344H60.0645V922.44H54.7845V915H37.3125V922.44H32.0325ZM51.2325 910.344V896.664H43.5045L43.0725 900.984C42.8165 903.64 42.4805 905.64 42.0645 906.984C41.6485 908.328 41.0405 909.448 40.2405 910.344H51.2325Z" fill="white"></path> <path d="M0.335938 915L13.3439 882.264H18.5279L30.9599 915H25.0559L22.1279 906.984H9.07194L6.09594 915H0.335938ZM13.6319 894.312L10.5599 902.664H20.6399L17.6159 894.264C16.9439 892.408 16.3359 890.52 15.7919 888.6H15.5519C14.9759 890.584 14.3359 892.488 13.6319 894.312Z" fill="white"></path> </svg> 