<?xml version="1.0" encoding="UTF-8"?> <svg xmlns="http://www.w3.org/2000/svg" xmlns:xlink="http://www.w3.org/1999/xlink" viewBox="0 0 1606 753.3"> <defs> <linearGradient id="linear-gradient" x1="990.52" y1="103.07" x2="991.02" y2="103.07" gradientUnits="userSpaceOnUse"> <stop offset="0" stop-color="#66dac7"></stop> <stop offset="1" stop-color="#00c2a2"></stop> </linearGradient> <linearGradient id="linear-gradient-2" x1="987.02" y1="111.59" x2="987.52" y2="111.59" gradientUnits="userSpaceOnUse"> <stop offset="0" stop-color="#66baac"></stop> <stop offset="1" stop-color="#008c75"></stop> </linearGradient> <linearGradient id="linear-gradient-3" x1="564.79" y1="429.52" x2="565.29" y2="429.52" gradientTransform="translate(348.45 17.25) rotate(-18.86)" xlink:href="#linear-gradient"></linearGradient> <linearGradient id="linear-gradient-4" x1="1300.28" y1="-442.49" x2="1300.78" y2="-442.49" gradientTransform="translate(-357.22 -92.39) rotate(19.89)" xlink:href="#linear-gradient"></linearGradient> <linearGradient id="linear-gradient-5" x1="1028.06" y1="110.54" x2="1028.56" y2="110.54" gradientUnits="userSpaceOnUse"> <stop offset="0" stop-color="#66a699"></stop> <stop offset="1" stop-color="#006b55"></stop> </linearGradient> <linearGradient id="linear-gradient-6" x1="986.73" y1="93.27" x2="987.23" y2="93.27" xlink:href="#linear-gradient-5"></linearGradient> <linearGradient id="linear-gradient-7" x1="998.8" y1="83.26" x2="999.3" y2="83.26" xlink:href="#linear-gradient-2"></linearGradient> <linearGradient id="linear-gradient-8" x1="987.38" y1="20.03" x2="987.88" y2="20.03" xlink:href="#linear-gradient-2"></linearGradient> <linearGradient id="linear-gradient-9" x1="990.12" y1="17.69" x2="990.62" y2="17.69" xlink:href="#linear-gradient-2"></linearGradient> <linearGradient id="linear-gradient-10" x1="-898.27" y1="495.28" x2="-897.77" y2="495.28" gradientTransform="translate(1110.42 -541.99) rotate(-69.87)" gradientUnits="userSpaceOnUse"> <stop offset="0" stop-color="#ff66bf"></stop> <stop offset="1" stop-color="#ff0095"></stop> </linearGradient> </defs> <g style="isolation:isolate;"> <g id="Layer_2"> <g id="fon_photo"> <rect y="95.3" width="1606" height="658" style="fill:#00c2a2;"></rect> <rect x="91.26" y="185.79" width="138.35" height="138.35" style="fill:#fff;"></rect> </g> <g id="cubes_"> <g> <g> <rect x="1348.14" y="97.93" width="27.3" height="27.3" transform="translate(424.74 1106) rotate(-51.39)" style="fill:#00c2a2; mix-blend-mode:screen;"></rect> <rect x="1348.14" y="97.93" width="27.3" height="27.3" transform="translate(424.74 1106) rotate(-51.39)" style="fill:#00c2a2; mix-blend-mode:screen;"></rect> <polygon points="1342.6 113.73 1359.64 92.4 1380.98 109.44 1342.6 113.73" style="fill:url(#linear-gradient); mix-blend-mode:screen;"></polygon> </g> <g> <rect x="1424.45" y="97.93" width="27.3" height="27.3" transform="translate(1549.69 -1326.52) rotate(90)" style="fill:#008c75; mix-blend-mode:screen;"></rect> <rect x="1424.45" y="97.93" width="27.3" height="27.3" transform="translate(1549.69 -1326.52) rotate(90)" style="fill:#008c75; mix-blend-mode:screen;"></rect> <polygon points="1451.75 97.93 1451.75 125.24 1424.45 125.24 1451.75 97.93" style="fill:url(#linear-gradient-2); mix-blend-mode:screen;"></polygon> </g> <g> <rect x="1465.44" y="71.26" width="27.3" height="27.3" transform="translate(51.96 482.69) rotate(-18.86)" style="fill:#00c2a2; mix-blend-mode:screen;"></rect> <rect x="1465.44" y="71.26" width="27.3" height="27.3" transform="translate(51.96 482.69) rotate(-18.86)" style="fill:#00c2a2; mix-blend-mode:screen;"></rect> <polygon points="1461.76 76.41 1487.6 67.58 1496.42 93.42 1461.76 76.41" style="fill:url(#linear-gradient-3); mix-blend-mode:screen;"></polygon> </g> <g> <rect x="1328.37" y="45.13" width="27.3" height="27.3" transform="translate(7.79 214.64) rotate(-9.17)" style="fill:#00c2a2; mix-blend-mode:screen;"></rect> <rect x="1328.37" y="45.13" width="27.3" height="27.3" transform="translate(7.79 214.64) rotate(-9.17)" style="fill:#00c2a2; mix-blend-mode:screen;"></rect> <polygon points="1326.37 47.48 1353.32 43.13 1357.67 70.08 1326.37 47.48" style="fill:url(#linear-gradient-4); mix-blend-mode:screen;"></polygon> </g> <g> <rect x="1542.18" y="96.89" width="27.3" height="27.3" style="fill:#006b55; mix-blend-mode:screen;"></rect> <rect x="1542.18" y="96.89" width="27.3" height="27.3" style="fill:#006b55; mix-blend-mode:screen;"></rect> <polygon points="1542.18 96.89 1569.48 96.89 1569.48 124.19 1542.18 96.89" style="fill:url(#linear-gradient-5); mix-blend-mode:screen;"></polygon> </g> <g> <rect x="1273.71" y="84.42" width="27.3" height="27.3" transform="translate(47.89 459.5) rotate(-20.61)" style="fill:#006b55; mix-blend-mode:screen;"></rect> <rect x="1273.71" y="84.42" width="27.3" height="27.3" transform="translate(47.89 459.5) rotate(-20.61)" style="fill:#006b55; mix-blend-mode:screen;"></rect> <polygon points="1269.77 90.1 1295.33 80.49 1304.94 106.04 1269.77 90.1" style="fill:url(#linear-gradient-6); mix-blend-mode:screen;"></polygon> </g> <g> <rect x="1512.91" y="69.61" width="27.3" height="27.3" transform="translate(1609.83 -1443.3) rotate(90)" style="fill:#008c75; mix-blend-mode:screen;"></rect> <rect x="1512.91" y="69.61" width="27.3" height="27.3" transform="translate(1609.83 -1443.3) rotate(90)" style="fill:#008c75; mix-blend-mode:screen;"></rect> <polygon points="1540.22 69.61 1540.22 96.92 1512.91 96.92 1540.22 69.61" style="fill:url(#linear-gradient-7); mix-blend-mode:screen;"></polygon> </g> <g> <rect x="1279.29" y="5.2" width="27.3" height="27.3" transform="translate(1423.16 -1267.66) rotate(94.94)" style="fill:#008c75; mix-blend-mode:screen;"></rect> <rect x="1279.29" y="5.2" width="27.3" height="27.3" transform="translate(1423.16 -1267.66) rotate(94.94)" style="fill:#008c75; mix-blend-mode:screen;"></rect> <polygon points="1307.72 6.43 1305.37 33.63 1278.17 31.28 1307.72 6.43" style="fill:url(#linear-gradient-8); mix-blend-mode:screen;"></polygon> </g> <g> <rect x="1380.52" y="4.04" width="27.3" height="27.3" transform="translate(902.65 -1287.09) rotate(68.63)" style="fill:#008c75; mix-blend-mode:screen;"></rect> <rect x="1380.52" y="4.04" width="27.3" height="27.3" transform="translate(902.65 -1287.09) rotate(68.63)" style="fill:#008c75; mix-blend-mode:screen;"></rect> <polygon points="1401.91 0 1411.86 25.43 1386.43 35.38 1401.91 0" style="fill:url(#linear-gradient-9); mix-blend-mode:screen;"></polygon> </g> <g> <rect x="1404.87" y="42.95" width="27.3" height="27.3" transform="translate(877.23 1369.01) rotate(-69.87)" style="fill:#ff0095;"></rect> <polygon points="1401.01 64.72 1410.41 39.09 1436.04 48.48 1401.01 64.72" style="fill:url(#linear-gradient-10);"></polygon> </g> </g> </g> </g> </g> </svg> 