<?xml version="1.0" encoding="UTF-8"?> <!-- Generator: Adobe Illustrator 26.0.3, SVG Export Plug-In . SVG Version: 6.00 Build 0) --> <svg xmlns="http://www.w3.org/2000/svg" xmlns:xlink="http://www.w3.org/1999/xlink" id="Layer_1" x="0px" y="0px" viewBox="0 0 981.5 240.3" style="enable-background:new 0 0 981.5 240.3;" xml:space="preserve"> <style type="text/css"> .st0{fill:#C72026;} .st1{fill:#FFFFFF;} .st2{fill:#394159;} </style> <path class="st0" d="M271,0h179.9c16.7,0,30.2,13.5,30.2,30.2v210.1l0,0H271c-16.7,0-30.2-13.5-30.2-30.2l0,0V30.2 C240.8,13.5,254.3,0,271,0z"></path> <path class="st1" d="M126.8,165.9c0,5.3-4.3,9.7-9.7,9.7H98.4c-0.3,0-0.5-0.2-0.5-0.5v-55.7c0,0,0-14.3,0.3-25.5 c-1.9,11.2-5.4,25.8-5.4,25.8c-1.2,5.2-3.4,13.6-4.7,18.8l-9.7,37.1c0,0.1-0.1,0.2-0.2,0.2H49c-0.3,0-0.5-0.2-0.6-0.5l-9.8-36.8 c-1.4-5.1-3.5-13.6-4.8-18.8l-3.4-16.2c-1-5.2-1.8-5.2-1.7,0.2l0.2,15.8V166c0,5.3-4.3,9.7-9.7,9.7H0.6c-0.3,0-0.5-0.2-0.5-0.5V71.5 c0-3.8,4.2-6.8,9.2-6.8h35.9l18.7,82.4c0,0,0.1,0.1,0.1,0c0,0,0,0,0,0l16.6-73c1.4-5.4,6.2-9.2,11.8-9.5h33.9c0.2,0,0.4,0.2,0.4,0.4 V165.9z"></path> <path class="st1" d="M209.8,64.7c5.3,0,9.7,4.3,9.7,9.7v15.1c0,0.1-0.1,0.1-0.1,0.1c0,0,0,0,0,0h-40c-0.2,0-0.4,0.2-0.4,0.4 c0,0,0,0,0,0v16.6c0,0.1,0.1,0.2,0.2,0.2h38.8c0,0,0.1,0,0.1,0.1l0,0v22.8c0,0.2-0.2,0.4-0.4,0.4l0,0h-38.5c-0.1,0-0.1,0-0.1,0.1 c0,0,0,0,0,0v20.4c0,0.1,0.1,0.1,0.1,0.1c0,0,0,0,0,0H221c0.1,0,0.2,0.1,0.2,0.2v24.6c0,0,0,0.1,0,0.1c0,0,0,0,0,0h-61.4 c-5.3,0-9.7-4.3-9.7-9.7V64.7l0,0L209.8,64.7z"></path> <path class="st1" d="M338.1,97.4h-23.4c0-4-1.1-7.2-3.2-9.5s-5.1-3.5-8.9-3.5c-2.6-0.1-5.1,0.7-7.1,2.4c-1.9,1.6-3,3.9-2.9,6.4 c0,3.1,1.6,5.7,4.7,7.6c3.2,2,8.2,4,15.1,6.2c22.2,7.1,33.3,19.4,33.3,37.1c0,9.2-3.7,17.4-11,24.5c-7.3,7.1-18.1,10.7-32.3,10.7 c-13.3,0-24-3.5-31.9-10.6s-11.9-16.6-11.9-28.8h23.7c0,0,6.5-0.6,7.2,4.7c1.1,7.6,5.7,11.4,13.4,11.4c3.1,0.1,6.1-0.9,8.5-2.8 c2.2-1.8,3.4-4.6,3.3-7.5c0.1-3.4-1.6-6.7-4.4-8.7c-2.9-2.2-8-4.5-15.1-6.7c-22.2-6.9-33.3-19.1-33.3-36.4c0-10.1,3.9-18,11.8-23.9 c7.9-5.9,17.6-8.8,29.1-8.8c12.5,0,22.5,3.2,29.9,9.7c5.5,4.8,8.6,10.9,10.3,18.2C345.1,97.8,338.1,97.4,338.1,97.4z"></path> <path class="st1" d="M347.4,120.1c-0.2-15.6,5.9-30.6,16.9-41.6c11.3-11.6,25.4-17.4,42.3-17.4c17.6,0,31.7,5.8,42.4,17.4 c10.7,11.6,16,25.5,16,41.6c0,16.3-5.6,30.2-16.8,41.7c-11.2,11.5-25.2,17.3-41.9,17.3c-9,0.1-18-1.7-26.3-5.3 c-7.2-3.1-13.6-7.9-18.5-14c-4.5-5.7-8.1-12.1-10.5-18.9C348.6,134.3,347.4,127.2,347.4,120.1z M385.4,96.7 c-5.6,6.3-8.5,14.1-8.5,23.4c0,9.3,2.8,17.1,8.4,23.4c10.1,11.5,27.6,12.6,39.1,2.6c0.9-0.8,1.8-1.6,2.6-2.6 c5.6-6.3,8.4-14.1,8.4-23.4c0-9.3-2.7-17.1-8-23.4c-5.3-6.3-12.3-9.4-21-9.4C398.3,87.2,390.6,90.6,385.4,96.7z"></path> <path class="st1" d="M686.4,120.1c-0.2-15.6,5.9-30.6,16.9-41.6c11.3-11.6,25.4-17.4,42.3-17.4c17.6,0,31.7,5.8,42.4,17.4 c10.7,11.6,16,25.5,16,41.6c0,16.3-5.6,30.2-16.8,41.7c-11.2,11.5-25.2,17.3-41.8,17.3c-9,0.1-18-1.7-26.3-5.3 c-7.2-3.1-13.6-7.9-18.5-14c-4.5-5.7-8.1-12.1-10.5-18.9C687.6,134.3,686.4,127.2,686.4,120.1z M724.4,96.7 c-5.6,6.3-8.5,14.1-8.5,23.4c0,9.3,2.8,17.1,8.4,23.4c10.1,11.5,27.6,12.6,39.1,2.6c0.9-0.8,1.8-1.6,2.6-2.6 c5.6-6.3,8.4-14.1,8.4-23.4c0-9.3-2.7-17.1-8-23.4c-5.3-6.3-12.3-9.4-21-9.4C737.3,87.2,729.6,90.7,724.4,96.7L724.4,96.7z"></path> <path class="st1" d="M971.8,64.7c5.3,0,9.7,4.3,9.7,9.7v14.8c0,0.2-0.2,0.4-0.4,0.4h-40.1c0,0-0.1,0-0.1,0.1V110c0,0,0,0.1,0.1,0 h38.7c0.1,0,0.1,0.1,0.1,0.2v23c0,0.1,0,0.1-0.1,0.1c0,0,0,0,0,0h-38.5c-0.1,0-0.2,0.1-0.2,0.2c0,0,0,0,0,0v32.4 c0,5.3-4.3,9.7-9.7,9.7h-19.4c-0.1,0-0.2-0.1-0.2-0.2V65c0-0.2,0.2-0.3,0.3-0.3l0,0H971.8z"></path> <path class="st1" d="M879.3,64.7c5.3,0,9.7,4.3,9.7,9.7v14.8c0,0.2-0.2,0.4-0.4,0.4h-40.1c0,0-0.1,0-0.1,0.1V110c0,0,0,0.1,0.1,0 h38.7c0.1,0,0.1,0.1,0.1,0.2v23c0,0.1,0,0.1-0.1,0.1c0,0,0,0,0,0h-38.5c-0.1,0-0.2,0.1-0.2,0.2c0,0,0,0,0,0v32.4 c0,5.3-4.3,9.7-9.7,9.7h-19.4c-0.1,0-0.2-0.1-0.2-0.2V65c0-0.2,0.2-0.3,0.3-0.3l0,0H879.3z"></path> <path class="st2" d="M488.3,175.4v0.2h0.2C488.4,175.6,488.3,175.5,488.3,175.4C488.3,175.5,488.3,175.5,488.3,175.4z"></path> <path class="st2" d="M488.4,64.7h-0.2v0.2C488.3,64.8,488.4,64.7,488.4,64.7z"></path> <path class="st2" d="M488.4,64.7L488.4,64.7c-0.1,0-0.2,0.1-0.2,0.2C488.3,64.8,488.4,64.7,488.4,64.7z"></path> <path class="st1" d="M568.2,74.1c-8-6.2-18.3-9.3-30.9-9.4h-37.2c-0.1,0-0.2,0.1-0.2,0.2v110.6c0,0.1,0.1,0.1,0.1,0.2c0,0,0,0,0,0 h19.3c5.3,0,9.7-4.3,9.7-9.7v-27.7h7.8c14.3,0,25.1-3.2,32.4-9.8c7.3-6.5,11-15.6,11-27.2C580.3,89.4,576.3,80.3,568.2,74.1z M535.6,115.6H529V87.4h6.8c5.2,0,9,1.4,11.5,4.1c2.5,2.8,3.8,6.4,3.7,10.2C551,111,545.9,115.6,535.6,115.6z"></path> <path class="st1" d="M652.9,129.3c6-2,11.2-5.8,15-10.9c3.8-5.1,5.7-11.4,5.7-19c0-23.1-14.9-34.6-44.7-34.6h-35.1 c-0.3,0-0.5,0.2-0.5,0.5v100.6c0,5.4,4.4,9.8,9.8,9.8h19.2c0,0,0.1,0,0.1-0.1c0,0,0,0,0,0v-41.9h2.4l28.1,42h33.8L652.9,129.3z M639.9,110.4c-2.8,2.4-6.4,3.6-10,3.4h-7.6V87.4h7.4c4.4,0,7.9,1.2,10.3,3.6c2.4,2.4,3.7,5.7,3.7,9.9 C643.7,104.9,642.5,108.1,639.9,110.4z"></path> </svg> 