<?xml version="1.0" encoding="UTF-8"?> <svg xmlns="http://www.w3.org/2000/svg" width="758" height="61" viewBox="0 0 758 61" fill="none"><path d="M734.733 39.664L746.637 19.632V17.456H742.733V16.304H757.837V17.456H753.421V44.784H757.837V46H742.733V44.784H746.637V22L734.733 42.032V44.784H738.637V46H723.533V44.784H727.885V17.456H723.533V16.304H738.637V17.456H734.733V39.664Z" fill="#3E3355"></path><path d="M697.608 39.664L709.512 19.632V17.456H705.608V16.304H720.712V17.456H716.296V44.784H720.712V46H705.608V44.784H709.512V22L697.608 42.032V44.784H701.512V46H686.408V44.784H690.76V17.456H686.408V16.304H701.512V17.456H697.608V39.664Z" fill="#3E3355"></path><path d="M653.26 44.784V17.456H648.908V16.304H664.012V17.456H660.108V44.784H672.012V17.456H668.108V16.304H683.212V17.456H678.796V44.784H684.044L685.004 56.048H683.596C682.999 53.1467 682.082 50.9493 680.844 49.456C679.65 47.9627 678.327 47.0027 676.876 46.576C675.468 46.192 673.783 46 671.82 46H648.908V44.784H653.26Z" fill="#3E3355"></path><path d="M622.983 30.512V44.784H626.887V46H611.783V44.784H616.135V17.456H611.783V16.304H626.887V17.456H622.983V29.424H634.887V17.456H630.983V16.304H646.087V17.456H641.671V44.784H646.087V46H630.983V44.784H634.887V30.512H622.983Z" fill="#3E3355"></path><path d="M607.593 37.68L608.809 38.448C606.974 41.264 605.076 43.3547 603.113 44.72C601.193 46.0853 598.868 46.768 596.137 46.768C591.742 46.768 588.137 45.296 585.321 42.352C582.548 39.408 581.161 35.6747 581.161 31.152C581.161 26.7147 582.569 23.0027 585.385 20.016C588.201 17.0293 591.465 15.536 595.177 15.536C597.182 15.536 599.166 15.9627 601.129 16.816C603.092 17.6693 604.734 19.12 606.057 21.168C607.422 23.1733 608.233 25.9467 608.489 29.488H588.969L589.033 34.288C589.161 37.488 589.609 40.1333 590.377 42.224C591.188 44.272 593.022 45.296 595.881 45.296C600.148 45.296 604.052 42.7573 607.593 37.68ZM588.969 28.336H601.257C601.428 24.5813 601.129 21.7013 600.361 19.696C599.636 17.6907 598.036 16.688 595.561 16.688C593.129 16.688 591.422 17.4773 590.441 19.056C589.502 20.592 589.033 22.2347 589.033 23.984L588.969 28.336Z" fill="#3E3355"></path><path d="M557.104 15.92V20.144C558.554 17.072 560.88 15.536 564.08 15.536C566.341 15.536 568.538 16.1547 570.672 17.392C572.805 18.6293 574.576 20.4213 575.984 22.768C577.392 25.1147 578.096 27.9307 578.096 31.216C578.096 35.2693 576.688 38.8747 573.872 42.032C571.056 45.1893 567.621 46.768 563.568 46.768C560.709 46.768 558.554 45.6587 557.104 43.44V59.696H561.52V60.848H545.904V59.696H550.256V17.456H545.904V16.304H552.752C554.245 16.304 555.696 16.176 557.104 15.92ZM570.288 35.184V25.904C570.288 22.5333 569.69 20.1867 568.496 18.864C567.301 17.4987 565.808 16.816 564.016 16.816C562.096 16.816 560.453 17.5627 559.088 19.056C557.765 20.5493 557.104 22.2773 557.104 24.24V39.792C557.104 41.2853 557.786 42.6507 559.152 43.888C560.56 45.0827 562.096 45.68 563.76 45.68C565.466 45.68 566.981 44.912 568.304 43.376C569.626 41.84 570.288 39.1093 570.288 35.184Z" fill="#3E3355"></path><path d="M541.906 37.68L543.122 38.448C541.287 41.264 539.388 43.3547 537.426 44.72C535.506 46.0853 533.18 46.768 530.45 46.768C526.055 46.768 522.45 45.296 519.634 42.352C516.86 39.408 515.474 35.6747 515.474 31.152C515.474 26.7147 516.882 23.0027 519.698 20.016C522.514 17.0293 525.778 15.536 529.49 15.536C531.495 15.536 533.479 15.9627 535.442 16.816C537.404 17.6693 539.047 19.12 540.37 21.168C541.735 23.1733 542.546 25.9467 542.802 29.488H523.282L523.346 34.288C523.474 37.488 523.922 40.1333 524.69 42.224C525.5 44.272 527.335 45.296 530.194 45.296C534.46 45.296 538.364 42.7573 541.906 37.68ZM523.282 28.336H535.57C535.74 24.5813 535.442 21.7013 534.674 19.696C533.948 17.6907 532.348 16.688 529.874 16.688C527.442 16.688 525.735 17.4773 524.754 19.056C523.815 20.592 523.346 22.2347 523.346 23.984L523.282 28.336Z" fill="#3E3355"></path><path d="M491.925 1.90401V19.696C493.589 16.9227 496.042 15.536 499.285 15.536C500.949 15.536 502.549 15.92 504.085 16.688C505.664 17.456 507.072 18.5653 508.309 20.016C509.589 21.424 510.592 23.088 511.317 25.008C512.042 26.8853 512.405 28.9973 512.405 31.344C512.405 33.4773 511.872 35.76 510.805 38.192C509.738 40.5813 508.138 42.608 506.005 44.272C503.872 45.936 501.29 46.768 498.261 46.768C495.658 46.768 493.546 45.424 491.925 42.736V59.696H496.341V60.848H480.725V59.696H485.077V42.736C483.669 45.424 481.578 46.768 478.805 46.768C474.837 46.768 471.488 45.2107 468.757 42.096C466.026 38.9813 464.661 35.3973 464.661 31.344C464.661 28.4 465.28 25.7333 466.517 23.344C467.754 20.9547 469.418 19.056 471.509 17.648C473.6 16.24 475.776 15.536 478.037 15.536C479.445 15.536 480.789 15.8987 482.069 16.624C483.349 17.3067 484.352 18.3307 485.077 19.696V3.50401H480.725V2.35201H487.701C489.322 2.35201 490.73 2.20267 491.925 1.90401ZM504.533 36.656V25.904C504.533 22.9173 503.914 20.6987 502.677 19.248C501.44 17.7547 499.84 17.008 497.877 17.008C496.256 17.008 494.848 17.712 493.653 19.12C492.501 20.4853 491.925 22.3627 491.925 24.752V36.912C491.925 38.96 492.394 40.9013 493.333 42.736C494.272 44.528 495.829 45.424 498.005 45.424C499.84 45.424 501.376 44.72 502.613 43.312C503.893 41.904 504.533 39.6853 504.533 36.656ZM485.077 36.912V24.816C485.077 22.384 484.501 20.4853 483.349 19.12C482.197 17.712 480.832 17.008 479.253 17.008C477.333 17.008 475.712 17.7547 474.389 19.248C473.109 20.7413 472.469 22.96 472.469 25.904V36.656C472.469 39.6427 473.13 41.8613 474.453 43.312C475.776 44.72 477.333 45.424 479.125 45.424C480.661 45.424 482.026 44.784 483.221 43.504C484.458 42.1813 485.077 39.984 485.077 36.912Z" fill="#3E3355"></path><path d="M438.608 30.512V44.784H442.512V46H427.408V44.784H431.76V17.456H427.408V16.304H442.512V17.456H438.608V29.424H450.512V17.456H446.608V16.304H461.712V17.456H457.296V44.784H461.712V46H446.608V44.784H450.512V30.512H438.608Z" fill="#3E3355"></path><path d="M394.286 31.152C394.286 27.056 395.673 23.4293 398.446 20.272C401.262 17.1147 404.889 15.536 409.326 15.536C412.27 15.536 414.894 16.304 417.198 17.84C419.545 19.3333 421.337 21.296 422.574 23.728C423.854 26.1173 424.494 28.592 424.494 31.152C424.494 33.712 423.854 36.208 422.574 38.64C421.337 41.0293 419.545 42.992 417.198 44.528C414.894 46.0213 412.27 46.768 409.326 46.768C406.339 46.768 403.694 46.0213 401.39 44.528C399.086 42.992 397.315 41.0293 396.078 38.64C394.883 36.208 394.286 33.712 394.286 31.152ZM402.158 26.096C402.115 27.2907 402.094 29.04 402.094 31.344C402.094 34.928 402.286 37.7013 402.67 39.664C403.097 41.6267 403.822 43.0987 404.846 44.08C405.913 45.0613 407.449 45.552 409.454 45.552C411.971 45.552 413.806 44.5493 414.958 42.544C416.11 40.5387 416.686 36.784 416.686 31.28C416.686 26.544 416.238 22.9387 415.342 20.464C414.446 17.9467 412.483 16.688 409.454 16.688C407.491 16.688 405.806 17.456 404.398 18.992C403.033 20.528 402.286 22.896 402.158 26.096Z" fill="#3E3355"></path><path d="M369.421 29.68H371.981C373.943 29.68 375.287 29.1253 376.013 28.016C376.781 26.9067 377.357 25.4347 377.741 23.6C378.338 20.6133 379.042 18.5227 379.853 17.328C380.706 16.1333 382.157 15.536 384.205 15.536C385.783 15.536 387.085 16.0053 388.109 16.944C389.133 17.84 389.645 18.992 389.645 20.4C389.645 21.68 389.303 22.7253 388.621 23.536C387.938 24.3467 387.042 24.752 385.933 24.752C384.994 24.752 384.141 24.4747 383.373 23.92C382.647 23.3227 382.285 22.5973 382.285 21.744C382.285 21.1467 382.349 20.6347 382.477 20.208C382.519 20.08 382.541 19.9733 382.541 19.888C382.583 19.76 382.605 19.6747 382.605 19.632C382.647 19.5893 382.669 19.504 382.669 19.376C382.669 18.6933 382.114 18.352 381.005 18.352C380.322 18.352 379.682 20.1653 379.085 23.792C378.658 25.712 378.189 27.1413 377.677 28.08C377.165 28.976 376.397 29.5733 375.373 29.872V30.064C379.469 30.2773 382.178 31.152 383.501 32.688C384.823 34.224 385.655 36.3147 385.997 38.96C386.167 40.5813 386.381 41.7973 386.637 42.608C386.935 43.4187 387.49 43.824 388.301 43.824C388.813 43.824 389.367 43.632 389.965 43.248C390.562 42.8213 390.946 42.3947 391.117 41.968L392.013 42.416C391.415 43.824 390.434 44.912 389.069 45.68C387.746 46.4053 386.338 46.768 384.845 46.768C383.223 46.768 381.986 46.3413 381.133 45.488C380.279 44.592 379.725 43.6107 379.469 42.544C379.213 41.4347 378.978 40.0267 378.765 38.32C378.338 34.992 377.634 32.9013 376.653 32.048C375.714 31.1947 374.306 30.768 372.429 30.768H370.957L369.421 30.832V44.784H373.837V46H358.221V44.784H362.573V17.456H358.221V16.304H373.837V17.456H369.421V29.68Z" fill="#3E3355"></path><path d="M331.371 42.288L332.331 43.184C330.709 45.5733 328.384 46.768 325.355 46.768C322.325 46.768 320.405 45.2533 319.595 42.224C316.096 45.2533 312.704 46.768 309.419 46.768C306.987 46.768 305.024 46.0853 303.531 44.72C302.037 43.312 301.291 41.4347 301.291 39.088C301.291 36.016 302.635 33.6053 305.323 31.856C308.053 30.064 312.043 29.168 317.291 29.168C318.315 29.168 319.083 29.1893 319.595 29.232V21.424C319.595 20.0587 319.296 18.9493 318.699 18.096C318.144 17.2 316.885 16.752 314.923 16.752C313.813 16.752 312.789 16.9013 311.851 17.2C310.912 17.456 310.443 17.8187 310.443 18.288C310.443 19.1413 310.677 19.9307 311.147 20.656C311.744 21.6373 312.043 22.4053 312.043 22.96C312.043 24.112 311.701 25.136 311.019 26.032C310.336 26.8853 309.269 27.312 307.819 27.312C306.453 27.312 305.387 26.864 304.619 25.968C303.851 25.072 303.467 23.92 303.467 22.512C303.467 20.336 304.661 18.6293 307.051 17.392C309.483 16.1547 312.128 15.536 314.987 15.536C319.936 15.536 323.072 16.3467 324.395 17.968C325.76 19.5893 326.443 21.6373 326.443 24.112V42.224C326.443 43.76 326.976 44.528 328.043 44.528C328.555 44.528 329.152 44.2933 329.835 43.824C330.517 43.3547 331.029 42.8427 331.371 42.288ZM319.595 40.048V30.384C315.627 30.2987 312.875 30.8533 311.339 32.048C309.845 33.2 309.099 35.5253 309.099 39.024C309.099 42.224 310.72 43.824 313.963 43.824C314.688 43.824 315.797 43.3973 317.291 42.544C318.827 41.6907 319.595 40.8587 319.595 40.048Z" fill="#3E3355"></path><path d="M257.846 17.456V16.304H269.686L278.326 36.912L286.198 16.304H298.166V17.456H293.75V44.784H298.166V46H282.55V44.784H286.902V18.224L276.022 46H275.382L264.246 18.544V40.88C264.246 42.2453 264.502 43.248 265.014 43.888C265.526 44.4853 266.742 44.784 268.662 44.784V46H258.55V44.784C259.062 44.7413 259.424 44.72 259.638 44.72C261.728 44.5493 262.774 43.3333 262.774 41.072V21.36C262.774 18.7573 261.515 17.456 258.998 17.456H257.846Z" fill="#3E3355"></path><path d="M214.721 17.456V16.304H226.561L235.201 36.912L243.073 16.304H255.041V17.456H250.625V44.784H255.041V46H239.425V44.784H243.777V18.224L232.897 46H232.257L221.121 18.544V40.88C221.121 42.2453 221.377 43.248 221.889 43.888C222.401 44.4853 223.617 44.784 225.537 44.784V46H215.425V44.784C215.937 44.7413 216.299 44.72 216.513 44.72C218.603 44.5493 219.649 43.3333 219.649 41.072V21.36C219.649 18.7573 218.39 17.456 215.873 17.456H214.721Z" fill="#3E3355"></path><path d="M212.371 42.288L213.331 43.184C211.709 45.5733 209.384 46.768 206.355 46.768C203.325 46.768 201.405 45.2533 200.595 42.224C197.096 45.2533 193.704 46.768 190.419 46.768C187.987 46.768 186.024 46.0853 184.531 44.72C183.037 43.312 182.291 41.4347 182.291 39.088C182.291 36.016 183.635 33.6053 186.323 31.856C189.053 30.064 193.043 29.168 198.291 29.168C199.315 29.168 200.083 29.1893 200.595 29.232V21.424C200.595 20.0587 200.296 18.9493 199.699 18.096C199.144 17.2 197.885 16.752 195.923 16.752C194.813 16.752 193.789 16.9013 192.851 17.2C191.912 17.456 191.443 17.8187 191.443 18.288C191.443 19.1413 191.677 19.9307 192.147 20.656C192.744 21.6373 193.043 22.4053 193.043 22.96C193.043 24.112 192.701 25.136 192.019 26.032C191.336 26.8853 190.269 27.312 188.819 27.312C187.453 27.312 186.387 26.864 185.619 25.968C184.851 25.072 184.467 23.92 184.467 22.512C184.467 20.336 185.661 18.6293 188.051 17.392C190.483 16.1547 193.128 15.536 195.987 15.536C200.936 15.536 204.072 16.3467 205.395 17.968C206.76 19.5893 207.443 21.6373 207.443 24.112V42.224C207.443 43.76 207.976 44.528 209.043 44.528C209.555 44.528 210.152 44.2933 210.835 43.824C211.517 43.3547 212.029 42.8427 212.371 42.288ZM200.595 40.048V30.384C196.627 30.2987 193.875 30.8533 192.339 32.048C190.845 33.2 190.099 35.5253 190.099 39.024C190.099 42.224 191.72 43.824 194.963 43.824C195.688 43.824 196.797 43.3973 198.291 42.544C199.827 41.6907 200.595 40.8587 200.595 40.048Z" fill="#3E3355"></path><path d="M158.041 15.92V20.144C159.492 17.072 161.817 15.536 165.017 15.536C167.278 15.536 169.476 16.1547 171.609 17.392C173.742 18.6293 175.513 20.4213 176.921 22.768C178.329 25.1147 179.033 27.9307 179.033 31.216C179.033 35.2693 177.625 38.8747 174.809 42.032C171.993 45.1893 168.558 46.768 164.505 46.768C161.646 46.768 159.492 45.6587 158.041 43.44V59.696H162.457V60.848H146.841V59.696H151.193V17.456H146.841V16.304H153.689C155.182 16.304 156.633 16.176 158.041 15.92ZM171.225 35.184V25.904C171.225 22.5333 170.628 20.1867 169.433 18.864C168.238 17.4987 166.745 16.816 164.953 16.816C163.033 16.816 161.39 17.5627 160.025 19.056C158.702 20.5493 158.041 22.2773 158.041 24.24V39.792C158.041 41.2853 158.724 42.6507 160.089 43.888C161.497 45.0827 163.033 45.68 164.697 45.68C166.404 45.68 167.918 44.912 169.241 43.376C170.564 41.84 171.225 39.1093 171.225 35.184Z" fill="#3E3355"></path><path d="M124.76 44.784V17.456H120.408V16.304H144.664L145.112 25.904H143.64C142.915 22.96 141.998 20.8907 140.888 19.696C139.822 18.5013 138.755 17.84 137.688 17.712C136.664 17.5413 134.83 17.456 132.184 17.456H131.608V44.784H136.024V46H120.408V44.784H124.76Z" fill="#3E3355"></path><path d="M87.2861 31.152C87.2861 27.056 88.6728 23.4293 91.4461 20.272C94.2621 17.1147 97.8888 15.536 102.326 15.536C105.27 15.536 107.894 16.304 110.198 17.84C112.545 19.3333 114.337 21.296 115.574 23.728C116.854 26.1173 117.494 28.592 117.494 31.152C117.494 33.712 116.854 36.208 115.574 38.64C114.337 41.0293 112.545 42.992 110.198 44.528C107.894 46.0213 105.27 46.768 102.326 46.768C99.3395 46.768 96.6941 46.0213 94.3901 44.528C92.0861 42.992 90.3155 41.0293 89.0781 38.64C87.8835 36.208 87.2861 33.712 87.2861 31.152ZM95.1581 26.096C95.1155 27.2907 95.0941 29.04 95.0941 31.344C95.0941 34.928 95.2861 37.7013 95.6701 39.664C96.0968 41.6267 96.8221 43.0987 97.8461 44.08C98.9128 45.0613 100.449 45.552 102.454 45.552C104.971 45.552 106.806 44.5493 107.958 42.544C109.11 40.5387 109.686 36.784 109.686 31.28C109.686 26.544 109.238 22.9387 108.342 20.464C107.446 17.9467 105.483 16.688 102.454 16.688C100.491 16.688 98.8061 17.456 97.3981 18.992C96.0328 20.528 95.2861 22.896 95.1581 26.096Z" fill="#3E3355"></path><path d="M63.2286 15.92V20.144C64.6792 17.072 67.0046 15.536 70.2046 15.536C72.4659 15.536 74.6632 16.1547 76.7966 17.392C78.9299 18.6293 80.7006 20.4213 82.1086 22.768C83.5166 25.1147 84.2206 27.9307 84.2206 31.216C84.2206 35.2693 82.8126 38.8747 79.9966 42.032C77.1806 45.1893 73.7459 46.768 69.6926 46.768C66.8339 46.768 64.6792 45.6587 63.2286 43.44V59.696H67.6446V60.848H52.0286V59.696H56.3806V17.456H52.0286V16.304H58.8766C60.3699 16.304 61.8206 16.176 63.2286 15.92ZM76.4126 35.184V25.904C76.4126 22.5333 75.8152 20.1867 74.6206 18.864C73.4259 17.4987 71.9326 16.816 70.1406 16.816C68.2206 16.816 66.5779 17.5627 65.2126 19.056C63.8899 20.5493 63.2286 22.2773 63.2286 24.24V39.792C63.2286 41.2853 63.9112 42.6507 65.2766 43.888C66.6846 45.0827 68.2206 45.68 69.8846 45.68C71.5912 45.68 73.1059 44.912 74.4286 43.376C75.7512 41.84 76.4126 39.1093 76.4126 35.184Z" fill="#3E3355"></path><path d="M14.1281 1.648V44.592H18.9921V46H0.944092V44.592H6.32009V1.648H0.944092V0.304001H47.8561V1.648H42.4801V44.592H47.8561V46H29.8081V44.592H34.6721V1.648H14.1281Z" fill="#3E3355"></path></svg> 