<?xml version="1.0" encoding="UTF-8"?> <svg xmlns="http://www.w3.org/2000/svg" viewBox="0 0 220.8 35.44"> <defs> <style>.cls-1,.cls-2{fill-rule:evenodd;}.cls-2{fill:red;}</style> </defs> <g id="Layer_2" data-name="Layer 2"> <g id="Layer_2-2" data-name="Layer 2"> <polygon class="cls-1" points="24.43 9.26 24.43 35.41 17.11 35.41 17.11 17.21 12.02 35.41 7.78 35.41 2.55 17.52 2.55 35.41 0 35.41 0 9.26 7.7 9.26 12.19 25.05 16.65 9.26 24.43 9.26"></polygon> <polygon class="cls-1" points="45.72 9.24 45.72 11.86 36.35 11.86 36.35 19.77 44.22 19.77 44.22 22.39 36.35 22.39 36.35 32.77 47.31 32.77 47.31 35.39 28.77 35.39 28.77 9.24 45.72 9.24"></polygon> <path class="cls-2" d="M74.29,10.13l-4.6.85a11.89,11.89,0,0,0,.3-2.3q0-6-7.23-6-5.7,0-5.7,4.1c0,2.06,2.12,3.82,6.38,5.29q12.3,4.23,12.3,12.5a9.74,9.74,0,0,1-3.45,7.8q-3.45,2.94-9.19,2.94-12.68,0-12.68-9.83a17.58,17.58,0,0,1,.13-2l4.77-1.05a16,16,0,0,0-.54,3.78q0,6.36,7.27,6.35c3.89,0,5.84-1.53,5.84-4.57q0-3.42-7-6-10.08-3.7-10.09-11.84a9.15,9.15,0,0,1,3.37-7.41A13.3,13.3,0,0,1,63,0Q74.3,0,74.29,10.13"></path> <path class="cls-2" d="M93.68,0q14.91,0,14.91,17.66T93.41,35.36q-15.19,0-15.2-18.07Q78.21,0,93.68,0m-.27,2.73c-1.87,0-3.14,1-3.79,3.09s-1,6-1,11.84.33,9.79,1,11.85,1.92,3.09,3.79,3.09,3.12-1,3.78-3.09,1-6,1-11.85-.33-9.77-1-11.83-1.92-3.1-3.78-3.1"></path> <path class="cls-1" d="M111.44,35.44V9.29h11.27c6.41,0,9.6,2.56,9.6,7.68s-3.55,7.75-10.67,7.75H119V35.44ZM119,22.31h1.71c2.75,0,4.13-1.82,4.13-5.48q0-5.13-4.13-5.13H119Z"></path> <path class="cls-1" d="M134.72,35.4V9.25H146a11.92,11.92,0,0,1,7,1.85,5.78,5.78,0,0,1,2.62,5c0,3.16-1.88,5.23-5.63,6.18a7.75,7.75,0,0,1,3.75,2.36q.85,1.28,1.15,5,.38,4.41,1.48,5.83h-8.24a11.59,11.59,0,0,1-.78-4.54l0-1.56,0-1.95c0-3-1.22-4.52-3.64-4.52h-1.3V35.4Zm7.59-14.74h1.53q4.31,0,4.31-4.5t-4.31-4.5h-1.53Z"></path> <path class="cls-1" d="M169.73,8.35q11.42,0,11.42,13.52T169.52,35.39q-11.64,0-11.63-13.83,0-13.21,11.84-13.21m-.21,2.08a2.91,2.91,0,0,0-2.9,2.37q-.76,2.37-.76,9.07t.76,9.07a3,3,0,0,0,5.8,0q.75-2.37.75-9.07t-.75-9.06a2.93,2.93,0,0,0-2.9-2.38"></path> <polygon class="cls-1" points="200.85 9.28 200.85 11.91 191.37 11.91 191.37 20.62 199.41 20.62 199.41 23.24 191.37 23.24 191.37 35.43 183.79 35.43 183.79 9.28 200.85 9.28"></polygon> <polygon class="cls-1" points="220.8 9.28 220.8 11.91 211.32 11.91 211.32 20.62 219.36 20.62 219.36 23.24 211.32 23.24 211.32 35.43 203.73 35.43 203.73 9.28 220.8 9.28"></polygon> </g> </g> </svg> 