<?xml version="1.0" encoding="UTF-8"?> <!-- Generator: Adobe Illustrator 25.4.1, SVG Export Plug-In . SVG Version: 6.00 Build 0) --> <svg xmlns="http://www.w3.org/2000/svg" xmlns:xlink="http://www.w3.org/1999/xlink" id="Layer_1" x="0px" y="0px" viewBox="0 0 992 271.6" style="enable-background:new 0 0 992 271.6;" xml:space="preserve"> <style type="text/css"> .st0{fill:#A600F1;} .st1{fill:#FFFFFF;} .st2{fill:#00F917;} .st3{fill:#A69FF1;} </style> <path class="st0" d="M696.8,86.5c0,0.9-3.7,1.6-4.8,1.6c-1.5,0-6.4-0.6-6.4-1.6c0-42.1-42-64-77.2-64c-25.8,0-48,11.5-48,35 C560.4,107.8,720,84,720,177.1c0,50.6-58.1,75.2-110.9,75.2c-31.1,0-61.8-14.1-69-14.1c-7.5,0-11.2,7.2-11.2,10.6 c0,2.2-2.3,3.7-5.6,3.7c-5.6,0-6.3-1.2-6.3-3.7c0-6-2.6-51.2-2.6-71.2c0-1.2,4.1-2.2,6.4-2.2c2.6,0,7.1,1,7.1,2.5 c0.4,44,46.8,65.5,87.7,65.5c32.2,0,61.1-13.4,61.1-40c0-47.5-156.2-35-156.2-116.1c0-54,37.8-73.7,89.9-73.7 c40.8,0,49.8,15.3,62.9,15.3c7.5,0,9-9,9.4-13.7c0-1.2,3.8-1.9,5.6-1.9c3,0,5.3,1.2,5.3,3.8C693.4,23.1,695.3,66.5,696.8,86.5"></path> <path class="st1" d="M6.5,60.2V25.6h7v28.3h9.7V25.6h7v28.3h9.7V25.6h7v34.6C46.9,60.2,6.5,60.2,6.5,60.2z"></path> <path class="st1" d="M80.5,60.2L66.4,44.3v15.9h-7.2V25.6h7.2v15.7l13.9-15.7h8.9L73.5,42.3l16.2,17.9 C89.7,60.2,80.5,60.2,80.5,60.2z"></path> <path class="st1" d="M95.4,42.9c-0.1-4.9,1.8-9.5,5.3-13c3.4-3.6,8.2-5.6,13.1-5.5c3.4-0.1,6.8,0.8,9.8,2.6c2.7,1.6,4.9,4,6.4,6.8 c1.4,2.8,2.2,5.9,2.1,9c0.1,4.9-1.8,9.6-5.2,13c-3.4,3.5-8.1,5.5-13.1,5.4c-2.3,0-4.6-0.3-6.7-1.1c-1.9-0.6-3.7-1.6-5.2-2.9 c-1.4-1.2-2.6-2.6-3.6-4.2s-1.7-3.2-2.2-5C95.7,46.4,95.4,44.7,95.4,42.9z M106,34.5c-4.2,4.9-4.2,12.1,0,17 c3.9,4.3,10.6,4.6,14.9,0.7c0.2-0.2,0.4-0.4,0.7-0.7c2.1-2.3,3.2-5.4,3.1-8.5c0.1-3.1-1-6.1-3-8.5c-2-2.3-4.9-3.5-7.9-3.4 C110.9,31,108,32.3,106,34.5z"></path> <path class="st1" d="M152.6,31.9l-1.5,19c-0.3,3.5-1.1,5.9-2.4,7.4c-1.3,1.5-3.4,2.2-6.3,2.2c-1.1,0-2.2-0.1-3.2-0.5v-6 c0.6,0.2,1.3,0.3,2,0.3c0.8,0.1,1.5-0.2,2.1-0.7c0.6-0.8,0.9-1.7,0.8-2.7l2-25.3h24.6v34.6h-7V31.9H152.6z"></path> <path class="st1" d="M179.7,60.2l13.4-34.6h6.8l12.7,34.6h-7.4l-2.7-7.9h-12.8l-2.7,7.9H179.7z M194.3,39l-2.9,8.2h9.3l-2.8-8.3 c-0.7-2-1.2-3.7-1.6-5.3H196C195.5,35.5,195,37.2,194.3,39L194.3,39z"></path> <path class="st1" d="M6.5,82.7h7v17.7c0,2.4-0.1,4.5-0.2,6.2h0.2c0.7-1.5,2.5-4.6,5.2-9.1l9.1-14.9h6.6v34.6h-7V100 c0-1.1,0-3.3,0.2-6.5h-0.2c-0.6,1.1-2.6,4.5-6,10.2l-8.3,13.5H6.4L6.5,82.7L6.5,82.7z"></path> <path class="st1" d="M67,117.3v-14.7H53.2v14.7H46V82.7h7.2v13.6H67V82.7h7.2v34.6C74.2,117.3,67,117.3,67,117.3z"></path> <path class="st1" d="M90.9,89h-8.2v-6.3h15.5v13.6h4.5c3.8,0,6.8,0.9,8.9,2.8c4.2,4.1,4.3,10.8,0.2,15c-0.1,0.1-0.2,0.3-0.4,0.4 c-2.5,2-5.6,3-8.8,2.9H90.9V89z M107.4,106.7c0.1-1.4-0.5-2.7-1.5-3.6c-1.2-0.9-2.7-1.4-4.3-1.3h-3.5v10h3.8 c1.5,0.1,2.9-0.4,4.1-1.3C106.9,109.4,107.5,108.1,107.4,106.7z"></path> <path class="st1" d="M144.8,82.7V89h-13.4v7.5h12.9v6h-12.9v8.6h13.9v6.3h-21.2V82.8L144.8,82.7L144.8,82.7z"></path> <path class="st1" d="M177.6,117.3l-14.1-15.9v15.9h-7.2V82.7h7.2v15.7l14-15.7h8.9l-15.7,16.7l16.2,17.9 C186.9,117.3,177.6,117.3,177.6,117.3z"></path> <path class="st1" d="M218.8,117.3h-25.1V82.7h7.2V111h12.9V82.7h7.2V111h4.9v15.2h-7.2L218.8,117.3z"></path> <path class="st1" d="M235.4,82.7h7v17.7c0,2.4-0.1,4.5-0.1,6.2h0.1c0.7-1.5,2.5-4.6,5.2-9.1l9.1-14.9h6.6v34.6h-7V100 c0-1.1,0.1-3.3,0.2-6.5h-0.2c-0.6,1.1-2.6,4.5-6,10.2l-8.3,13.5h-6.6L235.4,82.7z"></path> <path class="st1" d="M273.1,100c-0.1-4.9,1.8-9.6,5.3-13c3.4-3.6,8.2-5.6,13.1-5.4c3.4-0.1,6.8,0.8,9.8,2.6c2.7,1.6,4.9,4,6.4,6.8 c1.4,2.8,2.2,5.9,2.1,9c0.1,4.9-1.8,9.6-5.2,13c-3.4,3.5-8.1,5.5-13,5.4c-2.3,0-4.6-0.3-6.8-1.1c-1.9-0.6-3.7-1.6-5.2-2.9 c-1.4-1.2-2.6-2.6-3.6-4.2s-1.7-3.2-2.1-5C273.3,103.4,273.1,101.7,273.1,100z M283.6,91.5c-4.2,4.9-4.2,12.1,0,17 c4,4.3,10.7,4.6,15,0.6c0.2-0.2,0.4-0.4,0.6-0.6c2.1-2.3,3.2-5.4,3.1-8.5c0.1-3.1-1-6.1-3-8.5c-2-2.3-4.9-3.5-7.9-3.4 C288.5,88,285.6,89.3,283.6,91.5z"></path> <path class="st1" d="M340.4,117.3v-14.7h-13.8v14.7h-7.2V82.7h7.2v13.6h13.8V82.7h7.2v34.6C347.6,117.3,340.4,117.3,340.4,117.3z"></path> <path class="st1" d="M380.1,117.3v-14.7h-13.8v14.7H359V82.7h7.2v13.6H380V82.7h7.2v34.6C387.2,117.3,380.1,117.3,380.1,117.3z"></path> <path class="st1" d="M397,100c-0.1-4.9,1.8-9.6,5.3-13c3.4-3.6,8.2-5.6,13.1-5.4c3.4-0.1,6.8,0.8,9.8,2.6c2.7,1.6,4.9,4,6.4,6.8 c1.4,2.8,2.1,5.9,2.1,9c0.1,4.9-1.8,9.6-5.2,13c-3.4,3.5-8.1,5.5-13.1,5.4c-2.3,0-4.6-0.3-6.7-1.1c-1.9-0.6-3.7-1.6-5.2-2.9 c-1.4-1.2-2.6-2.7-3.6-4.2c-1-1.6-1.7-3.2-2.2-5C397.2,103.4,397,101.7,397,100z M407.6,91.5c-4.2,4.9-4.2,12.1,0,17 c4,4.3,10.7,4.6,15,0.6c0.2-0.2,0.4-0.4,0.6-0.6c2.1-2.3,3.2-5.4,3.1-8.5c0.1-3.1-1-6.1-3-8.5c-2-2.3-4.9-3.5-7.9-3.4 C412.4,88,409.6,89.3,407.6,91.5z"></path> <path class="st1" d="M443.3,82.7h7v17.7c0,2.4-0.1,4.5-0.1,6.2h0.1c0.7-1.5,2.5-4.6,5.2-9.1l9.1-14.9h6.6v34.6h-7V100 c0-1.1,0-3.3,0.1-6.5h-0.1c-0.6,1.1-2.6,4.5-6,10.2l-8.3,13.5h-6.6L443.3,82.7z M461,72.1h4.6c0,2.1-1,4-2.6,5.3 c-1.7,1.4-3.8,2.1-5.9,2c-2.2,0.1-4.4-0.6-6.1-2c-1.5-1.4-2.3-3.3-2.4-5.3h4.5c0,0.8,0.5,1.6,1.2,2c0.8,0.5,1.8,0.8,2.8,0.7 c1,0.1,2-0.2,2.8-0.7C460.6,73.7,461,72.9,461,72.1z"></path> <path class="st1" d="M27.9,174.3l-14.1-15.9v15.9H6.6v-34.6h7.2v15.7l13.9-15.7h8.9l-15.7,16.8l16.2,17.8L27.9,174.3L27.9,174.3z"></path> <path class="st1" d="M42.8,157c-0.1-4.9,1.8-9.6,5.3-13c3.4-3.6,8.2-5.6,13.1-5.5c3.4-0.1,6.8,0.8,9.8,2.6c2.7,1.6,4.9,4,6.4,6.8 c1.4,2.8,2.2,5.9,2.1,9c0.1,4.9-1.8,9.6-5.2,13c-3.4,3.5-8.1,5.5-13,5.4c-2.3,0-4.6-0.3-6.8-1.1c-1.9-0.6-3.7-1.6-5.2-2.9 c-1.4-1.2-2.6-2.6-3.6-4.2c-1-1.6-1.7-3.2-2.2-5C43.1,160.4,42.9,158.7,42.8,157z M53.4,148.5c-4.2,4.9-4.2,12.1,0,17 c4,4.3,10.7,4.6,15,0.6c0.2-0.2,0.4-0.4,0.6-0.6c2.1-2.3,3.2-5.4,3.2-8.5c0.1-3.1-1-6.1-3-8.5c-2-2.3-4.9-3.5-7.9-3.4 C58.3,145,55.4,146.3,53.4,148.5z"></path> <path class="st1" d="M105.9,138.6c4-0.2,8,1.1,11.1,3.7c2.7,2.1,4.6,5.1,5.4,8.5h-7.8c-0.5-1.7-1.5-3.2-3-4.3 c-1.7-1.2-3.6-1.8-5.7-1.7c-2.9-0.1-5.7,1.2-7.6,3.4c-2,2.5-3.1,5.6-2.9,8.8c-0.1,3.2,1,6.2,3,8.7c1.8,2.3,4.7,3.6,7.6,3.6 c2.1,0.1,4.2-0.6,5.8-1.9c1.5-1.2,2.6-2.8,3.2-4.7h8c-1.1,3.6-3.2,6.8-6.1,9.2c-3.2,2.4-7.1,3.7-11.1,3.5c-4.8,0.2-9.5-1.7-12.9-5.2 c-3.4-3.6-5.2-8.4-5-13.3c-0.2-4.9,1.7-9.6,5.1-13.1S101,138.5,105.9,138.6z"></path> <path class="st1" d="M165.8,139.7l4.3,34.6h-7l-1.7-17c-0.3-2.6-0.5-5.1-0.7-7.6h-0.3c0,0-0.3,1.1-0.8,3.1s-1,3.6-1.2,4.5l-5,16.9 h-5.1l-5.1-17.2c-0.8-2.4-1.5-4.9-2-7.4h-0.4c-0.1,1.5-0.2,4-0.6,7.3l-1.8,17.3h-6.5l4.1-34.6h8l5.1,16.3c0.8,2.6,1.4,4.7,1.8,6.3 h0.2c0.3-1.2,0.9-3.3,1.8-6.3l5-16.3L165.8,139.7L165.8,139.7z"></path> <path class="st1" d="M200.9,139.7v6.3h-13.4v7.5h12.9v6h-12.9v8.6h13.9v6.3h-21.2v-34.6L200.9,139.7L200.9,139.7z"></path> <path class="st1" d="M218.1,174.3V146h-8.2v-6.3h23.8v6.3h-8.3v28.3H218.1z"></path> <path class="st1" d="M240.8,157c-0.1-4.9,1.8-9.6,5.3-13c3.4-3.6,8.2-5.6,13.1-5.5c3.4-0.1,6.8,0.8,9.8,2.6c2.7,1.6,4.9,4,6.4,6.8 c1.4,2.8,2.2,5.9,2.1,9c0.1,4.9-1.8,9.6-5.2,13c-3.4,3.5-8.1,5.5-13.1,5.4c-2.3,0-4.6-0.3-6.7-1.1c-1.9-0.6-3.7-1.6-5.2-2.9 c-1.4-1.2-2.6-2.7-3.6-4.2c-1-1.6-1.7-3.2-2.2-5C241.1,160.4,240.8,158.7,240.8,157z M251.4,148.5c-4.2,4.9-4.2,12.1,0,17 c4,4.3,10.7,4.6,15,0.6c0.2-0.2,0.4-0.4,0.6-0.6c2.1-2.3,3.2-5.4,3.1-8.5c0.1-3.1-1-6.1-3-8.5c-2-2.3-4.9-3.5-7.9-3.4 C256.2,145,253.3,146.3,251.4,148.5z"></path> <path class="st1" d="M298.1,146l-1.5,19c-0.3,3.4-1.1,5.9-2.4,7.4s-3.4,2.2-6.3,2.2c-1.1,0-2.2-0.1-3.2-0.5v-6 c0.6,0.2,1.3,0.3,2,0.3c0.8,0.1,1.5-0.2,2.1-0.7c0.6-0.8,0.9-1.7,0.8-2.7l2-25.3h24.6v34.6h-7V146H298.1z"></path> <path class="st1" d="M326.4,157c-0.1-4.9,1.8-9.6,5.3-13c3.4-3.6,8.2-5.6,13.1-5.5c3.4-0.1,6.8,0.8,9.8,2.6c2.7,1.6,4.9,4,6.4,6.8 c1.4,2.8,2.2,5.9,2.1,9c0.1,4.9-1.8,9.6-5.2,13c-3.4,3.5-8.1,5.5-13,5.4c-2.3,0-4.6-0.3-6.7-1.1c-1.9-0.6-3.7-1.6-5.2-2.9 c-1.4-1.2-2.6-2.6-3.6-4.2c-1-1.6-1.7-3.2-2.2-5C326.6,160.4,326.4,158.7,326.4,157z M336.9,148.5c-4.2,4.9-4.2,12.1,0,17 c2,2.2,4.8,3.5,7.8,3.4c3,0.1,5.8-1.2,7.8-3.4c2.1-2.3,3.2-5.4,3.1-8.5c0.1-3.1-1-6.1-3-8.5c-2-2.3-4.9-3.5-7.9-3.4 C341.8,145,338.9,146.3,336.9,148.5z"></path> <path class="st1" d="M373.2,174.3v-34.6h21.2v6.3h-14.2v28.3L373.2,174.3L373.2,174.3z"></path> <path class="st1" d="M403.4,139.7h7v17.8c0,2.4,0,4.5-0.1,6.2h0.1c0.7-1.6,2.5-4.6,5.2-9.1l9.1-14.8h6.6v34.6h-7v-17.2 c0-1.1,0.1-3.3,0.2-6.5h-0.2c-0.6,1.2-2.6,4.5-6,10.2l-8.3,13.5h-6.6L403.4,139.7L403.4,139.7z"></path> <path class="st1" d="M443.4,139.7h7v17.8c0,2.4-0.1,4.5-0.1,6.2h0.1c0.7-1.6,2.5-4.6,5.2-9.1l9.1-14.8h6.6v34.6h-7v-17.2 c0-1.1,0-3.3,0.1-6.5h-0.1c-0.6,1.2-2.6,4.5-6,10.2l-8.3,13.5h-6.6L443.4,139.7L443.4,139.7z"></path> <path class="st1" d="M5,210.6c0-0.1,0-0.2,0.1-0.3c0-0.1,0.1-0.1,0.2-0.2h8.4c0.2,0,0.4,0.2,0.4,0.5v11.8c0.8-0.8,1.7-1.4,2.7-1.8 c0.9-0.3,1.9-0.5,2.8-0.5c1.1,0,2.1,0.2,3.1,0.6c0.9,0.4,1.7,1,2.4,1.7c0.7,0.7,1.3,1.6,1.8,2.5s0.9,2,1.1,3 c0.2,1.1,0.3,2.1,0.3,3.2c0,1-0.1,1.9-0.3,2.8c-0.2,1-0.6,1.9-1.1,2.8c-0.5,0.9-1.1,1.7-1.8,2.4c-0.7,0.7-1.5,1.3-2.4,1.7 s-2,0.6-3,0.6c-1.1,0-2.2-0.2-3.3-0.7c-1-0.5-1.9-1.2-2.7-2.1c-3.4,1.8-5.2,2.7-5.3,2.7H7.1v-30.2H5.2C5,211.1,5,210.9,5,210.6z M14,235c-0.1,1.3,0.3,2.5,1,3.6c0.6,0.8,1.5,1.3,2.4,1.3c1,0,2-0.5,2.7-1.3c0.8-1,1.2-2.3,1.2-3.5v-8.8c0.1-1.3-0.3-2.5-1.2-3.5 c-0.7-0.8-1.7-1.2-2.7-1.2s-1.9,0.5-2.4,1.2c-0.7,1-1.1,2.2-1,3.5V235z"></path> <path class="st1" d="M31.7,220.9c0-0.1,0-0.2,0.1-0.3c0-0.1,0.1-0.1,0.2-0.2h8.3c0.1,0,0.2,0,0.3,0.1s0.1,0.2,0.1,0.3v15 c-0.1,1.1,0.3,2.1,1,2.9c1.3,1.4,3.4,1.4,4.8,0.1l0.1-0.1c0.7-0.8,1.1-1.8,1-2.9v-15.4h6.5c0.3,0,0.4,0.2,0.4,0.5v21.3 c0,1.1-0.2,2.2-0.6,3.3c-0.4,0.9-1,1.8-1.7,2.5s-1.6,1.2-2.5,1.6c-1,0.4-2,0.8-3,1c-1.1,0.2-2.2,0.3-3.2,0.3c-1.6,0-3.3-0.2-4.8-0.7 c-1.3-0.4-2.6-1-3.7-1.9c-0.8-0.6-1.4-1.6-1.4-2.7c-0.1-1,0.3-1.9,1-2.5s1.6-0.9,2.5-0.9s1.8,0.3,2.4,0.9c0.7,0.7,1.1,1.6,1,2.6 c0,0.7-0.3,1.5-0.8,2c-0.6,0.6-1.3,0.9-2.2,1v0.2c0.8,0.3,1.6,0.6,2.4,0.7c0.9,0.2,1.9,0.3,2.8,0.3c0.6,0,1.2,0,1.8-0.2 c0.5-0.1,1-0.3,1.5-0.5s0.9-0.6,1.1-1.1c0.3-0.6,0.4-1.2,0.4-1.9v-6.8c-1.6,1.3-3.6,2-5.6,2c-1,0-2-0.2-3-0.5s-1.9-0.8-2.7-1.5 s-1.4-1.5-1.9-2.4c-0.5-1-0.7-2.1-0.7-3.2v-12.2H32C31.8,221.4,31.7,221.2,31.7,220.9z"></path> <path class="st1" d="M69.5,230.6c0-1.3,0.2-2.7,0.6-3.9s0.9-2.3,1.6-3.4c0.7-1,1.7-1.8,2.8-2.4c1.2-0.6,2.5-0.9,3.8-0.9 c1,0,1.9,0.2,2.8,0.5c1,0.4,2,1,2.8,1.8v-11.9c0-0.1,0-0.2,0.1-0.3c0.1,0,0.2-0.1,0.3-0.1h8.4c0.1,0,0.2,0.1,0.2,0.2 c0.1,0.1,0.1,0.2,0.1,0.3s0,0.2-0.1,0.3s-0.1,0.2-0.2,0.2h-1.9v25.7c0,0.6,0.1,1.2,0.4,1.7c0.2,0.4,0.6,0.6,1.1,0.6 c0.4,0,0.8-0.3,1-0.6c0.3-0.5,0.5-1.1,0.4-1.7c0-0.1,0.1-0.2,0.2-0.3s0.2-0.1,0.4-0.1c0.1,0,0.2,0,0.3,0.1s0.1,0.2,0.1,0.3 c0,1.3-0.5,2.5-1.6,3.3s-2.4,1.2-3.7,1.2c-1.1,0-2.2-0.3-3.1-0.8c-1-0.6-1.7-1.5-2.1-2.6c-1.4,2.1-3.8,3.4-6.3,3.4 c-1.1,0-2.2-0.3-3.2-0.8s-2-1.3-2.7-2.2c-0.8-1-1.4-2.2-1.8-3.4C69.8,233.5,69.5,232.1,69.5,230.6z M76.5,234.2 c-0.1,1.4,0.3,2.7,1.2,3.8c0.6,0.8,1.6,1.4,2.7,1.4c1,0,1.9-0.5,2.5-1.4c0.7-1.1,1.1-2.5,1-3.8v-7.9c0.1-1.2-0.3-2.5-1-3.5 c-0.6-0.8-1.5-1.2-2.4-1.2c-1,0-2,0.5-2.7,1.2c-0.8,1-1.2,2.2-1.2,3.5L76.5,234.2z"></path> <path class="st1" d="M96.9,220.9c0-0.1,0-0.2,0.1-0.3c0-0.1,0.1-0.1,0.2-0.2h8.5c0.1,0,0.3,0.1,0.3,0.2c0,0,0,0,0,0.1v1.6h0.4 c0.6-0.7,1.4-1.3,2.3-1.7s1.8-0.6,2.8-0.6c1.4-0.1,2.8,0.5,3.8,1.5c0.9,0.9,1.4,2.1,1.4,3.3c0,0.9-0.3,1.8-0.9,2.4 c-1.4,1.4-3.7,1.4-5.1,0c-0.6-0.6-1-1.5-1-2.4c0-0.8,0.3-1.5,0.8-2.1c0.7-0.6,1.5-1,2.4-0.9c-0.5-0.5-1.3-0.8-2.1-0.8 c-0.9,0.1-1.7,0.3-2.4,0.8c-0.9,0.5-1.6,1.2-2.1,2v17.1h-7v-19.6h-2.2C97,221.4,96.9,221.2,96.9,220.9z"></path> <path class="st1" d="M121.2,237.4c0-1.1,0.4-2.1,1.1-2.8c0.7-0.8,1.7-1.2,2.7-1.2s2,0.4,2.8,1.2c0.8,0.7,1.2,1.8,1.1,2.8 c0,1-0.4,2-1.2,2.7c-0.7,0.7-1.7,1.2-2.7,1.2s-2-0.4-2.7-1.2C121.6,239.4,121.2,238.4,121.2,237.4z"></path> <path class="st1" d="M145.4,226.7c0-1.8,0.2-3.6,0.8-5.3c0.5-1.5,1.2-2.9,2.1-4.2c0.9-1.1,1.9-2.1,3.1-2.9c1.2-0.8,2.5-1.4,3.8-1.8 c2.7-0.8,5.6-0.8,8.4,0c2.8,0.8,5.2,2.5,7,4.7c1,1.2,1.7,2.7,2.2,4.2c0.5,1.7,0.8,3.5,0.8,5.3s-0.3,3.6-0.8,5.2 c-0.5,1.5-1.2,2.9-2.2,4.1c-0.9,1.1-2,2.1-3.2,2.9c-1.2,0.8-2.5,1.4-3.9,1.8c-1.4,0.4-2.8,0.6-4.2,0.6s-2.8-0.2-4.2-0.6 c-1.4-0.4-2.7-1-3.8-1.8c-1.2-0.8-2.3-1.8-3.1-2.9c-0.9-1.2-1.7-2.6-2.1-4.1C145.6,230.3,145.4,228.5,145.4,226.7z M153.5,228.4 c0,1.7,0.1,3.2,0.2,4.4c0.1,1.1,0.3,2.2,0.6,3.3c0.2,0.9,0.6,1.7,1.1,2.4c0.5,0.6,1.1,1.1,1.8,1.4c0.8,0.3,1.7,0.5,2.5,0.5 c0.9,0,1.7-0.1,2.5-0.5c0.7-0.3,1.3-0.8,1.7-1.4c0.5-0.7,0.9-1.5,1.1-2.4c0.3-1.1,0.4-2.2,0.5-3.3c0.1-1.2,0.1-2.7,0.1-4.4V225 c0-1.4,0-2.7-0.1-3.7s-0.2-2-0.4-3c-0.1-0.8-0.4-1.6-0.7-2.4c-0.3-0.6-0.6-1.2-1.1-1.7c-0.4-0.5-1-0.8-1.6-1 c-0.7-0.2-1.4-0.3-2.2-0.3c-0.9,0-1.7,0.1-2.5,0.5c-0.7,0.3-1.3,0.8-1.8,1.4c-0.5,0.7-0.9,1.6-1.1,2.4c-0.3,1.1-0.5,2.2-0.6,3.3 c-0.1,1.2-0.2,2.7-0.2,4.4v3.5H153.5z"></path> <path class="st1" d="M177.7,210.6c0-0.1,0-0.2,0.1-0.3c0-0.1,0.1-0.1,0.2-0.2h8.6c0.4,0,0.6,0.1,0.6,0.4v26.2c0,0.6,0.1,1.2,0.4,1.7 c0.2,0.4,0.6,0.6,1.1,0.6c0.4,0,0.8-0.2,1.1-0.6c0.3-0.5,0.5-1.1,0.5-1.7c0-0.1,0.1-0.2,0.2-0.2c0.1-0.1,0.2-0.1,0.4-0.1 c0.1,0,0.2,0,0.3,0.1s0.1,0.2,0.1,0.3c0.1,1.3-0.6,2.6-1.6,3.4c-2.3,1.6-5.4,1.6-7.7,0c-1.1-0.8-1.7-2.1-1.6-3.4v-25.6H178 C177.8,211.1,177.7,210.9,177.7,210.6z"></path> <path class="st1" d="M193.1,237.2c0-0.6,0.1-1.2,0.3-1.8c0.3-0.7,0.7-1.4,1.2-1.9c0.6-0.7,1.4-1.2,2.2-1.6c-2-1-3.1-3.1-3-5.3 c-0.1-1.9,0.8-3.7,2.4-4.8c1.6-1.2,3.9-1.8,7.1-1.8c1.4,0,2.7,0.1,4.1,0.4c0-1,0.2-1.9,0.4-2.8c0.1-0.7,0.5-1.4,1.1-1.9 s1.4-0.8,2.2-0.7c0.8,0,1.6,0.2,2.2,0.7s1,1.2,0.9,2c0,0.7-0.3,1.5-0.8,2s-1.2,0.7-1.9,0.7s-1.4-0.3-2-0.7c-0.6-0.5-0.9-1.2-0.8-2 v-0.1c0,0.1,0,0.1-0.1,0.2c0,0.1,0,0.1,0,0.2c-0.1,0.9-0.1,1.9-0.1,2.8c1.3,0.4,2.5,1.2,3.4,2.3c0.8,1.1,1.1,2.3,1.1,3.7 c0.1,1.9-0.8,3.7-2.4,4.8s-4,1.7-7.2,1.7c-1.8,0.1-3.6-0.2-5.4-0.8c-0.5,0.2-1,0.5-1.3,1c-0.2,0.4-0.4,0.8-0.4,1.2 c0,0.5,0.2,0.9,0.6,1.1c0.6,0.2,1.2,0.3,1.8,0.3c0.7,0,1.9-0.1,3.8-0.3s3.3-0.3,4.3-0.3c2.1-0.1,4.1,0.6,5.6,2 c1.4,1.2,2.2,3,2.2,4.9c0,0.9-0.2,1.9-0.6,2.7c-0.5,0.9-1.1,1.6-1.9,2.2c-1,0.7-2.1,1.2-3.3,1.5c-1.6,0.4-3.2,0.5-4.9,0.5 c-0.9,0-1.8-0.1-2.7-0.2c-0.9-0.1-1.9-0.3-2.8-0.6c-0.9-0.2-1.7-0.6-2.5-1c-0.7-0.4-1.3-0.9-1.8-1.6c-0.4-0.6-0.7-1.4-0.7-2.1 c-0.1-0.7,0.1-1.4,0.6-1.9c0.4-0.4,1-0.6,1.6-0.6C194,240.5,193,238.9,193.1,237.2z M195.3,243.8c0,0.8,0.2,1.5,0.7,2.1 s1.1,1.1,1.8,1.4c0.8,0.3,1.7,0.6,2.6,0.7c2.3,0.3,4.6,0.3,6.8-0.1c1-0.2,2-0.6,2.9-1.1c0.7-0.4,1.1-1.1,1.2-1.8 c0-0.7-0.3-1.3-0.8-1.8s-1.1-0.8-1.8-0.8c-0.8,0-1.8,0-3.1,0.1s-2.3,0.1-3.1,0.1c-2,0.1-4.1-0.3-6-1 C195.7,242.2,195.3,243,195.3,243.8L195.3,243.8z M200.8,227.5c-0.1,1.2,0.1,2.5,0.6,3.6c0.4,0.8,1.2,1.2,2,1.1 c0.8,0.1,1.6-0.4,2-1.1c0.4-1.2,0.6-2.4,0.6-3.6v-1.7c0.1-1.2-0.1-2.5-0.6-3.7c-0.7-1.1-2.1-1.5-3.2-0.8c-0.3,0.2-0.6,0.5-0.8,0.8 c-0.4,1.2-0.6,2.4-0.6,3.6V227.5z"></path> <path class="st1" d="M218.7,230.6c0-1.3,0.2-2.7,0.5-3.9s0.9-2.3,1.6-3.4c0.7-1,1.6-1.8,2.7-2.4c1.2-0.6,2.5-0.9,3.8-0.9 c1,0,2,0.2,2.9,0.5c1,0.4,2,1,2.8,1.8v-1.9h6.4c0.4,0,0.6,0.2,0.6,0.5v15.8c0,0.5,0.1,1.1,0.5,1.5c0.3,0.3,0.6,0.5,1.1,0.5 c0.4,0,0.8-0.2,1.1-0.5c0.3-0.4,0.5-1,0.5-1.5c0-0.1,0.1-0.2,0.2-0.3s0.2-0.1,0.3-0.1s0.2,0,0.3,0.1s0.1,0.2,0.1,0.3 c0,1.3-0.6,2.4-1.6,3.2c-1.1,0.9-2.4,1.4-3.8,1.3c-1.1,0-2.2-0.3-3.1-0.8c-1-0.6-1.7-1.5-2.1-2.6c-1.5,2.1-3.8,3.4-6.4,3.4 c-1.1,0-2.2-0.3-3.1-0.8c-1-0.5-1.9-1.3-2.7-2.2c-0.8-1-1.4-2.2-1.8-3.4C218.9,233.5,218.7,232.1,218.7,230.6z M225.7,234.2 c-0.1,1.4,0.3,2.7,1.1,3.8c0.6,0.8,1.5,1.3,2.6,1.4c1,0,2-0.5,2.6-1.4c0.8-1.1,1.2-2.5,1.1-3.8v-7.9c0.1-1.3-0.3-2.5-1.1-3.5 c-0.6-0.8-1.6-1.2-2.6-1.2s-2,0.5-2.6,1.2c-0.8,1-1.2,2.2-1.1,3.5V234.2z"></path> <path class="st1" d="M257.2,232c0-0.1,0.1-0.1,0.2-0.2c0.1,0,0.3-0.1,0.4-0.1c0.2,0,0.3,0,0.5,0.1c0.2,0,0.2,0.1,0.2,0.2 c0,1,0.2,2,0.6,2.9c0.3,0.8,0.8,1.6,1.4,2.3c0.6,0.6,1.3,1.2,2.1,1.6c0.8,0.4,1.6,0.8,2.4,1s1.7,0.3,2.5,0.3 c1.6,0.1,3.2-0.4,4.5-1.3c1.2-0.8,1.9-2.2,1.8-3.6c0-0.6-0.2-1.2-0.5-1.7c-0.4-0.5-0.9-1-1.5-1.3c-0.7-0.4-1.4-0.8-2.1-1.1 c-0.8-0.3-1.6-0.7-2.5-1s-1.8-0.7-2.7-1.1c-0.9-0.4-1.7-0.8-2.5-1.3s-1.5-1-2.1-1.7c-0.6-0.6-1.1-1.4-1.5-2.2 c-0.4-0.9-0.6-1.9-0.5-2.9c0-1.4,0.2-2.9,0.7-4.2c0.4-1.1,1.1-2.1,2-2.9c0.9-0.7,1.9-1.2,2.9-1.5c1.2-0.3,2.5-0.5,3.7-0.5 c0.9,0,1.7,0.1,2.6,0.3c0.6,0.1,1.2,0.4,1.7,0.7c0.4,0.2,0.8,0.5,1.2,0.7c0.3,0.2,0.6,0.3,1,0.3c0.6,0,0.9-0.6,1-1.8 c0-0.2,0.2-0.2,0.6-0.2s0.5,0.2,0.5,0.5c0,1.8,0.1,4.7,0.4,8.6c0.4,5.9-0.1,0.1-0.2,0.1s-0.2,0-0.3,0c-0.1,0-0.3,0-0.4,0 c-0.2,0-0.2-0.1-0.2-0.1c0-1-0.2-1.9-0.5-2.8c-0.3-0.8-0.7-1.6-1.3-2.2c-0.5-0.6-1.1-1.1-1.8-1.6c-0.7-0.4-1.4-0.8-2.1-1 s-1.5-0.3-2.2-0.3c-1.3,0-2.5,0.3-3.5,1.1s-1.5,2-1.4,3.2c0,0.6,0.2,1.2,0.6,1.8c0.4,0.5,0.9,1,1.5,1.3c0.7,0.4,1.4,0.7,2.2,1 c0.8,0.3,1.7,0.6,2.6,0.9s1.8,0.6,2.7,1c0.9,0.3,1.8,0.8,2.6,1.3c0.8,0.5,1.5,1.1,2.2,1.8s1.2,1.5,1.5,2.5c0.4,1.1,0.6,2.2,0.6,3.3 c0,1.2-0.2,2.3-0.7,3.4c-0.4,1-1,1.9-1.8,2.6c-0.8,0.7-1.6,1.4-2.6,1.8c-1,0.5-2,0.9-3.1,1.1c-1.1,0.2-2.2,0.4-3.3,0.4 c-1,0-2-0.2-3-0.5c-0.9-0.3-1.8-0.6-2.7-0.9c-0.4-0.2-0.9-0.4-1.4-0.5c-0.3,0-0.7,0.2-0.8,0.5c-0.2,0.3-0.3,0.6-0.3,0.9 c0,0.1-0.1,0.3-0.2,0.4c-0.1,0.1-0.3,0.1-0.4,0.1c-0.2,0-0.4,0-0.5-0.1s-0.1-0.2-0.1-0.4c0-0.1,0-1.3-0.1-3.8S257.2,233,257.2,232z"></path> <path class="st1" d="M282,230.7c0-1.6,0.3-3.1,0.9-4.6c0.5-1.3,1.3-2.4,2.3-3.4c0.9-0.9,2-1.5,3.2-2s2.4-0.7,3.7-0.7 c2.7,0,5.3,1,7.3,2.7c1.1,1,1.9,2.1,2.5,3.5c0.7,1.5,1,3.2,1,4.8c-0.1,0.2-0.1,0.3-0.3,0.3H289c0,3.3,0.4,5.6,1.1,7 c0.6,1.3,2,2.1,3.4,2.1c1.2,0,2.4-0.2,3.5-0.6c1.1-0.4,2.1-1,2.9-1.8s1.3-1.8,1.5-2.9c0-0.1,0.1-0.2,0.1-0.2 c0.1-0.1,0.2-0.1,0.3-0.1c0.1,0,0.2,0,0.3,0.1c0.1,0,0.1,0.1,0.1,0.2c-0.2,1.9-1.2,3.5-2.8,4.5c-1.8,1.2-3.9,1.9-6.1,1.8 c-1.1,0-2.3-0.2-3.4-0.5s-2.1-0.8-3.1-1.4c-0.9-0.6-1.8-1.4-2.5-2.2c-0.8-0.9-1.3-1.9-1.7-3C282.2,233,282,231.8,282,230.7z M289,230.3h6.8v-4.6c0.1-1.2-0.3-2.4-1-3.4c-0.6-0.8-1.4-1.2-2.4-1.2c-0.9,0-1.8,0.5-2.4,1.2c-0.7,1-1.1,2.2-1,3.4V230.3z"></path> <path class="st1" d="M306.1,210.6c0-0.1,0-0.2,0.1-0.3c0-0.1,0.1-0.1,0.2-0.2h8.5c0.4,0,0.6,0.1,0.6,0.4v26.2c0,0.6,0.1,1.2,0.4,1.7 c0.2,0.4,0.6,0.6,1.1,0.6c0.4,0,0.8-0.2,1.1-0.6c0.3-0.5,0.5-1.1,0.5-1.7c0-0.1,0.1-0.2,0.2-0.2c0.1-0.1,0.2-0.1,0.4-0.1 c0.1,0,0.2,0,0.3,0.1c0.1,0.1,0.1,0.2,0.1,0.3c0.1,1.3-0.6,2.6-1.6,3.4c-2.3,1.6-5.4,1.6-7.7,0c-1.1-0.8-1.7-2.1-1.6-3.4v-25.6h-2.2 C306.2,211.1,306.1,210.9,306.1,210.6z"></path> <path class="st1" d="M321.8,220.9c0-0.1,0-0.2,0.1-0.3c0-0.1,0.1-0.1,0.2-0.2h8.3c0.1,0,0.2,0,0.3,0.1c0.1,0.1,0.1,0.2,0.1,0.3v15 c-0.1,1.1,0.3,2.1,1,2.9c0.6,0.7,1.5,1,2.4,1s1.8-0.3,2.5-1c0.7-0.8,1.1-1.8,1-2.9v-15.4h6.5c0.3,0,0.4,0.2,0.4,0.5v21.3 c0,1.1-0.2,2.2-0.6,3.3c-0.4,0.9-1,1.8-1.7,2.5s-1.6,1.2-2.5,1.6c-1,0.4-2,0.8-3,1c-1.1,0.2-2.2,0.3-3.2,0.3c-1.6,0-3.3-0.2-4.8-0.7 c-1.3-0.4-2.6-1-3.7-1.9c-0.9-0.6-1.4-1.6-1.4-2.7c-0.1-1,0.3-1.9,1-2.5s1.6-0.9,2.5-0.9s1.8,0.3,2.4,0.9c0.7,0.7,1.1,1.6,1,2.6 c0,0.7-0.3,1.5-0.8,2c-0.6,0.6-1.4,0.9-2.2,1v0.2c0.8,0.3,1.6,0.6,2.4,0.7c0.9,0.2,1.9,0.3,2.8,0.3c0.6,0,1.2,0,1.8-0.2 c0.5-0.1,1-0.3,1.5-0.5c0.5-0.3,0.9-0.7,1.1-1.1c0.3-0.6,0.4-1.2,0.4-1.9v-6.8c-1.6,1.3-3.6,2-5.6,2c-2.1,0-4.1-0.7-5.7-2 c-0.8-0.7-1.4-1.5-1.9-2.4c-0.5-1-0.7-2.1-0.7-3.2v-12.2H322C321.9,221.4,321.8,221.2,321.8,220.9z"></path> <path class="st1" d="M349.4,230.6c0-1.3,0.2-2.7,0.5-3.9c0.4-1.2,0.9-2.3,1.6-3.4c0.7-1,1.6-1.8,2.7-2.4c1.2-0.6,2.5-0.9,3.8-0.9 c1,0,1.9,0.2,2.9,0.5c1,0.4,2,1,2.8,1.8v-1.9h6.4c0.4,0,0.6,0.2,0.6,0.5v15.8c0,0.5,0.1,1.1,0.5,1.5c0.3,0.3,0.6,0.5,1.1,0.5 c0.4,0,0.8-0.2,1.1-0.5c0.3-0.4,0.5-1,0.5-1.5c0-0.1,0.1-0.2,0.2-0.3s0.2-0.1,0.4-0.1c0.1,0,0.2,0,0.3,0.1c0.1,0.1,0.1,0.2,0.1,0.3 c0,1.3-0.6,2.4-1.6,3.2c-1.1,0.9-2.4,1.4-3.8,1.3c-1.1,0-2.2-0.3-3.1-0.8c-1-0.6-1.7-1.5-2.1-2.6c-1.5,2.1-3.8,3.4-6.4,3.4 c-1.1,0-2.2-0.3-3.1-0.8c-1-0.5-1.9-1.3-2.7-2.2c-0.8-1-1.4-2.2-1.8-3.4C349.6,233.5,349.3,232.1,349.4,230.6z M356.4,234.2 c-0.1,1.4,0.3,2.7,1.1,3.8c0.6,0.8,1.5,1.3,2.6,1.4c1,0,2-0.5,2.6-1.4c0.8-1.1,1.2-2.5,1.1-3.8v-7.9c0.1-1.3-0.3-2.5-1.1-3.5 c-1.1-1.4-3.2-1.7-4.7-0.5c-0.2,0.2-0.4,0.3-0.5,0.5c-0.8,1-1.2,2.2-1.1,3.5V234.2z"></path> <path class="st1" d="M377.2,220.9c0-0.1,0-0.2,0.1-0.3c0-0.1,0.1-0.1,0.2-0.2h8.4c0.1,0,0.2,0.1,0.3,0.1c0.1,0.1,0.1,0.2,0.1,0.3 v1.4h0.3c1.6-1.5,3.7-2.3,5.9-2.3c0.7,0,1.4,0.1,2.1,0.2c0.7,0.2,1.4,0.4,2,0.8c0.6,0.3,1.2,0.8,1.7,1.3c0.5,0.6,0.9,1.3,1.2,2 c0.3,0.9,0.5,1.8,0.5,2.8v9.6c0,0.6,0.1,1.2,0.4,1.7c0.2,0.4,0.6,0.6,1.1,0.6c0.4,0,0.8-0.2,1.1-0.6c0.3-0.5,0.5-1.1,0.5-1.7 c0-0.1,0.1-0.2,0.2-0.2c0.1-0.1,0.2-0.1,0.4-0.1c0.1,0,0.2,0,0.3,0.1c0.1,0.1,0.1,0.2,0.1,0.3c0.1,1.3-0.6,2.6-1.6,3.4 c-2.3,1.6-5.4,1.6-7.7,0c-1.1-0.8-1.7-2.1-1.6-3.4v-12.5c0-0.7-0.2-1.4-0.6-2c-0.4-0.5-1-0.7-1.7-0.7c-1.6,0.1-3.1,0.9-4.1,2.2v17.4 h-7v-19.6h-2.2C377.3,221.4,377.2,221.2,377.2,220.9z"></path> <path class="st1" d="M406.3,220.9c0-0.1,0-0.2,0.1-0.3c0-0.1,0.1-0.1,0.2-0.2h8.7c0.3,0,0.5,0.1,0.5,0.5v15.8c0,0.6,0.1,1.2,0.4,1.7 c0.2,0.4,0.6,0.6,1,0.6s0.8-0.2,1.1-0.6c0.3-0.5,0.5-1.1,0.5-1.7c0-0.1,0.1-0.2,0.2-0.2c0.1-0.1,0.2-0.1,0.4-0.1 c0.1,0,0.2,0,0.3,0.1c0.1,0.1,0.1,0.2,0.1,0.3c0.1,1.3-0.6,2.6-1.6,3.4c-1.1,0.8-2.5,1.2-3.9,1.2s-2.8-0.4-3.9-1.2s-1.7-2.1-1.6-3.4 v-15.3h-2.2C406.4,221.4,406.3,221.2,406.3,220.9z M408.8,213.6c0-1.9,1.5-3.5,3.5-3.5c0.9,0,1.8,0.3,2.5,1c0.7,0.6,1,1.5,1,2.5 c0,0.9-0.3,1.8-1,2.4c-0.7,0.7-1.6,1-2.5,1s-1.8-0.4-2.4-1C409.2,215.3,408.8,214.5,408.8,213.6L408.8,213.6z"></path> <path class="st1" d="M422,220.9c0-0.1,0-0.2,0.1-0.3c0-0.1,0.1-0.1,0.2-0.2h8.4c0.1,0,0.2,0.1,0.3,0.1c0.1,0.1,0.1,0.2,0.1,0.3v1.4 h0.3c1.6-1.5,3.7-2.3,5.9-2.3c0.7,0,1.4,0.1,2.1,0.2c0.7,0.2,1.4,0.4,2,0.8c0.6,0.3,1.2,0.8,1.7,1.3c0.5,0.6,0.9,1.3,1.2,2 c0.3,0.9,0.5,1.8,0.5,2.8v9.6c0,0.6,0.1,1.2,0.4,1.7c0.2,0.4,0.6,0.6,1.1,0.6c0.4,0,0.8-0.2,1.1-0.6c0.3-0.5,0.5-1.1,0.5-1.7 c0-0.1,0.1-0.2,0.2-0.2c0.1-0.1,0.2-0.1,0.4-0.1c0.1,0,0.2,0,0.3,0.1c0.1,0.1,0.1,0.2,0.1,0.3c0.1,1.3-0.5,2.6-1.6,3.4 c-2.3,1.6-5.4,1.6-7.7,0c-1.1-0.8-1.7-2.1-1.6-3.4v-12.5c0-0.7-0.2-1.4-0.6-2c-0.4-0.5-1-0.7-1.7-0.7c-1.6,0.1-3.1,0.9-4.1,2.2v17.4 h-7v-19.6h-2.2C422.1,221.4,422,221.2,422,220.9z"></path> <path class="st1" d="M451.5,230.6c0-1.3,0.2-2.7,0.6-3.9c0.3-1.2,0.9-2.3,1.6-3.4c0.7-1,1.6-1.8,2.7-2.4c1.2-0.6,2.5-0.9,3.8-0.9 c1,0,1.9,0.2,2.9,0.5c1,0.4,2,1,2.8,1.8v-1.9h6.4c0.4,0,0.6,0.2,0.6,0.5v15.8c0,0.5,0.1,1.1,0.5,1.5c0.3,0.3,0.6,0.5,1.1,0.5 c0.4,0,0.8-0.2,1.1-0.5c0.3-0.4,0.5-1,0.5-1.5c0-0.1,0-0.2,0.1-0.3s0.2-0.1,0.3-0.1s0.2,0,0.3,0.1s0.1,0.2,0.1,0.3 c0,1.3-0.6,2.4-1.6,3.2c-1.1,0.9-2.4,1.4-3.8,1.3c-1.1,0-2.2-0.3-3.1-0.8c-1-0.6-1.7-1.5-2.1-2.6c-1.5,2.1-3.8,3.4-6.4,3.4 c-1.1,0-2.2-0.3-3.1-0.8c-1-0.5-1.9-1.3-2.7-2.2c-0.8-1-1.4-2.2-1.8-3.4C451.7,233.5,451.5,232.1,451.5,230.6z M458.5,234.2 c-0.1,1.4,0.3,2.7,1.1,3.8c0.6,0.8,1.5,1.3,2.6,1.4c1,0,2-0.5,2.6-1.4c0.8-1.1,1.2-2.5,1.1-3.8v-7.9c0.1-1.3-0.3-2.5-1.1-3.5 c-1.1-1.4-3.2-1.7-4.7-0.5c-0.2,0.2-0.4,0.3-0.5,0.5c-0.8,1-1.2,2.2-1.1,3.5V234.2z"></path> <path class="st2" d="M752.2,133.2l-11.5-0.5c-0.1,4.8,0,9.6,0.5,14.4l11.5-1.3C752.2,141.6,752.1,137.4,752.2,133.2z"></path> <path class="st2" d="M783.3,62.7l-7.8-8.5c-3.5,3.3-6.8,6.9-9.8,10.6l9,7.1C777.4,68.7,780.3,65.6,783.3,62.7z"></path> <path class="st2" d="M753.8,117.5l-11.3-2.2c-0.9,4.7-1.4,9.5-1.7,14.3l11.5,0.5C752.5,125.8,753,121.6,753.8,117.5z"></path> <path class="st2" d="M757.8,102.2l-10.8-4c-1.6,4.5-2.9,9.2-3.9,13.9l11.3,2.3C755.3,110.2,756.4,106.2,757.8,102.2z"></path> <path class="st2" d="M764.2,87.7l-10-5.6c-2.3,4.2-4.3,8.6-6.1,13.1l10.8,4C760.4,95.3,762.2,91.4,764.2,87.7z"></path> <path class="st2" d="M772.8,74.5l-9-7.1c-2.9,3.8-5.6,7.8-8,12l10,5.6C767.9,81.4,770.2,77.9,772.8,74.5z"></path> <path class="st2" d="M935.7,78.4l9.6-6.4c-2.8-4-5.8-7.8-9-11.3l-8.4,7.8C930.6,71.6,933.3,74.9,935.7,78.4z"></path> <path class="st2" d="M943.6,92l10.5-4.8c-2.1-4.3-4.5-8.5-7.1-12.6l-9.6,6.4C939.7,84.6,941.8,88.2,943.6,92z"></path> <path class="st2" d="M949.3,106.8l11.1-3.1c-1.4-4.6-3-9.1-5-13.5L945,95C946.7,98.8,948.1,102.7,949.3,106.8z"></path> <path class="st2" d="M952.6,122.2l11.4-1.4c-0.6-4.8-1.6-9.5-2.8-14.2l-11.1,3.1C951.3,113.9,952.1,118,952.6,122.2z"></path> <path class="st2" d="M925.7,66.1l8.5-7.8c-3.3-3.5-6.9-6.8-10.6-9.8l-7.1,9C919.7,60.2,922.8,63.1,925.7,66.1z"></path> <path class="st2" d="M913.9,55.6l7.2-9c-3.8-2.9-7.8-5.6-12-8l-5.6,10C907.1,50.6,910.6,53,913.9,55.6z"></path> <path class="st2" d="M858.4,35.1c4.2,0.2,8.4,0.7,12.5,1.4l2.2-11.3c-4.7-0.9-9.5-1.4-14.3-1.7L858.4,35.1z"></path> <path class="st2" d="M890.2,29.8c-4.5-1.6-9.2-2.9-13.9-3.9l-2.2,11.3c4.1,0.9,8.2,2,12.2,3.4L890.2,29.8z"></path> <path class="st2" d="M900.7,47l5.6-10c-4.2-2.3-8.6-4.3-13.1-6.1l-4,10.8C893.1,43.2,897,45,900.7,47z"></path> <path class="st2" d="M932.8,196.7l9,7.1c2.9-3.8,5.6-7.8,8-12l-10-5.6C937.7,189.9,935.4,193.4,932.8,196.7z"></path> <path class="st2" d="M922.3,208.5l7.8,8.5c3.5-3.3,6.8-6.9,9.8-10.6l-9-7.1C928.2,202.5,925.3,205.6,922.3,208.5z"></path> <path class="st2" d="M910,218.5l6.4,9.5c4-2.7,7.7-5.7,11.3-9l-7.7-8.5C916.8,213.4,913.5,216.1,910,218.5z"></path> <path class="st2" d="M896.4,226.4l4.8,10.4c4.3-2.1,8.6-4.4,12.6-7.1l-6.4-9.6C903.8,222.5,900.2,224.6,896.4,226.4z"></path> <path class="st2" d="M951.9,153.7l11.3,2.3c0.9-4.7,1.4-9.5,1.7-14.3l-11.5-0.5C953.1,145.4,952.6,149.6,951.9,153.7z"></path> <path class="st2" d="M881.6,232.1l3.1,11.1c4.6-1.4,9.1-3,13.5-5l-4.8-10.5C889.6,229.4,885.7,230.9,881.6,232.1z"></path> <path class="st2" d="M953.5,138l11.5,0.5c0.1-4.8-0.1-9.6-0.5-14.4l-11.5,1.3C953.4,129.6,953.6,133.8,953.5,138z"></path> <path class="st2" d="M941.4,183.4l10,5.6c2.3-4.2,4.3-8.6,6-13.1l-10.8-4C945.1,175.9,943.4,179.7,941.4,183.4z"></path> <path class="st2" d="M753,149l-11.4,1.3c0.6,4.8,1.5,9.5,2.8,14.2l11.1-3.1C754.4,157.3,753.6,153.1,753,149z"></path> <path class="st2" d="M947.8,169l10.8,4c1.6-4.5,2.9-9.2,3.9-13.9l-11.3-2.3C950.4,161,949.2,165,947.8,169z"></path> <path class="st2" d="M866.2,235.4l1.3,11.4c4.8-0.6,9.5-1.5,14.2-2.8l-3.1-11.1C874.5,234,870.4,234.8,866.2,235.4z"></path> <path class="st2" d="M770,192.8l-9.6,6.4c2.7,4,5.7,7.7,8.9,11.3l8.5-7.8C775,199.6,772.4,196.3,770,192.8z"></path> <path class="st2" d="M756.3,164.4l-11.1,3.1c1.4,4.6,3,9.1,5,13.5l10.5-4.8C759,172.4,757.5,168.4,756.3,164.4z"></path> <path class="st2" d="M762,179.1l-10.5,4.8c2.1,4.4,4.4,8.6,7.1,12.6l9.6-6.4C765.9,186.6,763.8,182.9,762,179.1z"></path> <path class="st2" d="M850.4,236.2l-0.5,11.5c4.8,0.1,9.6,0,14.4-0.5l-1.4-11.4C858.8,236.2,854.6,236.3,850.4,236.2z"></path> <path class="st0" d="M840.6,255.4l-1.6,13.7c5.7,0.6,11.5,0.8,17.2,0.7l-0.5-13.8C850.7,256.2,845.6,256,840.6,255.4z"></path> <path class="st0" d="M759.4,211.6l-10.8,8.5c3.6,4.5,7.5,8.7,11.7,12.7l9.3-10.1C766,219.3,762.6,215.6,759.4,211.6z"></path> <path class="st0" d="M822,252.1l-3.7,13.3c5.6,1.5,11.2,2.6,16.9,3.3l1.6-13.7C831.8,254.3,826.9,253.4,822,252.1z"></path> <path class="st0" d="M804.1,245.8l-5.8,12.5c5.3,2.3,10.7,4.3,16.2,5.9l3.8-13.2C813.5,249.6,808.7,247.9,804.1,245.8z"></path> <path class="st0" d="M787.5,236.8l-7.7,11.4c4.8,3.2,9.9,6,15.1,8.5l5.8-12.6C796.1,242,791.7,239.6,787.5,236.8z"></path> <path class="st0" d="M772.5,225.3l-9.3,10.2c4.3,3.8,8.8,7.4,13.5,10.7l7.7-11.5C780.2,231.9,776.2,228.7,772.5,225.3z"></path> <path class="st0" d="M792.4,31.4l-6.7-12c-5,2.9-9.8,6.1-14.3,9.6l8.5,10.8C783.8,36.7,788,33.9,792.4,31.4z"></path> <path class="st0" d="M809.4,23.2l-4.8-12.9c-5.4,2.1-10.6,4.5-15.7,7.2l6.7,12C800.2,27.1,804.7,25,809.4,23.2z"></path> <path class="st0" d="M827.5,17.8l-2.7-13.5c-5.6,1.2-11.2,2.8-16.7,4.7l4.8,12.9C817.8,20.2,822.6,18.8,827.5,17.8z"></path> <path class="st0" d="M846.3,15.3l-0.5-13.8c-5.8,0.3-11.5,1-17.2,2l2.7,13.5C836.2,16.1,841.2,15.5,846.3,15.3z"></path> <path class="st0" d="M776.8,42.2l-8.5-10.8c-4.5,3.6-8.7,7.5-12.7,11.7l10.1,9.4C769.2,48.8,772.9,45.3,776.8,42.2z"></path> <path class="st0" d="M763.2,55.2l-10.1-9.4c-3.9,4.3-7.5,8.8-10.7,13.6l11.5,7.6C756.6,62.9,759.8,58.9,763.2,55.2z"></path> <path class="st0" d="M733.5,119.5c0.7-5,1.6-9.9,2.9-14.8l-13.3-3.7c-1.5,5.6-2.6,11.2-3.3,16.9L733.5,119.5z"></path> <path class="st0" d="M730.2,81.1c-2.4,5.3-4.4,10.7-6,16.2l13.3,3.7c1.4-4.8,3.2-9.6,5.2-14.2L730.2,81.1z"></path> <path class="st0" d="M751.7,70.2l-11.4-7.7c-3.2,4.8-6,9.9-8.5,15.1l12.5,5.8C746.4,78.9,748.9,74.5,751.7,70.2z"></path> <path class="st0" d="M933.3,45.9l9.4-10.1c-4.3-3.9-8.8-7.4-13.5-10.7l-7.6,11.4C925.6,39.4,929.5,42.5,933.3,45.9z"></path> <path class="st0" d="M946.3,59.6l10.8-8.5c-3.6-4.5-7.6-8.7-11.7-12.7l-9.3,10.1C939.7,52,943.1,55.7,946.3,59.6z"></path> <path class="st0" d="M957.1,75.1l12-6.7c-2.9-5-6.1-9.8-9.6-14.4l-10.8,8.5C951.7,66.6,954.5,70.8,957.1,75.1z"></path> <path class="st0" d="M965.3,92.2l12.9-4.8c-2.1-5.4-4.5-10.6-7.2-15.7l-12,6.7C961.3,82.9,963.5,87.5,965.3,92.2z"></path> <path class="st0" d="M883.8,19.1l3.8-13.2c-5.6-1.5-11.2-2.6-16.9-3.4l-1.6,13.7C874,16.9,878.9,17.9,883.8,19.1z"></path> <path class="st0" d="M970.7,110.3l13.5-2.7c-1.2-5.6-2.8-11.2-4.7-16.6l-12.9,4.8C968.3,100.5,969.6,105.4,970.7,110.3z"></path> <path class="st0" d="M865.2,15.8l1.6-13.7c-5.7-0.6-11.5-0.8-17.3-0.7l0.5,13.8C855.1,15,860.2,15.2,865.2,15.8z"></path> <path class="st0" d="M748.6,195.9l-12,6.7c2.9,5,6,9.8,9.5,14.4l10.8-8.5C753.9,204.5,751.1,200.2,748.6,195.9z"></path> <path class="st0" d="M918.3,34.4L926,23c-4.8-3.1-9.9-6-15.1-8.4l-5.8,12.5C909.6,29.2,914,31.6,918.3,34.4z"></path> <path class="st0" d="M859.5,255.9l0.5,13.8c5.8-0.3,11.5-1,17.2-2l-2.7-13.5C869.5,255,864.5,255.6,859.5,255.9z"></path> <path class="st0" d="M901.6,25.4l5.8-12.5c-5.3-2.3-10.7-4.3-16.2-5.9l-3.7,13.3C892.3,21.6,897,23.3,901.6,25.4z"></path> <path class="st0" d="M973.2,129l13.8-0.5c-0.3-5.8-1-11.5-2-17.2l-13.5,2.7C972.4,119,972.9,124,973.2,129z"></path> <path class="st0" d="M878.2,253.4l2.7,13.5c5.6-1.2,11.2-2.8,16.6-4.7l-4.7-12.9C888,251,883.2,252.4,878.2,253.4z"></path> <path class="st0" d="M896.3,248l4.8,13c5.4-2.1,10.6-4.5,15.7-7.2l-6.7-12C905.6,244.1,901,246.2,896.3,248z"></path> <path class="st0" d="M972.7,147.9l13.7,1.6c0.6-5.7,0.8-11.5,0.7-17.2l-13.8,0.5C973.4,137.8,973.2,142.9,972.7,147.9z"></path> <path class="st3" d="M811.6,62.9l-4.6-8.4c-3.5,2-6.8,4.1-10,6.5l5.8,7.6C805.6,66.5,808.5,64.6,811.6,62.9z"></path> <path class="st3" d="M875.1,55l2.7-9.2c-3.8-1.1-7.8-1.9-11.7-2.5l-1.2,9.5C868.3,53.4,871.7,54.1,875.1,55z"></path> <path class="st3" d="M823.5,57.3l-3.2-9c-3.7,1.4-7.4,3-10.9,4.9l4.6,8.4C817,60,820.2,58.5,823.5,57.3z"></path> <path class="st3" d="M836.1,53.7l-1.8-9.4c-3.9,0.8-7.8,1.9-11.6,3.1l3.2,9C829.3,55.3,832.6,54.4,836.1,53.7z"></path> <path class="st3" d="M849.1,52.1l-0.3-9.6c-4,0.2-8,0.6-11.9,1.3l1.8,9.4C842.1,52.6,845.6,52.2,849.1,52.1z"></path> <path class="st3" d="M862.2,52.5l1.2-9.5c-4-0.5-8-0.7-12-0.6l0.3,9.5C855.2,51.9,858.7,52.1,862.2,52.5z"></path> <path class="st3" d="M928.8,170.2l8.6,4.1c1.7-3.6,3.1-7.4,4.2-11.2l-9.2-2.7C931.6,163.8,930.3,167,928.8,170.2z"></path> <path class="st3" d="M922.5,181.7l7.9,5.4c2.2-3.3,4.2-6.8,6-10.4l-8.7-4.1C926.2,175.7,924.4,178.8,922.5,181.7z"></path> <path class="st3" d="M914.4,192l7,6.6c2.7-3,5.2-6.1,7.5-9.3l-7.9-5.4C919,186.7,916.8,189.5,914.4,192z"></path> <path class="st3" d="M904.8,201l5.8,7.6c3.1-2.5,6.1-5.1,8.9-8l-7-6.6C910.2,196.5,907.6,198.8,904.8,201z"></path> <path class="st3" d="M933.3,157.9l9.2,2.7c1.1-3.9,1.9-7.8,2.5-11.7l-9.5-1.2C935,151.1,934.3,154.5,933.3,157.9z"></path> <path class="st3" d="M935.8,145l9.5,1.2c0.4-4,0.6-8,0.6-12l-9.5,0.3C936.4,138,936.2,141.5,935.8,145z"></path> <path class="st3" d="M926.8,96.7c1.6,3.1,3.1,6.3,4.3,9.6l9-3.2c-1.4-3.7-3-7.4-4.9-10.9L926.8,96.7z"></path> <path class="st3" d="M944.1,117.1c-0.8-3.9-1.8-7.8-3.1-11.6l-9,3.2c1.1,3.3,2.1,6.7,2.8,10.1L944.1,117.1z"></path> <path class="st3" d="M936.3,131.9l9.5-0.3c-0.2-4-0.6-8-1.3-11.9l-9.4,1.8C935.8,124.9,936.1,128.4,936.3,131.9z"></path> <path class="st3" d="M843.3,218.7l-1.2,9.5c4,0.5,8,0.7,12,0.6l-0.3-9.5C850.4,219.2,846.8,219,843.3,218.7z"></path> <path class="st3" d="M830.5,216.1l-2.7,9.2c3.9,1.1,7.8,1.9,11.8,2.5l1.2-9.5C837.3,217.8,833.9,217.1,830.5,216.1z"></path> <path class="st3" d="M818.1,211.7l-4.1,8.6c3.6,1.7,7.4,3.1,11.2,4.2l2.7-9.2C824.6,214.4,821.3,213.1,818.1,211.7z"></path> <path class="st3" d="M806.7,205.3l-5.4,7.9c3.3,2.2,6.8,4.2,10.4,6l4.1-8.7C812.6,209,809.6,207.2,806.7,205.3z"></path> <path class="st3" d="M882.1,213.9l3.2,9c3.8-1.4,7.4-3,11-4.9l-4.6-8.4C888.6,211.2,885.4,212.6,882.1,213.9z"></path> <path class="st3" d="M796.3,197.2l-6.6,7c2.9,2.7,6.1,5.2,9.3,7.5l5.4-7.9C801.6,201.8,798.9,199.6,796.3,197.2z"></path> <path class="st3" d="M894,208.3l4.6,8.4c3.5-2,6.8-4.2,10-6.5l-5.8-7.6C900,204.7,897,206.6,894,208.3z"></path> <path class="st3" d="M856.5,219.1l0.3,9.5c4-0.2,8-0.6,11.9-1.3l-1.8-9.4C863.4,218.6,859.9,219,856.5,219.1z"></path> <path class="st3" d="M800.7,70.2l-5.9-7.5c-3.1,2.5-6.1,5.1-8.9,8l7,6.6C795.4,74.7,798,72.3,800.7,70.2z"></path> <path class="st3" d="M869.5,217.5l1.7,9.4c3.9-0.8,7.8-1.9,11.6-3.2l-3.2-9C876.3,215.9,872.9,216.8,869.5,217.5z"></path> <path class="st3" d="M787.4,187.7l-7.6,5.8c2.5,3.1,5.1,6.1,8,8.9l6.5-7C791.9,193,789.5,190.4,787.4,187.7z"></path> <path class="st3" d="M776.7,101l-8.6-4.1c-1.7,3.6-3.1,7.4-4.2,11.2l9.2,2.7C774,107.4,775.2,104.2,776.7,101z"></path> <path class="st3" d="M791.1,79.1l-7-6.6c-2.7,2.9-5.2,6.1-7.5,9.3l7.9,5.4C786.5,84.4,788.7,81.7,791.1,79.1z"></path> <path class="st3" d="M783,89.5l-7.9-5.4c-2.2,3.3-4.2,6.8-6,10.4l8.6,4.1C779.4,95.5,781.1,92.4,783,89.5z"></path> <path class="st3" d="M780,176.8l-8.4,4.6c2,3.5,4.2,6.8,6.5,10l7.6-5.8C783.7,182.7,781.8,179.8,780,176.8z"></path> </svg> 