<?xml version="1.0" encoding="UTF-8"?> <svg xmlns="http://www.w3.org/2000/svg" id="Layer_2" viewBox="0 0 204.54 70.79"> <g id="Layer_1-2"> <g> <path d="M31.28,61.85v3.76c.67,.45,1.3,.59,2.02,.59,1.62,0,2.63-1.16,2.63-2.76s-.89-2.62-2.46-2.62c-.89,0-1.72,.45-2.19,1.04m-1.34-2.14h1.34v.89c.52-.61,1.53-1.06,2.58-1.06,2.15,0,3.5,1.6,3.5,3.84s-1.56,4.07-3.94,4.07c-.81,0-1.6-.17-2.14-.52v3.72h-1.34v-10.94Z" style="fill:#231f20;"></path> <path d="M47.61,67.28h-1.35v-1.08c-.52,.64-1.48,1.25-2.68,1.25-1.68,0-2.8-1.01-2.8-3.23v-4.51h1.35v4.21c0,1.43,.57,2.27,1.95,2.27,.87,0,1.7-.52,2.17-1.13v-5.35h1.35v7.57Z" style="fill:#231f20;"></path> <path d="M53.25,61.78v3.89c.61,.4,1.16,.52,1.82,.52,1.53,0,2.71-1.01,2.71-2.71s-1.01-2.68-2.47-2.68c-.88,0-1.68,.51-2.05,.98m-1.34-6.28h1.34v4.93c.54-.49,1.45-.89,2.36-.89,2.26,0,3.6,1.6,3.6,3.84,0,2.49-1.67,4.07-4.21,4.07-1.21,0-2.37-.35-3.1-.88v-11.08Z" style="fill:#231f20;"></path> <path d="M62.77,55.5h1.35v9.16c0,1.03,.25,1.5,.89,1.5,.37,0,.71-.17,.96-.34l.3,1.03c-.41,.32-.99,.57-1.79,.57-1.15,0-1.72-.69-1.72-2.15v-9.77Z" style="fill:#231f20;"></path> <path d="M69.4,59.71h1.35v7.57h-1.35v-7.57Zm.71-3.66c.42,0,.83,.32,.83,.81,0,.55-.41,.88-.83,.88-.47,0-.87-.32-.87-.88,0-.49,.4-.81,.87-.81" style="fill:#231f20;"></path> <path d="M74.64,61.68c0-1.33,1.08-2.14,2.58-2.14,1.25,0,2.15,.45,2.61,.89l-.64,1.03c-.46-.41-1.11-.74-1.9-.74s-1.21,.44-1.21,.95c0,1.59,4.09,.84,4.09,3.5,0,1.6-1.41,2.29-2.93,2.29-1.23,0-2.44-.64-2.8-1.18l.76-.96c.44,.51,1.43,.96,2.19,.96,.7,0,1.34-.35,1.34-1.04,0-1.53-4.09-.77-4.09-3.55" style="fill:#231f20;"></path> <path d="M83.8,55.5h1.35v5.09c.56-.57,1.52-1.01,2.48-1.01,1.97,0,3.15,.99,3.15,3.37v4.34h-1.35v-4.16c0-1.52-.72-2.29-2.12-2.29-.84,0-1.68,.42-2.16,.96v5.49h-1.35v-11.79Z" style="fill:#231f20;"></path> <path d="M94.89,59.71h1.35v7.57h-1.35v-7.57Zm.71-3.66c.42,0,.83,.32,.83,.81,0,.55-.4,.88-.83,.88-.47,0-.87-.32-.87-.88,0-.49,.4-.81,.87-.81" style="fill:#231f20;"></path> <path d="M100.36,59.71h1.35v.92c.52-.57,1.48-1.06,2.48-1.06,1.97,0,3.15,.96,3.15,3.33v4.38h-1.35v-4.12c0-1.58-.73-2.32-2.14-2.32-.86,0-1.65,.42-2.14,.98v5.47h-1.35v-7.57Z" style="fill:#231f20;"></path> <path d="M114.07,63.95c1.06,0,1.83-.66,1.83-1.63s-.71-1.68-1.83-1.68-1.84,.74-1.84,1.68,.73,1.63,1.84,1.63m.02,5.74c1.57,0,2.59-.45,2.59-1.31s-.98-1.35-2.59-1.35-2.59,.51-2.59,1.35,1.03,1.31,2.59,1.31m-1.43-3.62c-.13-.17-.19-.4-.19-.62,0-.24,.07-.47,.2-.64-1.08-.44-1.7-1.38-1.7-2.49,0-1.52,1.2-2.78,3.1-2.78,.74,0,1.4,.2,1.92,.56l2.22-.54,.03,1.09-1.43,.35c.24,.39,.35,.84,.35,1.31,0,1.52-1.23,2.73-3.1,2.73-.17,0-.34,0-.5-.02-.07,.13-.09,.29-.09,.42,0,.18,.05,.37,.15,.5,.15,0,.3-.02,.46-.02,2.21,0,3.86,.79,3.86,2.44s-1.65,2.41-3.86,2.41-3.86-.76-3.86-2.41c0-1.23,.98-2,2.42-2.31" style="fill:#231f20;"></path> <path d="M127.63,55.5h1.35v5.09c.56-.57,1.52-1.01,2.48-1.01,1.97,0,3.15,.99,3.15,3.37v4.34h-1.35v-4.16c0-1.52-.72-2.29-2.12-2.29-.84,0-1.68,.42-2.15,.96v5.49h-1.35v-11.79Z" style="fill:#231f20;"></path> <path d="M141.58,66.19c1.52,0,2.61-1.08,2.61-2.69s-1.09-2.69-2.61-2.69-2.61,1.09-2.61,2.69,1.09,2.69,2.61,2.69m0-6.65c2.42,0,4.04,1.68,4.04,3.96s-1.62,3.96-4.04,3.96-4.04-1.68-4.04-3.96,1.62-3.96,4.04-3.96" style="fill:#231f20;"></path> <path d="M155.39,67.28h-1.35v-1.08c-.52,.64-1.48,1.25-2.68,1.25-1.68,0-2.79-1.01-2.79-3.23v-4.51h1.35v4.21c0,1.43,.57,2.27,1.95,2.27,.87,0,1.7-.52,2.17-1.13v-5.35h1.35v7.57Z" style="fill:#231f20;"></path> <path d="M158.9,61.68c0-1.33,1.08-2.14,2.58-2.14,1.25,0,2.15,.45,2.61,.89l-.64,1.03c-.45-.41-1.11-.74-1.9-.74s-1.21,.44-1.21,.95c0,1.59,4.09,.84,4.09,3.5,0,1.6-1.41,2.29-2.93,2.29-1.23,0-2.44-.64-2.8-1.18l.76-.96c.44,.51,1.43,.96,2.19,.96,.71,0,1.35-.35,1.35-1.04,0-1.53-4.09-.77-4.09-3.55" style="fill:#231f20;"></path> <path d="M168.62,62.82h4.6c-.07-1.25-.87-2.02-2.19-2.02-1.38,0-2.26,.86-2.41,2.02m5.47,3.64c-.74,.68-1.83,.99-2.85,.99-2.46,0-4.06-1.57-4.06-3.96,0-2.2,1.42-3.95,3.91-3.95,1.95,0,3.52,1.38,3.52,3.47,0,.37-.04,.67-.09,.91h-5.82c.12,1.43,1.16,2.27,2.64,2.27,.98,0,1.84-.34,2.32-.79l.42,1.06Z" style="fill:#231f20;"></path> <polygon points="101.22 .96 84.74 40.87 91.53 40.87 102.93 12.3 114.34 40.87 121.12 40.87 104.81 .96 101.22 .96" style="fill:#231f20;"></polygon> <path d="M56.6,16.18V6.77h19.85V.96h-26V40.87h16.94c9.47,0,13.51-4.9,13.51-12.32s-4.39-12.38-13.51-12.38h-10.78Zm0,18.88v-13.06h10.89c5.25,0,7.58,2.4,7.58,6.56s-1.99,6.5-7.58,6.5h-10.89Z" style="fill:#231f20;"></path> <polygon points="155.15 .96 134.05 29.13 134.05 .96 127.89 .96 127.89 40.87 131.49 40.87 152.59 12.7 152.59 40.87 158.75 40.87 158.75 .96 155.15 .96" style="fill:#231f20;"></polygon> <path d="M197.59,40.87h6.96l-9.47-14.71c-2.39-3.76-3.71-5.13-5.42-5.7,1.42-.74,2.68-2.05,5.02-5.42L203.75,.96h-7.01l-7.76,12.15c-2.22,3.37-3.19,4.56-6.61,4.56h-4.62V.96h-6.16V40.87h6.16V23.59h5.08c3.42,0,4.39,1.14,6.56,4.56l8.21,12.72Z" style="fill:#231f20;"></path> <path d="M20.85,36.06c-8.25,0-14.73-6.29-14.73-15.14S12.6,5.77,20.85,5.77s14.79,6.36,14.79,15.15-6.53,15.14-14.79,15.14M20.85,0C9.31,0,0,9.37,0,20.92s9.31,20.91,20.85,20.91,20.92-9.31,20.92-20.91S32.4,0,20.85,0" style="fill:#231f20;"></path> </g> </g> </svg> 