<?xml version="1.0" encoding="UTF-8"?> <!-- Generator: Adobe Illustrator 26.5.0, SVG Export Plug-In . SVG Version: 6.00 Build 0) --> <svg xmlns="http://www.w3.org/2000/svg" xmlns:xlink="http://www.w3.org/1999/xlink" id="Layer_1" x="0px" y="0px" viewBox="0 0 12.6 10.8" style="enable-background:new 0 0 12.6 10.8;" xml:space="preserve"> <style type="text/css"> .st0{fill-rule:evenodd;clip-rule:evenodd;fill:#6E4817;} </style> <g id="Layer_1-2"> <g> <path class="st0" d="M6.3,8.8l0.4-0.4l1.8-2.2C9,5.6,9.4,5.4,9.9,5.5c0.3,0.1,0.6,0.3,0.8,0.6c0.2,0.5,0.1,1-0.3,1.3 c-0.1,0-0.1,0.1-0.2,0.1V7.4c0-0.1-0.1-0.2-0.2-0.2c-0.1,0-0.2,0-0.3,0c-0.1,0-0.1,0.1-0.2,0.2c0,0.1,0,0.2,0,0.3 c0,0.1,0.1,0.2,0.3,0.3c0.3,0.1,0.6,0,0.7-0.1c0.6-0.4,0.8-1.2,0.5-1.8c-0.2-0.4-0.6-0.7-1-0.8C9.2,5,8.6,5.5,8.2,5.9L6.3,8.3 l-2-2.4C4,5.5,3.4,5,2.6,5.1c-0.4,0.1-0.8,0.4-1,0.8C1.3,6.6,1.5,7.4,2.1,7.7c0.1,0,0.5,0.2,0.7,0.1s0.3-0.2,0.3-0.3 c0-0.1,0-0.2,0-0.3c0-0.1-0.1-0.2-0.2-0.2c-0.1,0-0.2,0-0.3,0c-0.1,0-0.1,0.1-0.2,0.2v0.1c-0.1,0-0.1,0-0.2-0.1 C1.8,7.2,1.7,6.6,1.9,6.1c0.2-0.3,0.5-0.5,0.8-0.6c0.5-0.1,0.9,0.1,1.4,0.6l1.8,2.2L6.3,8.8L6.3,8.8z"></path> <g> <path class="st0" d="M6.1,6.1c0,0.1,0.1,0.1,0.2,0.1s0.1,0,0.2-0.1l0.9-1.5c0-0.1,0-0.1,0-0.2L6.5,2.3c0-0.1-0.1-0.1-0.2-0.1 s-0.1,0-0.2,0.1l-0.9,2c0,0.1,0,0.1,0,0.2L6.1,6.1L6.1,6.1z"></path> <polygon class="st0" points="6.3,2.9 6.9,4.4 6.3,5.6 5.6,4.4 "></polygon> </g> </g> </g> </svg> 