<?xml version="1.0" encoding="UTF-8"?> <svg xmlns="http://www.w3.org/2000/svg" id="_Слой_1" viewBox="0 0 452.66 92.35"> <path d="M275.45,9.09c-1.28,0-2.35-.41-3.2-1.25-.84-.84-1.27-1.9-1.27-3.17s.43-2.28,1.28-3.13c.86-.85,1.93-1.28,3.18-1.28s2.32,.43,3.19,1.28c.86,.86,1.28,1.9,1.28,3.13s-.42,2.33-1.27,3.17c-.84,.84-1.91,1.25-3.2,1.25" style="fill:#231f20; fill-rule:evenodd;"></path> <path d="M326,43.16h29.08c0-4.2-1.21-7.71-3.62-10.52-1.55-1.79-3.44-3.18-5.7-4.14-2.25-.94-4.69-1.42-7.33-1.42-4.96,0-9.37,1.55-13.23,4.66-5.32,4.28-7.98,10.18-7.98,17.7,0,1.91,.23,3.68,.57,5.39h9.19c-.77-2.64-1.18-5.33-1.18-8.1,0-.74,.07-1.92,.21-3.57Zm4.08-11.27c2.13-2.48,4.62-3.72,7.46-3.72,1.67,0,3.26,.48,4.75,1.44,1.49,.94,2.67,2.24,3.57,3.88,.98,1.8,1.59,4.39,1.82,7.72h-21.38c.38-3.74,1.66-6.86,3.77-9.33Z"></path> <path d="M421.29,9.09c-1.28,0-2.36-.41-3.2-1.25-.84-.84-1.27-1.9-1.27-3.17s.43-2.28,1.28-3.13c.87-.85,1.93-1.28,3.18-1.28s2.32,.43,3.18,1.28c.86,.86,1.29,1.9,1.29,3.13s-.43,2.33-1.27,3.17c-.85,.84-1.92,1.25-3.2,1.25" style="fill:#231f20; fill-rule:evenodd;"></path> <path d="M170.83,20.54V54.7c0,3.43-.18,5.96-.58,7.6-.37,1.67-1.08,3.03-2.1,4.1-.93,.97-1.98,1.68-3.14,2.11-1.17,.44-2.71,.7-4.59,.8v1.15h59.14l.64-19.96-1.13-.04c-.62,3.01-1.32,5.44-2.06,7.27-.75,1.85-1.71,3.49-2.89,4.93-1.69,2.14-3.88,3.72-6.55,4.74-2.67,1.01-6.01,1.52-9.96,1.52s-6.8-.56-9.1-1.68c-2.31-1.12-4.01-2.89-5.13-5.29-.67-1.42-1.12-3.17-1.34-5.25-.23-2.08-.36-5.43-.36-10.02v-11.48h2.82c2.45,0,4.47,.26,6.06,.75,1.58,.49,2.88,1.28,3.87,2.36,1.03,1.1,1.82,2.43,2.4,4,.59,1.58,1.01,3.64,1.31,6.21h1.14l.21-26.85-1.14-.05c-.31,2.56-.67,4.51-1.12,5.84-.44,1.32-1.13,2.46-2.06,3.44-.94,1.03-2.2,1.74-3.7,2.16-1.53,.4-3.79,.6-6.8,.6h-2.98v-13.11h-10.84Z" style="fill:#d2ab67;"></path> <path d="M131.63,32.25c-1.56,1.47-3.22,2.45-4.99,2.91-1.76,.46-4.71,.7-8.82,.7h-1.87v-15.32h-10.85V54.7c0,3.47-.18,6-.54,7.64-.38,1.63-1.09,2.99-2.13,4.06-.9,.94-1.93,1.63-3.1,2.08-1.18,.45-2.73,.72-4.63,.82v1.15h31.67v-1.15c-1.92-.1-3.47-.37-4.64-.82-1.18-.46-2.21-1.15-3.11-2.08-1.02-1.06-1.73-2.43-2.1-4.1-.39-1.64-.57-4.17-.57-7.6v-17.75h2.43c1.47,0,2.74,.14,3.76,.43,1.03,.27,1.98,.75,2.88,1.42,1.76,1.35,3.69,3.83,5.8,7.48,2.11,3.68,4.21,7.91,6.31,12.68l3.47,7.98c.24,.5,.76,1.68,1.59,3.51h16.44v-1.15c-1.36-.13-2.42-.4-3.19-.8-.78-.4-1.57-1.11-2.4-2.16-1.04-1.27-2.28-3.32-3.79-6.15-1.5-2.83-3.74-7.29-6.68-13.41-1.25-2.69-2.2-4.55-2.83-5.59-.62-1.06-1.3-1.94-2.06-2.64-.97-.91-2.42-1.77-4.41-2.6,2.4-.53,4.33-1.11,5.77-1.71,1.44-.6,2.74-1.37,3.94-2.31,3.6-2.89,5.46-6.72,5.72-11.4h-11.93c-.17,4.61-1.85,8.54-5.14,11.71Z" style="fill:#d2ab67;"></path> <path d="M146.11,10.15c-1.79-2.66-4.33-4.66-7.6-5.99-2.91-1.17-6.94-1.87-12.04-2.11-1.27-.04-3.89-.05-7.89-.05h-23.89v1.14c1.88,.1,3.42,.36,4.6,.81,1.2,.43,2.23,1.13,3.13,2.11,1.05,1.06,1.76,2.43,2.13,4.05,.35,1.64,.54,4.18,.54,7.64v2.79h10.85V3.56h2.03c3.55,0,6.28,.22,8.19,.68,1.93,.45,3.58,1.23,4.97,2.38,1.78,1.51,3.18,3.41,4.2,5.74,1,2.33,1.51,4.81,1.51,7.45,0,.26-.06,.48-.07,.74h11.93c.02-.39,.11-.74,.11-1.13,0-3.51-.9-6.61-2.71-9.26Z" style="fill:#ead4b2;"></path> <path d="M181.68,3.54h11.35c3.5,0,6.31,.24,8.43,.74,2.11,.48,3.94,1.3,5.5,2.48,1.88,1.41,3.32,3.01,4.32,4.86,1,1.84,1.71,4.15,2.13,6.97l1.14-.04-.83-16.55h-53.28v1.14c1.91,.1,3.47,.36,4.64,.81,1.16,.43,2.2,1.13,3.09,2.11,1.02,1.06,1.73,2.43,2.1,4.09,.4,1.64,.58,4.17,.58,7.6v2.79h10.84V3.54Z" style="fill:#ead4b2;"></path> <path d="M237.5,41.53c-.9-2.31-1.5-4.06-1.85-5.25-.32-1.22-.49-2.26-.49-3.17,0-1.47,.52-2.53,1.59-3.2,.52-.38,1.53-.7,2.97-1.01v-1.06h-19.18v1.06c1.08,.17,1.91,.38,2.47,.63,.58,.25,1.08,.64,1.55,1.16,.83,1.01,2.2,3.9,4.11,8.68l6.2,15.46h7.82l-5.18-13.3Z"></path> <path d="M255.24,40.88c1.84-4.81,3.49-7.98,4.91-9.48,1.12-1.2,2.61-2.04,4.47-2.5v-1.06h-13.69v1.06c1.42,.31,2.41,.65,2.93,1.05,1.04,.77,1.54,2,1.54,3.66,0,1.54-.59,3.9-1.79,7.07l-5.33,14.15h1.58l5.39-13.95Z"></path> <polygon points="243.79 70.46 249.85 54.83 248.27 54.83 245.52 62.13 242.68 54.83 234.86 54.83 241.12 70.46 243.79 70.46" style="fill:#747578;"></polygon> <path d="M279.37,26.98l-14.23,1.8v1.01c1.49,.11,2.62,.36,3.42,.77,.79,.43,1.47,1.09,2.03,2.04,.56,.87,.94,2,1.08,3.39,.17,1.38,.26,3.8,.26,7.23v11.61h7.44V26.98Z"></path> <path d="M271.71,62.36c-.15,1.54-.4,2.7-.78,3.47-.53,1.16-1.22,2-2.08,2.49-.85,.47-2.27,.85-4.26,1.13v1.01h21.87v-1.01c-2.49-.47-4.18-1.15-5.11-2.06-.76-.7-1.27-1.58-1.54-2.64-.25-1.05-.39-2.72-.39-4.98l-.06-3.82v-1.13h-7.44v.79c0,2.93-.07,5.19-.22,6.75Z" style="fill:#747578;"></path> <path d="M301.98,29.73h12.62v-1.9h-12.62V14.79h-1.84l-.49,1.66c-.59,1.93-1.22,3.52-1.88,4.74-.66,1.21-1.54,2.45-2.64,3.68-1.81,2.01-3.81,3.35-5.94,4.06v.81h5.3v25.09h7.5V29.73Z"></path> <path d="M294.92,66.15c.31,1.12,.93,2.08,1.9,2.88,1.78,1.55,4.62,2.31,8.51,2.31,2.95,0,5.4-.47,7.36-1.46,1.96-.97,3.49-2.47,4.58-4.46l-.75-.65c-1.18,1.64-2.27,2.77-3.27,3.39-.98,.62-2.23,.93-3.7,.93-1.2,0-2.29-.25-3.32-.71-1.03-.46-1.86-1.11-2.48-1.95-1.18-1.51-1.78-4.02-1.78-7.53v-4.07h-7.5v5.29c0,2.9,.16,4.92,.44,6.03Z" style="fill:#747578;"></path> <path d="M328.82,69.39c2.89,1.3,6.4,1.95,10.46,1.95,4.69,0,8.44-.99,11.27-2.98,2.83-2,4.67-4.95,5.53-8.84l-1-.37c-.87,2.57-1.88,4.45-3.08,5.62-1.05,1.06-2.39,1.9-3.98,2.5-1.6,.6-3.3,.91-5.09,.91-2.4,0-4.71-.53-6.9-1.62-2.2-1.06-4.04-2.53-5.53-4.4-1.45-1.85-2.6-4.15-3.43-6.92-.04-.14-.06-.28-.09-.43h-9.19c.64,3.2,1.81,6.08,3.64,8.54,2.01,2.71,4.49,4.73,7.4,6.02Z" style="fill:#747578;"></path> <path d="M376.05,0l-14.23,1.8v1.06c1.49,.1,2.62,.34,3.42,.75,.79,.39,1.47,1.06,2.03,2,.55,.88,.93,2,1.08,3.4,.17,1.41,.26,3.82,.26,7.23V54.83h7.45V0Z"></path> <path d="M368.38,62.36c-.15,1.54-.4,2.7-.78,3.47-.53,1.16-1.22,2-2.08,2.49-.86,.47-2.28,.85-4.26,1.13v1.01h21.88v-1.01c-2.48-.47-4.18-1.15-5.11-2.06-.76-.7-1.27-1.58-1.54-2.64-.26-1.05-.39-2.72-.39-4.98l-.05-3.82v-1.13h-7.45v.79c0,2.93-.06,5.19-.22,6.75Z" style="fill:#747578;"></path> <path d="M400.63,0l-14.23,1.8v1.06c1.49,.1,2.62,.34,3.42,.75,.79,.39,1.47,1.06,2.04,2,.55,.88,.93,2,1.08,3.4,.17,1.41,.26,3.82,.26,7.23V54.83h7.44V0Z"></path> <path d="M392.97,62.36c-.16,1.54-.4,2.7-.78,3.47-.53,1.16-1.22,2-2.08,2.49-.87,.47-2.28,.85-4.27,1.13v1.01h21.89v-1.01c-2.47-.47-4.19-1.15-5.11-2.06-.76-.7-1.27-1.58-1.54-2.64-.25-1.05-.39-2.72-.39-4.98l-.05-3.82v-1.13h-7.44v.79c0,2.93-.07,5.19-.22,6.75Z" style="fill:#747578;"></path> <path d="M425.22,26.98l-14.23,1.8v1.01c1.49,.11,2.62,.36,3.42,.77,.79,.43,1.48,1.09,2.03,2.04,.56,.87,.93,2,1.09,3.39,.17,1.38,.25,3.8,.25,7.23v11.61h7.45V26.98Z"></path> <path d="M417.55,62.36c-.16,1.54-.41,2.7-.78,3.47-.52,1.16-1.22,2-2.08,2.49-.85,.47-2.27,.85-4.27,1.13v1.01h21.88v-1.01c-2.49-.47-4.18-1.15-5.11-2.06-.76-.7-1.27-1.58-1.54-2.64-.25-1.05-.38-2.72-.38-4.98l-.06-3.82v-1.13h-7.45v.79c0,2.93-.06,5.19-.21,6.75Z" style="fill:#747578;"></path> <rect x="91.93" y="27.91" width="1.31" height="64.44" style="fill:#231f20;"></rect> <rect x="78.36" y="80.91" width="374.29" height="1.33" style="fill:#231f20;"></rect> <path d="M84.08,27.83h-14.54v1.06c2.5,.43,4.23,1.1,5.16,2,.76,.74,1.25,1.62,1.51,2.65,.25,1.05,.37,2.69,.37,4.96l.05,3.71v9.82c0,.76,0,1.47-.02,2.15h7.47V27.83Z"></path> <path d="M18.45,49.79c-2.42,1.3-4.08,2.3-5.01,2.96-.59,.42-1.13,.92-1.64,1.44h12.54v-8.38c-1.78,1.5-3.76,2.83-5.89,3.97Z" style="fill:none;"></path> <path d="M13.44,52.75c.93-.66,2.59-1.65,5.01-2.96,2.13-1.15,4.11-2.47,5.89-3.97v8.38h7.45v-14.38c0-2.38-.14-4.05-.39-5.07-.54-1.97-1.88-3.58-4.03-4.81-1.49-.84-3.33-1.53-5.55-2.06-2.22-.53-4.35-.8-6.39-.8-1.81,0-3.67,.19-5.57,.58-1.91,.38-3.5,.88-4.79,1.47-2.38,1.19-3.57,2.62-3.57,4.32,0,1.15,.37,2.09,1.13,2.84,.76,.75,1.71,1.13,2.83,1.13,1.73,0,2.91-.79,3.57-2.37l1.23-2.91c.52-1.25,1.31-2.2,2.38-2.91,1.05-.7,2.25-1.06,3.62-1.06,1.12,0,2.2,.26,3.23,.75,1.05,.5,1.89,1.16,2.55,2.01,1.45,1.82,2.18,4.67,2.18,8.58,0,1.85-.2,3.28-.59,4.31-.41,1.04-1.13,1.94-2.18,2.71-.93,.7-2.06,1.29-3.45,1.8-1.37,.5-3.49,1.12-6.36,1.86-2.44,.63-4.32,1.26-5.6,1.88-1.13,.54-2.11,1.26-3.01,2.12H11.8c.52-.52,1.06-1.02,1.64-1.44Z"></path> <path d="M40.71,65.58c-.8,1.11-1.49,1.83-2.06,2.2-.57,.36-1.39,.55-2.4,.55-2.15,0-3.5-1.18-4.06-3.56-.25-1.04-.38-2.97-.4-5.71,0-.25,0-.46,0-.71v-4.16h-7.45c0,1.83-.11,3.42-.3,4.87-.25,1.94-.65,3.58-1.24,4.87-.73,1.69-1.81,3.06-3.25,4.1-1.42,1-2.96,1.52-4.57,1.52-1.86,0-3.38-.72-4.58-2.16s-1.81-3.25-1.81-5.46c0-1.01,.16-1.96,.39-2.86,.37-1.43,.99-2.74,1.94-3.91,.27-.34,.58-.65,.88-.96H3.03c-.13,.13-.28,.22-.41,.35-1.2,1.29-1.96,2.8-2.33,4.52-.17,.78-.29,1.59-.29,2.46,0,3.01,1.07,5.39,3.2,7.17,2.13,1.77,5.01,2.65,8.65,2.65,2.84,0,5.35-.6,7.5-1.79,1.12-.65,2.79-1.97,5.01-3.97,1.08,1.89,2.15,3.25,3.17,4,1.55,1.18,3.5,1.76,5.85,1.76,4.27,0,6.99-1.76,8.17-5.27l-.83-.5Z" style="fill:#555;"></path> <path d="M55.82,53.25V27.83h-14.53v1.06c2.49,.43,4.2,1.1,5.16,2,.73,.74,1.22,1.62,1.49,2.65,.25,1.05,.39,2.69,.39,4.96l.05,3.81v11.87h7.46c0-.33-.01-.6-.01-.94Z"></path> <path d="M87.5,67.71c-.8-.43-1.49-1.09-2.08-2.03-.52-.87-.87-2.01-1.07-3.39-.1-.76-.17-1.85-.21-3.22-.04-1.14-.05-2.46-.05-4.02v-.85h-7.47c-.03,1.98-.12,3.6-.26,4.87-.06,.52-.12,.99-.2,1.39-.31,1.71-.95,3.21-1.91,4.51-.91,1.27-2.18,2.28-3.81,3.01-1.62,.74-3.35,1.1-5.21,1.1-1.68,0-3.2-.33-4.55-.98-1.35-.65-2.4-1.54-3.11-2.69-.68-1.1-1.12-2.52-1.37-4.23-.08-.59-.15-1.33-.21-2.13-.09-1.33-.14-2.97-.15-4.87h-7.46v5.58c0,3.66,1.22,6.51,3.67,8.5,2.5,2.04,5.83,3.07,9.96,3.07,5.65,0,10.54-2.07,14.67-6.21,0,2.12,.22,4.2,.64,6.21l13.59-1.84v-1.01c-1.49-.1-2.62-.36-3.42-.77Z" style="fill:#555;"></path> </svg> 