<?xml version="1.0" encoding="UTF-8"?> <!-- Generator: Adobe Illustrator 26.5.0, SVG Export Plug-In . SVG Version: 6.00 Build 0) --> <svg xmlns="http://www.w3.org/2000/svg" xmlns:xlink="http://www.w3.org/1999/xlink" id="Слой_1" x="0px" y="0px" viewBox="0 0 595.3 297.6" style="enable-background:new 0 0 595.3 297.6;" xml:space="preserve"> <style type="text/css"> .st0{fill:#323E66;} .st1{fill:#79DEA8;} </style> <g> <g> <path class="st0" d="M108.1,107.7c5.1,0,9.8,0.7,14,2.1c4.2,1.4,7.7,3.2,10.6,5.6c2.8,2.3,5.2,4.7,7,7.2c1.8,2.5,3.3,5.1,4.4,7.8 h-10.8c-2-4.2-5.2-7.6-9.5-10.2s-9.6-3.9-15.8-3.9c-8.4,0-15.5,3-21.5,8.9c-6,5.9-9,14-9,24.3c0,9.4,2.9,17.4,8.8,23.8 c5.9,6.4,13.3,9.6,22.3,9.6c6.3,0,11.6-1.4,16-4.2c4.4-2.8,7.7-6.6,9.8-11.4h10.8c-7.6,16.1-20,24.2-37.2,24.2 c-12,0-21.7-4-29.2-11.9c-7.5-7.9-11.3-18-11.3-30.1c0-12,3.9-21.9,11.6-29.7C87,111.6,96.6,107.7,108.1,107.7z"></path> <path class="st0" d="M155.3,161.1c0-8.4,2.8-15.4,8.5-21c5.6-5.6,12.6-8.3,21-8.3c8.5,0,15.5,2.8,21.1,8.4 c5.6,5.6,8.3,12.6,8.3,20.9c0,8.2-2.8,15.2-8.4,20.9c-5.6,5.8-12.6,8.6-21.1,8.6c-8.4,0-15.4-2.8-21-8.5 C158.1,176.5,155.3,169.4,155.3,161.1z M164.7,161.1c0,6.1,2,11.1,5.9,15.2c4,4.1,8.6,6.1,14.1,6.1c5.8,0,10.5-2,14.3-6.1 c3.8-4.1,5.7-9.1,5.7-15.2c0-6-1.9-11-5.6-15.1c-3.7-4.1-8.5-6.1-14.4-6.1c-5.8,0-10.6,2-14.4,6 C166.6,149.9,164.7,154.9,164.7,161.1z"></path> <path class="st0" d="M226.3,188.7v-82.8h9.1v82.8H226.3z"></path> <path class="st0" d="M251.3,188.7v-82.8h9.1v82.8H251.3z"></path> <path class="st0" d="M330.2,133.6v55.1h-9.1v-7.4h-0.2c-5.1,6.2-11.8,9.3-20.1,9.3c-7.7,0-14.4-2.7-20-8.2 c-5.6-5.5-8.3-12.6-8.3-21.3c0-8.5,2.7-15.5,8.2-21.1c5.5-5.5,12.4-8.3,20.7-8.3c7.6,0,14.1,3.3,19.7,9.8h0.1v-7.9H330.2z M287.1,146.1c-3.5,4.3-5.3,9.3-5.3,15c0,5.8,1.8,10.8,5.3,15.1c3.5,4.3,8.5,6.4,14.8,6.4c5.4,0,10-2,14-6s5.9-9.1,5.9-15.1 c0-6.4-1.9-11.7-5.7-15.7s-8.5-6-14-6C295.7,139.7,290.7,141.8,287.1,146.1z"></path> <path class="st0" d="M400,133.6V187c0,10.1-2.4,17.9-7.1,23.2c-4.7,5.4-11.8,8.1-21.3,8.1c-7.5,0-13.6-1.9-18.3-5.7 c-4.7-3.8-7.7-8.9-8.8-15.4h9.2c2.3,8.7,8.4,13.1,18.3,13.1c6.1,0,10.8-1.9,14.1-5.8c3.3-3.8,4.9-9.3,4.9-16.5v-7h-0.2 c-5.2,6.4-11.9,9.5-20.1,9.5c-7.8,0-14.5-2.7-20-8.2c-5.5-5.5-8.3-12.6-8.3-21.3c0-8.5,2.7-15.5,8.1-21.1 c5.4-5.5,12.1-8.3,20.1-8.3c8.2,0,15,3.3,20.2,9.8h0.2v-7.9H400z M357,146.1c-3.6,4.3-5.4,9.3-5.4,15c0,5.8,1.8,10.8,5.4,15.1 c3.6,4.3,8.5,6.4,14.7,6.4c5.4,0,10.1-2,14.1-6s5.9-9.1,5.9-15.1c0-6.4-1.9-11.7-5.7-15.7s-8.5-6-14.1-6 C365.6,139.7,360.6,141.8,357,146.1z"></path> <path class="st0" d="M439.5,131.7c4.7,0,9,0.9,12.7,2.8c3.7,1.8,6.5,4.2,8.6,7.1c2,2.9,3.5,6,4.5,9.1c1,3.2,1.5,6.4,1.5,9.6 c0,1.5-0.1,2.6-0.2,3.3h-45c0,5,2,9.4,5.9,13.2s8.5,5.7,13.7,5.7c5.7,0,10.4-2.2,14.1-6.7h10.5c-2.1,4.1-5.3,7.5-9.4,10.4 c-4.1,2.9-9.1,4.3-15,4.3c-8.7,0-15.7-2.9-21.1-8.6c-5.4-5.8-8.1-13-8.1-21.6c0-7.9,2.5-14.6,7.6-20.2 C424.7,134.5,431.3,131.7,439.5,131.7z M439.5,139.7c-5,0-9.1,1.6-12.3,4.9c-3.2,3.3-5.1,7.1-5.5,11.6h35.5 c-0.5-4.5-2.3-8.4-5.6-11.6C448.3,141.3,444.3,139.7,439.5,139.7z"></path> <path class="st0" d="M478.8,188.7v-55.1h9.1v6.9h0.2c4.5-5.8,10.3-8.7,17.4-8.7c5.8,0,10.9,2,15.2,6c4.3,4,6.5,10.3,6.5,18.8v32.1 h-9.1v-31.5c0-5.5-1.3-9.8-3.7-12.8c-2.5-3-5.9-4.5-10.3-4.5c-5.1,0-9,1.7-11.9,5s-4.3,8.1-4.3,14.4v29.3H478.8z"></path> </g> <g> <path class="st1" d="M427.3,80.4v7h-11.5v5.8h11v6.6h-11v12h-8.3V80.4H427.3z"></path> <path class="st1" d="M441.6,111.8V80.4h8.2v31.4H441.6z"></path> <path class="st1" d="M486.3,89.6h-7.5c0-1.1-0.3-2-0.8-2.7c-0.6-0.7-1.3-1-2.3-1c-0.7,0-1.3,0.2-1.8,0.7c-0.5,0.4-0.7,1-0.7,1.8 c0,0.9,0.4,1.6,1.2,2.2c0.8,0.6,2.1,1.1,3.9,1.7c5.7,2,8.6,5.5,8.6,10.5c0,2.6-0.9,4.9-2.8,6.9c-1.9,2-4.7,3-8.3,3 c-3.4,0-6.2-1-8.2-3c-2-2-3.1-4.7-3.1-8.1h7.9c0,3,1.2,4.6,3.5,4.6c0.9,0,1.6-0.3,2.2-0.8c0.6-0.5,0.8-1.2,0.8-2.1 c0-1-0.4-1.8-1.1-2.5c-0.8-0.6-2.1-1.3-3.9-1.9c-5.7-2-8.6-5.4-8.6-10.3c0-2.9,1-5.1,3-6.8c2-1.7,4.5-2.5,7.5-2.5 c3.2,0,5.8,0.9,7.7,2.7C485.4,83.9,486.3,86.5,486.3,89.6z"></path> <path class="st1" d="M519.4,111.8V99.1h-9.8v12.7h-8.2V80.4h8.2v11.7h9.8V80.4h8.2v31.4H519.4z"></path> </g> </g> </svg> 