<?xml version="1.0" encoding="UTF-8"?> <svg xmlns="http://www.w3.org/2000/svg" id="Layer_2" viewBox="0 0 597.93 49.74"> <g id="text"> <g> <path d="M9.7,19.49V6.78H3.32v12.72H.79V4.49H12.23v15h-2.53Z" style="fill:#fff;"></path> <path d="M25.1,4.49v2.29h-6.07v3.85h5.85v2.22h-5.85v4.36h6.31v2.29h-8.91V4.49h8.67Z" style="fill:#fff;"></path> <path d="M29.3,19.49V4.49h4.62c1.69,0,3.04,.4,4.07,1.2,1.03,.8,1.54,1.98,1.54,3.53s-.48,2.71-1.43,3.54-2.39,1.25-4.31,1.25h-1.89v5.48h-2.6Zm7.59-10.23c0-.78-.24-1.4-.73-1.88-.48-.48-1.22-.72-2.22-.72h-2.05v5.19h2c2,0,2.99-.87,2.99-2.6Z" style="fill:#fff;"></path> <path d="M42.61,19.49V4.49h3.81c1.57,0,2.8,.33,3.71,1s1.35,1.6,1.35,2.8c0,.81-.24,1.48-.73,2.02s-1.1,.92-1.85,1.14v.04c1.11,.13,1.98,.55,2.58,1.25,.61,.7,.91,1.53,.91,2.49,0,1.35-.48,2.39-1.44,3.14-.96,.74-2.2,1.11-3.71,1.11h-4.64Zm6.27-10.96c0-.66-.23-1.15-.68-1.48-.46-.33-1.08-.5-1.87-.5h-1.23v4.09h1.34c.79,0,1.4-.19,1.81-.57s.63-.89,.63-1.54Zm.88,6.51c0-.72-.25-1.29-.75-1.72-.5-.43-1.2-.64-2.09-.64h-1.83v4.71h2.02c.87,0,1.52-.21,1.97-.63s.67-.99,.67-1.73Z" style="fill:#fff;"></path> <path d="M55.9,19.49V4.49h2.6v6.09h2.16c1.57,0,2.82,.39,3.75,1.17,.93,.78,1.4,1.86,1.4,3.26s-.48,2.49-1.44,3.29c-.96,.8-2.2,1.2-3.73,1.2h-4.73Zm7.26-4.49c0-.73-.25-1.31-.75-1.72-.5-.41-1.2-.62-2.09-.62h-1.83v4.73h2.02c.85,0,1.5-.21,1.96-.64,.45-.43,.68-1.01,.68-1.76Zm4.55,4.49V4.49h2.6v15h-2.6Z" style="fill:#fff;"></path> <path d="M74.51,4.49h2.53V12.69c0,1.42-.01,2.4-.04,2.93h.04c.29-.57,1.17-2.02,2.64-4.36l4.29-6.78h2.4v15h-2.53V11.42c0-1,.01-1.99,.04-2.99h-.04c-.31,.6-1.25,2.14-2.84,4.62l-4.09,6.45h-2.4V4.49Zm7.7-4.49h1.76c-.06,.92-.42,1.67-1.08,2.22-.66,.56-1.5,.84-2.51,.84-1.1,0-1.96-.28-2.58-.85-.62-.56-.95-1.3-.98-2.21h1.74c.03,.4,.21,.71,.53,.94,.32,.23,.76,.34,1.3,.34s.99-.12,1.31-.35c.32-.23,.49-.54,.52-.92Z" style="fill:#fff;"></path> <path d="M111.08,4.49l1.76,15h-2.51l-.79-7.94c-.04-.43-.11-1.11-.2-2.07-.09-.95-.13-1.46-.13-1.52h-.11c-.37,1.33-.72,2.54-1.06,3.61l-2.49,7.92h-1.94l-2.51-8.1c-.54-1.66-.88-2.8-1.01-3.43h-.15c-.04,.95-.13,2.09-.26,3.41l-.84,8.12h-2.38l1.74-15h2.97l2.64,8.16c.32,1.01,.59,1.93,.79,2.75h.09c.12-.47,.39-1.39,.81-2.75l2.62-8.16h2.95Z" style="fill:#fff;"></path> <path d="M124.96,4.49v2.29h-6.07v3.85h5.85v2.22h-5.85v4.36h6.31v2.29h-8.91V4.49h8.67Z" style="fill:#fff;"></path> <path d="M136.04,12.19l-5.61,7.3h-3.12l6.12-7.79-5.85-7.22h3.08l5.39,6.89V4.49h2.6v6.89l5.39-6.89h3.08l-5.85,7.22,6.12,7.79h-3.12l-5.61-7.3v7.3h-2.6v-7.3Z" style="fill:#fff;"></path> <path d="M149.02,23.34v-6.14h.48c1.53,0,2.39-1.37,2.6-4.11l.62-8.6h10.19v12.72h2v6.14h-2.6v-3.85h-10.69v3.85h-2.6Zm11.29-6.14V6.78h-5.21l-.44,6.31c-.16,1.95-.62,3.32-1.36,4.11h7.02Z" style="fill:#fff;"></path> <path d="M179.08,4.49l-5.26,12.01c-.92,2.1-2.2,3.15-3.83,3.15-.43,0-.84-.07-1.23-.2v-2.16c.23,.09,.54,.13,.92,.13s.73-.1,1-.29c.27-.19,.53-.55,.78-1.08l.53-1.23-5.61-10.34h2.86l3.28,6.38c.26,.48,.48,.98,.66,1.47h.04c.03-.07,.22-.57,.57-1.5l2.57-6.36h2.71Z" style="fill:#fff;"></path> <path d="M191.24,19.49v-6.6h-6.93v6.6h-2.6V4.49h2.6v6.09h6.93V4.49h2.6v15h-2.6Z" style="fill:#fff;"></path> <path d="M196.5,19.49l5.96-15h2.38l5.7,15h-2.71l-1.34-3.67h-5.98l-1.36,3.67h-2.64Zm6.09-9.48l-1.41,3.83h4.62l-1.39-3.85c-.31-.85-.59-1.72-.84-2.6h-.11c-.26,.91-.56,1.78-.88,2.62Z" style="fill:#fff;"></path> <path d="M213.18,19.49V4.49h4.62c1.69,0,3.04,.4,4.07,1.2,1.03,.8,1.54,1.98,1.54,3.53s-.48,2.71-1.43,3.54-2.39,1.25-4.31,1.25h-1.89v5.48h-2.6Zm7.59-10.23c0-.78-.24-1.4-.73-1.88-.48-.48-1.22-.72-2.22-.72h-2.05v5.19h2c2,0,2.99-.87,2.99-2.6Z" style="fill:#fff;"></path> <path d="M225.91,11.99c0-2.19,.76-4.06,2.28-5.63,1.52-1.57,3.42-2.35,5.71-2.35s4.29,.78,5.74,2.35c1.45,1.57,2.18,3.45,2.18,5.63s-.76,4.1-2.29,5.65c-1.53,1.55-3.41,2.33-5.65,2.33-1.32,0-2.5-.24-3.55-.71s-1.88-1.11-2.51-1.89c-.62-.78-1.1-1.64-1.42-2.55-.32-.92-.48-1.86-.48-2.83Zm4.19-4.04c-1.02,1.08-1.53,2.42-1.53,4.04s.51,2.96,1.52,4.04c1.01,1.08,2.27,1.62,3.76,1.62s2.77-.54,3.78-1.62c1.01-1.08,1.52-2.42,1.52-4.04s-.49-2.96-1.47-4.04c-.98-1.08-2.25-1.62-3.81-1.62s-2.75,.54-3.77,1.62Z" style="fill:#fff;"></path> <path d="M243.69,23.34v-6.14h.48c1.53,0,2.39-1.37,2.6-4.11l.62-8.6h10.19v12.72h2v6.14h-2.6v-3.85h-10.69v3.85h-2.6Zm11.29-6.14V6.78h-5.21l-.44,6.31c-.16,1.95-.62,3.32-1.36,4.11h7.02Z" style="fill:#fff;"></path> <path d="M272.42,19.49v-6.6h-6.93v6.6h-2.6V4.49h2.6v6.09h6.93V4.49h2.6v15h-2.6Z" style="fill:#fff;"></path> <path d="M279.24,19.49V4.49h2.6v6.09h2.16c1.57,0,2.82,.39,3.75,1.17,.93,.78,1.4,1.86,1.4,3.26s-.48,2.49-1.44,3.29c-.96,.8-2.2,1.2-3.73,1.2h-4.73Zm7.26-4.49c0-.73-.25-1.31-.75-1.72-.5-.41-1.2-.62-2.09-.62h-1.83v4.73h2.02c.85,0,1.5-.21,1.96-.64,.45-.43,.68-1.01,.68-1.76Zm4.55,4.49V4.49h2.6v15h-2.6Z" style="fill:#fff;"></path> <path d="M297.85,4.49h2.53V12.69c0,1.42-.01,2.4-.04,2.93h.04c.29-.57,1.17-2.02,2.64-4.36l4.29-6.78h2.4v15h-2.53V11.42c0-1,.01-1.99,.04-2.99h-.04c-.31,.6-1.25,2.14-2.84,4.62l-4.09,6.45h-2.4V4.49Zm7.7-4.49h1.76c-.06,.92-.42,1.67-1.08,2.22-.66,.56-1.5,.84-2.51,.84-1.1,0-1.96-.28-2.58-.85s-.95-1.3-.98-2.21h1.74c.03,.4,.21,.71,.53,.94,.32,.23,.75,.34,1.3,.34s.99-.12,1.31-.35c.31-.23,.49-.54,.52-.92Z" style="fill:#fff;"></path> <path d="M334.42,4.49l1.76,15h-2.51l-.79-7.94c-.04-.43-.11-1.11-.2-2.07-.09-.95-.13-1.46-.13-1.52h-.11c-.37,1.33-.72,2.54-1.06,3.61l-2.49,7.92h-1.94l-2.51-8.1c-.54-1.66-.88-2.8-1.01-3.43h-.15c-.04,.95-.13,2.09-.26,3.41l-.84,8.12h-2.38l1.74-15h2.97l2.64,8.16c.32,1.01,.59,1.93,.79,2.75h.09c.12-.47,.39-1.39,.81-2.75l2.62-8.16h2.95Z" style="fill:#fff;"></path> <path d="M348.3,4.49v2.29h-6.07v3.85h5.85v2.22h-5.85v4.36h6.31v2.29h-8.91V4.49h8.67Z" style="fill:#fff;"></path> <path d="M359.38,12.19l-5.61,7.3h-3.12l6.12-7.79-5.85-7.22h3.08l5.39,6.89V4.49h2.6v6.89l5.39-6.89h3.08l-5.85,7.22,6.12,7.79h-3.12l-5.61-7.3v7.3h-2.6v-7.3Z" style="fill:#fff;"></path> <path d="M372.36,23.34v-6.14h.48c1.53,0,2.39-1.37,2.6-4.11l.62-8.6h10.19v12.72h2v6.14h-2.6v-3.85h-10.69v3.85h-2.6Zm11.29-6.14V6.78h-5.21l-.44,6.31c-.16,1.95-.62,3.32-1.36,4.11h7.02Z" style="fill:#fff;"></path> <path d="M391.57,4.49h2.53V12.69c0,1.42-.01,2.4-.04,2.93h.04c.29-.57,1.17-2.02,2.64-4.36l4.29-6.78h2.4v15h-2.53V11.42c0-1,.01-1.99,.04-2.99h-.04c-.31,.6-1.25,2.14-2.84,4.62l-4.09,6.45h-2.4V4.49Z" style="fill:#fff;"></path> <path d="M414.63,4c1.92,0,3.48,.49,4.69,1.46,1.2,.98,1.99,2.12,2.35,3.42h-2.84c-.28-.76-.79-1.39-1.53-1.89-.74-.5-1.64-.75-2.7-.75-1.44,0-2.64,.52-3.62,1.56-.98,1.04-1.46,2.43-1.46,4.16,0,1.61,.48,2.98,1.45,4.09,.97,1.11,2.21,1.67,3.72,1.67,1.08,0,1.99-.27,2.73-.81,.73-.54,1.26-1.24,1.58-2.09h2.9c-.57,1.57-1.47,2.82-2.68,3.75-1.22,.93-2.76,1.4-4.62,1.4-2.29,0-4.15-.76-5.59-2.28s-2.16-3.44-2.16-5.75,.74-4.18,2.21-5.69c1.47-1.5,3.33-2.25,5.56-2.25Z" style="fill:#fff;"></path> <path d="M436.41,19.49h-10.85V4.49h2.6v12.72h6.25V4.49h2.6v12.72h2v6.14h-2.6v-3.85Z" style="fill:#fff;"></path> <path d="M442.32,4.49h2.53V12.69c0,1.42-.01,2.4-.04,2.93h.04c.29-.57,1.17-2.02,2.64-4.36l4.29-6.78h2.4v15h-2.53V11.42c0-1,.01-1.99,.04-2.99h-.04c-.31,.6-1.25,2.14-2.84,4.62l-4.09,6.45h-2.4V4.49Z" style="fill:#fff;"></path> <path d="M467.31,19.49V6.78h-6.38v12.72h-2.53V4.49h11.44v15h-2.53Z" style="fill:#fff;"></path> <path d="M478.2,6.78l-.7,9.02c-.1,1.36-.43,2.35-.97,2.95-.54,.6-1.37,.9-2.49,.9-.41,0-.83-.07-1.25-.2v-2.18c.21,.09,.49,.13,.86,.13,.41,0,.72-.12,.92-.35,.21-.23,.34-.65,.4-1.25l.88-11.31h10.19v15h-2.53V6.78h-5.3Z" style="fill:#fff;"></path> <path d="M490.26,4.49h2.53V12.69c0,1.42-.01,2.4-.04,2.93h.04c.29-.57,1.17-2.02,2.64-4.36l4.29-6.78h2.4v15h-2.53V11.42c0-1,.01-1.99,.04-2.99h-.04c-.31,.6-1.25,2.14-2.84,4.62l-4.09,6.45h-2.4V4.49Z" style="fill:#fff;"></path> <path d="M515.87,19.49v-6.6h-6.93v6.6h-2.6V4.49h2.6v6.09h6.93V4.49h2.6v15h-2.6Z" style="fill:#fff;"></path> <path d="M521.13,19.49l5.96-15h2.38l5.7,15h-2.71l-1.34-3.67h-5.98l-1.36,3.67h-2.64Zm6.09-9.48l-1.41,3.83h4.62l-1.39-3.85c-.31-.85-.59-1.72-.84-2.6h-.11c-.26,.91-.56,1.78-.88,2.62Z" style="fill:#fff;"></path> <path d="M537.8,19.49V4.49h4.62c1.69,0,3.04,.4,4.07,1.2,1.03,.8,1.54,1.98,1.54,3.53s-.48,2.71-1.43,3.54-2.39,1.25-4.31,1.25h-1.89v5.48h-2.6Zm7.59-10.23c0-.78-.24-1.4-.73-1.88-.48-.48-1.22-.72-2.22-.72h-2.05v5.19h2c2,0,2.99-.87,2.99-2.6Z" style="fill:#fff;"></path> <path d="M560.64,19.49v-6.6h-6.93v6.6h-2.6V4.49h2.6v6.09h6.93V4.49h2.6v15h-2.6Z" style="fill:#fff;"></path> <path d="M567.46,19.49V4.49h2.6v6.09h2.16c1.57,0,2.82,.39,3.75,1.17,.93,.78,1.4,1.86,1.4,3.26s-.48,2.49-1.44,3.29c-.96,.8-2.2,1.2-3.73,1.2h-4.73Zm7.26-4.49c0-.73-.25-1.31-.75-1.72-.5-.41-1.2-.62-2.09-.62h-1.83v4.73h2.02c.85,0,1.5-.21,1.96-.64,.45-.43,.68-1.01,.68-1.76Zm4.55,4.49V4.49h2.6v15h-2.6Z" style="fill:#fff;"></path> <path d="M586.07,4.49h2.53V12.69c0,1.42-.01,2.4-.04,2.93h.04c.29-.57,1.17-2.02,2.64-4.36l4.29-6.78h2.4v15h-2.53V11.42c0-1,.01-1.99,.04-2.99h-.04c-.31,.6-1.25,2.14-2.84,4.62l-4.09,6.45h-2.4V4.49Zm7.7-4.49h1.76c-.06,.92-.42,1.67-1.08,2.22-.66,.56-1.5,.84-2.51,.84-1.1,0-1.96-.28-2.58-.85s-.95-1.3-.98-2.21h1.74c.03,.4,.21,.71,.53,.94,.32,.23,.75,.34,1.3,.34s.99-.12,1.31-.35c.31-.23,.49-.54,.52-.92Z" style="fill:#fff;"></path> <path d="M0,38.39c0-2.19,.76-4.06,2.28-5.63,1.52-1.57,3.42-2.35,5.71-2.35s4.29,.78,5.74,2.35,2.18,3.45,2.18,5.63-.76,4.1-2.29,5.65c-1.53,1.55-3.41,2.33-5.65,2.33-1.32,0-2.5-.24-3.55-.71-1.05-.48-1.88-1.11-2.51-1.89-.62-.78-1.1-1.64-1.42-2.55-.32-.92-.48-1.86-.48-2.83Zm4.19-4.04c-1.02,1.08-1.53,2.42-1.53,4.04s.51,2.96,1.52,4.04c1.01,1.08,2.27,1.62,3.76,1.62s2.77-.54,3.78-1.62c1.01-1.08,1.52-2.42,1.52-4.04s-.49-2.96-1.47-4.04-2.25-1.62-3.81-1.62-2.75,.54-3.77,1.62Z" style="fill:#fff;"></path> <path d="M28.86,45.89v-6.6h-6.93v6.6h-2.6v-15h2.6v6.09h6.93v-6.09h2.6v15h-2.6Z" style="fill:#fff;"></path> <path d="M39.82,33.18l-.7,9.02c-.1,1.36-.43,2.35-.97,2.95-.54,.6-1.37,.9-2.49,.9-.41,0-.83-.07-1.25-.2v-2.18c.21,.09,.49,.13,.86,.13,.41,0,.72-.12,.92-.35,.21-.23,.34-.65,.4-1.25l.88-11.31h10.19v15h-2.53v-12.72h-5.3Z" style="fill:#fff;"></path> <path d="M50.31,45.89l5.96-15h2.38l5.7,15h-2.71l-1.34-3.67h-5.98l-1.36,3.67h-2.64Zm6.09-9.48l-1.41,3.83h4.62l-1.39-3.85c-.31-.85-.59-1.72-.84-2.6h-.11c-.26,.91-.56,1.78-.88,2.62Z" style="fill:#fff;"></path> <path d="M67.01,30.89h2.53v8.21c0,1.42-.01,2.4-.04,2.93h.04c.29-.57,1.17-2.02,2.64-4.36l4.29-6.78h2.4v15h-2.53v-8.07c0-1,.01-1.99,.04-2.99h-.04c-.31,.6-1.25,2.14-2.84,4.62l-4.09,6.45h-2.4v-15Zm7.7-4.49h1.76c-.06,.92-.42,1.67-1.08,2.22-.66,.56-1.5,.84-2.51,.84-1.1,0-1.96-.28-2.58-.85s-.95-1.3-.98-2.21h1.74c.03,.4,.21,.71,.53,.94,.32,.23,.75,.34,1.3,.34s.99-.12,1.31-.35c.31-.23,.49-.54,.52-.92Z" style="fill:#fff;"></path> <path d="M92.62,45.89v-6.6h-6.93v6.6h-2.6v-15h2.6v6.09h6.93v-6.09h2.6v15h-2.6Z" style="fill:#fff;"></path> <path d="M115.3,45.89l-6.67-7.17v7.17h-2.6v-15h2.6v7l6.53-7h3.23l-7.06,7.26,7.33,7.74h-3.37Z" style="fill:#fff;"></path> <path d="M119.52,38.39c0-2.19,.76-4.06,2.28-5.63,1.52-1.57,3.42-2.35,5.71-2.35s4.29,.78,5.74,2.35c1.45,1.57,2.18,3.45,2.18,5.63s-.76,4.1-2.29,5.65c-1.53,1.55-3.41,2.33-5.65,2.33-1.32,0-2.5-.24-3.55-.71s-1.88-1.11-2.51-1.89c-.62-.78-1.1-1.64-1.42-2.55-.32-.92-.48-1.86-.48-2.83Zm4.19-4.04c-1.02,1.08-1.53,2.42-1.53,4.04s.51,2.96,1.52,4.04c1.01,1.08,2.27,1.62,3.76,1.62s2.77-.54,3.78-1.62c1.01-1.08,1.52-2.42,1.52-4.04s-.49-2.96-1.47-4.04c-.98-1.08-2.25-1.62-3.81-1.62s-2.75,.54-3.77,1.62Z" style="fill:#fff;"></path> <path d="M148.39,45.89v-6.6h-6.93v6.6h-2.6v-15h2.6v6.09h6.93v-6.09h2.6v15h-2.6Z" style="fill:#fff;"></path> <path d="M155.19,45.89v-15h8.91v2.29h-6.36v12.72h-2.55Z" style="fill:#fff;"></path> <path d="M166.96,45.89v-15h4.62c1.69,0,3.04,.4,4.07,1.2,1.03,.8,1.54,1.98,1.54,3.53s-.48,2.71-1.43,3.54c-.95,.84-2.39,1.25-4.31,1.25h-1.89v5.48h-2.6Zm7.59-10.23c0-.78-.24-1.4-.73-1.88-.48-.48-1.22-.72-2.22-.72h-2.05v5.19h2c1.99,0,2.99-.87,2.99-2.6Z" style="fill:#fff;"></path> <path d="M188.91,30.89v2.29h-6.07v3.85h5.85v2.22h-5.85v4.36h6.31v2.29h-8.91v-15h8.67Z" style="fill:#fff;"></path> <path d="M200.11,30.4c1.92,0,3.48,.49,4.69,1.46,1.2,.98,1.99,2.12,2.35,3.42h-2.84c-.28-.76-.79-1.39-1.53-1.89-.74-.5-1.64-.75-2.7-.75-1.44,0-2.64,.52-3.62,1.56-.98,1.04-1.46,2.43-1.46,4.16,0,1.61,.48,2.98,1.45,4.09,.97,1.11,2.21,1.67,3.72,1.67,1.08,0,1.99-.27,2.73-.81,.73-.54,1.26-1.24,1.58-2.09h2.9c-.57,1.57-1.47,2.82-2.68,3.75-1.22,.93-2.76,1.4-4.62,1.4-2.29,0-4.15-.76-5.59-2.28s-2.16-3.44-2.16-5.75,.74-4.18,2.21-5.69c1.47-1.5,3.33-2.25,5.55-2.25Z" style="fill:#fff;"></path> <path d="M218.02,30.4c1.92,0,3.48,.49,4.69,1.46,1.2,.98,1.99,2.12,2.35,3.42h-2.84c-.28-.76-.79-1.39-1.53-1.89-.74-.5-1.64-.75-2.7-.75-1.44,0-2.64,.52-3.62,1.56-.98,1.04-1.46,2.43-1.46,4.16,0,1.61,.48,2.98,1.45,4.09,.97,1.11,2.21,1.67,3.72,1.67,1.08,0,1.99-.27,2.73-.81,.73-.54,1.26-1.24,1.58-2.09h2.9c-.57,1.57-1.47,2.82-2.68,3.75-1.22,.93-2.76,1.4-4.62,1.4-2.29,0-4.15-.76-5.59-2.28s-2.16-3.44-2.16-5.75,.74-4.18,2.21-5.69c1.47-1.5,3.33-2.25,5.56-2.25Z" style="fill:#fff;"></path> <path d="M244.46,45.89v-12.72h-6.38v12.72h-2.53v-15h11.44v15h-2.53Z" style="fill:#fff;"></path> <path d="M250.42,38.39c0-2.19,.76-4.06,2.28-5.63,1.52-1.57,3.42-2.35,5.71-2.35s4.29,.78,5.74,2.35c1.45,1.57,2.18,3.45,2.18,5.63s-.76,4.1-2.29,5.65c-1.53,1.55-3.41,2.33-5.65,2.33-1.32,0-2.5-.24-3.55-.71s-1.88-1.11-2.51-1.89c-.62-.78-1.1-1.64-1.42-2.55-.32-.92-.48-1.86-.48-2.83Zm4.19-4.04c-1.02,1.08-1.53,2.42-1.53,4.04s.51,2.96,1.52,4.04c1.01,1.08,2.27,1.62,3.76,1.62s2.77-.54,3.78-1.62c1.01-1.08,1.52-2.42,1.52-4.04s-.49-2.96-1.47-4.04c-.98-1.08-2.25-1.62-3.81-1.62s-2.75,.54-3.77,1.62Z" style="fill:#fff;"></path> <path d="M283.03,30.4c2.23,0,4.08,.75,5.55,2.25s2.21,3.4,2.21,5.69-.72,4.23-2.16,5.75-3.3,2.28-5.59,2.28c-1.82,0-3.33-.44-4.53-1.31-1.2-.87-2.11-2.06-2.73-3.55h2.9c.35,.82,.89,1.47,1.61,1.96s1.61,.73,2.66,.73c1.39,0,2.55-.47,3.48-1.4,.92-.93,1.47-2.12,1.63-3.55h-7.52v-2.22h7.48c-.22-1.36-.79-2.45-1.72-3.24s-2.01-1.2-3.26-1.2c-1.01,0-1.88,.22-2.6,.67-.72,.45-1.24,1.03-1.56,1.75h-2.86c.21-.57,.49-1.12,.86-1.64,.37-.52,.83-1.01,1.39-1.46,.56-.45,1.25-.82,2.07-1.09,.82-.27,1.72-.41,2.68-.41Z" style="fill:#fff;"></path> <path d="M301.2,30.4c1.92,0,3.48,.49,4.69,1.46,1.2,.98,1.99,2.12,2.35,3.42h-2.84c-.28-.76-.79-1.39-1.53-1.89-.74-.5-1.64-.75-2.7-.75-1.44,0-2.64,.52-3.62,1.56-.98,1.04-1.46,2.43-1.46,4.16,0,1.61,.48,2.98,1.45,4.09,.97,1.11,2.21,1.67,3.72,1.67,1.08,0,1.99-.27,2.73-.81,.73-.54,1.26-1.24,1.58-2.09h2.9c-.57,1.57-1.47,2.82-2.68,3.75-1.22,.93-2.76,1.4-4.62,1.4-2.29,0-4.15-.76-5.59-2.28s-2.16-3.44-2.16-5.75,.74-4.18,2.21-5.69c1.47-1.5,3.33-2.25,5.56-2.25Z" style="fill:#fff;"></path> <path d="M314.22,45.89v-12.72h-3.74v-2.29h10.08v2.29h-3.74v12.72h-2.6Z" style="fill:#fff;"></path> <path d="M332.08,30.89v2.29h-6.07v3.85h5.85v2.22h-5.85v4.36h6.31v2.29h-8.91v-15h8.67Z" style="fill:#fff;"></path> <path d="M338.71,45.89v-12.72h-3.74v-2.29h10.08v2.29h-3.74v12.72h-2.6Z" style="fill:#fff;"></path> <path d="M347.92,30.89h2.53v8.21c0,1.42-.01,2.4-.04,2.93h.04c.29-.57,1.17-2.02,2.64-4.36l4.29-6.78h2.4v15h-2.53v-8.07c0-1,.01-1.99,.04-2.99h-.04c-.31,.6-1.25,2.14-2.84,4.62l-4.09,6.45h-2.4v-15Z" style="fill:#fff;"></path> <path d="M374.63,45.89h-2.6v-6.89h-.09c-.35,.48-.86,.87-1.53,1.16-.67,.29-1.34,.43-2.01,.43-1.5,0-2.65-.41-3.46-1.24-.81-.83-1.22-2.08-1.22-3.75v-4.71h2.6v4.49c0,1.98,.93,2.97,2.79,2.97,.89,0,1.61-.26,2.13-.79,.53-.53,.79-1.27,.79-2.22v-4.44h2.6v15Z" style="fill:#fff;"></path> <path d="M387.48,30.89v2.29h-6.07v3.85h5.85v2.22h-5.85v4.36h6.31v2.29h-8.91v-15h8.67Z" style="fill:#fff;"></path> <path d="M398.68,30.4c1.92,0,3.48,.49,4.69,1.46,1.2,.98,1.99,2.12,2.35,3.42h-2.84c-.28-.76-.79-1.39-1.53-1.89-.74-.5-1.64-.75-2.7-.75-1.44,0-2.64,.52-3.62,1.56-.98,1.04-1.46,2.43-1.46,4.16,0,1.61,.48,2.98,1.45,4.09,.97,1.11,2.21,1.67,3.72,1.67,1.08,0,1.99-.27,2.73-.81,.73-.54,1.26-1.24,1.58-2.09h2.9c-.57,1.57-1.47,2.82-2.68,3.75-1.22,.93-2.76,1.4-4.62,1.4-2.29,0-4.15-.76-5.59-2.28s-2.16-3.44-2.16-5.75,.74-4.18,2.21-5.69c1.47-1.5,3.33-2.25,5.55-2.25Z" style="fill:#fff;"></path> <path d="M418.87,45.89l-6.67-7.17v7.17h-2.6v-15h2.6v7l6.53-7h3.23l-7.06,7.26,7.33,7.74h-3.37Z" style="fill:#fff;"></path> <path d="M423.1,38.39c0-2.19,.76-4.06,2.28-5.63,1.52-1.57,3.42-2.35,5.71-2.35s4.29,.78,5.74,2.35c1.45,1.57,2.18,3.45,2.18,5.63s-.76,4.1-2.29,5.65c-1.53,1.55-3.41,2.33-5.65,2.33-1.32,0-2.5-.24-3.55-.71s-1.88-1.11-2.51-1.89c-.62-.78-1.1-1.64-1.42-2.55-.32-.92-.48-1.86-.48-2.83Zm4.19-4.04c-1.02,1.08-1.53,2.42-1.53,4.04s.51,2.96,1.52,4.04c1.01,1.08,2.27,1.62,3.76,1.62s2.77-.54,3.78-1.62c1.01-1.08,1.52-2.42,1.52-4.04s-.49-2.96-1.47-4.04c-.98-1.08-2.25-1.62-3.81-1.62s-2.75,.54-3.77,1.62Z" style="fill:#fff;"></path> <path d="M442.43,30.89h2.53v8.21c0,1.42-.01,2.4-.04,2.93h.04c.29-.57,1.17-2.02,2.64-4.36l4.29-6.78h2.4v15h-2.53v-8.07c0-1,.01-1.99,.04-2.99h-.04c-.31,.6-1.25,2.14-2.84,4.62l-4.09,6.45h-2.4v-15Zm7.7-4.49h1.76c-.06,.92-.42,1.67-1.08,2.22-.66,.56-1.5,.84-2.51,.84-1.1,0-1.96-.28-2.58-.85-.62-.56-.95-1.3-.98-2.21h1.74c.03,.4,.21,.71,.53,.94,.32,.23,.76,.34,1.3,.34s.99-.12,1.31-.35c.32-.23,.49-.54,.52-.92Z" style="fill:#fff;"></path> <path d="M479,30.89l1.76,15h-2.51l-.79-7.94c-.04-.43-.11-1.11-.2-2.07-.09-.95-.13-1.46-.13-1.52h-.11c-.37,1.33-.72,2.54-1.06,3.61l-2.49,7.92h-1.94l-2.51-8.1c-.54-1.66-.88-2.8-1.01-3.43h-.15c-.04,.95-.13,2.09-.26,3.41l-.84,8.12h-2.38l1.74-15h2.97l2.64,8.16c.32,1.01,.59,1.93,.79,2.75h.09c.12-.47,.39-1.39,.81-2.75l2.62-8.16h2.95Z" style="fill:#fff;"></path> <path d="M492.88,30.89v2.29h-6.07v3.85h5.85v2.22h-5.85v4.36h6.31v2.29h-8.91v-15h8.67Z" style="fill:#fff;"></path> <path d="M495.74,49.74v-6.14h.48c1.53,0,2.39-1.37,2.6-4.11l.62-8.6h10.19v12.72h2v6.14h-2.6v-3.85h-10.69v3.85h-2.6Zm11.29-6.14v-10.43h-5.21l-.44,6.31c-.16,1.95-.62,3.32-1.36,4.11h7.02Z" style="fill:#fff;"></path> <path d="M514.94,30.89h2.53v8.21c0,1.42-.01,2.4-.04,2.93h.04c.29-.57,1.17-2.02,2.64-4.36l4.29-6.78h2.4v15h-2.53v-8.07c0-1,.01-1.99,.04-2.99h-.04c-.31,.6-1.25,2.14-2.84,4.62l-4.09,6.45h-2.4v-15Z" style="fill:#fff;"></path> <path d="M541.87,45.89h-10.85v-15h2.6v12.72h6.25v-12.72h2.6v12.72h2v6.14h-2.6v-3.85Z" style="fill:#fff;"></path> <path d="M547.79,30.89h2.53v8.21c0,1.42-.01,2.4-.04,2.93h.04c.29-.57,1.17-2.02,2.64-4.36l4.29-6.78h2.4v15h-2.53v-8.07c0-1,.01-1.99,.04-2.99h-.04c-.31,.6-1.25,2.14-2.84,4.62l-4.09,6.45h-2.4v-15Z" style="fill:#fff;"></path> <path d="M573.4,45.89v-6.6h-6.93v6.6h-2.6v-15h2.6v6.09h6.93v-6.09h2.6v15h-2.6Z" style="fill:#fff;"></path> <path d="M588.86,30.89v2.29h-6.07v3.85h5.85v2.22h-5.85v4.36h6.31v2.29h-8.91v-15h8.67Z" style="fill:#fff;"></path> </g> </g> </svg> 