<?xml version="1.0" encoding="UTF-8"?> <svg xmlns="http://www.w3.org/2000/svg" xmlns:xlink="http://www.w3.org/1999/xlink" viewBox="0 0 1080.06 1032.38"> <defs> <linearGradient id="linear-gradient" x1="377.49" y1="103.07" x2="377.99" y2="103.07" gradientUnits="userSpaceOnUse"> <stop offset="0" stop-color="#66dac7"></stop> <stop offset="1" stop-color="#00c2a2"></stop> </linearGradient> <linearGradient id="linear-gradient-2" x1="373.99" y1="111.59" x2="374.49" y2="111.59" gradientUnits="userSpaceOnUse"> <stop offset="0" stop-color="#66baac"></stop> <stop offset="1" stop-color="#008c75"></stop> </linearGradient> <linearGradient id="linear-gradient-3" x1="-50.98" y1="312.64" x2="-50.48" y2="312.64" gradientTransform="translate(355.91 -71.19) rotate(-18.86)" xlink:href="#linear-gradient"></linearGradient> <linearGradient id="linear-gradient-4" x1="730.83" y1="-327.24" x2="731.33" y2="-327.24" gradientTransform="translate(-395.56 -7.06) rotate(19.89)" xlink:href="#linear-gradient"></linearGradient> <linearGradient id="linear-gradient-5" x1="415.04" y1="110.54" x2="415.54" y2="110.54" gradientUnits="userSpaceOnUse"> <stop offset="0" stop-color="#66a699"></stop> <stop offset="1" stop-color="#006b55"></stop> </linearGradient> <linearGradient id="linear-gradient-6" x1="373.7" y1="93.27" x2="374.2" y2="93.27" xlink:href="#linear-gradient-5"></linearGradient> <linearGradient id="linear-gradient-7" x1="385.77" y1="83.26" x2="386.27" y2="83.26" xlink:href="#linear-gradient-2"></linearGradient> <linearGradient id="linear-gradient-8" x1="374.35" y1="20.03" x2="374.85" y2="20.03" xlink:href="#linear-gradient-2"></linearGradient> <linearGradient id="linear-gradient-9" x1="377.09" y1="17.69" x2="377.59" y2="17.69" xlink:href="#linear-gradient-2"></linearGradient> <linearGradient id="linear-gradient-10" x1="-1344.03" y1="122.46" x2="-1343.53" y2="122.46" gradientTransform="translate(1000.83 -832.23) rotate(-69.87)" gradientUnits="userSpaceOnUse"> <stop offset="0" stop-color="#ff66bf"></stop> <stop offset="1" stop-color="#ff0095"></stop> </linearGradient> </defs> <g style="isolation:isolate;"> <g id="Layer_2"> <g id="fon_photo"> <rect y="36.06" width="1080.06" height="996.32" style="fill:#00c2a2;"></rect> <rect x="65.06" y="84.69" width="138.35" height="138.35" style="fill:#fff;"></rect> </g> <g id="cubes_"> <g> <g> <rect x="735.11" y="97.93" width="27.3" height="27.3" transform="translate(194.29 627) rotate(-51.39)" style="fill:#00c2a2; mix-blend-mode:screen;"></rect> <rect x="735.11" y="97.93" width="27.3" height="27.3" transform="translate(194.29 627) rotate(-51.39)" style="fill:#00c2a2; mix-blend-mode:screen;"></rect> <polygon points="729.57 113.73 746.61 92.4 767.95 109.44 729.57 113.73" style="fill:url(#linear-gradient); mix-blend-mode:screen;"></polygon> </g> <g> <rect x="811.42" y="97.93" width="27.3" height="27.3" transform="translate(936.66 -713.49) rotate(90)" style="fill:#008c75; mix-blend-mode:screen;"></rect> <rect x="811.42" y="97.93" width="27.3" height="27.3" transform="translate(936.66 -713.49) rotate(90)" style="fill:#008c75; mix-blend-mode:screen;"></rect> <polygon points="838.73 97.93 838.73 125.24 811.42 125.24 838.73 97.93" style="fill:url(#linear-gradient-2); mix-blend-mode:screen;"></polygon> </g> <g> <rect x="852.41" y="71.26" width="27.3" height="27.3" transform="translate(19.05 284.52) rotate(-18.86)" style="fill:#00c2a2; mix-blend-mode:screen;"></rect> <rect x="852.41" y="71.26" width="27.3" height="27.3" transform="translate(19.05 284.52) rotate(-18.86)" style="fill:#00c2a2; mix-blend-mode:screen;"></rect> <polygon points="848.73 76.41 874.57 67.58 883.39 93.42 848.73 76.41" style="fill:url(#linear-gradient-3); mix-blend-mode:screen;"></polygon> </g> <g> <rect x="715.34" y="45.13" width="27.3" height="27.3" transform="translate(-.05 116.94) rotate(-9.17)" style="fill:#00c2a2; mix-blend-mode:screen;"></rect> <rect x="715.34" y="45.13" width="27.3" height="27.3" transform="translate(-.05 116.94) rotate(-9.17)" style="fill:#00c2a2; mix-blend-mode:screen;"></rect> <polygon points="713.34 47.48 740.29 43.13 744.64 70.08 713.34 47.48" style="fill:url(#linear-gradient-4); mix-blend-mode:screen;"></polygon> </g> <g> <rect x="929.15" y="96.89" width="27.3" height="27.3" style="fill:#006b55; mix-blend-mode:screen;"></rect> <rect x="929.15" y="96.89" width="27.3" height="27.3" style="fill:#006b55; mix-blend-mode:screen;"></rect> <polygon points="929.15 96.89 956.46 96.89 956.46 124.19 929.15 96.89" style="fill:url(#linear-gradient-5); mix-blend-mode:screen;"></polygon> </g> <g> <rect x="660.68" y="84.42" width="27.3" height="27.3" transform="translate(8.64 243.68) rotate(-20.61)" style="fill:#006b55; mix-blend-mode:screen;"></rect> <rect x="660.68" y="84.42" width="27.3" height="27.3" transform="translate(8.64 243.68) rotate(-20.61)" style="fill:#006b55; mix-blend-mode:screen;"></rect> <polygon points="656.75 90.1 682.3 80.49 691.91 106.04 656.75 90.1" style="fill:url(#linear-gradient-6); mix-blend-mode:screen;"></polygon> </g> <g> <rect x="899.88" y="69.61" width="27.3" height="27.3" transform="translate(996.8 -830.27) rotate(90)" style="fill:#008c75; mix-blend-mode:screen;"></rect> <rect x="899.88" y="69.61" width="27.3" height="27.3" transform="translate(996.8 -830.27) rotate(90)" style="fill:#008c75; mix-blend-mode:screen;"></rect> <polygon points="927.19 69.61 927.19 96.92 899.88 96.92 927.19 69.61" style="fill:url(#linear-gradient-7); mix-blend-mode:screen;"></polygon> </g> <g> <rect x="666.27" y="5.2" width="27.3" height="27.3" transform="translate(757.3 -656.91) rotate(94.94)" style="fill:#008c75; mix-blend-mode:screen;"></rect> <rect x="666.27" y="5.2" width="27.3" height="27.3" transform="translate(757.3 -656.91) rotate(94.94)" style="fill:#008c75; mix-blend-mode:screen;"></rect> <polygon points="694.7 6.43 692.34 33.63 665.14 31.28 694.7 6.43" style="fill:url(#linear-gradient-8); mix-blend-mode:screen;"></polygon> </g> <g> <rect x="767.49" y="4.04" width="27.3" height="27.3" transform="translate(512.99 -716.2) rotate(68.63)" style="fill:#008c75; mix-blend-mode:screen;"></rect> <rect x="767.49" y="4.04" width="27.3" height="27.3" transform="translate(512.99 -716.2) rotate(68.63)" style="fill:#008c75; mix-blend-mode:screen;"></rect> <polygon points="788.88 0 798.83 25.43 773.4 35.38 788.88 0" style="fill:url(#linear-gradient-9); mix-blend-mode:screen;"></polygon> </g> <g> <rect x="791.85" y="42.95" width="27.3" height="27.3" transform="translate(475.16 793.43) rotate(-69.87)" style="fill:#ff0095;"></rect> <polygon points="787.98 64.72 797.38 39.09 823.01 48.48 787.98 64.72" style="fill:url(#linear-gradient-10);"></polygon> </g> </g> </g> </g> </g> </svg> 