<?xml version="1.0" encoding="UTF-8"?> <svg xmlns="http://www.w3.org/2000/svg" width="254" height="230" viewBox="0 0 254 230" fill="none"><path d="M0 160.148H15.8491C20.5105 160.148 23.7312 160.954 25.511 162.522C27.2909 164.09 28.1384 165.912 28.1384 167.946C28.1384 170.107 27.1214 171.887 25.1297 173.285C23.1379 174.684 20.68 175.489 17.7984 175.743V175.998C22.5446 176.718 25.7229 177.904 27.3756 179.642C28.986 181.337 29.8335 183.202 29.8335 185.236C29.8335 187.821 28.8165 190.024 26.74 191.804C24.7059 193.584 21.2733 194.474 16.4847 194.474H0V193.415H4.02583V161.208H0V160.148ZM9.91625 175.362H13.7302C16.739 175.362 18.8155 174.684 19.9173 173.37C21.0191 172.056 21.57 170.277 21.57 168.073C21.57 165.276 20.9343 163.411 19.663 162.564C18.3917 161.716 16.6118 161.25 14.3659 161.25H9.91625V175.362ZM9.91625 193.415H15.8067C20.7648 193.415 23.2651 190.787 23.2651 185.532C23.2651 183.117 22.7989 181.21 21.8666 179.854C20.9343 178.498 19.7901 177.608 18.4341 177.099C17.078 176.591 15.6372 176.379 14.1116 176.379H9.91625V193.415Z" fill="#3F3557"></path><path d="M37.8847 193.415V161.165H33.8589V160.148H47.801V161.165H43.7751V193.415H47.801V194.474H33.8589V193.415H37.8847Z" fill="#3F3557"></path><path d="M62.0837 193.415H66.1096V194.474H52.1675V193.415H56.1933V161.165H52.1675V160.148H66.3215C70.6439 160.148 74.1189 160.615 76.7462 161.589C79.3736 162.564 80.6873 164.598 80.6873 167.776C80.6873 169.938 79.8821 171.76 78.2718 173.328C76.6615 174.896 73.8646 175.828 69.9235 176.167V176.379C72.8899 176.845 75.0088 177.565 76.2801 178.455C77.5514 179.388 78.3566 180.574 78.738 182.142C79.1194 183.668 79.5007 186.083 79.8398 189.346C80.0093 190.575 80.1788 191.55 80.3907 192.186C80.6026 192.821 80.9839 193.16 81.5772 193.16C81.9586 193.16 82.4671 192.948 83.0604 192.567C83.6537 192.186 84.1199 191.762 84.4165 191.38L85.2217 192.186C84.3317 193.415 83.4418 194.177 82.6367 194.516C81.7891 194.855 80.8144 195.025 79.6703 195.025C78.1871 195.025 77.0852 194.813 76.2801 194.389C75.4749 193.965 74.8816 193.203 74.4579 192.143C74.0341 191.084 73.6951 189.389 73.4408 187.143C73.1018 183.837 72.7204 181.464 72.2119 180.066C71.7033 178.625 71.0253 177.777 70.2625 177.438C69.4574 177.099 68.1437 176.93 66.3215 176.93H62.0837V193.415ZM62.0837 175.828H65.7282C68.2284 175.828 70.2625 175.319 71.7881 174.26C73.3137 173.201 74.0765 171.039 74.0765 167.776C74.0765 165.234 73.4408 163.496 72.1271 162.606C70.8134 161.674 68.7793 161.208 66.0672 161.208H62.0837V175.828Z" fill="#3F3557"></path><path d="M99.2892 193.415V161.165C96.8737 161.123 94.882 161.42 93.3564 162.055C91.8308 162.691 90.6866 163.708 89.8815 165.107C89.0763 166.505 88.5254 168.454 88.2711 170.955H86.8303L87.0846 160.148H117.511L117.766 170.955H116.325C115.901 167.225 114.884 164.683 113.316 163.284C111.706 161.886 109.036 161.165 105.307 161.165V193.415H109.29V194.474H95.3905V193.415H99.2892Z" fill="#3F3557"></path><path d="M130.946 176.633V193.415H134.591V194.474H121.03V193.415H125.056V161.165H121.03V160.148H134.591V161.165H130.946V175.616H146.372V161.165H142.727V160.148H156.288V161.165H152.262V193.415H156.288V194.474H142.727V193.415H146.372V176.633H130.946Z" fill="#3F3557"></path><path d="M160.694 160.148H175.992C180.4 160.148 183.917 161.081 186.629 162.945C189.341 164.81 191.206 167.014 192.308 169.599C193.409 172.184 193.96 174.684 193.96 177.184C193.96 180.405 193.24 183.329 191.842 185.956C190.401 188.584 188.451 190.66 185.909 192.186C183.366 193.711 180.527 194.474 177.391 194.474H160.737V193.415H164.763V161.165H160.737V160.148H160.694ZM170.611 193.415H177.688C179.849 193.415 181.968 192.44 184.171 190.448C186.333 188.499 187.434 184.219 187.434 177.65C187.434 171.378 186.544 167.056 184.765 164.683C182.985 162.31 180.145 161.165 176.247 161.165H170.695V193.415H170.611Z" fill="#3F3557"></path><path d="M214.682 193.413L210.783 182.861H200.485L198.621 187.523C197.985 189.303 197.646 190.489 197.646 190.998C197.646 191.803 197.858 192.396 198.324 192.735C198.79 193.116 199.638 193.328 200.951 193.413V194.473H192.052V193.413C193.112 193.328 194.002 192.905 194.807 192.184C195.57 191.464 196.078 190.659 196.332 189.896L207.901 160.189H208.876L220.784 193.456H224.386V194.515H209.978V193.456H214.682V193.413ZM210.402 181.759L205.952 168.792L200.824 181.759H210.402Z" fill="#3F3557"></path><path d="M234.812 180.828L224.175 161.165H220.997V160.148H234.77V161.165H230.956L239.855 178.413L245.957 167.056C246.381 166.335 246.678 165.615 246.89 164.895C247.017 164.259 247.017 163.751 246.89 163.369C246.72 162.776 246.381 162.267 245.872 161.844C245.364 161.42 244.644 161.208 243.711 161.208C243.499 161.208 243.16 161.208 242.694 161.165V160.148H253.882V161.165C252.822 161.123 251.89 161.42 251.042 162.013C250.195 162.606 249.517 163.327 248.966 164.217C248.415 165.064 247.864 166.039 247.356 167.098L240.618 179.515V193.457H244.644V194.516H230.701V193.457H234.727V180.828H234.812Z" fill="#3F3557"></path><path d="M49.4544 210.112C46.7422 210.112 45.7252 207.358 45.7252 205.874C45.7252 201.891 49.751 198.585 49.751 198.585C49.751 198.585 41.1485 201.976 34.1139 203.12C31.317 207.697 29.5371 212.909 29.5371 217.867C29.5371 222.656 31.7407 227.317 37.5888 227.317C43.4368 227.317 44.9624 224.097 44.9624 220.579C44.9624 218.376 43.3097 218.376 43.3097 217.994C43.3097 217.57 43.7335 217.316 44.3691 217.316C45.5981 217.316 47.2508 218.079 47.2508 220.706C47.2508 224.563 43.564 229.775 35.1733 229.775C26.7826 229.775 24.579 221.384 24.579 217.316C24.579 212.739 26.2741 207.908 28.9862 203.501C20.6379 203.12 17.9258 198.67 17.9258 195.153C17.9258 191.424 20.2141 190.025 20.9346 190.025C21.6126 190.025 18.0953 200.111 31.1051 200.45C37.3345 192.229 46.9965 185.957 55.3024 185.957C70.3039 185.915 60.3453 210.112 49.4544 210.112ZM55.5143 187.991C49.073 187.991 41.657 192.949 36.4022 199.857C41.8265 198.585 47.3779 195.704 54.1582 195.704C55.5567 195.704 56.4042 196.17 56.4042 196.721C56.4042 197.611 48.0559 200.704 48.0559 205.874C48.0559 208.078 49.2849 208.798 49.8358 208.798C55.3872 208.798 64.9644 187.991 55.5143 187.991Z" fill="#DA232D"></path><path d="M78.9911 207.018C76.3213 210.747 67.634 224.181 60.0909 224.181C57.972 224.181 54.709 222.528 54.709 218.163C54.709 212.696 61.447 202.145 69.8376 202.145C72.3803 202.145 73.1007 203.204 73.1007 204.814C73.1007 209.349 67.8035 213.332 61.1503 213.544C59.1586 218.078 58.6924 222.528 61.7436 222.528C66.3203 222.528 76.0671 209.306 78.0588 206.594C78.5673 205.958 79.4149 206.382 78.9911 207.018ZM62.0826 211.679C69.6681 211.468 73.2702 203.967 70.3885 203.967C67.4221 203.967 64.2015 207.611 62.0826 211.679Z" fill="#DA232D"></path><path d="M94.7555 207.23C92.0857 210.959 83.2712 224.139 77.2961 224.139C72.2956 224.139 71.6599 220.494 71.6599 217.316C71.6599 210.832 81.8304 187.482 91.7467 187.482C93.1451 187.482 94.925 188.118 94.925 190.661C94.925 196 86.4072 206.044 76.5757 213.799C75.5586 217.952 76.0671 221.003 79.4573 221.003C83.9917 221.003 91.8314 209.476 93.7808 206.764C94.3741 206.128 95.2216 206.595 94.7555 207.23ZM77.4232 211.214C88.4413 202.992 95.8149 189.983 92.9756 189.983C89.3312 190.025 80.6862 202.145 77.4232 211.214Z" fill="#DA232D"></path><path d="M112.512 207.018C109.842 210.747 101.155 224.181 93.6114 224.181C91.4925 224.181 88.2295 222.528 88.2295 218.163C88.2295 212.696 94.9675 202.145 103.358 202.145C105.901 202.145 106.621 203.204 106.621 204.814C106.621 209.349 101.324 213.332 94.6708 213.544C92.6791 218.078 92.2129 222.528 95.2641 222.528C99.8408 222.528 109.588 209.306 111.579 206.594C112.088 205.958 112.935 206.382 112.512 207.018ZM95.5607 211.679C103.146 211.468 106.748 203.967 103.867 203.967C100.943 203.967 97.722 207.611 95.5607 211.679Z" fill="#DA232D"></path><path d="M131.369 207.231C128.699 210.96 121.326 224.14 109.502 224.14C106.917 224.14 105.434 221.046 105.434 217.953C105.434 211.342 120.478 191.382 120.478 187.738C120.478 187.229 123.868 188.373 123.868 190.831C123.868 192.908 114.63 205.07 114.63 205.07C114.63 205.07 117.003 202.019 120.224 202.019C123.444 202.019 124.038 205.07 124.038 207.401C124.038 211.257 120.986 216.851 117.088 220.495C121.622 219.817 128.53 209.392 130.437 206.765C130.945 206.172 131.835 206.596 131.369 207.231ZM120.478 205.918C120.478 204.985 120.054 203.714 119.08 203.714C115.35 203.714 107.934 215.707 107.934 219.478C107.934 220.877 108.358 222.106 109.545 222.106C111.664 222.106 120.478 213.122 120.478 205.918Z" fill="#DA232D"></path><path d="M145.948 206.807C146.414 206.129 147.304 206.638 146.88 207.231C144.21 210.96 135.226 224.14 130.904 224.14C127.768 224.14 127.937 220.537 127.937 220.537C127.937 215.495 131.963 212.952 131.963 209.265C131.963 207.231 127.726 207.57 127.726 202.909C127.726 199.603 130.607 197.061 133.489 197.061C134.209 197.061 134.675 197.442 134.675 197.823C134.675 199.052 132.048 200.578 132.048 203.502C132.048 207.994 136.371 206.807 136.371 209.647C136.371 212.147 129.336 220.961 132.98 220.961C135.438 221.004 143.956 209.477 145.948 206.807Z" fill="#DA232D"></path><path d="M169.255 207.231C166.586 210.96 157.093 224.139 153.279 224.139C149.974 224.139 150.567 220.41 150.567 220.41C150.567 220.41 148.151 224.139 145.227 224.139C143.109 224.139 140.185 222.698 140.185 218.333C140.185 212.867 146.923 202.061 155.313 202.061C158.152 202.061 159.127 203.925 159.127 206.51C159.127 207.146 159 207.824 158.703 208.544C159.551 208.714 160.907 209.349 160.907 209.731C160.907 210.155 151.965 221.003 155.356 221.003C157.856 221.003 166.331 209.477 168.281 206.764C168.874 206.129 169.721 206.595 169.255 207.231ZM154.127 213.884C153.703 213.46 153.364 212.909 153.364 212.824C153.364 212.612 156.627 209.773 156.627 206.553C156.627 205.408 156.203 204.646 155.144 204.646C147.643 204.646 140.735 222.359 145.609 222.359C148.151 222.317 151.457 217.698 154.127 213.884Z" fill="#DA232D"></path><path d="M193.791 207.102C191.121 210.873 181.586 224.095 177.772 224.095C174.764 224.095 174.764 221.298 174.764 221.298C174.764 219.942 175.908 217.781 177.391 215.365C173.747 219.773 169.466 224.095 166.67 224.095C162.983 224.095 162.135 220.874 162.135 219.137C162.135 216.128 167.432 207.865 172.306 200.576C167.178 200.364 166.203 199.262 166.203 198.711C166.203 198.287 167.093 196.38 167.56 196.38C167.983 196.38 168.746 197.991 173.747 198.415C177.264 193.16 180.23 188.795 180.23 187.82C180.23 186.337 183.578 188.414 183.578 190.659C183.578 191.422 181.502 194.516 178.789 198.457C182.392 198.372 184.807 198.075 186.375 197.864C185.951 197.525 185.739 197.058 185.739 196.508C185.739 195.194 186.333 194.134 188.24 194.134C189.087 194.134 190.74 194.516 190.74 196.55C190.74 197.736 189.808 198.372 188.79 198.499C186.587 199.22 182.222 200.152 177.433 200.491C171.119 209.687 162.94 221.807 168.11 221.807C171.204 221.807 180.739 209.348 182.731 206.636C183.663 204.898 184.256 203.33 184.256 202.101C184.256 201.678 187.646 201.635 187.646 204.093C187.646 208.5 177.094 220.874 179.891 220.874C182.392 220.874 190.909 209.305 192.901 206.636C193.325 206 194.215 206.509 193.791 207.102Z" fill="#DA232D"></path><path d="M212.056 207.233C210.064 210.03 206.801 213.463 202.86 214.946C199.851 219.692 195.359 224.184 191.333 224.184C190.02 224.184 187.096 223.93 187.096 219.183C187.096 214.522 191.164 206.089 193.579 206.089C194.512 206.089 195.063 206.174 195.444 206.258C196.842 203.673 199.427 202.105 202.351 202.105C205.487 202.105 206.335 204.521 206.335 206.343C206.335 207.954 205.487 210.369 204.131 212.954C207.225 211.598 209.725 208.801 211.166 206.852C211.632 206.131 212.522 206.597 212.056 207.233ZM200.487 215.624C199.978 215.709 199.427 215.751 198.877 215.751C194.893 215.751 194.3 213.293 194.3 210.962C194.3 210.835 194.342 210.708 194.342 210.581C192.774 213.039 190.825 216.302 190.825 219.099C190.825 220.963 192.054 221.599 192.944 221.599C195.444 221.557 198.241 218.844 200.487 215.624ZM204.428 206.258C204.428 205.157 203.962 204.394 202.775 204.394C199.894 204.394 197.393 208.293 197.393 210.539C197.393 212.785 199.088 213.674 200.402 213.674C200.826 213.674 201.292 213.632 201.716 213.547C203.369 210.75 204.428 207.826 204.428 206.258Z" fill="#DA232D"></path><path d="M214.598 220.58C214.598 214.393 226.251 204.647 222.607 204.647C218.624 204.647 206.038 224.182 204.512 224.182C203.113 224.182 202.054 222.996 202.096 222.699C202.096 222.275 212.394 207.104 212.394 202.273C212.394 201.85 215.657 202.401 215.657 204.731C215.657 207.062 212.521 211.978 212.818 211.978C213.157 211.978 220.276 202.146 225.022 202.146C226.675 202.146 227.396 203.248 227.396 205.113C227.396 210.071 215.657 221.089 219.683 221.089C222.183 221.089 230.659 209.562 232.608 206.85C233.117 206.172 233.964 206.681 233.54 207.274C230.871 211.003 221.887 224.182 217.606 224.182C214.386 224.14 214.598 220.58 214.598 220.58Z" fill="#DA232D"></path><path d="M198.411 138.868H55.9814V0.941406H198.411V138.868Z" fill="url(#paint0_linear_660_266)"></path><path d="M55 0V139.851H199.353V0H55ZM198.411 138.868H55.9823V0.94134H198.411V138.868Z" fill="url(#paint1_linear_660_266)"></path><mask id="mask0_660_266" style="mask-type:luminance" maskUnits="userSpaceOnUse" x="55" y="0" width="144" height="139"><path d="M198.411 138.865H55.9822V0.9375H198.411V138.865Z" fill="white"></path></mask><g mask="url(#mask0_660_266)"><path fill-rule="evenodd" clip-rule="evenodd" d="M161.289 60.3284C160.225 57.5453 158.056 51.5289 163.663 56.6448C165.423 58.241 167.224 60.8195 168.288 63.8072C175.491 84.2712 163.745 49.1141 176.842 75.3898C178.274 78.2957 179.175 81.0379 180.116 84.2712C176.964 78.132 173.608 76.1265 170.743 74.3666C165.627 71.1333 163.663 66.5903 161.289 60.3284Z" fill="url(#paint2_linear_660_266)"></path><path fill-rule="evenodd" clip-rule="evenodd" d="M81.9282 58.5677C78.9405 59.7137 72.3511 62.0057 77.9582 55.9893C79.7181 54.1066 82.5012 52.142 85.7754 50.9961C107.999 43.2607 69.8136 55.8256 98.3812 41.7464C101.533 40.1911 104.52 39.2498 107.999 38.2266C101.328 41.6236 99.1589 45.2252 97.1943 48.3358C93.6745 53.9019 88.7222 56.0302 81.9282 58.5677Z" fill="url(#paint3_linear_660_266)"></path><path fill-rule="evenodd" clip-rule="evenodd" d="M78.6957 71.543C78.0408 72.116 77.2632 70.929 77.959 70.3151C78.491 69.6603 79.6779 69.7831 80.0054 70.7244C80.4146 71.5839 80.0463 72.8936 79.0231 73.4256C78.0408 73.9986 76.6083 73.9577 75.7489 72.9345C74.8894 71.9522 74.4801 70.2333 75.094 68.678C75.6261 67.0818 77.2632 65.8131 79.1459 65.4038C83.8935 64.3397 88.1909 70.0696 86.7994 74.4488C85.6943 78.0505 80.9467 80.1378 75.7079 78.9918C64.33 76.5771 60.8102 63.5211 67.8907 55.0899C71.697 50.3014 77.2632 47.8457 83.5661 46.9862C87.1677 46.2904 86.6357 46.2495 83.7707 46.6588C80.5374 47.2727 76.4856 47.9685 73.4569 49.7693C71.1649 51.1199 69.1185 52.8798 67.4814 54.8853C60.0325 63.603 63.7161 77.191 75.667 79.5239C81.3151 80.629 86.431 78.1733 87.4542 74.1624C88.6411 69.4556 84.0163 63.6439 79.0231 64.8308C77.0176 65.3219 75.2577 66.7135 74.6847 68.5143C74.0708 70.2742 74.5619 72.116 75.5033 73.1392C76.4856 74.2851 78.0817 74.2442 79.1049 73.5894C80.21 72.9754 80.5783 71.543 80.0872 70.6835C79.7189 69.7012 78.4501 69.6194 77.918 70.2742C77.2632 70.929 78.0408 72.1569 78.6957 71.543Z" fill="url(#paint4_linear_660_266)"></path><path fill-rule="evenodd" clip-rule="evenodd" d="M124.412 33.1518C110.62 38.5543 90.1967 33.1109 89.5827 13.8339C89.3781 7.03984 92.857 0.204885 100.429 -2.08708C114.835 -6.42544 113.894 13.5064 102.066 13.3018C98.3004 12.1558 102.107 9.78201 104.931 10.4369C109.228 11.4191 110.947 6.01664 109.433 2.04664C104.931 -9.65874 85.1216 4.21582 91.3836 20.6279C96.1312 33.2337 111.725 37.5721 124.412 33.1518Z" fill="url(#paint5_linear_660_266)"></path><path fill-rule="evenodd" clip-rule="evenodd" d="M82.0112 -5.19769C79.801 -10.4365 75.4627 -14.4065 68.9142 -15.2659C27.3315 -20.7503 32.4475 53.2474 79.4327 48.1314C85.7356 47.4356 96.827 43.0154 107.837 38.6361C120.32 33.6838 150.197 27.2991 169.024 47.3947C150.77 25.0071 118.846 32.9062 107.714 37.6538C94.1258 43.5065 79.842 49.8094 67.932 47.0672C31.7517 38.8407 33.307 -13.6698 62.8978 -15.225C73.4981 -15.798 80.0057 -10.8048 82.3386 -3.64242C87.2499 11.3781 69.6509 33.3973 60.8105 13.0562C59.8692 10.8461 58.4776 9.20893 59.1734 12.8924C63.0206 33.9294 90.7288 15.6346 82.0112 -5.19769Z" fill="url(#paint6_linear_660_266)"></path><path fill-rule="evenodd" clip-rule="evenodd" d="M178.191 13.7099C178.314 12.523 178.682 9.94454 179.706 12.8095C180.033 13.7099 180.197 14.9787 180.033 16.2474C178.846 24.9242 181.138 10.1492 180.974 22.0183C180.974 23.328 180.77 24.4739 180.524 25.8246C180.524 23.0415 179.706 21.6908 179.01 20.5039C177.741 18.4166 177.905 16.4111 178.191 13.7099Z" fill="url(#paint7_linear_660_266)"></path><path fill-rule="evenodd" clip-rule="evenodd" d="M166.691 24.3524C167.346 24.1068 167.55 25.2119 166.855 25.4984C166.282 25.8258 165.422 25.3756 165.463 24.598C165.381 23.8613 166.077 23.0018 166.977 22.9199C167.837 22.7971 168.901 23.2474 169.228 24.2296C169.597 25.2119 169.351 26.5625 168.492 27.5857C167.632 28.6089 166.036 29.0591 164.563 28.8135C163.089 28.568 161.575 27.5448 161.002 25.7849C160.47 24.0659 160.552 21.8967 161.616 19.9322C163.089 16.8626 167.182 14.9799 171.152 15.4711C175.122 15.8394 178.806 18.7862 179.911 22.9199C181.179 27.1764 180.279 31.5148 178.192 35.6076C177.087 38.0223 177.332 37.7358 178.314 35.8531C179.297 33.684 180.484 30.9827 180.688 28.4452C180.852 26.5216 180.729 24.598 180.238 22.7971C179.174 18.5406 175.368 15.4711 171.275 15.0618C167.223 14.4888 162.844 16.4533 161.247 19.7276C160.101 21.8558 160.02 24.1478 160.634 25.9895C161.247 27.8722 162.926 29.0182 164.522 29.2638C166.159 29.4684 167.837 28.9773 168.819 27.8313C169.801 26.7262 169.965 25.2119 169.556 24.1887C169.147 23.0836 167.96 22.6334 167.059 22.7971C166.077 22.9199 165.381 23.8613 165.463 24.6389C165.463 25.4575 166.363 25.9077 166.936 25.5802C167.55 25.2528 167.305 24.1068 166.691 24.3524Z" fill="url(#paint8_linear_660_266)"></path><path fill-rule="evenodd" clip-rule="evenodd" d="M122.94 71.2541C121.794 69.2486 125.396 67.9389 126.623 70.0262C128.015 71.7861 126.951 74.8557 124.331 75.1422C121.876 75.7561 118.683 74.0372 117.906 71.0085C117.005 68.1845 117.906 64.4191 121.139 62.782C124.209 61.063 128.834 61.063 132.64 63.5187C141.357 68.7984 140.662 80.9131 134.236 87.4206C119.543 102.318 97.5237 80.2173 104.072 61.5951C113.69 34.3371 152.654 27.0929 172.135 52.6728C182.367 65.3195 185.56 81.2814 184.127 98.1846C183.841 108.007 184.25 106.657 184.864 98.9213C185.191 90.1628 186.951 79.6852 184.086 70.722C181.917 63.9689 177.128 57.1749 172.913 51.8133C152.776 25.0056 113.322 32.7819 103.049 60.531C95.682 80.4628 118.929 104.569 135.055 88.9349C142.34 81.8953 142.954 68.3482 133.131 62.5774C128.874 59.958 123.881 60.1217 120.566 62.0862C117.046 64.0098 116.228 68.1845 117.292 71.1722C118.233 74.4055 121.753 76.1654 124.291 75.4287C127.074 75.0195 128.056 71.7861 126.583 70.0262C125.355 67.898 121.753 69.2486 122.94 71.2541Z" fill="url(#paint9_linear_660_266)"></path><path fill-rule="evenodd" clip-rule="evenodd" d="M158.545 3.19319C159.2 7.1632 162.925 12.6475 168.45 10.4784C171.438 9.29145 172.665 3.72526 169.146 2.33371C168.204 1.96536 166.403 2.45649 165.544 3.39783C164.48 4.54381 165.421 5.77165 166.363 6.59021C164.766 5.89443 164.03 4.62567 164.684 2.98855C165.217 1.597 166.69 1.02401 168.286 1.1468C173.361 1.51515 172.829 9.45516 168.654 11.0104C162.556 13.3024 158.136 7.57248 156.54 3.39783C149.418 -14.6923 178.273 -22.4686 187.563 -4.21476C190.101 0.73752 190.101 6.05815 188.873 11.3378C185.599 23.8209 178.15 34.6258 175.162 47.2316C172.87 56.8906 172.788 66.7542 177.208 75.8402C171.642 65.9357 172.011 56.072 173.279 49.9738C175.653 33.1933 196.281 12.361 185.353 -4.33754C176.308 -18.0893 155.885 -12.605 158.545 3.19319Z" fill="url(#paint10_linear_660_266)"></path><path fill-rule="evenodd" clip-rule="evenodd" d="M210.525 65.5255C214.208 64.0112 217.032 60.9416 217.646 56.3577C221.575 27.1761 169.638 30.5731 173.076 63.6019C173.526 68.0221 176.636 75.8393 179.665 83.5747C181.752 88.8953 184.167 98.6771 182.653 108.459C181.671 114.885 179.379 120.451 176.227 128.595C179.952 120.123 182.039 114.762 183.062 108.172C184.617 98.1451 182.08 88.1586 180.32 83.4929C176.595 73.7929 171.889 63.8884 173.812 55.5391C179.706 30.082 216.582 31.3507 217.605 52.1421C217.974 59.591 214.454 64.134 209.42 65.7711C198.86 69.1681 183.43 56.7669 197.755 50.6278C199.31 49.9729 200.456 48.9906 197.878 49.4818C183.103 52.0602 195.873 71.5828 210.525 65.5255Z" fill="url(#paint11_linear_660_266)"></path><path fill-rule="evenodd" clip-rule="evenodd" d="M137.551 -15.716C147.005 -12.7692 154.781 -15.5114 157.687 -22.8784C162.23 -34.461 151.18 -46.1254 137.592 -48.1718C127.605 -49.6862 111.643 -44.3246 110.989 -23.7379C110.579 -10.7228 117.005 5.28002 132.803 16.658C156.582 33.7658 186.869 49.1956 186.009 88.6092C185.887 93.5615 185.723 99.0868 184.413 104.776C183.513 108.746 182.326 113.166 180.853 117.545C178.151 125.731 176.719 128.391 174.713 132.77L174.222 132.893C188.915 97.4906 188.793 74.1207 175.409 55.3758C166.323 42.1151 151.057 31.965 131.739 18.0495C116.023 6.58971 108.779 -10.1498 109.188 -23.2058C109.843 -43.8335 124.699 -52.5511 138.288 -50.3819C151.876 -48.2537 164.195 -35.2386 159.324 -22.4282C156.664 -15.4295 148.683 -9.24939 139.638 -10.1907C132.721 -10.8865 127.81 -18.7447 137.551 -15.716Z" fill="url(#paint12_linear_660_266)"></path><path fill-rule="evenodd" clip-rule="evenodd" d="M111.479 149.012C123.634 150.077 138.532 140.991 134.562 125.602C133.129 120.158 128.75 115.574 122.243 115.574C109.8 115.533 115.244 131.045 124.535 128.139C127.277 126.379 123.675 125.397 121.588 126.543C118.436 128.303 115.776 124.456 116.062 120.977C116.881 110.663 135.831 117.007 134.685 131.454C133.866 142.464 122.529 149.544 111.479 149.012Z" fill="url(#paint13_linear_660_266)"></path><path fill-rule="evenodd" clip-rule="evenodd" d="M136.076 108.741C136.608 104.075 139.104 99.9005 144.097 97.6904C175.735 83.6522 188.995 143.407 150.605 150.365C145.448 151.306 135.625 150.365 125.884 149.505C114.834 148.482 89.7042 150.446 79.5132 170.747C88.722 148.768 115.816 147.541 125.762 148.728C137.876 150.16 150.646 151.797 159.445 146.886C186.212 131.865 172.665 90.6918 148.886 96.3398C140.373 98.3862 136.362 103.83 136.198 110.051C135.83 123.066 154.902 136.408 157.153 118.236C157.399 116.272 158.095 114.635 158.422 117.745C160.264 135.262 134.029 127.281 136.076 108.741Z" fill="url(#paint14_linear_660_266)"></path><path fill-rule="evenodd" clip-rule="evenodd" d="M77.468 133.337C77.8772 136.652 76.2401 141.85 71.3288 141.441C68.7094 141.195 66.4174 137.102 68.8731 135.179C69.5279 134.647 71.0832 134.606 71.9836 135.179C73.0887 135.834 72.6385 137.02 72.0655 137.921C73.1705 137.02 73.457 135.834 72.5566 134.688C71.8199 133.705 70.5102 133.582 69.2824 134.074C65.3533 135.547 67.6043 141.686 71.2878 141.973C76.6494 142.382 78.7776 136.816 79.1051 133.132C80.4557 117.089 55.8171 117.702 52.7066 134.319C51.8471 138.821 53.1159 143.037 55.326 146.925C60.8512 156.052 69.2824 162.846 74.603 172.137C78.6958 179.217 81.0287 187.034 79.6781 195.261C81.7654 186.134 79.1869 178.399 76.7313 173.856C70.9195 161.127 49.7188 149.462 54.4665 133.664C58.4365 120.608 75.8718 120.199 77.468 133.337Z" fill="url(#paint15_linear_660_266)"></path><path fill-rule="evenodd" clip-rule="evenodd" d="M89.6233 113.448C82.8293 117.991 76.0352 117.622 71.9834 112.465C65.6805 104.362 71.6969 92.5336 81.9698 87.745C89.5005 84.2252 103.416 84.7164 108.737 100.883C112.093 111.115 110.783 125.235 100.919 137.964C86.1035 157.077 65.7214 176.354 75.6669 207.377C76.8947 211.265 78.3272 215.604 80.701 219.778C82.3381 222.684 84.3027 225.918 86.5128 229.069C90.5646 234.881 92.3245 236.682 94.903 239.669H95.3123C75.4213 215.072 70.0598 196.531 76.2399 178.605C80.3327 165.958 90.0326 154.376 102.065 138.823C111.888 126.135 113.689 111.156 110.333 100.965C105.012 84.7982 91.1785 81.3603 80.9056 86.2716C70.6327 91.1421 63.9615 104.321 70.7965 113.325C74.5209 118.236 82.2972 121.265 89.2549 118.4C94.5756 116.108 96.6629 108.741 89.6233 113.448Z" fill="url(#paint16_linear_660_266)"></path></g><path d="M163.416 43.9127C166.486 48.3329 168 54.1037 168 61.1433C168 68.1829 166.527 73.9128 163.58 78.374C160.633 82.7942 156.663 85.0043 151.752 85.0043C147.004 85.0043 143.116 82.7942 140.046 78.374C136.977 73.9538 135.462 68.2239 135.462 61.1433C135.462 54.0628 136.936 48.3329 139.883 43.9127C142.829 39.4925 146.8 37.2824 151.752 37.2824C156.458 37.2824 160.347 39.4925 163.416 43.9127ZM151.67 35.8499C143.607 35.8499 136.854 38.3056 131.411 43.2578C125.967 48.2101 123.266 54.1856 123.266 61.1843C123.266 68.142 126.049 74.1175 131.574 79.0698C137.141 84.022 143.812 86.4777 151.67 86.4777C159.733 86.4777 166.486 84.022 171.888 79.0698C177.332 74.1175 180.033 68.1829 180.033 61.1843C180.033 54.4312 177.373 48.4966 172.052 43.4625C166.731 38.3874 159.937 35.8499 151.67 35.8499ZM80.087 38.8786C76.7719 41.4161 75.1348 44.6903 75.1348 48.7831C75.1348 51.9755 75.9942 54.5949 77.7541 56.6822C79.514 58.7695 82.9111 60.6931 87.9861 62.494C95.3122 64.7041 101.042 66.5867 105.217 68.1829C109.391 69.7791 111.479 72.2348 111.479 75.5909C111.479 77.5963 110.619 79.5609 108.859 81.4436C107.14 83.3262 104.439 84.2676 100.878 84.2676C95.6396 84.2676 90.5237 82.344 85.5714 78.4558C80.6191 74.5677 77.7132 69.4108 76.8947 62.9851H75.7078V85.5773H76.731C77.8769 82.2621 79.7596 80.5841 82.2971 80.5841C84.4663 80.5841 86.9629 81.4026 89.8279 83.0807C92.6928 84.7587 96.3354 85.5773 100.837 85.5773C105.872 85.5773 109.883 84.1857 112.993 81.4026C116.063 78.6195 117.618 75.1816 117.618 71.0479C117.618 65.9728 115.694 62.2484 111.847 59.9564C108 57.6645 101.902 55.4134 93.5523 53.2852C85.5304 51.4844 81.5195 48.6194 81.5195 44.6903C81.5195 42.8895 82.3381 41.0477 83.9752 39.1651C85.6123 37.2824 88.3135 36.341 92.0789 36.341C96.5401 36.341 100.797 37.7326 104.807 40.5157C108.818 43.2988 111.561 47.6781 113.034 53.6126H114.303V36.9549H113.034C112.379 39.5743 111.356 40.884 109.923 40.884C109.064 40.884 106.936 39.9018 103.58 37.9781C100.224 36.0545 96.2536 35.0723 91.6287 35.0723C87.2494 35.0723 83.4022 36.341 80.087 38.8786Z" fill="#020202"></path><path d="M178.683 102.807C178.601 102.807 178.519 102.848 178.519 102.929C178.519 103.38 178.274 103.625 178.028 103.625C177.782 103.625 177.537 103.38 177.537 102.929V97.6089C177.537 97.4861 177.455 97.4451 177.332 97.4451H175.204V98.1C174.508 97.4861 173.894 97.3633 173.28 97.3633C171.275 97.3633 170.252 99.0823 170.252 100.924C170.252 103.011 171.643 104.526 173.158 104.526C173.894 104.526 174.631 104.198 175.286 103.38C175.613 104.198 176.309 104.526 177.005 104.526C177.946 104.526 178.806 103.83 178.806 103.011C178.847 102.848 178.765 102.807 178.683 102.807ZM175.163 102.07C175.163 103.257 174.549 103.83 173.935 103.83C173.321 103.83 172.707 103.257 172.707 102.07V99.4097C172.707 98.3456 173.321 97.8135 173.935 97.8135C174.549 97.8135 175.163 98.3456 175.163 99.4097V102.07Z" fill="#020202"></path><path d="M166.323 98.6728V102.888C166.323 103.912 167.264 104.444 168.164 104.444C169.106 104.444 170.006 103.912 170.006 102.888C170.006 102.807 169.924 102.766 169.842 102.766C169.761 102.766 169.679 102.807 169.679 102.888C169.679 103.42 169.433 103.666 169.147 103.666C168.86 103.666 168.655 103.42 168.655 102.888V99.6551C168.655 97.8952 167.305 97.2812 166.118 97.2812C165.218 97.2812 164.604 97.6087 164.153 98.0589H164.031V97.5677C164.031 97.4859 163.99 97.404 163.908 97.404H161.125C161.043 97.404 161.002 97.4859 161.002 97.5677C161.002 97.6496 161.043 97.7315 161.125 97.7315H161.861V104.28H164.194V98.4272C164.604 97.977 165.054 97.6905 165.586 97.6905C165.995 97.7724 166.323 98.0589 166.323 98.6728Z" fill="#020202"></path><path d="M159.734 97.609C159.734 97.4862 159.652 97.4453 159.57 97.4453H156.664C156.582 97.4453 156.542 97.5272 156.542 97.609C156.542 97.6909 156.582 97.7727 156.664 97.7727H157.401V102.889C157.401 103.912 158.301 104.444 159.243 104.444C160.143 104.444 161.084 103.912 161.084 102.889C161.084 102.807 161.003 102.766 160.921 102.766C160.839 102.766 160.757 102.807 160.757 102.889C160.757 103.421 160.512 103.666 160.225 103.666C159.979 103.666 159.734 103.421 159.734 102.889V97.609Z" fill="#020202"></path><path d="M157.646 95.1537C157.646 95.7676 158.179 96.2997 158.792 96.2997C159.447 96.2997 159.979 95.7676 159.979 95.1537C159.979 94.4989 159.447 93.9668 158.792 93.9668C158.179 93.9668 157.646 94.4989 157.646 95.1537Z" fill="#020202"></path><path d="M152.939 98.6728V102.888C152.939 103.912 153.881 104.444 154.781 104.444C155.681 104.444 156.623 103.912 156.623 102.888C156.623 102.807 156.541 102.766 156.459 102.766C156.377 102.766 156.295 102.807 156.295 102.888C156.295 103.42 156.05 103.666 155.763 103.666C155.518 103.666 155.272 103.42 155.272 102.888V99.6551C155.272 97.8952 153.922 97.2812 152.735 97.2812C151.834 97.2812 151.22 97.6087 150.77 98.0589H150.647V97.5677C150.647 97.4859 150.606 97.404 150.525 97.404H147.741C147.66 97.404 147.619 97.4859 147.619 97.5677C147.619 97.6496 147.66 97.7315 147.741 97.7315H148.478V104.28H150.811V98.4272C151.22 97.977 151.671 97.6905 152.203 97.6905C152.612 97.7724 152.939 98.0589 152.939 98.6728Z" fill="#020202"></path><path d="M147.496 102.807C147.414 102.807 147.332 102.848 147.332 102.929C147.332 103.38 147.086 103.625 146.841 103.625C146.595 103.625 146.35 103.38 146.35 102.929V97.6089C146.35 97.4861 146.268 97.4451 146.145 97.4451H143.976V98.1C143.28 97.4861 142.666 97.3633 142.052 97.3633C140.047 97.3633 139.024 99.0823 139.024 100.924C139.024 103.011 140.415 104.526 141.93 104.526C142.666 104.526 143.403 104.198 144.058 103.38C144.385 104.198 145.081 104.526 145.777 104.526C146.718 104.526 147.578 103.83 147.578 103.011C147.659 102.848 147.578 102.807 147.496 102.807ZM143.976 102.07C143.976 103.257 143.362 103.83 142.748 103.83C142.134 103.83 141.52 103.257 141.52 102.07V99.4097C141.52 98.3456 142.134 97.8135 142.748 97.8135C143.362 97.8135 143.976 98.3456 143.976 99.4097V102.07Z" fill="#020202"></path><path d="M135.75 106.081C135.75 107.104 134.972 107.309 134.153 107.309C133.499 107.309 132.803 107.145 132.434 106.941V106.9C133.089 106.818 133.417 106.368 133.417 105.876C133.417 105.099 132.844 104.73 132.23 104.73C131.657 104.73 131.043 105.099 131.043 105.876C131.043 106.9 132.639 107.636 134.358 107.636C136.159 107.636 138.083 106.818 138.083 104.73V97.568C138.083 97.4862 138.042 97.4043 137.96 97.4043H135.75V102.602C135.75 103.503 135.177 103.912 134.563 103.912C133.99 103.912 133.376 103.462 133.376 102.602V97.568C133.376 97.4862 133.294 97.4043 133.253 97.4043H130.47C130.388 97.4043 130.347 97.4862 130.347 97.568C130.347 97.6499 130.388 97.7317 130.47 97.7317H131.084V101.865C131.084 103.462 132.475 104.444 133.867 104.444C134.522 104.444 135.177 104.239 135.75 103.789V106.081Z" fill="#020202"></path><path d="M129.119 94.1305C129.119 94.0077 129.037 93.9668 128.914 93.9668H126.049C125.967 93.9668 125.927 94.0487 125.927 94.1305C125.927 94.2124 125.967 94.2942 126.049 94.2942H126.786V102.889C126.786 103.912 127.686 104.444 128.628 104.444C129.569 104.444 130.47 103.912 130.47 102.889C130.47 102.807 130.388 102.766 130.306 102.766C130.224 102.766 130.142 102.807 130.142 102.889C130.142 103.421 129.897 103.667 129.61 103.667C129.364 103.667 129.119 103.421 129.119 102.889V94.1305Z" fill="#020202"></path><path d="M122.202 97.3242C120.483 97.3242 118.723 98.552 118.723 100.885C118.723 103.013 120.646 104.446 122.611 104.446C124.084 104.446 125.394 103.504 125.476 102.317C125.476 102.236 125.394 102.195 125.312 102.195C125.23 102.195 125.148 102.236 125.148 102.317C124.985 103.504 123.798 104.118 122.652 104.118C121.629 104.118 121.178 103.3 121.178 101.09H125.558C125.639 101.09 125.639 101.008 125.639 101.008C125.639 98.5111 123.92 97.3242 122.202 97.3242ZM123.47 100.762H121.178V99.2069C121.178 98.1428 121.751 97.6107 122.324 97.6107C122.897 97.6107 123.47 98.1428 123.47 99.2069V100.762Z" fill="#020202"></path><path d="M117.126 94.7047C117.126 94.5819 117.045 94.541 116.963 94.541C116.881 94.541 116.758 94.5819 116.758 94.6229C116.758 94.8275 116.676 95.1959 116.431 95.1959C115.98 95.1959 115.653 94.541 114.261 94.541C112.461 94.541 111.151 95.3596 111.151 97.6106C111.151 100.967 116.553 100.476 116.553 102.44C116.553 103.545 115.571 104.118 114.425 104.118C112.993 104.118 111.396 103.218 111.396 101.376C111.396 101.294 111.233 101.253 111.151 101.253C111.069 101.253 110.946 101.294 110.946 101.335C110.946 102.154 111.028 104.036 111.028 104.282C111.028 104.405 111.069 104.446 111.233 104.446C111.356 104.446 111.437 104.364 111.437 104.282C111.437 104.118 111.56 103.832 111.806 103.832C112.051 103.832 113.115 104.405 114.18 104.405C116.021 104.405 118.027 103.381 118.027 101.294C118.027 97.4469 112.502 98.4292 112.502 96.3418C112.502 95.3596 113.279 94.8684 114.18 94.8684C115.407 94.8684 116.84 95.7689 116.84 97.5288C116.84 97.5697 117.004 97.6106 117.045 97.6106C117.085 97.6106 117.208 97.5697 117.208 97.5288C117.208 96.7511 117.126 94.9503 117.126 94.7047Z" fill="#020202"></path><path d="M105.871 102.807C105.789 102.807 105.707 102.848 105.707 102.929C105.707 103.38 105.462 103.625 105.216 103.625C104.971 103.625 104.725 103.38 104.725 102.929V97.6089C104.725 97.4861 104.643 97.4451 104.52 97.4451H102.392V98.1C101.696 97.4861 101.083 97.3633 100.469 97.3633C98.4631 97.3633 97.4399 99.0823 97.4399 100.924C97.4399 103.011 98.8315 104.526 100.346 104.526C101.083 104.526 101.819 104.198 102.474 103.38C102.801 104.198 103.497 104.526 104.193 104.526C105.134 104.526 105.994 103.83 105.994 103.011C105.994 102.848 105.912 102.807 105.871 102.807ZM102.351 102.07C102.351 103.257 101.737 103.83 101.123 103.83C100.51 103.83 99.8956 103.257 99.8956 102.07V99.4097C99.8956 98.3456 100.51 97.8135 101.123 97.8135C101.737 97.8135 102.351 98.3456 102.351 99.4097V102.07Z" fill="#020202"></path><path d="M94.4123 102.522C93.43 102.522 92.4068 102.686 91.6701 102.686C91.138 102.686 90.7697 102.563 90.7697 102.195C90.7697 102.031 90.8925 101.622 91.4245 101.458C91.9157 101.622 92.5296 101.704 93.2663 101.704C95.5583 101.704 96.5815 100.844 96.5815 99.4936C96.5815 98.5523 96.0903 97.8565 94.9853 97.5291C94.9853 97.1607 95.0262 96.7924 95.1081 96.5877L95.1899 96.465V96.5059C95.1899 97.1198 95.6401 97.4063 96.0903 97.4063C96.5405 97.4063 97.0317 97.0789 97.0317 96.5059C97.0317 95.892 96.4996 95.6055 95.9675 95.6055C95.681 95.6055 95.3945 95.6873 95.1899 95.851C94.8216 96.1375 94.6988 96.8742 94.6578 97.4472C94.2486 97.3654 93.7984 97.3244 93.2663 97.3244C90.9743 97.3244 89.9511 98.2249 89.9511 99.5345C89.9511 100.312 90.2786 100.926 91.0153 101.294C90.033 101.704 89.7056 102.522 89.7056 103.054C89.7056 103.709 90.0739 104.118 90.5651 104.405C90.1558 104.405 89.7874 104.569 89.7874 105.224C89.7874 106.574 91.9566 107.065 93.43 107.065C96.0494 107.065 97.1544 106.042 97.1544 104.773C97.1544 103.505 96.0494 102.522 94.4123 102.522ZM92.4068 99.248C92.4068 98.1839 92.5705 97.6519 93.2663 97.6519C93.9621 97.6519 94.1258 98.2249 94.1258 99.248V99.821C94.1258 100.885 93.9621 101.417 93.2663 101.417C92.6115 101.417 92.4068 100.885 92.4068 99.821V99.248ZM93.2663 106.82C91.7929 106.82 90.4013 106.451 90.4013 105.305C90.4013 105.06 90.5241 104.814 90.8106 104.61C91.4655 104.855 92.2431 104.978 92.8979 104.978C93.7574 104.978 94.1667 104.896 95.0262 104.896C95.5583 104.896 95.9675 105.305 95.9675 105.756C96.0085 106.41 94.6578 106.82 93.2663 106.82Z" fill="#020202"></path><path d="M87.8225 94.1305C87.8225 94.0077 87.7406 93.9668 87.6179 93.9668H84.7529C84.6711 93.9668 84.6301 94.0487 84.6301 94.1305C84.6301 94.2124 84.6711 94.2942 84.7529 94.2942H85.4896V102.889C85.4896 103.912 86.39 104.444 87.3314 104.444C88.2318 104.444 89.1731 103.912 89.1731 102.889C89.1731 102.807 89.0913 102.766 89.0094 102.766C88.9276 102.766 88.8457 102.807 88.8457 102.889C88.8457 103.421 88.6001 103.667 88.3136 103.667C88.0681 103.667 87.8225 103.421 87.8225 102.889V94.1305Z" fill="#020202"></path><path d="M79.3508 94.582C76.9769 94.582 74.644 96.2191 74.644 99.5343C74.644 102.809 77.0179 104.446 79.3917 104.446C81.7655 104.446 84.1393 102.809 84.1393 99.5343C84.0984 96.2601 81.7246 94.582 79.3508 94.582ZM81.3971 100.107C81.3971 102.809 81.0697 104.118 79.3917 104.118C77.7136 104.118 77.3453 102.809 77.3453 100.107V98.9613C77.3453 96.2601 77.7136 94.9504 79.3917 94.9504C81.0697 94.9504 81.3971 96.301 81.3971 98.9613V100.107Z" fill="#020202"></path><defs><linearGradient id="paint0_linear_660_266" x1="127.187" y1="138.877" x2="127.187" y2="0.945862" gradientUnits="userSpaceOnUse"><stop offset="0.00837989" stop-color="#DBDCEB"></stop><stop offset="0.0532826" stop-color="#E3E3EF"></stop><stop offset="0.1805" stop-color="#F3F3F8"></stop><stop offset="0.3249" stop-color="#FCFCFD"></stop><stop offset="0.5223" stop-color="white"></stop><stop offset="0.7704" stop-color="#FDFDFE"></stop><stop offset="0.8626" stop-color="#F6F6FA"></stop><stop offset="0.9286" stop-color="#EAEBF3"></stop><stop offset="0.9777" stop-color="#DBDCEB"></stop></linearGradient><linearGradient id="paint1_linear_660_266" x1="55.0083" y1="69.9112" x2="199.367" y2="69.9112" gradientUnits="userSpaceOnUse"><stop offset="0.00837989" stop-color="#BDBFD9"></stop><stop offset="0.1972" stop-color="#D8D9E9"></stop><stop offset="0.3677" stop-color="#E8E9F2"></stop><stop offset="0.4972" stop-color="#EEEFF5"></stop><stop offset="0.6779" stop-color="#E1E2EE"></stop><stop offset="0.9944" stop-color="#C1C2DB"></stop></linearGradient><linearGradient id="paint2_linear_660_266" x1="58.3677" y1="69.4705" x2="197.062" y2="69.4705" gradientUnits="userSpaceOnUse"><stop offset="0.00837989" stop-color="#BDBFD9"></stop><stop offset="0.1972" stop-color="#D8D9E9"></stop><stop offset="0.3677" stop-color="#E8E9F2"></stop><stop offset="0.4972" stop-color="#EEEFF5"></stop><stop offset="0.6779" stop-color="#E1E2EE"></stop><stop offset="0.9944" stop-color="#C1C2DB"></stop></linearGradient><linearGradient id="paint3_linear_660_266" x1="58.3661" y1="49.1203" x2="197.061" y2="49.1203" gradientUnits="userSpaceOnUse"><stop offset="0.00837989" stop-color="#BDBFD9"></stop><stop offset="0.1972" stop-color="#D8D9E9"></stop><stop offset="0.3677" stop-color="#E8E9F2"></stop><stop offset="0.4972" stop-color="#EEEFF5"></stop><stop offset="0.6779" stop-color="#E1E2EE"></stop><stop offset="0.9944" stop-color="#C1C2DB"></stop></linearGradient><linearGradient id="paint4_linear_660_266" x1="58.3668" y1="63.0693" x2="197.062" y2="63.0693" gradientUnits="userSpaceOnUse"><stop offset="0.00837989" stop-color="#BDBFD9"></stop><stop offset="0.1972" stop-color="#D8D9E9"></stop><stop offset="0.3677" stop-color="#E8E9F2"></stop><stop offset="0.4972" stop-color="#EEEFF5"></stop><stop offset="0.6779" stop-color="#E1E2EE"></stop><stop offset="0.9944" stop-color="#C1C2DB"></stop></linearGradient><linearGradient id="paint5_linear_660_266" x1="58.3671" y1="16.2303" x2="197.062" y2="16.2303" gradientUnits="userSpaceOnUse"><stop offset="0.00837989" stop-color="#BDBFD9"></stop><stop offset="0.1972" stop-color="#D8D9E9"></stop><stop offset="0.3677" stop-color="#E8E9F2"></stop><stop offset="0.4972" stop-color="#EEEFF5"></stop><stop offset="0.6779" stop-color="#E1E2EE"></stop><stop offset="0.9944" stop-color="#C1C2DB"></stop></linearGradient><linearGradient id="paint6_linear_660_266" x1="58.3671" y1="16.4138" x2="197.062" y2="16.4138" gradientUnits="userSpaceOnUse"><stop offset="0.00837989" stop-color="#BDBFD9"></stop><stop offset="0.1972" stop-color="#D8D9E9"></stop><stop offset="0.3677" stop-color="#E8E9F2"></stop><stop offset="0.4972" stop-color="#EEEFF5"></stop><stop offset="0.6779" stop-color="#E1E2EE"></stop><stop offset="0.9944" stop-color="#C1C2DB"></stop></linearGradient><linearGradient id="paint7_linear_660_266" x1="58.3669" y1="18.6815" x2="197.061" y2="18.6815" gradientUnits="userSpaceOnUse"><stop offset="0.00837989" stop-color="#BDBFD9"></stop><stop offset="0.1972" stop-color="#D8D9E9"></stop><stop offset="0.3677" stop-color="#E8E9F2"></stop><stop offset="0.4972" stop-color="#EEEFF5"></stop><stop offset="0.6779" stop-color="#E1E2EE"></stop><stop offset="0.9944" stop-color="#C1C2DB"></stop></linearGradient><linearGradient id="paint8_linear_660_266" x1="58.3671" y1="26.114" x2="197.062" y2="26.114" gradientUnits="userSpaceOnUse"><stop offset="0.00837989" stop-color="#BDBFD9"></stop><stop offset="0.1972" stop-color="#D8D9E9"></stop><stop offset="0.3677" stop-color="#E8E9F2"></stop><stop offset="0.4972" stop-color="#EEEFF5"></stop><stop offset="0.6779" stop-color="#E1E2EE"></stop><stop offset="0.9944" stop-color="#C1C2DB"></stop></linearGradient><linearGradient id="paint9_linear_660_266" x1="58.368" y1="70.1958" x2="197.063" y2="70.1958" gradientUnits="userSpaceOnUse"><stop offset="0.00837989" stop-color="#BDBFD9"></stop><stop offset="0.1972" stop-color="#D8D9E9"></stop><stop offset="0.3677" stop-color="#E8E9F2"></stop><stop offset="0.4972" stop-color="#EEEFF5"></stop><stop offset="0.6779" stop-color="#E1E2EE"></stop><stop offset="0.9944" stop-color="#C1C2DB"></stop></linearGradient><linearGradient id="paint10_linear_660_266" x1="58.3661" y1="30.6087" x2="197.061" y2="30.6087" gradientUnits="userSpaceOnUse"><stop offset="0.00837989" stop-color="#BDBFD9"></stop><stop offset="0.1972" stop-color="#D8D9E9"></stop><stop offset="0.3677" stop-color="#E8E9F2"></stop><stop offset="0.4972" stop-color="#EEEFF5"></stop><stop offset="0.6779" stop-color="#E1E2EE"></stop><stop offset="0.9944" stop-color="#C1C2DB"></stop></linearGradient><linearGradient id="paint11_linear_660_266" x1="58.3671" y1="82.5316" x2="197.062" y2="82.5316" gradientUnits="userSpaceOnUse"><stop offset="0.00837989" stop-color="#BDBFD9"></stop><stop offset="0.1972" stop-color="#D8D9E9"></stop><stop offset="0.3677" stop-color="#E8E9F2"></stop><stop offset="0.4972" stop-color="#EEEFF5"></stop><stop offset="0.6779" stop-color="#E1E2EE"></stop><stop offset="0.9944" stop-color="#C1C2DB"></stop></linearGradient><linearGradient id="paint12_linear_660_266" x1="58.3677" y1="41.0616" x2="197.062" y2="41.0616" gradientUnits="userSpaceOnUse"><stop offset="0.00837989" stop-color="#BDBFD9"></stop><stop offset="0.1972" stop-color="#D8D9E9"></stop><stop offset="0.3677" stop-color="#E8E9F2"></stop><stop offset="0.4972" stop-color="#EEEFF5"></stop><stop offset="0.6779" stop-color="#E1E2EE"></stop><stop offset="0.9944" stop-color="#C1C2DB"></stop></linearGradient><linearGradient id="paint13_linear_660_266" x1="58.3664" y1="132.334" x2="197.061" y2="132.334" gradientUnits="userSpaceOnUse"><stop offset="0.00837989" stop-color="#BDBFD9"></stop><stop offset="0.1972" stop-color="#D8D9E9"></stop><stop offset="0.3677" stop-color="#E8E9F2"></stop><stop offset="0.4972" stop-color="#EEEFF5"></stop><stop offset="0.6779" stop-color="#E1E2EE"></stop><stop offset="0.9944" stop-color="#C1C2DB"></stop></linearGradient><linearGradient id="paint14_linear_660_266" x1="58.3658" y1="133.169" x2="197.061" y2="133.169" gradientUnits="userSpaceOnUse"><stop offset="0.00837989" stop-color="#BDBFD9"></stop><stop offset="0.1972" stop-color="#D8D9E9"></stop><stop offset="0.3677" stop-color="#E8E9F2"></stop><stop offset="0.4972" stop-color="#EEEFF5"></stop><stop offset="0.6779" stop-color="#E1E2EE"></stop><stop offset="0.9944" stop-color="#C1C2DB"></stop></linearGradient><linearGradient id="paint15_linear_660_266" x1="58.3669" y1="158.275" x2="197.062" y2="158.275" gradientUnits="userSpaceOnUse"><stop offset="0.00837989" stop-color="#BDBFD9"></stop><stop offset="0.1972" stop-color="#D8D9E9"></stop><stop offset="0.3677" stop-color="#E8E9F2"></stop><stop offset="0.4972" stop-color="#EEEFF5"></stop><stop offset="0.6779" stop-color="#E1E2EE"></stop><stop offset="0.9944" stop-color="#C1C2DB"></stop></linearGradient><linearGradient id="paint16_linear_660_266" x1="58.3667" y1="161.857" x2="197.061" y2="161.857" gradientUnits="userSpaceOnUse"><stop offset="0.00837989" stop-color="#BDBFD9"></stop><stop offset="0.1972" stop-color="#D8D9E9"></stop><stop offset="0.3677" stop-color="#E8E9F2"></stop><stop offset="0.4972" stop-color="#EEEFF5"></stop><stop offset="0.6779" stop-color="#E1E2EE"></stop><stop offset="0.9944" stop-color="#C1C2DB"></stop></linearGradient></defs></svg> 