<?xml version="1.0" encoding="UTF-8"?> <!-- Generator: Adobe Illustrator 25.4.1, SVG Export Plug-In . SVG Version: 6.00 Build 0) --> <svg xmlns="http://www.w3.org/2000/svg" xmlns:xlink="http://www.w3.org/1999/xlink" x="0px" y="0px" viewBox="0 0 48 48" style="enable-background:new 0 0 48 48;" xml:space="preserve"> <style type="text/css"> .st0{fill-rule:evenodd;clip-rule:evenodd;fill:#FFFFFF;} .st1{fill:#FFFFFF;} </style> <g xmlns:sketch="http://www.bohemiancoding.com/sketch/ns" id="Layer_1"> <desc>Created with Sketch.</desc> <path id="Shape" sketch:type="MSShapeGroup" class="st0" d="M24,0C10.8,0,0,10.8,0,24c0,13.2,10.8,24,24,24s24-10.8,24-24 C48,10.8,37.2,0,24,0L24,0z M24,1c12.7,0,23,10.3,23,23c0,12.7-10.3,23-23,23S1,36.7,1,24C1,11.3,11.3,1,24,1L24,1z"></path> </g> <g id="Layer_3"> <path class="st1" d="M33,18.5h-3c0.3-0.4,0.5-0.9,0.5-1.5c0-1.4-1.1-2.5-2.5-2.5c-1.4,0-2.6,1.1-3.1,1.8c-0.3,0.4-0.6,0.8-0.9,1.2 c-0.2-0.4-0.5-0.8-0.9-1.2c-0.6-0.7-1.7-1.8-3.1-1.8c-1.4,0-2.5,1.1-2.5,2.5c0,0.6,0.2,1.1,0.5,1.5h-3c-0.3,0-0.5,0.2-0.5,0.5v3 c0,0.3,0.2,0.5,0.5,0.5h0.5V32c0,0.8,0.7,1.5,1.5,1.5h14c0.8,0,1.5-0.7,1.5-1.5v-9.5H33c0.3,0,0.5-0.2,0.5-0.5v-3 C33.5,18.7,33.3,18.5,33,18.5z M25.6,16.9c0.8-0.9,1.6-1.4,2.4-1.4c0.8,0,1.5,0.7,1.5,1.5s-0.7,1.5-1.5,1.5h-3.4 C24.8,18.1,25.1,17.5,25.6,16.9z M25.5,32.5h-3v-13h3V32.5z M18.5,17c0-0.8,0.7-1.5,1.5-1.5c0.7,0,1.6,0.5,2.4,1.4 c0.5,0.6,0.8,1.1,1,1.6H20C19.2,18.5,18.5,17.8,18.5,17z M15.5,19.5h6v2h-6V19.5z M16.5,32v-9.5h5v10H17 C16.7,32.5,16.5,32.3,16.5,32z M31.5,32c0,0.3-0.2,0.5-0.5,0.5h-4.5v-10h5V32z M32.5,21.5h-6v-2h6V21.5z"></path> </g> <g id="Layer_4"> </g> </svg> 