<?xml version="1.0" encoding="UTF-8"?> <svg xmlns="http://www.w3.org/2000/svg" id="Layer_2" viewBox="0 0 291.24 71.3"> <g id="Layer_1-2"> <g> <path d="M142.76,71.3h-62.34c-4.95,0-8.97-4.01-8.97-8.97V8.97c0-4.95,4.01-8.97,8.97-8.97h53.37c4.95,0,8.97,4.01,8.97,8.97v62.34Z" style="fill:#bc262b;"></path> <path d="M37.63,49.23c0,1.58-1.29,2.87-2.87,2.87h-5.55c-.09,0-.16-.07-.16-.16v-16.54s0-4.23,.1-7.57c-.57,3.34-1.61,7.65-1.61,7.65-.37,1.54-1,4.04-1.4,5.57l-2.88,11s-.03,.05-.06,.05H14.54c-.08,0-.16-.06-.18-.14l-2.9-10.92c-.41-1.53-1.04-4.03-1.41-5.57l-1.02-4.83c-.3-1.55-.53-1.53-.51,.05l.06,4.7v13.83c0,1.58-1.29,2.87-2.87,2.87H.16c-.09,0-.16-.07-.16-.16V21.23c0-1.12,1.23-2.03,2.74-2.03H13.4s0,0,0,0l5.56,24.46s.04,.02,.04,0l4.92-21.66c.35-1.54,1.93-2.8,3.51-2.8h10.08c.07,0,.12,.05,.12,.12v29.92Z" style="fill:#393f57;"></path> <path d="M62.26,19.2c1.58,0,2.87,1.29,2.87,2.87v4.47s-.02,.04-.04,.04h-11.86c-.07,0-.12,.06-.12,.12v4.94s.02,.05,.05,.05h11.5s.02,.01,.02,.02v6.76c0,.06-.05,.11-.11,.11h-11.43s-.03,.01-.03,.03v6.06s.02,.04,.04,.04h12.4s.05,.02,.05,.05v7.31s0,.02-.02,.02h-18.24c-1.58,0-2.87-1.29-2.87-2.87V19.2s0,0,0,0h17.77Z" style="fill:#393f57;"></path> <path d="M100.33,28.9h-6.95c0-1.19-.32-2.13-.95-2.82-.64-.69-1.52-1.04-2.65-1.04-.85,0-1.56,.23-2.12,.7-.57,.47-.85,1.1-.85,1.91,0,.93,.47,1.69,1.41,2.27,.94,.58,2.43,1.19,4.48,1.83,6.58,2.09,9.87,5.76,9.87,11,0,2.73-1.09,5.16-3.26,7.26-2.18,2.11-5.37,3.16-9.58,3.16-3.96,0-7.12-1.05-9.47-3.14-2.35-2.09-3.53-4.94-3.53-8.54h7.03s1.93-.17,2.15,1.39c.32,2.27,1.69,3.39,3.98,3.39,1.03,0,1.87-.27,2.52-.82,.65-.55,.98-1.29,.98-2.22,0-1.06-.43-1.92-1.3-2.58-.87-.66-2.36-1.33-4.48-2-6.58-2.06-9.87-5.66-9.87-10.81,0-2.99,1.17-5.36,3.5-7.09,2.33-1.74,5.22-2.61,8.65-2.61,3.71,0,6.67,.96,8.86,2.87,1.62,1.41,2.57,3.23,3.07,5.41,.6,2.61-1.47,2.48-1.47,2.48Z" style="fill:#fff;"></path> <path d="M103.07,35.65c0-4.79,1.67-8.91,5.02-12.35,3.35-3.44,7.53-5.16,12.55-5.16s9.4,1.72,12.57,5.16c3.17,3.44,4.75,7.56,4.75,12.35s-1.66,8.95-4.99,12.38-7.47,5.14-12.42,5.14c-2.89,0-5.49-.52-7.79-1.57-2.3-1.04-4.13-2.43-5.5-4.15-1.37-1.72-2.4-3.59-3.11-5.62-.71-2.03-1.06-4.08-1.06-6.18Zm11.29-6.95c-1.67,1.87-2.51,4.18-2.51,6.95s.83,5.08,2.49,6.95c1.66,1.87,3.71,2.8,6.15,2.8s4.54-.93,6.2-2.8c1.66-1.87,2.48-4.18,2.48-6.95s-.79-5.08-2.36-6.95c-1.58-1.87-3.65-2.8-6.22-2.8s-4.55,.93-6.22,2.8Z" style="fill:#fff;"></path> <path d="M203.67,35.65c0-4.79,1.67-8.91,5.02-12.35,3.35-3.44,7.53-5.16,12.55-5.16s9.4,1.72,12.57,5.16c3.17,3.44,4.75,7.56,4.75,12.35s-1.66,8.95-4.99,12.38c-3.33,3.43-7.47,5.14-12.42,5.14-2.89,0-5.49-.52-7.79-1.57-2.3-1.04-4.13-2.43-5.5-4.15-1.37-1.72-2.41-3.59-3.11-5.62-.71-2.03-1.06-4.08-1.06-6.18Zm11.29-6.95c-1.67,1.87-2.51,4.18-2.51,6.95s.83,5.08,2.48,6.95c1.66,1.87,3.71,2.8,6.15,2.8s4.54-.93,6.2-2.8c1.66-1.87,2.48-4.18,2.48-6.95s-.79-5.08-2.36-6.95c-1.58-1.87-3.65-2.8-6.22-2.8s-4.55,.93-6.22,2.8Z" style="fill:#393f57;"></path> <path d="M260.91,19.2c1.58,0,2.87,1.29,2.87,2.87v4.4c0,.06-.05,.11-.11,.11h-11.89s-.02,0-.02,.02v6.05s0,.02,.02,.02h11.47s.04,.02,.04,.04v6.83s-.01,.03-.03,.03h-11.44s-.06,.03-.06,.06v9.61c0,1.58-1.29,2.87-2.87,2.87h-5.76s-.05-.02-.05-.05V19.27s.03-.07,.07-.07h17.75Z" style="fill:#393f57;"></path> <path d="M288.37,19.2c1.58,0,2.87,1.29,2.87,2.87v4.4c0,.06-.05,.11-.11,.11h-11.89s-.02,0-.02,.02v6.05s0,.02,.02,.02h11.47s.04,.02,.04,.04v6.83s-.01,.03-.03,.03h-11.44s-.06,.03-.06,.06v9.61c0,1.58-1.29,2.87-2.87,2.87h-5.76s-.05-.02-.05-.05V19.3c0-.05,.04-.1,.1-.1h17.73Z" style="fill:#393f57;"></path> <path d="M144.88,52.06v.04h.04s-.04-.02-.04-.04Z" style="fill:#393f57;"></path> <path d="M144.94,19.2h-.05v.05s.02-.05,.05-.05Z" style="fill:#393f57;"></path> <path d="M144.94,19.2h0s-.05,.02-.05,.05c0-.03,.02-.05,.05-.05Z" style="fill:#393f57;"></path> <path d="M168.61,21.97c-2.38-1.85-5.44-2.77-9.17-2.77h-11.05s-.05,.02-.05,.05V52.06s.02,.04,.04,.04h5.72c1.58,0,2.87-1.29,2.87-2.87v-8.22h2.32c4.25,0,7.45-.96,9.63-2.89,2.17-1.93,3.26-4.62,3.26-8.06s-1.19-6.23-3.57-8.08Zm-9.7,12.33h-1.93v-8.4h2.03c1.54,0,2.68,.41,3.4,1.23,.72,.82,1.09,1.83,1.09,3.02,0,2.77-1.53,4.15-4.58,4.15Z" style="fill:#393f57;"></path> <path d="M193.72,38.35c1.83-.64,3.31-1.72,4.44-3.23,1.13-1.51,1.69-3.39,1.69-5.65,0-6.85-4.42-10.28-13.27-10.28h-10.4c-.08,0-.14,.06-.14,.14v29.86c0,1.6,1.3,2.91,2.91,2.91h5.71s.03-.01,.03-.03v-12.42h.7l8.35,12.45h10.04l-10.04-13.75Zm-3.84-5.6c-.76,.68-1.75,1.01-2.97,1.01h-2.25v-7.86h2.2c1.32,0,2.34,.35,3.06,1.06,.72,.71,1.09,1.69,1.09,2.94s-.38,2.17-1.13,2.85Z" style="fill:#393f57;"></path> </g> </g> </svg> 