<?xml version="1.0" encoding="UTF-8"?> <!-- Generator: Adobe Illustrator 26.5.0, SVG Export Plug-In . SVG Version: 6.00 Build 0) --> <svg xmlns="http://www.w3.org/2000/svg" xmlns:xlink="http://www.w3.org/1999/xlink" id="Layer_2_00000168079344650043059810000013382658253221975707_" x="0px" y="0px" viewBox="0 0 834 226.9" style="enable-background:new 0 0 834 226.9;" xml:space="preserve"> <style type="text/css"> .st0{fill:#FF0095;} .st1{fill:#FFFFFF;} .st2{enable-background:new ;} .st3{fill:url(#SVGID_1_);} .st4{fill:url(#SVGID_00000037662311051934961080000002631229155271132603_);} .st5{fill:url(#SVGID_00000183251436478298748120000005580418417518837152_);} .st6{fill:url(#SVGID_00000096774210817704785130000010861412664213856641_);} </style> <g id="fon_photo"> <g> <g> <rect x="497.5" y="2.3" class="st0" width="107.7" height="36.7"></rect> <rect x="405.8" y="128.9" class="st1" width="199.4" height="36.7"></rect> <rect x="451.6" y="65.6" class="st1" width="153.6" height="36.7"></rect> </g> <g class="st2"> <path class="st1" d="M15.3,203.6h-4.1c-0.1-0.8-0.3-1.4-0.8-1.9s-1.1-0.7-1.8-0.7c-0.7,0-1.3,0.2-1.7,0.6 c-0.4,0.4-0.7,0.9-0.7,1.6c0,0.7,0.3,1.3,0.9,1.8c0.6,0.4,1.5,0.9,2.7,1.2c3.9,1.3,5.9,3.6,5.9,6.9c0,1.7-0.6,3.2-1.8,4.5 c-1.2,1.3-3,2-5.3,2c-2.1,0-3.8-0.6-5.1-1.8c-1.3-1.2-2.1-2.8-2.2-5h4.3c0.2,2.1,1.3,3.2,3.1,3.2c0.8,0,1.5-0.3,2-0.8 c0.5-0.5,0.7-1.2,0.7-1.9c0-0.9-0.3-1.6-0.9-2.1s-1.5-1-2.9-1.5c-3.8-1.3-5.7-3.5-5.7-6.6c0-1.7,0.6-3.1,1.9-4.2 c1.3-1.1,2.8-1.6,4.7-1.6c2,0,3.6,0.6,4.8,1.7C14.6,200.3,15.2,201.8,15.3,203.6z"></path> </g> <g class="st2"> <path class="st1" d="M34,197.5c2.7,0,4.9,0.7,6.7,2.2c1.8,1.5,2.8,3.2,3.2,5.1h-4.7c-0.3-1-0.9-1.9-1.8-2.6s-2.1-1-3.4-1 c-1.9,0-3.4,0.7-4.6,2c-1.2,1.4-1.8,3.1-1.8,5.3c0,2.1,0.6,3.8,1.8,5.2c1.2,1.4,2.7,2.2,4.6,2.2c1.4,0,2.6-0.4,3.5-1.1 c0.9-0.8,1.5-1.7,1.9-2.8h4.9c-0.7,2.3-1.9,4.1-3.7,5.5c-1.8,1.4-4,2.1-6.7,2.1c-3.2,0-5.8-1.1-7.7-3.2c-2-2.1-3-4.8-3-8 c0-3.2,1-5.8,3.1-7.9C28.3,198.6,30.8,197.5,34,197.5z"></path> <path class="st1" d="M52.5,219v-20.8h4.4V219H52.5z"></path> <path class="st1" d="M78.3,198.2v3.8h-8.1v4.5H78v3.6h-7.8v5.2h8.4v3.8H65.8v-20.8H78.3z"></path> <path class="st1" d="M91.1,204.7h-0.1c0.1,2.6,0.1,3.9,0.1,3.9V219h-3.8v-20.8h3.8l5.8,9c1.1,1.8,2.2,3.6,3.2,5.5h0.1 c-0.1-2.1-0.1-3.3-0.1-3.8v-10.7h3.8V219h-3.8l-5.3-8.2C93.4,208.7,92.2,206.7,91.1,204.7z"></path> <path class="st1" d="M122.6,197.5c2.7,0,4.9,0.7,6.7,2.2c1.8,1.5,2.8,3.2,3.2,5.1h-4.7c-0.3-1-0.9-1.9-1.8-2.6s-2.1-1-3.4-1 c-1.9,0-3.4,0.7-4.6,2c-1.2,1.4-1.8,3.1-1.8,5.3c0,2.1,0.6,3.8,1.8,5.2c1.2,1.4,2.7,2.2,4.6,2.2c1.4,0,2.6-0.4,3.5-1.1 c0.9-0.8,1.5-1.7,1.9-2.8h4.9c-0.7,2.3-1.9,4.1-3.7,5.5c-1.8,1.4-4,2.1-6.7,2.1c-3.2,0-5.8-1.1-7.7-3.2c-2-2.1-3-4.8-3-8 c0-3.2,1-5.8,3.1-7.9C116.9,198.6,119.5,197.5,122.6,197.5z"></path> <path class="st1" d="M153.6,198.2v3.8h-8.1v4.5h7.8v3.6h-7.8v5.2h8.4v3.8h-12.8v-20.8H153.6z"></path> </g> <g class="st2"> <path class="st1" d="M186.3,219V202h-5v-3.8h14.3v3.8h-5V219H186.3z"></path> </g> <g class="st2"> <path class="st1" d="M213,210.2l6.4,8.8h-5.2l-5.7-8.2h-1.4v8.2h-4.4v-20.8h6.5c2.8,0,4.8,0.6,6,1.8c1.3,1.2,1.9,2.7,1.9,4.6 c0,1.4-0.4,2.7-1.2,3.7C215.3,209.2,214.3,209.9,213,210.2z M212.8,204.7c0-1-0.3-1.7-0.8-2.2c-0.5-0.5-1.3-0.8-2.4-0.8h-2.3v5.9 h2.4c1,0,1.8-0.3,2.3-0.8C212.5,206.3,212.8,205.6,212.8,204.7z"></path> </g> <g class="st2"> <path class="st1" d="M238.4,198.2v3.8h-8.1v4.5h7.8v3.6h-7.8v5.2h8.4v3.8H226v-20.8H238.4z"></path> </g> <g class="st2"> <path class="st1" d="M245.5,219l8.1-20.8h4.1l7.7,20.8h-4.5l-1.6-4.7h-7.7l-1.6,4.7H245.5z M254.3,206.2l-1.7,5h5.6l-1.7-5 c-0.4-1.2-0.7-2.2-1-3.2h-0.2C255,204.1,254.7,205.2,254.3,206.2z"></path> </g> <g class="st2"> <path class="st1" d="M274.1,219V202h-5v-3.8h14.3v3.8h-5V219H274.1z"></path> </g> <g class="st2"> <path class="st1" d="M309.5,198.2l2.6,20.8h-4.2l-1-10.2c-0.2-1.5-0.3-3.1-0.4-4.6h-0.2c0,0-0.2,0.7-0.5,1.9 c-0.3,1.2-0.6,2.1-0.7,2.7l-3,10.2h-3.1l-3.1-10.4c-0.6-2-1-3.5-1.2-4.5h-0.2c0,0.9-0.2,2.4-0.3,4.4L293,219H289l2.5-20.8h4.8 l3.1,9.8c0.5,1.6,0.9,2.8,1.1,3.8h0.1c0.2-0.7,0.6-2,1.1-3.8l3-9.8H309.5z"></path> <path class="st1" d="M332.5,198.2v3.8h-8.1v4.5h7.8v3.6h-7.8v5.2h8.4v3.8H320v-20.8H332.5z"></path> <path class="st1" d="M345.3,204.7h-0.1c0.1,2.6,0.1,3.9,0.1,3.9V219h-3.8v-20.8h3.8l5.8,9c1.1,1.8,2.2,3.6,3.2,5.5h0.1 c-0.1-2.1-0.1-3.3-0.1-3.8v-10.7h3.8V219h-3.8l-5.3-8.2C347.6,208.7,346.4,206.7,345.3,204.7z"></path> <path class="st1" d="M370.2,219V202h-5v-3.8h14.3v3.8h-5V219H370.2z"></path> </g> <g class="st2"> <path class="st1" d="M441.1,198.2v3.8h-8.1v4.5h7.8v3.6h-7.8v5.2h8.4v3.8h-12.8v-20.8H441.1z"></path> <path class="st1" d="M450.2,198.2h7.2c3.6,0,6.4,1,8.4,3c2,2,3,4.5,3,7.5c0,3-1,5.4-3.1,7.4c-2.1,2-4.9,3-8.4,3h-7.1V198.2z M454.6,215.2h2.6c2.3,0,4.1-0.6,5.3-1.8c1.2-1.2,1.8-2.8,1.8-4.7c0-2-0.6-3.6-1.8-4.8c-1.2-1.2-3-1.8-5.3-1.8h-2.6V215.2z"></path> <path class="st1" d="M484.4,219.7c-2.4,0-4.3-0.7-5.8-2.1c-1.5-1.4-2.2-3.7-2.2-6.8v-12.6h4.4v12.9c0,1.5,0.3,2.7,0.9,3.6 c0.6,0.9,1.5,1.3,2.6,1.3c2.4,0,3.6-1.6,3.6-4.9v-12.9h4.3v12.5c0,3.1-0.7,5.3-2.1,6.8C488.8,219,486.8,219.7,484.4,219.7z"></path> </g> <g class="st2"> <path class="st1" d="M510.8,197.5c2.7,0,4.9,0.7,6.7,2.2c1.8,1.5,2.8,3.2,3.2,5.1h-4.7c-0.3-1-0.9-1.9-1.8-2.6 c-0.9-0.7-2.1-1-3.4-1c-1.9,0-3.4,0.7-4.6,2c-1.2,1.4-1.8,3.1-1.8,5.3c0,2.1,0.6,3.8,1.8,5.2c1.2,1.4,2.7,2.2,4.6,2.2 c1.4,0,2.6-0.4,3.5-1.1s1.5-1.7,1.9-2.8h4.9c-0.7,2.3-1.9,4.1-3.7,5.5s-4,2.1-6.7,2.1c-3.2,0-5.8-1.1-7.7-3.2c-2-2.1-3-4.8-3-8 c0-3.2,1-5.8,3.1-7.9S507.7,197.5,510.8,197.5z"></path> </g> <g class="st2"> <path class="st1" d="M526.7,219l8.1-20.8h4.1l7.7,20.8h-4.5l-1.6-4.7h-7.7l-1.7,4.7H526.7z M535.5,206.2l-1.7,5h5.6l-1.7-5 c-0.4-1.2-0.7-2.2-1-3.2h-0.2C536.3,204.1,535.9,205.2,535.5,206.2z"></path> </g> <g class="st2"> <path class="st1" d="M555.3,219V202h-5v-3.8h14.3v3.8h-5V219H555.3z"></path> <path class="st1" d="M571.9,219v-20.8h4.4V219H571.9z"></path> <path class="st1" d="M584.2,208.6c0-3,1.1-5.6,3.2-7.8c2.1-2.2,4.8-3.3,7.9-3.3c2.2,0,4.2,0.5,5.9,1.6c1.7,1,3,2.4,3.8,4.1 c0.9,1.7,1.3,3.5,1.3,5.4c0,3.1-1.1,5.7-3.2,7.9c-2.1,2.2-4.7,3.2-7.9,3.2c-1.5,0-2.8-0.2-4.1-0.7c-1.2-0.4-2.3-1-3.1-1.8 c-0.8-0.7-1.6-1.6-2.2-2.6c-0.6-1-1-2-1.3-3C584.3,210.7,584.2,209.7,584.2,208.6z M590.5,203.5c-1.3,1.4-1.9,3.1-1.9,5.1 s0.6,3.7,1.9,5.1c1.3,1.4,2.8,2.1,4.7,2.1c1.9,0,3.4-0.7,4.7-2.1c1.3-1.4,1.9-3.1,1.9-5.1s-0.6-3.7-1.8-5.1s-2.8-2.1-4.8-2.1 C593.3,201.4,591.8,202.1,590.5,203.5z"></path> <path class="st1" d="M618,204.7h-0.1c0.1,2.6,0.1,3.9,0.1,3.9V219h-3.8v-20.8h3.8l5.8,9c1.1,1.8,2.2,3.6,3.2,5.5h0.1 c-0.1-2.1-0.1-3.3-0.1-3.8v-10.7h3.8V219H627l-5.3-8.2C620.3,208.7,619.1,206.7,618,204.7z"></path> </g> <g class="st2"> <path class="st1" d="M684.3,219v-20.8h6.7c2.3,0,4.2,0.6,5.7,1.7c1.5,1.1,2.2,2.8,2.2,5c0,2.1-0.7,3.8-2,5 c-1.3,1.2-3.4,1.8-6,1.8h-2.1v7.4H684.3z M694.5,205c0-0.9-0.3-1.7-0.9-2.3c-0.6-0.6-1.5-0.9-2.7-0.9h-2.2v6.4h2.1 C693.3,208.2,694.5,207.1,694.5,205z"></path> </g> <g class="st2"> <path class="st1" d="M712.9,210.2l6.4,8.8h-5.2l-5.7-8.2h-1.4v8.2h-4.4v-20.8h6.5c2.8,0,4.8,0.6,6,1.8s1.9,2.7,1.9,4.6 c0,1.4-0.4,2.7-1.2,3.7C715.2,209.2,714.2,209.9,712.9,210.2z M712.7,204.7c0-1-0.3-1.7-0.8-2.2c-0.5-0.5-1.3-0.8-2.4-0.8h-2.3 v5.9h2.4c1,0,1.8-0.3,2.3-0.8C712.4,206.3,712.7,205.6,712.7,204.7z"></path> </g> <g class="st2"> <path class="st1" d="M721.1,219l8.1-20.8h4.1l7.7,20.8h-4.5l-1.6-4.7h-7.7l-1.6,4.7H721.1z M729.9,206.2l-1.7,5h5.6l-1.7-5 c-0.4-1.2-0.7-2.2-1-3.2h-0.2C730.6,204.1,730.3,205.2,729.9,206.2z"></path> </g> <g class="st2"> <path class="st1" d="M753.5,197.5c2.7,0,4.9,0.7,6.7,2.2c1.8,1.5,2.8,3.2,3.2,5.1h-4.7c-0.3-1-0.9-1.9-1.8-2.6 c-0.9-0.7-2.1-1-3.4-1c-1.9,0-3.4,0.7-4.6,2s-1.8,3.1-1.8,5.3c0,2.1,0.6,3.8,1.8,5.2c1.2,1.4,2.7,2.2,4.6,2.2 c1.4,0,2.6-0.4,3.5-1.1c0.9-0.8,1.5-1.7,1.9-2.8h4.9c-0.7,2.3-1.9,4.1-3.7,5.5c-1.8,1.4-4,2.1-6.7,2.1c-3.2,0-5.8-1.1-7.7-3.2 c-2-2.1-3-4.8-3-8c0-3.2,1-5.8,3.1-7.9C747.8,198.6,750.4,197.5,753.5,197.5z"></path> </g> <g class="st2"> <path class="st1" d="M771,219V202h-5v-3.8h14.3v3.8h-5V219H771z"></path> <path class="st1" d="M783.9,219v-20.8h4.4V219H783.9z"></path> <path class="st1" d="M803.3,197.5c2.7,0,4.9,0.7,6.7,2.2c1.8,1.5,2.8,3.2,3.2,5.1h-4.7c-0.3-1-0.9-1.9-1.8-2.6 c-0.9-0.7-2.1-1-3.4-1c-1.9,0-3.4,0.7-4.6,2s-1.8,3.1-1.8,5.3c0,2.1,0.6,3.8,1.8,5.2c1.2,1.4,2.7,2.2,4.6,2.2 c1.4,0,2.6-0.4,3.5-1.1c0.9-0.8,1.5-1.7,1.9-2.8h4.9c-0.7,2.3-1.9,4.1-3.7,5.5c-1.8,1.4-4,2.1-6.7,2.1c-3.2,0-5.8-1.1-7.7-3.2 c-2-2.1-3-4.8-3-8c0-3.2,1-5.8,3.1-7.9C797.6,198.6,800.2,197.5,803.3,197.5z"></path> <path class="st1" d="M830.6,198.2v3.8h-8.1v4.5h7.8v3.6h-7.8v5.2h8.4v3.8h-12.8v-20.8H830.6z"></path> </g> <g> <rect x="153.9" y="143.2" class="st0" width="22.4" height="22.4"></rect> <linearGradient id="SVGID_1_" gradientUnits="userSpaceOnUse" x1="8660.0674" y1="-6449.0278" x2="8671.292" y2="-6437.8022" gradientTransform="matrix(6.123234e-17 -1 -1 -6.123234e-17 -6283.8901 8814.46)"> <stop offset="0" style="stop-color:#FF66BF"></stop> <stop offset="1" style="stop-color:#FF0095"></stop> </linearGradient> <polygon class="st3" points="153.9,165.6 153.9,143.2 176.4,143.2 "></polygon> </g> <g> <rect x="337.6" y="143.2" class="st0" width="22.5" height="22.4"></rect> <linearGradient id="SVGID_00000011000564957726166580000004113926111421615535_" gradientUnits="userSpaceOnUse" x1="2383.3896" y1="-15140.3408" x2="2394.6101" y2="-15129.1211" gradientTransform="matrix(-1 0 0 1 2732.1799 15294.7305)"> <stop offset="0" style="stop-color:#FF66BF"></stop> <stop offset="1" style="stop-color:#FF0095"></stop> </linearGradient> <polygon style="fill:url(#SVGID_00000011000564957726166580000004113926111421615535_);" points="360,165.6 337.6,165.6 337.6,143.2 "></polygon> </g> <g> <rect x="623" y="143.2" class="st0" width="22.4" height="22.5"></rect> <linearGradient id="SVGID_00000003786036885970232140000005958410891629572515_" gradientUnits="userSpaceOnUse" x1="-6384.6328" y1="-8838.5479" x2="-6373.4023" y2="-8827.3281" gradientTransform="matrix(6.123234e-17 1 1 -6.123234e-17 9472.8203 6539.02)"> <stop offset="0" style="stop-color:#FF66BF"></stop> <stop offset="1" style="stop-color:#FF0095"></stop> </linearGradient> <polygon style="fill:url(#SVGID_00000003786036885970232140000005958410891629572515_);" points="645.5,143.2 645.5,165.6 623,165.6 "></polygon> </g> <g> <rect x="806.9" y="143.2" class="st0" width="22.4" height="22.5"></rect> <linearGradient id="SVGID_00000132046462728170602780000008312980279943351215_" gradientUnits="userSpaceOnUse" x1="8399.707" y1="-6526.0278" x2="8410.9316" y2="-6514.8022" gradientTransform="matrix(6.123234e-17 -1 -1 -6.123234e-17 -5707.8901 8554.0996)"> <stop offset="0" style="stop-color:#FF66BF"></stop> <stop offset="1" style="stop-color:#FF0095"></stop> </linearGradient> <polygon style="fill:url(#SVGID_00000132046462728170602780000008312980279943351215_);" points="806.9,165.6 806.9,143.2 829.4,143.2 "></polygon> </g> <path class="st1" d="M144.3,117.5c0,14.5-6,26.5-18,35.8c-12.7,9.8-29.8,14.7-51.3,14.7s-39.7-4.4-51.8-13.1 c-11.8-8.6-17.7-20.6-17.7-36.1v-4.7H48c0,11.9,2,20.1,6.1,24.7c3.8,4.1,10.6,6.2,20.3,6.2c18.9,0,28.4-8.6,28.4-25.7 c0-8.3-1.9-13.9-5.8-16.9c-4.1-3.1-13.9-6.3-29.6-9.5c-21.8-4.5-37.3-10.3-46.6-17.5c-9-6.9-13.5-16.2-13.5-28 c0-13.2,6-24.3,18.1-33.2C38.3,4.7,55.4,0,76.8,0c18.8,0,34,4.2,45.6,12.5C133.4,20.5,139,30.3,139,42v4.7H97.9 c-0.3-9.2-2.2-15.6-5.9-19c-3.3-3.2-9.1-4.8-17.1-4.8C58,22.9,49.5,29,49.5,41.2c0,8.6,1.8,14.4,5.5,17.3 c3.9,3.3,13.9,7.1,29.9,11.3c21.9,5.7,37,11.8,45.4,18.1C139.6,95.1,144.3,104.9,144.3,117.5L144.3,117.5z"></path> <path class="st1" d="M354.2,26.4h-49.7v139.2h-41.6V26.4h-49.5v-24h140.9L354.2,26.4L354.2,26.4z"></path> <path class="st1" d="M819.5,49.8c0,15.2-5.6,27.3-16.9,36.4c-11.9,9.7-28.2,14.6-49.2,14.6c-5,0-11.6-0.5-19.5-1.5v66.3h-41.8V2.3 h57.3c23.5,0,41.4,4.8,53.8,14.4C814.1,25.1,819.5,36.2,819.5,49.8z M777,50.2c0-9-2.1-15.4-6.4-19.1s-11.2-5.6-20.9-5.6h-15.9 v50.2c6,1.3,12.6,2,19.8,2c8.4,0,14.3-1.7,17.6-5.2C775.1,68.5,777,61.1,777,50.2L777,50.2z"></path> </g> </g> </svg> 