<?xml version="1.0" encoding="UTF-8"?> <svg xmlns="http://www.w3.org/2000/svg" width="145" height="140" viewBox="0 0 145 140" fill="none"><path d="M143.411 138.868H0.981445V0.941406H143.411V138.868Z" fill="url(#paint0_linear_630_1739)"></path><path d="M0 0V139.851H144.353V0H0ZM143.411 138.868H0.98227V0.94134H143.411V138.868Z" fill="url(#paint1_linear_630_1739)"></path><mask id="mask0_630_1739" style="mask-type:luminance" maskUnits="userSpaceOnUse" x="0" y="0" width="144" height="139"><path d="M143.411 138.864H0.982178V0.9375H143.411V138.864Z" fill="white"></path></mask><g mask="url(#mask0_630_1739)"><path fill-rule="evenodd" clip-rule="evenodd" d="M106.289 60.3284C105.225 57.5453 103.056 51.5289 108.663 56.6448C110.423 58.241 112.224 60.8195 113.288 63.8072C120.491 84.2712 108.745 49.1141 121.842 75.3898C123.274 78.2957 124.175 81.0379 125.116 84.2712C121.964 78.132 118.608 76.1265 115.743 74.3666C110.627 71.1333 108.663 66.5903 106.289 60.3284Z" fill="url(#paint2_linear_630_1739)"></path><path fill-rule="evenodd" clip-rule="evenodd" d="M26.9282 58.5677C23.9405 59.7137 17.3511 62.0057 22.9582 55.9893C24.7181 54.1066 27.5012 52.142 30.7754 50.9961C52.9993 43.2607 14.8136 55.8256 43.3812 41.7464C46.5327 40.1911 49.5204 39.2498 52.9993 38.2266C46.328 41.6236 44.1589 45.2252 42.1943 48.3358C38.6745 53.9019 33.7222 56.0302 26.9282 58.5677Z" fill="url(#paint3_linear_630_1739)"></path><path fill-rule="evenodd" clip-rule="evenodd" d="M23.6957 71.543C23.0408 72.116 22.2632 70.929 22.959 70.3151C23.491 69.6603 24.6779 69.7831 25.0054 70.7244C25.4146 71.5839 25.0463 72.8936 24.0231 73.4256C23.0408 73.9986 21.6083 73.9577 20.7489 72.9345C19.8894 71.9522 19.4801 70.2333 20.094 68.678C20.6261 67.0818 22.2632 65.8131 24.1459 65.4038C28.8935 64.3397 33.1909 70.0696 31.7994 74.4488C30.6943 78.0505 25.9467 80.1378 20.7079 78.9918C9.32997 76.5771 5.81018 63.5211 12.8907 55.0899C16.697 50.3014 22.2632 47.8457 28.5661 46.9862C32.1677 46.2904 31.6357 46.2495 28.7707 46.6588C25.5374 47.2727 21.4856 47.9685 18.4569 49.7693C16.1649 51.1199 14.1185 52.8798 12.4814 54.8853C5.03255 63.603 8.71606 77.191 20.667 79.5239C26.3151 80.629 31.431 78.1733 32.4542 74.1624C33.6411 69.4556 29.0163 63.6439 24.0231 64.8308C22.0176 65.3219 20.2577 66.7135 19.6847 68.5143C19.0708 70.2742 19.5619 72.116 20.5033 73.1392C21.4856 74.2851 23.0817 74.2442 24.1049 73.5894C25.21 72.9754 25.5783 71.543 25.0872 70.6835C24.7189 69.7012 23.4501 69.6194 22.918 70.2742C22.2632 70.929 23.0408 72.1569 23.6957 71.543Z" fill="url(#paint4_linear_630_1739)"></path><path fill-rule="evenodd" clip-rule="evenodd" d="M69.4124 33.1518C55.6197 38.5543 35.1967 33.1109 34.5827 13.8339C34.3781 7.03984 37.857 0.204885 45.4286 -2.08708C59.8352 -6.42544 58.8939 13.5064 47.0657 13.3018C43.3004 12.1558 47.1067 9.78201 49.9307 10.4369C54.2281 11.4191 55.9471 6.01664 54.4328 2.04664C49.9307 -9.65874 30.1216 4.21582 36.3836 20.6279C41.1312 33.2337 56.7247 37.5721 69.4124 33.1518Z" fill="url(#paint5_linear_630_1739)"></path><path fill-rule="evenodd" clip-rule="evenodd" d="M27.0112 -5.19769C24.801 -10.4365 20.4627 -14.4065 13.9142 -15.2659C-27.6685 -20.7503 -22.5525 53.2474 24.4327 48.1314C30.7356 47.4356 41.827 43.0154 52.8367 38.6361C65.3197 33.6838 95.197 27.2991 114.024 47.3947C95.77 25.0071 63.8463 32.9062 52.7139 37.6538C39.1258 43.5065 24.842 49.8094 12.932 47.0672C-23.2483 38.8407 -21.693 -13.6698 7.89782 -15.225C18.4981 -15.798 25.0057 -10.8048 27.3386 -3.64242C32.2499 11.3781 14.6509 33.3973 5.8105 13.0562C4.86916 10.8461 3.47761 9.20893 4.17339 12.8924C8.02061 33.9294 35.7288 15.6346 27.0112 -5.19769Z" fill="url(#paint6_linear_630_1739)"></path><path fill-rule="evenodd" clip-rule="evenodd" d="M123.191 13.7099C123.314 12.523 123.682 9.94454 124.706 12.8095C125.033 13.7099 125.197 14.9787 125.033 16.2474C123.846 24.9242 126.138 10.1492 125.974 22.0183C125.974 23.328 125.77 24.4739 125.524 25.8246C125.524 23.0415 124.706 21.6908 124.01 20.5039C122.741 18.4166 122.905 16.4111 123.191 13.7099Z" fill="url(#paint7_linear_630_1739)"></path><path fill-rule="evenodd" clip-rule="evenodd" d="M111.691 24.3524C112.346 24.1068 112.55 25.2119 111.855 25.4984C111.282 25.8258 110.422 25.3756 110.463 24.598C110.381 23.8613 111.077 23.0018 111.977 22.9199C112.837 22.7971 113.901 23.2474 114.228 24.2296C114.597 25.2119 114.351 26.5625 113.492 27.5857C112.632 28.6089 111.036 29.0591 109.563 28.8135C108.089 28.568 106.575 27.5448 106.002 25.7849C105.47 24.0659 105.552 21.8967 106.616 19.9322C108.089 16.8626 112.182 14.9799 116.152 15.4711C120.122 15.8394 123.806 18.7862 124.911 22.9199C126.179 27.1764 125.279 31.5148 123.192 35.6076C122.087 38.0223 122.332 37.7358 123.314 35.8531C124.297 33.684 125.484 30.9827 125.688 28.4452C125.852 26.5216 125.729 24.598 125.238 22.7971C124.174 18.5406 120.368 15.4711 116.275 15.0618C112.223 14.4888 107.844 16.4533 106.247 19.7276C105.101 21.8558 105.02 24.1478 105.634 25.9895C106.247 27.8722 107.926 29.0182 109.522 29.2638C111.159 29.4684 112.837 28.9773 113.819 27.8313C114.801 26.7262 114.965 25.2119 114.556 24.1887C114.147 23.0836 112.96 22.6334 112.059 22.7971C111.077 22.9199 110.381 23.8613 110.463 24.6389C110.463 25.4575 111.363 25.9077 111.936 25.5802C112.55 25.2528 112.305 24.1068 111.691 24.3524Z" fill="url(#paint8_linear_630_1739)"></path><path fill-rule="evenodd" clip-rule="evenodd" d="M67.9399 71.2541C66.794 69.2486 70.3956 67.9389 71.6235 70.0262C73.015 71.7861 71.9509 74.8557 69.3315 75.1422C66.8758 75.7561 63.6834 74.0372 62.9058 71.0085C62.0054 68.1845 62.9058 64.4191 66.1391 62.782C69.2087 61.063 73.8336 61.063 77.6399 63.5187C86.3575 68.7984 85.6617 80.9131 79.2361 87.4206C64.5429 102.318 42.5237 80.2173 49.0722 61.5951C58.6902 34.3371 97.6536 27.0929 117.135 52.6728C127.367 65.3195 130.56 81.2814 129.127 98.1846C128.841 108.007 129.25 106.657 129.864 98.9213C130.191 90.1628 131.951 79.6852 129.086 70.722C126.917 63.9689 122.128 57.1749 117.913 51.8133C97.7764 25.0056 58.3219 32.7819 48.049 60.531C40.682 80.4629 63.929 104.569 80.0546 88.9349C87.3398 81.8953 87.9537 68.3482 78.131 62.5774C73.8745 59.958 68.8813 60.1217 65.5661 62.0862C62.0463 64.0098 61.2278 68.1845 62.2919 71.1722C63.2332 74.4055 66.753 76.1654 69.2906 75.4287C72.0737 75.0195 73.0559 71.7861 71.5825 70.0262C70.3547 67.898 66.753 69.2486 67.9399 71.2541Z" fill="url(#paint9_linear_630_1739)"></path><path fill-rule="evenodd" clip-rule="evenodd" d="M103.545 3.19319C104.2 7.1632 107.925 12.6475 113.45 10.4784C116.438 9.29145 117.665 3.72526 114.146 2.33371C113.204 1.96536 111.403 2.45649 110.544 3.39783C109.48 4.54381 110.421 5.77165 111.363 6.59021C109.766 5.89443 109.03 4.62567 109.684 2.98855C110.217 1.597 111.69 1.02401 113.286 1.1468C118.361 1.51515 117.829 9.45516 113.654 11.0104C107.556 13.3024 103.136 7.57248 101.54 3.39783C94.4184 -14.6923 123.273 -22.4686 132.563 -4.21476C135.101 0.73752 135.101 6.05815 133.873 11.3378C130.599 23.8209 123.15 34.6258 120.162 47.2316C117.87 56.8906 117.788 66.7542 122.208 75.8402C116.642 65.9357 117.011 56.072 118.279 49.9738C120.653 33.1933 141.281 12.361 130.353 -4.33754C121.308 -18.0893 100.885 -12.605 103.545 3.19319Z" fill="url(#paint10_linear_630_1739)"></path><path fill-rule="evenodd" clip-rule="evenodd" d="M155.525 65.5255C159.208 64.0112 162.032 60.9416 162.646 56.3577C166.575 27.1761 114.638 30.5731 118.076 63.6019C118.526 68.0221 121.636 75.8393 124.665 83.5747C126.752 88.8953 129.167 98.6771 127.653 108.459C126.671 114.885 124.379 120.451 121.227 128.595C124.952 120.123 127.039 114.762 128.062 108.172C129.617 98.1451 127.08 88.1586 125.32 83.4929C121.595 73.7929 116.889 63.8884 118.812 55.5391C124.706 30.082 161.582 31.3507 162.605 52.1421C162.974 59.591 159.454 64.134 154.42 65.7711C143.86 69.1681 128.43 56.7669 142.755 50.6278C144.31 49.9729 145.456 48.9906 142.878 49.4818C128.103 52.0602 140.873 71.5828 155.525 65.5255Z" fill="url(#paint11_linear_630_1739)"></path><path fill-rule="evenodd" clip-rule="evenodd" d="M82.5508 -15.716C92.0052 -12.7692 99.7815 -15.5114 102.687 -22.8784C107.23 -34.461 96.1798 -46.1254 82.5917 -48.1718C72.6053 -49.6862 56.6435 -44.3246 55.9886 -23.7379C55.5793 -10.7228 62.005 5.28002 77.8032 16.658C101.582 33.7658 131.869 49.1956 131.009 88.6092C130.887 93.5615 130.723 99.0868 129.413 104.776C128.513 108.746 127.326 113.166 125.853 117.545C123.151 125.731 121.719 128.391 119.713 132.77L119.222 132.893C133.915 97.4906 133.793 74.1207 120.409 55.3758C111.323 42.1151 96.057 31.965 76.7391 18.0495C61.0227 6.58971 53.7785 -10.1498 54.1878 -23.2058C54.8426 -43.8335 69.6995 -52.5511 83.2875 -50.3819C96.8756 -48.2537 109.195 -35.2386 104.324 -22.4282C101.664 -15.4295 93.6832 -9.24939 84.6381 -10.1907C77.7213 -10.8865 72.81 -18.7447 82.5508 -15.716Z" fill="url(#paint12_linear_630_1739)"></path><path fill-rule="evenodd" clip-rule="evenodd" d="M56.4785 149.012C68.6341 150.077 83.5319 140.991 79.5618 125.602C78.1294 120.158 73.7501 115.574 67.2425 115.574C54.8005 115.533 60.2439 131.045 69.5345 128.139C72.2767 126.379 68.675 125.397 66.5877 126.543C63.4363 128.303 60.7759 124.456 61.0624 120.977C61.881 110.663 80.8306 117.007 79.6846 131.454C78.8661 142.464 67.529 149.544 56.4785 149.012Z" fill="url(#paint13_linear_630_1739)"></path><path fill-rule="evenodd" clip-rule="evenodd" d="M81.0755 108.741C81.6076 104.075 84.1042 99.9005 89.0974 97.6904C120.735 83.6522 133.995 143.407 95.6049 150.365C90.448 151.306 80.6253 150.365 70.8845 149.505C59.834 148.482 34.7042 150.446 24.5132 170.747C33.722 148.768 60.8162 147.541 70.7617 148.728C82.8764 150.16 95.6459 151.797 104.445 146.886C131.212 131.865 117.665 90.6918 93.886 96.3398C85.373 98.3862 81.362 103.83 81.1983 110.051C80.83 123.066 99.9024 136.408 102.153 118.236C102.399 116.272 103.095 114.635 103.422 117.745C105.264 135.262 79.0291 127.281 81.0755 108.741Z" fill="url(#paint14_linear_630_1739)"></path><path fill-rule="evenodd" clip-rule="evenodd" d="M22.468 133.337C22.8772 136.652 21.2401 141.85 16.3288 141.441C13.7094 141.195 11.4174 137.102 13.8731 135.179C14.5279 134.647 16.0832 134.606 16.9836 135.179C18.0887 135.834 17.6385 137.02 17.0655 137.921C18.1705 137.02 18.457 135.834 17.5566 134.688C16.8199 133.705 15.5102 133.582 14.2824 134.074C10.3533 135.547 12.6043 141.686 16.2878 141.973C21.6494 142.382 23.7776 136.816 24.1051 133.132C25.4557 117.089 0.817096 117.702 -2.29342 134.319C-3.15291 138.821 -1.88414 143.037 0.325962 146.925C5.85123 156.052 14.2824 162.846 19.603 172.137C23.6958 179.217 26.0287 187.034 24.6781 195.261C26.7654 186.134 24.1869 178.399 21.7313 173.856C15.9195 161.127 -5.28116 149.462 -0.533523 133.664C3.43648 120.608 20.8718 120.199 22.468 133.337Z" fill="url(#paint15_linear_630_1739)"></path><path fill-rule="evenodd" clip-rule="evenodd" d="M34.6233 113.448C27.8293 117.991 21.0352 117.622 16.9834 112.465C10.6805 104.362 16.6969 92.5336 26.9698 87.745C34.5005 84.2252 48.416 84.7164 53.7366 100.883C57.0927 111.115 55.783 125.235 45.9194 137.964C31.1035 157.077 10.7214 176.354 20.6669 207.377C21.8947 211.265 23.3272 215.604 25.701 219.778C27.3381 222.684 29.3027 225.918 31.5128 229.069C35.5646 234.881 37.3245 236.682 39.903 239.669H40.3123C20.4213 215.072 15.0598 196.531 21.2399 178.605C25.3327 165.958 35.0326 154.376 47.0654 138.823C56.8881 126.135 58.6889 111.156 55.3328 100.965C50.0122 84.7982 36.1785 81.3603 25.9056 86.2716C15.6327 91.1421 8.96149 104.321 15.7965 113.325C19.5209 118.236 27.2972 121.265 34.2549 118.4C39.5756 116.108 41.6629 108.741 34.6233 113.448Z" fill="url(#paint16_linear_630_1739)"></path></g><path d="M108.416 43.9127C111.486 48.3329 113 54.1037 113 61.1433C113 68.1829 111.527 73.9128 108.58 78.374C105.633 82.7942 101.663 85.0043 96.7518 85.0043C92.0041 85.0043 88.116 82.7942 85.0464 78.374C81.9768 73.9538 80.4625 68.2239 80.4625 61.1433C80.4625 54.0628 81.9359 48.3329 84.8827 43.9127C87.8295 39.4925 91.7995 37.2824 96.7518 37.2824C101.458 37.2824 105.347 39.4925 108.416 43.9127ZM96.6699 35.8499C88.6071 35.8499 81.854 38.3056 76.4106 43.2578C70.9672 48.2101 68.266 54.1856 68.266 61.1843C68.266 68.142 71.0491 74.1175 76.5743 79.0698C82.1405 84.022 88.8118 86.4777 96.6699 86.4777C104.733 86.4777 111.486 84.022 116.888 79.0698C122.332 74.1175 125.033 68.1829 125.033 61.1843C125.033 54.4312 122.373 48.4966 117.052 43.4625C111.731 38.3874 104.937 35.8499 96.6699 35.8499ZM25.087 38.8786C21.7719 41.4161 20.1348 44.6903 20.1348 48.7831C20.1348 51.9755 20.9942 54.5949 22.7541 56.6822C24.514 58.7695 27.9111 60.6931 32.9861 62.494C40.3122 64.7041 46.0421 66.5867 50.2168 68.1829C54.3914 69.7791 56.4787 72.2348 56.4787 75.5909C56.4787 77.5963 55.6192 79.5609 53.8593 81.4436C52.1404 83.3262 49.4391 84.2676 45.8784 84.2676C40.6396 84.2676 35.5237 82.344 30.5714 78.4558C25.6191 74.5677 22.7132 69.4108 21.8947 62.9851H20.7078V85.5773H21.731C22.8769 82.2621 24.7596 80.5841 27.2971 80.5841C29.4663 80.5841 31.9629 81.4026 34.8279 83.0807C37.6928 84.7587 41.3354 85.5773 45.8375 85.5773C50.8716 85.5773 54.8825 84.1857 57.9931 81.4026C61.0627 78.6195 62.6179 75.1816 62.6179 71.0479C62.6179 65.9728 60.6943 62.2484 56.8471 59.9564C52.9999 57.6645 46.9016 55.4134 38.5523 53.2852C30.5305 51.4844 26.5195 48.6194 26.5195 44.6903C26.5195 42.8895 27.3381 41.0477 28.9752 39.1651C30.6123 37.2824 33.3135 36.341 37.0789 36.341C41.5401 36.341 45.7966 37.7326 49.8075 40.5157C53.8184 43.2988 56.5606 47.6781 58.034 53.6126H59.3028V36.9549H58.034C57.3791 39.5743 56.356 40.884 54.9235 40.884C54.064 40.884 51.9357 39.9018 48.5797 37.9781C45.2236 36.0545 41.2536 35.0723 36.6287 35.0723C32.2494 35.0723 28.4022 36.341 25.087 38.8786Z" fill="#020202"></path><path d="M123.683 102.807C123.601 102.807 123.519 102.848 123.519 102.929C123.519 103.38 123.274 103.625 123.028 103.625C122.782 103.625 122.537 103.38 122.537 102.929V97.6089C122.537 97.4861 122.455 97.4451 122.332 97.4451H120.204V98.1C119.508 97.4861 118.894 97.3633 118.28 97.3633C116.275 97.3633 115.252 99.0823 115.252 100.924C115.252 103.011 116.643 104.526 118.158 104.526C118.894 104.526 119.631 104.198 120.286 103.38C120.613 104.198 121.309 104.526 122.005 104.526C122.946 104.526 123.806 103.83 123.806 103.011C123.847 102.848 123.765 102.807 123.683 102.807ZM120.163 102.07C120.163 103.257 119.549 103.83 118.935 103.83C118.321 103.83 117.707 103.257 117.707 102.07V99.4097C117.707 98.3456 118.321 97.8135 118.935 97.8135C119.549 97.8135 120.163 98.3456 120.163 99.4097V102.07Z" fill="#020202"></path><path d="M111.323 98.6728V102.888C111.323 103.912 112.264 104.444 113.164 104.444C114.106 104.444 115.006 103.912 115.006 102.888C115.006 102.807 114.924 102.766 114.842 102.766C114.761 102.766 114.679 102.807 114.679 102.888C114.679 103.42 114.433 103.666 114.147 103.666C113.86 103.666 113.655 103.42 113.655 102.888V99.6551C113.655 97.8952 112.305 97.2812 111.118 97.2812C110.218 97.2812 109.604 97.6087 109.153 98.0589H109.031V97.5677C109.031 97.4859 108.99 97.404 108.908 97.404H106.125C106.043 97.404 106.002 97.4859 106.002 97.5677C106.002 97.6496 106.043 97.7315 106.125 97.7315H106.861V104.28H109.194V98.4272C109.604 97.977 110.054 97.6905 110.586 97.6905C110.995 97.7724 111.323 98.0589 111.323 98.6728Z" fill="#020202"></path><path d="M104.734 97.609C104.734 97.4862 104.652 97.4453 104.57 97.4453H101.664C101.582 97.4453 101.542 97.5272 101.542 97.609C101.542 97.6909 101.582 97.7727 101.664 97.7727H102.401V102.889C102.401 103.912 103.301 104.444 104.243 104.444C105.143 104.444 106.084 103.912 106.084 102.889C106.084 102.807 106.003 102.766 105.921 102.766C105.839 102.766 105.757 102.807 105.757 102.889C105.757 103.421 105.512 103.666 105.225 103.666C104.979 103.666 104.734 103.421 104.734 102.889V97.609Z" fill="#020202"></path><path d="M102.646 95.1537C102.646 95.7676 103.179 96.2997 103.792 96.2997C104.447 96.2997 104.979 95.7676 104.979 95.1537C104.979 94.4989 104.447 93.9668 103.792 93.9668C103.179 93.9668 102.646 94.4989 102.646 95.1537Z" fill="#020202"></path><path d="M97.9393 98.6728V102.888C97.9393 103.912 98.8806 104.444 99.781 104.444C100.681 104.444 101.623 103.912 101.623 102.888C101.623 102.807 101.541 102.766 101.459 102.766C101.377 102.766 101.295 102.807 101.295 102.888C101.295 103.42 101.05 103.666 100.763 103.666C100.518 103.666 100.272 103.42 100.272 102.888V99.6551C100.272 97.8952 98.9215 97.2812 97.7346 97.2812C96.8342 97.2812 96.2203 97.6087 95.7701 98.0589H95.6473V97.5677C95.6473 97.4859 95.6064 97.404 95.5245 97.404H92.7414C92.6596 97.404 92.6187 97.4859 92.6187 97.5677C92.6187 97.6496 92.6596 97.7315 92.7414 97.7315H93.4781V104.28H95.811V98.4272C96.2203 97.977 96.6705 97.6905 97.2026 97.6905C97.6119 97.7724 97.9393 98.0589 97.9393 98.6728Z" fill="#020202"></path><path d="M92.4958 102.807C92.4139 102.807 92.3321 102.848 92.3321 102.929C92.3321 103.38 92.0865 103.625 91.8409 103.625C91.5953 103.625 91.3498 103.38 91.3498 102.929V97.6089C91.3498 97.4861 91.2679 97.4451 91.1451 97.4451H88.976V98.1C88.2802 97.4861 87.6663 97.3633 87.0523 97.3633C85.0469 97.3633 84.0237 99.0823 84.0237 100.924C84.0237 103.011 85.4152 104.526 86.9296 104.526C87.6663 104.526 88.403 104.198 89.0578 103.38C89.3852 104.198 90.081 104.526 90.7768 104.526C91.7181 104.526 92.5776 103.83 92.5776 103.011C92.6595 102.848 92.5776 102.807 92.4958 102.807ZM88.976 102.07C88.976 103.257 88.362 103.83 87.7481 103.83C87.1342 103.83 86.5203 103.257 86.5203 102.07V99.4097C86.5203 98.3456 87.1342 97.8135 87.7481 97.8135C88.362 97.8135 88.976 98.3456 88.976 99.4097V102.07Z" fill="#020202"></path><path d="M80.7496 106.081C80.7496 107.104 79.972 107.309 79.1535 107.309C78.4986 107.309 77.8028 107.145 77.4345 106.941V106.9C78.0893 106.818 78.4168 106.368 78.4168 105.876C78.4168 105.099 77.8438 104.73 77.2298 104.73C76.6569 104.73 76.0429 105.099 76.0429 105.876C76.0429 106.9 77.6391 107.636 79.3581 107.636C81.1589 107.636 83.0825 106.818 83.0825 104.73V97.568C83.0825 97.4862 83.0416 97.4043 82.9597 97.4043H80.7496V102.602C80.7496 103.503 80.1767 103.912 79.5627 103.912C78.9897 103.912 78.3758 103.462 78.3758 102.602V97.568C78.3758 97.4862 78.294 97.4043 78.253 97.4043H75.4699C75.3881 97.4043 75.3472 97.4862 75.3472 97.568C75.3472 97.6499 75.3881 97.7317 75.4699 97.7317H76.0839V101.865C76.0839 103.462 77.4754 104.444 78.867 104.444C79.5218 104.444 80.1767 104.239 80.7496 103.789V106.081Z" fill="#020202"></path><path d="M74.1189 94.1305C74.1189 94.0077 74.037 93.9668 73.9143 93.9668H71.0493C70.9674 93.9668 70.9265 94.0487 70.9265 94.1305C70.9265 94.2124 70.9674 94.2942 71.0493 94.2942H71.786V102.889C71.786 103.912 72.6864 104.444 73.6278 104.444C74.5691 104.444 75.4695 103.912 75.4695 102.889C75.4695 102.807 75.3877 102.766 75.3058 102.766C75.2239 102.766 75.1421 102.807 75.1421 102.889C75.1421 103.421 74.8965 103.667 74.61 103.667C74.3645 103.667 74.1189 103.421 74.1189 102.889V94.1305Z" fill="#020202"></path><path d="M67.2015 97.3242C65.4826 97.3242 63.7227 98.552 63.7227 100.885C63.7227 103.013 65.6463 104.446 67.6108 104.446C69.0842 104.446 70.3939 103.504 70.4758 102.317C70.4758 102.236 70.3939 102.195 70.3121 102.195C70.2302 102.195 70.1483 102.236 70.1483 102.317C69.9846 103.504 68.7977 104.118 67.6517 104.118C66.6285 104.118 66.1783 103.3 66.1783 101.09H70.5576C70.6395 101.09 70.6395 101.008 70.6395 101.008C70.6395 98.5111 68.9205 97.3242 67.2015 97.3242ZM68.4703 100.762H66.1783V99.2069C66.1783 98.1428 66.7513 97.6107 67.3243 97.6107C67.8973 97.6107 68.4703 98.1428 68.4703 99.2069V100.762Z" fill="#020202"></path><path d="M62.1264 94.7047C62.1264 94.5819 62.0445 94.541 61.9627 94.541C61.8808 94.541 61.758 94.5819 61.758 94.6229C61.758 94.8275 61.6762 95.1959 61.4306 95.1959C60.9804 95.1959 60.653 94.541 59.2614 94.541C57.4606 94.541 56.1509 95.3596 56.1509 97.6106C56.1509 100.967 61.5534 100.476 61.5534 102.44C61.5534 103.545 60.5711 104.118 59.4252 104.118C57.9927 104.118 56.3965 103.218 56.3965 101.376C56.3965 101.294 56.2328 101.253 56.1509 101.253C56.0691 101.253 55.9463 101.294 55.9463 101.335C55.9463 102.154 56.0281 104.036 56.0281 104.282C56.0281 104.405 56.0691 104.446 56.2328 104.446C56.3556 104.446 56.4374 104.364 56.4374 104.282C56.4374 104.118 56.5602 103.832 56.8058 103.832C57.0513 103.832 58.1155 104.405 59.1796 104.405C61.0214 104.405 63.0268 103.381 63.0268 101.294C63.0268 97.4469 57.5016 98.4292 57.5016 96.3418C57.5016 95.3596 58.2792 94.8684 59.1796 94.8684C60.4074 94.8684 61.8399 95.7689 61.8399 97.5288C61.8399 97.5697 62.0036 97.6106 62.0445 97.6106C62.0855 97.6106 62.2083 97.5697 62.2083 97.5288C62.2083 96.7511 62.1264 94.9503 62.1264 94.7047Z" fill="#020202"></path><path d="M50.8711 102.807C50.7892 102.807 50.7074 102.848 50.7074 102.929C50.7074 103.38 50.4618 103.625 50.2162 103.625C49.9707 103.625 49.7251 103.38 49.7251 102.929V97.6089C49.7251 97.4861 49.6433 97.4451 49.5205 97.4451H47.3922V98.1C46.6964 97.4861 46.0825 97.3633 45.4686 97.3633C43.4631 97.3633 42.4399 99.0823 42.4399 100.924C42.4399 103.011 43.8315 104.526 45.3458 104.526C46.0825 104.526 46.8192 104.198 47.4741 103.38C47.8015 104.198 48.4973 104.526 49.193 104.526C50.1344 104.526 50.9939 103.83 50.9939 103.011C50.9939 102.848 50.912 102.807 50.8711 102.807ZM47.3513 102.07C47.3513 103.257 46.7374 103.83 46.1235 103.83C45.5095 103.83 44.8956 103.257 44.8956 102.07V99.4097C44.8956 98.3456 45.5095 97.8135 46.1235 97.8135C46.7374 97.8135 47.3513 98.3456 47.3513 99.4097V102.07Z" fill="#020202"></path><path d="M39.4123 102.522C38.43 102.522 37.4068 102.686 36.6701 102.686C36.138 102.686 35.7697 102.563 35.7697 102.195C35.7697 102.031 35.8925 101.622 36.4245 101.458C36.9157 101.622 37.5296 101.704 38.2663 101.704C40.5583 101.704 41.5815 100.844 41.5815 99.4936C41.5815 98.5523 41.0903 97.8565 39.9853 97.5291C39.9853 97.1607 40.0262 96.7924 40.1081 96.5877L40.1899 96.465V96.5059C40.1899 97.1198 40.6401 97.4063 41.0903 97.4063C41.5405 97.4063 42.0317 97.0789 42.0317 96.5059C42.0317 95.892 41.4996 95.6055 40.9675 95.6055C40.681 95.6055 40.3945 95.6873 40.1899 95.851C39.8216 96.1375 39.6988 96.8742 39.6578 97.4472C39.2486 97.3654 38.7984 97.3244 38.2663 97.3244C35.9743 97.3244 34.9511 98.2249 34.9511 99.5345C34.9511 100.312 35.2786 100.926 36.0153 101.294C35.033 101.704 34.7056 102.522 34.7056 103.054C34.7056 103.709 35.0739 104.118 35.5651 104.405C35.1558 104.405 34.7874 104.569 34.7874 105.224C34.7874 106.574 36.9566 107.065 38.43 107.065C41.0494 107.065 42.1544 106.042 42.1544 104.773C42.1544 103.505 41.0494 102.522 39.4123 102.522ZM37.4068 99.248C37.4068 98.1839 37.5705 97.6519 38.2663 97.6519C38.9621 97.6519 39.1258 98.2249 39.1258 99.248V99.821C39.1258 100.885 38.9621 101.417 38.2663 101.417C37.6115 101.417 37.4068 100.885 37.4068 99.821V99.248ZM38.2663 106.82C36.7929 106.82 35.4013 106.451 35.4013 105.305C35.4013 105.06 35.5241 104.814 35.8106 104.61C36.4655 104.855 37.2431 104.978 37.8979 104.978C38.7574 104.978 39.1667 104.896 40.0262 104.896C40.5583 104.896 40.9675 105.305 40.9675 105.756C41.0085 106.41 39.6578 106.82 38.2663 106.82Z" fill="#020202"></path><path d="M32.8225 94.1305C32.8225 94.0077 32.7406 93.9668 32.6179 93.9668H29.7529C29.6711 93.9668 29.6301 94.0487 29.6301 94.1305C29.6301 94.2124 29.6711 94.2942 29.7529 94.2942H30.4896V102.889C30.4896 103.912 31.39 104.444 32.3314 104.444C33.2318 104.444 34.1731 103.912 34.1731 102.889C34.1731 102.807 34.0913 102.766 34.0094 102.766C33.9276 102.766 33.8457 102.807 33.8457 102.889C33.8457 103.421 33.6001 103.667 33.3136 103.667C33.0681 103.667 32.8225 103.421 32.8225 102.889V94.1305Z" fill="#020202"></path><path d="M24.3508 94.582C21.9769 94.582 19.644 96.2191 19.644 99.5343C19.644 102.809 22.0179 104.446 24.3917 104.446C26.7655 104.446 29.1393 102.809 29.1393 99.5343C29.0984 96.2601 26.7246 94.582 24.3508 94.582ZM26.3971 100.107C26.3971 102.809 26.0697 104.118 24.3917 104.118C22.7136 104.118 22.3453 102.809 22.3453 100.107V98.9613C22.3453 96.2601 22.7136 94.9504 24.3917 94.9504C26.0697 94.9504 26.3971 96.301 26.3971 98.9613V100.107Z" fill="#020202"></path><defs><linearGradient id="paint0_linear_630_1739" x1="72.1866" y1="138.877" x2="72.1866" y2="0.945862" gradientUnits="userSpaceOnUse"><stop offset="0.00837989" stop-color="#DBDCEB"></stop><stop offset="0.0532826" stop-color="#E3E3EF"></stop><stop offset="0.1805" stop-color="#F3F3F8"></stop><stop offset="0.3249" stop-color="#FCFCFD"></stop><stop offset="0.5223" stop-color="white"></stop><stop offset="0.7704" stop-color="#FDFDFE"></stop><stop offset="0.8626" stop-color="#F6F6FA"></stop><stop offset="0.9286" stop-color="#EAEBF3"></stop><stop offset="0.9777" stop-color="#DBDCEB"></stop></linearGradient><linearGradient id="paint1_linear_630_1739" x1="0.00826743" y1="69.9112" x2="144.367" y2="69.9112" gradientUnits="userSpaceOnUse"><stop offset="0.00837989" stop-color="#BDBFD9"></stop><stop offset="0.1972" stop-color="#D8D9E9"></stop><stop offset="0.3677" stop-color="#E8E9F2"></stop><stop offset="0.4972" stop-color="#EEEFF5"></stop><stop offset="0.6779" stop-color="#E1E2EE"></stop><stop offset="0.9944" stop-color="#C1C2DB"></stop></linearGradient><linearGradient id="paint2_linear_630_1739" x1="3.3677" y1="69.4705" x2="142.062" y2="69.4705" gradientUnits="userSpaceOnUse"><stop offset="0.00837989" stop-color="#BDBFD9"></stop><stop offset="0.1972" stop-color="#D8D9E9"></stop><stop offset="0.3677" stop-color="#E8E9F2"></stop><stop offset="0.4972" stop-color="#EEEFF5"></stop><stop offset="0.6779" stop-color="#E1E2EE"></stop><stop offset="0.9944" stop-color="#C1C2DB"></stop></linearGradient><linearGradient id="paint3_linear_630_1739" x1="3.36606" y1="49.1203" x2="142.061" y2="49.1203" gradientUnits="userSpaceOnUse"><stop offset="0.00837989" stop-color="#BDBFD9"></stop><stop offset="0.1972" stop-color="#D8D9E9"></stop><stop offset="0.3677" stop-color="#E8E9F2"></stop><stop offset="0.4972" stop-color="#EEEFF5"></stop><stop offset="0.6779" stop-color="#E1E2EE"></stop><stop offset="0.9944" stop-color="#C1C2DB"></stop></linearGradient><linearGradient id="paint4_linear_630_1739" x1="3.36682" y1="63.0693" x2="142.062" y2="63.0693" gradientUnits="userSpaceOnUse"><stop offset="0.00837989" stop-color="#BDBFD9"></stop><stop offset="0.1972" stop-color="#D8D9E9"></stop><stop offset="0.3677" stop-color="#E8E9F2"></stop><stop offset="0.4972" stop-color="#EEEFF5"></stop><stop offset="0.6779" stop-color="#E1E2EE"></stop><stop offset="0.9944" stop-color="#C1C2DB"></stop></linearGradient><linearGradient id="paint5_linear_630_1739" x1="3.36707" y1="16.2303" x2="142.062" y2="16.2303" gradientUnits="userSpaceOnUse"><stop offset="0.00837989" stop-color="#BDBFD9"></stop><stop offset="0.1972" stop-color="#D8D9E9"></stop><stop offset="0.3677" stop-color="#E8E9F2"></stop><stop offset="0.4972" stop-color="#EEEFF5"></stop><stop offset="0.6779" stop-color="#E1E2EE"></stop><stop offset="0.9944" stop-color="#C1C2DB"></stop></linearGradient><linearGradient id="paint6_linear_630_1739" x1="3.36715" y1="16.4138" x2="142.062" y2="16.4138" gradientUnits="userSpaceOnUse"><stop offset="0.00837989" stop-color="#BDBFD9"></stop><stop offset="0.1972" stop-color="#D8D9E9"></stop><stop offset="0.3677" stop-color="#E8E9F2"></stop><stop offset="0.4972" stop-color="#EEEFF5"></stop><stop offset="0.6779" stop-color="#E1E2EE"></stop><stop offset="0.9944" stop-color="#C1C2DB"></stop></linearGradient><linearGradient id="paint7_linear_630_1739" x1="3.36695" y1="18.6815" x2="142.061" y2="18.6815" gradientUnits="userSpaceOnUse"><stop offset="0.00837989" stop-color="#BDBFD9"></stop><stop offset="0.1972" stop-color="#D8D9E9"></stop><stop offset="0.3677" stop-color="#E8E9F2"></stop><stop offset="0.4972" stop-color="#EEEFF5"></stop><stop offset="0.6779" stop-color="#E1E2EE"></stop><stop offset="0.9944" stop-color="#C1C2DB"></stop></linearGradient><linearGradient id="paint8_linear_630_1739" x1="3.36706" y1="26.114" x2="142.062" y2="26.114" gradientUnits="userSpaceOnUse"><stop offset="0.00837989" stop-color="#BDBFD9"></stop><stop offset="0.1972" stop-color="#D8D9E9"></stop><stop offset="0.3677" stop-color="#E8E9F2"></stop><stop offset="0.4972" stop-color="#EEEFF5"></stop><stop offset="0.6779" stop-color="#E1E2EE"></stop><stop offset="0.9944" stop-color="#C1C2DB"></stop></linearGradient><linearGradient id="paint9_linear_630_1739" x1="3.36805" y1="70.1958" x2="142.063" y2="70.1958" gradientUnits="userSpaceOnUse"><stop offset="0.00837989" stop-color="#BDBFD9"></stop><stop offset="0.1972" stop-color="#D8D9E9"></stop><stop offset="0.3677" stop-color="#E8E9F2"></stop><stop offset="0.4972" stop-color="#EEEFF5"></stop><stop offset="0.6779" stop-color="#E1E2EE"></stop><stop offset="0.9944" stop-color="#C1C2DB"></stop></linearGradient><linearGradient id="paint10_linear_630_1739" x1="3.36615" y1="30.6087" x2="142.061" y2="30.6087" gradientUnits="userSpaceOnUse"><stop offset="0.00837989" stop-color="#BDBFD9"></stop><stop offset="0.1972" stop-color="#D8D9E9"></stop><stop offset="0.3677" stop-color="#E8E9F2"></stop><stop offset="0.4972" stop-color="#EEEFF5"></stop><stop offset="0.6779" stop-color="#E1E2EE"></stop><stop offset="0.9944" stop-color="#C1C2DB"></stop></linearGradient><linearGradient id="paint11_linear_630_1739" x1="3.3671" y1="82.5316" x2="142.062" y2="82.5316" gradientUnits="userSpaceOnUse"><stop offset="0.00837989" stop-color="#BDBFD9"></stop><stop offset="0.1972" stop-color="#D8D9E9"></stop><stop offset="0.3677" stop-color="#E8E9F2"></stop><stop offset="0.4972" stop-color="#EEEFF5"></stop><stop offset="0.6779" stop-color="#E1E2EE"></stop><stop offset="0.9944" stop-color="#C1C2DB"></stop></linearGradient><linearGradient id="paint12_linear_630_1739" x1="3.36766" y1="41.0616" x2="142.062" y2="41.0616" gradientUnits="userSpaceOnUse"><stop offset="0.00837989" stop-color="#BDBFD9"></stop><stop offset="0.1972" stop-color="#D8D9E9"></stop><stop offset="0.3677" stop-color="#E8E9F2"></stop><stop offset="0.4972" stop-color="#EEEFF5"></stop><stop offset="0.6779" stop-color="#E1E2EE"></stop><stop offset="0.9944" stop-color="#C1C2DB"></stop></linearGradient><linearGradient id="paint13_linear_630_1739" x1="3.36643" y1="132.334" x2="142.061" y2="132.334" gradientUnits="userSpaceOnUse"><stop offset="0.00837989" stop-color="#BDBFD9"></stop><stop offset="0.1972" stop-color="#D8D9E9"></stop><stop offset="0.3677" stop-color="#E8E9F2"></stop><stop offset="0.4972" stop-color="#EEEFF5"></stop><stop offset="0.6779" stop-color="#E1E2EE"></stop><stop offset="0.9944" stop-color="#C1C2DB"></stop></linearGradient><linearGradient id="paint14_linear_630_1739" x1="3.36578" y1="133.169" x2="142.061" y2="133.169" gradientUnits="userSpaceOnUse"><stop offset="0.00837989" stop-color="#BDBFD9"></stop><stop offset="0.1972" stop-color="#D8D9E9"></stop><stop offset="0.3677" stop-color="#E8E9F2"></stop><stop offset="0.4972" stop-color="#EEEFF5"></stop><stop offset="0.6779" stop-color="#E1E2EE"></stop><stop offset="0.9944" stop-color="#C1C2DB"></stop></linearGradient><linearGradient id="paint15_linear_630_1739" x1="3.36695" y1="158.275" x2="142.062" y2="158.275" gradientUnits="userSpaceOnUse"><stop offset="0.00837989" stop-color="#BDBFD9"></stop><stop offset="0.1972" stop-color="#D8D9E9"></stop><stop offset="0.3677" stop-color="#E8E9F2"></stop><stop offset="0.4972" stop-color="#EEEFF5"></stop><stop offset="0.6779" stop-color="#E1E2EE"></stop><stop offset="0.9944" stop-color="#C1C2DB"></stop></linearGradient><linearGradient id="paint16_linear_630_1739" x1="3.36669" y1="161.857" x2="142.061" y2="161.857" gradientUnits="userSpaceOnUse"><stop offset="0.00837989" stop-color="#BDBFD9"></stop><stop offset="0.1972" stop-color="#D8D9E9"></stop><stop offset="0.3677" stop-color="#E8E9F2"></stop><stop offset="0.4972" stop-color="#EEEFF5"></stop><stop offset="0.6779" stop-color="#E1E2EE"></stop><stop offset="0.9944" stop-color="#C1C2DB"></stop></linearGradient></defs></svg> 