<?xml version="1.0" encoding="UTF-8"?> <svg xmlns="http://www.w3.org/2000/svg" xmlns:xlink="http://www.w3.org/1999/xlink" id="Layer_1" viewBox="0 0 1080 446.71"> <defs> <clipPath id="clippath"> <rect y="-1080.41" width="1080" height="1080" style="fill:none;"></rect> </clipPath> <linearGradient id="linear-gradient" x1="429.68" y1="1105.65" x2="429.68" y2="1008.26" gradientTransform="translate(30.27 436.39) rotate(-90)" gradientUnits="userSpaceOnUse"> <stop offset="0" stop-color="#f2f2f2"></stop> <stop offset="1" stop-color="gray"></stop> </linearGradient> <linearGradient id="linear-gradient-2" x1="409.13" y1="1035.27" x2="409.13" y2="1029.98" xlink:href="#linear-gradient"></linearGradient> <linearGradient id="linear-gradient-3" x1="151.68" y1="1290.96" x2="979.98" y2="1290.96" gradientTransform="translate(30.27 436.39) rotate(-90)" gradientUnits="userSpaceOnUse"> <stop offset=".3" stop-color="#fff"></stop> <stop offset=".73" stop-color="#cfd7d9"></stop> </linearGradient> <linearGradient id="linear-gradient-4" x1="-1906.92" y1="-1746.62" x2="-1906.92" y2="-2193.33" gradientTransform="translate(2446.92 2193.33)" gradientUnits="userSpaceOnUse"> <stop offset="0" stop-color="#fff"></stop> <stop offset=".3" stop-color="#fbfbfc"></stop> <stop offset=".58" stop-color="#f0f2f3"></stop> <stop offset=".84" stop-color="#dde3e4"></stop> <stop offset="1" stop-color="#cfd7d9"></stop> </linearGradient> <linearGradient id="linear-gradient-5" x1="419.49" y1="3699.32" x2="419.49" y2="3623.27" gradientTransform="translate(1326.16 -3202) rotate(-179.1) scale(1 -1)" xlink:href="#linear-gradient"></linearGradient> <linearGradient id="linear-gradient-6" x1="404" y1="3549.34" x2="404" y2="3430.94" gradientTransform="translate(1326.16 -3202) rotate(-179.1) scale(1 -1)" xlink:href="#linear-gradient"></linearGradient> <linearGradient id="linear-gradient-7" x1="318.79" y1="3588.4" x2="318.79" y2="3507.27" gradientTransform="translate(1326.16 -3202) rotate(-179.1) scale(1 -1)" xlink:href="#linear-gradient"></linearGradient> <linearGradient id="linear-gradient-8" x1="398.48" y1="3623.87" x2="398.48" y2="3548.64" gradientTransform="translate(1326.16 -3202) rotate(-179.1) scale(1 -1)" xlink:href="#linear-gradient"></linearGradient> <linearGradient id="linear-gradient-9" x1="353.77" y1="3434.12" x2="353.77" y2="3429.13" gradientTransform="translate(1326.16 -3202) rotate(-179.1) scale(1 -1)" xlink:href="#linear-gradient"></linearGradient> <linearGradient id="linear-gradient-10" x1="419.85" y1="3606.99" x2="419.85" y2="3590.22" gradientTransform="translate(1326.16 -3202) rotate(-179.1) scale(1 -1)" xlink:href="#linear-gradient"></linearGradient> <linearGradient id="linear-gradient-11" x1="421.05" y1="3440.5" x2="421.05" y2="3423.73" gradientTransform="translate(1326.16 -3202) rotate(-179.1) scale(1 -1)" xlink:href="#linear-gradient"></linearGradient> <linearGradient id="linear-gradient-12" x1="284.43" y1="3512.82" x2="284.43" y2="3503.08" gradientTransform="translate(1326.16 -3202) rotate(-179.1) scale(1 -1)" xlink:href="#linear-gradient"></linearGradient> <linearGradient id="linear-gradient-13" x1="376.4" y1="3625.78" x2="376.4" y2="3620.78" gradientTransform="translate(1326.16 -3202) rotate(-179.1) scale(1 -1)" xlink:href="#linear-gradient"></linearGradient> <linearGradient id="linear-gradient-14" x1="283.86" y1="3589.88" x2="283.86" y2="3584.88" gradientTransform="translate(1326.16 -3202) rotate(-179.1) scale(1 -1)" xlink:href="#linear-gradient"></linearGradient> <linearGradient id="linear-gradient-15" x1="330.29" y1="3510.78" x2="330.29" y2="3505.78" gradientTransform="translate(1326.16 -3202) rotate(-179.1) scale(1 -1)" xlink:href="#linear-gradient"></linearGradient> <linearGradient id="linear-gradient-16" x1="462.94" y1="3628.77" x2="462.94" y2="3619.03" gradientTransform="translate(1326.16 -3202) rotate(-179.1) scale(1 -1)" xlink:href="#linear-gradient"></linearGradient> <linearGradient id="linear-gradient-17" x1="352.93" y1="3553.03" x2="352.93" y2="3543.29" gradientTransform="translate(1326.16 -3202) rotate(-179.1) scale(1 -1)" xlink:href="#linear-gradient"></linearGradient> <linearGradient id="linear-gradient-18" x1="454.28" y1="3493.12" x2="454.28" y2="3488.13" gradientTransform="translate(1326.16 -3202) rotate(-179.1) scale(1 -1)" xlink:href="#linear-gradient"></linearGradient> <linearGradient id="linear-gradient-19" x1="420.21" y1="3551.14" x2="420.21" y2="3546.15" gradientTransform="translate(1326.16 -3202) rotate(-179.1) scale(1 -1)" xlink:href="#linear-gradient"></linearGradient> <linearGradient id="linear-gradient-20" x1="329.71" y1="3592.58" x2="329.71" y2="3582.84" gradientTransform="translate(1326.16 -3202) rotate(-179.1) scale(1 -1)" xlink:href="#linear-gradient"></linearGradient> <linearGradient id="linear-gradient-21" x1="160.19" y1="3716.86" x2="160.19" y2="3603.32" gradientTransform="translate(1326.16 -3202) rotate(-179.1) scale(1 -1)" xlink:href="#linear-gradient"></linearGradient> <linearGradient id="linear-gradient-22" x1="225.65" y1="3605.05" x2="225.65" y2="3529" gradientTransform="translate(1326.16 -3202) rotate(-179.1) scale(1 -1)" xlink:href="#linear-gradient"></linearGradient> <linearGradient id="linear-gradient-23" x1="182.93" y1="3529.79" x2="182.93" y2="3453.74" gradientTransform="translate(1326.16 -3202) rotate(-179.1) scale(1 -1)" xlink:href="#linear-gradient"></linearGradient> <linearGradient id="linear-gradient-24" x1="167.43" y1="3379.8" x2="167.43" y2="3261.41" gradientTransform="translate(1326.16 -3202) rotate(-179.1) scale(1 -1)" xlink:href="#linear-gradient"></linearGradient> <linearGradient id="linear-gradient-25" x1="182.56" y1="3537.38" x2="182.56" y2="3520.62" gradientTransform="translate(1326.16 -3202) rotate(-179.1) scale(1 -1)" xlink:href="#linear-gradient"></linearGradient> <linearGradient id="linear-gradient-26" x1="225.29" y1="3609.13" x2="225.29" y2="3599.39" gradientTransform="translate(1326.16 -3202) rotate(-179.1) scale(1 -1)" xlink:href="#linear-gradient"></linearGradient> <linearGradient id="linear-gradient-27" x1="268.74" y1="3582.08" x2="268.74" y2="3577.09" gradientTransform="translate(1326.16 -3202) rotate(-179.1) scale(1 -1)" xlink:href="#linear-gradient"></linearGradient> <linearGradient id="linear-gradient-28" x1="226.01" y1="3506.83" x2="226.01" y2="3501.83" gradientTransform="translate(1326.16 -3202) rotate(-179.1) scale(1 -1)" xlink:href="#linear-gradient"></linearGradient> <linearGradient id="linear-gradient-29" x1="226.38" y1="3459.24" x2="226.38" y2="3449.5" gradientTransform="translate(1326.16 -3202) rotate(-179.1) scale(1 -1)" xlink:href="#linear-gradient"></linearGradient> <linearGradient id="linear-gradient-30" x1="269.1" y1="3534.49" x2="269.1" y2="3524.76" gradientTransform="translate(1326.16 -3202) rotate(-179.1) scale(1 -1)" xlink:href="#linear-gradient"></linearGradient> <linearGradient id="linear-gradient-31" x1="217.71" y1="3323.59" x2="217.71" y2="3318.6" gradientTransform="translate(1326.16 -3202) rotate(-179.1) scale(1 -1)" xlink:href="#linear-gradient"></linearGradient> <linearGradient id="linear-gradient-32" x1="1144.47" y1="1221.15" x2="1144.47" y2="51.9" gradientTransform="translate(0 -3)" gradientUnits="userSpaceOnUse"> <stop offset="0" stop-color="#fff"></stop> <stop offset=".18" stop-color="#fafbfb"></stop> <stop offset=".36" stop-color="#eef1f1"></stop> <stop offset=".55" stop-color="#d9dfe1"></stop> <stop offset=".74" stop-color="#bcc7ca"></stop> <stop offset=".93" stop-color="#98a8ad"></stop> <stop offset="1" stop-color="#889ba1"></stop> </linearGradient> </defs> <g style="clip-path:url(#clippath);"> <g style="opacity:.4;"> <g style="opacity:.5;"> <g style="opacity:.5;"> <polygon points="1062.47 27.98 1038.52 -14.19 1039.78 -14.91 1063.31 26.54 1110.54 26.88 1134.67 -14.22 1135.92 -13.48 1111.37 28.33 1110.95 28.33 1062.47 27.98" style="fill:url(#linear-gradient);"></polygon> <path d="M1061.16,25.26c1.1-.95,2.77-.84,3.73,.27s.84,2.77-.26,3.73c-1.1,.96-2.78,.84-3.73-.26s-.84-2.78,.26-3.73Z" style="fill:url(#linear-gradient-2);"></path> </g> </g> <g> <polygon points="1062.47 27.98 1038.52 -14.19 1039.78 -14.91 1063.31 26.54 1110.54 26.88 1134.67 -14.22 1135.92 -13.48 1111.37 28.33 1110.95 28.33 1062.47 27.98" style="fill:url(#linear-gradient-3);"></polygon> <path d="M1061.16,25.26c1.1-.95,2.77-.84,3.73,.27s.84,2.77-.26,3.73c-1.1,.96-2.78,.84-3.73-.26s-.84-2.78,.26-3.73Z" style="fill:url(#linear-gradient-3);"></path> </g> </g> </g> <rect x="0" y="0" width="1080" height="446.71" transform="translate(1080 446.71) rotate(180)" style="fill:url(#linear-gradient-4);"></rect> <g> <path d="M498.06,93.69V53.74h-12.32v-2.49h27.44v2.49h-12.32v39.95h-2.8Z"></path> <path d="M512.25,78.76c0-4.56,1.54-8.35,4.61-11.36,3.07-3.01,6.84-4.51,11.33-4.51s8.36,1.51,11.39,4.54,4.54,6.8,4.54,11.33-1.52,8.21-4.57,11.33c-3.05,3.11-6.84,4.67-11.36,4.67s-8.26-1.53-11.33-4.6c-3.07-3.07-4.61-6.87-4.61-11.39Zm2.8,0c0,3.86,1.31,7.07,3.92,9.65,2.61,2.57,5.68,3.86,9.21,3.86,3.77,0,6.91-1.29,9.4-3.86s3.73-5.79,3.73-9.65-1.22-6.9-3.67-9.49c-2.45-2.59-5.6-3.89-9.46-3.89s-6.96,1.26-9.43,3.76c-2.47,2.51-3.7,5.72-3.7,9.62Z"></path> <path d="M557.74,66.37l-1.49,18.54c-.29,3.49-.93,5.9-1.93,7.25-1,1.35-2.64,2.02-4.92,2.02-.71,0-1.31-.08-1.8-.25v-2.49c.5,.17,1.08,.25,1.74,.25,1.33,0,2.31-.44,2.96-1.31,.64-.87,1.07-2.51,1.28-4.92l1.8-21.59h19.85v29.81h-2.61v-27.32h-14.87Z"></path> <path d="M587.67,76.89h6.53c3.24,0,5.68,.76,7.34,2.27,1.66,1.51,2.49,3.52,2.49,6,0,2.66-.89,4.74-2.68,6.25-1.78,1.51-4.29,2.27-7.53,2.27h-8.77v-29.81h2.61v13.01Zm6.66,2.36h-6.66v12.07h6.04c5.14,0,7.72-2.07,7.72-6.22,0-3.9-2.36-5.85-7.09-5.85Z"></path> <path d="M612.25,93.69v-29.81h2.61v13.69l14.93-13.69h3.48l-15.31,13.88,15.56,15.93h-3.61l-15.06-15.68v15.68h-2.61Z"></path> <path d="M637.14,78.76c0-4.56,1.54-8.35,4.61-11.36,3.07-3.01,6.84-4.51,11.33-4.51s8.36,1.51,11.39,4.54,4.54,6.8,4.54,11.33-1.52,8.21-4.57,11.33c-3.05,3.11-6.84,4.67-11.36,4.67s-8.26-1.53-11.33-4.6c-3.07-3.07-4.61-6.87-4.61-11.39Zm2.8,0c0,3.86,1.31,7.07,3.92,9.65,2.61,2.57,5.68,3.86,9.21,3.86,3.77,0,6.91-1.29,9.4-3.86s3.73-5.79,3.73-9.65-1.22-6.9-3.67-9.49c-2.45-2.59-5.6-3.89-9.46-3.89s-6.96,1.26-9.43,3.76c-2.47,2.51-3.7,5.72-3.7,9.62Z"></path> <path d="M690.22,78.76c0-4.56,1.54-8.35,4.61-11.36,3.07-3.01,6.84-4.51,11.33-4.51s8.36,1.51,11.39,4.54,4.54,6.8,4.54,11.33-1.52,8.21-4.57,11.33c-3.05,3.11-6.84,4.67-11.36,4.67s-8.26-1.53-11.33-4.6c-3.07-3.07-4.61-6.87-4.61-11.39Zm2.8,0c0,3.86,1.31,7.07,3.92,9.65,2.61,2.57,5.68,3.86,9.21,3.86,3.77,0,6.91-1.29,9.4-3.86s3.73-5.79,3.73-9.65-1.22-6.9-3.67-9.49c-2.45-2.59-5.6-3.89-9.46-3.89s-6.96,1.26-9.43,3.76c-2.47,2.51-3.7,5.72-3.7,9.62Z"></path> <path d="M726.19,91.2h.56c4.23,0,6.76-5.17,7.59-15.5l1-11.82h18.17v27.32h4.85v12.13h-2.61v-9.65h-26.95v9.65h-2.61v-12.13Zm6.04,0h18.67v-24.83h-13.19l-.75,9.33c-.29,3.98-.81,7.16-1.56,9.52-.75,2.36-1.8,4.36-3.17,5.97Z"></path> <path d="M765.45,93.69v-29.81h2.61v17.17c0,3.61-.06,6.64-.19,9.09h.12c.62-1.29,1.99-3.24,4.11-5.85l15.87-20.41h2.18v29.81h-2.61v-16.8c0-3.65,.06-6.68,.19-9.09h-.12c-.46,.83-1.87,2.78-4.23,5.85l-15.74,20.04h-2.18Z"></path> <path d="M824.69,63.88v29.81h-2.61v-14.31h-19.48v14.31h-2.61v-29.81h2.61v13.01h19.48v-13.01h2.61Z"></path> <path d="M846.97,91.2h.56c4.23,0,6.76-5.17,7.59-15.5l1-11.82h18.17v27.32h4.85v12.13h-2.61v-9.65h-26.95v9.65h-2.61v-12.13Zm6.04,0h18.67v-24.83h-13.19l-.75,9.33c-.29,3.98-.81,7.16-1.56,9.52-.75,2.36-1.8,4.36-3.17,5.97Z"></path> <path d="M898.62,62.89c4.48,.04,8.07,1.62,10.76,4.73s4.04,6.83,4.04,11.14v.44h-26.76c.08,3.82,1.36,6.98,3.83,9.49,2.47,2.51,5.42,3.77,8.87,3.77,2.45,0,4.46-.48,6.04-1.43,1.58-.95,2.99-2.37,4.23-4.23h3.24c-3.07,5.35-7.53,8.03-13.38,8.03-4.52,0-8.26-1.53-11.2-4.6-2.95-3.07-4.42-6.89-4.42-11.45s1.4-8.3,4.2-11.33c2.8-3.03,6.32-4.54,10.55-4.54Zm0,2.49c-3.36,0-6.12,1.15-8.28,3.45-2.16,2.3-3.34,5.03-3.55,8.18h23.77c-.37-3.15-1.61-5.88-3.7-8.18-2.1-2.3-4.84-3.45-8.25-3.45Z"></path> <path d="M945.91,63.88v29.81h-2.61v-14.31h-19.48v14.31h-2.61v-29.81h2.61v13.01h19.48v-13.01h2.61Z"></path> <path d="M958.36,76.89h6.53c3.24,0,5.68,.76,7.34,2.27,1.66,1.51,2.49,3.52,2.49,6,0,2.66-.89,4.74-2.68,6.25-1.78,1.51-4.29,2.27-7.53,2.27h-8.77v-29.81h2.61v13.01Zm6.66,2.36h-6.66v12.07h6.04c5.14,0,7.72-2.07,7.72-6.22,0-3.9-2.36-5.85-7.09-5.85Z"></path> <path d="M983.69,93.69v-4.67h4.17v4.67h-4.17Zm.75-42.44h2.74l-.44,30.68h-1.87l-.44-30.68Z"></path> <path d="M489.93,118v11.67h6.19c3.14,0,5.6,.68,7.38,2.03,1.79,1.35,2.68,3.39,2.68,6.12,0,5.43-3.25,8.15-9.76,8.15h-8.45v-29.71h15.94v1.74h-13.98Zm14.16,19.86c0-2-.67-3.58-2-4.73-1.34-1.15-3.33-1.72-5.97-1.72h-6.19v12.81h6.58c5.05,0,7.58-2.12,7.58-6.36Z"></path> <path d="M520.46,124.4c3.14,.03,5.65,1.13,7.54,3.31s2.83,4.78,2.83,7.8v.3h-18.73c.06,2.67,.95,4.89,2.68,6.64,1.73,1.76,3.8,2.64,6.21,2.64,1.71,0,3.12-.33,4.22-1s2.09-1.66,2.96-2.96h2.26c-2.15,3.75-5.27,5.62-9.36,5.62-3.17,0-5.78-1.07-7.84-3.22-2.06-2.15-3.09-4.82-3.09-8.01s.98-5.81,2.94-7.93c1.96-2.12,4.42-3.18,7.38-3.18Zm0,1.74c-2.35,0-4.28,.81-5.79,2.42-1.51,1.61-2.34,3.52-2.48,5.73h16.64c-.26-2.21-1.13-4.12-2.59-5.73-1.47-1.61-3.39-2.42-5.77-2.42Z"></path> <path d="M535.31,140.91h1.83c.58,2.76,2.61,4.14,6.1,4.14,1.97,0,3.46-.47,4.46-1.42s1.5-2.1,1.5-3.46c0-1.28-.5-2.34-1.5-3.2s-2.59-1.29-4.77-1.29h-1.96v-1.57h1.61c2.21,0,3.77-.34,4.68-1.02,.91-.68,1.37-1.66,1.37-2.94s-.49-2.32-1.46-3.03c-.97-.71-2.26-1.07-3.85-1.07-1.51,0-2.74,.32-3.7,.96-.96,.64-1.54,1.6-1.74,2.88h-1.79c.15-1.6,.88-2.91,2.2-3.94,1.32-1.03,3-1.55,5.03-1.55s3.77,.53,5.12,1.59c1.35,1.06,2.03,2.43,2.03,4.12,0,2.47-1.31,4.07-3.92,4.79,2.99,.87,4.49,2.69,4.49,5.45,0,1.66-.69,3.13-2.07,4.42s-3.27,1.94-5.68,1.94c-2.24,0-4.04-.5-5.42-1.5-1.38-1-2.23-2.43-2.55-4.29Z"></path> <path d="M584.93,125.1v20.87h-1.83v-19.12h-13.63v19.12h-1.83v-20.87h17.29Z"></path> <path d="M590.38,135.51c0-3.19,1.07-5.84,3.22-7.95,2.15-2.11,4.79-3.16,7.93-3.16s5.85,1.06,7.97,3.18c2.12,2.12,3.18,4.76,3.18,7.93s-1.07,5.75-3.2,7.93c-2.13,2.18-4.78,3.27-7.95,3.27s-5.78-1.07-7.93-3.22c-2.15-2.15-3.22-4.81-3.22-7.97Zm1.96,0c0,2.7,.92,4.95,2.74,6.75,1.83,1.8,3.98,2.7,6.45,2.7,2.64,0,4.83-.9,6.58-2.7,1.74-1.8,2.61-4.05,2.61-6.75s-.86-4.83-2.57-6.64c-1.71-1.81-3.92-2.72-6.62-2.72s-4.87,.88-6.6,2.64c-1.73,1.76-2.59,4-2.59,6.73Z"></path> <path d="M618.12,145.96v-20.87h7.58c2.09,0,3.7,.45,4.83,1.35,1.13,.9,1.7,2.11,1.7,3.62,0,2.38-1.08,3.91-3.22,4.57,1.54,.32,2.72,.95,3.55,1.9,.83,.94,1.24,2.08,1.24,3.42,0,4.01-2.74,6.01-8.23,6.01h-7.45Zm7.58-19.21h-5.75v7.36h5.14c3.54,0,5.31-1.33,5.31-4.01,0-2.24-1.57-3.35-4.7-3.35Zm-.22,8.93h-5.53v8.62h5.75c2.26,0,3.88-.37,4.83-1.11,.96-.74,1.44-1.82,1.44-3.25,0-2.85-2.16-4.27-6.49-4.27Z"></path> <path d="M651.84,125.1v1.74h-6.27v19.12h-1.83v-19.12h-6.27v-1.74h14.38Z"></path> <path d="M654.45,135.51c0-3.19,1.07-5.84,3.22-7.95,2.15-2.11,4.79-3.16,7.93-3.16s5.85,1.06,7.97,3.18c2.12,2.12,3.18,4.76,3.18,7.93s-1.07,5.75-3.2,7.93c-2.13,2.18-4.78,3.27-7.95,3.27s-5.78-1.07-7.93-3.22c-2.15-2.15-3.22-4.81-3.22-7.97Zm1.96,0c0,2.7,.92,4.95,2.74,6.75,1.83,1.8,3.98,2.7,6.45,2.7,2.64,0,4.83-.9,6.58-2.7,1.74-1.8,2.61-4.05,2.61-6.75s-.86-4.83-2.57-6.64c-1.71-1.81-3.92-2.72-6.62-2.72s-4.87,.88-6.6,2.64c-1.73,1.76-2.59,4-2.59,6.73Z"></path> <path d="M682.2,156.2v-31.1h1.83v4.36h.09c2.03-3.37,5.15-5.05,9.37-5.05,2.9,0,5.39,1.04,7.47,3.11,2.08,2.08,3.12,4.77,3.12,8.08s-1.03,5.88-3.09,7.97c-2.06,2.09-4.65,3.14-7.75,3.14-4.04,0-7.06-1.64-9.06-4.92h-.13v14.42h-1.83Zm17.51-14c1.6-1.84,2.4-4.04,2.4-6.6s-.8-4.77-2.4-6.64c-1.6-1.87-3.85-2.81-6.75-2.81-2.47,0-4.6,.88-6.38,2.64-1.79,1.76-2.68,3.99-2.68,6.69s.86,5.1,2.59,6.86c1.73,1.76,3.86,2.64,6.38,2.64,2.96,0,5.24-.92,6.84-2.77Z"></path> <path d="M708.07,135.51c0-3.19,1.07-5.84,3.22-7.95,2.15-2.11,4.79-3.16,7.93-3.16s5.85,1.06,7.97,3.18c2.12,2.12,3.18,4.76,3.18,7.93s-1.07,5.75-3.2,7.93c-2.13,2.18-4.78,3.27-7.95,3.27s-5.78-1.07-7.93-3.22c-2.15-2.15-3.22-4.81-3.22-7.97Zm1.96,0c0,2.7,.92,4.95,2.74,6.75,1.83,1.8,3.98,2.7,6.45,2.7,2.64,0,4.83-.9,6.58-2.7,1.74-1.8,2.61-4.05,2.61-6.75s-.86-4.83-2.57-6.64c-1.71-1.81-3.92-2.72-6.62-2.72s-4.87,.88-6.6,2.64c-1.73,1.76-2.59,4-2.59,6.73Z"></path> <path d="M735.82,145.96v-20.87h7.58c2.09,0,3.7,.45,4.83,1.35,1.13,.9,1.7,2.11,1.7,3.62,0,2.38-1.08,3.91-3.22,4.57,1.54,.32,2.72,.95,3.55,1.9,.83,.94,1.24,2.08,1.24,3.42,0,4.01-2.74,6.01-8.23,6.01h-7.45Zm7.58-19.21h-5.75v7.36h5.14c3.54,0,5.31-1.33,5.31-4.01,0-2.24-1.57-3.35-4.71-3.35Zm-.22,8.93h-5.53v8.62h5.75c2.27,0,3.88-.37,4.83-1.11,.96-.74,1.44-1.82,1.44-3.25,0-2.85-2.16-4.27-6.49-4.27Z"></path> <path d="M768.18,145.96v-20.87h1.83v12.02c0,2.53-.04,4.65-.13,6.36h.09c.44-.9,1.39-2.26,2.88-4.09l11.11-14.29h1.52v20.87h-1.83v-11.76c0-2.55,.04-4.67,.13-6.36h-.09c-.32,.58-1.31,1.95-2.96,4.09l-11.02,14.03h-1.52Z"></path> <path d="M802.24,140.91h1.83c.58,2.76,2.61,4.14,6.1,4.14,1.97,0,3.46-.47,4.46-1.42s1.5-2.1,1.5-3.46c0-1.28-.5-2.34-1.5-3.2s-2.59-1.29-4.77-1.29h-1.96v-1.57h1.61c2.21,0,3.77-.34,4.68-1.02,.91-.68,1.37-1.66,1.37-2.94s-.49-2.32-1.46-3.03c-.97-.71-2.26-1.07-3.85-1.07-1.51,0-2.74,.32-3.7,.96-.96,.64-1.54,1.6-1.74,2.88h-1.79c.15-1.6,.88-2.91,2.2-3.94,1.32-1.03,3-1.55,5.03-1.55s3.77,.53,5.12,1.59c1.35,1.06,2.03,2.43,2.03,4.12,0,2.47-1.31,4.07-3.92,4.79,2.99,.87,4.49,2.69,4.49,5.45,0,1.66-.69,3.13-2.07,4.42s-3.27,1.94-5.68,1.94c-2.24,0-4.04-.5-5.42-1.5-1.38-1-2.23-2.43-2.55-4.29Z"></path> <path d="M844.15,125.1v20.87h-1.83v-4.31h-.09c-2.12,3.37-5.24,5.05-9.37,5.05-2.9,0-5.39-1.04-7.47-3.11s-3.11-4.77-3.11-8.08,1.03-5.88,3.09-7.97c2.06-2.09,4.65-3.14,7.75-3.14,2.12,0,3.96,.47,5.51,1.42s2.74,2.11,3.55,3.51h.13v-4.23h1.83Zm-17.51,3.81c-1.6,1.84-2.4,4.04-2.4,6.6s.8,4.77,2.4,6.64,3.85,2.81,6.75,2.81c2.44,0,4.56-.88,6.36-2.64,1.8-1.76,2.7-3.99,2.7-6.69s-.86-5.1-2.59-6.86c-1.73-1.76-3.85-2.64-6.38-2.64-2.96,0-5.24,.92-6.84,2.77Z"></path> <path d="M868.32,125.1v20.87h-1.83v-19.12h-13.63v19.12h-1.83v-20.87h17.29Z"></path> <path d="M875.21,145.96v-20.87h1.83v12.02c0,2.53-.04,4.65-.13,6.36h.09c.44-.9,1.39-2.26,2.88-4.09l11.11-14.29h1.52v20.87h-1.83v-11.76c0-2.55,.04-4.67,.13-6.36h-.09c-.32,.58-1.31,1.95-2.96,4.09l-11.02,14.03h-1.52Z"></path> <path d="M908.92,124.4c2.56,0,4.61,.59,6.16,1.76,1.55,1.18,2.64,2.61,3.25,4.29h-2.09c-.58-1.36-1.5-2.44-2.74-3.22-1.25-.78-2.76-1.18-4.53-1.18-2.5,0-4.63,.83-6.4,2.48-1.77,1.66-2.66,3.98-2.66,6.97,0,2.76,.86,5.04,2.59,6.84,1.73,1.8,3.91,2.7,6.56,2.7,1.95,0,3.56-.45,4.83-1.35,1.28-.9,2.18-2.06,2.7-3.48h2.05c-.7,1.89-1.84,3.44-3.44,4.66-1.6,1.22-3.66,1.83-6.19,1.83-3.08,0-5.69-1.02-7.84-3.07-2.15-2.05-3.22-4.77-3.22-8.17,0-3.14,1-5.76,3.01-7.88,2-2.12,4.66-3.18,7.97-3.18Z"></path> <path d="M923.9,145.96v-20.87h1.83v12.02c0,2.53-.04,4.65-.13,6.36h.09c.44-.9,1.39-2.26,2.88-4.09l11.11-14.29h1.52v20.87h-1.83v-11.76c0-2.55,.04-4.67,.13-6.36h-.09c-.32,.58-1.31,1.95-2.96,4.09l-11.02,14.03h-1.52Z"></path> <path d="M948.6,145.96v-3.27h2.92v3.27h-2.92Zm.52-29.71h1.92l-.3,21.47h-1.31l-.31-21.47Z"></path> </g> <g> <path d="M489.56,228.13c0-6.22,2.15-11.54,6.44-15.96s9.66-6.63,16.09-6.63,12.14,2.21,16.27,6.63c4.13,4.42,6.19,9.74,6.19,15.96s-2.16,11.65-6.47,16.02c-4.31,4.38-9.64,6.57-15.99,6.57-3.69,0-7.02-.67-9.99-2.02-2.97-1.35-5.34-3.13-7.12-5.35-1.78-2.22-3.13-4.63-4.04-7.22-.91-2.59-1.37-5.26-1.37-8Zm2.99,0c0,5.77,1.87,10.56,5.6,14.38,3.73,3.82,8.36,5.72,13.88,5.72s10.15-1.91,13.91-5.72c3.75-3.82,5.63-8.61,5.63-14.38s-1.83-10.56-5.48-14.38c-3.65-3.82-8.34-5.73-14.06-5.73s-10.14,1.9-13.88,5.69c-3.73,3.8-5.6,8.6-5.6,14.41Z"></path> <path d="M547.05,222.04l-1.49,18.54c-.29,3.49-.93,5.9-1.93,7.25-1,1.35-2.64,2.02-4.92,2.02-.71,0-1.31-.08-1.8-.25v-2.49c.5,.17,1.08,.25,1.74,.25,1.33,0,2.31-.44,2.96-1.31,.64-.87,1.07-2.51,1.28-4.92l1.8-21.59h19.85v29.81h-2.61v-27.32h-14.87Z"></path> <path d="M575.12,232.55h6.53c3.24,0,5.68,.76,7.34,2.27,1.66,1.51,2.49,3.52,2.49,6,0,2.66-.89,4.74-2.68,6.25-1.78,1.51-4.29,2.27-7.53,2.27h-8.77v-29.81h2.61v13.01Zm6.66,2.36h-6.66v12.07h6.04c5.14,0,7.72-2.07,7.72-6.22,0-3.9-2.36-5.85-7.09-5.85Z"></path> <path d="M617.12,219.55v2.49h-16.68v27.32h-2.61v-29.81h19.29Z"></path> <path d="M649.29,219.55v29.81h-2.61v-6.16h-.12c-3.03,4.81-7.49,7.22-13.38,7.22-4.15,0-7.71-1.48-10.67-4.45-2.97-2.97-4.45-6.81-4.45-11.54s1.47-8.4,4.42-11.39c2.94-2.99,6.64-4.48,11.08-4.48,3.03,0,5.65,.67,7.87,2.02,2.22,1.35,3.91,3.02,5.07,5.01h.19v-6.04h2.61Zm-25.01,5.45c-2.28,2.63-3.42,5.78-3.42,9.43s1.14,6.81,3.42,9.49c2.28,2.68,5.5,4.01,9.64,4.01,3.49,0,6.51-1.25,9.09-3.76,2.57-2.51,3.86-5.69,3.86-9.55s-1.23-7.29-3.7-9.8c-2.47-2.51-5.51-3.77-9.12-3.77-4.23,0-7.49,1.32-9.77,3.95Z"></path> <path d="M690.86,205.55c5.02,0,9.16,1.15,12.41,3.45s5.65,5.24,7.19,8.81h-3.17c-1.29-2.99-3.37-5.36-6.25-7.12-2.88-1.76-6.3-2.65-10.24-2.65-5.1,0-9.52,1.77-13.25,5.32-3.73,3.55-5.6,8.45-5.6,14.72,0,5.81,1.78,10.62,5.35,14.44,3.57,3.82,8.17,5.72,13.82,5.72,3.98,0,7.39-.93,10.24-2.8,2.84-1.87,4.99-4.46,6.44-7.78h3.17c-3.82,8.71-10.52,13.07-20.1,13.07-6.47,0-11.74-2.14-15.81-6.41-4.07-4.27-6.1-9.71-6.1-16.3s2.12-11.78,6.38-16.05c4.25-4.27,9.43-6.41,15.53-6.41Z"></path> <path d="M741.39,206.91v2.49h-20.47v16.68h19.79v2.49h-19.79v18.29h21.16v2.49h-23.96v-42.44h23.27Z"></path> <path d="M757.69,209.4l-2.55,32.42c-.25,2.95-.93,5-2.05,6.16-1.12,1.16-2.7,1.74-4.73,1.74-.83,0-1.6-.15-2.3-.44v-2.43c.41,.25,1.22,.37,2.43,.37s2.05-.4,2.68-1.21c.62-.81,1.02-2.21,1.18-4.2l2.74-34.91h26.57v42.44h-2.8v-39.95h-21.16Z"></path> <path d="M786.38,249.35l14.87-18.92c-3.69-.41-6.5-1.61-8.43-3.58-1.93-1.97-2.89-4.64-2.89-8s1.18-6.35,3.55-8.59c2.36-2.24,5.81-3.36,10.33-3.36h12.7v42.44h-2.86v-18.79h-9.27l-14.75,18.79h-3.24Zm6.53-30.49c0,2.82,.88,5.06,2.64,6.72,1.76,1.66,4.3,2.49,7.62,2.49h10.45v-18.67h-10.39c-3.11,0-5.61,.83-7.5,2.49-1.89,1.66-2.83,3.98-2.83,6.97Z"></path> <path d="M856.13,249.35v-20.78h-27.94v20.78h-2.8v-42.44h2.8v19.17h27.94v-19.17h2.8v42.44h-2.8Z"></path> <path d="M897.95,211.02h-.19c-.33,.46-1.17,1.66-2.52,3.61-1.35,1.95-2.68,3.87-3.98,5.76-1.31,1.89-2.44,3.5-3.39,4.82l-17.3,24.14h-2.43v-42.44h2.8v28.94c0,2.03-.04,5.04-.12,9.02h.25c1.12-1.58,2.83-4.02,5.13-7.34,2.3-3.32,4.01-5.75,5.13-7.28l16.74-23.34h2.55v42.44h-2.8v-28.07c0-4.56,.04-7.99,.12-10.27Z"></path> <path d="M940.57,249.35v-20.78h-27.94v20.78h-2.8v-42.44h2.8v19.17h27.94v-19.17h2.8v42.44h-2.8Z"></path> <path d="M948.41,249.35l17.98-42.44h2.74l17.98,42.44h-2.92l-5.1-12.07h-22.78l-5.04,12.07h-2.86Zm14.94-28.56l-5.97,14h20.66l-6.16-14.44c-1.24-2.82-2.59-6.2-4.04-10.14h-.25c-.21,.58-.63,1.66-1.28,3.24-.64,1.58-1.21,3.01-1.71,4.29-.5,1.29-.91,2.3-1.24,3.05Z"></path> </g> <g> <path d="M489.61,303.4v-14.9h1.31v8.59c0,1.8-.03,3.32-.09,4.54h.06c.31-.64,1-1.62,2.05-2.92l7.93-10.21h1.09v14.9h-1.31v-8.4c0-1.82,.03-3.34,.09-4.54h-.06c-.23,.42-.93,1.39-2.12,2.92l-7.87,10.02h-1.09Z"></path> <path d="M512.75,303.4v-14.9h1.31v6.85l7.47-6.85h1.74l-7.65,6.94,7.78,7.97h-1.8l-7.53-7.84v7.84h-1.31Z"></path> <path d="M524.27,295.93c0-2.28,.77-4.17,2.3-5.68s3.42-2.26,5.66-2.26,4.18,.76,5.69,2.27c1.51,1.51,2.27,3.4,2.27,5.66s-.76,4.11-2.29,5.66-3.42,2.33-5.68,2.33-4.13-.77-5.66-2.3-2.3-3.43-2.3-5.69Zm1.4,0c0,1.93,.65,3.54,1.96,4.82s2.84,1.93,4.6,1.93c1.89,0,3.45-.64,4.7-1.93,1.25-1.29,1.87-2.89,1.87-4.82s-.61-3.45-1.84-4.75c-1.22-1.3-2.8-1.94-4.73-1.94s-3.48,.63-4.71,1.88-1.85,2.86-1.85,4.81Z"></path> <path d="M557.4,288.5l2.96,14.9h-1.31l-1.18-6.38c-.66-3.63-1.06-5.83-1.18-6.6h-.09c-.68,2.16-1.46,4.35-2.33,6.57l-2.52,6.41h-1.15l-2.71-6.97c-.89-2.3-1.61-4.3-2.15-6h-.09c-.17,1.33-.51,3.32-1.03,5.97l-1.34,7h-1.31l2.96-14.9h1.18l3.3,8.62c.91,2.41,1.48,3.97,1.71,4.7h.09c.17-.52,.49-1.41,.98-2.68,.49-1.26,.74-1.94,.76-2.02l3.27-8.62h1.18Z"></path> <path d="M575.51,288.5v14.9h-1.31v-13.66h-9.74v13.66h-1.31v-14.9h12.35Z"></path> <path d="M594.09,288.5v14.9h-1.31v-3.08h-.06c-1.51,2.41-3.74,3.61-6.69,3.61-2.07,0-3.85-.74-5.34-2.22s-2.22-3.41-2.22-5.77,.74-4.2,2.21-5.69c1.47-1.49,3.32-2.24,5.54-2.24,1.51,0,2.83,.34,3.94,1.01,1.11,.67,1.95,1.51,2.54,2.5h.09v-3.02h1.31Zm-12.51,2.72c-1.14,1.32-1.71,2.89-1.71,4.71s.57,3.41,1.71,4.75c1.14,1.34,2.75,2.01,4.82,2.01,1.74,0,3.26-.63,4.54-1.88s1.93-2.85,1.93-4.78-.62-3.65-1.85-4.9c-1.23-1.25-2.75-1.88-4.56-1.88-2.12,0-3.74,.66-4.88,1.98Z"></path> <path d="M610.42,288.5v14.9h-1.31v-7.16h-9.74v7.16h-1.31v-14.9h1.31v6.5h9.74v-6.5h1.31Z"></path> <path d="M614.4,303.4v-14.9h1.31v8.59c0,1.8-.03,3.32-.09,4.54h.06c.31-.64,1-1.62,2.05-2.92l7.93-10.21h1.09v14.9h-1.31v-8.4c0-1.82,.03-3.34,.09-4.54h-.06c-.23,.42-.93,1.39-2.12,2.92l-7.87,10.02h-1.09Z"></path> <path d="M638.05,296.9h-2.71l-4.54,6.5h-1.46l4.73-6.6c-2.66-.37-3.98-1.73-3.98-4.08,0-2.82,1.79-4.23,5.38-4.23h3.89v14.9h-1.31v-6.5Zm-2.52-1.18h2.52v-6.04h-2.68c-1.41,0-2.43,.26-3.05,.78-.62,.52-.93,1.28-.93,2.27,0,1.99,1.38,2.99,4.14,2.99Z"></path> <path d="M670,282.18l2.49,21.22h-3.55l-1.12-11.23c-.06-.6-.16-1.58-.28-2.92-.12-1.35-.19-2.06-.19-2.15h-.16c-.52,1.89-1.02,3.59-1.49,5.1l-3.52,11.2h-2.74l-3.55-11.45c-.77-2.34-1.24-3.96-1.43-4.85h-.22c-.06,1.35-.19,2.96-.37,4.82l-1.18,11.48h-3.36l2.46-21.22h4.2l3.73,11.54c.46,1.43,.83,2.73,1.12,3.89h.12c.17-.66,.55-1.96,1.15-3.89l3.7-11.54h4.17Z"></path> <path d="M688.08,282.18v3.24h-8.59v5.45h8.28v3.14h-8.28v6.16h8.93v3.24h-12.6v-21.22h12.26Z"></path> <path d="M705.5,287.22h-3.61c-.1-.81-.42-1.46-.95-1.94-.53-.49-1.22-.73-2.07-.73s-1.54,.24-2.07,.73-.79,1.12-.79,1.91c0,.83,.32,1.49,.95,1.99,.63,.5,1.58,.96,2.85,1.37,2.2,.68,3.77,1.6,4.71,2.75,.94,1.15,1.42,2.57,1.42,4.25s-.61,3.24-1.82,4.56c-1.21,1.32-2.93,1.98-5.15,1.98-2.01,0-3.67-.55-4.98-1.65-1.31-1.1-2.09-2.69-2.36-4.76h3.73c.19,1.06,.59,1.88,1.2,2.47,.61,.59,1.43,.89,2.44,.89s1.82-.32,2.41-.96c.59-.64,.89-1.41,.89-2.3,0-1-.32-1.8-.96-2.43-.64-.62-1.69-1.16-3.14-1.62-3.86-1.24-5.79-3.41-5.79-6.5,0-1.66,.62-3.03,1.85-4.11,1.23-1.08,2.79-1.62,4.65-1.62s3.4,.53,4.59,1.59c1.19,1.06,1.86,2.44,2.01,4.14Z"></path> <path d="M708.71,292.79c0-3.09,1.07-5.75,3.22-7.96,2.15-2.22,4.84-3.33,8.07-3.33s6.07,1.11,8.12,3.33c2.05,2.22,3.08,4.88,3.08,7.96s-1.08,5.8-3.24,8c-2.16,2.2-4.82,3.3-8,3.3-1.87,0-3.54-.34-5.03-1.01s-2.67-1.57-3.55-2.68c-.88-1.11-1.55-2.31-2.01-3.61-.46-1.3-.68-2.63-.68-4Zm5.93-5.71c-1.44,1.52-2.16,3.43-2.16,5.71s.72,4.19,2.15,5.71c1.43,1.52,3.2,2.29,5.32,2.29s3.92-.76,5.35-2.29c1.43-1.52,2.15-3.43,2.15-5.71s-.7-4.18-2.08-5.71c-1.39-1.53-3.18-2.29-5.38-2.29s-3.89,.76-5.34,2.29Z"></path> <path d="M734.47,303.4v-21.22h6.53c2.38,0,4.3,.57,5.76,1.7,1.45,1.13,2.18,2.8,2.18,4.99s-.67,3.83-2.02,5.01c-1.35,1.18-3.38,1.77-6.1,1.77h-2.68v7.75h-3.67Zm10.73-14.47c0-1.1-.34-1.99-1.03-2.66-.68-.67-1.73-1.01-3.14-1.01h-2.89v7.34h2.83c2.82,0,4.23-1.22,4.23-3.67Z"></path> <path d="M761.26,294.38l6.6,9.02h-4.42l-6.04-8.56h-2.02v8.56h-3.67v-21.22h6.41c2.65,0,4.6,.61,5.85,1.82,1.24,1.21,1.87,2.73,1.87,4.56,0,1.45-.44,2.7-1.31,3.75-.87,1.05-1.96,1.74-3.27,2.07Zm.78-5.72c0-1.08-.32-1.91-.95-2.5-.63-.59-1.54-.89-2.72-.89h-2.99v6.69h3.02c1.14,0,2.03-.31,2.68-.92,.64-.61,.96-1.41,.96-2.38Z"></path> <path d="M768.35,292.79c0-3.09,1.07-5.75,3.22-7.96,2.15-2.22,4.84-3.33,8.07-3.33s6.07,1.11,8.12,3.33c2.05,2.22,3.08,4.88,3.08,7.96s-1.08,5.8-3.24,8c-2.16,2.2-4.82,3.3-8,3.3-1.87,0-3.54-.34-5.03-1.01s-2.67-1.57-3.55-2.68c-.88-1.11-1.55-2.31-2.01-3.61-.46-1.3-.68-2.63-.68-4Zm5.93-5.71c-1.44,1.52-2.16,3.43-2.16,5.71s.72,4.19,2.15,5.71c1.43,1.52,3.2,2.29,5.32,2.29s3.92-.76,5.35-2.29,2.15-3.43,2.15-5.71-.7-4.18-2.08-5.71c-1.39-1.53-3.18-2.29-5.38-2.29s-3.89,.76-5.34,2.29Z"></path> <path d="M806.37,282.18v3.24h-8.56v5.91h8.25v3.11h-8.25v8.96h-3.7v-21.22h12.26Z"></path> <path d="M822.18,282.18v3.24h-8.56v5.91h8.25v3.11h-8.25v8.96h-3.7v-21.22h12.26Z"></path> <path d="M844.7,288.5v14.9h-1.31v-13.66h-9.74v13.66h-1.31v-14.9h12.35Z"></path> <path d="M848.69,310.71v-22.22h1.31v3.11h.06c1.45-2.41,3.68-3.61,6.69-3.61,2.07,0,3.85,.74,5.34,2.22s2.22,3.41,2.22,5.77-.74,4.2-2.21,5.69c-1.47,1.49-3.32,2.24-5.54,2.24-2.88,0-5.04-1.17-6.47-3.52h-.09v10.3h-1.31Zm12.51-10c1.14-1.32,1.71-2.89,1.71-4.71s-.57-3.41-1.71-4.75-2.75-2.01-4.82-2.01c-1.76,0-3.28,.63-4.56,1.88s-1.91,2.85-1.91,4.78,.62,3.65,1.85,4.9,2.75,1.88,4.56,1.88c2.12,0,3.74-.66,4.88-1.98Z"></path> <path d="M873.61,288c2.24,.02,4.03,.81,5.38,2.36,1.35,1.56,2.02,3.41,2.02,5.57v.22h-13.38c.04,1.91,.68,3.49,1.91,4.75,1.23,1.26,2.71,1.88,4.43,1.88,1.22,0,2.23-.24,3.02-.72,.79-.48,1.49-1.18,2.12-2.12h1.62c-1.54,2.68-3.76,4.01-6.69,4.01-2.26,0-4.13-.77-5.6-2.3-1.47-1.54-2.21-3.44-2.21-5.73s.7-4.15,2.1-5.66c1.4-1.51,3.16-2.27,5.27-2.27Zm0,1.24c-1.68,0-3.06,.58-4.14,1.73s-1.67,2.52-1.77,4.09h11.89c-.19-1.58-.8-2.94-1.85-4.09-1.05-1.15-2.42-1.73-4.12-1.73Z"></path> <path d="M882.14,302.16h.28c2.12,0,3.38-2.58,3.8-7.75l.5-5.91h9.09v13.66h2.43v6.07h-1.31v-4.82h-13.47v4.82h-1.31v-6.07Zm3.02,0h9.33v-12.42h-6.6l-.37,4.67c-.15,1.99-.4,3.58-.78,4.76-.37,1.18-.9,2.18-1.59,2.99Z"></path> <path d="M907.49,288c1.83,0,3.29,.42,4.4,1.26,1.11,.84,1.88,1.86,2.32,3.06h-1.49c-.42-.97-1.07-1.74-1.96-2.3-.89-.56-1.97-.84-3.24-.84-1.78,0-3.31,.59-4.57,1.77-1.27,1.18-1.9,2.84-1.9,4.98,0,1.97,.62,3.6,1.85,4.89s2.79,1.93,4.68,1.93c1.39,0,2.54-.32,3.45-.96,.91-.64,1.56-1.47,1.93-2.49h1.46c-.5,1.35-1.32,2.46-2.46,3.33-1.14,.87-2.61,1.31-4.42,1.31-2.2,0-4.07-.73-5.6-2.19-1.54-1.46-2.3-3.41-2.3-5.83,0-2.24,.71-4.12,2.15-5.63,1.43-1.51,3.33-2.27,5.69-2.27Z"></path> <path d="M925.66,288.5v1.25h-4.48v13.66h-1.31v-13.66h-4.48v-1.25h10.27Z"></path> <path d="M942.22,288.5v14.9h-1.31v-3.08h-.06c-1.51,2.41-3.74,3.61-6.69,3.61-2.07,0-3.85-.74-5.34-2.22s-2.22-3.41-2.22-5.77,.74-4.2,2.21-5.69c1.47-1.49,3.32-2.24,5.54-2.24,1.51,0,2.83,.34,3.94,1.01,1.11,.67,1.95,1.51,2.54,2.5h.09v-3.02h1.31Zm-12.51,2.72c-1.14,1.32-1.71,2.89-1.71,4.71s.57,3.41,1.71,4.75c1.14,1.34,2.75,2.01,4.82,2.01,1.74,0,3.26-.63,4.54-1.88s1.93-2.85,1.93-4.78-.62-3.65-1.85-4.9c-1.23-1.25-2.75-1.88-4.56-1.88-2.12,0-3.74,.66-4.88,1.98Z"></path> <path d="M946.2,303.4v-14.9h5.41c1.49,0,2.64,.32,3.45,.96,.81,.64,1.21,1.5,1.21,2.58,0,1.7-.77,2.79-2.3,3.27,1.1,.23,1.95,.68,2.54,1.35,.59,.67,.89,1.49,.89,2.44,0,2.86-1.96,4.29-5.88,4.29h-5.32Zm5.41-13.72h-4.11v5.26h3.67c2.53,0,3.8-.95,3.8-2.86,0-1.6-1.12-2.4-3.36-2.4Zm-.16,6.38h-3.95v6.16h4.11c1.62,0,2.77-.26,3.45-.79,.68-.53,1.03-1.3,1.03-2.32,0-2.03-1.55-3.05-4.64-3.05Z"></path> <path d="M963.87,289.74l-.75,9.27c-.15,1.74-.47,2.95-.96,3.62-.5,.67-1.32,1.01-2.46,1.01-.35,0-.65-.04-.9-.12v-1.24c.25,.08,.54,.12,.87,.12,.66,0,1.16-.22,1.48-.65,.32-.44,.53-1.25,.64-2.46l.9-10.8h9.93v14.9h-1.31v-13.66h-7.44Z"></path> <path d="M983.91,296.9h-2.71l-4.54,6.5h-1.46l4.73-6.6c-2.66-.37-3.98-1.73-3.98-4.08,0-2.82,1.79-4.23,5.38-4.23h3.89v14.9h-1.31v-6.5Zm-2.52-1.18h2.52v-6.04h-2.68c-1.41,0-2.43,.26-3.05,.78-.62,.52-.93,1.28-.93,2.27,0,1.99,1.38,2.99,4.14,2.99Z"></path> <path d="M990.5,288.5v6.5h2.52c.21-2.05,1.06-3.73,2.55-5.04,1.49-1.31,3.28-1.96,5.35-1.96,2.28,0,4.18,.76,5.69,2.27s2.27,3.4,2.27,5.66-.76,4.11-2.29,5.66c-1.52,1.56-3.42,2.33-5.68,2.33s-4.06-.74-5.57-2.21c-1.51-1.47-2.31-3.3-2.4-5.48h-2.46v7.16h-1.31v-14.9h1.31Zm3.86,7.44c0,1.93,.65,3.54,1.96,4.82s2.84,1.93,4.61,1.93c1.89,0,3.45-.64,4.7-1.93,1.24-1.29,1.87-2.89,1.87-4.82s-.61-3.45-1.83-4.75c-1.22-1.3-2.8-1.94-4.73-1.94s-3.48,.63-4.71,1.88c-1.23,1.25-1.85,2.86-1.85,4.81Z"></path> <path d="M1020.09,288.5v1.25h-4.48v13.66h-1.31v-13.66h-4.48v-1.25h10.27Z"></path> <path d="M501.96,325.83v14.9h-1.31v-7.16h-9.74v7.16h-1.31v-14.9h1.31v6.5h9.74v-6.5h1.31Z"></path> <path d="M504.91,333.27c0-2.28,.77-4.17,2.3-5.68s3.42-2.26,5.66-2.26,4.18,.76,5.69,2.27c1.51,1.51,2.27,3.4,2.27,5.66s-.76,4.11-2.29,5.66-3.42,2.33-5.68,2.33-4.13-.77-5.66-2.3-2.3-3.43-2.3-5.69Zm1.4,0c0,1.93,.65,3.54,1.96,4.82s2.84,1.93,4.6,1.93c1.89,0,3.45-.64,4.7-1.93,1.25-1.29,1.87-2.89,1.87-4.82s-.61-3.45-1.84-4.75c-1.22-1.3-2.8-1.94-4.73-1.94s-3.48,.63-4.71,1.88-1.85,2.86-1.85,4.81Z"></path> <path d="M523.8,340.74v-14.9h5.41c1.49,0,2.64,.32,3.45,.96,.81,.64,1.21,1.5,1.21,2.58,0,1.7-.77,2.79-2.3,3.27,1.1,.23,1.95,.68,2.54,1.35,.59,.67,.89,1.49,.89,2.44,0,2.86-1.96,4.29-5.88,4.29h-5.32Zm5.41-13.72h-4.11v5.26h3.67c2.53,0,3.79-.95,3.79-2.86,0-1.6-1.12-2.4-3.36-2.4Zm-.16,6.38h-3.95v6.16h4.11c1.62,0,2.77-.26,3.45-.79,.68-.53,1.03-1.3,1.03-2.32,0-2.03-1.55-3.05-4.63-3.05Z"></path> <path d="M549.16,325.83l-8.56,22.22h-1.25l2.86-7.37-6.1-14.84h1.34l3.64,8.93c.77,1.93,1.33,3.38,1.68,4.36h.12c.83-2.34,1.36-3.8,1.59-4.36l3.42-8.93h1.24Z"></path> <path d="M552.36,325.83v6.5h2.52c.21-2.05,1.06-3.73,2.55-5.04,1.49-1.31,3.28-1.96,5.35-1.96,2.28,0,4.18,.76,5.69,2.27s2.27,3.4,2.27,5.66-.76,4.11-2.29,5.66c-1.52,1.56-3.42,2.33-5.68,2.33s-4.06-.74-5.57-2.21c-1.51-1.47-2.31-3.3-2.4-5.48h-2.46v7.16h-1.31v-14.9h1.31Zm3.86,7.44c0,1.93,.65,3.54,1.96,4.82s2.84,1.93,4.61,1.93c1.89,0,3.45-.64,4.7-1.93,1.24-1.29,1.87-2.89,1.87-4.82s-.61-3.45-1.83-4.75c-1.22-1.3-2.8-1.94-4.73-1.94s-3.48,.63-4.71,1.88c-1.23,1.25-1.85,2.86-1.85,4.81Z"></path> <path d="M581.17,329.51h-1.46c1.22-2.78,3.44-4.17,6.66-4.17,2.2,0,4.07,.73,5.6,2.19,1.54,1.46,2.3,3.41,2.3,5.83,0,2.24-.72,4.12-2.15,5.63-1.43,1.51-3.33,2.27-5.69,2.27-1.83,0-3.29-.42-4.4-1.26-1.11-.84-1.88-1.86-2.32-3.06h1.49c.42,.98,1.07,1.74,1.96,2.3,.89,.56,1.97,.84,3.24,.84,1.74,0,3.24-.57,4.5-1.7,1.25-1.13,1.91-2.73,1.98-4.81h-8.62v-1.25h8.56c-.23-1.72-.93-3.12-2.12-4.2-1.18-1.08-2.63-1.62-4.36-1.62-1.29,0-2.36,.28-3.24,.83-.87,.55-1.51,1.27-1.93,2.16Z"></path> <path d="M597.41,340.74v-14.9h1.31v6.85l7.47-6.85h1.74l-7.65,6.94,7.78,7.97h-1.8l-7.53-7.84v7.84h-1.31Z"></path> <path d="M616.77,325.34c1.83,0,3.29,.42,4.4,1.26,1.11,.84,1.88,1.86,2.32,3.06h-1.49c-.42-.97-1.07-1.74-1.96-2.3-.89-.56-1.97-.84-3.24-.84-1.78,0-3.31,.59-4.57,1.77-1.27,1.18-1.9,2.84-1.9,4.98,0,1.97,.62,3.6,1.85,4.89s2.79,1.93,4.68,1.93c1.39,0,2.54-.32,3.45-.96,.91-.64,1.56-1.47,1.93-2.49h1.46c-.5,1.35-1.32,2.46-2.46,3.33-1.14,.87-2.61,1.31-4.42,1.31-2.2,0-4.07-.73-5.6-2.19-1.54-1.46-2.3-3.41-2.3-5.83,0-2.24,.71-4.12,2.15-5.63,1.43-1.51,3.33-2.27,5.69-2.27Z"></path> <path d="M626.54,340.74v-14.9h1.31v6.85l7.47-6.85h1.74l-7.65,6.94,7.78,7.97h-1.8l-7.53-7.84v7.84h-1.31Z"></path> <path d="M643.15,327.08l-.75,9.27c-.15,1.74-.47,2.95-.96,3.62-.5,.67-1.32,1.01-2.46,1.01-.35,0-.65-.04-.9-.12v-1.24c.25,.08,.54,.12,.87,.12,.66,0,1.16-.22,1.48-.65,.32-.44,.53-1.25,.64-2.46l.9-10.8h9.93v14.9h-1.31v-13.66h-7.44Z"></path> <path d="M657.18,325.83v6.5h2.52c.21-2.05,1.06-3.73,2.55-5.04,1.49-1.31,3.28-1.96,5.35-1.96,2.28,0,4.18,.76,5.69,2.27s2.27,3.4,2.27,5.66-.76,4.11-2.29,5.66c-1.52,1.56-3.42,2.33-5.68,2.33s-4.06-.74-5.57-2.21c-1.51-1.47-2.31-3.3-2.4-5.48h-2.46v7.16h-1.31v-14.9h1.31Zm3.86,7.44c0,1.93,.65,3.54,1.96,4.82s2.84,1.93,4.61,1.93c1.89,0,3.45-.64,4.7-1.93,1.24-1.29,1.87-2.89,1.87-4.82s-.61-3.45-1.83-4.75c-1.22-1.3-2.8-1.94-4.73-1.94s-3.48,.63-4.71,1.88c-1.23,1.25-1.85,2.86-1.85,4.81Z"></path> <path d="M677.84,337.13h1.31c.42,1.97,1.87,2.96,4.36,2.96,1.41,0,2.47-.34,3.19-1.01,.71-.67,1.07-1.5,1.07-2.47,0-.91-.36-1.67-1.07-2.29-.72-.61-1.85-.92-3.41-.92h-1.4v-1.12h1.15c1.58,0,2.69-.24,3.34-.73s.98-1.19,.98-2.1-.35-1.65-1.04-2.16c-.7-.51-1.61-.76-2.75-.76-1.08,0-1.96,.23-2.65,.68-.68,.46-1.1,1.14-1.24,2.05h-1.28c.1-1.14,.63-2.08,1.57-2.82,.94-.74,2.14-1.1,3.59-1.1s2.69,.38,3.66,1.14c.96,.76,1.45,1.74,1.45,2.94,0,1.76-.93,2.91-2.8,3.42,2.14,.62,3.21,1.92,3.21,3.89,0,1.18-.49,2.24-1.48,3.16-.99,.92-2.34,1.38-4.06,1.38-1.6,0-2.89-.36-3.87-1.07-.99-.71-1.59-1.74-1.82-3.06Z"></path> <path d="M692.25,340.74v-14.9h1.31v8.59c0,1.8-.03,3.32-.09,4.54h.06c.31-.64,1-1.62,2.05-2.92l7.93-10.21h1.09v14.9h-1.31v-8.4c0-1.82,.03-3.34,.09-4.54h-.06c-.23,.42-.93,1.39-2.12,2.92l-7.87,10.02h-1.09Z"></path> <path d="M708.59,340.74v-14.9h5.41c1.49,0,2.64,.32,3.45,.96,.81,.64,1.21,1.5,1.21,2.58,0,1.7-.77,2.79-2.3,3.27,1.1,.23,1.95,.68,2.54,1.35,.59,.67,.89,1.49,.89,2.44,0,2.86-1.96,4.29-5.88,4.29h-5.32Zm5.41-13.72h-4.11v5.26h3.67c2.53,0,3.8-.95,3.8-2.86,0-1.6-1.12-2.4-3.36-2.4Zm-.16,6.38h-3.95v6.16h4.11c1.62,0,2.77-.26,3.45-.79,.68-.53,1.03-1.3,1.03-2.32,0-2.03-1.55-3.05-4.64-3.05Z"></path> <path d="M735.37,325.83v14.9h-1.31v-7.16h-9.74v7.16h-1.31v-14.9h1.31v6.5h9.74v-6.5h1.31Z"></path> <path d="M750.28,325.83l-8.56,22.22h-1.25l2.86-7.37-6.1-14.84h1.34l3.64,8.93c.77,1.93,1.33,3.38,1.68,4.36h.12c.83-2.34,1.36-3.8,1.59-4.36l3.42-8.93h1.24Z"></path> <path d="M753.48,325.83v6.5h2.52c.21-2.05,1.06-3.73,2.55-5.04,1.49-1.31,3.28-1.96,5.35-1.96,2.28,0,4.18,.76,5.69,2.27s2.27,3.4,2.27,5.66-.76,4.11-2.29,5.66c-1.52,1.56-3.42,2.33-5.68,2.33s-4.06-.74-5.57-2.21c-1.51-1.47-2.31-3.3-2.4-5.48h-2.46v7.16h-1.31v-14.9h1.31Zm3.86,7.44c0,1.93,.65,3.54,1.96,4.82s2.84,1.93,4.61,1.93c1.89,0,3.45-.64,4.7-1.93,1.24-1.29,1.87-2.89,1.87-4.82s-.61-3.45-1.83-4.75c-1.22-1.3-2.8-1.94-4.73-1.94s-3.48,.63-4.71,1.88c-1.23,1.25-1.85,2.86-1.85,4.81Z"></path> <path d="M793.99,325.83v14.9h-1.31v-13.66h-9.74v13.66h-1.31v-14.9h12.35Z"></path> <path d="M797.97,348.05v-22.22h1.31v3.11h.06c1.45-2.41,3.68-3.61,6.69-3.61,2.07,0,3.85,.74,5.34,2.22s2.22,3.41,2.22,5.77-.74,4.2-2.21,5.69c-1.47,1.49-3.32,2.24-5.54,2.24-2.88,0-5.04-1.17-6.47-3.52h-.09v10.3h-1.31Zm12.51-10c1.14-1.32,1.71-2.89,1.71-4.71s-.57-3.41-1.71-4.75-2.75-2.01-4.82-2.01c-1.76,0-3.28,.63-4.56,1.88s-1.91,2.85-1.91,4.78,.62,3.65,1.85,4.9,2.75,1.88,4.56,1.88c2.12,0,3.74-.66,4.88-1.98Z"></path> <path d="M815.52,333.27c0-2.28,.77-4.17,2.3-5.68s3.42-2.26,5.66-2.26,4.18,.76,5.69,2.27c1.51,1.51,2.27,3.4,2.27,5.66s-.76,4.11-2.29,5.66-3.42,2.33-5.68,2.33-4.13-.77-5.66-2.3-2.3-3.43-2.3-5.69Zm1.4,0c0,1.93,.65,3.54,1.96,4.82s2.84,1.93,4.6,1.93c1.89,0,3.45-.64,4.7-1.93,1.25-1.29,1.87-2.89,1.87-4.82s-.61-3.45-1.84-4.75c-1.22-1.3-2.8-1.94-4.73-1.94s-3.48,.63-4.71,1.88-1.85,2.86-1.85,4.81Z"></path> <path d="M844.05,325.83v1.25h-8.34v13.66h-1.31v-14.9h9.65Z"></path> <path d="M846.48,348.05v-22.22h1.31v3.11h.06c1.45-2.41,3.68-3.61,6.69-3.61,2.07,0,3.85,.74,5.34,2.22s2.22,3.41,2.22,5.77-.74,4.2-2.21,5.69c-1.47,1.49-3.32,2.24-5.54,2.24-2.88,0-5.04-1.17-6.47-3.52h-.09v10.3h-1.31Zm12.51-10c1.14-1.32,1.71-2.89,1.71-4.71s-.57-3.41-1.71-4.75-2.75-2.01-4.82-2.01c-1.76,0-3.28,.63-4.56,1.88s-1.91,2.85-1.91,4.78,.62,3.65,1.85,4.9,2.75,1.88,4.56,1.88c2.12,0,3.74-.66,4.88-1.98Z"></path> <path d="M879.65,325.83v14.9h-1.31v-3.08h-.06c-1.51,2.41-3.74,3.61-6.69,3.61-2.07,0-3.85-.74-5.34-2.22s-2.22-3.41-2.22-5.77,.74-4.2,2.21-5.69c1.47-1.49,3.32-2.24,5.54-2.24,1.51,0,2.83,.34,3.94,1.01,1.11,.67,1.95,1.51,2.54,2.5h.09v-3.02h1.31Zm-12.51,2.72c-1.14,1.32-1.71,2.89-1.71,4.71s.57,3.41,1.71,4.75c1.14,1.34,2.75,2.01,4.82,2.01,1.74,0,3.26-.63,4.54-1.88s1.93-2.85,1.93-4.78-.62-3.65-1.85-4.9c-1.23-1.25-2.75-1.88-4.56-1.88-2.12,0-3.74,.66-4.88,1.98Z"></path> <path d="M897.88,325.83l2.96,14.9h-1.31l-1.18-6.38c-.66-3.63-1.06-5.83-1.18-6.6h-.09c-.68,2.16-1.46,4.35-2.33,6.57l-2.52,6.41h-1.15l-2.71-6.97c-.89-2.3-1.61-4.3-2.15-6h-.09c-.17,1.33-.51,3.32-1.03,5.97l-1.34,7h-1.31l2.96-14.9h1.18l3.3,8.62c.91,2.41,1.48,3.97,1.71,4.7h.09c.17-.52,.49-1.41,.98-2.68,.49-1.26,.74-1.94,.76-2.02l3.27-8.62h1.18Z"></path> <path d="M917.89,325.83l2.96,14.9h-1.31l-1.18-6.38c-.66-3.63-1.06-5.83-1.18-6.6h-.09c-.68,2.16-1.46,4.35-2.33,6.57l-2.52,6.41h-1.15l-2.71-6.97c-.89-2.3-1.61-4.3-2.15-6h-.09c-.17,1.33-.51,3.32-1.03,5.97l-1.34,7h-1.31l2.96-14.9h1.18l3.3,8.62c.91,2.41,1.48,3.97,1.71,4.7h.09c.17-.52,.49-1.41,.98-2.68,.49-1.26,.74-1.94,.76-2.02l3.27-8.62h1.18Z"></path> <path d="M934.56,325.83l-8.56,22.22h-1.25l2.86-7.37-6.1-14.84h1.34l3.64,8.93c.77,1.93,1.33,3.38,1.68,4.36h.12c.83-2.34,1.36-3.8,1.59-4.36l3.42-8.93h1.24Z"></path> <path d="M489.61,378.08v-14.9h5.41c1.49,0,2.64,.32,3.45,.96,.81,.64,1.21,1.5,1.21,2.58,0,1.7-.77,2.79-2.3,3.27,1.1,.23,1.95,.68,2.54,1.35,.59,.67,.89,1.49,.89,2.44,0,2.86-1.96,4.29-5.88,4.29h-5.32Zm5.41-13.72h-4.11v5.26h3.67c2.53,0,3.8-.95,3.8-2.86,0-1.6-1.12-2.4-3.36-2.4Zm-.16,6.38h-3.95v6.16h4.11c1.62,0,2.77-.26,3.45-.79,.68-.53,1.03-1.3,1.03-2.32,0-2.03-1.55-3.05-4.64-3.05Z"></path> <path d="M510.86,385.39v-22.22h1.31v3.11h.06c1.45-2.41,3.68-3.61,6.69-3.61,2.07,0,3.85,.74,5.34,2.22s2.22,3.41,2.22,5.77-.74,4.2-2.21,5.69c-1.47,1.49-3.32,2.24-5.54,2.24-2.88,0-5.04-1.17-6.47-3.52h-.09v10.3h-1.31Zm12.51-10c1.14-1.32,1.71-2.89,1.71-4.71s-.57-3.41-1.71-4.75-2.75-2.01-4.82-2.01c-1.76,0-3.28,.63-4.56,1.88s-1.91,2.85-1.91,4.78,.62,3.65,1.85,4.9,2.75,1.88,4.56,1.88c2.12,0,3.74-.66,4.88-1.98Z"></path> <path d="M544.02,363.17v14.9h-1.31v-3.08h-.06c-1.51,2.41-3.74,3.61-6.69,3.61-2.07,0-3.85-.74-5.34-2.22-1.48-1.48-2.22-3.41-2.22-5.77s.74-4.2,2.21-5.69c1.47-1.49,3.32-2.24,5.54-2.24,1.51,0,2.83,.34,3.94,1.01,1.11,.67,1.95,1.51,2.54,2.5h.09v-3.02h1.31Zm-12.51,2.72c-1.14,1.32-1.71,2.89-1.71,4.71s.57,3.41,1.71,4.75c1.14,1.34,2.75,2.01,4.82,2.01,1.74,0,3.26-.63,4.54-1.88s1.93-2.85,1.93-4.78-.62-3.65-1.85-4.9c-1.23-1.25-2.75-1.88-4.56-1.88-2.12,0-3.74,.66-4.88,1.98Z"></path> <path d="M562.26,363.17l2.96,14.9h-1.31l-1.18-6.38c-.66-3.63-1.06-5.83-1.18-6.6h-.09c-.68,2.16-1.46,4.35-2.33,6.57l-2.52,6.41h-1.15l-2.71-6.97c-.89-2.3-1.61-4.3-2.15-6h-.09c-.17,1.33-.51,3.32-1.03,5.97l-1.34,7h-1.31l2.96-14.9h1.18l3.3,8.62c.91,2.41,1.48,3.97,1.71,4.7h.09c.17-.52,.49-1.41,.98-2.68,.49-1.26,.74-1.94,.76-2.02l3.27-8.62h1.18Z"></path> <path d="M568.01,378.08v-14.9h1.31v6.85l7.47-6.85h1.74l-7.65,6.94,7.78,7.97h-1.8l-7.53-7.84v7.84h-1.31Z"></path> <path d="M595.14,363.17v14.9h-1.31v-3.08h-.06c-1.51,2.41-3.74,3.61-6.69,3.61-2.07,0-3.85-.74-5.34-2.22s-2.22-3.41-2.22-5.77,.74-4.2,2.21-5.69c1.47-1.49,3.32-2.24,5.54-2.24,1.51,0,2.83,.34,3.94,1.01,1.11,.67,1.95,1.51,2.54,2.5h.09v-3.02h1.31Zm-12.51,2.72c-1.14,1.32-1.71,2.89-1.71,4.71s.57,3.41,1.71,4.75c1.14,1.34,2.75,2.01,4.82,2.01,1.74,0,3.26-.63,4.54-1.88s1.93-2.85,1.93-4.78-.62-3.65-1.85-4.9c-1.23-1.25-2.75-1.88-4.56-1.88-2.12,0-3.74,.66-4.88,1.98Z"></path> <path d="M597.45,378.08l5.76-7.69-5.41-7.22h1.59l3.7,5.04c.54,.77,.82,1.18,.84,1.24h.09c.12-.23,.45-.67,.96-1.34l3.55-4.95h1.56l-5.41,7.19,5.97,7.72h-1.59l-4.08-5.29c-.06-.08-.23-.32-.51-.7-.28-.38-.45-.63-.51-.73h-.06c-.06,.1-.25,.37-.56,.79-.31,.43-.5,.68-.56,.76l-3.8,5.17h-1.52Z"></path> <path d="M620.06,378.08v-2.86l6.56-7.31c1-1.12,1.76-2.13,2.29-3.02,.53-.89,.79-1.78,.79-2.68,0-.83-.26-1.52-.79-2.07-.53-.55-1.25-.82-2.16-.82s-1.62,.31-2.18,.93c-.56,.62-.84,1.44-.84,2.46h-3.67c.04-1.91,.66-3.47,1.87-4.7,1.2-1.22,2.84-1.83,4.92-1.83s3.63,.55,4.81,1.66c1.17,1.11,1.76,2.5,1.76,4.19,0,1.33-.35,2.59-1.04,3.78-.7,1.19-1.8,2.61-3.31,4.25l-4.48,4.82h9.18v3.21h-13.69Z"></path> <path d="M647.47,367h-3.2c-.08-.54-.31-.97-.67-1.31-.36-.33-.8-.5-1.32-.5-.58,0-1.04,.16-1.37,.47-.33,.31-.5,.68-.5,1.12,0,.5,.2,.92,.61,1.26,.4,.34,1.22,.72,2.44,1.14,2.88,.93,4.33,2.52,4.33,4.76,0,1.39-.49,2.52-1.48,3.38-.99,.86-2.32,1.29-4,1.29s-3.05-.43-3.98-1.28c-.93-.85-1.47-2-1.62-3.45h3.24c.19,1.45,1.01,2.18,2.46,2.18,.64,0,1.15-.17,1.51-.51,.36-.34,.54-.78,.54-1.32,0-.58-.22-1.07-.67-1.46-.45-.39-1.26-.8-2.44-1.21-1.43-.46-2.49-1.05-3.17-1.79s-1.03-1.67-1.03-2.82c0-1.25,.46-2.27,1.37-3.07,.91-.8,2.15-1.2,3.7-1.2s2.74,.4,3.62,1.2c.88,.8,1.43,1.84,1.63,3.13Z"></path> <path d="M649.25,366.1v-2.92h1.87v-4.76h3.48v4.76h3.7v2.92h-3.7v6.66c0,.97,.16,1.65,.47,2.02,.31,.37,.84,.56,1.59,.56,.5,0,1.1-.08,1.8-.25v2.83c-.81,.23-1.69,.34-2.64,.34-1.74,0-2.96-.46-3.66-1.38-.7-.92-1.04-2.22-1.04-3.9v-6.88h-1.87Z"></path> <path d="M669.16,378.08v-21.22h3.67v21.22h-3.67Z"></path> <path d="M677.06,378.08v-14.9h3.45v1.87h.06c1.1-1.58,2.61-2.36,4.54-2.36,1.66,0,3.04,.57,4.14,1.71,1.1,1.14,1.65,2.84,1.65,5.1v8.59h-3.48v-8.4c0-1.26-.28-2.23-.84-2.91-.56-.67-1.35-1.01-2.36-1.01-1.12,0-2.01,.38-2.68,1.15s-1,1.86-1,3.27v7.9h-3.48Z"></path> <path d="M698.25,363.17v16.3c0,2.16-.47,3.76-1.42,4.82-.94,1.06-2.27,1.59-3.97,1.59-.97,0-1.92-.15-2.83-.44v-2.92c.81,.25,1.56,.37,2.24,.37,1.66,0,2.49-1.1,2.49-3.3v-16.43h3.48Zm-3.67-3.3v-3.55h3.86v3.55h-3.86Z"></path> <path d="M708.83,362.67c2.41,.02,4.26,.8,5.55,2.35,1.3,1.55,1.94,3.37,1.94,5.46,0,.48-.02,.82-.06,1.03h-11.51c0,1.16,.44,2.18,1.32,3.05s1.92,1.31,3.13,1.31c1.39,0,2.5-.56,3.33-1.68h3.58c-.56,1.29-1.42,2.34-2.57,3.17s-2.6,1.25-4.34,1.25c-2.3,0-4.2-.76-5.69-2.29-1.49-1.52-2.24-3.47-2.24-5.83,0-2.18,.69-4.02,2.07-5.54,1.38-1.51,3.21-2.27,5.49-2.27Zm0,2.61c-1.14,0-2.07,.36-2.8,1.09-.73,.73-1.14,1.6-1.24,2.61h8.06c-.1-1.04-.52-1.91-1.26-2.63-.74-.72-1.66-1.07-2.75-1.07Z"></path> <path d="M726.35,362.67c1.95,0,3.52,.51,4.7,1.52s1.91,2.17,2.18,3.45h-3.58c-.54-1.35-1.65-2.02-3.33-2.02-1.29,0-2.33,.45-3.13,1.34-.8,.89-1.2,2.11-1.2,3.64,0,1.43,.41,2.62,1.23,3.58,.82,.96,1.89,1.43,3.22,1.43,1.64,0,2.78-.75,3.42-2.24h3.61c-.46,1.51-1.27,2.76-2.44,3.75-1.17,.99-2.72,1.48-4.65,1.48-2.28,0-4.18-.74-5.69-2.22-1.51-1.48-2.27-3.42-2.27-5.8,0-2.24,.73-4.12,2.18-5.63,1.45-1.51,3.37-2.27,5.75-2.27Z"></path> <path d="M734.75,366.1v-2.92h1.87v-4.76h3.48v4.76h3.7v2.92h-3.7v6.66c0,.97,.16,1.65,.47,2.02,.31,.37,.84,.56,1.59,.56,.5,0,1.1-.08,1.8-.25v2.83c-.81,.23-1.69,.34-2.64,.34-1.74,0-2.96-.46-3.66-1.38-.7-.92-1.04-2.22-1.04-3.9v-6.88h-1.87Z"></path> <path d="M746.54,359.87v-3.55h3.86v3.55h-3.86Zm.19,18.2v-14.9h3.48v14.9h-3.48Z"></path> <path d="M753.23,370.61c0-2.28,.76-4.17,2.29-5.68,1.53-1.5,3.42-2.26,5.68-2.26s4.23,.75,5.72,2.26c1.49,1.5,2.24,3.4,2.24,5.68s-.76,4.11-2.27,5.66c-1.51,1.56-3.41,2.33-5.69,2.33s-4.15-.77-5.68-2.3c-1.52-1.54-2.29-3.43-2.29-5.69Zm4.76-3.48c-.81,.91-1.21,2.07-1.21,3.48s.43,2.58,1.29,3.5c.86,.92,1.9,1.38,3.13,1.38,1.31,0,2.38-.46,3.21-1.38,.83-.92,1.24-2.09,1.24-3.5s-.4-2.52-1.21-3.45c-.81-.93-1.89-1.4-3.24-1.4s-2.4,.46-3.21,1.37Z"></path> <path d="M772.21,378.08v-14.9h3.45v1.87h.06c1.1-1.58,2.61-2.36,4.54-2.36,1.66,0,3.04,.57,4.14,1.71,1.1,1.14,1.65,2.84,1.65,5.1v8.59h-3.48v-8.4c0-1.26-.28-2.23-.84-2.91-.56-.67-1.35-1.01-2.36-1.01-1.12,0-2.01,.38-2.68,1.15s-1,1.86-1,3.27v7.9h-3.48Z"></path> <path d="M801.27,378.08v-17.98h-5.29v-3.24h14.25v3.24h-5.29v17.98h-3.67Z"></path> <path d="M809.27,370.61c0-2.28,.76-4.17,2.29-5.68,1.53-1.5,3.42-2.26,5.68-2.26s4.23,.75,5.72,2.26c1.49,1.5,2.24,3.4,2.24,5.68s-.76,4.11-2.27,5.66-3.41,2.33-5.69,2.33-4.15-.77-5.68-2.3c-1.52-1.54-2.29-3.43-2.29-5.69Zm4.76-3.48c-.81,.91-1.21,2.07-1.21,3.48s.43,2.58,1.29,3.5c.86,.92,1.9,1.38,3.13,1.38,1.31,0,2.38-.46,3.21-1.38,.83-.92,1.24-2.09,1.24-3.5s-.4-2.52-1.21-3.45c-.81-.93-1.89-1.4-3.24-1.4s-2.4,.46-3.21,1.37Z"></path> <path d="M841.56,363.17v14.9h-3.45v-1.84h-.09c-1.12,1.56-2.59,2.33-4.42,2.33-.68,0-1.33-.11-1.94-.34-.61-.23-1.2-.58-1.76-1.06-.56-.48-1.01-1.16-1.34-2.05-.33-.89-.5-1.94-.5-3.14v-8.81h3.48v8.4c0,1.24,.28,2.21,.83,2.89,.55,.68,1.29,1.03,2.22,1.03,1.08,0,1.93-.38,2.55-1.14,.62-.76,.93-1.84,.93-3.25v-7.93h3.49Z"></path> <path d="M854.57,362.8v3.24c-.73-.1-1.31-.16-1.74-.16-1.2,0-2.13,.39-2.79,1.18-.65,.79-.98,1.95-.98,3.49v7.53h-3.48v-14.9h3.42v2.12h.09c.37-.71,.93-1.31,1.67-1.82,.74-.51,1.57-.76,2.5-.76,.5,0,.93,.03,1.31,.09Z"></path> </g> <polygon points="73.58 188.56 73.58 335.38 200.73 408.79 327.88 335.38 327.88 188.56 200.73 115.15 73.58 188.56" style="fill:none;"></polygon> <g style="opacity:.4;"> <g style="opacity:.5;"> <g style="opacity:.5;"> <g> <polygon points="893.68 414.93 892.31 414.92 891.9 464.49 849.11 488.71 806.73 463.77 807.15 414.2 805.78 414.19 805.35 464.54 849.09 490.29 849.44 490.1 893.26 465.29 893.26 464.89 893.68 414.93" style="fill:url(#linear-gradient-5);"></polygon> <polygon points="918.63 222.97 850.96 222.4 850.76 222.74 816.42 281.07 849.97 340.3 917.64 340.87 917.65 339.51 850.77 338.94 818.01 281.08 851.74 223.77 918.62 224.34 918.63 222.97" style="fill:url(#linear-gradient-6);"></polygon> <polygon points="986.77 300.37 940.52 299.98 916.85 340.18 939.84 380.78 986.09 381.17 986.1 379.8 940.64 379.41 918.43 340.2 941.3 301.35 986.76 301.74 986.77 300.37" style="fill:url(#linear-gradient-7);"></polygon> <polygon points="851.05 339.62 849.68 339.61 849.25 389.97 892.65 415.52 893.35 414.34 850.63 389.19 851.05 339.62" style="fill:url(#linear-gradient-8);"></polygon> </g> <g> <path d="M916.77,221.99c-.92,1.03-.83,2.6,.19,3.52,1.03,.92,2.6,.83,3.53-.19s.83-2.6-.19-3.52-2.6-.83-3.52,.19Z" style="fill:url(#linear-gradient-9);"></path> <path d="M843.7,383.98c-3.09,3.45-2.8,8.74,.65,11.84s8.74,2.8,11.83-.65c3.09-3.45,2.8-8.74-.65-11.83-3.45-3.09-8.75-2.8-11.84,.65Z" style="fill:url(#linear-gradient-10);"></path> <path d="M845.11,217.49c-3.09,3.45-2.8,8.75,.65,11.84,3.45,3.09,8.75,2.8,11.84-.65,3.09-3.45,2.8-8.75-.65-11.84-3.45-3.09-8.75-2.8-11.84,.65Z" style="fill:url(#linear-gradient-11);"></path> <path d="M983.14,297.8c-1.79,2-1.63,5.08,.38,6.88s5.08,1.62,6.87-.38c1.8-2,1.63-5.08-.37-6.88-2.01-1.8-5.09-1.63-6.88,.37Z" style="fill:url(#linear-gradient-12);"></path> <path d="M891.14,413.26c-.92,1.03-.83,2.6,.19,3.52s2.6,.83,3.52-.19c.92-1.03,.84-2.61-.19-3.53-1.03-.92-2.61-.84-3.53,.19Z" style="fill:url(#linear-gradient-13);"></path> <path d="M984.23,378.82c-.92,1.02-.83,2.6,.2,3.52,1.02,.92,2.6,.83,3.52-.19,.92-1.03,.83-2.61-.19-3.53s-2.61-.84-3.53,.19Z" style="fill:url(#linear-gradient-14);"></path> <path d="M939.05,299c-.92,1.03-.83,2.6,.19,3.53,1.02,.92,2.6,.83,3.52-.19,.92-1.03,.83-2.6-.19-3.52s-2.6-.84-3.53,.19Z" style="fill:url(#linear-gradient-15);"></path> <path d="M802.84,410.94c-1.79,2-1.63,5.08,.38,6.88,2,1.79,5.08,1.62,6.88-.38s1.63-5.08-.37-6.87c-2.01-1.8-5.09-1.63-6.88,.37Z" style="fill:url(#linear-gradient-16);"></path> <path d="M914.02,336.94c-1.79,2-1.63,5.08,.38,6.88,2,1.79,5.08,1.62,6.87-.38,1.79-2,1.63-5.08-.37-6.87-2.01-1.8-5.08-1.63-6.88,.37Z" style="fill:url(#linear-gradient-17);"></path> <path d="M815.35,279.4c-.92,1.03-.83,2.6,.2,3.53s2.6,.83,3.52-.19c.92-1.03,.83-2.61-.19-3.52s-2.61-.84-3.53,.19Z" style="fill:url(#linear-gradient-18);"></path> <path d="M848.5,337.95c-.92,1.03-.83,2.6,.19,3.53,1.02,.92,2.6,.83,3.52-.19,.92-1.03,.83-2.6-.19-3.52s-2.6-.84-3.53,.19Z" style="fill:url(#linear-gradient-19);"></path> <path d="M936.61,376.85c-1.79,2-1.63,5.08,.38,6.88,2,1.79,5.08,1.62,6.87-.38,1.79-2,1.62-5.08-.38-6.87-2-1.8-5.08-1.63-6.88,.37Z" style="fill:url(#linear-gradient-20);"></path> </g> </g> <g style="opacity:.5;"> <g> <polygon points="1174.73 399.38 1173.36 399.37 1172.73 473.83 1108.27 510.32 1044.44 472.74 1045.08 398.28 1043.71 398.27 1043.07 473.52 1043.41 473.72 1108.26 511.89 1108.6 511.7 1174.09 474.63 1174.09 474.23 1174.73 399.38" style="fill:url(#linear-gradient-21);"></polygon> <polygon points="1088.98 323.71 1087.61 323.69 1087.19 373.26 1044.4 397.49 1002.02 372.54 1002.44 322.97 1001.07 322.96 1000.65 373.32 1044.39 399.07 1044.73 398.87 1088.55 374.06 1088.55 373.67 1088.98 323.71" style="fill:url(#linear-gradient-22);"></polygon> <polygon points="1132.88 249.13 1131.51 249.12 1131.09 298.69 1088.3 322.91 1045.92 297.96 1046.34 248.4 1044.97 248.39 1044.55 298.74 1088.28 324.49 1088.63 324.3 1132.45 299.49 1132.45 299.09 1132.88 249.13" style="fill:url(#linear-gradient-23);"></polygon> <polygon points="1157.83 57.17 1090.16 56.59 1089.95 56.93 1055.62 115.26 1089.16 174.5 1156.83 175.07 1156.84 173.7 1089.96 173.13 1057.2 115.28 1090.93 57.97 1157.82 58.53 1157.83 57.17" style="fill:url(#linear-gradient-24);"></polygon> </g> <g> <path d="M1082.05,318.11c-3.09,3.45-2.8,8.75,.65,11.84s8.75,2.8,11.84-.65,2.8-8.75-.65-11.84c-3.45-3.09-8.75-2.8-11.84,.65Z" style="fill:url(#linear-gradient-25);"></path> <path d="M1040.77,395.03c-1.79,2-1.63,5.08,.38,6.88,2,1.79,5.08,1.62,6.87-.38s1.63-5.08-.37-6.88c-2.01-1.8-5.08-1.63-6.88,.37Z" style="fill:url(#linear-gradient-26);"></path> <path d="M999.47,371.26c-.92,1.03-.84,2.6,.19,3.53,1.03,.92,2.61,.83,3.53-.19,.92-1.03,.83-2.61-.19-3.53s-2.61-.84-3.53,.19Z" style="fill:url(#linear-gradient-27);"></path> <path d="M1043.38,296.69c-.92,1.03-.84,2.6,.19,3.52,1.02,.92,2.6,.83,3.52-.19s.83-2.61-.19-3.53-2.61-.83-3.53,.19Z" style="fill:url(#linear-gradient-28);"></path> <path d="M1042.03,245.14c-1.79,2-1.63,5.08,.38,6.88,2,1.79,5.08,1.62,6.88-.38,1.79-2,1.63-5.08-.37-6.87-2.01-1.8-5.09-1.63-6.88,.37Z" style="fill:url(#linear-gradient-29);"></path> <path d="M998.13,319.72c-1.79,2-1.63,5.08,.38,6.88,2,1.8,5.08,1.62,6.87-.38,1.8-2,1.63-5.08-.38-6.87-2.01-1.8-5.08-1.63-6.88,.37Z" style="fill:url(#linear-gradient-30);"></path> <path d="M1054.54,113.6c-.92,1.03-.83,2.6,.2,3.53s2.6,.83,3.52-.19c.92-1.03,.83-2.61-.19-3.52s-2.61-.84-3.53,.19Z" style="fill:url(#linear-gradient-31);"></path> </g> </g> </g> <g> <g> <g> <polygon points="893.68 414.93 892.31 414.92 891.9 464.49 849.11 488.71 806.73 463.77 807.15 414.2 805.78 414.19 805.35 464.54 849.09 490.29 849.44 490.1 893.26 465.29 893.26 464.89 893.68 414.93" style="fill:url(#linear-gradient-32);"></polygon> <polygon points="918.63 222.97 850.96 222.4 850.76 222.74 816.42 281.07 849.97 340.3 917.64 340.87 917.65 339.51 850.77 338.94 818.01 281.08 851.74 223.77 918.62 224.34 918.63 222.97" style="fill:url(#linear-gradient-32);"></polygon> <polygon points="986.77 300.37 940.52 299.98 916.85 340.18 939.84 380.78 986.09 381.17 986.1 379.8 940.64 379.41 918.43 340.2 941.3 301.35 986.76 301.74 986.77 300.37" style="fill:url(#linear-gradient-32);"></polygon> <polygon points="851.05 339.62 849.68 339.61 849.25 389.97 892.65 415.52 893.35 414.34 850.63 389.19 851.05 339.62" style="fill:url(#linear-gradient-32);"></polygon> </g> <g> <path d="M916.77,221.99c-.92,1.03-.83,2.6,.19,3.52,1.03,.92,2.6,.83,3.53-.19s.83-2.6-.19-3.52-2.6-.83-3.52,.19Z" style="fill:url(#linear-gradient-32);"></path> <path d="M843.7,383.98c-3.09,3.45-2.8,8.74,.65,11.84s8.74,2.8,11.83-.65c3.09-3.45,2.8-8.74-.65-11.83-3.45-3.09-8.75-2.8-11.84,.65Z" style="fill:url(#linear-gradient-32);"></path> <path d="M845.11,217.49c-3.09,3.45-2.8,8.75,.65,11.84,3.45,3.09,8.75,2.8,11.84-.65,3.09-3.45,2.8-8.75-.65-11.84-3.45-3.09-8.75-2.8-11.84,.65Z" style="fill:url(#linear-gradient-32);"></path> <path d="M983.14,297.8c-1.79,2-1.63,5.08,.38,6.88s5.08,1.62,6.87-.38c1.8-2,1.63-5.08-.37-6.88-2.01-1.8-5.09-1.63-6.88,.37Z" style="fill:url(#linear-gradient-32);"></path> <path d="M891.14,413.26c-.92,1.03-.83,2.6,.19,3.52s2.6,.83,3.52-.19c.92-1.03,.84-2.61-.19-3.53-1.03-.92-2.61-.84-3.53,.19Z" style="fill:url(#linear-gradient-32);"></path> <path d="M984.23,378.82c-.92,1.02-.83,2.6,.2,3.52,1.02,.92,2.6,.83,3.52-.19,.92-1.03,.83-2.61-.19-3.53s-2.61-.84-3.53,.19Z" style="fill:url(#linear-gradient-32);"></path> <path d="M939.05,299c-.92,1.03-.83,2.6,.19,3.53,1.02,.92,2.6,.83,3.52-.19,.92-1.03,.83-2.6-.19-3.52s-2.6-.84-3.53,.19Z" style="fill:url(#linear-gradient-32);"></path> <path d="M802.84,410.94c-1.79,2-1.63,5.08,.38,6.88,2,1.79,5.08,1.62,6.88-.38s1.63-5.08-.37-6.87c-2.01-1.8-5.09-1.63-6.88,.37Z" style="fill:url(#linear-gradient-32);"></path> <path d="M914.02,336.94c-1.79,2-1.63,5.08,.38,6.88,2,1.79,5.08,1.62,6.87-.38,1.79-2,1.63-5.08-.37-6.87-2.01-1.8-5.08-1.63-6.88,.37Z" style="fill:url(#linear-gradient-32);"></path> <path d="M815.35,279.4c-.92,1.03-.83,2.6,.2,3.53s2.6,.83,3.52-.19c.92-1.03,.83-2.61-.19-3.52s-2.61-.84-3.53,.19Z" style="fill:url(#linear-gradient-32);"></path> <path d="M848.5,337.95c-.92,1.03-.83,2.6,.19,3.53,1.02,.92,2.6,.83,3.52-.19,.92-1.03,.83-2.6-.19-3.52s-2.6-.84-3.53,.19Z" style="fill:url(#linear-gradient-32);"></path> <path d="M936.61,376.85c-1.79,2-1.63,5.08,.38,6.88,2,1.79,5.08,1.62,6.87-.38,1.79-2,1.62-5.08-.38-6.87-2-1.8-5.08-1.63-6.88,.37Z" style="fill:url(#linear-gradient-32);"></path> </g> </g> <g> <g> <polygon points="1174.73 399.38 1173.36 399.37 1172.73 473.83 1108.27 510.32 1044.44 472.74 1045.08 398.28 1043.71 398.27 1043.07 473.52 1043.41 473.72 1108.26 511.89 1108.6 511.7 1174.09 474.63 1174.09 474.23 1174.73 399.38" style="fill:url(#linear-gradient-32);"></polygon> <polygon points="1088.98 323.71 1087.61 323.69 1087.19 373.26 1044.4 397.49 1002.02 372.54 1002.44 322.97 1001.07 322.96 1000.65 373.32 1044.39 399.07 1044.73 398.87 1088.55 374.06 1088.55 373.67 1088.98 323.71" style="fill:url(#linear-gradient-32);"></polygon> <polygon points="1132.88 249.13 1131.51 249.12 1131.09 298.69 1088.3 322.91 1045.92 297.96 1046.34 248.4 1044.97 248.39 1044.55 298.74 1088.28 324.49 1088.63 324.3 1132.45 299.49 1132.45 299.09 1132.88 249.13" style="fill:url(#linear-gradient-32);"></polygon> <polygon points="1157.83 57.17 1090.16 56.59 1089.95 56.93 1055.62 115.26 1089.16 174.5 1156.83 175.07 1156.84 173.7 1089.96 173.13 1057.2 115.28 1090.93 57.97 1157.82 58.53 1157.83 57.17" style="fill:url(#linear-gradient-32);"></polygon> </g> <g> <path d="M1082.05,318.11c-3.09,3.45-2.8,8.75,.65,11.84s8.75,2.8,11.84-.65,2.8-8.75-.65-11.84c-3.45-3.09-8.75-2.8-11.84,.65Z" style="fill:url(#linear-gradient-32);"></path> <path d="M1040.77,395.03c-1.79,2-1.63,5.08,.38,6.88,2,1.79,5.08,1.62,6.87-.38s1.63-5.08-.37-6.88c-2.01-1.8-5.08-1.63-6.88,.37Z" style="fill:url(#linear-gradient-32);"></path> <path d="M999.47,371.26c-.92,1.03-.84,2.6,.19,3.53,1.03,.92,2.61,.83,3.53-.19,.92-1.03,.83-2.61-.19-3.53s-2.61-.84-3.53,.19Z" style="fill:url(#linear-gradient-32);"></path> <path d="M1043.38,296.69c-.92,1.03-.84,2.6,.19,3.52,1.02,.92,2.6,.83,3.52-.19s.83-2.61-.19-3.53-2.61-.83-3.53,.19Z" style="fill:url(#linear-gradient-32);"></path> <path d="M1042.03,245.14c-1.79,2-1.63,5.08,.38,6.88,2,1.79,5.08,1.62,6.88-.38,1.79-2,1.63-5.08-.37-6.87-2.01-1.8-5.09-1.63-6.88,.37Z" style="fill:url(#linear-gradient-32);"></path> <path d="M998.13,319.72c-1.79,2-1.63,5.08,.38,6.88,2,1.8,5.08,1.62,6.87-.38,1.8-2,1.63-5.08-.38-6.87-2.01-1.8-5.08-1.63-6.88,.37Z" style="fill:url(#linear-gradient-32);"></path> <path d="M1054.54,113.6c-.92,1.03-.83,2.6,.2,3.53s2.6,.83,3.52-.19c.92-1.03,.83-2.61-.19-3.52s-2.61-.84-3.53,.19Z" style="fill:url(#linear-gradient-32);"></path> </g> </g> </g> </g> </svg> 