<?xml version="1.0" encoding="UTF-8"?> <!-- Generator: Adobe Illustrator 26.0.3, SVG Export Plug-In . SVG Version: 6.00 Build 0) --> <svg xmlns="http://www.w3.org/2000/svg" xmlns:xlink="http://www.w3.org/1999/xlink" id="Layer_1" x="0px" y="0px" viewBox="0 0 940 1593.1" style="enable-background:new 0 0 940 1593.1;" xml:space="preserve"> <style type="text/css"> .st0{opacity:0.36;fill:url(#SVGID_1_);enable-background:new ;} .st1{fill:#FCFCFC;} .st2{fill:#889BA1;} .st3{fill:#A0AFB4;} .st4{fill:#B8C3C7;} .st5{fill:#FFFFFF;} .st6{fill:#CFD7D9;} </style> <linearGradient id="SVGID_1_" gradientUnits="userSpaceOnUse" x1="460.05" y1="1079.2101" x2="460.05" y2="-524.9899" gradientTransform="matrix(1 0 0 1 0 511.8899)"> <stop offset="1.117318e-02" style="stop-color:#FFFFFF"></stop> <stop offset="1" style="stop-color:#B8C3C7"></stop> </linearGradient> <rect x="-19.9" y="-13.1" class="st0" width="959.9" height="1604.2"></rect> <g> <polygon class="st1" points="90.6,764.2 90.9,764.4 155,819.9 155.4,819.8 235,792.2 234.5,790.8 155.3,818.2 92.3,763.6 108.1,681.7 187.3,654.3 186.8,652.8 106.7,680.5 106.6,681 "></polygon> <rect x="285.1" y="841.6" transform="matrix(0.655 -0.7556 0.7556 0.655 -551.1667 512.6268)" class="st1" width="1.5" height="36.7"></rect> <polygon class="st1" points="234.3,792.1 262.4,816.5 297.5,804.3 297,802.8 262.7,814.7 235.3,790.9 "></polygon> <polygon class="st1" points="186.7,654.4 222.3,651.8 237.7,620.1 236.3,619.4 221.3,650.4 187.4,652.8 168.4,624.7 183.4,593.8 182.1,593.1 166.6,624.8 "></polygon> <polygon class="st1" points="82.3,631.6 118,629 133.4,597.3 132,596.7 117,627.6 83.1,630 63.9,601.5 62.6,602.4 "></polygon> <polygon class="st1" points="132.3,597.8 183.2,594.2 205.4,548.6 204,547.9 182.3,592.7 133.1,596.2 105.5,555.4 127.2,510.6 125.8,510 103.7,555.5 "></polygon> <polygon class="st1" points="204.9,549 240.5,536.7 240.5,536.3 247.7,499.4 218.9,474.5 183.4,486.8 183.9,488.2 218.6,476.2 246,500 239.1,535.6 204.4,547.6 "></polygon> <polygon class="st1" points="253.5,667.5 281.1,658 286.7,628.9 264.3,609.5 236.7,619.1 237.2,620.5 264,611.3 285,629.5 279.7,656.8 253,666.1 "></polygon> <polygon class="st1" points="142.5,468.4 183.3,488.2 184,486.8 144,467.4 140.9,423.5 177.7,398.6 176.8,397.3 139.3,422.7 "></polygon> <polygon class="st1" points="96.9,409.3 139.8,423.8 140.3,422.4 98.2,408.1 89.5,364.5 88,364.9 "></polygon> <polygon class="st1" points="83.3,496.5 126.3,511 126.7,509.6 84.7,495.3 75.9,451.7 74.4,452 "></polygon> <rect x="40.3" y="502.5" transform="matrix(0.945 -0.3271 0.3271 0.945 -161.1634 48.2099)" class="st1" width="44.9" height="1.5"></rect> <polygon class="st1" points="176.5,398 178,397.9 174.9,353.6 211.7,328.7 210.8,327.4 173.3,352.8 "></polygon> <polygon class="st1" points="94,284.3 127,272.8 153.2,295.4 146.5,329.8 148,330.1 154.8,294.9 127.4,271.1 93.5,282.8 "></polygon> <polygon class="st1" points="20.1,180.1 53.2,168.7 79.3,191.3 72.7,225.7 74.2,226 81,190.8 53.5,167 19.6,178.7 "></polygon> <polygon class="st1" points="66.1,260.6 93.2,284.1 94.2,282.9 67.8,260.1 74.2,226 72.7,225.7 "></polygon> <polygon class="st1" points="41.6,418.5 43.1,418 31.6,384.9 54.3,358.8 88.6,365.5 88.9,363.9 53.7,357.1 29.9,384.6 "></polygon> <rect x="159.9" y="323.8" transform="matrix(0.655 -0.7557 0.7557 0.655 -202.6369 239.2118)" class="st1" width="1.5" height="35.4"></rect> <polygon class="st1" points="234.4,450.8 235.9,450.7 232.7,405.9 231.2,406.1 "></polygon> <polygon class="st1" points="220.9,705.1 248.5,695.6 254,666.9 252.5,666.6 247.1,694.4 220.4,703.7 "></polygon> <rect x="230.9" y="883.5" transform="matrix(0.4371 -0.8994 0.8994 0.4371 -675.4373 712.6726)" class="st1" width="1.5" height="25"></rect> <polygon class="st1" points="254.5,1061.5 285.3,1040.7 282.6,1003.2 249.2,986.9 248.5,988.3 281.2,1004.2 283.7,1039.9 253.7,1060.3 "></polygon> <polygon class="st1" points="162.2,774.2 163.6,773.5 152.1,750.3 166.5,728.8 165.2,728 150.3,750.2 "></polygon> <polygon class="st1" points="153.1,820.5 154.6,820.8 163.6,774.4 208.2,759 207.7,757.5 162.2,773.3 162.1,773.7 "></polygon> <polygon class="st1" points="16.7,624.2 18,625 34.1,600.8 63.2,602.7 63.3,601.2 33.4,599.2 "></polygon> <rect x="75.8" y="559.5" transform="matrix(0.9451 -0.3267 0.3267 0.9451 -178.0649 60.3226)" class="st1" width="29.5" height="1.5"></rect> <polygon class="st1" points="143.9,938.5 182.8,972.2 183.8,971.1 145.5,937.9 155,888.6 202.9,872 202.4,870.6 153.7,887.4 153.6,887.9 "></polygon> <polygon class="st1" points="192,1004.2 193.5,1003.8 184.2,971.9 206.9,948.1 238.8,955.9 248.1,987.8 249.6,987.4 240,954.6 206.4,946.4 182.4,971.4 "></polygon> <rect x="266.5" y="814.9" transform="matrix(0.9596 -0.2815 0.2815 0.9596 -223.3311 108.8649)" class="st1" width="1.5" height="33.7"></rect> <polygon class="st1" points="205.9,947.5 207.4,947 198,915.1 221,891 219.9,889.9 196.3,914.7 "></polygon> <polygon class="st1" points="1.1,746.9 41.5,781.9 42,781.8 91.7,764.6 91.2,763.1 41.9,780.2 2.8,746.3 12.7,695.1 11.1,694.8 "></polygon> <polygon class="st1" points="18.8,827.2 45.5,840.3 46.2,838.9 20.2,826.2 18.2,797.9 42.1,781.7 41.3,780.4 16.6,797.1 "></polygon> <polygon class="st1" points="283,954.6 284.6,954.9 300.4,872.6 379.2,845.4 442.2,900 426.4,982.3 427.9,982.6 443.9,899.4 443.6,899.1 379.6,843.6 379.1,843.8 299.1,871.4 299,871.9 "></polygon> <polygon class="st1" points="362.5,1055.9 364.1,1056.2 374.6,1001.4 426.9,983.3 468.8,1019.6 458.2,1074.3 459.7,1074.6 470.5,1019 427.3,981.5 426.9,981.7 373.3,1000.2 373.2,1000.7 "></polygon> <polygon class="st1" points="298.7,1129.5 300.2,1129.8 310.8,1075 363.1,1056.9 405,1093.2 394.4,1148 395.9,1148.2 406.6,1092.6 363.5,1055.2 363,1055.3 309.5,1073.8 309.4,1074.3 "></polygon> <polygon class="st1" points="232,1336.9 306.8,1351.4 307.1,1351 357,1293.5 331.9,1221 257.1,1206.6 256.8,1208.1 330.8,1222.4 355.2,1293.1 306.2,1349.7 232.3,1335.4 "></polygon> <polygon class="st1" points="172.3,1237.4 223.4,1247.2 257.8,1207.5 240.7,1157.9 189.5,1148 189.3,1149.6 239.5,1159.2 256.1,1207.2 222.9,1245.5 172.6,1235.8 "></polygon> <polygon class="st1" points="330.6,1221.6 332.1,1221.9 342.8,1166.2 300,1129.1 299,1130.2 341.2,1166.8 "></polygon> <polygon class="st1" points="296.5,803.4 298,803.7 306.3,760.5 347.5,746.2 380.5,774.8 372.1,818 373.6,818.3 382.1,774.2 347.9,744.5 347.4,744.6 305,759.3 304.9,759.8 "></polygon> <polygon class="st1" points="243.2,902.1 270.2,892.8 291.8,911.5 292.8,910.3 270.5,891 242.6,900.7 "></polygon> <polygon class="st1" points="291.8,911.5 314,930.8 341.9,921.2 341.4,919.7 314.4,929 292.8,910.3 "></polygon> <rect x="212.2" y="462.3" transform="matrix(0.5547 -0.832 0.832 0.5547 -284.2137 394.9723)" class="st1" width="29.5" height="1.5"></rect> <polygon class="st1" points="295.4,531.2 331,528.7 346.4,497 345.1,496.3 330,527.2 296.2,529.6 276.9,501.1 275.7,502 "></polygon> <rect x="260.8" y="485.9" transform="matrix(6.435557e-02 -0.9979 0.9979 6.435557e-02 -254.9008 729.4642)" class="st1" width="1.5" height="29.5"></rect> <path class="st1" d="M113.2,688.6c4.1-3.2,4.9-9.1,1.7-13.2c-3.2-4.1-9.1-4.9-13.2-1.7s-4.9,9.1-1.7,13.2 C103.1,691,109.1,691.8,113.2,688.6z"></path> <path class="st1" d="M192.8,661c4.1-3.2,4.9-9.1,1.7-13.2c-3.2-4.1-9.1-4.9-13.2-1.7c-4.1,3.2-4.9,9.1-1.7,13.2 C182.8,663.5,188.7,664.2,192.8,661z"></path> <path class="st1" d="M138.5,604.5c4.1-3.2,4.9-9.1,1.7-13.2c-3.2-4.1-9.1-4.9-13.2-1.7c-4.1,3.2-4.9,9.1-1.7,13.2 C128.4,606.9,134.3,607.6,138.5,604.5z"></path> <path class="st1" d="M145.9,430.6c4.1-3.2,4.9-9.1,1.7-13.2s-9.1-4.9-13.2-1.7c-4.1,3.2-4.9,9.1-1.7,13.2 C135.8,433,141.7,433.8,145.9,430.6z"></path> <path class="st1" d="M72.7,267.8c4.1-3.2,4.9-9.1,1.7-13.2c-3.2-4.1-9.1-4.9-13.2-1.7c-4.1,3.2-4.9,9.1-1.7,13.2 C62.7,270.2,68.6,271,72.7,267.8z"></path> <path class="st1" d="M130.1,275.6c2-1.6,2.4-4.5,0.8-6.6c-1.6-2-4.5-2.4-6.6-0.8s-2.4,4.5-0.8,6.6 C125.1,276.8,128,277.2,130.1,275.6z"></path> <path class="st1" d="M83,194.7c2-1.6,2.4-4.5,0.8-6.6c-1.6-2-4.5-2.4-6.6-0.8c-2,1.6-2.4,4.5-0.8,6.6C78,195.9,81,196.3,83,194.7z"></path> <path class="st1" d="M210.5,555.7c4.1-3.2,4.9-9.1,1.7-13.2c-3.2-4.1-9.1-4.9-13.2-1.7c-4.1,3.2-4.9,9.1-1.7,13.2 C200.4,558.2,206.3,558.9,210.5,555.7z"></path> <path class="st1" d="M106.7,558.2c1.5-1.2,1.8-3.4,0.6-4.9c-1.2-1.5-3.4-1.8-4.9-0.6s-1.8,3.4-0.6,4.9 C103,559.1,105.2,559.4,106.7,558.2z"></path> <path class="st1" d="M86.1,498.7c1.5-1.2,1.8-3.4,0.6-4.9c-1.2-1.5-3.4-1.8-4.9-0.6c-1.5,1.2-1.8,3.4-0.6,4.9 S84.6,499.8,86.1,498.7z"></path> <path class="st1" d="M176.2,355.9c1.5-1.2,1.8-3.4,0.6-4.9s-3.4-1.8-4.9-0.6c-1.5,1.2-1.8,3.4-0.6,4.9S174.7,357.1,176.2,355.9z"></path> <path class="st1" d="M156.1,297.9c1.5-1.2,1.8-3.4,0.6-4.9s-3.4-1.8-4.9-0.6c-1.5,1.2-1.8,3.4-0.6,4.9 C152.4,298.8,154.6,299.1,156.1,297.9z"></path> <path class="st1" d="M97.2,771.3c4.1-3.2,4.9-9.1,1.7-13.2c-3.2-4.1-9.1-4.9-13.2-1.7s-4.9,9.1-1.7,13.2 C87.2,773.8,93.1,774.5,97.2,771.3z"></path> <path class="st1" d="M160.9,826.5c4.1-3.2,4.9-9.1,1.7-13.2c-3.2-4.1-9.1-4.9-13.2-1.7c-4.1,3.2-4.9,9.1-1.7,13.2 C150.8,829,156.8,829.7,160.9,826.5z"></path> <path class="st1" d="M303,811c4.1-3.2,4.9-9.1,1.7-13.2c-3.2-4.1-9.1-4.9-13.2-1.7s-4.9,9.1-1.7,13.2 C293,813.5,298.9,814.2,303,811z"></path> <path class="st1" d="M248.7,908.9c4.1-3.2,4.9-9.1,1.7-13.2c-3.2-4.1-9.1-4.9-13.2-1.7c-4.1,3.2-4.9,9.1-1.7,13.2 C238.6,911.3,244.5,912,248.7,908.9z"></path> <path class="st1" d="M287.7,1011.1c4.1-3.2,4.9-9.1,1.7-13.2c-3.2-4.1-9.1-4.9-13.2-1.7s-4.9,9.1-1.7,13.2 C277.6,1013.6,283.6,1014.3,287.7,1011.1z"></path> <path class="st1" d="M369.1,1063.5c4.1-3.2,4.9-9.1,1.7-13.2c-3.2-4.1-9.1-4.9-13.2-1.7c-4.1,3.2-4.9,9.1-1.7,13.2 C359,1065.9,364.9,1066.7,369.1,1063.5z"></path> <path class="st1" d="M45.1,785.4c2.4-1.9,2.8-5.3,1-7.7c-1.9-2.4-5.3-2.8-7.7-1c-2.4,1.9-2.8,5.3-1,7.7 C39.2,786.8,42.7,787.3,45.1,785.4z"></path> <path class="st1" d="M169.2,732.7c2.4-1.9,2.8-5.3,1-7.7c-1.9-2.4-5.3-2.8-7.7-1s-2.8,5.3-1,7.7 C163.3,734.1,166.8,734.6,169.2,732.7z"></path> <ellipse class="st1" cx="162.8" cy="773.8" rx="5.5" ry="5.5"></ellipse> <path class="st1" d="M157.7,892.3c2.4-1.9,2.8-5.3,1-7.7s-5.3-2.8-7.7-1s-2.8,5.3-1,7.7C151.9,893.8,155.3,894.2,157.7,892.3z"></path> <path class="st1" d="M211.3,762.6c2.4-1.8,2.8-5.3,1-7.7c-1.9-2.4-5.3-2.8-7.7-1c-2.4,1.9-2.8,5.3-1,7.7 C205.5,764,208.9,764.4,211.3,762.6z"></path> <path class="st1" d="M206,875.6c2.4-1.9,2.8-5.3,1-7.7s-5.3-2.8-7.7-1c-2.4,1.9-2.8,5.3-1,7.7C200.2,877.1,203.6,877.5,206,875.6z"></path> <path class="st1" d="M376.2,822.5c2.4-1.9,2.8-5.3,1-7.7c-1.9-2.4-5.3-2.8-7.7-1c-2.4,1.8-2.8,5.3-1,7.7 C370.4,823.9,373.8,824.4,376.2,822.5z"></path> <path class="st1" d="M351.1,749.7c2.4-1.9,2.8-5.3,1-7.7c-1.9-2.4-5.3-2.8-7.7-1c-2.4,1.9-2.8,5.3-1,7.7 C345.2,751.1,348.7,751.5,351.1,749.7z"></path> <path class="st1" d="M237,796.7c2.4-1.8,2.8-5.3,1-7.7s-5.3-2.8-7.7-1c-2.4,1.9-2.8,5.3-1,7.7C231.1,798.1,234.6,798.6,237,796.7z"></path> <path class="st1" d="M430.5,986.8c2.4-1.9,2.8-5.3,1-7.7s-5.3-2.8-7.7-1c-2.4,1.9-2.8,5.3-1,7.7 C424.6,988.2,428.1,988.6,430.5,986.8z"></path> <path class="st1" d="M4.1,749.4c1.5-1.2,1.8-3.4,0.6-4.9s-3.4-1.8-4.9-0.6s-1.8,3.4-0.6,4.9C0.3,750.3,2.5,750.6,4.1,749.4z"></path> <path class="st1" d="M153.4,753.1c1.5-1.2,1.8-3.4,0.6-4.9s-3.4-1.8-4.9-0.6s-1.8,3.4-0.6,4.9C149.6,754,151.8,754.2,153.4,753.1z"></path> <path class="st1" d="M307.8,762.7c1.5-1.2,1.8-3.4,0.6-4.9c-1.2-1.5-3.4-1.8-4.9-0.6s-1.8,3.4-0.6,4.9 C304.1,763.6,306.3,763.9,307.8,762.7z"></path> <path class="st1" d="M264.7,818.4c1.5-1.2,1.8-3.4,0.6-4.9c-1.2-1.5-3.4-1.8-4.9-0.6s-1.8,3.4-0.6,4.9 C260.9,819.3,263.1,819.5,264.7,818.4z"></path> <path class="st1" d="M301.9,874.8c1.5-1.2,1.8-3.4,0.6-4.9c-1.2-1.5-3.4-1.8-4.9-0.6s-1.8,3.4-0.6,4.9 C298.2,875.7,300.4,876,301.9,874.8z"></path> <path class="st1" d="M383.5,777.3c1.5-1.2,1.8-3.4,0.6-4.9c-1.2-1.5-3.4-1.8-4.9-0.6s-1.8,3.4-0.6,4.9 C379.7,778.2,381.9,778.5,383.5,777.3z"></path> <path class="st1" d="M15.3,699.3c2.4-1.9,2.8-5.3,1-7.7s-5.3-2.8-7.7-1c-2.4,1.9-2.8,5.3-1,7.7S12.9,701.1,15.3,699.3z"></path> <path class="st1" d="M86.1,635.1c2.4-1.9,2.8-5.3,1-7.7s-5.3-2.8-7.7-1c-2.4,1.8-2.8,5.3-1,7.7C80.2,636.5,83.7,637,86.1,635.1z"></path> <path class="st1" d="M170.9,629.1c2.4-1.9,2.8-5.3,1-7.7c-1.9-2.4-5.3-2.8-7.7-1c-2.4,1.9-2.8,5.3-1,7.7S168.5,630.9,170.9,629.1z"></path> <path class="st1" d="M256.6,671.1c2.4-1.9,2.8-5.3,1-7.7c-1.8-2.4-5.3-2.8-7.7-1s-2.8,5.3-1,7.7C250.8,672.5,254.2,673,256.6,671.1 z"></path> <path class="st1" d="M240.3,624.1c2.4-1.9,2.8-5.3,1-7.7s-5.3-2.8-7.7-1c-2.4,1.9-2.8,5.3-1,7.7C234.5,625.5,238,626,240.3,624.1z"></path> <path class="st1" d="M129.9,514.6c2.4-1.9,2.8-5.3,1-7.7c-1.8-2.4-5.3-2.8-7.7-1c-2.4,1.8-2.8,5.3-1,7.7S127.5,516.5,129.9,514.6z"></path> <path class="st1" d="M180.6,402.3c2.4-1.9,2.8-5.3,1-7.7c-1.8-2.4-5.3-2.8-7.7-1c-2.4,1.9-2.8,5.3-1,7.7 C174.8,403.7,178.2,404.1,180.6,402.3z"></path> <path class="st1" d="M92.1,369c2.4-1.9,2.8-5.3,1-7.7c-1.9-2.4-5.3-2.8-7.7-1c-2.4,1.9-2.8,5.3-1,7.7 C86.3,370.4,89.7,370.9,92.1,369z"></path> <path class="st1" d="M234.7,409.6c2-1.5,2.4-4.4,0.8-6.4c-1.5-2-4.4-2.4-6.4-0.8c-2,1.5-2.4,4.4-0.8,6.4 C229.9,410.8,232.7,411.2,234.7,409.6z"></path> <path class="st1" d="M221.5,479c2-1.5,2.4-4.4,0.8-6.4c-1.5-2-4.4-2.4-6.4-0.8c-2,1.5-2.4,4.4-0.8,6.4 C216.7,480.1,219.6,480.5,221.5,479z"></path> <path class="st1" d="M21.2,829c1.2-0.9,1.5-2.7,0.5-3.9s-2.7-1.5-3.9-0.5c-1.2,0.9-1.5,2.7-0.5,3.9C18.2,829.7,20,829.9,21.2,829z"></path> <path class="st1" d="M19.1,799.7c1.2-0.9,1.5-2.7,0.5-3.9c-0.9-1.2-2.7-1.5-3.9-0.5c-1.2,0.9-1.5,2.7-0.5,3.9 C16.1,800.4,17.9,800.7,19.1,799.7z"></path> <path class="st1" d="M49.2,843.9c2.4-1.9,2.8-5.3,1-7.7s-5.3-2.8-7.7-1s-2.8,5.3-1,7.7C43.4,845.3,46.8,845.7,49.2,843.9z"></path> <path class="st1" d="M184.9,596.2c1.5-1.2,1.8-3.4,0.6-4.9s-3.4-1.8-4.9-0.6s-1.8,3.4-0.6,4.9C181.2,597.1,183.4,597.4,184.9,596.2 z"></path> <path class="st1" d="M222.8,707.2c1.5-1.2,1.8-3.4,0.6-4.9s-3.4-1.8-4.9-0.6s-1.8,3.4-0.6,4.9C219.1,708.1,221.3,708.3,222.8,707.2 z"></path> <path class="st1" d="M223.9,653.9c1.5-1.2,1.8-3.4,0.6-4.9s-3.4-1.8-4.9-0.6s-1.8,3.4-0.6,4.9C220.2,654.8,222.4,655.1,223.9,653.9 z"></path> <path class="st1" d="M266.3,613.2c1.5-1.2,1.8-3.4,0.6-4.9c-1.2-1.5-3.4-1.8-4.9-0.6s-1.8,3.4-0.6,4.9 C262.5,614.1,264.8,614.4,266.3,613.2z"></path> <path class="st1" d="M65.4,604.7c1.5-1.2,1.8-3.4,0.6-4.9c-1.2-1.5-3.4-1.8-4.9-0.6s-1.8,3.4-0.6,4.9 C61.6,605.6,63.8,605.9,65.4,604.7z"></path> <path class="st1" d="M19.5,627.4c1.5-1.2,1.8-3.4,0.6-4.9c-1.2-1.5-3.4-1.8-4.9-0.6s-1.8,3.4-0.6,4.9 C15.8,628.3,18,628.6,19.5,627.4z"></path> <path class="st1" d="M35.1,601.8c1-0.7,1.1-2.1,0.4-3.1c-0.7-1-2.1-1.1-3.1-0.4c-1,0.7-1.1,2.1-0.4,3.1 C32.8,602.3,34.1,602.5,35.1,601.8z"></path> <path class="st1" d="M299.2,534.8c2.4-1.9,2.8-5.3,1-7.7s-5.3-2.8-7.7-1c-2.4,1.8-2.8,5.3-1,7.7S296.8,536.6,299.2,534.8z"></path> <path class="st1" d="M278.4,504.4c1.5-1.2,1.8-3.4,0.6-4.9c-1.2-1.5-3.4-1.8-4.9-0.6c-1.5,1.2-1.8,3.4-0.6,4.9 C274.7,505.3,276.9,505.5,278.4,504.4z"></path> <path class="st1" d="M248.5,501.8c1.2-0.9,1.4-2.6,0.5-3.7c-0.9-1.2-2.6-1.4-3.8-0.5s-1.4,2.6-0.5,3.8 C245.6,502.5,247.3,502.7,248.5,501.8z"></path> <path class="st1" d="M241.4,538.3c1.2-0.9,1.4-2.6,0.5-3.7c-0.9-1.2-2.6-1.4-3.8-0.5s-1.4,2.6-0.5,3.8 C238.6,538.9,240.3,539.2,241.4,538.3z"></path> <path class="st1" d="M347.9,499.4c1.5-1.2,1.8-3.4,0.6-4.9c-1.2-1.5-3.4-1.8-4.9-0.6c-1.5,1.2-1.8,3.4-0.6,4.9 C344.2,500.3,346.4,500.6,347.9,499.4z"></path> <path class="st1" d="M236.5,452.5c1-0.7,1.1-2.1,0.4-3.1c-0.7-1-2.1-1.1-3.1-0.4s-1.1,2.1-0.4,3.1S235.5,453.2,236.5,452.5z"></path> <path class="st1" d="M212.6,329.8c1-0.7,1.1-2.1,0.4-3.1c-0.7-1-2.1-1.1-3.1-0.4s-1.1,2.1-0.4,3.1 C210.3,330.3,211.6,330.5,212.6,329.8z"></path> <path class="st1" d="M55.1,170.1c1.3-1,1.5-2.8,0.5-4c-1-1.3-2.8-1.5-4-0.5c-1.3,1-1.5,2.8-0.5,4S53.9,171.1,55.1,170.1z"></path> <path class="st1" d="M21.2,181.1c0.9-0.7,1.1-2,0.4-3c-0.7-0.9-2-1.1-3-0.4c-0.9,0.7-1.1,2-0.4,3C18.9,181.6,20.2,181.8,21.2,181.1 z"></path> <path class="st1" d="M42.9,512.3c1-0.7,1.1-2.1,0.4-3.1c-0.7-1-2.1-1.1-3.1-0.4s-1.1,2.1-0.4,3.1C40.6,512.9,41.9,513,42.9,512.3z"></path> <path class="st1" d="M76.5,453.6c1-0.7,1.1-2.1,0.4-3.1s-2.1-1.1-3.1-0.4s-1.1,2.1-0.4,3.1C74.2,454.2,75.6,454.4,76.5,453.6z"></path> <path class="st1" d="M56.1,360.8c1.5-1.2,1.8-3.4,0.6-4.9s-3.4-1.8-4.9-0.6c-1.5,1.2-1.8,3.4-0.6,4.9 C52.4,361.7,54.6,361.9,56.1,360.8z"></path> <path class="st1" d="M43.7,420c1-0.7,1.1-2.1,0.4-3.1c-0.7-1-2.1-1.1-3.1-0.4s-1.1,2.1-0.4,3.1C41.4,420.6,42.7,420.7,43.7,420z"></path> <path class="st1" d="M78,566.8c1-0.7,1.1-2.1,0.4-3.1s-2.1-1.1-3.1-0.4c-1,0.7-1.1,2.1-0.4,3.1C75.7,567.4,77,567.5,78,566.8z"></path> <path class="st1" d="M281.7,659.1c1-0.7,1.1-2.1,0.4-3.1s-2.1-1.1-3.1-0.4c-1,0.7-1.1,2.1-0.4,3.1 C279.4,659.7,280.8,659.9,281.7,659.1z"></path> <path class="st1" d="M287.2,630.9c1-0.7,1.1-2.1,0.4-3.1s-2.1-1.1-3.1-0.4c-1,0.7-1.1,2.1-0.4,3.1 C284.9,631.5,286.2,631.7,287.2,630.9z"></path> <path class="st1" d="M249.2,696.7c1-0.7,1.1-2.1,0.4-3.1c-0.7-1-2.1-1.1-3.1-0.4c-1,0.7-1.1,2.1-0.4,3.1S248.2,697.5,249.2,696.7z"></path> <path class="st1" d="M273.7,850.2c1.2-0.9,1.5-2.7,0.5-3.9c-0.9-1.2-2.7-1.5-3.9-0.5c-1.2,0.9-1.5,2.7-0.5,3.9 C270.7,850.9,272.5,851.1,273.7,850.2z"></path> <path class="st1" d="M294,913.1c1.2-0.9,1.5-2.7,0.5-3.9c-0.9-1.2-2.7-1.5-3.9-0.5c-1.2,0.9-1.5,2.7-0.5,3.9 C291,913.9,292.7,914.1,294,913.1z"></path> <path class="st1" d="M198.9,917.1c1.2-0.9,1.5-2.7,0.5-3.9c-0.9-1.2-2.7-1.5-3.9-0.5c-1.2,0.9-1.5,2.7-0.5,3.9 C195.9,917.8,197.6,918,198.9,917.1z"></path> <path class="st1" d="M146.4,940.4c1.2-0.9,1.5-2.7,0.5-3.9c-0.9-1.2-2.7-1.5-3.9-0.5c-1.2,0.9-1.5,2.7-0.5,3.9 C143.4,941.1,145.2,941.3,146.4,940.4z"></path> <path class="st1" d="M208.6,949.2c1.2-0.9,1.5-2.7,0.5-3.9c-0.9-1.2-2.7-1.5-3.9-0.5c-1.2,0.9-1.5,2.7-0.5,3.9 C205.6,950,207.4,950.2,208.6,949.2z"></path> <path class="st1" d="M451.5,910.6c6.1-4.7,7.2-13.4,2.5-19.4c-4.7-6.1-13.4-7.2-19.4-2.5c-6.1,4.7-7.2,13.4-2.5,19.4 C436.8,914.2,445.5,915.3,451.5,910.6z"></path> <path class="st1" d="M242.7,959.6c2.4-1.9,2.8-5.3,1-7.7c-1.9-2.4-5.3-2.8-7.7-1c-2.4,1.9-2.8,5.3-1,7.7 C236.9,961,240.3,961.4,242.7,959.6z"></path> <path class="st1" d="M221.8,892.2c1-0.7,1.1-2.1,0.4-3.1c-0.7-1-2.1-1.1-3.1-0.4c-1,0.7-1.1,2.1-0.4,3.1 C219.5,892.8,220.8,892.9,221.8,892.2z"></path> <path class="st1" d="M342.9,922.2c1-0.7,1.1-2.1,0.4-3.1s-2.1-1.1-3.1-0.4c-1,0.7-1.1,2.1-0.4,3.1 C340.6,922.7,342,922.9,342.9,922.2z"></path> <path class="st1" d="M315.5,931.6c1-0.7,1.1-2.1,0.4-3.1s-2.1-1.1-3.1-0.4c-1,0.7-1.1,2.1-0.4,3.1 C313.2,932.2,314.6,932.4,315.5,931.6z"></path> <path class="st1" d="M184.6,973.4c1-0.7,1.1-2.1,0.4-3.1c-0.7-1-2.1-1.1-3.1-0.4c-1,0.7-1.1,2.1-0.4,3.1 C182.3,973.9,183.7,974.1,184.6,973.4z"></path> <path class="st1" d="M193.6,1005.1c0.6-0.5,0.7-1.4,0.3-2c-0.5-0.6-1.4-0.7-2-0.3c-0.6,0.5-0.7,1.4-0.3,2 C192.1,1005.5,193,1005.6,193.6,1005.1z"></path> <path class="st1" d="M287.1,959.1c2.4-1.9,2.8-5.3,1-7.7c-1.9-2.4-5.3-2.8-7.7-1c-2.4,1.9-2.8,5.3-1,7.7 C281.3,960.5,284.8,961,287.1,959.1z"></path> <path class="st1" d="M271.4,893.3c0.8-0.6,0.9-1.7,0.3-2.4c-0.6-0.8-1.7-0.9-2.4-0.3s-0.9,1.7-0.3,2.4 C269.5,893.7,270.6,893.9,271.4,893.3z"></path> <path class="st1" d="M255.5,1062.7c1.2-0.9,1.5-2.7,0.5-3.9c-0.9-1.2-2.7-1.5-3.9-0.5c-1.2,0.9-1.5,2.7-0.5,3.9 C252.5,1063.5,254.3,1063.7,255.5,1062.7z"></path> <path class="st1" d="M233.8,1338.4c1.2-0.9,1.5-2.7,0.5-3.9c-0.9-1.2-2.7-1.5-3.9-0.5c-1.2,0.9-1.5,2.7-0.5,3.9 C230.8,1339.1,232.6,1339.4,233.8,1338.4z"></path> <path class="st1" d="M250.1,989.2c0.9-0.7,1-1.9,0.4-2.8c-0.7-0.9-1.9-1-2.8-0.4c-0.9,0.7-1,1.9-0.4,2.8 C248,989.7,249.2,989.9,250.1,989.2z"></path> <path class="st1" d="M285.7,1041.9c0.9-0.7,1-1.9,0.4-2.8c-0.7-0.9-1.9-1-2.8-0.4c-0.9,0.7-1,1.9-0.4,2.8 C283.6,1042.4,284.9,1042.6,285.7,1041.9z"></path> <path class="st1" d="M382.7,848.8c2.4-1.9,2.8-5.3,1-7.7s-5.3-2.8-7.7-1c-2.4,1.9-2.8,5.3-1,7.7 C376.9,850.2,380.4,850.7,382.7,848.8z"></path> <path class="st1" d="M375.7,1003c1.2-0.9,1.5-2.7,0.5-3.9c-0.9-1.2-2.7-1.5-3.9-0.5c-1.2,1-1.5,2.7-0.5,3.9 C372.7,1003.8,374.4,1004,375.7,1003z"></path> <path class="st1" d="M471.3,1021.5c1.2-0.9,1.5-2.7,0.5-3.9c-0.9-1.2-2.7-1.5-3.9-0.5c-1.2,0.9-1.5,2.7-0.5,3.9 C468.3,1022.2,470.1,1022.4,471.3,1021.5z"></path> <path class="st1" d="M347.8,1174c4.1-3.2,4.9-9.1,1.7-13.2c-3.2-4.1-9.1-4.9-13.2-1.7c-4.1,3.2-4.9,9.1-1.7,13.2 C337.7,1176.4,343.6,1177.1,347.8,1174z"></path> <path class="st1" d="M312.3,1358c4.1-3.2,4.9-9.1,1.7-13.2c-3.2-4.1-9.1-4.9-13.2-1.7c-4.1,3.2-4.9,9.1-1.7,13.2 C302.2,1360.4,308.1,1361.2,312.3,1358z"></path> <path class="st1" d="M313.5,1078.8c2.4-1.9,2.8-5.3,1-7.7c-1.8-2.4-5.3-2.8-7.7-1s-2.8,5.3-1,7.7 C307.7,1080.2,311.1,1080.6,313.5,1078.8z"></path> <path class="st1" d="M175.8,1240.9c2.4-1.9,2.8-5.3,1-7.7c-1.8-2.4-5.3-2.8-7.7-1c-2.4,1.9-2.8,5.3-1,7.7 C170,1242.3,173.4,1242.8,175.8,1240.9z"></path> <path class="st1" d="M301.2,1131.9c1.2-0.9,1.5-2.7,0.5-3.9c-0.9-1.2-2.7-1.5-3.9-0.5c-1.2,1-1.5,2.7-0.5,3.9 C298.2,1132.6,300,1132.8,301.2,1131.9z"></path> <path class="st1" d="M191.1,1151c1.2-0.9,1.5-2.7,0.5-3.9c-0.9-1.2-2.7-1.5-3.9-0.5s-1.5,2.7-0.5,3.9 C188.1,1151.7,189.9,1152,191.1,1151z"></path> <path class="st1" d="M224.9,1248.6c1.2-0.9,1.5-2.7,0.5-3.9c-0.9-1.2-2.7-1.5-3.9-0.5c-1.2,0.9-1.5,2.7-0.5,3.9 C221.9,1249.3,223.6,1249.6,224.9,1248.6z"></path> <path class="st1" d="M407.5,1095.1c1.2-0.9,1.5-2.7,0.5-3.9c-0.9-1.2-2.7-1.5-3.9-0.5c-1.2,0.9-1.5,2.7-0.5,3.9 C404.5,1095.8,406.3,1096,407.5,1095.1z"></path> <path class="st1" d="M398.5,1152.4c2.4-1.9,2.8-5.3,1-7.7c-1.8-2.4-5.3-2.8-7.7-1s-2.8,5.3-1,7.7 C392.7,1153.9,396.1,1154.3,398.5,1152.4z"></path> <path class="st1" d="M462.3,1078.8c2.4-1.8,2.8-5.3,1-7.7c-1.9-2.4-5.3-2.8-7.7-1c-2.4,1.9-2.8,5.3-1,7.7 C456.5,1080.2,459.9,1080.7,462.3,1078.8z"></path> <path class="st1" d="M260.3,1211.7c2.4-1.9,2.8-5.3,1-7.7c-1.9-2.4-5.3-2.8-7.7-1s-2.8,5.3-1,7.7 C254.5,1213.1,257.9,1213.6,260.3,1211.7z"></path> <path class="st1" d="M357.8,1295.5c1.2-0.9,1.5-2.7,0.5-3.9c-0.9-1.2-2.7-1.5-3.9-0.5c-1.2,0.9-1.5,2.7-0.5,3.9 C354.8,1296.2,356.6,1296.5,357.8,1295.5z"></path> <path class="st1" d="M333.1,1223.9c1.2-0.9,1.5-2.7,0.5-3.9c-0.9-1.2-2.7-1.5-3.9-0.5c-1.2,0.9-1.5,2.7-0.5,3.9 C330.1,1224.7,331.8,1224.9,333.1,1223.9z"></path> <path class="st1" d="M243.4,1162.9c2.4-1.9,2.8-5.3,1-7.7c-1.8-2.4-5.3-2.8-7.7-1s-2.8,5.3-1,7.7 C237.6,1164.3,241,1164.8,243.4,1162.9z"></path> <rect x="-13.5" y="976.4" transform="matrix(0.655 -0.7556 0.7556 0.655 -756.0231 333.5168)" class="st1" width="1.5" height="36.7"></rect> <polygon class="st1" points="-15.6,1089.4 -14.1,1089.7 1.8,1007.4 80.6,980.1 143.6,1034.8 127.7,1117.1 129.2,1117.4 145.3,1034.2 145,1033.9 80.9,978.4 80.5,978.5 0.5,1006.2 0.4,1006.7 "></polygon> <polygon class="st1" points="63.9,1190.7 65.4,1191 76,1136.2 128.3,1118.1 170.2,1154.3 159.6,1209.1 161.1,1209.4 171.8,1153.8 128.7,1116.3 128.2,1116.5 74.7,1135 74.6,1135.5 "></polygon> <polygon class="st1" points="0.1,1264.3 1.6,1264.6 12.2,1209.8 64.5,1191.7 106.3,1228 95.8,1282.8 97.3,1283 108,1227.4 64.9,1190 64.4,1190.1 10.9,1208.6 10.8,1209.1 "></polygon> <polygon class="st1" points="-66.6,1471.7 8.2,1486.2 8.5,1485.8 58.4,1428.3 33.3,1355.8 -41.5,1341.4 -41.8,1342.9 32.1,1357.2 56.6,1427.9 7.6,1484.5 -66.4,1470.2 "></polygon> <polygon class="st1" points="32,1356.4 33.5,1356.7 44.2,1301 1.4,1263.9 0.4,1265 42.5,1301.6 "></polygon> <polygon class="st1" points="-2.1,938.2 -0.6,938.5 7.7,895.3 48.9,881 81.8,909.6 73.5,952.8 75,953.1 83.5,909 49.2,879.3 48.8,879.4 6.4,894.1 6.3,894.6 "></polygon> <polygon class="st1" points="-6.9,1046.3 15.4,1065.6 43.2,1056 42.7,1054.5 15.7,1063.8 -5.9,1045.1 "></polygon> <polygon class="st1" points="-3.2,666 32.4,663.5 47.8,631.8 46.4,631.1 31.4,662 -2.4,664.4 -21.7,635.9 -23,636.8 "></polygon> <path class="st1" d="M4.4,945.8c4.1-3.2,4.9-9.1,1.7-13.2c-3.2-4.1-9.1-4.9-13.2-1.7s-4.9,9.1-1.7,13.2 C-5.7,948.3,0.3,949,4.4,945.8z"></path> <path class="st1" d="M70.5,1198.3c4.1-3.2,4.9-9.1,1.7-13.2c-3.2-4.1-9.1-4.9-13.2-1.7c-4.1,3.2-4.9,9.1-1.7,13.2 C60.4,1200.7,66.3,1201.5,70.5,1198.3z"></path> <path class="st1" d="M77.6,957.3c2.4-1.9,2.8-5.3,1-7.7c-1.9-2.4-5.3-2.8-7.7-1c-2.4,1.8-2.8,5.3-1,7.7 C71.8,958.7,75.2,959.1,77.6,957.3z"></path> <path class="st1" d="M52.4,884.5c2.4-1.9,2.8-5.3,1-7.7c-1.9-2.4-5.3-2.8-7.7-1c-2.4,1.9-2.8,5.3-1,7.7 C46.6,885.9,50,886.3,52.4,884.5z"></path> <path class="st1" d="M131.8,1121.5c2.4-1.9,2.8-5.3,1-7.7c-1.8-2.4-5.3-2.8-7.7-1c-2.4,1.9-2.8,5.3-1,7.7 C126,1123,129.4,1123.4,131.8,1121.5z"></path> <path class="st1" d="M9.2,897.5c1.5-1.2,1.8-3.4,0.6-4.9s-3.4-1.8-4.9-0.6s-1.8,3.4-0.6,4.9S7.7,898.7,9.2,897.5z"></path> <path class="st1" d="M3.3,1009.6c1.5-1.2,1.8-3.4,0.6-4.9s-3.4-1.8-4.9-0.6s-1.8,3.4-0.6,4.9C-0.5,1010.5,1.7,1010.8,3.3,1009.6z"></path> <path class="st1" d="M84.8,912.1c1.5-1.2,1.8-3.4,0.6-4.9c-1.2-1.5-3.4-1.8-4.9-0.6s-1.8,3.4-0.6,4.9 C81.1,913,83.3,913.3,84.8,912.1z"></path> <path class="st1" d="M0.5,669.5c2.4-1.9,2.8-5.3,1-7.7s-5.3-2.8-7.7-1s-2.8,5.3-1,7.7C-5.3,671-1.9,671.4,0.5,669.5z"></path> <path class="st1" d="M49.3,634.2c1.5-1.2,1.8-3.4,0.6-4.9s-3.4-1.8-4.9-0.6s-1.8,3.4-0.6,4.9C45.5,635.1,47.7,635.4,49.3,634.2z"></path> <path class="st1" d="M152.9,1045.4c6.1-4.7,7.2-13.4,2.5-19.4c-4.7-6.1-13.4-7.2-19.4-2.5c-6.1,4.7-7.2,13.4-2.5,19.4 C138.2,1049,146.9,1050.1,152.9,1045.4z"></path> <path class="st1" d="M44.3,1057c1-0.7,1.1-2.1,0.4-3.1c-0.7-1-2.1-1.1-3.1-0.4s-1.1,2.1-0.4,3.1C42,1057.5,43.4,1057.7,44.3,1057z"></path> <path class="st1" d="M16.9,1066.4c1-0.7,1.1-2.1,0.4-3.1s-2.1-1.1-3.1-0.4s-1.1,2.1-0.4,3.1C14.6,1067,15.9,1067.2,16.9,1066.4z"></path> <path class="st1" d="M84.1,983.6c2.4-1.9,2.8-5.3,1-7.7s-5.3-2.8-7.7-1c-2.4,1.9-2.8,5.3-1,7.7C78.3,985,81.7,985.5,84.1,983.6z"></path> <path class="st1" d="M77.1,1137.8c1.2-0.9,1.5-2.7,0.5-3.9c-0.9-1.2-2.7-1.5-3.9-0.5c-1.2,1-1.5,2.7-0.5,3.9 C74.1,1138.6,75.8,1138.8,77.1,1137.8z"></path> <path class="st1" d="M172.7,1156.3c1.2-0.9,1.5-2.7,0.5-3.9c-0.9-1.2-2.7-1.5-3.9-0.5c-1.2,0.9-1.5,2.7-0.5,3.9 C169.7,1157,171.5,1157.2,172.7,1156.3z"></path> <path class="st1" d="M49.1,1308.8c4.1-3.2,4.9-9.1,1.7-13.2s-9.1-4.9-13.2-1.7c-4.1,3.2-4.9,9.1-1.7,13.2 C39.1,1311.2,45,1311.9,49.1,1308.8z"></path> <path class="st1" d="M13.6,1492.8c4.1-3.2,4.9-9.1,1.7-13.2s-9.1-4.9-13.2-1.7c-4.1,3.2-4.9,9.1-1.7,13.2 C3.6,1495.2,9.5,1496,13.6,1492.8z"></path> <path class="st1" d="M14.9,1213.6c2.4-1.9,2.8-5.3,1-7.7c-1.8-2.4-5.3-2.8-7.7-1s-2.8,5.3-1,7.7C9,1215,12.5,1215.4,14.9,1213.6z"></path> <path class="st1" d="M2.6,1266.7c1.2-0.9,1.5-2.7,0.5-3.9c-0.9-1.2-2.7-1.5-3.9-0.5s-1.5,2.7-0.5,3.9 C-0.4,1267.4,1.4,1267.6,2.6,1266.7z"></path> <path class="st1" d="M108.9,1229.9c1.2-0.9,1.5-2.7,0.5-3.9c-0.9-1.2-2.7-1.5-3.9-0.5c-1.2,0.9-1.5,2.7-0.5,3.9 C105.9,1230.6,107.7,1230.8,108.9,1229.9z"></path> <path class="st1" d="M99.9,1287.2c2.4-1.9,2.8-5.3,1-7.7c-1.8-2.4-5.3-2.8-7.7-1c-2.4,1.9-2.8,5.3-1,7.7 C94,1288.6,97.5,1289.1,99.9,1287.2z"></path> <path class="st1" d="M163.7,1213.6c2.4-1.8,2.8-5.3,1-7.7c-1.9-2.4-5.3-2.8-7.7-1c-2.4,1.9-2.8,5.3-1,7.7 C157.9,1215,161.3,1215.5,163.7,1213.6z"></path> <path class="st1" d="M59.2,1430.3c1.2-0.9,1.5-2.7,0.5-3.9c-0.9-1.2-2.7-1.5-3.9-0.5c-1.2,0.9-1.5,2.7-0.5,3.9 C56.2,1431,58,1431.3,59.2,1430.3z"></path> <path class="st1" d="M34.4,1358.7c1.2-0.9,1.5-2.7,0.5-3.9c-0.9-1.2-2.7-1.5-3.9-0.5c-1.2,0.9-1.5,2.7-0.5,3.9 C31.4,1359.5,33.2,1359.7,34.4,1358.7z"></path> </g> <rect x="1449.3" y="796.4" class="st2" width="130.1" height="130.1"></rect> <rect x="1447.8" y="534.7" class="st3" width="130.1" height="130.1"></rect> <rect x="1449.3" y="404.6" class="st4" width="130.1" height="130.1"></rect> <rect x="1449.3" y="274.5" class="st5" width="130.1" height="130.1"></rect> <rect x="1449.3" y="666.3" class="st6" width="130.1" height="130.1"></rect> </svg> 