<?xml version="1.0" encoding="UTF-8"?> <!-- Generator: Adobe Illustrator 26.5.0, SVG Export Plug-In . SVG Version: 6.00 Build 0) --> <svg xmlns="http://www.w3.org/2000/svg" xmlns:xlink="http://www.w3.org/1999/xlink" id="Layer_1" x="0px" y="0px" viewBox="0 0 100.6 100.4" style="enable-background:new 0 0 100.6 100.4;" xml:space="preserve"> <style type="text/css"> .st0{fill:#FFFFFF;} </style> <g> <path class="st0" d="M50.8,26.2c-13.4,0-24.2,10.9-24.2,24.2c0,7.7,3.6,14.9,9.8,19.4v16.4c0,0.8,0.7,1.5,1.5,1.5h2.4 c0.7,5.2,5.2,9.2,10.5,9.2c5.4,0,9.8-4,10.5-9.2h2.1c0.8,0,1.5-0.7,1.5-1.5V70.1C71.3,65.6,75,58.3,75,50.5 C75,37.1,64.2,26.2,50.8,26.2z M50.8,93.9c-3.7,0-6.8-2.7-7.5-6.2h15C57.6,91.3,54.5,93.9,50.8,93.9z M62,84.8H39.4V70.6H62V84.8z M55.1,51.8v15.9h-8.9V51.8H55.1z M63.3,67.6h-5.2V51.8h4.7c0.8,0,1.5-0.7,1.5-1.5c0-0.8-0.7-1.5-1.5-1.5H38.5 c-0.8,0-1.5,0.7-1.5,1.5c0,0.8,0.7,1.5,1.5,1.5h4.7v15.9h-4.9c-5.5-4-8.8-10.4-8.8-17.2c0-11.7,9.5-21.2,21.2-21.2 c11.7,0,21.2,9.5,21.2,21.2C72,57.3,68.8,63.6,63.3,67.6z"></path> <path class="st0" d="M50.7,21.2c0.8,0,1.5-0.7,1.5-1.5V4.6c0-0.8-0.7-1.5-1.5-1.5c-0.8,0-1.5,0.7-1.5,1.5v15.1 C49.2,20.5,49.8,21.2,50.7,21.2z"></path> <path class="st0" d="M17.6,48.8H2.5c-0.8,0-1.5,0.7-1.5,1.5c0,0.8,0.7,1.5,1.5,1.5h15.1c0.8,0,1.5-0.7,1.5-1.5S18.5,48.8,17.6,48.8 z"></path> <path class="st0" d="M97.5,48.8H82.4c-0.8,0-1.5,0.7-1.5,1.5c0,0.8,0.7,1.5,1.5,1.5h15.1c0.8,0,1.5-0.7,1.5-1.5 S98.3,48.8,97.5,48.8z"></path> <path class="st0" d="M26.8,28.9c0.3,0.2,0.6,0.4,1,0.4c0.4,0,0.8-0.2,1.1-0.5c0.5-0.6,0.5-1.6-0.1-2.1l-11.4-9.9 c-0.6-0.5-1.6-0.5-2.1,0.1c-0.5,0.6-0.5,1.6,0.1,2.1L26.8,28.9z"></path> <path class="st0" d="M71,29.2c0.3,0,0.7-0.1,1-0.4l11.4-9.9c0.6-0.5,0.7-1.5,0.1-2.1c-0.5-0.6-1.5-0.7-2.1-0.1L70,26.6 c-0.6,0.5-0.7,1.5-0.1,2.1C70.1,29,70.6,29.2,71,29.2z"></path> </g> </svg> 