<?xml version="1.0" encoding="UTF-8"?> <svg xmlns="http://www.w3.org/2000/svg" id="Layer_2" data-name="Layer 2" viewBox="0 0 250 40.12"> <g id="Layer_1-2" data-name="Layer 1"> <g> <polygon points="27.66 10.49 27.66 40.09 19.38 40.09 19.38 19.49 13.61 40.09 8.81 40.09 2.89 19.84 2.89 40.09 0 40.09 0 10.49 8.72 10.49 13.8 28.36 18.86 10.49 27.66 10.49" style="fill: #fff; fill-rule: evenodd;"></polygon> <polygon points="51.77 10.46 51.77 13.43 41.16 13.43 41.16 22.39 50.07 22.39 50.07 25.35 41.16 25.35 41.16 37.1 53.56 37.1 53.56 40.07 32.57 40.07 32.57 10.46 51.77 10.46" style="fill: #fff; fill-rule: evenodd;"></polygon> <path d="M84.12,11.47l-5.21,.97c.22-1.04,.34-1.9,.34-2.61,0-4.5-2.73-6.74-8.18-6.74-4.3,0-6.46,1.55-6.46,4.64,0,2.33,2.41,4.32,7.22,5.98,9.29,3.19,13.93,7.91,13.93,14.16,0,3.67-1.31,6.6-3.91,8.83-2.61,2.21-6.07,3.33-10.4,3.33-9.57,0-14.36-3.71-14.36-11.13,0-.61,.05-1.35,.15-2.24l5.41-1.19c-.42,1.64-.62,3.07-.62,4.28,0,4.8,2.75,7.19,8.24,7.19,4.4,0,6.6-1.73,6.6-5.18,0-2.57-2.63-4.83-7.9-6.77-7.61-2.79-11.42-7.26-11.42-13.4,0-3.47,1.27-6.28,3.81-8.39,2.54-2.13,5.88-3.19,10.02-3.19,8.5,0,12.74,3.82,12.74,11.47" style="fill: #fff; fill-rule: evenodd;"></path> <path d="M106.07,.04c11.26,0,16.88,6.66,16.88,20s-5.73,20-17.19,20-17.2-6.82-17.2-20.45S94.4,.04,106.07,.04m-.31,3.08c-2.12,0-3.55,1.17-4.29,3.5-.75,2.33-1.12,6.8-1.12,13.41s.38,11.08,1.12,13.41c.74,2.33,2.18,3.5,4.29,3.5s3.54-1.17,4.28-3.5c.74-2.33,1.12-6.8,1.12-13.41s-.38-11.06-1.12-13.4c-.74-2.34-2.18-3.51-4.28-3.51" style="fill: #fff; fill-rule: evenodd;"></path> <path d="M126.17,40.12V10.51h12.77c7.25,0,10.87,2.9,10.87,8.7s-4.03,8.78-12.08,8.78h-2.97v12.13h-8.59Zm8.59-14.86h1.93c3.12,0,4.68-2.07,4.68-6.2,0-3.87-1.56-5.81-4.68-5.81h-1.93v12.02Z" style="fill: #fff; fill-rule: evenodd;"></path> <path d="M152.54,40.08V10.47h12.73c3.31,0,5.95,.7,7.94,2.09,1.98,1.39,2.97,3.27,2.97,5.61,0,3.58-2.13,5.92-6.37,7,2.18,.81,3.6,1.7,4.24,2.67,.64,.96,1.08,2.84,1.31,5.63,.27,3.33,.83,5.52,1.67,6.6h-9.32c-.59-1.38-.89-3.09-.89-5.14l-.04-1.76-.05-2.21c0-3.41-1.38-5.12-4.12-5.12h-1.47v14.23h-8.59Zm8.59-16.68h1.73c3.25,0,4.88-1.7,4.88-5.1s-1.63-5.09-4.88-5.09h-1.73v10.19Z" style="fill: #fff; fill-rule: evenodd;"></path> <path d="M192.18,9.45c8.62,0,12.93,5.1,12.93,15.31s-4.39,15.31-13.16,15.31-13.17-5.22-13.17-15.66,4.47-14.96,13.41-14.96m-.24,2.36c-1.62,0-2.72,.9-3.29,2.68-.57,1.78-.86,5.2-.86,10.27s.29,8.48,.86,10.27c.57,1.79,1.67,2.68,3.29,2.68s2.71-.9,3.28-2.68c.57-1.78,.86-5.2,.86-10.27s-.29-8.47-.86-10.26c-.57-1.79-1.67-2.69-3.28-2.69" style="fill: #fff; fill-rule: evenodd;"></path> <polygon points="227.41 10.51 227.41 13.48 216.68 13.48 216.68 23.35 225.79 23.35 225.79 26.32 216.68 26.32 216.68 40.12 208.09 40.12 208.09 10.51 227.41 10.51" style="fill: #fff; fill-rule: evenodd;"></polygon> <polygon points="250 10.51 250 13.48 239.26 13.48 239.26 23.35 248.37 23.35 248.37 26.32 239.26 26.32 239.26 40.12 230.68 40.12 230.68 10.51 250 10.51" style="fill: #fff; fill-rule: evenodd;"></polygon> </g> </g> </svg> 