<?xml version="1.0" encoding="UTF-8"?> <!-- Generator: Adobe Illustrator 26.5.0, SVG Export Plug-In . SVG Version: 6.00 Build 0) --> <svg xmlns="http://www.w3.org/2000/svg" xmlns:xlink="http://www.w3.org/1999/xlink" id="Слой_2" x="0px" y="0px" viewBox="0 0 101 101" style="enable-background:new 0 0 101 101;" xml:space="preserve"> <style type="text/css"> .st0{fill:#FFFFFF;} </style> <path class="st0" d="M94.3,28.3l-15.8-3.5c3.5-3.1,3.8-8.5,0.7-11.9c-2.1-2.3-5.3-3.3-8.3-2.6c-3.8,1-9.5,8-11,10 C59.2,17.8,57.1,9,54,6.5c-3.6-2.9-8.9-2.4-11.9,1.2c-2,2.4-2.4,5.8-1.2,8.6l-17.3-3.8c-0.8-0.2-1.6,0.3-1.8,1.1c0,0,0,0,0,0 L18.7,28c-0.2,0.8,0.3,1.6,1.1,1.8c0,0,0,0,0,0L85,44.3V81H52V43.5c0-0.8-0.7-1.5-1.5-1.5S49,42.7,49,43.5V81H16V41h21.5 c0.8,0,1.5-0.7,1.5-1.5S38.3,38,37.5,38h-23c-0.8,0-1.5,0.7-1.5,1.5v43c0,0.8,0.7,1.5,1.5,1.5h72c0.8,0,1.5-0.7,1.5-1.5V45l2.5,0.5 c0.1,0,0.2,0,0.3,0c0.7,0,1.3-0.5,1.5-1.2l3.2-14.3C95.6,29.3,95.1,28.4,94.3,28.3C94.3,28.3,94.3,28.3,94.3,28.3z M71.6,13.2 c2.9-0.6,5.8,1.2,6.5,4.2c0.6,2.8-1.1,5.6-3.8,6.4h-0.1l-11.3-2.5C65.5,18,69.5,13.7,71.6,13.2z M45.3,17.3c-2.3-2-2.6-5.4-0.6-7.7 c1.9-2.2,5.2-2.5,7.5-0.8c1.7,1.4,3.5,7,4.5,11L45.3,17.3L45.3,17.3z M89.7,42.3L21.9,27.2l2.5-11.4l67.7,15.1L89.7,42.3z"></path> </svg> 