<?xml version="1.0" encoding="UTF-8"?> <svg xmlns="http://www.w3.org/2000/svg" viewBox="0 0 172.75 168.03"> <defs> <style>.cls-1{fill:#443660;}.cls-2{fill:#6d6c70;}.cls-3{fill:#6aae43;}.cls-4{fill:#7a5196;}</style> </defs> <g id="Layer_2" data-name="Layer 2"> <g id="Layer_1-2" data-name="Layer 1"> <path class="cls-1" d="M70.62,24.46c0,.27-1.07.46-1.39.46s-1.84-.19-1.84-.46c0-12.11-12.06-18.38-22.17-18.38-7.42,0-13.77,3.31-13.77,10,0,14.44,45.85,7.63,45.85,34.36C77.3,65,60.61,72.1,45.44,72.1c-8.94,0-17.77-4-19.81-4a3.36,3.36,0,0,0-3.23,3c0,.63-.65,1.08-1.62,1.08-1.61,0-1.82-.36-1.82-1.08,0-1.71-.76-14.71-.76-20.45,0-.36,1.19-.63,1.83-.63s2,.27,2,.72c.11,12.64,13.45,18.83,25.18,18.83,9.26,0,17.55-3.85,17.55-11.48,0-13.63-44.88-10.05-44.88-33.37C19.93,9.21,30.8,3.56,45.76,3.56,57.49,3.56,60.07,8,63.84,8,66,8,66.42,5.36,66.53,4c0-.36,1.08-.54,1.62-.54.86,0,1.51.36,1.51,1.08,0,1.71.54,14.17,1,19.91"></path> <path class="cls-2" d="M24.23,111.48v-8.67h2v8.67h2.84v-8.67h2v10.46H19.41V102.81h2v8.67Z"></path> <path class="cls-2" d="M35,102.81h2v3.61l2.84-3.61h2.39l-3.65,4.67,4,5.79H40.19L37,108.62v4.65H35Z"></path> <path class="cls-2" d="M50.36,102.55a5.21,5.21,0,0,1,3.82,1.6,5.58,5.58,0,0,1,0,7.8,5.16,5.16,0,0,1-3.82,1.58,5.22,5.22,0,0,1-3.92-1.62,5.58,5.58,0,0,1-.83-6.63,5.46,5.46,0,0,1,4.73-2.73Zm0,1.94a3.29,3.29,0,0,0-2.44,1,3.53,3.53,0,0,0-1,2.57,3.36,3.36,0,0,0,1.24,2.75,3.47,3.47,0,0,0,2.23.79,3.23,3.23,0,0,0,2.41-1,3.67,3.67,0,0,0,0-5A3.27,3.27,0,0,0,50.34,104.49Z"></path> <path class="cls-2" d="M65.89,113.27,63,105.58l-3,7.69H57.93l4-10.46h2l4,10.46Z"></path> <path class="cls-2" d="M73.87,102.81h2l4,10.46H77.84L77,111.12H72.75l-.85,2.15H69.83Zm1,2.77-1.4,3.59h2.8Z"></path> <path class="cls-2" d="M27,120.29v10.46h-2V124.2l-3.9,6.55H19.41V120.29h2v6.76l3.95-6.76Z"></path> <path class="cls-2" d="M30.88,120.29h2v3.95h3.49v-3.95h2v10.46h-2v-4.59H32.9v4.59h-2Z"></path> <path class="cls-2" d="M43.49,130.75v-8.59H41.14v-1.87h4.32v3.95h.45a6.41,6.41,0,0,1,2.06.28,3.08,3.08,0,0,1,1.44,1.1,3.17,3.17,0,0,1,.61,1.95,3.09,3.09,0,0,1-.53,1.83,3,3,0,0,1-1.23,1.06,4.91,4.91,0,0,1-1.85.29Zm2-4.74v2.84H46a3.34,3.34,0,0,0,1.6-.29,1.13,1.13,0,0,0,.49-1.06c0-1-.73-1.49-2.18-1.49Z"></path> <path class="cls-2" d="M53.22,120.29h5.71v1.95H55.2v1.89h3.73V126H55.2v2.76h3.73v1.95H53.22Z"></path> <path class="cls-2" d="M62.26,120.29h2v3.61l2.84-3.61h2.39L65.85,125l4,5.79H67.5l-3.22-4.65v4.65h-2Z"></path> <path class="cls-2" d="M72.73,130.75V120.29h2V129h3.51v-8.67h2V129H82.4v3.36H80.53v-1.57Z"></path> <path class="cls-2" d="M92.74,120.29v10.46h-2V124.2l-3.91,6.55H85.11V120.29h2v6.76l4-6.76Z"></path> <path class="cls-2" d="M101.52,120a5.19,5.19,0,0,1,3.82,1.6,5.58,5.58,0,0,1,0,7.8,5.16,5.16,0,0,1-3.82,1.58,5.22,5.22,0,0,1-3.92-1.62,5.41,5.41,0,0,1-1.55-3.87,5.47,5.47,0,0,1,.72-2.76,5.46,5.46,0,0,1,4.73-2.73Zm0,1.94a3.29,3.29,0,0,0-2.44,1,3.53,3.53,0,0,0-1,2.57,3.36,3.36,0,0,0,1.25,2.75,3.43,3.43,0,0,0,2.22.79,3.21,3.21,0,0,0,2.41-1,3.45,3.45,0,0,0,1-2.52,3.49,3.49,0,0,0-1-2.53A3.26,3.26,0,0,0,101.5,122Z"></path> <path class="cls-2" d="M110.27,120.29h2v3.95h3.49v-3.95h2v10.46h-2v-4.59h-3.49v4.59h-2Z"></path> <path class="cls-2" d="M121.63,120.29h2v3.95h3.49v-3.95h2v10.46h-2v-4.59h-3.49v4.59h-2Z"></path> <path class="cls-2" d="M137.94,120a5.19,5.19,0,0,1,3.82,1.6,5.58,5.58,0,0,1,0,7.8A5.16,5.16,0,0,1,138,131a5.22,5.22,0,0,1-3.92-1.62,5.42,5.42,0,0,1-1.56-3.87,5.47,5.47,0,0,1,.73-2.76,5.46,5.46,0,0,1,4.73-2.73Zm0,1.94a3.29,3.29,0,0,0-2.44,1,3.53,3.53,0,0,0-1,2.57,3.36,3.36,0,0,0,1.25,2.75,3.43,3.43,0,0,0,2.22.79,3.21,3.21,0,0,0,2.41-1,3.45,3.45,0,0,0,1-2.52,3.49,3.49,0,0,0-1-2.53A3.26,3.26,0,0,0,137.92,122Z"></path> <path class="cls-2" d="M154.31,120.29v10.46h-2V124.2l-3.9,6.55h-1.73V120.29h2v6.76l3.95-6.76Zm-6.66-2.81h1.58a1.16,1.16,0,0,0,.51.44,2.14,2.14,0,0,0,.81.14,2,2,0,0,0,.87-.17,1,1,0,0,0,.45-.41h1.57a2.12,2.12,0,0,1-.86,1.45,3.32,3.32,0,0,1-2,.55,3.7,3.7,0,0,1-1.47-.25,2.22,2.22,0,0,1-1-.7A2.27,2.27,0,0,1,147.65,117.48Z"></path> <path class="cls-2" d="M19.44,137.77h2v3.61l2.84-3.61h2.39L23,142.44l4,5.79H24.67l-3.22-4.65v4.65h-2Z"></path> <path class="cls-2" d="M34.85,137.51a5.21,5.21,0,0,1,3.82,1.6,5.37,5.37,0,0,1,1.6,3.92,5.3,5.3,0,0,1-1.58,3.88,5.48,5.48,0,0,1-7.74,0,5.49,5.49,0,0,1,3.9-9.36Zm0,1.94a3.29,3.29,0,0,0-2.44,1,3.53,3.53,0,0,0-1,2.57,3.36,3.36,0,0,0,1.24,2.75,3.47,3.47,0,0,0,2.22.79,3.24,3.24,0,0,0,2.42-1,3.67,3.67,0,0,0,0-5A3.27,3.27,0,0,0,34.83,139.45Z"></path> <path class="cls-2" d="M53.22,139.61l-1.4,1.33a4.27,4.27,0,0,0-3.19-1.51A3.52,3.52,0,0,0,45.07,143a3.76,3.76,0,0,0,.46,1.85,3.18,3.18,0,0,0,1.29,1.28,3.7,3.7,0,0,0,1.84.46,3.93,3.93,0,0,0,1.59-.32,5.67,5.67,0,0,0,1.57-1.18l1.36,1.41a7.55,7.55,0,0,1-2.2,1.57,6,6,0,0,1-2.35.43,5.57,5.57,0,0,1-4.84-8.29,5.22,5.22,0,0,1,2-1.95,5.63,5.63,0,0,1,2.84-.74,6,6,0,0,1,2.49.54A6.09,6.09,0,0,1,53.22,139.61Z"></path> <path class="cls-2" d="M57.43,137.77h1.94l2.43,7.3,2.45-7.3h1.94l1.75,10.46H66l-1.12-6.61-2.22,6.61H60.91l-2.2-6.61-1.15,6.61H55.62Z"></path> <path class="cls-2" d="M71,137.77H76.7v1.95H73v1.89H76.7v1.91H73v2.76H76.7v1.95H71Z"></path> <path class="cls-2" d="M79,137.77h5.79v2H82.86v8.5h-2v-8.5H79Z"></path> <path class="cls-2" d="M92.53,137.51a5.21,5.21,0,0,1,3.82,1.6A5.36,5.36,0,0,1,97.94,143a5.29,5.29,0,0,1-1.57,3.88,5.48,5.48,0,0,1-7.74,0,5.58,5.58,0,0,1-.83-6.63,5.31,5.31,0,0,1,2-2A5.38,5.38,0,0,1,92.53,137.51Zm0,1.94a3.31,3.31,0,0,0-2.45,1,3.52,3.52,0,0,0-1,2.57,3.36,3.36,0,0,0,1.24,2.75,3.47,3.47,0,0,0,2.22.79,3.24,3.24,0,0,0,2.42-1,3.7,3.7,0,0,0,0-5A3.27,3.27,0,0,0,92.51,139.45Z"></path> <path class="cls-2" d="M108.05,148.23l-2.89-7.69-3,7.69H100.1l4-10.46h2l4,10.46Z"></path> <path class="cls-2" d="M117.78,137.51a5.19,5.19,0,0,1,3.82,1.6,5.58,5.58,0,0,1,0,7.8,5.16,5.16,0,0,1-3.82,1.58,5.22,5.22,0,0,1-3.92-1.62,5.42,5.42,0,0,1-1.56-3.87,5.47,5.47,0,0,1,.73-2.76,5.46,5.46,0,0,1,4.73-2.73Zm0,1.94a3.29,3.29,0,0,0-2.44,1,3.53,3.53,0,0,0-1,2.57,3.34,3.34,0,0,0,1.25,2.75,3.43,3.43,0,0,0,2.22.79,3.21,3.21,0,0,0,2.41-1,3.45,3.45,0,0,0,1-2.52,3.49,3.49,0,0,0-1-2.53A3.27,3.27,0,0,0,117.76,139.45Z"></path> <path class="cls-2" d="M126.53,137.77h5.19v1.95H128.5v8.51h-2Z"></path> <path class="cls-2" d="M142.35,137.77v10.46h-2v-6.55l-3.9,6.55h-1.73V137.77h2v6.76l3.95-6.76Z"></path> <path class="cls-2" d="M153.81,137.77v10.46h-2v-6.55l-3.9,6.55h-1.73V137.77h2v6.76l4-6.76Z"></path> <path class="cls-1" d="M18.76,156.47a.19.19,0,0,1,0-.1.07.07,0,0,1,.06,0h2.41c.07,0,.11,0,.11.13v3.38a2.39,2.39,0,0,1,.79-.51,2.46,2.46,0,0,1,.81-.14,2.13,2.13,0,0,1,.88.18,2.22,2.22,0,0,1,.71.48,3.28,3.28,0,0,1,.5.7,3.6,3.6,0,0,1,.31.85,4.08,4.08,0,0,1,.1.93,3.4,3.4,0,0,1-.41,1.61,3.22,3.22,0,0,1-.51.7,2.32,2.32,0,0,1-.7.49,2.2,2.2,0,0,1-.88.18,2,2,0,0,1-.94-.2,3,3,0,0,1-.79-.59q-1.47.78-1.53.78h-.34v-8.69h-.53C18.79,156.61,18.76,156.56,18.76,156.47Zm2.61,7a1.55,1.55,0,0,0,.3,1,.86.86,0,0,0,.7.37,1,1,0,0,0,.77-.36,1.47,1.47,0,0,0,.33-1V161a1.41,1.41,0,0,0-.33-1,1,1,0,0,0-.77-.36.87.87,0,0,0-.7.36,1.48,1.48,0,0,0-.3,1Z"></path> <path class="cls-1" d="M26.45,159.44a.3.3,0,0,1,0-.1.08.08,0,0,1,.07,0h2.39a.11.11,0,0,1,.08,0,.18.18,0,0,1,0,.1v4.31a1.16,1.16,0,0,0,.29.83,1,1,0,0,0,.7.3,1,1,0,0,0,.71-.3,1.13,1.13,0,0,0,.3-.83V159.3h1.88c.08,0,.12,0,.12.13v6.13a2.35,2.35,0,0,1-.18.94,2.14,2.14,0,0,1-.49.7,2.43,2.43,0,0,1-.72.47,3.61,3.61,0,0,1-.86.28,5.64,5.64,0,0,1-.93.08,4.75,4.75,0,0,1-1.38-.2,2.86,2.86,0,0,1-1.06-.54,1,1,0,0,1-.41-.78.93.93,0,0,1,.3-.73,1.07,1.07,0,0,1,.71-.26,1,1,0,0,1,.7.27.92.92,0,0,1,.29.74.88.88,0,0,1-.21.58.94.94,0,0,1-.63.3v0a3,3,0,0,0,.68.22,4.63,4.63,0,0,0,.81.08,2.68,2.68,0,0,0,.52,0,1.57,1.57,0,0,0,.43-.15.73.73,0,0,0,.32-.33,1.2,1.2,0,0,0,.11-.54v-2a2.5,2.5,0,0,1-1.62.57,2.62,2.62,0,0,1-.88-.15,2.83,2.83,0,0,1-.76-.43,1.81,1.81,0,0,1-.54-.7,2,2,0,0,1-.2-.92v-3.53h-.51C26.48,159.57,26.45,159.53,26.45,159.44Z"></path> <path class="cls-1" d="M37.31,162.22a3.75,3.75,0,0,1,.16-1.12,3.47,3.47,0,0,1,.46-1,2.33,2.33,0,0,1,1.89-.94,2.25,2.25,0,0,1,1.61.65v-3.41a.13.13,0,0,1,0-.08l.1,0H44s0,0,.06,0a.19.19,0,0,1,0,.1.12.12,0,0,1,0,.09s0,.05,0,.05h-.53V164a.74.74,0,0,0,.13.48.35.35,0,0,0,.3.18.38.38,0,0,0,.3-.18.87.87,0,0,0,.12-.49s0-.05,0-.07a.19.19,0,0,1,.1,0,.17.17,0,0,1,.1,0,.08.08,0,0,1,0,.07,1.15,1.15,0,0,1-.46,1,1.81,1.81,0,0,1-2,.11,1.44,1.44,0,0,1-.6-.75,2.27,2.27,0,0,1-1.82,1,2,2,0,0,1-.91-.23,2.73,2.73,0,0,1-.77-.63,3.17,3.17,0,0,1-.53-1A3.62,3.62,0,0,1,37.31,162.22Zm2,1a1.66,1.66,0,0,0,.33,1.1,1,1,0,0,0,.78.4.88.88,0,0,0,.71-.41,1.78,1.78,0,0,0,.3-1.1V161a1.48,1.48,0,0,0-.3-1,.89.89,0,0,0-.7-.36,1.06,1.06,0,0,0-.79.36,1.41,1.41,0,0,0-.33,1Z"></path> <path class="cls-1" d="M45.19,159.44a.3.3,0,0,1,0-.1.08.08,0,0,1,.07,0h2.43c.06,0,.09,0,.09.08v.46h.11a1.72,1.72,0,0,1,.67-.48,1.9,1.9,0,0,1,.8-.18,1.4,1.4,0,0,1,1.08.43,1.37,1.37,0,0,1,.39,1,1,1,0,0,1-.25.7,1,1,0,0,1-.75.29.92.92,0,0,1-.72-.3,1,1,0,0,1-.28-.69.88.88,0,0,1,.25-.61,1,1,0,0,1,.7-.27.82.82,0,0,0-.59-.23,1.44,1.44,0,0,0-.69.23,1.79,1.79,0,0,0-.61.58v4.92h-2v-5.62h-.63C45.22,159.57,45.19,159.53,45.19,159.44Z"></path> <path class="cls-1" d="M52.16,164.18a1.1,1.1,0,0,1,.33-.81,1,1,0,0,1,.77-.33,1.06,1.06,0,0,1,.79.33,1.1,1.1,0,0,1,.33.81,1.14,1.14,0,0,1-1.12,1.12,1,1,0,0,1-.77-.34A1.07,1.07,0,0,1,52.16,164.18Z"></path> <path class="cls-1" d="M59.11,161.1a4.89,4.89,0,0,1,.23-1.52,3.81,3.81,0,0,1,.61-1.19,4.32,4.32,0,0,1,.91-.85A3.92,3.92,0,0,1,62,157a4.4,4.4,0,0,1,1.2-.17,4.48,4.48,0,0,1,1.21.17,3.74,3.74,0,0,1,1.11.52,4,4,0,0,1,.91.84,3.83,3.83,0,0,1,.62,1.19,5,5,0,0,1,.23,1.52,4.88,4.88,0,0,1-.23,1.51,3.67,3.67,0,0,1-.62,1.18,3.78,3.78,0,0,1-.91.83,4,4,0,0,1-1.11.51,4.4,4.4,0,0,1-1.2.17,4.84,4.84,0,0,1-1.21-.16,3.92,3.92,0,0,1-1.1-.51,4.22,4.22,0,0,1-.91-.83,3.92,3.92,0,0,1-.61-1.19A4.83,4.83,0,0,1,59.11,161.1Zm2.33.48c0,.49,0,.91.05,1.25a5.34,5.34,0,0,0,.16,1,1.84,1.84,0,0,0,.31.69,1.22,1.22,0,0,0,.5.4,2,2,0,0,0,1.46,0,1.28,1.28,0,0,0,.49-.4,1.84,1.84,0,0,0,.3-.69,5.49,5.49,0,0,0,.16-1c0-.34,0-.76,0-1.25v-1c0-.41,0-.76,0-1.06s-.06-.59-.1-.86a3.08,3.08,0,0,0-.2-.68,1.74,1.74,0,0,0-.31-.47,1.08,1.08,0,0,0-.46-.3,2,2,0,0,0-.62-.09,1.79,1.79,0,0,0-.73.14,1.33,1.33,0,0,0-.5.41,1.89,1.89,0,0,0-.31.7,5.34,5.34,0,0,0-.16,1c0,.35-.05.76-.05,1.25Z"></path> <path class="cls-1" d="M68.38,156.47a.19.19,0,0,1,0-.1.07.07,0,0,1,.06,0h2.45q.18,0,.18.12V164a.79.79,0,0,0,.13.49.35.35,0,0,0,.3.18.38.38,0,0,0,.31-.18A.79.79,0,0,0,72,164a.08.08,0,0,1,0-.07.19.19,0,0,1,.1,0l.1,0a.12.12,0,0,1,0,.08,1.17,1.17,0,0,1-.47,1,1.94,1.94,0,0,1-2.22,0,1.17,1.17,0,0,1-.47-1v-7.36h-.63C68.41,156.61,68.38,156.56,68.38,156.47Z"></path> <path class="cls-1" d="M72.81,164.12a1.63,1.63,0,0,1,.09-.52,1.8,1.8,0,0,1,.35-.55,2.3,2.3,0,0,1,.64-.45,1.59,1.59,0,0,1-.87-1.52,1.61,1.61,0,0,1,.68-1.39,3.38,3.38,0,0,1,2-.51,4.91,4.91,0,0,1,1.16.13,4.06,4.06,0,0,1,.11-.81,1.08,1.08,0,0,1,.32-.56.87.87,0,0,1,.61-.21,1,1,0,0,1,.63.2.68.68,0,0,1,.26.58.78.78,0,0,1-.22.58.76.76,0,0,1-.54.21.83.83,0,0,1-.56-.21.73.73,0,0,1-.25-.58v0a.18.18,0,0,1,0,.05l0,0c0,.12,0,.39,0,.81a1.88,1.88,0,0,1,1,.65,1.74,1.74,0,0,1,.32,1.05,1.64,1.64,0,0,1-.68,1.39,3.49,3.49,0,0,1-2.06.5,4.49,4.49,0,0,1-1.55-.23.67.67,0,0,0-.37.3.65.65,0,0,0-.11.35.34.34,0,0,0,.17.32,1.18,1.18,0,0,0,.52.09c.19,0,.55,0,1.09-.08s.94-.08,1.23-.08a2.28,2.28,0,0,1,1.61.57,1.85,1.85,0,0,1,.62,1.41,1.69,1.69,0,0,1-.18.78,1.85,1.85,0,0,1-.54.62,2.67,2.67,0,0,1-1,.42,5.75,5.75,0,0,1-1.39.15,5.35,5.35,0,0,1-.79-.06,4.38,4.38,0,0,1-.8-.17,3.39,3.39,0,0,1-.72-.3,1.48,1.48,0,0,1-.51-.45,1,1,0,0,1-.19-.61.71.71,0,0,1,.17-.55.65.65,0,0,1,.46-.16A1.3,1.3,0,0,1,72.81,164.12Zm.63,1.9a1,1,0,0,0,.19.62,1.29,1.29,0,0,0,.53.4,3.35,3.35,0,0,0,.74.2,4.76,4.76,0,0,0,.88.07,6,6,0,0,0,1.07-.1,2.25,2.25,0,0,0,.83-.33.63.63,0,0,0,.33-.53.69.69,0,0,0-.21-.5.75.75,0,0,0-.53-.22c-.23,0-.52,0-.88,0s-.65,0-.89,0a4.36,4.36,0,0,1-1.73-.3A.78.78,0,0,0,73.44,166Zm1.58-4.7a2.71,2.71,0,0,0,.15,1.05.69.69,0,0,0,1.16,0,2.5,2.5,0,0,0,.16-1.05v-.48a2.5,2.5,0,0,0-.16-1.05.58.58,0,0,0-.58-.33.59.59,0,0,0-.58.33,2.71,2.71,0,0,0-.15,1.05Z"></path> <path class="cls-1" d="M80.16,162.22a3.75,3.75,0,0,1,.16-1.12,3.47,3.47,0,0,1,.46-1,2.24,2.24,0,0,1,.78-.68,2.3,2.3,0,0,1,1.08-.26,2.54,2.54,0,0,1,.83.14,2.46,2.46,0,0,1,.81.51v-.54h1.84c.11,0,.16,0,.16.15V164a.67.67,0,0,0,.13.43.38.38,0,0,0,.62,0,.7.7,0,0,0,.12-.44s0-.05,0-.07a.17.17,0,0,1,.1,0,.12.12,0,0,1,.09,0,.07.07,0,0,1,0,.07,1.14,1.14,0,0,1-.46.92,1.71,1.71,0,0,1-2,.14,1.44,1.44,0,0,1-.6-.74,2.29,2.29,0,0,1-1.84,1,1.94,1.94,0,0,1-.9-.23,2.69,2.69,0,0,1-.76-.63,3.17,3.17,0,0,1-.53-1A3.88,3.88,0,0,1,80.16,162.22Zm2,1a1.78,1.78,0,0,0,.31,1.1,1,1,0,0,0,.74.4.93.93,0,0,0,.75-.41,1.66,1.66,0,0,0,.32-1.1V161a1.43,1.43,0,0,0-.31-1,1,1,0,0,0-1.49,0,1.45,1.45,0,0,0-.32,1Z"></path> <path class="cls-1" d="M91.23,162.64s0,0,.06,0l.13,0a.31.31,0,0,1,.13,0s.08,0,.08.06a2.08,2.08,0,0,0,.16.83,2,2,0,0,0,.41.65,2.37,2.37,0,0,0,.59.45,2.77,2.77,0,0,0,.7.28,3,3,0,0,0,.73.09,2.16,2.16,0,0,0,1.29-.37,1.2,1.2,0,0,0,.53-1,.87.87,0,0,0-.16-.49,1.42,1.42,0,0,0-.43-.37,4.94,4.94,0,0,0-.61-.31l-.73-.29-.78-.3a5.06,5.06,0,0,1-.73-.38,3.23,3.23,0,0,1-.61-.48,2.06,2.06,0,0,1-.43-.64,2.32,2.32,0,0,1-.16-.84,3.43,3.43,0,0,1,.2-1.22,1.9,1.9,0,0,1,.56-.82A2.35,2.35,0,0,1,93,157a3.91,3.91,0,0,1,1.07-.14,2.91,2.91,0,0,1,.75.09,2,2,0,0,1,.49.2c.12.07.23.14.34.19a.64.64,0,0,0,.29.09q.24,0,.27-.51s.06-.07.17-.07.15,0,.15.13c0,.52,0,1.35.11,2.48t-.06,0h-.09l-.12,0c-.05,0-.07,0-.07,0a2.38,2.38,0,0,0-.14-.81,2.16,2.16,0,0,0-.36-.63,2.48,2.48,0,0,0-.53-.44,2.15,2.15,0,0,0-.62-.28,2.3,2.3,0,0,0-.64-.09,1.55,1.55,0,0,0-1,.32,1.1,1.1,0,0,0-.41.91.85.85,0,0,0,.16.5,1.36,1.36,0,0,0,.44.38,4.72,4.72,0,0,0,.63.28l.75.25.78.28a4.4,4.4,0,0,1,.75.38,3.38,3.38,0,0,1,.63.5,2.12,2.12,0,0,1,.43.7,2.63,2.63,0,0,1,.16,1,2.37,2.37,0,0,1-.19,1,2.42,2.42,0,0,1-.51.76,3.38,3.38,0,0,1-.75.53,3.16,3.16,0,0,1-.89.32,4.24,4.24,0,0,1-.94.11,3.39,3.39,0,0,1-.86-.13,7.14,7.14,0,0,1-.79-.27,2.59,2.59,0,0,0-.39-.13.3.3,0,0,0-.25.14.48.48,0,0,0-.09.26.12.12,0,0,1,0,.1.15.15,0,0,1-.11,0,.3.3,0,0,1-.16,0,.16.16,0,0,1,0-.11s0-.39,0-1.08S91.23,162.91,91.23,162.64Z"></path> <path class="cls-1" d="M98.37,162.23a3.29,3.29,0,0,1,.25-1.31,2.52,2.52,0,0,1,.66-1,3,3,0,0,1,.92-.58,3,3,0,0,1,1.06-.2,3.26,3.26,0,0,1,1.12.2,3.42,3.42,0,0,1,1,.58,2.7,2.7,0,0,1,.71,1,3.4,3.4,0,0,1,.27,1.38s0,.07-.07.07h-3.88a4.59,4.59,0,0,0,.31,2,1,1,0,0,0,1,.6,3,3,0,0,0,1-.17,2,2,0,0,0,.82-.53,1.53,1.53,0,0,0,.42-.84.06.06,0,0,1,0-.06l.09,0a.17.17,0,0,1,.1,0,.06.06,0,0,1,0,.06,1.67,1.67,0,0,1-.8,1.29,3,3,0,0,1-1.76.53,3.55,3.55,0,0,1-1-.14,3.63,3.63,0,0,1-.89-.42,3.37,3.37,0,0,1-.72-.64,2.74,2.74,0,0,1-.49-.85A2.88,2.88,0,0,1,98.37,162.23Zm2-.09h2V160.8a1.5,1.5,0,0,0-.29-1,.87.87,0,0,0-.68-.35.9.9,0,0,0-.7.35,1.56,1.56,0,0,0-.29,1Z"></path> <path class="cls-1" d="M105.28,156.47a.18.18,0,0,1,0-.1s0,0,.06,0h2.46q.18,0,.18.12V164a.87.87,0,0,0,.12.49.36.36,0,0,0,.62,0,.79.79,0,0,0,.13-.49s0-.05,0-.07a.17.17,0,0,1,.1,0l.09,0a.09.09,0,0,1,0,.08,1.14,1.14,0,0,1-.47,1,1.92,1.92,0,0,1-2.21,0,1.14,1.14,0,0,1-.47-1v-7.36h-.64S105.28,156.56,105.28,156.47Z"></path> <path class="cls-1" d="M109.79,159.44a.17.17,0,0,1,0-.1.05.05,0,0,1,.06,0h2.39a.11.11,0,0,1,.08,0,.13.13,0,0,1,0,.1v4.31a1.16,1.16,0,0,0,.29.83,1,1,0,0,0,.71.3,1,1,0,0,0,.7-.3,1.13,1.13,0,0,0,.3-.83V159.3h1.88c.08,0,.12,0,.12.13v6.13a2.35,2.35,0,0,1-.18.94,2,2,0,0,1-.49.7,2.43,2.43,0,0,1-.72.47,3.61,3.61,0,0,1-.86.28,5.55,5.55,0,0,1-.93.08,4.8,4.8,0,0,1-1.38-.2,2.86,2.86,0,0,1-1.06-.54,1,1,0,0,1-.4-.78.93.93,0,0,1,.3-.73,1,1,0,0,1,.7-.26,1,1,0,0,1,.7.27.92.92,0,0,1,.3.74.89.89,0,0,1-.22.58.94.94,0,0,1-.63.3v0a3,3,0,0,0,.68.22,4.63,4.63,0,0,0,.81.08,2.79,2.79,0,0,0,.53,0,1.69,1.69,0,0,0,.43-.15.76.76,0,0,0,.31-.33,1.2,1.2,0,0,0,.11-.54v-2a2.5,2.5,0,0,1-1.62.57,2.67,2.67,0,0,1-.88-.15,3,3,0,0,1-.76-.43,2,2,0,0,1-.54-.7,2.17,2.17,0,0,1-.2-.92v-3.53h-.51C109.82,159.57,109.79,159.53,109.79,159.44Z"></path> <path class="cls-1" d="M117.71,162.22a4.1,4.1,0,0,1,.16-1.12,3.47,3.47,0,0,1,.46-1,2.24,2.24,0,0,1,.78-.68,2.34,2.34,0,0,1,1.09-.26,2.29,2.29,0,0,1,1.63.65v-.54h1.84c.11,0,.16,0,.16.15V164a.67.67,0,0,0,.13.43.38.38,0,0,0,.62,0,.7.7,0,0,0,.13-.44.08.08,0,0,1,0-.07.19.19,0,0,1,.1,0,.12.12,0,0,1,.09,0,.07.07,0,0,1,0,.07,1.14,1.14,0,0,1-.46.92,1.61,1.61,0,0,1-1.08.39,1.67,1.67,0,0,1-.9-.25,1.44,1.44,0,0,1-.6-.74,2.29,2.29,0,0,1-1.84,1,1.93,1.93,0,0,1-.89-.23,2.73,2.73,0,0,1-.77-.63,3.17,3.17,0,0,1-.53-1A3.88,3.88,0,0,1,117.71,162.22Zm2,1a1.78,1.78,0,0,0,.31,1.1,1,1,0,0,0,.74.4.93.93,0,0,0,.75-.41,1.66,1.66,0,0,0,.32-1.1V161a1.43,1.43,0,0,0-.31-1,1,1,0,0,0-1.49,0,1.45,1.45,0,0,0-.32,1Z"></path> <path class="cls-1" d="M125.71,159.44a.3.3,0,0,1,0-.1.08.08,0,0,1,.07,0h2.41a.09.09,0,0,1,.08,0,.12.12,0,0,1,0,.09v.41h.09a2.39,2.39,0,0,1,1.7-.66,2.43,2.43,0,0,1,.61.07,2.19,2.19,0,0,1,.59.21,2.36,2.36,0,0,1,.5.38,1.93,1.93,0,0,1,.34.58,2.48,2.48,0,0,1,.13.8V164a.87.87,0,0,0,.12.49.36.36,0,0,0,.62,0,.79.79,0,0,0,.13-.49s0-.05,0-.07a.17.17,0,0,1,.1,0l.09,0a.09.09,0,0,1,0,.08,1.17,1.17,0,0,1-.47,1,1.92,1.92,0,0,1-2.21,0,1.14,1.14,0,0,1-.47-1v-3.61a.84.84,0,0,0-.18-.58.61.61,0,0,0-.49-.21,1.66,1.66,0,0,0-1.18.62v5h-2v-5.62h-.63C125.74,159.57,125.71,159.53,125.71,159.44Z"></path> <path class="cls-1" d="M134.08,159.44a.3.3,0,0,1,0-.1.08.08,0,0,1,.07,0h2.48c.1,0,.15,0,.15.13V164a.87.87,0,0,0,.12.49.38.38,0,0,0,.3.18.37.37,0,0,0,.31-.18.79.79,0,0,0,.14-.49.08.08,0,0,1,0-.07.19.19,0,0,1,.1,0l.1,0a.12.12,0,0,1,0,.08,1.17,1.17,0,0,1-.47,1,1.94,1.94,0,0,1-2.22,0,1.17,1.17,0,0,1-.47-1v-4.4h-.63S134.08,159.53,134.08,159.44Zm.72-2.11a1,1,0,0,1,1-1,1,1,0,0,1,.72.29,1,1,0,0,1,.29.71.92.92,0,0,1-.3.69,1,1,0,0,1-.71.3.93.93,0,0,1-.69-.3A.92.92,0,0,1,134.8,157.33Z"></path> <path class="cls-1" d="M138.58,159.44a.17.17,0,0,1,0-.1.05.05,0,0,1,.06,0h2.41a.09.09,0,0,1,.08,0,.12.12,0,0,1,0,.09v.41h.1a2.35,2.35,0,0,1,1.7-.66,2.48,2.48,0,0,1,.61.07,2.07,2.07,0,0,1,1.08.59,1.74,1.74,0,0,1,.34.58,2.24,2.24,0,0,1,.13.8V164a.86.86,0,0,0,.13.49.35.35,0,0,0,.61,0A.79.79,0,0,0,146,164a.08.08,0,0,1,0-.07.19.19,0,0,1,.1,0l.09,0a.09.09,0,0,1,0,.08,1.16,1.16,0,0,1-.46,1,1.84,1.84,0,0,1-1.11.35,1.81,1.81,0,0,1-1.11-.35,1.17,1.17,0,0,1-.47-1v-3.61a.84.84,0,0,0-.18-.58.59.59,0,0,0-.48-.21,1.68,1.68,0,0,0-1.19.62v5h-2v-5.62h-.63C138.61,159.57,138.58,159.53,138.58,159.44Z"></path> <path class="cls-1" d="M147.07,162.22a4.1,4.1,0,0,1,.16-1.12,3.47,3.47,0,0,1,.46-1,2.24,2.24,0,0,1,.78-.68,2.34,2.34,0,0,1,1.09-.26,2.29,2.29,0,0,1,1.63.65v-.54H153c.11,0,.16,0,.16.15V164a.67.67,0,0,0,.13.43.38.38,0,0,0,.62,0,.7.7,0,0,0,.13-.44.08.08,0,0,1,0-.07.17.17,0,0,1,.1,0,.12.12,0,0,1,.09,0,.07.07,0,0,1,0,.07,1.14,1.14,0,0,1-.46.92,1.61,1.61,0,0,1-1.08.39,1.67,1.67,0,0,1-.9-.25,1.44,1.44,0,0,1-.6-.74,2.29,2.29,0,0,1-1.84,1,1.9,1.9,0,0,1-.89-.23,2.6,2.6,0,0,1-.77-.63,3.17,3.17,0,0,1-.53-1A3.88,3.88,0,0,1,147.07,162.22Zm2,1a1.72,1.72,0,0,0,.32,1.1.91.91,0,0,0,.73.4.93.93,0,0,0,.75-.41,1.66,1.66,0,0,0,.32-1.1V161a1.43,1.43,0,0,0-.31-1,1,1,0,0,0-1.49,0,1.45,1.45,0,0,0-.32,1Z"></path> <path class="cls-3" d="M86.51,37.88l-3.3-.13a31.58,31.58,0,0,0,.15,4.14l3.29-.38A29.15,29.15,0,0,1,86.51,37.88Z"></path> <path class="cls-3" d="M95.47,17.63,93.23,15.2a32.63,32.63,0,0,0-2.83,3L93,20.29A31.11,31.11,0,0,1,95.47,17.63Z"></path> <path class="cls-3" d="M87,33.36l-3.25-.64a30.76,30.76,0,0,0-.48,4.11l3.3.13A28.54,28.54,0,0,1,87,33.36Z"></path> <path class="cls-3" d="M88.13,29,85,27.82a31.54,31.54,0,0,0-1.12,4l3.24.65A28.68,28.68,0,0,1,88.13,29Z"></path> <path class="cls-3" d="M90,24.82,87.09,23.2A31.44,31.44,0,0,0,85.35,27l3.11,1.14A28,28,0,0,1,90,24.82Z"></path> <path class="cls-3" d="M92.44,21,89.85,19a31.91,31.91,0,0,0-2.31,3.45L90.42,24A29.27,29.27,0,0,1,92.44,21Z"></path> <path class="cls-3" d="M139.24,22.13,142,20.29A32.27,32.27,0,0,0,139.42,17L137,19.28A28.08,28.08,0,0,1,139.24,22.13Z"></path> <path class="cls-3" d="M141.53,26.06l3-1.39a34.59,34.59,0,0,0-2-3.62l-2.76,1.84A30.74,30.74,0,0,1,141.53,26.06Z"></path> <path class="cls-3" d="M143.16,30.29l3.18-.9a31.25,31.25,0,0,0-1.44-3.89l-3,1.39A27.54,27.54,0,0,1,143.16,30.29Z"></path> <path class="cls-3" d="M144.11,34.73l3.28-.39a32.51,32.51,0,0,0-.79-4.07l-3.19.9A28,28,0,0,1,144.11,34.73Z"></path> <path class="cls-3" d="M136.37,18.61l2.43-2.24a31.33,31.33,0,0,0-3-2.83l-2,2.6A28.28,28.28,0,0,1,136.37,18.61Z"></path> <path class="cls-3" d="M133,15.58l2.05-2.6a34.56,34.56,0,0,0-3.45-2.31L130,13.56A30.54,30.54,0,0,1,133,15.58Z"></path> <path class="cls-3" d="M117,9.69a28.32,28.32,0,0,1,3.6.42l.65-3.24a32.87,32.87,0,0,0-4.12-.49Z"></path> <path class="cls-3" d="M126.18,8.17a31.08,31.08,0,0,0-4-1.12l-.64,3.24a29,29,0,0,1,3.49,1Z"></path> <path class="cls-3" d="M129.18,13.11l1.62-2.88A31.36,31.36,0,0,0,127,8.48l-1.15,3.11A28.91,28.91,0,0,1,129.18,13.11Z"></path> <path class="cls-3" d="M138.42,56.13l2.6,2a33.45,33.45,0,0,0,2.31-3.45l-2.88-1.61A29.36,29.36,0,0,1,138.42,56.13Z"></path> <path class="cls-3" d="M135.4,59.51l2.24,2.43a32.43,32.43,0,0,0,2.82-3l-2.6-2A31,31,0,0,1,135.4,59.51Z"></path> <path class="cls-3" d="M131.88,62.38l1.83,2.75A32.47,32.47,0,0,0,137,62.56l-2.24-2.43A30.82,30.82,0,0,1,131.88,62.38Z"></path> <path class="cls-3" d="M128,64.66l1.38,3a32.87,32.87,0,0,0,3.62-2l-1.84-2.75A29.73,29.73,0,0,1,128,64.66Z"></path> <path class="cls-3" d="M143.9,43.78l3.23.65a32.87,32.87,0,0,0,.49-4.12l-3.3-.13A30.5,30.5,0,0,1,143.9,43.78Z"></path> <path class="cls-3" d="M123.71,66.29l.9,3.19A31.67,31.67,0,0,0,128.5,68l-1.38-3A28.3,28.3,0,0,1,123.71,66.29Z"></path> <path class="cls-3" d="M144.36,39.26l3.3.13a33.41,33.41,0,0,0-.16-4.14l-3.28.39A31,31,0,0,1,144.36,39.26Z"></path> <path class="cls-3" d="M140.89,52.32l2.89,1.62a31.44,31.44,0,0,0,1.74-3.77L142.41,49A27.42,27.42,0,0,1,140.89,52.32Z"></path> <path class="cls-3" d="M86.76,42.41l-3.28.39a28.71,28.71,0,0,0,.79,4.07l3.19-.9A27.67,27.67,0,0,1,86.76,42.41Z"></path> <path class="cls-3" d="M142.74,48.17l3.1,1.14a30.93,30.93,0,0,0,1.12-4l-3.25-.64A27.26,27.26,0,0,1,142.74,48.17Z"></path> <path class="cls-3" d="M119.28,67.24l.38,3.29a32.53,32.53,0,0,0,4.07-.8l-.89-3.18A28.68,28.68,0,0,1,119.28,67.24Z"></path> <path class="cls-3" d="M91.63,55l-2.76,1.83a35.06,35.06,0,0,0,2.57,3.26l2.44-2.25A28.9,28.9,0,0,1,91.63,55Z"></path> <path class="cls-3" d="M87.71,46.85l-3.18.9A31.2,31.2,0,0,0,86,51.64l3-1.38A26.73,26.73,0,0,1,87.71,46.85Z"></path> <path class="cls-3" d="M89.35,51.08l-3,1.39a32.87,32.87,0,0,0,2,3.62l2.75-1.84A29.59,29.59,0,0,1,89.35,51.08Z"></path> <path class="cls-3" d="M114.74,67.49l-.13,3.3a31.8,31.8,0,0,0,4.15-.15l-.39-3.29A31.21,31.21,0,0,1,114.74,67.49Z"></path> <path class="cls-1" d="M111.92,73l-.47,3.93a39.49,39.49,0,0,0,5,.2l-.15-4A35.08,35.08,0,0,1,111.92,73Z"></path> <path class="cls-1" d="M88.6,60.42l-3.11,2.46a40,40,0,0,0,3.37,3.65l2.68-2.91A34.3,34.3,0,0,1,88.6,60.42Z"></path> <path class="cls-1" d="M106.57,72l-1.07,3.81a38.48,38.48,0,0,0,4.87,1l.46-3.93A33.43,33.43,0,0,1,106.57,72Z"></path> <path class="cls-1" d="M101.44,70.24l-1.66,3.6a38.17,38.17,0,0,0,4.67,1.71l1.07-3.81A33.69,33.69,0,0,1,101.44,70.24Z"></path> <path class="cls-1" d="M96.66,67.66,94.46,71a38.14,38.14,0,0,0,4.33,2.43l1.66-3.6A33.39,33.39,0,0,1,96.66,67.66Z"></path> <path class="cls-1" d="M92.35,64.36l-2.69,2.91a39.75,39.75,0,0,0,3.89,3.07l2.21-3.29A35.68,35.68,0,0,1,92.35,64.36Z"></path> <path class="cls-1" d="M98.07,8.63,96.14,5.18A38.06,38.06,0,0,0,92,7.94l2.45,3.11A33.91,33.91,0,0,1,98.07,8.63Z"></path> <path class="cls-1" d="M103,6.27l-1.37-3.7a38.25,38.25,0,0,0-4.5,2.08L99,8.11A36.26,36.26,0,0,1,103,6.27Z"></path> <path class="cls-1" d="M108.17,4.72,107.4.84a38.92,38.92,0,0,0-4.78,1.35L104,5.9A35,35,0,0,1,108.17,4.72Z"></path> <path class="cls-1" d="M113.56,4l-.15-4a40.14,40.14,0,0,0-4.94.57l.77,3.89A32.64,32.64,0,0,1,113.56,4Z"></path> <path class="cls-1" d="M93.6,11.73,91.16,8.62A38.75,38.75,0,0,0,87.5,12l2.91,2.68A35.38,35.38,0,0,1,93.6,11.73Z"></path> <path class="cls-1" d="M89.67,15.47l-2.9-2.69a38.9,38.9,0,0,0-3.09,3.9l3.3,2.2A32.77,32.77,0,0,1,89.67,15.47Z"></path> <path class="cls-1" d="M81.15,34A32.93,32.93,0,0,1,82,29.7l-3.81-1.08a38.48,38.48,0,0,0-1,4.87Z"></path> <path class="cls-1" d="M80.19,22.9a36.58,36.58,0,0,0-1.71,4.67l3.81,1.07a35.42,35.42,0,0,1,1.49-4.08Z"></path> <path class="cls-1" d="M86.37,19.79l-3.29-2.2a37.29,37.29,0,0,0-2.43,4.33l3.6,1.66A31.75,31.75,0,0,1,86.37,19.79Z"></path> <path class="cls-1" d="M138.55,12.8l2.69-2.91a38.68,38.68,0,0,0-3.89-3.08l-2.19,3.29A35.2,35.2,0,0,1,138.55,12.8Z"></path> <path class="cls-1" d="M142.3,16.73l3.12-2.45a40.25,40.25,0,0,0-3.37-3.66l-2.69,2.91A35.49,35.49,0,0,1,142.3,16.73Z"></path> <path class="cls-1" d="M145.4,21.19l3.45-1.93a39.44,39.44,0,0,0-2.76-4.12L143,17.59A38.35,38.35,0,0,1,145.4,21.19Z"></path> <path class="cls-1" d="M147.75,26.09l3.71-1.36a37.65,37.65,0,0,0-2.08-4.51l-3.46,1.93A34.41,34.41,0,0,1,147.75,26.09Z"></path> <path class="cls-1" d="M124.33,5.11l1.08-3.8a40.73,40.73,0,0,0-4.87-1l-.46,3.93A36.71,36.71,0,0,1,124.33,5.11Z"></path> <path class="cls-1" d="M149.3,31.3l3.89-.77a38,38,0,0,0-1.35-4.78l-3.71,1.37A35,35,0,0,1,149.3,31.3Z"></path> <path class="cls-1" d="M119,4.14l.47-3.93a39.57,39.57,0,0,0-5-.2l.16,4A35.25,35.25,0,0,1,119,4.14Z"></path> <path class="cls-1" d="M85.48,55.89,82,57.82A39.34,39.34,0,0,0,84.76,62l3.12-2.44A33.39,33.39,0,0,1,85.48,55.89Z"></path> <path class="cls-1" d="M134.24,9.49l2.2-3.29a39.74,39.74,0,0,0-4.33-2.43l-1.66,3.6A33.39,33.39,0,0,1,134.24,9.49Z"></path> <path class="cls-1" d="M117.35,73.15l.15,3.95a38.5,38.5,0,0,0,4.94-.57l-.78-3.88A38.13,38.13,0,0,1,117.35,73.15Z"></path> <path class="cls-1" d="M129.46,6.9l1.65-3.59a37.87,37.87,0,0,0-4.65-1.71l-1.07,3.81A35.26,35.26,0,0,1,129.46,6.9Z"></path> <path class="cls-1" d="M150,36.68l3.95-.15a37,37,0,0,0-.57-4.94l-3.87.78A38.39,38.39,0,0,1,150,36.68Z"></path> <path class="cls-1" d="M122.73,72.42l.77,3.89A36.78,36.78,0,0,0,128.28,75l-1.36-3.71A33.32,33.32,0,0,1,122.73,72.42Z"></path> <path class="cls-1" d="M127.94,70.87l1.36,3.72a38.59,38.59,0,0,0,4.52-2.09L131.88,69A35.21,35.21,0,0,1,127.94,70.87Z"></path> <path class="cls-1" d="M149.88,42.12l3.94.46a41.39,41.39,0,0,0,.2-5l-4,.15A33.54,33.54,0,0,1,149.88,42.12Z"></path> <path class="cls-4" d="M103.59,17.68l-1.32-2.42a27.43,27.43,0,0,0-2.88,1.88l1.68,2.18A21.35,21.35,0,0,1,103.59,17.68Z"></path> <path class="cls-4" d="M121.83,15.42l.77-2.63a27.09,27.09,0,0,0-3.36-.71l-.36,2.72A26.63,26.63,0,0,1,121.83,15.42Z"></path> <path class="cls-4" d="M107,16.08l-.92-2.59a28.23,28.23,0,0,0-3.14,1.41l1.32,2.41A24.72,24.72,0,0,1,107,16.08Z"></path> <path class="cls-4" d="M110.62,15l-.51-2.7a26.84,26.84,0,0,0-3.32.91l.93,2.58A24.9,24.9,0,0,1,110.62,15Z"></path> <path class="cls-4" d="M114.37,14.57l-.08-2.74a26.61,26.61,0,0,0-3.43.36l.51,2.71A21.67,21.67,0,0,1,114.37,14.57Z"></path> <path class="cls-4" d="M118.13,14.71l.35-2.73a26.1,26.1,0,0,0-3.43-.17l.07,2.74A25.07,25.07,0,0,1,118.13,14.71Z"></path> <path class="cls-4" d="M137.28,48.52l2.48,1.18A23.65,23.65,0,0,0,141,46.48l-2.63-.78A21.8,21.8,0,0,1,137.28,48.52Z"></path> <path class="cls-4" d="M135.46,51.82l2.26,1.55a26.9,26.9,0,0,0,1.72-3L137,49.21A26.12,26.12,0,0,1,135.46,51.82Z"></path> <path class="cls-4" d="M133.14,54.79l2,1.88A27.81,27.81,0,0,0,137.3,54L135,52.45A23.3,23.3,0,0,1,133.14,54.79Z"></path> <path class="cls-4" d="M130.38,57.36l1.68,2.18a27,27,0,0,0,2.56-2.31l-2-1.89A21.61,21.61,0,0,1,130.38,57.36Z"></path> <path class="cls-4" d="M138.57,45l2.63.77a27.92,27.92,0,0,0,.72-3.36L139.2,42A26.67,26.67,0,0,1,138.57,45Z"></path> <path class="cls-4" d="M139.29,41.28l2.72.35a28.11,28.11,0,0,0,.18-3.44l-2.75.08A23.16,23.16,0,0,1,139.29,41.28Z"></path> <path class="cls-4" d="M136.68,27.4a24.94,24.94,0,0,1,1.24,2.75l2.59-.92a25.88,25.88,0,0,0-1.42-3.14Z"></path> <path class="cls-4" d="M141.66,33.26a26.79,26.79,0,0,0-.9-3.32l-2.59.92a22.46,22.46,0,0,1,.79,2.91Z"></path> <path class="cls-4" d="M139.42,37.51l2.74-.08A24.8,24.8,0,0,0,141.8,34l-2.7.51A23.15,23.15,0,0,1,139.42,37.51Z"></path> <path class="cls-4" d="M112.72,62.43l-.35,2.73a27.94,27.94,0,0,0,3.43.17l-.08-2.74A27.15,27.15,0,0,1,112.72,62.43Z"></path> <path class="cls-4" d="M109,61.71l-.78,2.64a26.23,26.23,0,0,0,3.37.71l.35-2.72A24.4,24.4,0,0,1,109,61.71Z"></path> <path class="cls-4" d="M105.47,60.44l-1.17,2.47a26,26,0,0,0,3.22,1.22l.77-2.63A26.67,26.67,0,0,1,105.47,60.44Z"></path> <path class="cls-4" d="M102.17,58.61l-1.55,2.25a24.83,24.83,0,0,0,3,1.72l1.18-2.48A25.19,25.19,0,0,1,102.17,58.61Z"></path> <path class="cls-4" d="M123.85,61.06l.91,2.59a27.57,27.57,0,0,0,3.15-1.41l-1.32-2.41A23.74,23.74,0,0,1,123.85,61.06Z"></path> <path class="cls-4" d="M99.21,56.29l-1.89,2A23.9,23.9,0,0,0,100,60.44l1.55-2.26A23.57,23.57,0,0,1,99.21,56.29Z"></path> <path class="cls-4" d="M127.26,59.46l1.32,2.42A30.35,30.35,0,0,0,131.46,60l-1.67-2.18A21.48,21.48,0,0,1,127.26,59.46Z"></path> <path class="cls-4" d="M116.48,62.57l.08,2.74a25.14,25.14,0,0,0,3.43-.37l-.51-2.7A25.48,25.48,0,0,1,116.48,62.57Z"></path> <path class="cls-4" d="M100.47,19.78l-1.68-2.17a25.57,25.57,0,0,0-2.56,2.3l2,1.89A22.81,22.81,0,0,1,100.47,19.78Z"></path> <path class="cls-4" d="M120.23,62.11l.5,2.7a26.84,26.84,0,0,0,3.32-.91l-.92-2.58A25.45,25.45,0,0,1,120.23,62.11Z"></path> <path class="cls-4" d="M96.63,53.53l-2.17,1.68a28,28,0,0,0,2.3,2.56l1.89-2A24,24,0,0,1,96.63,53.53Z"></path> <path class="cls-4" d="M93.56,28.62l-2.48-1.18a26.62,26.62,0,0,0-1.22,3.22l2.63.78A25.17,25.17,0,0,1,93.56,28.62Z"></path> <path class="cls-4" d="M97.71,22.35l-2-1.89a27.64,27.64,0,0,0-2.16,2.69l2.26,1.54A24.6,24.6,0,0,1,97.71,22.35Z"></path> <path class="cls-4" d="M95.39,25.32l-2.26-1.55a24.83,24.83,0,0,0-1.72,3l2.48,1.18A22.71,22.71,0,0,1,95.39,25.32Z"></path> <path class="cls-4" d="M94.53,50.4l-2.41,1.32A27,27,0,0,0,94,54.61l2.17-1.68A25.48,25.48,0,0,1,94.53,50.4Z"></path> <polygon class="cls-1" points="109.29 27.52 129.65 38.3 109.29 49.06 109.29 27.52"></polygon> <rect class="cls-2" y="85.13" width="172.75" height="3.6" rx="1.5"></rect> <circle class="cls-2" cx="50.75" cy="86.93" r="4.08"></circle> </g> </g> </svg> 