<?xml version="1.0" encoding="UTF-8"?> <svg xmlns="http://www.w3.org/2000/svg" width="750" height="222" viewBox="0 0 750 222" fill="none"><path d="M706.601 182.12L728.921 144.56V140.48H721.601V138.32H749.921V140.48H741.641V191.72H749.921V194H721.601V191.72H728.921V149L706.601 186.56V191.72H713.921V194H685.601V191.72H693.761V140.48H685.601V138.32H713.921V140.48H706.601V182.12Z" fill="#3E3355"></path><path d="M636.991 182.12L659.311 144.56V140.48H651.991V138.32H680.311V140.48H672.031V191.72H680.311V194H651.991V191.72H659.311V149L636.991 186.56V191.72H644.311V194H615.991V191.72H624.151V140.48H615.991V138.32H644.311V140.48H636.991V182.12Z" fill="#3E3355"></path><path d="M553.839 191.72V140.48H545.679V138.32H573.999V140.48H566.679V191.72H588.999V140.48H581.679V138.32H609.999V140.48H601.719V191.72H611.559L613.359 212.84H610.719C609.599 207.4 607.879 203.28 605.559 200.48C603.319 197.68 600.839 195.88 598.119 195.08C595.479 194.36 592.319 194 588.639 194H545.679V191.72H553.839Z" fill="#3E3355"></path><path d="M497.069 164.96V191.72H504.389V194H476.069V191.72H484.229V140.48H476.069V138.32H504.389V140.48H497.069V162.92H519.389V140.48H512.069V138.32H540.389V140.48H532.109V191.72H540.389V194H512.069V191.72H519.389V164.96H497.069Z" fill="#3E3355"></path><path d="M468.213 178.4L470.493 179.84C467.053 185.12 463.493 189.04 459.813 191.6C456.213 194.16 451.853 195.44 446.733 195.44C438.493 195.44 431.733 192.68 426.453 187.16C421.253 181.64 418.653 174.64 418.653 166.16C418.653 157.84 421.293 150.88 426.573 145.28C431.853 139.68 437.973 136.88 444.933 136.88C448.693 136.88 452.413 137.68 456.093 139.28C459.773 140.88 462.853 143.6 465.333 147.44C467.893 151.2 469.413 156.4 469.893 163.04H433.293L433.413 172.04C433.653 178.04 434.493 183 435.933 186.92C437.453 190.76 440.893 192.68 446.253 192.68C454.253 192.68 461.573 187.92 468.213 178.4ZM433.293 160.88H456.333C456.653 153.84 456.093 148.44 454.653 144.68C453.293 140.92 450.293 139.04 445.653 139.04C441.093 139.04 437.893 140.52 436.053 143.48C434.293 146.36 433.413 149.44 433.413 152.72L433.293 160.88Z" fill="#3E3355"></path><path d="M373.545 137.6V145.52C376.265 139.76 380.625 136.88 386.625 136.88C390.865 136.88 394.985 138.04 398.985 140.36C402.985 142.68 406.305 146.04 408.945 150.44C411.585 154.84 412.905 160.12 412.905 166.28C412.905 173.88 410.265 180.64 404.985 186.56C399.705 192.48 393.265 195.44 385.665 195.44C380.305 195.44 376.265 193.36 373.545 189.2V219.68H381.825V221.84H352.545V219.68H360.705V140.48H352.545V138.32H365.385C368.185 138.32 370.905 138.08 373.545 137.6ZM398.265 173.72V156.32C398.265 150 397.145 145.6 394.905 143.12C392.665 140.56 389.865 139.28 386.505 139.28C382.905 139.28 379.825 140.68 377.265 143.48C374.785 146.28 373.545 149.52 373.545 153.2V182.36C373.545 185.16 374.825 187.72 377.385 190.04C380.025 192.28 382.905 193.4 386.025 193.4C389.225 193.4 392.065 191.96 394.545 189.08C397.025 186.2 398.265 181.08 398.265 173.72Z" fill="#3E3355"></path><path d="M345.049 178.4L347.329 179.84C343.889 185.12 340.329 189.04 336.649 191.6C333.049 194.16 328.689 195.44 323.569 195.44C315.329 195.44 308.569 192.68 303.289 187.16C298.089 181.64 295.489 174.64 295.489 166.16C295.489 157.84 298.129 150.88 303.409 145.28C308.689 139.68 314.809 136.88 321.769 136.88C325.529 136.88 329.249 137.68 332.929 139.28C336.609 140.88 339.689 143.6 342.169 147.44C344.729 151.2 346.249 156.4 346.729 163.04H310.129L310.249 172.04C310.489 178.04 311.329 183 312.769 186.92C314.289 190.76 317.729 192.68 323.089 192.68C331.089 192.68 338.409 187.92 345.049 178.4ZM310.129 160.88H333.169C333.489 153.84 332.929 148.44 331.489 144.68C330.129 140.92 327.129 139.04 322.489 139.04C317.929 139.04 314.729 140.52 312.889 143.48C311.129 146.36 310.249 149.44 310.249 152.72L310.129 160.88Z" fill="#3E3355"></path><path d="M251.336 111.32V144.68C254.456 139.48 259.056 136.88 265.136 136.88C268.256 136.88 271.256 137.6 274.136 139.04C277.096 140.48 279.736 142.56 282.056 145.28C284.456 147.92 286.336 151.04 287.696 154.64C289.056 158.16 289.736 162.12 289.736 166.52C289.736 170.52 288.736 174.8 286.736 179.36C284.736 183.84 281.736 187.64 277.736 190.76C273.736 193.88 268.896 195.44 263.216 195.44C258.336 195.44 254.376 192.92 251.336 187.88V219.68H259.616V221.84H230.336V219.68H238.496V187.88C235.856 192.92 231.936 195.44 226.736 195.44C219.296 195.44 213.016 192.52 207.896 186.68C202.776 180.84 200.216 174.12 200.216 166.52C200.216 161 201.376 156 203.696 151.52C206.016 147.04 209.136 143.48 213.056 140.84C216.976 138.2 221.056 136.88 225.296 136.88C227.936 136.88 230.456 137.56 232.856 138.92C235.256 140.2 237.136 142.12 238.496 144.68V114.32H230.336V112.16H243.416C246.456 112.16 249.096 111.88 251.336 111.32ZM274.976 176.48V156.32C274.976 150.72 273.816 146.56 271.496 143.84C269.176 141.04 266.176 139.64 262.496 139.64C259.456 139.64 256.816 140.96 254.576 143.6C252.416 146.16 251.336 149.68 251.336 154.16V176.96C251.336 180.8 252.216 184.44 253.976 187.88C255.736 191.24 258.656 192.92 262.736 192.92C266.176 192.92 269.056 191.6 271.376 188.96C273.776 186.32 274.976 182.16 274.976 176.48ZM238.496 176.96V154.28C238.496 149.72 237.416 146.16 235.256 143.6C233.096 140.96 230.536 139.64 227.576 139.64C223.976 139.64 220.936 141.04 218.456 143.84C216.056 146.64 214.856 150.8 214.856 156.32V176.48C214.856 182.08 216.096 186.24 218.576 188.96C221.056 191.6 223.976 192.92 227.336 192.92C230.216 192.92 232.776 191.72 235.016 189.32C237.336 186.84 238.496 182.72 238.496 176.96Z" fill="#3E3355"></path><path d="M151.366 164.96V191.72H158.686V194H130.366V191.72H138.526V140.48H130.366V138.32H158.686V140.48H151.366V162.92H173.686V140.48H166.366V138.32H194.686V140.48H186.406V191.72H194.686V194H166.366V191.72H173.686V164.96H151.366Z" fill="#3E3355"></path><path d="M68.2627 166.16C68.2627 158.48 70.8627 151.68 76.0627 145.76C81.3427 139.84 88.1427 136.88 96.4627 136.88C101.983 136.88 106.903 138.32 111.223 141.2C115.623 144 118.983 147.68 121.303 152.24C123.703 156.72 124.903 161.36 124.903 166.16C124.903 170.96 123.703 175.64 121.303 180.2C118.983 184.68 115.623 188.36 111.223 191.24C106.903 194.04 101.983 195.44 96.4627 195.44C90.8627 195.44 85.9027 194.04 81.5827 191.24C77.2627 188.36 73.9427 184.68 71.6227 180.2C69.3827 175.64 68.2627 170.96 68.2627 166.16ZM83.0227 156.68C82.9427 158.92 82.9027 162.2 82.9027 166.52C82.9027 173.24 83.2627 178.44 83.9827 182.12C84.7827 185.8 86.1427 188.56 88.0627 190.4C90.0627 192.24 92.9427 193.16 96.7027 193.16C101.423 193.16 104.863 191.28 107.023 187.52C109.183 183.76 110.263 176.72 110.263 166.4C110.263 157.52 109.423 150.76 107.743 146.12C106.063 141.4 102.383 139.04 96.7027 139.04C93.0227 139.04 89.8627 140.48 87.2227 143.36C84.6627 146.24 83.2627 150.68 83.0227 156.68Z" fill="#3E3355"></path><path d="M21.6397 163.4H26.4397C30.1197 163.4 32.6396 162.36 33.9996 160.28C35.4396 158.2 36.5197 155.44 37.2397 152C38.3597 146.4 39.6797 142.48 41.1996 140.24C42.7997 138 45.5197 136.88 49.3597 136.88C52.3197 136.88 54.7597 137.76 56.6797 139.52C58.5997 141.2 59.5597 143.36 59.5597 146C59.5597 148.4 58.9196 150.36 57.6396 151.88C56.3597 153.4 54.6797 154.16 52.5997 154.16C50.8397 154.16 49.2397 153.64 47.7997 152.6C46.4397 151.48 45.7597 150.12 45.7597 148.52C45.7597 147.4 45.8797 146.44 46.1197 145.64C46.1997 145.4 46.2397 145.2 46.2397 145.04C46.3197 144.8 46.3597 144.64 46.3597 144.56C46.4397 144.48 46.4797 144.32 46.4797 144.08C46.4797 142.8 45.4396 142.16 43.3596 142.16C42.0796 142.16 40.8797 145.56 39.7597 152.36C38.9597 155.96 38.0796 158.64 37.1196 160.4C36.1596 162.08 34.7197 163.2 32.7997 163.76V164.12C40.4797 164.52 45.5597 166.16 48.0397 169.04C50.5197 171.92 52.0797 175.84 52.7197 180.8C53.0397 183.84 53.4397 186.12 53.9197 187.64C54.4797 189.16 55.5197 189.92 57.0396 189.92C57.9996 189.92 59.0396 189.56 60.1596 188.84C61.2796 188.04 61.9996 187.24 62.3196 186.44L63.9996 187.28C62.8796 189.92 61.0396 191.96 58.4796 193.4C55.9996 194.76 53.3597 195.44 50.5597 195.44C47.5196 195.44 45.1996 194.64 43.5997 193.04C41.9997 191.36 40.9596 189.52 40.4796 187.52C39.9997 185.44 39.5597 182.8 39.1597 179.6C38.3597 173.36 37.0396 169.44 35.1996 167.84C33.4397 166.24 30.7997 165.44 27.2797 165.44H24.5197L21.6397 165.56V191.72H29.9196V194H0.639648V191.72H8.79965V140.48H0.639648V138.32H29.9196V140.48H21.6397V163.4Z" fill="#3E3355"></path><path d="M623.069 79.0399L624.869 80.7199C621.829 85.1999 617.469 87.4399 611.789 87.4399C606.109 87.4399 602.509 84.5999 600.989 78.9199C594.429 84.5999 588.069 87.4399 581.909 87.4399C577.349 87.4399 573.669 86.1599 570.869 83.5999C568.069 80.9599 566.669 77.4399 566.669 73.0399C566.669 67.2799 569.189 62.7599 574.229 59.4799C579.349 56.1199 586.829 54.4399 596.669 54.4399C598.589 54.4399 600.029 54.4799 600.989 54.5599V39.9199C600.989 37.3599 600.429 35.2799 599.309 33.6799C598.269 31.9999 595.909 31.1599 592.229 31.1599C590.149 31.1599 588.229 31.4399 586.469 31.9999C584.709 32.4799 583.829 33.1599 583.829 34.0399C583.829 35.6399 584.269 37.1199 585.149 38.4799C586.269 40.3199 586.829 41.7599 586.829 42.7999C586.829 44.9599 586.189 46.8799 584.909 48.5599C583.629 50.1599 581.629 50.9599 578.909 50.9599C576.349 50.9599 574.349 50.1199 572.909 48.4399C571.469 46.7599 570.749 44.5999 570.749 41.9599C570.749 37.8799 572.989 34.6799 577.469 32.3599C582.029 30.0399 586.989 28.8799 592.349 28.8799C601.629 28.8799 607.509 30.3999 609.989 33.4399C612.549 36.4799 613.829 40.3199 613.829 44.9599V78.9199C613.829 81.7999 614.829 83.2399 616.829 83.2399C617.789 83.2399 618.909 82.7999 620.189 81.9199C621.469 81.0399 622.429 80.0799 623.069 79.0399ZM600.989 74.8399V56.7199C593.549 56.5599 588.389 57.5999 585.509 59.8399C582.709 61.9999 581.309 66.3599 581.309 72.9199C581.309 78.9199 584.349 81.9199 590.429 81.9199C591.789 81.9199 593.869 81.1199 596.669 79.5199C599.549 77.9199 600.989 76.3599 600.989 74.8399Z" fill="#3E3355"></path><path d="M485.21 32.4798V30.3198H507.41L523.61 68.9598L538.37 30.3198H560.81V32.4798H552.53V83.7198H560.81V85.9998H531.53V83.7198H539.69V33.9198L519.29 85.9998H518.09L497.21 34.5198V76.3998C497.21 78.9598 497.69 80.8398 498.65 82.0398C499.61 83.1598 501.89 83.7198 505.49 83.7198V85.9998H486.53V83.7198C487.49 83.6398 488.17 83.5998 488.57 83.5998C492.49 83.2798 494.45 80.9998 494.45 76.7598V39.7998C494.45 34.9198 492.09 32.4798 487.37 32.4798H485.21Z" fill="#3E3355"></path><path d="M404.351 32.4798V30.3198H426.551L442.751 68.9598L457.511 30.3198H479.951V32.4798H471.671V83.7198H479.951V85.9998H450.671V83.7198H458.831V33.9198L438.431 85.9998H437.231L416.351 34.5198V76.3998C416.351 78.9598 416.831 80.8398 417.791 82.0398C418.751 83.1598 421.031 83.7198 424.631 83.7198V85.9998H405.671V83.7198C406.631 83.6398 407.311 83.5998 407.711 83.5998C411.631 83.2798 413.591 80.9998 413.591 76.7598V39.7998C413.591 34.9198 411.231 32.4798 406.511 32.4798H404.351Z" fill="#3E3355"></path><path d="M399.944 79.0399L401.744 80.7199C398.704 85.1999 394.344 87.4399 388.664 87.4399C382.984 87.4399 379.384 84.5999 377.864 78.9199C371.304 84.5999 364.944 87.4399 358.784 87.4399C354.224 87.4399 350.544 86.1599 347.744 83.5999C344.944 80.9599 343.544 77.4399 343.544 73.0399C343.544 67.2799 346.064 62.7599 351.104 59.4799C356.224 56.1199 363.704 54.4399 373.544 54.4399C375.464 54.4399 376.904 54.4799 377.864 54.5599V39.9199C377.864 37.3599 377.304 35.2799 376.184 33.6799C375.144 31.9999 372.784 31.1599 369.104 31.1599C367.024 31.1599 365.104 31.4399 363.344 31.9999C361.584 32.4799 360.704 33.1599 360.704 34.0399C360.704 35.6399 361.144 37.1199 362.024 38.4799C363.144 40.3199 363.704 41.7599 363.704 42.7999C363.704 44.9599 363.064 46.8799 361.784 48.5599C360.504 50.1599 358.504 50.9599 355.784 50.9599C353.224 50.9599 351.224 50.1199 349.784 48.4399C348.344 46.7599 347.624 44.5999 347.624 41.9599C347.624 37.8799 349.864 34.6799 354.344 32.3599C358.904 30.0399 363.864 28.8799 369.224 28.8799C378.504 28.8799 384.384 30.3999 386.864 33.4399C389.424 36.4799 390.704 40.3199 390.704 44.9599V78.9199C390.704 81.7999 391.704 83.2399 393.704 83.2399C394.664 83.2399 395.784 82.7999 397.064 81.9199C398.344 81.0399 399.304 80.0799 399.944 79.0399ZM377.864 74.8399V56.7199C370.424 56.5599 365.264 57.5999 362.384 59.8399C359.584 61.9999 358.184 66.3599 358.184 72.9199C358.184 78.9199 361.224 81.9199 367.304 81.9199C368.664 81.9199 370.744 81.1199 373.544 79.5199C376.424 77.9199 377.864 76.3599 377.864 74.8399Z" fill="#3E3355"></path><path d="M298.076 29.5999V37.5199C300.796 31.7599 305.156 28.8799 311.156 28.8799C315.396 28.8799 319.516 30.0399 323.516 32.3599C327.516 34.6799 330.836 38.0399 333.476 42.4399C336.116 46.8399 337.436 52.1199 337.436 58.2799C337.436 65.8799 334.796 72.6399 329.516 78.5599C324.236 84.4799 317.796 87.4399 310.196 87.4399C304.836 87.4399 300.796 85.3599 298.076 81.1999V111.68H306.356V113.84H277.076V111.68H285.236V32.4799H277.076V30.3199H289.916C292.716 30.3199 295.436 30.0799 298.076 29.5999ZM322.796 65.7199V48.3199C322.796 41.9999 321.676 37.5999 319.436 35.1199C317.196 32.5599 314.396 31.2799 311.036 31.2799C307.436 31.2799 304.356 32.6799 301.796 35.4799C299.316 38.2799 298.076 41.5199 298.076 45.1999V74.3599C298.076 77.1599 299.356 79.7199 301.916 82.0399C304.556 84.2799 307.436 85.3999 310.556 85.3999C313.756 85.3999 316.596 83.9599 319.076 81.0799C321.556 78.1999 322.796 73.0799 322.796 65.7199Z" fill="#3E3355"></path><path d="M235.675 83.7198V32.4798H227.515V30.3198H272.995L273.835 48.3198H271.075C269.715 42.7998 267.995 38.9198 265.915 36.6798C263.915 34.4398 261.915 33.1998 259.915 32.9598C257.995 32.6398 254.555 32.4798 249.595 32.4798H248.515V83.7198H256.795V85.9998H227.515V83.7198H235.675Z" fill="#3E3355"></path><path d="M165.411 58.1599C165.411 50.4799 168.011 43.6799 173.211 37.7599C178.491 31.8399 185.291 28.8799 193.611 28.8799C199.131 28.8799 204.051 30.3199 208.371 33.1999C212.771 35.9999 216.131 39.6799 218.451 44.2399C220.851 48.7199 222.051 53.3599 222.051 58.1599C222.051 62.9599 220.851 67.6399 218.451 72.1999C216.131 76.6799 212.771 80.3599 208.371 83.2399C204.051 86.0399 199.131 87.4399 193.611 87.4399C188.011 87.4399 183.051 86.0399 178.731 83.2399C174.411 80.3599 171.091 76.6799 168.771 72.1999C166.531 67.6399 165.411 62.9599 165.411 58.1599ZM180.171 48.6799C180.091 50.9199 180.051 54.1999 180.051 58.5199C180.051 65.2399 180.411 70.4399 181.131 74.1199C181.931 77.7999 183.291 80.5599 185.211 82.3999C187.211 84.2399 190.091 85.1599 193.851 85.1599C198.571 85.1599 202.011 83.2799 204.171 79.5199C206.331 75.7599 207.411 68.7199 207.411 58.3999C207.411 49.5199 206.571 42.7599 204.891 38.1199C203.211 33.3999 199.531 31.0399 193.851 31.0399C190.171 31.0399 187.011 32.4799 184.371 35.3599C181.811 38.2399 180.411 42.6799 180.171 48.6799Z" fill="#3E3355"></path><path d="M120.303 29.5999V37.5199C123.023 31.7599 127.383 28.8799 133.383 28.8799C137.623 28.8799 141.743 30.0399 145.743 32.3599C149.743 34.6799 153.063 38.0399 155.703 42.4399C158.343 46.8399 159.663 52.1199 159.663 58.2799C159.663 65.8799 157.023 72.6399 151.743 78.5599C146.463 84.4799 140.023 87.4399 132.423 87.4399C127.063 87.4399 123.023 85.3599 120.303 81.1999V111.68H128.583V113.84H99.3027V111.68H107.463V32.4799H99.3027V30.3199H112.143C114.943 30.3199 117.663 30.0799 120.303 29.5999ZM145.023 65.7199V48.3199C145.023 41.9999 143.903 37.5999 141.663 35.1199C139.423 32.5599 136.623 31.2799 133.263 31.2799C129.663 31.2799 126.583 32.6799 124.023 35.4799C121.543 38.2799 120.303 41.5199 120.303 45.1999V74.3599C120.303 77.1599 121.583 79.7199 124.143 82.0399C126.783 84.2799 129.663 85.3999 132.783 85.3999C135.983 85.3999 138.823 83.9599 141.303 81.0799C143.783 78.1999 145.023 73.0799 145.023 65.7199Z" fill="#3E3355"></path><path d="M28.2395 2.83983V83.3598H37.3595V85.9998H3.51953V83.3598H13.5995V2.83983H3.51953V0.319824H91.4795V2.83983H81.3995V83.3598H91.4795V85.9998H57.6395V83.3598H66.7595V2.83983H28.2395Z" fill="#3E3355"></path></svg> 