<?xml version="1.0" encoding="UTF-8"?> <svg xmlns="http://www.w3.org/2000/svg" viewBox="0 0 483.05 231.36"> <defs> <style>.cls-1{fill:#335f6e;}.cls-2{fill:#272425;}</style> </defs> <g id="Layer_2" data-name="Layer 2"> <g id="Layer_1-2" data-name="Layer 1"> <path class="cls-1" d="M.21,131.51V0H44.56Q66.93,0,81.2,11.09t14.27,32.3q0,20.63-13,32.2T44,87.16H34.73v44.35ZM60.76,43.77a17.59,17.59,0,0,0-4.34-12.05q-4.34-4.92-13.6-4.92H34.73V60.36h7.71Q60.76,60.36,60.76,43.77Z"></path> <path class="cls-1" d="M114.55,0H161q34.32,0,53.51,18.8t19.18,47q0,27.76-19.76,46.76t-53.32,19H114.55Zm34.52,101.43h10q19.67,0,29.6-10t9.93-25.64q0-16.4-10-26t-29.5-9.64h-10Z"></path> <path class="cls-1" d="M325.89,76.55l40.11,55H325.89L292.53,81.76h-3.47v49.75H254.55V0h42.8q53,0,53,41.07,0,13.5-6.75,22.56A36.68,36.68,0,0,1,325.89,76.55ZM315.1,42.81c0-5-1.45-8.93-4.34-11.76s-7-4.25-12.25-4.25h-9.45V58.23h9.65q7.32,0,11.85-4T315.1,42.81Z"></path> <path class="cls-1" d="M405,50.71h-.77q.76,22.38.77,23.53v57.27H376V0h29.12l32.78,52.45q4.62,7.14,7.71,12.82c2.05,3.8,3.82,7.23,5.3,10.32s2.54,5.21,3.18,6.36h.58q-.57-17.36-.58-21.21V0h28.93V131.51H454.12L426.16,87q-8.1-12.91-14.36-24.11T405,50.71Z"></path> <path class="cls-2" d="M34.4,229.56,6.78,201.45v28.11H0V173.84H6.78v27l26.88-27h8.83L15,200.88l28.68,28.68Z"></path> <path class="cls-2" d="M43.14,201.7a29,29,0,0,1,8.46-20.92A28.14,28.14,0,0,1,72.72,172q13.23,0,21.36,8.74a29.65,29.65,0,0,1,8.13,20.92,28.91,28.91,0,0,1-8.49,21,28.28,28.28,0,0,1-21,8.66A31.39,31.39,0,0,1,59.6,228.7a25,25,0,0,1-9.35-7,32.25,32.25,0,0,1-5.31-9.48A31.41,31.41,0,0,1,43.14,201.7Zm7,0a23.43,23.43,0,0,0,6.45,16.87,21.29,21.29,0,0,0,16,6.74,21.41,21.41,0,0,0,16-6.74,23.35,23.35,0,0,0,6.5-16.87q0-10.14-6.29-16.87t-16.26-6.75a21.36,21.36,0,0,0-16,6.7Q50.17,191.49,50.17,201.7Z"></path> <path class="cls-2" d="M162.11,173.84l6.12,55.72h-6.61L158.43,197q-.74-8.08-1.31-14.79h-.24q-1.56,5.07-4.74,14.87l-10.87,32.44h-5.88l-10.87-33.34q-4.17-12.83-4.49-14h-.33q-.57,8.25-1.23,13.89L115,229.56h-6.53L115,173.84h8.25l12.1,35.87q1.88,5.39,3,10.21h.33q1-4,3.1-10.21l12.17-35.87Z"></path> <path class="cls-2" d="M210.88,229.56V180H184.25v49.52h-6.78V173.84h40.2v55.72Z"></path> <path class="cls-2" d="M242.18,180l-2.86,37.43q-.57,6.69-3.27,9.64t-7.76,2.94a12.19,12.19,0,0,1-3.84-.65v-5.89a7.5,7.5,0,0,0,3.18.49,4.24,4.24,0,0,0,3.48-1.43q1.19-1.42,1.51-5.1L236,173.84h35.21v55.72H264.4V180Z"></path> <path class="cls-2" d="M313.59,173.84V180H289.81v17.57h22.88v6.21H289.81v19.53h24.68v6.21H283V173.84Z"></path> <path class="cls-2" d="M359.92,229.56,332.3,201.45v28.11h-6.78V173.84h6.78v27l26.88-27H368l-27.53,27,28.68,28.68Z"></path> <path class="cls-2" d="M397.42,172a32,32,0,0,1,10,1.47,22.84,22.84,0,0,1,7.51,4,28.78,28.78,0,0,1,5,5.11,26.29,26.29,0,0,1,3.14,5.55h-7.68a16.81,16.81,0,0,0-6.74-7.27,21.43,21.43,0,0,0-11.23-2.78,21,21,0,0,0-15.28,6.3q-6.37,6.28-6.38,17.24a24.07,24.07,0,0,0,6.25,16.87,20.52,20.52,0,0,0,15.81,6.82,20.81,20.81,0,0,0,11.4-3,18.21,18.21,0,0,0,7-8.13h7.68q-8.08,17.16-26.39,17.16-12.75,0-20.76-8.46t-8-21.37q0-12.74,8.25-21.12A27.64,27.64,0,0,1,397.42,172Z"></path> <path class="cls-2" d="M433.78,229.56V173.84h6.78v23.77h9.23q8.08,0,13.32,4.13t5.23,11.72q0,7.6-5.23,11.85t-13.32,4.25Zm27.53-16.1a8.63,8.63,0,0,0-3.14-7.11c-2.1-1.68-5.11-2.53-9-2.53h-8.58v19.53h9.72q5.48,0,8.25-2.7A9.51,9.51,0,0,0,461.31,213.46ZM476,229.56V173.84h6.78v55.72Z"></path> </g> </g> </svg> 