<?xml version="1.0" encoding="UTF-8"?> <!-- Generator: Adobe Illustrator 26.5.0, SVG Export Plug-In . SVG Version: 6.00 Build 0) --> <svg xmlns="http://www.w3.org/2000/svg" xmlns:xlink="http://www.w3.org/1999/xlink" id="Layer_1" x="0px" y="0px" viewBox="0 0 283.5 141.7" style="enable-background:new 0 0 283.5 141.7;" xml:space="preserve"> <style type="text/css"> .st0{fill:url(#SVGID_1_);} .st1{fill:url(#SVGID_00000174571993203987138700000009997196936651296154_);} .st2{fill:url(#SVGID_00000074409967262336552020000016359043139776292255_);} .st3{fill:url(#SVGID_00000116200972851414881140000008407075941555095721_);} .st4{fill:url(#SVGID_00000015336390761377846860000009516384034441794718_);} .st5{fill:url(#SVGID_00000082363085918077639790000000035162502206842265_);} .st6{fill:url(#SVGID_00000021825109408330252580000018375959186652049052_);} .st7{fill:url(#SVGID_00000101787832955562073630000003071253739271515324_);} .st8{fill:url(#SVGID_00000057838086813884371230000008927765031691052672_);} .st9{fill:url(#SVGID_00000034778684968711544520000005228682798163153838_);} .st10{fill:url(#SVGID_00000083057512681261752600000003006685703030995623_);} .st11{fill:url(#SVGID_00000040562593629502124030000017145040644813651854_);} .st12{fill:url(#SVGID_00000065055735198194980850000009802972067448914085_);} .st13{fill:url(#SVGID_00000153701840742601329660000016776481787600330143_);} .st14{fill:url(#SVGID_00000035489265128837046990000000285896647974347702_);} .st15{fill:url(#SVGID_00000061441006911109061220000002078714685749916091_);} .st16{fill:url(#SVGID_00000137120932203680361900000011794411936030563717_);} .st17{fill:url(#SVGID_00000018198636059749329350000007183212352008625040_);} .st18{fill:url(#SVGID_00000065769483711630932380000001487294863767502727_);} .st19{fill:url(#SVGID_00000147215572053626468510000005220908011376301202_);} .st20{fill:url(#SVGID_00000071550605777050273690000001886568594087261325_);} .st21{fill:url(#SVGID_00000079449315237797997290000016279283082473125052_);} .st22{fill:url(#SVGID_00000078007392509838233610000004110820175077078933_);} .st23{fill:url(#SVGID_00000160884830583657394190000004772508325648614047_);} </style> <g> <g> <g> <linearGradient id="SVGID_1_" gradientUnits="userSpaceOnUse" x1="131.355" y1="77.4642" x2="131.355" y2="104.5062" gradientTransform="matrix(1 0 0 1 0 -2)"> <stop offset="0" style="stop-color:#C49A6C"></stop> <stop offset="1" style="stop-color:#8B5E3C"></stop> </linearGradient> <path class="st0" d="M54.3,83.6v2.7c0,5.4-2.7,8.1-8.1,8.1H32.6v8.1h-5.4v-27h18.9C51.6,75.5,54.3,78.2,54.3,83.6z M48.9,83.6 c0-1.8-0.9-2.7-2.7-2.7H32.6V89h13.5c1.8,0,2.7-0.9,2.7-2.7V83.6z"></path> <linearGradient id="SVGID_00000006709997004215826790000016391738694494888867_" gradientUnits="userSpaceOnUse" x1="131.355" y1="77.4642" x2="131.355" y2="104.5062" gradientTransform="matrix(1 0 0 1 0 -2)"> <stop offset="0" style="stop-color:#C49A6C"></stop> <stop offset="1" style="stop-color:#8B5E3C"></stop> </linearGradient> <path style="fill:url(#SVGID_00000006709997004215826790000016391738694494888867_);" d="M86.3,83.6v2.7c0,5.4-2.7,8.1-8.1,8.1 l8.1,8.1h-7.7l-8.1-8.1h-5.9v8.1h-5.4v-27h18.9C83.6,75.5,86.3,78.2,86.3,83.6z M80.9,83.6c0-1.8-0.9-2.7-2.7-2.7H64.7V89h13.5 c1.8,0,2.7-0.9,2.7-2.7V83.6z"></path> <linearGradient id="SVGID_00000042018513301344689750000011040543805082721442_" gradientUnits="userSpaceOnUse" x1="131.355" y1="77.4642" x2="131.355" y2="104.5062" gradientTransform="matrix(1 0 0 1 0 -2)"> <stop offset="0" style="stop-color:#C49A6C"></stop> <stop offset="1" style="stop-color:#8B5E3C"></stop> </linearGradient> <path style="fill:url(#SVGID_00000042018513301344689750000011040543805082721442_);" d="M118.3,80.9H96.7v5.4h16.2v5.4H96.7v5.4 h21.6v5.4h-27v-27h27V80.9z"></path> <linearGradient id="SVGID_00000154387009682282607970000006257063632628358021_" gradientUnits="userSpaceOnUse" x1="131.355" y1="77.4642" x2="131.355" y2="104.5062" gradientTransform="matrix(1 0 0 1 0 -2)"> <stop offset="0" style="stop-color:#C49A6C"></stop> <stop offset="1" style="stop-color:#8B5E3C"></stop> </linearGradient> <path style="fill:url(#SVGID_00000154387009682282607970000006257063632628358021_);" d="M155.7,102.5h-5.4V85.6l-10.8,16.9 l-10.8-16.9v16.9h-5.4v-27h5.4l10.8,16.9l10.8-16.9h5.4V102.5z"></path> <linearGradient id="SVGID_00000119834357061542320290000009131493324344689838_" gradientUnits="userSpaceOnUse" x1="131.355" y1="77.4642" x2="131.355" y2="104.5062" gradientTransform="matrix(1 0 0 1 0 -2)"> <stop offset="0" style="stop-color:#C49A6C"></stop> <stop offset="1" style="stop-color:#8B5E3C"></stop> </linearGradient> <path style="fill:url(#SVGID_00000119834357061542320290000009131493324344689838_);" d="M166.1,102.5h-5.4v-27h5.4V102.5z"></path> <linearGradient id="SVGID_00000060740196647831866520000001152676855697231294_" gradientUnits="userSpaceOnUse" x1="131.355" y1="77.4642" x2="131.355" y2="104.5062" gradientTransform="matrix(1 0 0 1 0 -2)"> <stop offset="0" style="stop-color:#C49A6C"></stop> <stop offset="1" style="stop-color:#8B5E3C"></stop> </linearGradient> <path style="fill:url(#SVGID_00000060740196647831866520000001152676855697231294_);" d="M198.1,94.4c0,5.4-2.7,8.1-8.1,8.1 h-10.8c-5.4,0-8.1-2.7-8.1-8.1V75.5h5.4v18.9c0,1.8,0.9,2.7,2.7,2.7h10.8c1.8,0,2.7-0.9,2.7-2.7V75.5h5.4V94.4z"></path> <linearGradient id="SVGID_00000050655993241195782480000006490958724819645881_" gradientUnits="userSpaceOnUse" x1="131.355" y1="77.4642" x2="131.355" y2="104.5062" gradientTransform="matrix(1 0 0 1 0 -2)"> <stop offset="0" style="stop-color:#C49A6C"></stop> <stop offset="1" style="stop-color:#8B5E3C"></stop> </linearGradient> <path style="fill:url(#SVGID_00000050655993241195782480000006490958724819645881_);" d="M235.5,102.5h-5.4V85.6l-10.8,16.9 l-10.8-16.9v16.9H203v-27h5.4l10.8,16.9l10.8-16.9h5.4V102.5z"></path> </g> </g> <g> <g> <path d="M122.7,21.2l8.3,3.4v-5.5c-6.1,0.1-11.6,2.5-15.6,6.5l3.9,3.9L122.7,21.2z"></path> <g> <g> <polygon points="143.1,30.3 136.2,30.3 143.1,37.2 "></polygon> </g> <g> <polygon points="119.6,30.3 119.6,37.2 126.5,30.3 "></polygon> </g> <g> <polygon points="143.1,46.9 136.2,53.8 143.1,53.8 "></polygon> </g> <g> <polygon points="119.6,53.8 126.5,53.8 119.6,46.9 "></polygon> </g> <g> <polygon points="131.4,58.7 136.2,53.8 126.5,53.8 "></polygon> </g> <g> <polygon points="114.8,42.1 119.6,46.9 119.6,37.2 "></polygon> </g> <g> <polygon points="131.4,25.5 126.5,30.3 136.2,30.3 "></polygon> </g> <g> <polygon points="148,42.1 143.1,37.2 143.1,46.9 "></polygon> </g> </g> <path d="M140,21.2l3.4,8.3l3.9-3.9c-4.1-3.9-9.6-6.4-15.6-6.5v5.5L140,21.2z"></path> <path d="M152.3,33.4l-3.4,8.3h5.5c-0.1-6.1-2.5-11.6-6.5-15.6L144,30L152.3,33.4z"></path> <path d="M148.8,42.4l3.4,8.3l-8.3,3.4l0,0l3.9,3.9c3.9-4.1,6.4-9.6,6.5-15.6H148.8z"></path> <path d="M143.5,54.7L140,63l-8.3-3.4v5.5c6.1-0.1,11.6-2.5,15.6-6.5L143.5,54.7L143.5,54.7z"></path> <path d="M122.7,63l-3.4-8.3l-3.9,3.9c4.1,3.9,9.6,6.4,15.6,6.5v-5.5L122.7,63z"></path> <path d="M110.4,50.7l3.4-8.3h-5.5c0.1,6.1,2.5,11.6,6.5,15.6l3.9-3.9L110.4,50.7z"></path> <g> <polygon points="114.2,41.7 114.2,41.7 114.2,41.7 "></polygon> <path d="M110.4,33.4l8.3-3.4l-3.9-3.9c-3.9,4.1-6.4,9.6-6.5,15.6h5.5L110.4,33.4z"></path> </g> </g> <g> <radialGradient id="SVGID_00000183216958397824711380000018179322258421354141_" cx="131.3555" cy="44.0795" r="22.9883" gradientTransform="matrix(1 0 0 1 0 -2)" gradientUnits="userSpaceOnUse"> <stop offset="0.5914" style="stop-color:#C49A6C"></stop> <stop offset="1" style="stop-color:#8B5E3C"></stop> </radialGradient> <path style="fill:url(#SVGID_00000183216958397824711380000018179322258421354141_);" d="M122.7,21.2l8.3,3.4v-5.5 c-6.1,0.1-11.6,2.5-15.6,6.5l3.9,3.9L122.7,21.2z"></path> <g> <g> <radialGradient id="SVGID_00000130637191118748871240000016725984216559088773_" cx="131.3555" cy="44.0795" r="22.9883" gradientTransform="matrix(1 0 0 1 0 -2)" gradientUnits="userSpaceOnUse"> <stop offset="0.5914" style="stop-color:#C49A6C"></stop> <stop offset="1" style="stop-color:#8B5E3C"></stop> </radialGradient> <polygon style="fill:url(#SVGID_00000130637191118748871240000016725984216559088773_);" points="143.1,30.3 136.2,30.3 143.1,37.2 "></polygon> </g> <g> <radialGradient id="SVGID_00000035524790404372744240000016521481904820103097_" cx="131.3555" cy="44.0795" r="22.9883" gradientTransform="matrix(1 0 0 1 0 -2)" gradientUnits="userSpaceOnUse"> <stop offset="0.5914" style="stop-color:#C49A6C"></stop> <stop offset="1" style="stop-color:#8B5E3C"></stop> </radialGradient> <polygon style="fill:url(#SVGID_00000035524790404372744240000016521481904820103097_);" points="119.6,30.3 119.6,37.2 126.5,30.3 "></polygon> </g> <g> <radialGradient id="SVGID_00000081616506599118064030000016271809968945593497_" cx="131.3555" cy="44.0795" r="22.9883" gradientTransform="matrix(1 0 0 1 0 -2)" gradientUnits="userSpaceOnUse"> <stop offset="0.5914" style="stop-color:#C49A6C"></stop> <stop offset="1" style="stop-color:#8B5E3C"></stop> </radialGradient> <polygon style="fill:url(#SVGID_00000081616506599118064030000016271809968945593497_);" points="143.1,46.9 136.2,53.8 143.1,53.8 "></polygon> </g> <g> <radialGradient id="SVGID_00000097492616644067680760000010307032605132771983_" cx="131.3555" cy="44.0795" r="22.9883" gradientTransform="matrix(1 0 0 1 0 -2)" gradientUnits="userSpaceOnUse"> <stop offset="0.5914" style="stop-color:#C49A6C"></stop> <stop offset="1" style="stop-color:#8B5E3C"></stop> </radialGradient> <polygon style="fill:url(#SVGID_00000097492616644067680760000010307032605132771983_);" points="119.6,53.8 126.5,53.8 119.6,46.9 "></polygon> </g> <g> <radialGradient id="SVGID_00000142149921665146446440000007973257813401728438_" cx="131.3555" cy="44.0795" r="22.9883" gradientTransform="matrix(1 0 0 1 0 -2)" gradientUnits="userSpaceOnUse"> <stop offset="0.5914" style="stop-color:#C49A6C"></stop> <stop offset="1" style="stop-color:#8B5E3C"></stop> </radialGradient> <polygon style="fill:url(#SVGID_00000142149921665146446440000007973257813401728438_);" points="131.4,58.7 136.2,53.8 126.5,53.8 "></polygon> </g> <g> <radialGradient id="SVGID_00000100375903597016389790000005643085210425373119_" cx="131.3555" cy="44.0795" r="22.9883" gradientTransform="matrix(1 0 0 1 0 -2)" gradientUnits="userSpaceOnUse"> <stop offset="0.5914" style="stop-color:#C49A6C"></stop> <stop offset="1" style="stop-color:#8B5E3C"></stop> </radialGradient> <polygon style="fill:url(#SVGID_00000100375903597016389790000005643085210425373119_);" points="114.8,42.1 119.6,46.9 119.6,37.2 "></polygon> </g> <g> <radialGradient id="SVGID_00000126297760953394823570000013686194022945258648_" cx="131.3555" cy="44.0795" r="22.9883" gradientTransform="matrix(1 0 0 1 0 -2)" gradientUnits="userSpaceOnUse"> <stop offset="0.5914" style="stop-color:#C49A6C"></stop> <stop offset="1" style="stop-color:#8B5E3C"></stop> </radialGradient> <polygon style="fill:url(#SVGID_00000126297760953394823570000013686194022945258648_);" points="131.4,25.5 126.5,30.3 136.2,30.3 "></polygon> </g> <g> <radialGradient id="SVGID_00000119819447601682626810000006840107436568737700_" cx="131.3555" cy="44.0795" r="22.9883" gradientTransform="matrix(1 0 0 1 0 -2)" gradientUnits="userSpaceOnUse"> <stop offset="0.5914" style="stop-color:#C49A6C"></stop> <stop offset="1" style="stop-color:#8B5E3C"></stop> </radialGradient> <polygon style="fill:url(#SVGID_00000119819447601682626810000006840107436568737700_);" points="148,42.1 143.1,37.2 143.1,46.9 "></polygon> </g> </g> <radialGradient id="SVGID_00000070098245479058239770000002320530869218755219_" cx="131.3555" cy="44.0795" r="22.9883" gradientTransform="matrix(1 0 0 1 0 -2)" gradientUnits="userSpaceOnUse"> <stop offset="0.5914" style="stop-color:#C49A6C"></stop> <stop offset="1" style="stop-color:#8B5E3C"></stop> </radialGradient> <path style="fill:url(#SVGID_00000070098245479058239770000002320530869218755219_);" d="M140,21.2l3.4,8.3l3.9-3.9 c-4.1-3.9-9.6-6.4-15.6-6.5v5.5L140,21.2z"></path> <radialGradient id="SVGID_00000078739833711864319320000018136827597912173479_" cx="131.3555" cy="44.0795" r="22.9883" gradientTransform="matrix(1 0 0 1 0 -2)" gradientUnits="userSpaceOnUse"> <stop offset="0.5914" style="stop-color:#C49A6C"></stop> <stop offset="1" style="stop-color:#8B5E3C"></stop> </radialGradient> <path style="fill:url(#SVGID_00000078739833711864319320000018136827597912173479_);" d="M152.3,33.4l-3.4,8.3h5.5 c-0.1-6.1-2.5-11.6-6.5-15.6L144,30L152.3,33.4z"></path> <radialGradient id="SVGID_00000024712772893389211130000010006483674804185740_" cx="131.3555" cy="44.0795" r="22.9883" gradientTransform="matrix(1 0 0 1 0 -2)" gradientUnits="userSpaceOnUse"> <stop offset="0.5914" style="stop-color:#C49A6C"></stop> <stop offset="1" style="stop-color:#8B5E3C"></stop> </radialGradient> <path style="fill:url(#SVGID_00000024712772893389211130000010006483674804185740_);" d="M148.8,42.4l3.4,8.3l-8.3,3.4l0,0 l3.9,3.9c3.9-4.1,6.4-9.6,6.5-15.6H148.8z"></path> <radialGradient id="SVGID_00000153705266314662319650000003839394116423585924_" cx="131.3555" cy="44.0795" r="22.9883" gradientTransform="matrix(1 0 0 1 0 -2)" gradientUnits="userSpaceOnUse"> <stop offset="0.5914" style="stop-color:#C49A6C"></stop> <stop offset="1" style="stop-color:#8B5E3C"></stop> </radialGradient> <path style="fill:url(#SVGID_00000153705266314662319650000003839394116423585924_);" d="M143.5,54.7L140,63l-8.3-3.4v5.5 c6.1-0.1,11.6-2.5,15.6-6.5L143.5,54.7L143.5,54.7z"></path> <radialGradient id="SVGID_00000160899638594444316460000000726854832753818534_" cx="131.3555" cy="44.0795" r="22.9883" gradientTransform="matrix(1 0 0 1 0 -2)" gradientUnits="userSpaceOnUse"> <stop offset="0.5914" style="stop-color:#C49A6C"></stop> <stop offset="1" style="stop-color:#8B5E3C"></stop> </radialGradient> <path style="fill:url(#SVGID_00000160899638594444316460000000726854832753818534_);" d="M122.7,63l-3.4-8.3l-3.9,3.9 c4.1,3.9,9.6,6.4,15.6,6.5v-5.5L122.7,63z"></path> <radialGradient id="SVGID_00000138558938135893695630000000628704452965242301_" cx="131.3555" cy="44.0795" r="22.9883" gradientTransform="matrix(1 0 0 1 0 -2)" gradientUnits="userSpaceOnUse"> <stop offset="0.5914" style="stop-color:#C49A6C"></stop> <stop offset="1" style="stop-color:#8B5E3C"></stop> </radialGradient> <path style="fill:url(#SVGID_00000138558938135893695630000000628704452965242301_);" d="M110.4,50.7l3.4-8.3h-5.5 c0.1,6.1,2.5,11.6,6.5,15.6l3.9-3.9L110.4,50.7z"></path> <g> <radialGradient id="SVGID_00000107567043447744490020000002497365587440475065_" cx="131.3555" cy="44.0795" r="22.9883" gradientTransform="matrix(1 0 0 1 0 -2)" gradientUnits="userSpaceOnUse"> <stop offset="0.5914" style="stop-color:#C49A6C"></stop> <stop offset="1" style="stop-color:#8B5E3C"></stop> </radialGradient> <polygon style="fill:url(#SVGID_00000107567043447744490020000002497365587440475065_);" points="114.2,41.7 114.2,41.7 114.2,41.7 "></polygon> <radialGradient id="SVGID_00000130649354878631302110000008060496205899701178_" cx="131.3555" cy="44.0795" r="22.9883" gradientTransform="matrix(1 0 0 1 0 -2)" gradientUnits="userSpaceOnUse"> <stop offset="0.5914" style="stop-color:#C49A6C"></stop> <stop offset="1" style="stop-color:#8B5E3C"></stop> </radialGradient> <path style="fill:url(#SVGID_00000130649354878631302110000008060496205899701178_);" d="M110.4,33.4l8.3-3.4l-3.9-3.9 c-3.9,4.1-6.4,9.6-6.5,15.6h5.5L110.4,33.4z"></path> </g> </g> </g> <path d="M140.6,109.6c0,0.2-0.1,0.4-0.2,0.5c-1.5,1.4-2.7,2.5-3.8,3.3c-1,0.9-1.8,1.5-2.4,1.9c-2.9,2.1-5.4,3.1-7.8,3.2 c-2,0-3-1.1-3-3.3c0-1.4,0.7-2.9,2.2-4.7c1.5-1.7,2.9-2.6,3.9-2.6c0.4,0,0.7,0.2,1,0.5c0.3,0.3,0.4,0.6,0.5,0.9 c0,0.5-0.3,1.1-0.8,1.6c-0.3,0.2-0.6,0.5-0.8,0.7c-0.3,0.2-0.5,0.5-0.8,0.7c-0.9,0.8-2,1.5-3.3,2.2c0,0.7,0.3,1.4,0.9,1.8 c0.5,0.3,1,0.5,1.6,0.5c1.5,0,3.7-1,6.7-3.1c0.3-0.2,0.9-0.7,1.8-1.4c0.9-0.7,2.2-1.8,3.9-3.1c0.1,0,0.2,0,0.3,0 C140.5,109.4,140.5,109.5,140.6,109.6 M129.1,109.8c0-0.2-0.2-0.3-0.6-0.4c-0.5,0-1.1,0.5-1.9,1.4c-0.8,0.9-1.2,1.6-1.2,2.3 c0.1,0,0.4-0.1,0.8-0.2C128,111.8,129,110.7,129.1,109.8 M159.7,109.6c0,0.1,0,0.2,0,0.3c0,0.1-0.1,0.2-0.1,0.3c-2,2.1-4,4-6.2,5.5 c-2.5,1.9-4.7,2.8-6.5,2.9c-1.7,0-3.1-1.6-4.2-4.7c-0.7,0.5-1.5,1.2-2.5,2.1c-1,0.9-2.2,2-3.6,3.4c-0.3,0.2-0.5,0.3-0.9,0.3 c-0.1-0.1-0.2-0.1-0.3-0.2c0-0.2,0.2-0.6,0.6-1c0.4-0.5,1.1-1.1,2.1-1.9c0.7-0.6,1.4-1.2,2.1-1.8c0.7-0.6,1.4-1.1,2.1-1.7 c-0.6-1-1.1-1.7-1.6-1.9c-0.7-0.3-1-0.6-1-0.8c0-0.7,0.5-1.1,1.5-1.2c0.7,0,1.3,0.3,1.8,0.9c0.1,0.1,0.2,0.3,0.3,0.6 c0.2,0.3,0.4,0.6,0.6,1.1c0.7-0.6,1.4-1.1,2.1-1.6c0.7-0.5,1.3-1,2-1.4c1.7-1,2.8-1.5,3.5-1.5c0.1,0,0.3,0,0.4,0 c0.1,0,0.2,0.1,0.2,0.2c0,0.2-0.1,0.3-0.2,0.3c-0.1,0.1-0.3,0.2-0.6,0.3c-0.5,0.2-1,0.4-1.4,0.5c-0.4,0.1-0.6,0.3-0.8,0.4 c-1.8,0.9-3.5,2.1-4.9,3.5c0.2,0.4,0.5,0.8,0.7,1.2c0.2,0.4,0.5,0.8,0.7,1.2c0.7,1.2,1.4,1.9,2.1,1.9c1.2,0,3.1-1,5.8-3 c0.4-0.2,1-0.7,2-1.4c0.9-0.7,2.2-1.7,3.7-3c0,0,0.1,0,0.3,0C159.6,109.4,159.7,109.5,159.7,109.6 M175.7,109.8 c0,0.2-0.8,1-2.5,2.5c-0.8,0.7-1.4,1.3-2,1.7c-0.6,0.4-1,0.8-1.4,1.1c-1.8,1.3-3.6,2.3-5.3,3c-1.7,0.6-3.4,1-5,1 c-1.2,0-2.2-0.4-2.9-1.1c-0.7-0.6-1.1-1.5-1.1-2.6c0-1.6,1-3.3,2.9-5.1c1-1,2-1.8,3.2-2.3c1.1-0.5,2.2-0.8,3.4-0.9 c0.9,0,1.4,0.5,1.5,1.4c0,0.9-0.6,1.8-1.9,2.6c-0.5,0.4-1.1,0.7-1.5,0.9c-0.5,0.2-0.9,0.3-1.3,0.3c-0.7,0-1-0.2-1-0.5 c0-0.9,0.4-1.3,1.3-1.3c0.1,0,0.1,0,0.2,0c0.1,0,0.2,0.1,0.3,0.1c0.2,0.1,0.4,0.2,0.8,0.2c0.4,0,0.8-0.2,1.1-0.7 c0.4-0.5,0.6-0.9,0.6-1.2c0-0.2-0.4-0.4-1.1-0.5c-1.3,0-2.7,0.7-4.2,2.2c-1.4,1.4-2.2,2.7-2.2,4c0,0.8,0.4,1.5,1.1,2.2 c0.6,0.6,1.5,0.9,2.7,0.9c1.7,0,3.8-0.7,6.2-2.2c0.8-0.4,1.7-1,2.6-1.6c0.9-0.6,1.9-1.4,2.9-2.3c1.7-1.4,2.6-2.1,2.7-2.1 C175.6,109.4,175.7,109.5,175.7,109.8 M193.4,88c0,2.6-2.1,6.3-6.3,11.2c-2.6,3-5.6,6-8.9,9c-1.1,0.9-2.3,1.9-3.5,2.9 c-1.2,1-2.6,2.1-4.1,3.3c0,0.6,0.5,1.2,1.5,1.8c0.8,0.5,1.8,0.7,2.9,0.7c2.1,0,4.6-1,7.4-3c0.1-0.1,0.7-0.5,1.6-1.3 c0.9-0.7,2.3-1.8,4-3.2c0.1-0.1,0.2-0.1,0.3-0.1c0.1,0,0.1,0.1,0.1,0.3c0,0.2,0,0.4-0.1,0.5c-1.3,1.1-2.4,2.1-3.5,3 c-1,0.8-2,1.5-2.8,2.1c-3,1.9-5.6,2.9-7.9,2.9c-3.9,0-5.9-1.6-5.9-4.9c0-2.9,1.4-6.7,4.3-11.3c2.7-4.3,5.9-8.1,9.4-11.3 c3.7-3.4,6.7-5.1,9-5.1c0.7,0,1.3,0.2,1.7,0.7C193.2,86.7,193.4,87.3,193.4,88 M191.5,88.5c0-1.2-0.7-1.8-2.2-1.7 c-0.8,0.1-1.8,0.5-2.9,1.2c-1.1,0.7-2.5,1.8-4,3.3c-1.5,1.4-2.9,2.8-4.2,4.3c-1.2,1.5-2.4,3-3.4,4.5c-1.3,2.1-2.4,4.4-3.3,6.9 c-0.7,2.1-1.1,3.9-1.2,5.2c0,0.4,0.1,0.7,0.2,1c0.8-0.4,2.5-1.7,5.1-4c3.1-2.7,5.9-5.4,8.5-8.1c2.5-2.6,4.3-4.7,5.3-6.4 C190.8,92.5,191.5,90.4,191.5,88.5 M205.6,109.6c0,0.2-0.1,0.4-0.2,0.5c-6.2,5.6-10.6,8.5-13.1,8.5c-1.3,0-2.1-1.2-2.4-3.6 c-0.7,0.9-1.8,1.7-3.3,2.4c-1.1,0.5-1.9,0.8-2.4,0.8c-0.5,0-0.9-0.2-1.2-0.6c-0.4-0.4-0.6-0.8-0.6-1.4c0-1,0.4-2.1,1.3-3.1 c0.4-0.4,1.1-1,1.9-1.6c0.8-0.7,1.9-1.4,3.2-2.3c0.3,0,0.3,0.2,0.3,0.6c-0.4,0.2-0.7,0.5-1.1,0.8c-0.4,0.3-0.8,0.6-1.2,0.9 c-1.4,1.3-2.1,2.5-2.1,3.5c0,1,0.3,1.5,0.8,1.6c0.3,0,0.8-0.2,1.7-0.6c0.5-0.2,1-0.5,1.4-0.8c0.4-0.3,0.8-0.5,1.1-0.8 c0.6-0.5,1.5-1.6,2.8-3.5c1-1.4,1.8-2.1,2.2-2.1c0.3,0,0.5,0.2,0.6,0.5c0,0.2-0.1,0.4-0.4,0.7c-0.3,0.3-0.7,0.8-1.2,1.4 c-1,1-1.5,1.9-1.5,2.7c0,0.7,0.2,1.3,0.6,1.8c0.3,0.5,0.7,0.8,1.2,0.9c1.2,0,3.2-1,5.9-2.9c0.4-0.3,1.1-0.8,2-1.6 c0.9-0.7,2.1-1.7,3.7-2.9c0.1,0,0.2,0,0.3,0C205.5,109.4,205.5,109.5,205.6,109.6 M218.6,109.6c0,0.2-0.1,0.4-0.2,0.5 c-3.3,2.9-5.3,4.6-6.1,5.2c-2.9,2-6.1,3.1-9.6,3.1c-1.1,0-1.9-0.2-2.5-0.7c-0.2-0.1-0.7-0.6-1.5-1.5c0-0.2,0-0.4,0.1-0.5 c-0.5,0.3-1,0.6-1.4,0.8c-0.4,0.2-0.9,0.5-1.3,0.6c-0.5,0-0.7-0.1-0.8-0.2c0-0.1,0-0.2,0.1-0.3c0.1-0.1,0.2-0.3,0.3-0.5 c1.3-0.7,2.7-1.6,4.1-2.5c1.4-1,2.9-2.1,4.4-3.4c0,0,0-0.1,0-0.1c0.8-0.7,1.7-1,2.6-1.1c1.4,0,2.1,0.7,2.1,2.1c0,0.9-0.4,2-1.3,3.3 c-0.8,1.1-1.5,1.9-2.3,2.4c1.8,0,4.1-1,7-2.9c0.7-0.4,1.5-1,2.4-1.7c0.9-0.7,2.1-1.6,3.4-2.7c0.1,0,0.2,0,0.3,0 C218.6,109.4,218.6,109.5,218.6,109.6 M207,111.6c0-0.8-0.4-1.1-1.1-1.1h-0.5c-0.1,0-0.3,0-0.3,0.1c-1.1,1-2.1,1.9-3,2.6 c-0.9,0.8-1.8,1.5-2.6,2.1c0.1,0,0.3,0,0.4,0.1c1,0.6,1.8,1,2.5,1.1c0.6,0,1.2-0.1,1.8-0.4c0.6-0.3,1.1-0.8,1.6-1.4 c0.4-0.5,0.7-1,0.9-1.5C206.8,112.6,206.9,112.1,207,111.6 M222.2,106.2c0,0.9-0.6,1.3-1.7,1.3c-1.1,0-1.7-0.4-1.7-1.3 c0-0.9,0.6-1.3,1.7-1.3C221.6,104.8,222.2,105.3,222.2,106.2 M229.2,109.6c0,0.2-0.1,0.3-0.2,0.5c-1.5,1.4-2.8,2.6-3.7,3.4 c-0.9,0.8-1.6,1.4-2.1,1.7c-2.5,2-4.4,3-5.7,3c-0.8,0-1.6-0.3-2.3-0.8c-0.7-0.5-1-1.1-1.1-1.8c0-1.1,0.6-2.5,1.7-4 c1-1.4,1.9-2.2,2.7-2.4c0.4,0,0.6,0.1,0.6,0.4c0,0.2-0.5,0.9-1.4,2c-0.8,1.1-1.2,2.1-1.3,3.1c0,1.2,0.5,1.9,1.6,1.9 c1.2,0,4.8-2.4,10.8-7.2c0.1-0.1,0.1-0.1,0.3-0.1C229.1,109.4,229.1,109.5,229.2,109.6 M246.8,109.6c0,0.2-0.1,0.4-0.2,0.5 c-1,1.2-2.4,2.5-4.3,4c-1.3,1-2.5,1.7-3.5,2.2c-1,0.5-2,0.7-2.9,0.8c-0.8,0-1.7-0.6-2.8-1.9c-2.2,2.3-4,3.5-5.5,3.5 c-0.7,0-1.3-0.2-1.7-0.6c-0.4-0.4-0.6-0.9-0.6-1.6c0-0.8,0.3-1.7,0.8-2.9c0.5-1.2,1.3-2.5,2.4-4c0.1-0.2,0.4-0.3,0.9-0.4 c0.2,0,0.4,0.1,0.4,0.3c0,0.1,0,0.1,0,0.2c-0.1,0-0.3,0.2-0.6,0.5c-0.2,0.4-0.6,0.9-1,1.7c-0.8,1.4-1.2,2.5-1.2,3.3 c0,1.2,0.5,1.8,1.6,1.9c0.8,0,2.1-0.9,4.1-2.7c-0.5-0.7-0.7-1.8-0.8-3.2c0-0.8,0.2-1.5,0.6-2.1c0.5-0.6,1-0.9,1.6-0.9 c1.1,0,1.7,0.7,1.7,2c0,1.5-0.6,2.9-1.8,4.2c0.7,1,1.4,1.6,2.2,1.6c1.3,0,3.1-0.8,5.4-2.4c2.1-1.4,3.7-2.9,4.9-4.3 c0.1-0.1,0.2-0.2,0.3-0.1C246.7,109.4,246.7,109.5,246.8,109.6 M235,110.5c0-0.9-0.3-1.3-0.8-1.3c-1,0-1.5,0.7-1.5,2 c0,1,0.2,1.8,0.6,2.6c0.7-0.9,1.1-1.4,1.2-1.5C234.8,111.7,234.9,111.1,235,110.5 M256.5,109.6c0,0.2-0.1,0.4-0.2,0.5 c-1.5,1.4-2.7,2.5-3.8,3.3c-1,0.9-1.8,1.5-2.4,1.9c-2.9,2.1-5.5,3.1-7.8,3.2c-2,0-3-1.1-3-3.3c0-1.4,0.7-2.9,2.2-4.7 c1.5-1.7,2.9-2.6,4-2.6c0.4,0,0.7,0.2,1,0.5c0.3,0.3,0.4,0.6,0.5,0.9c0,0.5-0.3,1.1-0.8,1.6c-0.3,0.2-0.6,0.5-0.8,0.7 c-0.3,0.2-0.5,0.5-0.8,0.7c-0.9,0.8-2,1.5-3.3,2.2c0,0.7,0.3,1.4,0.9,1.8c0.5,0.3,1,0.5,1.6,0.5c1.5,0,3.7-1,6.7-3.1 c0.3-0.2,0.9-0.7,1.8-1.4c0.9-0.7,2.2-1.8,3.9-3.1c0.1,0,0.2,0,0.3,0C256.4,109.4,256.5,109.5,256.5,109.6 M245,109.8 c0-0.2-0.2-0.3-0.6-0.4c-0.5,0-1.1,0.5-1.9,1.4c-0.8,0.9-1.2,1.6-1.2,2.3c0.1,0,0.4-0.1,0.8-0.2C244,111.8,245,110.7,245,109.8"></path> </g> </svg> 