<?xml version="1.0" encoding="UTF-8"?> <svg xmlns="http://www.w3.org/2000/svg" xmlns:xlink="http://www.w3.org/1999/xlink" viewBox="0 0 1751 285.9"> <defs> <linearGradient id="linear-gradient" x1="1024.77" y1="102.18" x2="1025.27" y2="102.18" gradientUnits="userSpaceOnUse"> <stop offset="0" stop-color="#66dac7"></stop> <stop offset="1" stop-color="#00c2a2"></stop> </linearGradient> <linearGradient id="linear-gradient-2" x1="1024.77" y1="110.56" x2="1025.27" y2="110.56" gradientUnits="userSpaceOnUse"> <stop offset="0" stop-color="#66baac"></stop> <stop offset="1" stop-color="#008c75"></stop> </linearGradient> <linearGradient id="linear-gradient-3" y1="82.45" y2="82.45" xlink:href="#linear-gradient"></linearGradient> <linearGradient id="linear-gradient-4" x1="1024.77" y1="51.12" x2="1025.27" y2="51.12" xlink:href="#linear-gradient"></linearGradient> <linearGradient id="linear-gradient-5" x1="1024.77" y1="109.51" x2="1025.27" y2="109.51" gradientUnits="userSpaceOnUse"> <stop offset="0" stop-color="#66a699"></stop> <stop offset="1" stop-color="#006b55"></stop> </linearGradient> <linearGradient id="linear-gradient-6" x1="1024.77" y1="92.24" x2="1025.27" y2="92.24" xlink:href="#linear-gradient-5"></linearGradient> <linearGradient id="linear-gradient-7" x1="1024.77" y1="82.24" x2="1025.27" y2="82.24" xlink:href="#linear-gradient-2"></linearGradient> <linearGradient id="linear-gradient-8" x1="1024.77" y1="19" x2="1025.27" y2="19" xlink:href="#linear-gradient-2"></linearGradient> <linearGradient id="linear-gradient-9" x1="1024.77" y1="17.69" x2="1025.27" y2="17.69" xlink:href="#linear-gradient-2"></linearGradient> <linearGradient id="linear-gradient-10" x1="1024.77" y1="54.35" x2="1025.27" y2="54.35" gradientUnits="userSpaceOnUse"> <stop offset="0" stop-color="#ff66bf"></stop> <stop offset="1" stop-color="#ff0095"></stop> </linearGradient> </defs> <g style="isolation:isolate;"> <g id="Layer_2"> <g id="fon_photo"> <rect y="97.9" width="1751" height="188" style="fill:#008c75;"></rect> </g> <g id="cubes_"> <g> <g> <rect x="1382.39" y="97.04" width="27.3" height="27.3" transform="translate(438.32 1132.44) rotate(-51.39)" style="fill:#00c2a2; mix-blend-mode:screen;"></rect> <rect x="1382.39" y="97.04" width="27.3" height="27.3" transform="translate(438.32 1132.44) rotate(-51.39)" style="fill:#00c2a2; mix-blend-mode:screen;"></rect> <polygon points="1376.86 112.84 1393.9 91.51 1415.23 108.55 1376.86 112.84" style="fill:url(#linear-gradient); mix-blend-mode:screen;"></polygon> </g> <g> <rect x="1462.2" y="96.91" width="27.3" height="27.3" transform="translate(1586.41 -1365.29) rotate(90)" style="fill:#008c75; mix-blend-mode:screen;"></rect> <rect x="1462.2" y="96.91" width="27.3" height="27.3" transform="translate(1586.41 -1365.29) rotate(90)" style="fill:#008c75; mix-blend-mode:screen;"></rect> <polygon points="1489.5 96.91 1489.5 124.21 1462.2 124.21 1489.5 96.91" style="fill:url(#linear-gradient-2); mix-blend-mode:screen;"></polygon> </g> <g> <rect x="1494.4" y="68.8" width="27.3" height="27.3" style="fill:#00c2a2; mix-blend-mode:screen;"></rect> <rect x="1494.4" y="68.8" width="27.3" height="27.3" style="fill:#00c2a2; mix-blend-mode:screen;"></rect> <polygon points="1494.4 68.8 1521.7 68.8 1521.7 96.11 1494.4 68.8" style="fill:url(#linear-gradient-3); mix-blend-mode:screen;"></polygon> </g> <g> <rect x="1360.18" y="44.1" width="27.3" height="27.3" transform="translate(144.87 674.52) rotate(-29.06)" style="fill:#00c2a2; mix-blend-mode:screen;"></rect> <rect x="1360.18" y="44.1" width="27.3" height="27.3" transform="translate(144.87 674.52) rotate(-29.06)" style="fill:#00c2a2; mix-blend-mode:screen;"></rect> <polygon points="1355.26 52.45 1379.13 39.19 1392.39 63.05 1355.26 52.45" style="fill:url(#linear-gradient-4); mix-blend-mode:screen;"></polygon> </g> <g> <rect x="1538.89" y="95.86" width="27.3" height="27.3" style="fill:#006b55; mix-blend-mode:screen;"></rect> <rect x="1538.89" y="95.86" width="27.3" height="27.3" style="fill:#006b55; mix-blend-mode:screen;"></rect> <polygon points="1538.89 95.86 1566.19 95.86 1566.19 123.16 1538.89 95.86" style="fill:url(#linear-gradient-5); mix-blend-mode:screen;"></polygon> </g> <g> <rect x="1311.75" y="83.39" width="27.3" height="27.3" transform="translate(50.69 472.83) rotate(-20.61)" style="fill:#006b55; mix-blend-mode:screen;"></rect> <rect x="1311.75" y="83.39" width="27.3" height="27.3" transform="translate(50.69 472.83) rotate(-20.61)" style="fill:#006b55; mix-blend-mode:screen;"></rect> <polygon points="1307.82 89.07 1333.38 79.46 1342.99 105.02 1307.82 89.07" style="fill:url(#linear-gradient-6); mix-blend-mode:screen;"></polygon> </g> <g> <rect x="1538.89" y="68.58" width="27.3" height="27.3" transform="translate(1634.78 -1470.3) rotate(90)" style="fill:#008c75; mix-blend-mode:screen;"></rect> <rect x="1538.89" y="68.58" width="27.3" height="27.3" transform="translate(1634.78 -1470.3) rotate(90)" style="fill:#008c75; mix-blend-mode:screen;"></rect> <polygon points="1566.19 68.58 1566.19 95.89 1538.89 95.89 1566.19 68.58" style="fill:url(#linear-gradient-7); mix-blend-mode:screen;"></polygon> </g> <g> <rect x="1316.68" y="4.17" width="27.3" height="27.3" transform="translate(1462.75 -1306.02) rotate(94.94)" style="fill:#008c75; mix-blend-mode:screen;"></rect> <rect x="1316.68" y="4.17" width="27.3" height="27.3" transform="translate(1462.75 -1306.02) rotate(94.94)" style="fill:#008c75; mix-blend-mode:screen;"></rect> <polygon points="1345.11 5.4 1342.76 32.6 1315.56 30.25 1345.11 5.4" style="fill:url(#linear-gradient-8); mix-blend-mode:screen;"></polygon> </g> <g> <rect x="1415.17" y="4.04" width="27.3" height="27.3" transform="translate(924.68 -1319.35) rotate(68.63)" style="fill:#008c75; mix-blend-mode:screen;"></rect> <rect x="1415.17" y="4.04" width="27.3" height="27.3" transform="translate(924.68 -1319.35) rotate(68.63)" style="fill:#008c75; mix-blend-mode:screen;"></rect> <polygon points="1436.56 0 1446.51 25.43 1421.08 35.38 1436.56 0" style="fill:url(#linear-gradient-9); mix-blend-mode:screen;"></polygon> </g> <g> <rect x="1453.38" y="40.7" width="27.3" height="27.3" style="fill:#ff0095;"></rect> <polygon points="1453.38 40.7 1480.68 40.7 1480.68 68 1453.38 40.7" style="fill:url(#linear-gradient-10);"></polygon> </g> </g> </g> </g> </g> </svg> 