<?xml version="1.0" encoding="UTF-8"?> <!-- Generator: Adobe Illustrator 26.5.0, SVG Export Plug-In . SVG Version: 6.00 Build 0) --> <svg xmlns="http://www.w3.org/2000/svg" xmlns:xlink="http://www.w3.org/1999/xlink" id="Слой_1" x="0px" y="0px" viewBox="0 0 595.3 297.6" style="enable-background:new 0 0 595.3 297.6;" xml:space="preserve"> <style type="text/css"> .st0{fill:#80BC00;} .st1{fill:#8AE0B0;} .st2{fill:#E97220;} .st3{fill-rule:evenodd;clip-rule:evenodd;fill:#FF8300;} .st4{fill:none;} </style> <g> <path class="st0" d="M493.2,157.7l-7.5-24.3l-7.4,24.3H493.2z M497.5,172.3h-23.8l-3.3,11.2h-21.3l25.4-67.6h22.8l25.4,67.6h-21.9 L497.5,172.3z"></path> <path class="st1" d="M93.7,143.3h8.9c1,0,2.8-0.3,5.6-0.9c1.4-0.3,2.5-1,3.4-2.1c0.9-1.1,1.3-2.5,1.3-4c0-2.2-0.7-3.9-2.1-5.1 c-1.4-1.2-4-1.8-7.9-1.8h-9.3V143.3z M72.6,183.9v-68.2h35.1c6.5,0,11.5,0.6,14.9,1.7c3.4,1.1,6.2,3.2,8.3,6.2 c2.1,3,3.2,6.7,3.2,11c0,3.8-0.8,7-2.4,9.8c-1.6,2.7-3.8,5-6.7,6.7c-1.8,1.1-4.3,2-7.4,2.7c2.5,0.8,4.3,1.7,5.5,2.5 c0.8,0.6,1.9,1.8,3.4,3.6c1.5,1.8,2.5,3.2,3,4.2l10.2,19.8h-23.8L104.6,163c-1.4-2.7-2.7-4.4-3.8-5.3c-1.5-1-3.2-1.6-5.2-1.6h-1.9 v27.7H72.6z"></path> <polygon class="st1" points="146.4,115.8 202.8,115.8 202.8,130.4 167.5,130.4 167.5,141.2 200.3,141.2 200.3,155.2 167.5,155.2 167.5,168.6 203.9,168.6 203.9,184 146.4,184 "></polygon> <polygon class="st0" points="234.6,115.9 254.1,115.9 279.6,153.6 279.6,115.9 299.3,115.9 299.3,184 279.6,184 254.2,146.6 254.2,184 234.6,184 "></polygon> <path class="st0" d="M331.5,148.7c0,6.8,1.3,11.7,3.8,14.7c2.5,3,6,4.5,10.4,4.5c4.5,0,8-1.5,10.4-4.4c2.5-2.9,3.7-8.2,3.7-15.7 c0-6.4-1.3-11-3.9-14c-2.6-2.9-6-4.4-10.5-4.4c-4.2,0-7.6,1.5-10.1,4.5C332.7,136.9,331.5,141.8,331.5,148.7 M310.6,148.6 c0-11,3.1-19.6,9.2-25.8c6.2-6.2,14.7-9.2,25.7-9.2c11.3,0,19.9,3,26,9.1c6.1,6,9.1,14.5,9.1,25.4c0,7.9-1.3,14.4-4,19.4 c-2.7,5.1-6.5,9-11.5,11.8c-5,2.8-11.3,4.2-18.8,4.2c-7.6,0-13.9-1.2-18.9-3.6c-5-2.4-9-6.3-12.2-11.5 C312.1,163.1,310.6,156.5,310.6,148.6z"></path> <polygon class="st0" points="380.9,115.9 402.8,115.9 418,164.5 433,115.9 454.2,115.9 429.1,183.5 406.5,183.5 "></polygon> <rect x="215.6" y="115.8" class="st2" width="6.7" height="68.2"></rect> <rect x="215.6" y="115.8" class="st3" width="6.7" height="68.2"></rect> <rect x="215.6" y="115.8" class="st4" width="6.7" height="68.2"></rect> </g> </svg> 